0, 0, Header, 0, 1, 96
1, 0, Start_track
1, 0, Title_t, "Arp\000"
1, 0, Time_signature, 4, 2, 36, 8
1, 0, Time_signature, 4, 2, 36, 8
1, 0, Channel_aftertouch_c, 0, 0
1, 0, Note_on_c, 0, 45, 78
1, 24, Note_off_c, 0, 45, 78
1, 24, Note_on_c, 0, 57, 82
1, 48, Note_off_c, 0, 57, 82
1, 48, Note_on_c, 0, 69, 71
1, 71, Note_off_c, 0, 69, 71
1, 71, Note_on_c, 0, 72, 77
1, 96, Note_on_c, 0, 45, 78
1, 96, Note_off_c, 0, 72, 77
1, 120, Note_off_c, 0, 45, 78
1, 120, Note_on_c, 0, 57, 82
1, 144, Note_off_c, 0, 57, 82
1, 144, Note_on_c, 0, 69, 71
1, 168, Note_off_c, 0, 69, 71
1, 168, Note_on_c, 0, 76, 80
1, 192, Note_on_c, 0, 45, 78
1, 192, Note_off_c, 0, 76, 80
1, 216, Note_off_c, 0, 45, 78
1, 216, Note_on_c, 0, 57, 82
1, 240, Note_off_c, 0, 57, 82
1, 240, Note_on_c, 0, 69, 71
1, 264, Note_off_c, 0, 69, 71
1, 264, Note_on_c, 0, 72, 77
1, 288, Note_on_c, 0, 45, 78
1, 288, Note_off_c, 0, 72, 77
1, 312, Note_off_c, 0, 45, 78
1, 312, Note_on_c, 0, 57, 82
1, 336, Note_off_c, 0, 57, 82
1, 336, Note_on_c, 0, 69, 71
1, 360, Note_off_c, 0, 69, 71
1, 360, Note_on_c, 0, 76, 80
1, 384, Note_off_c, 0, 76, 80
1, 385, Note_on_c, 0, 81, 71
1, 407, Note_on_c, 0, 77, 66
1, 408, Note_off_c, 0, 81, 71
1, 431, Note_off_c, 0, 77, 66
1, 432, Note_on_c, 0, 72, 69
1, 455, Note_on_c, 0, 48, 67
1, 455, Note_off_c, 0, 72, 69
1, 479, Note_off_c, 0, 48, 67
1, 480, Note_on_c, 0, 81, 71
1, 502, Note_on_c, 0, 77, 66
1, 502, Note_off_c, 0, 81, 71
1, 526, Note_on_c, 0, 72, 69
1, 526, Note_off_c, 0, 77, 66
1, 550, Note_off_c, 0, 72, 69
1, 552, Note_on_c, 0, 60, 70
1, 576, Note_off_c, 0, 60, 70
1, 577, Note_on_c, 0, 81, 71
1, 600, Note_on_c, 0, 77, 66
1, 600, Note_off_c, 0, 81, 71
1, 624, Note_on_c, 0, 72, 69
1, 624, Note_off_c, 0, 77, 66
1, 647, Note_off_c, 0, 72, 69
1, 648, Note_on_c, 0, 48, 67
1, 672, Note_off_c, 0, 48, 67
1, 672, Note_on_c, 0, 81, 71
1, 694, Note_on_c, 0, 77, 66
1, 694, Note_off_c, 0, 81, 71
1, 718, Note_on_c, 0, 72, 69
1, 718, Note_off_c, 0, 77, 66
1, 742, Note_off_c, 0, 72, 69
1, 744, Note_on_c, 0, 60, 70
1, 768, Note_off_c, 0, 60, 70
1, 770, Note_on_c, 0, 40, 61
1, 792, Note_off_c, 0, 40, 61
1, 792, Note_on_c, 0, 52, 62
1, 816, Note_off_c, 0, 52, 62
1, 816, Note_on_c, 0, 67, 58
1, 839, Note_off_c, 0, 67, 58
1, 840, Note_on_c, 0, 71, 67
1, 863, Note_off_c, 0, 71, 67
1, 866, Note_on_c, 0, 40, 61
1, 888, Note_off_c, 0, 40, 61
1, 888, Note_on_c, 0, 52, 62
1, 912, Note_off_c, 0, 52, 62
1, 912, Note_on_c, 0, 67, 58
1, 935, Note_off_c, 0, 67, 58
1, 935, Note_on_c, 0, 74, 71
1, 960, Note_off_c, 0, 74, 71
1, 962, Note_on_c, 0, 40, 61
1, 984, Note_off_c, 0, 40, 61
1, 984, Note_on_c, 0, 52, 62
1, 1008, Note_off_c, 0, 52, 62
1, 1008, Note_on_c, 0, 67, 58
1, 1031, Note_off_c, 0, 67, 58
1, 1032, Note_on_c, 0, 71, 67
1, 1056, Note_off_c, 0, 71, 67
1, 1058, Note_on_c, 0, 40, 61
1, 1080, Note_off_c, 0, 40, 61
1, 1080, Note_on_c, 0, 52, 62
1, 1104, Note_off_c, 0, 52, 62
1, 1104, Note_on_c, 0, 67, 58
1, 1127, Note_off_c, 0, 67, 58
1, 1128, Note_on_c, 0, 74, 71
1, 1152, Note_off_c, 0, 74, 71
1, 1152, Note_on_c, 0, 81, 72
1, 1175, Note_on_c, 0, 76, 68
1, 1175, Note_off_c, 0, 81, 72
1, 1199, Note_on_c, 0, 72, 64
1, 1200, Note_off_c, 0, 76, 68
1, 1224, Note_on_c, 0, 57, 62
1, 1224, Note_off_c, 0, 72, 64
1, 1248, Note_off_c, 0, 57, 62
1, 1248, Note_on_c, 0, 81, 72
1, 1272, Note_on_c, 0, 76, 68
1, 1272, Note_off_c, 0, 81, 72
1, 1296, Note_on_c, 0, 72, 64
1, 1296, Note_off_c, 0, 76, 68
1, 1320, Note_on_c, 0, 45, 62
1, 1320, Note_off_c, 0, 72, 64
1, 1344, Note_off_c, 0, 45, 62
1, 1344, Note_on_c, 0, 81, 72
1, 1368, Note_on_c, 0, 76, 68
1, 1368, Note_off_c, 0, 81, 72
1, 1392, Note_on_c, 0, 72, 64
1, 1392, Note_off_c, 0, 76, 68
1, 1416, Note_on_c, 0, 57, 62
1, 1416, Note_off_c, 0, 72, 64
1, 1440, Note_off_c, 0, 57, 62
1, 1440, Note_on_c, 0, 81, 72
1, 1464, Note_on_c, 0, 76, 68
1, 1464, Note_off_c, 0, 81, 72
1, 1488, Note_on_c, 0, 72, 64
1, 1488, Note_off_c, 0, 76, 68
1, 1512, Note_on_c, 0, 45, 62
1, 1512, Note_off_c, 0, 72, 64
1, 1536, Note_off_c, 0, 45, 62
1, 1536, End_track
0, 0, End_of_file