0, 0, Header, 0, 1, 96
1, 0, Start_track
1, 0, Title_t, "Cymatics - Odyssey MIDI 42 - A Min\000"
1, 0, Time_signature, 4, 2, 36, 8
1, 0, Time_signature, 4, 2, 36, 8
1, 48, Note_on_c, 0, 57, 100
1, 48, Note_on_c, 0, 60, 100
1, 48, Note_on_c, 0, 64, 100
1, 48, Note_on_c, 0, 76, 100
1, 96, Note_off_c, 0, 57, 64
1, 96, Note_off_c, 0, 60, 64
1, 96, Note_off_c, 0, 64, 64
1, 96, Note_off_c, 0, 76, 64
1, 120, Note_on_c, 0, 57, 100
1, 120, Note_on_c, 0, 60, 100
1, 120, Note_on_c, 0, 64, 100
1, 120, Note_on_c, 0, 76, 100
1, 168, Note_off_c, 0, 57, 64
1, 168, Note_off_c, 0, 60, 64
1, 168, Note_off_c, 0, 64, 64
1, 168, Note_off_c, 0, 76, 64
1, 216, Note_on_c, 0, 57, 100
1, 216, Note_on_c, 0, 60, 100
1, 216, Note_on_c, 0, 64, 100
1, 216, Note_on_c, 0, 74, 100
1, 264, Note_off_c, 0, 74, 64
1, 276, Note_off_c, 0, 57, 64
1, 276, Note_off_c, 0, 60, 64
1, 276, Note_off_c, 0, 64, 64
1, 312, Note_on_c, 0, 57, 100
1, 312, Note_on_c, 0, 60, 100
1, 312, Note_on_c, 0, 64, 100
1, 312, Note_on_c, 0, 72, 100
1, 360, Note_off_c, 0, 72, 64
1, 360, Note_on_c, 0, 81, 100
1, 372, Note_off_c, 0, 57, 64
1, 372, Note_off_c, 0, 60, 64
1, 372, Note_off_c, 0, 64, 64
1, 384, Note_off_c, 0, 81, 64
1, 432, Note_on_c, 0, 53, 100
1, 432, Note_on_c, 0, 57, 100
1, 432, Note_on_c, 0, 60, 100
1, 432, Note_on_c, 0, 64, 100
1, 432, Note_on_c, 0, 76, 100
1, 480, Note_off_c, 0, 53, 64
1, 480, Note_off_c, 0, 57, 64
1, 480, Note_off_c, 0, 60, 64
1, 480, Note_off_c, 0, 64, 64
1, 480, Note_off_c, 0, 76, 64
1, 504, Note_on_c, 0, 53, 100
1, 504, Note_on_c, 0, 57, 100
1, 504, Note_on_c, 0, 60, 100
1, 504, Note_on_c, 0, 64, 100
1, 504, Note_on_c, 0, 76, 100
1, 552, Note_off_c, 0, 53, 64
1, 552, Note_off_c, 0, 57, 64
1, 552, Note_off_c, 0, 60, 64
1, 552, Note_off_c, 0, 64, 64
1, 552, Note_off_c, 0, 76, 64
1, 600, Note_on_c, 0, 53, 100
1, 600, Note_on_c, 0, 57, 100
1, 600, Note_on_c, 0, 60, 100
1, 600, Note_on_c, 0, 64, 100
1, 600, Note_on_c, 0, 74, 100
1, 648, Note_off_c, 0, 74, 64
1, 660, Note_off_c, 0, 53, 64
1, 660, Note_off_c, 0, 57, 64
1, 660, Note_off_c, 0, 60, 64
1, 660, Note_off_c, 0, 64, 64
1, 696, Note_on_c, 0, 53, 100
1, 696, Note_on_c, 0, 57, 100
1, 696, Note_on_c, 0, 60, 100
1, 696, Note_on_c, 0, 64, 100
1, 696, Note_on_c, 0, 79, 100
1, 744, Note_off_c, 0, 53, 64
1, 744, Note_off_c, 0, 57, 64
1, 744, Note_off_c, 0, 60, 64
1, 744, Note_off_c, 0, 64, 64
1, 744, Note_off_c, 0, 79, 64
1, 816, Note_on_c, 0, 55, 100
1, 816, Note_on_c, 0, 59, 100
1, 816, Note_on_c, 0, 62, 100
1, 816, Note_on_c, 0, 76, 100
1, 864, Note_off_c, 0, 55, 64
1, 864, Note_off_c, 0, 59, 64
1, 864, Note_off_c, 0, 62, 64
1, 864, Note_off_c, 0, 76, 64
1, 888, Note_on_c, 0, 55, 100
1, 888, Note_on_c, 0, 59, 100
1, 888, Note_on_c, 0, 62, 100
1, 888, Note_on_c, 0, 76, 100
1, 936, Note_off_c, 0, 55, 64
1, 936, Note_off_c, 0, 59, 64
1, 936, Note_off_c, 0, 62, 64
1, 936, Note_off_c, 0, 76, 64
1, 984, Note_on_c, 0, 55, 100
1, 984, Note_on_c, 0, 59, 100
1, 984, Note_on_c, 0, 62, 100
1, 984, Note_on_c, 0, 74, 100
1, 1032, Note_off_c, 0, 74, 64
1, 1044, Note_off_c, 0, 55, 64
1, 1044, Note_off_c, 0, 59, 64
1, 1044, Note_off_c, 0, 62, 64
1, 1080, Note_on_c, 0, 55, 100
1, 1080, Note_on_c, 0, 59, 100
1, 1080, Note_on_c, 0, 62, 100
1, 1080, Note_on_c, 0, 72, 100
1, 1128, Note_off_c, 0, 72, 64
1, 1128, Note_on_c, 0, 81, 100
1, 1140, Note_off_c, 0, 55, 64
1, 1140, Note_off_c, 0, 59, 64
1, 1140, Note_off_c, 0, 62, 64
1, 1152, Note_off_c, 0, 81, 64
1, 1200, Note_on_c, 0, 50, 100
1, 1200, Note_on_c, 0, 53, 100
1, 1200, Note_on_c, 0, 57, 100
1, 1200, Note_on_c, 0, 60, 100
1, 1200, Note_on_c, 0, 76, 100
1, 1248, Note_off_c, 0, 50, 64
1, 1248, Note_off_c, 0, 53, 64
1, 1248, Note_off_c, 0, 57, 64
1, 1248, Note_off_c, 0, 60, 64
1, 1248, Note_off_c, 0, 76, 64
1, 1272, Note_on_c, 0, 50, 100
1, 1272, Note_on_c, 0, 53, 100
1, 1272, Note_on_c, 0, 57, 100
1, 1272, Note_on_c, 0, 60, 100
1, 1272, Note_on_c, 0, 76, 100
1, 1320, Note_off_c, 0, 50, 64
1, 1320, Note_off_c, 0, 53, 64
1, 1320, Note_off_c, 0, 57, 64
1, 1320, Note_off_c, 0, 60, 64
1, 1320, Note_off_c, 0, 76, 64
1, 1368, Note_on_c, 0, 50, 100
1, 1368, Note_on_c, 0, 53, 100
1, 1368, Note_on_c, 0, 57, 100
1, 1368, Note_on_c, 0, 60, 100
1, 1368, Note_on_c, 0, 74, 100
1, 1416, Note_off_c, 0, 74, 64
1, 1428, Note_off_c, 0, 50, 64
1, 1428, Note_off_c, 0, 53, 64
1, 1428, Note_off_c, 0, 57, 64
1, 1428, Note_off_c, 0, 60, 64
1, 1464, Note_on_c, 0, 50, 100
1, 1464, Note_on_c, 0, 53, 100
1, 1464, Note_on_c, 0, 57, 100
1, 1464, Note_on_c, 0, 60, 100
1, 1464, Note_on_c, 0, 79, 100
1, 1512, Note_off_c, 0, 79, 64
1, 1512, Note_on_c, 0, 91, 100
1, 1524, Note_off_c, 0, 50, 64
1, 1524, Note_off_c, 0, 53, 64
1, 1524, Note_off_c, 0, 57, 64
1, 1524, Note_off_c, 0, 60, 64
1, 1536, Note_off_c, 0, 91, 64
1, 1536, End_track
0, 0, End_of_file