0, 0, Header, 0, 1, 96
1, 0, Start_track
1, 0, Title_t, "Arp\000"
1, 0, Time_signature, 4, 2, 36, 8
1, 0, Time_signature, 4, 2, 36, 8
1, 0, Control_c, 0, 1, 40
1, 0, Note_on_c, 0, 64, 43
1, 48, Note_off_c, 0, 64, 43
1, 48, Note_on_c, 0, 72, 38
1, 96, Note_on_c, 0, 67, 41
1, 96, Note_off_c, 0, 72, 38
1, 144, Note_on_c, 0, 64, 38
1, 144, Note_off_c, 0, 67, 41
1, 192, Note_off_c, 0, 64, 38
1, 192, Note_on_c, 0, 72, 42
1, 240, Note_on_c, 0, 67, 38
1, 240, Note_off_c, 0, 72, 42
1, 288, Note_on_c, 0, 64, 38
1, 288, Note_off_c, 0, 67, 38
1, 336, Note_off_c, 0, 64, 38
1, 336, Note_on_c, 0, 72, 40
1, 384, Note_on_c, 0, 64, 42
1, 384, Note_off_c, 0, 72, 40
1, 432, Note_off_c, 0, 64, 42
1, 432, Note_on_c, 0, 71, 39
1, 480, Note_on_c, 0, 67, 41
1, 480, Note_off_c, 0, 71, 39
1, 528, Note_on_c, 0, 64, 39
1, 528, Note_off_c, 0, 67, 41
1, 576, Note_off_c, 0, 64, 39
1, 576, Note_on_c, 0, 71, 41
1, 624, Note_on_c, 0, 67, 40
1, 624, Note_off_c, 0, 71, 41
1, 672, Note_on_c, 0, 64, 39
1, 672, Note_off_c, 0, 67, 40
1, 720, Note_off_c, 0, 64, 39
1, 720, Note_on_c, 0, 71, 39
1, 768, Note_on_c, 0, 64, 44
1, 768, Note_off_c, 0, 71, 39
1, 816, Note_off_c, 0, 64, 44
1, 816, Note_on_c, 0, 72, 40
1, 864, Note_on_c, 0, 65, 41
1, 864, Note_off_c, 0, 72, 40
1, 912, Note_on_c, 0, 64, 39
1, 912, Note_off_c, 0, 65, 41
1, 960, Note_off_c, 0, 64, 39
1, 960, Note_on_c, 0, 72, 42
1, 1008, Note_on_c, 0, 65, 38
1, 1008, Note_off_c, 0, 72, 42
1, 1056, Note_on_c, 0, 64, 39
1, 1056, Note_off_c, 0, 65, 38
1, 1104, Note_off_c, 0, 64, 39
1, 1104, Note_on_c, 0, 72, 40
1, 1152, Note_on_c, 0, 62, 45
1, 1152, Note_off_c, 0, 72, 40
1, 1200, Note_off_c, 0, 62, 45
1, 1200, Note_on_c, 0, 72, 40
1, 1248, Note_on_c, 0, 65, 42
1, 1248, Note_off_c, 0, 72, 40
1, 1296, Note_on_c, 0, 62, 40
1, 1296, Note_off_c, 0, 65, 42
1, 1344, Note_off_c, 0, 62, 40
1, 1344, Note_on_c, 0, 72, 43
1, 1392, Note_on_c, 0, 65, 40
1, 1392, Note_off_c, 0, 72, 43
1, 1440, Note_on_c, 0, 62, 40
1, 1440, Note_off_c, 0, 65, 40
1, 1488, Note_off_c, 0, 62, 40
1, 1488, Note_on_c, 0, 72, 38
1, 1536, Note_off_c, 0, 72, 38
1, 1536, End_track
0, 0, End_of_file