0, 0, Header, 0, 1, 96
1, 0, Start_track
1, 0, Title_t, "Cymatics - Odyssey MIDI 9 - D Min\000"
1, 0, Time_signature, 4, 2, 36, 8
1, 0, Time_signature, 4, 2, 36, 8
1, 0, Note_on_c, 0, 33, 92
1, 0, Note_on_c, 0, 57, 92
1, 0, Note_on_c, 0, 64, 92
1, 0, Note_on_c, 0, 67, 91
1, 3, Note_on_c, 0, 72, 92
1, 36, Note_off_c, 0, 33, 90
1, 36, Note_on_c, 0, 33, 92
1, 36, Note_off_c, 0, 57, 90
1, 36, Note_on_c, 0, 57, 92
1, 36, Note_off_c, 0, 64, 90
1, 36, Note_on_c, 0, 64, 92
1, 36, Note_off_c, 0, 67, 90
1, 36, Note_on_c, 0, 67, 91
1, 39, Note_off_c, 0, 72, 90
1, 39, Note_on_c, 0, 72, 92
1, 96, Note_off_c, 0, 33, 90
1, 96, Note_off_c, 0, 57, 90
1, 96, Note_off_c, 0, 64, 90
1, 96, Note_off_c, 0, 67, 90
1, 99, Note_off_c, 0, 72, 90
1, 120, Note_on_c, 0, 33, 92
1, 120, Note_on_c, 0, 57, 92
1, 168, Note_off_c, 0, 33, 90
1, 168, Note_off_c, 0, 57, 90
1, 192, Note_on_c, 0, 33, 92
1, 192, Note_on_c, 0, 57, 92
1, 192, Note_on_c, 0, 64, 92
1, 192, Note_on_c, 0, 67, 91
1, 195, Note_on_c, 0, 72, 92
1, 288, Note_off_c, 0, 33, 90
1, 288, Note_on_c, 0, 33, 92
1, 288, Note_off_c, 0, 57, 90
1, 288, Note_on_c, 0, 57, 92
1, 288, Note_off_c, 0, 64, 90
1, 288, Note_off_c, 0, 67, 90
1, 291, Note_off_c, 0, 72, 90
1, 384, Note_off_c, 0, 33, 90
1, 384, Note_on_c, 0, 38, 92
1, 384, Note_off_c, 0, 57, 90
1, 384, Note_on_c, 0, 62, 92
1, 384, Note_on_c, 0, 65, 92
1, 387, Note_on_c, 0, 69, 92
1, 391, Note_on_c, 0, 72, 92
1, 420, Note_off_c, 0, 38, 90
1, 420, Note_on_c, 0, 38, 92
1, 420, Note_off_c, 0, 62, 90
1, 420, Note_on_c, 0, 62, 92
1, 432, Note_off_c, 0, 65, 64
1, 435, Note_off_c, 0, 69, 64
1, 439, Note_off_c, 0, 72, 64
1, 456, Note_on_c, 0, 65, 92
1, 459, Note_on_c, 0, 69, 92
1, 463, Note_on_c, 0, 72, 92
1, 480, Note_off_c, 0, 38, 90
1, 480, Note_off_c, 0, 62, 90
1, 504, Note_on_c, 0, 38, 92
1, 504, Note_on_c, 0, 62, 92
1, 504, Note_off_c, 0, 65, 64
1, 507, Note_off_c, 0, 69, 64
1, 511, Note_off_c, 0, 72, 64
1, 528, Note_on_c, 0, 65, 92
1, 531, Note_on_c, 0, 69, 92
1, 535, Note_on_c, 0, 72, 92
1, 576, Note_off_c, 0, 38, 90
1, 576, Note_on_c, 0, 38, 92
1, 576, Note_off_c, 0, 62, 90
1, 576, Note_on_c, 0, 62, 92
1, 576, Note_off_c, 0, 65, 64
1, 576, Note_on_c, 0, 65, 92
1, 579, Note_off_c, 0, 69, 64
1, 579, Note_on_c, 0, 69, 92
1, 583, Note_off_c, 0, 72, 64
1, 583, Note_on_c, 0, 72, 92
1, 624, Note_off_c, 0, 65, 64
1, 627, Note_off_c, 0, 69, 64
1, 631, Note_off_c, 0, 72, 64
1, 648, Note_on_c, 0, 65, 92
1, 651, Note_on_c, 0, 69, 92
1, 655, Note_on_c, 0, 72, 92
1, 696, Note_off_c, 0, 65, 64
1, 699, Note_off_c, 0, 69, 64
1, 703, Note_off_c, 0, 72, 64
1, 768, Note_on_c, 0, 29, 92
1, 768, Note_off_c, 0, 38, 90
1, 768, Note_on_c, 0, 53, 92
1, 768, Note_off_c, 0, 62, 90
1, 768, Note_on_c, 0, 65, 92
1, 768, Note_on_c, 0, 69, 91
1, 771, Note_on_c, 0, 72, 91
1, 804, Note_off_c, 0, 29, 90
1, 804, Note_on_c, 0, 29, 92
1, 804, Note_off_c, 0, 53, 90
1, 804, Note_on_c, 0, 53, 92
1, 804, Note_off_c, 0, 65, 90
1, 804, Note_on_c, 0, 65, 92
1, 804, Note_off_c, 0, 69, 90
1, 804, Note_on_c, 0, 69, 91
1, 807, Note_off_c, 0, 72, 90
1, 807, Note_on_c, 0, 72, 91
1, 864, Note_off_c, 0, 29, 90
1, 864, Note_off_c, 0, 53, 90
1, 864, Note_off_c, 0, 65, 90
1, 864, Note_off_c, 0, 69, 90
1, 867, Note_off_c, 0, 72, 90
1, 888, Note_on_c, 0, 29, 92
1, 888, Note_on_c, 0, 53, 92
1, 960, Note_off_c, 0, 29, 90
1, 960, Note_on_c, 0, 29, 92
1, 960, Note_off_c, 0, 53, 90
1, 960, Note_on_c, 0, 53, 92
1, 960, Note_on_c, 0, 65, 92
1, 960, Note_on_c, 0, 69, 92
1, 962, Note_on_c, 0, 72, 92
1, 1008, Note_off_c, 0, 65, 90
1, 1008, Note_off_c, 0, 69, 90
1, 1010, Note_off_c, 0, 72, 90
1, 1032, Note_on_c, 0, 67, 92
1, 1035, Note_on_c, 0, 71, 92
1, 1039, Note_on_c, 0, 74, 92
1, 1056, Note_off_c, 0, 29, 90
1, 1056, Note_on_c, 0, 29, 92
1, 1056, Note_off_c, 0, 53, 90
1, 1056, Note_on_c, 0, 53, 92
1, 1080, Note_off_c, 0, 67, 64
1, 1083, Note_off_c, 0, 71, 64
1, 1087, Note_off_c, 0, 74, 64
1, 1152, Note_off_c, 0, 29, 90
1, 1152, Note_on_c, 0, 31, 92
1, 1152, Note_off_c, 0, 53, 90
1, 1152, Note_on_c, 0, 55, 92
1, 1152, Note_on_c, 0, 71, 92
1, 1155, Note_on_c, 0, 62, 92
1, 1156, Note_on_c, 0, 74, 92
1, 1159, Note_on_c, 0, 67, 92
1, 1188, Note_off_c, 0, 31, 90
1, 1188, Note_on_c, 0, 31, 92
1, 1188, Note_off_c, 0, 55, 90
1, 1188, Note_on_c, 0, 55, 92
1, 1188, Note_off_c, 0, 71, 90
1, 1188, Note_on_c, 0, 71, 92
1, 1192, Note_off_c, 0, 74, 90
1, 1192, Note_on_c, 0, 74, 92
1, 1203, Note_off_c, 0, 62, 64
1, 1207, Note_off_c, 0, 67, 64
1, 1227, Note_on_c, 0, 62, 92
1, 1231, Note_on_c, 0, 67, 92
1, 1248, Note_off_c, 0, 31, 90
1, 1248, Note_off_c, 0, 55, 90
1, 1248, Note_off_c, 0, 71, 90
1, 1252, Note_off_c, 0, 74, 90
1, 1272, Note_on_c, 0, 31, 92
1, 1272, Note_on_c, 0, 55, 92
1, 1275, Note_off_c, 0, 62, 64
1, 1279, Note_off_c, 0, 67, 64
1, 1299, Note_on_c, 0, 62, 92
1, 1303, Note_on_c, 0, 67, 92
1, 1344, Note_off_c, 0, 31, 90
1, 1344, Note_on_c, 0, 31, 92
1, 1344, Note_off_c, 0, 55, 90
1, 1344, Note_on_c, 0, 55, 92
1, 1344, Note_on_c, 0, 71, 92
1, 1347, Note_off_c, 0, 62, 64
1, 1347, Note_on_c, 0, 62, 92
1, 1348, Note_on_c, 0, 74, 92
1, 1351, Note_off_c, 0, 67, 64
1, 1351, Note_on_c, 0, 67, 92
1, 1395, Note_off_c, 0, 62, 64
1, 1399, Note_off_c, 0, 67, 64
1, 1419, Note_on_c, 0, 62, 92
1, 1423, Note_on_c, 0, 67, 92
1, 1440, Note_on_c, 0, 64, 92
1, 1444, Note_on_c, 0, 69, 92
1, 1467, Note_off_c, 0, 62, 64
1, 1471, Note_off_c, 0, 67, 64
1, 1488, Note_off_c, 0, 64, 64
1, 1492, Note_off_c, 0, 69, 64
1, 1533, Note_off_c, 0, 74, 90
1, 1536, Note_off_c, 0, 31, 90
1, 1536, Note_off_c, 0, 55, 90
1, 1536, Note_off_c, 0, 71, 90
1, 1536, End_track
0, 0, End_of_file