0, 0, Header, 0, 1, 96
1, 0, Start_track
1, 0, Title_t, "Arp\000"
1, 0, Time_signature, 4, 2, 36, 8
1, 0, Time_signature, 4, 2, 36, 8
1, 0, Note_on_c, 0, 57, 57
1, 24, Note_off_c, 0, 57, 57
1, 24, Note_on_c, 0, 64, 65
1, 48, Note_off_c, 0, 64, 65
1, 48, Note_on_c, 0, 71, 65
1, 72, Note_off_c, 0, 71, 65
1, 72, Note_on_c, 0, 72, 60
1, 95, Note_off_c, 0, 72, 60
1, 96, Note_on_c, 0, 57, 57
1, 120, Note_off_c, 0, 57, 57
1, 120, Note_on_c, 0, 64, 65
1, 143, Note_on_c, 0, 76, 79
1, 144, Note_off_c, 0, 64, 65
1, 167, Note_off_c, 0, 76, 79
1, 167, Note_on_c, 0, 79, 81
1, 191, Note_off_c, 0, 79, 81
1, 192, Note_on_c, 0, 57, 57
1, 216, Note_off_c, 0, 57, 57
1, 216, Note_on_c, 0, 64, 65
1, 240, Note_off_c, 0, 64, 65
1, 240, Note_on_c, 0, 71, 65
1, 264, Note_off_c, 0, 71, 65
1, 264, Note_on_c, 0, 72, 60
1, 287, Note_off_c, 0, 72, 60
1, 288, Note_on_c, 0, 57, 57
1, 312, Note_off_c, 0, 57, 57
1, 312, Note_on_c, 0, 64, 65
1, 335, Note_on_c, 0, 76, 79
1, 336, Note_off_c, 0, 64, 65
1, 359, Note_off_c, 0, 76, 79
1, 359, Note_on_c, 0, 79, 81
1, 383, Note_off_c, 0, 79, 81
1, 384, Note_on_c, 0, 47, 46
1, 408, Note_off_c, 0, 47, 46
1, 408, Note_on_c, 0, 53, 68
1, 432, Note_off_c, 0, 53, 68
1, 432, Note_on_c, 0, 57, 50
1, 456, Note_off_c, 0, 57, 50
1, 456, Note_on_c, 0, 62, 74
1, 479, Note_off_c, 0, 62, 74
1, 480, Note_on_c, 0, 47, 46
1, 504, Note_off_c, 0, 47, 46
1, 504, Note_on_c, 0, 53, 68
1, 527, Note_on_c, 0, 64, 50
1, 528, Note_off_c, 0, 53, 68
1, 551, Note_off_c, 0, 64, 50
1, 551, Note_on_c, 0, 69, 74
1, 575, Note_off_c, 0, 69, 74
1, 576, Note_on_c, 0, 47, 46
1, 600, Note_off_c, 0, 47, 46
1, 600, Note_on_c, 0, 53, 68
1, 624, Note_off_c, 0, 53, 68
1, 624, Note_on_c, 0, 57, 50
1, 648, Note_off_c, 0, 57, 50
1, 648, Note_on_c, 0, 62, 74
1, 671, Note_off_c, 0, 62, 74
1, 672, Note_on_c, 0, 47, 46
1, 696, Note_off_c, 0, 47, 46
1, 696, Note_on_c, 0, 53, 68
1, 720, Note_off_c, 0, 53, 68
1, 720, Note_on_c, 0, 62, 45
1, 743, Note_off_c, 0, 62, 45
1, 744, Note_on_c, 0, 57, 61
1, 760, Note_off_c, 0, 57, 61
1, 768, Note_on_c, 0, 52, 73
1, 792, Note_off_c, 0, 52, 73
1, 792, Note_on_c, 0, 59, 79
1, 816, Note_off_c, 0, 59, 79
1, 816, Note_on_c, 0, 62, 81
1, 839, Note_on_c, 0, 67, 82
1, 840, Note_off_c, 0, 62, 81
1, 863, Note_off_c, 0, 67, 82
1, 864, Note_on_c, 0, 52, 73
1, 888, Note_off_c, 0, 52, 73
1, 888, Note_on_c, 0, 59, 79
1, 912, Note_off_c, 0, 59, 79
1, 912, Note_on_c, 0, 62, 81
1, 935, Note_on_c, 0, 65, 82
1, 936, Note_off_c, 0, 62, 81
1, 959, Note_off_c, 0, 65, 82
1, 960, Note_on_c, 0, 52, 73
1, 984, Note_off_c, 0, 52, 73
1, 984, Note_on_c, 0, 59, 79
1, 1008, Note_off_c, 0, 59, 79
1, 1008, Note_on_c, 0, 62, 81
1, 1031, Note_on_c, 0, 67, 82
1, 1032, Note_off_c, 0, 62, 81
1, 1055, Note_off_c, 0, 67, 82
1, 1056, Note_on_c, 0, 52, 73
1, 1080, Note_off_c, 0, 52, 73
1, 1080, Note_on_c, 0, 59, 79
1, 1104, Note_off_c, 0, 59, 79
1, 1104, Note_on_c, 0, 62, 81
1, 1127, Note_on_c, 0, 65, 82
1, 1128, Note_off_c, 0, 62, 81
1, 1151, Note_off_c, 0, 65, 82
1, 1152, Note_on_c, 0, 57, 59
1, 1176, Note_off_c, 0, 57, 59
1, 1176, Note_on_c, 0, 64, 72
1, 1200, Note_off_c, 0, 64, 72
1, 1200, Note_on_c, 0, 67, 79
1, 1224, Note_off_c, 0, 67, 79
1, 1224, Note_on_c, 0, 72, 76
1, 1247, Note_off_c, 0, 72, 76
1, 1248, Note_on_c, 0, 57, 59
1, 1272, Note_off_c, 0, 57, 59
1, 1272, Note_on_c, 0, 64, 72
1, 1296, Note_off_c, 0, 64, 72
1, 1296, Note_on_c, 0, 67, 79
1, 1319, Note_on_c, 0, 74, 76
1, 1320, Note_off_c, 0, 67, 79
1, 1343, Note_off_c, 0, 74, 76
1, 1344, Note_on_c, 0, 57, 59
1, 1368, Note_off_c, 0, 57, 59
1, 1368, Note_on_c, 0, 64, 72
1, 1392, Note_off_c, 0, 64, 72
1, 1392, Note_on_c, 0, 67, 79
1, 1416, Note_off_c, 0, 67, 79
1, 1416, Note_on_c, 0, 72, 76
1, 1439, Note_off_c, 0, 72, 76
1, 1440, Note_on_c, 0, 57, 59
1, 1464, Note_off_c, 0, 57, 59
1, 1464, Note_on_c, 0, 64, 72
1, 1488, Note_off_c, 0, 64, 72
1, 1488, Note_on_c, 0, 67, 79
1, 1511, Note_on_c, 0, 76, 76
1, 1512, Note_off_c, 0, 67, 79
1, 1535, Note_off_c, 0, 76, 76
1, 1535, End_track
0, 0, End_of_file