0, 0, Header, 0, 1, 96
1, 0, Start_track
1, 0, Title_t, "Arp\000"
1, 0, Time_signature, 4, 2, 36, 8
1, 0, Time_signature, 4, 2, 36, 8
1, 0, Note_on_c, 0, 52, 76
1, 24, Note_off_c, 0, 52, 76
1, 24, Note_on_c, 0, 57, 76
1, 48, Note_off_c, 0, 57, 76
1, 48, Note_on_c, 0, 60, 76
1, 71, Note_off_c, 0, 60, 76
1, 72, Note_on_c, 0, 52, 76
1, 96, Note_off_c, 0, 52, 76
1, 96, Note_on_c, 0, 57, 76
1, 120, Note_off_c, 0, 57, 76
1, 120, Note_on_c, 0, 60, 76
1, 144, Note_on_c, 0, 52, 76
1, 144, Note_off_c, 0, 60, 76
1, 168, Note_off_c, 0, 52, 76
1, 168, Note_on_c, 0, 57, 76
1, 192, Note_on_c, 0, 55, 76
1, 192, Note_off_c, 0, 57, 76
1, 215, Note_off_c, 0, 55, 76
1, 216, Note_on_c, 0, 59, 76
1, 239, Note_off_c, 0, 59, 76
1, 240, Note_on_c, 0, 62, 76
1, 264, Note_on_c, 0, 55, 76
1, 264, Note_off_c, 0, 62, 76
1, 288, Note_off_c, 0, 55, 76
1, 288, Note_on_c, 0, 59, 76
1, 312, Note_off_c, 0, 59, 76
1, 312, Note_on_c, 0, 62, 76
1, 336, Note_on_c, 0, 55, 76
1, 336, Note_off_c, 0, 62, 76
1, 360, Note_off_c, 0, 55, 76
1, 360, Note_on_c, 0, 59, 76
1, 384, Note_on_c, 0, 50, 76
1, 384, Note_off_c, 0, 59, 76
1, 407, Note_off_c, 0, 50, 76
1, 408, Note_on_c, 0, 55, 76
1, 432, Note_off_c, 0, 55, 76
1, 432, Note_on_c, 0, 59, 76
1, 456, Note_on_c, 0, 50, 76
1, 456, Note_off_c, 0, 59, 76
1, 480, Note_off_c, 0, 50, 76
1, 480, Note_on_c, 0, 55, 76
1, 504, Note_off_c, 0, 55, 76
1, 504, Note_on_c, 0, 59, 76
1, 528, Note_on_c, 0, 50, 76
1, 528, Note_off_c, 0, 59, 76
1, 552, Note_off_c, 0, 50, 76
1, 552, Note_on_c, 0, 55, 76
1, 576, Note_off_c, 0, 55, 76
1, 576, Note_on_c, 0, 55, 76
1, 600, Note_off_c, 0, 55, 76
1, 600, Note_on_c, 0, 59, 76
1, 624, Note_off_c, 0, 59, 76
1, 624, Note_on_c, 0, 62, 76
1, 648, Note_on_c, 0, 55, 76
1, 648, Note_off_c, 0, 62, 76
1, 672, Note_off_c, 0, 55, 76
1, 672, Note_on_c, 0, 59, 76
1, 696, Note_off_c, 0, 59, 76
1, 696, Note_on_c, 0, 62, 76
1, 720, Note_on_c, 0, 55, 76
1, 720, Note_off_c, 0, 62, 76
1, 744, Note_off_c, 0, 55, 76
1, 744, Note_on_c, 0, 59, 76
1, 768, Note_on_c, 0, 50, 76
1, 768, Note_off_c, 0, 59, 76
1, 792, Note_off_c, 0, 50, 76
1, 792, Note_on_c, 0, 55, 76
1, 816, Note_off_c, 0, 55, 76
1, 816, Note_on_c, 0, 59, 76
1, 840, Note_on_c, 0, 50, 76
1, 840, Note_off_c, 0, 59, 76
1, 864, Note_off_c, 0, 50, 76
1, 864, Note_on_c, 0, 55, 76
1, 888, Note_off_c, 0, 55, 76
1, 888, Note_on_c, 0, 59, 76
1, 912, Note_on_c, 0, 50, 76
1, 912, Note_off_c, 0, 59, 76
1, 936, Note_off_c, 0, 50, 76
1, 936, Note_on_c, 0, 55, 76
1, 960, Note_on_c, 0, 53, 76
1, 960, Note_off_c, 0, 55, 76
1, 984, Note_off_c, 0, 53, 76
1, 984, Note_on_c, 0, 57, 76
1, 1007, Note_off_c, 0, 57, 76
1, 1007, Note_on_c, 0, 60, 76
1, 1032, Note_on_c, 0, 53, 76
1, 1032, Note_off_c, 0, 60, 76
1, 1056, Note_off_c, 0, 53, 76
1, 1056, Note_on_c, 0, 57, 76
1, 1080, Note_off_c, 0, 57, 76
1, 1080, Note_on_c, 0, 60, 76
1, 1104, Note_on_c, 0, 53, 76
1, 1104, Note_off_c, 0, 60, 76
1, 1128, Note_off_c, 0, 53, 76
1, 1128, Note_on_c, 0, 57, 76
1, 1151, Note_off_c, 0, 57, 76
1, 1152, Note_on_c, 0, 55, 76
1, 1175, Note_off_c, 0, 55, 76
1, 1176, Note_on_c, 0, 60, 76
1, 1199, Note_off_c, 0, 60, 76
1, 1200, Note_on_c, 0, 64, 76
1, 1223, Note_off_c, 0, 64, 76
1, 1224, Note_on_c, 0, 55, 76
1, 1248, Note_off_c, 0, 55, 76
1, 1248, Note_on_c, 0, 60, 76
1, 1272, Note_off_c, 0, 60, 76
1, 1272, Note_on_c, 0, 64, 76
1, 1296, Note_on_c, 0, 55, 76
1, 1296, Note_off_c, 0, 64, 76
1, 1320, Note_off_c, 0, 55, 76
1, 1320, Note_on_c, 0, 60, 76
1, 1344, Note_on_c, 0, 57, 76
1, 1344, Note_off_c, 0, 60, 76
1, 1368, Note_off_c, 0, 57, 76
1, 1368, Note_on_c, 0, 62, 76
1, 1391, Note_on_c, 0, 64, 76
1, 1392, Note_off_c, 0, 62, 76
1, 1415, Note_on_c, 0, 57, 76
1, 1416, Note_off_c, 0, 64, 76
1, 1439, Note_off_c, 0, 57, 76
1, 1439, Note_on_c, 0, 60, 76
1, 1463, Note_off_c, 0, 60, 76
1, 1463, Note_on_c, 0, 64, 76
1, 1487, Note_on_c, 0, 57, 76
1, 1487, Note_off_c, 0, 64, 76
1, 1511, Note_on_c, 0, 48, 76
1, 1511, Note_off_c, 0, 57, 76
1, 1535, Note_off_c, 0, 48, 76
1, 1535, End_track
0, 0, End_of_file