1, 0, Pitch_bend_c, 0, 8192
1, 0, Control_c, 0, 6, 12
1, 0, Control_c, 0, 7, 100
1, 0, Control_c, 0, 10, 64
1, 0, Control_c, 0, 100, 0
1, 0, Control_c, 0, 101, 0
1, 0, Note_on_c, 0, 45, 81
1, 0, Note_on_c, 0, 57, 118
1, 48, Note_on_c, 0, 43, 81
1, 48, Note_off_c, 0, 45, 0
1, 48, Note_on_c, 0, 55, 118
1, 48, Note_off_c, 0, 57, 0
1, 96, Note_off_c, 0, 43, 0
1, 96, Note_on_c, 0, 45, 81
1, 96, Note_off_c, 0, 55, 0
1, 96, Note_on_c, 0, 57, 118
1, 192, Note_off_c, 0, 45, 0
1, 192, Note_off_c, 0, 57, 0
1, 240, Note_on_c, 0, 47, 81
1, 240, Note_on_c, 0, 59, 118
1, 288, Note_off_c, 0, 47, 0
1, 288, Note_on_c, 0, 48, 81
1, 288, Note_off_c, 0, 59, 0
1, 288, Note_on_c, 0, 60, 118
1, 336, Note_on_c, 0, 47, 81
1, 336, Note_off_c, 0, 48, 0
1, 336, Note_on_c, 0, 59, 118
1, 336, Note_off_c, 0, 60, 0
1, 384, Note_off_c, 0, 47, 0
1, 384, Note_on_c, 0, 48, 81
1, 384, Note_off_c, 0, 59, 0
1, 384, Note_on_c, 0, 60, 118
1, 576, Note_off_c, 0, 48, 0
1, 576, Note_off_c, 0, 60, 0
1, 768, Note_on_c, 0, 43, 81
1, 768, Note_on_c, 0, 55, 118
1, 816, Note_on_c, 0, 41, 81
1, 816, Note_off_c, 0, 43, 0
1, 816, Note_on_c, 0, 53, 118
1, 816, Note_off_c, 0, 55, 0
1, 864, Note_off_c, 0, 41, 0
1, 864, Note_on_c, 0, 43, 81
1, 864, Note_off_c, 0, 53, 0
1, 864, Note_on_c, 0, 55, 118
1, 960, Note_off_c, 0, 43, 0
1, 960, Note_off_c, 0, 55, 0
1, 1008, Note_on_c, 0, 45, 81
1, 1008, Note_on_c, 0, 57, 118
1, 1056, Note_off_c, 0, 45, 0
1, 1056, Note_on_c, 0, 47, 81
1, 1056, Note_off_c, 0, 57, 0
1, 1056, Note_on_c, 0, 59, 118
1, 1104, Note_on_c, 0, 45, 81
1, 1104, Note_off_c, 0, 47, 0
1, 1104, Note_on_c, 0, 57, 118
1, 1104, Note_off_c, 0, 59, 0
1, 1152, Note_off_c, 0, 45, 0
1, 1152, Note_on_c, 0, 47, 81
1, 1152, Note_off_c, 0, 57, 0
1, 1152, Note_on_c, 0, 59, 118
1, 1248, Note_off_c, 0, 47, 0
1, 1248, Note_off_c, 0, 59, 0
1, 1296, Note_on_c, 0, 43, 81
1, 1296, Note_on_c, 0, 55, 118
1, 1392, Note_off_c, 0, 43, 0
1, 1392, Note_off_c, 0, 55, 0
1, 1392, Note_on_c, 0, 57, 118
1, 1440, Note_on_c, 0, 40, 81
1, 1440, Note_on_c, 0, 52, 118
1, 1440, Note_off_c, 0, 57, 0
1, 1534, Note_off_c, 0, 40, 0
1, 1536, Note_off_c, 0, 52, 0
1, 3071, Pitch_bend_c, 0, 8192
1, 3071, Pitch_bend_c, 0, 8192
1, 3071, Control_c, 0, 7, 100
1, 3071, Control_c, 0, 7, 100
1, 3071, Control_c, 0, 10, 64
1, 3071, Control_c, 0, 10, 64
1, 3072, Pitch_bend_c, 0, 8192
1, 3072, Control_c, 0, 6, 12
1, 3072, Control_c, 0, 6, 12
1, 3072, Control_c, 0, 7, 100
1, 3072, Control_c, 0, 10, 64
1, 3072, Control_c, 0, 100, 0
1, 3072, Control_c, 0, 100, 0
1, 3072, Control_c, 0, 101, 0
1, 3072, Control_c, 0, 101, 0
1, 0, Control_c, 0, 1, 70
1, 0, Note_on_c, 0, 69, 76
1, 48, Note_on_c, 0, 65, 72
1, 48, Note_off_c, 0, 69, 76
1, 96, Note_off_c, 0, 65, 72
1, 96, Note_on_c, 0, 72, 72
1, 144, Note_on_c, 0, 65, 67
1, 144, Note_off_c, 0, 72, 72
1, 192, Note_off_c, 0, 65, 67
1, 192, Note_on_c, 0, 76, 72
1, 285, Note_off_c, 0, 76, 72
1, 288, Note_on_c, 0, 76, 69
1, 384, Note_on_c, 0, 69, 72
1, 384, Note_off_c, 0, 76, 69
1, 432, Note_on_c, 0, 65, 72
1, 432, Note_off_c, 0, 69, 72
1, 480, Note_off_c, 0, 65, 72
1, 480, Note_on_c, 0, 72, 72
1, 528, Note_on_c, 0, 65, 66
1, 528, Note_off_c, 0, 72, 72
1, 573, Note_off_c, 0, 65, 66
1, 576, Note_on_c, 0, 65, 77
1, 672, Note_on_c, 0, 62, 72
1, 672, Note_off_c, 0, 65, 77
1, 768, Note_off_c, 0, 62, 72
1, 768, Note_on_c, 0, 69, 73
1, 816, Note_on_c, 0, 65, 70
1, 816, Note_off_c, 0, 69, 73
1, 864, Note_off_c, 0, 65, 70
1, 864, Note_on_c, 0, 72, 71
1, 912, Note_on_c, 0, 65, 69
1, 912, Note_off_c, 0, 72, 71
1, 960, Note_off_c, 0, 65, 69
1, 960, Note_on_c, 0, 76, 76
1, 1053, Note_off_c, 0, 76, 76
1, 1056, Note_on_c, 0, 76, 70
1, 1152, Note_on_c, 0, 69, 76
1, 1152, Note_off_c, 0, 76, 70
1, 1200, Note_on_c, 0, 65, 69
1, 1200, Note_off_c, 0, 69, 76
1, 1248, Note_off_c, 0, 65, 69
1, 1248, Note_on_c, 0, 72, 72
1, 1296, Note_on_c, 0, 65, 68
1, 1296, Note_off_c, 0, 72, 72
1, 1341, Note_off_c, 0, 65, 68
1, 1344, Note_on_c, 0, 65, 73
1, 1440, Note_on_c, 0, 62, 72
1, 1440, Note_off_c, 0, 65, 73
1, 1533, Note_off_c, 0, 62, 72
1, 0, Note_on_c, 0, 45, 112
1, 0, Note_on_c, 0, 57, 112
1, 0, Note_on_c, 0, 79, 106
1, 96, Note_on_c, 0, 60, 112
1, 192, Note_on_c, 0, 64, 112
1, 192, Note_on_c, 0, 72, 106
1, 192, Note_off_c, 0, 79, 64
1, 288, Note_off_c, 0, 60, 64
1, 384, Note_on_c, 0, 40, 112
1, 384, Note_off_c, 0, 45, 64
1, 384, Note_on_c, 0, 52, 112
1, 384, Note_off_c, 0, 57, 64
1, 384, Note_off_c, 0, 64, 64
1, 384, Note_off_c, 0, 72, 64
1, 384, Note_on_c, 0, 79, 106
1, 480, Note_on_c, 0, 55, 112
1, 576, Note_on_c, 0, 59, 112
1, 576, Note_on_c, 0, 72, 106
1, 576, Note_off_c, 0, 79, 64
1, 672, Note_off_c, 0, 55, 64
1, 768, Note_off_c, 0, 40, 64
1, 768, Note_on_c, 0, 41, 112
1, 768, Note_off_c, 0, 52, 64
1, 768, Note_on_c, 0, 53, 112
1, 768, Note_off_c, 0, 59, 64
1, 768, Note_off_c, 0, 72, 64
1, 768, Note_on_c, 0, 79, 106
1, 864, Note_on_c, 0, 57, 112
1, 960, Note_on_c, 0, 60, 112
1, 960, Note_on_c, 0, 72, 106
1, 960, Note_off_c, 0, 79, 64
1, 1056, Note_off_c, 0, 57, 64
1, 1151, Note_off_c, 0, 53, 64
1, 1152, Note_on_c, 0, 53, 112
1, 1152, Note_off_c, 0, 60, 64
1, 1152, Note_on_c, 0, 64, 106
1, 1152, Note_off_c, 0, 72, 64
1, 1152, Note_on_c, 0, 79, 106
1, 1248, Note_on_c, 0, 57, 112
1, 1344, Note_on_c, 0, 60, 112
1, 1344, Note_off_c, 0, 64, 64
1, 1344, Note_on_c, 0, 72, 106
1, 1344, Note_off_c, 0, 79, 64
1, 1440, Note_off_c, 0, 57, 64
1, 1536, Note_off_c, 0, 41, 64
1, 1536, Note_on_c, 0, 45, 112
1, 1536, Note_off_c, 0, 53, 64
1, 1536, Note_on_c, 0, 57, 112
1, 1536, Note_off_c, 0, 60, 64
1, 1536, Note_off_c, 0, 72, 64
1, 1536, Note_on_c, 0, 79, 106
1, 1632, Note_on_c, 0, 60, 112
1, 1728, Note_on_c, 0, 64, 112
1, 1728, Note_on_c, 0, 72, 106
1, 1728, Note_off_c, 0, 79, 64
1, 1824, Note_off_c, 0, 60, 64
1, 1920, Note_on_c, 0, 40, 112
1, 1920, Note_off_c, 0, 45, 64
1, 1920, Note_on_c, 0, 52, 112
1, 1920, Note_off_c, 0, 57, 64
1, 1920, Note_off_c, 0, 64, 64
1, 1920, Note_off_c, 0, 72, 64
1, 1920, Note_on_c, 0, 79, 106
1, 2016, Note_on_c, 0, 55, 112
1, 2112, Note_on_c, 0, 59, 112
1, 2112, Note_on_c, 0, 72, 106
1, 2112, Note_off_c, 0, 79, 64
1, 2208, Note_off_c, 0, 55, 64
1, 2304, Note_off_c, 0, 40, 64
1, 2304, Note_on_c, 0, 41, 112
1, 2304, Note_off_c, 0, 52, 64
1, 2304, Note_on_c, 0, 53, 112
1, 2304, Note_off_c, 0, 59, 64
1, 2304, Note_off_c, 0, 72, 64
1, 2304, Note_on_c, 0, 79, 106
1, 2400, Note_on_c, 0, 57, 112
1, 2496, Note_on_c, 0, 60, 112
1, 2496, Note_on_c, 0, 72, 106
1, 2496, Note_off_c, 0, 79, 64
1, 2592, Note_off_c, 0, 57, 64
1, 2687, Note_off_c, 0, 53, 64
1, 2688, Note_on_c, 0, 53, 112
1, 2688, Note_off_c, 0, 60, 64
1, 2688, Note_on_c, 0, 64, 106
1, 2688, Note_off_c, 0, 72, 64
1, 2688, Note_on_c, 0, 79, 106
1, 2784, Note_on_c, 0, 57, 112
1, 2880, Note_on_c, 0, 60, 112
1, 2880, Note_off_c, 0, 64, 64
1, 2880, Note_on_c, 0, 72, 106
1, 2880, Note_off_c, 0, 79, 64
1, 2976, Note_off_c, 0, 57, 64
1, 3072, Note_off_c, 0, 41, 64
1, 3072, Note_off_c, 0, 53, 64
1, 3072, Note_off_c, 0, 60, 64
1, 3072, Note_off_c, 0, 72, 64
1, 0, Note_on_c, 0, 48, 120
1, 0, Note_on_c, 0, 63, 120
1, 48, Note_off_c, 0, 63, 64
1, 96, Note_on_c, 0, 55, 120
1, 96, Note_on_c, 0, 58, 120
1, 192, Note_off_c, 0, 58, 64
1, 192, Note_on_c, 0, 65, 120
1, 288, Note_off_c, 0, 55, 64
1, 288, Note_on_c, 0, 60, 120
1, 288, Note_off_c, 0, 65, 64
1, 288, Note_on_c, 0, 67, 120
1, 336, Note_off_c, 0, 48, 64
1, 384, Note_on_c, 0, 48, 120
1, 384, Note_on_c, 0, 63, 120
1, 432, Note_off_c, 0, 63, 64
1, 480, Note_on_c, 0, 55, 120
1, 480, Note_on_c, 0, 58, 120
1, 480, Note_off_c, 0, 60, 64
1, 480, Note_off_c, 0, 67, 64
1, 575, Note_off_c, 0, 58, 64
1, 576, Note_on_c, 0, 58, 120
1, 576, Note_on_c, 0, 65, 120
1, 672, Note_off_c, 0, 55, 64
1, 672, Note_off_c, 0, 58, 64
1, 672, Note_on_c, 0, 60, 120
1, 672, Note_off_c, 0, 65, 64
1, 672, Note_on_c, 0, 67, 120
1, 720, Note_off_c, 0, 48, 64
1, 768, Note_on_c, 0, 44, 120
1, 768, Note_off_c, 0, 60, 64
1, 768, Note_on_c, 0, 63, 120
1, 768, Note_off_c, 0, 67, 64
1, 864, Note_on_c, 0, 51, 120
1, 864, Note_on_c, 0, 58, 120
1, 864, Note_off_c, 0, 63, 64
1, 960, Note_off_c, 0, 51, 64
1, 960, Note_on_c, 0, 55, 120
1, 960, Note_off_c, 0, 58, 64
1, 960, Note_on_c, 0, 65, 120
1, 1056, Note_off_c, 0, 55, 64
1, 1056, Note_on_c, 0, 58, 120
1, 1056, Note_off_c, 0, 65, 64
1, 1056, Note_on_c, 0, 67, 120
1, 1104, Note_off_c, 0, 44, 64
1, 1152, Note_on_c, 0, 43, 120
1, 1152, Note_off_c, 0, 58, 64
1, 1152, Note_on_c, 0, 62, 120
1, 1152, Note_off_c, 0, 67, 64
1, 1248, Note_on_c, 0, 50, 120
1, 1248, Note_on_c, 0, 58, 120
1, 1248, Note_off_c, 0, 62, 64
1, 1343, Note_off_c, 0, 58, 64
1, 1344, Note_off_c, 0, 50, 64
1, 1344, Note_on_c, 0, 53, 120
1, 1344, Note_on_c, 0, 58, 120
1, 1344, Note_on_c, 0, 65, 120
1, 1440, Note_off_c, 0, 53, 64
1, 1440, Note_on_c, 0, 55, 120
1, 1440, Note_off_c, 0, 58, 64
1, 1440, Note_off_c, 0, 65, 64
1, 1440, Note_on_c, 0, 67, 120
1, 1488, Note_off_c, 0, 43, 64
1, 1536, Note_off_c, 0, 55, 64
1, 1536, Note_off_c, 0, 67, 64
1, 0, Note_on_c, 0, 41, 28
1, 0, Note_on_c, 0, 57, 69
1, 48, Note_off_c, 0, 41, 21
1, 48, Note_off_c, 0, 57, 51
1, 95, Note_on_c, 0, 48, 56
1, 95, Note_on_c, 0, 60, 47
1, 143, Note_off_c, 0, 48, 21
1, 143, Note_off_c, 0, 60, 24
1, 191, Note_on_c, 0, 53, 55
1, 191, Note_on_c, 0, 57, 60
1, 191, Note_on_c, 0, 64, 67
1, 239, Note_off_c, 0, 53, 26
1, 239, Note_off_c, 0, 57, 1
1, 239, Note_off_c, 0, 64, 69
1, 287, Note_on_c, 0, 55, 45
1, 287, Note_on_c, 0, 57, 73
1, 287, Note_on_c, 0, 67, 80
1, 335, Note_off_c, 0, 55, 45
1, 335, Note_off_c, 0, 57, 42
1, 335, Note_off_c, 0, 67, 32
1, 382, Note_on_c, 0, 41, 66
1, 383, Note_on_c, 0, 57, 68
1, 430, Note_off_c, 0, 41, 18
1, 431, Note_off_c, 0, 57, 45
1, 479, Note_on_c, 0, 48, 67
1, 479, Note_on_c, 0, 60, 70
1, 527, Note_off_c, 0, 48, 23
1, 527, Note_off_c, 0, 60, 39
1, 575, Note_on_c, 0, 57, 51
1, 575, Note_on_c, 0, 64, 58
1, 576, Note_on_c, 0, 53, 65
1, 623, Note_off_c, 0, 57, 41
1, 623, Note_off_c, 0, 64, 69
1, 624, Note_off_c, 0, 53, 36
1, 671, Note_on_c, 0, 43, 66
1, 671, Note_on_c, 0, 57, 75
1, 671, Note_on_c, 0, 67, 80
1, 719, Note_off_c, 0, 43, 42
1, 719, Note_off_c, 0, 57, 57
1, 719, Note_off_c, 0, 67, 31
1, 767, Note_on_c, 0, 45, 76
1, 767, Note_on_c, 0, 60, 51
1, 815, Note_off_c, 0, 45, 46
1, 815, Note_off_c, 0, 60, 19
1, 863, Note_on_c, 0, 52, 69
1, 863, Note_on_c, 0, 64, 86
1, 911, Note_off_c, 0, 52, 44
1, 911, Note_off_c, 0, 64, 66
1, 959, Note_on_c, 0, 59, 56
1, 959, Note_on_c, 0, 60, 60
1, 959, Note_on_c, 0, 67, 81
1, 1007, Note_off_c, 0, 59, 53
1, 1007, Note_off_c, 0, 60, 24
1, 1007, Note_off_c, 0, 67, 20
1, 1056, Note_on_c, 0, 60, 59
1, 1056, Note_on_c, 0, 71, 93
1, 1104, Note_off_c, 0, 60, 32
1, 1104, Note_off_c, 0, 71, 74
1, 1151, Note_on_c, 0, 43, 49
1, 1151, Note_on_c, 0, 59, 74
1, 1199, Note_off_c, 0, 43, 28
1, 1199, Note_off_c, 0, 59, 46
1, 1247, Note_on_c, 0, 59, 43
1, 1247, Note_on_c, 0, 62, 72
1, 1295, Note_off_c, 0, 59, 1
1, 1295, Note_off_c, 0, 62, 73
1, 1343, Note_on_c, 0, 55, 65
1, 1343, Note_on_c, 0, 59, 65
1, 1343, Note_on_c, 0, 67, 77
1, 1391, Note_off_c, 0, 55, 17
1, 1391, Note_off_c, 0, 59, 41
1, 1391, Note_off_c, 0, 67, 38
1, 1439, Note_on_c, 0, 50, 82
1, 1439, Note_on_c, 0, 59, 70
1, 1439, Note_on_c, 0, 69, 80
1, 1487, Note_off_c, 0, 50, 33
1, 1487, Note_off_c, 0, 59, 32
1, 1487, Note_off_c, 0, 69, 49
1, 1535, Note_on_c, 0, 41, 60
1, 1535, Note_on_c, 0, 57, 71
1, 1583, Note_off_c, 0, 41, 27
1, 1583, Note_off_c, 0, 57, 42
1, 1631, Note_on_c, 0, 48, 71
1, 1631, Note_on_c, 0, 60, 72
1, 1632, Note_on_c, 0, 57, 56
1, 1679, Note_off_c, 0, 48, 6
1, 1679, Note_off_c, 0, 60, 33
1, 1680, Note_off_c, 0, 57, 42
1, 1727, Note_on_c, 0, 53, 59
1, 1727, Note_on_c, 0, 57, 62
1, 1727, Note_on_c, 0, 64, 74
1, 1775, Note_off_c, 0, 53, 30
1, 1775, Note_off_c, 0, 57, 31
1, 1775, Note_off_c, 0, 64, 42
1, 1823, Note_on_c, 0, 55, 60
1, 1823, Note_on_c, 0, 67, 77
1, 1824, Note_on_c, 0, 57, 71
1, 1871, Note_off_c, 0, 55, 44
1, 1871, Note_off_c, 0, 67, 27
1, 1872, Note_off_c, 0, 57, 49
1, 1919, Note_on_c, 0, 41, 72
1, 1919, Note_on_c, 0, 57, 78
1, 1967, Note_off_c, 0, 41, 21
1, 1967, Note_off_c, 0, 57, 37
1, 2014, Note_on_c, 0, 48, 74
1, 2015, Note_on_c, 0, 57, 65
1, 2015, Note_on_c, 0, 60, 68
1, 2062, Note_off_c, 0, 48, 59
1, 2063, Note_off_c, 0, 57, 43
1, 2063, Note_off_c, 0, 60, 48
1, 2111, Note_on_c, 0, 57, 62
1, 2111, Note_on_c, 0, 64, 75
1, 2159, Note_off_c, 0, 57, 33
1, 2159, Note_off_c, 0, 64, 66
1, 2206, Note_on_c, 0, 67, 61
1, 2208, Note_on_c, 0, 52, 75
1, 2254, Note_off_c, 0, 67, 58
1, 2256, Note_off_c, 0, 52, 37
1, 2303, Note_on_c, 0, 45, 80
1, 2303, Note_on_c, 0, 60, 62
1, 2351, Note_off_c, 0, 45, 44
1, 2351, Note_off_c, 0, 60, 25
1, 2399, Note_on_c, 0, 52, 73
1, 2399, Note_on_c, 0, 64, 85
1, 2400, Note_on_c, 0, 60, 41
1, 2447, Note_off_c, 0, 52, 35
1, 2447, Note_off_c, 0, 64, 69
1, 2448, Note_off_c, 0, 60, 2
1, 2495, Note_on_c, 0, 57, 74
1, 2495, Note_on_c, 0, 60, 62
1, 2495, Note_on_c, 0, 67, 73
1, 2543, Note_off_c, 0, 57, 52
1, 2543, Note_off_c, 0, 60, 24
1, 2543, Note_off_c, 0, 67, 26
1, 2591, Note_on_c, 0, 59, 71
1, 2591, Note_on_c, 0, 60, 59
1, 2591, Note_on_c, 0, 71, 88
1, 2639, Note_off_c, 0, 59, 65
1, 2639, Note_off_c, 0, 60, 33
1, 2639, Note_off_c, 0, 71, 85
1, 2687, Note_on_c, 0, 43, 80
1, 2687, Note_on_c, 0, 59, 75
1, 2735, Note_off_c, 0, 43, 17
1, 2735, Note_off_c, 0, 59, 44
1, 2783, Note_on_c, 0, 50, 82
1, 2783, Note_on_c, 0, 59, 67
1, 2783, Note_on_c, 0, 62, 75
1, 2831, Note_off_c, 0, 50, 63
1, 2832, Note_off_c, 0, 59, 70
1, 2832, Note_off_c, 0, 62, 66
1, 2879, Note_on_c, 0, 48, 62
1, 2879, Note_on_c, 0, 67, 80
1, 2927, Note_off_c, 0, 48, 26
1, 2927, Note_off_c, 0, 67, 44
1, 2975, Note_on_c, 0, 55, 71
1, 2975, Note_on_c, 0, 69, 69
1, 3023, Note_off_c, 0, 55, 37
1, 3023, Note_off_c, 0, 69, 36
1, 0, Note_on_c, 0, 45, 60
1, 0, Note_on_c, 0, 57, 68
1, 0, Note_on_c, 0, 60, 47
1, 0, Note_on_c, 0, 64, 56
1, 44, Note_off_c, 0, 64, 46
1, 49, Note_off_c, 0, 45, 37
1, 51, Note_off_c, 0, 60, 18
1, 53, Note_off_c, 0, 57, 46
1, 96, Note_on_c, 0, 48, 46
1, 141, Note_off_c, 0, 48, 22
1, 192, Note_on_c, 0, 52, 50
1, 192, Note_on_c, 0, 57, 71
1, 192, Note_on_c, 0, 60, 50
1, 192, Note_on_c, 0, 64, 50
1, 192, Note_on_c, 0, 72, 61
1, 232, Note_off_c, 0, 52, 48
1, 233, Note_off_c, 0, 64, 33
1, 241, Note_off_c, 0, 57, 44
1, 243, Note_off_c, 0, 60, 19
1, 245, Note_off_c, 0, 72, 29
1, 288, Note_on_c, 0, 48, 52
1, 323, Note_off_c, 0, 48, 19
1, 384, Note_on_c, 0, 45, 60
1, 384, Note_on_c, 0, 57, 57
1, 384, Note_on_c, 0, 60, 35
1, 384, Note_on_c, 0, 64, 45
1, 384, Note_on_c, 0, 71, 57
1, 422, Note_off_c, 0, 64, 45
1, 430, Note_off_c, 0, 60, 38
1, 432, Note_off_c, 0, 45, 35
1, 438, Note_off_c, 0, 57, 71
1, 441, Note_off_c, 0, 71, 48
1, 480, Note_on_c, 0, 48, 62
1, 504, Note_off_c, 0, 48, 65
1, 576, Note_on_c, 0, 43, 68
1, 576, Note_on_c, 0, 55, 60
1, 576, Note_on_c, 0, 59, 58
1, 576, Note_on_c, 0, 62, 60
1, 576, Note_on_c, 0, 72, 61
1, 614, Note_off_c, 0, 59, 65
1, 618, Note_off_c, 0, 72, 38
1, 624, Note_off_c, 0, 55, 38
1, 626, Note_off_c, 0, 43, 11
1, 627, Note_off_c, 0, 62, 50
1, 672, Note_on_c, 0, 47, 68
1, 698, Note_off_c, 0, 47, 76
1, 768, Note_on_c, 0, 48, 64
1, 768, Note_on_c, 0, 60, 69
1, 768, Note_on_c, 0, 64, 62
1, 768, Note_on_c, 0, 67, 32
1, 797, Note_off_c, 0, 48, 32
1, 819, Note_off_c, 0, 67, 25
1, 821, Note_off_c, 0, 60, 37
1, 825, Note_off_c, 0, 64, 64
1, 864, Note_on_c, 0, 52, 75
1, 904, Note_off_c, 0, 52, 39
1, 960, Note_on_c, 0, 55, 67
1, 960, Note_on_c, 0, 60, 54
1, 960, Note_on_c, 0, 64, 69
1, 960, Note_on_c, 0, 67, 37
1, 960, Note_on_c, 0, 72, 54
1, 991, Note_off_c, 0, 55, 27
1, 999, Note_off_c, 0, 60, 26
1, 1016, Note_off_c, 0, 64, 47
1, 1027, Note_off_c, 0, 67, 32
1, 1029, Note_off_c, 0, 72, 28
1, 1056, Note_on_c, 0, 52, 67
1, 1079, Note_off_c, 0, 52, 48
1, 1152, Note_on_c, 0, 50, 45
1, 1152, Note_on_c, 0, 62, 43
1, 1152, Note_on_c, 0, 65, 26
1, 1152, Note_on_c, 0, 69, 55
1, 1152, Note_on_c, 0, 71, 66
1, 1193, Note_off_c, 0, 50, 57
1, 1222, Note_off_c, 0, 69, 39
1, 1224, Note_off_c, 0, 65, 16
1, 1225, Note_off_c, 0, 62, 48
1, 1231, Note_off_c, 0, 71, 51
1, 1248, Note_on_c, 0, 53, 58
1, 1285, Note_off_c, 0, 53, 26
1, 1344, Note_on_c, 0, 57, 62
1, 1344, Note_on_c, 0, 62, 50
1, 1344, Note_on_c, 0, 65, 22
1, 1344, Note_on_c, 0, 69, 47
1, 1344, Note_on_c, 0, 74, 61
1, 1407, Note_off_c, 0, 69, 52
1, 1408, Note_off_c, 0, 65, 30
1, 1413, Note_off_c, 0, 74, 57
1, 1414, Note_off_c, 0, 62, 62
1, 1421, Note_off_c, 0, 57, 1
1, 1440, Note_on_c, 0, 53, 60
1, 1463, Note_off_c, 0, 53, 36
1, 0, Note_on_c, 0, 57, 46
1, 0, Note_on_c, 0, 64, 46
1, 0, Note_on_c, 0, 69, 46
1, 48, Note_on_c, 0, 67, 46
1, 144, Note_on_c, 0, 71, 46
1, 239, Note_off_c, 0, 69, 64
1, 240, Note_on_c, 0, 69, 46
1, 240, Note_off_c, 0, 71, 64
1, 287, Note_off_c, 0, 67, 64
1, 288, Note_on_c, 0, 67, 46
1, 383, Note_off_c, 0, 64, 64
1, 384, Note_on_c, 0, 55, 46
1, 384, Note_off_c, 0, 57, 64
1, 384, Note_on_c, 0, 64, 46
1, 384, Note_off_c, 0, 67, 64
1, 384, Note_off_c, 0, 69, 64
1, 480, Note_on_c, 0, 71, 46
1, 576, Note_on_c, 0, 60, 46
1, 576, Note_on_c, 0, 67, 46
1, 671, Note_off_c, 0, 71, 64
1, 672, Note_off_c, 0, 60, 64
1, 672, Note_off_c, 0, 67, 64
1, 672, Note_on_c, 0, 71, 46
1, 767, Note_off_c, 0, 64, 64
1, 768, Note_off_c, 0, 55, 64
1, 768, Note_on_c, 0, 57, 42
1, 768, Note_on_c, 0, 64, 42
1, 768, Note_on_c, 0, 69, 42
1, 768, Note_off_c, 0, 71, 64
1, 816, Note_on_c, 0, 67, 42
1, 912, Note_on_c, 0, 71, 42
1, 1007, Note_off_c, 0, 69, 64
1, 1008, Note_on_c, 0, 69, 42
1, 1008, Note_off_c, 0, 71, 64
1, 1055, Note_off_c, 0, 67, 64
1, 1056, Note_on_c, 0, 67, 42
1, 1151, Note_off_c, 0, 64, 64
1, 1151, Note_off_c, 0, 67, 64
1, 1152, Note_on_c, 0, 52, 42
1, 1152, Note_off_c, 0, 57, 64
1, 1152, Note_on_c, 0, 64, 42
1, 1152, Note_on_c, 0, 67, 42
1, 1152, Note_off_c, 0, 69, 64
1, 1248, Note_on_c, 0, 71, 42
1, 1343, Note_off_c, 0, 67, 64
1, 1344, Note_on_c, 0, 60, 42
1, 1344, Note_on_c, 0, 67, 42
1, 1439, Note_off_c, 0, 71, 64
1, 1440, Note_off_c, 0, 60, 64
1, 1440, Note_on_c, 0, 71, 42
1, 1536, Note_off_c, 0, 52, 64
1, 1536, Note_off_c, 0, 64, 64
1, 1536, Note_off_c, 0, 67, 64
1, 1536, Note_off_c, 0, 71, 64
1, 0, Note_on_c, 0, 50, 57
1, 2, Note_on_c, 0, 67, 70
1, 140, Note_on_c, 0, 65, 55
1, 186, Note_off_c, 0, 67, 60
1, 190, Note_on_c, 0, 64, 65
1, 192, Note_off_c, 0, 50, 47
1, 192, Note_on_c, 0, 52, 57
1, 200, Note_off_c, 0, 65, 122
1, 336, Note_on_c, 0, 62, 75
1, 384, Note_on_c, 0, 45, 51
1, 386, Note_off_c, 0, 64, 78
1, 387, Note_on_c, 0, 64, 69
1, 398, Note_off_c, 0, 52, 47
1, 398, Note_off_c, 0, 62, 80
1, 528, Note_on_c, 0, 57, 64
1, 576, Note_on_c, 0, 48, 45
1, 583, Note_on_c, 0, 59, 65
1, 587, Note_off_c, 0, 45, 50
1, 587, Note_off_c, 0, 64, 64
1, 589, Note_off_c, 0, 57, 57
1, 719, Note_on_c, 0, 60, 74
1, 768, Note_off_c, 0, 48, 29
1, 768, Note_on_c, 0, 50, 57
1, 768, Note_off_c, 0, 59, 88
1, 768, Note_off_c, 0, 60, 127
1, 770, Note_on_c, 0, 67, 70
1, 908, Note_on_c, 0, 65, 55
1, 954, Note_off_c, 0, 67, 60
1, 958, Note_on_c, 0, 64, 65
1, 960, Note_off_c, 0, 50, 47
1, 960, Note_on_c, 0, 52, 57
1, 968, Note_off_c, 0, 65, 122
1, 1104, Note_on_c, 0, 62, 75
1, 1152, Note_on_c, 0, 45, 51
1, 1154, Note_off_c, 0, 64, 78
1, 1155, Note_on_c, 0, 64, 69
1, 1166, Note_off_c, 0, 52, 47
1, 1166, Note_off_c, 0, 62, 80
1, 1296, Note_on_c, 0, 57, 64
1, 1344, Note_on_c, 0, 48, 45
1, 1351, Note_on_c, 0, 59, 65
1, 1355, Note_off_c, 0, 45, 50
1, 1355, Note_off_c, 0, 64, 64
1, 1357, Note_off_c, 0, 57, 57
1, 1487, Note_on_c, 0, 57, 74
1, 1536, Note_off_c, 0, 48, 29
1, 1536, Note_off_c, 0, 57, 127
1, 1536, Note_off_c, 0, 59, 88
1, 0, Note_on_c, 0, 41, 42
1, 1, Note_on_c, 0, 76, 37
1, 30, Note_off_c, 0, 76, 23
1, 144, Note_on_c, 0, 52, 19
1, 192, Note_on_c, 0, 60, 59
1, 192, Note_on_c, 0, 65, 48
1, 200, Note_off_c, 0, 52, 51
1, 216, Note_off_c, 0, 65, 64
1, 236, Note_on_c, 0, 52, 28
1, 289, Note_on_c, 0, 59, 52
1, 293, Note_off_c, 0, 52, 56
1, 324, Note_off_c, 0, 60, 1
1, 331, Note_off_c, 0, 41, 1
1, 332, Note_off_c, 0, 59, 57
1, 336, Note_on_c, 0, 52, 30
1, 384, Note_on_c, 0, 41, 42
1, 384, Note_on_c, 0, 74, 40
1, 424, Note_off_c, 0, 74, 19
1, 483, Note_off_c, 0, 52, 20
1, 527, Note_on_c, 0, 52, 35
1, 571, Note_off_c, 0, 52, 38
1, 575, Note_on_c, 0, 60, 34
1, 576, Note_on_c, 0, 62, 48
1, 600, Note_off_c, 0, 62, 64
1, 624, Note_on_c, 0, 52, 21
1, 649, Note_off_c, 0, 60, 1
1, 670, Note_off_c, 0, 52, 49
1, 673, Note_on_c, 0, 59, 37
1, 708, Note_off_c, 0, 41, 1
1, 712, Note_off_c, 0, 59, 23
1, 717, Note_on_c, 0, 52, 37
1, 768, Note_on_c, 0, 45, 63
1, 769, Note_on_c, 0, 72, 53
1, 809, Note_off_c, 0, 72, 8
1, 864, Note_off_c, 0, 52, 1
1, 911, Note_on_c, 0, 52, 52
1, 959, Note_on_c, 0, 60, 53
1, 960, Note_on_c, 0, 64, 48
1, 963, Note_off_c, 0, 52, 47
1, 984, Note_off_c, 0, 64, 64
1, 1003, Note_on_c, 0, 52, 34
1, 1055, Note_on_c, 0, 59, 45
1, 1059, Note_off_c, 0, 52, 42
1, 1101, Note_off_c, 0, 59, 34
1, 1104, Note_off_c, 0, 60, 1
1, 1105, Note_on_c, 0, 52, 41
1, 1114, Note_off_c, 0, 45, 1
1, 1152, Note_on_c, 0, 45, 52
1, 1152, Note_on_c, 0, 71, 48
1, 1176, Note_off_c, 0, 71, 64
1, 1218, Note_off_c, 0, 52, 1
1, 1295, Note_on_c, 0, 52, 47
1, 1342, Note_on_c, 0, 60, 37
1, 1344, Note_on_c, 0, 64, 22
1, 1344, Note_on_c, 0, 69, 50
1, 1352, Note_off_c, 0, 52, 64
1, 1368, Note_off_c, 0, 64, 64
1, 1375, Note_off_c, 0, 69, 54
1, 1391, Note_on_c, 0, 52, 31
1, 1411, Note_off_c, 0, 60, 1
1, 1440, Note_on_c, 0, 62, 43
1, 1442, Note_off_c, 0, 52, 67
1, 1467, Note_off_c, 0, 62, 16
1, 1488, Note_on_c, 0, 52, 32
1, 1506, Note_off_c, 0, 45, 1
1, 1518, Note_off_c, 0, 52, 58
1, 0, Note_on_c, 0, 57, 49
1, 0, Note_on_c, 0, 64, 57
1, 73, Note_off_c, 0, 57, 44
1, 87, Note_off_c, 0, 64, 35
1, 192, Note_on_c, 0, 57, 45
1, 192, Note_on_c, 0, 64, 47
1, 192, Note_on_c, 0, 72, 40
1, 267, Note_off_c, 0, 72, 40
1, 270, Note_off_c, 0, 64, 42
1, 274, Note_off_c, 0, 57, 43
1, 384, Note_on_c, 0, 55, 26
1, 384, Note_on_c, 0, 64, 39
1, 384, Note_on_c, 0, 71, 46
1, 457, Note_off_c, 0, 64, 42
1, 457, Note_off_c, 0, 71, 46
1, 467, Note_off_c, 0, 55, 19
1, 576, Note_on_c, 0, 55, 35
1, 576, Note_on_c, 0, 64, 46
1, 576, Note_on_c, 0, 67, 43
1, 652, Note_off_c, 0, 64, 44
1, 659, Note_off_c, 0, 67, 3
1, 661, Note_off_c, 0, 55, 19
1, 768, Note_on_c, 0, 53, 36
1, 768, Note_on_c, 0, 64, 60
1, 841, Note_off_c, 0, 53, 17
1, 846, Note_off_c, 0, 64, 45
1, 960, Note_on_c, 0, 53, 30
1, 960, Note_on_c, 0, 64, 51
1, 960, Note_on_c, 0, 72, 64
1, 1028, Note_off_c, 0, 72, 25
1, 1034, Note_off_c, 0, 53, 18
1, 1041, Note_off_c, 0, 64, 39
1, 1152, Note_on_c, 0, 53, 20
1, 1152, Note_on_c, 0, 64, 38
1, 1152, Note_on_c, 0, 71, 63
1, 1216, Note_off_c, 0, 53, 30
1, 1226, Note_off_c, 0, 71, 49
1, 1232, Note_off_c, 0, 64, 39
1, 1344, Note_on_c, 0, 50, 37
1, 1344, Note_on_c, 0, 64, 41
1, 1344, Note_on_c, 0, 67, 44
1, 1393, Note_off_c, 0, 67, 15
1, 1440, Note_on_c, 0, 69, 58
1, 1471, Note_off_c, 0, 50, 42
1, 1487, Note_off_c, 0, 64, 38
1, 1497, Note_off_c, 0, 69, 39
1, 1536, Note_on_c, 0, 57, 51
1, 1536, Note_on_c, 0, 64, 57
1, 1608, Note_off_c, 0, 64, 1
1, 1638, Note_off_c, 0, 57, 39
1, 1728, Note_on_c, 0, 57, 44
1, 1728, Note_on_c, 0, 64, 58
1, 1728, Note_on_c, 0, 72, 54
1, 1804, Note_off_c, 0, 72, 44
1, 1809, Note_off_c, 0, 57, 43
1, 1838, Note_off_c, 0, 64, 1
1, 1920, Note_on_c, 0, 55, 28
1, 1920, Note_on_c, 0, 64, 40
1, 1920, Note_on_c, 0, 71, 62
1, 1995, Note_off_c, 0, 71, 40
1, 2005, Note_off_c, 0, 64, 32
1, 2014, Note_off_c, 0, 55, 17
1, 2112, Note_on_c, 0, 55, 30
1, 2112, Note_on_c, 0, 64, 44
1, 2112, Note_on_c, 0, 67, 36
1, 2195, Note_off_c, 0, 67, 1
1, 2207, Note_off_c, 0, 64, 29
1, 2211, Note_off_c, 0, 55, 25
1, 2304, Note_on_c, 0, 53, 45
1, 2304, Note_on_c, 0, 64, 62
1, 2580, Note_off_c, 0, 64, 13
1, 2640, Note_on_c, 0, 64, 53
1, 2671, Note_off_c, 0, 53, 26
1, 2688, Note_on_c, 0, 53, 29
1, 2688, Note_off_c, 0, 64, 33
1, 2688, Note_on_c, 0, 65, 18
1, 2859, Note_off_c, 0, 65, 1
1, 2878, Note_off_c, 0, 53, 37
1, 2880, Note_on_c, 0, 50, 53
1, 2880, Note_on_c, 0, 64, 55
1, 2964, Note_off_c, 0, 64, 45
1, 2976, Note_on_c, 0, 60, 43
1, 3024, Note_off_c, 0, 60, 62
1, 3025, Note_off_c, 0, 50, 56
1, 0, Pitch_bend_c, 0, 8192
1, 0, Control_c, 0, 6, 12
1, 0, Control_c, 0, 7, 100
1, 0, Control_c, 0, 10, 64
1, 0, Control_c, 0, 100, 0
1, 0, Control_c, 0, 101, 0
1, 0, Note_on_c, 0, 45, 55
1, 2, Note_on_c, 0, 52, 58
1, 5, Note_on_c, 0, 57, 62
1, 7, Note_on_c, 0, 60, 59
1, 10, Note_on_c, 0, 62, 69
1, 12, Note_on_c, 0, 76, 75
1, 24, Note_on_c, 0, 64, 88
1, 82, Note_off_c, 0, 62, 127
1, 96, Note_on_c, 0, 69, 1
1, 135, Note_off_c, 0, 60, 127
1, 192, Note_on_c, 0, 71, 35
1, 240, Note_off_c, 0, 64, 64
1, 245, Note_off_c, 0, 57, 64
1, 288, Note_on_c, 0, 41, 49
1, 288, Note_off_c, 0, 45, 64
1, 290, Note_on_c, 0, 48, 52
1, 290, Note_off_c, 0, 52, 64
1, 293, Note_on_c, 0, 53, 56
1, 295, Note_on_c, 0, 57, 61
1, 298, Note_on_c, 0, 60, 66
1, 300, Note_on_c, 0, 64, 88
1, 312, Note_on_c, 0, 62, 79
1, 312, Note_on_c, 0, 72, 56
1, 370, Note_off_c, 0, 60, 0
1, 429, Note_off_c, 0, 76, 64
1, 453, Note_off_c, 0, 69, 64
1, 462, Note_off_c, 0, 71, 64
1, 468, Note_off_c, 0, 72, 64
1, 576, Note_on_c, 0, 69, 42
1, 624, Note_on_c, 0, 71, 26
1, 662, Note_off_c, 0, 48, 127
1, 668, Note_off_c, 0, 64, 0
1, 672, Note_off_c, 0, 41, 127
1, 672, Note_on_c, 0, 72, 57
1, 713, Note_off_c, 0, 53, 127
1, 720, Note_on_c, 0, 74, 59
1, 742, Note_off_c, 0, 69, 64
1, 742, Note_off_c, 0, 71, 64
1, 744, Note_off_c, 0, 74, 64
1, 751, Note_off_c, 0, 57, 64
1, 755, Note_off_c, 0, 72, 64
1, 768, Note_on_c, 0, 41, 50
1, 768, Note_off_c, 0, 62, 64
1, 770, Note_on_c, 0, 48, 53
1, 773, Note_on_c, 0, 53, 56
1, 775, Note_on_c, 0, 57, 69
1, 778, Note_on_c, 0, 60, 71
1, 780, Note_on_c, 0, 76, 75
1, 792, Note_on_c, 0, 62, 91
1, 858, Note_off_c, 0, 60, 127
1, 864, Note_on_c, 0, 69, 1
1, 912, Note_off_c, 0, 62, 127
1, 960, Note_on_c, 0, 71, 35
1, 1008, Note_off_c, 0, 41, 64
1, 1010, Note_off_c, 0, 48, 64
1, 1013, Note_off_c, 0, 53, 64
1, 1015, Note_off_c, 0, 57, 64
1, 1056, Note_on_c, 0, 43, 42
1, 1058, Note_on_c, 0, 50, 45
1, 1061, Note_on_c, 0, 55, 60
1, 1063, Note_on_c, 0, 59, 68
1, 1066, Note_on_c, 0, 62, 76
1, 1068, Note_on_c, 0, 64, 99
1, 1080, Note_on_c, 0, 72, 56
1, 1197, Note_off_c, 0, 76, 64
1, 1221, Note_off_c, 0, 69, 64
1, 1230, Note_off_c, 0, 71, 64
1, 1236, Note_off_c, 0, 72, 64
1, 1344, Note_on_c, 0, 69, 42
1, 1392, Note_on_c, 0, 71, 26
1, 1428, Note_off_c, 0, 64, 64
1, 1434, Note_off_c, 0, 62, 127
1, 1440, Note_on_c, 0, 72, 57
1, 1464, Note_off_c, 0, 43, 64
1, 1466, Note_off_c, 0, 50, 64
1, 1469, Note_off_c, 0, 55, 64
1, 1471, Note_off_c, 0, 59, 64
1, 1488, Note_on_c, 0, 74, 59
1, 1510, Note_off_c, 0, 69, 64
1, 1510, Note_off_c, 0, 71, 64
1, 1512, Note_off_c, 0, 74, 64
1, 1523, Note_off_c, 0, 72, 64
1, 1536, Note_on_c, 0, 45, 55
1, 1538, Note_on_c, 0, 52, 43
1, 1541, Note_on_c, 0, 57, 64
1, 1543, Note_on_c, 0, 60, 68
1, 1546, Note_on_c, 0, 62, 86
1, 1548, Note_on_c, 0, 76, 75
1, 1560, Note_on_c, 0, 64, 97
1, 1626, Note_off_c, 0, 62, 127
1, 1632, Note_on_c, 0, 69, 1
1, 1671, Note_off_c, 0, 60, 127
1, 1728, Note_on_c, 0, 71, 35
1, 1754, Note_off_c, 0, 52, 64
1, 1776, Note_off_c, 0, 64, 64
1, 1781, Note_off_c, 0, 57, 64
1, 1824, Note_on_c, 0, 41, 52
1, 1824, Note_off_c, 0, 45, 64
1, 1826, Note_on_c, 0, 48, 50
1, 1829, Note_on_c, 0, 53, 55
1, 1831, Note_on_c, 0, 57, 62
1, 1834, Note_on_c, 0, 60, 70
1, 1848, Note_on_c, 0, 62, 86
1, 1848, Note_on_c, 0, 72, 56
1, 1965, Note_off_c, 0, 76, 64
1, 1989, Note_off_c, 0, 69, 64
1, 1998, Note_off_c, 0, 71, 64
1, 2004, Note_off_c, 0, 72, 64
1, 2010, Note_off_c, 0, 60, 127
1, 2112, Note_on_c, 0, 69, 42
1, 2160, Note_on_c, 0, 71, 26
1, 2208, Note_off_c, 0, 41, 127
1, 2208, Note_on_c, 0, 72, 57
1, 2256, Note_on_c, 0, 74, 59
1, 2278, Note_off_c, 0, 69, 64
1, 2278, Note_off_c, 0, 71, 64
1, 2280, Note_off_c, 0, 74, 64
1, 2282, Note_off_c, 0, 48, 64
1, 2285, Note_off_c, 0, 53, 64
1, 2287, Note_off_c, 0, 57, 64
1, 2291, Note_off_c, 0, 72, 64
1, 2304, Note_on_c, 0, 43, 53
1, 2304, Note_off_c, 0, 62, 64
1, 2306, Note_on_c, 0, 50, 58
1, 2309, Note_on_c, 0, 55, 65
1, 2311, Note_on_c, 0, 59, 74
1, 2316, Note_on_c, 0, 76, 75
1, 2400, Note_on_c, 0, 69, 1
1, 2496, Note_on_c, 0, 71, 35
1, 2592, Note_on_c, 0, 74, 56
1, 2733, Note_off_c, 0, 76, 64
1, 2757, Note_off_c, 0, 69, 64
1, 2766, Note_off_c, 0, 71, 64
1, 2772, Note_off_c, 0, 74, 64
1, 2880, Note_on_c, 0, 69, 42
1, 2928, Note_on_c, 0, 71, 26
1, 2976, Note_on_c, 0, 72, 57
1, 2978, Note_off_c, 0, 50, 127
1, 3024, Note_on_c, 0, 74, 59
1, 3029, Note_off_c, 0, 55, 0
1, 3046, Note_off_c, 0, 69, 64
1, 3046, Note_off_c, 0, 71, 64
1, 3048, Note_off_c, 0, 74, 64
1, 3059, Note_off_c, 0, 72, 64
1, 3072, Note_off_c, 0, 43, 64
1, 3072, Note_off_c, 0, 59, 127
1, 0, Note_on_c, 0, 33, 54
1, 0, Note_on_c, 0, 45, 59
1, 0, Note_on_c, 0, 60, 48
1, 96, Note_on_c, 0, 48, 28
1, 191, Note_off_c, 0, 45, 54
1, 191, Note_on_c, 0, 52, 50
1, 192, Note_on_c, 0, 45, 58
1, 192, Note_on_c, 0, 59, 63
1, 287, Note_off_c, 0, 48, 18
1, 288, Note_on_c, 0, 48, 48
1, 383, Note_on_c, 0, 43, 66
1, 384, Note_on_c, 0, 31, 59
1, 384, Note_off_c, 0, 33, 39
1, 384, Note_off_c, 0, 45, 60
1, 384, Note_off_c, 0, 48, 37
1, 384, Note_off_c, 0, 52, 1
1, 384, Note_off_c, 0, 59, 47
1, 384, Note_off_c, 0, 60, 19
1, 384, Note_on_c, 0, 64, 68
1, 481, Note_on_c, 0, 48, 43
1, 575, Note_off_c, 0, 43, 41
1, 576, Note_on_c, 0, 43, 34
1, 576, Note_on_c, 0, 47, 42
1, 576, Note_on_c, 0, 59, 57
1, 669, Note_off_c, 0, 48, 17
1, 670, Note_on_c, 0, 48, 54
1, 766, Note_on_c, 0, 41, 57
1, 767, Note_on_c, 0, 62, 59
1, 768, Note_on_c, 0, 29, 42
1, 768, Note_off_c, 0, 31, 8
1, 768, Note_off_c, 0, 43, 13
1, 768, Note_off_c, 0, 47, 51
1, 768, Note_off_c, 0, 48, 47
1, 768, Note_off_c, 0, 59, 47
1, 768, Note_off_c, 0, 64, 36
1, 864, Note_on_c, 0, 47, 53
1, 959, Note_off_c, 0, 41, 26
1, 959, Note_on_c, 0, 60, 67
1, 960, Note_on_c, 0, 41, 47
1, 960, Note_on_c, 0, 48, 28
1, 1054, Note_off_c, 0, 47, 35
1, 1055, Note_on_c, 0, 47, 57
1, 1151, Note_off_c, 0, 60, 46
1, 1152, Note_on_c, 0, 28, 51
1, 1152, Note_off_c, 0, 29, 27
1, 1152, Note_on_c, 0, 40, 57
1, 1152, Note_off_c, 0, 41, 29
1, 1152, Note_off_c, 0, 47, 52
1, 1152, Note_off_c, 0, 48, 38
1, 1152, Note_on_c, 0, 60, 53
1, 1152, Note_off_c, 0, 62, 30
1, 1247, Note_on_c, 0, 43, 24
1, 1343, Note_off_c, 0, 40, 39
1, 1344, Note_on_c, 0, 40, 35
1, 1344, Note_on_c, 0, 47, 56
1, 1344, Note_on_c, 0, 59, 58
1, 1439, Note_on_c, 0, 48, 33
1, 1526, Note_off_c, 0, 43, 23
1, 1526, Note_off_c, 0, 47, 35
1, 1526, Note_off_c, 0, 48, 42
1, 1526, Note_off_c, 0, 59, 49
1, 1526, Note_off_c, 0, 60, 41
1, 1535, Note_off_c, 0, 40, 57
1, 1536, Note_off_c, 0, 28, 53
1, 0, Pitch_bend_c, 0, 8192
1, 0, Control_c, 0, 6, 12
1, 0, Control_c, 0, 7, 100
1, 0, Control_c, 0, 10, 64
1, 0, Control_c, 0, 100, 0
1, 0, Control_c, 0, 101, 0
1, 0, Note_on_c, 0, 57, 100
1, 0, Note_on_c, 0, 60, 100
1, 0, Note_on_c, 0, 64, 100
1, 0, Note_on_c, 0, 67, 100
1, 192, Note_off_c, 0, 57, 64
1, 192, Note_off_c, 0, 60, 64
1, 192, Note_off_c, 0, 64, 64
1, 192, Note_off_c, 0, 67, 64
1, 288, Note_on_c, 0, 57, 100
1, 288, Note_on_c, 0, 60, 100
1, 288, Note_on_c, 0, 64, 100
1, 288, Note_on_c, 0, 67, 100
1, 384, Note_on_c, 0, 53, 100
1, 384, Note_off_c, 0, 57, 64
1, 384, Note_on_c, 0, 57, 100
1, 384, Note_off_c, 0, 60, 64
1, 384, Note_on_c, 0, 60, 100
1, 384, Note_off_c, 0, 64, 64
1, 384, Note_on_c, 0, 64, 100
1, 384, Note_off_c, 0, 67, 64
1, 480, Note_off_c, 0, 53, 64
1, 480, Note_off_c, 0, 57, 64
1, 480, Note_off_c, 0, 60, 64
1, 480, Note_off_c, 0, 64, 64
1, 528, Note_on_c, 0, 53, 100
1, 528, Note_on_c, 0, 57, 100
1, 528, Note_on_c, 0, 60, 100
1, 528, Note_on_c, 0, 64, 100
1, 768, Note_on_c, 0, 50, 100
1, 768, Note_off_c, 0, 53, 64
1, 768, Note_off_c, 0, 57, 64
1, 768, Note_on_c, 0, 57, 100
1, 768, Note_off_c, 0, 60, 64
1, 768, Note_on_c, 0, 60, 100
1, 768, Note_off_c, 0, 64, 64
1, 768, Note_on_c, 0, 65, 100
1, 960, Note_off_c, 0, 50, 64
1, 960, Note_off_c, 0, 57, 64
1, 960, Note_off_c, 0, 60, 64
1, 960, Note_off_c, 0, 65, 64
1, 1056, Note_on_c, 0, 50, 100
1, 1056, Note_on_c, 0, 57, 100
1, 1056, Note_on_c, 0, 60, 100
1, 1056, Note_on_c, 0, 65, 100
1, 1152, Note_off_c, 0, 50, 64
1, 1152, Note_on_c, 0, 52, 100
1, 1152, Note_on_c, 0, 56, 100
1, 1152, Note_off_c, 0, 57, 64
1, 1152, Note_on_c, 0, 59, 100
1, 1152, Note_off_c, 0, 60, 64
1, 1152, Note_on_c, 0, 62, 100
1, 1152, Note_off_c, 0, 65, 64
1, 1440, Note_off_c, 0, 52, 64
1, 1440, Note_off_c, 0, 56, 64
1, 1440, Note_on_c, 0, 56, 100
1, 1440, Note_off_c, 0, 59, 64
1, 1440, Note_on_c, 0, 59, 100
1, 1440, Note_off_c, 0, 62, 64
1, 1440, Note_on_c, 0, 62, 100
1, 1440, Note_on_c, 0, 64, 100
1, 1536, Note_off_c, 0, 56, 64
1, 1536, Note_off_c, 0, 59, 64
1, 1536, Note_off_c, 0, 62, 64
1, 1536, Note_off_c, 0, 64, 64
1, 3072, Pitch_bend_c, 0, 8192
1, 3072, Pitch_bend_c, 0, 8192
1, 3072, Control_c, 0, 6, 12
1, 3072, Control_c, 0, 6, 12
1, 3072, Control_c, 0, 7, 100
1, 3072, Control_c, 0, 7, 100
1, 3072, Control_c, 0, 10, 64
1, 3072, Control_c, 0, 10, 64
1, 3072, Control_c, 0, 100, 0
1, 3072, Control_c, 0, 100, 0
1, 3072, Control_c, 0, 101, 0
1, 3072, Control_c, 0, 101, 0
1, 0, Note_on_c, 0, 45, 100
1, 0, Note_on_c, 0, 64, 100
1, 0, Note_on_c, 0, 69, 100
1, 192, Note_on_c, 0, 52, 100
1, 288, Note_off_c, 0, 69, 64
1, 288, Note_on_c, 0, 77, 100
1, 336, Note_off_c, 0, 45, 64
1, 384, Note_on_c, 0, 45, 100
1, 384, Note_on_c, 0, 62, 100
1, 384, Note_off_c, 0, 64, 64
1, 384, Note_on_c, 0, 76, 100
1, 384, Note_off_c, 0, 77, 64
1, 480, Note_off_c, 0, 76, 64
1, 528, Note_off_c, 0, 52, 64
1, 576, Note_on_c, 0, 52, 100
1, 672, Note_on_c, 0, 69, 100
1, 720, Note_off_c, 0, 45, 64
1, 720, Note_off_c, 0, 69, 64
1, 720, Note_on_c, 0, 72, 100
1, 768, Note_on_c, 0, 45, 100
1, 768, Note_on_c, 0, 60, 100
1, 768, Note_off_c, 0, 62, 64
1, 768, Note_off_c, 0, 72, 64
1, 768, Note_on_c, 0, 74, 100
1, 864, Note_off_c, 0, 74, 64
1, 912, Note_off_c, 0, 52, 64
1, 960, Note_on_c, 0, 52, 100
1, 1056, Note_on_c, 0, 76, 100
1, 1104, Note_off_c, 0, 45, 64
1, 1152, Note_on_c, 0, 45, 100
1, 1152, Note_on_c, 0, 59, 100
1, 1152, Note_off_c, 0, 60, 64
1, 1152, Note_on_c, 0, 74, 100
1, 1152, Note_off_c, 0, 76, 64
1, 1248, Note_off_c, 0, 74, 64
1, 1296, Note_off_c, 0, 52, 64
1, 1344, Note_on_c, 0, 52, 100
1, 1488, Note_off_c, 0, 45, 64
1, 1536, Note_on_c, 0, 48, 100
1, 1536, Note_off_c, 0, 59, 64
1, 1536, Note_on_c, 0, 64, 100
1, 1536, Note_on_c, 0, 69, 100
1, 1680, Note_off_c, 0, 52, 64
1, 1728, Note_on_c, 0, 52, 100
1, 1824, Note_off_c, 0, 69, 64
1, 1824, Note_on_c, 0, 77, 100
1, 1872, Note_off_c, 0, 48, 64
1, 1920, Note_on_c, 0, 48, 100
1, 1920, Note_on_c, 0, 62, 100
1, 1920, Note_off_c, 0, 64, 64
1, 1920, Note_on_c, 0, 76, 100
1, 1920, Note_off_c, 0, 77, 64
1, 2016, Note_off_c, 0, 76, 64
1, 2064, Note_off_c, 0, 52, 64
1, 2112, Note_on_c, 0, 52, 100
1, 2208, Note_on_c, 0, 69, 100
1, 2256, Note_off_c, 0, 48, 64
1, 2256, Note_off_c, 0, 69, 64
1, 2256, Note_on_c, 0, 72, 100
1, 2304, Note_on_c, 0, 48, 100
1, 2304, Note_on_c, 0, 60, 100
1, 2304, Note_off_c, 0, 62, 64
1, 2304, Note_off_c, 0, 72, 64
1, 2304, Note_on_c, 0, 74, 100
1, 2400, Note_off_c, 0, 74, 64
1, 2448, Note_off_c, 0, 52, 64
1, 2496, Note_on_c, 0, 52, 100
1, 2592, Note_on_c, 0, 76, 100
1, 2640, Note_off_c, 0, 48, 64
1, 2688, Note_on_c, 0, 48, 100
1, 2688, Note_on_c, 0, 59, 100
1, 2688, Note_off_c, 0, 60, 64
1, 2688, Note_on_c, 0, 74, 100
1, 2688, Note_off_c, 0, 76, 64
1, 2784, Note_off_c, 0, 74, 64
1, 2832, Note_off_c, 0, 52, 64
1, 2880, Note_on_c, 0, 52, 100
1, 3024, Note_off_c, 0, 48, 64
1, 3072, Note_off_c, 0, 52, 64
1, 3072, Note_off_c, 0, 59, 64
1, 0, Note_on_c, 0, 55, 57
1, 0, Note_on_c, 0, 57, 50
1, 0, Note_on_c, 0, 60, 56
1, 191, Note_off_c, 0, 60, 60
1, 192, Note_on_c, 0, 64, 75
1, 383, Note_off_c, 0, 55, 31
1, 383, Note_off_c, 0, 64, 66
1, 384, Note_on_c, 0, 52, 78
1, 384, Note_on_c, 0, 55, 65
1, 384, Note_off_c, 0, 57, 48
1, 384, Note_on_c, 0, 59, 43
1, 575, Note_off_c, 0, 59, 31
1, 576, Note_on_c, 0, 62, 55
1, 767, Note_off_c, 0, 62, 47
1, 768, Note_off_c, 0, 52, 59
1, 768, Note_on_c, 0, 53, 78
1, 768, Note_off_c, 0, 55, 69
1, 768, Note_on_c, 0, 57, 45
1, 768, Note_on_c, 0, 60, 70
1, 959, Note_off_c, 0, 60, 64
1, 960, Note_on_c, 0, 64, 78
1, 1151, Note_off_c, 0, 53, 40
1, 1151, Note_off_c, 0, 57, 36
1, 1151, Note_off_c, 0, 64, 73
1, 1152, Note_on_c, 0, 50, 58
1, 1152, Note_on_c, 0, 53, 55
1, 1152, Note_on_c, 0, 57, 52
1, 1343, Note_off_c, 0, 57, 47
1, 1344, Note_on_c, 0, 64, 61
1, 1535, Note_off_c, 0, 64, 59
1, 1536, Note_off_c, 0, 50, 58
1, 1536, Note_off_c, 0, 53, 52
1, 1536, Note_on_c, 0, 55, 78
1, 1536, Note_on_c, 0, 57, 50
1, 1536, Note_on_c, 0, 60, 75
1, 1728, Note_off_c, 0, 60, 74
1, 1728, Note_on_c, 0, 64, 83
1, 1919, Note_off_c, 0, 55, 23
1, 1919, Note_off_c, 0, 64, 67
1, 1920, Note_on_c, 0, 52, 83
1, 1920, Note_on_c, 0, 55, 64
1, 1920, Note_off_c, 0, 57, 48
1, 1920, Note_on_c, 0, 59, 50
1, 2111, Note_off_c, 0, 59, 43
1, 2112, Note_on_c, 0, 67, 81
1, 2303, Note_off_c, 0, 67, 85
1, 2304, Note_off_c, 0, 52, 46
1, 2304, Note_on_c, 0, 53, 60
1, 2304, Note_off_c, 0, 55, 47
1, 2304, Note_on_c, 0, 57, 55
1, 2304, Note_on_c, 0, 60, 60
1, 2495, Note_off_c, 0, 60, 43
1, 2496, Note_on_c, 0, 64, 69
1, 2687, Note_off_c, 0, 53, 38
1, 2687, Note_off_c, 0, 57, 36
1, 2687, Note_off_c, 0, 64, 47
1, 2688, Note_on_c, 0, 50, 58
1, 2688, Note_on_c, 0, 53, 65
1, 2688, Note_on_c, 0, 57, 49
1, 2879, Note_off_c, 0, 57, 70
1, 2880, Note_on_c, 0, 60, 68
1, 3071, Note_off_c, 0, 60, 64
1, 3072, Note_off_c, 0, 50, 61
1, 3072, Note_off_c, 0, 53, 72
1, 0, Note_on_c, 0, 57, 100
1, 0, Note_on_c, 0, 69, 100
1, 96, Note_on_c, 0, 72, 100
1, 192, Note_on_c, 0, 76, 100
1, 384, Note_on_c, 0, 53, 100
1, 384, Note_off_c, 0, 57, 64
1, 384, Note_on_c, 0, 65, 100
1, 384, Note_off_c, 0, 69, 64
1, 479, Note_off_c, 0, 72, 64
1, 480, Note_on_c, 0, 72, 100
1, 575, Note_off_c, 0, 76, 64
1, 576, Note_on_c, 0, 76, 100
1, 768, Note_on_c, 0, 50, 100
1, 768, Note_off_c, 0, 53, 64
1, 768, Note_on_c, 0, 62, 100
1, 768, Note_off_c, 0, 65, 64
1, 863, Note_off_c, 0, 72, 64
1, 864, Note_on_c, 0, 72, 100
1, 959, Note_off_c, 0, 76, 64
1, 960, Note_on_c, 0, 76, 100
1, 1152, Note_on_c, 0, 89, 100
1, 1344, Note_on_c, 0, 88, 100
1, 1344, Note_off_c, 0, 89, 64
1, 1536, Note_off_c, 0, 50, 64
1, 1536, Note_on_c, 0, 57, 100
1, 1536, Note_off_c, 0, 62, 64
1, 1536, Note_on_c, 0, 69, 100
1, 1536, Note_off_c, 0, 72, 64
1, 1536, Note_off_c, 0, 76, 64
1, 1536, Note_off_c, 0, 88, 64
1, 1632, Note_on_c, 0, 72, 100
1, 1728, Note_on_c, 0, 76, 100
1, 1920, Note_on_c, 0, 53, 100
1, 1920, Note_off_c, 0, 57, 64
1, 1920, Note_on_c, 0, 65, 100
1, 1920, Note_off_c, 0, 69, 64
1, 2015, Note_off_c, 0, 72, 64
1, 2016, Note_on_c, 0, 72, 100
1, 2111, Note_off_c, 0, 76, 64
1, 2112, Note_on_c, 0, 76, 100
1, 2304, Note_on_c, 0, 50, 100
1, 2304, Note_off_c, 0, 53, 64
1, 2304, Note_on_c, 0, 62, 100
1, 2304, Note_off_c, 0, 65, 64
1, 2399, Note_off_c, 0, 72, 64
1, 2400, Note_on_c, 0, 72, 100
1, 2495, Note_off_c, 0, 76, 64
1, 2496, Note_on_c, 0, 76, 100
1, 2688, Note_on_c, 0, 89, 100
1, 2880, Note_on_c, 0, 88, 100
1, 2880, Note_off_c, 0, 89, 64
1, 3072, Note_off_c, 0, 50, 64
1, 3072, Note_off_c, 0, 62, 64
1, 3072, Note_off_c, 0, 72, 64
1, 3072, Note_off_c, 0, 76, 64
1, 3072, Note_off_c, 0, 88, 64
1, 0, Note_on_c, 0, 53, 94
1, 0, Note_on_c, 0, 76, 94
1, 96, Note_on_c, 0, 60, 94
1, 192, Note_on_c, 0, 65, 94
1, 192, Note_on_c, 0, 74, 94
1, 192, Note_off_c, 0, 76, 64
1, 288, Note_on_c, 0, 69, 94
1, 384, Note_on_c, 0, 72, 94
1, 384, Note_off_c, 0, 74, 64
1, 576, Note_on_c, 0, 71, 94
1, 576, Note_off_c, 0, 72, 64
1, 672, Note_off_c, 0, 60, 64
1, 768, Note_off_c, 0, 53, 64
1, 768, Note_on_c, 0, 57, 94
1, 768, Note_off_c, 0, 65, 64
1, 768, Note_off_c, 0, 69, 64
1, 768, Note_off_c, 0, 71, 64
1, 768, Note_on_c, 0, 76, 94
1, 864, Note_on_c, 0, 64, 94
1, 960, Note_on_c, 0, 69, 94
1, 960, Note_on_c, 0, 74, 94
1, 960, Note_off_c, 0, 76, 64
1, 1056, Note_on_c, 0, 71, 94
1, 1152, Note_on_c, 0, 72, 94
1, 1152, Note_off_c, 0, 74, 64
1, 1344, Note_on_c, 0, 67, 94
1, 1344, Note_off_c, 0, 72, 64
1, 1536, Note_on_c, 0, 53, 94
1, 1536, Note_off_c, 0, 57, 64
1, 1536, Note_off_c, 0, 64, 64
1, 1536, Note_off_c, 0, 67, 64
1, 1536, Note_off_c, 0, 69, 64
1, 1536, Note_off_c, 0, 71, 64
1, 1536, Note_on_c, 0, 76, 94
1, 1632, Note_on_c, 0, 60, 94
1, 1728, Note_on_c, 0, 65, 94
1, 1728, Note_on_c, 0, 74, 94
1, 1728, Note_off_c, 0, 76, 64
1, 1824, Note_on_c, 0, 69, 94
1, 1920, Note_on_c, 0, 72, 94
1, 1920, Note_off_c, 0, 74, 64
1, 2112, Note_on_c, 0, 71, 94
1, 2112, Note_off_c, 0, 72, 64
1, 2208, Note_off_c, 0, 60, 64
1, 2304, Note_off_c, 0, 53, 64
1, 2304, Note_on_c, 0, 57, 94
1, 2304, Note_off_c, 0, 65, 64
1, 2304, Note_off_c, 0, 69, 64
1, 2304, Note_off_c, 0, 71, 64
1, 2304, Note_on_c, 0, 76, 94
1, 2400, Note_on_c, 0, 64, 94
1, 2496, Note_on_c, 0, 69, 94
1, 2496, Note_on_c, 0, 74, 94
1, 2496, Note_off_c, 0, 76, 64
1, 2592, Note_on_c, 0, 71, 94
1, 2688, Note_on_c, 0, 72, 94
1, 2688, Note_off_c, 0, 74, 64
1, 2880, Note_on_c, 0, 67, 94
1, 2880, Note_off_c, 0, 72, 64
1, 3072, Note_off_c, 0, 57, 64
1, 3072, Note_off_c, 0, 64, 64
1, 3072, Note_off_c, 0, 67, 64
1, 3072, Note_off_c, 0, 69, 64
1, 3072, Note_off_c, 0, 71, 64
1, 0, Note_on_c, 0, 57, 45
1, 0, Note_on_c, 0, 71, 56
1, 97, Note_on_c, 0, 64, 33
1, 191, Note_on_c, 0, 60, 4
1, 192, Note_on_c, 0, 83, 121
1, 216, Note_off_c, 0, 83, 64
1, 291, Note_on_c, 0, 59, 41
1, 294, Note_off_c, 0, 71, 1
1, 301, Note_off_c, 0, 60, 1
1, 311, Note_off_c, 0, 57, 1
1, 379, Note_off_c, 0, 64, 1
1, 384, Note_off_c, 0, 59, 17
1, 384, Note_on_c, 0, 71, 59
1, 386, Note_on_c, 0, 57, 35
1, 484, Note_on_c, 0, 64, 43
1, 575, Note_on_c, 0, 60, 25
1, 675, Note_on_c, 0, 59, 20
1, 679, Note_off_c, 0, 57, 3
1, 684, Note_off_c, 0, 71, 1
1, 694, Note_off_c, 0, 60, 1
1, 762, Note_off_c, 0, 64, 1
1, 767, Note_off_c, 0, 59, 21
1, 768, Note_on_c, 0, 57, 45
1, 768, Note_on_c, 0, 71, 56
1, 865, Note_on_c, 0, 64, 33
1, 959, Note_on_c, 0, 60, 4
1, 960, Note_on_c, 0, 78, 121
1, 984, Note_off_c, 0, 78, 64
1, 1059, Note_on_c, 0, 59, 41
1, 1062, Note_off_c, 0, 71, 1
1, 1069, Note_off_c, 0, 60, 1
1, 1079, Note_off_c, 0, 57, 1
1, 1147, Note_off_c, 0, 64, 1
1, 1152, Note_off_c, 0, 59, 17
1, 1152, Note_on_c, 0, 71, 59
1, 1154, Note_on_c, 0, 57, 35
1, 1252, Note_on_c, 0, 64, 43
1, 1343, Note_on_c, 0, 60, 25
1, 1350, Note_on_c, 0, 72, 78
1, 1443, Note_on_c, 0, 59, 20
1, 1447, Note_off_c, 0, 57, 3
1, 1452, Note_off_c, 0, 71, 1
1, 1462, Note_off_c, 0, 60, 1
1, 1528, Note_off_c, 0, 72, 64
1, 1530, Note_off_c, 0, 64, 1
1, 1535, Note_off_c, 0, 59, 21
1, 0, Note_on_c, 0, 57, 100
1, 0, Note_on_c, 0, 69, 100
1, 96, Note_on_c, 0, 62, 100
1, 192, Note_off_c, 0, 57, 64
1, 192, Note_on_c, 0, 64, 100
1, 192, Note_off_c, 0, 69, 64
1, 288, Note_off_c, 0, 62, 64
1, 384, Note_on_c, 0, 57, 100
1, 384, Note_off_c, 0, 64, 64
1, 384, Note_on_c, 0, 65, 100
1, 480, Note_on_c, 0, 60, 100
1, 576, Note_off_c, 0, 57, 64
1, 576, Note_on_c, 0, 62, 100
1, 576, Note_off_c, 0, 65, 64
1, 671, Note_off_c, 0, 60, 64
1, 672, Note_on_c, 0, 60, 100
1, 768, Note_on_c, 0, 57, 100
1, 768, Note_off_c, 0, 60, 64
1, 768, Note_off_c, 0, 62, 64
1, 768, Note_on_c, 0, 65, 100
1, 864, Note_on_c, 0, 60, 100
1, 960, Note_off_c, 0, 57, 64
1, 960, Note_on_c, 0, 62, 100
1, 960, Note_off_c, 0, 65, 64
1, 1055, Note_off_c, 0, 60, 64
1, 1056, Note_on_c, 0, 60, 100
1, 1152, Note_on_c, 0, 59, 100
1, 1152, Note_off_c, 0, 60, 64
1, 1152, Note_off_c, 0, 62, 64
1, 1152, Note_on_c, 0, 65, 100
1, 1248, Note_on_c, 0, 62, 100
1, 1344, Note_off_c, 0, 59, 64
1, 1344, Note_on_c, 0, 60, 100
1, 1344, Note_on_c, 0, 64, 100
1, 1344, Note_off_c, 0, 65, 64
1, 1440, Note_off_c, 0, 62, 64
1, 1536, Note_on_c, 0, 57, 100
1, 1536, Note_off_c, 0, 60, 64
1, 1536, Note_off_c, 0, 64, 64
1, 1536, Note_on_c, 0, 69, 100
1, 1632, Note_on_c, 0, 62, 100
1, 1728, Note_off_c, 0, 57, 64
1, 1728, Note_on_c, 0, 64, 100
1, 1728, Note_off_c, 0, 69, 64
1, 1824, Note_off_c, 0, 62, 64
1, 1920, Note_on_c, 0, 57, 100
1, 1920, Note_off_c, 0, 64, 64
1, 1920, Note_on_c, 0, 65, 100
1, 2016, Note_on_c, 0, 60, 100
1, 2112, Note_off_c, 0, 57, 64
1, 2112, Note_on_c, 0, 62, 100
1, 2112, Note_off_c, 0, 65, 64
1, 2207, Note_off_c, 0, 60, 64
1, 2208, Note_on_c, 0, 60, 100
1, 2304, Note_on_c, 0, 57, 100
1, 2304, Note_off_c, 0, 60, 64
1, 2304, Note_off_c, 0, 62, 64
1, 2304, Note_on_c, 0, 65, 100
1, 2400, Note_on_c, 0, 60, 100
1, 2496, Note_off_c, 0, 57, 64
1, 2496, Note_on_c, 0, 62, 100
1, 2496, Note_off_c, 0, 65, 64
1, 2591, Note_off_c, 0, 60, 64
1, 2592, Note_on_c, 0, 60, 100
1, 2688, Note_on_c, 0, 59, 100
1, 2688, Note_off_c, 0, 60, 64
1, 2688, Note_off_c, 0, 62, 64
1, 2688, Note_on_c, 0, 65, 100
1, 2784, Note_on_c, 0, 62, 100
1, 2880, Note_off_c, 0, 59, 64
1, 2880, Note_on_c, 0, 60, 100
1, 2880, Note_on_c, 0, 64, 100
1, 2880, Note_off_c, 0, 65, 64
1, 2976, Note_off_c, 0, 62, 64
1, 3072, Note_off_c, 0, 60, 64
1, 3072, Note_off_c, 0, 64, 64
1, 0, Note_on_c, 0, 45, 44
1, 0, Note_on_c, 0, 76, 76
1, 5, Note_on_c, 0, 60, 55
1, 96, Note_on_c, 0, 52, 35
1, 194, Note_on_c, 0, 59, 45
1, 289, Note_on_c, 0, 55, 47
1, 404, Note_off_c, 0, 60, 1
1, 476, Note_off_c, 0, 52, 52
1, 480, Note_on_c, 0, 52, 20
1, 674, Note_off_c, 0, 45, 41
1, 763, Note_off_c, 0, 52, 52
1, 767, Note_on_c, 0, 72, 59
1, 769, Note_on_c, 0, 45, 47
1, 774, Note_off_c, 0, 59, 45
1, 775, Note_on_c, 0, 60, 58
1, 777, Note_off_c, 0, 76, 62
1, 786, Note_off_c, 0, 55, 46
1, 869, Note_on_c, 0, 52, 29
1, 954, Note_on_c, 0, 59, 48
1, 1052, Note_on_c, 0, 55, 43
1, 1140, Note_off_c, 0, 60, 80
1, 1152, Note_on_c, 0, 71, 49
1, 1166, Note_off_c, 0, 72, 40
1, 1241, Note_off_c, 0, 52, 23
1, 1248, Note_on_c, 0, 52, 27
1, 1347, Note_on_c, 0, 69, 55
1, 1356, Note_off_c, 0, 71, 1
1, 1525, Note_off_c, 0, 45, 63
1, 1530, Note_off_c, 0, 55, 2
1, 1531, Note_off_c, 0, 52, 52
1, 1536, Note_on_c, 0, 41, 44
1, 1545, Note_on_c, 0, 60, 55
1, 1546, Note_on_c, 0, 76, 64
1, 1556, Note_off_c, 0, 69, 80
1, 1566, Note_off_c, 0, 59, 12
1, 1632, Note_on_c, 0, 52, 35
1, 1730, Note_on_c, 0, 59, 45
1, 1825, Note_on_c, 0, 55, 47
1, 1944, Note_off_c, 0, 60, 1
1, 2005, Note_off_c, 0, 52, 52
1, 2016, Note_on_c, 0, 52, 30
1, 2209, Note_off_c, 0, 41, 41
1, 2304, Note_on_c, 0, 43, 44
1, 2309, Note_on_c, 0, 60, 55
1, 2310, Note_on_c, 0, 74, 59
1, 2327, Note_off_c, 0, 76, 91
1, 2346, Note_off_c, 0, 55, 46
1, 2358, Note_off_c, 0, 59, 45
1, 2360, Note_off_c, 0, 52, 64
1, 2400, Note_on_c, 0, 52, 35
1, 2498, Note_on_c, 0, 59, 45
1, 2592, Note_on_c, 0, 62, 43
1, 2686, Note_on_c, 0, 79, 62
1, 2710, Note_off_c, 0, 74, 21
1, 2757, Note_off_c, 0, 60, 1
1, 2871, Note_off_c, 0, 59, 45
1, 2880, Note_on_c, 0, 59, 48
1, 2881, Note_off_c, 0, 79, 106
1, 2882, Note_on_c, 0, 77, 67
1, 2976, Note_on_c, 0, 60, 45
1, 2977, Note_off_c, 0, 43, 41
1, 3000, Note_off_c, 0, 59, 64
1, 3072, Note_off_c, 0, 52, 52
1, 3072, Note_off_c, 0, 60, 64
1, 3072, Note_off_c, 0, 62, 46
1, 3072, Note_off_c, 0, 77, 127
1, 0, Note_on_c, 0, 33, 61
1, 0, Note_on_c, 0, 45, 60
1, 0, Note_on_c, 0, 60, 96
1, 0, Note_on_c, 0, 84, 35
1, 48, Note_on_c, 0, 21, 48
1, 48, Note_off_c, 0, 33, 64
1, 48, Note_on_c, 0, 83, 62
1, 77, Note_off_c, 0, 84, 1
1, 95, Note_on_c, 0, 59, 59
1, 95, Note_off_c, 0, 83, 46
1, 96, Note_off_c, 0, 21, 8
1, 96, Note_on_c, 0, 76, 41
1, 141, Note_on_c, 0, 57, 52
1, 153, Note_off_c, 0, 60, 18
1, 192, Note_on_c, 0, 64, 60
1, 207, Note_off_c, 0, 59, 1
1, 286, Note_on_c, 0, 50, 60
1, 289, Note_off_c, 0, 45, 1
1, 313, Note_off_c, 0, 76, 45
1, 335, Note_on_c, 0, 52, 49
1, 336, Note_on_c, 0, 24, 16
1, 336, Note_on_c, 0, 79, 55
1, 350, Note_off_c, 0, 50, 80
1, 384, Note_off_c, 0, 24, 100
1, 384, Note_on_c, 0, 26, 60
1, 384, Note_on_c, 0, 38, 63
1, 384, Note_on_c, 0, 53, 64
1, 384, Note_on_c, 0, 77, 37
1, 385, Note_off_c, 0, 79, 1
1, 398, Note_off_c, 0, 52, 87
1, 432, Note_off_c, 0, 26, 63
1, 480, Note_on_c, 0, 62, 60
1, 494, Note_off_c, 0, 64, 5
1, 501, Note_off_c, 0, 77, 14
1, 518, Note_off_c, 0, 62, 94
1, 527, Note_on_c, 0, 60, 56
1, 527, Note_on_c, 0, 76, 47
1, 528, Note_on_c, 0, 26, 58
1, 575, Note_on_c, 0, 74, 50
1, 575, Note_off_c, 0, 76, 63
1, 576, Note_off_c, 0, 26, 102
1, 576, Note_on_c, 0, 28, 50
1, 576, Note_off_c, 0, 60, 98
1, 576, Note_on_c, 0, 62, 65
1, 624, Note_off_c, 0, 28, 1
1, 624, Note_off_c, 0, 38, 64
1, 624, Note_on_c, 0, 40, 61
1, 662, Note_off_c, 0, 57, 11
1, 672, Note_on_c, 0, 57, 62
1, 703, Note_off_c, 0, 74, 5
1, 718, Note_on_c, 0, 59, 64
1, 719, Note_off_c, 0, 62, 34
1, 728, Note_off_c, 0, 57, 100
1, 755, Note_off_c, 0, 53, 127
1, 768, Note_on_c, 0, 33, 74
1, 768, Note_off_c, 0, 40, 64
1, 768, Note_on_c, 0, 45, 60
1, 768, Note_off_c, 0, 59, 127
1, 768, Note_on_c, 0, 60, 96
1, 768, Note_on_c, 0, 84, 52
1, 809, Note_off_c, 0, 84, 38
1, 815, Note_on_c, 0, 83, 50
1, 816, Note_on_c, 0, 21, 57
1, 816, Note_off_c, 0, 33, 120
1, 863, Note_on_c, 0, 59, 59
1, 864, Note_off_c, 0, 21, 105
1, 864, Note_on_c, 0, 76, 48
1, 868, Note_off_c, 0, 83, 68
1, 909, Note_on_c, 0, 57, 52
1, 921, Note_off_c, 0, 60, 18
1, 960, Note_on_c, 0, 64, 60
1, 975, Note_off_c, 0, 59, 1
1, 1054, Note_on_c, 0, 50, 60
1, 1057, Note_off_c, 0, 45, 1
1, 1060, Note_off_c, 0, 76, 50
1, 1102, Note_on_c, 0, 79, 54
1, 1103, Note_on_c, 0, 52, 49
1, 1104, Note_on_c, 0, 24, 54
1, 1118, Note_off_c, 0, 50, 80
1, 1150, Note_on_c, 0, 77, 50
1, 1152, Note_off_c, 0, 24, 121
1, 1152, Note_on_c, 0, 26, 64
1, 1152, Note_on_c, 0, 38, 63
1, 1152, Note_on_c, 0, 53, 64
1, 1159, Note_off_c, 0, 79, 41
1, 1166, Note_off_c, 0, 52, 87
1, 1200, Note_off_c, 0, 26, 109
1, 1240, Note_off_c, 0, 77, 64
1, 1248, Note_on_c, 0, 62, 60
1, 1262, Note_off_c, 0, 64, 5
1, 1286, Note_off_c, 0, 62, 94
1, 1295, Note_on_c, 0, 60, 56
1, 1296, Note_on_c, 0, 26, 58
1, 1296, Note_on_c, 0, 81, 49
1, 1343, Note_off_c, 0, 81, 94
1, 1343, Note_on_c, 0, 83, 61
1, 1344, Note_off_c, 0, 26, 106
1, 1344, Note_on_c, 0, 28, 65
1, 1344, Note_off_c, 0, 60, 98
1, 1344, Note_on_c, 0, 62, 65
1, 1392, Note_off_c, 0, 28, 101
1, 1392, Note_off_c, 0, 38, 64
1, 1392, Note_on_c, 0, 40, 61
1, 1430, Note_off_c, 0, 57, 11
1, 1440, Note_on_c, 0, 57, 62
1, 1443, Note_on_c, 0, 65, 61
1, 1462, Note_off_c, 0, 83, 95
1, 1486, Note_on_c, 0, 59, 64
1, 1487, Note_off_c, 0, 62, 34
1, 1496, Note_off_c, 0, 57, 100
1, 1523, Note_off_c, 0, 53, 127
1, 1532, Note_off_c, 0, 65, 64
1, 1536, Note_off_c, 0, 40, 64
1, 1536, Note_off_c, 0, 59, 127
1, 0, Note_on_c, 0, 57, 100
1, 0, Note_on_c, 0, 69, 100
1, 6, Note_on_c, 0, 71, 100
1, 12, Note_on_c, 0, 59, 100
1, 12, Note_on_c, 0, 72, 100
1, 18, Note_on_c, 0, 76, 100
1, 24, Note_on_c, 0, 60, 100
1, 24, Note_off_c, 0, 69, 64
1, 30, Note_off_c, 0, 71, 64
1, 36, Note_on_c, 0, 64, 100
1, 36, Note_off_c, 0, 72, 64
1, 42, Note_off_c, 0, 76, 64
1, 48, Note_off_c, 0, 57, 64
1, 60, Note_off_c, 0, 59, 64
1, 72, Note_off_c, 0, 60, 64
1, 84, Note_off_c, 0, 64, 64
1, 96, Note_on_c, 0, 57, 100
1, 120, Note_off_c, 0, 57, 64
1, 192, Note_on_c, 0, 45, 100
1, 192, Note_on_c, 0, 64, 100
1, 216, Note_off_c, 0, 64, 64
1, 240, Note_off_c, 0, 45, 64
1, 288, Note_on_c, 0, 72, 100
1, 312, Note_off_c, 0, 72, 64
1, 336, Note_on_c, 0, 71, 100
1, 360, Note_off_c, 0, 71, 64
1, 384, Note_on_c, 0, 40, 100
1, 384, Note_on_c, 0, 64, 100
1, 390, Note_on_c, 0, 68, 100
1, 396, Note_on_c, 0, 44, 100
1, 396, Note_on_c, 0, 71, 100
1, 402, Note_on_c, 0, 76, 100
1, 408, Note_on_c, 0, 47, 100
1, 408, Note_off_c, 0, 64, 64
1, 414, Note_off_c, 0, 68, 64
1, 420, Note_on_c, 0, 52, 100
1, 420, Note_off_c, 0, 71, 64
1, 426, Note_off_c, 0, 76, 64
1, 432, Note_off_c, 0, 40, 64
1, 444, Note_off_c, 0, 44, 64
1, 456, Note_off_c, 0, 47, 64
1, 468, Note_off_c, 0, 52, 64
1, 768, Note_on_c, 0, 57, 100
1, 768, Note_on_c, 0, 69, 100
1, 774, Note_on_c, 0, 71, 100
1, 780, Note_on_c, 0, 59, 100
1, 780, Note_on_c, 0, 72, 100
1, 786, Note_on_c, 0, 76, 100
1, 792, Note_on_c, 0, 60, 100
1, 792, Note_off_c, 0, 69, 64
1, 798, Note_off_c, 0, 71, 64
1, 804, Note_on_c, 0, 64, 100
1, 804, Note_off_c, 0, 72, 64
1, 810, Note_off_c, 0, 76, 64
1, 816, Note_off_c, 0, 57, 64
1, 828, Note_off_c, 0, 59, 64
1, 840, Note_off_c, 0, 60, 64
1, 852, Note_off_c, 0, 64, 64
1, 864, Note_on_c, 0, 57, 100
1, 888, Note_off_c, 0, 57, 64
1, 960, Note_on_c, 0, 45, 100
1, 960, Note_on_c, 0, 64, 100
1, 984, Note_off_c, 0, 64, 64
1, 1008, Note_off_c, 0, 45, 64
1, 1056, Note_on_c, 0, 72, 100
1, 1080, Note_off_c, 0, 72, 64
1, 1104, Note_on_c, 0, 71, 100
1, 1128, Note_off_c, 0, 71, 64
1, 1152, Note_on_c, 0, 40, 100
1, 1152, Note_on_c, 0, 64, 100
1, 1158, Note_on_c, 0, 68, 100
1, 1164, Note_on_c, 0, 44, 100
1, 1164, Note_on_c, 0, 71, 100
1, 1170, Note_on_c, 0, 76, 100
1, 1176, Note_on_c, 0, 47, 100
1, 1176, Note_off_c, 0, 64, 64
1, 1182, Note_off_c, 0, 68, 64
1, 1188, Note_on_c, 0, 52, 100
1, 1188, Note_off_c, 0, 71, 64
1, 1194, Note_off_c, 0, 76, 64
1, 1200, Note_off_c, 0, 40, 64
1, 1212, Note_off_c, 0, 44, 64
1, 1224, Note_off_c, 0, 47, 64
1, 1236, Note_off_c, 0, 52, 64
1, 1344, Note_on_c, 0, 64, 100
1, 1368, Note_off_c, 0, 64, 64
1, 1440, Note_on_c, 0, 65, 100
1, 1464, Note_off_c, 0, 65, 64
1, 0, Note_on_c, 0, 45, 100
1, 0, Note_on_c, 0, 57, 100
1, 48, Note_off_c, 0, 57, 64
1, 96, Note_off_c, 0, 45, 64
1, 96, Note_on_c, 0, 64, 100
1, 120, Note_off_c, 0, 64, 64
1, 144, Note_on_c, 0, 72, 100
1, 192, Note_on_c, 0, 52, 100
1, 192, Note_on_c, 0, 71, 100
1, 192, Note_off_c, 0, 72, 64
1, 240, Note_off_c, 0, 52, 64
1, 240, Note_on_c, 0, 64, 100
1, 240, Note_off_c, 0, 71, 64
1, 288, Note_on_c, 0, 60, 100
1, 288, Note_off_c, 0, 64, 64
1, 384, Note_off_c, 0, 60, 64
1, 480, Note_on_c, 0, 69, 100
1, 528, Note_off_c, 0, 69, 64
1, 528, Note_on_c, 0, 72, 100
1, 576, Note_on_c, 0, 71, 100
1, 576, Note_off_c, 0, 72, 64
1, 624, Note_on_c, 0, 64, 100
1, 624, Note_off_c, 0, 71, 64
1, 672, Note_off_c, 0, 64, 64
1, 768, Note_on_c, 0, 45, 100
1, 768, Note_on_c, 0, 57, 100
1, 816, Note_off_c, 0, 57, 64
1, 864, Note_off_c, 0, 45, 64
1, 864, Note_on_c, 0, 76, 100
1, 888, Note_off_c, 0, 76, 64
1, 912, Note_on_c, 0, 72, 100
1, 960, Note_on_c, 0, 64, 100
1, 960, Note_on_c, 0, 71, 100
1, 960, Note_off_c, 0, 72, 64
1, 1007, Note_off_c, 0, 64, 64
1, 1008, Note_on_c, 0, 64, 100
1, 1008, Note_off_c, 0, 71, 64
1, 1056, Note_on_c, 0, 60, 100
1, 1056, Note_off_c, 0, 64, 64
1, 1152, Note_off_c, 0, 60, 64
1, 1248, Note_on_c, 0, 69, 100
1, 1296, Note_off_c, 0, 69, 64
1, 1296, Note_on_c, 0, 72, 100
1, 1344, Note_on_c, 0, 71, 100
1, 1344, Note_off_c, 0, 72, 64
1, 1392, Note_on_c, 0, 64, 100
1, 1392, Note_off_c, 0, 71, 64
1, 1440, Note_off_c, 0, 64, 64
1, 1440, Note_on_c, 0, 68, 100
1, 1488, Note_off_c, 0, 68, 64
1, 0, Control_c, 0, 1, 70
1, 0, Note_on_c, 0, 33, 76
1, 0, Note_on_c, 0, 69, 113
1, 96, Note_off_c, 0, 69, 113
1, 96, Note_on_c, 0, 72, 102
1, 144, Note_off_c, 0, 72, 102
1, 144, Note_on_c, 0, 74, 94
1, 192, Note_off_c, 0, 74, 94
1, 192, Note_on_c, 0, 76, 103
1, 379, Note_off_c, 0, 76, 103
1, 384, Note_on_c, 0, 28, 73
1, 384, Note_off_c, 0, 33, 76
1, 384, Note_on_c, 0, 76, 107
1, 768, Note_off_c, 0, 28, 73
1, 768, Note_on_c, 0, 38, 75
1, 768, Note_off_c, 0, 76, 107
1, 768, Note_on_c, 0, 81, 110
1, 864, Note_on_c, 0, 77, 98
1, 864, Note_off_c, 0, 81, 110
1, 912, Note_off_c, 0, 77, 98
1, 912, Note_on_c, 0, 81, 94
1, 960, Note_on_c, 0, 72, 101
1, 960, Note_off_c, 0, 81, 94
1, 1152, Note_on_c, 0, 33, 76
1, 1152, Note_off_c, 0, 38, 75
1, 1152, Note_off_c, 0, 72, 101
1, 1152, Note_on_c, 0, 74, 105
1, 1344, Note_off_c, 0, 74, 105
1, 1344, Note_on_c, 0, 77, 106
1, 1531, Note_off_c, 0, 33, 76
1, 1536, Note_on_c, 0, 33, 74
1, 1536, Note_on_c, 0, 69, 111
1, 1536, Note_off_c, 0, 77, 106
1, 1632, Note_off_c, 0, 69, 111
1, 1632, Note_on_c, 0, 72, 100
1, 1680, Note_off_c, 0, 72, 100
1, 1680, Note_on_c, 0, 74, 96
1, 1728, Note_off_c, 0, 74, 96
1, 1728, Note_on_c, 0, 76, 101
1, 1915, Note_off_c, 0, 76, 101
1, 1920, Note_on_c, 0, 28, 73
1, 1920, Note_off_c, 0, 33, 74
1, 1920, Note_on_c, 0, 76, 112
1, 2304, Note_off_c, 0, 28, 73
1, 2304, Note_on_c, 0, 38, 72
1, 2304, Note_off_c, 0, 76, 112
1, 2304, Note_on_c, 0, 81, 111
1, 2400, Note_on_c, 0, 77, 104
1, 2400, Note_off_c, 0, 81, 111
1, 2448, Note_off_c, 0, 77, 104
1, 2448, Note_on_c, 0, 81, 94
1, 2496, Note_on_c, 0, 72, 100
1, 2496, Note_off_c, 0, 81, 94
1, 2688, Note_on_c, 0, 33, 76
1, 2688, Note_off_c, 0, 38, 72
1, 2688, Note_off_c, 0, 72, 100
1, 2688, Note_on_c, 0, 74, 107
1, 2880, Note_off_c, 0, 74, 107
1, 2880, Note_on_c, 0, 77, 100
1, 3067, Note_off_c, 0, 33, 76
1, 3067, Note_off_c, 0, 77, 100
1, 3072, Control_c, 0, 1, 70
1, 3072, Control_c, 0, 1, 40
1, 0, Note_on_c, 0, 33, 101
1, 0, Note_on_c, 0, 60, 101
1, 72, Note_on_c, 0, 57, 101
1, 72, Note_off_c, 0, 60, 64
1, 96, Note_on_c, 0, 48, 101
1, 144, Note_off_c, 0, 57, 64
1, 144, Note_on_c, 0, 59, 101
1, 240, Note_on_c, 0, 53, 101
1, 240, Note_off_c, 0, 59, 64
1, 288, Note_on_c, 0, 52, 101
1, 288, Note_off_c, 0, 53, 64
1, 336, Note_off_c, 0, 52, 64
1, 336, Note_on_c, 0, 57, 101
1, 384, Note_off_c, 0, 33, 64
1, 384, Note_on_c, 0, 45, 101
1, 384, Note_off_c, 0, 48, 64
1, 384, Note_off_c, 0, 57, 64
1, 384, Note_on_c, 0, 60, 101
1, 456, Note_on_c, 0, 57, 101
1, 456, Note_off_c, 0, 60, 64
1, 480, Note_on_c, 0, 48, 101
1, 528, Note_off_c, 0, 57, 64
1, 528, Note_on_c, 0, 59, 101
1, 624, Note_on_c, 0, 53, 101
1, 624, Note_off_c, 0, 59, 64
1, 672, Note_on_c, 0, 52, 101
1, 672, Note_off_c, 0, 53, 64
1, 768, Note_on_c, 0, 33, 101
1, 768, Note_off_c, 0, 45, 64
1, 768, Note_off_c, 0, 48, 64
1, 768, Note_off_c, 0, 52, 64
1, 768, Note_on_c, 0, 60, 101
1, 840, Note_on_c, 0, 57, 101
1, 840, Note_off_c, 0, 60, 64
1, 864, Note_on_c, 0, 48, 101
1, 912, Note_off_c, 0, 57, 64
1, 912, Note_on_c, 0, 59, 101
1, 1008, Note_on_c, 0, 53, 101
1, 1008, Note_off_c, 0, 59, 64
1, 1056, Note_on_c, 0, 52, 101
1, 1056, Note_off_c, 0, 53, 64
1, 1104, Note_off_c, 0, 52, 64
1, 1104, Note_on_c, 0, 57, 101
1, 1152, Note_off_c, 0, 33, 64
1, 1152, Note_on_c, 0, 45, 101
1, 1152, Note_off_c, 0, 48, 64
1, 1152, Note_off_c, 0, 57, 64
1, 1152, Note_on_c, 0, 60, 101
1, 1224, Note_on_c, 0, 57, 101
1, 1224, Note_off_c, 0, 60, 64
1, 1248, Note_on_c, 0, 48, 101
1, 1296, Note_off_c, 0, 57, 64
1, 1296, Note_on_c, 0, 59, 101
1, 1392, Note_on_c, 0, 53, 101
1, 1392, Note_off_c, 0, 59, 64
1, 1440, Note_on_c, 0, 52, 101
1, 1440, Note_off_c, 0, 53, 64
1, 1536, Note_off_c, 0, 45, 64
1, 1536, Note_off_c, 0, 48, 64
1, 1536, Note_off_c, 0, 52, 64
1, 1, Note_on_c, 0, 57, 95
1, 12, Note_on_c, 0, 64, 127
1, 25, Note_off_c, 0, 57, 64
1, 36, Note_off_c, 0, 64, 64
1, 96, Note_on_c, 0, 60, 97
1, 120, Note_off_c, 0, 60, 64
1, 192, Note_on_c, 0, 64, 97
1, 195, Note_on_c, 0, 67, 97
1, 216, Note_off_c, 0, 64, 64
1, 219, Note_off_c, 0, 67, 64
1, 288, Note_on_c, 0, 57, 97
1, 291, Note_on_c, 0, 69, 97
1, 312, Note_off_c, 0, 57, 64
1, 315, Note_off_c, 0, 69, 64
1, 384, Note_on_c, 0, 53, 97
1, 388, Note_on_c, 0, 60, 127
1, 408, Note_off_c, 0, 53, 64
1, 412, Note_off_c, 0, 60, 64
1, 480, Note_on_c, 0, 57, 97
1, 504, Note_off_c, 0, 57, 64
1, 528, Note_on_c, 0, 65, 97
1, 552, Note_off_c, 0, 65, 64
1, 576, Note_on_c, 0, 62, 97
1, 582, Note_on_c, 0, 64, 97
1, 600, Note_off_c, 0, 62, 64
1, 606, Note_off_c, 0, 64, 64
1, 672, Note_on_c, 0, 59, 97
1, 675, Note_on_c, 0, 56, 45
1, 693, Note_off_c, 0, 56, 64
1, 696, Note_off_c, 0, 59, 64
1, 769, Note_on_c, 0, 57, 95
1, 780, Note_on_c, 0, 64, 127
1, 793, Note_off_c, 0, 57, 64
1, 804, Note_off_c, 0, 64, 64
1, 864, Note_on_c, 0, 60, 97
1, 888, Note_off_c, 0, 60, 64
1, 960, Note_on_c, 0, 64, 97
1, 963, Note_on_c, 0, 67, 97
1, 984, Note_off_c, 0, 64, 64
1, 987, Note_off_c, 0, 67, 64
1, 1056, Note_on_c, 0, 57, 97
1, 1059, Note_on_c, 0, 69, 97
1, 1080, Note_off_c, 0, 57, 64
1, 1083, Note_off_c, 0, 69, 64
1, 1152, Note_on_c, 0, 53, 97
1, 1156, Note_on_c, 0, 60, 127
1, 1176, Note_off_c, 0, 53, 64
1, 1180, Note_off_c, 0, 60, 64
1, 1248, Note_on_c, 0, 57, 97
1, 1272, Note_off_c, 0, 57, 64
1, 1296, Note_on_c, 0, 65, 97
1, 1320, Note_off_c, 0, 65, 64
1, 1344, Note_on_c, 0, 62, 97
1, 1347, Note_on_c, 0, 67, 97
1, 1368, Note_off_c, 0, 62, 64
1, 1371, Note_off_c, 0, 67, 64
1, 1440, Note_on_c, 0, 59, 97
1, 1443, Note_on_c, 0, 56, 45
1, 1461, Note_off_c, 0, 56, 64
1, 1464, Note_off_c, 0, 59, 64
1, 1488, Note_on_c, 0, 62, 107
1, 1512, Note_off_c, 0, 62, 64
1, 0, Note_on_c, 0, 57, 100
1, 0, Note_on_c, 0, 60, 100
1, 0, Note_on_c, 0, 64, 100
1, 24, Note_off_c, 0, 57, 64
1, 24, Note_off_c, 0, 60, 64
1, 24, Note_off_c, 0, 64, 64
1, 96, Note_on_c, 0, 69, 100
1, 192, Note_off_c, 0, 69, 64
1, 192, Note_on_c, 0, 76, 100
1, 288, Note_on_c, 0, 74, 100
1, 288, Note_off_c, 0, 76, 64
1, 384, Note_on_c, 0, 58, 100
1, 384, Note_on_c, 0, 62, 100
1, 384, Note_on_c, 0, 65, 100
1, 384, Note_off_c, 0, 74, 64
1, 408, Note_off_c, 0, 58, 64
1, 408, Note_off_c, 0, 62, 64
1, 408, Note_off_c, 0, 65, 64
1, 576, Note_on_c, 0, 72, 100
1, 672, Note_off_c, 0, 72, 64
1, 672, Note_on_c, 0, 74, 100
1, 768, Note_on_c, 0, 57, 100
1, 768, Note_on_c, 0, 60, 100
1, 768, Note_on_c, 0, 64, 100
1, 768, Note_off_c, 0, 74, 64
1, 792, Note_off_c, 0, 57, 64
1, 792, Note_off_c, 0, 60, 64
1, 792, Note_off_c, 0, 64, 64
1, 864, Note_on_c, 0, 69, 100
1, 960, Note_off_c, 0, 69, 64
1, 960, Note_on_c, 0, 76, 100
1, 1056, Note_on_c, 0, 74, 100
1, 1056, Note_off_c, 0, 76, 64
1, 1152, Note_on_c, 0, 58, 100
1, 1152, Note_on_c, 0, 62, 100
1, 1152, Note_on_c, 0, 65, 100
1, 1152, Note_off_c, 0, 74, 64
1, 1176, Note_off_c, 0, 58, 64
1, 1176, Note_off_c, 0, 62, 64
1, 1176, Note_off_c, 0, 65, 64
1, 1344, Note_on_c, 0, 58, 100
1, 1344, Note_on_c, 0, 62, 100
1, 1344, Note_on_c, 0, 67, 100
1, 1344, Note_on_c, 0, 70, 100
1, 1368, Note_off_c, 0, 58, 64
1, 1368, Note_off_c, 0, 62, 64
1, 1368, Note_off_c, 0, 67, 64
1, 1440, Note_on_c, 0, 67, 100
1, 1440, Note_off_c, 0, 70, 64
1, 1536, Note_off_c, 0, 67, 64
1, 0, Note_on_c, 0, 33, 76
1, 0, Note_on_c, 0, 52, 43
1, 0, Note_on_c, 0, 57, 78
1, 0, Note_on_c, 0, 64, 39
1, 0, Note_on_c, 0, 76, 80
1, 45, Note_off_c, 0, 57, 47
1, 80, Note_off_c, 0, 76, 47
1, 95, Note_on_c, 0, 77, 80
1, 191, Note_off_c, 0, 52, 46
1, 191, Note_off_c, 0, 64, 17
1, 192, Note_on_c, 0, 53, 27
1, 192, Note_on_c, 0, 64, 85
1, 192, Note_on_c, 0, 69, 28
1, 193, Note_on_c, 0, 81, 80
1, 206, Note_off_c, 0, 77, 34
1, 233, Note_off_c, 0, 64, 57
1, 283, Note_off_c, 0, 81, 53
1, 288, Note_on_c, 0, 83, 80
1, 383, Note_off_c, 0, 33, 70
1, 383, Note_off_c, 0, 53, 24
1, 383, Note_off_c, 0, 69, 51
1, 384, Note_on_c, 0, 40, 80
1, 384, Note_on_c, 0, 57, 38
1, 384, Note_on_c, 0, 60, 83
1, 384, Note_on_c, 0, 72, 19
1, 384, Note_on_c, 0, 84, 80
1, 387, Note_off_c, 0, 83, 47
1, 433, Note_off_c, 0, 60, 21
1, 575, Note_off_c, 0, 57, 40
1, 575, Note_off_c, 0, 72, 47
1, 576, Note_on_c, 0, 59, 77
1, 576, Note_on_c, 0, 71, 46
1, 640, Note_off_c, 0, 59, 44
1, 671, Note_off_c, 0, 40, 72
1, 671, Note_off_c, 0, 71, 52
1, 672, Note_on_c, 0, 52, 80
1, 672, Note_on_c, 0, 65, 52
1, 724, Note_off_c, 0, 65, 53
1, 753, Note_off_c, 0, 84, 45
1, 767, Note_off_c, 0, 52, 72
1, 767, Note_on_c, 0, 76, 80
1, 768, Note_on_c, 0, 35, 80
1, 768, Note_on_c, 0, 52, 43
1, 768, Note_on_c, 0, 57, 78
1, 768, Note_on_c, 0, 64, 39
1, 813, Note_off_c, 0, 57, 47
1, 863, Note_on_c, 0, 77, 80
1, 867, Note_off_c, 0, 76, 47
1, 958, Note_off_c, 0, 77, 24
1, 959, Note_off_c, 0, 52, 46
1, 959, Note_off_c, 0, 64, 17
1, 960, Note_on_c, 0, 53, 27
1, 960, Note_on_c, 0, 64, 85
1, 960, Note_on_c, 0, 69, 28
1, 960, Note_on_c, 0, 81, 80
1, 1001, Note_off_c, 0, 64, 57
1, 1056, Note_on_c, 0, 83, 80
1, 1060, Note_off_c, 0, 81, 45
1, 1151, Note_off_c, 0, 35, 57
1, 1151, Note_off_c, 0, 53, 24
1, 1151, Note_off_c, 0, 69, 51
1, 1152, Note_on_c, 0, 41, 70
1, 1152, Note_on_c, 0, 57, 38
1, 1152, Note_on_c, 0, 60, 83
1, 1152, Note_on_c, 0, 72, 19
1, 1152, Note_on_c, 0, 84, 80
1, 1157, Note_off_c, 0, 83, 50
1, 1201, Note_off_c, 0, 60, 21
1, 1248, Note_off_c, 0, 84, 32
1, 1248, Note_on_c, 0, 88, 80
1, 1343, Note_off_c, 0, 57, 40
1, 1343, Note_off_c, 0, 72, 47
1, 1344, Note_on_c, 0, 59, 77
1, 1344, Note_on_c, 0, 71, 46
1, 1408, Note_off_c, 0, 59, 44
1, 1439, Note_off_c, 0, 71, 52
1, 1440, Note_on_c, 0, 34, 70
1, 1440, Note_off_c, 0, 41, 67
1, 1440, Note_on_c, 0, 65, 52
1, 1440, Note_on_c, 0, 77, 80
1, 1440, Note_off_c, 0, 88, 87
1, 1492, Note_off_c, 0, 65, 53
1, 1535, Note_off_c, 0, 34, 67
1, 1535, Note_off_c, 0, 77, 87
1, 0, Note_on_c, 0, 53, 84
1, 0, Note_on_c, 0, 62, 84
1, 96, Note_on_c, 0, 65, 84
1, 106, Note_off_c, 0, 62, 64
1, 192, Note_off_c, 0, 53, 64
1, 192, Note_on_c, 0, 60, 84
1, 192, Note_on_c, 0, 69, 84
1, 202, Note_off_c, 0, 65, 64
1, 288, Note_on_c, 0, 65, 84
1, 288, Note_on_c, 0, 91, 88
1, 298, Note_off_c, 0, 69, 64
1, 338, Note_on_c, 0, 89, 60
1, 349, Note_off_c, 0, 91, 53
1, 384, Note_on_c, 0, 52, 58
1, 384, Note_off_c, 0, 60, 64
1, 384, Note_on_c, 0, 64, 84
1, 387, Note_off_c, 0, 89, 117
1, 393, Note_on_c, 0, 88, 66
1, 394, Note_off_c, 0, 65, 64
1, 480, Note_on_c, 0, 68, 84
1, 490, Note_off_c, 0, 64, 64
1, 528, Note_on_c, 0, 60, 84
1, 576, Note_off_c, 0, 52, 64
1, 576, Note_on_c, 0, 59, 84
1, 576, Note_off_c, 0, 60, 64
1, 576, Note_on_c, 0, 71, 84
1, 586, Note_off_c, 0, 68, 64
1, 593, Note_on_c, 0, 86, 81
1, 598, Note_off_c, 0, 88, 101
1, 672, Note_on_c, 0, 68, 84
1, 682, Note_off_c, 0, 71, 64
1, 768, Note_on_c, 0, 45, 84
1, 768, Note_off_c, 0, 59, 64
1, 768, Note_on_c, 0, 69, 84
1, 775, Note_off_c, 0, 86, 98
1, 778, Note_off_c, 0, 68, 64
1, 864, Note_on_c, 0, 72, 84
1, 874, Note_off_c, 0, 69, 64
1, 960, Note_off_c, 0, 45, 64
1, 960, Note_on_c, 0, 52, 84
1, 960, Note_on_c, 0, 76, 84
1, 970, Note_off_c, 0, 72, 64
1, 1056, Note_on_c, 0, 72, 84
1, 1060, Note_on_c, 0, 81, 68
1, 1066, Note_off_c, 0, 76, 64
1, 1103, Note_off_c, 0, 81, 84
1, 1105, Note_on_c, 0, 83, 83
1, 1152, Note_on_c, 0, 45, 84
1, 1152, Note_off_c, 0, 52, 64
1, 1152, Note_on_c, 0, 57, 84
1, 1152, Note_on_c, 0, 69, 84
1, 1156, Note_on_c, 0, 84, 69
1, 1161, Note_off_c, 0, 83, 81
1, 1162, Note_off_c, 0, 72, 64
1, 1248, Note_off_c, 0, 45, 64
1, 1248, Note_on_c, 0, 48, 84
1, 1248, Note_on_c, 0, 72, 84
1, 1258, Note_off_c, 0, 69, 64
1, 1344, Note_off_c, 0, 48, 64
1, 1344, Note_on_c, 0, 50, 84
1, 1344, Note_off_c, 0, 57, 64
1, 1344, Note_on_c, 0, 71, 84
1, 1353, Note_on_c, 0, 86, 81
1, 1354, Note_on_c, 0, 59, 84
1, 1354, Note_off_c, 0, 72, 64
1, 1356, Note_off_c, 0, 84, 57
1, 1440, Note_off_c, 0, 50, 64
1, 1440, Note_on_c, 0, 52, 84
1, 1440, Note_on_c, 0, 64, 84
1, 1443, Note_on_c, 0, 84, 70
1, 1450, Note_off_c, 0, 71, 64
1, 1454, Note_off_c, 0, 86, 101
1, 1512, Note_off_c, 0, 59, 64
1, 1536, Note_off_c, 0, 52, 64
1, 1536, Note_off_c, 0, 64, 64
1, 1537, Note_off_c, 0, 84, 119
1, 0, Note_on_c, 0, 45, 75
1, 0, Note_on_c, 0, 60, 75
1, 0, Note_on_c, 0, 64, 75
1, 96, Note_on_c, 0, 52, 75
1, 191, Note_off_c, 0, 60, 36
1, 192, Note_on_c, 0, 59, 75
1, 192, Note_on_c, 0, 60, 75
1, 192, Note_on_c, 0, 67, 75
1, 193, Note_on_c, 0, 69, 23
1, 239, Note_on_c, 0, 71, 57
1, 287, Note_off_c, 0, 52, 55
1, 288, Note_on_c, 0, 52, 75
1, 288, Note_on_c, 0, 72, 56
1, 337, Note_on_c, 0, 76, 25
1, 383, Note_off_c, 0, 60, 35
1, 384, Note_on_c, 0, 57, 75
1, 384, Note_on_c, 0, 60, 75
1, 384, Note_on_c, 0, 79, 67
1, 479, Note_off_c, 0, 52, 34
1, 480, Note_on_c, 0, 52, 75
1, 574, Note_off_c, 0, 76, 28
1, 574, Note_on_c, 0, 76, 31
1, 575, Note_off_c, 0, 59, 17
1, 575, Note_off_c, 0, 60, 39
1, 575, Note_off_c, 0, 64, 33
1, 576, Note_on_c, 0, 59, 75
1, 576, Note_on_c, 0, 60, 75
1, 576, Note_on_c, 0, 64, 75
1, 671, Note_off_c, 0, 52, 28
1, 672, Note_on_c, 0, 52, 75
1, 767, Note_off_c, 0, 45, 34
1, 767, Note_off_c, 0, 60, 32
1, 767, Note_off_c, 0, 64, 25
1, 768, Note_on_c, 0, 45, 75
1, 768, Note_on_c, 0, 60, 75
1, 768, Note_on_c, 0, 64, 75
1, 787, Note_off_c, 0, 52, 25
1, 787, Note_off_c, 0, 57, 30
1, 787, Note_off_c, 0, 59, 10
1, 787, Note_off_c, 0, 67, 38
1, 787, Note_off_c, 0, 69, 27
1, 787, Note_off_c, 0, 71, 33
1, 787, Note_off_c, 0, 72, 45
1, 787, Note_off_c, 0, 76, 50
1, 787, Note_off_c, 0, 79, 52
1, 864, Note_on_c, 0, 52, 75
1, 959, Note_off_c, 0, 60, 56
1, 959, Note_on_c, 0, 69, 31
1, 960, Note_on_c, 0, 59, 75
1, 960, Note_on_c, 0, 60, 75
1, 960, Note_on_c, 0, 67, 75
1, 1007, Note_on_c, 0, 71, 26
1, 1055, Note_off_c, 0, 52, 23
1, 1056, Note_on_c, 0, 52, 75
1, 1057, Note_on_c, 0, 72, 42
1, 1104, Note_on_c, 0, 76, 22
1, 1151, Note_off_c, 0, 60, 36
1, 1152, Note_on_c, 0, 57, 75
1, 1152, Note_on_c, 0, 60, 75
1, 1152, Note_on_c, 0, 79, 60
1, 1247, Note_off_c, 0, 52, 36
1, 1248, Note_on_c, 0, 52, 75
1, 1341, Note_off_c, 0, 76, 24
1, 1342, Note_on_c, 0, 76, 47
1, 1343, Note_off_c, 0, 57, 12
1, 1343, Note_off_c, 0, 60, 48
1, 1343, Note_off_c, 0, 64, 49
1, 1344, Note_on_c, 0, 57, 75
1, 1344, Note_on_c, 0, 60, 76
1, 1344, Note_on_c, 0, 64, 75
1, 1433, Note_on_c, 0, 81, 34
1, 1439, Note_off_c, 0, 52, 39
1, 1440, Note_on_c, 0, 52, 75
1, 1533, Note_off_c, 0, 72, 43
1, 1535, Note_off_c, 0, 57, 15
1, 1535, Note_off_c, 0, 60, 47
1, 1535, Note_off_c, 0, 64, 39
1, 1553, Note_off_c, 0, 45, 2
1, 1553, Note_off_c, 0, 52, 41
1, 1553, Note_off_c, 0, 59, 15
1, 1553, Note_off_c, 0, 67, 55
1, 1553, Note_off_c, 0, 69, 34
1, 1553, Note_off_c, 0, 71, 25
1, 1553, Note_off_c, 0, 76, 46
1, 1553, Note_off_c, 0, 79, 60
1, 1553, Note_off_c, 0, 81, 40
1, 0, Note_on_c, 0, 45, 127
1, 0, Note_on_c, 0, 57, 42
1, 0, Note_on_c, 0, 64, 54
1, 2, Note_on_c, 0, 69, 60
1, 10, Note_on_c, 0, 74, 63
1, 24, Note_off_c, 0, 45, 64
1, 145, Note_on_c, 0, 72, 50
1, 163, Note_off_c, 0, 72, 34
1, 194, Note_on_c, 0, 72, 62
1, 238, Note_on_c, 0, 71, 49
1, 240, Note_off_c, 0, 72, 2
1, 288, Note_on_c, 0, 72, 59
1, 289, Note_off_c, 0, 71, 18
1, 316, Note_off_c, 0, 57, 27
1, 384, Note_on_c, 0, 57, 47
1, 473, Note_off_c, 0, 69, 5
1, 474, Note_off_c, 0, 72, 1
1, 480, Note_on_c, 0, 45, 127
1, 480, Note_off_c, 0, 64, 30
1, 504, Note_off_c, 0, 45, 64
1, 528, Note_on_c, 0, 45, 127
1, 528, Note_on_c, 0, 64, 30
1, 529, Note_on_c, 0, 69, 23
1, 552, Note_off_c, 0, 45, 64
1, 576, Note_on_c, 0, 47, 127
1, 579, Note_on_c, 0, 72, 57
1, 600, Note_off_c, 0, 47, 64
1, 621, Note_off_c, 0, 69, 1
1, 625, Note_on_c, 0, 71, 60
1, 654, Note_off_c, 0, 71, 88
1, 672, Note_on_c, 0, 48, 127
1, 672, Note_on_c, 0, 71, 54
1, 674, Note_off_c, 0, 74, 5
1, 696, Note_off_c, 0, 48, 64
1, 710, Note_off_c, 0, 72, 1
1, 719, Note_off_c, 0, 71, 123
1, 720, Note_on_c, 0, 69, 57
1, 733, Note_off_c, 0, 64, 42
1, 760, Note_off_c, 0, 57, 1
1, 764, Note_on_c, 0, 68, 59
1, 768, Note_on_c, 0, 52, 127
1, 768, Note_on_c, 0, 64, 53
1, 768, Note_off_c, 0, 69, 64
1, 771, Note_on_c, 0, 72, 57
1, 864, Note_on_c, 0, 40, 126
1, 864, Note_off_c, 0, 52, 64
1, 888, Note_off_c, 0, 40, 64
1, 912, Note_on_c, 0, 71, 64
1, 938, Note_off_c, 0, 71, 116
1, 960, Note_on_c, 0, 71, 58
1, 1008, Note_on_c, 0, 69, 62
1, 1013, Note_off_c, 0, 71, 89
1, 1056, Note_on_c, 0, 71, 64
1, 1068, Note_off_c, 0, 69, 55
1, 1136, Note_off_c, 0, 68, 1
1, 1152, Note_on_c, 0, 52, 47
1, 1230, Note_off_c, 0, 72, 1
1, 1248, Note_on_c, 0, 40, 126
1, 1248, Note_on_c, 0, 62, 9
1, 1248, Note_off_c, 0, 64, 47
1, 1252, Note_on_c, 0, 64, 35
1, 1255, Note_on_c, 0, 68, 35
1, 1272, Note_off_c, 0, 40, 64
1, 1298, Note_off_c, 0, 71, 48
1, 1343, Note_on_c, 0, 71, 65
1, 1344, Note_on_c, 0, 47, 127
1, 1368, Note_off_c, 0, 47, 64
1, 1386, Note_off_c, 0, 62, 64
1, 1386, Note_off_c, 0, 64, 64
1, 1386, Note_off_c, 0, 68, 64
1, 1392, Note_on_c, 0, 47, 127
1, 1392, Note_on_c, 0, 68, 48
1, 1416, Note_off_c, 0, 47, 64
1, 1440, Note_on_c, 0, 40, 127
1, 1440, Note_on_c, 0, 64, 44
1, 1440, Note_off_c, 0, 68, 53
1, 1464, Note_off_c, 0, 40, 64
1, 1474, Note_off_c, 0, 71, 1
1, 1488, Note_on_c, 0, 62, 64
1, 1488, Note_off_c, 0, 64, 53
1, 1493, Note_off_c, 0, 52, 13
1, 1513, Note_off_c, 0, 62, 121
1, 0, Note_on_c, 0, 45, 102
1, 48, Note_on_c, 0, 60, 95
1, 96, Note_on_c, 0, 64, 99
1, 143, Note_off_c, 0, 60, 64
1, 144, Note_on_c, 0, 60, 94
1, 191, Note_off_c, 0, 64, 64
1, 192, Note_on_c, 0, 64, 99
1, 252, Note_on_c, 0, 72, 97
1, 330, Note_on_c, 0, 71, 105
1, 384, Note_off_c, 0, 45, 64
1, 384, Note_on_c, 0, 53, 103
1, 384, Note_off_c, 0, 71, 64
1, 438, Note_off_c, 0, 60, 64
1, 438, Note_off_c, 0, 64, 64
1, 438, Note_on_c, 0, 69, 97
1, 438, Note_off_c, 0, 72, 64
1, 444, Note_on_c, 0, 60, 107
1, 528, Note_off_c, 0, 69, 64
1, 528, Note_on_c, 0, 71, 97
1, 575, Note_off_c, 0, 53, 64
1, 576, Note_on_c, 0, 53, 97
1, 624, Note_off_c, 0, 60, 64
1, 624, Note_on_c, 0, 65, 106
1, 664, Note_on_c, 0, 89, 78
1, 672, Note_on_c, 0, 64, 100
1, 676, Note_off_c, 0, 89, 64
1, 676, Note_on_c, 0, 92, 91
1, 688, Note_off_c, 0, 92, 64
1, 688, Note_on_c, 0, 93, 92
1, 700, Note_off_c, 0, 93, 64
1, 714, Note_off_c, 0, 65, 64
1, 760, Note_on_c, 0, 88, 92
1, 768, Note_on_c, 0, 45, 99
1, 768, Note_off_c, 0, 53, 64
1, 768, Note_off_c, 0, 64, 64
1, 768, Note_off_c, 0, 71, 64
1, 816, Note_on_c, 0, 60, 94
1, 850, Note_off_c, 0, 88, 64
1, 864, Note_on_c, 0, 64, 96
1, 911, Note_off_c, 0, 60, 64
1, 912, Note_on_c, 0, 60, 107
1, 959, Note_off_c, 0, 64, 64
1, 960, Note_on_c, 0, 64, 97
1, 1020, Note_on_c, 0, 72, 101
1, 1098, Note_on_c, 0, 71, 100
1, 1152, Note_off_c, 0, 45, 64
1, 1152, Note_on_c, 0, 53, 102
1, 1152, Note_off_c, 0, 71, 64
1, 1206, Note_off_c, 0, 60, 64
1, 1206, Note_off_c, 0, 64, 64
1, 1206, Note_on_c, 0, 69, 102
1, 1206, Note_off_c, 0, 72, 64
1, 1212, Note_on_c, 0, 60, 102
1, 1296, Note_off_c, 0, 69, 64
1, 1296, Note_on_c, 0, 71, 106
1, 1343, Note_off_c, 0, 53, 64
1, 1344, Note_on_c, 0, 53, 105
1, 1391, Note_off_c, 0, 60, 64
1, 1392, Note_on_c, 0, 60, 89
1, 1392, Note_on_c, 0, 65, 100
1, 1432, Note_on_c, 0, 86, 82
1, 1440, Note_on_c, 0, 64, 95
1, 1444, Note_off_c, 0, 86, 64
1, 1444, Note_on_c, 0, 88, 86
1, 1456, Note_off_c, 0, 88, 64
1, 1456, Note_on_c, 0, 89, 90
1, 1482, Note_off_c, 0, 65, 64
1, 1498, Note_off_c, 0, 89, 64
1, 1536, Note_off_c, 0, 53, 64
1, 1536, Note_off_c, 0, 60, 64
1, 1536, Note_off_c, 0, 64, 64
1, 1536, Note_off_c, 0, 71, 64
1, 0, Note_on_c, 0, 45, 50
1, 0, Note_on_c, 0, 60, 74
1, 0, Note_on_c, 0, 64, 61
1, 96, Note_on_c, 0, 52, 65
1, 191, Note_off_c, 0, 64, 36
1, 192, Note_on_c, 0, 57, 49
1, 192, Note_on_c, 0, 64, 84
1, 192, Note_on_c, 0, 67, 55
1, 383, Note_off_c, 0, 45, 27
1, 383, Note_off_c, 0, 64, 50
1, 383, Note_off_c, 0, 67, 53
1, 384, Note_on_c, 0, 45, 76
1, 384, Note_on_c, 0, 64, 87
1, 384, Note_on_c, 0, 67, 73
1, 389, Note_off_c, 0, 52, 6
1, 389, Note_off_c, 0, 57, 24
1, 389, Note_off_c, 0, 60, 37
1, 431, Note_off_c, 0, 67, 56
1, 432, Note_on_c, 0, 69, 73
1, 479, Note_off_c, 0, 69, 42
1, 480, Note_on_c, 0, 52, 60
1, 480, Note_on_c, 0, 60, 87
1, 480, Note_on_c, 0, 71, 76
1, 506, Note_off_c, 0, 45, 1
1, 506, Note_off_c, 0, 64, 17
1, 512, Note_off_c, 0, 60, 38
1, 575, Note_off_c, 0, 71, 60
1, 576, Note_on_c, 0, 45, 68
1, 576, Note_on_c, 0, 59, 81
1, 576, Note_on_c, 0, 67, 72
1, 595, Note_off_c, 0, 52, 26
1, 672, Note_on_c, 0, 52, 56
1, 767, Note_off_c, 0, 45, 9
1, 767, Note_off_c, 0, 67, 66
1, 768, Note_on_c, 0, 45, 55
1, 768, Note_on_c, 0, 60, 78
1, 768, Note_on_c, 0, 64, 64
1, 773, Note_off_c, 0, 52, 26
1, 773, Note_off_c, 0, 59, 13
1, 864, Note_on_c, 0, 52, 62
1, 887, Note_off_c, 0, 45, 33
1, 903, Note_off_c, 0, 52, 19
1, 959, Note_off_c, 0, 64, 52
1, 960, Note_on_c, 0, 45, 73
1, 960, Note_on_c, 0, 64, 91
1, 960, Note_on_c, 0, 67, 64
1, 973, Note_off_c, 0, 60, 46
1, 1055, Note_off_c, 0, 45, 30
1, 1056, Note_on_c, 0, 45, 73
1, 1080, Note_off_c, 0, 64, 15
1, 1151, Note_off_c, 0, 67, 53
1, 1152, Note_on_c, 0, 52, 75
1, 1152, Note_on_c, 0, 64, 91
1, 1152, Note_on_c, 0, 67, 64
1, 1179, Note_off_c, 0, 45, 29
1, 1199, Note_off_c, 0, 67, 58
1, 1200, Note_on_c, 0, 69, 60
1, 1247, Note_off_c, 0, 69, 40
1, 1248, Note_on_c, 0, 57, 74
1, 1248, Note_on_c, 0, 71, 72
1, 1286, Note_off_c, 0, 52, 1
1, 1286, Note_off_c, 0, 64, 9
1, 1343, Note_off_c, 0, 71, 48
1, 1344, Note_on_c, 0, 45, 60
1, 1344, Note_on_c, 0, 59, 82
1, 1344, Note_on_c, 0, 67, 70
1, 1357, Note_off_c, 0, 57, 28
1, 1439, Note_off_c, 0, 67, 57
1, 1440, Note_on_c, 0, 52, 36
1, 1440, Note_on_c, 0, 64, 46
1, 1526, Note_off_c, 0, 45, 25
1, 1526, Note_off_c, 0, 52, 32
1, 1526, Note_off_c, 0, 59, 10
1, 1535, Note_off_c, 0, 64, 69
1, 1536, Note_on_c, 0, 45, 70
1, 1536, Note_on_c, 0, 60, 73
1, 1536, Note_on_c, 0, 64, 61
1, 1632, Note_on_c, 0, 52, 62
1, 1648, Note_off_c, 0, 45, 1
1, 1727, Note_off_c, 0, 64, 36
1, 1728, Note_on_c, 0, 57, 62
1, 1728, Note_on_c, 0, 64, 89
1, 1728, Note_on_c, 0, 67, 55
1, 1823, Note_off_c, 0, 52, 26
1, 1824, Note_on_c, 0, 52, 74
1, 1845, Note_off_c, 0, 57, 19
1, 1845, Note_off_c, 0, 60, 44
1, 1919, Note_off_c, 0, 64, 28
1, 1919, Note_off_c, 0, 67, 53
1, 1920, Note_on_c, 0, 45, 63
1, 1920, Note_on_c, 0, 64, 63
1, 1920, Note_on_c, 0, 67, 73
1, 1937, Note_off_c, 0, 52, 4
1, 1967, Note_off_c, 0, 67, 56
1, 1968, Note_on_c, 0, 69, 73
1, 2015, Note_off_c, 0, 69, 42
1, 2016, Note_on_c, 0, 52, 54
1, 2016, Note_on_c, 0, 71, 76
1, 2026, Note_off_c, 0, 45, 26
1, 2111, Note_off_c, 0, 71, 60
1, 2112, Note_on_c, 0, 57, 63
1, 2112, Note_on_c, 0, 59, 71
1, 2112, Note_on_c, 0, 67, 72
1, 2116, Note_off_c, 0, 52, 33
1, 2116, Note_off_c, 0, 64, 27
1, 2208, Note_on_c, 0, 52, 68
1, 2303, Note_off_c, 0, 67, 66
1, 2304, Note_on_c, 0, 45, 66
1, 2304, Note_on_c, 0, 60, 79
1, 2304, Note_on_c, 0, 64, 64
1, 2306, Note_off_c, 0, 52, 27
1, 2306, Note_off_c, 0, 57, 24
1, 2306, Note_off_c, 0, 59, 43
1, 2400, Note_on_c, 0, 52, 71
1, 2413, Note_off_c, 0, 45, 27
1, 2495, Note_off_c, 0, 64, 52
1, 2496, Note_on_c, 0, 57, 68
1, 2496, Note_on_c, 0, 64, 86
1, 2496, Note_on_c, 0, 67, 64
1, 2512, Note_off_c, 0, 52, 18
1, 2512, Note_off_c, 0, 60, 57
1, 2592, Note_on_c, 0, 52, 78
1, 2607, Note_off_c, 0, 57, 14
1, 2687, Note_off_c, 0, 64, 19
1, 2687, Note_off_c, 0, 67, 53
1, 2688, Note_on_c, 0, 45, 70
1, 2688, Note_on_c, 0, 64, 94
1, 2688, Note_on_c, 0, 67, 64
1, 2693, Note_off_c, 0, 52, 12
1, 2735, Note_off_c, 0, 67, 58
1, 2736, Note_on_c, 0, 69, 60
1, 2783, Note_off_c, 0, 69, 40
1, 2784, Note_on_c, 0, 52, 62
1, 2784, Note_on_c, 0, 71, 72
1, 2791, Note_off_c, 0, 45, 21
1, 2879, Note_off_c, 0, 71, 48
1, 2880, Note_on_c, 0, 45, 62
1, 2880, Note_on_c, 0, 59, 64
1, 2880, Note_on_c, 0, 67, 70
1, 2883, Note_off_c, 0, 52, 21
1, 2883, Note_off_c, 0, 64, 1
1, 2975, Note_off_c, 0, 67, 57
1, 2976, Note_on_c, 0, 52, 58
1, 2976, Note_on_c, 0, 64, 46
1, 2985, Note_off_c, 0, 45, 14
1, 3071, Note_off_c, 0, 52, 42
1, 3071, Note_off_c, 0, 59, 55
1, 3071, Note_off_c, 0, 64, 69
1, 0, Note_on_c, 0, 69, 94
1, 6, Note_on_c, 0, 84, 96
1, 48, Note_on_c, 0, 76, 96
1, 288, Note_on_c, 0, 74, 93
1, 335, Note_off_c, 0, 76, 64
1, 336, Note_off_c, 0, 74, 64
1, 336, Note_on_c, 0, 76, 93
1, 384, Note_on_c, 0, 62, 96
1, 384, Note_off_c, 0, 69, 64
1, 384, Note_off_c, 0, 76, 64
1, 384, Note_off_c, 0, 84, 64
1, 402, Note_on_c, 0, 77, 96
1, 480, Note_off_c, 0, 77, 64
1, 480, Note_on_c, 0, 81, 96
1, 624, Note_on_c, 0, 77, 96
1, 768, Note_off_c, 0, 62, 64
1, 768, Note_on_c, 0, 69, 94
1, 768, Note_off_c, 0, 77, 64
1, 768, Note_off_c, 0, 81, 64
1, 774, Note_on_c, 0, 84, 96
1, 816, Note_on_c, 0, 76, 96
1, 1056, Note_on_c, 0, 74, 93
1, 1103, Note_off_c, 0, 76, 64
1, 1104, Note_off_c, 0, 74, 64
1, 1104, Note_on_c, 0, 76, 93
1, 1152, Note_on_c, 0, 62, 96
1, 1152, Note_off_c, 0, 69, 64
1, 1152, Note_off_c, 0, 76, 64
1, 1152, Note_off_c, 0, 84, 64
1, 1170, Note_on_c, 0, 77, 96
1, 1248, Note_off_c, 0, 77, 64
1, 1248, Note_on_c, 0, 81, 96
1, 1392, Note_on_c, 0, 77, 96
1, 1536, Note_off_c, 0, 62, 64
1, 1536, Note_off_c, 0, 77, 64
1, 1536, Note_off_c, 0, 81, 64
1, 0, Note_on_c, 0, 57, 63
1, 48, Note_off_c, 0, 57, 63
1, 48, Note_on_c, 0, 64, 58
1, 96, Note_off_c, 0, 64, 58
1, 96, Note_on_c, 0, 69, 73
1, 143, Note_off_c, 0, 69, 73
1, 144, Note_on_c, 0, 76, 73
1, 191, Note_off_c, 0, 76, 73
1, 192, Note_on_c, 0, 57, 63
1, 240, Note_off_c, 0, 57, 63
1, 240, Note_on_c, 0, 64, 58
1, 288, Note_off_c, 0, 64, 58
1, 288, Note_on_c, 0, 69, 73
1, 335, Note_off_c, 0, 69, 73
1, 336, Note_on_c, 0, 74, 66
1, 373, Note_off_c, 0, 74, 66
1, 384, Note_on_c, 0, 57, 60
1, 432, Note_off_c, 0, 57, 60
1, 432, Note_on_c, 0, 64, 57
1, 480, Note_off_c, 0, 64, 57
1, 480, Note_on_c, 0, 69, 66
1, 528, Note_on_c, 0, 71, 69
1, 528, Note_off_c, 0, 69, 66
1, 576, Note_on_c, 0, 57, 60
1, 577, Note_off_c, 0, 71, 69
1, 624, Note_off_c, 0, 57, 60
1, 624, Note_on_c, 0, 64, 57
1, 672, Note_off_c, 0, 64, 57
1, 672, Note_on_c, 0, 69, 66
1, 720, Note_on_c, 0, 74, 72
1, 720, Note_off_c, 0, 69, 66
1, 768, Note_on_c, 0, 59, 59
1, 768, Note_off_c, 0, 74, 72
1, 816, Note_off_c, 0, 59, 59
1, 816, Note_on_c, 0, 67, 58
1, 864, Note_off_c, 0, 67, 58
1, 864, Note_on_c, 0, 69, 76
1, 908, Note_off_c, 0, 69, 76
1, 912, Note_on_c, 0, 76, 73
1, 955, Note_off_c, 0, 76, 73
1, 960, Note_on_c, 0, 59, 59
1, 1008, Note_off_c, 0, 59, 59
1, 1008, Note_on_c, 0, 67, 58
1, 1056, Note_off_c, 0, 67, 58
1, 1056, Note_on_c, 0, 69, 76
1, 1100, Note_off_c, 0, 69, 76
1, 1104, Note_on_c, 0, 76, 73
1, 1147, Note_off_c, 0, 76, 73
1, 1152, Note_on_c, 0, 59, 52
1, 1200, Note_off_c, 0, 59, 52
1, 1200, Note_on_c, 0, 71, 57
1, 1248, Note_off_c, 0, 71, 57
1, 1248, Note_on_c, 0, 76, 68
1, 1285, Note_off_c, 0, 76, 68
1, 1296, Note_on_c, 0, 69, 74
1, 1344, Note_on_c, 0, 59, 70
1, 1344, Note_off_c, 0, 69, 74
1, 1392, Note_off_c, 0, 59, 70
1, 1392, Note_on_c, 0, 64, 58
1, 1440, Note_off_c, 0, 64, 58
1, 1440, Note_on_c, 0, 69, 65
1, 1483, Note_off_c, 0, 69, 65
1, 1488, Note_on_c, 0, 67, 65
1, 1531, Note_off_c, 0, 67, 65
1, 0, Note_on_c, 0, 45, 67
1, 0, Note_on_c, 0, 64, 93
1, 48, Note_on_c, 0, 62, 93
1, 48, Note_off_c, 0, 64, 64
1, 96, Note_on_c, 0, 61, 93
1, 96, Note_off_c, 0, 62, 64
1, 96, Note_on_c, 0, 69, 122
1, 144, Note_off_c, 0, 45, 64
1, 144, Note_on_c, 0, 57, 93
1, 144, Note_off_c, 0, 61, 64
1, 144, Note_off_c, 0, 69, 114
1, 192, Note_on_c, 0, 55, 93
1, 192, Note_off_c, 0, 57, 64
1, 240, Note_off_c, 0, 55, 64
1, 240, Note_on_c, 0, 57, 93
1, 288, Note_off_c, 0, 57, 64
1, 288, Note_on_c, 0, 67, 93
1, 336, Note_on_c, 0, 64, 93
1, 336, Note_off_c, 0, 67, 64
1, 384, Note_on_c, 0, 38, 67
1, 384, Note_off_c, 0, 64, 64
1, 384, Note_on_c, 0, 65, 93
1, 480, Note_on_c, 0, 62, 93
1, 480, Note_off_c, 0, 65, 64
1, 480, Note_on_c, 0, 81, 113
1, 528, Note_off_c, 0, 62, 64
1, 528, Note_on_c, 0, 64, 93
1, 528, Note_off_c, 0, 81, 127
1, 533, Note_off_c, 0, 38, 64
1, 576, Note_on_c, 0, 57, 82
1, 576, Note_off_c, 0, 64, 64
1, 576, Note_on_c, 0, 65, 93
1, 624, Note_on_c, 0, 64, 93
1, 624, Note_off_c, 0, 65, 64
1, 672, Note_off_c, 0, 57, 64
1, 672, Note_on_c, 0, 62, 93
1, 672, Note_off_c, 0, 64, 64
1, 720, Note_on_c, 0, 57, 93
1, 720, Note_off_c, 0, 62, 64
1, 768, Note_on_c, 0, 45, 67
1, 768, Note_off_c, 0, 57, 64
1, 768, Note_on_c, 0, 64, 93
1, 816, Note_on_c, 0, 62, 93
1, 816, Note_off_c, 0, 64, 64
1, 864, Note_on_c, 0, 61, 93
1, 864, Note_off_c, 0, 62, 64
1, 864, Note_on_c, 0, 76, 114
1, 912, Note_off_c, 0, 45, 64
1, 912, Note_on_c, 0, 57, 93
1, 912, Note_off_c, 0, 61, 64
1, 912, Note_off_c, 0, 76, 127
1, 960, Note_on_c, 0, 55, 93
1, 960, Note_off_c, 0, 57, 64
1, 1008, Note_off_c, 0, 55, 64
1, 1008, Note_on_c, 0, 57, 93
1, 1056, Note_off_c, 0, 57, 64
1, 1056, Note_on_c, 0, 67, 93
1, 1104, Note_on_c, 0, 64, 93
1, 1104, Note_off_c, 0, 67, 64
1, 1152, Note_on_c, 0, 38, 67
1, 1152, Note_off_c, 0, 64, 64
1, 1152, Note_on_c, 0, 65, 93
1, 1248, Note_on_c, 0, 62, 93
1, 1248, Note_off_c, 0, 65, 64
1, 1248, Note_on_c, 0, 77, 106
1, 1296, Note_off_c, 0, 62, 64
1, 1296, Note_on_c, 0, 64, 93
1, 1296, Note_off_c, 0, 77, 119
1, 1301, Note_off_c, 0, 38, 64
1, 1344, Note_on_c, 0, 57, 82
1, 1344, Note_off_c, 0, 64, 64
1, 1344, Note_on_c, 0, 65, 93
1, 1392, Note_on_c, 0, 64, 93
1, 1392, Note_off_c, 0, 65, 64
1, 1440, Note_off_c, 0, 57, 64
1, 1440, Note_on_c, 0, 62, 93
1, 1440, Note_off_c, 0, 64, 64
1, 1488, Note_on_c, 0, 57, 93
1, 1488, Note_off_c, 0, 62, 64
1, 1536, Note_off_c, 0, 57, 64
1, 0, Note_on_c, 0, 57, 100
1, 0, Note_on_c, 0, 64, 100
1, 0, Note_on_c, 0, 69, 100
1, 48, Note_off_c, 0, 57, 64
1, 90, Note_off_c, 0, 69, 64
1, 96, Note_on_c, 0, 69, 100
1, 128, Note_off_c, 0, 69, 64
1, 128, Note_on_c, 0, 71, 100
1, 144, Note_off_c, 0, 64, 64
1, 154, Note_off_c, 0, 71, 64
1, 160, Note_on_c, 0, 72, 100
1, 192, Note_on_c, 0, 69, 100
1, 192, Note_off_c, 0, 72, 64
1, 192, Note_on_c, 0, 76, 100
1, 272, Note_off_c, 0, 76, 64
1, 281, Note_off_c, 0, 69, 64
1, 288, Note_on_c, 0, 69, 100
1, 384, Note_on_c, 0, 53, 100
1, 384, Note_on_c, 0, 60, 100
1, 384, Note_off_c, 0, 69, 64
1, 384, Note_on_c, 0, 81, 100
1, 432, Note_off_c, 0, 53, 64
1, 474, Note_off_c, 0, 81, 64
1, 480, Note_on_c, 0, 69, 100
1, 512, Note_off_c, 0, 69, 64
1, 512, Note_on_c, 0, 71, 100
1, 528, Note_off_c, 0, 60, 64
1, 544, Note_on_c, 0, 72, 100
1, 554, Note_off_c, 0, 71, 64
1, 576, Note_on_c, 0, 52, 100
1, 576, Note_on_c, 0, 59, 100
1, 576, Note_on_c, 0, 64, 100
1, 576, Note_on_c, 0, 77, 100
1, 582, Note_on_c, 0, 69, 100
1, 586, Note_off_c, 0, 72, 64
1, 624, Note_off_c, 0, 52, 64
1, 648, Note_off_c, 0, 77, 64
1, 672, Note_on_c, 0, 76, 100
1, 720, Note_off_c, 0, 59, 64
1, 720, Note_off_c, 0, 64, 64
1, 767, Note_off_c, 0, 69, 64
1, 768, Note_on_c, 0, 57, 100
1, 768, Note_on_c, 0, 64, 100
1, 768, Note_on_c, 0, 69, 100
1, 768, Note_off_c, 0, 76, 64
1, 816, Note_off_c, 0, 57, 64
1, 858, Note_off_c, 0, 69, 64
1, 864, Note_on_c, 0, 69, 100
1, 896, Note_off_c, 0, 69, 64
1, 896, Note_on_c, 0, 71, 100
1, 912, Note_off_c, 0, 64, 64
1, 922, Note_off_c, 0, 71, 64
1, 928, Note_on_c, 0, 72, 100
1, 960, Note_on_c, 0, 69, 100
1, 960, Note_off_c, 0, 72, 64
1, 960, Note_on_c, 0, 76, 100
1, 1040, Note_off_c, 0, 76, 64
1, 1049, Note_off_c, 0, 69, 64
1, 1056, Note_on_c, 0, 69, 100
1, 1152, Note_on_c, 0, 53, 100
1, 1152, Note_on_c, 0, 60, 100
1, 1152, Note_off_c, 0, 69, 64
1, 1152, Note_on_c, 0, 81, 100
1, 1200, Note_off_c, 0, 53, 64
1, 1242, Note_off_c, 0, 81, 64
1, 1248, Note_on_c, 0, 69, 100
1, 1280, Note_off_c, 0, 69, 64
1, 1280, Note_on_c, 0, 71, 100
1, 1296, Note_off_c, 0, 60, 64
1, 1312, Note_on_c, 0, 72, 100
1, 1322, Note_off_c, 0, 71, 64
1, 1344, Note_on_c, 0, 52, 100
1, 1344, Note_on_c, 0, 59, 100
1, 1344, Note_on_c, 0, 77, 100
1, 1350, Note_on_c, 0, 69, 100
1, 1354, Note_off_c, 0, 72, 64
1, 1392, Note_off_c, 0, 52, 64
1, 1416, Note_off_c, 0, 77, 64
1, 1440, Note_on_c, 0, 76, 100
1, 1488, Note_off_c, 0, 59, 64
1, 1536, Note_off_c, 0, 69, 64
1, 1536, Note_off_c, 0, 76, 64
1, 0, Note_on_c, 0, 76, 77
1, 1, Note_on_c, 0, 45, 53
1, 1, Note_on_c, 0, 60, 52
1, 1, Note_on_c, 0, 67, 71
1, 2, Note_on_c, 0, 59, 52
1, 3, Control_c, 0, 64, 0
1, 3, Control_c, 0, 64, 127
1, 75, Note_off_c, 0, 67, 35
1, 80, Note_off_c, 0, 60, 19
1, 84, Note_off_c, 0, 59, 33
1, 96, Note_on_c, 0, 52, 46
1, 105, Note_off_c, 0, 45, 32
1, 167, Note_off_c, 0, 76, 1
1, 192, Note_on_c, 0, 57, 46
1, 192, Note_on_c, 0, 59, 49
1, 192, Note_on_c, 0, 60, 46
1, 192, Note_on_c, 0, 64, 64
1, 192, Note_on_c, 0, 71, 65
1, 200, Note_off_c, 0, 52, 31
1, 273, Note_off_c, 0, 60, 19
1, 273, Note_off_c, 0, 64, 39
1, 284, Note_off_c, 0, 59, 38
1, 287, Note_on_c, 0, 55, 46
1, 288, Note_off_c, 0, 57, 39
1, 384, Note_on_c, 0, 72, 76
1, 385, Note_on_c, 0, 60, 51
1, 386, Note_on_c, 0, 57, 70
1, 386, Note_on_c, 0, 59, 57
1, 386, Note_on_c, 0, 64, 73
1, 395, Note_off_c, 0, 55, 27
1, 398, Note_off_c, 0, 71, 51
1, 458, Note_off_c, 0, 64, 58
1, 462, Note_off_c, 0, 60, 24
1, 464, Note_off_c, 0, 57, 38
1, 481, Note_on_c, 0, 55, 46
1, 484, Note_off_c, 0, 59, 17
1, 507, Note_off_c, 0, 55, 34
1, 569, Note_off_c, 0, 72, 53
1, 576, Note_on_c, 0, 71, 68
1, 577, Note_on_c, 0, 67, 80
1, 578, Note_on_c, 0, 59, 54
1, 578, Note_on_c, 0, 60, 46
1, 585, Note_on_c, 0, 52, 46
1, 644, Note_off_c, 0, 52, 53
1, 649, Note_off_c, 0, 67, 33
1, 650, Note_off_c, 0, 60, 9
1, 659, Note_off_c, 0, 59, 39
1, 667, Note_off_c, 0, 71, 47
1, 672, Note_on_c, 0, 72, 45
1, 673, Note_on_c, 0, 57, 58
1, 749, Note_off_c, 0, 57, 11
1, 762, Note_off_c, 0, 72, 67
1, 766, Note_on_c, 0, 60, 46
1, 767, Note_on_c, 0, 59, 49
1, 767, Note_on_c, 0, 67, 67
1, 768, Note_on_c, 0, 45, 56
1, 768, Note_on_c, 0, 76, 59
1, 861, Note_off_c, 0, 67, 39
1, 865, Note_on_c, 0, 52, 46
1, 870, Note_off_c, 0, 59, 41
1, 871, Note_off_c, 0, 45, 34
1, 872, Note_off_c, 0, 60, 20
1, 957, Note_off_c, 0, 76, 39
1, 959, Note_on_c, 0, 57, 63
1, 959, Note_on_c, 0, 59, 49
1, 959, Note_on_c, 0, 60, 49
1, 959, Note_on_c, 0, 64, 67
1, 959, Note_on_c, 0, 71, 60
1, 966, Note_off_c, 0, 52, 34
1, 1042, Note_off_c, 0, 64, 42
1, 1049, Note_off_c, 0, 57, 32
1, 1054, Note_off_c, 0, 59, 41
1, 1058, Note_on_c, 0, 55, 46
1, 1072, Note_off_c, 0, 60, 1
1, 1144, Note_off_c, 0, 55, 29
1, 1152, Note_on_c, 0, 57, 57
1, 1152, Note_on_c, 0, 72, 82
1, 1153, Note_on_c, 0, 59, 48
1, 1153, Note_on_c, 0, 60, 46
1, 1153, Note_on_c, 0, 64, 80
1, 1158, Note_off_c, 0, 71, 54
1, 1234, Note_off_c, 0, 64, 36
1, 1248, Note_on_c, 0, 52, 62
1, 1251, Note_off_c, 0, 57, 1
1, 1256, Note_off_c, 0, 59, 15
1, 1256, Note_off_c, 0, 60, 4
1, 1332, Note_off_c, 0, 72, 48
1, 1344, Note_on_c, 0, 71, 70
1, 1345, Note_on_c, 0, 55, 67
1, 1345, Note_on_c, 0, 60, 60
1, 1345, Note_on_c, 0, 67, 84
1, 1346, Note_on_c, 0, 59, 64
1, 1348, Note_off_c, 0, 52, 50
1, 1423, Note_off_c, 0, 67, 9
1, 1435, Note_off_c, 0, 71, 53
1, 1438, Note_off_c, 0, 55, 21
1, 1440, Note_on_c, 0, 69, 43
1, 1443, Note_on_c, 0, 57, 50
1, 1453, Note_off_c, 0, 60, 18
1, 1464, Note_off_c, 0, 59, 1
1, 1488, Note_off_c, 0, 57, 32
1, 1527, Note_off_c, 0, 69, 51
1, 0, Note_on_c, 0, 57, 68
1, 0, Note_on_c, 0, 76, 88
1, 34, Note_off_c, 0, 76, 44
1, 37, Note_off_c, 0, 57, 28
1, 48, Note_on_c, 0, 72, 43
1, 78, Note_off_c, 0, 72, 9
1, 97, Note_on_c, 0, 60, 77
1, 97, Note_on_c, 0, 69, 80
1, 136, Note_off_c, 0, 60, 19
1, 142, Note_off_c, 0, 69, 14
1, 191, Note_on_c, 0, 64, 76
1, 228, Note_off_c, 0, 64, 50
1, 286, Note_on_c, 0, 60, 77
1, 286, Note_on_c, 0, 72, 78
1, 316, Note_off_c, 0, 60, 47
1, 341, Note_off_c, 0, 72, 41
1, 381, Note_on_c, 0, 55, 84
1, 381, Note_on_c, 0, 74, 86
1, 421, Note_off_c, 0, 74, 36
1, 426, Note_off_c, 0, 55, 14
1, 429, Note_on_c, 0, 71, 85
1, 459, Note_off_c, 0, 71, 41
1, 478, Note_on_c, 0, 59, 85
1, 478, Note_on_c, 0, 67, 82
1, 521, Note_off_c, 0, 67, 18
1, 522, Note_off_c, 0, 59, 35
1, 572, Note_on_c, 0, 62, 64
1, 619, Note_off_c, 0, 62, 30
1, 669, Note_on_c, 0, 59, 90
1, 669, Note_on_c, 0, 71, 91
1, 704, Note_off_c, 0, 59, 87
1, 711, Note_off_c, 0, 71, 66
1, 765, Note_on_c, 0, 53, 60
1, 765, Note_on_c, 0, 72, 78
1, 801, Note_off_c, 0, 53, 27
1, 808, Note_off_c, 0, 72, 24
1, 813, Note_on_c, 0, 69, 75
1, 838, Note_off_c, 0, 69, 16
1, 861, Note_on_c, 0, 57, 55
1, 861, Note_on_c, 0, 65, 70
1, 905, Note_off_c, 0, 57, 6
1, 910, Note_off_c, 0, 65, 14
1, 957, Note_on_c, 0, 60, 70
1, 958, Note_on_c, 0, 67, 78
1, 1000, Note_off_c, 0, 60, 18
1, 1006, Note_off_c, 0, 67, 15
1, 1054, Note_on_c, 0, 57, 82
1, 1054, Note_on_c, 0, 69, 91
1, 1086, Note_off_c, 0, 57, 55
1, 1088, Note_off_c, 0, 69, 42
1, 1150, Note_on_c, 0, 50, 76
1, 1150, Note_on_c, 0, 72, 71
1, 1187, Note_off_c, 0, 72, 29
1, 1189, Note_off_c, 0, 50, 14
1, 1198, Note_on_c, 0, 69, 76
1, 1233, Note_off_c, 0, 69, 11
1, 1247, Note_on_c, 0, 53, 75
1, 1247, Note_on_c, 0, 65, 84
1, 1281, Note_off_c, 0, 53, 20
1, 1291, Note_off_c, 0, 65, 22
1, 1343, Note_on_c, 0, 57, 56
1, 1343, Note_on_c, 0, 67, 87
1, 1378, Note_off_c, 0, 57, 20
1, 1387, Note_off_c, 0, 67, 9
1, 1437, Note_on_c, 0, 53, 71
1, 1437, Note_on_c, 0, 69, 89
1, 1455, Note_off_c, 0, 69, 67
1, 1459, Note_off_c, 0, 53, 58
1, 2303, Note_on_c, 0, 53, 74
1, 2303, Note_on_c, 0, 72, 86
1, 2335, Note_off_c, 0, 72, 38
1, 2338, Note_off_c, 0, 53, 22
1, 2351, Note_on_c, 0, 69, 47
1, 2378, Note_off_c, 0, 69, 11
1, 2399, Note_on_c, 0, 57, 65
1, 2399, Note_on_c, 0, 65, 78
1, 2446, Note_off_c, 0, 57, 6
1, 2448, Note_off_c, 0, 65, 16
1, 2495, Note_on_c, 0, 60, 68
1, 2495, Note_on_c, 0, 67, 80
1, 2534, Note_off_c, 0, 60, 23
1, 2542, Note_off_c, 0, 67, 13
1, 2588, Note_on_c, 0, 57, 69
1, 2590, Note_on_c, 0, 69, 86
1, 2627, Note_off_c, 0, 57, 40
1, 2628, Note_off_c, 0, 69, 35
1, 2685, Note_on_c, 0, 50, 75
1, 2685, Note_on_c, 0, 72, 76
1, 2723, Note_off_c, 0, 72, 28
1, 2724, Note_off_c, 0, 50, 28
1, 2735, Note_on_c, 0, 69, 80
1, 2768, Note_off_c, 0, 69, 13
1, 2784, Note_on_c, 0, 53, 68
1, 2784, Note_on_c, 0, 65, 87
1, 2827, Note_off_c, 0, 65, 17
1, 2830, Note_off_c, 0, 53, 11
1, 2880, Note_on_c, 0, 57, 59
1, 2880, Note_on_c, 0, 67, 78
1, 2913, Note_off_c, 0, 57, 22
1, 2915, Note_off_c, 0, 67, 19
1, 2975, Note_on_c, 0, 53, 35
1, 2975, Note_on_c, 0, 64, 62
1, 2995, Note_off_c, 0, 53, 41
1, 3004, Note_off_c, 0, 64, 67
1, 0, Note_on_c, 0, 45, 120
1, 0, Note_on_c, 0, 57, 120
1, 0, Note_on_c, 0, 64, 120
1, 0, Note_on_c, 0, 71, 120
1, 95, Note_off_c, 0, 64, 64
1, 96, Note_on_c, 0, 64, 120
1, 96, Note_off_c, 0, 71, 64
1, 192, Note_on_c, 0, 60, 120
1, 192, Note_off_c, 0, 64, 64
1, 288, Note_off_c, 0, 45, 64
1, 288, Note_off_c, 0, 57, 64
1, 288, Note_off_c, 0, 60, 64
1, 288, Note_on_c, 0, 71, 120
1, 384, Note_on_c, 0, 52, 120
1, 384, Note_on_c, 0, 56, 120
1, 384, Note_on_c, 0, 62, 120
1, 384, Note_on_c, 0, 64, 120
1, 384, Note_off_c, 0, 71, 64
1, 576, Note_on_c, 0, 72, 120
1, 672, Note_on_c, 0, 69, 120
1, 672, Note_off_c, 0, 72, 64
1, 767, Note_off_c, 0, 64, 64
1, 768, Note_on_c, 0, 45, 120
1, 768, Note_off_c, 0, 52, 64
1, 768, Note_off_c, 0, 56, 64
1, 768, Note_on_c, 0, 57, 120
1, 768, Note_off_c, 0, 62, 64
1, 768, Note_on_c, 0, 64, 120
1, 768, Note_off_c, 0, 69, 64
1, 768, Note_on_c, 0, 71, 120
1, 863, Note_off_c, 0, 64, 64
1, 864, Note_on_c, 0, 64, 120
1, 864, Note_off_c, 0, 71, 64
1, 960, Note_on_c, 0, 60, 120
1, 960, Note_off_c, 0, 64, 64
1, 1056, Note_off_c, 0, 45, 64
1, 1056, Note_off_c, 0, 57, 64
1, 1056, Note_off_c, 0, 60, 64
1, 1056, Note_on_c, 0, 71, 120
1, 1152, Note_on_c, 0, 52, 120
1, 1152, Note_on_c, 0, 56, 120
1, 1152, Note_on_c, 0, 62, 120
1, 1152, Note_on_c, 0, 64, 120
1, 1152, Note_off_c, 0, 71, 64
1, 1344, Note_on_c, 0, 72, 120
1, 1440, Note_on_c, 0, 69, 120
1, 1440, Note_off_c, 0, 72, 64
1, 1536, Note_off_c, 0, 52, 64
1, 1536, Note_off_c, 0, 56, 64
1, 1536, Note_off_c, 0, 62, 64
1, 1536, Note_off_c, 0, 64, 64
1, 1536, Note_off_c, 0, 69, 64
1, 0, Note_on_c, 0, 33, 37
1, 0, Note_on_c, 0, 71, 43
1, 24, Note_on_c, 0, 48, 37
1, 24, Note_on_c, 0, 72, 51
1, 31, Note_off_c, 0, 71, 64
1, 48, Note_on_c, 0, 40, 37
1, 96, Note_on_c, 0, 45, 3
1, 97, Note_on_c, 0, 64, 37
1, 136, Note_off_c, 0, 72, 64
1, 143, Note_off_c, 0, 40, 64
1, 144, Note_off_c, 0, 33, 64
1, 144, Note_on_c, 0, 40, 23
1, 168, Note_off_c, 0, 48, 64
1, 176, Note_off_c, 0, 45, 64
1, 192, Note_on_c, 0, 72, 43
1, 216, Note_on_c, 0, 48, 37
1, 216, Note_on_c, 0, 74, 51
1, 220, Note_off_c, 0, 72, 64
1, 240, Note_on_c, 0, 33, 23
1, 240, Note_off_c, 0, 40, 64
1, 287, Note_off_c, 0, 64, 64
1, 288, Note_on_c, 0, 40, 23
1, 288, Note_on_c, 0, 64, 8
1, 328, Note_off_c, 0, 74, 64
1, 336, Note_off_c, 0, 48, 64
1, 383, Note_off_c, 0, 33, 64
1, 384, Note_on_c, 0, 33, 37
1, 384, Note_off_c, 0, 40, 64
1, 384, Note_off_c, 0, 64, 64
1, 384, Note_on_c, 0, 72, 50
1, 408, Note_on_c, 0, 48, 37
1, 432, Note_on_c, 0, 40, 37
1, 480, Note_on_c, 0, 45, 3
1, 482, Note_on_c, 0, 64, 37
1, 527, Note_off_c, 0, 40, 64
1, 528, Note_off_c, 0, 33, 64
1, 528, Note_on_c, 0, 40, 23
1, 552, Note_off_c, 0, 48, 64
1, 560, Note_off_c, 0, 45, 64
1, 566, Note_off_c, 0, 72, 64
1, 576, Note_on_c, 0, 71, 50
1, 600, Note_on_c, 0, 48, 37
1, 624, Note_on_c, 0, 33, 23
1, 624, Note_off_c, 0, 40, 64
1, 672, Note_on_c, 0, 40, 23
1, 674, Note_off_c, 0, 64, 64
1, 744, Note_off_c, 0, 48, 64
1, 758, Note_off_c, 0, 71, 64
1, 768, Note_on_c, 0, 28, 37
1, 768, Note_off_c, 0, 33, 64
1, 768, Note_off_c, 0, 40, 64
1, 768, Note_on_c, 0, 71, 43
1, 792, Note_on_c, 0, 43, 37
1, 793, Note_on_c, 0, 72, 51
1, 794, Note_off_c, 0, 71, 64
1, 816, Note_on_c, 0, 35, 37
1, 864, Note_on_c, 0, 40, 3
1, 865, Note_on_c, 0, 59, 37
1, 906, Note_off_c, 0, 72, 64
1, 911, Note_off_c, 0, 35, 64
1, 912, Note_off_c, 0, 28, 64
1, 912, Note_on_c, 0, 35, 23
1, 936, Note_off_c, 0, 43, 64
1, 944, Note_off_c, 0, 40, 64
1, 960, Note_on_c, 0, 72, 43
1, 984, Note_on_c, 0, 43, 37
1, 984, Note_on_c, 0, 74, 51
1, 985, Note_off_c, 0, 72, 64
1, 1008, Note_on_c, 0, 28, 23
1, 1008, Note_off_c, 0, 35, 64
1, 1055, Note_off_c, 0, 59, 64
1, 1056, Note_on_c, 0, 35, 23
1, 1056, Note_on_c, 0, 59, 8
1, 1096, Note_off_c, 0, 74, 64
1, 1128, Note_off_c, 0, 43, 64
1, 1151, Note_off_c, 0, 28, 64
1, 1152, Note_on_c, 0, 28, 37
1, 1152, Note_off_c, 0, 35, 64
1, 1152, Note_off_c, 0, 59, 64
1, 1152, Note_on_c, 0, 72, 50
1, 1176, Note_on_c, 0, 43, 37
1, 1200, Note_on_c, 0, 35, 37
1, 1248, Note_on_c, 0, 40, 3
1, 1250, Note_on_c, 0, 59, 37
1, 1295, Note_off_c, 0, 35, 64
1, 1296, Note_off_c, 0, 28, 64
1, 1296, Note_on_c, 0, 35, 23
1, 1320, Note_off_c, 0, 43, 64
1, 1328, Note_off_c, 0, 40, 64
1, 1330, Note_off_c, 0, 72, 64
1, 1344, Note_on_c, 0, 71, 50
1, 1368, Note_on_c, 0, 43, 37
1, 1392, Note_on_c, 0, 28, 23
1, 1392, Note_off_c, 0, 35, 64
1, 1440, Note_on_c, 0, 35, 23
1, 1442, Note_off_c, 0, 59, 64
1, 1488, Note_on_c, 0, 55, 8
1, 1512, Note_off_c, 0, 43, 64
1, 1522, Note_off_c, 0, 71, 64
1, 1536, Note_off_c, 0, 28, 64
1, 1536, Note_off_c, 0, 35, 64
1, 1536, Note_off_c, 0, 55, 64
1, 0, Note_on_c, 0, 52, 96
1, 0, Note_on_c, 0, 57, 99
1, 0, Note_on_c, 0, 69, 102
1, 192, Note_on_c, 0, 64, 96
1, 215, Note_off_c, 0, 69, 64
1, 216, Note_on_c, 0, 69, 100
1, 240, Note_on_c, 0, 72, 97
1, 287, Note_off_c, 0, 64, 64
1, 288, Note_on_c, 0, 64, 104
1, 311, Note_off_c, 0, 69, 64
1, 312, Note_on_c, 0, 69, 102
1, 312, Note_off_c, 0, 72, 64
1, 335, Note_off_c, 0, 52, 64
1, 336, Note_on_c, 0, 52, 100
1, 336, Note_on_c, 0, 72, 98
1, 383, Note_off_c, 0, 64, 64
1, 384, Note_on_c, 0, 48, 98
1, 384, Note_off_c, 0, 52, 64
1, 384, Note_on_c, 0, 56, 97
1, 384, Note_off_c, 0, 57, 64
1, 384, Note_on_c, 0, 64, 105
1, 384, Note_off_c, 0, 69, 64
1, 384, Note_off_c, 0, 72, 64
1, 480, Note_on_c, 0, 71, 104
1, 576, Note_on_c, 0, 47, 100
1, 576, Note_off_c, 0, 48, 64
1, 576, Note_on_c, 0, 68, 100
1, 576, Note_off_c, 0, 71, 64
1, 671, Note_off_c, 0, 64, 64
1, 672, Note_on_c, 0, 60, 91
1, 672, Note_on_c, 0, 64, 95
1, 672, Note_off_c, 0, 68, 64
1, 720, Note_on_c, 0, 59, 80
1, 720, Note_off_c, 0, 60, 64
1, 767, Note_off_c, 0, 64, 64
1, 768, Note_off_c, 0, 47, 64
1, 768, Note_on_c, 0, 48, 97
1, 768, Note_off_c, 0, 56, 64
1, 768, Note_on_c, 0, 57, 101
1, 768, Note_off_c, 0, 59, 64
1, 768, Note_on_c, 0, 64, 105
1, 959, Note_off_c, 0, 64, 64
1, 960, Note_on_c, 0, 64, 100
1, 984, Note_on_c, 0, 62, 102
1, 1007, Note_off_c, 0, 64, 64
1, 1008, Note_off_c, 0, 62, 64
1, 1008, Note_on_c, 0, 64, 102
1, 1055, Note_off_c, 0, 64, 64
1, 1056, Note_on_c, 0, 64, 102
1, 1080, Note_on_c, 0, 62, 105
1, 1103, Note_off_c, 0, 64, 64
1, 1104, Note_off_c, 0, 62, 64
1, 1104, Note_on_c, 0, 64, 104
1, 1151, Note_off_c, 0, 64, 64
1, 1152, Note_on_c, 0, 44, 101
1, 1152, Note_off_c, 0, 48, 64
1, 1152, Note_on_c, 0, 56, 100
1, 1152, Note_off_c, 0, 57, 64
1, 1152, Note_on_c, 0, 64, 96
1, 1248, Note_on_c, 0, 71, 98
1, 1344, Note_on_c, 0, 68, 98
1, 1344, Note_off_c, 0, 71, 64
1, 1439, Note_off_c, 0, 64, 64
1, 1440, Note_on_c, 0, 48, 105
1, 1440, Note_on_c, 0, 64, 96
1, 1440, Note_off_c, 0, 68, 64
1, 1488, Note_on_c, 0, 47, 103
1, 1488, Note_off_c, 0, 48, 64
1, 1536, Note_off_c, 0, 44, 64
1, 1536, Note_off_c, 0, 47, 64
1, 1536, Note_off_c, 0, 56, 64
1, 1536, Note_off_c, 0, 64, 64
1, 0, Note_on_c, 0, 45, 77
1, 0, Note_on_c, 0, 57, 53
1, 24, Note_on_c, 0, 60, 77
1, 48, Note_on_c, 0, 52, 77
1, 96, Note_on_c, 0, 69, 13
1, 143, Note_off_c, 0, 45, 64
1, 143, Note_off_c, 0, 57, 64
1, 144, Note_on_c, 0, 45, 77
1, 144, Note_on_c, 0, 57, 47
1, 191, Note_off_c, 0, 52, 64
1, 192, Note_on_c, 0, 52, 69
1, 239, Note_off_c, 0, 60, 64
1, 240, Note_on_c, 0, 60, 69
1, 240, Note_off_c, 0, 69, 64
1, 288, Note_on_c, 0, 64, 77
1, 312, Note_on_c, 0, 67, 35
1, 335, Note_off_c, 0, 60, 64
1, 336, Note_off_c, 0, 45, 64
1, 336, Note_on_c, 0, 47, 77
1, 336, Note_on_c, 0, 60, 77
1, 336, Note_off_c, 0, 64, 64
1, 360, Note_off_c, 0, 57, 64
1, 360, Note_on_c, 0, 59, 35
1, 360, Note_off_c, 0, 60, 64
1, 383, Note_off_c, 0, 52, 64
1, 384, Note_on_c, 0, 40, 77
1, 384, Note_off_c, 0, 47, 64
1, 384, Note_on_c, 0, 52, 53
1, 408, Note_on_c, 0, 55, 77
1, 432, Note_on_c, 0, 47, 77
1, 480, Note_off_c, 0, 59, 64
1, 480, Note_on_c, 0, 64, 13
1, 527, Note_off_c, 0, 40, 64
1, 527, Note_off_c, 0, 52, 64
1, 528, Note_on_c, 0, 40, 77
1, 528, Note_on_c, 0, 52, 47
1, 552, Note_off_c, 0, 67, 64
1, 575, Note_off_c, 0, 47, 64
1, 576, Note_on_c, 0, 47, 69
1, 623, Note_off_c, 0, 55, 64
1, 624, Note_on_c, 0, 55, 69
1, 624, Note_off_c, 0, 64, 64
1, 672, Note_on_c, 0, 59, 77
1, 720, Note_off_c, 0, 40, 64
1, 720, Note_on_c, 0, 43, 77
1, 720, Note_off_c, 0, 52, 64
1, 720, Note_on_c, 0, 67, 77
1, 768, Note_off_c, 0, 43, 64
1, 768, Note_on_c, 0, 45, 77
1, 768, Note_off_c, 0, 47, 64
1, 768, Note_off_c, 0, 55, 64
1, 768, Note_on_c, 0, 57, 53
1, 768, Note_off_c, 0, 59, 64
1, 768, Note_off_c, 0, 67, 64
1, 792, Note_on_c, 0, 60, 77
1, 816, Note_on_c, 0, 52, 77
1, 864, Note_on_c, 0, 69, 13
1, 911, Note_off_c, 0, 45, 64
1, 911, Note_off_c, 0, 57, 64
1, 912, Note_on_c, 0, 45, 77
1, 912, Note_on_c, 0, 57, 47
1, 959, Note_off_c, 0, 52, 64
1, 960, Note_on_c, 0, 52, 69
1, 1007, Note_off_c, 0, 60, 64
1, 1008, Note_on_c, 0, 60, 69
1, 1008, Note_off_c, 0, 69, 64
1, 1056, Note_on_c, 0, 64, 77
1, 1080, Note_on_c, 0, 67, 35
1, 1103, Note_off_c, 0, 60, 64
1, 1104, Note_off_c, 0, 45, 64
1, 1104, Note_on_c, 0, 47, 77
1, 1104, Note_on_c, 0, 60, 77
1, 1104, Note_off_c, 0, 64, 64
1, 1128, Note_off_c, 0, 57, 64
1, 1128, Note_on_c, 0, 59, 35
1, 1128, Note_off_c, 0, 60, 64
1, 1151, Note_off_c, 0, 52, 64
1, 1152, Note_on_c, 0, 40, 77
1, 1152, Note_off_c, 0, 47, 64
1, 1152, Note_on_c, 0, 52, 53
1, 1176, Note_on_c, 0, 55, 77
1, 1200, Note_on_c, 0, 47, 77
1, 1248, Note_off_c, 0, 59, 64
1, 1248, Note_on_c, 0, 64, 13
1, 1295, Note_off_c, 0, 40, 64
1, 1295, Note_off_c, 0, 52, 64
1, 1296, Note_on_c, 0, 40, 77
1, 1296, Note_on_c, 0, 52, 47
1, 1320, Note_off_c, 0, 67, 64
1, 1343, Note_off_c, 0, 47, 64
1, 1344, Note_on_c, 0, 47, 69
1, 1391, Note_off_c, 0, 55, 64
1, 1392, Note_on_c, 0, 55, 69
1, 1392, Note_off_c, 0, 64, 64
1, 1440, Note_on_c, 0, 59, 77
1, 1488, Note_off_c, 0, 40, 64
1, 1488, Note_on_c, 0, 43, 77
1, 1488, Note_off_c, 0, 52, 64
1, 1488, Note_off_c, 0, 59, 64
1, 1488, Note_on_c, 0, 67, 77
1, 1536, Note_off_c, 0, 43, 64
1, 1536, Note_on_c, 0, 45, 77
1, 1536, Note_off_c, 0, 47, 64
1, 1536, Note_off_c, 0, 55, 64
1, 1536, Note_on_c, 0, 57, 53
1, 1536, Note_off_c, 0, 67, 64
1, 1560, Note_on_c, 0, 60, 77
1, 1584, Note_on_c, 0, 52, 77
1, 1632, Note_on_c, 0, 69, 13
1, 1679, Note_off_c, 0, 45, 64
1, 1679, Note_off_c, 0, 57, 64
1, 1680, Note_on_c, 0, 45, 77
1, 1680, Note_on_c, 0, 57, 47
1, 1727, Note_off_c, 0, 52, 64
1, 1728, Note_on_c, 0, 52, 69
1, 1775, Note_off_c, 0, 60, 64
1, 1776, Note_on_c, 0, 60, 69
1, 1776, Note_off_c, 0, 69, 64
1, 1824, Note_on_c, 0, 64, 77
1, 1848, Note_on_c, 0, 67, 35
1, 1871, Note_off_c, 0, 60, 64
1, 1872, Note_off_c, 0, 45, 64
1, 1872, Note_on_c, 0, 47, 77
1, 1872, Note_on_c, 0, 60, 77
1, 1872, Note_off_c, 0, 64, 64
1, 1896, Note_off_c, 0, 57, 64
1, 1896, Note_on_c, 0, 59, 35
1, 1896, Note_off_c, 0, 60, 64
1, 1919, Note_off_c, 0, 52, 64
1, 1920, Note_on_c, 0, 40, 77
1, 1920, Note_off_c, 0, 47, 64
1, 1920, Note_on_c, 0, 52, 53
1, 1944, Note_on_c, 0, 55, 77
1, 1968, Note_on_c, 0, 47, 77
1, 2016, Note_off_c, 0, 59, 64
1, 2016, Note_on_c, 0, 64, 13
1, 2063, Note_off_c, 0, 40, 64
1, 2063, Note_off_c, 0, 52, 64
1, 2064, Note_on_c, 0, 40, 77
1, 2064, Note_on_c, 0, 52, 47
1, 2088, Note_off_c, 0, 67, 64
1, 2111, Note_off_c, 0, 47, 64
1, 2112, Note_on_c, 0, 47, 69
1, 2159, Note_off_c, 0, 55, 64
1, 2160, Note_on_c, 0, 55, 69
1, 2160, Note_off_c, 0, 64, 64
1, 2208, Note_on_c, 0, 59, 77
1, 2256, Note_off_c, 0, 40, 64
1, 2256, Note_on_c, 0, 43, 77
1, 2256, Note_off_c, 0, 52, 64
1, 2256, Note_on_c, 0, 67, 77
1, 2304, Note_off_c, 0, 43, 64
1, 2304, Note_on_c, 0, 45, 77
1, 2304, Note_off_c, 0, 47, 64
1, 2304, Note_off_c, 0, 55, 64
1, 2304, Note_on_c, 0, 57, 53
1, 2304, Note_off_c, 0, 59, 64
1, 2304, Note_off_c, 0, 67, 64
1, 2328, Note_on_c, 0, 60, 77
1, 2352, Note_on_c, 0, 52, 77
1, 2400, Note_on_c, 0, 69, 13
1, 2447, Note_off_c, 0, 45, 64
1, 2447, Note_off_c, 0, 57, 64
1, 2448, Note_on_c, 0, 45, 77
1, 2448, Note_on_c, 0, 57, 47
1, 2495, Note_off_c, 0, 52, 64
1, 2496, Note_on_c, 0, 52, 69
1, 2543, Note_off_c, 0, 60, 64
1, 2544, Note_on_c, 0, 60, 69
1, 2544, Note_off_c, 0, 69, 64
1, 2592, Note_on_c, 0, 64, 77
1, 2616, Note_on_c, 0, 67, 35
1, 2639, Note_off_c, 0, 60, 64
1, 2640, Note_off_c, 0, 45, 64
1, 2640, Note_on_c, 0, 47, 77
1, 2640, Note_on_c, 0, 60, 77
1, 2640, Note_off_c, 0, 64, 64
1, 2664, Note_off_c, 0, 57, 64
1, 2664, Note_on_c, 0, 59, 35
1, 2664, Note_off_c, 0, 60, 64
1, 2687, Note_off_c, 0, 52, 64
1, 2688, Note_on_c, 0, 40, 77
1, 2688, Note_off_c, 0, 47, 64
1, 2688, Note_on_c, 0, 52, 53
1, 2712, Note_on_c, 0, 55, 77
1, 2736, Note_on_c, 0, 47, 77
1, 2784, Note_off_c, 0, 59, 64
1, 2784, Note_on_c, 0, 64, 13
1, 2831, Note_off_c, 0, 40, 64
1, 2831, Note_off_c, 0, 52, 64
1, 2832, Note_on_c, 0, 40, 77
1, 2832, Note_on_c, 0, 52, 47
1, 2856, Note_off_c, 0, 67, 64
1, 2879, Note_off_c, 0, 47, 64
1, 2880, Note_on_c, 0, 47, 69
1, 2927, Note_off_c, 0, 55, 64
1, 2928, Note_on_c, 0, 55, 69
1, 2928, Note_off_c, 0, 64, 64
1, 2976, Note_on_c, 0, 59, 77
1, 3024, Note_off_c, 0, 40, 64
1, 3024, Note_on_c, 0, 43, 77
1, 3024, Note_off_c, 0, 52, 64
1, 3024, Note_off_c, 0, 59, 64
1, 3024, Note_on_c, 0, 67, 77
1, 3072, Note_off_c, 0, 43, 64
1, 3072, Note_off_c, 0, 47, 64
1, 3072, Note_off_c, 0, 55, 64
1, 3072, Note_off_c, 0, 67, 64
1, 1, Note_on_c, 0, 34, 77
1, 1, Note_on_c, 0, 54, 72
1, 1, Note_on_c, 0, 75, 72
1, 89, Note_off_c, 0, 34, 50
1, 97, Note_on_c, 0, 46, 82
1, 140, Note_off_c, 0, 75, 50
1, 146, Note_on_c, 0, 77, 68
1, 192, Note_off_c, 0, 77, 60
1, 192, Note_on_c, 0, 78, 64
1, 193, Note_off_c, 0, 54, 50
1, 195, Note_on_c, 0, 53, 88
1, 216, Note_off_c, 0, 46, 43
1, 288, Note_on_c, 0, 46, 77
1, 342, Note_on_c, 0, 75, 69
1, 352, Note_off_c, 0, 78, 28
1, 379, Note_off_c, 0, 46, 71
1, 384, Note_on_c, 0, 34, 89
1, 384, Note_off_c, 0, 53, 53
1, 385, Note_on_c, 0, 54, 62
1, 388, Note_on_c, 0, 71, 80
1, 389, Note_off_c, 0, 75, 69
1, 463, Note_off_c, 0, 71, 19
1, 481, Note_on_c, 0, 46, 83
1, 483, Note_on_c, 0, 70, 81
1, 485, Note_off_c, 0, 34, 72
1, 567, Note_off_c, 0, 70, 74
1, 575, Note_on_c, 0, 66, 84
1, 577, Note_off_c, 0, 54, 61
1, 578, Note_on_c, 0, 53, 93
1, 587, Note_off_c, 0, 46, 56
1, 667, Note_off_c, 0, 66, 44
1, 670, Note_on_c, 0, 46, 80
1, 672, Note_on_c, 0, 65, 74
1, 755, Note_off_c, 0, 65, 81
1, 766, Note_off_c, 0, 53, 65
1, 769, Note_on_c, 0, 34, 87
1, 769, Note_on_c, 0, 75, 72
1, 770, Note_on_c, 0, 54, 64
1, 773, Note_off_c, 0, 46, 56
1, 859, Note_off_c, 0, 34, 62
1, 863, Note_on_c, 0, 46, 76
1, 908, Note_off_c, 0, 75, 50
1, 914, Note_on_c, 0, 77, 68
1, 960, Note_off_c, 0, 54, 55
1, 960, Note_off_c, 0, 77, 60
1, 960, Note_on_c, 0, 78, 64
1, 962, Note_on_c, 0, 53, 99
1, 971, Note_off_c, 0, 46, 60
1, 1054, Note_on_c, 0, 46, 75
1, 1110, Note_on_c, 0, 75, 69
1, 1120, Note_off_c, 0, 78, 28
1, 1146, Note_off_c, 0, 46, 74
1, 1150, Note_on_c, 0, 34, 93
1, 1150, Note_off_c, 0, 53, 47
1, 1152, Note_on_c, 0, 54, 80
1, 1156, Note_on_c, 0, 71, 80
1, 1157, Note_off_c, 0, 75, 69
1, 1231, Note_off_c, 0, 71, 19
1, 1247, Note_on_c, 0, 46, 77
1, 1251, Note_off_c, 0, 34, 50
1, 1251, Note_on_c, 0, 70, 81
1, 1335, Note_off_c, 0, 70, 74
1, 1342, Note_off_c, 0, 54, 29
1, 1343, Note_on_c, 0, 54, 78
1, 1343, Note_on_c, 0, 66, 84
1, 1435, Note_off_c, 0, 66, 44
1, 1438, Note_off_c, 0, 54, 53
1, 1438, Note_on_c, 0, 56, 82
1, 1440, Note_on_c, 0, 65, 74
1, 1448, Note_off_c, 0, 46, 54
1, 1523, Note_off_c, 0, 65, 81
1, 1535, Note_off_c, 0, 56, 27
1, 0, Note_on_c, 0, 33, 66
1, 0, Note_on_c, 0, 45, 58
1, 0, Note_on_c, 0, 64, 77
1, 23, Note_off_c, 0, 64, 34
1, 34, Note_off_c, 0, 45, 30
1, 96, Note_on_c, 0, 52, 61
1, 96, Note_on_c, 0, 57, 77
1, 109, Note_off_c, 0, 57, 31
1, 124, Note_off_c, 0, 52, 30
1, 192, Note_on_c, 0, 57, 59
1, 220, Note_off_c, 0, 57, 24
1, 288, Note_on_c, 0, 53, 34
1, 288, Note_on_c, 0, 59, 77
1, 318, Note_off_c, 0, 59, 48
1, 321, Note_off_c, 0, 53, 47
1, 336, Note_on_c, 0, 60, 77
1, 351, Note_off_c, 0, 60, 37
1, 384, Note_on_c, 0, 55, 63
1, 384, Note_on_c, 0, 62, 77
1, 410, Note_off_c, 0, 55, 31
1, 414, Note_off_c, 0, 62, 15
1, 480, Note_on_c, 0, 47, 53
1, 480, Note_on_c, 0, 64, 77
1, 511, Note_off_c, 0, 64, 22
1, 516, Note_off_c, 0, 47, 39
1, 575, Note_off_c, 0, 33, 49
1, 576, Note_on_c, 0, 38, 61
1, 576, Note_on_c, 0, 48, 53
1, 576, Note_on_c, 0, 62, 77
1, 611, Note_off_c, 0, 48, 29
1, 618, Note_off_c, 0, 62, 1
1, 624, Note_on_c, 0, 60, 77
1, 664, Note_off_c, 0, 60, 45
1, 672, Note_on_c, 0, 50, 55
1, 672, Note_on_c, 0, 59, 77
1, 700, Note_off_c, 0, 50, 30
1, 710, Note_off_c, 0, 59, 42
1, 767, Note_off_c, 0, 38, 44
1, 768, Note_on_c, 0, 33, 59
1, 768, Note_on_c, 0, 45, 67
1, 768, Note_on_c, 0, 64, 77
1, 791, Note_off_c, 0, 64, 34
1, 797, Note_off_c, 0, 45, 36
1, 864, Note_on_c, 0, 52, 60
1, 864, Note_on_c, 0, 57, 77
1, 877, Note_off_c, 0, 57, 31
1, 897, Note_off_c, 0, 52, 28
1, 960, Note_on_c, 0, 57, 67
1, 987, Note_off_c, 0, 57, 32
1, 1056, Note_on_c, 0, 53, 60
1, 1056, Note_on_c, 0, 59, 77
1, 1086, Note_off_c, 0, 59, 48
1, 1095, Note_off_c, 0, 53, 38
1, 1104, Note_on_c, 0, 60, 77
1, 1119, Note_off_c, 0, 60, 37
1, 1152, Note_on_c, 0, 55, 58
1, 1152, Note_on_c, 0, 62, 77
1, 1181, Note_off_c, 0, 55, 19
1, 1182, Note_off_c, 0, 62, 15
1, 1248, Note_on_c, 0, 47, 73
1, 1248, Note_on_c, 0, 64, 77
1, 1279, Note_off_c, 0, 64, 22
1, 1284, Note_off_c, 0, 47, 49
1, 1343, Note_off_c, 0, 33, 25
1, 1344, Note_on_c, 0, 40, 46
1, 1344, Note_on_c, 0, 48, 62
1, 1344, Note_on_c, 0, 62, 77
1, 1372, Note_off_c, 0, 48, 37
1, 1386, Note_off_c, 0, 62, 1
1, 1392, Note_on_c, 0, 60, 77
1, 1432, Note_off_c, 0, 60, 45
1, 1440, Note_on_c, 0, 50, 66
1, 1440, Note_on_c, 0, 59, 77
1, 1454, Note_off_c, 0, 50, 58
1, 1478, Note_off_c, 0, 59, 42
1, 1535, Note_off_c, 0, 40, 67
1, 0, Pitch_bend_c, 0, 8192
1, 0, Control_c, 0, 6, 12
1, 0, Control_c, 0, 7, 100
1, 0, Control_c, 0, 10, 64
1, 0, Control_c, 0, 100, 0
1, 0, Control_c, 0, 101, 0
1, 48, Note_on_c, 0, 67, 100
1, 72, Note_off_c, 0, 67, 64
1, 72, Note_on_c, 0, 77, 100
1, 96, Note_on_c, 0, 76, 100
1, 96, Note_off_c, 0, 77, 64
1, 120, Note_off_c, 0, 76, 64
1, 132, Note_on_c, 0, 72, 100
1, 156, Note_off_c, 0, 72, 64
1, 168, Note_on_c, 0, 67, 100
1, 192, Note_off_c, 0, 67, 64
1, 240, Note_on_c, 0, 64, 100
1, 264, Note_on_c, 0, 67, 100
1, 276, Note_off_c, 0, 64, 64
1, 288, Note_off_c, 0, 67, 64
1, 288, Note_on_c, 0, 74, 100
1, 312, Note_off_c, 0, 74, 64
1, 324, Note_on_c, 0, 72, 100
1, 348, Note_off_c, 0, 72, 64
1, 360, Note_on_c, 0, 76, 100
1, 384, Note_off_c, 0, 76, 64
1, 432, Note_on_c, 0, 67, 100
1, 456, Note_off_c, 0, 67, 64
1, 456, Note_on_c, 0, 77, 100
1, 480, Note_on_c, 0, 76, 100
1, 480, Note_off_c, 0, 77, 64
1, 504, Note_off_c, 0, 76, 64
1, 516, Note_on_c, 0, 72, 100
1, 540, Note_off_c, 0, 72, 64
1, 552, Note_on_c, 0, 67, 100
1, 576, Note_off_c, 0, 67, 64
1, 624, Note_on_c, 0, 64, 100
1, 648, Note_on_c, 0, 67, 100
1, 660, Note_off_c, 0, 64, 64
1, 672, Note_off_c, 0, 67, 64
1, 672, Note_on_c, 0, 74, 100
1, 696, Note_off_c, 0, 74, 64
1, 708, Note_on_c, 0, 76, 100
1, 732, Note_off_c, 0, 76, 64
1, 744, Note_on_c, 0, 72, 100
1, 768, Note_off_c, 0, 72, 64
1, 816, Note_on_c, 0, 67, 100
1, 840, Note_off_c, 0, 67, 64
1, 840, Note_on_c, 0, 77, 100
1, 864, Note_on_c, 0, 76, 100
1, 864, Note_off_c, 0, 77, 64
1, 888, Note_off_c, 0, 76, 64
1, 900, Note_on_c, 0, 72, 100
1, 924, Note_off_c, 0, 72, 64
1, 936, Note_on_c, 0, 67, 100
1, 960, Note_off_c, 0, 67, 64
1, 1008, Note_on_c, 0, 64, 100
1, 1032, Note_on_c, 0, 67, 100
1, 1044, Note_off_c, 0, 64, 64
1, 1056, Note_off_c, 0, 67, 64
1, 1056, Note_on_c, 0, 74, 100
1, 1080, Note_off_c, 0, 74, 64
1, 1092, Note_on_c, 0, 72, 100
1, 1116, Note_off_c, 0, 72, 64
1, 1128, Note_on_c, 0, 76, 100
1, 1152, Note_off_c, 0, 76, 64
1, 1200, Note_on_c, 0, 67, 100
1, 1224, Note_off_c, 0, 67, 64
1, 1224, Note_on_c, 0, 77, 100
1, 1248, Note_on_c, 0, 76, 100
1, 1248, Note_off_c, 0, 77, 64
1, 1272, Note_off_c, 0, 76, 64
1, 1284, Note_on_c, 0, 72, 100
1, 1308, Note_off_c, 0, 72, 64
1, 1320, Note_on_c, 0, 67, 100
1, 1344, Note_off_c, 0, 67, 64
1, 1392, Note_on_c, 0, 64, 100
1, 1416, Note_on_c, 0, 67, 100
1, 1428, Note_off_c, 0, 64, 64
1, 1440, Note_off_c, 0, 67, 64
1, 1440, Note_on_c, 0, 74, 100
1, 1464, Note_off_c, 0, 74, 64
1, 1476, Note_on_c, 0, 76, 100
1, 1500, Note_off_c, 0, 76, 64
1, 1512, Note_on_c, 0, 72, 100
1, 1535, Note_off_c, 0, 72, 64
1, 1536, Pitch_bend_c, 0, 8192
1, 1536, Control_c, 0, 6, 12
1, 1536, Control_c, 0, 7, 100
1, 1536, Control_c, 0, 10, 64
1, 1536, Control_c, 0, 100, 0
1, 1536, Control_c, 0, 101, 0
1, 0, Note_on_c, 0, 45, 100
1, 0, Note_on_c, 0, 57, 100
1, 24, Note_off_c, 0, 57, 64
1, 48, Note_off_c, 0, 45, 64
1, 48, Note_on_c, 0, 65, 100
1, 72, Note_on_c, 0, 60, 100
1, 72, Note_off_c, 0, 65, 64
1, 96, Note_on_c, 0, 53, 100
1, 96, Note_off_c, 0, 60, 64
1, 96, Note_on_c, 0, 64, 100
1, 120, Note_off_c, 0, 64, 64
1, 144, Note_on_c, 0, 48, 100
1, 144, Note_off_c, 0, 53, 64
1, 144, Note_on_c, 0, 69, 100
1, 168, Note_off_c, 0, 69, 64
1, 192, Note_off_c, 0, 48, 64
1, 192, Note_on_c, 0, 52, 100
1, 240, Note_off_c, 0, 52, 64
1, 288, Note_on_c, 0, 57, 100
1, 336, Note_off_c, 0, 57, 64
1, 384, Note_on_c, 0, 52, 100
1, 384, Note_on_c, 0, 64, 100
1, 408, Note_off_c, 0, 64, 64
1, 408, Note_on_c, 0, 68, 100
1, 432, Note_off_c, 0, 52, 64
1, 432, Note_on_c, 0, 56, 100
1, 432, Note_on_c, 0, 60, 100
1, 432, Note_off_c, 0, 68, 64
1, 456, Note_off_c, 0, 60, 64
1, 480, Note_on_c, 0, 48, 100
1, 480, Note_off_c, 0, 56, 64
1, 480, Note_on_c, 0, 64, 100
1, 504, Note_off_c, 0, 64, 64
1, 528, Note_off_c, 0, 48, 64
1, 528, Note_on_c, 0, 68, 100
1, 552, Note_off_c, 0, 68, 64
1, 576, Note_on_c, 0, 52, 100
1, 624, Note_off_c, 0, 52, 64
1, 672, Note_on_c, 0, 56, 100
1, 720, Note_off_c, 0, 56, 64
1, 768, Note_on_c, 0, 45, 100
1, 768, Note_on_c, 0, 57, 100
1, 792, Note_off_c, 0, 57, 64
1, 816, Note_off_c, 0, 45, 64
1, 816, Note_on_c, 0, 65, 100
1, 840, Note_on_c, 0, 60, 100
1, 840, Note_off_c, 0, 65, 64
1, 864, Note_on_c, 0, 53, 100
1, 864, Note_off_c, 0, 60, 64
1, 864, Note_on_c, 0, 64, 100
1, 888, Note_off_c, 0, 64, 64
1, 912, Note_on_c, 0, 48, 100
1, 912, Note_off_c, 0, 53, 64
1, 912, Note_on_c, 0, 69, 100
1, 936, Note_off_c, 0, 69, 64
1, 960, Note_off_c, 0, 48, 64
1, 960, Note_on_c, 0, 52, 100
1, 1008, Note_off_c, 0, 52, 64
1, 1056, Note_on_c, 0, 57, 100
1, 1104, Note_off_c, 0, 57, 64
1, 1152, Note_on_c, 0, 52, 100
1, 1152, Note_on_c, 0, 64, 100
1, 1176, Note_off_c, 0, 64, 64
1, 1176, Note_on_c, 0, 68, 100
1, 1200, Note_off_c, 0, 52, 64
1, 1200, Note_on_c, 0, 56, 100
1, 1200, Note_on_c, 0, 60, 100
1, 1200, Note_off_c, 0, 68, 64
1, 1224, Note_off_c, 0, 60, 64
1, 1248, Note_on_c, 0, 48, 100
1, 1248, Note_off_c, 0, 56, 64
1, 1248, Note_on_c, 0, 64, 100
1, 1272, Note_off_c, 0, 64, 64
1, 1296, Note_off_c, 0, 48, 64
1, 1296, Note_on_c, 0, 68, 100
1, 1320, Note_off_c, 0, 68, 64
1, 1344, Note_on_c, 0, 52, 100
1, 1392, Note_off_c, 0, 52, 64
1, 1440, Note_on_c, 0, 56, 100
1, 1488, Note_off_c, 0, 56, 64
1, 0, Note_on_c, 0, 64, 68
1, 0, Note_on_c, 0, 69, 68
1, 47, Note_off_c, 0, 64, 64
1, 47, Note_off_c, 0, 69, 64
1, 48, Note_on_c, 0, 57, 68
1, 95, Note_off_c, 0, 57, 64
1, 96, Note_on_c, 0, 65, 68
1, 144, Note_on_c, 0, 57, 68
1, 191, Note_off_c, 0, 57, 64
1, 192, Note_on_c, 0, 62, 68
1, 192, Note_off_c, 0, 65, 64
1, 192, Note_on_c, 0, 71, 68
1, 239, Note_off_c, 0, 62, 64
1, 239, Note_off_c, 0, 71, 64
1, 240, Note_on_c, 0, 57, 68
1, 287, Note_off_c, 0, 57, 64
1, 288, Note_on_c, 0, 64, 68
1, 288, Note_on_c, 0, 72, 68
1, 335, Note_off_c, 0, 72, 64
1, 336, Note_on_c, 0, 57, 68
1, 336, Note_on_c, 0, 71, 68
1, 383, Note_off_c, 0, 57, 64
1, 383, Note_off_c, 0, 71, 64
1, 384, Note_off_c, 0, 64, 64
1, 384, Note_on_c, 0, 64, 68
1, 384, Note_on_c, 0, 77, 68
1, 431, Note_off_c, 0, 64, 64
1, 431, Note_off_c, 0, 77, 64
1, 432, Note_on_c, 0, 57, 68
1, 479, Note_off_c, 0, 57, 64
1, 480, Note_on_c, 0, 65, 68
1, 480, Note_on_c, 0, 74, 68
1, 527, Note_off_c, 0, 74, 64
1, 528, Note_on_c, 0, 57, 68
1, 575, Note_off_c, 0, 57, 64
1, 576, Note_on_c, 0, 62, 68
1, 576, Note_off_c, 0, 65, 64
1, 576, Note_on_c, 0, 71, 68
1, 623, Note_off_c, 0, 62, 64
1, 623, Note_off_c, 0, 71, 64
1, 624, Note_on_c, 0, 57, 68
1, 671, Note_off_c, 0, 57, 64
1, 672, Note_on_c, 0, 64, 68
1, 672, Note_on_c, 0, 72, 68
1, 719, Note_off_c, 0, 72, 64
1, 720, Note_on_c, 0, 57, 68
1, 720, Note_on_c, 0, 71, 68
1, 767, Note_off_c, 0, 57, 64
1, 767, Note_off_c, 0, 71, 64
1, 768, Note_off_c, 0, 64, 64
1, 768, Note_on_c, 0, 64, 68
1, 768, Note_on_c, 0, 69, 68
1, 815, Note_off_c, 0, 64, 64
1, 815, Note_off_c, 0, 69, 64
1, 816, Note_on_c, 0, 57, 68
1, 863, Note_off_c, 0, 57, 64
1, 864, Note_on_c, 0, 65, 68
1, 912, Note_on_c, 0, 57, 68
1, 959, Note_off_c, 0, 57, 64
1, 960, Note_on_c, 0, 62, 68
1, 960, Note_off_c, 0, 65, 64
1, 960, Note_on_c, 0, 71, 68
1, 1007, Note_off_c, 0, 62, 64
1, 1007, Note_off_c, 0, 71, 64
1, 1008, Note_on_c, 0, 57, 68
1, 1055, Note_off_c, 0, 57, 64
1, 1056, Note_on_c, 0, 64, 68
1, 1056, Note_on_c, 0, 72, 68
1, 1103, Note_off_c, 0, 72, 64
1, 1104, Note_on_c, 0, 57, 68
1, 1104, Note_on_c, 0, 71, 68
1, 1151, Note_off_c, 0, 57, 64
1, 1151, Note_off_c, 0, 71, 64
1, 1152, Note_off_c, 0, 64, 64
1, 1152, Note_on_c, 0, 64, 68
1, 1152, Note_on_c, 0, 77, 68
1, 1199, Note_off_c, 0, 64, 64
1, 1199, Note_off_c, 0, 77, 64
1, 1200, Note_on_c, 0, 57, 68
1, 1247, Note_off_c, 0, 57, 64
1, 1248, Note_on_c, 0, 65, 68
1, 1248, Note_on_c, 0, 74, 68
1, 1295, Note_off_c, 0, 74, 64
1, 1296, Note_on_c, 0, 57, 68
1, 1343, Note_off_c, 0, 57, 64
1, 1344, Note_on_c, 0, 62, 68
1, 1344, Note_off_c, 0, 65, 64
1, 1344, Note_on_c, 0, 71, 68
1, 1391, Note_off_c, 0, 62, 64
1, 1391, Note_off_c, 0, 71, 64
1, 1392, Note_on_c, 0, 57, 68
1, 1439, Note_off_c, 0, 57, 64
1, 1440, Note_on_c, 0, 64, 68
1, 1440, Note_on_c, 0, 72, 68
1, 1487, Note_off_c, 0, 72, 64
1, 1488, Note_on_c, 0, 57, 68
1, 1488, Note_on_c, 0, 71, 68
1, 1535, Note_off_c, 0, 57, 64
1, 1535, Note_off_c, 0, 71, 64
1, 1536, Note_off_c, 0, 64, 64
1, 4294967168, Note_on_c, 0, 33, 59
1, 4294967168, Note_on_c, 0, 45, 74
1, 4294967168, Note_on_c, 0, 57, 74
1, 4294967168, Note_on_c, 0, 76, 74
1, 4294967168, Note_on_c, 0, 84, 74
1, 4294967168, Note_on_c, 0, 88, 54
1, 4294967171, Note_on_c, 0, 69, 74
1, 4294967192, Note_off_c, 0, 88, 64
1, 4294967216, Note_off_c, 0, 33, 64
1, 4294967216, Note_on_c, 0, 89, 54
1, 4294967264, Note_off_c, 0, 89, 64
1, 4294967264, Note_on_c, 0, 94, 36
1, 4294967288, Note_off_c, 0, 94, 64
1, 4294967312, Note_on_c, 0, 33, 59
1, 4294967312, Note_on_c, 0, 93, 36
1, 4294967336, Note_off_c, 0, 33, 64
1, 4294967336, Note_on_c, 0, 36, 65
1, 4294967359, Note_off_c, 0, 69, 64
1, 4294967360, Note_on_c, 0, 34, 60
1, 4294967360, Note_off_c, 0, 36, 64
1, 4294967360, Note_off_c, 0, 45, 64
1, 4294967360, Note_on_c, 0, 46, 75
1, 4294967360, Note_off_c, 0, 57, 64
1, 4294967360, Note_on_c, 0, 58, 75
1, 4294967360, Note_on_c, 0, 62, 75
1, 4294967360, Note_on_c, 0, 72, 75
1, 4294967360, Note_off_c, 0, 76, 64
1, 4294967360, Note_off_c, 0, 84, 64
1, 4294967408, Note_off_c, 0, 34, 64
1, 4294967408, Note_on_c, 0, 67, 75
1, 4294967408, Note_on_c, 0, 76, 75
1, 4294967432, Note_on_c, 0, 34, 60
1, 4294967456, Note_on_c, 0, 91, 36
1, 4294967456, Note_off_c, 0, 93, 64
1, 4294967480, Note_off_c, 0, 34, 64
1, 4294967504, Note_on_c, 0, 34, 60
1, 4294967552, Note_off_c, 0, 34, 64
1, 4294967552, Note_on_c, 0, 88, 36
1, 4294967552, Note_off_c, 0, 91, 64
1, 4294967600, Note_off_c, 0, 88, 64
1, 4294967600, Note_on_c, 0, 89, 36
1, 4294967696, Note_off_c, 0, 89, 64
1, 4294967744, Note_on_c, 0, 34, 60
1, 4294967744, Note_on_c, 0, 86, 36
1, 4294967792, Note_off_c, 0, 34, 64
1, 4294967816, Note_on_c, 0, 34, 60
1, 4294967864, Note_off_c, 0, 34, 64
1, 4294967888, Note_on_c, 0, 34, 60
1, 4294967932, Note_off_c, 0, 67, 64
1, 4294967935, Note_off_c, 0, 76, 64
1, 4294967936, Note_on_c, 0, 33, 59
1, 4294967936, Note_off_c, 0, 34, 64
1, 4294967936, Note_on_c, 0, 45, 74
1, 4294967936, Note_off_c, 0, 46, 64
1, 4294967936, Note_on_c, 0, 57, 74
1, 4294967936, Note_off_c, 0, 58, 64
1, 4294967936, Note_off_c, 0, 62, 64
1, 4294967936, Note_off_c, 0, 72, 64
1, 4294967936, Note_on_c, 0, 76, 74
1, 4294967936, Note_on_c, 0, 84, 74
1, 4294967936, Note_off_c, 0, 86, 64
1, 4294967936, Note_on_c, 0, 88, 54
1, 4294967939, Note_on_c, 0, 69, 74
1, 4294967960, Note_off_c, 0, 88, 64
1, 4294967984, Note_off_c, 0, 33, 64
1, 4294967984, Note_on_c, 0, 89, 54
1, 4294968032, Note_off_c, 0, 89, 64
1, 4294968032, Note_on_c, 0, 94, 36
1, 4294968056, Note_off_c, 0, 94, 64
1, 4294968080, Note_on_c, 0, 33, 59
1, 4294968080, Note_on_c, 0, 93, 36
1, 4294968104, Note_off_c, 0, 33, 64
1, 4294968104, Note_on_c, 0, 36, 65
1, 4294968127, Note_off_c, 0, 69, 64
1, 4294968128, Note_on_c, 0, 34, 60
1, 4294968128, Note_off_c, 0, 36, 64
1, 4294968128, Note_off_c, 0, 45, 64
1, 4294968128, Note_on_c, 0, 46, 75
1, 4294968128, Note_off_c, 0, 57, 64
1, 4294968128, Note_on_c, 0, 58, 75
1, 4294968128, Note_on_c, 0, 62, 75
1, 4294968128, Note_on_c, 0, 72, 75
1, 4294968128, Note_off_c, 0, 76, 64
1, 4294968128, Note_off_c, 0, 84, 64
1, 4294968176, Note_off_c, 0, 34, 64
1, 4294968176, Note_on_c, 0, 67, 75
1, 4294968176, Note_on_c, 0, 76, 75
1, 4294968200, Note_on_c, 0, 34, 60
1, 4294968224, Note_on_c, 0, 91, 36
1, 4294968224, Note_off_c, 0, 93, 64
1, 4294968248, Note_off_c, 0, 34, 64
1, 4294968272, Note_on_c, 0, 34, 60
1, 4294968320, Note_off_c, 0, 34, 64
1, 4294968320, Note_on_c, 0, 88, 36
1, 4294968320, Note_off_c, 0, 91, 64
1, 4294968368, Note_off_c, 0, 88, 64
1, 4294968368, Note_on_c, 0, 89, 36
1, 4294968464, Note_off_c, 0, 89, 64
1, 4294968512, Note_on_c, 0, 34, 60
1, 4294968512, Note_on_c, 0, 86, 36
1, 4294968560, Note_off_c, 0, 34, 64
1, 4294968584, Note_on_c, 0, 34, 60
1, 4294968632, Note_off_c, 0, 34, 64
1, 4294968656, Note_on_c, 0, 34, 60
1, 4294968700, Note_off_c, 0, 67, 64
1, 4294968703, Note_off_c, 0, 76, 64
1, 4294968704, Note_off_c, 0, 34, 64
1, 4294968704, Note_off_c, 0, 46, 64
1, 4294968704, Note_off_c, 0, 58, 64
1, 4294968704, Note_off_c, 0, 62, 64
1, 4294968704, Note_off_c, 0, 72, 64
1, 4294968704, Note_off_c, 0, 86, 64
1, 0, Note_on_c, 0, 45, 52
1, 0, Note_on_c, 0, 57, 52
1, 0, Note_on_c, 0, 65, 52
1, 0, Note_on_c, 0, 69, 52
1, 0, Note_on_c, 0, 74, 52
1, 48, Note_off_c, 0, 45, 64
1, 48, Note_on_c, 0, 81, 52
1, 72, Note_on_c, 0, 45, 53
1, 120, Note_off_c, 0, 45, 64
1, 192, Note_off_c, 0, 81, 64
1, 192, Note_on_c, 0, 82, 54
1, 216, Note_off_c, 0, 82, 64
1, 216, Note_on_c, 0, 84, 54
1, 240, Note_off_c, 0, 84, 64
1, 240, Note_on_c, 0, 86, 54
1, 288, Note_off_c, 0, 74, 64
1, 288, Note_on_c, 0, 82, 53
1, 288, Note_off_c, 0, 86, 64
1, 336, Note_on_c, 0, 45, 53
1, 384, Note_off_c, 0, 45, 64
1, 384, Note_on_c, 0, 46, 52
1, 384, Note_off_c, 0, 57, 64
1, 384, Note_on_c, 0, 58, 52
1, 384, Note_on_c, 0, 64, 52
1, 384, Note_off_c, 0, 65, 64
1, 384, Note_on_c, 0, 67, 52
1, 384, Note_off_c, 0, 69, 64
1, 384, Note_on_c, 0, 70, 52
1, 384, Note_on_c, 0, 76, 52
1, 384, Note_off_c, 0, 82, 64
1, 432, Note_off_c, 0, 46, 64
1, 432, Note_on_c, 0, 79, 52
1, 456, Note_on_c, 0, 46, 52
1, 504, Note_off_c, 0, 46, 64
1, 576, Note_off_c, 0, 76, 64
1, 576, Note_off_c, 0, 79, 64
1, 576, Note_on_c, 0, 82, 54
1, 600, Note_off_c, 0, 82, 64
1, 600, Note_on_c, 0, 84, 54
1, 624, Note_on_c, 0, 81, 54
1, 624, Note_off_c, 0, 84, 64
1, 672, Note_on_c, 0, 79, 53
1, 672, Note_off_c, 0, 81, 64
1, 720, Note_on_c, 0, 46, 52
1, 720, Note_on_c, 0, 74, 61
1, 720, Note_off_c, 0, 79, 64
1, 767, Note_off_c, 0, 74, 64
1, 768, Note_on_c, 0, 45, 52
1, 768, Note_off_c, 0, 46, 64
1, 768, Note_on_c, 0, 57, 52
1, 768, Note_off_c, 0, 58, 64
1, 768, Note_off_c, 0, 64, 64
1, 768, Note_on_c, 0, 65, 52
1, 768, Note_off_c, 0, 67, 64
1, 768, Note_on_c, 0, 69, 52
1, 768, Note_off_c, 0, 70, 64
1, 768, Note_on_c, 0, 74, 52
1, 816, Note_off_c, 0, 45, 64
1, 816, Note_on_c, 0, 81, 52
1, 840, Note_on_c, 0, 45, 53
1, 888, Note_off_c, 0, 45, 64
1, 960, Note_off_c, 0, 81, 64
1, 960, Note_on_c, 0, 82, 54
1, 984, Note_off_c, 0, 82, 64
1, 984, Note_on_c, 0, 84, 54
1, 1008, Note_off_c, 0, 84, 64
1, 1008, Note_on_c, 0, 86, 54
1, 1056, Note_off_c, 0, 74, 64
1, 1056, Note_on_c, 0, 82, 53
1, 1056, Note_off_c, 0, 86, 64
1, 1104, Note_on_c, 0, 45, 53
1, 1152, Note_off_c, 0, 45, 64
1, 1152, Note_on_c, 0, 46, 52
1, 1152, Note_off_c, 0, 57, 64
1, 1152, Note_on_c, 0, 58, 52
1, 1152, Note_on_c, 0, 64, 52
1, 1152, Note_off_c, 0, 65, 64
1, 1152, Note_on_c, 0, 67, 52
1, 1152, Note_off_c, 0, 69, 64
1, 1152, Note_on_c, 0, 70, 52
1, 1152, Note_on_c, 0, 76, 52
1, 1152, Note_off_c, 0, 82, 64
1, 1200, Note_off_c, 0, 46, 64
1, 1200, Note_on_c, 0, 79, 52
1, 1224, Note_on_c, 0, 46, 52
1, 1272, Note_off_c, 0, 46, 64
1, 1344, Note_off_c, 0, 76, 64
1, 1344, Note_off_c, 0, 79, 64
1, 1344, Note_on_c, 0, 82, 54
1, 1368, Note_off_c, 0, 82, 64
1, 1368, Note_on_c, 0, 84, 54
1, 1392, Note_on_c, 0, 81, 54
1, 1392, Note_off_c, 0, 84, 64
1, 1440, Note_on_c, 0, 79, 53
1, 1440, Note_off_c, 0, 81, 64
1, 1488, Note_on_c, 0, 46, 52
1, 1488, Note_on_c, 0, 74, 61
1, 1488, Note_off_c, 0, 79, 64
1, 1535, Note_off_c, 0, 74, 64
1, 1536, Note_off_c, 0, 46, 64
1, 1536, Note_off_c, 0, 58, 64
1, 1536, Note_off_c, 0, 64, 64
1, 1536, Note_off_c, 0, 67, 64
1, 1536, Note_off_c, 0, 70, 64
1, 0, Note_on_c, 0, 45, 54
1, 0, Note_on_c, 0, 83, 62
1, 48, Note_on_c, 0, 57, 54
1, 48, Note_off_c, 0, 83, 64
1, 48, Note_on_c, 0, 84, 62
1, 96, Note_on_c, 0, 64, 54
1, 96, Note_on_c, 0, 83, 62
1, 96, Note_off_c, 0, 84, 64
1, 97, Note_on_c, 0, 76, 62
1, 144, Note_on_c, 0, 60, 55
1, 144, Note_off_c, 0, 76, 64
1, 144, Note_off_c, 0, 83, 64
1, 144, Note_on_c, 0, 84, 62
1, 145, Note_on_c, 0, 76, 62
1, 192, Note_on_c, 0, 69, 67
1, 192, Note_on_c, 0, 83, 62
1, 192, Note_off_c, 0, 84, 64
1, 239, Note_off_c, 0, 45, 64
1, 240, Note_on_c, 0, 45, 40
1, 240, Note_off_c, 0, 64, 64
1, 240, Note_off_c, 0, 83, 64
1, 240, Note_on_c, 0, 84, 62
1, 246, Note_on_c, 0, 64, 41
1, 287, Note_off_c, 0, 57, 64
1, 288, Note_on_c, 0, 57, 67
1, 288, Note_on_c, 0, 83, 62
1, 288, Note_off_c, 0, 84, 64
1, 335, Note_off_c, 0, 60, 64
1, 336, Note_on_c, 0, 60, 67
1, 336, Note_on_c, 0, 81, 62
1, 336, Note_off_c, 0, 83, 64
1, 337, Note_off_c, 0, 76, 64
1, 380, Note_off_c, 0, 69, 64
1, 383, Note_off_c, 0, 45, 64
1, 384, Note_on_c, 0, 45, 54
1, 384, Note_off_c, 0, 57, 64
1, 384, Note_off_c, 0, 60, 64
1, 384, Note_off_c, 0, 64, 64
1, 384, Note_off_c, 0, 81, 64
1, 384, Note_on_c, 0, 83, 62
1, 432, Note_on_c, 0, 57, 54
1, 432, Note_off_c, 0, 83, 64
1, 432, Note_on_c, 0, 84, 62
1, 480, Note_on_c, 0, 64, 54
1, 480, Note_on_c, 0, 83, 62
1, 480, Note_off_c, 0, 84, 64
1, 481, Note_on_c, 0, 76, 62
1, 528, Note_on_c, 0, 60, 53
1, 528, Note_off_c, 0, 76, 64
1, 528, Note_off_c, 0, 83, 64
1, 528, Note_on_c, 0, 84, 62
1, 529, Note_on_c, 0, 76, 62
1, 576, Note_on_c, 0, 69, 67
1, 576, Note_on_c, 0, 83, 62
1, 576, Note_off_c, 0, 84, 64
1, 624, Note_on_c, 0, 41, 40
1, 624, Note_off_c, 0, 45, 64
1, 624, Note_off_c, 0, 64, 64
1, 624, Note_off_c, 0, 83, 64
1, 624, Note_on_c, 0, 84, 62
1, 630, Note_on_c, 0, 64, 41
1, 672, Note_on_c, 0, 53, 67
1, 672, Note_off_c, 0, 57, 64
1, 672, Note_off_c, 0, 76, 64
1, 672, Note_on_c, 0, 83, 62
1, 672, Note_off_c, 0, 84, 64
1, 720, Note_on_c, 0, 57, 67
1, 720, Note_off_c, 0, 60, 64
1, 720, Note_on_c, 0, 74, 62
1, 720, Note_on_c, 0, 81, 62
1, 720, Note_off_c, 0, 83, 64
1, 764, Note_off_c, 0, 69, 64
1, 768, Note_off_c, 0, 41, 64
1, 768, Note_on_c, 0, 45, 54
1, 768, Note_off_c, 0, 53, 64
1, 768, Note_off_c, 0, 57, 64
1, 768, Note_off_c, 0, 64, 64
1, 768, Note_off_c, 0, 74, 64
1, 768, Note_off_c, 0, 81, 64
1, 768, Note_on_c, 0, 83, 62
1, 816, Note_on_c, 0, 57, 54
1, 816, Note_off_c, 0, 83, 64
1, 816, Note_on_c, 0, 84, 62
1, 864, Note_on_c, 0, 64, 54
1, 864, Note_on_c, 0, 83, 62
1, 864, Note_off_c, 0, 84, 64
1, 865, Note_on_c, 0, 76, 62
1, 912, Note_on_c, 0, 60, 53
1, 912, Note_off_c, 0, 76, 64
1, 912, Note_off_c, 0, 83, 64
1, 912, Note_on_c, 0, 84, 62
1, 913, Note_on_c, 0, 76, 62
1, 960, Note_on_c, 0, 69, 67
1, 960, Note_on_c, 0, 83, 62
1, 960, Note_off_c, 0, 84, 64
1, 1007, Note_off_c, 0, 45, 64
1, 1008, Note_on_c, 0, 45, 40
1, 1008, Note_off_c, 0, 64, 64
1, 1008, Note_off_c, 0, 83, 64
1, 1008, Note_on_c, 0, 84, 62
1, 1014, Note_on_c, 0, 64, 41
1, 1055, Note_off_c, 0, 57, 64
1, 1056, Note_on_c, 0, 57, 67
1, 1056, Note_on_c, 0, 83, 62
1, 1056, Note_off_c, 0, 84, 64
1, 1103, Note_off_c, 0, 60, 64
1, 1104, Note_on_c, 0, 60, 67
1, 1104, Note_on_c, 0, 81, 62
1, 1104, Note_off_c, 0, 83, 64
1, 1105, Note_off_c, 0, 76, 64
1, 1148, Note_off_c, 0, 69, 64
1, 1151, Note_off_c, 0, 45, 64
1, 1152, Note_on_c, 0, 45, 54
1, 1152, Note_off_c, 0, 57, 64
1, 1152, Note_off_c, 0, 60, 64
1, 1152, Note_off_c, 0, 64, 64
1, 1152, Note_off_c, 0, 81, 64
1, 1152, Note_on_c, 0, 83, 62
1, 1200, Note_on_c, 0, 57, 54
1, 1200, Note_off_c, 0, 83, 64
1, 1200, Note_on_c, 0, 84, 62
1, 1248, Note_on_c, 0, 64, 54
1, 1248, Note_on_c, 0, 83, 62
1, 1248, Note_off_c, 0, 84, 64
1, 1249, Note_on_c, 0, 76, 62
1, 1296, Note_on_c, 0, 60, 53
1, 1296, Note_off_c, 0, 76, 64
1, 1296, Note_off_c, 0, 83, 64
1, 1296, Note_on_c, 0, 84, 62
1, 1297, Note_on_c, 0, 76, 62
1, 1344, Note_on_c, 0, 69, 67
1, 1344, Note_on_c, 0, 83, 62
1, 1344, Note_off_c, 0, 84, 64
1, 1392, Note_on_c, 0, 41, 40
1, 1392, Note_off_c, 0, 45, 64
1, 1392, Note_off_c, 0, 64, 64
1, 1392, Note_off_c, 0, 83, 64
1, 1392, Note_on_c, 0, 84, 62
1, 1398, Note_on_c, 0, 64, 41
1, 1440, Note_on_c, 0, 53, 67
1, 1440, Note_off_c, 0, 57, 64
1, 1440, Note_on_c, 0, 83, 62
1, 1440, Note_off_c, 0, 84, 64
1, 1488, Note_on_c, 0, 57, 67
1, 1488, Note_off_c, 0, 60, 64
1, 1488, Note_on_c, 0, 81, 62
1, 1488, Note_off_c, 0, 83, 64
1, 1489, Note_off_c, 0, 76, 64
1, 1533, Note_off_c, 0, 69, 64
1, 1536, Note_off_c, 0, 41, 64
1, 1536, Note_off_c, 0, 53, 64
1, 1536, Note_off_c, 0, 57, 64
1, 1536, Note_off_c, 0, 64, 64
1, 1536, Note_off_c, 0, 81, 64
1, 0, Note_on_c, 0, 45, 40
1, 0, Note_on_c, 0, 64, 81
1, 0, Note_on_c, 0, 76, 127
1, 3, Note_on_c, 0, 57, 80
1, 3, Note_on_c, 0, 60, 62
1, 192, Note_on_c, 0, 52, 59
1, 317, Note_off_c, 0, 57, 99
1, 324, Note_off_c, 0, 60, 30
1, 382, Note_on_c, 0, 58, 43
1, 384, Note_off_c, 0, 45, 64
1, 384, Note_on_c, 0, 46, 40
1, 384, Note_off_c, 0, 76, 64
1, 384, Note_on_c, 0, 77, 127
1, 385, Note_on_c, 0, 53, 58
1, 387, Note_on_c, 0, 62, 83
1, 387, Note_off_c, 0, 64, 72
1, 387, Note_on_c, 0, 65, 65
1, 390, Note_off_c, 0, 52, 96
1, 576, Note_off_c, 0, 46, 64
1, 576, Note_on_c, 0, 50, 44
1, 576, Note_on_c, 0, 69, 80
1, 741, Note_off_c, 0, 69, 37
1, 743, Note_off_c, 0, 58, 23
1, 744, Note_off_c, 0, 53, 24
1, 745, Note_off_c, 0, 62, 114
1, 756, Note_off_c, 0, 65, 98
1, 768, Note_on_c, 0, 45, 47
1, 768, Note_off_c, 0, 50, 64
1, 768, Note_on_c, 0, 64, 81
1, 768, Note_on_c, 0, 76, 127
1, 768, Note_off_c, 0, 77, 64
1, 771, Note_on_c, 0, 57, 80
1, 771, Note_on_c, 0, 60, 62
1, 960, Note_on_c, 0, 52, 59
1, 1085, Note_off_c, 0, 57, 99
1, 1092, Note_off_c, 0, 60, 30
1, 1150, Note_on_c, 0, 58, 43
1, 1152, Note_off_c, 0, 45, 64
1, 1152, Note_on_c, 0, 46, 47
1, 1152, Note_off_c, 0, 76, 64
1, 1152, Note_on_c, 0, 77, 127
1, 1153, Note_on_c, 0, 53, 58
1, 1155, Note_on_c, 0, 62, 83
1, 1155, Note_off_c, 0, 64, 72
1, 1155, Note_on_c, 0, 65, 65
1, 1158, Note_off_c, 0, 52, 96
1, 1343, Note_off_c, 0, 46, 64
1, 1344, Note_on_c, 0, 50, 44
1, 1344, Note_on_c, 0, 70, 80
1, 1344, Note_on_c, 0, 79, 127
1, 1509, Note_off_c, 0, 70, 37
1, 1511, Note_off_c, 0, 58, 23
1, 1512, Note_off_c, 0, 53, 24
1, 1513, Note_off_c, 0, 62, 114
1, 1524, Note_off_c, 0, 65, 98
1, 1536, Note_off_c, 0, 50, 64
1, 1536, Note_off_c, 0, 77, 64
1, 1536, Note_off_c, 0, 79, 64
1, 0, Note_on_c, 0, 57, 90
1, 0, Note_on_c, 0, 60, 90
1, 0, Note_on_c, 0, 64, 90
1, 0, Note_on_c, 0, 69, 90
1, 0, Note_on_c, 0, 76, 90
1, 95, Note_off_c, 0, 76, 64
1, 96, Note_on_c, 0, 76, 90
1, 192, Note_on_c, 0, 72, 90
1, 192, Note_off_c, 0, 76, 64
1, 288, Note_off_c, 0, 72, 64
1, 288, Note_on_c, 0, 74, 90
1, 383, Note_off_c, 0, 57, 64
1, 383, Note_off_c, 0, 60, 64
1, 383, Note_off_c, 0, 69, 64
1, 384, Note_on_c, 0, 57, 90
1, 384, Note_on_c, 0, 60, 90
1, 384, Note_off_c, 0, 64, 64
1, 384, Note_on_c, 0, 65, 90
1, 384, Note_on_c, 0, 69, 90
1, 384, Note_off_c, 0, 74, 64
1, 384, Note_on_c, 0, 77, 90
1, 479, Note_off_c, 0, 77, 64
1, 480, Note_on_c, 0, 77, 90
1, 576, Note_on_c, 0, 74, 90
1, 576, Note_off_c, 0, 77, 64
1, 672, Note_off_c, 0, 74, 64
1, 672, Note_on_c, 0, 76, 90
1, 767, Note_off_c, 0, 57, 64
1, 767, Note_off_c, 0, 60, 64
1, 767, Note_off_c, 0, 69, 64
1, 767, Note_off_c, 0, 76, 64
1, 768, Note_on_c, 0, 57, 90
1, 768, Note_on_c, 0, 60, 90
1, 768, Note_on_c, 0, 64, 90
1, 768, Note_off_c, 0, 65, 64
1, 768, Note_on_c, 0, 69, 90
1, 768, Note_on_c, 0, 76, 90
1, 863, Note_off_c, 0, 76, 64
1, 864, Note_on_c, 0, 76, 90
1, 960, Note_on_c, 0, 72, 90
1, 960, Note_off_c, 0, 76, 64
1, 1056, Note_off_c, 0, 72, 64
1, 1056, Note_on_c, 0, 74, 90
1, 1151, Note_off_c, 0, 57, 64
1, 1151, Note_off_c, 0, 60, 64
1, 1151, Note_off_c, 0, 69, 64
1, 1152, Note_on_c, 0, 57, 90
1, 1152, Note_on_c, 0, 60, 90
1, 1152, Note_off_c, 0, 64, 64
1, 1152, Note_on_c, 0, 65, 90
1, 1152, Note_on_c, 0, 69, 90
1, 1152, Note_off_c, 0, 74, 64
1, 1152, Note_on_c, 0, 77, 90
1, 1247, Note_off_c, 0, 77, 64
1, 1248, Note_on_c, 0, 77, 90
1, 1344, Note_on_c, 0, 74, 90
1, 1344, Note_off_c, 0, 77, 64
1, 1440, Note_off_c, 0, 74, 64
1, 1440, Note_on_c, 0, 76, 90
1, 1536, Note_off_c, 0, 57, 64
1, 1536, Note_off_c, 0, 60, 64
1, 1536, Note_off_c, 0, 65, 64
1, 1536, Note_off_c, 0, 69, 64
1, 1536, Note_off_c, 0, 76, 64
1, 0, Note_on_c, 0, 33, 72
1, 0, Note_on_c, 0, 45, 72
1, 24, Note_on_c, 0, 64, 74
1, 40, Note_off_c, 0, 33, 64
1, 48, Note_on_c, 0, 69, 74
1, 72, Note_on_c, 0, 33, 74
1, 96, Note_on_c, 0, 82, 74
1, 112, Note_off_c, 0, 33, 64
1, 144, Note_on_c, 0, 33, 74
1, 144, Note_on_c, 0, 77, 74
1, 181, Note_off_c, 0, 33, 64
1, 192, Note_on_c, 0, 34, 74
1, 192, Note_off_c, 0, 45, 64
1, 192, Note_on_c, 0, 46, 74
1, 240, Note_off_c, 0, 34, 64
1, 528, Note_on_c, 0, 34, 74
1, 564, Note_off_c, 0, 34, 64
1, 576, Note_on_c, 0, 34, 74
1, 576, Note_on_c, 0, 89, 74
1, 615, Note_off_c, 0, 34, 64
1, 672, Note_on_c, 0, 88, 74
1, 672, Note_off_c, 0, 89, 64
1, 720, Note_on_c, 0, 36, 74
1, 720, Note_on_c, 0, 62, 74
1, 720, Note_off_c, 0, 64, 64
1, 759, Note_off_c, 0, 36, 64
1, 768, Note_on_c, 0, 33, 72
1, 768, Note_on_c, 0, 45, 72
1, 768, Note_off_c, 0, 46, 64
1, 768, Note_off_c, 0, 62, 64
1, 768, Note_off_c, 0, 69, 64
1, 768, Note_off_c, 0, 77, 64
1, 768, Note_off_c, 0, 82, 64
1, 768, Note_off_c, 0, 88, 64
1, 792, Note_on_c, 0, 64, 74
1, 808, Note_off_c, 0, 33, 64
1, 816, Note_on_c, 0, 69, 74
1, 840, Note_on_c, 0, 33, 74
1, 864, Note_on_c, 0, 82, 74
1, 880, Note_off_c, 0, 33, 64
1, 912, Note_on_c, 0, 33, 74
1, 912, Note_on_c, 0, 77, 74
1, 949, Note_off_c, 0, 33, 64
1, 960, Note_on_c, 0, 34, 74
1, 960, Note_off_c, 0, 45, 64
1, 960, Note_on_c, 0, 46, 74
1, 1008, Note_off_c, 0, 34, 64
1, 1296, Note_on_c, 0, 34, 74
1, 1332, Note_off_c, 0, 34, 64
1, 1343, Note_off_c, 0, 64, 64
1, 1344, Note_on_c, 0, 34, 74
1, 1344, Note_on_c, 0, 64, 74
1, 1383, Note_off_c, 0, 34, 64
1, 1391, Note_off_c, 0, 69, 64
1, 1392, Note_on_c, 0, 69, 74
1, 1439, Note_off_c, 0, 77, 64
1, 1440, Note_on_c, 0, 34, 74
1, 1440, Note_on_c, 0, 77, 74
1, 1473, Note_off_c, 0, 34, 64
1, 1487, Note_off_c, 0, 82, 64
1, 1488, Note_on_c, 0, 33, 74
1, 1488, Note_on_c, 0, 82, 74
1, 1520, Note_off_c, 0, 33, 64
1, 1525, Note_off_c, 0, 77, 64
1, 1536, Note_off_c, 0, 46, 64
1, 1536, Note_off_c, 0, 64, 64
1, 1536, Note_off_c, 0, 69, 64
1, 1536, Note_off_c, 0, 82, 64
1, 4294967168, Note_on_c, 0, 57, 95
1, 4294967169, Note_on_c, 0, 45, 65
1, 4294967169, Note_on_c, 0, 48, 71
1, 4294967210, Note_off_c, 0, 57, 64
1, 4294967216, Note_on_c, 0, 52, 83
1, 4294967239, Note_on_c, 0, 57, 80
1, 4294967261, Note_on_c, 0, 64, 108
1, 4294967290, Note_off_c, 0, 52, 64
1, 4294967298, Note_off_c, 0, 45, 64
1, 4294967300, Note_off_c, 0, 48, 64
1, 4294967301, Note_off_c, 0, 64, 64
1, 4294967312, Note_on_c, 0, 52, 86
1, 4294967312, Note_off_c, 0, 57, 64
1, 4294967361, Note_on_c, 0, 62, 99
1, 4294967363, Note_on_c, 0, 41, 74
1, 4294967372, Note_off_c, 0, 52, 64
1, 4294967407, Note_off_c, 0, 62, 64
1, 4294967431, Note_on_c, 0, 60, 97
1, 4294967475, Note_off_c, 0, 60, 64
1, 4294967479, Note_on_c, 0, 59, 88
1, 4294967485, Note_off_c, 0, 41, 64
1, 4294967499, Note_off_c, 0, 59, 64
1, 4294967503, Note_on_c, 0, 57, 92
1, 4294967525, Note_off_c, 0, 57, 64
1, 4294967528, Note_on_c, 0, 47, 46
1, 4294967529, Note_on_c, 0, 56, 67
1, 4294967549, Note_off_c, 0, 47, 64
1, 4294967552, Note_on_c, 0, 40, 66
1, 4294967552, Note_on_c, 0, 50, 70
1, 4294967553, Note_off_c, 0, 56, 64
1, 4294967553, Note_on_c, 0, 60, 93
1, 4294967609, Note_off_c, 0, 60, 64
1, 4294967625, Note_on_c, 0, 59, 104
1, 4294967645, Note_off_c, 0, 59, 64
1, 4294967697, Note_on_c, 0, 57, 98
1, 4294967788, Note_off_c, 0, 57, 64
1, 4294967793, Note_on_c, 0, 56, 98
1, 4294967856, Note_off_c, 0, 40, 64
1, 4294967875, Note_off_c, 0, 56, 64
1, 4294967884, Note_off_c, 0, 50, 64
1, 4294967890, Note_on_c, 0, 57, 92
1, 4294967912, Note_off_c, 0, 57, 64
1, 4294967937, Note_on_c, 0, 45, 63
1, 4294967937, Note_on_c, 0, 52, 63
1, 4294967938, Note_on_c, 0, 48, 60
1, 4294967938, Note_on_c, 0, 57, 85
1, 4294967984, Note_on_c, 0, 69, 98
1, 4294968014, Note_off_c, 0, 69, 64
1, 4294968033, Note_on_c, 0, 64, 79
1, 4294968073, Note_off_c, 0, 48, 64
1, 4294968076, Note_off_c, 0, 45, 64
1, 4294968080, Note_off_c, 0, 64, 64
1, 4294968082, Note_on_c, 0, 60, 87
1, 4294968084, Note_off_c, 0, 52, 64
1, 4294968128, Note_on_c, 0, 41, 52
1, 4294968128, Note_on_c, 0, 45, 58
1, 4294968129, Note_on_c, 0, 65, 103
1, 4294968130, Note_on_c, 0, 48, 58
1, 4294968139, Note_off_c, 0, 60, 64
1, 4294968154, Note_off_c, 0, 65, 64
1, 4294968178, Note_on_c, 0, 64, 88
1, 4294968189, Note_off_c, 0, 57, 64
1, 4294968218, Note_off_c, 0, 64, 64
1, 4294968225, Note_on_c, 0, 62, 95
1, 4294968243, Note_off_c, 0, 48, 64
1, 4294968252, Note_off_c, 0, 45, 64
1, 4294968261, Note_off_c, 0, 41, 64
1, 4294968272, Note_off_c, 0, 62, 64
1, 4294968275, Note_on_c, 0, 60, 86
1, 4294968292, Note_off_c, 0, 60, 64
1, 4294968321, Note_on_c, 0, 40, 60
1, 4294968321, Note_on_c, 0, 47, 60
1, 4294968322, Note_on_c, 0, 59, 90
1, 4294968323, Note_on_c, 0, 52, 55
1, 4294968420, Note_on_c, 0, 56, 85
1, 4294968420, Note_off_c, 0, 59, 64
1, 4294968515, Note_on_c, 0, 64, 102
1, 4294968611, Note_on_c, 0, 59, 99
1, 4294968614, Note_off_c, 0, 40, 64
1, 4294968614, Note_off_c, 0, 56, 64
1, 4294968620, Note_off_c, 0, 64, 64
1, 4294968625, Note_off_c, 0, 47, 64
1, 4294968644, Note_off_c, 0, 52, 64
1, 4294968704, Note_off_c, 0, 59, 64
1, 0, Note_on_c, 0, 52, 60
1, 1, Note_on_c, 0, 67, 69
1, 2, Note_on_c, 0, 64, 63
1, 2, Note_on_c, 0, 72, 71
1, 3, Note_on_c, 0, 45, 53
1, 4, Note_on_c, 0, 48, 64
1, 73, Note_off_c, 0, 72, 64
1, 86, Note_off_c, 0, 67, 64
1, 189, Note_on_c, 0, 76, 102
1, 202, Note_off_c, 0, 48, 64
1, 205, Note_off_c, 0, 64, 64
1, 207, Note_off_c, 0, 52, 64
1, 212, Note_off_c, 0, 45, 64
1, 236, Note_off_c, 0, 76, 64
1, 284, Note_on_c, 0, 74, 78
1, 285, Note_on_c, 0, 65, 69
1, 286, Note_on_c, 0, 53, 63
1, 286, Note_on_c, 0, 69, 74
1, 288, Note_on_c, 0, 45, 59
1, 288, Note_on_c, 0, 50, 63
1, 457, Note_off_c, 0, 65, 64
1, 486, Note_off_c, 0, 69, 64
1, 573, Note_on_c, 0, 69, 81
1, 574, Note_on_c, 0, 65, 79
1, 628, Note_off_c, 0, 74, 64
1, 635, Note_off_c, 0, 53, 64
1, 641, Note_off_c, 0, 45, 64
1, 645, Note_off_c, 0, 50, 64
1, 660, Note_off_c, 0, 65, 64
1, 666, Note_off_c, 0, 69, 64
1, 768, Note_on_c, 0, 52, 72
1, 768, Note_on_c, 0, 72, 87
1, 769, Note_on_c, 0, 45, 66
1, 770, Note_on_c, 0, 64, 85
1, 772, Note_on_c, 0, 48, 73
1, 944, Note_off_c, 0, 72, 64
1, 960, Note_on_c, 0, 71, 89
1, 964, Note_off_c, 0, 48, 64
1, 966, Note_off_c, 0, 45, 64
1, 976, Note_off_c, 0, 64, 64
1, 977, Note_off_c, 0, 52, 64
1, 988, Note_off_c, 0, 71, 64
1, 1053, Note_on_c, 0, 62, 75
1, 1053, Note_on_c, 0, 68, 82
1, 1054, Note_on_c, 0, 52, 69
1, 1055, Note_on_c, 0, 47, 65
1, 1056, Note_on_c, 0, 44, 66
1, 1324, Note_off_c, 0, 62, 64
1, 1341, Note_on_c, 0, 64, 68
1, 1343, Note_on_c, 0, 56, 65
1, 1416, Note_off_c, 0, 68, 64
1, 1503, Note_off_c, 0, 44, 64
1, 1504, Note_off_c, 0, 47, 64
1, 1525, Note_off_c, 0, 52, 64
1, 1527, Note_off_c, 0, 56, 64
1, 1527, Note_off_c, 0, 64, 64
1, 0, Pitch_bend_c, 0, 8192
1, 0, Control_c, 0, 6, 12
1, 0, Control_c, 0, 7, 100
1, 0, Control_c, 0, 10, 64
1, 0, Control_c, 0, 100, 0
1, 0, Control_c, 0, 101, 0
1, 0, Note_on_c, 0, 72, 104
1, 96, Note_off_c, 0, 72, 64
1, 144, Note_on_c, 0, 67, 96
1, 192, Note_off_c, 0, 67, 64
1, 192, Note_on_c, 0, 72, 98
1, 240, Note_off_c, 0, 72, 64
1, 288, Note_on_c, 0, 74, 97
1, 336, Note_on_c, 0, 72, 96
1, 336, Note_off_c, 0, 74, 64
1, 432, Note_off_c, 0, 72, 64
1, 480, Note_on_c, 0, 76, 99
1, 528, Note_on_c, 0, 74, 99
1, 528, Note_off_c, 0, 76, 64
1, 576, Note_on_c, 0, 72, 97
1, 576, Note_off_c, 0, 74, 64
1, 624, Note_on_c, 0, 71, 94
1, 624, Note_off_c, 0, 72, 64
1, 720, Note_off_c, 0, 71, 64
1, 720, Note_on_c, 0, 72, 97
1, 744, Note_on_c, 0, 71, 96
1, 744, Note_off_c, 0, 72, 64
1, 768, Note_on_c, 0, 69, 101
1, 768, Note_off_c, 0, 71, 64
1, 864, Note_off_c, 0, 69, 64
1, 912, Note_on_c, 0, 64, 100
1, 960, Note_off_c, 0, 64, 64
1, 960, Note_on_c, 0, 69, 100
1, 1008, Note_off_c, 0, 69, 64
1, 1056, Note_on_c, 0, 70, 104
1, 1104, Note_on_c, 0, 69, 101
1, 1104, Note_off_c, 0, 70, 64
1, 1200, Note_off_c, 0, 69, 64
1, 1248, Note_on_c, 0, 72, 105
1, 1296, Note_on_c, 0, 69, 99
1, 1296, Note_off_c, 0, 72, 64
1, 1344, Note_on_c, 0, 64, 98
1, 1344, Note_off_c, 0, 69, 64
1, 1440, Note_off_c, 0, 64, 64
1, 1440, Note_on_c, 0, 67, 103
1, 1464, Note_on_c, 0, 64, 105
1, 1464, Note_off_c, 0, 67, 64
1, 1488, Note_off_c, 0, 64, 64
1, 1488, Note_on_c, 0, 67, 96
1, 1512, Note_off_c, 0, 67, 64
1, 1512, Note_on_c, 0, 69, 99
1, 1536, Note_off_c, 0, 69, 64
1, 3072, Pitch_bend_c, 0, 8192
1, 3072, Pitch_bend_c, 0, 8192
1, 3072, Control_c, 0, 6, 12
1, 3072, Control_c, 0, 6, 12
1, 3072, Control_c, 0, 7, 100
1, 3072, Control_c, 0, 7, 100
1, 3072, Control_c, 0, 10, 64
1, 3072, Control_c, 0, 10, 64
1, 3072, Control_c, 0, 100, 0
1, 3072, Control_c, 0, 100, 0
1, 3072, Control_c, 0, 101, 0
1, 3072, Control_c, 0, 101, 0
1, 3073, Pitch_bend_c, 0, 8192
1, 3073, Control_c, 0, 6, 12
1, 3073, Control_c, 0, 7, 100
1, 3073, Control_c, 0, 10, 64
1, 3073, Control_c, 0, 100, 0
1, 3073, Control_c, 0, 101, 0
1, 0, Note_on_c, 0, 33, 64
1, 6, Note_on_c, 0, 55, 75
1, 7, Note_on_c, 0, 60, 72
1, 18, Note_off_c, 0, 55, 64
1, 21, Note_off_c, 0, 60, 64
1, 28, Note_off_c, 0, 33, 64
1, 96, Note_on_c, 0, 52, 65
1, 112, Note_off_c, 0, 52, 64
1, 193, Note_on_c, 0, 76, 95
1, 194, Note_on_c, 0, 64, 90
1, 195, Note_on_c, 0, 60, 70
1, 201, Note_off_c, 0, 64, 64
1, 206, Note_off_c, 0, 60, 64
1, 210, Note_off_c, 0, 76, 64
1, 384, Note_on_c, 0, 74, 82
1, 387, Note_on_c, 0, 69, 79
1, 388, Note_on_c, 0, 62, 75
1, 389, Note_on_c, 0, 38, 66
1, 400, Note_off_c, 0, 38, 64
1, 400, Note_off_c, 0, 62, 64
1, 402, Note_off_c, 0, 69, 64
1, 406, Note_off_c, 0, 74, 64
1, 576, Note_on_c, 0, 65, 76
1, 577, Note_on_c, 0, 53, 68
1, 578, Note_on_c, 0, 50, 62
1, 578, Note_on_c, 0, 60, 72
1, 579, Note_on_c, 0, 57, 66
1, 589, Note_off_c, 0, 60, 64
1, 590, Note_off_c, 0, 53, 64
1, 590, Note_off_c, 0, 65, 64
1, 591, Note_off_c, 0, 57, 64
1, 592, Note_off_c, 0, 50, 64
1, 768, Note_on_c, 0, 40, 64
1, 771, Note_on_c, 0, 68, 68
1, 772, Note_on_c, 0, 62, 81
1, 773, Note_on_c, 0, 56, 65
1, 779, Note_off_c, 0, 40, 64
1, 786, Note_off_c, 0, 62, 64
1, 790, Note_off_c, 0, 56, 64
1, 793, Note_off_c, 0, 68, 64
1, 915, Note_on_c, 0, 72, 95
1, 943, Note_off_c, 0, 72, 64
1, 1002, Note_on_c, 0, 60, 51
1, 1004, Note_on_c, 0, 50, 47
1, 1005, Note_on_c, 0, 71, 72
1, 1006, Note_on_c, 0, 56, 55
1, 1012, Note_on_c, 0, 54, 38
1, 1020, Note_on_c, 0, 72, 80
1, 1024, Note_off_c, 0, 71, 64
1, 1032, Note_on_c, 0, 71, 71
1, 1042, Note_off_c, 0, 72, 64
1, 1056, Note_off_c, 0, 71, 64
1, 1058, Note_on_c, 0, 69, 86
1, 1070, Note_off_c, 0, 69, 64
1, 1105, Note_on_c, 0, 67, 81
1, 1124, Note_off_c, 0, 67, 64
1, 1154, Note_on_c, 0, 64, 61
1, 1184, Note_off_c, 0, 64, 64
1, 1199, Note_on_c, 0, 63, 55
1, 1216, Note_off_c, 0, 63, 64
1, 1246, Note_off_c, 0, 60, 64
1, 1250, Note_on_c, 0, 62, 66
1, 1280, Note_off_c, 0, 62, 64
1, 1281, Note_off_c, 0, 54, 64
1, 1287, Note_off_c, 0, 50, 64
1, 1293, Note_off_c, 0, 56, 64
1, 1296, Note_on_c, 0, 57, 53
1, 1320, Note_off_c, 0, 57, 64
1, 1344, Note_on_c, 0, 60, 97
1, 1392, Note_off_c, 0, 60, 64
1, 1440, Note_on_c, 0, 57, 75
1, 1461, Note_off_c, 0, 57, 64
1, 1492, Note_on_c, 0, 40, 48
1, 1525, Note_off_c, 0, 40, 64
1, 0, Note_on_c, 0, 45, 78
1, 5, Note_on_c, 0, 60, 79
1, 38, Note_off_c, 0, 60, 64
1, 41, Note_on_c, 0, 59, 76
1, 90, Note_off_c, 0, 59, 64
1, 94, Note_on_c, 0, 57, 75
1, 96, Note_on_c, 0, 48, 68
1, 190, Note_on_c, 0, 59, 89
1, 211, Note_off_c, 0, 57, 64
1, 285, Note_on_c, 0, 60, 91
1, 292, Note_off_c, 0, 45, 64
1, 298, Note_off_c, 0, 59, 64
1, 309, Note_off_c, 0, 48, 64
1, 380, Note_on_c, 0, 44, 77
1, 430, Note_on_c, 0, 59, 78
1, 436, Note_off_c, 0, 60, 64
1, 475, Note_on_c, 0, 56, 79
1, 480, Note_on_c, 0, 47, 60
1, 487, Note_off_c, 0, 59, 64
1, 570, Note_on_c, 0, 64, 92
1, 572, Note_on_c, 0, 52, 66
1, 670, Note_on_c, 0, 59, 83
1, 675, Note_off_c, 0, 44, 64
1, 678, Note_off_c, 0, 56, 64
1, 685, Note_off_c, 0, 64, 64
1, 704, Note_off_c, 0, 47, 64
1, 765, Note_on_c, 0, 62, 76
1, 766, Note_on_c, 0, 43, 76
1, 766, Note_off_c, 0, 52, 64
1, 766, Note_off_c, 0, 59, 64
1, 807, Note_on_c, 0, 59, 68
1, 859, Note_on_c, 0, 55, 78
1, 861, Note_off_c, 0, 59, 64
1, 863, Note_on_c, 0, 47, 64
1, 960, Note_on_c, 0, 52, 59
1, 961, Note_on_c, 0, 59, 72
1, 970, Note_off_c, 0, 62, 64
1, 1046, Note_off_c, 0, 55, 64
1, 1055, Note_on_c, 0, 62, 73
1, 1059, Note_off_c, 0, 59, 64
1, 1109, Note_off_c, 0, 43, 64
1, 1114, Note_off_c, 0, 52, 64
1, 1146, Note_off_c, 0, 47, 64
1, 1148, Note_on_c, 0, 42, 65
1, 1148, Note_on_c, 0, 57, 56
1, 1150, Note_on_c, 0, 54, 59
1, 1239, Note_on_c, 0, 45, 51
1, 1258, Note_off_c, 0, 54, 64
1, 1258, Note_off_c, 0, 57, 64
1, 1341, Note_on_c, 0, 57, 58
1, 1346, Note_on_c, 0, 54, 52
1, 1347, Note_on_c, 0, 50, 58
1, 1451, Note_off_c, 0, 45, 64
1, 1454, Note_off_c, 0, 50, 64
1, 1456, Note_off_c, 0, 42, 64
1, 1511, Note_off_c, 0, 57, 64
1, 1527, Note_off_c, 0, 54, 64
1, 1536, Note_off_c, 0, 62, 64
1, 0, Note_on_c, 0, 33, 50
1, 0, Note_on_c, 0, 57, 51
1, 0, Note_on_c, 0, 60, 55
1, 0, Note_on_c, 0, 64, 56
1, 1, Note_on_c, 0, 45, 50
1, 40, Note_off_c, 0, 57, 64
1, 41, Note_off_c, 0, 60, 64
1, 50, Note_off_c, 0, 64, 64
1, 95, Note_on_c, 0, 57, 56
1, 95, Note_on_c, 0, 60, 50
1, 95, Note_on_c, 0, 64, 48
1, 143, Note_off_c, 0, 64, 64
1, 144, Note_off_c, 0, 60, 64
1, 145, Note_off_c, 0, 57, 64
1, 186, Note_off_c, 0, 33, 64
1, 187, Note_off_c, 0, 45, 64
1, 191, Note_on_c, 0, 57, 57
1, 192, Note_on_c, 0, 60, 55
1, 192, Note_on_c, 0, 64, 63
1, 231, Note_off_c, 0, 60, 64
1, 234, Note_off_c, 0, 64, 64
1, 237, Note_off_c, 0, 57, 64
1, 287, Note_on_c, 0, 64, 60
1, 288, Note_on_c, 0, 57, 57
1, 288, Note_on_c, 0, 60, 63
1, 314, Note_off_c, 0, 60, 64
1, 317, Note_off_c, 0, 57, 64
1, 320, Note_off_c, 0, 64, 64
1, 335, Note_on_c, 0, 33, 57
1, 383, Note_on_c, 0, 65, 67
1, 384, Note_on_c, 0, 45, 69
1, 384, Note_on_c, 0, 57, 63
1, 384, Note_on_c, 0, 60, 62
1, 434, Note_off_c, 0, 57, 64
1, 436, Note_off_c, 0, 65, 64
1, 439, Note_off_c, 0, 60, 64
1, 478, Note_on_c, 0, 60, 44
1, 478, Note_on_c, 0, 65, 46
1, 479, Note_on_c, 0, 57, 55
1, 523, Note_off_c, 0, 57, 64
1, 525, Note_off_c, 0, 65, 64
1, 533, Note_off_c, 0, 60, 64
1, 575, Note_on_c, 0, 57, 60
1, 575, Note_on_c, 0, 60, 42
1, 575, Note_on_c, 0, 65, 61
1, 619, Note_off_c, 0, 65, 64
1, 623, Note_off_c, 0, 57, 64
1, 630, Note_off_c, 0, 60, 64
1, 664, Note_off_c, 0, 45, 64
1, 671, Note_on_c, 0, 57, 64
1, 671, Note_on_c, 0, 60, 33
1, 671, Note_on_c, 0, 65, 70
1, 682, Note_off_c, 0, 33, 64
1, 709, Note_off_c, 0, 57, 64
1, 718, Note_on_c, 0, 35, 55
1, 718, Note_off_c, 0, 60, 64
1, 727, Note_off_c, 0, 65, 64
1, 767, Note_on_c, 0, 28, 70
1, 767, Note_on_c, 0, 40, 69
1, 767, Note_on_c, 0, 56, 55
1, 767, Note_on_c, 0, 59, 62
1, 767, Note_on_c, 0, 64, 66
1, 768, Note_off_c, 0, 35, 64
1, 816, Note_off_c, 0, 56, 64
1, 821, Note_off_c, 0, 59, 64
1, 826, Note_off_c, 0, 64, 64
1, 863, Note_on_c, 0, 56, 58
1, 863, Note_on_c, 0, 59, 55
1, 863, Note_on_c, 0, 64, 51
1, 908, Note_off_c, 0, 64, 64
1, 916, Note_off_c, 0, 56, 64
1, 931, Note_off_c, 0, 59, 64
1, 959, Note_on_c, 0, 59, 56
1, 959, Note_on_c, 0, 65, 74
1, 960, Note_on_c, 0, 56, 63
1, 1002, Note_off_c, 0, 56, 64
1, 1005, Note_off_c, 0, 65, 64
1, 1008, Note_off_c, 0, 40, 64
1, 1014, Note_off_c, 0, 59, 64
1, 1025, Note_off_c, 0, 28, 64
1, 1054, Note_on_c, 0, 56, 60
1, 1054, Note_on_c, 0, 59, 46
1, 1054, Note_on_c, 0, 64, 69
1, 1093, Note_off_c, 0, 59, 64
1, 1095, Note_off_c, 0, 56, 64
1, 1102, Note_on_c, 0, 40, 55
1, 1113, Note_off_c, 0, 64, 64
1, 1143, Note_off_c, 0, 40, 64
1, 1150, Note_on_c, 0, 64, 56
1, 1151, Note_on_c, 0, 33, 55
1, 1151, Note_on_c, 0, 45, 55
1, 1151, Note_on_c, 0, 57, 61
1, 1151, Note_on_c, 0, 60, 65
1, 1201, Note_off_c, 0, 57, 64
1, 1201, Note_off_c, 0, 60, 64
1, 1207, Note_off_c, 0, 64, 64
1, 1247, Note_on_c, 0, 57, 57
1, 1247, Note_on_c, 0, 60, 58
1, 1247, Note_on_c, 0, 64, 62
1, 1292, Note_off_c, 0, 57, 64
1, 1292, Note_off_c, 0, 60, 64
1, 1292, Note_off_c, 0, 64, 64
1, 1343, Note_on_c, 0, 57, 64
1, 1343, Note_on_c, 0, 60, 68
1, 1343, Note_on_c, 0, 64, 68
1, 1389, Note_off_c, 0, 45, 64
1, 1395, Note_off_c, 0, 64, 64
1, 1396, Note_off_c, 0, 33, 64
1, 1396, Note_off_c, 0, 60, 64
1, 1398, Note_off_c, 0, 57, 64
1, 1439, Note_on_c, 0, 57, 75
1, 1439, Note_on_c, 0, 60, 70
1, 1439, Note_on_c, 0, 64, 74
1, 1474, Note_off_c, 0, 57, 64
1, 1484, Note_off_c, 0, 60, 64
1, 1484, Note_off_c, 0, 64, 64
1, 1486, Note_on_c, 0, 31, 64
1, 1486, Note_on_c, 0, 43, 64
1, 1500, Note_off_c, 0, 31, 64
1, 1501, Note_off_c, 0, 43, 64
1, 4294967168, Note_on_c, 0, 64, 95
1, 4294967169, Note_on_c, 0, 33, 84
1, 4294967169, Note_on_c, 0, 45, 104
1, 4294967169, Note_on_c, 0, 57, 94
1, 4294967169, Note_on_c, 0, 60, 87
1, 4294967220, Note_off_c, 0, 57, 64
1, 4294967228, Note_off_c, 0, 60, 64
1, 4294967228, Note_off_c, 0, 64, 64
1, 4294967262, Note_on_c, 0, 57, 90
1, 4294967262, Note_on_c, 0, 60, 86
1, 4294967262, Note_on_c, 0, 64, 90
1, 4294967271, Note_off_c, 0, 45, 64
1, 4294967300, Note_off_c, 0, 60, 64
1, 4294967304, Note_off_c, 0, 64, 64
1, 4294967327, Note_off_c, 0, 57, 64
1, 4294967358, Note_on_c, 0, 57, 92
1, 4294967358, Note_on_c, 0, 60, 98
1, 4294967358, Note_on_c, 0, 69, 94
1, 4294967403, Note_off_c, 0, 57, 64
1, 4294967405, Note_off_c, 0, 69, 64
1, 4294967407, Note_on_c, 0, 45, 100
1, 4294967414, Note_off_c, 0, 60, 64
1, 4294967433, Note_off_c, 0, 33, 64
1, 4294967454, Note_on_c, 0, 57, 102
1, 4294967454, Note_on_c, 0, 60, 93
1, 4294967454, Note_on_c, 0, 64, 89
1, 4294967457, Note_off_c, 0, 45, 64
1, 4294967492, Note_off_c, 0, 57, 64
1, 4294967493, Note_off_c, 0, 64, 64
1, 4294967502, Note_on_c, 0, 45, 87
1, 4294967509, Note_off_c, 0, 60, 64
1, 4294967551, Note_on_c, 0, 38, 92
1, 4294967551, Note_on_c, 0, 50, 99
1, 4294967551, Note_on_c, 0, 53, 99
1, 4294967551, Note_on_c, 0, 60, 85
1, 4294967551, Note_on_c, 0, 65, 86
1, 4294967555, Note_off_c, 0, 45, 64
1, 4294967591, Note_off_c, 0, 65, 64
1, 4294967596, Note_off_c, 0, 53, 64
1, 4294967605, Note_off_c, 0, 60, 64
1, 4294967646, Note_on_c, 0, 53, 98
1, 4294967646, Note_on_c, 0, 60, 72
1, 4294967646, Note_on_c, 0, 65, 87
1, 4294967671, Note_off_c, 0, 50, 64
1, 4294967690, Note_off_c, 0, 53, 64
1, 4294967696, Note_off_c, 0, 65, 64
1, 4294967703, Note_off_c, 0, 60, 64
1, 4294967743, Note_on_c, 0, 53, 102
1, 4294967743, Note_on_c, 0, 60, 85
1, 4294967743, Note_on_c, 0, 65, 85
1, 4294967783, Note_off_c, 0, 53, 64
1, 4294967788, Note_off_c, 0, 65, 64
1, 4294967790, Note_on_c, 0, 50, 96
1, 4294967796, Note_off_c, 0, 38, 64
1, 4294967799, Note_off_c, 0, 60, 64
1, 4294967820, Note_off_c, 0, 50, 64
1, 4294967839, Note_on_c, 0, 53, 102
1, 4294967839, Note_on_c, 0, 60, 91
1, 4294967839, Note_on_c, 0, 62, 82
1, 4294967867, Note_off_c, 0, 62, 64
1, 4294967874, Note_off_c, 0, 60, 64
1, 4294967878, Note_off_c, 0, 53, 64
1, 4294967886, Note_on_c, 0, 36, 68
1, 4294967887, Note_on_c, 0, 48, 81
1, 4294967912, Note_off_c, 0, 36, 64
1, 4294967915, Note_off_c, 0, 48, 64
1, 4294967935, Note_on_c, 0, 35, 87
1, 4294967935, Note_on_c, 0, 47, 97
1, 4294967935, Note_on_c, 0, 53, 99
1, 4294967935, Note_on_c, 0, 59, 86
1, 4294967935, Note_on_c, 0, 62, 84
1, 4294967936, Note_on_c, 0, 57, 90
1, 4294967969, Note_off_c, 0, 53, 64
1, 4294967986, Note_off_c, 0, 59, 64
1, 4294967987, Note_off_c, 0, 57, 64
1, 4294967987, Note_off_c, 0, 62, 64
1, 4294968030, Note_on_c, 0, 62, 83
1, 4294968031, Note_on_c, 0, 53, 97
1, 4294968031, Note_on_c, 0, 57, 85
1, 4294968031, Note_on_c, 0, 59, 83
1, 4294968049, Note_off_c, 0, 47, 64
1, 4294968063, Note_off_c, 0, 53, 64
1, 4294968073, Note_off_c, 0, 62, 64
1, 4294968080, Note_off_c, 0, 59, 64
1, 4294968090, Note_off_c, 0, 57, 64
1, 4294968127, Note_on_c, 0, 53, 98
1, 4294968127, Note_on_c, 0, 65, 93
1, 4294968128, Note_on_c, 0, 57, 85
1, 4294968128, Note_on_c, 0, 59, 75
1, 4294968167, Note_off_c, 0, 53, 64
1, 4294968170, Note_off_c, 0, 65, 64
1, 4294968175, Note_off_c, 0, 57, 64
1, 4294968176, Note_on_c, 0, 47, 75
1, 4294968181, Note_off_c, 0, 59, 64
1, 4294968210, Note_off_c, 0, 47, 64
1, 4294968224, Note_on_c, 0, 53, 95
1, 4294968224, Note_on_c, 0, 57, 88
1, 4294968224, Note_on_c, 0, 59, 68
1, 4294968224, Note_on_c, 0, 64, 94
1, 4294968232, Note_off_c, 0, 35, 64
1, 4294968251, Note_off_c, 0, 53, 64
1, 4294968263, Note_off_c, 0, 57, 64
1, 4294968263, Note_off_c, 0, 64, 64
1, 4294968267, Note_off_c, 0, 59, 64
1, 4294968271, Note_on_c, 0, 35, 74
1, 4294968319, Note_off_c, 0, 35, 64
1, 4294968320, Note_on_c, 0, 28, 95
1, 4294968320, Note_on_c, 0, 40, 98
1, 4294968320, Note_on_c, 0, 56, 96
1, 4294968320, Note_on_c, 0, 59, 90
1, 4294968320, Note_on_c, 0, 64, 88
1, 4294968367, Note_off_c, 0, 56, 64
1, 4294968373, Note_off_c, 0, 64, 64
1, 4294968378, Note_off_c, 0, 59, 64
1, 4294968416, Note_on_c, 0, 56, 93
1, 4294968416, Note_on_c, 0, 59, 92
1, 4294968416, Note_on_c, 0, 64, 86
1, 4294968423, Note_off_c, 0, 40, 64
1, 4294968448, Note_off_c, 0, 64, 64
1, 4294968465, Note_on_c, 0, 40, 70
1, 4294968474, Note_off_c, 0, 56, 64
1, 4294968476, Note_off_c, 0, 59, 64
1, 4294968512, Note_on_c, 0, 56, 102
1, 4294968512, Note_on_c, 0, 59, 90
1, 4294968512, Note_on_c, 0, 65, 92
1, 4294968560, Note_on_c, 0, 64, 86
1, 4294968560, Note_off_c, 0, 65, 64
1, 4294968573, Note_off_c, 0, 28, 64
1, 4294968575, Note_off_c, 0, 56, 64
1, 4294968580, Note_off_c, 0, 59, 64
1, 4294968598, Note_off_c, 0, 40, 64
1, 4294968606, Note_on_c, 0, 62, 75
1, 4294968608, Note_on_c, 0, 56, 102
1, 4294968608, Note_on_c, 0, 59, 75
1, 4294968616, Note_off_c, 0, 64, 64
1, 4294968656, Note_off_c, 0, 59, 64
1, 4294968656, Note_on_c, 0, 60, 77
1, 4294968661, Note_off_c, 0, 56, 64
1, 4294968663, Note_off_c, 0, 62, 64
1, 4294968696, Note_off_c, 0, 60, 64
1, 0, Note_on_c, 0, 45, 62
1, 96, Note_on_c, 0, 52, 59
1, 141, Note_on_c, 0, 57, 70
1, 189, Note_on_c, 0, 60, 75
1, 235, Note_on_c, 0, 64, 67
1, 283, Note_off_c, 0, 57, 64
1, 284, Note_off_c, 0, 52, 64
1, 286, Note_on_c, 0, 69, 89
1, 295, Note_off_c, 0, 45, 64
1, 298, Note_off_c, 0, 64, 64
1, 311, Note_off_c, 0, 69, 64
1, 374, Note_off_c, 0, 60, 64
1, 382, Note_on_c, 0, 40, 70
1, 382, Note_on_c, 0, 67, 83
1, 466, Note_off_c, 0, 67, 64
1, 478, Note_on_c, 0, 47, 65
1, 525, Note_on_c, 0, 52, 68
1, 574, Note_on_c, 0, 71, 100
1, 650, Note_off_c, 0, 40, 64
1, 659, Note_off_c, 0, 47, 64
1, 672, Note_on_c, 0, 67, 76
1, 672, Note_off_c, 0, 71, 64
1, 688, Note_off_c, 0, 52, 64
1, 754, Note_off_c, 0, 67, 64
1, 768, Note_on_c, 0, 60, 86
1, 769, Note_on_c, 0, 45, 74
1, 865, Note_on_c, 0, 52, 63
1, 912, Note_on_c, 0, 57, 71
1, 962, Note_on_c, 0, 64, 85
1, 1049, Note_off_c, 0, 57, 64
1, 1051, Note_off_c, 0, 52, 64
1, 1057, Note_on_c, 0, 69, 92
1, 1058, Note_off_c, 0, 64, 64
1, 1060, Note_off_c, 0, 45, 64
1, 1077, Note_off_c, 0, 69, 64
1, 1105, Note_on_c, 0, 47, 63
1, 1140, Note_off_c, 0, 47, 64
1, 1151, Note_on_c, 0, 40, 75
1, 1153, Note_on_c, 0, 67, 86
1, 1162, Note_off_c, 0, 60, 64
1, 1248, Note_on_c, 0, 47, 58
1, 1294, Note_off_c, 0, 67, 64
1, 1295, Note_on_c, 0, 62, 87
1, 1385, Note_off_c, 0, 62, 64
1, 1392, Note_on_c, 0, 64, 85
1, 1441, Note_on_c, 0, 43, 75
1, 1443, Note_off_c, 0, 40, 64
1, 1465, Note_off_c, 0, 43, 64
1, 1478, Note_off_c, 0, 64, 64
1, 1481, Note_off_c, 0, 47, 64
1, 1484, Note_on_c, 0, 62, 72
1, 1532, Note_off_c, 0, 62, 64
1, 0, Note_on_c, 0, 60, 76
1, 2, Note_on_c, 0, 45, 64
1, 2, Note_on_c, 0, 64, 80
1, 3, Note_on_c, 0, 52, 67
1, 277, Note_off_c, 0, 52, 64
1, 282, Note_off_c, 0, 60, 64
1, 284, Note_off_c, 0, 45, 64
1, 291, Note_off_c, 0, 64, 64
1, 380, Note_on_c, 0, 67, 71
1, 381, Note_on_c, 0, 47, 58
1, 382, Note_on_c, 0, 62, 64
1, 384, Note_on_c, 0, 40, 57
1, 384, Note_on_c, 0, 59, 60
1, 647, Note_off_c, 0, 40, 64
1, 659, Note_off_c, 0, 47, 64
1, 669, Note_off_c, 0, 67, 64
1, 672, Note_off_c, 0, 59, 64
1, 687, Note_off_c, 0, 62, 64
1, 765, Note_on_c, 0, 60, 62
1, 765, Note_on_c, 0, 67, 66
1, 767, Note_on_c, 0, 64, 70
1, 768, Note_on_c, 0, 52, 63
1, 769, Note_on_c, 0, 45, 59
1, 1012, Note_off_c, 0, 67, 64
1, 1020, Note_off_c, 0, 60, 64
1, 1020, Note_off_c, 0, 64, 64
1, 1021, Note_off_c, 0, 52, 64
1, 1033, Note_off_c, 0, 45, 64
1, 1145, Note_on_c, 0, 62, 70
1, 1147, Note_on_c, 0, 71, 73
1, 1148, Note_on_c, 0, 59, 65
1, 1148, Note_on_c, 0, 67, 68
1, 1149, Note_on_c, 0, 40, 53
1, 1150, Note_on_c, 0, 47, 59
1, 1470, Note_off_c, 0, 40, 64
1, 1470, Note_off_c, 0, 59, 64
1, 1472, Note_off_c, 0, 62, 64
1, 1480, Note_off_c, 0, 47, 64
1, 1481, Note_off_c, 0, 67, 64
1, 1495, Note_off_c, 0, 71, 64
1, 0, Note_on_c, 0, 62, 87
1, 3, Note_on_c, 0, 57, 87
1, 4, Note_on_c, 0, 53, 84
1, 5, Note_on_c, 0, 38, 76
1, 100, Note_on_c, 0, 45, 64
1, 171, Note_off_c, 0, 62, 64
1, 180, Note_off_c, 0, 57, 64
1, 193, Note_on_c, 0, 50, 70
1, 197, Note_off_c, 0, 53, 64
1, 201, Note_off_c, 0, 38, 64
1, 206, Note_off_c, 0, 45, 64
1, 210, Note_off_c, 0, 50, 64
1, 286, Note_on_c, 0, 55, 82
1, 287, Note_on_c, 0, 52, 79
1, 287, Note_on_c, 0, 60, 80
1, 290, Note_on_c, 0, 33, 78
1, 290, Note_on_c, 0, 48, 56
1, 502, Note_off_c, 0, 60, 64
1, 503, Note_off_c, 0, 48, 64
1, 504, Note_off_c, 0, 52, 64
1, 512, Note_off_c, 0, 55, 64
1, 571, Note_on_c, 0, 48, 84
1, 572, Note_on_c, 0, 55, 78
1, 573, Note_on_c, 0, 52, 78
1, 574, Note_on_c, 0, 60, 81
1, 592, Note_off_c, 0, 33, 64
1, 634, Note_off_c, 0, 48, 64
1, 643, Note_off_c, 0, 52, 64
1, 650, Note_off_c, 0, 55, 64
1, 659, Note_off_c, 0, 60, 64
1, 764, Note_on_c, 0, 62, 90
1, 765, Note_on_c, 0, 38, 64
1, 766, Note_on_c, 0, 53, 90
1, 767, Note_on_c, 0, 57, 89
1, 769, Note_on_c, 0, 45, 83
1, 918, Note_off_c, 0, 62, 64
1, 920, Note_off_c, 0, 57, 64
1, 928, Note_off_c, 0, 45, 64
1, 937, Note_off_c, 0, 38, 64
1, 937, Note_off_c, 0, 53, 64
1, 1053, Note_on_c, 0, 60, 88
1, 1054, Note_on_c, 0, 48, 84
1, 1054, Note_on_c, 0, 52, 81
1, 1056, Note_on_c, 0, 33, 70
1, 1058, Note_on_c, 0, 40, 76
1, 1344, Note_on_c, 0, 57, 75
1, 1509, Note_off_c, 0, 48, 64
1, 1520, Note_off_c, 0, 33, 64
1, 1520, Note_off_c, 0, 52, 64
1, 1526, Note_off_c, 0, 57, 64
1, 1529, Note_off_c, 0, 40, 64
1, 1532, Note_off_c, 0, 60, 64
1, 0, Note_on_c, 0, 60, 70
1, 2, Note_on_c, 0, 55, 80
1, 3, Note_on_c, 0, 57, 80
1, 4, Note_on_c, 0, 48, 72
1, 4, Note_on_c, 0, 64, 81
1, 6, Note_on_c, 0, 33, 60
1, 6, Note_on_c, 0, 40, 58
1, 81, Note_off_c, 0, 64, 64
1, 94, Note_on_c, 0, 62, 89
1, 96, Note_off_c, 0, 60, 64
1, 97, Note_off_c, 0, 57, 64
1, 142, Note_on_c, 0, 60, 86
1, 149, Note_off_c, 0, 62, 64
1, 190, Note_on_c, 0, 59, 106
1, 213, Note_off_c, 0, 60, 64
1, 266, Note_off_c, 0, 48, 64
1, 304, Note_off_c, 0, 33, 64
1, 306, Note_off_c, 0, 40, 64
1, 315, Note_off_c, 0, 59, 64
1, 339, Note_off_c, 0, 55, 64
1, 383, Note_on_c, 0, 55, 78
1, 385, Note_on_c, 0, 31, 64
1, 385, Note_on_c, 0, 52, 76
1, 537, Note_off_c, 0, 55, 64
1, 574, Note_on_c, 0, 59, 104
1, 666, Note_off_c, 0, 31, 64
1, 669, Note_on_c, 0, 60, 96
1, 670, Note_off_c, 0, 59, 64
1, 718, Note_on_c, 0, 57, 96
1, 718, Note_off_c, 0, 60, 64
1, 767, Note_on_c, 0, 26, 62
1, 866, Note_off_c, 0, 52, 64
1, 870, Note_off_c, 0, 57, 64
1, 912, Note_on_c, 0, 33, 29
1, 957, Note_on_c, 0, 57, 81
1, 958, Note_on_c, 0, 53, 76
1, 959, Note_on_c, 0, 41, 61
1, 959, Note_on_c, 0, 50, 79
1, 960, Note_on_c, 0, 62, 82
1, 1049, Note_off_c, 0, 33, 64
1, 1053, Note_off_c, 0, 41, 64
1, 1061, Note_off_c, 0, 26, 64
1, 1064, Note_off_c, 0, 62, 64
1, 1069, Note_off_c, 0, 50, 64
1, 1074, Note_off_c, 0, 57, 64
1, 1077, Note_off_c, 0, 53, 64
1, 1150, Note_on_c, 0, 56, 79
1, 1150, Note_on_c, 0, 59, 81
1, 1152, Note_on_c, 0, 28, 64
1, 1152, Note_on_c, 0, 50, 79
1, 1227, Note_off_c, 0, 50, 64
1, 1229, Note_off_c, 0, 56, 64
1, 1230, Note_off_c, 0, 59, 64
1, 1347, Note_on_c, 0, 60, 75
1, 1347, Note_on_c, 0, 64, 86
1, 1350, Note_on_c, 0, 56, 87
1, 1392, Note_off_c, 0, 28, 64
1, 1474, Note_off_c, 0, 56, 64
1, 1483, Note_off_c, 0, 60, 64
1, 1491, Note_off_c, 0, 64, 64
1, 0, Control_c, 0, 6, 12
1, 0, Control_c, 0, 6, 0
1, 0, Control_c, 0, 22, 116
1, 0, Control_c, 0, 22, 0
1, 0, Control_c, 0, 64, 127
1, 0, Control_c, 0, 64, 0
1, 0, Note_on_c, 0, 45, 77
1, 13, Note_off_c, 0, 45, 64
1, 48, Note_on_c, 0, 52, 75
1, 54, Note_off_c, 0, 52, 64
1, 96, Note_on_c, 0, 55, 81
1, 96, Note_on_c, 0, 60, 81
1, 96, Note_on_c, 0, 64, 79
1, 103, Note_off_c, 0, 55, 64
1, 105, Note_off_c, 0, 60, 64
1, 107, Note_off_c, 0, 64, 64
1, 143, Note_on_c, 0, 52, 84
1, 149, Note_off_c, 0, 52, 64
1, 168, Note_on_c, 0, 55, 81
1, 168, Note_on_c, 0, 64, 74
1, 169, Note_on_c, 0, 60, 78
1, 174, Note_off_c, 0, 55, 64
1, 176, Note_off_c, 0, 60, 64
1, 179, Note_off_c, 0, 64, 64
1, 216, Note_on_c, 0, 64, 58
1, 217, Note_on_c, 0, 59, 75
1, 224, Note_off_c, 0, 64, 64
1, 228, Note_off_c, 0, 59, 64
1, 240, Note_on_c, 0, 55, 72
1, 248, Note_off_c, 0, 55, 64
1, 287, Note_on_c, 0, 59, 87
1, 288, Note_on_c, 0, 64, 87
1, 289, Note_on_c, 0, 52, 78
1, 295, Note_off_c, 0, 52, 64
1, 321, Note_off_c, 0, 64, 64
1, 333, Note_off_c, 0, 59, 64
1, 335, Note_on_c, 0, 60, 89
1, 343, Note_off_c, 0, 60, 64
1, 384, Note_on_c, 0, 41, 83
1, 390, Note_off_c, 0, 41, 64
1, 430, Note_on_c, 0, 41, 83
1, 440, Note_off_c, 0, 41, 64
1, 479, Note_on_c, 0, 51, 87
1, 479, Note_on_c, 0, 62, 72
1, 480, Note_on_c, 0, 57, 79
1, 487, Note_off_c, 0, 51, 64
1, 490, Note_off_c, 0, 57, 64
1, 494, Note_off_c, 0, 62, 64
1, 530, Note_on_c, 0, 47, 72
1, 540, Note_off_c, 0, 47, 64
1, 575, Note_on_c, 0, 64, 86
1, 577, Note_on_c, 0, 56, 81
1, 577, Note_on_c, 0, 60, 81
1, 578, Note_on_c, 0, 40, 69
1, 583, Note_off_c, 0, 56, 64
1, 586, Note_off_c, 0, 60, 64
1, 588, Note_off_c, 0, 40, 64
1, 594, Note_off_c, 0, 64, 64
1, 673, Note_on_c, 0, 52, 97
1, 686, Note_off_c, 0, 52, 64
1, 768, Note_on_c, 0, 40, 82
1, 768, Note_on_c, 0, 52, 95
1, 800, Note_off_c, 0, 40, 64
1, 803, Note_off_c, 0, 52, 64
1, 815, Note_on_c, 0, 43, 63
1, 816, Note_on_c, 0, 55, 78
1, 824, Note_off_c, 0, 55, 64
1, 827, Note_off_c, 0, 43, 64
1, 838, Note_on_c, 0, 45, 74
1, 839, Note_on_c, 0, 57, 104
1, 903, Note_off_c, 0, 45, 64
1, 907, Note_off_c, 0, 57, 64
1, 911, Note_on_c, 0, 40, 69
1, 912, Note_on_c, 0, 52, 90
1, 933, Note_off_c, 0, 52, 64
1, 938, Note_off_c, 0, 40, 64
1, 958, Note_on_c, 0, 55, 93
1, 959, Note_on_c, 0, 43, 70
1, 984, Note_off_c, 0, 43, 64
1, 986, Note_off_c, 0, 55, 64
1, 1005, Note_on_c, 0, 45, 63
1, 1006, Note_on_c, 0, 57, 90
1, 1020, Note_off_c, 0, 57, 64
1, 1027, Note_off_c, 0, 45, 64
1, 1055, Note_on_c, 0, 47, 81
1, 1057, Note_on_c, 0, 59, 69
1, 1075, Note_off_c, 0, 59, 64
1, 1089, Note_off_c, 0, 47, 64
1, 1104, Note_on_c, 0, 60, 90
1, 1105, Note_on_c, 0, 48, 70
1, 1115, Note_off_c, 0, 48, 64
1, 1120, Note_off_c, 0, 60, 64
1, 1151, Note_on_c, 0, 43, 82
1, 1152, Note_on_c, 0, 64, 94
1, 1247, Note_on_c, 0, 55, 84
1, 1248, Note_on_c, 0, 59, 85
1, 1268, Note_off_c, 0, 59, 64
1, 1269, Note_off_c, 0, 55, 64
1, 1280, Note_off_c, 0, 43, 64
1, 1296, Note_off_c, 0, 64, 64
1, 1298, Note_on_c, 0, 48, 65
1, 1343, Note_on_c, 0, 57, 81
1, 1345, Note_on_c, 0, 51, 76
1, 1346, Note_on_c, 0, 41, 68
1, 1367, Note_off_c, 0, 51, 64
1, 1369, Note_off_c, 0, 57, 64
1, 1370, Note_off_c, 0, 48, 64
1, 1374, Note_off_c, 0, 41, 64
1, 1439, Note_on_c, 0, 47, 58
1, 1440, Note_on_c, 0, 40, 61
1, 1440, Note_on_c, 0, 56, 69
1, 1442, Note_on_c, 0, 50, 76
1, 1463, Note_off_c, 0, 47, 64
1, 1465, Note_off_c, 0, 56, 64
1, 1471, Note_off_c, 0, 40, 64
1, 1476, Note_off_c, 0, 50, 64
1, 1, Note_on_c, 0, 48, 74
1, 2, Note_on_c, 0, 52, 76
1, 4, Note_on_c, 0, 33, 66
1, 81, Note_off_c, 0, 48, 64
1, 90, Note_off_c, 0, 33, 64
1, 94, Note_off_c, 0, 52, 64
1, 98, Note_on_c, 0, 40, 66
1, 146, Note_on_c, 0, 48, 76
1, 194, Note_on_c, 0, 57, 98
1, 226, Note_off_c, 0, 40, 64
1, 241, Note_on_c, 0, 64, 106
1, 256, Note_off_c, 0, 57, 64
1, 259, Note_off_c, 0, 48, 64
1, 319, Note_off_c, 0, 64, 64
1, 337, Note_on_c, 0, 62, 74
1, 382, Note_on_c, 0, 55, 83
1, 384, Note_on_c, 0, 43, 49
1, 384, Note_on_c, 0, 50, 62
1, 385, Note_on_c, 0, 59, 79
1, 473, Note_off_c, 0, 59, 64
1, 481, Note_on_c, 0, 47, 64
1, 487, Note_off_c, 0, 55, 64
1, 492, Note_off_c, 0, 50, 64
1, 576, Note_on_c, 0, 59, 87
1, 578, Note_on_c, 0, 52, 70
1, 578, Note_on_c, 0, 55, 86
1, 606, Note_off_c, 0, 47, 64
1, 634, Note_off_c, 0, 43, 64
1, 646, Note_off_c, 0, 52, 64
1, 648, Note_off_c, 0, 62, 64
1, 663, Note_off_c, 0, 55, 64
1, 664, Note_off_c, 0, 59, 64
1, 668, Note_on_c, 0, 45, 54
1, 674, Note_on_c, 0, 57, 92
1, 694, Note_off_c, 0, 57, 64
1, 716, Note_off_c, 0, 45, 64
1, 765, Note_on_c, 0, 53, 86
1, 766, Note_on_c, 0, 48, 71
1, 767, Note_on_c, 0, 64, 80
1, 768, Note_on_c, 0, 38, 68
1, 768, Note_on_c, 0, 60, 71
1, 785, Note_off_c, 0, 53, 64
1, 789, Note_off_c, 0, 64, 64
1, 795, Note_off_c, 0, 48, 64
1, 796, Note_off_c, 0, 60, 64
1, 863, Note_on_c, 0, 45, 64
1, 959, Note_off_c, 0, 38, 64
1, 961, Note_off_c, 0, 45, 64
1, 961, Note_on_c, 0, 50, 65
1, 961, Note_on_c, 0, 53, 82
1, 962, Note_on_c, 0, 60, 74
1, 962, Note_on_c, 0, 67, 78
1, 1039, Note_off_c, 0, 53, 64
1, 1052, Note_off_c, 0, 50, 64
1, 1052, Note_off_c, 0, 60, 64
1, 1056, Note_on_c, 0, 52, 51
1, 1056, Note_on_c, 0, 62, 71
1, 1057, Note_on_c, 0, 40, 47
1, 1058, Note_on_c, 0, 47, 53
1, 1058, Note_on_c, 0, 56, 64
1, 1060, Note_on_c, 0, 63, 81
1, 1077, Note_on_c, 0, 64, 83
1, 1081, Note_off_c, 0, 63, 64
1, 1128, Note_off_c, 0, 56, 64
1, 1133, Note_off_c, 0, 62, 64
1, 1248, Note_on_c, 0, 62, 78
1, 1296, Note_off_c, 0, 62, 64
1, 1300, Note_on_c, 0, 60, 78
1, 1318, Note_off_c, 0, 40, 64
1, 1324, Note_off_c, 0, 47, 64
1, 1337, Note_on_c, 0, 47, 53
1, 1344, Note_on_c, 0, 43, 64
1, 1344, Note_off_c, 0, 52, 64
1, 1348, Note_on_c, 0, 59, 64
1, 1348, Note_off_c, 0, 60, 64
1, 1392, Note_off_c, 0, 64, 64
1, 1409, Note_off_c, 0, 67, 64
1, 1438, Note_on_c, 0, 60, 74
1, 1444, Note_off_c, 0, 59, 64
1, 1529, Note_off_c, 0, 47, 64
1, 1536, Note_off_c, 0, 43, 64
1, 1536, Note_off_c, 0, 60, 64
1, 0, Pitch_bend_c, 0, 8192
1, 0, Control_c, 0, 6, 12
1, 0, Control_c, 0, 7, 100
1, 0, Control_c, 0, 10, 64
1, 0, Control_c, 0, 100, 0
1, 0, Control_c, 0, 101, 0
1, 0, Note_on_c, 0, 50, 127
1, 0, Note_on_c, 0, 53, 127
1, 0, Note_on_c, 0, 57, 127
1, 0, Note_on_c, 0, 77, 100
1, 48, Note_off_c, 0, 50, 0
1, 48, Note_off_c, 0, 53, 0
1, 48, Note_off_c, 0, 57, 0
1, 48, Note_on_c, 0, 74, 100
1, 48, Note_off_c, 0, 77, 0
1, 96, Note_off_c, 0, 74, 0
1, 96, Note_on_c, 0, 77, 100
1, 120, Note_on_c, 0, 50, 127
1, 120, Note_on_c, 0, 53, 127
1, 120, Note_on_c, 0, 57, 127
1, 144, Note_on_c, 0, 74, 100
1, 144, Note_off_c, 0, 77, 0
1, 168, Note_off_c, 0, 50, 0
1, 168, Note_off_c, 0, 53, 0
1, 168, Note_off_c, 0, 57, 0
1, 192, Note_on_c, 0, 53, 127
1, 192, Note_on_c, 0, 57, 127
1, 192, Note_on_c, 0, 60, 127
1, 192, Note_off_c, 0, 74, 0
1, 192, Note_on_c, 0, 81, 100
1, 240, Note_off_c, 0, 53, 0
1, 240, Note_off_c, 0, 57, 0
1, 240, Note_off_c, 0, 60, 0
1, 240, Note_on_c, 0, 77, 100
1, 240, Note_off_c, 0, 81, 0
1, 288, Note_off_c, 0, 77, 0
1, 288, Note_on_c, 0, 81, 100
1, 336, Note_on_c, 0, 53, 127
1, 336, Note_on_c, 0, 57, 127
1, 336, Note_on_c, 0, 60, 127
1, 336, Note_on_c, 0, 77, 100
1, 336, Note_off_c, 0, 81, 0
1, 384, Note_on_c, 0, 48, 127
1, 384, Note_on_c, 0, 52, 127
1, 384, Note_off_c, 0, 53, 0
1, 384, Note_on_c, 0, 55, 127
1, 384, Note_off_c, 0, 57, 0
1, 384, Note_off_c, 0, 60, 0
1, 384, Note_on_c, 0, 76, 100
1, 384, Note_off_c, 0, 77, 0
1, 432, Note_off_c, 0, 48, 0
1, 432, Note_off_c, 0, 52, 0
1, 432, Note_off_c, 0, 55, 0
1, 432, Note_on_c, 0, 72, 100
1, 432, Note_off_c, 0, 76, 0
1, 480, Note_off_c, 0, 72, 0
1, 480, Note_on_c, 0, 79, 100
1, 504, Note_on_c, 0, 48, 127
1, 504, Note_on_c, 0, 52, 127
1, 504, Note_on_c, 0, 55, 127
1, 528, Note_on_c, 0, 76, 100
1, 528, Note_off_c, 0, 79, 0
1, 552, Note_off_c, 0, 48, 0
1, 552, Note_off_c, 0, 52, 0
1, 552, Note_off_c, 0, 55, 0
1, 576, Note_on_c, 0, 45, 127
1, 576, Note_on_c, 0, 48, 127
1, 576, Note_on_c, 0, 52, 127
1, 576, Note_off_c, 0, 76, 0
1, 576, Note_on_c, 0, 79, 100
1, 624, Note_off_c, 0, 45, 0
1, 624, Note_off_c, 0, 48, 0
1, 624, Note_off_c, 0, 52, 0
1, 624, Note_on_c, 0, 76, 100
1, 624, Note_off_c, 0, 79, 0
1, 672, Note_on_c, 0, 72, 100
1, 672, Note_off_c, 0, 76, 0
1, 720, Note_on_c, 0, 45, 127
1, 720, Note_on_c, 0, 48, 127
1, 720, Note_on_c, 0, 52, 127
1, 720, Note_on_c, 0, 69, 100
1, 720, Note_off_c, 0, 72, 0
1, 768, Note_off_c, 0, 45, 0
1, 768, Note_off_c, 0, 48, 0
1, 768, Note_on_c, 0, 50, 127
1, 768, Note_off_c, 0, 52, 0
1, 768, Note_on_c, 0, 53, 127
1, 768, Note_on_c, 0, 57, 127
1, 768, Note_off_c, 0, 69, 0
1, 768, Note_on_c, 0, 77, 100
1, 816, Note_off_c, 0, 50, 0
1, 816, Note_off_c, 0, 53, 0
1, 816, Note_off_c, 0, 57, 0
1, 816, Note_on_c, 0, 74, 100
1, 816, Note_off_c, 0, 77, 0
1, 864, Note_off_c, 0, 74, 0
1, 864, Note_on_c, 0, 77, 100
1, 888, Note_on_c, 0, 50, 127
1, 888, Note_on_c, 0, 53, 127
1, 888, Note_on_c, 0, 57, 127
1, 912, Note_on_c, 0, 74, 100
1, 912, Note_off_c, 0, 77, 0
1, 936, Note_off_c, 0, 50, 0
1, 936, Note_off_c, 0, 53, 0
1, 936, Note_off_c, 0, 57, 0
1, 960, Note_on_c, 0, 53, 127
1, 960, Note_on_c, 0, 57, 127
1, 960, Note_on_c, 0, 60, 127
1, 960, Note_off_c, 0, 74, 0
1, 960, Note_on_c, 0, 81, 100
1, 1008, Note_off_c, 0, 53, 0
1, 1008, Note_off_c, 0, 57, 0
1, 1008, Note_off_c, 0, 60, 0
1, 1008, Note_on_c, 0, 77, 100
1, 1008, Note_off_c, 0, 81, 0
1, 1056, Note_off_c, 0, 77, 0
1, 1056, Note_on_c, 0, 81, 100
1, 1104, Note_on_c, 0, 53, 127
1, 1104, Note_on_c, 0, 57, 127
1, 1104, Note_on_c, 0, 60, 127
1, 1104, Note_on_c, 0, 77, 100
1, 1104, Note_off_c, 0, 81, 0
1, 1152, Note_on_c, 0, 48, 127
1, 1152, Note_on_c, 0, 52, 127
1, 1152, Note_off_c, 0, 53, 0
1, 1152, Note_on_c, 0, 55, 127
1, 1152, Note_off_c, 0, 57, 0
1, 1152, Note_off_c, 0, 60, 0
1, 1152, Note_on_c, 0, 76, 100
1, 1152, Note_off_c, 0, 77, 0
1, 1200, Note_off_c, 0, 48, 0
1, 1200, Note_off_c, 0, 52, 0
1, 1200, Note_off_c, 0, 55, 0
1, 1200, Note_on_c, 0, 72, 100
1, 1200, Note_off_c, 0, 76, 0
1, 1248, Note_off_c, 0, 72, 0
1, 1248, Note_on_c, 0, 79, 100
1, 1272, Note_on_c, 0, 48, 127
1, 1272, Note_on_c, 0, 52, 127
1, 1272, Note_on_c, 0, 55, 127
1, 1296, Note_on_c, 0, 76, 100
1, 1296, Note_off_c, 0, 79, 0
1, 1320, Note_off_c, 0, 48, 0
1, 1320, Note_off_c, 0, 52, 0
1, 1320, Note_off_c, 0, 55, 0
1, 1344, Note_on_c, 0, 45, 127
1, 1344, Note_on_c, 0, 48, 127
1, 1344, Note_on_c, 0, 52, 127
1, 1344, Note_off_c, 0, 76, 0
1, 1344, Note_on_c, 0, 79, 100
1, 1392, Note_off_c, 0, 45, 0
1, 1392, Note_off_c, 0, 48, 0
1, 1392, Note_off_c, 0, 52, 0
1, 1392, Note_on_c, 0, 76, 100
1, 1392, Note_off_c, 0, 79, 0
1, 1440, Note_on_c, 0, 45, 127
1, 1440, Note_on_c, 0, 48, 127
1, 1440, Note_on_c, 0, 52, 127
1, 1440, Note_on_c, 0, 72, 100
1, 1440, Note_off_c, 0, 76, 0
1, 1488, Note_off_c, 0, 45, 0
1, 1488, Note_off_c, 0, 48, 0
1, 1488, Note_off_c, 0, 52, 0
1, 1488, Note_on_c, 0, 69, 100
1, 1488, Note_off_c, 0, 72, 0
1, 1535, Pitch_bend_c, 0, 8192
1, 1535, Pitch_bend_c, 0, 8192
1, 1535, Control_c, 0, 7, 100
1, 1535, Control_c, 0, 7, 100
1, 1535, Control_c, 0, 10, 64
1, 1535, Control_c, 0, 10, 64
1, 1535, Note_off_c, 0, 69, 0
1, 1536, Pitch_bend_c, 0, 8192
1, 1536, Control_c, 0, 6, 12
1, 1536, Control_c, 0, 6, 12
1, 1536, Control_c, 0, 7, 100
1, 1536, Control_c, 0, 10, 64
1, 1536, Control_c, 0, 100, 0
1, 1536, Control_c, 0, 100, 0
1, 1536, Control_c, 0, 101, 0
1, 1536, Control_c, 0, 101, 0
1, 1, Note_on_c, 0, 52, 50
1, 2, Note_on_c, 0, 48, 48
1, 3, Note_on_c, 0, 45, 48
1, 4, Note_on_c, 0, 57, 80
1, 48, Note_off_c, 0, 57, 64
1, 192, Note_on_c, 0, 62, 52
1, 201, Note_on_c, 0, 64, 98
1, 206, Note_off_c, 0, 62, 64
1, 269, Note_off_c, 0, 48, 64
1, 269, Note_off_c, 0, 52, 64
1, 276, Note_off_c, 0, 45, 64
1, 288, Note_on_c, 0, 62, 90
1, 297, Note_off_c, 0, 64, 64
1, 330, Note_off_c, 0, 62, 64
1, 336, Note_on_c, 0, 60, 79
1, 383, Note_off_c, 0, 60, 64
1, 384, Note_on_c, 0, 52, 63
1, 385, Note_on_c, 0, 43, 55
1, 386, Note_on_c, 0, 59, 86
1, 387, Note_on_c, 0, 47, 60
1, 459, Note_off_c, 0, 59, 64
1, 531, Note_on_c, 0, 55, 96
1, 640, Note_off_c, 0, 52, 64
1, 648, Note_off_c, 0, 47, 64
1, 653, Note_off_c, 0, 43, 64
1, 665, Note_off_c, 0, 55, 64
1, 672, Note_on_c, 0, 57, 100
1, 719, Note_off_c, 0, 57, 64
1, 720, Note_on_c, 0, 59, 84
1, 725, Note_on_c, 0, 45, 41
1, 755, Note_off_c, 0, 59, 64
1, 767, Note_on_c, 0, 48, 74
1, 768, Note_on_c, 0, 38, 73
1, 768, Note_on_c, 0, 53, 76
1, 825, Note_off_c, 0, 45, 64
1, 836, Note_off_c, 0, 48, 64
1, 841, Note_off_c, 0, 53, 64
1, 908, Note_on_c, 0, 45, 62
1, 958, Note_on_c, 0, 50, 74
1, 959, Note_on_c, 0, 53, 95
1, 960, Note_on_c, 0, 60, 85
1, 1001, Note_off_c, 0, 53, 64
1, 1009, Note_off_c, 0, 38, 64
1, 1014, Note_off_c, 0, 45, 64
1, 1032, Note_off_c, 0, 50, 64
1, 1033, Note_off_c, 0, 60, 64
1, 1059, Note_on_c, 0, 57, 94
1, 1093, Note_off_c, 0, 57, 64
1, 1108, Note_on_c, 0, 47, 63
1, 1125, Note_off_c, 0, 47, 64
1, 1152, Note_on_c, 0, 40, 72
1, 1154, Note_on_c, 0, 50, 87
1, 1156, Note_on_c, 0, 56, 88
1, 1176, Note_off_c, 0, 50, 64
1, 1184, Note_off_c, 0, 56, 64
1, 1246, Note_on_c, 0, 47, 60
1, 1346, Note_on_c, 0, 50, 81
1, 1401, Note_off_c, 0, 40, 64
1, 1405, Note_off_c, 0, 47, 64
1, 1432, Note_off_c, 0, 50, 64
1, 1442, Note_on_c, 0, 60, 83
1, 1478, Note_off_c, 0, 60, 64
1, 0, Note_on_c, 0, 60, 55
1, 1, Note_on_c, 0, 45, 36
1, 2, Note_on_c, 0, 52, 46
1, 2, Note_on_c, 0, 64, 59
1, 651, Note_off_c, 0, 45, 64
1, 656, Note_off_c, 0, 52, 64
1, 670, Note_off_c, 0, 60, 64
1, 690, Note_off_c, 0, 64, 64
1, 773, Note_on_c, 0, 59, 55
1, 774, Note_on_c, 0, 64, 59
1, 779, Note_on_c, 0, 48, 42
1, 780, Note_on_c, 0, 55, 49
1, 1422, Note_off_c, 0, 48, 64
1, 1444, Note_off_c, 0, 59, 64
1, 1449, Note_off_c, 0, 55, 64
1, 1459, Note_off_c, 0, 64, 64
1, 1, Note_on_c, 0, 60, 83
1, 2, Note_on_c, 0, 64, 87
1, 3, Note_on_c, 0, 57, 83
1, 4, Note_on_c, 0, 48, 75
1, 6, Note_on_c, 0, 45, 70
1, 6, Note_on_c, 0, 52, 68
1, 296, Note_off_c, 0, 57, 64
1, 297, Note_off_c, 0, 48, 64
1, 297, Note_off_c, 0, 64, 64
1, 299, Note_off_c, 0, 45, 64
1, 304, Note_off_c, 0, 60, 64
1, 309, Note_off_c, 0, 52, 64
1, 382, Note_on_c, 0, 55, 83
1, 383, Note_on_c, 0, 43, 77
1, 383, Note_on_c, 0, 64, 86
1, 384, Note_on_c, 0, 59, 85
1, 385, Note_on_c, 0, 47, 80
1, 386, Note_on_c, 0, 52, 71
1, 641, Note_off_c, 0, 52, 64
1, 644, Note_off_c, 0, 47, 64
1, 651, Note_off_c, 0, 43, 64
1, 652, Note_off_c, 0, 59, 64
1, 653, Note_off_c, 0, 55, 64
1, 661, Note_off_c, 0, 64, 64
1, 762, Note_on_c, 0, 57, 81
1, 763, Note_on_c, 0, 53, 76
1, 764, Note_on_c, 0, 38, 66
1, 764, Note_on_c, 0, 62, 79
1, 765, Note_on_c, 0, 45, 72
1, 766, Note_on_c, 0, 48, 65
1, 1227, Note_off_c, 0, 38, 64
1, 1232, Note_off_c, 0, 45, 64
1, 1234, Note_off_c, 0, 53, 64
1, 1243, Note_off_c, 0, 48, 64
1, 1249, Note_off_c, 0, 57, 64
1, 1249, Note_on_c, 0, 60, 81
1, 1250, Note_on_c, 0, 56, 85
1, 1251, Note_off_c, 0, 62, 64
1, 1251, Note_on_c, 0, 64, 84
1, 1252, Note_on_c, 0, 44, 77
1, 1252, Note_on_c, 0, 50, 79
1, 1253, Note_on_c, 0, 40, 72
1, 1390, Note_off_c, 0, 40, 64
1, 1393, Note_off_c, 0, 44, 64
1, 1397, Note_off_c, 0, 64, 64
1, 1398, Note_off_c, 0, 56, 64
1, 1404, Note_off_c, 0, 60, 64
1, 1411, Note_off_c, 0, 50, 64
1, 1, Note_on_c, 0, 52, 50
1, 2, Note_on_c, 0, 40, 58
1, 2, Note_on_c, 0, 48, 58
1, 9, Note_on_c, 0, 33, 49
1, 92, Note_off_c, 0, 48, 64
1, 106, Note_off_c, 0, 52, 64
1, 192, Note_on_c, 0, 60, 77
1, 243, Note_on_c, 0, 64, 72
1, 289, Note_on_c, 0, 69, 88
1, 379, Note_off_c, 0, 69, 64
1, 385, Note_on_c, 0, 67, 77
1, 387, Note_off_c, 0, 64, 64
1, 481, Note_on_c, 0, 64, 69
1, 513, Note_off_c, 0, 67, 64
1, 580, Note_off_c, 0, 64, 64
1, 581, Note_on_c, 0, 62, 75
1, 600, Note_off_c, 0, 60, 64
1, 646, Note_off_c, 0, 33, 64
1, 664, Note_off_c, 0, 40, 64
1, 671, Note_on_c, 0, 64, 82
1, 762, Note_off_c, 0, 62, 64
1, 767, Note_on_c, 0, 59, 63
1, 769, Note_on_c, 0, 43, 56
1, 771, Note_on_c, 0, 36, 46
1, 935, Note_off_c, 0, 59, 64
1, 962, Note_on_c, 0, 59, 79
1, 964, Note_off_c, 0, 64, 64
1, 1009, Note_on_c, 0, 64, 79
1, 1055, Note_on_c, 0, 71, 106
1, 1136, Note_off_c, 0, 71, 64
1, 1154, Note_on_c, 0, 69, 82
1, 1232, Note_off_c, 0, 64, 64
1, 1249, Note_on_c, 0, 67, 71
1, 1329, Note_off_c, 0, 69, 64
1, 1345, Note_on_c, 0, 64, 79
1, 1346, Note_off_c, 0, 67, 64
1, 1411, Note_off_c, 0, 64, 64
1, 1429, Note_off_c, 0, 43, 64
1, 1439, Note_on_c, 0, 62, 84
1, 1442, Note_off_c, 0, 36, 64
1, 1482, Note_off_c, 0, 59, 64
1, 1525, Note_off_c, 0, 62, 64
1, 1, Note_on_c, 0, 33, 60
1, 4, Note_on_c, 0, 48, 44
1, 4, Note_on_c, 0, 52, 71
1, 5, Note_on_c, 0, 57, 67
1, 246, Note_off_c, 0, 33, 64
1, 253, Note_off_c, 0, 48, 64
1, 258, Note_off_c, 0, 52, 64
1, 263, Note_off_c, 0, 57, 64
1, 385, Note_on_c, 0, 40, 62
1, 386, Note_on_c, 0, 56, 62
1, 386, Note_on_c, 0, 60, 65
1, 387, Note_on_c, 0, 53, 47
1, 654, Note_off_c, 0, 60, 64
1, 658, Note_off_c, 0, 56, 64
1, 665, Note_off_c, 0, 53, 64
1, 674, Note_off_c, 0, 40, 64
1, 768, Note_on_c, 0, 33, 60
1, 769, Note_on_c, 0, 48, 59
1, 769, Note_on_c, 0, 52, 72
1, 770, Note_on_c, 0, 57, 68
1, 1014, Note_off_c, 0, 33, 64
1, 1019, Note_off_c, 0, 52, 64
1, 1031, Note_off_c, 0, 57, 64
1, 1054, Note_off_c, 0, 48, 64
1, 1149, Note_on_c, 0, 53, 73
1, 1149, Note_on_c, 0, 57, 71
1, 1152, Note_on_c, 0, 38, 64
1, 1152, Note_on_c, 0, 48, 69
1, 1274, Note_off_c, 0, 48, 64
1, 1278, Note_off_c, 0, 57, 64
1, 1292, Note_off_c, 0, 53, 64
1, 1319, Note_off_c, 0, 38, 64
1, 1347, Note_on_c, 0, 50, 68
1, 1348, Note_on_c, 0, 56, 73
1, 1349, Note_on_c, 0, 59, 71
1, 1350, Note_on_c, 0, 40, 62
1, 1455, Note_off_c, 0, 40, 64
1, 1460, Note_off_c, 0, 50, 64
1, 1461, Note_off_c, 0, 56, 64
1, 1465, Note_off_c, 0, 59, 64
1, 1, Note_on_c, 0, 59, 60
1, 2, Note_on_c, 0, 45, 58
1, 4, Note_on_c, 0, 52, 58
1, 4, Note_on_c, 0, 69, 86
1, 5, Note_on_c, 0, 60, 43
1, 100, Note_on_c, 0, 67, 82
1, 102, Note_off_c, 0, 69, 64
1, 188, Note_off_c, 0, 67, 64
1, 192, Note_on_c, 0, 72, 86
1, 240, Note_on_c, 0, 76, 79
1, 289, Note_on_c, 0, 81, 107
1, 293, Note_off_c, 0, 76, 64
1, 357, Note_off_c, 0, 81, 64
1, 386, Note_on_c, 0, 79, 96
1, 472, Note_off_c, 0, 72, 64
1, 481, Note_on_c, 0, 76, 98
1, 490, Note_off_c, 0, 79, 64
1, 515, Note_off_c, 0, 76, 64
1, 575, Note_on_c, 0, 74, 106
1, 632, Note_off_c, 0, 45, 64
1, 637, Note_off_c, 0, 52, 64
1, 657, Note_off_c, 0, 60, 64
1, 661, Note_off_c, 0, 59, 64
1, 672, Note_on_c, 0, 76, 92
1, 680, Note_off_c, 0, 74, 64
1, 697, Note_off_c, 0, 76, 64
1, 724, Note_on_c, 0, 74, 69
1, 734, Note_off_c, 0, 74, 64
1, 734, Note_on_c, 0, 76, 82
1, 749, Note_on_c, 0, 74, 85
1, 760, Note_off_c, 0, 76, 64
1, 769, Note_on_c, 0, 48, 55
1, 770, Note_on_c, 0, 55, 56
1, 770, Note_off_c, 0, 74, 64
1, 772, Note_on_c, 0, 64, 46
1, 775, Note_on_c, 0, 71, 88
1, 903, Note_off_c, 0, 71, 64
1, 959, Note_on_c, 0, 67, 108
1, 982, Note_off_c, 0, 64, 64
1, 1006, Note_off_c, 0, 67, 64
1, 1007, Note_on_c, 0, 69, 94
1, 1050, Note_off_c, 0, 69, 64
1, 1055, Note_on_c, 0, 64, 77
1, 1101, Note_off_c, 0, 64, 64
1, 1153, Note_on_c, 0, 59, 44
1, 1155, Note_on_c, 0, 62, 65
1, 1246, Note_off_c, 0, 62, 64
1, 1249, Note_on_c, 0, 64, 64
1, 1343, Note_on_c, 0, 62, 79
1, 1345, Note_off_c, 0, 64, 64
1, 1441, Note_on_c, 0, 60, 79
1, 1441, Note_off_c, 0, 62, 64
1, 1513, Note_off_c, 0, 55, 64
1, 1513, Note_off_c, 0, 59, 64
1, 1518, Note_off_c, 0, 48, 64
1, 1532, Note_off_c, 0, 60, 64
1, 0, Note_on_c, 0, 45, 62
1, 0, Note_on_c, 0, 72, 56
1, 2, Note_on_c, 0, 76, 70
1, 3, Note_on_c, 0, 52, 65
1, 4, Note_on_c, 0, 67, 69
1, 5, Note_on_c, 0, 60, 66
1, 23, Note_off_c, 0, 45, 64
1, 26, Note_off_c, 0, 52, 64
1, 34, Note_off_c, 0, 60, 64
1, 45, Note_off_c, 0, 72, 64
1, 45, Note_off_c, 0, 76, 64
1, 61, Note_off_c, 0, 67, 64
1, 141, Note_on_c, 0, 57, 64
1, 144, Note_on_c, 0, 60, 61
1, 144, Note_on_c, 0, 69, 72
1, 145, Note_on_c, 0, 67, 67
1, 146, Note_on_c, 0, 64, 62
1, 284, Note_on_c, 0, 72, 96
1, 324, Note_off_c, 0, 72, 64
1, 384, Note_on_c, 0, 71, 118
1, 432, Note_off_c, 0, 69, 64
1, 440, Note_off_c, 0, 67, 64
1, 452, Note_off_c, 0, 64, 64
1, 478, Note_off_c, 0, 71, 64
1, 480, Note_on_c, 0, 64, 75
1, 502, Note_off_c, 0, 64, 64
1, 522, Note_off_c, 0, 60, 64
1, 528, Note_off_c, 0, 57, 64
1, 576, Note_on_c, 0, 62, 106
1, 650, Note_off_c, 0, 62, 64
1, 672, Note_on_c, 0, 64, 85
1, 720, Note_on_c, 0, 67, 86
1, 723, Note_on_c, 0, 59, 72
1, 768, Note_on_c, 0, 48, 60
1, 816, Note_off_c, 0, 59, 64
1, 845, Note_off_c, 0, 67, 64
1, 850, Note_off_c, 0, 64, 64
1, 862, Note_on_c, 0, 55, 60
1, 908, Note_on_c, 0, 64, 59
1, 959, Note_on_c, 0, 76, 101
1, 960, Note_on_c, 0, 83, 107
1, 1018, Note_off_c, 0, 48, 64
1, 1028, Note_off_c, 0, 55, 64
1, 1048, Note_off_c, 0, 83, 64
1, 1053, Note_on_c, 0, 81, 85
1, 1065, Note_off_c, 0, 76, 64
1, 1066, Note_off_c, 0, 64, 64
1, 1091, Note_off_c, 0, 81, 64
1, 1097, Note_on_c, 0, 59, 54
1, 1129, Note_off_c, 0, 59, 64
1, 1147, Note_on_c, 0, 62, 63
1, 1151, Note_on_c, 0, 84, 81
1, 1152, Note_on_c, 0, 52, 60
1, 1152, Note_on_c, 0, 80, 76
1, 1153, Note_on_c, 0, 74, 78
1, 1267, Note_off_c, 0, 84, 64
1, 1283, Note_off_c, 0, 80, 64
1, 1296, Note_on_c, 0, 83, 100
1, 1384, Note_off_c, 0, 62, 64
1, 1402, Note_off_c, 0, 52, 64
1, 1466, Note_off_c, 0, 74, 64
1, 1486, Note_on_c, 0, 52, 64
1, 1527, Note_off_c, 0, 83, 64
1, 1532, Note_on_c, 0, 45, 53
1, 1536, Note_off_c, 0, 52, 64
1, 1537, Note_off_c, 0, 45, 64
1, 0, Note_on_c, 0, 33, 83
1, 0, Note_on_c, 0, 57, 82
1, 0, Note_on_c, 0, 60, 83
1, 0, Note_on_c, 0, 64, 82
1, 11, Note_off_c, 0, 57, 64
1, 14, Note_off_c, 0, 60, 64
1, 16, Note_off_c, 0, 33, 64
1, 19, Note_off_c, 0, 64, 64
1, 46, Note_on_c, 0, 64, 71
1, 47, Note_on_c, 0, 57, 68
1, 47, Note_on_c, 0, 60, 63
1, 57, Note_off_c, 0, 57, 64
1, 57, Note_off_c, 0, 60, 64
1, 60, Note_off_c, 0, 64, 64
1, 95, Note_on_c, 0, 57, 77
1, 95, Note_on_c, 0, 60, 77
1, 96, Note_on_c, 0, 64, 74
1, 105, Note_off_c, 0, 57, 64
1, 106, Note_off_c, 0, 60, 64
1, 106, Note_off_c, 0, 64, 64
1, 144, Note_on_c, 0, 57, 72
1, 144, Note_on_c, 0, 60, 66
1, 144, Note_on_c, 0, 64, 70
1, 153, Note_off_c, 0, 57, 64
1, 154, Note_off_c, 0, 60, 64
1, 156, Note_off_c, 0, 64, 64
1, 191, Note_on_c, 0, 64, 76
1, 192, Note_on_c, 0, 57, 73
1, 192, Note_on_c, 0, 60, 76
1, 202, Note_off_c, 0, 57, 64
1, 203, Note_off_c, 0, 60, 64
1, 210, Note_off_c, 0, 64, 64
1, 240, Note_on_c, 0, 57, 65
1, 240, Note_on_c, 0, 60, 65
1, 240, Note_on_c, 0, 64, 68
1, 250, Note_off_c, 0, 57, 64
1, 250, Note_off_c, 0, 60, 64
1, 251, Note_off_c, 0, 64, 64
1, 287, Note_on_c, 0, 64, 74
1, 288, Note_on_c, 0, 33, 72
1, 288, Note_on_c, 0, 57, 82
1, 288, Note_on_c, 0, 60, 79
1, 300, Note_off_c, 0, 60, 64
1, 301, Note_off_c, 0, 57, 64
1, 304, Note_off_c, 0, 64, 64
1, 311, Note_on_c, 0, 36, 72
1, 312, Note_off_c, 0, 33, 64
1, 336, Note_on_c, 0, 38, 82
1, 337, Note_on_c, 0, 57, 74
1, 337, Note_on_c, 0, 64, 76
1, 338, Note_on_c, 0, 60, 68
1, 342, Note_off_c, 0, 36, 64
1, 348, Note_off_c, 0, 60, 64
1, 350, Note_off_c, 0, 64, 64
1, 351, Note_off_c, 0, 57, 64
1, 360, Note_on_c, 0, 40, 77
1, 362, Note_off_c, 0, 38, 64
1, 384, Note_on_c, 0, 65, 75
1, 385, Note_on_c, 0, 41, 94
1, 385, Note_on_c, 0, 57, 75
1, 385, Note_on_c, 0, 60, 71
1, 386, Note_off_c, 0, 40, 64
1, 386, Note_on_c, 0, 64, 76
1, 394, Note_off_c, 0, 57, 64
1, 396, Note_off_c, 0, 60, 64
1, 399, Note_off_c, 0, 41, 64
1, 400, Note_off_c, 0, 64, 64
1, 401, Note_off_c, 0, 65, 64
1, 433, Note_on_c, 0, 57, 78
1, 433, Note_on_c, 0, 60, 67
1, 433, Note_on_c, 0, 64, 72
1, 433, Note_on_c, 0, 65, 63
1, 442, Note_off_c, 0, 57, 64
1, 443, Note_off_c, 0, 64, 64
1, 443, Note_off_c, 0, 65, 64
1, 444, Note_off_c, 0, 60, 64
1, 480, Note_on_c, 0, 57, 82
1, 480, Note_on_c, 0, 60, 74
1, 480, Note_on_c, 0, 64, 72
1, 481, Note_on_c, 0, 65, 71
1, 490, Note_off_c, 0, 65, 64
1, 491, Note_off_c, 0, 57, 64
1, 492, Note_off_c, 0, 60, 64
1, 493, Note_off_c, 0, 64, 64
1, 528, Note_on_c, 0, 57, 84
1, 528, Note_on_c, 0, 60, 72
1, 528, Note_on_c, 0, 64, 65
1, 528, Note_on_c, 0, 65, 69
1, 539, Note_off_c, 0, 65, 64
1, 540, Note_off_c, 0, 57, 64
1, 541, Note_off_c, 0, 60, 64
1, 543, Note_off_c, 0, 64, 64
1, 576, Note_on_c, 0, 57, 84
1, 576, Note_on_c, 0, 60, 73
1, 576, Note_on_c, 0, 64, 69
1, 576, Note_on_c, 0, 65, 68
1, 587, Note_off_c, 0, 57, 64
1, 587, Note_off_c, 0, 65, 64
1, 588, Note_off_c, 0, 60, 64
1, 591, Note_off_c, 0, 64, 64
1, 623, Note_on_c, 0, 57, 77
1, 624, Note_on_c, 0, 60, 71
1, 624, Note_on_c, 0, 64, 66
1, 624, Note_on_c, 0, 65, 69
1, 634, Note_off_c, 0, 65, 64
1, 635, Note_off_c, 0, 60, 64
1, 636, Note_off_c, 0, 57, 64
1, 638, Note_off_c, 0, 64, 64
1, 670, Note_on_c, 0, 57, 87
1, 671, Note_on_c, 0, 60, 79
1, 671, Note_on_c, 0, 65, 72
1, 672, Note_on_c, 0, 64, 79
1, 689, Note_off_c, 0, 57, 64
1, 690, Note_off_c, 0, 65, 64
1, 694, Note_off_c, 0, 60, 64
1, 701, Note_off_c, 0, 64, 64
1, 718, Note_on_c, 0, 31, 66
1, 745, Note_on_c, 0, 33, 82
1, 754, Note_off_c, 0, 31, 64
1, 768, Note_on_c, 0, 56, 81
1, 768, Note_on_c, 0, 62, 81
1, 768, Note_on_c, 0, 64, 78
1, 769, Note_on_c, 0, 28, 85
1, 770, Note_off_c, 0, 33, 64
1, 779, Note_off_c, 0, 56, 64
1, 787, Note_off_c, 0, 28, 64
1, 788, Note_off_c, 0, 62, 64
1, 790, Note_off_c, 0, 64, 64
1, 818, Note_on_c, 0, 56, 76
1, 818, Note_on_c, 0, 62, 68
1, 818, Note_on_c, 0, 64, 69
1, 826, Note_off_c, 0, 56, 64
1, 831, Note_off_c, 0, 64, 64
1, 835, Note_off_c, 0, 62, 64
1, 865, Note_on_c, 0, 56, 83
1, 866, Note_on_c, 0, 62, 76
1, 866, Note_on_c, 0, 64, 71
1, 875, Note_off_c, 0, 56, 64
1, 881, Note_off_c, 0, 64, 64
1, 884, Note_off_c, 0, 62, 64
1, 913, Note_on_c, 0, 56, 83
1, 914, Note_on_c, 0, 62, 76
1, 914, Note_on_c, 0, 64, 70
1, 924, Note_off_c, 0, 56, 64
1, 926, Note_off_c, 0, 64, 64
1, 927, Note_off_c, 0, 62, 64
1, 961, Note_on_c, 0, 56, 85
1, 962, Note_on_c, 0, 62, 77
1, 962, Note_on_c, 0, 64, 69
1, 970, Note_off_c, 0, 56, 64
1, 973, Note_off_c, 0, 64, 64
1, 974, Note_off_c, 0, 62, 64
1, 1009, Note_on_c, 0, 56, 86
1, 1010, Note_on_c, 0, 62, 75
1, 1010, Note_on_c, 0, 64, 68
1, 1018, Note_off_c, 0, 56, 64
1, 1021, Note_off_c, 0, 64, 64
1, 1024, Note_off_c, 0, 62, 64
1, 1056, Note_on_c, 0, 56, 87
1, 1057, Note_on_c, 0, 62, 75
1, 1057, Note_on_c, 0, 64, 71
1, 1068, Note_off_c, 0, 62, 64
1, 1070, Note_off_c, 0, 56, 64
1, 1071, Note_off_c, 0, 64, 64
1, 1102, Note_on_c, 0, 31, 79
1, 1104, Note_on_c, 0, 56, 77
1, 1104, Note_on_c, 0, 62, 71
1, 1104, Note_on_c, 0, 64, 74
1, 1113, Note_off_c, 0, 56, 64
1, 1118, Note_off_c, 0, 62, 64
1, 1118, Note_off_c, 0, 64, 64
1, 1125, Note_on_c, 0, 32, 83
1, 1128, Note_off_c, 0, 31, 64
1, 1147, Note_off_c, 0, 32, 64
1, 1151, Note_on_c, 0, 33, 76
1, 1151, Note_on_c, 0, 64, 78
1, 1152, Note_on_c, 0, 57, 79
1, 1152, Note_on_c, 0, 60, 79
1, 1166, Note_off_c, 0, 57, 64
1, 1167, Note_off_c, 0, 33, 64
1, 1168, Note_off_c, 0, 60, 64
1, 1172, Note_off_c, 0, 64, 64
1, 1200, Note_on_c, 0, 60, 76
1, 1200, Note_on_c, 0, 64, 59
1, 1201, Note_on_c, 0, 57, 69
1, 1210, Note_off_c, 0, 57, 64
1, 1211, Note_off_c, 0, 60, 64
1, 1211, Note_off_c, 0, 64, 64
1, 1248, Note_on_c, 0, 57, 81
1, 1249, Note_on_c, 0, 60, 66
1, 1249, Note_on_c, 0, 62, 59
1, 1257, Note_off_c, 0, 57, 64
1, 1258, Note_off_c, 0, 62, 64
1, 1259, Note_off_c, 0, 60, 64
1, 1295, Note_on_c, 0, 33, 70
1, 1295, Note_on_c, 0, 55, 87
1, 1295, Note_on_c, 0, 60, 65
1, 1295, Note_on_c, 0, 64, 88
1, 1305, Note_off_c, 0, 33, 64
1, 1305, Note_off_c, 0, 55, 64
1, 1308, Note_off_c, 0, 60, 64
1, 1313, Note_off_c, 0, 64, 64
1, 1342, Note_on_c, 0, 55, 68
1, 1342, Note_on_c, 0, 57, 73
1, 1342, Note_on_c, 0, 60, 64
1, 1343, Note_on_c, 0, 64, 55
1, 1352, Note_off_c, 0, 55, 64
1, 1352, Note_off_c, 0, 57, 64
1, 1354, Note_off_c, 0, 60, 64
1, 1354, Note_off_c, 0, 64, 64
1, 1390, Note_on_c, 0, 40, 78
1, 1390, Note_on_c, 0, 57, 79
1, 1390, Note_on_c, 0, 60, 75
1, 1391, Note_on_c, 0, 55, 79
1, 1391, Note_on_c, 0, 64, 73
1, 1398, Note_off_c, 0, 40, 64
1, 1398, Note_off_c, 0, 55, 64
1, 1399, Note_off_c, 0, 57, 64
1, 1400, Note_off_c, 0, 64, 64
1, 1401, Note_off_c, 0, 60, 64
1, 1438, Note_on_c, 0, 55, 77
1, 1438, Note_on_c, 0, 57, 79
1, 1438, Note_on_c, 0, 60, 71
1, 1438, Note_on_c, 0, 64, 68
1, 1447, Note_off_c, 0, 55, 64
1, 1448, Note_off_c, 0, 57, 64
1, 1449, Note_off_c, 0, 64, 64
1, 1450, Note_off_c, 0, 60, 64
1, 1486, Note_on_c, 0, 57, 73
1, 1486, Note_on_c, 0, 60, 69
1, 1486, Note_on_c, 0, 64, 65
1, 1487, Note_on_c, 0, 55, 68
1, 1489, Note_on_c, 0, 40, 78
1, 1495, Note_off_c, 0, 55, 64
1, 1495, Note_off_c, 0, 57, 64
1, 1496, Note_off_c, 0, 64, 64
1, 1497, Note_off_c, 0, 60, 64
1, 1499, Note_off_c, 0, 40, 64
1, 2, Note_on_c, 0, 52, 81
1, 2, Note_on_c, 0, 55, 81
1, 3, Note_on_c, 0, 48, 76
1, 3, Note_on_c, 0, 57, 78
1, 4, Note_on_c, 0, 45, 68
1, 5, Note_on_c, 0, 33, 66
1, 315, Note_off_c, 0, 55, 64
1, 316, Note_off_c, 0, 57, 64
1, 328, Note_off_c, 0, 52, 64
1, 338, Note_off_c, 0, 33, 64
1, 339, Note_off_c, 0, 45, 64
1, 343, Note_off_c, 0, 48, 64
1, 382, Note_on_c, 0, 53, 76
1, 382, Note_on_c, 0, 57, 72
1, 383, Note_on_c, 0, 48, 67
1, 384, Note_on_c, 0, 41, 67
1, 384, Note_on_c, 0, 52, 75
1, 385, Note_on_c, 0, 33, 58
1, 676, Note_off_c, 0, 48, 64
1, 676, Note_off_c, 0, 52, 64
1, 677, Note_off_c, 0, 53, 64
1, 679, Note_off_c, 0, 41, 64
1, 684, Note_off_c, 0, 57, 64
1, 686, Note_off_c, 0, 33, 64
1, 763, Note_on_c, 0, 62, 79
1, 765, Note_on_c, 0, 57, 72
1, 768, Note_on_c, 0, 28, 70
1, 769, Note_on_c, 0, 40, 72
1, 769, Note_on_c, 0, 53, 83
1, 912, Note_off_c, 0, 57, 64
1, 914, Note_off_c, 0, 53, 64
1, 958, Note_on_c, 0, 52, 66
1, 960, Note_on_c, 0, 60, 58
1, 962, Note_on_c, 0, 56, 64
1, 1076, Note_off_c, 0, 28, 64
1, 1087, Note_off_c, 0, 62, 64
1, 1090, Note_off_c, 0, 60, 64
1, 1091, Note_off_c, 0, 56, 64
1, 1099, Note_off_c, 0, 40, 64
1, 1104, Note_on_c, 0, 50, 49
1, 1104, Note_off_c, 0, 52, 64
1, 1136, Note_off_c, 0, 50, 64
1, 1150, Note_on_c, 0, 52, 63
1, 1150, Note_on_c, 0, 55, 71
1, 1150, Note_on_c, 0, 57, 75
1, 1151, Note_on_c, 0, 33, 59
1, 1153, Note_on_c, 0, 48, 62
1, 1161, Note_on_c, 0, 59, 74
1, 1164, Note_off_c, 0, 57, 64
1, 1228, Note_on_c, 0, 57, 64
1, 1440, Note_off_c, 0, 48, 64
1, 1443, Note_off_c, 0, 52, 64
1, 1450, Note_off_c, 0, 55, 64
1, 1465, Note_off_c, 0, 59, 64
1, 1468, Note_off_c, 0, 57, 64
1, 1521, Note_off_c, 0, 33, 64
1, 4, Note_on_c, 0, 50, 52
1, 5, Note_on_c, 0, 65, 68
1, 37, Note_off_c, 0, 65, 64
1, 48, Note_on_c, 0, 57, 55
1, 81, Note_off_c, 0, 50, 64
1, 95, Note_on_c, 0, 53, 65
1, 100, Note_on_c, 0, 62, 73
1, 106, Note_off_c, 0, 57, 64
1, 141, Note_off_c, 0, 62, 64
1, 146, Note_on_c, 0, 65, 72
1, 193, Note_on_c, 0, 64, 76
1, 193, Note_off_c, 0, 65, 64
1, 194, Note_on_c, 0, 48, 65
1, 198, Note_off_c, 0, 53, 64
1, 230, Note_off_c, 0, 64, 64
1, 243, Note_on_c, 0, 57, 67
1, 280, Note_off_c, 0, 48, 64
1, 290, Note_on_c, 0, 52, 68
1, 291, Note_off_c, 0, 57, 64
1, 292, Note_on_c, 0, 60, 72
1, 334, Note_off_c, 0, 60, 64
1, 338, Note_on_c, 0, 64, 70
1, 384, Note_off_c, 0, 52, 64
1, 385, Note_on_c, 0, 47, 62
1, 388, Note_on_c, 0, 62, 66
1, 399, Note_off_c, 0, 64, 64
1, 426, Note_off_c, 0, 62, 64
1, 431, Note_on_c, 0, 55, 64
1, 475, Note_off_c, 0, 55, 64
1, 480, Note_off_c, 0, 47, 64
1, 482, Note_on_c, 0, 59, 65
1, 484, Note_on_c, 0, 50, 67
1, 527, Note_on_c, 0, 62, 71
1, 529, Note_off_c, 0, 59, 64
1, 569, Note_off_c, 0, 50, 64
1, 579, Note_on_c, 0, 60, 70
1, 583, Note_on_c, 0, 45, 62
1, 586, Note_off_c, 0, 62, 64
1, 620, Note_off_c, 0, 60, 64
1, 626, Note_on_c, 0, 55, 71
1, 668, Note_off_c, 0, 55, 64
1, 673, Note_off_c, 0, 45, 64
1, 675, Note_on_c, 0, 59, 64
1, 676, Note_on_c, 0, 48, 65
1, 721, Note_off_c, 0, 59, 64
1, 724, Note_on_c, 0, 60, 76
1, 758, Note_off_c, 0, 60, 64
1, 759, Note_off_c, 0, 48, 64
1, 770, Note_on_c, 0, 59, 79
1, 774, Note_on_c, 0, 44, 68
1, 866, Note_on_c, 0, 47, 63
1, 963, Note_on_c, 0, 52, 71
1, 969, Note_off_c, 0, 59, 64
1, 1012, Note_on_c, 0, 62, 64
1, 1017, Note_off_c, 0, 52, 64
1, 1022, Note_off_c, 0, 62, 64
1, 1023, Note_on_c, 0, 64, 82
1, 1040, Note_on_c, 0, 62, 70
1, 1047, Note_off_c, 0, 64, 64
1, 1058, Note_on_c, 0, 60, 80
1, 1061, Note_on_c, 0, 52, 7
1, 1062, Note_off_c, 0, 62, 64
1, 1068, Note_off_c, 0, 47, 64
1, 1073, Note_off_c, 0, 44, 64
1, 1084, Note_off_c, 0, 52, 64
1, 1112, Note_off_c, 0, 60, 64
1, 1112, Note_on_c, 0, 62, 80
1, 1158, Note_on_c, 0, 57, 64
1, 1162, Note_on_c, 0, 60, 79
1, 1163, Note_off_c, 0, 62, 64
1, 1205, Note_on_c, 0, 52, 64
1, 1206, Note_off_c, 0, 57, 64
1, 1252, Note_off_c, 0, 60, 64
1, 1253, Note_off_c, 0, 52, 64
1, 1254, Note_on_c, 0, 57, 77
1, 1258, Note_on_c, 0, 45, 61
1, 1344, Note_on_c, 0, 60, 73
1, 1345, Note_on_c, 0, 48, 47
1, 1346, Note_on_c, 0, 33, 61
1, 1352, Note_off_c, 0, 45, 64
1, 1387, Note_off_c, 0, 33, 64
1, 1391, Note_on_c, 0, 62, 63
1, 1399, Note_off_c, 0, 60, 64
1, 1406, Note_off_c, 0, 57, 64
1, 1433, Note_off_c, 0, 48, 64
1, 1440, Note_on_c, 0, 52, 76
1, 1440, Note_on_c, 0, 64, 79
1, 1452, Note_off_c, 0, 62, 64
1, 1533, Note_off_c, 0, 64, 64
1, 1537, Note_off_c, 0, 52, 64
1, 0, Pitch_bend_c, 0, 8192
1, 0, Control_c, 0, 6, 12
1, 0, Control_c, 0, 7, 100
1, 0, Control_c, 0, 10, 64
1, 0, Control_c, 0, 100, 0
1, 0, Control_c, 0, 101, 0
1, 0, Note_on_c, 0, 55, 100
1, 0, Note_on_c, 0, 60, 100
1, 48, Note_off_c, 0, 55, 64
1, 48, Note_off_c, 0, 60, 64
1, 72, Note_on_c, 0, 60, 100
1, 120, Note_off_c, 0, 60, 64
1, 144, Note_on_c, 0, 55, 100
1, 192, Note_off_c, 0, 55, 64
1, 192, Note_on_c, 0, 55, 100
1, 192, Note_on_c, 0, 62, 100
1, 240, Note_off_c, 0, 55, 64
1, 240, Note_off_c, 0, 62, 64
1, 264, Note_on_c, 0, 62, 100
1, 312, Note_off_c, 0, 62, 64
1, 336, Note_on_c, 0, 55, 100
1, 384, Note_on_c, 0, 52, 100
1, 384, Note_off_c, 0, 55, 64
1, 384, Note_on_c, 0, 60, 100
1, 432, Note_off_c, 0, 52, 64
1, 432, Note_off_c, 0, 60, 64
1, 456, Note_on_c, 0, 60, 100
1, 504, Note_off_c, 0, 60, 64
1, 528, Note_on_c, 0, 52, 100
1, 576, Note_off_c, 0, 52, 64
1, 576, Note_on_c, 0, 59, 100
1, 576, Note_on_c, 0, 62, 100
1, 624, Note_on_c, 0, 50, 100
1, 624, Note_off_c, 0, 59, 64
1, 624, Note_off_c, 0, 62, 64
1, 672, Note_off_c, 0, 50, 64
1, 672, Note_on_c, 0, 55, 100
1, 672, Note_on_c, 0, 62, 100
1, 720, Note_off_c, 0, 55, 64
1, 720, Note_off_c, 0, 62, 64
1, 768, Note_on_c, 0, 55, 100
1, 768, Note_on_c, 0, 60, 100
1, 816, Note_off_c, 0, 55, 64
1, 816, Note_off_c, 0, 60, 64
1, 840, Note_on_c, 0, 60, 100
1, 888, Note_off_c, 0, 60, 64
1, 912, Note_on_c, 0, 55, 100
1, 960, Note_off_c, 0, 55, 64
1, 960, Note_on_c, 0, 55, 100
1, 960, Note_on_c, 0, 62, 100
1, 1008, Note_off_c, 0, 55, 64
1, 1008, Note_off_c, 0, 62, 64
1, 1032, Note_on_c, 0, 62, 100
1, 1080, Note_off_c, 0, 62, 64
1, 1104, Note_on_c, 0, 55, 100
1, 1152, Note_on_c, 0, 52, 100
1, 1152, Note_off_c, 0, 55, 64
1, 1152, Note_on_c, 0, 60, 100
1, 1200, Note_off_c, 0, 52, 64
1, 1200, Note_off_c, 0, 60, 64
1, 1224, Note_on_c, 0, 60, 100
1, 1272, Note_off_c, 0, 60, 64
1, 1296, Note_on_c, 0, 52, 100
1, 1344, Note_off_c, 0, 52, 64
1, 1344, Note_on_c, 0, 59, 100
1, 1344, Note_on_c, 0, 62, 100
1, 1392, Note_on_c, 0, 48, 100
1, 1392, Note_off_c, 0, 59, 64
1, 1392, Note_off_c, 0, 62, 64
1, 1440, Note_off_c, 0, 48, 64
1, 1440, Note_on_c, 0, 55, 100
1, 1440, Note_on_c, 0, 60, 100
1, 1488, Note_off_c, 0, 55, 64
1, 1488, Note_off_c, 0, 60, 64
1, 1535, Pitch_bend_c, 0, 8192
1, 1535, Pitch_bend_c, 0, 8192
1, 1535, Control_c, 0, 7, 100
1, 1535, Control_c, 0, 7, 100
1, 1535, Control_c, 0, 10, 64
1, 1535, Control_c, 0, 10, 64
1, 1536, Pitch_bend_c, 0, 8192
1, 1536, Control_c, 0, 6, 12
1, 1536, Control_c, 0, 6, 12
1, 1536, Control_c, 0, 7, 100
1, 1536, Control_c, 0, 10, 64
1, 1536, Control_c, 0, 100, 0
1, 1536, Control_c, 0, 100, 0
1, 1536, Control_c, 0, 101, 0
1, 1536, Control_c, 0, 101, 0
1, 1, Note_on_c, 0, 57, 83
1, 2, Note_on_c, 0, 60, 81
1, 3, Note_on_c, 0, 52, 71
1, 4, Note_on_c, 0, 45, 69
1, 5, Note_on_c, 0, 48, 66
1, 236, Note_off_c, 0, 48, 64
1, 249, Note_off_c, 0, 52, 64
1, 250, Note_off_c, 0, 45, 64
1, 267, Note_off_c, 0, 57, 64
1, 276, Note_off_c, 0, 60, 64
1, 379, Note_on_c, 0, 38, 68
1, 380, Note_on_c, 0, 65, 77
1, 381, Note_on_c, 0, 60, 75
1, 382, Note_on_c, 0, 53, 74
1, 383, Note_on_c, 0, 50, 61
1, 383, Note_on_c, 0, 57, 76
1, 384, Note_on_c, 0, 45, 63
1, 462, Note_off_c, 0, 65, 64
1, 471, Note_off_c, 0, 38, 64
1, 471, Note_off_c, 0, 50, 64
1, 475, Note_off_c, 0, 53, 64
1, 475, Note_off_c, 0, 57, 64
1, 477, Note_off_c, 0, 45, 64
1, 477, Note_off_c, 0, 60, 64
1, 572, Note_on_c, 0, 36, 74
1, 572, Note_on_c, 0, 48, 71
1, 573, Note_on_c, 0, 60, 76
1, 574, Note_on_c, 0, 55, 84
1, 575, Note_on_c, 0, 45, 74
1, 575, Note_on_c, 0, 52, 87
1, 575, Note_on_c, 0, 64, 76
1, 651, Note_off_c, 0, 64, 64
1, 656, Note_off_c, 0, 45, 64
1, 656, Note_off_c, 0, 48, 64
1, 658, Note_off_c, 0, 60, 64
1, 662, Note_off_c, 0, 52, 64
1, 665, Note_off_c, 0, 55, 64
1, 666, Note_off_c, 0, 36, 64
1, 763, Note_on_c, 0, 62, 89
1, 765, Note_on_c, 0, 35, 76
1, 766, Note_on_c, 0, 47, 79
1, 766, Note_on_c, 0, 50, 89
1, 767, Note_on_c, 0, 55, 89
1, 768, Note_on_c, 0, 43, 81
1, 838, Note_off_c, 0, 62, 64
1, 847, Note_off_c, 0, 55, 64
1, 848, Note_off_c, 0, 35, 64
1, 850, Note_off_c, 0, 47, 64
1, 853, Note_off_c, 0, 43, 64
1, 858, Note_off_c, 0, 50, 64
1, 956, Note_on_c, 0, 48, 89
1, 957, Note_on_c, 0, 60, 83
1, 958, Note_on_c, 0, 33, 81
1, 958, Note_on_c, 0, 52, 87
1, 959, Note_on_c, 0, 45, 77
1, 960, Note_on_c, 0, 55, 84
1, 961, Note_on_c, 0, 40, 79
1, 1038, Note_off_c, 0, 45, 64
1, 1041, Note_off_c, 0, 40, 64
1, 1044, Note_off_c, 0, 33, 64
1, 1045, Note_off_c, 0, 52, 64
1, 1045, Note_off_c, 0, 60, 64
1, 1052, Note_off_c, 0, 55, 64
1, 1057, Note_off_c, 0, 48, 64
1, 1150, Note_on_c, 0, 52, 92
1, 1151, Note_on_c, 0, 32, 77
1, 1151, Note_on_c, 0, 47, 89
1, 1152, Note_on_c, 0, 40, 80
1, 1153, Note_on_c, 0, 44, 80
1, 1154, Note_on_c, 0, 56, 92
1, 1154, Note_on_c, 0, 59, 86
1, 1340, Note_off_c, 0, 47, 64
1, 1341, Note_off_c, 0, 32, 64
1, 1343, Note_off_c, 0, 44, 64
1, 1344, Note_off_c, 0, 59, 64
1, 1345, Note_off_c, 0, 56, 64
1, 1350, Note_off_c, 0, 40, 64
1, 1530, Note_off_c, 0, 52, 64
1, 0, Note_on_c, 0, 29, 74
1, 1, Note_on_c, 0, 60, 80
1, 14, Note_off_c, 0, 29, 64
1, 16, Note_off_c, 0, 60, 64
1, 47, Note_on_c, 0, 48, 70
1, 49, Note_on_c, 0, 36, 43
1, 57, Note_off_c, 0, 48, 64
1, 63, Note_off_c, 0, 36, 64
1, 92, Note_on_c, 0, 45, 72
1, 96, Note_on_c, 0, 53, 71
1, 103, Note_off_c, 0, 45, 64
1, 109, Note_off_c, 0, 53, 64
1, 145, Note_on_c, 0, 48, 67
1, 155, Note_off_c, 0, 48, 64
1, 191, Note_on_c, 0, 31, 75
1, 192, Note_on_c, 0, 59, 77
1, 201, Note_off_c, 0, 31, 64
1, 213, Note_off_c, 0, 59, 64
1, 240, Note_on_c, 0, 38, 64
1, 240, Note_on_c, 0, 50, 73
1, 250, Note_off_c, 0, 38, 64
1, 251, Note_off_c, 0, 50, 64
1, 286, Note_on_c, 0, 47, 63
1, 289, Note_on_c, 0, 55, 79
1, 297, Note_off_c, 0, 47, 64
1, 319, Note_off_c, 0, 55, 64
1, 336, Note_on_c, 0, 50, 70
1, 347, Note_off_c, 0, 50, 64
1, 382, Note_on_c, 0, 33, 69
1, 383, Note_on_c, 0, 57, 67
1, 399, Note_off_c, 0, 33, 64
1, 405, Note_off_c, 0, 57, 64
1, 430, Note_on_c, 0, 48, 78
1, 432, Note_on_c, 0, 40, 70
1, 441, Note_off_c, 0, 48, 64
1, 444, Note_off_c, 0, 40, 64
1, 477, Note_on_c, 0, 52, 71
1, 479, Note_on_c, 0, 45, 85
1, 489, Note_off_c, 0, 45, 64
1, 492, Note_off_c, 0, 52, 64
1, 528, Note_on_c, 0, 48, 58
1, 541, Note_off_c, 0, 48, 64
1, 575, Note_on_c, 0, 57, 68
1, 602, Note_off_c, 0, 57, 64
1, 622, Note_on_c, 0, 48, 70
1, 633, Note_off_c, 0, 48, 64
1, 670, Note_on_c, 0, 52, 68
1, 697, Note_off_c, 0, 52, 64
1, 715, Note_on_c, 0, 48, 71
1, 717, Note_on_c, 0, 36, 64
1, 727, Note_off_c, 0, 48, 64
1, 728, Note_off_c, 0, 36, 64
1, 763, Note_on_c, 0, 29, 83
1, 768, Note_on_c, 0, 60, 84
1, 778, Note_off_c, 0, 29, 64
1, 780, Note_off_c, 0, 60, 64
1, 813, Note_on_c, 0, 48, 78
1, 815, Note_on_c, 0, 36, 63
1, 825, Note_off_c, 0, 48, 64
1, 827, Note_off_c, 0, 36, 64
1, 862, Note_on_c, 0, 45, 69
1, 865, Note_on_c, 0, 53, 77
1, 873, Note_off_c, 0, 45, 64
1, 877, Note_off_c, 0, 53, 64
1, 910, Note_on_c, 0, 48, 73
1, 922, Note_off_c, 0, 48, 64
1, 958, Note_on_c, 0, 31, 70
1, 960, Note_on_c, 0, 59, 81
1, 974, Note_off_c, 0, 31, 64
1, 985, Note_off_c, 0, 59, 64
1, 1006, Note_on_c, 0, 50, 73
1, 1010, Note_on_c, 0, 38, 59
1, 1017, Note_off_c, 0, 50, 64
1, 1022, Note_off_c, 0, 38, 64
1, 1055, Note_on_c, 0, 47, 62
1, 1057, Note_on_c, 0, 55, 71
1, 1066, Note_off_c, 0, 47, 64
1, 1069, Note_off_c, 0, 55, 64
1, 1100, Note_on_c, 0, 50, 73
1, 1111, Note_off_c, 0, 50, 64
1, 1151, Note_on_c, 0, 57, 72
1, 1153, Note_on_c, 0, 33, 75
1, 1177, Note_off_c, 0, 57, 64
1, 1178, Note_off_c, 0, 33, 64
1, 1198, Note_on_c, 0, 40, 75
1, 1201, Note_on_c, 0, 48, 71
1, 1213, Note_off_c, 0, 48, 64
1, 1214, Note_off_c, 0, 40, 64
1, 1247, Note_on_c, 0, 52, 72
1, 1248, Note_on_c, 0, 45, 81
1, 1259, Note_off_c, 0, 45, 64
1, 1271, Note_off_c, 0, 52, 64
1, 1294, Note_on_c, 0, 48, 73
1, 1306, Note_off_c, 0, 48, 64
1, 1343, Note_on_c, 0, 55, 87
1, 1375, Note_off_c, 0, 55, 64
1, 1390, Note_on_c, 0, 52, 77
1, 1409, Note_off_c, 0, 52, 64
1, 1438, Note_on_c, 0, 48, 84
1, 1457, Note_off_c, 0, 48, 64
1, 1487, Note_on_c, 0, 52, 66
1, 1489, Note_on_c, 0, 36, 53
1, 1498, Note_off_c, 0, 52, 64
1, 1503, Note_off_c, 0, 36, 64
1, 0, Note_on_c, 0, 53, 78
1, 1, Note_on_c, 0, 41, 71
1, 1, Note_on_c, 0, 60, 77
1, 2, Note_on_c, 0, 29, 66
1, 2, Note_on_c, 0, 48, 74
1, 2, Note_on_c, 0, 57, 67
1, 92, Note_off_c, 0, 60, 64
1, 96, Note_off_c, 0, 29, 64
1, 97, Note_off_c, 0, 57, 64
1, 98, Note_off_c, 0, 53, 64
1, 106, Note_off_c, 0, 48, 64
1, 115, Note_off_c, 0, 41, 64
1, 188, Note_on_c, 0, 55, 84
1, 188, Note_on_c, 0, 59, 77
1, 189, Note_on_c, 0, 52, 75
1, 190, Note_on_c, 0, 47, 78
1, 191, Note_on_c, 0, 31, 67
1, 191, Note_on_c, 0, 43, 68
1, 284, Note_off_c, 0, 31, 64
1, 286, Note_off_c, 0, 47, 64
1, 292, Note_off_c, 0, 52, 64
1, 294, Note_off_c, 0, 43, 64
1, 300, Note_off_c, 0, 55, 64
1, 302, Note_off_c, 0, 59, 64
1, 379, Note_on_c, 0, 59, 77
1, 380, Note_on_c, 0, 48, 80
1, 381, Note_on_c, 0, 55, 67
1, 383, Note_on_c, 0, 45, 66
1, 384, Note_on_c, 0, 33, 64
1, 384, Note_on_c, 0, 52, 72
1, 655, Note_off_c, 0, 59, 64
1, 662, Note_off_c, 0, 45, 64
1, 665, Note_off_c, 0, 55, 64
1, 667, Note_off_c, 0, 48, 64
1, 670, Note_off_c, 0, 52, 64
1, 672, Note_off_c, 0, 33, 64
1, 766, Note_on_c, 0, 57, 82
1, 767, Note_on_c, 0, 45, 82
1, 768, Note_on_c, 0, 29, 65
1, 768, Note_on_c, 0, 52, 85
1, 769, Note_on_c, 0, 36, 74
1, 872, Note_off_c, 0, 29, 64
1, 875, Note_off_c, 0, 45, 64
1, 878, Note_off_c, 0, 36, 64
1, 883, Note_off_c, 0, 52, 64
1, 885, Note_off_c, 0, 57, 64
1, 956, Note_on_c, 0, 55, 84
1, 958, Note_on_c, 0, 47, 87
1, 958, Note_on_c, 0, 59, 88
1, 959, Note_on_c, 0, 31, 71
1, 961, Note_on_c, 0, 38, 72
1, 1059, Note_off_c, 0, 47, 64
1, 1060, Note_off_c, 0, 31, 64
1, 1062, Note_off_c, 0, 38, 64
1, 1064, Note_off_c, 0, 59, 64
1, 1070, Note_off_c, 0, 55, 64
1, 1150, Note_on_c, 0, 55, 80
1, 1151, Note_on_c, 0, 48, 80
1, 1151, Note_on_c, 0, 60, 80
1, 1152, Note_on_c, 0, 45, 63
1, 1153, Note_on_c, 0, 33, 60
1, 1153, Note_on_c, 0, 40, 69
1, 1427, Note_off_c, 0, 60, 64
1, 1430, Note_off_c, 0, 55, 64
1, 1437, Note_off_c, 0, 45, 64
1, 1437, Note_off_c, 0, 48, 64
1, 1445, Note_off_c, 0, 40, 64
1, 1446, Note_off_c, 0, 33, 64
1, 0, Note_on_c, 0, 29, 72
1, 1, Note_on_c, 0, 69, 96
1, 46, Note_on_c, 0, 33, 51
1, 96, Note_on_c, 0, 36, 66
1, 144, Note_on_c, 0, 41, 76
1, 191, Note_on_c, 0, 57, 77
1, 202, Note_off_c, 0, 69, 64
1, 238, Note_on_c, 0, 60, 78
1, 267, Note_off_c, 0, 29, 64
1, 268, Note_off_c, 0, 33, 64
1, 282, Note_off_c, 0, 36, 64
1, 288, Note_on_c, 0, 69, 97
1, 291, Note_off_c, 0, 60, 64
1, 301, Note_off_c, 0, 57, 64
1, 361, Note_off_c, 0, 41, 64
1, 367, Note_off_c, 0, 69, 64
1, 380, Note_on_c, 0, 31, 78
1, 382, Note_on_c, 0, 67, 100
1, 429, Note_on_c, 0, 35, 70
1, 477, Note_on_c, 0, 38, 68
1, 524, Note_on_c, 0, 43, 73
1, 573, Note_on_c, 0, 62, 93
1, 577, Note_off_c, 0, 67, 64
1, 621, Note_on_c, 0, 64, 85
1, 624, Note_off_c, 0, 62, 64
1, 668, Note_on_c, 0, 67, 102
1, 675, Note_off_c, 0, 35, 64
1, 675, Note_off_c, 0, 38, 64
1, 678, Note_off_c, 0, 64, 64
1, 686, Note_off_c, 0, 31, 64
1, 698, Note_off_c, 0, 43, 64
1, 755, Note_off_c, 0, 67, 64
1, 765, Note_on_c, 0, 33, 58
1, 765, Note_on_c, 0, 64, 81
1, 809, Note_on_c, 0, 36, 71
1, 861, Note_on_c, 0, 40, 71
1, 909, Note_on_c, 0, 45, 69
1, 957, Note_on_c, 0, 57, 83
1, 1078, Note_off_c, 0, 57, 64
1, 1152, Note_on_c, 0, 60, 79
1, 1196, Note_off_c, 0, 64, 64
1, 1344, Note_on_c, 0, 64, 79
1, 1349, Note_off_c, 0, 60, 64
1, 1431, Note_off_c, 0, 36, 64
1, 1431, Note_off_c, 0, 45, 64
1, 1432, Note_off_c, 0, 33, 64
1, 1433, Note_off_c, 0, 40, 64
1, 1444, Note_on_c, 0, 48, 75
1, 1532, Note_off_c, 0, 64, 64
1, 1533, Note_off_c, 0, 48, 64
1, 0, Note_on_c, 0, 41, 76
1, 96, Note_on_c, 0, 48, 60
1, 144, Note_on_c, 0, 53, 78
1, 242, Note_on_c, 0, 57, 88
1, 264, Note_off_c, 0, 41, 64
1, 271, Note_off_c, 0, 48, 64
1, 309, Note_off_c, 0, 53, 64
1, 335, Note_off_c, 0, 57, 64
1, 340, Note_on_c, 0, 60, 70
1, 385, Note_on_c, 0, 43, 70
1, 387, Note_off_c, 0, 60, 64
1, 388, Note_on_c, 0, 59, 81
1, 435, Note_on_c, 0, 50, 59
1, 476, Note_off_c, 0, 59, 64
1, 479, Note_on_c, 0, 55, 68
1, 529, Note_on_c, 0, 60, 85
1, 624, Note_off_c, 0, 60, 64
1, 626, Note_on_c, 0, 62, 86
1, 664, Note_off_c, 0, 50, 64
1, 672, Note_off_c, 0, 43, 64
1, 687, Note_off_c, 0, 55, 64
1, 706, Note_off_c, 0, 62, 64
1, 720, Note_on_c, 0, 64, 78
1, 767, Note_on_c, 0, 60, 75
1, 768, Note_on_c, 0, 45, 68
1, 777, Note_off_c, 0, 64, 64
1, 780, Note_on_c, 0, 62, 86
1, 781, Note_off_c, 0, 60, 64
1, 817, Note_on_c, 0, 52, 63
1, 817, Note_on_c, 0, 60, 80
1, 834, Note_off_c, 0, 62, 64
1, 864, Note_on_c, 0, 57, 63
1, 873, Note_off_c, 0, 60, 64
1, 914, Note_on_c, 0, 60, 81
1, 1054, Note_on_c, 0, 67, 92
1, 1087, Note_off_c, 0, 67, 64
1, 1196, Note_on_c, 0, 72, 95
1, 1311, Note_off_c, 0, 72, 64
1, 1341, Note_on_c, 0, 71, 80
1, 1367, Note_off_c, 0, 57, 64
1, 1379, Note_off_c, 0, 52, 64
1, 1385, Note_off_c, 0, 45, 64
1, 1436, Note_off_c, 0, 60, 64
1, 1438, Note_off_c, 0, 71, 64
1, 1439, Note_on_c, 0, 67, 72
1, 1500, Note_off_c, 0, 67, 64
1, 0, Note_on_c, 0, 72, 80
1, 2, Note_on_c, 0, 41, 68
1, 2, Note_on_c, 0, 64, 78
1, 17, Note_off_c, 0, 64, 64
1, 34, Note_off_c, 0, 72, 64
1, 93, Note_on_c, 0, 62, 71
1, 97, Note_on_c, 0, 71, 74
1, 147, Note_off_c, 0, 62, 64
1, 189, Note_on_c, 0, 69, 67
1, 190, Note_on_c, 0, 60, 79
1, 193, Note_off_c, 0, 71, 64
1, 230, Note_off_c, 0, 60, 64
1, 273, Note_off_c, 0, 69, 64
1, 288, Note_on_c, 0, 64, 87
1, 289, Note_on_c, 0, 72, 86
1, 297, Note_off_c, 0, 41, 64
1, 312, Note_off_c, 0, 64, 64
1, 321, Note_off_c, 0, 72, 64
1, 383, Note_on_c, 0, 62, 85
1, 385, Note_on_c, 0, 71, 76
1, 386, Note_on_c, 0, 43, 65
1, 433, Note_off_c, 0, 62, 64
1, 470, Note_off_c, 0, 71, 64
1, 486, Note_on_c, 0, 60, 79
1, 488, Note_on_c, 0, 69, 68
1, 528, Note_off_c, 0, 60, 64
1, 528, Note_off_c, 0, 69, 64
1, 575, Note_on_c, 0, 55, 58
1, 576, Note_on_c, 0, 72, 92
1, 577, Note_on_c, 0, 64, 94
1, 602, Note_off_c, 0, 64, 64
1, 617, Note_off_c, 0, 72, 64
1, 670, Note_on_c, 0, 62, 95
1, 672, Note_off_c, 0, 43, 64
1, 672, Note_on_c, 0, 71, 86
1, 677, Note_off_c, 0, 55, 64
1, 765, Note_on_c, 0, 45, 68
1, 785, Note_off_c, 0, 62, 64
1, 852, Note_off_c, 0, 71, 64
1, 864, Note_on_c, 0, 69, 72
1, 867, Note_on_c, 0, 60, 84
1, 1110, Note_on_c, 0, 52, 56
1, 1157, Note_on_c, 0, 62, 69
1, 1510, Note_off_c, 0, 52, 64
1, 1514, Note_off_c, 0, 45, 64
1, 1514, Note_off_c, 0, 62, 64
1, 1517, Note_off_c, 0, 69, 64
1, 1524, Note_off_c, 0, 60, 64
1, 6, Note_on_c, 0, 69, 67
1, 6, Note_on_c, 0, 76, 79
1, 8, Note_on_c, 0, 53, 49
1, 9, Note_on_c, 0, 60, 63
1, 248, Note_off_c, 0, 53, 64
1, 253, Note_off_c, 0, 60, 64
1, 281, Note_off_c, 0, 69, 64
1, 378, Note_on_c, 0, 71, 71
1, 380, Note_on_c, 0, 74, 71
1, 381, Note_on_c, 0, 64, 58
1, 382, Note_off_c, 0, 76, 64
1, 384, Note_on_c, 0, 55, 57
1, 634, Note_off_c, 0, 55, 64
1, 635, Note_off_c, 0, 71, 64
1, 635, Note_off_c, 0, 74, 64
1, 657, Note_off_c, 0, 64, 64
1, 766, Note_on_c, 0, 72, 63
1, 767, Note_on_c, 0, 67, 54
1, 769, Note_on_c, 0, 57, 44
1, 769, Note_on_c, 0, 71, 65
1, 770, Note_on_c, 0, 64, 55
1, 1078, Note_off_c, 0, 67, 64
1, 1086, Note_off_c, 0, 71, 64
1, 1099, Note_off_c, 0, 72, 64
1, 1202, Note_on_c, 0, 71, 96
1, 1205, Note_off_c, 0, 64, 64
1, 1214, Note_off_c, 0, 57, 64
1, 1249, Note_on_c, 0, 72, 85
1, 1261, Note_off_c, 0, 71, 64
1, 1299, Note_on_c, 0, 79, 93
1, 1348, Note_on_c, 0, 52, 61
1, 1350, Note_on_c, 0, 60, 73
1, 1441, Note_off_c, 0, 52, 64
1, 1441, Note_off_c, 0, 79, 64
1, 1462, Note_off_c, 0, 60, 64
1, 1479, Note_off_c, 0, 72, 64
1, 0, Note_on_c, 0, 69, 90
1, 5, Note_on_c, 0, 57, 79
1, 96, Note_on_c, 0, 72, 90
1, 100, Note_on_c, 0, 60, 69
1, 121, Note_off_c, 0, 69, 64
1, 183, Note_off_c, 0, 60, 64
1, 184, Note_off_c, 0, 57, 64
1, 195, Note_on_c, 0, 64, 85
1, 196, Note_on_c, 0, 69, 86
1, 197, Note_off_c, 0, 72, 64
1, 270, Note_off_c, 0, 64, 64
1, 288, Note_on_c, 0, 52, 78
1, 293, Note_on_c, 0, 62, 78
1, 294, Note_on_c, 0, 67, 72
1, 294, Note_on_c, 0, 71, 83
1, 300, Note_off_c, 0, 69, 64
1, 385, Note_on_c, 0, 55, 70
1, 473, Note_off_c, 0, 62, 64
1, 477, Note_on_c, 0, 59, 84
1, 481, Note_off_c, 0, 67, 64
1, 572, Note_off_c, 0, 71, 64
1, 574, Note_on_c, 0, 67, 94
1, 638, Note_off_c, 0, 52, 64
1, 669, Note_off_c, 0, 55, 64
1, 671, Note_on_c, 0, 69, 89
1, 688, Note_off_c, 0, 67, 64
1, 697, Note_off_c, 0, 59, 64
1, 768, Note_on_c, 0, 57, 78
1, 860, Note_on_c, 0, 60, 68
1, 864, Note_on_c, 0, 72, 91
1, 868, Note_off_c, 0, 69, 64
1, 955, Note_on_c, 0, 64, 72
1, 956, Note_on_c, 0, 69, 88
1, 978, Note_off_c, 0, 72, 64
1, 1051, Note_off_c, 0, 60, 64
1, 1053, Note_on_c, 0, 71, 100
1, 1060, Note_off_c, 0, 64, 64
1, 1061, Note_off_c, 0, 57, 64
1, 1070, Note_off_c, 0, 69, 64
1, 1149, Note_on_c, 0, 52, 81
1, 1244, Note_on_c, 0, 55, 64
1, 1294, Note_on_c, 0, 59, 75
1, 1340, Note_on_c, 0, 67, 93
1, 1426, Note_off_c, 0, 55, 64
1, 1430, Note_off_c, 0, 52, 64
1, 1438, Note_on_c, 0, 64, 88
1, 1451, Note_off_c, 0, 71, 64
1, 1454, Note_off_c, 0, 67, 64
1, 1459, Note_off_c, 0, 59, 64
1, 1534, Note_off_c, 0, 64, 64
1, 4294967168, Note_on_c, 0, 50, 61
1, 4294967169, Note_on_c, 0, 45, 58
1, 4294967169, Note_on_c, 0, 53, 54
1, 4294967170, Note_on_c, 0, 62, 79
1, 4294967215, Note_off_c, 0, 62, 64
1, 4294967238, Note_on_c, 0, 64, 90
1, 4294967268, Note_off_c, 0, 64, 64
1, 4294967314, Note_on_c, 0, 65, 94
1, 4294967394, Note_off_c, 0, 65, 64
1, 4294967408, Note_on_c, 0, 64, 89
1, 4294967454, Note_on_c, 0, 62, 86
1, 4294967455, Note_off_c, 0, 64, 64
1, 4294967502, Note_off_c, 0, 62, 64
1, 4294967505, Note_off_c, 0, 45, 64
1, 4294967510, Note_off_c, 0, 53, 64
1, 4294967518, Note_off_c, 0, 50, 64
1, 4294967550, Note_on_c, 0, 52, 63
1, 4294967551, Note_on_c, 0, 48, 64
1, 4294967551, Note_on_c, 0, 57, 82
1, 4294967552, Note_on_c, 0, 45, 56
1, 4294967592, Note_off_c, 0, 57, 64
1, 4294967622, Note_on_c, 0, 59, 85
1, 4294967655, Note_off_c, 0, 59, 64
1, 4294967696, Note_on_c, 0, 60, 95
1, 4294967783, Note_off_c, 0, 60, 64
1, 4294967791, Note_on_c, 0, 59, 89
1, 4294967832, Note_off_c, 0, 59, 64
1, 4294967838, Note_on_c, 0, 57, 85
1, 4294967865, Note_off_c, 0, 48, 64
1, 4294967866, Note_off_c, 0, 45, 64
1, 4294967867, Note_off_c, 0, 52, 64
1, 4294967886, Note_on_c, 0, 59, 95
1, 4294967887, Note_off_c, 0, 57, 64
1, 4294967910, Note_off_c, 0, 59, 64
1, 4294967931, Note_on_c, 0, 45, 62
1, 4294967933, Note_on_c, 0, 53, 53
1, 4294967934, Note_on_c, 0, 50, 61
1, 4294967936, Note_on_c, 0, 62, 88
1, 4294967993, Note_off_c, 0, 62, 64
1, 4294968004, Note_on_c, 0, 64, 95
1, 4294968034, Note_off_c, 0, 64, 64
1, 4294968079, Note_on_c, 0, 65, 97
1, 4294968165, Note_off_c, 0, 65, 64
1, 4294968177, Note_on_c, 0, 69, 94
1, 4294968224, Note_off_c, 0, 69, 64
1, 4294968227, Note_on_c, 0, 64, 75
1, 4294968241, Note_off_c, 0, 53, 64
1, 4294968245, Note_off_c, 0, 45, 64
1, 4294968249, Note_off_c, 0, 50, 64
1, 4294968269, Note_off_c, 0, 64, 64
1, 4294968272, Note_on_c, 0, 62, 82
1, 4294968313, Note_off_c, 0, 62, 64
1, 4294968315, Note_on_c, 0, 48, 66
1, 4294968316, Note_on_c, 0, 52, 64
1, 4294968317, Note_on_c, 0, 57, 71
1, 4294968320, Note_on_c, 0, 45, 56
1, 4294968360, Note_off_c, 0, 57, 64
1, 4294968390, Note_on_c, 0, 59, 85
1, 4294968423, Note_off_c, 0, 59, 64
1, 4294968464, Note_on_c, 0, 60, 95
1, 4294968551, Note_off_c, 0, 60, 64
1, 4294968559, Note_on_c, 0, 59, 89
1, 4294968600, Note_off_c, 0, 59, 64
1, 4294968606, Note_on_c, 0, 57, 85
1, 4294968633, Note_off_c, 0, 48, 64
1, 4294968634, Note_off_c, 0, 45, 64
1, 4294968635, Note_off_c, 0, 52, 64
1, 4294968655, Note_on_c, 0, 55, 95
1, 4294968655, Note_off_c, 0, 57, 64
1, 4294968668, Note_off_c, 0, 55, 64
1, 1, Note_on_c, 0, 45, 84
1, 1, Note_on_c, 0, 60, 88
1, 2, Note_on_c, 0, 64, 91
1, 3, Note_on_c, 0, 55, 88
1, 31, Note_off_c, 0, 45, 64
1, 145, Note_on_c, 0, 38, 85
1, 170, Note_off_c, 0, 38, 64
1, 241, Note_on_c, 0, 38, 89
1, 264, Note_off_c, 0, 38, 64
1, 325, Note_off_c, 0, 60, 64
1, 325, Note_off_c, 0, 64, 64
1, 328, Note_on_c, 0, 38, 72
1, 330, Note_off_c, 0, 55, 64
1, 354, Note_off_c, 0, 38, 64
1, 382, Note_on_c, 0, 55, 98
1, 383, Note_on_c, 0, 60, 92
1, 384, Note_on_c, 0, 64, 97
1, 385, Note_on_c, 0, 45, 99
1, 471, Note_off_c, 0, 45, 64
1, 480, Note_on_c, 0, 38, 79
1, 511, Note_off_c, 0, 55, 64
1, 513, Note_off_c, 0, 60, 64
1, 521, Note_off_c, 0, 64, 64
1, 568, Note_off_c, 0, 38, 64
1, 570, Note_on_c, 0, 63, 92
1, 572, Note_on_c, 0, 54, 90
1, 572, Note_on_c, 0, 59, 86
1, 576, Note_on_c, 0, 44, 87
1, 664, Note_off_c, 0, 44, 64
1, 667, Note_off_c, 0, 59, 64
1, 669, Note_on_c, 0, 38, 76
1, 673, Note_off_c, 0, 63, 64
1, 674, Note_off_c, 0, 54, 64
1, 761, Note_off_c, 0, 38, 64
1, 765, Note_on_c, 0, 62, 81
1, 766, Note_on_c, 0, 53, 85
1, 766, Note_on_c, 0, 58, 84
1, 769, Note_on_c, 0, 43, 93
1, 866, Note_off_c, 0, 43, 64
1, 914, Note_on_c, 0, 38, 93
1, 943, Note_off_c, 0, 38, 64
1, 1010, Note_on_c, 0, 38, 85
1, 1041, Note_off_c, 0, 38, 64
1, 1104, Note_on_c, 0, 38, 80
1, 1118, Note_off_c, 0, 53, 64
1, 1120, Note_off_c, 0, 62, 64
1, 1122, Note_off_c, 0, 58, 64
1, 1128, Note_off_c, 0, 38, 64
1, 1150, Note_on_c, 0, 43, 86
1, 1151, Note_on_c, 0, 58, 78
1, 1153, Note_on_c, 0, 53, 87
1, 1153, Note_on_c, 0, 62, 77
1, 1242, Note_off_c, 0, 53, 64
1, 1245, Note_off_c, 0, 43, 64
1, 1246, Note_on_c, 0, 38, 84
1, 1249, Note_off_c, 0, 62, 64
1, 1254, Note_off_c, 0, 58, 64
1, 1320, Note_off_c, 0, 38, 64
1, 1340, Note_on_c, 0, 63, 90
1, 1341, Note_on_c, 0, 59, 86
1, 1342, Note_on_c, 0, 54, 94
1, 1344, Note_on_c, 0, 44, 90
1, 1427, Note_off_c, 0, 54, 64
1, 1431, Note_off_c, 0, 44, 64
1, 1439, Note_off_c, 0, 63, 64
1, 1440, Note_on_c, 0, 38, 84
1, 1444, Note_off_c, 0, 59, 64
1, 1530, Note_off_c, 0, 38, 64
1, 0, Pitch_bend_c, 0, 8192
1, 0, Control_c, 0, 6, 12
1, 0, Control_c, 0, 7, 100
1, 0, Control_c, 0, 10, 64
1, 0, Control_c, 0, 100, 0
1, 0, Control_c, 0, 101, 0
1, 0, Note_on_c, 0, 81, 100
1, 2, Note_on_c, 0, 88, 100
1, 8, Note_on_c, 0, 84, 100
1, 96, Note_on_c, 0, 76, 100
1, 96, Note_off_c, 0, 81, 64
1, 96, Note_off_c, 0, 84, 64
1, 96, Note_off_c, 0, 88, 64
1, 142, Note_off_c, 0, 76, 64
1, 144, Note_on_c, 0, 79, 100
1, 146, Note_on_c, 0, 86, 100
1, 152, Note_on_c, 0, 83, 100
1, 240, Note_off_c, 0, 79, 64
1, 240, Note_off_c, 0, 83, 64
1, 240, Note_off_c, 0, 86, 64
1, 384, Note_on_c, 0, 76, 100
1, 386, Note_on_c, 0, 88, 100
1, 392, Note_on_c, 0, 84, 100
1, 480, Note_on_c, 0, 72, 100
1, 480, Note_off_c, 0, 76, 64
1, 480, Note_off_c, 0, 84, 64
1, 480, Note_off_c, 0, 88, 64
1, 526, Note_off_c, 0, 72, 64
1, 528, Note_on_c, 0, 76, 100
1, 530, Note_on_c, 0, 84, 100
1, 536, Note_on_c, 0, 81, 100
1, 624, Note_off_c, 0, 76, 64
1, 624, Note_off_c, 0, 81, 64
1, 624, Note_off_c, 0, 84, 64
1, 768, Note_on_c, 0, 79, 100
1, 770, Note_on_c, 0, 88, 100
1, 776, Note_on_c, 0, 84, 100
1, 864, Note_on_c, 0, 74, 100
1, 864, Note_off_c, 0, 79, 64
1, 864, Note_off_c, 0, 84, 64
1, 864, Note_off_c, 0, 88, 64
1, 910, Note_off_c, 0, 74, 64
1, 912, Note_on_c, 0, 79, 100
1, 914, Note_on_c, 0, 86, 100
1, 920, Note_on_c, 0, 83, 100
1, 1008, Note_off_c, 0, 79, 64
1, 1008, Note_off_c, 0, 83, 64
1, 1008, Note_off_c, 0, 86, 64
1, 1152, Note_on_c, 0, 79, 100
1, 1154, Note_on_c, 0, 91, 100
1, 1160, Note_on_c, 0, 86, 100
1, 1248, Note_off_c, 0, 79, 64
1, 1248, Note_on_c, 0, 83, 100
1, 1248, Note_off_c, 0, 86, 64
1, 1248, Note_on_c, 0, 89, 100
1, 1248, Note_off_c, 0, 91, 64
1, 1296, Note_on_c, 0, 76, 100
1, 1296, Note_off_c, 0, 83, 64
1, 1296, Note_off_c, 0, 89, 64
1, 1298, Note_on_c, 0, 88, 100
1, 1304, Note_on_c, 0, 84, 100
1, 1392, Note_on_c, 0, 72, 100
1, 1392, Note_off_c, 0, 76, 64
1, 1392, Note_off_c, 0, 84, 64
1, 1392, Note_off_c, 0, 88, 64
1, 1440, Note_off_c, 0, 72, 64
1, 1440, Note_on_c, 0, 74, 100
1, 1488, Note_off_c, 0, 74, 64
1, 1488, Note_on_c, 0, 76, 100
1, 1535, Pitch_bend_c, 0, 8192
1, 1535, Pitch_bend_c, 0, 8192
1, 1535, Control_c, 0, 7, 100
1, 1535, Control_c, 0, 7, 100
1, 1535, Control_c, 0, 10, 64
1, 1535, Control_c, 0, 10, 64
1, 1535, Note_off_c, 0, 76, 64
1, 1536, Pitch_bend_c, 0, 8192
1, 1536, Control_c, 0, 6, 12
1, 1536, Control_c, 0, 6, 12
1, 1536, Control_c, 0, 7, 100
1, 1536, Control_c, 0, 10, 64
1, 1536, Control_c, 0, 100, 0
1, 1536, Control_c, 0, 100, 0
1, 1536, Control_c, 0, 101, 0
1, 1536, Control_c, 0, 101, 0
1, 2, Note_on_c, 0, 33, 60
1, 67, Note_on_c, 0, 57, 39
1, 82, Note_on_c, 0, 60, 58
1, 97, Note_on_c, 0, 64, 68
1, 348, Note_off_c, 0, 33, 64
1, 365, Note_off_c, 0, 64, 64
1, 367, Note_off_c, 0, 57, 64
1, 382, Note_on_c, 0, 33, 55
1, 383, Note_off_c, 0, 60, 64
1, 445, Note_on_c, 0, 57, 49
1, 460, Note_on_c, 0, 60, 60
1, 471, Note_on_c, 0, 65, 70
1, 747, Note_off_c, 0, 57, 64
1, 761, Note_off_c, 0, 33, 64
1, 765, Note_off_c, 0, 60, 64
1, 766, Note_on_c, 0, 32, 74
1, 772, Note_off_c, 0, 65, 64
1, 831, Note_on_c, 0, 56, 48
1, 844, Note_on_c, 0, 62, 65
1, 862, Note_on_c, 0, 64, 69
1, 1116, Note_off_c, 0, 64, 64
1, 1120, Note_off_c, 0, 56, 64
1, 1132, Note_off_c, 0, 62, 64
1, 1149, Note_off_c, 0, 32, 64
1, 1150, Note_on_c, 0, 31, 58
1, 1208, Note_on_c, 0, 55, 46
1, 1225, Note_on_c, 0, 59, 53
1, 1237, Note_on_c, 0, 64, 75
1, 1440, Note_on_c, 0, 62, 100
1, 1450, Note_off_c, 0, 64, 64
1, 1502, Note_off_c, 0, 55, 64
1, 1510, Note_off_c, 0, 59, 64
1, 1524, Note_off_c, 0, 31, 64
1, 1527, Note_off_c, 0, 62, 64
1, 0, Note_on_c, 0, 33, 66
1, 0, Note_on_c, 0, 64, 100
1, 1, Note_on_c, 0, 60, 73
1, 40, Note_on_c, 0, 57, 68
1, 59, Note_off_c, 0, 60, 64
1, 84, Note_off_c, 0, 64, 64
1, 90, Note_on_c, 0, 69, 86
1, 186, Note_on_c, 0, 64, 76
1, 196, Note_off_c, 0, 69, 64
1, 280, Note_off_c, 0, 64, 64
1, 283, Note_on_c, 0, 60, 77
1, 379, Note_on_c, 0, 41, 66
1, 380, Note_on_c, 0, 65, 78
1, 399, Note_off_c, 0, 33, 64
1, 471, Note_off_c, 0, 65, 64
1, 472, Note_off_c, 0, 60, 64
1, 572, Note_on_c, 0, 69, 92
1, 618, Note_on_c, 0, 65, 76
1, 627, Note_off_c, 0, 69, 64
1, 670, Note_on_c, 0, 60, 80
1, 679, Note_off_c, 0, 65, 64
1, 700, Note_off_c, 0, 57, 64
1, 755, Note_off_c, 0, 41, 64
1, 764, Note_on_c, 0, 56, 71
1, 764, Note_on_c, 0, 64, 75
1, 768, Note_on_c, 0, 32, 56
1, 770, Note_off_c, 0, 60, 64
1, 858, Note_off_c, 0, 64, 64
1, 859, Note_on_c, 0, 38, 55
1, 859, Note_on_c, 0, 62, 63
1, 957, Note_on_c, 0, 40, 64
1, 1051, Note_on_c, 0, 68, 82
1, 1089, Note_off_c, 0, 68, 64
1, 1114, Note_off_c, 0, 32, 64
1, 1115, Note_off_c, 0, 56, 64
1, 1122, Note_off_c, 0, 38, 64
1, 1125, Note_off_c, 0, 62, 64
1, 1141, Note_off_c, 0, 40, 64
1, 1148, Note_on_c, 0, 57, 80
1, 1148, Note_on_c, 0, 64, 71
1, 1150, Note_on_c, 0, 33, 75
1, 1240, Note_on_c, 0, 60, 67
1, 1254, Note_on_c, 0, 40, 44
1, 1343, Note_on_c, 0, 48, 70
1, 1344, Note_off_c, 0, 33, 64
1, 1396, Note_off_c, 0, 40, 64
1, 1481, Note_off_c, 0, 57, 64
1, 1500, Note_off_c, 0, 60, 64
1, 1512, Note_off_c, 0, 48, 64
1, 1521, Note_off_c, 0, 64, 64
1, 2, Note_on_c, 0, 72, 84
1, 5, Note_on_c, 0, 57, 65
1, 43, Note_on_c, 0, 71, 72
1, 51, Note_off_c, 0, 72, 64
1, 85, Note_off_c, 0, 71, 64
1, 92, Note_on_c, 0, 69, 79
1, 93, Note_on_c, 0, 60, 62
1, 188, Note_on_c, 0, 64, 71
1, 190, Note_on_c, 0, 71, 94
1, 192, Note_off_c, 0, 69, 64
1, 285, Note_on_c, 0, 72, 89
1, 303, Note_off_c, 0, 71, 64
1, 307, Note_off_c, 0, 57, 64
1, 327, Note_off_c, 0, 60, 64
1, 333, Note_off_c, 0, 64, 64
1, 383, Note_on_c, 0, 57, 71
1, 425, Note_on_c, 0, 71, 85
1, 446, Note_off_c, 0, 72, 64
1, 474, Note_off_c, 0, 71, 64
1, 477, Note_on_c, 0, 69, 83
1, 479, Note_on_c, 0, 60, 62
1, 574, Note_on_c, 0, 71, 85
1, 575, Note_on_c, 0, 65, 71
1, 585, Note_off_c, 0, 69, 64
1, 672, Note_on_c, 0, 72, 87
1, 680, Note_off_c, 0, 57, 64
1, 686, Note_off_c, 0, 71, 64
1, 757, Note_off_c, 0, 65, 64
1, 766, Note_on_c, 0, 56, 81
1, 766, Note_off_c, 0, 60, 64
1, 811, Note_on_c, 0, 71, 79
1, 822, Note_off_c, 0, 72, 64
1, 862, Note_on_c, 0, 59, 57
1, 864, Note_on_c, 0, 69, 81
1, 865, Note_off_c, 0, 71, 64
1, 955, Note_on_c, 0, 64, 63
1, 957, Note_on_c, 0, 76, 86
1, 1052, Note_on_c, 0, 74, 81
1, 1060, Note_off_c, 0, 76, 64
1, 1083, Note_off_c, 0, 56, 64
1, 1099, Note_off_c, 0, 59, 64
1, 1149, Note_on_c, 0, 57, 78
1, 1150, Note_off_c, 0, 64, 64
1, 1191, Note_on_c, 0, 72, 73
1, 1193, Note_off_c, 0, 74, 64
1, 1204, Note_off_c, 0, 69, 64
1, 1243, Note_on_c, 0, 71, 77
1, 1250, Note_on_c, 0, 60, 56
1, 1250, Note_off_c, 0, 72, 64
1, 1342, Note_on_c, 0, 64, 68
1, 1346, Note_on_c, 0, 69, 74
1, 1347, Note_off_c, 0, 71, 64
1, 1440, Note_on_c, 0, 71, 80
1, 1474, Note_off_c, 0, 57, 64
1, 1500, Note_off_c, 0, 60, 64
1, 1520, Note_off_c, 0, 69, 64
1, 1525, Note_off_c, 0, 64, 64
1, 1533, Note_off_c, 0, 71, 64
1, 0, Note_on_c, 0, 41, 71
1, 16, Note_on_c, 0, 45, 72
1, 35, Note_on_c, 0, 48, 77
1, 39, Note_off_c, 0, 41, 64
1, 60, Note_off_c, 0, 45, 64
1, 60, Note_on_c, 0, 53, 73
1, 63, Note_off_c, 0, 48, 64
1, 83, Note_off_c, 0, 53, 64
1, 84, Note_on_c, 0, 57, 86
1, 103, Note_off_c, 0, 57, 64
1, 108, Note_on_c, 0, 60, 82
1, 136, Note_on_c, 0, 64, 85
1, 137, Note_off_c, 0, 60, 64
1, 160, Note_on_c, 0, 57, 62
1, 164, Note_off_c, 0, 64, 64
1, 186, Note_on_c, 0, 60, 74
1, 193, Note_off_c, 0, 57, 64
1, 212, Note_on_c, 0, 64, 78
1, 216, Note_off_c, 0, 60, 64
1, 235, Note_on_c, 0, 69, 85
1, 237, Note_off_c, 0, 64, 64
1, 257, Note_on_c, 0, 72, 92
1, 286, Note_on_c, 0, 76, 106
1, 336, Note_off_c, 0, 69, 64
1, 345, Note_off_c, 0, 72, 64
1, 350, Note_off_c, 0, 76, 64
1, 384, Note_on_c, 0, 40, 75
1, 405, Note_on_c, 0, 43, 83
1, 425, Note_off_c, 0, 40, 64
1, 426, Note_on_c, 0, 47, 82
1, 434, Note_off_c, 0, 43, 64
1, 449, Note_off_c, 0, 47, 64
1, 453, Note_on_c, 0, 52, 85
1, 471, Note_off_c, 0, 52, 64
1, 473, Note_on_c, 0, 55, 80
1, 497, Note_off_c, 0, 55, 64
1, 498, Note_on_c, 0, 59, 94
1, 527, Note_on_c, 0, 62, 92
1, 532, Note_off_c, 0, 59, 64
1, 548, Note_on_c, 0, 55, 79
1, 549, Note_off_c, 0, 62, 64
1, 573, Note_on_c, 0, 59, 81
1, 585, Note_off_c, 0, 55, 64
1, 599, Note_on_c, 0, 62, 83
1, 602, Note_off_c, 0, 59, 64
1, 618, Note_on_c, 0, 67, 86
1, 624, Note_off_c, 0, 62, 64
1, 643, Note_on_c, 0, 71, 96
1, 674, Note_on_c, 0, 74, 104
1, 727, Note_off_c, 0, 67, 64
1, 732, Note_off_c, 0, 71, 64
1, 746, Note_off_c, 0, 74, 64
1, 769, Note_on_c, 0, 41, 71
1, 783, Note_on_c, 0, 45, 72
1, 802, Note_on_c, 0, 48, 77
1, 808, Note_off_c, 0, 41, 64
1, 816, Note_off_c, 0, 45, 64
1, 825, Note_on_c, 0, 53, 73
1, 830, Note_off_c, 0, 48, 64
1, 851, Note_on_c, 0, 57, 86
1, 854, Note_off_c, 0, 53, 64
1, 875, Note_on_c, 0, 60, 82
1, 882, Note_off_c, 0, 57, 64
1, 903, Note_on_c, 0, 64, 85
1, 904, Note_off_c, 0, 60, 64
1, 929, Note_on_c, 0, 60, 74
1, 931, Note_off_c, 0, 64, 64
1, 955, Note_on_c, 0, 64, 78
1, 959, Note_off_c, 0, 60, 64
1, 978, Note_on_c, 0, 69, 91
1, 984, Note_off_c, 0, 64, 64
1, 1005, Note_on_c, 0, 72, 78
1, 1030, Note_on_c, 0, 76, 91
1, 1059, Note_on_c, 0, 81, 108
1, 1106, Note_off_c, 0, 81, 64
1, 1119, Note_off_c, 0, 76, 64
1, 1123, Note_off_c, 0, 72, 64
1, 1134, Note_off_c, 0, 69, 64
1, 1149, Note_on_c, 0, 40, 75
1, 1170, Note_on_c, 0, 47, 85
1, 1187, Note_off_c, 0, 40, 64
1, 1194, Note_off_c, 0, 47, 64
1, 1195, Note_on_c, 0, 52, 81
1, 1218, Note_on_c, 0, 55, 83
1, 1224, Note_off_c, 0, 52, 64
1, 1241, Note_on_c, 0, 59, 89
1, 1242, Note_off_c, 0, 55, 64
1, 1269, Note_on_c, 0, 62, 85
1, 1276, Note_off_c, 0, 59, 64
1, 1293, Note_on_c, 0, 55, 71
1, 1294, Note_off_c, 0, 62, 64
1, 1317, Note_on_c, 0, 59, 77
1, 1325, Note_off_c, 0, 55, 64
1, 1339, Note_off_c, 0, 59, 64
1, 1342, Note_on_c, 0, 62, 82
1, 1368, Note_on_c, 0, 67, 89
1, 1376, Note_off_c, 0, 62, 64
1, 1385, Note_on_c, 0, 71, 76
1, 1408, Note_on_c, 0, 74, 91
1, 1435, Note_on_c, 0, 79, 112
1, 1480, Note_off_c, 0, 79, 64
1, 1496, Note_off_c, 0, 74, 64
1, 1503, Note_off_c, 0, 67, 64
1, 1503, Note_off_c, 0, 71, 64
1, 1, Note_on_c, 0, 53, 80
1, 41, Note_on_c, 0, 57, 64
1, 94, Note_on_c, 0, 60, 69
1, 141, Note_on_c, 0, 76, 96
1, 143, Note_on_c, 0, 64, 78
1, 240, Note_on_c, 0, 74, 86
1, 247, Note_off_c, 0, 76, 64
1, 285, Note_off_c, 0, 74, 64
1, 286, Note_on_c, 0, 72, 90
1, 296, Note_off_c, 0, 53, 64
1, 307, Note_off_c, 0, 57, 64
1, 334, Note_on_c, 0, 79, 98
1, 347, Note_off_c, 0, 60, 64
1, 351, Note_off_c, 0, 64, 64
1, 384, Note_on_c, 0, 55, 82
1, 428, Note_on_c, 0, 59, 72
1, 454, Note_off_c, 0, 79, 64
1, 472, Note_off_c, 0, 72, 64
1, 478, Note_on_c, 0, 62, 77
1, 525, Note_on_c, 0, 64, 85
1, 536, Note_on_c, 0, 74, 96
1, 552, Note_on_c, 0, 76, 96
1, 558, Note_off_c, 0, 74, 64
1, 627, Note_on_c, 0, 74, 95
1, 649, Note_off_c, 0, 76, 64
1, 675, Note_on_c, 0, 72, 92
1, 680, Note_off_c, 0, 55, 64
1, 680, Note_off_c, 0, 59, 64
1, 681, Note_off_c, 0, 74, 64
1, 722, Note_on_c, 0, 74, 101
1, 725, Note_off_c, 0, 72, 64
1, 742, Note_off_c, 0, 64, 64
1, 752, Note_off_c, 0, 62, 64
1, 765, Note_off_c, 0, 74, 64
1, 768, Note_on_c, 0, 57, 84
1, 769, Note_on_c, 0, 72, 93
1, 815, Note_on_c, 0, 60, 78
1, 863, Note_on_c, 0, 64, 75
1, 908, Note_off_c, 0, 72, 64
1, 912, Note_on_c, 0, 69, 95
1, 1028, Note_off_c, 0, 57, 64
1, 1029, Note_off_c, 0, 60, 64
1, 1056, Note_on_c, 0, 83, 111
1, 1080, Note_off_c, 0, 64, 64
1, 1113, Note_off_c, 0, 83, 64
1, 1143, Note_on_c, 0, 81, 95
1, 1152, Note_on_c, 0, 52, 81
1, 1157, Note_on_c, 0, 83, 96
1, 1172, Note_off_c, 0, 81, 64
1, 1196, Note_on_c, 0, 55, 73
1, 1235, Note_off_c, 0, 83, 64
1, 1238, Note_on_c, 0, 81, 94
1, 1244, Note_on_c, 0, 60, 73
1, 1293, Note_on_c, 0, 79, 94
1, 1294, Note_on_c, 0, 64, 78
1, 1296, Note_off_c, 0, 81, 64
1, 1341, Note_off_c, 0, 79, 64
1, 1341, Note_on_c, 0, 81, 99
1, 1365, Note_off_c, 0, 81, 64
1, 1395, Note_on_c, 0, 74, 96
1, 1451, Note_off_c, 0, 52, 64
1, 1452, Note_off_c, 0, 55, 64
1, 1455, Note_off_c, 0, 69, 64
1, 1471, Note_off_c, 0, 60, 64
1, 1487, Note_on_c, 0, 76, 90
1, 1488, Note_off_c, 0, 74, 64
1, 1515, Note_off_c, 0, 76, 64
1, 1516, Note_off_c, 0, 64, 64
1, 1, Note_on_c, 0, 29, 81
1, 1, Note_on_c, 0, 64, 87
1, 2, Note_on_c, 0, 67, 84
1, 3, Note_on_c, 0, 71, 85
1, 4, Note_on_c, 0, 41, 80
1, 4, Note_on_c, 0, 60, 86
1, 276, Note_off_c, 0, 67, 64
1, 280, Note_off_c, 0, 71, 64
1, 283, Note_off_c, 0, 64, 64
1, 284, Note_off_c, 0, 29, 64
1, 292, Note_off_c, 0, 60, 64
1, 299, Note_off_c, 0, 41, 64
1, 384, Note_on_c, 0, 69, 67
1, 385, Note_on_c, 0, 64, 75
1, 386, Note_on_c, 0, 62, 82
1, 387, Note_on_c, 0, 59, 79
1, 388, Note_on_c, 0, 31, 74
1, 389, Note_on_c, 0, 43, 71
1, 563, Note_off_c, 0, 69, 64
1, 576, Note_off_c, 0, 62, 64
1, 583, Note_off_c, 0, 59, 64
1, 584, Note_off_c, 0, 31, 64
1, 596, Note_off_c, 0, 43, 64
1, 599, Note_off_c, 0, 64, 64
1, 675, Note_on_c, 0, 64, 66
1, 676, Note_on_c, 0, 67, 73
1, 677, Note_on_c, 0, 33, 67
1, 677, Note_on_c, 0, 60, 69
1, 678, Note_on_c, 0, 57, 66
1, 679, Note_on_c, 0, 45, 58
1, 1125, Note_off_c, 0, 57, 64
1, 1131, Note_off_c, 0, 60, 64
1, 1140, Note_off_c, 0, 64, 64
1, 1144, Note_off_c, 0, 67, 64
1, 1153, Note_off_c, 0, 45, 64
1, 1158, Note_off_c, 0, 33, 64
1, 1251, Note_on_c, 0, 69, 94
1, 1252, Note_on_c, 0, 64, 99
1, 1253, Note_on_c, 0, 40, 94
1, 1253, Note_on_c, 0, 74, 100
1, 1255, Note_on_c, 0, 28, 90
1, 1438, Note_off_c, 0, 74, 64
1, 1440, Note_off_c, 0, 28, 64
1, 1442, Note_on_c, 0, 72, 88
1, 1463, Note_off_c, 0, 40, 64
1, 1470, Note_off_c, 0, 64, 64
1, 1471, Note_off_c, 0, 69, 64
1, 1476, Note_off_c, 0, 72, 64
1, 3, Note_on_c, 0, 53, 64
1, 49, Note_on_c, 0, 57, 66
1, 101, Note_on_c, 0, 60, 60
1, 146, Note_on_c, 0, 64, 58
1, 194, Note_on_c, 0, 72, 113
1, 287, Note_off_c, 0, 72, 64
1, 288, Note_off_c, 0, 57, 64
1, 290, Note_on_c, 0, 74, 94
1, 293, Note_off_c, 0, 53, 64
1, 298, Note_off_c, 0, 60, 64
1, 336, Note_off_c, 0, 64, 64
1, 338, Note_on_c, 0, 76, 89
1, 339, Note_off_c, 0, 74, 64
1, 385, Note_on_c, 0, 55, 64
1, 434, Note_on_c, 0, 59, 63
1, 482, Note_on_c, 0, 62, 60
1, 529, Note_on_c, 0, 64, 72
1, 578, Note_on_c, 0, 74, 102
1, 593, Note_off_c, 0, 76, 64
1, 674, Note_off_c, 0, 59, 64
1, 677, Note_on_c, 0, 72, 83
1, 679, Note_off_c, 0, 74, 64
1, 680, Note_off_c, 0, 62, 64
1, 681, Note_off_c, 0, 55, 64
1, 722, Note_on_c, 0, 74, 82
1, 733, Note_off_c, 0, 72, 64
1, 763, Note_off_c, 0, 64, 64
1, 771, Note_on_c, 0, 57, 63
1, 820, Note_on_c, 0, 60, 59
1, 867, Note_on_c, 0, 64, 65
1, 914, Note_on_c, 0, 69, 73
1, 919, Note_off_c, 0, 74, 64
1, 1059, Note_off_c, 0, 60, 64
1, 1059, Note_on_c, 0, 74, 101
1, 1065, Note_off_c, 0, 57, 64
1, 1107, Note_on_c, 0, 79, 94
1, 1116, Note_off_c, 0, 64, 64
1, 1157, Note_on_c, 0, 52, 78
1, 1202, Note_on_c, 0, 60, 72
1, 1234, Note_off_c, 0, 69, 64
1, 1248, Note_off_c, 0, 79, 64
1, 1253, Note_on_c, 0, 62, 74
1, 1298, Note_on_c, 0, 67, 79
1, 1299, Note_on_c, 0, 72, 81
1, 1320, Note_off_c, 0, 74, 64
1, 1444, Note_on_c, 0, 69, 94
1, 1447, Note_off_c, 0, 52, 64
1, 1448, Note_off_c, 0, 72, 64
1, 1528, Note_off_c, 0, 60, 64
1, 1528, Note_off_c, 0, 69, 64
1, 1530, Note_off_c, 0, 62, 64
1, 1532, Note_off_c, 0, 67, 64
1, 1, Note_on_c, 0, 69, 76
1, 3, Note_on_c, 0, 57, 51
1, 4, Note_on_c, 0, 60, 51
1, 5, Note_on_c, 0, 53, 42
1, 142, Note_on_c, 0, 67, 83
1, 143, Note_on_c, 0, 72, 86
1, 144, Note_off_c, 0, 69, 64
1, 265, Note_off_c, 0, 72, 64
1, 274, Note_off_c, 0, 53, 64
1, 279, Note_off_c, 0, 57, 64
1, 285, Note_on_c, 0, 71, 77
1, 311, Note_off_c, 0, 67, 64
1, 313, Note_off_c, 0, 60, 64
1, 380, Note_off_c, 0, 71, 64
1, 384, Note_on_c, 0, 69, 77
1, 388, Note_on_c, 0, 59, 59
1, 389, Note_on_c, 0, 55, 55
1, 389, Note_on_c, 0, 62, 51
1, 533, Note_on_c, 0, 67, 89
1, 533, Note_off_c, 0, 69, 64
1, 663, Note_off_c, 0, 62, 64
1, 672, Note_on_c, 0, 69, 72
1, 676, Note_off_c, 0, 59, 64
1, 676, Note_off_c, 0, 67, 64
1, 685, Note_off_c, 0, 55, 64
1, 719, Note_on_c, 0, 52, 65
1, 758, Note_off_c, 0, 52, 64
1, 760, Note_on_c, 0, 62, 72
1, 763, Note_on_c, 0, 55, 58
1, 768, Note_on_c, 0, 45, 54
1, 769, Note_on_c, 0, 63, 73
1, 780, Note_off_c, 0, 62, 64
1, 783, Note_off_c, 0, 63, 64
1, 786, Note_on_c, 0, 64, 65
1, 912, Note_off_c, 0, 64, 64
1, 916, Note_on_c, 0, 62, 78
1, 940, Note_off_c, 0, 62, 64
1, 1052, Note_on_c, 0, 60, 52
1, 1072, Note_off_c, 0, 69, 64
1, 1344, Note_on_c, 0, 52, 61
1, 1351, Note_off_c, 0, 60, 64
1, 1381, Note_off_c, 0, 55, 64
1, 1438, Note_on_c, 0, 60, 81
1, 1440, Note_off_c, 0, 45, 64
1, 1440, Note_on_c, 0, 57, 60
1, 1485, Note_on_c, 0, 62, 72
1, 1495, Note_off_c, 0, 60, 64
1, 1499, Note_off_c, 0, 57, 64
1, 1514, Note_off_c, 0, 52, 64
1, 1531, Note_off_c, 0, 62, 64
1, 2, Note_on_c, 0, 45, 60
1, 4, Note_on_c, 0, 57, 71
1, 97, Note_on_c, 0, 48, 65
1, 106, Note_off_c, 0, 57, 64
1, 195, Note_on_c, 0, 52, 73
1, 287, Note_on_c, 0, 69, 96
1, 302, Note_off_c, 0, 52, 64
1, 312, Note_off_c, 0, 48, 64
1, 322, Note_off_c, 0, 45, 64
1, 335, Note_on_c, 0, 71, 79
1, 343, Note_off_c, 0, 69, 64
1, 384, Note_on_c, 0, 38, 49
1, 385, Note_on_c, 0, 41, 48
1, 386, Note_on_c, 0, 45, 58
1, 388, Note_on_c, 0, 72, 79
1, 389, Note_off_c, 0, 71, 64
1, 390, Note_on_c, 0, 65, 69
1, 395, Note_on_c, 0, 48, 49
1, 475, Note_off_c, 0, 41, 64
1, 476, Note_off_c, 0, 38, 64
1, 481, Note_on_c, 0, 74, 89
1, 482, Note_off_c, 0, 45, 64
1, 493, Note_off_c, 0, 72, 64
1, 499, Note_off_c, 0, 48, 64
1, 577, Note_on_c, 0, 40, 51
1, 582, Note_on_c, 0, 47, 57
1, 583, Note_on_c, 0, 44, 59
1, 670, Note_off_c, 0, 40, 64
1, 670, Note_off_c, 0, 44, 64
1, 674, Note_on_c, 0, 71, 84
1, 680, Note_off_c, 0, 47, 64
1, 691, Note_off_c, 0, 74, 64
1, 699, Note_off_c, 0, 65, 64
1, 767, Note_on_c, 0, 64, 59
1, 768, Note_on_c, 0, 52, 50
1, 769, Note_on_c, 0, 45, 45
1, 770, Note_on_c, 0, 48, 55
1, 770, Note_on_c, 0, 72, 74
1, 784, Note_off_c, 0, 71, 64
1, 865, Note_off_c, 0, 64, 64
1, 959, Note_on_c, 0, 64, 60
1, 962, Note_on_c, 0, 60, 52
1, 1050, Note_off_c, 0, 52, 64
1, 1053, Note_off_c, 0, 48, 64
1, 1055, Note_off_c, 0, 64, 64
1, 1055, Note_on_c, 0, 65, 78
1, 1062, Note_off_c, 0, 45, 64
1, 1072, Note_off_c, 0, 72, 64
1, 1099, Note_on_c, 0, 67, 80
1, 1101, Note_off_c, 0, 65, 64
1, 1149, Note_off_c, 0, 67, 64
1, 1150, Note_on_c, 0, 38, 56
1, 1153, Note_on_c, 0, 45, 51
1, 1153, Note_on_c, 0, 69, 78
1, 1157, Note_on_c, 0, 53, 48
1, 1249, Note_off_c, 0, 38, 64
1, 1264, Note_off_c, 0, 45, 64
1, 1319, Note_off_c, 0, 53, 64
1, 1343, Note_on_c, 0, 52, 48
1, 1343, Note_on_c, 0, 68, 80
1, 1347, Note_on_c, 0, 40, 66
1, 1361, Note_off_c, 0, 69, 64
1, 1439, Note_on_c, 0, 69, 82
1, 1442, Note_off_c, 0, 68, 64
1, 1448, Note_off_c, 0, 40, 64
1, 1462, Note_off_c, 0, 69, 64
1, 1505, Note_off_c, 0, 52, 64
1, 1512, Note_off_c, 0, 60, 64
1, 0, Note_on_c, 0, 52, 90
1, 0, Note_on_c, 0, 57, 94
1, 1, Note_on_c, 0, 45, 64
1, 2, Note_on_c, 0, 48, 74
1, 96, Note_off_c, 0, 52, 64
1, 96, Note_on_c, 0, 64, 94
1, 115, Note_off_c, 0, 45, 64
1, 116, Note_off_c, 0, 64, 64
1, 120, Note_off_c, 0, 48, 64
1, 120, Note_off_c, 0, 57, 64
1, 194, Note_on_c, 0, 51, 63
1, 194, Note_on_c, 0, 57, 71
1, 195, Note_on_c, 0, 62, 74
1, 196, Note_on_c, 0, 41, 67
1, 256, Note_off_c, 0, 57, 64
1, 283, Note_off_c, 0, 51, 64
1, 289, Note_on_c, 0, 57, 81
1, 296, Note_off_c, 0, 62, 64
1, 311, Note_off_c, 0, 41, 64
1, 325, Note_off_c, 0, 57, 64
1, 381, Note_on_c, 0, 50, 75
1, 382, Note_on_c, 0, 56, 74
1, 382, Note_on_c, 0, 60, 80
1, 384, Note_on_c, 0, 40, 68
1, 424, Note_off_c, 0, 60, 64
1, 456, Note_on_c, 0, 59, 96
1, 457, Note_off_c, 0, 56, 64
1, 486, Note_off_c, 0, 59, 64
1, 529, Note_on_c, 0, 57, 94
1, 635, Note_off_c, 0, 57, 64
1, 668, Note_off_c, 0, 50, 64
1, 672, Note_on_c, 0, 56, 101
1, 679, Note_off_c, 0, 40, 64
1, 719, Note_off_c, 0, 56, 64
1, 719, Note_on_c, 0, 57, 87
1, 735, Note_off_c, 0, 57, 64
1, 768, Note_on_c, 0, 52, 90
1, 768, Note_on_c, 0, 57, 94
1, 769, Note_on_c, 0, 45, 64
1, 769, Note_on_c, 0, 48, 74
1, 864, Note_on_c, 0, 64, 98
1, 883, Note_off_c, 0, 52, 64
1, 891, Note_off_c, 0, 64, 64
1, 894, Note_off_c, 0, 48, 64
1, 895, Note_off_c, 0, 45, 64
1, 900, Note_off_c, 0, 57, 64
1, 959, Note_on_c, 0, 57, 76
1, 960, Note_on_c, 0, 51, 74
1, 960, Note_on_c, 0, 62, 80
1, 961, Note_on_c, 0, 41, 71
1, 1032, Note_off_c, 0, 57, 64
1, 1032, Note_off_c, 0, 62, 64
1, 1054, Note_on_c, 0, 57, 86
1, 1069, Note_off_c, 0, 51, 64
1, 1083, Note_off_c, 0, 57, 64
1, 1094, Note_off_c, 0, 41, 64
1, 1132, Note_on_c, 0, 50, 61
1, 1142, Note_on_c, 0, 56, 62
1, 1148, Note_on_c, 0, 40, 56
1, 1149, Note_on_c, 0, 60, 94
1, 1193, Note_off_c, 0, 60, 64
1, 1216, Note_off_c, 0, 56, 64
1, 1221, Note_on_c, 0, 59, 90
1, 1260, Note_off_c, 0, 50, 64
1, 1292, Note_on_c, 0, 57, 96
1, 1300, Note_off_c, 0, 59, 64
1, 1389, Note_on_c, 0, 56, 94
1, 1391, Note_off_c, 0, 57, 64
1, 1398, Note_off_c, 0, 56, 64
1, 1436, Note_on_c, 0, 56, 106
1, 1453, Note_off_c, 0, 40, 64
1, 1483, Note_off_c, 0, 56, 64
1, 1486, Note_on_c, 0, 57, 92
1, 1493, Note_off_c, 0, 57, 64
1, 0, Pitch_bend_c, 0, 8192
1, 0, Control_c, 0, 6, 12
1, 0, Control_c, 0, 7, 100
1, 0, Control_c, 0, 10, 64
1, 0, Control_c, 0, 100, 0
1, 0, Control_c, 0, 101, 0
1, 0, Note_on_c, 0, 76, 100
1, 96, Note_off_c, 0, 76, 64
1, 144, Note_on_c, 0, 77, 100
1, 240, Note_off_c, 0, 77, 64
1, 288, Note_on_c, 0, 76, 100
1, 384, Note_off_c, 0, 76, 64
1, 432, Note_on_c, 0, 74, 100
1, 480, Note_on_c, 0, 72, 100
1, 480, Note_off_c, 0, 74, 64
1, 528, Note_off_c, 0, 72, 64
1, 528, Note_on_c, 0, 74, 100
1, 534, Note_off_c, 0, 74, 64
1, 534, Note_on_c, 0, 76, 100
1, 576, Note_on_c, 0, 74, 100
1, 576, Note_off_c, 0, 76, 64
1, 624, Note_on_c, 0, 72, 100
1, 624, Note_off_c, 0, 74, 64
1, 672, Note_on_c, 0, 71, 100
1, 672, Note_off_c, 0, 72, 64
1, 768, Note_off_c, 0, 71, 64
1, 816, Note_on_c, 0, 69, 100
1, 864, Note_off_c, 0, 69, 64
1, 864, Note_on_c, 0, 71, 100
1, 912, Note_off_c, 0, 71, 64
1, 912, Note_on_c, 0, 72, 100
1, 1008, Note_off_c, 0, 72, 64
1, 1056, Note_on_c, 0, 79, 100
1, 1152, Note_on_c, 0, 77, 100
1, 1152, Note_off_c, 0, 79, 64
1, 1200, Note_on_c, 0, 76, 100
1, 1200, Note_off_c, 0, 77, 64
1, 1248, Note_off_c, 0, 76, 64
1, 1296, Note_on_c, 0, 74, 100
1, 1344, Note_off_c, 0, 74, 64
1, 1392, Note_on_c, 0, 76, 100
1, 1416, Note_on_c, 0, 74, 100
1, 1416, Note_off_c, 0, 76, 64
1, 1440, Note_on_c, 0, 72, 100
1, 1440, Note_off_c, 0, 74, 64
1, 1536, Note_off_c, 0, 72, 64
1, 3072, Pitch_bend_c, 0, 8192
1, 3072, Pitch_bend_c, 0, 8192
1, 3072, Control_c, 0, 6, 12
1, 3072, Control_c, 0, 6, 12
1, 3072, Control_c, 0, 7, 100
1, 3072, Control_c, 0, 7, 100
1, 3072, Control_c, 0, 10, 64
1, 3072, Control_c, 0, 10, 64
1, 3072, Control_c, 0, 100, 0
1, 3072, Control_c, 0, 100, 0
1, 3072, Control_c, 0, 101, 0
1, 3072, Control_c, 0, 101, 0
1, 3073, Pitch_bend_c, 0, 8192
1, 3073, Control_c, 0, 6, 12
1, 3073, Control_c, 0, 7, 100
1, 3073, Control_c, 0, 10, 64
1, 3073, Control_c, 0, 100, 0
1, 3073, Control_c, 0, 101, 0
1, 3, Note_on_c, 0, 52, 45
1, 4, Note_on_c, 0, 64, 55
1, 6, Note_on_c, 0, 48, 51
1, 6, Note_on_c, 0, 60, 59
1, 7, Note_on_c, 0, 45, 36
1, 8, Note_on_c, 0, 57, 57
1, 286, Note_off_c, 0, 48, 64
1, 287, Note_off_c, 0, 52, 64
1, 297, Note_off_c, 0, 45, 64
1, 304, Note_off_c, 0, 60, 64
1, 308, Note_off_c, 0, 64, 64
1, 329, Note_off_c, 0, 57, 64
1, 383, Note_on_c, 0, 57, 64
1, 384, Note_on_c, 0, 45, 55
1, 385, Note_on_c, 0, 53, 61
1, 386, Note_on_c, 0, 38, 54
1, 497, Note_off_c, 0, 38, 64
1, 507, Note_off_c, 0, 45, 64
1, 535, Note_off_c, 0, 53, 64
1, 576, Note_on_c, 0, 40, 63
1, 579, Note_on_c, 0, 55, 76
1, 580, Note_off_c, 0, 57, 64
1, 581, Note_on_c, 0, 47, 58
1, 581, Note_on_c, 0, 59, 76
1, 682, Note_off_c, 0, 55, 64
1, 740, Note_off_c, 0, 59, 64
1, 767, Note_on_c, 0, 57, 67
1, 768, Note_on_c, 0, 52, 67
1, 769, Note_off_c, 0, 40, 64
1, 769, Note_off_c, 0, 47, 64
1, 770, Note_on_c, 0, 60, 71
1, 773, Note_on_c, 0, 45, 66
1, 1076, Note_off_c, 0, 52, 64
1, 1103, Note_off_c, 0, 57, 64
1, 1116, Note_off_c, 0, 60, 64
1, 1146, Note_off_c, 0, 45, 64
1, 1149, Note_on_c, 0, 57, 54
1, 1150, Note_on_c, 0, 53, 64
1, 1152, Note_on_c, 0, 38, 67
1, 1271, Note_off_c, 0, 57, 64
1, 1277, Note_off_c, 0, 53, 64
1, 1344, Note_on_c, 0, 40, 64
1, 1348, Note_on_c, 0, 55, 59
1, 1348, Note_on_c, 0, 59, 65
1, 1349, Note_on_c, 0, 52, 59
1, 1360, Note_off_c, 0, 38, 64
1, 1445, Note_off_c, 0, 55, 64
1, 1468, Note_off_c, 0, 52, 64
1, 1518, Note_off_c, 0, 40, 64
1, 1525, Note_off_c, 0, 59, 64
1, 0, Note_on_c, 0, 64, 57
1, 2, Note_on_c, 0, 69, 75
1, 3, Note_on_c, 0, 57, 49
1, 6, Note_on_c, 0, 60, 52
1, 97, Note_off_c, 0, 69, 64
1, 97, Note_on_c, 0, 76, 101
1, 138, Note_off_c, 0, 76, 64
1, 191, Note_on_c, 0, 74, 81
1, 234, Note_off_c, 0, 74, 64
1, 239, Note_on_c, 0, 72, 74
1, 265, Note_off_c, 0, 72, 64
1, 274, Note_off_c, 0, 60, 64
1, 284, Note_off_c, 0, 64, 64
1, 289, Note_on_c, 0, 71, 80
1, 293, Note_off_c, 0, 57, 64
1, 320, Note_off_c, 0, 71, 64
1, 335, Note_on_c, 0, 72, 63
1, 379, Note_off_c, 0, 72, 64
1, 384, Note_on_c, 0, 62, 58
1, 386, Note_on_c, 0, 69, 76
1, 389, Note_on_c, 0, 57, 44
1, 390, Note_on_c, 0, 65, 55
1, 477, Note_on_c, 0, 72, 85
1, 478, Note_off_c, 0, 62, 64
1, 482, Note_off_c, 0, 69, 64
1, 486, Note_off_c, 0, 57, 64
1, 495, Note_off_c, 0, 65, 64
1, 531, Note_off_c, 0, 72, 64
1, 576, Note_on_c, 0, 59, 57
1, 580, Note_on_c, 0, 64, 58
1, 581, Note_on_c, 0, 71, 79
1, 583, Note_on_c, 0, 56, 55
1, 670, Note_off_c, 0, 71, 64
1, 672, Note_off_c, 0, 56, 64
1, 672, Note_on_c, 0, 68, 75
1, 681, Note_off_c, 0, 59, 64
1, 692, Note_off_c, 0, 64, 64
1, 767, Note_on_c, 0, 64, 56
1, 768, Note_on_c, 0, 57, 48
1, 768, Note_on_c, 0, 60, 63
1, 768, Note_off_c, 0, 68, 64
1, 769, Note_on_c, 0, 69, 85
1, 861, Note_on_c, 0, 76, 103
1, 903, Note_off_c, 0, 76, 64
1, 936, Note_off_c, 0, 69, 64
1, 957, Note_on_c, 0, 74, 106
1, 979, Note_off_c, 0, 74, 64
1, 1006, Note_on_c, 0, 74, 82
1, 1016, Note_off_c, 0, 60, 64
1, 1017, Note_off_c, 0, 74, 64
1, 1019, Note_off_c, 0, 64, 64
1, 1020, Note_on_c, 0, 76, 84
1, 1033, Note_off_c, 0, 57, 64
1, 1035, Note_on_c, 0, 74, 85
1, 1044, Note_off_c, 0, 76, 64
1, 1052, Note_off_c, 0, 74, 64
1, 1056, Note_on_c, 0, 72, 92
1, 1100, Note_off_c, 0, 72, 64
1, 1102, Note_on_c, 0, 74, 86
1, 1147, Note_off_c, 0, 74, 64
1, 1148, Note_on_c, 0, 57, 49
1, 1150, Note_on_c, 0, 62, 60
1, 1150, Note_on_c, 0, 77, 84
1, 1152, Note_on_c, 0, 65, 56
1, 1237, Note_off_c, 0, 57, 64
1, 1241, Note_off_c, 0, 62, 64
1, 1242, Note_off_c, 0, 65, 64
1, 1246, Note_on_c, 0, 72, 88
1, 1259, Note_off_c, 0, 77, 64
1, 1286, Note_off_c, 0, 72, 64
1, 1339, Note_on_c, 0, 59, 56
1, 1342, Note_on_c, 0, 56, 51
1, 1343, Note_on_c, 0, 64, 55
1, 1344, Note_on_c, 0, 71, 84
1, 1428, Note_off_c, 0, 56, 64
1, 1432, Note_off_c, 0, 59, 64
1, 1436, Note_off_c, 0, 71, 64
1, 1438, Note_on_c, 0, 72, 76
1, 1448, Note_off_c, 0, 64, 64
1, 1482, Note_off_c, 0, 72, 64
1, 1, Note_on_c, 0, 64, 66
1, 2, Note_on_c, 0, 57, 60
1, 2, Note_on_c, 0, 60, 62
1, 3, Note_on_c, 0, 69, 68
1, 189, Note_off_c, 0, 69, 64
1, 196, Note_off_c, 0, 64, 64
1, 205, Note_off_c, 0, 60, 64
1, 211, Note_off_c, 0, 57, 64
1, 282, Note_on_c, 0, 50, 51
1, 283, Note_on_c, 0, 57, 64
1, 283, Note_on_c, 0, 60, 63
1, 285, Note_on_c, 0, 64, 65
1, 656, Note_off_c, 0, 60, 64
1, 657, Note_off_c, 0, 57, 64
1, 663, Note_off_c, 0, 64, 64
1, 685, Note_off_c, 0, 50, 64
1, 762, Note_on_c, 0, 62, 62
1, 763, Note_on_c, 0, 59, 67
1, 764, Note_on_c, 0, 55, 66
1, 767, Note_on_c, 0, 52, 60
1, 950, Note_off_c, 0, 55, 64
1, 965, Note_off_c, 0, 59, 64
1, 975, Note_off_c, 0, 62, 64
1, 1039, Note_off_c, 0, 52, 64
1, 1050, Note_on_c, 0, 57, 60
1, 1050, Note_on_c, 0, 60, 59
1, 1051, Note_on_c, 0, 64, 64
1, 1053, Note_on_c, 0, 45, 51
1, 1323, Note_off_c, 0, 57, 64
1, 1338, Note_off_c, 0, 45, 64
1, 1342, Note_on_c, 0, 52, 92
1, 1345, Note_off_c, 0, 60, 64
1, 1386, Note_off_c, 0, 64, 64
1, 1391, Note_on_c, 0, 55, 67
1, 1394, Note_off_c, 0, 52, 64
1, 1446, Note_on_c, 0, 57, 76
1, 1449, Note_off_c, 0, 55, 64
1, 1536, Note_off_c, 0, 57, 64
1, 4294967168, Note_on_c, 0, 60, 76
1, 4294967170, Note_on_c, 0, 52, 70
1, 4294967171, Note_on_c, 0, 33, 55
1, 4294967171, Note_on_c, 0, 57, 51
1, 4294967175, Note_on_c, 0, 64, 64
1, 4294967266, Note_off_c, 0, 52, 64
1, 4294967267, Note_off_c, 0, 57, 64
1, 4294967315, Note_on_c, 0, 52, 81
1, 4294967316, Note_on_c, 0, 57, 68
1, 4294967343, Note_off_c, 0, 33, 64
1, 4294967355, Note_off_c, 0, 52, 64
1, 4294967360, Note_on_c, 0, 45, 75
1, 4294967372, Note_off_c, 0, 57, 64
1, 4294967376, Note_off_c, 0, 60, 64
1, 4294967380, Note_off_c, 0, 64, 64
1, 4294967423, Note_off_c, 0, 45, 64
1, 4294967453, Note_on_c, 0, 62, 62
1, 4294967456, Note_on_c, 0, 60, 64
1, 4294967457, Note_on_c, 0, 53, 72
1, 4294967458, Note_on_c, 0, 57, 69
1, 4294967464, Note_on_c, 0, 38, 66
1, 4294967649, Note_off_c, 0, 53, 64
1, 4294967657, Note_off_c, 0, 57, 64
1, 4294967744, Note_on_c, 0, 53, 70
1, 4294967744, Note_on_c, 0, 57, 68
1, 4294967794, Note_off_c, 0, 38, 64
1, 4294967802, Note_off_c, 0, 62, 64
1, 4294967824, Note_off_c, 0, 60, 64
1, 4294967839, Note_off_c, 0, 53, 64
1, 4294967842, Note_off_c, 0, 57, 64
1, 4294967880, Note_on_c, 0, 47, 58
1, 4294967931, Note_on_c, 0, 40, 53
1, 4294967932, Note_on_c, 0, 59, 64
1, 4294967934, Note_on_c, 0, 62, 61
1, 4294967935, Note_on_c, 0, 55, 63
1, 4294967936, Note_on_c, 0, 50, 55
1, 4294968101, Note_off_c, 0, 59, 64
1, 4294968102, Note_off_c, 0, 47, 64
1, 4294968104, Note_off_c, 0, 50, 64
1, 4294968111, Note_off_c, 0, 40, 64
1, 4294968116, Note_off_c, 0, 55, 64
1, 4294968118, Note_off_c, 0, 62, 64
1, 4294968222, Note_on_c, 0, 57, 59
1, 4294968224, Note_on_c, 0, 55, 59
1, 4294968224, Note_on_c, 0, 60, 64
1, 4294968228, Note_on_c, 0, 52, 63
1, 4294968229, Note_on_c, 0, 33, 57
1, 4294968390, Note_off_c, 0, 52, 64
1, 4294968398, Note_off_c, 0, 55, 64
1, 4294968403, Note_off_c, 0, 57, 64
1, 4294968411, Note_off_c, 0, 60, 64
1, 4294968507, Note_off_c, 0, 33, 64
1, 4294968509, Note_on_c, 0, 59, 96
1, 4294968514, Note_on_c, 0, 48, 60
1, 4294968557, Note_on_c, 0, 60, 84
1, 4294968562, Note_off_c, 0, 48, 64
1, 4294968582, Note_off_c, 0, 59, 64
1, 4294968605, Note_off_c, 0, 60, 64
1, 4294968605, Note_on_c, 0, 67, 85
1, 4294968651, Note_on_c, 0, 69, 69
1, 4294968665, Note_off_c, 0, 67, 64
1, 4294968704, Note_off_c, 0, 69, 64
1, 4294967168, Note_on_c, 0, 64, 98
1, 4294967169, Note_on_c, 0, 45, 67
1, 4294967169, Note_on_c, 0, 48, 72
1, 4294967170, Note_on_c, 0, 52, 72
1, 4294967187, Note_off_c, 0, 64, 64
1, 4294967216, Note_on_c, 0, 64, 83
1, 4294967236, Note_off_c, 0, 64, 64
1, 4294967265, Note_on_c, 0, 64, 82
1, 4294967284, Note_off_c, 0, 64, 64
1, 4294967311, Note_on_c, 0, 64, 83
1, 4294967327, Note_off_c, 0, 64, 64
1, 4294967359, Note_on_c, 0, 64, 96
1, 4294967375, Note_off_c, 0, 48, 64
1, 4294967380, Note_off_c, 0, 52, 64
1, 4294967388, Note_off_c, 0, 45, 64
1, 4294967406, Note_on_c, 0, 62, 85
1, 4294967406, Note_off_c, 0, 64, 64
1, 4294967423, Note_off_c, 0, 62, 64
1, 4294967454, Note_on_c, 0, 60, 94
1, 4294967549, Note_on_c, 0, 45, 60
1, 4294967551, Note_on_c, 0, 50, 63
1, 4294967551, Note_on_c, 0, 53, 65
1, 4294967596, Note_on_c, 0, 57, 75
1, 4294967596, Note_off_c, 0, 60, 64
1, 4294967610, Note_off_c, 0, 57, 64
1, 4294967644, Note_on_c, 0, 60, 111
1, 4294967684, Note_off_c, 0, 60, 64
1, 4294967741, Note_on_c, 0, 57, 102
1, 4294967839, Note_on_c, 0, 59, 97
1, 4294967844, Note_off_c, 0, 57, 64
1, 4294967857, Note_off_c, 0, 53, 64
1, 4294967861, Note_off_c, 0, 45, 64
1, 4294967862, Note_off_c, 0, 50, 64
1, 4294967880, Note_off_c, 0, 59, 64
1, 4294967885, Note_on_c, 0, 60, 85
1, 4294967924, Note_off_c, 0, 60, 64
1, 4294967934, Note_on_c, 0, 45, 61
1, 4294967935, Note_on_c, 0, 52, 68
1, 4294967936, Note_on_c, 0, 48, 64
1, 4294967936, Note_on_c, 0, 60, 81
1, 4294967937, Note_on_c, 0, 64, 85
1, 4294967958, Note_off_c, 0, 64, 64
1, 4294967959, Note_off_c, 0, 60, 64
1, 4294967979, Note_on_c, 0, 64, 81
1, 4294967982, Note_on_c, 0, 60, 69
1, 4294967996, Note_off_c, 0, 60, 64
1, 4294968003, Note_off_c, 0, 64, 64
1, 4294968028, Note_on_c, 0, 60, 100
1, 4294968030, Note_on_c, 0, 64, 80
1, 4294968042, Note_off_c, 0, 64, 64
1, 4294968049, Note_off_c, 0, 60, 64
1, 4294968073, Note_on_c, 0, 60, 80
1, 4294968074, Note_on_c, 0, 64, 92
1, 4294968092, Note_off_c, 0, 64, 64
1, 4294968094, Note_off_c, 0, 60, 64
1, 4294968121, Note_on_c, 0, 60, 91
1, 4294968122, Note_on_c, 0, 64, 102
1, 4294968153, Note_off_c, 0, 64, 64
1, 4294968156, Note_off_c, 0, 60, 64
1, 4294968166, Note_on_c, 0, 62, 85
1, 4294968170, Note_off_c, 0, 45, 64
1, 4294968174, Note_off_c, 0, 48, 64
1, 4294968188, Note_off_c, 0, 52, 64
1, 4294968193, Note_off_c, 0, 62, 64
1, 4294968219, Note_on_c, 0, 52, 66
1, 4294968221, Note_on_c, 0, 47, 69
1, 4294968221, Note_on_c, 0, 59, 97
1, 4294968222, Note_on_c, 0, 64, 94
1, 4294968223, Note_on_c, 0, 44, 69
1, 4294968223, Note_on_c, 0, 56, 92
1, 4294968445, Note_off_c, 0, 64, 64
1, 4294968451, Note_off_c, 0, 59, 64
1, 4294968455, Note_off_c, 0, 56, 64
1, 4294968512, Note_on_c, 0, 59, 75
1, 4294968513, Note_on_c, 0, 64, 82
1, 4294968514, Note_on_c, 0, 56, 73
1, 4294968584, Note_off_c, 0, 56, 64
1, 4294968587, Note_off_c, 0, 44, 64
1, 4294968590, Note_off_c, 0, 59, 64
1, 4294968592, Note_off_c, 0, 47, 64
1, 4294968598, Note_off_c, 0, 64, 64
1, 4294968616, Note_off_c, 0, 52, 64
1, 0, Note_on_c, 0, 45, 70
1, 5, Note_on_c, 0, 48, 67
1, 11, Note_on_c, 0, 52, 76
1, 14, Note_on_c, 0, 57, 75
1, 19, Note_on_c, 0, 60, 92
1, 28, Note_on_c, 0, 64, 101
1, 189, Note_off_c, 0, 52, 64
1, 193, Note_off_c, 0, 48, 64
1, 197, Note_off_c, 0, 60, 64
1, 200, Note_off_c, 0, 64, 64
1, 207, Note_off_c, 0, 57, 64
1, 208, Note_off_c, 0, 45, 64
1, 285, Note_on_c, 0, 50, 74
1, 286, Note_on_c, 0, 45, 69
1, 287, Note_on_c, 0, 57, 93
1, 288, Note_on_c, 0, 53, 70
1, 288, Note_on_c, 0, 60, 90
1, 669, Note_off_c, 0, 60, 64
1, 675, Note_off_c, 0, 53, 64
1, 679, Note_off_c, 0, 45, 64
1, 681, Note_off_c, 0, 50, 64
1, 694, Note_off_c, 0, 57, 64
1, 767, Note_on_c, 0, 57, 92
1, 768, Note_on_c, 0, 60, 85
1, 768, Note_on_c, 0, 64, 91
1, 769, Note_on_c, 0, 45, 72
1, 769, Note_on_c, 0, 52, 78
1, 770, Note_on_c, 0, 48, 79
1, 963, Note_off_c, 0, 48, 64
1, 965, Note_off_c, 0, 57, 64
1, 966, Note_off_c, 0, 45, 64
1, 969, Note_off_c, 0, 60, 64
1, 970, Note_off_c, 0, 64, 64
1, 977, Note_off_c, 0, 52, 64
1, 1050, Note_on_c, 0, 47, 72
1, 1051, Note_on_c, 0, 52, 75
1, 1052, Note_on_c, 0, 56, 89
1, 1052, Note_on_c, 0, 59, 92
1, 1053, Note_on_c, 0, 44, 77
1, 1414, Note_off_c, 0, 59, 64
1, 1416, Note_off_c, 0, 56, 64
1, 1426, Note_off_c, 0, 47, 64
1, 1430, Note_off_c, 0, 44, 64
1, 1442, Note_off_c, 0, 52, 64
1, 0, Control_c, 0, 1, 70
1, 0, Note_on_c, 0, 57, 72
1, 32, Note_off_c, 0, 57, 72
1, 32, Note_on_c, 0, 60, 66
1, 63, Note_off_c, 0, 60, 66
1, 63, Note_on_c, 0, 69, 66
1, 96, Note_on_c, 0, 64, 69
1, 96, Note_off_c, 0, 69, 66
1, 128, Note_on_c, 0, 57, 69
1, 128, Note_off_c, 0, 64, 69
1, 159, Note_off_c, 0, 57, 69
1, 159, Note_on_c, 0, 60, 69
1, 192, Note_off_c, 0, 60, 69
1, 192, Note_on_c, 0, 69, 73
1, 223, Note_on_c, 0, 64, 69
1, 224, Note_off_c, 0, 69, 73
1, 255, Note_on_c, 0, 57, 65
1, 255, Note_off_c, 0, 64, 69
1, 287, Note_off_c, 0, 57, 65
1, 287, Note_on_c, 0, 60, 67
1, 319, Note_off_c, 0, 60, 67
1, 319, Note_on_c, 0, 69, 68
1, 351, Note_on_c, 0, 64, 67
1, 351, Note_off_c, 0, 69, 68
1, 383, Note_off_c, 0, 64, 67
1, 384, Note_on_c, 0, 59, 74
1, 416, Note_off_c, 0, 59, 74
1, 416, Note_on_c, 0, 62, 65
1, 447, Note_off_c, 0, 62, 65
1, 447, Note_on_c, 0, 71, 67
1, 479, Note_off_c, 0, 71, 67
1, 480, Note_on_c, 0, 65, 69
1, 512, Note_on_c, 0, 59, 67
1, 512, Note_off_c, 0, 65, 69
1, 543, Note_off_c, 0, 59, 67
1, 543, Note_on_c, 0, 62, 67
1, 576, Note_off_c, 0, 62, 67
1, 576, Note_on_c, 0, 71, 71
1, 607, Note_on_c, 0, 65, 65
1, 608, Note_off_c, 0, 71, 71
1, 639, Note_on_c, 0, 59, 67
1, 639, Note_off_c, 0, 65, 65
1, 671, Note_off_c, 0, 59, 67
1, 672, Note_on_c, 0, 62, 67
1, 703, Note_on_c, 0, 71, 65
1, 704, Note_off_c, 0, 62, 67
1, 735, Note_on_c, 0, 65, 67
1, 735, Note_off_c, 0, 71, 65
1, 767, Note_off_c, 0, 65, 67
1, 768, Note_on_c, 0, 57, 72
1, 799, Note_on_c, 0, 62, 65
1, 800, Note_off_c, 0, 57, 72
1, 831, Note_off_c, 0, 62, 65
1, 831, Note_on_c, 0, 69, 67
1, 864, Note_on_c, 0, 65, 71
1, 864, Note_off_c, 0, 69, 67
1, 895, Note_on_c, 0, 57, 68
1, 896, Note_off_c, 0, 65, 71
1, 927, Note_off_c, 0, 57, 68
1, 927, Note_on_c, 0, 62, 68
1, 960, Note_off_c, 0, 62, 68
1, 960, Note_on_c, 0, 69, 74
1, 991, Note_on_c, 0, 65, 65
1, 992, Note_off_c, 0, 69, 74
1, 1023, Note_on_c, 0, 57, 66
1, 1023, Note_off_c, 0, 65, 65
1, 1055, Note_off_c, 0, 57, 66
1, 1056, Note_on_c, 0, 62, 66
1, 1087, Note_on_c, 0, 69, 66
1, 1088, Note_off_c, 0, 62, 66
1, 1119, Note_on_c, 0, 65, 67
1, 1119, Note_off_c, 0, 69, 66
1, 1151, Note_off_c, 0, 65, 67
1, 1152, Note_on_c, 0, 57, 74
1, 1183, Note_on_c, 0, 60, 68
1, 1184, Note_off_c, 0, 57, 74
1, 1215, Note_off_c, 0, 60, 68
1, 1215, Note_on_c, 0, 69, 65
1, 1248, Note_on_c, 0, 65, 72
1, 1248, Note_off_c, 0, 69, 65
1, 1279, Note_on_c, 0, 57, 67
1, 1280, Note_off_c, 0, 65, 72
1, 1311, Note_off_c, 0, 57, 67
1, 1311, Note_on_c, 0, 60, 69
1, 1344, Note_off_c, 0, 60, 69
1, 1344, Note_on_c, 0, 69, 72
1, 1375, Note_on_c, 0, 65, 67
1, 1376, Note_off_c, 0, 69, 72
1, 1407, Note_on_c, 0, 57, 65
1, 1407, Note_off_c, 0, 65, 67
1, 1439, Note_off_c, 0, 57, 65
1, 1440, Note_on_c, 0, 60, 66
1, 1471, Note_on_c, 0, 69, 65
1, 1472, Note_off_c, 0, 60, 66
1, 1503, Note_on_c, 0, 65, 67
1, 1503, Note_off_c, 0, 69, 65
1, 1535, Note_off_c, 0, 65, 67
1, 0, Pitch_bend_c, 0, 8192
1, 0, Control_c, 0, 6, 12
1, 0, Control_c, 0, 7, 100
1, 0, Control_c, 0, 10, 64
1, 0, Control_c, 0, 100, 0
1, 0, Control_c, 0, 101, 0
1, 0, Note_on_c, 0, 64, 100
1, 5, Note_on_c, 0, 76, 100
1, 48, Note_off_c, 0, 64, 64
1, 48, Note_on_c, 0, 69, 100
1, 48, Note_off_c, 0, 76, 64
1, 96, Note_off_c, 0, 69, 64
1, 96, Note_on_c, 0, 71, 100
1, 144, Note_off_c, 0, 71, 64
1, 144, Note_on_c, 0, 72, 100
1, 192, Note_on_c, 0, 64, 100
1, 192, Note_off_c, 0, 72, 64
1, 197, Note_on_c, 0, 76, 100
1, 240, Note_off_c, 0, 64, 64
1, 240, Note_on_c, 0, 69, 100
1, 240, Note_off_c, 0, 76, 64
1, 288, Note_off_c, 0, 69, 64
1, 336, Note_on_c, 0, 72, 100
1, 384, Note_on_c, 0, 67, 100
1, 384, Note_off_c, 0, 72, 64
1, 389, Note_on_c, 0, 79, 100
1, 432, Note_off_c, 0, 67, 64
1, 432, Note_on_c, 0, 76, 100
1, 432, Note_off_c, 0, 79, 64
1, 480, Note_on_c, 0, 72, 100
1, 480, Note_off_c, 0, 76, 64
1, 528, Note_on_c, 0, 71, 100
1, 528, Note_off_c, 0, 72, 64
1, 576, Note_on_c, 0, 67, 100
1, 576, Note_off_c, 0, 71, 64
1, 581, Note_on_c, 0, 79, 100
1, 624, Note_off_c, 0, 67, 64
1, 624, Note_on_c, 0, 74, 100
1, 624, Note_off_c, 0, 79, 64
1, 672, Note_on_c, 0, 72, 100
1, 672, Note_off_c, 0, 74, 64
1, 720, Note_off_c, 0, 72, 64
1, 720, Note_on_c, 0, 76, 100
1, 768, Note_on_c, 0, 64, 100
1, 768, Note_off_c, 0, 76, 64
1, 773, Note_on_c, 0, 76, 100
1, 816, Note_off_c, 0, 64, 64
1, 816, Note_on_c, 0, 69, 100
1, 816, Note_off_c, 0, 76, 64
1, 864, Note_off_c, 0, 69, 64
1, 864, Note_on_c, 0, 71, 100
1, 912, Note_off_c, 0, 71, 64
1, 912, Note_on_c, 0, 72, 100
1, 960, Note_on_c, 0, 64, 100
1, 960, Note_off_c, 0, 72, 64
1, 965, Note_on_c, 0, 76, 100
1, 1008, Note_off_c, 0, 64, 64
1, 1008, Note_on_c, 0, 69, 100
1, 1008, Note_off_c, 0, 76, 64
1, 1056, Note_off_c, 0, 69, 64
1, 1104, Note_on_c, 0, 72, 100
1, 1152, Note_on_c, 0, 67, 100
1, 1152, Note_off_c, 0, 72, 64
1, 1157, Note_on_c, 0, 79, 100
1, 1200, Note_off_c, 0, 67, 64
1, 1200, Note_on_c, 0, 76, 100
1, 1200, Note_off_c, 0, 79, 64
1, 1248, Note_on_c, 0, 72, 100
1, 1248, Note_off_c, 0, 76, 64
1, 1296, Note_on_c, 0, 71, 100
1, 1296, Note_off_c, 0, 72, 64
1, 1344, Note_on_c, 0, 62, 100
1, 1344, Note_off_c, 0, 71, 64
1, 1349, Note_on_c, 0, 74, 100
1, 1392, Note_off_c, 0, 62, 64
1, 1392, Note_on_c, 0, 71, 100
1, 1392, Note_off_c, 0, 74, 64
1, 1440, Note_off_c, 0, 71, 64
1, 1488, Note_on_c, 0, 67, 100
1, 1535, Pitch_bend_c, 0, 8192
1, 1535, Pitch_bend_c, 0, 8192
1, 1535, Control_c, 0, 7, 100
1, 1535, Control_c, 0, 7, 100
1, 1535, Control_c, 0, 10, 64
1, 1535, Control_c, 0, 10, 64
1, 1535, Note_off_c, 0, 67, 64
1, 1536, Pitch_bend_c, 0, 8192
1, 1536, Control_c, 0, 6, 12
1, 1536, Control_c, 0, 6, 12
1, 1536, Control_c, 0, 7, 100
1, 1536, Control_c, 0, 10, 64
1, 1536, Control_c, 0, 100, 0
1, 1536, Control_c, 0, 100, 0
1, 1536, Control_c, 0, 101, 0
1, 1536, Control_c, 0, 101, 0
1, 0, Control_c, 0, 1, 40
1, 0, Note_on_c, 0, 74, 46
1, 48, Note_off_c, 0, 74, 46
1, 48, Note_on_c, 0, 81, 38
1, 96, Note_on_c, 0, 77, 40
1, 96, Note_off_c, 0, 81, 38
1, 144, Note_on_c, 0, 74, 38
1, 144, Note_off_c, 0, 77, 40
1, 192, Note_off_c, 0, 74, 38
1, 192, Note_on_c, 0, 77, 43
1, 240, Note_on_c, 0, 74, 40
1, 240, Note_off_c, 0, 77, 43
1, 288, Note_on_c, 0, 69, 40
1, 288, Note_off_c, 0, 74, 40
1, 312, Note_off_c, 0, 69, 40
1, 384, Note_on_c, 0, 71, 44
1, 432, Note_off_c, 0, 71, 44
1, 432, Note_on_c, 0, 79, 40
1, 480, Note_on_c, 0, 76, 42
1, 480, Note_off_c, 0, 79, 40
1, 528, Note_on_c, 0, 71, 38
1, 528, Note_off_c, 0, 76, 42
1, 576, Note_off_c, 0, 71, 38
1, 576, Note_on_c, 0, 76, 43
1, 624, Note_on_c, 0, 71, 38
1, 624, Note_off_c, 0, 76, 43
1, 672, Note_on_c, 0, 67, 38
1, 672, Note_off_c, 0, 71, 38
1, 696, Note_off_c, 0, 67, 38
1, 768, Note_on_c, 0, 74, 44
1, 816, Note_off_c, 0, 74, 44
1, 816, Note_on_c, 0, 81, 40
1, 864, Note_on_c, 0, 77, 42
1, 864, Note_off_c, 0, 81, 40
1, 912, Note_on_c, 0, 74, 40
1, 912, Note_off_c, 0, 77, 42
1, 960, Note_off_c, 0, 74, 40
1, 960, Note_on_c, 0, 77, 42
1, 1008, Note_on_c, 0, 74, 39
1, 1008, Note_off_c, 0, 77, 42
1, 1056, Note_on_c, 0, 69, 39
1, 1056, Note_off_c, 0, 74, 39
1, 1080, Note_off_c, 0, 69, 39
1, 1152, Note_on_c, 0, 71, 44
1, 1200, Note_off_c, 0, 71, 44
1, 1200, Note_on_c, 0, 79, 38
1, 1248, Note_on_c, 0, 76, 42
1, 1248, Note_off_c, 0, 79, 38
1, 1296, Note_on_c, 0, 71, 40
1, 1296, Note_off_c, 0, 76, 42
1, 1344, Note_off_c, 0, 71, 40
1, 1344, Note_on_c, 0, 76, 41
1, 1392, Note_on_c, 0, 71, 39
1, 1392, Note_off_c, 0, 76, 41
1, 1440, Note_on_c, 0, 67, 40
1, 1440, Note_off_c, 0, 71, 39
1, 1464, Note_off_c, 0, 67, 40
1, 0, Control_c, 0, 1, 70
1, 0, Note_on_c, 0, 64, 72
1, 24, Note_on_c, 0, 60, 69
1, 24, Note_off_c, 0, 64, 72
1, 72, Note_off_c, 0, 60, 69
1, 72, Note_on_c, 0, 69, 67
1, 96, Note_on_c, 0, 64, 69
1, 96, Note_off_c, 0, 69, 67
1, 120, Note_on_c, 0, 60, 65
1, 120, Note_off_c, 0, 64, 69
1, 168, Note_off_c, 0, 60, 65
1, 168, Note_on_c, 0, 69, 66
1, 192, Note_off_c, 0, 69, 66
1, 216, Note_on_c, 0, 57, 65
1, 240, Note_off_c, 0, 57, 65
1, 240, Note_on_c, 0, 60, 69
1, 288, Note_off_c, 0, 60, 69
1, 312, Note_on_c, 0, 57, 67
1, 336, Note_off_c, 0, 57, 67
1, 336, Note_on_c, 0, 60, 65
1, 384, Note_off_c, 0, 60, 65
1, 384, Note_on_c, 0, 64, 74
1, 408, Note_on_c, 0, 59, 68
1, 408, Note_off_c, 0, 64, 74
1, 456, Note_off_c, 0, 59, 68
1, 456, Note_on_c, 0, 67, 67
1, 480, Note_on_c, 0, 64, 72
1, 480, Note_off_c, 0, 67, 67
1, 504, Note_on_c, 0, 59, 68
1, 504, Note_off_c, 0, 64, 72
1, 552, Note_off_c, 0, 59, 68
1, 552, Note_on_c, 0, 67, 67
1, 576, Note_off_c, 0, 67, 67
1, 600, Note_on_c, 0, 55, 67
1, 624, Note_off_c, 0, 55, 67
1, 624, Note_on_c, 0, 59, 69
1, 672, Note_off_c, 0, 59, 69
1, 696, Note_on_c, 0, 55, 65
1, 720, Note_off_c, 0, 55, 65
1, 720, Note_on_c, 0, 59, 67
1, 768, Note_off_c, 0, 59, 67
1, 768, Note_on_c, 0, 64, 76
1, 792, Note_on_c, 0, 60, 65
1, 792, Note_off_c, 0, 64, 76
1, 840, Note_off_c, 0, 60, 65
1, 840, Note_on_c, 0, 69, 67
1, 864, Note_on_c, 0, 64, 72
1, 864, Note_off_c, 0, 69, 67
1, 888, Note_on_c, 0, 60, 65
1, 888, Note_off_c, 0, 64, 72
1, 936, Note_off_c, 0, 60, 65
1, 936, Note_on_c, 0, 69, 68
1, 960, Note_off_c, 0, 69, 68
1, 984, Note_on_c, 0, 57, 67
1, 1008, Note_off_c, 0, 57, 67
1, 1008, Note_on_c, 0, 60, 68
1, 1056, Note_off_c, 0, 60, 68
1, 1080, Note_on_c, 0, 57, 67
1, 1104, Note_off_c, 0, 57, 67
1, 1104, Note_on_c, 0, 60, 65
1, 1152, Note_off_c, 0, 60, 65
1, 1152, Note_on_c, 0, 64, 76
1, 1176, Note_on_c, 0, 59, 68
1, 1176, Note_off_c, 0, 64, 76
1, 1224, Note_off_c, 0, 59, 68
1, 1224, Note_on_c, 0, 67, 67
1, 1248, Note_on_c, 0, 64, 72
1, 1248, Note_off_c, 0, 67, 67
1, 1272, Note_on_c, 0, 59, 67
1, 1272, Note_off_c, 0, 64, 72
1, 1320, Note_off_c, 0, 59, 67
1, 1320, Note_on_c, 0, 67, 69
1, 1344, Note_off_c, 0, 67, 69
1, 1368, Note_on_c, 0, 55, 66
1, 1392, Note_off_c, 0, 55, 66
1, 1392, Note_on_c, 0, 59, 69
1, 1440, Note_off_c, 0, 59, 69
1, 1464, Note_on_c, 0, 55, 69
1, 1488, Note_off_c, 0, 55, 69
1, 1488, Note_on_c, 0, 59, 67
1, 1536, Note_off_c, 0, 59, 67
1, 0, Pitch_bend_c, 0, 8192
1, 0, Control_c, 0, 6, 12
1, 0, Control_c, 0, 7, 100
1, 0, Control_c, 0, 10, 64
1, 0, Control_c, 0, 100, 0
1, 0, Control_c, 0, 101, 0
1, 0, Note_on_c, 0, 69, 100
1, 48, Note_off_c, 0, 69, 64
1, 48, Note_on_c, 0, 81, 100
1, 96, Note_off_c, 0, 81, 64
1, 96, Note_on_c, 0, 84, 100
1, 144, Note_off_c, 0, 84, 64
1, 144, Note_on_c, 0, 91, 100
1, 192, Note_off_c, 0, 91, 64
1, 216, Note_on_c, 0, 93, 100
1, 264, Note_off_c, 0, 93, 64
1, 288, Note_on_c, 0, 88, 100
1, 336, Note_on_c, 0, 76, 100
1, 336, Note_off_c, 0, 88, 64
1, 384, Note_on_c, 0, 67, 100
1, 384, Note_off_c, 0, 76, 64
1, 432, Note_off_c, 0, 67, 64
1, 432, Note_on_c, 0, 86, 100
1, 480, Note_on_c, 0, 84, 100
1, 480, Note_off_c, 0, 86, 64
1, 528, Note_on_c, 0, 79, 100
1, 528, Note_off_c, 0, 84, 64
1, 576, Note_off_c, 0, 79, 64
1, 600, Note_on_c, 0, 84, 100
1, 648, Note_off_c, 0, 84, 64
1, 672, Note_on_c, 0, 83, 100
1, 720, Note_on_c, 0, 81, 100
1, 720, Note_off_c, 0, 83, 64
1, 768, Note_on_c, 0, 69, 100
1, 768, Note_off_c, 0, 81, 64
1, 816, Note_off_c, 0, 69, 64
1, 816, Note_on_c, 0, 81, 100
1, 864, Note_off_c, 0, 81, 64
1, 864, Note_on_c, 0, 84, 100
1, 912, Note_off_c, 0, 84, 64
1, 912, Note_on_c, 0, 91, 100
1, 960, Note_off_c, 0, 91, 64
1, 984, Note_on_c, 0, 93, 100
1, 1032, Note_off_c, 0, 93, 64
1, 1056, Note_on_c, 0, 88, 100
1, 1104, Note_on_c, 0, 76, 100
1, 1104, Note_off_c, 0, 88, 64
1, 1152, Note_off_c, 0, 76, 64
1, 1152, Note_on_c, 0, 96, 100
1, 1200, Note_on_c, 0, 95, 100
1, 1200, Note_off_c, 0, 96, 64
1, 1248, Note_on_c, 0, 91, 100
1, 1248, Note_off_c, 0, 95, 64
1, 1296, Note_on_c, 0, 88, 100
1, 1296, Note_off_c, 0, 91, 64
1, 1344, Note_off_c, 0, 88, 64
1, 1368, Note_on_c, 0, 84, 100
1, 1416, Note_off_c, 0, 84, 64
1, 1440, Note_on_c, 0, 86, 100
1, 1488, Note_off_c, 0, 86, 64
1, 1488, Note_on_c, 0, 88, 100
1, 1535, Note_off_c, 0, 88, 64
1, 1536, Pitch_bend_c, 0, 8192
1, 1536, Pitch_bend_c, 0, 8192
1, 1536, Control_c, 0, 6, 12
1, 1536, Control_c, 0, 6, 12
1, 1536, Control_c, 0, 7, 100
1, 1536, Control_c, 0, 7, 100
1, 1536, Control_c, 0, 10, 64
1, 1536, Control_c, 0, 10, 64
1, 1536, Control_c, 0, 100, 0
1, 1536, Control_c, 0, 100, 0
1, 1536, Control_c, 0, 101, 0
1, 1536, Control_c, 0, 101, 0
1, 0, Pitch_bend_c, 0, 8192
1, 0, Control_c, 0, 6, 12
1, 0, Control_c, 0, 7, 100
1, 0, Control_c, 0, 10, 64
1, 0, Control_c, 0, 100, 0
1, 0, Control_c, 0, 101, 0
1, 0, Note_on_c, 0, 69, 127
1, 48, Note_off_c, 0, 69, 64
1, 144, Note_on_c, 0, 57, 127
1, 156, Note_off_c, 0, 57, 64
1, 156, Note_on_c, 0, 60, 127
1, 168, Note_off_c, 0, 60, 64
1, 168, Note_on_c, 0, 64, 127
1, 180, Note_off_c, 0, 64, 64
1, 180, Note_on_c, 0, 67, 127
1, 192, Note_off_c, 0, 67, 64
1, 192, Note_on_c, 0, 72, 127
1, 240, Note_on_c, 0, 69, 127
1, 240, Note_off_c, 0, 72, 64
1, 288, Note_off_c, 0, 69, 64
1, 312, Note_on_c, 0, 72, 127
1, 360, Note_off_c, 0, 72, 64
1, 384, Note_on_c, 0, 67, 127
1, 432, Note_off_c, 0, 67, 64
1, 528, Note_on_c, 0, 62, 127
1, 552, Note_off_c, 0, 62, 64
1, 552, Note_on_c, 0, 67, 127
1, 576, Note_off_c, 0, 67, 64
1, 576, Note_on_c, 0, 71, 127
1, 624, Note_on_c, 0, 67, 127
1, 624, Note_off_c, 0, 71, 64
1, 672, Note_off_c, 0, 67, 64
1, 696, Note_on_c, 0, 64, 127
1, 744, Note_off_c, 0, 64, 64
1, 768, Note_on_c, 0, 69, 127
1, 816, Note_off_c, 0, 69, 64
1, 912, Note_on_c, 0, 57, 127
1, 924, Note_off_c, 0, 57, 64
1, 924, Note_on_c, 0, 60, 127
1, 936, Note_off_c, 0, 60, 64
1, 936, Note_on_c, 0, 64, 127
1, 948, Note_off_c, 0, 64, 64
1, 948, Note_on_c, 0, 67, 127
1, 960, Note_off_c, 0, 67, 64
1, 960, Note_on_c, 0, 72, 127
1, 1008, Note_on_c, 0, 69, 127
1, 1008, Note_off_c, 0, 72, 64
1, 1056, Note_off_c, 0, 69, 64
1, 1080, Note_on_c, 0, 72, 127
1, 1128, Note_off_c, 0, 72, 64
1, 1152, Note_on_c, 0, 67, 127
1, 1200, Note_off_c, 0, 67, 64
1, 1296, Note_on_c, 0, 62, 127
1, 1320, Note_off_c, 0, 62, 64
1, 1320, Note_on_c, 0, 67, 127
1, 1344, Note_off_c, 0, 67, 64
1, 1344, Note_on_c, 0, 71, 127
1, 1392, Note_off_c, 0, 71, 64
1, 1392, Note_on_c, 0, 72, 127
1, 1416, Note_on_c, 0, 71, 127
1, 1416, Note_off_c, 0, 72, 64
1, 1464, Note_off_c, 0, 71, 64
1, 1488, Note_on_c, 0, 67, 127
1, 1535, Pitch_bend_c, 0, 8192
1, 1535, Pitch_bend_c, 0, 8192
1, 1535, Note_off_c, 0, 67, 64
1, 1536, Pitch_bend_c, 0, 8192
1, 1536, Control_c, 0, 6, 12
1, 1536, Control_c, 0, 6, 12
1, 1536, Control_c, 0, 7, 100
1, 1536, Control_c, 0, 7, 100
1, 1536, Control_c, 0, 10, 64
1, 1536, Control_c, 0, 10, 64
1, 1536, Control_c, 0, 100, 0
1, 1536, Control_c, 0, 100, 0
1, 1536, Control_c, 0, 101, 0
1, 1536, Control_c, 0, 101, 0
1, 0, Note_on_c, 0, 60, 100
1, 24, Note_off_c, 0, 60, 100
1, 24, Note_on_c, 0, 69, 64
1, 48, Note_off_c, 0, 69, 64
1, 48, Note_on_c, 0, 84, 88
1, 72, Note_off_c, 0, 84, 88
1, 72, Note_on_c, 0, 91, 64
1, 96, Note_on_c, 0, 60, 100
1, 96, Note_off_c, 0, 91, 64
1, 120, Note_off_c, 0, 60, 100
1, 120, Note_on_c, 0, 69, 64
1, 144, Note_off_c, 0, 69, 64
1, 144, Note_on_c, 0, 84, 88
1, 168, Note_off_c, 0, 84, 88
1, 168, Note_on_c, 0, 91, 64
1, 192, Note_on_c, 0, 62, 100
1, 192, Note_off_c, 0, 91, 64
1, 216, Note_off_c, 0, 62, 100
1, 216, Note_on_c, 0, 69, 64
1, 240, Note_off_c, 0, 69, 64
1, 240, Note_on_c, 0, 81, 88
1, 264, Note_off_c, 0, 81, 88
1, 264, Note_on_c, 0, 93, 64
1, 288, Note_on_c, 0, 62, 100
1, 288, Note_off_c, 0, 93, 64
1, 312, Note_off_c, 0, 62, 100
1, 312, Note_on_c, 0, 69, 64
1, 336, Note_off_c, 0, 69, 64
1, 336, Note_on_c, 0, 81, 88
1, 360, Note_off_c, 0, 81, 88
1, 360, Note_on_c, 0, 93, 64
1, 384, Note_on_c, 0, 62, 100
1, 384, Note_off_c, 0, 93, 64
1, 408, Note_off_c, 0, 62, 100
1, 408, Note_on_c, 0, 71, 64
1, 432, Note_off_c, 0, 71, 64
1, 432, Note_on_c, 0, 86, 88
1, 456, Note_off_c, 0, 86, 88
1, 456, Note_on_c, 0, 93, 64
1, 480, Note_on_c, 0, 62, 100
1, 480, Note_off_c, 0, 93, 64
1, 504, Note_off_c, 0, 62, 100
1, 504, Note_on_c, 0, 71, 64
1, 528, Note_off_c, 0, 71, 64
1, 528, Note_on_c, 0, 86, 88
1, 552, Note_off_c, 0, 86, 88
1, 552, Note_on_c, 0, 93, 64
1, 576, Note_on_c, 0, 53, 100
1, 576, Note_off_c, 0, 93, 64
1, 600, Note_off_c, 0, 53, 100
1, 600, Note_on_c, 0, 62, 64
1, 624, Note_off_c, 0, 62, 64
1, 624, Note_on_c, 0, 72, 88
1, 648, Note_off_c, 0, 72, 88
1, 648, Note_on_c, 0, 84, 64
1, 672, Note_on_c, 0, 53, 100
1, 672, Note_off_c, 0, 84, 64
1, 696, Note_off_c, 0, 53, 100
1, 696, Note_on_c, 0, 62, 64
1, 720, Note_off_c, 0, 62, 64
1, 720, Note_on_c, 0, 72, 88
1, 744, Note_off_c, 0, 72, 88
1, 744, Note_on_c, 0, 84, 64
1, 768, Note_on_c, 0, 57, 100
1, 768, Note_off_c, 0, 84, 64
1, 792, Note_off_c, 0, 57, 100
1, 792, Note_on_c, 0, 64, 64
1, 816, Note_off_c, 0, 64, 64
1, 816, Note_on_c, 0, 76, 88
1, 840, Note_off_c, 0, 76, 88
1, 840, Note_on_c, 0, 88, 64
1, 864, Note_on_c, 0, 57, 100
1, 864, Note_off_c, 0, 88, 64
1, 888, Note_off_c, 0, 57, 100
1, 888, Note_on_c, 0, 64, 64
1, 912, Note_off_c, 0, 64, 64
1, 912, Note_on_c, 0, 76, 88
1, 936, Note_off_c, 0, 76, 88
1, 936, Note_on_c, 0, 88, 64
1, 960, Note_on_c, 0, 53, 100
1, 960, Note_off_c, 0, 88, 64
1, 984, Note_off_c, 0, 53, 100
1, 984, Note_on_c, 0, 62, 64
1, 1008, Note_off_c, 0, 62, 64
1, 1008, Note_on_c, 0, 72, 88
1, 1032, Note_off_c, 0, 72, 88
1, 1032, Note_on_c, 0, 84, 64
1, 1056, Note_on_c, 0, 53, 100
1, 1056, Note_off_c, 0, 84, 64
1, 1080, Note_off_c, 0, 53, 100
1, 1080, Note_on_c, 0, 62, 64
1, 1104, Note_off_c, 0, 62, 64
1, 1104, Note_on_c, 0, 72, 88
1, 1128, Note_off_c, 0, 72, 88
1, 1128, Note_on_c, 0, 84, 64
1, 1152, Note_on_c, 0, 57, 100
1, 1152, Note_off_c, 0, 84, 64
1, 1176, Note_off_c, 0, 57, 100
1, 1176, Note_on_c, 0, 64, 64
1, 1200, Note_off_c, 0, 64, 64
1, 1200, Note_on_c, 0, 76, 88
1, 1224, Note_off_c, 0, 76, 88
1, 1224, Note_on_c, 0, 88, 64
1, 1248, Note_on_c, 0, 57, 100
1, 1248, Note_off_c, 0, 88, 64
1, 1272, Note_off_c, 0, 57, 100
1, 1272, Note_on_c, 0, 64, 64
1, 1296, Note_off_c, 0, 64, 64
1, 1296, Note_on_c, 0, 76, 88
1, 1320, Note_off_c, 0, 76, 88
1, 1320, Note_on_c, 0, 88, 64
1, 1344, Note_on_c, 0, 69, 100
1, 1344, Note_off_c, 0, 88, 64
1, 1368, Note_off_c, 0, 69, 100
1, 1368, Note_on_c, 0, 71, 64
1, 1392, Note_off_c, 0, 71, 64
1, 1392, Note_on_c, 0, 83, 88
1, 1416, Note_off_c, 0, 83, 88
1, 1416, Note_on_c, 0, 91, 64
1, 1440, Note_on_c, 0, 69, 100
1, 1440, Note_off_c, 0, 91, 64
1, 1464, Note_off_c, 0, 69, 100
1, 1464, Note_on_c, 0, 71, 64
1, 1488, Note_off_c, 0, 71, 64
1, 1488, Note_on_c, 0, 83, 88
1, 1512, Note_off_c, 0, 83, 88
1, 1512, Note_on_c, 0, 91, 64
1, 1536, Note_off_c, 0, 91, 64
1, 0, Note_on_c, 0, 45, 100
1, 24, Note_off_c, 0, 45, 100
1, 24, Note_on_c, 0, 52, 64
1, 48, Note_off_c, 0, 52, 64
1, 48, Note_on_c, 0, 64, 88
1, 72, Note_off_c, 0, 64, 88
1, 72, Note_on_c, 0, 76, 64
1, 96, Note_on_c, 0, 45, 100
1, 96, Note_off_c, 0, 76, 64
1, 120, Note_off_c, 0, 45, 100
1, 120, Note_on_c, 0, 52, 64
1, 144, Note_off_c, 0, 52, 64
1, 144, Note_on_c, 0, 64, 88
1, 168, Note_off_c, 0, 64, 88
1, 168, Note_on_c, 0, 76, 64
1, 192, Note_on_c, 0, 45, 100
1, 192, Note_off_c, 0, 76, 64
1, 216, Note_off_c, 0, 45, 100
1, 216, Note_on_c, 0, 52, 64
1, 240, Note_off_c, 0, 52, 64
1, 240, Note_on_c, 0, 64, 88
1, 264, Note_off_c, 0, 64, 88
1, 264, Note_on_c, 0, 76, 64
1, 288, Note_on_c, 0, 45, 100
1, 288, Note_off_c, 0, 76, 64
1, 312, Note_off_c, 0, 45, 100
1, 312, Note_on_c, 0, 52, 64
1, 336, Note_off_c, 0, 52, 64
1, 336, Note_on_c, 0, 64, 88
1, 360, Note_off_c, 0, 64, 88
1, 360, Note_on_c, 0, 72, 64
1, 384, Note_on_c, 0, 41, 100
1, 384, Note_off_c, 0, 72, 64
1, 408, Note_off_c, 0, 41, 100
1, 408, Note_on_c, 0, 50, 64
1, 432, Note_off_c, 0, 50, 64
1, 432, Note_on_c, 0, 60, 88
1, 456, Note_off_c, 0, 60, 88
1, 456, Note_on_c, 0, 72, 64
1, 480, Note_on_c, 0, 41, 100
1, 480, Note_off_c, 0, 72, 64
1, 504, Note_off_c, 0, 41, 100
1, 504, Note_on_c, 0, 50, 64
1, 528, Note_off_c, 0, 50, 64
1, 528, Note_on_c, 0, 60, 88
1, 552, Note_off_c, 0, 60, 88
1, 552, Note_on_c, 0, 72, 64
1, 576, Note_on_c, 0, 41, 100
1, 576, Note_off_c, 0, 72, 64
1, 600, Note_off_c, 0, 41, 100
1, 600, Note_on_c, 0, 50, 64
1, 624, Note_off_c, 0, 50, 64
1, 624, Note_on_c, 0, 60, 88
1, 648, Note_off_c, 0, 60, 88
1, 648, Note_on_c, 0, 72, 64
1, 672, Note_on_c, 0, 41, 100
1, 672, Note_off_c, 0, 72, 64
1, 696, Note_off_c, 0, 41, 100
1, 696, Note_on_c, 0, 50, 64
1, 720, Note_off_c, 0, 50, 64
1, 720, Note_on_c, 0, 60, 88
1, 744, Note_off_c, 0, 60, 88
1, 744, Note_on_c, 0, 69, 64
1, 768, Note_on_c, 0, 41, 100
1, 768, Note_off_c, 0, 69, 64
1, 792, Note_off_c, 0, 41, 100
1, 792, Note_on_c, 0, 50, 64
1, 816, Note_off_c, 0, 50, 64
1, 816, Note_on_c, 0, 65, 88
1, 840, Note_off_c, 0, 65, 88
1, 840, Note_on_c, 0, 72, 64
1, 864, Note_on_c, 0, 41, 100
1, 864, Note_off_c, 0, 72, 64
1, 888, Note_off_c, 0, 41, 100
1, 888, Note_on_c, 0, 50, 64
1, 912, Note_off_c, 0, 50, 64
1, 912, Note_on_c, 0, 65, 88
1, 936, Note_off_c, 0, 65, 88
1, 936, Note_on_c, 0, 72, 64
1, 960, Note_on_c, 0, 41, 100
1, 960, Note_off_c, 0, 72, 64
1, 984, Note_off_c, 0, 41, 100
1, 984, Note_on_c, 0, 50, 64
1, 1008, Note_off_c, 0, 50, 64
1, 1008, Note_on_c, 0, 65, 88
1, 1032, Note_off_c, 0, 65, 88
1, 1032, Note_on_c, 0, 72, 64
1, 1056, Note_on_c, 0, 41, 100
1, 1056, Note_off_c, 0, 72, 64
1, 1080, Note_off_c, 0, 41, 100
1, 1080, Note_on_c, 0, 50, 64
1, 1104, Note_off_c, 0, 50, 64
1, 1104, Note_on_c, 0, 65, 88
1, 1128, Note_off_c, 0, 65, 88
1, 1128, Note_on_c, 0, 69, 64
1, 1152, Note_on_c, 0, 38, 100
1, 1152, Note_off_c, 0, 69, 64
1, 1176, Note_off_c, 0, 38, 100
1, 1176, Note_on_c, 0, 45, 64
1, 1200, Note_off_c, 0, 45, 64
1, 1200, Note_on_c, 0, 52, 88
1, 1224, Note_off_c, 0, 52, 88
1, 1224, Note_on_c, 0, 67, 64
1, 1248, Note_on_c, 0, 38, 100
1, 1248, Note_off_c, 0, 67, 64
1, 1272, Note_off_c, 0, 38, 100
1, 1272, Note_on_c, 0, 45, 64
1, 1296, Note_off_c, 0, 45, 64
1, 1296, Note_on_c, 0, 52, 88
1, 1320, Note_off_c, 0, 52, 88
1, 1320, Note_on_c, 0, 67, 64
1, 1344, Note_on_c, 0, 38, 100
1, 1344, Note_off_c, 0, 67, 64
1, 1368, Note_off_c, 0, 38, 100
1, 1368, Note_on_c, 0, 45, 64
1, 1392, Note_off_c, 0, 45, 64
1, 1392, Note_on_c, 0, 52, 88
1, 1416, Note_off_c, 0, 52, 88
1, 1416, Note_on_c, 0, 67, 64
1, 1440, Note_on_c, 0, 38, 100
1, 1440, Note_off_c, 0, 67, 64
1, 1464, Note_off_c, 0, 38, 100
1, 1464, Note_on_c, 0, 45, 64
1, 1488, Note_off_c, 0, 45, 64
1, 1488, Note_on_c, 0, 52, 88
1, 1512, Note_off_c, 0, 52, 88
1, 1512, Note_on_c, 0, 69, 64
1, 1536, Note_off_c, 0, 69, 64
1, 0, Note_on_c, 0, 57, 57
1, 24, Note_off_c, 0, 57, 57
1, 24, Note_on_c, 0, 64, 65
1, 48, Note_off_c, 0, 64, 65
1, 48, Note_on_c, 0, 71, 65
1, 72, Note_off_c, 0, 71, 65
1, 72, Note_on_c, 0, 72, 60
1, 95, Note_off_c, 0, 72, 60
1, 96, Note_on_c, 0, 57, 57
1, 120, Note_off_c, 0, 57, 57
1, 120, Note_on_c, 0, 64, 65
1, 143, Note_on_c, 0, 76, 79
1, 144, Note_off_c, 0, 64, 65
1, 167, Note_off_c, 0, 76, 79
1, 167, Note_on_c, 0, 79, 81
1, 191, Note_off_c, 0, 79, 81
1, 192, Note_on_c, 0, 57, 57
1, 216, Note_off_c, 0, 57, 57
1, 216, Note_on_c, 0, 64, 65
1, 240, Note_off_c, 0, 64, 65
1, 240, Note_on_c, 0, 71, 65
1, 264, Note_off_c, 0, 71, 65
1, 264, Note_on_c, 0, 72, 60
1, 287, Note_off_c, 0, 72, 60
1, 288, Note_on_c, 0, 57, 57
1, 312, Note_off_c, 0, 57, 57
1, 312, Note_on_c, 0, 64, 65
1, 335, Note_on_c, 0, 76, 79
1, 336, Note_off_c, 0, 64, 65
1, 359, Note_off_c, 0, 76, 79
1, 359, Note_on_c, 0, 79, 81
1, 383, Note_off_c, 0, 79, 81
1, 384, Note_on_c, 0, 47, 46
1, 408, Note_off_c, 0, 47, 46
1, 408, Note_on_c, 0, 53, 68
1, 432, Note_off_c, 0, 53, 68
1, 432, Note_on_c, 0, 57, 50
1, 456, Note_off_c, 0, 57, 50
1, 456, Note_on_c, 0, 62, 74
1, 479, Note_off_c, 0, 62, 74
1, 480, Note_on_c, 0, 47, 46
1, 504, Note_off_c, 0, 47, 46
1, 504, Note_on_c, 0, 53, 68
1, 527, Note_on_c, 0, 64, 50
1, 528, Note_off_c, 0, 53, 68
1, 551, Note_off_c, 0, 64, 50
1, 551, Note_on_c, 0, 69, 74
1, 575, Note_off_c, 0, 69, 74
1, 576, Note_on_c, 0, 47, 46
1, 600, Note_off_c, 0, 47, 46
1, 600, Note_on_c, 0, 53, 68
1, 624, Note_off_c, 0, 53, 68
1, 624, Note_on_c, 0, 57, 50
1, 648, Note_off_c, 0, 57, 50
1, 648, Note_on_c, 0, 62, 74
1, 671, Note_off_c, 0, 62, 74
1, 672, Note_on_c, 0, 47, 46
1, 696, Note_off_c, 0, 47, 46
1, 696, Note_on_c, 0, 53, 68
1, 720, Note_off_c, 0, 53, 68
1, 720, Note_on_c, 0, 62, 45
1, 743, Note_off_c, 0, 62, 45
1, 744, Note_on_c, 0, 57, 61
1, 760, Note_off_c, 0, 57, 61
1, 768, Note_on_c, 0, 52, 73
1, 792, Note_off_c, 0, 52, 73
1, 792, Note_on_c, 0, 59, 79
1, 816, Note_off_c, 0, 59, 79
1, 816, Note_on_c, 0, 62, 81
1, 839, Note_on_c, 0, 67, 82
1, 840, Note_off_c, 0, 62, 81
1, 863, Note_off_c, 0, 67, 82
1, 864, Note_on_c, 0, 52, 73
1, 888, Note_off_c, 0, 52, 73
1, 888, Note_on_c, 0, 59, 79
1, 912, Note_off_c, 0, 59, 79
1, 912, Note_on_c, 0, 62, 81
1, 935, Note_on_c, 0, 65, 82
1, 936, Note_off_c, 0, 62, 81
1, 959, Note_off_c, 0, 65, 82
1, 960, Note_on_c, 0, 52, 73
1, 984, Note_off_c, 0, 52, 73
1, 984, Note_on_c, 0, 59, 79
1, 1008, Note_off_c, 0, 59, 79
1, 1008, Note_on_c, 0, 62, 81
1, 1031, Note_on_c, 0, 67, 82
1, 1032, Note_off_c, 0, 62, 81
1, 1055, Note_off_c, 0, 67, 82
1, 1056, Note_on_c, 0, 52, 73
1, 1080, Note_off_c, 0, 52, 73
1, 1080, Note_on_c, 0, 59, 79
1, 1104, Note_off_c, 0, 59, 79
1, 1104, Note_on_c, 0, 62, 81
1, 1127, Note_on_c, 0, 65, 82
1, 1128, Note_off_c, 0, 62, 81
1, 1151, Note_off_c, 0, 65, 82
1, 1152, Note_on_c, 0, 57, 59
1, 1176, Note_off_c, 0, 57, 59
1, 1176, Note_on_c, 0, 64, 72
1, 1200, Note_off_c, 0, 64, 72
1, 1200, Note_on_c, 0, 67, 79
1, 1224, Note_off_c, 0, 67, 79
1, 1224, Note_on_c, 0, 72, 76
1, 1247, Note_off_c, 0, 72, 76
1, 1248, Note_on_c, 0, 57, 59
1, 1272, Note_off_c, 0, 57, 59
1, 1272, Note_on_c, 0, 64, 72
1, 1296, Note_off_c, 0, 64, 72
1, 1296, Note_on_c, 0, 67, 79
1, 1319, Note_on_c, 0, 74, 76
1, 1320, Note_off_c, 0, 67, 79
1, 1343, Note_off_c, 0, 74, 76
1, 1344, Note_on_c, 0, 57, 59
1, 1368, Note_off_c, 0, 57, 59
1, 1368, Note_on_c, 0, 64, 72
1, 1392, Note_off_c, 0, 64, 72
1, 1392, Note_on_c, 0, 67, 79
1, 1416, Note_off_c, 0, 67, 79
1, 1416, Note_on_c, 0, 72, 76
1, 1439, Note_off_c, 0, 72, 76
1, 1440, Note_on_c, 0, 57, 59
1, 1464, Note_off_c, 0, 57, 59
1, 1464, Note_on_c, 0, 64, 72
1, 1488, Note_off_c, 0, 64, 72
1, 1488, Note_on_c, 0, 67, 79
1, 1511, Note_on_c, 0, 76, 76
1, 1512, Note_off_c, 0, 67, 79
1, 1535, Note_off_c, 0, 76, 76
1, 0, Pitch_bend_c, 0, 8192
1, 0, Control_c, 0, 6, 12
1, 0, Control_c, 0, 7, 100
1, 0, Control_c, 0, 10, 64
1, 0, Control_c, 0, 100, 0
1, 0, Control_c, 0, 101, 0
1, 0, Note_on_c, 0, 45, 100
1, 48, Note_off_c, 0, 45, 64
1, 96, Note_on_c, 0, 57, 100
1, 144, Note_off_c, 0, 57, 64
1, 240, Note_on_c, 0, 45, 100
1, 288, Note_off_c, 0, 45, 64
1, 288, Note_on_c, 0, 57, 100
1, 336, Note_off_c, 0, 57, 64
1, 384, Note_on_c, 0, 41, 100
1, 432, Note_off_c, 0, 41, 64
1, 432, Note_on_c, 0, 53, 100
1, 480, Note_off_c, 0, 53, 64
1, 528, Note_on_c, 0, 41, 100
1, 576, Note_off_c, 0, 41, 64
1, 576, Note_on_c, 0, 53, 100
1, 624, Note_off_c, 0, 53, 64
1, 672, Note_on_c, 0, 41, 100
1, 720, Note_off_c, 0, 41, 64
1, 720, Note_on_c, 0, 53, 100
1, 768, Note_on_c, 0, 43, 100
1, 768, Note_off_c, 0, 53, 64
1, 816, Note_off_c, 0, 43, 64
1, 864, Note_on_c, 0, 55, 100
1, 912, Note_off_c, 0, 55, 64
1, 960, Note_on_c, 0, 43, 100
1, 1008, Note_off_c, 0, 43, 64
1, 1008, Note_on_c, 0, 55, 100
1, 1056, Note_off_c, 0, 55, 64
1, 1104, Note_on_c, 0, 43, 100
1, 1152, Note_on_c, 0, 40, 100
1, 1152, Note_off_c, 0, 43, 64
1, 1200, Note_off_c, 0, 40, 64
1, 1248, Note_on_c, 0, 52, 100
1, 1296, Note_on_c, 0, 40, 100
1, 1296, Note_off_c, 0, 52, 64
1, 1344, Note_off_c, 0, 40, 64
1, 1392, Note_on_c, 0, 52, 100
1, 1440, Note_off_c, 0, 52, 64
1, 1488, Note_on_c, 0, 40, 100
1, 1535, Pitch_bend_c, 0, 8192
1, 1535, Pitch_bend_c, 0, 8192
1, 1535, Control_c, 0, 7, 100
1, 1535, Control_c, 0, 7, 100
1, 1535, Control_c, 0, 10, 64
1, 1535, Control_c, 0, 10, 64
1, 1535, Note_off_c, 0, 40, 64
1, 1536, Pitch_bend_c, 0, 8192
1, 1536, Control_c, 0, 6, 12
1, 1536, Control_c, 0, 6, 12
1, 1536, Control_c, 0, 7, 100
1, 1536, Control_c, 0, 10, 64
1, 1536, Control_c, 0, 100, 0
1, 1536, Control_c, 0, 100, 0
1, 1536, Control_c, 0, 101, 0
1, 1536, Control_c, 0, 101, 0
1, 0, Control_c, 0, 1, 70
1, 0, Note_on_c, 0, 33, 74
1, 0, Note_on_c, 0, 60, 44
1, 48, Note_off_c, 0, 60, 44
1, 48, Note_on_c, 0, 67, 39
1, 96, Note_on_c, 0, 60, 41
1, 96, Note_off_c, 0, 67, 39
1, 139, Note_off_c, 0, 60, 41
1, 144, Note_on_c, 0, 60, 38
1, 192, Note_off_c, 0, 60, 38
1, 192, Note_on_c, 0, 67, 42
1, 240, Note_on_c, 0, 60, 38
1, 240, Note_off_c, 0, 67, 42
1, 283, Note_off_c, 0, 60, 38
1, 288, Note_on_c, 0, 60, 38
1, 336, Note_off_c, 0, 60, 38
1, 336, Note_on_c, 0, 67, 40
1, 384, Note_off_c, 0, 33, 74
1, 384, Note_on_c, 0, 41, 78
1, 384, Note_on_c, 0, 60, 43
1, 384, Note_off_c, 0, 67, 40
1, 432, Note_off_c, 0, 60, 43
1, 432, Note_on_c, 0, 67, 39
1, 480, Note_on_c, 0, 60, 41
1, 480, Note_off_c, 0, 67, 39
1, 523, Note_off_c, 0, 60, 41
1, 528, Note_on_c, 0, 60, 39
1, 576, Note_off_c, 0, 60, 39
1, 576, Note_on_c, 0, 67, 41
1, 624, Note_on_c, 0, 60, 39
1, 624, Note_off_c, 0, 67, 41
1, 667, Note_off_c, 0, 60, 39
1, 672, Note_on_c, 0, 60, 40
1, 720, Note_off_c, 0, 60, 40
1, 720, Note_on_c, 0, 67, 40
1, 768, Note_on_c, 0, 31, 77
1, 768, Note_off_c, 0, 41, 78
1, 768, Note_on_c, 0, 60, 46
1, 768, Note_off_c, 0, 67, 40
1, 816, Note_off_c, 0, 60, 46
1, 816, Note_on_c, 0, 65, 39
1, 864, Note_on_c, 0, 60, 40
1, 864, Note_off_c, 0, 65, 39
1, 907, Note_off_c, 0, 60, 40
1, 912, Note_on_c, 0, 60, 39
1, 960, Note_off_c, 0, 60, 39
1, 960, Note_on_c, 0, 65, 42
1, 1008, Note_on_c, 0, 60, 38
1, 1008, Note_off_c, 0, 65, 42
1, 1051, Note_off_c, 0, 60, 38
1, 1056, Note_on_c, 0, 60, 40
1, 1104, Note_off_c, 0, 60, 40
1, 1104, Note_on_c, 0, 65, 38
1, 1152, Note_off_c, 0, 31, 77
1, 1152, Note_on_c, 0, 36, 75
1, 1152, Note_on_c, 0, 62, 42
1, 1152, Note_off_c, 0, 65, 38
1, 1200, Note_off_c, 0, 62, 42
1, 1200, Note_on_c, 0, 67, 39
1, 1248, Note_on_c, 0, 62, 40
1, 1248, Note_off_c, 0, 67, 39
1, 1291, Note_off_c, 0, 62, 40
1, 1296, Note_on_c, 0, 62, 39
1, 1344, Note_off_c, 0, 62, 39
1, 1344, Note_on_c, 0, 67, 42
1, 1392, Note_on_c, 0, 62, 40
1, 1392, Note_off_c, 0, 67, 42
1, 1435, Note_off_c, 0, 62, 40
1, 1440, Note_on_c, 0, 62, 39
1, 1488, Note_off_c, 0, 62, 39
1, 1488, Note_on_c, 0, 67, 38
1, 1536, Note_off_c, 0, 36, 75
1, 1536, Note_off_c, 0, 67, 38
1, 3052, Control_c, 0, 1, 70
1, 3052, Control_c, 0, 1, 40
1, 0, Pitch_bend_c, 0, 8192
1, 0, Control_c, 0, 6, 12
1, 0, Control_c, 0, 7, 100
1, 0, Control_c, 0, 10, 64
1, 0, Control_c, 0, 100, 0
1, 0, Control_c, 0, 101, 0
1, 0, Note_on_c, 0, 57, 100
1, 24, Note_off_c, 0, 57, 64
1, 24, Note_on_c, 0, 60, 100
1, 48, Note_off_c, 0, 60, 64
1, 48, Note_on_c, 0, 64, 100
1, 72, Note_off_c, 0, 64, 64
1, 72, Note_on_c, 0, 67, 100
1, 96, Note_off_c, 0, 67, 64
1, 96, Note_on_c, 0, 69, 100
1, 144, Note_on_c, 0, 67, 100
1, 144, Note_off_c, 0, 69, 64
1, 192, Note_on_c, 0, 64, 100
1, 192, Note_off_c, 0, 67, 64
1, 240, Note_off_c, 0, 64, 64
1, 264, Note_on_c, 0, 60, 100
1, 312, Note_off_c, 0, 60, 64
1, 336, Note_on_c, 0, 57, 100
1, 384, Note_on_c, 0, 55, 100
1, 384, Note_off_c, 0, 57, 64
1, 408, Note_off_c, 0, 55, 64
1, 408, Note_on_c, 0, 57, 100
1, 432, Note_off_c, 0, 57, 64
1, 432, Note_on_c, 0, 60, 100
1, 456, Note_off_c, 0, 60, 64
1, 456, Note_on_c, 0, 64, 100
1, 480, Note_off_c, 0, 64, 64
1, 480, Note_on_c, 0, 67, 100
1, 528, Note_on_c, 0, 64, 100
1, 528, Note_off_c, 0, 67, 64
1, 576, Note_on_c, 0, 60, 100
1, 576, Note_off_c, 0, 64, 64
1, 624, Note_off_c, 0, 60, 64
1, 648, Note_on_c, 0, 57, 100
1, 696, Note_off_c, 0, 57, 64
1, 720, Note_on_c, 0, 55, 100
1, 768, Note_on_c, 0, 52, 100
1, 768, Note_off_c, 0, 55, 64
1, 792, Note_off_c, 0, 52, 64
1, 792, Note_on_c, 0, 55, 100
1, 816, Note_off_c, 0, 55, 64
1, 816, Note_on_c, 0, 57, 100
1, 840, Note_off_c, 0, 57, 64
1, 840, Note_on_c, 0, 60, 100
1, 864, Note_off_c, 0, 60, 64
1, 864, Note_on_c, 0, 64, 100
1, 912, Note_on_c, 0, 60, 100
1, 912, Note_off_c, 0, 64, 64
1, 960, Note_on_c, 0, 57, 100
1, 960, Note_off_c, 0, 60, 64
1, 1008, Note_off_c, 0, 57, 64
1, 1032, Note_on_c, 0, 55, 100
1, 1080, Note_off_c, 0, 55, 64
1, 1104, Note_on_c, 0, 52, 100
1, 1152, Note_on_c, 0, 48, 100
1, 1152, Note_off_c, 0, 52, 64
1, 1176, Note_off_c, 0, 48, 64
1, 1176, Note_on_c, 0, 52, 100
1, 1200, Note_off_c, 0, 52, 64
1, 1200, Note_on_c, 0, 55, 100
1, 1224, Note_off_c, 0, 55, 64
1, 1224, Note_on_c, 0, 57, 100
1, 1248, Note_off_c, 0, 57, 64
1, 1248, Note_on_c, 0, 60, 100
1, 1296, Note_on_c, 0, 57, 100
1, 1296, Note_off_c, 0, 60, 64
1, 1344, Note_on_c, 0, 55, 100
1, 1344, Note_off_c, 0, 57, 64
1, 1368, Note_off_c, 0, 55, 64
1, 1368, Note_on_c, 0, 57, 100
1, 1392, Note_off_c, 0, 57, 64
1, 1392, Note_on_c, 0, 60, 100
1, 1416, Note_off_c, 0, 60, 64
1, 1416, Note_on_c, 0, 62, 100
1, 1440, Note_off_c, 0, 62, 64
1, 1440, Note_on_c, 0, 64, 100
1, 1488, Note_on_c, 0, 60, 100
1, 1488, Note_off_c, 0, 64, 64
1, 1534, Note_off_c, 0, 60, 64
1, 1535, Pitch_bend_c, 0, 8192
1, 1535, Pitch_bend_c, 0, 8192
1, 1535, Control_c, 0, 7, 100
1, 1535, Control_c, 0, 7, 100
1, 1535, Control_c, 0, 10, 64
1, 1535, Control_c, 0, 10, 64
1, 1536, Pitch_bend_c, 0, 8192
1, 1536, Control_c, 0, 6, 12
1, 1536, Control_c, 0, 6, 12
1, 1536, Control_c, 0, 7, 100
1, 1536, Control_c, 0, 10, 64
1, 1536, Control_c, 0, 100, 0
1, 1536, Control_c, 0, 100, 0
1, 1536, Control_c, 0, 101, 0
1, 1536, Control_c, 0, 101, 0
1, 0, Note_on_c, 0, 57, 86
1, 48, Note_on_c, 0, 64, 76
1, 72, Note_off_c, 0, 57, 86
1, 96, Note_on_c, 0, 72, 87
1, 144, Note_off_c, 0, 64, 76
1, 197, Note_off_c, 0, 72, 87
1, 240, Note_on_c, 0, 64, 47
1, 288, Note_on_c, 0, 72, 88
1, 290, Note_off_c, 0, 64, 47
1, 334, Note_off_c, 0, 72, 88
1, 336, Note_on_c, 0, 71, 89
1, 366, Note_off_c, 0, 71, 89
1, 384, Note_on_c, 0, 76, 73
1, 432, Note_on_c, 0, 72, 71
1, 432, Note_off_c, 0, 76, 73
1, 480, Note_on_c, 0, 69, 64
1, 480, Note_off_c, 0, 72, 71
1, 528, Note_on_c, 0, 64, 61
1, 528, Note_off_c, 0, 69, 64
1, 576, Note_on_c, 0, 57, 75
1, 576, Note_off_c, 0, 64, 61
1, 624, Note_off_c, 0, 57, 75
1, 672, Note_on_c, 0, 69, 72
1, 707, Note_off_c, 0, 69, 72
1, 720, Note_on_c, 0, 64, 57
1, 746, Note_off_c, 0, 64, 57
1, 768, Note_on_c, 0, 53, 72
1, 816, Note_off_c, 0, 53, 72
1, 816, Note_on_c, 0, 60, 56
1, 864, Note_off_c, 0, 60, 56
1, 864, Note_on_c, 0, 65, 74
1, 912, Note_off_c, 0, 65, 74
1, 912, Note_on_c, 0, 69, 74
1, 963, Note_off_c, 0, 69, 74
1, 1008, Note_on_c, 0, 60, 55
1, 1049, Note_off_c, 0, 60, 55
1, 1056, Note_on_c, 0, 69, 93
1, 1099, Note_off_c, 0, 69, 93
1, 1104, Note_on_c, 0, 67, 81
1, 1146, Note_off_c, 0, 67, 81
1, 1152, Note_on_c, 0, 57, 57
1, 1200, Note_off_c, 0, 57, 57
1, 1200, Note_on_c, 0, 64, 50
1, 1248, Note_off_c, 0, 64, 50
1, 1248, Note_on_c, 0, 69, 63
1, 1296, Note_on_c, 0, 72, 74
1, 1302, Note_off_c, 0, 69, 63
1, 1344, Note_on_c, 0, 76, 76
1, 1352, Note_off_c, 0, 72, 74
1, 1392, Note_off_c, 0, 76, 76
1, 1440, Note_on_c, 0, 72, 79
1, 1483, Note_off_c, 0, 72, 79
1, 1488, Note_on_c, 0, 69, 39
1, 1514, Note_off_c, 0, 69, 39
1, 0, Control_c, 0, 1, 100
1, 0, Note_on_c, 0, 69, 108
1, 96, Note_on_c, 0, 60, 99
1, 96, Note_off_c, 0, 69, 108
1, 192, Note_off_c, 0, 60, 99
1, 192, Note_on_c, 0, 64, 100
1, 288, Note_off_c, 0, 64, 100
1, 288, Note_on_c, 0, 69, 98
1, 384, Note_on_c, 0, 67, 109
1, 384, Note_off_c, 0, 69, 98
1, 480, Note_off_c, 0, 67, 109
1, 480, Note_on_c, 0, 71, 103
1, 528, Note_off_c, 0, 71, 103
1, 528, Note_on_c, 0, 76, 96
1, 576, Note_on_c, 0, 71, 100
1, 576, Note_off_c, 0, 76, 96
1, 672, Note_on_c, 0, 64, 93
1, 672, Note_off_c, 0, 71, 100
1, 720, Note_off_c, 0, 64, 93
1, 720, Note_on_c, 0, 71, 97
1, 768, Note_on_c, 0, 65, 113
1, 768, Note_off_c, 0, 71, 97
1, 864, Note_on_c, 0, 57, 99
1, 864, Note_off_c, 0, 65, 113
1, 912, Note_off_c, 0, 57, 99
1, 912, Note_on_c, 0, 60, 93
1, 960, Note_off_c, 0, 60, 93
1, 960, Note_on_c, 0, 65, 104
1, 1056, Note_off_c, 0, 65, 104
1, 1056, Note_on_c, 0, 69, 95
1, 1104, Note_on_c, 0, 57, 93
1, 1104, Note_off_c, 0, 69, 95
1, 1152, Note_off_c, 0, 57, 93
1, 1152, Note_on_c, 0, 62, 107
1, 1536, Note_off_c, 0, 62, 107
1, 0, Pitch_bend_c, 0, 8192
1, 0, Control_c, 0, 6, 12
1, 0, Control_c, 0, 7, 100
1, 0, Control_c, 0, 10, 64
1, 0, Control_c, 0, 100, 0
1, 0, Control_c, 0, 101, 0
1, 0, Note_on_c, 0, 81, 100
1, 96, Note_off_c, 0, 81, 64
1, 96, Note_on_c, 0, 86, 96
1, 192, Note_on_c, 0, 84, 98
1, 192, Note_off_c, 0, 86, 64
1, 240, Note_off_c, 0, 84, 64
1, 240, Note_on_c, 0, 86, 102
1, 288, Note_on_c, 0, 84, 103
1, 288, Note_off_c, 0, 86, 64
1, 336, Note_on_c, 0, 81, 101
1, 336, Note_off_c, 0, 84, 64
1, 480, Note_off_c, 0, 81, 64
1, 480, Note_on_c, 0, 84, 102
1, 528, Note_on_c, 0, 72, 103
1, 528, Note_off_c, 0, 84, 64
1, 576, Note_off_c, 0, 72, 64
1, 576, Note_on_c, 0, 76, 99
1, 648, Note_off_c, 0, 76, 64
1, 672, Note_on_c, 0, 79, 102
1, 768, Note_off_c, 0, 79, 64
1, 768, Note_on_c, 0, 81, 93
1, 864, Note_off_c, 0, 81, 64
1, 864, Note_on_c, 0, 86, 97
1, 912, Note_off_c, 0, 86, 64
1, 912, Note_on_c, 0, 89, 102
1, 960, Note_off_c, 0, 89, 64
1, 960, Note_on_c, 0, 91, 99
1, 1008, Note_on_c, 0, 86, 97
1, 1008, Note_off_c, 0, 91, 64
1, 1056, Note_on_c, 0, 84, 95
1, 1056, Note_off_c, 0, 86, 64
1, 1104, Note_on_c, 0, 81, 96
1, 1104, Note_off_c, 0, 84, 64
1, 1200, Note_off_c, 0, 81, 64
1, 1200, Note_on_c, 0, 84, 97
1, 1296, Note_on_c, 0, 83, 99
1, 1296, Note_off_c, 0, 84, 64
1, 1344, Note_on_c, 0, 79, 102
1, 1344, Note_off_c, 0, 83, 64
1, 1440, Note_on_c, 0, 76, 101
1, 1440, Note_off_c, 0, 79, 64
1, 1535, Note_off_c, 0, 76, 64
1, 1536, Pitch_bend_c, 0, 8192
1, 1536, Pitch_bend_c, 0, 8192
1, 1536, Control_c, 0, 6, 12
1, 1536, Control_c, 0, 6, 12
1, 1536, Control_c, 0, 7, 100
1, 1536, Control_c, 0, 7, 100
1, 1536, Control_c, 0, 10, 64
1, 1536, Control_c, 0, 10, 64
1, 1536, Control_c, 0, 100, 0
1, 1536, Control_c, 0, 100, 0
1, 1536, Control_c, 0, 101, 0
1, 1536, Control_c, 0, 101, 0
1, 1537, Pitch_bend_c, 0, 8192
1, 1537, Control_c, 0, 6, 12
1, 1537, Control_c, 0, 7, 100
1, 1537, Control_c, 0, 10, 64
1, 1537, Control_c, 0, 100, 0
1, 1537, Control_c, 0, 101, 0
1, 0, Pitch_bend_c, 0, 8192
1, 0, Control_c, 0, 6, 12
1, 0, Control_c, 0, 7, 100
1, 0, Control_c, 0, 10, 64
1, 0, Control_c, 0, 100, 0
1, 0, Control_c, 0, 101, 0
1, 0, Note_on_c, 0, 64, 100
1, 0, Note_on_c, 0, 69, 100
1, 0, Note_on_c, 0, 76, 100
1, 0, Note_on_c, 0, 81, 100
1, 48, Note_off_c, 0, 64, 64
1, 48, Note_off_c, 0, 69, 64
1, 48, Note_on_c, 0, 72, 100
1, 48, Note_off_c, 0, 76, 64
1, 48, Note_off_c, 0, 81, 64
1, 96, Note_on_c, 0, 57, 100
1, 96, Note_off_c, 0, 72, 64
1, 144, Note_off_c, 0, 57, 64
1, 144, Note_on_c, 0, 83, 100
1, 192, Note_on_c, 0, 72, 100
1, 192, Note_off_c, 0, 83, 64
1, 240, Note_on_c, 0, 57, 100
1, 240, Note_off_c, 0, 72, 64
1, 288, Note_off_c, 0, 57, 64
1, 288, Note_on_c, 0, 81, 100
1, 336, Note_on_c, 0, 57, 100
1, 336, Note_off_c, 0, 81, 64
1, 384, Note_off_c, 0, 57, 64
1, 384, Note_on_c, 0, 62, 100
1, 384, Note_on_c, 0, 67, 100
1, 384, Note_on_c, 0, 74, 100
1, 432, Note_off_c, 0, 62, 64
1, 432, Note_off_c, 0, 67, 64
1, 432, Note_on_c, 0, 71, 100
1, 432, Note_off_c, 0, 74, 64
1, 480, Note_on_c, 0, 55, 100
1, 480, Note_off_c, 0, 71, 64
1, 528, Note_off_c, 0, 55, 64
1, 528, Note_on_c, 0, 79, 100
1, 576, Note_on_c, 0, 62, 100
1, 576, Note_off_c, 0, 79, 64
1, 624, Note_off_c, 0, 62, 64
1, 624, Note_on_c, 0, 76, 100
1, 672, Note_on_c, 0, 59, 100
1, 672, Note_off_c, 0, 76, 64
1, 720, Note_on_c, 0, 55, 100
1, 720, Note_off_c, 0, 59, 64
1, 768, Note_off_c, 0, 55, 64
1, 768, Note_on_c, 0, 65, 100
1, 768, Note_on_c, 0, 69, 100
1, 768, Note_on_c, 0, 77, 100
1, 816, Note_off_c, 0, 65, 64
1, 816, Note_off_c, 0, 69, 64
1, 816, Note_on_c, 0, 72, 100
1, 816, Note_off_c, 0, 77, 64
1, 864, Note_on_c, 0, 57, 100
1, 864, Note_off_c, 0, 72, 64
1, 912, Note_off_c, 0, 57, 64
1, 912, Note_on_c, 0, 81, 100
1, 960, Note_on_c, 0, 72, 100
1, 960, Note_off_c, 0, 81, 64
1, 1008, Note_on_c, 0, 57, 100
1, 1008, Note_off_c, 0, 72, 64
1, 1056, Note_off_c, 0, 57, 64
1, 1056, Note_on_c, 0, 84, 100
1, 1104, Note_on_c, 0, 57, 100
1, 1104, Note_off_c, 0, 84, 64
1, 1152, Note_off_c, 0, 57, 64
1, 1152, Note_on_c, 0, 64, 100
1, 1152, Note_on_c, 0, 68, 100
1, 1152, Note_on_c, 0, 71, 100
1, 1152, Note_on_c, 0, 76, 100
1, 1200, Note_on_c, 0, 59, 100
1, 1200, Note_off_c, 0, 64, 64
1, 1200, Note_off_c, 0, 68, 64
1, 1200, Note_off_c, 0, 71, 64
1, 1200, Note_off_c, 0, 76, 64
1, 1248, Note_off_c, 0, 59, 64
1, 1248, Note_on_c, 0, 77, 100
1, 1296, Note_on_c, 0, 76, 100
1, 1296, Note_off_c, 0, 77, 64
1, 1344, Note_on_c, 0, 59, 100
1, 1344, Note_off_c, 0, 76, 64
1, 1392, Note_on_c, 0, 52, 100
1, 1392, Note_off_c, 0, 59, 64
1, 1440, Note_off_c, 0, 52, 64
1, 1440, Note_on_c, 0, 80, 100
1, 1488, Note_on_c, 0, 68, 100
1, 1488, Note_off_c, 0, 80, 64
1, 1535, Note_off_c, 0, 68, 64
1, 1536, Pitch_bend_c, 0, 8192
1, 1536, Pitch_bend_c, 0, 8192
1, 1536, Control_c, 0, 6, 12
1, 1536, Control_c, 0, 6, 12
1, 1536, Control_c, 0, 7, 100
1, 1536, Control_c, 0, 7, 100
1, 1536, Control_c, 0, 10, 64
1, 1536, Control_c, 0, 10, 64
1, 1536, Control_c, 0, 100, 0
1, 1536, Control_c, 0, 100, 0
1, 1536, Control_c, 0, 101, 0
1, 1536, Control_c, 0, 101, 0
1, 0, Pitch_bend_c, 0, 8192
1, 0, Control_c, 0, 6, 12
1, 0, Control_c, 0, 7, 100
1, 0, Control_c, 0, 10, 64
1, 0, Control_c, 0, 100, 0
1, 0, Control_c, 0, 101, 0
1, 0, Note_on_c, 0, 81, 100
1, 8, Note_on_c, 0, 84, 100
1, 12, Note_off_c, 0, 81, 64
1, 12, Note_off_c, 0, 84, 64
1, 18, Note_on_c, 0, 88, 100
1, 19, Note_off_c, 0, 88, 64
1, 48, Note_on_c, 0, 69, 100
1, 60, Note_off_c, 0, 69, 64
1, 96, Note_on_c, 0, 76, 100
1, 108, Note_off_c, 0, 76, 64
1, 144, Note_on_c, 0, 81, 100
1, 156, Note_off_c, 0, 81, 64
1, 192, Note_on_c, 0, 89, 100
1, 193, Note_on_c, 0, 95, 100
1, 204, Note_off_c, 0, 89, 64
1, 204, Note_off_c, 0, 95, 64
1, 288, Note_on_c, 0, 88, 100
1, 289, Note_on_c, 0, 93, 100
1, 300, Note_off_c, 0, 88, 64
1, 300, Note_off_c, 0, 93, 64
1, 384, Note_on_c, 0, 81, 100
1, 392, Note_on_c, 0, 84, 100
1, 396, Note_off_c, 0, 81, 64
1, 396, Note_off_c, 0, 84, 64
1, 402, Note_on_c, 0, 89, 100
1, 403, Note_off_c, 0, 89, 64
1, 432, Note_on_c, 0, 69, 100
1, 444, Note_off_c, 0, 69, 64
1, 480, Note_on_c, 0, 76, 100
1, 492, Note_off_c, 0, 76, 64
1, 528, Note_on_c, 0, 84, 100
1, 540, Note_off_c, 0, 84, 64
1, 576, Note_on_c, 0, 89, 100
1, 577, Note_on_c, 0, 95, 100
1, 588, Note_off_c, 0, 89, 64
1, 588, Note_off_c, 0, 95, 64
1, 672, Note_on_c, 0, 89, 100
1, 673, Note_on_c, 0, 96, 100
1, 684, Note_off_c, 0, 89, 64
1, 684, Note_off_c, 0, 96, 64
1, 768, Note_on_c, 0, 81, 100
1, 776, Note_on_c, 0, 84, 100
1, 780, Note_off_c, 0, 81, 64
1, 780, Note_off_c, 0, 84, 64
1, 786, Note_on_c, 0, 88, 100
1, 787, Note_off_c, 0, 88, 64
1, 816, Note_on_c, 0, 69, 100
1, 828, Note_off_c, 0, 69, 64
1, 864, Note_on_c, 0, 76, 100
1, 864, Note_on_c, 0, 96, 100
1, 876, Note_off_c, 0, 76, 64
1, 876, Note_off_c, 0, 96, 64
1, 912, Note_on_c, 0, 81, 100
1, 912, Note_on_c, 0, 88, 100
1, 924, Note_off_c, 0, 81, 64
1, 924, Note_off_c, 0, 88, 64
1, 960, Note_on_c, 0, 89, 100
1, 961, Note_on_c, 0, 95, 100
1, 972, Note_off_c, 0, 89, 64
1, 972, Note_off_c, 0, 95, 64
1, 1056, Note_on_c, 0, 88, 100
1, 1057, Note_on_c, 0, 93, 100
1, 1068, Note_off_c, 0, 88, 64
1, 1068, Note_off_c, 0, 93, 64
1, 1152, Note_on_c, 0, 81, 100
1, 1160, Note_on_c, 0, 84, 100
1, 1164, Note_off_c, 0, 81, 64
1, 1164, Note_off_c, 0, 84, 64
1, 1170, Note_on_c, 0, 89, 100
1, 1171, Note_off_c, 0, 89, 64
1, 1200, Note_on_c, 0, 69, 100
1, 1212, Note_off_c, 0, 69, 64
1, 1248, Note_on_c, 0, 76, 100
1, 1260, Note_off_c, 0, 76, 64
1, 1296, Note_on_c, 0, 88, 100
1, 1308, Note_off_c, 0, 88, 64
1, 1344, Note_on_c, 0, 79, 100
1, 1352, Note_on_c, 0, 83, 100
1, 1356, Note_off_c, 0, 79, 64
1, 1356, Note_off_c, 0, 83, 64
1, 1362, Note_on_c, 0, 86, 100
1, 1363, Note_off_c, 0, 86, 64
1, 1392, Note_on_c, 0, 67, 100
1, 1404, Note_off_c, 0, 67, 64
1, 1440, Note_on_c, 0, 74, 100
1, 1440, Note_on_c, 0, 84, 100
1, 1452, Note_off_c, 0, 74, 64
1, 1452, Note_off_c, 0, 84, 64
1, 1488, Note_on_c, 0, 83, 100
1, 1500, Note_off_c, 0, 83, 64
1, 1535, Pitch_bend_c, 0, 8192
1, 1535, Pitch_bend_c, 0, 8192
1, 1535, Control_c, 0, 7, 100
1, 1535, Control_c, 0, 7, 100
1, 1535, Control_c, 0, 10, 64
1, 1535, Control_c, 0, 10, 64
1, 1536, Pitch_bend_c, 0, 8192
1, 1536, Control_c, 0, 6, 12
1, 1536, Control_c, 0, 6, 12
1, 1536, Control_c, 0, 7, 100
1, 1536, Control_c, 0, 10, 64
1, 1536, Control_c, 0, 100, 0
1, 1536, Control_c, 0, 100, 0
1, 1536, Control_c, 0, 101, 0
1, 1536, Control_c, 0, 101, 0
1, 0, Pitch_bend_c, 0, 8192
1, 0, Control_c, 0, 6, 12
1, 0, Control_c, 0, 7, 100
1, 0, Control_c, 0, 10, 64
1, 0, Control_c, 0, 100, 0
1, 0, Control_c, 0, 101, 0
1, 0, Note_on_c, 0, 64, 67
1, 3, Note_on_c, 0, 69, 83
1, 8, Note_on_c, 0, 72, 100
1, 48, Note_off_c, 0, 64, 64
1, 48, Note_off_c, 0, 69, 64
1, 48, Note_off_c, 0, 72, 64
1, 144, Note_on_c, 0, 69, 100
1, 192, Note_off_c, 0, 69, 64
1, 240, Note_on_c, 0, 72, 100
1, 288, Note_on_c, 0, 62, 67
1, 288, Note_off_c, 0, 72, 64
1, 291, Note_on_c, 0, 67, 83
1, 296, Note_on_c, 0, 71, 100
1, 336, Note_off_c, 0, 62, 64
1, 336, Note_off_c, 0, 67, 64
1, 336, Note_off_c, 0, 71, 64
1, 480, Note_on_c, 0, 67, 100
1, 528, Note_off_c, 0, 67, 64
1, 528, Note_on_c, 0, 71, 47
1, 533, Note_on_c, 0, 76, 100
1, 560, Note_off_c, 0, 71, 64
1, 576, Note_on_c, 0, 74, 100
1, 576, Note_off_c, 0, 76, 64
1, 624, Note_on_c, 0, 72, 100
1, 624, Note_off_c, 0, 74, 64
1, 672, Note_on_c, 0, 71, 100
1, 672, Note_off_c, 0, 72, 64
1, 720, Note_off_c, 0, 71, 64
1, 720, Note_on_c, 0, 72, 100
1, 768, Note_on_c, 0, 60, 67
1, 768, Note_off_c, 0, 72, 64
1, 771, Note_on_c, 0, 64, 83
1, 776, Note_on_c, 0, 69, 100
1, 816, Note_off_c, 0, 60, 64
1, 816, Note_off_c, 0, 64, 64
1, 816, Note_off_c, 0, 69, 64
1, 912, Note_on_c, 0, 64, 67
1, 915, Note_on_c, 0, 69, 83
1, 920, Note_on_c, 0, 72, 100
1, 960, Note_off_c, 0, 64, 64
1, 960, Note_off_c, 0, 69, 64
1, 960, Note_on_c, 0, 71, 100
1, 960, Note_off_c, 0, 72, 64
1, 1008, Note_on_c, 0, 69, 100
1, 1008, Note_off_c, 0, 71, 64
1, 1056, Note_on_c, 0, 59, 67
1, 1056, Note_off_c, 0, 69, 64
1, 1059, Note_on_c, 0, 62, 83
1, 1064, Note_on_c, 0, 67, 100
1, 1104, Note_off_c, 0, 59, 64
1, 1104, Note_off_c, 0, 62, 64
1, 1104, Note_off_c, 0, 67, 64
1, 1200, Note_on_c, 0, 64, 100
1, 1248, Note_off_c, 0, 64, 64
1, 1296, Note_on_c, 0, 62, 100
1, 1344, Note_on_c, 0, 60, 100
1, 1344, Note_off_c, 0, 62, 64
1, 1392, Note_off_c, 0, 60, 64
1, 1440, Note_on_c, 0, 60, 53
1, 1446, Note_off_c, 0, 60, 64
1, 1446, Note_on_c, 0, 64, 100
1, 1488, Note_off_c, 0, 64, 64
1, 1535, Pitch_bend_c, 0, 8192
1, 1535, Pitch_bend_c, 0, 8192
1, 1535, Control_c, 0, 7, 100
1, 1535, Control_c, 0, 7, 100
1, 1535, Control_c, 0, 10, 64
1, 1535, Control_c, 0, 10, 64
1, 1536, Pitch_bend_c, 0, 8192
1, 1536, Control_c, 0, 6, 12
1, 1536, Control_c, 0, 6, 12
1, 1536, Control_c, 0, 7, 100
1, 1536, Control_c, 0, 10, 64
1, 1536, Control_c, 0, 100, 0
1, 1536, Control_c, 0, 100, 0
1, 1536, Control_c, 0, 101, 0
1, 1536, Control_c, 0, 101, 0
1, 0, Note_on_c, 0, 52, 76
1, 24, Note_off_c, 0, 52, 76
1, 24, Note_on_c, 0, 57, 76
1, 48, Note_off_c, 0, 57, 76
1, 48, Note_on_c, 0, 60, 76
1, 71, Note_off_c, 0, 60, 76
1, 72, Note_on_c, 0, 52, 76
1, 96, Note_off_c, 0, 52, 76
1, 96, Note_on_c, 0, 57, 76
1, 120, Note_off_c, 0, 57, 76
1, 120, Note_on_c, 0, 60, 76
1, 144, Note_on_c, 0, 52, 76
1, 144, Note_off_c, 0, 60, 76
1, 168, Note_off_c, 0, 52, 76
1, 168, Note_on_c, 0, 57, 76
1, 192, Note_on_c, 0, 55, 76
1, 192, Note_off_c, 0, 57, 76
1, 215, Note_off_c, 0, 55, 76
1, 216, Note_on_c, 0, 59, 76
1, 239, Note_off_c, 0, 59, 76
1, 240, Note_on_c, 0, 62, 76
1, 264, Note_on_c, 0, 55, 76
1, 264, Note_off_c, 0, 62, 76
1, 288, Note_off_c, 0, 55, 76
1, 288, Note_on_c, 0, 59, 76
1, 312, Note_off_c, 0, 59, 76
1, 312, Note_on_c, 0, 62, 76
1, 336, Note_on_c, 0, 55, 76
1, 336, Note_off_c, 0, 62, 76
1, 360, Note_off_c, 0, 55, 76
1, 360, Note_on_c, 0, 59, 76
1, 384, Note_on_c, 0, 50, 76
1, 384, Note_off_c, 0, 59, 76
1, 407, Note_off_c, 0, 50, 76
1, 408, Note_on_c, 0, 55, 76
1, 432, Note_off_c, 0, 55, 76
1, 432, Note_on_c, 0, 59, 76
1, 456, Note_on_c, 0, 50, 76
1, 456, Note_off_c, 0, 59, 76
1, 480, Note_off_c, 0, 50, 76
1, 480, Note_on_c, 0, 55, 76
1, 504, Note_off_c, 0, 55, 76
1, 504, Note_on_c, 0, 59, 76
1, 528, Note_on_c, 0, 50, 76
1, 528, Note_off_c, 0, 59, 76
1, 552, Note_off_c, 0, 50, 76
1, 552, Note_on_c, 0, 55, 76
1, 576, Note_off_c, 0, 55, 76
1, 576, Note_on_c, 0, 55, 76
1, 600, Note_off_c, 0, 55, 76
1, 600, Note_on_c, 0, 59, 76
1, 624, Note_off_c, 0, 59, 76
1, 624, Note_on_c, 0, 62, 76
1, 648, Note_on_c, 0, 55, 76
1, 648, Note_off_c, 0, 62, 76
1, 672, Note_off_c, 0, 55, 76
1, 672, Note_on_c, 0, 59, 76
1, 696, Note_off_c, 0, 59, 76
1, 696, Note_on_c, 0, 62, 76
1, 720, Note_on_c, 0, 55, 76
1, 720, Note_off_c, 0, 62, 76
1, 744, Note_off_c, 0, 55, 76
1, 744, Note_on_c, 0, 59, 76
1, 768, Note_on_c, 0, 50, 76
1, 768, Note_off_c, 0, 59, 76
1, 792, Note_off_c, 0, 50, 76
1, 792, Note_on_c, 0, 55, 76
1, 816, Note_off_c, 0, 55, 76
1, 816, Note_on_c, 0, 59, 76
1, 840, Note_on_c, 0, 50, 76
1, 840, Note_off_c, 0, 59, 76
1, 864, Note_off_c, 0, 50, 76
1, 864, Note_on_c, 0, 55, 76
1, 888, Note_off_c, 0, 55, 76
1, 888, Note_on_c, 0, 59, 76
1, 912, Note_on_c, 0, 50, 76
1, 912, Note_off_c, 0, 59, 76
1, 936, Note_off_c, 0, 50, 76
1, 936, Note_on_c, 0, 55, 76
1, 960, Note_on_c, 0, 53, 76
1, 960, Note_off_c, 0, 55, 76
1, 984, Note_off_c, 0, 53, 76
1, 984, Note_on_c, 0, 57, 76
1, 1007, Note_off_c, 0, 57, 76
1, 1007, Note_on_c, 0, 60, 76
1, 1032, Note_on_c, 0, 53, 76
1, 1032, Note_off_c, 0, 60, 76
1, 1056, Note_off_c, 0, 53, 76
1, 1056, Note_on_c, 0, 57, 76
1, 1080, Note_off_c, 0, 57, 76
1, 1080, Note_on_c, 0, 60, 76
1, 1104, Note_on_c, 0, 53, 76
1, 1104, Note_off_c, 0, 60, 76
1, 1128, Note_off_c, 0, 53, 76
1, 1128, Note_on_c, 0, 57, 76
1, 1151, Note_off_c, 0, 57, 76
1, 1152, Note_on_c, 0, 55, 76
1, 1175, Note_off_c, 0, 55, 76
1, 1176, Note_on_c, 0, 60, 76
1, 1199, Note_off_c, 0, 60, 76
1, 1200, Note_on_c, 0, 64, 76
1, 1223, Note_off_c, 0, 64, 76
1, 1224, Note_on_c, 0, 55, 76
1, 1248, Note_off_c, 0, 55, 76
1, 1248, Note_on_c, 0, 60, 76
1, 1272, Note_off_c, 0, 60, 76
1, 1272, Note_on_c, 0, 64, 76
1, 1296, Note_on_c, 0, 55, 76
1, 1296, Note_off_c, 0, 64, 76
1, 1320, Note_off_c, 0, 55, 76
1, 1320, Note_on_c, 0, 60, 76
1, 1344, Note_on_c, 0, 57, 76
1, 1344, Note_off_c, 0, 60, 76
1, 1368, Note_off_c, 0, 57, 76
1, 1368, Note_on_c, 0, 62, 76
1, 1391, Note_on_c, 0, 64, 76
1, 1392, Note_off_c, 0, 62, 76
1, 1415, Note_on_c, 0, 57, 76
1, 1416, Note_off_c, 0, 64, 76
1, 1439, Note_off_c, 0, 57, 76
1, 1439, Note_on_c, 0, 60, 76
1, 1463, Note_off_c, 0, 60, 76
1, 1463, Note_on_c, 0, 64, 76
1, 1487, Note_on_c, 0, 57, 76
1, 1487, Note_off_c, 0, 64, 76
1, 1511, Note_on_c, 0, 48, 76
1, 1511, Note_off_c, 0, 57, 76
1, 1535, Note_off_c, 0, 48, 76
1, 0, Note_on_c, 0, 45, 100
1, 24, Note_off_c, 0, 45, 100
1, 24, Note_on_c, 0, 52, 64
1, 48, Note_off_c, 0, 52, 64
1, 48, Note_on_c, 0, 64, 88
1, 72, Note_off_c, 0, 64, 88
1, 72, Note_on_c, 0, 76, 64
1, 96, Note_on_c, 0, 45, 100
1, 96, Note_off_c, 0, 76, 64
1, 120, Note_off_c, 0, 45, 100
1, 120, Note_on_c, 0, 52, 64
1, 144, Note_off_c, 0, 52, 64
1, 144, Note_on_c, 0, 64, 88
1, 168, Note_off_c, 0, 64, 88
1, 168, Note_on_c, 0, 76, 64
1, 192, Note_on_c, 0, 45, 100
1, 192, Note_off_c, 0, 76, 64
1, 216, Note_off_c, 0, 45, 100
1, 216, Note_on_c, 0, 52, 64
1, 240, Note_off_c, 0, 52, 64
1, 240, Note_on_c, 0, 64, 88
1, 264, Note_off_c, 0, 64, 88
1, 264, Note_on_c, 0, 76, 64
1, 288, Note_on_c, 0, 45, 100
1, 288, Note_off_c, 0, 76, 64
1, 312, Note_off_c, 0, 45, 100
1, 312, Note_on_c, 0, 52, 64
1, 336, Note_off_c, 0, 52, 64
1, 336, Note_on_c, 0, 64, 88
1, 360, Note_off_c, 0, 64, 88
1, 360, Note_on_c, 0, 76, 64
1, 384, Note_on_c, 0, 48, 100
1, 384, Note_off_c, 0, 76, 64
1, 408, Note_off_c, 0, 48, 100
1, 408, Note_on_c, 0, 57, 64
1, 432, Note_off_c, 0, 57, 64
1, 432, Note_on_c, 0, 67, 88
1, 456, Note_off_c, 0, 67, 88
1, 456, Note_on_c, 0, 79, 64
1, 480, Note_on_c, 0, 48, 100
1, 480, Note_off_c, 0, 79, 64
1, 504, Note_off_c, 0, 48, 100
1, 504, Note_on_c, 0, 57, 64
1, 528, Note_off_c, 0, 57, 64
1, 528, Note_on_c, 0, 67, 88
1, 552, Note_off_c, 0, 67, 88
1, 552, Note_on_c, 0, 79, 64
1, 576, Note_on_c, 0, 48, 100
1, 576, Note_off_c, 0, 79, 64
1, 600, Note_off_c, 0, 48, 100
1, 600, Note_on_c, 0, 57, 64
1, 624, Note_off_c, 0, 57, 64
1, 624, Note_on_c, 0, 67, 88
1, 648, Note_off_c, 0, 67, 88
1, 648, Note_on_c, 0, 79, 64
1, 672, Note_on_c, 0, 48, 100
1, 672, Note_off_c, 0, 79, 64
1, 696, Note_off_c, 0, 48, 100
1, 696, Note_on_c, 0, 57, 64
1, 720, Note_off_c, 0, 57, 64
1, 720, Note_on_c, 0, 67, 88
1, 744, Note_off_c, 0, 67, 88
1, 744, Note_on_c, 0, 79, 64
1, 768, Note_on_c, 0, 43, 100
1, 768, Note_off_c, 0, 79, 64
1, 792, Note_off_c, 0, 43, 100
1, 792, Note_on_c, 0, 52, 64
1, 816, Note_off_c, 0, 52, 64
1, 816, Note_on_c, 0, 67, 88
1, 840, Note_off_c, 0, 67, 88
1, 840, Note_on_c, 0, 74, 64
1, 864, Note_on_c, 0, 43, 100
1, 864, Note_off_c, 0, 74, 64
1, 888, Note_off_c, 0, 43, 100
1, 888, Note_on_c, 0, 52, 64
1, 912, Note_off_c, 0, 52, 64
1, 912, Note_on_c, 0, 67, 88
1, 936, Note_off_c, 0, 67, 88
1, 936, Note_on_c, 0, 74, 64
1, 960, Note_on_c, 0, 43, 100
1, 960, Note_off_c, 0, 74, 64
1, 984, Note_off_c, 0, 43, 100
1, 984, Note_on_c, 0, 52, 64
1, 1008, Note_off_c, 0, 52, 64
1, 1008, Note_on_c, 0, 67, 88
1, 1032, Note_off_c, 0, 67, 88
1, 1032, Note_on_c, 0, 74, 64
1, 1056, Note_on_c, 0, 43, 100
1, 1056, Note_off_c, 0, 74, 64
1, 1080, Note_off_c, 0, 43, 100
1, 1080, Note_on_c, 0, 52, 64
1, 1104, Note_off_c, 0, 52, 64
1, 1104, Note_on_c, 0, 67, 88
1, 1128, Note_off_c, 0, 67, 88
1, 1128, Note_on_c, 0, 74, 64
1, 1152, Note_on_c, 0, 53, 100
1, 1152, Note_off_c, 0, 74, 64
1, 1176, Note_off_c, 0, 53, 100
1, 1176, Note_on_c, 0, 57, 64
1, 1200, Note_off_c, 0, 57, 64
1, 1200, Note_on_c, 0, 74, 88
1, 1224, Note_off_c, 0, 74, 88
1, 1224, Note_on_c, 0, 81, 64
1, 1248, Note_on_c, 0, 53, 100
1, 1248, Note_off_c, 0, 81, 64
1, 1272, Note_off_c, 0, 53, 100
1, 1272, Note_on_c, 0, 57, 64
1, 1296, Note_off_c, 0, 57, 64
1, 1296, Note_on_c, 0, 74, 88
1, 1320, Note_off_c, 0, 74, 88
1, 1320, Note_on_c, 0, 81, 64
1, 1344, Note_on_c, 0, 53, 100
1, 1344, Note_off_c, 0, 81, 64
1, 1368, Note_off_c, 0, 53, 100
1, 1368, Note_on_c, 0, 57, 64
1, 1392, Note_off_c, 0, 57, 64
1, 1392, Note_on_c, 0, 74, 88
1, 1416, Note_off_c, 0, 74, 88
1, 1416, Note_on_c, 0, 81, 64
1, 1440, Note_on_c, 0, 53, 100
1, 1440, Note_off_c, 0, 81, 64
1, 1464, Note_off_c, 0, 53, 100
1, 1464, Note_on_c, 0, 57, 64
1, 1488, Note_off_c, 0, 57, 64
1, 1488, Note_on_c, 0, 74, 88
1, 1512, Note_off_c, 0, 74, 88
1, 1512, Note_on_c, 0, 81, 64
1, 1536, Note_off_c, 0, 81, 64
1, 0, Pitch_bend_c, 0, 8192
1, 0, Control_c, 0, 6, 12
1, 0, Control_c, 0, 7, 100
1, 0, Control_c, 0, 10, 64
1, 0, Control_c, 0, 100, 0
1, 0, Control_c, 0, 101, 0
1, 0, Note_on_c, 0, 55, 100
1, 48, Note_off_c, 0, 55, 64
1, 48, Note_on_c, 0, 60, 100
1, 96, Note_off_c, 0, 60, 64
1, 96, Note_on_c, 0, 64, 100
1, 144, Note_off_c, 0, 64, 64
1, 144, Note_on_c, 0, 67, 100
1, 240, Note_off_c, 0, 67, 64
1, 288, Note_on_c, 0, 64, 100
1, 384, Note_on_c, 0, 50, 100
1, 384, Note_off_c, 0, 64, 64
1, 432, Note_off_c, 0, 50, 64
1, 432, Note_on_c, 0, 55, 100
1, 480, Note_off_c, 0, 55, 64
1, 480, Note_on_c, 0, 60, 100
1, 528, Note_off_c, 0, 60, 64
1, 528, Note_on_c, 0, 62, 100
1, 624, Note_off_c, 0, 62, 64
1, 672, Note_on_c, 0, 60, 100
1, 767, Pitch_bend_c, 0, 8192
1, 767, Pitch_bend_c, 0, 8192
1, 767, Control_c, 0, 7, 100
1, 767, Control_c, 0, 7, 100
1, 767, Control_c, 0, 10, 64
1, 767, Control_c, 0, 10, 64
1, 768, Pitch_bend_c, 0, 8192
1, 768, Control_c, 0, 6, 12
1, 768, Control_c, 0, 6, 12
1, 768, Control_c, 0, 7, 100
1, 768, Control_c, 0, 10, 64
1, 768, Control_c, 0, 100, 0
1, 768, Control_c, 0, 100, 0
1, 768, Control_c, 0, 101, 0
1, 768, Control_c, 0, 101, 0
1, 768, Note_on_c, 0, 55, 100
1, 768, Note_off_c, 0, 60, 64
1, 816, Note_off_c, 0, 55, 64
1, 816, Note_on_c, 0, 60, 100
1, 864, Note_off_c, 0, 60, 64
1, 864, Note_on_c, 0, 64, 100
1, 912, Note_off_c, 0, 64, 64
1, 912, Note_on_c, 0, 67, 100
1, 1008, Note_off_c, 0, 67, 64
1, 1056, Note_on_c, 0, 64, 100
1, 1104, Note_on_c, 0, 50, 100
1, 1104, Note_off_c, 0, 64, 64
1, 1152, Note_off_c, 0, 50, 64
1, 1152, Note_on_c, 0, 52, 100
1, 1200, Note_off_c, 0, 52, 64
1, 1200, Note_on_c, 0, 55, 100
1, 1248, Note_off_c, 0, 55, 64
1, 1248, Note_on_c, 0, 60, 100
1, 1296, Note_off_c, 0, 60, 64
1, 1296, Note_on_c, 0, 62, 100
1, 1392, Note_off_c, 0, 62, 64
1, 1440, Note_on_c, 0, 64, 100
1, 1534, Note_off_c, 0, 64, 64
1, 0, Program_c, 0, 0
1, 0, Pitch_bend_c, 0, 8192
1, 0, Control_c, 0, 6, 12
1, 0, Control_c, 0, 7, 100
1, 0, Control_c, 0, 10, 64
1, 0, Control_c, 0, 100, 0
1, 0, Control_c, 0, 101, 0
1, 0, Note_on_c, 0, 57, 78
1, 0, Note_on_c, 0, 64, 79
1, 48, Note_off_c, 0, 57, 64
1, 48, Note_on_c, 0, 57, 78
1, 48, Note_off_c, 0, 64, 64
1, 48, Note_on_c, 0, 64, 79
1, 96, Note_off_c, 0, 57, 64
1, 96, Note_on_c, 0, 57, 78
1, 96, Note_off_c, 0, 64, 64
1, 96, Note_on_c, 0, 64, 79
1, 144, Note_off_c, 0, 57, 64
1, 144, Note_on_c, 0, 57, 77
1, 144, Note_off_c, 0, 64, 64
1, 144, Note_on_c, 0, 64, 79
1, 192, Note_off_c, 0, 57, 64
1, 192, Note_on_c, 0, 57, 78
1, 192, Note_off_c, 0, 64, 64
1, 192, Note_on_c, 0, 64, 79
1, 240, Note_off_c, 0, 57, 64
1, 240, Note_on_c, 0, 57, 77
1, 240, Note_off_c, 0, 64, 64
1, 240, Note_on_c, 0, 64, 79
1, 288, Note_off_c, 0, 57, 64
1, 288, Note_on_c, 0, 57, 78
1, 288, Note_off_c, 0, 64, 64
1, 288, Note_on_c, 0, 64, 79
1, 336, Note_on_c, 0, 53, 78
1, 336, Note_off_c, 0, 57, 64
1, 336, Note_on_c, 0, 62, 79
1, 336, Note_off_c, 0, 64, 64
1, 384, Note_off_c, 0, 53, 64
1, 384, Note_on_c, 0, 53, 78
1, 384, Note_on_c, 0, 60, 78
1, 384, Note_off_c, 0, 62, 64
1, 432, Note_off_c, 0, 53, 64
1, 432, Note_on_c, 0, 53, 79
1, 432, Note_off_c, 0, 60, 64
1, 432, Note_on_c, 0, 60, 78
1, 480, Note_off_c, 0, 53, 64
1, 480, Note_on_c, 0, 53, 79
1, 480, Note_off_c, 0, 60, 64
1, 480, Note_on_c, 0, 60, 78
1, 528, Note_off_c, 0, 53, 64
1, 528, Note_on_c, 0, 53, 79
1, 528, Note_off_c, 0, 60, 64
1, 528, Note_on_c, 0, 60, 78
1, 576, Note_off_c, 0, 53, 64
1, 576, Note_on_c, 0, 53, 79
1, 576, Note_off_c, 0, 60, 64
1, 576, Note_on_c, 0, 60, 78
1, 624, Note_off_c, 0, 53, 64
1, 624, Note_on_c, 0, 53, 79
1, 624, Note_off_c, 0, 60, 64
1, 624, Note_on_c, 0, 60, 78
1, 672, Note_off_c, 0, 53, 64
1, 672, Note_on_c, 0, 53, 79
1, 672, Note_off_c, 0, 60, 64
1, 672, Note_on_c, 0, 60, 78
1, 720, Note_off_c, 0, 53, 64
1, 720, Note_on_c, 0, 55, 80
1, 720, Note_off_c, 0, 60, 64
1, 720, Note_on_c, 0, 62, 78
1, 768, Note_on_c, 0, 50, 79
1, 768, Note_off_c, 0, 55, 64
1, 768, Note_on_c, 0, 57, 78
1, 768, Note_off_c, 0, 62, 64
1, 816, Note_off_c, 0, 50, 64
1, 816, Note_on_c, 0, 50, 78
1, 816, Note_off_c, 0, 57, 64
1, 816, Note_on_c, 0, 57, 78
1, 864, Note_off_c, 0, 50, 64
1, 864, Note_on_c, 0, 50, 78
1, 864, Note_off_c, 0, 57, 64
1, 864, Note_on_c, 0, 57, 78
1, 912, Note_off_c, 0, 50, 64
1, 912, Note_on_c, 0, 50, 78
1, 912, Note_off_c, 0, 57, 64
1, 912, Note_on_c, 0, 57, 78
1, 960, Note_off_c, 0, 50, 64
1, 960, Note_on_c, 0, 50, 78
1, 960, Note_off_c, 0, 57, 64
1, 960, Note_on_c, 0, 57, 78
1, 1008, Note_off_c, 0, 50, 64
1, 1008, Note_on_c, 0, 50, 78
1, 1008, Note_off_c, 0, 57, 64
1, 1008, Note_on_c, 0, 57, 78
1, 1056, Note_off_c, 0, 50, 64
1, 1056, Note_on_c, 0, 50, 79
1, 1056, Note_off_c, 0, 57, 64
1, 1056, Note_on_c, 0, 57, 78
1, 1104, Note_off_c, 0, 50, 64
1, 1104, Note_on_c, 0, 50, 79
1, 1104, Note_off_c, 0, 57, 64
1, 1104, Note_on_c, 0, 57, 78
1, 1152, Note_off_c, 0, 50, 64
1, 1152, Note_on_c, 0, 50, 77
1, 1152, Note_off_c, 0, 57, 64
1, 1152, Note_on_c, 0, 57, 78
1, 1200, Note_off_c, 0, 50, 64
1, 1200, Note_on_c, 0, 50, 77
1, 1200, Note_off_c, 0, 57, 64
1, 1200, Note_on_c, 0, 57, 78
1, 1248, Note_off_c, 0, 50, 64
1, 1248, Note_on_c, 0, 50, 77
1, 1248, Note_off_c, 0, 57, 64
1, 1248, Note_on_c, 0, 57, 78
1, 1296, Note_off_c, 0, 50, 64
1, 1296, Note_on_c, 0, 50, 77
1, 1296, Note_off_c, 0, 57, 64
1, 1296, Note_on_c, 0, 57, 78
1, 1344, Note_off_c, 0, 50, 64
1, 1344, Note_off_c, 0, 57, 64
1, 1344, Note_on_c, 0, 60, 79
1, 1344, Note_on_c, 0, 65, 78
1, 1392, Note_off_c, 0, 60, 64
1, 1392, Note_on_c, 0, 60, 79
1, 1392, Note_off_c, 0, 65, 64
1, 1392, Note_on_c, 0, 65, 78
1, 1440, Note_off_c, 0, 60, 64
1, 1440, Note_on_c, 0, 60, 79
1, 1440, Note_off_c, 0, 65, 64
1, 1440, Note_on_c, 0, 65, 78
1, 1488, Note_on_c, 0, 59, 79
1, 1488, Note_off_c, 0, 60, 64
1, 1488, Note_on_c, 0, 62, 78
1, 1488, Note_off_c, 0, 65, 64
1, 1535, Note_off_c, 0, 59, 64
1, 1535, Note_off_c, 0, 62, 64
1, 1536, Pitch_bend_c, 0, 8192
1, 1536, Pitch_bend_c, 0, 8192
1, 1536, Control_c, 0, 6, 12
1, 1536, Control_c, 0, 6, 12
1, 1536, Control_c, 0, 7, 100
1, 1536, Control_c, 0, 7, 100
1, 1536, Control_c, 0, 10, 64
1, 1536, Control_c, 0, 10, 64
1, 1536, Control_c, 0, 100, 0
1, 1536, Control_c, 0, 100, 0
1, 1536, Control_c, 0, 101, 0
1, 1536, Control_c, 0, 101, 0
1, 0, Control_c, 0, 1, 70
1, 0, Note_on_c, 0, 45, 77
1, 32, Note_off_c, 0, 45, 77
1, 32, Note_on_c, 0, 48, 68
1, 63, Note_off_c, 0, 48, 68
1, 63, Note_on_c, 0, 55, 67
1, 96, Note_on_c, 0, 52, 72
1, 96, Note_off_c, 0, 55, 67
1, 128, Note_on_c, 0, 45, 66
1, 128, Note_off_c, 0, 52, 72
1, 159, Note_off_c, 0, 45, 66
1, 159, Note_on_c, 0, 48, 65
1, 192, Note_off_c, 0, 48, 65
1, 192, Note_on_c, 0, 55, 71
1, 223, Note_on_c, 0, 52, 67
1, 224, Note_off_c, 0, 55, 71
1, 255, Note_on_c, 0, 45, 66
1, 255, Note_off_c, 0, 52, 67
1, 287, Note_off_c, 0, 45, 66
1, 287, Note_on_c, 0, 48, 65
1, 319, Note_off_c, 0, 48, 65
1, 319, Note_on_c, 0, 55, 67
1, 351, Note_on_c, 0, 52, 68
1, 351, Note_off_c, 0, 55, 67
1, 383, Note_off_c, 0, 52, 68
1, 384, Note_on_c, 0, 45, 78
1, 416, Note_off_c, 0, 45, 78
1, 416, Note_on_c, 0, 48, 68
1, 447, Note_off_c, 0, 48, 68
1, 447, Note_on_c, 0, 53, 65
1, 479, Note_off_c, 0, 53, 65
1, 480, Note_on_c, 0, 52, 72
1, 512, Note_on_c, 0, 45, 65
1, 512, Note_off_c, 0, 52, 72
1, 543, Note_off_c, 0, 45, 65
1, 543, Note_on_c, 0, 48, 67
1, 576, Note_off_c, 0, 48, 67
1, 576, Note_on_c, 0, 53, 72
1, 607, Note_on_c, 0, 52, 65
1, 608, Note_off_c, 0, 53, 72
1, 639, Note_on_c, 0, 45, 65
1, 639, Note_off_c, 0, 52, 65
1, 671, Note_off_c, 0, 45, 65
1, 672, Note_on_c, 0, 48, 67
1, 703, Note_on_c, 0, 53, 67
1, 704, Note_off_c, 0, 48, 67
1, 735, Note_on_c, 0, 52, 66
1, 735, Note_off_c, 0, 53, 67
1, 767, Note_off_c, 0, 52, 66
1, 768, Note_on_c, 0, 47, 76
1, 799, Note_on_c, 0, 48, 65
1, 800, Note_off_c, 0, 47, 76
1, 831, Note_off_c, 0, 48, 65
1, 831, Note_on_c, 0, 55, 68
1, 864, Note_on_c, 0, 52, 72
1, 864, Note_off_c, 0, 55, 68
1, 895, Note_on_c, 0, 47, 66
1, 896, Note_off_c, 0, 52, 72
1, 927, Note_off_c, 0, 47, 66
1, 927, Note_on_c, 0, 48, 65
1, 960, Note_off_c, 0, 48, 65
1, 960, Note_on_c, 0, 55, 73
1, 991, Note_on_c, 0, 52, 67
1, 992, Note_off_c, 0, 55, 73
1, 1023, Note_on_c, 0, 47, 65
1, 1023, Note_off_c, 0, 52, 67
1, 1055, Note_off_c, 0, 47, 65
1, 1056, Note_on_c, 0, 48, 67
1, 1087, Note_on_c, 0, 55, 69
1, 1088, Note_off_c, 0, 48, 67
1, 1119, Note_on_c, 0, 52, 67
1, 1119, Note_off_c, 0, 55, 69
1, 1151, Note_off_c, 0, 52, 67
1, 1152, Note_on_c, 0, 47, 74
1, 1183, Note_on_c, 0, 50, 68
1, 1184, Note_off_c, 0, 47, 74
1, 1215, Note_off_c, 0, 50, 68
1, 1215, Note_on_c, 0, 55, 67
1, 1248, Note_on_c, 0, 54, 68
1, 1248, Note_off_c, 0, 55, 67
1, 1279, Note_on_c, 0, 47, 69
1, 1280, Note_off_c, 0, 54, 68
1, 1311, Note_off_c, 0, 47, 69
1, 1311, Note_on_c, 0, 50, 65
1, 1344, Note_off_c, 0, 50, 65
1, 1344, Note_on_c, 0, 55, 74
1, 1375, Note_on_c, 0, 54, 69
1, 1376, Note_off_c, 0, 55, 74
1, 1407, Note_on_c, 0, 47, 67
1, 1407, Note_off_c, 0, 54, 69
1, 1439, Note_off_c, 0, 47, 67
1, 1440, Note_on_c, 0, 50, 67
1, 1471, Note_on_c, 0, 55, 69
1, 1472, Note_off_c, 0, 50, 67
1, 1503, Note_on_c, 0, 54, 67
1, 1503, Note_off_c, 0, 55, 69
1, 1535, Note_off_c, 0, 54, 67
1, 0, Pitch_bend_c, 0, 8192
1, 0, Control_c, 0, 6, 12
1, 0, Control_c, 0, 7, 100
1, 0, Control_c, 0, 10, 64
1, 0, Control_c, 0, 100, 0
1, 0, Control_c, 0, 101, 0
1, 0, Note_on_c, 0, 64, 77
1, 5, Note_on_c, 0, 69, 100
1, 48, Note_off_c, 0, 64, 64
1, 48, Note_off_c, 0, 69, 64
1, 48, Note_on_c, 0, 72, 100
1, 96, Note_off_c, 0, 72, 64
1, 96, Note_on_c, 0, 76, 100
1, 144, Note_off_c, 0, 76, 64
1, 144, Note_on_c, 0, 79, 100
1, 192, Note_on_c, 0, 60, 77
1, 192, Note_off_c, 0, 79, 64
1, 197, Note_on_c, 0, 69, 100
1, 240, Note_off_c, 0, 60, 64
1, 240, Note_off_c, 0, 69, 64
1, 240, Note_on_c, 0, 72, 100
1, 288, Note_off_c, 0, 72, 64
1, 288, Note_on_c, 0, 76, 100
1, 336, Note_off_c, 0, 76, 64
1, 336, Note_on_c, 0, 81, 100
1, 384, Note_on_c, 0, 64, 77
1, 384, Note_off_c, 0, 81, 64
1, 389, Note_on_c, 0, 79, 100
1, 432, Note_off_c, 0, 64, 64
1, 432, Note_on_c, 0, 76, 100
1, 432, Note_off_c, 0, 79, 64
1, 480, Note_on_c, 0, 72, 100
1, 480, Note_off_c, 0, 76, 64
1, 528, Note_on_c, 0, 67, 100
1, 528, Note_off_c, 0, 72, 64
1, 576, Note_off_c, 0, 67, 64
1, 576, Note_on_c, 0, 71, 100
1, 581, Note_on_c, 0, 79, 100
1, 624, Note_off_c, 0, 71, 64
1, 624, Note_on_c, 0, 76, 100
1, 624, Note_off_c, 0, 79, 64
1, 672, Note_on_c, 0, 72, 100
1, 672, Note_off_c, 0, 76, 64
1, 720, Note_on_c, 0, 71, 100
1, 720, Note_off_c, 0, 72, 64
1, 768, Note_on_c, 0, 64, 77
1, 768, Note_off_c, 0, 71, 64
1, 773, Note_on_c, 0, 69, 100
1, 816, Note_off_c, 0, 64, 64
1, 816, Note_off_c, 0, 69, 64
1, 816, Note_on_c, 0, 72, 100
1, 864, Note_off_c, 0, 72, 64
1, 864, Note_on_c, 0, 76, 100
1, 912, Note_off_c, 0, 76, 64
1, 912, Note_on_c, 0, 79, 100
1, 960, Note_on_c, 0, 60, 77
1, 960, Note_off_c, 0, 79, 64
1, 965, Note_on_c, 0, 69, 100
1, 1008, Note_off_c, 0, 60, 64
1, 1008, Note_off_c, 0, 69, 64
1, 1008, Note_on_c, 0, 72, 100
1, 1056, Note_off_c, 0, 72, 64
1, 1056, Note_on_c, 0, 76, 100
1, 1104, Note_off_c, 0, 76, 64
1, 1104, Note_on_c, 0, 81, 100
1, 1152, Note_on_c, 0, 64, 77
1, 1152, Note_off_c, 0, 81, 64
1, 1157, Note_on_c, 0, 79, 100
1, 1200, Note_off_c, 0, 64, 64
1, 1200, Note_on_c, 0, 76, 100
1, 1200, Note_off_c, 0, 79, 64
1, 1248, Note_on_c, 0, 72, 100
1, 1248, Note_off_c, 0, 76, 64
1, 1296, Note_on_c, 0, 67, 100
1, 1296, Note_off_c, 0, 72, 64
1, 1344, Note_off_c, 0, 67, 64
1, 1344, Note_on_c, 0, 71, 100
1, 1349, Note_on_c, 0, 79, 100
1, 1356, Note_on_c, 0, 84, 77
1, 1392, Note_off_c, 0, 71, 64
1, 1392, Note_on_c, 0, 76, 100
1, 1392, Note_off_c, 0, 79, 64
1, 1392, Note_off_c, 0, 84, 64
1, 1393, Note_on_c, 0, 83, 77
1, 1436, Note_off_c, 0, 83, 64
1, 1440, Note_off_c, 0, 76, 64
1, 1440, Note_on_c, 0, 81, 77
1, 1445, Note_on_c, 0, 72, 100
1, 1483, Note_off_c, 0, 81, 64
1, 1488, Note_on_c, 0, 71, 100
1, 1491, Note_on_c, 0, 79, 77
1, 1493, Note_off_c, 0, 72, 64
1, 1534, Note_off_c, 0, 79, 64
1, 1535, Pitch_bend_c, 0, 8192
1, 1535, Pitch_bend_c, 0, 8192
1, 1535, Control_c, 0, 7, 100
1, 1535, Control_c, 0, 7, 100
1, 1535, Control_c, 0, 10, 64
1, 1535, Control_c, 0, 10, 64
1, 1535, Note_off_c, 0, 71, 64
1, 1536, Pitch_bend_c, 0, 8192
1, 1536, Control_c, 0, 6, 12
1, 1536, Control_c, 0, 6, 12
1, 1536, Control_c, 0, 7, 100
1, 1536, Control_c, 0, 10, 64
1, 1536, Control_c, 0, 100, 0
1, 1536, Control_c, 0, 100, 0
1, 1536, Control_c, 0, 101, 0
1, 1536, Control_c, 0, 101, 0
1, 0, Note_on_c, 0, 72, 67
1, 48, Note_off_c, 0, 72, 67
1, 48, Note_on_c, 0, 77, 37
1, 96, Note_off_c, 0, 77, 37
1, 96, Note_on_c, 0, 86, 51
1, 144, Note_off_c, 0, 86, 51
1, 144, Note_on_c, 0, 89, 44
1, 182, Note_off_c, 0, 89, 44
1, 192, Note_on_c, 0, 93, 64
1, 240, Note_on_c, 0, 89, 75
1, 240, Note_off_c, 0, 93, 64
1, 288, Note_on_c, 0, 86, 46
1, 288, Note_off_c, 0, 89, 75
1, 336, Note_on_c, 0, 74, 40
1, 376, Note_off_c, 0, 74, 40
1, 377, Note_off_c, 0, 86, 46
1, 384, Note_on_c, 0, 74, 60
1, 432, Note_off_c, 0, 74, 60
1, 432, Note_on_c, 0, 86, 36
1, 474, Note_off_c, 0, 86, 36
1, 480, Note_on_c, 0, 96, 52
1, 504, Note_on_c, 0, 98, 64
1, 522, Note_off_c, 0, 96, 52
1, 528, Note_on_c, 0, 103, 52
1, 546, Note_off_c, 0, 103, 52
1, 551, Note_off_c, 0, 98, 64
1, 552, Note_on_c, 0, 86, 24
1, 576, Note_on_c, 0, 77, 48
1, 576, Note_off_c, 0, 86, 24
1, 576, Note_on_c, 0, 96, 64
1, 623, Note_off_c, 0, 96, 64
1, 624, Note_on_c, 0, 93, 50
1, 672, Note_on_c, 0, 89, 53
1, 672, Note_off_c, 0, 93, 50
1, 672, Note_off_c, 0, 77, 48
1, 711, Note_off_c, 0, 89, 53
1, 720, Note_on_c, 0, 84, 46
1, 753, Note_off_c, 0, 84, 46
1, 768, Note_on_c, 0, 69, 72
1, 816, Note_on_c, 0, 76, 54
1, 821, Note_off_c, 0, 69, 72
1, 863, Note_off_c, 0, 76, 54
1, 864, Note_on_c, 0, 83, 49
1, 912, Note_off_c, 0, 83, 49
1, 912, Note_on_c, 0, 84, 41
1, 956, Note_off_c, 0, 84, 41
1, 960, Note_on_c, 0, 93, 49
1, 1008, Note_on_c, 0, 89, 44
1, 1008, Note_off_c, 0, 93, 49
1, 1056, Note_on_c, 0, 84, 43
1, 1056, Note_off_c, 0, 89, 44
1, 1095, Note_off_c, 0, 84, 43
1, 1104, Note_on_c, 0, 69, 40
1, 1149, Note_off_c, 0, 69, 40
1, 1152, Note_on_c, 0, 69, 65
1, 1200, Note_on_c, 0, 76, 47
1, 1224, Note_on_c, 0, 84, 34
1, 1248, Note_on_c, 0, 88, 54
1, 1261, Note_off_c, 0, 84, 34
1, 1272, Note_off_c, 0, 88, 54
1, 1272, Note_on_c, 0, 91, 51
1, 1296, Note_on_c, 0, 81, 50
1, 1296, Note_off_c, 0, 91, 51
1, 1320, Note_off_c, 0, 81, 50
1, 1320, Note_on_c, 0, 84, 46
1, 1338, Note_off_c, 0, 69, 65
1, 1342, Note_off_c, 0, 76, 47
1, 1344, Note_on_c, 0, 81, 55
1, 1344, Note_off_c, 0, 84, 46
1, 1392, Note_on_c, 0, 91, 43
1, 1435, Note_off_c, 0, 81, 55
1, 1440, Note_on_c, 0, 93, 44
1, 1464, Note_on_c, 0, 95, 66
1, 1484, Note_off_c, 0, 93, 44
1, 1488, Note_on_c, 0, 83, 43
1, 1488, Note_off_c, 0, 95, 66
1, 1518, Note_off_c, 0, 83, 43
1, 1536, Note_off_c, 0, 91, 43
1, 0, Note_on_c, 0, 57, 57
1, 24, Note_off_c, 0, 57, 57
1, 24, Note_on_c, 0, 64, 65
1, 48, Note_off_c, 0, 64, 65
1, 48, Note_on_c, 0, 71, 65
1, 72, Note_off_c, 0, 71, 65
1, 72, Note_on_c, 0, 72, 60
1, 96, Note_on_c, 0, 76, 79
1, 120, Note_on_c, 0, 79, 81
1, 223, Note_off_c, 0, 72, 60
1, 224, Note_off_c, 0, 79, 81
1, 225, Note_off_c, 0, 76, 79
1, 288, Note_on_c, 0, 72, 83
1, 316, Note_off_c, 0, 72, 83
1, 384, Note_on_c, 0, 47, 46
1, 408, Note_off_c, 0, 47, 46
1, 408, Note_on_c, 0, 53, 68
1, 432, Note_off_c, 0, 53, 68
1, 432, Note_on_c, 0, 57, 50
1, 456, Note_off_c, 0, 57, 50
1, 456, Note_on_c, 0, 62, 74
1, 480, Note_on_c, 0, 65, 80
1, 504, Note_on_c, 0, 69, 81
1, 670, Note_off_c, 0, 62, 74
1, 675, Note_off_c, 0, 69, 81
1, 676, Note_off_c, 0, 65, 80
1, 720, Note_on_c, 0, 62, 45
1, 733, Note_off_c, 0, 62, 45
1, 744, Note_on_c, 0, 57, 61
1, 761, Note_off_c, 0, 57, 61
1, 768, Note_on_c, 0, 52, 73
1, 792, Note_off_c, 0, 52, 73
1, 792, Note_on_c, 0, 59, 79
1, 816, Note_off_c, 0, 59, 79
1, 816, Note_on_c, 0, 62, 81
1, 840, Note_off_c, 0, 62, 81
1, 840, Note_on_c, 0, 67, 82
1, 984, Note_off_c, 0, 67, 82
1, 1056, Note_on_c, 0, 62, 91
1, 1078, Note_off_c, 0, 62, 91
1, 1152, Note_on_c, 0, 57, 59
1, 1176, Note_off_c, 0, 57, 59
1, 1176, Note_on_c, 0, 64, 72
1, 1200, Note_off_c, 0, 64, 72
1, 1200, Note_on_c, 0, 67, 79
1, 1224, Note_off_c, 0, 67, 79
1, 1224, Note_on_c, 0, 72, 76
1, 1435, Note_off_c, 0, 72, 76
1, 0, Note_on_c, 0, 69, 36
1, 48, Note_off_c, 0, 69, 36
1, 48, Note_on_c, 0, 76, 44
1, 96, Note_off_c, 0, 76, 44
1, 96, Note_on_c, 0, 83, 38
1, 120, Note_off_c, 0, 83, 38
1, 144, Note_on_c, 0, 84, 44
1, 168, Note_off_c, 0, 84, 44
1, 192, Note_on_c, 0, 86, 41
1, 288, Note_on_c, 0, 71, 40
1, 288, Note_off_c, 0, 86, 41
1, 312, Note_off_c, 0, 71, 40
1, 336, Note_on_c, 0, 72, 28
1, 360, Note_off_c, 0, 72, 28
1, 360, Note_on_c, 0, 93, 59
1, 384, Note_on_c, 0, 59, 63
1, 384, Note_off_c, 0, 93, 59
1, 432, Note_off_c, 0, 59, 63
1, 432, Note_on_c, 0, 64, 35
1, 480, Note_off_c, 0, 64, 35
1, 480, Note_on_c, 0, 65, 37
1, 504, Note_off_c, 0, 65, 37
1, 528, Note_on_c, 0, 71, 46
1, 552, Note_off_c, 0, 71, 46
1, 576, Note_on_c, 0, 76, 58
1, 600, Note_off_c, 0, 76, 58
1, 624, Note_on_c, 0, 77, 44
1, 648, Note_off_c, 0, 77, 44
1, 672, Note_on_c, 0, 83, 44
1, 696, Note_off_c, 0, 83, 44
1, 720, Note_on_c, 0, 86, 46
1, 744, Note_off_c, 0, 86, 46
1, 744, Note_on_c, 0, 93, 65
1, 768, Note_on_c, 0, 62, 36
1, 768, Note_off_c, 0, 93, 65
1, 816, Note_off_c, 0, 62, 36
1, 816, Note_on_c, 0, 69, 44
1, 864, Note_off_c, 0, 69, 44
1, 864, Note_on_c, 0, 76, 38
1, 888, Note_off_c, 0, 76, 38
1, 912, Note_on_c, 0, 77, 44
1, 936, Note_off_c, 0, 77, 44
1, 960, Note_on_c, 0, 64, 48
1, 960, Note_on_c, 0, 89, 41
1, 1008, Note_off_c, 0, 64, 48
1, 1008, Note_on_c, 0, 71, 43
1, 1056, Note_off_c, 0, 71, 43
1, 1056, Note_on_c, 0, 74, 40
1, 1056, Note_off_c, 0, 89, 41
1, 1080, Note_off_c, 0, 74, 40
1, 1104, Note_on_c, 0, 76, 28
1, 1127, Note_on_c, 0, 96, 59
1, 1128, Note_off_c, 0, 76, 28
1, 1152, Note_on_c, 0, 62, 63
1, 1152, Note_off_c, 0, 96, 59
1, 1200, Note_off_c, 0, 62, 63
1, 1200, Note_on_c, 0, 67, 35
1, 1248, Note_off_c, 0, 67, 35
1, 1248, Note_on_c, 0, 69, 37
1, 1272, Note_off_c, 0, 69, 37
1, 1296, Note_on_c, 0, 74, 46
1, 1320, Note_off_c, 0, 74, 46
1, 1344, Note_on_c, 0, 79, 58
1, 1368, Note_off_c, 0, 79, 58
1, 1392, Note_on_c, 0, 81, 44
1, 1416, Note_off_c, 0, 81, 44
1, 1440, Note_on_c, 0, 86, 44
1, 1464, Note_off_c, 0, 86, 44
1, 1488, Note_on_c, 0, 89, 46
1, 1512, Note_off_c, 0, 89, 46
1, 0, Note_on_c, 0, 26, 82
1, 0, Note_on_c, 0, 38, 76
1, 0, Note_on_c, 0, 41, 78
1, 0, Note_on_c, 0, 45, 95
1, 0, Note_on_c, 0, 48, 81
1, 0, Note_on_c, 0, 57, 90
1, 36, Note_off_c, 0, 57, 73
1, 96, Note_on_c, 0, 57, 90
1, 133, Note_off_c, 0, 57, 60
1, 191, Note_off_c, 0, 26, 70
1, 191, Note_off_c, 0, 38, 67
1, 191, Note_off_c, 0, 41, 42
1, 191, Note_off_c, 0, 45, 48
1, 191, Note_off_c, 0, 48, 20
1, 192, Note_on_c, 0, 28, 90
1, 192, Note_on_c, 0, 40, 86
1, 192, Note_on_c, 0, 43, 82
1, 192, Note_on_c, 0, 47, 103
1, 192, Note_on_c, 0, 50, 92
1, 192, Note_on_c, 0, 57, 74
1, 238, Note_off_c, 0, 57, 47
1, 288, Note_on_c, 0, 57, 80
1, 334, Note_off_c, 0, 57, 63
1, 383, Note_off_c, 0, 28, 67
1, 383, Note_off_c, 0, 40, 82
1, 383, Note_off_c, 0, 43, 65
1, 383, Note_off_c, 0, 47, 60
1, 383, Note_off_c, 0, 50, 39
1, 384, Note_on_c, 0, 29, 81
1, 384, Note_on_c, 0, 41, 103
1, 384, Note_on_c, 0, 45, 90
1, 384, Note_on_c, 0, 48, 91
1, 384, Note_on_c, 0, 52, 90
1, 384, Note_on_c, 0, 57, 73
1, 430, Note_off_c, 0, 57, 56
1, 480, Note_on_c, 0, 57, 76
1, 528, Note_off_c, 0, 57, 58
1, 576, Note_on_c, 0, 57, 71
1, 623, Note_off_c, 0, 57, 60
1, 672, Note_on_c, 0, 57, 73
1, 721, Note_off_c, 0, 57, 63
1, 767, Note_off_c, 0, 29, 48
1, 767, Note_off_c, 0, 41, 67
1, 767, Note_off_c, 0, 45, 76
1, 767, Note_off_c, 0, 48, 10
1, 767, Note_off_c, 0, 52, 46
1, 768, Note_on_c, 0, 29, 81
1, 768, Note_on_c, 0, 41, 103
1, 768, Note_on_c, 0, 45, 90
1, 768, Note_on_c, 0, 48, 91
1, 768, Note_on_c, 0, 52, 90
1, 768, Note_on_c, 0, 55, 80
1, 768, Note_on_c, 0, 57, 74
1, 817, Note_off_c, 0, 57, 59
1, 864, Note_on_c, 0, 57, 71
1, 913, Note_off_c, 0, 57, 54
1, 960, Note_on_c, 0, 57, 73
1, 1013, Note_off_c, 0, 57, 57
1, 1056, Note_on_c, 0, 57, 70
1, 1105, Note_off_c, 0, 57, 53
1, 1151, Note_off_c, 0, 29, 48
1, 1151, Note_off_c, 0, 41, 67
1, 1151, Note_off_c, 0, 45, 76
1, 1151, Note_off_c, 0, 48, 10
1, 1151, Note_off_c, 0, 52, 46
1, 1151, Note_off_c, 0, 55, 57
1, 1152, Note_on_c, 0, 31, 57
1, 1152, Note_on_c, 0, 43, 62
1, 1152, Note_on_c, 0, 45, 90
1, 1152, Note_on_c, 0, 47, 32
1, 1152, Note_on_c, 0, 50, 68
1, 1152, Note_on_c, 0, 55, 80
1, 1152, Note_on_c, 0, 57, 77
1, 1199, Note_off_c, 0, 57, 56
1, 1248, Note_on_c, 0, 57, 73
1, 1295, Note_off_c, 0, 57, 54
1, 1344, Note_on_c, 0, 57, 73
1, 1395, Note_off_c, 0, 57, 57
1, 1440, Note_on_c, 0, 57, 63
1, 1487, Note_off_c, 0, 57, 48
1, 1535, Note_off_c, 0, 31, 67
1, 1535, Note_off_c, 0, 43, 55
1, 1535, Note_off_c, 0, 45, 76
1, 1535, Note_off_c, 0, 47, 51
1, 1535, Note_off_c, 0, 50, 85
1, 1535, Note_off_c, 0, 55, 57
1, 0, Pitch_bend_c, 0, 8192
1, 0, Control_c, 0, 6, 12
1, 0, Control_c, 0, 7, 100
1, 0, Control_c, 0, 10, 64
1, 0, Control_c, 0, 100, 0
1, 0, Control_c, 0, 101, 0
1, 48, Note_on_c, 0, 76, 108
1, 96, Note_off_c, 0, 76, 64
1, 96, Note_on_c, 0, 79, 102
1, 144, Note_off_c, 0, 79, 64
1, 192, Note_on_c, 0, 81, 102
1, 240, Note_off_c, 0, 81, 64
1, 336, Note_on_c, 0, 84, 106
1, 384, Note_off_c, 0, 84, 64
1, 432, Note_on_c, 0, 83, 103
1, 480, Note_off_c, 0, 83, 64
1, 528, Note_on_c, 0, 79, 105
1, 576, Note_off_c, 0, 79, 64
1, 624, Note_on_c, 0, 76, 108
1, 672, Note_off_c, 0, 76, 64
1, 672, Note_on_c, 0, 79, 107
1, 720, Note_off_c, 0, 79, 64
1, 720, Note_on_c, 0, 81, 106
1, 768, Note_off_c, 0, 81, 64
1, 816, Note_on_c, 0, 77, 100
1, 864, Note_off_c, 0, 77, 64
1, 864, Note_on_c, 0, 81, 103
1, 912, Note_off_c, 0, 81, 64
1, 960, Note_on_c, 0, 77, 109
1, 1008, Note_off_c, 0, 77, 64
1, 1104, Note_on_c, 0, 76, 106
1, 1152, Note_off_c, 0, 76, 64
1, 1200, Note_on_c, 0, 74, 106
1, 1248, Note_off_c, 0, 74, 64
1, 1296, Note_on_c, 0, 76, 101
1, 1344, Note_off_c, 0, 76, 64
1, 1392, Note_on_c, 0, 79, 102
1, 1440, Note_on_c, 0, 76, 104
1, 1440, Note_off_c, 0, 79, 64
1, 1488, Note_off_c, 0, 76, 64
1, 1488, Note_on_c, 0, 80, 107
1, 1535, Note_off_c, 0, 80, 64
1, 1536, Pitch_bend_c, 0, 8192
1, 1536, Pitch_bend_c, 0, 8192
1, 1536, Control_c, 0, 6, 12
1, 1536, Control_c, 0, 6, 12
1, 1536, Control_c, 0, 7, 100
1, 1536, Control_c, 0, 7, 100
1, 1536, Control_c, 0, 10, 64
1, 1536, Control_c, 0, 10, 64
1, 1536, Control_c, 0, 100, 0
1, 1536, Control_c, 0, 100, 0
1, 1536, Control_c, 0, 101, 0
1, 1536, Control_c, 0, 101, 0
1, 1537, Pitch_bend_c, 0, 8192
1, 1537, Control_c, 0, 6, 12
1, 1537, Control_c, 0, 7, 100
1, 1537, Control_c, 0, 10, 64
1, 1537, Control_c, 0, 100, 0
1, 1537, Control_c, 0, 101, 0
1, 0, Pitch_bend_c, 0, 8192
1, 0, Control_c, 0, 6, 12
1, 0, Control_c, 0, 7, 100
1, 0, Control_c, 0, 10, 64
1, 0, Control_c, 0, 100, 0
1, 0, Control_c, 0, 101, 0
1, 0, Note_on_c, 0, 81, 106
1, 48, Note_off_c, 0, 81, 64
1, 48, Note_on_c, 0, 84, 100
1, 96, Note_off_c, 0, 84, 64
1, 144, Note_on_c, 0, 88, 104
1, 192, Note_off_c, 0, 88, 64
1, 240, Note_on_c, 0, 84, 102
1, 288, Note_off_c, 0, 84, 64
1, 336, Note_on_c, 0, 79, 103
1, 384, Note_off_c, 0, 79, 64
1, 432, Note_on_c, 0, 83, 102
1, 480, Note_off_c, 0, 83, 64
1, 528, Note_on_c, 0, 86, 108
1, 576, Note_off_c, 0, 86, 64
1, 624, Note_on_c, 0, 84, 107
1, 672, Note_on_c, 0, 83, 107
1, 672, Note_off_c, 0, 84, 64
1, 720, Note_off_c, 0, 83, 64
1, 720, Note_on_c, 0, 84, 101
1, 768, Note_on_c, 0, 79, 103
1, 768, Note_off_c, 0, 84, 64
1, 816, Note_off_c, 0, 79, 64
1, 816, Note_on_c, 0, 83, 100
1, 864, Note_off_c, 0, 83, 64
1, 912, Note_on_c, 0, 86, 104
1, 960, Note_off_c, 0, 86, 64
1, 1008, Note_on_c, 0, 83, 101
1, 1056, Note_off_c, 0, 83, 64
1, 1056, Note_on_c, 0, 88, 103
1, 1104, Note_on_c, 0, 84, 101
1, 1104, Note_off_c, 0, 88, 64
1, 1248, Note_off_c, 0, 84, 64
1, 1296, Note_on_c, 0, 81, 100
1, 1344, Note_off_c, 0, 81, 64
1, 1392, Note_on_c, 0, 76, 101
1, 1536, Note_off_c, 0, 76, 64
1, 3072, Pitch_bend_c, 0, 8192
1, 3072, Pitch_bend_c, 0, 8192
1, 3072, Control_c, 0, 6, 12
1, 3072, Control_c, 0, 6, 12
1, 3072, Control_c, 0, 7, 100
1, 3072, Control_c, 0, 7, 100
1, 3072, Control_c, 0, 10, 64
1, 3072, Control_c, 0, 10, 64
1, 3072, Control_c, 0, 100, 0
1, 3072, Control_c, 0, 100, 0
1, 3072, Control_c, 0, 101, 0
1, 3072, Control_c, 0, 101, 0
1, 3073, Pitch_bend_c, 0, 8192
1, 3073, Control_c, 0, 6, 12
1, 3073, Control_c, 0, 7, 100
1, 3073, Control_c, 0, 10, 64
1, 3073, Control_c, 0, 100, 0
1, 3073, Control_c, 0, 101, 0
1, 0, Control_c, 0, 1, 100
1, 0, Note_on_c, 0, 60, 112
1, 96, Note_on_c, 0, 52, 104
1, 96, Note_off_c, 0, 60, 112
1, 144, Note_on_c, 0, 50, 99
1, 144, Note_off_c, 0, 52, 104
1, 168, Note_on_c, 0, 48, 95
1, 168, Note_off_c, 0, 50, 99
1, 192, Note_off_c, 0, 48, 95
1, 192, Note_on_c, 0, 50, 105
1, 285, Note_off_c, 0, 50, 105
1, 288, Note_on_c, 0, 50, 105
1, 384, Note_on_c, 0, 48, 108
1, 384, Note_off_c, 0, 50, 105
1, 432, Note_off_c, 0, 48, 108
1, 432, Note_on_c, 0, 52, 100
1, 480, Note_on_c, 0, 45, 106
1, 480, Note_off_c, 0, 52, 100
1, 576, Note_on_c, 0, 41, 113
1, 576, Note_off_c, 0, 45, 106
1, 669, Note_off_c, 0, 41, 113
1, 672, Note_on_c, 0, 41, 102
1, 768, Note_off_c, 0, 41, 102
1, 768, Note_on_c, 0, 60, 110
1, 864, Note_on_c, 0, 52, 102
1, 864, Note_off_c, 0, 60, 110
1, 912, Note_on_c, 0, 50, 93
1, 912, Note_off_c, 0, 52, 102
1, 936, Note_on_c, 0, 48, 97
1, 936, Note_off_c, 0, 50, 93
1, 960, Note_off_c, 0, 48, 97
1, 960, Note_on_c, 0, 50, 109
1, 1053, Note_off_c, 0, 50, 109
1, 1056, Note_on_c, 0, 50, 100
1, 1152, Note_on_c, 0, 48, 106
1, 1152, Note_off_c, 0, 50, 100
1, 1200, Note_off_c, 0, 48, 106
1, 1200, Note_on_c, 0, 52, 99
1, 1248, Note_on_c, 0, 45, 105
1, 1248, Note_off_c, 0, 52, 99
1, 1344, Note_on_c, 0, 41, 112
1, 1344, Note_off_c, 0, 45, 105
1, 1437, Note_off_c, 0, 41, 112
1, 1440, Note_on_c, 0, 41, 103
1, 1533, Note_off_c, 0, 41, 103
1, 1536, Control_c, 0, 1, 100
1, 1536, Control_c, 0, 1, 40
1, 0, Control_c, 0, 1, 40
1, 0, Note_on_c, 0, 69, 43
1, 72, Note_off_c, 0, 69, 43
1, 72, Note_on_c, 0, 74, 40
1, 96, Note_off_c, 0, 74, 40
1, 96, Note_on_c, 0, 77, 42
1, 192, Note_on_c, 0, 69, 41
1, 192, Note_off_c, 0, 77, 42
1, 240, Note_off_c, 0, 69, 41
1, 240, Note_on_c, 0, 74, 40
1, 288, Note_off_c, 0, 74, 40
1, 288, Note_on_c, 0, 77, 40
1, 360, Note_off_c, 0, 77, 40
1, 360, Note_on_c, 0, 81, 38
1, 384, Note_on_c, 0, 67, 44
1, 384, Note_off_c, 0, 81, 38
1, 456, Note_off_c, 0, 67, 44
1, 456, Note_on_c, 0, 71, 39
1, 480, Note_off_c, 0, 71, 39
1, 480, Note_on_c, 0, 76, 41
1, 576, Note_on_c, 0, 67, 43
1, 576, Note_off_c, 0, 76, 41
1, 624, Note_off_c, 0, 67, 43
1, 624, Note_on_c, 0, 71, 39
1, 672, Note_off_c, 0, 71, 39
1, 672, Note_on_c, 0, 76, 39
1, 744, Note_off_c, 0, 76, 39
1, 744, Note_on_c, 0, 79, 39
1, 768, Note_on_c, 0, 69, 43
1, 768, Note_off_c, 0, 79, 39
1, 840, Note_off_c, 0, 69, 43
1, 840, Note_on_c, 0, 74, 38
1, 864, Note_off_c, 0, 74, 38
1, 864, Note_on_c, 0, 77, 40
1, 960, Note_on_c, 0, 69, 41
1, 960, Note_off_c, 0, 77, 40
1, 1008, Note_off_c, 0, 69, 41
1, 1008, Note_on_c, 0, 74, 40
1, 1056, Note_off_c, 0, 74, 40
1, 1056, Note_on_c, 0, 77, 39
1, 1128, Note_off_c, 0, 77, 39
1, 1128, Note_on_c, 0, 81, 39
1, 1152, Note_on_c, 0, 67, 43
1, 1152, Note_off_c, 0, 81, 39
1, 1224, Note_off_c, 0, 67, 43
1, 1224, Note_on_c, 0, 71, 39
1, 1248, Note_off_c, 0, 71, 39
1, 1248, Note_on_c, 0, 76, 40
1, 1344, Note_on_c, 0, 67, 43
1, 1344, Note_off_c, 0, 76, 40
1, 1392, Note_off_c, 0, 67, 43
1, 1392, Note_on_c, 0, 71, 40
1, 1440, Note_off_c, 0, 71, 40
1, 1440, Note_on_c, 0, 76, 40
1, 1512, Note_off_c, 0, 76, 40
1, 1512, Note_on_c, 0, 79, 39
1, 1536, Note_off_c, 0, 79, 39
1, 0, Note_on_c, 0, 29, 86
1, 54, Note_off_c, 0, 29, 86
1, 96, Note_on_c, 0, 36, 91
1, 144, Note_on_c, 0, 48, 86
1, 150, Note_off_c, 0, 36, 91
1, 192, Note_off_c, 0, 48, 86
1, 192, Note_on_c, 0, 57, 87
1, 239, Note_off_c, 0, 57, 87
1, 336, Note_on_c, 0, 55, 78
1, 373, Note_off_c, 0, 55, 78
1, 384, Note_on_c, 0, 52, 69
1, 432, Note_on_c, 0, 50, 78
1, 432, Note_off_c, 0, 52, 69
1, 480, Note_on_c, 0, 43, 68
1, 480, Note_off_c, 0, 50, 78
1, 651, Note_off_c, 0, 43, 68
1, 720, Note_on_c, 0, 43, 84
1, 755, Note_off_c, 0, 43, 84
1, 768, Note_on_c, 0, 33, 78
1, 816, Note_off_c, 0, 33, 78
1, 816, Note_on_c, 0, 40, 88
1, 863, Note_off_c, 0, 40, 88
1, 864, Note_on_c, 0, 48, 84
1, 912, Note_off_c, 0, 48, 84
1, 912, Note_on_c, 0, 57, 85
1, 960, Note_off_c, 0, 57, 85
1, 1056, Note_on_c, 0, 53, 30
1, 1080, Note_off_c, 0, 53, 30
1, 1104, Note_on_c, 0, 55, 89
1, 1144, Note_off_c, 0, 55, 89
1, 1152, Note_on_c, 0, 57, 89
1, 1200, Note_on_c, 0, 50, 69
1, 1200, Note_off_c, 0, 57, 89
1, 1248, Note_on_c, 0, 45, 80
1, 1248, Note_off_c, 0, 50, 69
1, 1296, Note_on_c, 0, 38, 75
1, 1296, Note_off_c, 0, 45, 80
1, 1344, Note_off_c, 0, 38, 75
1, 1344, Note_on_c, 0, 53, 83
1, 1392, Note_on_c, 0, 52, 76
1, 1418, Note_off_c, 0, 53, 83
1, 1442, Note_off_c, 0, 52, 76
1, 0, Channel_aftertouch_c, 0, 0
1, 0, Note_on_c, 0, 45, 78
1, 24, Note_off_c, 0, 45, 78
1, 24, Note_on_c, 0, 57, 82
1, 48, Note_off_c, 0, 57, 82
1, 48, Note_on_c, 0, 69, 71
1, 71, Note_off_c, 0, 69, 71
1, 71, Note_on_c, 0, 72, 77
1, 96, Note_on_c, 0, 45, 78
1, 96, Note_off_c, 0, 72, 77
1, 120, Note_off_c, 0, 45, 78
1, 120, Note_on_c, 0, 57, 82
1, 144, Note_off_c, 0, 57, 82
1, 144, Note_on_c, 0, 69, 71
1, 168, Note_off_c, 0, 69, 71
1, 168, Note_on_c, 0, 76, 80
1, 192, Note_on_c, 0, 45, 78
1, 192, Note_off_c, 0, 76, 80
1, 216, Note_off_c, 0, 45, 78
1, 216, Note_on_c, 0, 57, 82
1, 240, Note_off_c, 0, 57, 82
1, 240, Note_on_c, 0, 69, 71
1, 264, Note_off_c, 0, 69, 71
1, 264, Note_on_c, 0, 72, 77
1, 288, Note_on_c, 0, 45, 78
1, 288, Note_off_c, 0, 72, 77
1, 312, Note_off_c, 0, 45, 78
1, 312, Note_on_c, 0, 57, 82
1, 336, Note_off_c, 0, 57, 82
1, 336, Note_on_c, 0, 69, 71
1, 360, Note_off_c, 0, 69, 71
1, 360, Note_on_c, 0, 76, 80
1, 384, Note_off_c, 0, 76, 80
1, 385, Note_on_c, 0, 81, 71
1, 407, Note_on_c, 0, 77, 66
1, 408, Note_off_c, 0, 81, 71
1, 431, Note_off_c, 0, 77, 66
1, 432, Note_on_c, 0, 72, 69
1, 455, Note_on_c, 0, 48, 67
1, 455, Note_off_c, 0, 72, 69
1, 479, Note_off_c, 0, 48, 67
1, 480, Note_on_c, 0, 81, 71
1, 502, Note_on_c, 0, 77, 66
1, 502, Note_off_c, 0, 81, 71
1, 526, Note_on_c, 0, 72, 69
1, 526, Note_off_c, 0, 77, 66
1, 550, Note_off_c, 0, 72, 69
1, 552, Note_on_c, 0, 60, 70
1, 576, Note_off_c, 0, 60, 70
1, 577, Note_on_c, 0, 81, 71
1, 600, Note_on_c, 0, 77, 66
1, 600, Note_off_c, 0, 81, 71
1, 624, Note_on_c, 0, 72, 69
1, 624, Note_off_c, 0, 77, 66
1, 647, Note_off_c, 0, 72, 69
1, 648, Note_on_c, 0, 48, 67
1, 672, Note_off_c, 0, 48, 67
1, 672, Note_on_c, 0, 81, 71
1, 694, Note_on_c, 0, 77, 66
1, 694, Note_off_c, 0, 81, 71
1, 718, Note_on_c, 0, 72, 69
1, 718, Note_off_c, 0, 77, 66
1, 742, Note_off_c, 0, 72, 69
1, 744, Note_on_c, 0, 60, 70
1, 768, Note_off_c, 0, 60, 70
1, 770, Note_on_c, 0, 40, 61
1, 792, Note_off_c, 0, 40, 61
1, 792, Note_on_c, 0, 52, 62
1, 816, Note_off_c, 0, 52, 62
1, 816, Note_on_c, 0, 67, 58
1, 839, Note_off_c, 0, 67, 58
1, 840, Note_on_c, 0, 71, 67
1, 863, Note_off_c, 0, 71, 67
1, 866, Note_on_c, 0, 40, 61
1, 888, Note_off_c, 0, 40, 61
1, 888, Note_on_c, 0, 52, 62
1, 912, Note_off_c, 0, 52, 62
1, 912, Note_on_c, 0, 67, 58
1, 935, Note_off_c, 0, 67, 58
1, 935, Note_on_c, 0, 74, 71
1, 960, Note_off_c, 0, 74, 71
1, 962, Note_on_c, 0, 40, 61
1, 984, Note_off_c, 0, 40, 61
1, 984, Note_on_c, 0, 52, 62
1, 1008, Note_off_c, 0, 52, 62
1, 1008, Note_on_c, 0, 67, 58
1, 1031, Note_off_c, 0, 67, 58
1, 1032, Note_on_c, 0, 71, 67
1, 1056, Note_off_c, 0, 71, 67
1, 1058, Note_on_c, 0, 40, 61
1, 1080, Note_off_c, 0, 40, 61
1, 1080, Note_on_c, 0, 52, 62
1, 1104, Note_off_c, 0, 52, 62
1, 1104, Note_on_c, 0, 67, 58
1, 1127, Note_off_c, 0, 67, 58
1, 1128, Note_on_c, 0, 74, 71
1, 1152, Note_off_c, 0, 74, 71
1, 1152, Note_on_c, 0, 81, 72
1, 1175, Note_on_c, 0, 76, 68
1, 1175, Note_off_c, 0, 81, 72
1, 1199, Note_on_c, 0, 72, 64
1, 1200, Note_off_c, 0, 76, 68
1, 1224, Note_on_c, 0, 57, 62
1, 1224, Note_off_c, 0, 72, 64
1, 1248, Note_off_c, 0, 57, 62
1, 1248, Note_on_c, 0, 81, 72
1, 1272, Note_on_c, 0, 76, 68
1, 1272, Note_off_c, 0, 81, 72
1, 1296, Note_on_c, 0, 72, 64
1, 1296, Note_off_c, 0, 76, 68
1, 1320, Note_on_c, 0, 45, 62
1, 1320, Note_off_c, 0, 72, 64
1, 1344, Note_off_c, 0, 45, 62
1, 1344, Note_on_c, 0, 81, 72
1, 1368, Note_on_c, 0, 76, 68
1, 1368, Note_off_c, 0, 81, 72
1, 1392, Note_on_c, 0, 72, 64
1, 1392, Note_off_c, 0, 76, 68
1, 1416, Note_on_c, 0, 57, 62
1, 1416, Note_off_c, 0, 72, 64
1, 1440, Note_off_c, 0, 57, 62
1, 1440, Note_on_c, 0, 81, 72
1, 1464, Note_on_c, 0, 76, 68
1, 1464, Note_off_c, 0, 81, 72
1, 1488, Note_on_c, 0, 72, 64
1, 1488, Note_off_c, 0, 76, 68
1, 1512, Note_on_c, 0, 45, 62
1, 1512, Note_off_c, 0, 72, 64
1, 1536, Note_off_c, 0, 45, 62
1, 0, Program_c, 0, 0
1, 0, Pitch_bend_c, 0, 8192
1, 0, Control_c, 0, 6, 12
1, 0, Control_c, 0, 7, 100
1, 0, Control_c, 0, 10, 64
1, 0, Control_c, 0, 100, 0
1, 0, Control_c, 0, 101, 0
1, 0, Note_on_c, 0, 57, 100
1, 0, Note_on_c, 0, 69, 100
1, 48, Note_off_c, 0, 57, 64
1, 48, Note_off_c, 0, 69, 64
1, 96, Note_on_c, 0, 69, 100
1, 144, Note_on_c, 0, 57, 100
1, 144, Note_off_c, 0, 69, 64
1, 192, Note_off_c, 0, 57, 64
1, 192, Note_on_c, 0, 69, 100
1, 240, Note_off_c, 0, 69, 64
1, 288, Note_on_c, 0, 60, 100
1, 288, Note_on_c, 0, 67, 100
1, 336, Note_off_c, 0, 60, 64
1, 336, Note_off_c, 0, 67, 64
1, 384, Note_on_c, 0, 65, 100
1, 384, Note_on_c, 0, 77, 100
1, 432, Note_off_c, 0, 65, 64
1, 432, Note_off_c, 0, 77, 64
1, 480, Note_on_c, 0, 77, 100
1, 528, Note_on_c, 0, 65, 100
1, 528, Note_off_c, 0, 77, 64
1, 576, Note_off_c, 0, 65, 64
1, 576, Note_on_c, 0, 77, 100
1, 624, Note_off_c, 0, 77, 64
1, 672, Note_on_c, 0, 64, 100
1, 672, Note_on_c, 0, 76, 100
1, 720, Note_off_c, 0, 64, 64
1, 720, Note_off_c, 0, 76, 64
1, 768, Note_on_c, 0, 55, 100
1, 768, Note_on_c, 0, 67, 100
1, 816, Note_off_c, 0, 55, 64
1, 816, Note_off_c, 0, 67, 64
1, 864, Note_on_c, 0, 67, 100
1, 912, Note_on_c, 0, 55, 100
1, 912, Note_off_c, 0, 67, 64
1, 960, Note_off_c, 0, 55, 64
1, 960, Note_on_c, 0, 67, 100
1, 1008, Note_off_c, 0, 67, 64
1, 1056, Note_on_c, 0, 52, 100
1, 1056, Note_on_c, 0, 67, 100
1, 1104, Note_off_c, 0, 52, 64
1, 1104, Note_off_c, 0, 67, 64
1, 1152, Note_on_c, 0, 62, 100
1, 1152, Note_on_c, 0, 74, 100
1, 1200, Note_off_c, 0, 62, 64
1, 1200, Note_off_c, 0, 74, 64
1, 1248, Note_on_c, 0, 74, 100
1, 1296, Note_on_c, 0, 60, 100
1, 1296, Note_off_c, 0, 74, 64
1, 1344, Note_off_c, 0, 60, 64
1, 1344, Note_on_c, 0, 74, 100
1, 1392, Note_off_c, 0, 74, 64
1, 1440, Note_on_c, 0, 59, 100
1, 1440, Note_on_c, 0, 76, 100
1, 1488, Note_off_c, 0, 59, 64
1, 1488, Note_off_c, 0, 76, 64
1, 1536, Pitch_bend_c, 0, 8192
1, 1536, Pitch_bend_c, 0, 8192
1, 1536, Control_c, 0, 6, 12
1, 1536, Control_c, 0, 6, 12
1, 1536, Control_c, 0, 7, 100
1, 1536, Control_c, 0, 7, 100
1, 1536, Control_c, 0, 10, 64
1, 1536, Control_c, 0, 10, 64
1, 1536, Control_c, 0, 100, 0
1, 1536, Control_c, 0, 100, 0
1, 1536, Control_c, 0, 101, 0
1, 1536, Control_c, 0, 101, 0
1, 0, Control_c, 0, 1, 70
1, 0, Note_on_c, 0, 57, 72
1, 32, Note_off_c, 0, 57, 72
1, 32, Note_on_c, 0, 60, 66
1, 63, Note_off_c, 0, 60, 66
1, 63, Note_on_c, 0, 69, 67
1, 96, Note_on_c, 0, 64, 69
1, 96, Note_off_c, 0, 69, 67
1, 128, Note_on_c, 0, 57, 67
1, 128, Note_off_c, 0, 64, 69
1, 159, Note_off_c, 0, 57, 67
1, 159, Note_on_c, 0, 60, 65
1, 192, Note_off_c, 0, 60, 65
1, 192, Note_on_c, 0, 69, 70
1, 223, Note_on_c, 0, 64, 65
1, 224, Note_off_c, 0, 69, 70
1, 255, Note_on_c, 0, 57, 65
1, 255, Note_off_c, 0, 64, 65
1, 287, Note_off_c, 0, 57, 65
1, 287, Note_on_c, 0, 60, 66
1, 319, Note_off_c, 0, 60, 66
1, 319, Note_on_c, 0, 69, 67
1, 351, Note_on_c, 0, 64, 68
1, 351, Note_off_c, 0, 69, 67
1, 383, Note_off_c, 0, 64, 68
1, 384, Note_on_c, 0, 55, 79
1, 416, Note_off_c, 0, 55, 79
1, 416, Note_on_c, 0, 59, 65
1, 447, Note_off_c, 0, 59, 65
1, 447, Note_on_c, 0, 67, 65
1, 479, Note_off_c, 0, 67, 65
1, 480, Note_on_c, 0, 64, 72
1, 512, Note_on_c, 0, 55, 67
1, 512, Note_off_c, 0, 64, 72
1, 543, Note_off_c, 0, 55, 67
1, 543, Note_on_c, 0, 59, 65
1, 576, Note_off_c, 0, 59, 65
1, 576, Note_on_c, 0, 67, 74
1, 607, Note_on_c, 0, 64, 66
1, 608, Note_off_c, 0, 67, 74
1, 639, Note_on_c, 0, 55, 65
1, 639, Note_off_c, 0, 64, 66
1, 671, Note_off_c, 0, 55, 65
1, 672, Note_on_c, 0, 59, 65
1, 703, Note_on_c, 0, 67, 66
1, 704, Note_off_c, 0, 59, 65
1, 735, Note_on_c, 0, 64, 69
1, 735, Note_off_c, 0, 67, 66
1, 767, Note_off_c, 0, 64, 69
1, 768, Note_on_c, 0, 57, 74
1, 799, Note_on_c, 0, 62, 67
1, 800, Note_off_c, 0, 57, 74
1, 831, Note_off_c, 0, 62, 67
1, 831, Note_on_c, 0, 69, 67
1, 864, Note_on_c, 0, 65, 69
1, 864, Note_off_c, 0, 69, 67
1, 895, Note_on_c, 0, 57, 69
1, 896, Note_off_c, 0, 65, 69
1, 927, Note_off_c, 0, 57, 69
1, 927, Note_on_c, 0, 62, 68
1, 960, Note_off_c, 0, 62, 68
1, 960, Note_on_c, 0, 69, 72
1, 991, Note_on_c, 0, 65, 68
1, 992, Note_off_c, 0, 69, 72
1, 1023, Note_on_c, 0, 57, 65
1, 1023, Note_off_c, 0, 65, 68
1, 1055, Note_off_c, 0, 57, 65
1, 1056, Note_on_c, 0, 62, 66
1, 1087, Note_on_c, 0, 69, 65
1, 1088, Note_off_c, 0, 62, 66
1, 1119, Note_on_c, 0, 65, 68
1, 1119, Note_off_c, 0, 69, 65
1, 1151, Note_off_c, 0, 65, 68
1, 1152, Note_on_c, 0, 57, 77
1, 1183, Note_on_c, 0, 60, 68
1, 1184, Note_off_c, 0, 57, 77
1, 1215, Note_off_c, 0, 60, 68
1, 1215, Note_on_c, 0, 69, 67
1, 1248, Note_on_c, 0, 64, 68
1, 1248, Note_off_c, 0, 69, 67
1, 1279, Note_on_c, 0, 57, 65
1, 1280, Note_off_c, 0, 64, 68
1, 1311, Note_off_c, 0, 57, 65
1, 1311, Note_on_c, 0, 60, 65
1, 1344, Note_off_c, 0, 60, 65
1, 1344, Note_on_c, 0, 69, 70
1, 1375, Note_on_c, 0, 64, 67
1, 1376, Note_off_c, 0, 69, 70
1, 1407, Note_on_c, 0, 57, 66
1, 1407, Note_off_c, 0, 64, 67
1, 1439, Note_off_c, 0, 57, 66
1, 1440, Note_on_c, 0, 60, 69
1, 1471, Note_on_c, 0, 69, 65
1, 1472, Note_off_c, 0, 60, 69
1, 1503, Note_on_c, 0, 64, 65
1, 1503, Note_off_c, 0, 69, 65
1, 1535, Note_off_c, 0, 64, 65
1, 0, Note_on_c, 0, 69, 52
1, 96, Note_on_c, 0, 76, 68
1, 288, Note_off_c, 0, 69, 52
1, 288, Note_on_c, 0, 72, 94
1, 288, Note_off_c, 0, 76, 68
1, 312, Note_on_c, 0, 74, 86
1, 314, Note_off_c, 0, 72, 94
1, 334, Note_off_c, 0, 74, 86
1, 336, Note_on_c, 0, 76, 92
1, 360, Note_on_c, 0, 74, 97
1, 363, Note_off_c, 0, 76, 92
1, 378, Note_off_c, 0, 74, 97
1, 384, Note_on_c, 0, 76, 73
1, 480, Note_on_c, 0, 81, 97
1, 672, Note_off_c, 0, 76, 73
1, 672, Note_off_c, 0, 81, 97
1, 672, Note_on_c, 0, 81, 100
1, 696, Note_on_c, 0, 83, 94
1, 699, Note_off_c, 0, 81, 100
1, 720, Note_off_c, 0, 83, 94
1, 720, Note_on_c, 0, 84, 69
1, 744, Note_on_c, 0, 83, 93
1, 747, Note_off_c, 0, 84, 69
1, 762, Note_off_c, 0, 83, 93
1, 768, Note_on_c, 0, 77, 82
1, 864, Note_on_c, 0, 84, 93
1, 1056, Note_off_c, 0, 77, 82
1, 1056, Note_off_c, 0, 84, 93
1, 1056, Note_on_c, 0, 84, 106
1, 1080, Note_on_c, 0, 86, 109
1, 1083, Note_off_c, 0, 84, 106
1, 1102, Note_off_c, 0, 86, 109
1, 1104, Note_on_c, 0, 88, 101
1, 1128, Note_on_c, 0, 86, 100
1, 1133, Note_off_c, 0, 88, 101
1, 1146, Note_off_c, 0, 86, 100
1, 1152, Note_on_c, 0, 86, 12
1, 1200, Note_on_c, 0, 81, 100
1, 1200, Note_off_c, 0, 86, 12
1, 1248, Note_on_c, 0, 72, 88
1, 1248, Note_off_c, 0, 81, 100
1, 1344, Note_off_c, 0, 72, 88
1, 1344, Note_on_c, 0, 81, 74
1, 1392, Note_on_c, 0, 88, 64
1, 1527, Note_off_c, 0, 88, 64
1, 1529, Note_off_c, 0, 81, 74
1, 0, Control_c, 0, 1, 40
1, 0, Note_on_c, 0, 48, 86
1, 48, Note_off_c, 0, 48, 86
1, 48, Note_on_c, 0, 64, 81
1, 96, Note_off_c, 0, 64, 81
1, 96, Note_on_c, 0, 69, 81
1, 144, Note_on_c, 0, 48, 86
1, 144, Note_off_c, 0, 69, 81
1, 192, Note_off_c, 0, 48, 86
1, 192, Note_on_c, 0, 64, 81
1, 240, Note_off_c, 0, 64, 81
1, 240, Note_on_c, 0, 69, 81
1, 288, Note_on_c, 0, 48, 86
1, 288, Note_off_c, 0, 69, 81
1, 336, Note_off_c, 0, 48, 86
1, 336, Note_on_c, 0, 64, 81
1, 384, Note_off_c, 0, 64, 81
1, 384, Note_on_c, 0, 69, 81
1, 432, Note_on_c, 0, 48, 85
1, 432, Note_off_c, 0, 69, 81
1, 480, Note_off_c, 0, 48, 85
1, 480, Note_on_c, 0, 62, 81
1, 528, Note_off_c, 0, 62, 81
1, 528, Note_on_c, 0, 67, 80
1, 576, Note_on_c, 0, 48, 85
1, 576, Note_off_c, 0, 67, 80
1, 624, Note_off_c, 0, 48, 85
1, 624, Note_on_c, 0, 62, 81
1, 672, Note_off_c, 0, 62, 81
1, 672, Note_on_c, 0, 67, 80
1, 720, Note_on_c, 0, 48, 85
1, 720, Note_off_c, 0, 67, 80
1, 768, Note_off_c, 0, 48, 85
1, 768, Note_on_c, 0, 62, 80
1, 816, Note_off_c, 0, 62, 80
1, 816, Note_on_c, 0, 67, 81
1, 864, Note_on_c, 0, 45, 87
1, 864, Note_off_c, 0, 67, 81
1, 912, Note_off_c, 0, 45, 87
1, 912, Note_on_c, 0, 62, 80
1, 960, Note_off_c, 0, 62, 80
1, 960, Note_on_c, 0, 67, 81
1, 1008, Note_on_c, 0, 45, 87
1, 1008, Note_off_c, 0, 67, 81
1, 1056, Note_off_c, 0, 45, 87
1, 1056, Note_on_c, 0, 62, 80
1, 1104, Note_off_c, 0, 62, 80
1, 1104, Note_on_c, 0, 67, 81
1, 1152, Note_on_c, 0, 45, 86
1, 1152, Note_off_c, 0, 67, 81
1, 1200, Note_off_c, 0, 45, 86
1, 1200, Note_on_c, 0, 62, 81
1, 1248, Note_off_c, 0, 62, 81
1, 1248, Note_on_c, 0, 65, 80
1, 1296, Note_on_c, 0, 45, 86
1, 1296, Note_off_c, 0, 65, 80
1, 1344, Note_off_c, 0, 45, 86
1, 1344, Note_on_c, 0, 60, 62
1, 1392, Note_off_c, 0, 60, 62
1, 1392, Note_on_c, 0, 65, 80
1, 1440, Note_on_c, 0, 45, 86
1, 1440, Note_off_c, 0, 65, 80
1, 1488, Note_off_c, 0, 45, 86
1, 1488, Note_on_c, 0, 60, 62
1, 1536, Note_off_c, 0, 60, 62
1, 0, Note_on_c, 0, 41, 108
1, 0, Note_on_c, 0, 57, 108
1, 0, Note_on_c, 0, 84, 92
1, 35, Note_off_c, 0, 84, 54
1, 72, Note_on_c, 0, 84, 93
1, 100, Note_off_c, 0, 84, 51
1, 144, Note_on_c, 0, 84, 82
1, 174, Note_off_c, 0, 84, 57
1, 216, Note_on_c, 0, 84, 89
1, 246, Note_off_c, 0, 84, 57
1, 288, Note_on_c, 0, 84, 106
1, 313, Note_off_c, 0, 84, 62
1, 384, Note_on_c, 0, 89, 96
1, 410, Note_off_c, 0, 89, 30
1, 456, Note_on_c, 0, 89, 89
1, 472, Note_off_c, 0, 89, 62
1, 528, Note_on_c, 0, 88, 99
1, 548, Note_off_c, 0, 88, 69
1, 575, Note_off_c, 0, 41, 71
1, 575, Note_off_c, 0, 57, 76
1, 576, Note_on_c, 0, 38, 102
1, 576, Note_on_c, 0, 65, 75
1, 600, Note_on_c, 0, 88, 108
1, 618, Note_off_c, 0, 88, 77
1, 672, Note_on_c, 0, 88, 109
1, 702, Note_off_c, 0, 88, 45
1, 720, Note_on_c, 0, 86, 90
1, 744, Note_off_c, 0, 86, 56
1, 767, Note_off_c, 0, 38, 79
1, 767, Note_off_c, 0, 65, 57
1, 768, Note_on_c, 0, 33, 88
1, 768, Note_on_c, 0, 60, 89
1, 768, Note_on_c, 0, 84, 106
1, 797, Note_off_c, 0, 84, 53
1, 840, Note_on_c, 0, 84, 87
1, 863, Note_off_c, 0, 84, 65
1, 912, Note_on_c, 0, 84, 94
1, 941, Note_off_c, 0, 84, 61
1, 984, Note_on_c, 0, 84, 99
1, 1019, Note_off_c, 0, 84, 51
1, 1056, Note_on_c, 0, 84, 87
1, 1091, Note_off_c, 0, 84, 49
1, 1152, Note_on_c, 0, 91, 84
1, 1185, Note_off_c, 0, 91, 54
1, 1224, Note_on_c, 0, 91, 83
1, 1252, Note_off_c, 0, 91, 46
1, 1296, Note_on_c, 0, 83, 67
1, 1331, Note_off_c, 0, 83, 46
1, 1343, Note_off_c, 0, 33, 77
1, 1343, Note_off_c, 0, 60, 67
1, 1344, Note_on_c, 0, 33, 87
1, 1344, Note_on_c, 0, 62, 89
1, 1368, Note_on_c, 0, 83, 93
1, 1398, Note_off_c, 0, 83, 48
1, 1440, Note_on_c, 0, 83, 93
1, 1476, Note_off_c, 0, 83, 46
1, 1488, Note_on_c, 0, 84, 92
1, 1515, Note_off_c, 0, 84, 57
1, 1535, Note_off_c, 0, 33, 80
1, 1535, Note_off_c, 0, 62, 75
1, 0, Control_c, 0, 1, 0
1, 0, Note_on_c, 0, 45, 105
1, 48, Note_off_c, 0, 45, 105
1, 48, Note_on_c, 0, 52, 89
1, 96, Note_off_c, 0, 52, 89
1, 96, Note_on_c, 0, 57, 89
1, 144, Note_on_c, 0, 45, 105
1, 144, Note_off_c, 0, 57, 89
1, 192, Note_off_c, 0, 45, 105
1, 192, Note_on_c, 0, 52, 89
1, 240, Note_off_c, 0, 52, 89
1, 240, Note_on_c, 0, 57, 89
1, 288, Note_on_c, 0, 45, 105
1, 288, Note_off_c, 0, 57, 89
1, 336, Note_off_c, 0, 45, 105
1, 336, Note_on_c, 0, 52, 89
1, 384, Note_off_c, 0, 52, 89
1, 384, Note_on_c, 0, 57, 89
1, 432, Note_on_c, 0, 45, 105
1, 432, Note_off_c, 0, 57, 89
1, 480, Note_off_c, 0, 45, 105
1, 480, Note_on_c, 0, 52, 89
1, 528, Note_off_c, 0, 52, 89
1, 528, Note_on_c, 0, 57, 89
1, 576, Note_on_c, 0, 45, 105
1, 576, Note_off_c, 0, 57, 89
1, 624, Note_off_c, 0, 45, 105
1, 624, Note_on_c, 0, 52, 89
1, 672, Note_off_c, 0, 52, 89
1, 672, Note_on_c, 0, 57, 89
1, 720, Note_off_c, 0, 57, 89
1, 768, Note_on_c, 0, 43, 105
1, 816, Note_off_c, 0, 43, 105
1, 816, Note_on_c, 0, 50, 89
1, 864, Note_off_c, 0, 50, 89
1, 864, Note_on_c, 0, 55, 89
1, 912, Note_on_c, 0, 43, 105
1, 912, Note_off_c, 0, 55, 89
1, 960, Note_off_c, 0, 43, 105
1, 960, Note_on_c, 0, 50, 89
1, 1008, Note_off_c, 0, 50, 89
1, 1008, Note_on_c, 0, 55, 89
1, 1056, Note_on_c, 0, 43, 105
1, 1056, Note_off_c, 0, 55, 89
1, 1104, Note_off_c, 0, 43, 105
1, 1104, Note_on_c, 0, 50, 89
1, 1152, Note_off_c, 0, 50, 89
1, 1152, Note_on_c, 0, 55, 89
1, 1200, Note_on_c, 0, 43, 105
1, 1200, Note_off_c, 0, 55, 89
1, 1248, Note_off_c, 0, 43, 105
1, 1248, Note_on_c, 0, 50, 89
1, 1296, Note_off_c, 0, 50, 89
1, 1296, Note_on_c, 0, 55, 89
1, 1344, Note_on_c, 0, 43, 105
1, 1344, Note_off_c, 0, 55, 89
1, 1392, Note_off_c, 0, 43, 105
1, 1392, Note_on_c, 0, 50, 89
1, 1440, Note_off_c, 0, 50, 89
1, 1440, Note_on_c, 0, 55, 89
1, 1488, Note_on_c, 0, 43, 105
1, 1488, Note_off_c, 0, 55, 89
1, 1536, Note_off_c, 0, 43, 105
1, 0, Pitch_bend_c, 0, 8192
1, 0, Control_c, 0, 6, 12
1, 0, Control_c, 0, 7, 100
1, 0, Control_c, 0, 10, 64
1, 0, Control_c, 0, 100, 0
1, 0, Control_c, 0, 101, 0
1, 0, Note_on_c, 0, 81, 107
1, 192, Note_off_c, 0, 81, 64
1, 240, Note_on_c, 0, 81, 101
1, 288, Note_off_c, 0, 81, 64
1, 288, Note_on_c, 0, 84, 106
1, 336, Note_off_c, 0, 84, 64
1, 336, Note_on_c, 0, 88, 107
1, 384, Note_on_c, 0, 84, 104
1, 384, Note_off_c, 0, 88, 64
1, 432, Note_off_c, 0, 84, 64
1, 432, Note_on_c, 0, 86, 102
1, 480, Note_off_c, 0, 86, 64
1, 528, Note_on_c, 0, 81, 103
1, 576, Note_off_c, 0, 81, 64
1, 624, Note_on_c, 0, 84, 102
1, 672, Note_off_c, 0, 84, 64
1, 720, Note_on_c, 0, 83, 105
1, 768, Note_on_c, 0, 81, 102
1, 768, Note_off_c, 0, 83, 64
1, 816, Note_on_c, 0, 79, 102
1, 816, Note_off_c, 0, 81, 64
1, 864, Note_on_c, 0, 76, 103
1, 864, Note_off_c, 0, 79, 64
1, 912, Note_off_c, 0, 76, 64
1, 1008, Note_on_c, 0, 74, 104
1, 1056, Note_off_c, 0, 74, 64
1, 1056, Note_on_c, 0, 76, 101
1, 1104, Note_off_c, 0, 76, 64
1, 1152, Note_on_c, 0, 79, 108
1, 1200, Note_off_c, 0, 79, 64
1, 1200, Note_on_c, 0, 81, 100
1, 1248, Note_off_c, 0, 81, 64
1, 1248, Note_on_c, 0, 83, 103
1, 1296, Note_off_c, 0, 83, 64
1, 1296, Note_on_c, 0, 84, 102
1, 1344, Note_off_c, 0, 84, 64
1, 1392, Note_on_c, 0, 81, 105
1, 1440, Note_off_c, 0, 81, 64
1, 1488, Note_on_c, 0, 84, 100
1, 1536, Note_off_c, 0, 84, 64
1, 3072, Pitch_bend_c, 0, 8192
1, 3072, Pitch_bend_c, 0, 8192
1, 3072, Control_c, 0, 6, 12
1, 3072, Control_c, 0, 6, 12
1, 3072, Control_c, 0, 7, 100
1, 3072, Control_c, 0, 7, 100
1, 3072, Control_c, 0, 10, 64
1, 3072, Control_c, 0, 10, 64
1, 3072, Control_c, 0, 100, 0
1, 3072, Control_c, 0, 100, 0
1, 3072, Control_c, 0, 101, 0
1, 3072, Control_c, 0, 101, 0
1, 3073, Pitch_bend_c, 0, 8192
1, 3073, Control_c, 0, 6, 12
1, 3073, Control_c, 0, 7, 100
1, 3073, Control_c, 0, 10, 64
1, 3073, Control_c, 0, 100, 0
1, 3073, Control_c, 0, 101, 0
1, 0, Pitch_bend_c, 0, 8192
1, 0, Control_c, 0, 6, 12
1, 0, Control_c, 0, 7, 100
1, 0, Control_c, 0, 10, 64
1, 0, Control_c, 0, 100, 0
1, 0, Control_c, 0, 101, 0
1, 0, Note_on_c, 0, 81, 108
1, 96, Note_off_c, 0, 81, 64
1, 96, Note_on_c, 0, 83, 104
1, 192, Note_off_c, 0, 83, 64
1, 192, Note_on_c, 0, 84, 108
1, 240, Note_off_c, 0, 84, 64
1, 240, Note_on_c, 0, 86, 107
1, 288, Note_off_c, 0, 86, 64
1, 336, Note_on_c, 0, 84, 110
1, 384, Note_off_c, 0, 84, 64
1, 432, Note_on_c, 0, 83, 101
1, 480, Note_on_c, 0, 81, 108
1, 480, Note_off_c, 0, 83, 64
1, 576, Note_off_c, 0, 81, 64
1, 576, Note_on_c, 0, 84, 102
1, 672, Note_on_c, 0, 81, 101
1, 672, Note_off_c, 0, 84, 64
1, 768, Note_on_c, 0, 80, 103
1, 768, Note_off_c, 0, 81, 64
1, 864, Note_on_c, 0, 76, 103
1, 864, Note_off_c, 0, 80, 64
1, 960, Note_off_c, 0, 76, 64
1, 960, Note_on_c, 0, 83, 100
1, 1008, Note_on_c, 0, 81, 109
1, 1008, Note_off_c, 0, 83, 64
1, 1056, Note_off_c, 0, 81, 64
1, 1104, Note_on_c, 0, 80, 102
1, 1152, Note_off_c, 0, 80, 64
1, 1200, Note_on_c, 0, 77, 104
1, 1248, Note_on_c, 0, 76, 105
1, 1248, Note_off_c, 0, 77, 64
1, 1344, Note_on_c, 0, 74, 101
1, 1344, Note_off_c, 0, 76, 64
1, 1440, Note_on_c, 0, 72, 109
1, 1440, Note_off_c, 0, 74, 64
1, 1536, Note_off_c, 0, 72, 64
1, 1776, Note_on_c, 0, 88, 108
1, 1824, Note_off_c, 0, 88, 64
1, 2592, Note_on_c, 0, 88, 105
1, 2640, Note_off_c, 0, 88, 64
1, 3072, Pitch_bend_c, 0, 8192
1, 3072, Pitch_bend_c, 0, 8192
1, 3072, Control_c, 0, 6, 12
1, 3072, Control_c, 0, 6, 12
1, 3072, Control_c, 0, 7, 100
1, 3072, Control_c, 0, 7, 100
1, 3072, Control_c, 0, 10, 64
1, 3072, Control_c, 0, 10, 64
1, 3072, Control_c, 0, 100, 0
1, 3072, Control_c, 0, 100, 0
1, 3072, Control_c, 0, 101, 0
1, 3072, Control_c, 0, 101, 0
1, 3073, Pitch_bend_c, 0, 8192
1, 3073, Control_c, 0, 6, 12
1, 3073, Control_c, 0, 7, 100
1, 3073, Control_c, 0, 10, 64
1, 3073, Control_c, 0, 100, 0
1, 3073, Control_c, 0, 101, 0
1, 0, Pitch_bend_c, 0, 8192
1, 0, Control_c, 0, 6, 12
1, 0, Control_c, 0, 7, 100
1, 0, Control_c, 0, 10, 64
1, 0, Control_c, 0, 100, 0
1, 0, Control_c, 0, 101, 0
1, 0, Note_on_c, 0, 57, 100
1, 0, Note_on_c, 0, 60, 100
1, 0, Note_on_c, 0, 67, 100
1, 48, Note_off_c, 0, 57, 64
1, 48, Note_off_c, 0, 60, 64
1, 48, Note_off_c, 0, 67, 64
1, 144, Note_on_c, 0, 52, 100
1, 144, Note_on_c, 0, 60, 100
1, 144, Note_on_c, 0, 64, 100
1, 192, Note_off_c, 0, 52, 64
1, 192, Note_off_c, 0, 60, 64
1, 192, Note_off_c, 0, 64, 64
1, 288, Note_on_c, 0, 54, 100
1, 288, Note_on_c, 0, 57, 100
1, 288, Note_on_c, 0, 62, 100
1, 336, Note_off_c, 0, 54, 64
1, 336, Note_off_c, 0, 57, 64
1, 336, Note_off_c, 0, 62, 64
1, 768, Note_on_c, 0, 57, 100
1, 768, Note_on_c, 0, 60, 100
1, 768, Note_on_c, 0, 67, 100
1, 816, Note_off_c, 0, 57, 64
1, 816, Note_off_c, 0, 60, 64
1, 816, Note_off_c, 0, 67, 64
1, 912, Note_on_c, 0, 52, 100
1, 912, Note_on_c, 0, 60, 100
1, 912, Note_on_c, 0, 64, 100
1, 960, Note_off_c, 0, 52, 64
1, 960, Note_off_c, 0, 60, 64
1, 960, Note_off_c, 0, 64, 64
1, 1056, Note_on_c, 0, 54, 100
1, 1056, Note_on_c, 0, 57, 100
1, 1056, Note_on_c, 0, 62, 100
1, 1104, Note_off_c, 0, 54, 64
1, 1104, Note_off_c, 0, 57, 64
1, 1104, Note_off_c, 0, 62, 64
1, 1200, Note_on_c, 0, 52, 100
1, 1200, Note_on_c, 0, 55, 100
1, 1200, Note_on_c, 0, 60, 100
1, 1248, Note_off_c, 0, 52, 64
1, 1248, Note_off_c, 0, 55, 64
1, 1248, Note_off_c, 0, 60, 64
1, 1344, Note_on_c, 0, 55, 100
1, 1344, Note_on_c, 0, 57, 100
1, 1344, Note_on_c, 0, 62, 100
1, 1392, Note_off_c, 0, 55, 64
1, 1392, Note_off_c, 0, 57, 64
1, 1392, Note_off_c, 0, 62, 64
1, 1440, Note_on_c, 0, 54, 100
1, 1440, Note_on_c, 0, 57, 100
1, 1440, Note_on_c, 0, 64, 100
1, 1488, Note_off_c, 0, 54, 64
1, 1488, Note_off_c, 0, 57, 64
1, 1488, Note_off_c, 0, 64, 64
1, 1535, Pitch_bend_c, 0, 8192
1, 1535, Pitch_bend_c, 0, 8192
1, 1535, Control_c, 0, 7, 100
1, 1535, Control_c, 0, 7, 100
1, 1535, Control_c, 0, 10, 64
1, 1535, Control_c, 0, 10, 64
1, 1536, Pitch_bend_c, 0, 8192
1, 1536, Control_c, 0, 6, 12
1, 1536, Control_c, 0, 6, 12
1, 1536, Control_c, 0, 7, 100
1, 1536, Control_c, 0, 10, 64
1, 1536, Control_c, 0, 100, 0
1, 1536, Control_c, 0, 100, 0
1, 1536, Control_c, 0, 101, 0
1, 1536, Control_c, 0, 101, 0
1, 0, Note_on_c, 0, 64, 78
1, 44, Note_off_c, 0, 64, 78
1, 48, Note_on_c, 0, 52, 63
1, 94, Note_off_c, 0, 52, 63
1, 96, Note_on_c, 0, 57, 69
1, 143, Note_off_c, 0, 57, 69
1, 144, Note_on_c, 0, 52, 57
1, 192, Note_on_c, 0, 64, 80
1, 193, Note_off_c, 0, 52, 57
1, 231, Note_off_c, 0, 64, 80
1, 240, Note_on_c, 0, 52, 59
1, 281, Note_off_c, 0, 52, 59
1, 288, Note_on_c, 0, 57, 65
1, 336, Note_on_c, 0, 52, 64
1, 337, Note_off_c, 0, 57, 65
1, 374, Note_off_c, 0, 52, 64
1, 384, Note_on_c, 0, 69, 80
1, 432, Note_on_c, 0, 59, 69
1, 437, Note_off_c, 0, 69, 80
1, 475, Note_off_c, 0, 59, 69
1, 480, Note_on_c, 0, 62, 64
1, 526, Note_off_c, 0, 62, 64
1, 528, Note_on_c, 0, 59, 64
1, 576, Note_on_c, 0, 69, 76
1, 579, Note_off_c, 0, 59, 64
1, 623, Note_off_c, 0, 69, 76
1, 624, Note_on_c, 0, 59, 58
1, 668, Note_off_c, 0, 59, 58
1, 672, Note_on_c, 0, 62, 67
1, 717, Note_off_c, 0, 62, 67
1, 720, Note_on_c, 0, 59, 68
1, 759, Note_off_c, 0, 59, 68
1, 768, Note_on_c, 0, 62, 81
1, 816, Note_on_c, 0, 50, 62
1, 821, Note_off_c, 0, 62, 81
1, 855, Note_off_c, 0, 50, 62
1, 864, Note_on_c, 0, 55, 66
1, 911, Note_off_c, 0, 55, 66
1, 912, Note_on_c, 0, 50, 63
1, 960, Note_on_c, 0, 62, 77
1, 960, Note_off_c, 0, 50, 63
1, 1005, Note_off_c, 0, 62, 77
1, 1008, Note_on_c, 0, 50, 53
1, 1047, Note_off_c, 0, 50, 53
1, 1056, Note_on_c, 0, 55, 65
1, 1104, Note_on_c, 0, 50, 62
1, 1105, Note_off_c, 0, 55, 65
1, 1142, Note_off_c, 0, 50, 62
1, 1152, Note_on_c, 0, 69, 78
1, 1200, Note_on_c, 0, 59, 63
1, 1201, Note_off_c, 0, 69, 78
1, 1240, Note_off_c, 0, 59, 63
1, 1248, Note_on_c, 0, 62, 64
1, 1292, Note_off_c, 0, 62, 64
1, 1296, Note_on_c, 0, 59, 69
1, 1344, Note_on_c, 0, 69, 76
1, 1350, Note_off_c, 0, 59, 69
1, 1391, Note_off_c, 0, 69, 76
1, 1392, Note_on_c, 0, 59, 62
1, 1437, Note_off_c, 0, 59, 62
1, 1440, Note_on_c, 0, 62, 77
1, 1488, Note_on_c, 0, 59, 66
1, 1488, Note_off_c, 0, 62, 77
1, 1528, Note_off_c, 0, 59, 66
1, 0, Pitch_bend_c, 0, 8192
1, 0, Control_c, 0, 6, 12
1, 0, Control_c, 0, 7, 100
1, 0, Control_c, 0, 10, 64
1, 0, Control_c, 0, 100, 0
1, 0, Control_c, 0, 101, 0
1, 0, Note_on_c, 0, 81, 111
1, 48, Note_off_c, 0, 81, 64
1, 48, Note_on_c, 0, 83, 107
1, 96, Note_off_c, 0, 83, 64
1, 96, Note_on_c, 0, 84, 100
1, 144, Note_off_c, 0, 84, 64
1, 144, Note_on_c, 0, 88, 108
1, 192, Note_off_c, 0, 88, 64
1, 240, Note_on_c, 0, 86, 108
1, 288, Note_off_c, 0, 86, 64
1, 336, Note_on_c, 0, 84, 106
1, 384, Note_off_c, 0, 84, 64
1, 432, Note_on_c, 0, 83, 103
1, 480, Note_off_c, 0, 83, 64
1, 528, Note_on_c, 0, 84, 112
1, 552, Note_on_c, 0, 83, 100
1, 552, Note_off_c, 0, 84, 64
1, 576, Note_on_c, 0, 81, 108
1, 576, Note_off_c, 0, 83, 64
1, 672, Note_off_c, 0, 81, 64
1, 768, Note_on_c, 0, 79, 101
1, 816, Note_off_c, 0, 79, 64
1, 816, Note_on_c, 0, 81, 106
1, 864, Note_on_c, 0, 77, 101
1, 864, Note_off_c, 0, 81, 64
1, 912, Note_on_c, 0, 76, 109
1, 912, Note_off_c, 0, 77, 64
1, 960, Note_off_c, 0, 76, 64
1, 960, Note_on_c, 0, 77, 101
1, 1056, Note_off_c, 0, 77, 64
1, 1104, Note_on_c, 0, 76, 106
1, 1152, Note_off_c, 0, 76, 64
1, 1200, Note_on_c, 0, 74, 101
1, 1248, Note_off_c, 0, 74, 64
1, 1296, Note_on_c, 0, 76, 111
1, 1320, Note_on_c, 0, 74, 106
1, 1320, Note_off_c, 0, 76, 64
1, 1344, Note_on_c, 0, 72, 110
1, 1344, Note_off_c, 0, 74, 64
1, 1439, Note_off_c, 0, 72, 64
1, 1536, Pitch_bend_c, 0, 8192
1, 1536, Pitch_bend_c, 0, 8192
1, 1536, Control_c, 0, 6, 12
1, 1536, Control_c, 0, 6, 12
1, 1536, Control_c, 0, 7, 100
1, 1536, Control_c, 0, 7, 100
1, 1536, Control_c, 0, 10, 64
1, 1536, Control_c, 0, 10, 64
1, 1536, Control_c, 0, 100, 0
1, 1536, Control_c, 0, 100, 0
1, 1536, Control_c, 0, 101, 0
1, 1536, Control_c, 0, 101, 0
1, 1537, Pitch_bend_c, 0, 8192
1, 1537, Control_c, 0, 6, 12
1, 1537, Control_c, 0, 7, 100
1, 1537, Control_c, 0, 10, 64
1, 1537, Control_c, 0, 100, 0
1, 1537, Control_c, 0, 101, 0
1, 0, Control_c, 0, 1, 100
1, 0, Note_on_c, 0, 40, 107
1, 24, Note_off_c, 0, 40, 107
1, 24, Note_on_c, 0, 45, 93
1, 48, Note_off_c, 0, 45, 93
1, 48, Note_on_c, 0, 52, 99
1, 72, Note_on_c, 0, 48, 93
1, 72, Note_off_c, 0, 52, 99
1, 96, Note_on_c, 0, 40, 104
1, 96, Note_off_c, 0, 48, 93
1, 120, Note_off_c, 0, 40, 104
1, 120, Note_on_c, 0, 45, 99
1, 144, Note_off_c, 0, 45, 99
1, 144, Note_on_c, 0, 52, 98
1, 168, Note_on_c, 0, 48, 98
1, 168, Note_off_c, 0, 52, 98
1, 192, Note_on_c, 0, 40, 103
1, 192, Note_off_c, 0, 48, 98
1, 216, Note_off_c, 0, 40, 103
1, 216, Note_on_c, 0, 45, 95
1, 240, Note_off_c, 0, 45, 95
1, 240, Note_on_c, 0, 52, 97
1, 264, Note_on_c, 0, 48, 93
1, 264, Note_off_c, 0, 52, 97
1, 288, Note_on_c, 0, 40, 99
1, 288, Note_off_c, 0, 48, 93
1, 312, Note_off_c, 0, 40, 99
1, 312, Note_on_c, 0, 45, 94
1, 336, Note_off_c, 0, 45, 94
1, 336, Note_on_c, 0, 52, 96
1, 360, Note_on_c, 0, 48, 97
1, 360, Note_off_c, 0, 52, 96
1, 384, Note_on_c, 0, 40, 108
1, 384, Note_off_c, 0, 48, 97
1, 408, Note_off_c, 0, 40, 108
1, 408, Note_on_c, 0, 43, 96
1, 432, Note_off_c, 0, 43, 96
1, 432, Note_on_c, 0, 52, 94
1, 456, Note_on_c, 0, 47, 96
1, 456, Note_off_c, 0, 52, 94
1, 480, Note_on_c, 0, 40, 103
1, 480, Note_off_c, 0, 47, 96
1, 504, Note_off_c, 0, 40, 103
1, 504, Note_on_c, 0, 43, 97
1, 528, Note_off_c, 0, 43, 97
1, 528, Note_on_c, 0, 52, 98
1, 552, Note_on_c, 0, 47, 96
1, 552, Note_off_c, 0, 52, 98
1, 576, Note_on_c, 0, 40, 100
1, 576, Note_off_c, 0, 47, 96
1, 600, Note_off_c, 0, 40, 100
1, 600, Note_on_c, 0, 43, 97
1, 624, Note_off_c, 0, 43, 97
1, 624, Note_on_c, 0, 52, 93
1, 648, Note_on_c, 0, 47, 95
1, 648, Note_off_c, 0, 52, 93
1, 672, Note_on_c, 0, 40, 98
1, 672, Note_off_c, 0, 47, 95
1, 696, Note_off_c, 0, 40, 98
1, 696, Note_on_c, 0, 43, 96
1, 720, Note_off_c, 0, 43, 96
1, 720, Note_on_c, 0, 52, 98
1, 744, Note_on_c, 0, 47, 97
1, 744, Note_off_c, 0, 52, 98
1, 768, Note_on_c, 0, 41, 105
1, 768, Note_off_c, 0, 47, 97
1, 792, Note_off_c, 0, 41, 105
1, 792, Note_on_c, 0, 45, 98
1, 816, Note_off_c, 0, 45, 98
1, 816, Note_on_c, 0, 53, 99
1, 840, Note_on_c, 0, 48, 97
1, 840, Note_off_c, 0, 53, 99
1, 864, Note_on_c, 0, 41, 101
1, 864, Note_off_c, 0, 48, 97
1, 888, Note_off_c, 0, 41, 101
1, 888, Note_on_c, 0, 45, 93
1, 912, Note_off_c, 0, 45, 93
1, 912, Note_on_c, 0, 53, 99
1, 936, Note_on_c, 0, 48, 98
1, 936, Note_off_c, 0, 53, 99
1, 960, Note_on_c, 0, 41, 106
1, 960, Note_off_c, 0, 48, 98
1, 984, Note_off_c, 0, 41, 106
1, 984, Note_on_c, 0, 45, 97
1, 1008, Note_off_c, 0, 45, 97
1, 1008, Note_on_c, 0, 53, 99
1, 1032, Note_on_c, 0, 48, 98
1, 1032, Note_off_c, 0, 53, 99
1, 1056, Note_on_c, 0, 41, 96
1, 1056, Note_off_c, 0, 48, 98
1, 1080, Note_off_c, 0, 41, 96
1, 1080, Note_on_c, 0, 45, 99
1, 1104, Note_off_c, 0, 45, 99
1, 1104, Note_on_c, 0, 53, 96
1, 1128, Note_on_c, 0, 48, 94
1, 1128, Note_off_c, 0, 53, 96
1, 1152, Note_on_c, 0, 40, 107
1, 1152, Note_off_c, 0, 48, 94
1, 1176, Note_off_c, 0, 40, 107
1, 1176, Note_on_c, 0, 43, 97
1, 1200, Note_off_c, 0, 43, 97
1, 1200, Note_on_c, 0, 52, 96
1, 1224, Note_on_c, 0, 47, 96
1, 1224, Note_off_c, 0, 52, 96
1, 1248, Note_on_c, 0, 40, 103
1, 1248, Note_off_c, 0, 47, 96
1, 1272, Note_off_c, 0, 40, 103
1, 1272, Note_on_c, 0, 43, 93
1, 1296, Note_off_c, 0, 43, 93
1, 1296, Note_on_c, 0, 52, 98
1, 1320, Note_on_c, 0, 47, 94
1, 1320, Note_off_c, 0, 52, 98
1, 1344, Note_on_c, 0, 40, 106
1, 1344, Note_off_c, 0, 47, 94
1, 1368, Note_off_c, 0, 40, 106
1, 1368, Note_on_c, 0, 43, 95
1, 1392, Note_off_c, 0, 43, 95
1, 1392, Note_on_c, 0, 52, 97
1, 1416, Note_on_c, 0, 47, 95
1, 1416, Note_off_c, 0, 52, 97
1, 1440, Note_on_c, 0, 40, 93
1, 1440, Note_off_c, 0, 47, 95
1, 1464, Note_off_c, 0, 40, 93
1, 1464, Note_on_c, 0, 43, 95
1, 1488, Note_off_c, 0, 43, 95
1, 1488, Note_on_c, 0, 52, 94
1, 1512, Note_on_c, 0, 47, 94
1, 1512, Note_off_c, 0, 52, 94
1, 1536, Note_off_c, 0, 47, 94
1, 0, Pitch_bend_c, 0, 8192
1, 0, Control_c, 0, 6, 12
1, 0, Control_c, 0, 7, 100
1, 0, Control_c, 0, 10, 64
1, 0, Control_c, 0, 100, 0
1, 0, Control_c, 0, 101, 0
1, 48, Note_on_c, 0, 76, 106
1, 96, Note_off_c, 0, 76, 64
1, 96, Note_on_c, 0, 81, 102
1, 144, Note_off_c, 0, 81, 64
1, 144, Note_on_c, 0, 83, 103
1, 192, Note_off_c, 0, 83, 64
1, 192, Note_on_c, 0, 84, 106
1, 240, Note_on_c, 0, 79, 102
1, 240, Note_off_c, 0, 84, 64
1, 240, Note_on_c, 0, 86, 101
1, 384, Note_off_c, 0, 79, 64
1, 384, Note_on_c, 0, 81, 105
1, 384, Note_on_c, 0, 84, 101
1, 384, Note_off_c, 0, 86, 64
1, 528, Note_on_c, 0, 76, 100
1, 528, Note_off_c, 0, 81, 64
1, 528, Note_on_c, 0, 83, 104
1, 528, Note_off_c, 0, 84, 64
1, 672, Note_off_c, 0, 76, 64
1, 672, Note_off_c, 0, 83, 64
1, 816, Note_on_c, 0, 76, 105
1, 864, Note_off_c, 0, 76, 64
1, 864, Note_on_c, 0, 84, 107
1, 912, Note_on_c, 0, 83, 101
1, 912, Note_off_c, 0, 84, 64
1, 960, Note_on_c, 0, 81, 105
1, 960, Note_off_c, 0, 83, 64
1, 1008, Note_on_c, 0, 79, 107
1, 1008, Note_off_c, 0, 81, 64
1, 1056, Note_on_c, 0, 74, 106
1, 1056, Note_off_c, 0, 79, 64
1, 1104, Note_off_c, 0, 74, 64
1, 1104, Note_on_c, 0, 76, 105
1, 1152, Note_off_c, 0, 76, 64
1, 1152, Note_on_c, 0, 79, 106
1, 1152, Note_on_c, 0, 84, 103
1, 1296, Note_off_c, 0, 79, 64
1, 1296, Note_on_c, 0, 83, 103
1, 1296, Note_off_c, 0, 84, 64
1, 1296, Note_on_c, 0, 86, 105
1, 1440, Note_off_c, 0, 83, 64
1, 1440, Note_on_c, 0, 83, 105
1, 1440, Note_off_c, 0, 86, 64
1, 1440, Note_on_c, 0, 88, 100
1, 1535, Note_off_c, 0, 83, 64
1, 1535, Note_off_c, 0, 88, 64
1, 1536, Pitch_bend_c, 0, 8192
1, 1536, Pitch_bend_c, 0, 8192
1, 1536, Control_c, 0, 6, 12
1, 1536, Control_c, 0, 6, 12
1, 1536, Control_c, 0, 7, 100
1, 1536, Control_c, 0, 7, 100
1, 1536, Control_c, 0, 10, 64
1, 1536, Control_c, 0, 10, 64
1, 1536, Control_c, 0, 100, 0
1, 1536, Control_c, 0, 100, 0
1, 1536, Control_c, 0, 101, 0
1, 1536, Control_c, 0, 101, 0
1, 1537, Pitch_bend_c, 0, 8192
1, 1537, Control_c, 0, 6, 12
1, 1537, Control_c, 0, 7, 100
1, 1537, Control_c, 0, 10, 64
1, 1537, Control_c, 0, 100, 0
1, 1537, Control_c, 0, 101, 0
1, 0, Control_c, 0, 1, 40
1, 0, Note_on_c, 0, 72, 43
1, 48, Note_off_c, 0, 72, 43
1, 96, Note_on_c, 0, 76, 41
1, 111, Note_on_c, 0, 72, 39
1, 112, Note_off_c, 0, 76, 41
1, 127, Note_off_c, 0, 72, 39
1, 127, Note_on_c, 0, 76, 40
1, 143, Note_off_c, 0, 76, 40
1, 143, Note_on_c, 0, 79, 40
1, 191, Note_off_c, 0, 79, 40
1, 192, Note_on_c, 0, 74, 46
1, 240, Note_off_c, 0, 74, 46
1, 288, Note_on_c, 0, 76, 41
1, 303, Note_on_c, 0, 74, 40
1, 304, Note_off_c, 0, 76, 41
1, 319, Note_off_c, 0, 74, 40
1, 319, Note_on_c, 0, 76, 40
1, 335, Note_off_c, 0, 76, 40
1, 336, Note_on_c, 0, 79, 38
1, 384, Note_on_c, 0, 72, 44
1, 384, Note_off_c, 0, 79, 38
1, 432, Note_off_c, 0, 72, 44
1, 480, Note_on_c, 0, 76, 41
1, 495, Note_on_c, 0, 72, 38
1, 496, Note_off_c, 0, 76, 41
1, 511, Note_off_c, 0, 72, 38
1, 511, Note_on_c, 0, 76, 39
1, 527, Note_off_c, 0, 76, 39
1, 528, Note_on_c, 0, 77, 40
1, 576, Note_on_c, 0, 72, 44
1, 576, Note_off_c, 0, 77, 40
1, 624, Note_off_c, 0, 72, 44
1, 672, Note_on_c, 0, 74, 42
1, 687, Note_on_c, 0, 72, 40
1, 688, Note_off_c, 0, 74, 42
1, 703, Note_off_c, 0, 72, 40
1, 703, Note_on_c, 0, 74, 40
1, 719, Note_off_c, 0, 74, 40
1, 720, Note_on_c, 0, 77, 39
1, 768, Note_on_c, 0, 72, 44
1, 768, Note_off_c, 0, 77, 39
1, 816, Note_off_c, 0, 72, 44
1, 864, Note_on_c, 0, 76, 42
1, 880, Note_on_c, 0, 72, 38
1, 880, Note_off_c, 0, 76, 42
1, 895, Note_on_c, 0, 76, 39
1, 896, Note_off_c, 0, 72, 38
1, 911, Note_off_c, 0, 76, 39
1, 912, Note_on_c, 0, 77, 39
1, 960, Note_on_c, 0, 72, 46
1, 960, Note_off_c, 0, 77, 39
1, 1008, Note_off_c, 0, 72, 46
1, 1056, Note_on_c, 0, 74, 41
1, 1072, Note_on_c, 0, 72, 40
1, 1072, Note_off_c, 0, 74, 41
1, 1087, Note_on_c, 0, 74, 39
1, 1088, Note_off_c, 0, 72, 40
1, 1103, Note_off_c, 0, 74, 39
1, 1104, Note_on_c, 0, 77, 40
1, 1152, Note_on_c, 0, 74, 44
1, 1152, Note_off_c, 0, 77, 40
1, 1200, Note_off_c, 0, 74, 44
1, 1248, Note_on_c, 0, 77, 42
1, 1264, Note_on_c, 0, 74, 38
1, 1264, Note_off_c, 0, 77, 42
1, 1279, Note_on_c, 0, 77, 39
1, 1280, Note_off_c, 0, 74, 38
1, 1295, Note_off_c, 0, 77, 39
1, 1296, Note_on_c, 0, 81, 38
1, 1344, Note_on_c, 0, 72, 42
1, 1344, Note_off_c, 0, 81, 38
1, 1392, Note_off_c, 0, 72, 42
1, 1440, Note_on_c, 0, 76, 41
1, 1456, Note_on_c, 0, 72, 39
1, 1456, Note_off_c, 0, 76, 41
1, 1471, Note_on_c, 0, 76, 40
1, 1472, Note_off_c, 0, 72, 39
1, 1487, Note_off_c, 0, 76, 40
1, 1488, Note_on_c, 0, 81, 40
1, 1533, Note_off_c, 0, 81, 40
1, 0, Control_c, 0, 1, 0
1, 0, Note_on_c, 0, 36, 79
1, 0, Note_on_c, 0, 76, 108
1, 96, Note_off_c, 0, 76, 108
1, 96, Note_on_c, 0, 79, 100
1, 144, Note_on_c, 0, 76, 98
1, 144, Note_off_c, 0, 79, 100
1, 192, Note_on_c, 0, 72, 103
1, 192, Note_off_c, 0, 76, 98
1, 384, Note_off_c, 0, 36, 79
1, 384, Note_on_c, 0, 41, 72
1, 384, Note_off_c, 0, 72, 103
1, 384, Note_on_c, 0, 81, 108
1, 571, Note_off_c, 0, 81, 108
1, 576, Note_on_c, 0, 81, 102
1, 768, Note_off_c, 0, 41, 72
1, 768, Note_on_c, 0, 45, 73
1, 768, Note_on_c, 0, 72, 107
1, 768, Note_off_c, 0, 81, 102
1, 955, Note_off_c, 0, 72, 107
1, 960, Note_on_c, 0, 72, 106
1, 1056, Note_on_c, 0, 69, 99
1, 1056, Note_off_c, 0, 72, 106
1, 1152, Note_on_c, 0, 43, 72
1, 1152, Note_off_c, 0, 45, 73
1, 1152, Note_off_c, 0, 69, 99
1, 1152, Note_on_c, 0, 71, 104
1, 1344, Note_off_c, 0, 71, 104
1, 1344, Note_on_c, 0, 79, 106
1, 1536, Note_on_c, 0, 36, 78
1, 1536, Note_off_c, 0, 43, 72
1, 1536, Note_on_c, 0, 76, 109
1, 1536, Note_off_c, 0, 79, 106
1, 1632, Note_off_c, 0, 76, 109
1, 1632, Note_on_c, 0, 79, 99
1, 1680, Note_on_c, 0, 76, 94
1, 1680, Note_off_c, 0, 79, 99
1, 1728, Note_on_c, 0, 72, 104
1, 1728, Note_off_c, 0, 76, 94
1, 1920, Note_off_c, 0, 36, 78
1, 1920, Note_on_c, 0, 41, 72
1, 1920, Note_off_c, 0, 72, 104
1, 1920, Note_on_c, 0, 81, 109
1, 2107, Note_off_c, 0, 81, 109
1, 2112, Note_on_c, 0, 81, 102
1, 2304, Note_off_c, 0, 41, 72
1, 2304, Note_on_c, 0, 45, 77
1, 2304, Note_on_c, 0, 72, 111
1, 2304, Note_off_c, 0, 81, 102
1, 2491, Note_off_c, 0, 72, 111
1, 2496, Note_on_c, 0, 72, 105
1, 2592, Note_on_c, 0, 69, 99
1, 2592, Note_off_c, 0, 72, 105
1, 2688, Note_on_c, 0, 43, 77
1, 2688, Note_off_c, 0, 45, 77
1, 2688, Note_off_c, 0, 69, 99
1, 2688, Note_on_c, 0, 71, 109
1, 2880, Note_off_c, 0, 71, 109
1, 2880, Note_on_c, 0, 79, 106
1, 3067, Note_off_c, 0, 43, 77
1, 3067, Note_off_c, 0, 79, 106
1, 0, Control_c, 0, 64, 0
1, 0, Note_on_c, 0, 38, 99
1, 0, Note_on_c, 0, 69, 107
1, 48, Note_off_c, 0, 69, 64
1, 96, Note_on_c, 0, 67, 107
1, 115, Control_c, 0, 64, 0
1, 115, Control_c, 0, 64, 0
1, 144, Note_off_c, 0, 67, 64
1, 192, Note_on_c, 0, 65, 107
1, 216, Note_off_c, 0, 65, 64
1, 216, Note_on_c, 0, 65, 107
1, 240, Note_off_c, 0, 65, 64
1, 264, Note_on_c, 0, 67, 107
1, 312, Note_off_c, 0, 67, 64
1, 336, Note_on_c, 0, 62, 107
1, 384, Note_off_c, 0, 62, 64
1, 480, Note_off_c, 0, 38, 64
1, 480, Note_on_c, 0, 48, 99
1, 480, Note_on_c, 0, 62, 107
1, 504, Note_off_c, 0, 62, 64
1, 528, Note_on_c, 0, 64, 107
1, 552, Note_off_c, 0, 64, 64
1, 576, Note_on_c, 0, 65, 107
1, 600, Note_on_c, 0, 62, 107
1, 600, Note_off_c, 0, 65, 64
1, 624, Note_off_c, 0, 62, 64
1, 648, Note_on_c, 0, 69, 107
1, 696, Note_off_c, 0, 69, 64
1, 768, Note_on_c, 0, 43, 99
1, 768, Note_off_c, 0, 48, 64
1, 768, Note_on_c, 0, 69, 107
1, 816, Note_off_c, 0, 69, 64
1, 864, Note_on_c, 0, 67, 107
1, 912, Note_off_c, 0, 67, 64
1, 960, Note_on_c, 0, 67, 107
1, 984, Note_off_c, 0, 67, 64
1, 984, Note_on_c, 0, 67, 107
1, 1008, Note_off_c, 0, 67, 64
1, 1032, Note_on_c, 0, 65, 107
1, 1080, Note_off_c, 0, 65, 64
1, 1104, Note_on_c, 0, 64, 107
1, 1152, Note_off_c, 0, 64, 64
1, 1248, Note_on_c, 0, 41, 99
1, 1248, Note_off_c, 0, 43, 64
1, 1248, Note_on_c, 0, 65, 107
1, 1272, Note_off_c, 0, 65, 64
1, 1296, Note_on_c, 0, 64, 107
1, 1320, Note_off_c, 0, 64, 64
1, 1344, Note_on_c, 0, 65, 107
1, 1368, Note_on_c, 0, 64, 107
1, 1368, Note_off_c, 0, 65, 64
1, 1392, Note_off_c, 0, 64, 64
1, 1416, Note_on_c, 0, 62, 107
1, 1464, Note_off_c, 0, 62, 64
1, 1535, Control_c, 0, 64, 0
1, 1535, Control_c, 0, 64, 0
1, 1536, Control_c, 0, 64, 0
1, 1536, Note_off_c, 0, 41, 64
1, 1651, Control_c, 0, 64, 0
1, 1651, Control_c, 0, 64, 0
1, 3071, Control_c, 0, 64, 0
1, 3071, Control_c, 0, 64, 0
1, 3072, Control_c, 0, 64, 0
1, 3187, Control_c, 0, 64, 0
1, 3187, Control_c, 0, 64, 0
1, 4607, Control_c, 0, 64, 0
1, 4607, Control_c, 0, 64, 0
1, 4608, Control_c, 0, 64, 0
1, 4723, Control_c, 0, 64, 0
1, 4723, Control_c, 0, 64, 0
1, 6143, Control_c, 0, 64, 0
1, 6143, Control_c, 0, 64, 0
1, 0, Note_on_c, 0, 57, 76
1, 47, Note_off_c, 0, 57, 76
1, 48, Note_on_c, 0, 64, 76
1, 95, Note_off_c, 0, 64, 76
1, 95, Note_on_c, 0, 69, 76
1, 143, Note_on_c, 0, 76, 76
1, 150, Note_off_c, 0, 69, 76
1, 191, Note_off_c, 0, 76, 76
1, 192, Note_on_c, 0, 57, 76
1, 239, Note_off_c, 0, 57, 76
1, 240, Note_on_c, 0, 64, 76
1, 287, Note_off_c, 0, 64, 76
1, 287, Note_on_c, 0, 69, 76
1, 335, Note_on_c, 0, 76, 76
1, 342, Note_off_c, 0, 69, 76
1, 383, Note_off_c, 0, 76, 76
1, 384, Note_on_c, 0, 53, 76
1, 431, Note_off_c, 0, 53, 76
1, 431, Note_on_c, 0, 63, 76
1, 479, Note_off_c, 0, 63, 76
1, 480, Note_on_c, 0, 69, 76
1, 527, Note_on_c, 0, 74, 76
1, 533, Note_off_c, 0, 69, 76
1, 573, Note_off_c, 0, 74, 76
1, 576, Note_on_c, 0, 53, 76
1, 623, Note_off_c, 0, 53, 76
1, 623, Note_on_c, 0, 63, 76
1, 671, Note_off_c, 0, 63, 76
1, 672, Note_on_c, 0, 69, 76
1, 719, Note_on_c, 0, 74, 76
1, 725, Note_off_c, 0, 69, 76
1, 765, Note_off_c, 0, 74, 76
1, 768, Note_on_c, 0, 53, 76
1, 815, Note_off_c, 0, 53, 76
1, 815, Note_on_c, 0, 67, 76
1, 863, Note_off_c, 0, 67, 76
1, 863, Note_on_c, 0, 72, 76
1, 911, Note_off_c, 0, 72, 76
1, 911, Note_on_c, 0, 79, 76
1, 957, Note_off_c, 0, 79, 76
1, 960, Note_on_c, 0, 53, 76
1, 1007, Note_off_c, 0, 53, 76
1, 1007, Note_on_c, 0, 67, 76
1, 1055, Note_off_c, 0, 67, 76
1, 1055, Note_on_c, 0, 72, 76
1, 1103, Note_off_c, 0, 72, 76
1, 1103, Note_on_c, 0, 79, 76
1, 1149, Note_off_c, 0, 79, 76
1, 1151, Note_on_c, 0, 52, 76
1, 1199, Note_off_c, 0, 52, 76
1, 1199, Note_on_c, 0, 64, 76
1, 1247, Note_on_c, 0, 69, 76
1, 1247, Note_off_c, 0, 64, 76
1, 1295, Note_on_c, 0, 76, 76
1, 1302, Note_off_c, 0, 69, 76
1, 1342, Note_off_c, 0, 76, 76
1, 1343, Note_on_c, 0, 52, 76
1, 1391, Note_off_c, 0, 52, 76
1, 1391, Note_on_c, 0, 64, 76
1, 1439, Note_on_c, 0, 69, 76
1, 1439, Note_off_c, 0, 64, 76
1, 1487, Note_on_c, 0, 76, 76
1, 1494, Note_off_c, 0, 69, 76
1, 1534, Note_off_c, 0, 76, 76
1, 0, Pitch_bend_c, 0, 8192
1, 0, Control_c, 0, 6, 12
1, 0, Control_c, 0, 7, 100
1, 0, Control_c, 0, 10, 64
1, 0, Control_c, 0, 100, 0
1, 0, Control_c, 0, 101, 0
1, 0, Note_on_c, 0, 76, 100
1, 0, Note_on_c, 0, 81, 100
1, 0, Note_on_c, 0, 84, 100
1, 96, Note_on_c, 0, 69, 100
1, 96, Note_off_c, 0, 76, 64
1, 96, Note_off_c, 0, 81, 64
1, 96, Note_off_c, 0, 84, 64
1, 144, Note_off_c, 0, 69, 64
1, 144, Note_on_c, 0, 79, 100
1, 240, Note_off_c, 0, 79, 64
1, 288, Note_on_c, 0, 76, 100
1, 384, Note_on_c, 0, 72, 100
1, 384, Note_off_c, 0, 76, 64
1, 480, Note_off_c, 0, 72, 64
1, 528, Note_on_c, 0, 81, 100
1, 624, Note_off_c, 0, 81, 64
1, 672, Note_on_c, 0, 79, 100
1, 672, Note_on_c, 0, 83, 100
1, 672, Note_on_c, 0, 86, 100
1, 720, Note_off_c, 0, 79, 64
1, 720, Note_off_c, 0, 83, 64
1, 720, Note_off_c, 0, 86, 64
1, 768, Note_on_c, 0, 76, 100
1, 768, Note_on_c, 0, 81, 100
1, 768, Note_on_c, 0, 84, 100
1, 864, Note_off_c, 0, 76, 64
1, 864, Note_off_c, 0, 81, 64
1, 864, Note_off_c, 0, 84, 64
1, 912, Note_on_c, 0, 79, 100
1, 1008, Note_off_c, 0, 79, 64
1, 1056, Note_on_c, 0, 76, 100
1, 1152, Note_on_c, 0, 72, 100
1, 1152, Note_off_c, 0, 76, 64
1, 1248, Note_on_c, 0, 69, 100
1, 1248, Note_off_c, 0, 72, 64
1, 1296, Note_off_c, 0, 69, 64
1, 1296, Note_on_c, 0, 76, 100
1, 1296, Note_on_c, 0, 81, 100
1, 1296, Note_on_c, 0, 84, 100
1, 1392, Note_off_c, 0, 76, 64
1, 1392, Note_on_c, 0, 79, 100
1, 1392, Note_off_c, 0, 81, 64
1, 1392, Note_on_c, 0, 83, 100
1, 1392, Note_off_c, 0, 84, 64
1, 1392, Note_on_c, 0, 86, 100
1, 1488, Note_on_c, 0, 76, 100
1, 1488, Note_off_c, 0, 79, 64
1, 1488, Note_on_c, 0, 81, 100
1, 1488, Note_off_c, 0, 83, 64
1, 1488, Note_on_c, 0, 84, 100
1, 1488, Note_off_c, 0, 86, 64
1, 1524, Note_off_c, 0, 76, 64
1, 1524, Note_off_c, 0, 81, 64
1, 1524, Note_off_c, 0, 84, 64
1, 3072, Pitch_bend_c, 0, 8192
1, 3072, Pitch_bend_c, 0, 8192
1, 3072, Control_c, 0, 6, 12
1, 3072, Control_c, 0, 6, 12
1, 3072, Control_c, 0, 7, 100
1, 3072, Control_c, 0, 7, 100
1, 3072, Control_c, 0, 10, 64
1, 3072, Control_c, 0, 10, 64
1, 3072, Control_c, 0, 100, 0
1, 3072, Control_c, 0, 100, 0
1, 3072, Control_c, 0, 101, 0
1, 3072, Control_c, 0, 101, 0
1, 0, Control_c, 0, 1, 70
1, 0, Note_on_c, 0, 36, 79
1, 0, Note_on_c, 0, 72, 74
1, 192, Note_on_c, 0, 67, 73
1, 192, Note_off_c, 0, 72, 74
1, 288, Note_off_c, 0, 67, 73
1, 288, Note_on_c, 0, 71, 68
1, 336, Note_on_c, 0, 67, 69
1, 336, Note_off_c, 0, 71, 68
1, 384, Note_on_c, 0, 33, 73
1, 384, Note_off_c, 0, 36, 79
1, 384, Note_off_c, 0, 67, 69
1, 384, Note_on_c, 0, 69, 72
1, 571, Note_off_c, 0, 69, 72
1, 576, Note_on_c, 0, 69, 70
1, 768, Note_on_c, 0, 29, 72
1, 768, Note_off_c, 0, 33, 73
1, 768, Note_off_c, 0, 69, 70
1, 768, Note_on_c, 0, 72, 77
1, 960, Note_on_c, 0, 67, 71
1, 960, Note_off_c, 0, 72, 77
1, 1056, Note_off_c, 0, 67, 71
1, 1056, Note_on_c, 0, 71, 69
1, 1104, Note_on_c, 0, 67, 65
1, 1104, Note_off_c, 0, 71, 69
1, 1152, Note_off_c, 0, 29, 72
1, 1152, Note_on_c, 0, 31, 72
1, 1152, Note_on_c, 0, 60, 78
1, 1152, Note_off_c, 0, 67, 65
1, 1344, Note_off_c, 0, 60, 78
1, 1344, Note_on_c, 0, 67, 71
1, 1536, Note_off_c, 0, 31, 72
1, 1536, Note_off_c, 0, 67, 71
1, 0, Control_c, 0, 1, 40
1, 0, Note_on_c, 0, 76, 44
1, 48, Note_on_c, 0, 72, 40
1, 48, Note_off_c, 0, 76, 44
1, 96, Note_off_c, 0, 72, 40
1, 96, Note_on_c, 0, 79, 41
1, 192, Note_on_c, 0, 76, 42
1, 192, Note_off_c, 0, 79, 41
1, 240, Note_on_c, 0, 72, 39
1, 240, Note_off_c, 0, 76, 42
1, 288, Note_on_c, 0, 67, 40
1, 288, Note_off_c, 0, 72, 39
1, 384, Note_off_c, 0, 67, 40
1, 384, Note_on_c, 0, 74, 43
1, 432, Note_on_c, 0, 71, 40
1, 432, Note_off_c, 0, 74, 43
1, 480, Note_off_c, 0, 71, 40
1, 480, Note_on_c, 0, 79, 42
1, 576, Note_on_c, 0, 74, 42
1, 576, Note_off_c, 0, 79, 42
1, 624, Note_on_c, 0, 71, 40
1, 624, Note_off_c, 0, 74, 42
1, 672, Note_on_c, 0, 67, 40
1, 672, Note_off_c, 0, 71, 40
1, 768, Note_off_c, 0, 67, 40
1, 768, Note_on_c, 0, 76, 43
1, 816, Note_on_c, 0, 72, 40
1, 816, Note_off_c, 0, 76, 43
1, 864, Note_off_c, 0, 72, 40
1, 864, Note_on_c, 0, 81, 41
1, 960, Note_on_c, 0, 76, 43
1, 960, Note_off_c, 0, 81, 41
1, 1008, Note_on_c, 0, 72, 40
1, 1008, Note_off_c, 0, 76, 43
1, 1056, Note_on_c, 0, 69, 39
1, 1056, Note_off_c, 0, 72, 40
1, 1152, Note_off_c, 0, 69, 39
1, 1152, Note_on_c, 0, 72, 45
1, 1200, Note_on_c, 0, 69, 40
1, 1200, Note_off_c, 0, 72, 45
1, 1248, Note_off_c, 0, 69, 40
1, 1248, Note_on_c, 0, 77, 42
1, 1344, Note_on_c, 0, 72, 42
1, 1344, Note_off_c, 0, 77, 42
1, 1392, Note_on_c, 0, 69, 39
1, 1392, Note_off_c, 0, 72, 42
1, 1440, Note_on_c, 0, 65, 39
1, 1440, Note_off_c, 0, 69, 39
1, 1536, Note_off_c, 0, 65, 39
1, 3072, Control_c, 0, 1, 40
1, 3072, Control_c, 0, 1, 70
1, 0, Control_c, 0, 1, 40
1, 0, Note_on_c, 0, 76, 43
1, 96, Note_on_c, 0, 72, 41
1, 96, Note_off_c, 0, 76, 43
1, 128, Note_on_c, 0, 62, 40
1, 128, Note_off_c, 0, 72, 41
1, 159, Note_off_c, 0, 62, 40
1, 159, Note_on_c, 0, 69, 38
1, 192, Note_off_c, 0, 69, 38
1, 192, Note_on_c, 0, 76, 41
1, 288, Note_on_c, 0, 72, 39
1, 288, Note_off_c, 0, 76, 41
1, 319, Note_on_c, 0, 62, 40
1, 320, Note_off_c, 0, 72, 39
1, 351, Note_off_c, 0, 62, 40
1, 351, Note_on_c, 0, 69, 39
1, 383, Note_off_c, 0, 69, 39
1, 384, Note_on_c, 0, 77, 43
1, 480, Note_on_c, 0, 72, 40
1, 480, Note_off_c, 0, 77, 43
1, 512, Note_on_c, 0, 65, 39
1, 512, Note_off_c, 0, 72, 40
1, 543, Note_off_c, 0, 65, 39
1, 543, Note_on_c, 0, 69, 40
1, 576, Note_off_c, 0, 69, 40
1, 576, Note_on_c, 0, 77, 42
1, 672, Note_on_c, 0, 72, 39
1, 672, Note_off_c, 0, 77, 42
1, 703, Note_on_c, 0, 65, 40
1, 704, Note_off_c, 0, 72, 39
1, 735, Note_off_c, 0, 65, 40
1, 735, Note_on_c, 0, 69, 38
1, 767, Note_off_c, 0, 69, 38
1, 768, Note_on_c, 0, 76, 42
1, 864, Note_on_c, 0, 72, 41
1, 864, Note_off_c, 0, 76, 42
1, 895, Note_on_c, 0, 62, 38
1, 896, Note_off_c, 0, 72, 41
1, 927, Note_off_c, 0, 62, 38
1, 927, Note_on_c, 0, 69, 40
1, 960, Note_off_c, 0, 69, 40
1, 960, Note_on_c, 0, 76, 43
1, 1056, Note_on_c, 0, 72, 38
1, 1056, Note_off_c, 0, 76, 43
1, 1087, Note_on_c, 0, 62, 39
1, 1088, Note_off_c, 0, 72, 38
1, 1119, Note_off_c, 0, 62, 39
1, 1119, Note_on_c, 0, 69, 40
1, 1151, Note_off_c, 0, 69, 40
1, 1152, Note_on_c, 0, 74, 45
1, 1248, Note_on_c, 0, 69, 42
1, 1248, Note_off_c, 0, 74, 45
1, 1279, Note_on_c, 0, 62, 40
1, 1280, Note_off_c, 0, 69, 42
1, 1311, Note_off_c, 0, 62, 40
1, 1311, Note_on_c, 0, 67, 40
1, 1344, Note_off_c, 0, 67, 40
1, 1344, Note_on_c, 0, 74, 41
1, 1440, Note_on_c, 0, 69, 40
1, 1440, Note_off_c, 0, 74, 41
1, 1471, Note_on_c, 0, 62, 40
1, 1472, Note_off_c, 0, 69, 40
1, 1503, Note_off_c, 0, 62, 40
1, 1503, Note_on_c, 0, 67, 38
1, 1535, Note_off_c, 0, 67, 38
1, 0, Control_c, 0, 1, 70
1, 0, Note_on_c, 0, 45, 74
1, 32, Note_off_c, 0, 45, 74
1, 32, Note_on_c, 0, 48, 65
1, 63, Note_off_c, 0, 48, 65
1, 63, Note_on_c, 0, 57, 67
1, 96, Note_on_c, 0, 52, 72
1, 96, Note_off_c, 0, 57, 67
1, 128, Note_on_c, 0, 45, 67
1, 128, Note_off_c, 0, 52, 72
1, 159, Note_off_c, 0, 45, 67
1, 159, Note_on_c, 0, 48, 65
1, 192, Note_off_c, 0, 48, 65
1, 192, Note_on_c, 0, 57, 73
1, 223, Note_on_c, 0, 52, 67
1, 224, Note_off_c, 0, 57, 73
1, 255, Note_on_c, 0, 45, 68
1, 255, Note_off_c, 0, 52, 67
1, 287, Note_off_c, 0, 45, 68
1, 287, Note_on_c, 0, 48, 68
1, 319, Note_off_c, 0, 48, 68
1, 319, Note_on_c, 0, 57, 67
1, 351, Note_on_c, 0, 52, 69
1, 351, Note_off_c, 0, 57, 67
1, 383, Note_off_c, 0, 52, 69
1, 384, Note_on_c, 0, 43, 75
1, 416, Note_off_c, 0, 43, 75
1, 416, Note_on_c, 0, 47, 68
1, 447, Note_off_c, 0, 47, 68
1, 447, Note_on_c, 0, 55, 65
1, 479, Note_off_c, 0, 55, 65
1, 480, Note_on_c, 0, 52, 72
1, 512, Note_on_c, 0, 43, 66
1, 512, Note_off_c, 0, 52, 72
1, 543, Note_off_c, 0, 43, 66
1, 543, Note_on_c, 0, 47, 65
1, 576, Note_off_c, 0, 47, 65
1, 576, Note_on_c, 0, 55, 70
1, 607, Note_on_c, 0, 52, 66
1, 608, Note_off_c, 0, 55, 70
1, 639, Note_on_c, 0, 43, 68
1, 639, Note_off_c, 0, 52, 66
1, 671, Note_off_c, 0, 43, 68
1, 672, Note_on_c, 0, 47, 67
1, 703, Note_on_c, 0, 55, 67
1, 704, Note_off_c, 0, 47, 67
1, 735, Note_on_c, 0, 52, 66
1, 735, Note_off_c, 0, 55, 67
1, 767, Note_off_c, 0, 52, 66
1, 768, Note_on_c, 0, 45, 72
1, 799, Note_on_c, 0, 48, 69
1, 800, Note_off_c, 0, 45, 72
1, 831, Note_off_c, 0, 48, 69
1, 831, Note_on_c, 0, 57, 66
1, 864, Note_on_c, 0, 52, 69
1, 864, Note_off_c, 0, 57, 66
1, 895, Note_on_c, 0, 45, 69
1, 896, Note_off_c, 0, 52, 69
1, 927, Note_off_c, 0, 45, 69
1, 927, Note_on_c, 0, 48, 67
1, 960, Note_off_c, 0, 48, 67
1, 960, Note_on_c, 0, 57, 72
1, 991, Note_on_c, 0, 52, 68
1, 992, Note_off_c, 0, 57, 72
1, 1023, Note_on_c, 0, 45, 67
1, 1023, Note_off_c, 0, 52, 68
1, 1055, Note_off_c, 0, 45, 67
1, 1056, Note_on_c, 0, 48, 69
1, 1087, Note_on_c, 0, 57, 67
1, 1088, Note_off_c, 0, 48, 69
1, 1119, Note_on_c, 0, 52, 67
1, 1119, Note_off_c, 0, 57, 67
1, 1151, Note_off_c, 0, 52, 67
1, 1152, Note_on_c, 0, 45, 77
1, 1183, Note_on_c, 0, 50, 69
1, 1184, Note_off_c, 0, 45, 77
1, 1215, Note_off_c, 0, 50, 69
1, 1215, Note_on_c, 0, 57, 65
1, 1248, Note_on_c, 0, 53, 72
1, 1248, Note_off_c, 0, 57, 65
1, 1279, Note_on_c, 0, 45, 65
1, 1280, Note_off_c, 0, 53, 72
1, 1311, Note_off_c, 0, 45, 65
1, 1311, Note_on_c, 0, 50, 67
1, 1344, Note_off_c, 0, 50, 67
1, 1344, Note_on_c, 0, 57, 72
1, 1375, Note_on_c, 0, 53, 67
1, 1376, Note_off_c, 0, 57, 72
1, 1407, Note_on_c, 0, 45, 65
1, 1407, Note_off_c, 0, 53, 67
1, 1439, Note_off_c, 0, 45, 65
1, 1440, Note_on_c, 0, 50, 66
1, 1471, Note_on_c, 0, 57, 66
1, 1472, Note_off_c, 0, 50, 66
1, 1503, Note_on_c, 0, 53, 65
1, 1503, Note_off_c, 0, 57, 66
1, 1535, Note_off_c, 0, 53, 65
1, 3072, Control_c, 0, 1, 70
1, 3072, Control_c, 0, 1, 40
1, 0, Control_c, 0, 1, 70
1, 0, Note_on_c, 0, 36, 74
1, 0, Note_on_c, 0, 57, 76
1, 187, Note_off_c, 0, 57, 76
1, 192, Note_on_c, 0, 57, 69
1, 288, Note_off_c, 0, 57, 69
1, 288, Note_on_c, 0, 67, 67
1, 379, Note_off_c, 0, 36, 74
1, 384, Note_on_c, 0, 36, 75
1, 384, Note_on_c, 0, 64, 73
1, 384, Note_off_c, 0, 67, 67
1, 576, Note_on_c, 0, 55, 72
1, 576, Note_off_c, 0, 64, 73
1, 768, Note_off_c, 0, 36, 75
1, 768, Note_on_c, 0, 38, 74
1, 768, Note_off_c, 0, 55, 72
1, 768, Note_on_c, 0, 57, 73
1, 955, Note_off_c, 0, 57, 73
1, 960, Note_on_c, 0, 57, 69
1, 1056, Note_off_c, 0, 57, 69
1, 1056, Note_on_c, 0, 67, 67
1, 1147, Note_off_c, 0, 38, 74
1, 1152, Note_on_c, 0, 38, 79
1, 1152, Note_off_c, 0, 67, 67
1, 1152, Note_on_c, 0, 74, 77
1, 1344, Note_on_c, 0, 67, 69
1, 1344, Note_off_c, 0, 74, 77
1, 1536, Note_off_c, 0, 38, 79
1, 1536, Note_off_c, 0, 67, 69
1, 0, Note_on_c, 0, 81, 52
1, 48, Note_off_c, 0, 81, 52
1, 48, Note_on_c, 0, 88, 68
1, 96, Note_off_c, 0, 88, 68
1, 96, Note_on_c, 0, 100, 70
1, 144, Note_on_c, 0, 81, 52
1, 144, Note_off_c, 0, 100, 70
1, 192, Note_off_c, 0, 81, 52
1, 192, Note_on_c, 0, 88, 68
1, 240, Note_off_c, 0, 88, 68
1, 240, Note_on_c, 0, 100, 70
1, 288, Note_on_c, 0, 81, 52
1, 288, Note_off_c, 0, 100, 70
1, 336, Note_off_c, 0, 81, 52
1, 336, Note_on_c, 0, 88, 68
1, 384, Note_off_c, 0, 88, 68
1, 384, Note_on_c, 0, 88, 73
1, 432, Note_off_c, 0, 88, 73
1, 432, Note_on_c, 0, 93, 97
1, 480, Note_off_c, 0, 93, 97
1, 480, Note_on_c, 0, 96, 55
1, 528, Note_on_c, 0, 88, 73
1, 528, Note_off_c, 0, 96, 55
1, 576, Note_off_c, 0, 88, 73
1, 576, Note_on_c, 0, 93, 97
1, 624, Note_off_c, 0, 93, 97
1, 624, Note_on_c, 0, 96, 55
1, 672, Note_on_c, 0, 88, 73
1, 672, Note_off_c, 0, 96, 55
1, 720, Note_off_c, 0, 88, 73
1, 720, Note_on_c, 0, 93, 97
1, 768, Note_on_c, 0, 89, 82
1, 768, Note_off_c, 0, 93, 97
1, 816, Note_off_c, 0, 89, 82
1, 816, Note_on_c, 0, 96, 93
1, 864, Note_off_c, 0, 96, 93
1, 864, Note_on_c, 0, 101, 30
1, 912, Note_on_c, 0, 89, 82
1, 912, Note_off_c, 0, 101, 30
1, 960, Note_off_c, 0, 89, 82
1, 960, Note_on_c, 0, 96, 93
1, 1008, Note_off_c, 0, 96, 93
1, 1008, Note_on_c, 0, 101, 30
1, 1056, Note_on_c, 0, 89, 82
1, 1056, Note_off_c, 0, 101, 30
1, 1104, Note_off_c, 0, 89, 82
1, 1104, Note_on_c, 0, 96, 93
1, 1152, Note_on_c, 0, 84, 88
1, 1152, Note_off_c, 0, 96, 93
1, 1200, Note_off_c, 0, 84, 88
1, 1200, Note_on_c, 0, 93, 100
1, 1248, Note_off_c, 0, 93, 100
1, 1248, Note_on_c, 0, 108, 12
1, 1296, Note_on_c, 0, 84, 88
1, 1296, Note_off_c, 0, 108, 12
1, 1344, Note_off_c, 0, 84, 88
1, 1344, Note_on_c, 0, 95, 74
1, 1392, Note_on_c, 0, 84, 88
1, 1392, Note_off_c, 0, 95, 74
1, 1392, Note_on_c, 0, 105, 64
1, 1440, Note_off_c, 0, 84, 88
1, 1440, Note_on_c, 0, 95, 88
1, 1440, Note_off_c, 0, 105, 64
1, 1488, Note_off_c, 0, 95, 88
1, 0, Control_c, 0, 1, 70
1, 0, Note_on_c, 0, 67, 72
1, 31, Note_off_c, 0, 67, 72
1, 31, Note_on_c, 0, 76, 68
1, 64, Note_off_c, 0, 76, 68
1, 64, Note_on_c, 0, 79, 69
1, 96, Note_on_c, 0, 72, 68
1, 96, Note_off_c, 0, 79, 69
1, 127, Note_on_c, 0, 67, 66
1, 127, Note_off_c, 0, 72, 68
1, 160, Note_off_c, 0, 67, 66
1, 160, Note_on_c, 0, 76, 69
1, 192, Note_off_c, 0, 76, 69
1, 192, Note_on_c, 0, 81, 72
1, 223, Note_on_c, 0, 72, 68
1, 223, Note_off_c, 0, 81, 72
1, 255, Note_on_c, 0, 67, 69
1, 255, Note_off_c, 0, 72, 68
1, 287, Note_off_c, 0, 67, 69
1, 287, Note_on_c, 0, 76, 65
1, 319, Note_off_c, 0, 76, 65
1, 319, Note_on_c, 0, 79, 68
1, 351, Note_on_c, 0, 72, 65
1, 351, Note_off_c, 0, 79, 68
1, 383, Note_off_c, 0, 72, 65
1, 384, Note_on_c, 0, 67, 72
1, 415, Note_off_c, 0, 67, 72
1, 415, Note_on_c, 0, 76, 67
1, 447, Note_on_c, 0, 79, 65
1, 448, Note_off_c, 0, 76, 67
1, 479, Note_off_c, 0, 79, 65
1, 480, Note_on_c, 0, 72, 71
1, 511, Note_on_c, 0, 67, 68
1, 511, Note_off_c, 0, 72, 71
1, 544, Note_off_c, 0, 67, 68
1, 544, Note_on_c, 0, 76, 67
1, 576, Note_off_c, 0, 76, 67
1, 576, Note_on_c, 0, 81, 73
1, 607, Note_on_c, 0, 72, 68
1, 607, Note_off_c, 0, 81, 73
1, 639, Note_on_c, 0, 67, 66
1, 639, Note_off_c, 0, 72, 68
1, 671, Note_off_c, 0, 67, 66
1, 672, Note_on_c, 0, 76, 69
1, 703, Note_off_c, 0, 76, 69
1, 703, Note_on_c, 0, 79, 67
1, 735, Note_on_c, 0, 72, 65
1, 735, Note_off_c, 0, 79, 67
1, 767, Note_off_c, 0, 72, 65
1, 768, Note_on_c, 0, 65, 77
1, 799, Note_off_c, 0, 65, 77
1, 799, Note_on_c, 0, 74, 67
1, 831, Note_off_c, 0, 74, 67
1, 832, Note_on_c, 0, 77, 67
1, 864, Note_on_c, 0, 69, 72
1, 864, Note_off_c, 0, 77, 67
1, 895, Note_on_c, 0, 65, 67
1, 895, Note_off_c, 0, 69, 72
1, 927, Note_off_c, 0, 65, 67
1, 928, Note_on_c, 0, 74, 67
1, 960, Note_off_c, 0, 74, 67
1, 960, Note_on_c, 0, 79, 74
1, 991, Note_on_c, 0, 69, 65
1, 991, Note_off_c, 0, 79, 74
1, 1023, Note_on_c, 0, 65, 69
1, 1023, Note_off_c, 0, 69, 65
1, 1055, Note_off_c, 0, 65, 69
1, 1056, Note_on_c, 0, 74, 66
1, 1087, Note_off_c, 0, 74, 66
1, 1087, Note_on_c, 0, 77, 68
1, 1119, Note_on_c, 0, 69, 66
1, 1119, Note_off_c, 0, 77, 68
1, 1151, Note_off_c, 0, 69, 66
1, 1152, Note_on_c, 0, 65, 75
1, 1183, Note_off_c, 0, 65, 75
1, 1183, Note_on_c, 0, 74, 69
1, 1215, Note_off_c, 0, 74, 69
1, 1216, Note_on_c, 0, 77, 69
1, 1248, Note_on_c, 0, 69, 69
1, 1248, Note_off_c, 0, 77, 69
1, 1279, Note_on_c, 0, 65, 69
1, 1279, Note_off_c, 0, 69, 69
1, 1311, Note_off_c, 0, 65, 69
1, 1312, Note_on_c, 0, 74, 69
1, 1344, Note_off_c, 0, 74, 69
1, 1344, Note_on_c, 0, 81, 73
1, 1375, Note_on_c, 0, 69, 65
1, 1375, Note_off_c, 0, 81, 73
1, 1407, Note_on_c, 0, 65, 65
1, 1407, Note_off_c, 0, 69, 65
1, 1439, Note_off_c, 0, 65, 65
1, 1440, Note_on_c, 0, 74, 67
1, 1471, Note_off_c, 0, 74, 67
1, 1471, Note_on_c, 0, 77, 69
1, 1503, Note_on_c, 0, 69, 65
1, 1503, Note_off_c, 0, 77, 69
1, 1535, Note_off_c, 0, 69, 65
1, 0, Control_c, 0, 1, 70
1, 0, Note_on_c, 0, 77, 74
1, 31, Note_off_c, 0, 77, 74
1, 31, Note_on_c, 0, 84, 65
1, 64, Note_on_c, 0, 79, 64
1, 64, Note_off_c, 0, 84, 65
1, 96, Note_off_c, 0, 79, 64
1, 96, Note_on_c, 0, 89, 68
1, 127, Note_on_c, 0, 77, 66
1, 127, Note_off_c, 0, 89, 68
1, 160, Note_off_c, 0, 77, 66
1, 160, Note_on_c, 0, 84, 66
1, 192, Note_on_c, 0, 74, 72
1, 192, Note_off_c, 0, 84, 66
1, 223, Note_off_c, 0, 74, 72
1, 223, Note_on_c, 0, 84, 65
1, 255, Note_off_c, 0, 84, 65
1, 256, Note_on_c, 0, 79, 66
1, 288, Note_off_c, 0, 79, 66
1, 288, Note_on_c, 0, 86, 71
1, 319, Note_on_c, 0, 74, 67
1, 319, Note_off_c, 0, 86, 71
1, 352, Note_off_c, 0, 74, 67
1, 352, Note_on_c, 0, 84, 64
1, 384, Note_on_c, 0, 74, 77
1, 384, Note_off_c, 0, 84, 64
1, 415, Note_off_c, 0, 74, 77
1, 415, Note_on_c, 0, 81, 64
1, 447, Note_on_c, 0, 79, 65
1, 448, Note_off_c, 0, 81, 64
1, 479, Note_off_c, 0, 79, 65
1, 480, Note_on_c, 0, 86, 72
1, 511, Note_on_c, 0, 74, 67
1, 511, Note_off_c, 0, 86, 72
1, 544, Note_off_c, 0, 74, 67
1, 544, Note_on_c, 0, 81, 68
1, 576, Note_on_c, 0, 74, 76
1, 576, Note_off_c, 0, 81, 68
1, 607, Note_off_c, 0, 74, 76
1, 607, Note_on_c, 0, 84, 65
1, 639, Note_on_c, 0, 79, 65
1, 640, Note_off_c, 0, 84, 65
1, 671, Note_off_c, 0, 79, 65
1, 672, Note_on_c, 0, 86, 73
1, 703, Note_on_c, 0, 74, 66
1, 703, Note_off_c, 0, 86, 73
1, 736, Note_off_c, 0, 74, 66
1, 736, Note_on_c, 0, 84, 64
1, 768, Note_on_c, 0, 77, 74
1, 768, Note_off_c, 0, 84, 64
1, 799, Note_off_c, 0, 77, 74
1, 799, Note_on_c, 0, 84, 66
1, 831, Note_off_c, 0, 84, 66
1, 832, Note_on_c, 0, 79, 64
1, 864, Note_off_c, 0, 79, 64
1, 864, Note_on_c, 0, 89, 71
1, 895, Note_on_c, 0, 77, 64
1, 895, Note_off_c, 0, 89, 71
1, 927, Note_off_c, 0, 77, 64
1, 928, Note_on_c, 0, 84, 65
1, 960, Note_on_c, 0, 74, 75
1, 960, Note_off_c, 0, 84, 65
1, 991, Note_off_c, 0, 74, 75
1, 991, Note_on_c, 0, 84, 64
1, 1023, Note_off_c, 0, 84, 64
1, 1024, Note_on_c, 0, 79, 68
1, 1056, Note_off_c, 0, 79, 68
1, 1056, Note_on_c, 0, 86, 71
1, 1087, Note_on_c, 0, 74, 68
1, 1087, Note_off_c, 0, 86, 71
1, 1119, Note_off_c, 0, 74, 68
1, 1120, Note_on_c, 0, 84, 67
1, 1152, Note_on_c, 0, 74, 77
1, 1152, Note_off_c, 0, 84, 67
1, 1183, Note_off_c, 0, 74, 77
1, 1183, Note_on_c, 0, 81, 68
1, 1215, Note_off_c, 0, 81, 68
1, 1216, Note_on_c, 0, 79, 66
1, 1248, Note_off_c, 0, 79, 66
1, 1248, Note_on_c, 0, 86, 72
1, 1279, Note_on_c, 0, 74, 66
1, 1279, Note_off_c, 0, 86, 72
1, 1311, Note_off_c, 0, 74, 66
1, 1312, Note_on_c, 0, 81, 64
1, 1344, Note_on_c, 0, 74, 77
1, 1344, Note_off_c, 0, 81, 64
1, 1375, Note_off_c, 0, 74, 77
1, 1375, Note_on_c, 0, 84, 66
1, 1407, Note_off_c, 0, 84, 66
1, 1408, Note_on_c, 0, 79, 66
1, 1440, Note_off_c, 0, 79, 66
1, 1440, Note_on_c, 0, 86, 71
1, 1471, Note_on_c, 0, 74, 67
1, 1471, Note_off_c, 0, 86, 71
1, 1503, Note_off_c, 0, 74, 67
1, 1504, Note_on_c, 0, 84, 65
1, 1533, Note_off_c, 0, 84, 65
1, 0, Note_on_c, 0, 45, 112
1, 0, Note_on_c, 0, 52, 112
1, 0, Note_on_c, 0, 57, 117
1, 65, Note_off_c, 0, 57, 50
1, 96, Note_off_c, 0, 45, 64
1, 96, Note_off_c, 0, 52, 64
1, 96, Note_on_c, 0, 57, 103
1, 144, Note_on_c, 0, 41, 112
1, 144, Note_on_c, 0, 48, 112
1, 154, Note_off_c, 0, 57, 45
1, 192, Note_off_c, 0, 41, 64
1, 192, Note_on_c, 0, 41, 112
1, 192, Note_off_c, 0, 48, 64
1, 192, Note_on_c, 0, 48, 112
1, 192, Note_on_c, 0, 57, 94
1, 216, Note_off_c, 0, 41, 64
1, 216, Note_off_c, 0, 48, 64
1, 240, Note_on_c, 0, 41, 112
1, 240, Note_on_c, 0, 48, 112
1, 240, Note_off_c, 0, 57, 41
1, 264, Note_off_c, 0, 41, 64
1, 264, Note_off_c, 0, 48, 64
1, 288, Note_on_c, 0, 41, 112
1, 288, Note_on_c, 0, 48, 112
1, 288, Note_on_c, 0, 59, 94
1, 312, Note_off_c, 0, 41, 64
1, 312, Note_off_c, 0, 48, 64
1, 336, Note_on_c, 0, 41, 112
1, 336, Note_on_c, 0, 48, 112
1, 336, Note_off_c, 0, 59, 64
1, 336, Note_on_c, 0, 60, 97
1, 384, Note_off_c, 0, 41, 64
1, 384, Note_on_c, 0, 41, 112
1, 384, Note_off_c, 0, 48, 64
1, 384, Note_on_c, 0, 48, 112
1, 417, Note_off_c, 0, 60, 34
1, 432, Note_on_c, 0, 62, 98
1, 480, Note_off_c, 0, 41, 64
1, 480, Note_off_c, 0, 48, 64
1, 480, Note_on_c, 0, 64, 127
1, 488, Note_off_c, 0, 62, 40
1, 520, Note_off_c, 0, 64, 38
1, 528, Note_on_c, 0, 43, 112
1, 528, Note_on_c, 0, 50, 112
1, 528, Note_on_c, 0, 65, 107
1, 576, Note_off_c, 0, 43, 64
1, 576, Note_on_c, 0, 43, 112
1, 576, Note_off_c, 0, 50, 64
1, 576, Note_on_c, 0, 50, 112
1, 603, Note_off_c, 0, 65, 75
1, 624, Note_off_c, 0, 43, 64
1, 624, Note_off_c, 0, 50, 64
1, 624, Note_on_c, 0, 65, 112
1, 648, Note_on_c, 0, 43, 112
1, 648, Note_on_c, 0, 50, 112
1, 663, Note_off_c, 0, 65, 45
1, 672, Note_on_c, 0, 64, 103
1, 696, Note_off_c, 0, 43, 64
1, 696, Note_off_c, 0, 50, 64
1, 720, Note_on_c, 0, 43, 112
1, 720, Note_on_c, 0, 50, 112
1, 754, Note_off_c, 0, 64, 49
1, 768, Note_off_c, 0, 43, 64
1, 768, Note_on_c, 0, 45, 112
1, 768, Note_off_c, 0, 50, 64
1, 768, Note_on_c, 0, 52, 112
1, 768, Note_on_c, 0, 57, 102
1, 831, Note_off_c, 0, 57, 43
1, 864, Note_off_c, 0, 45, 64
1, 864, Note_off_c, 0, 52, 64
1, 864, Note_on_c, 0, 57, 91
1, 912, Note_on_c, 0, 38, 112
1, 912, Note_on_c, 0, 45, 112
1, 934, Note_off_c, 0, 57, 33
1, 960, Note_off_c, 0, 38, 64
1, 960, Note_on_c, 0, 38, 112
1, 960, Note_off_c, 0, 45, 64
1, 960, Note_on_c, 0, 45, 112
1, 960, Note_on_c, 0, 57, 86
1, 984, Note_off_c, 0, 38, 64
1, 984, Note_off_c, 0, 45, 64
1, 1008, Note_on_c, 0, 38, 112
1, 1008, Note_on_c, 0, 45, 112
1, 1029, Note_off_c, 0, 57, 41
1, 1032, Note_off_c, 0, 38, 64
1, 1032, Note_off_c, 0, 45, 64
1, 1056, Note_on_c, 0, 38, 112
1, 1056, Note_on_c, 0, 45, 112
1, 1056, Note_on_c, 0, 57, 85
1, 1080, Note_off_c, 0, 38, 64
1, 1080, Note_off_c, 0, 45, 64
1, 1104, Note_on_c, 0, 38, 112
1, 1104, Note_on_c, 0, 45, 112
1, 1120, Note_off_c, 0, 57, 43
1, 1152, Note_off_c, 0, 38, 64
1, 1152, Note_on_c, 0, 41, 112
1, 1152, Note_off_c, 0, 45, 64
1, 1152, Note_on_c, 0, 48, 112
1, 1152, Note_on_c, 0, 60, 103
1, 1200, Note_off_c, 0, 41, 64
1, 1200, Note_off_c, 0, 48, 64
1, 1200, Note_on_c, 0, 59, 108
1, 1207, Note_off_c, 0, 60, 64
1, 1240, Note_off_c, 0, 59, 42
1, 1248, Note_on_c, 0, 41, 112
1, 1248, Note_on_c, 0, 48, 112
1, 1296, Note_off_c, 0, 41, 64
1, 1296, Note_on_c, 0, 43, 112
1, 1296, Note_off_c, 0, 48, 64
1, 1296, Note_on_c, 0, 50, 112
1, 1296, Note_on_c, 0, 59, 117
1, 1344, Note_off_c, 0, 43, 64
1, 1344, Note_on_c, 0, 43, 112
1, 1344, Note_off_c, 0, 50, 64
1, 1344, Note_on_c, 0, 50, 112
1, 1392, Note_off_c, 0, 43, 64
1, 1392, Note_on_c, 0, 43, 112
1, 1392, Note_off_c, 0, 50, 64
1, 1392, Note_on_c, 0, 50, 112
1, 1392, Note_off_c, 0, 59, 49
1, 1392, Note_on_c, 0, 60, 121
1, 1439, Note_off_c, 0, 60, 66
1, 1440, Note_off_c, 0, 43, 64
1, 1440, Note_off_c, 0, 50, 64
1, 1440, Note_on_c, 0, 57, 121
1, 1505, Note_off_c, 0, 57, 40
1, 0, Channel_aftertouch_c, 0, 0
1, 0, Note_on_c, 0, 45, 78
1, 48, Note_on_c, 0, 57, 82
1, 96, Note_on_c, 0, 69, 71
1, 143, Note_on_c, 0, 72, 77
1, 240, Note_on_c, 0, 76, 80
1, 270, Note_off_c, 0, 57, 82
1, 273, Note_off_c, 0, 45, 78
1, 283, Note_off_c, 0, 69, 71
1, 290, Note_off_c, 0, 72, 77
1, 359, Note_off_c, 0, 76, 80
1, 385, Note_on_c, 0, 81, 71
1, 431, Note_on_c, 0, 77, 66
1, 432, Note_off_c, 0, 81, 71
1, 479, Note_off_c, 0, 77, 66
1, 480, Note_on_c, 0, 72, 69
1, 527, Note_on_c, 0, 60, 70
1, 575, Note_on_c, 0, 48, 67
1, 692, Note_off_c, 0, 72, 69
1, 702, Note_off_c, 0, 48, 67
1, 705, Note_off_c, 0, 60, 70
1, 770, Note_on_c, 0, 40, 61
1, 816, Note_on_c, 0, 52, 62
1, 864, Note_on_c, 0, 67, 58
1, 912, Note_on_c, 0, 71, 67
1, 959, Note_off_c, 0, 67, 58
1, 959, Note_off_c, 0, 71, 67
1, 959, Note_on_c, 0, 74, 71
1, 1040, Note_off_c, 0, 40, 61
1, 1041, Note_off_c, 0, 52, 62
1, 1056, Note_on_c, 0, 69, 67
1, 1070, Note_off_c, 0, 74, 71
1, 1104, Note_off_c, 0, 69, 67
1, 1152, Note_on_c, 0, 81, 72
1, 1199, Note_on_c, 0, 76, 68
1, 1235, Note_off_c, 0, 81, 72
1, 1247, Note_on_c, 0, 72, 64
1, 1281, Note_off_c, 0, 76, 68
1, 1296, Note_on_c, 0, 57, 62
1, 1343, Note_on_c, 0, 45, 64
1, 1383, Note_off_c, 0, 72, 64
1, 1455, Note_off_c, 0, 57, 62
1, 1503, Note_off_c, 0, 45, 64
1, 0, Control_c, 0, 1, 70
1, 0, Note_on_c, 0, 64, 73
1, 31, Note_off_c, 0, 64, 73
1, 31, Note_on_c, 0, 72, 65
1, 64, Note_on_c, 0, 67, 67
1, 64, Note_off_c, 0, 72, 65
1, 96, Note_on_c, 0, 64, 69
1, 96, Note_off_c, 0, 67, 67
1, 123, Note_off_c, 0, 64, 69
1, 127, Note_on_c, 0, 64, 67
1, 160, Note_off_c, 0, 64, 67
1, 160, Note_on_c, 0, 72, 67
1, 192, Note_on_c, 0, 67, 72
1, 192, Note_off_c, 0, 72, 67
1, 223, Note_on_c, 0, 64, 66
1, 223, Note_off_c, 0, 67, 72
1, 250, Note_off_c, 0, 64, 66
1, 255, Note_on_c, 0, 64, 65
1, 287, Note_off_c, 0, 64, 65
1, 287, Note_on_c, 0, 72, 68
1, 319, Note_on_c, 0, 67, 65
1, 319, Note_off_c, 0, 72, 68
1, 351, Note_on_c, 0, 64, 67
1, 351, Note_off_c, 0, 67, 65
1, 383, Note_off_c, 0, 64, 67
1, 384, Note_on_c, 0, 65, 74
1, 415, Note_off_c, 0, 65, 74
1, 415, Note_on_c, 0, 72, 65
1, 447, Note_on_c, 0, 69, 69
1, 448, Note_off_c, 0, 72, 65
1, 479, Note_off_c, 0, 69, 69
1, 480, Note_on_c, 0, 65, 70
1, 507, Note_off_c, 0, 65, 70
1, 511, Note_on_c, 0, 65, 66
1, 544, Note_off_c, 0, 65, 66
1, 544, Note_on_c, 0, 72, 69
1, 576, Note_on_c, 0, 69, 72
1, 576, Note_off_c, 0, 72, 69
1, 607, Note_on_c, 0, 65, 66
1, 607, Note_off_c, 0, 69, 72
1, 634, Note_off_c, 0, 65, 66
1, 639, Note_on_c, 0, 65, 69
1, 671, Note_off_c, 0, 65, 69
1, 672, Note_on_c, 0, 72, 67
1, 703, Note_on_c, 0, 69, 65
1, 703, Note_off_c, 0, 72, 67
1, 735, Note_on_c, 0, 65, 68
1, 735, Note_off_c, 0, 69, 65
1, 767, Note_off_c, 0, 65, 68
1, 768, Note_on_c, 0, 64, 79
1, 799, Note_off_c, 0, 64, 79
1, 799, Note_on_c, 0, 72, 65
1, 831, Note_off_c, 0, 72, 65
1, 832, Note_on_c, 0, 69, 69
1, 864, Note_on_c, 0, 64, 71
1, 864, Note_off_c, 0, 69, 69
1, 891, Note_off_c, 0, 64, 71
1, 895, Note_on_c, 0, 64, 67
1, 927, Note_off_c, 0, 64, 67
1, 928, Note_on_c, 0, 72, 65
1, 960, Note_on_c, 0, 69, 71
1, 960, Note_off_c, 0, 72, 65
1, 991, Note_on_c, 0, 64, 65
1, 991, Note_off_c, 0, 69, 71
1, 1018, Note_off_c, 0, 64, 65
1, 1023, Note_on_c, 0, 64, 65
1, 1055, Note_off_c, 0, 64, 65
1, 1056, Note_on_c, 0, 72, 65
1, 1087, Note_on_c, 0, 69, 67
1, 1087, Note_off_c, 0, 72, 65
1, 1119, Note_on_c, 0, 64, 68
1, 1119, Note_off_c, 0, 69, 67
1, 1151, Note_off_c, 0, 64, 68
1, 1152, Note_on_c, 0, 62, 76
1, 1183, Note_off_c, 0, 62, 76
1, 1183, Note_on_c, 0, 71, 68
1, 1215, Note_off_c, 0, 71, 68
1, 1216, Note_on_c, 0, 67, 69
1, 1248, Note_on_c, 0, 62, 72
1, 1248, Note_off_c, 0, 67, 69
1, 1275, Note_off_c, 0, 62, 72
1, 1279, Note_on_c, 0, 62, 69
1, 1311, Note_off_c, 0, 62, 69
1, 1312, Note_on_c, 0, 71, 66
1, 1344, Note_on_c, 0, 67, 74
1, 1344, Note_off_c, 0, 71, 66
1, 1375, Note_on_c, 0, 62, 66
1, 1375, Note_off_c, 0, 67, 74
1, 1402, Note_off_c, 0, 62, 66
1, 1407, Note_on_c, 0, 62, 66
1, 1439, Note_off_c, 0, 62, 66
1, 1440, Note_on_c, 0, 71, 69
1, 1471, Note_on_c, 0, 67, 69
1, 1471, Note_off_c, 0, 71, 69
1, 1503, Note_on_c, 0, 62, 67
1, 1503, Note_off_c, 0, 67, 69
1, 1535, Note_off_c, 0, 62, 67
1, 0, Control_c, 0, 1, 70
1, 0, Note_on_c, 0, 40, 75
1, 0, Note_on_c, 0, 64, 106
1, 192, Note_off_c, 0, 64, 106
1, 192, Note_on_c, 0, 67, 103
1, 288, Note_off_c, 0, 67, 103
1, 288, Note_on_c, 0, 69, 95
1, 384, Note_on_c, 0, 35, 72
1, 384, Note_off_c, 0, 40, 75
1, 384, Note_off_c, 0, 69, 95
1, 384, Note_on_c, 0, 71, 107
1, 576, Note_off_c, 0, 71, 107
1, 576, Note_on_c, 0, 74, 101
1, 768, Note_off_c, 0, 35, 72
1, 768, Note_on_c, 0, 36, 74
1, 768, Note_off_c, 0, 74, 101
1, 768, Note_on_c, 0, 83, 107
1, 960, Note_on_c, 0, 79, 101
1, 960, Note_off_c, 0, 83, 107
1, 1056, Note_on_c, 0, 78, 94
1, 1056, Note_off_c, 0, 79, 101
1, 1104, Note_off_c, 0, 78, 94
1, 1104, Note_on_c, 0, 79, 98
1, 1152, Note_on_c, 0, 35, 74
1, 1152, Note_off_c, 0, 36, 74
1, 1152, Note_on_c, 0, 71, 112
1, 1152, Note_off_c, 0, 79, 98
1, 1344, Note_off_c, 0, 71, 112
1, 1344, Note_on_c, 0, 78, 101
1, 1536, Note_off_c, 0, 35, 74
1, 1536, Note_off_c, 0, 78, 101
1, 3072, Control_c, 0, 1, 70
1, 3072, Control_c, 0, 1, 40
1, 0, Control_c, 0, 1, 70
1, 0, Note_on_c, 0, 36, 72
1, 0, Note_on_c, 0, 72, 105
1, 96, Note_on_c, 0, 64, 101
1, 96, Note_off_c, 0, 72, 105
1, 144, Note_off_c, 0, 64, 101
1, 144, Note_on_c, 0, 72, 96
1, 168, Note_on_c, 0, 71, 96
1, 168, Note_off_c, 0, 72, 96
1, 192, Note_on_c, 0, 33, 73
1, 192, Note_off_c, 0, 36, 72
1, 192, Note_on_c, 0, 69, 109
1, 192, Note_off_c, 0, 71, 96
1, 288, Note_on_c, 0, 60, 106
1, 288, Note_off_c, 0, 69, 109
1, 384, Note_on_c, 0, 29, 74
1, 384, Note_off_c, 0, 33, 73
1, 384, Note_off_c, 0, 60, 106
1, 384, Note_on_c, 0, 77, 107
1, 432, Note_on_c, 0, 72, 104
1, 432, Note_off_c, 0, 77, 107
1, 456, Note_off_c, 0, 72, 104
1, 456, Note_on_c, 0, 81, 96
1, 480, Note_on_c, 0, 77, 102
1, 480, Note_off_c, 0, 81, 96
1, 576, Note_off_c, 0, 29, 74
1, 576, Note_on_c, 0, 31, 72
1, 576, Note_off_c, 0, 77, 102
1, 576, Note_on_c, 0, 79, 112
1, 669, Note_off_c, 0, 79, 112
1, 672, Note_on_c, 0, 79, 104
1, 768, Note_off_c, 0, 31, 72
1, 768, Note_on_c, 0, 36, 76
1, 768, Note_on_c, 0, 72, 110
1, 768, Note_off_c, 0, 79, 104
1, 864, Note_on_c, 0, 64, 100
1, 864, Note_off_c, 0, 72, 110
1, 912, Note_off_c, 0, 64, 100
1, 912, Note_on_c, 0, 72, 94
1, 936, Note_on_c, 0, 71, 95
1, 936, Note_off_c, 0, 72, 94
1, 960, Note_on_c, 0, 33, 76
1, 960, Note_off_c, 0, 36, 76
1, 960, Note_on_c, 0, 69, 112
1, 960, Note_off_c, 0, 71, 95
1, 1056, Note_on_c, 0, 60, 101
1, 1056, Note_off_c, 0, 69, 112
1, 1152, Note_on_c, 0, 29, 77
1, 1152, Note_off_c, 0, 33, 76
1, 1152, Note_off_c, 0, 60, 101
1, 1152, Note_on_c, 0, 77, 112
1, 1200, Note_on_c, 0, 72, 101
1, 1200, Note_off_c, 0, 77, 112
1, 1224, Note_off_c, 0, 72, 101
1, 1224, Note_on_c, 0, 81, 99
1, 1248, Note_on_c, 0, 77, 100
1, 1248, Note_off_c, 0, 81, 99
1, 1344, Note_off_c, 0, 29, 77
1, 1344, Note_on_c, 0, 31, 79
1, 1344, Note_off_c, 0, 77, 100
1, 1344, Note_on_c, 0, 79, 113
1, 1437, Note_off_c, 0, 79, 113
1, 1440, Note_on_c, 0, 72, 99
1, 1533, Note_off_c, 0, 31, 79
1, 1536, Note_off_c, 0, 72, 99
1, 0, Note_on_c, 0, 71, 90
1, 46, Note_off_c, 0, 71, 90
1, 48, Note_on_c, 0, 74, 75
1, 72, Note_off_c, 0, 74, 75
1, 96, Note_on_c, 0, 76, 105
1, 110, Note_off_c, 0, 76, 105
1, 144, Note_on_c, 0, 71, 84
1, 309, Note_off_c, 0, 71, 84
1, 384, Note_on_c, 0, 71, 85
1, 428, Note_off_c, 0, 71, 85
1, 432, Note_on_c, 0, 74, 62
1, 456, Note_off_c, 0, 74, 62
1, 480, Note_on_c, 0, 76, 99
1, 495, Note_off_c, 0, 76, 99
1, 528, Note_on_c, 0, 71, 67
1, 640, Note_off_c, 0, 71, 67
1, 768, Note_on_c, 0, 72, 100
1, 814, Note_off_c, 0, 72, 100
1, 816, Note_on_c, 0, 71, 64
1, 857, Note_off_c, 0, 71, 64
1, 864, Note_on_c, 0, 67, 89
1, 880, Note_off_c, 0, 67, 89
1, 912, Note_on_c, 0, 67, 68
1, 1051, Note_off_c, 0, 67, 68
1, 1152, Note_on_c, 0, 72, 102
1, 1192, Note_off_c, 0, 72, 102
1, 1200, Note_on_c, 0, 71, 62
1, 1225, Note_off_c, 0, 71, 62
1, 1248, Note_on_c, 0, 67, 80
1, 1262, Note_off_c, 0, 67, 80
1, 1296, Note_on_c, 0, 67, 71
1, 1368, Note_off_c, 0, 67, 71
1, 0, Note_on_c, 0, 65, 32
1, 48, Note_off_c, 0, 65, 32
1, 48, Note_on_c, 0, 72, 32
1, 96, Note_on_c, 0, 77, 54
1, 120, Note_off_c, 0, 72, 32
1, 144, Note_on_c, 0, 84, 56
1, 192, Note_off_c, 0, 77, 54
1, 192, Note_on_c, 0, 79, 51
1, 192, Note_off_c, 0, 84, 56
1, 288, Note_off_c, 0, 79, 51
1, 384, Note_on_c, 0, 74, 56
1, 432, Note_on_c, 0, 67, 53
1, 432, Note_off_c, 0, 74, 56
1, 480, Note_on_c, 0, 62, 21
1, 480, Note_off_c, 0, 67, 53
1, 528, Note_on_c, 0, 52, 31
1, 528, Note_off_c, 0, 62, 21
1, 576, Note_off_c, 0, 52, 31
1, 576, Note_on_c, 0, 57, 19
1, 672, Note_on_c, 0, 79, 41
1, 720, Note_off_c, 0, 79, 41
1, 720, Note_on_c, 0, 84, 42
1, 768, Note_off_c, 0, 57, 19
1, 768, Note_on_c, 0, 83, 51
1, 768, Note_off_c, 0, 84, 42
1, 816, Note_on_c, 0, 76, 44
1, 816, Note_off_c, 0, 83, 51
1, 864, Note_on_c, 0, 71, 17
1, 912, Note_on_c, 0, 57, 35
1, 912, Note_off_c, 0, 71, 17
1, 936, Note_off_c, 0, 76, 44
1, 960, Note_off_c, 0, 57, 35
1, 960, Note_on_c, 0, 76, 23
1, 1056, Note_on_c, 0, 69, 43
1, 1056, Note_off_c, 0, 76, 23
1, 1104, Note_off_c, 0, 69, 43
1, 1104, Note_on_c, 0, 74, 52
1, 1152, Note_off_c, 0, 74, 52
1, 1152, Note_on_c, 0, 81, 56
1, 1200, Note_on_c, 0, 74, 54
1, 1200, Note_off_c, 0, 81, 56
1, 1248, Note_on_c, 0, 69, 27
1, 1248, Note_off_c, 0, 74, 54
1, 1296, Note_on_c, 0, 57, 39
1, 1296, Note_off_c, 0, 69, 27
1, 1344, Note_on_c, 0, 55, 27
1, 1344, Note_off_c, 0, 57, 39
1, 1392, Note_off_c, 0, 55, 27
1, 1392, Note_on_c, 0, 67, 23
1, 1440, Note_off_c, 0, 67, 23
1, 1440, Note_on_c, 0, 71, 47
1, 1488, Note_off_c, 0, 71, 47
1, 1488, Note_on_c, 0, 79, 51
1, 1536, Note_off_c, 0, 79, 51
1, 0, Channel_aftertouch_c, 0, 0
1, 0, Note_on_c, 0, 65, 58
1, 0, Note_on_c, 0, 41, 60
1, 57, Note_off_c, 0, 41, 60
1, 188, Note_off_c, 0, 65, 58
1, 193, Note_on_c, 0, 57, 55
1, 250, Note_off_c, 0, 57, 55
1, 382, Note_on_c, 0, 64, 64
1, 386, Note_on_c, 0, 79, 67
1, 388, Note_on_c, 0, 74, 87
1, 390, Note_on_c, 0, 50, 58
1, 465, Note_off_c, 0, 74, 87
1, 479, Note_on_c, 0, 52, 35
1, 543, Note_off_c, 0, 79, 67
1, 565, Note_off_c, 0, 50, 58
1, 570, Note_off_c, 0, 64, 64
1, 576, Note_on_c, 0, 62, 62
1, 577, Note_on_c, 0, 79, 61
1, 577, Note_on_c, 0, 74, 80
1, 578, Note_off_c, 0, 52, 35
1, 635, Note_off_c, 0, 74, 80
1, 637, Note_off_c, 0, 79, 61
1, 649, Note_off_c, 0, 62, 62
1, 671, Note_on_c, 0, 50, 31
1, 707, Note_off_c, 0, 50, 31
1, 768, Note_on_c, 0, 62, 64
1, 770, Note_on_c, 0, 57, 56
1, 771, Note_on_c, 0, 38, 60
1, 866, Note_on_c, 0, 50, 25
1, 875, Note_off_c, 0, 57, 56
1, 954, Note_off_c, 0, 50, 25
1, 962, Note_on_c, 0, 57, 34
1, 989, Note_off_c, 0, 62, 64
1, 1050, Note_off_c, 0, 57, 34
1, 1055, Note_on_c, 0, 50, 16
1, 1146, Note_off_c, 0, 38, 60
1, 1149, Note_off_c, 0, 50, 16
1, 1150, Note_on_c, 0, 67, 20
1, 1152, Note_on_c, 0, 52, 42
1, 1152, Note_on_c, 0, 72, 62
1, 1157, Note_on_c, 0, 62, 8
1, 1242, Note_off_c, 0, 62, 8
1, 1249, Note_on_c, 0, 60, 9
1, 1337, Note_off_c, 0, 52, 42
1, 1343, Note_on_c, 0, 62, 18
1, 1410, Note_off_c, 0, 62, 18
1, 1434, Note_off_c, 0, 72, 62
1, 1439, Note_on_c, 0, 52, 30
1, 1440, Note_off_c, 0, 60, 9
1, 1451, Note_off_c, 0, 67, 20
1, 1477, Note_off_c, 0, 52, 30
1, 0, Channel_aftertouch_c, 0, 0
1, 0, Note_on_c, 0, 57, 63
1, 0, Note_on_c, 0, 69, 80
1, 0, Note_on_c, 0, 41, 61
1, 56, Note_off_c, 0, 41, 61
1, 88, Note_off_c, 0, 57, 63
1, 94, Note_on_c, 0, 53, 59
1, 126, Note_off_c, 0, 53, 59
1, 129, Note_off_c, 0, 69, 80
1, 140, Note_on_c, 0, 53, 35
1, 187, Note_off_c, 0, 53, 35
1, 333, Note_on_c, 0, 53, 33
1, 365, Note_off_c, 0, 53, 33
1, 383, Note_on_c, 0, 62, 65
1, 384, Note_on_c, 0, 38, 64
1, 385, Note_on_c, 0, 74, 84
1, 433, Note_on_c, 0, 50, 54
1, 434, Note_off_c, 0, 38, 64
1, 461, Note_off_c, 0, 62, 65
1, 472, Note_off_c, 0, 50, 54
1, 481, Note_on_c, 0, 55, 49
1, 512, Note_off_c, 0, 55, 49
1, 527, Note_on_c, 0, 62, 40
1, 570, Note_off_c, 0, 62, 40
1, 574, Note_on_c, 0, 64, 75
1, 577, Note_on_c, 0, 62, 60
1, 654, Note_off_c, 0, 62, 60
1, 673, Note_on_c, 0, 62, 44
1, 682, Note_off_c, 0, 74, 84
1, 684, Note_off_c, 0, 62, 44
1, 706, Note_off_c, 0, 64, 75
1, 769, Note_on_c, 0, 65, 63
1, 770, Note_on_c, 0, 50, 64
1, 790, Note_off_c, 0, 65, 63
1, 814, Note_on_c, 0, 62, 47
1, 869, Note_on_c, 0, 65, 39
1, 961, Note_on_c, 0, 74, 43
1, 1053, Note_off_c, 0, 50, 64
1, 1058, Note_off_c, 0, 65, 39
1, 1060, Note_off_c, 0, 62, 47
1, 1104, Note_on_c, 0, 62, 41
1, 1150, Note_off_c, 0, 62, 41
1, 1155, Note_on_c, 0, 50, 64
1, 1201, Note_on_c, 0, 62, 49
1, 1248, Note_off_c, 0, 74, 43
1, 1249, Note_on_c, 0, 65, 67
1, 1282, Note_off_c, 0, 50, 64
1, 1284, Note_off_c, 0, 65, 67
1, 1294, Note_on_c, 0, 65, 64
1, 1329, Note_off_c, 0, 62, 49
1, 1338, Note_off_c, 0, 65, 64
1, 1344, Note_on_c, 0, 50, 64
1, 1344, Note_on_c, 0, 62, 64
1, 1344, Note_on_c, 0, 65, 68
1, 1386, Note_on_c, 0, 53, 54
1, 1396, Note_off_c, 0, 62, 64
1, 1440, Note_on_c, 0, 62, 64
1, 1444, Note_off_c, 0, 50, 64
1, 1453, Note_off_c, 0, 53, 54
1, 1462, Note_off_c, 0, 65, 68
1, 1466, Note_off_c, 0, 62, 64
1, 1486, Note_on_c, 0, 50, 48
1, 1497, Note_off_c, 0, 50, 48
1, 0, Note_on_c, 0, 36, 100
1, 48, Note_off_c, 0, 36, 100
1, 96, Note_on_c, 0, 45, 64
1, 192, Note_off_c, 0, 45, 64
1, 240, Note_on_c, 0, 55, 88
1, 336, Note_on_c, 0, 53, 64
1, 336, Note_off_c, 0, 55, 88
1, 384, Note_on_c, 0, 36, 100
1, 384, Note_off_c, 0, 53, 64
1, 432, Note_off_c, 0, 36, 100
1, 432, Note_on_c, 0, 45, 64
1, 528, Note_off_c, 0, 45, 64
1, 528, Note_on_c, 0, 53, 64
1, 624, Note_on_c, 0, 45, 64
1, 624, Note_off_c, 0, 53, 64
1, 672, Note_off_c, 0, 45, 64
1, 672, Note_on_c, 0, 55, 88
1, 720, Note_on_c, 0, 53, 64
1, 720, Note_off_c, 0, 55, 88
1, 768, Note_on_c, 0, 36, 100
1, 768, Note_off_c, 0, 53, 64
1, 864, Note_off_c, 0, 36, 100
1, 864, Note_on_c, 0, 52, 64
1, 960, Note_off_c, 0, 52, 64
1, 1008, Note_on_c, 0, 62, 88
1, 1104, Note_on_c, 0, 60, 64
1, 1104, Note_off_c, 0, 62, 88
1, 1152, Note_on_c, 0, 43, 100
1, 1152, Note_off_c, 0, 60, 64
1, 1200, Note_off_c, 0, 43, 100
1, 1200, Note_on_c, 0, 52, 64
1, 1296, Note_off_c, 0, 52, 64
1, 1296, Note_on_c, 0, 60, 64
1, 1344, Note_on_c, 0, 43, 100
1, 1392, Note_off_c, 0, 43, 100
1, 1392, Note_on_c, 0, 52, 64
1, 1392, Note_off_c, 0, 60, 64
1, 1440, Note_off_c, 0, 52, 64
1, 1440, Note_on_c, 0, 62, 88
1, 1488, Note_on_c, 0, 60, 64
1, 1488, Note_off_c, 0, 62, 88
1, 1536, Note_off_c, 0, 60, 64
1, 0, Note_on_c, 0, 48, 76
1, 24, Note_off_c, 0, 48, 76
1, 24, Note_on_c, 0, 67, 76
1, 48, Note_off_c, 0, 67, 76
1, 48, Note_on_c, 0, 72, 76
1, 72, Note_on_c, 0, 64, 76
1, 72, Note_off_c, 0, 72, 76
1, 96, Note_on_c, 0, 48, 76
1, 96, Note_off_c, 0, 64, 76
1, 120, Note_off_c, 0, 48, 76
1, 120, Note_on_c, 0, 67, 76
1, 144, Note_off_c, 0, 67, 76
1, 144, Note_on_c, 0, 72, 76
1, 168, Note_on_c, 0, 64, 76
1, 168, Note_off_c, 0, 72, 76
1, 192, Note_on_c, 0, 48, 76
1, 192, Note_off_c, 0, 64, 76
1, 216, Note_off_c, 0, 48, 76
1, 216, Note_on_c, 0, 67, 76
1, 240, Note_off_c, 0, 67, 76
1, 240, Note_on_c, 0, 72, 76
1, 264, Note_on_c, 0, 64, 76
1, 264, Note_off_c, 0, 72, 76
1, 288, Note_on_c, 0, 48, 76
1, 288, Note_off_c, 0, 64, 76
1, 312, Note_off_c, 0, 48, 76
1, 312, Note_on_c, 0, 67, 76
1, 336, Note_off_c, 0, 67, 76
1, 336, Note_on_c, 0, 72, 76
1, 360, Note_on_c, 0, 64, 76
1, 360, Note_off_c, 0, 72, 76
1, 384, Note_off_c, 0, 64, 76
1, 384, Note_on_c, 0, 48, 76
1, 408, Note_off_c, 0, 48, 76
1, 408, Note_on_c, 0, 65, 76
1, 432, Note_off_c, 0, 65, 76
1, 432, Note_on_c, 0, 70, 76
1, 455, Note_on_c, 0, 60, 76
1, 455, Note_off_c, 0, 70, 76
1, 479, Note_off_c, 0, 60, 76
1, 480, Note_on_c, 0, 48, 76
1, 504, Note_off_c, 0, 48, 76
1, 504, Note_on_c, 0, 65, 76
1, 528, Note_off_c, 0, 65, 76
1, 528, Note_on_c, 0, 70, 76
1, 551, Note_on_c, 0, 60, 76
1, 552, Note_off_c, 0, 70, 76
1, 575, Note_off_c, 0, 60, 76
1, 576, Note_on_c, 0, 48, 76
1, 600, Note_off_c, 0, 48, 76
1, 600, Note_on_c, 0, 65, 76
1, 624, Note_off_c, 0, 65, 76
1, 624, Note_on_c, 0, 70, 76
1, 647, Note_on_c, 0, 60, 76
1, 648, Note_off_c, 0, 70, 76
1, 671, Note_off_c, 0, 60, 76
1, 672, Note_on_c, 0, 48, 76
1, 696, Note_off_c, 0, 48, 76
1, 696, Note_on_c, 0, 65, 76
1, 720, Note_off_c, 0, 65, 76
1, 720, Note_on_c, 0, 70, 76
1, 743, Note_on_c, 0, 60, 76
1, 744, Note_off_c, 0, 70, 76
1, 767, Note_off_c, 0, 60, 76
1, 768, Note_on_c, 0, 53, 76
1, 792, Note_off_c, 0, 53, 76
1, 792, Note_on_c, 0, 69, 76
1, 816, Note_off_c, 0, 69, 76
1, 816, Note_on_c, 0, 74, 76
1, 840, Note_on_c, 0, 65, 76
1, 840, Note_off_c, 0, 74, 76
1, 864, Note_on_c, 0, 53, 76
1, 864, Note_off_c, 0, 65, 76
1, 888, Note_off_c, 0, 53, 76
1, 888, Note_on_c, 0, 69, 76
1, 912, Note_off_c, 0, 69, 76
1, 912, Note_on_c, 0, 74, 76
1, 936, Note_on_c, 0, 65, 76
1, 936, Note_off_c, 0, 74, 76
1, 960, Note_on_c, 0, 53, 76
1, 960, Note_off_c, 0, 65, 76
1, 984, Note_off_c, 0, 53, 76
1, 984, Note_on_c, 0, 69, 76
1, 1008, Note_off_c, 0, 69, 76
1, 1008, Note_on_c, 0, 74, 76
1, 1032, Note_on_c, 0, 65, 76
1, 1032, Note_off_c, 0, 74, 76
1, 1056, Note_on_c, 0, 53, 76
1, 1056, Note_off_c, 0, 65, 76
1, 1080, Note_off_c, 0, 53, 76
1, 1080, Note_on_c, 0, 69, 76
1, 1104, Note_off_c, 0, 69, 76
1, 1104, Note_on_c, 0, 74, 76
1, 1128, Note_on_c, 0, 65, 76
1, 1128, Note_off_c, 0, 74, 76
1, 1152, Note_on_c, 0, 43, 76
1, 1152, Note_off_c, 0, 65, 76
1, 1176, Note_off_c, 0, 43, 76
1, 1176, Note_on_c, 0, 60, 76
1, 1200, Note_off_c, 0, 60, 76
1, 1200, Note_on_c, 0, 65, 76
1, 1224, Note_on_c, 0, 55, 76
1, 1224, Note_off_c, 0, 65, 76
1, 1248, Note_on_c, 0, 43, 76
1, 1248, Note_off_c, 0, 55, 76
1, 1272, Note_off_c, 0, 43, 76
1, 1272, Note_on_c, 0, 60, 76
1, 1296, Note_off_c, 0, 60, 76
1, 1296, Note_on_c, 0, 65, 76
1, 1320, Note_on_c, 0, 55, 76
1, 1320, Note_off_c, 0, 65, 76
1, 1344, Note_on_c, 0, 43, 76
1, 1344, Note_off_c, 0, 55, 76
1, 1368, Note_off_c, 0, 43, 76
1, 1368, Note_on_c, 0, 60, 76
1, 1392, Note_off_c, 0, 60, 76
1, 1392, Note_on_c, 0, 65, 76
1, 1416, Note_on_c, 0, 55, 76
1, 1416, Note_off_c, 0, 65, 76
1, 1440, Note_on_c, 0, 43, 76
1, 1440, Note_off_c, 0, 55, 76
1, 1464, Note_off_c, 0, 43, 76
1, 1464, Note_on_c, 0, 60, 76
1, 1488, Note_off_c, 0, 60, 76
1, 1488, Note_on_c, 0, 65, 76
1, 1512, Note_on_c, 0, 55, 76
1, 1512, Note_off_c, 0, 65, 76
1, 1536, Note_off_c, 0, 55, 76
1, 0, Note_on_c, 0, 41, 92
1, 0, Note_on_c, 0, 60, 87
1, 48, Note_off_c, 0, 41, 52
1, 48, Note_off_c, 0, 60, 57
1, 144, Note_on_c, 0, 41, 89
1, 144, Note_on_c, 0, 60, 83
1, 192, Note_on_c, 0, 40, 88
1, 192, Note_off_c, 0, 41, 60
1, 192, Note_on_c, 0, 59, 68
1, 192, Note_off_c, 0, 60, 61
1, 240, Note_off_c, 0, 40, 71
1, 240, Note_off_c, 0, 59, 57
1, 264, Note_on_c, 0, 36, 90
1, 264, Note_on_c, 0, 55, 76
1, 312, Note_off_c, 0, 36, 77
1, 312, Note_off_c, 0, 55, 52
1, 336, Note_on_c, 0, 33, 89
1, 336, Note_on_c, 0, 52, 91
1, 384, Note_off_c, 0, 33, 62
1, 384, Note_off_c, 0, 52, 57
1, 408, Note_on_c, 0, 33, 88
1, 408, Note_on_c, 0, 52, 80
1, 456, Note_off_c, 0, 33, 66
1, 456, Note_off_c, 0, 52, 48
1, 480, Note_on_c, 0, 33, 89
1, 480, Note_on_c, 0, 52, 82
1, 528, Note_off_c, 0, 33, 56
1, 528, Note_off_c, 0, 52, 44
1, 552, Note_on_c, 0, 33, 89
1, 552, Note_on_c, 0, 52, 77
1, 600, Note_off_c, 0, 33, 67
1, 600, Note_off_c, 0, 52, 47
1, 624, Note_on_c, 0, 33, 89
1, 624, Note_on_c, 0, 52, 74
1, 672, Note_off_c, 0, 33, 53
1, 672, Note_off_c, 0, 52, 41
1, 696, Note_on_c, 0, 33, 78
1, 696, Note_on_c, 0, 52, 62
1, 744, Note_off_c, 0, 33, 53
1, 744, Note_off_c, 0, 52, 60
1, 768, Note_on_c, 0, 41, 85
1, 768, Note_on_c, 0, 60, 61
1, 816, Note_off_c, 0, 41, 55
1, 816, Note_off_c, 0, 60, 47
1, 912, Note_on_c, 0, 41, 80
1, 912, Note_on_c, 0, 60, 49
1, 960, Note_on_c, 0, 40, 80
1, 960, Note_off_c, 0, 41, 58
1, 960, Note_on_c, 0, 59, 84
1, 960, Note_off_c, 0, 60, 70
1, 1008, Note_off_c, 0, 40, 65
1, 1008, Note_off_c, 0, 59, 35
1, 1032, Note_on_c, 0, 43, 85
1, 1032, Note_on_c, 0, 62, 55
1, 1080, Note_off_c, 0, 43, 58
1, 1080, Note_off_c, 0, 62, 60
1, 1104, Note_on_c, 0, 33, 87
1, 1104, Note_on_c, 0, 52, 75
1, 1152, Note_off_c, 0, 33, 59
1, 1152, Note_off_c, 0, 52, 45
1, 1176, Note_on_c, 0, 33, 81
1, 1176, Note_on_c, 0, 52, 59
1, 1224, Note_off_c, 0, 33, 54
1, 1224, Note_off_c, 0, 52, 37
1, 1248, Note_on_c, 0, 33, 89
1, 1248, Note_on_c, 0, 52, 72
1, 1296, Note_off_c, 0, 33, 63
1, 1296, Note_off_c, 0, 52, 45
1, 1320, Note_on_c, 0, 36, 89
1, 1320, Note_on_c, 0, 55, 68
1, 1368, Note_off_c, 0, 36, 61
1, 1368, Note_off_c, 0, 55, 40
1, 1392, Note_on_c, 0, 36, 89
1, 1392, Note_on_c, 0, 55, 74
1, 1440, Note_off_c, 0, 36, 61
1, 1440, Note_off_c, 0, 55, 42
1, 1464, Note_on_c, 0, 40, 90
1, 1464, Note_on_c, 0, 59, 77
1, 1512, Note_off_c, 0, 40, 46
1, 1512, Note_off_c, 0, 59, 67
1, 0, Control_c, 0, 1, 100
1, 0, Note_on_c, 0, 48, 103
1, 0, Note_on_c, 0, 69, 125
1, 48, Note_off_c, 0, 48, 103
1, 48, Note_on_c, 0, 57, 98
1, 96, Note_on_c, 0, 48, 101
1, 96, Note_off_c, 0, 57, 98
1, 96, Note_off_c, 0, 69, 125
1, 96, Note_on_c, 0, 71, 125
1, 120, Note_off_c, 0, 48, 101
1, 120, Note_on_c, 0, 52, 98
1, 144, Note_off_c, 0, 52, 98
1, 144, Note_on_c, 0, 60, 98
1, 144, Note_on_c, 0, 69, 119
1, 144, Note_off_c, 0, 71, 125
1, 168, Note_on_c, 0, 52, 97
1, 168, Note_off_c, 0, 60, 98
1, 192, Note_on_c, 0, 48, 102
1, 192, Note_off_c, 0, 52, 97
1, 192, Note_off_c, 0, 69, 119
1, 192, Note_on_c, 0, 76, 125
1, 216, Note_off_c, 0, 48, 102
1, 216, Note_on_c, 0, 52, 99
1, 240, Note_off_c, 0, 52, 99
1, 240, Note_on_c, 0, 60, 94
1, 264, Note_on_c, 0, 52, 99
1, 264, Note_off_c, 0, 60, 94
1, 288, Note_on_c, 0, 48, 95
1, 288, Note_off_c, 0, 52, 99
1, 336, Note_off_c, 0, 48, 95
1, 336, Note_on_c, 0, 57, 95
1, 384, Note_on_c, 0, 47, 105
1, 384, Note_off_c, 0, 57, 95
1, 384, Note_on_c, 0, 71, 125
1, 384, Note_off_c, 0, 76, 125
1, 432, Note_off_c, 0, 47, 105
1, 432, Note_on_c, 0, 55, 97
1, 480, Note_on_c, 0, 47, 98
1, 480, Note_off_c, 0, 55, 97
1, 504, Note_off_c, 0, 47, 98
1, 504, Note_on_c, 0, 52, 93
1, 528, Note_off_c, 0, 52, 93
1, 528, Note_on_c, 0, 59, 98
1, 552, Note_on_c, 0, 52, 96
1, 552, Note_off_c, 0, 59, 98
1, 576, Note_on_c, 0, 47, 103
1, 576, Note_off_c, 0, 52, 96
1, 576, Note_on_c, 0, 64, 125
1, 576, Note_off_c, 0, 71, 125
1, 600, Note_off_c, 0, 47, 103
1, 600, Note_on_c, 0, 52, 93
1, 624, Note_off_c, 0, 52, 93
1, 624, Note_on_c, 0, 59, 98
1, 648, Note_on_c, 0, 52, 98
1, 648, Note_off_c, 0, 59, 98
1, 672, Note_on_c, 0, 47, 99
1, 672, Note_off_c, 0, 52, 98
1, 720, Note_off_c, 0, 47, 99
1, 720, Note_on_c, 0, 55, 99
1, 768, Note_on_c, 0, 48, 112
1, 768, Note_off_c, 0, 55, 99
1, 768, Note_off_c, 0, 64, 125
1, 768, Note_on_c, 0, 69, 125
1, 816, Note_off_c, 0, 48, 112
1, 816, Note_on_c, 0, 57, 93
1, 864, Note_on_c, 0, 48, 104
1, 864, Note_off_c, 0, 57, 93
1, 888, Note_off_c, 0, 48, 104
1, 888, Note_on_c, 0, 53, 99
1, 912, Note_off_c, 0, 53, 99
1, 912, Note_on_c, 0, 60, 97
1, 936, Note_on_c, 0, 53, 93
1, 936, Note_off_c, 0, 60, 97
1, 960, Note_on_c, 0, 48, 100
1, 960, Note_off_c, 0, 53, 93
1, 960, Note_off_c, 0, 69, 125
1, 960, Note_on_c, 0, 77, 125
1, 984, Note_off_c, 0, 48, 100
1, 984, Note_on_c, 0, 53, 93
1, 1008, Note_off_c, 0, 53, 93
1, 1008, Note_on_c, 0, 60, 99
1, 1032, Note_on_c, 0, 53, 96
1, 1032, Note_off_c, 0, 60, 99
1, 1056, Note_on_c, 0, 48, 94
1, 1056, Note_off_c, 0, 53, 96
1, 1104, Note_off_c, 0, 48, 94
1, 1104, Note_on_c, 0, 57, 99
1, 1152, Note_on_c, 0, 50, 105
1, 1152, Note_off_c, 0, 57, 99
1, 1152, Note_on_c, 0, 74, 125
1, 1152, Note_off_c, 0, 77, 125
1, 1200, Note_off_c, 0, 50, 105
1, 1200, Note_on_c, 0, 57, 96
1, 1248, Note_on_c, 0, 50, 101
1, 1248, Note_off_c, 0, 57, 96
1, 1272, Note_off_c, 0, 50, 101
1, 1272, Note_on_c, 0, 53, 93
1, 1296, Note_off_c, 0, 53, 93
1, 1296, Note_on_c, 0, 62, 94
1, 1320, Note_on_c, 0, 53, 94
1, 1320, Note_off_c, 0, 62, 94
1, 1344, Note_on_c, 0, 50, 102
1, 1344, Note_off_c, 0, 53, 94
1, 1344, Note_on_c, 0, 65, 125
1, 1344, Note_off_c, 0, 74, 125
1, 1368, Note_off_c, 0, 50, 102
1, 1368, Note_on_c, 0, 53, 98
1, 1392, Note_off_c, 0, 53, 98
1, 1392, Note_on_c, 0, 62, 95
1, 1416, Note_on_c, 0, 53, 93
1, 1416, Note_off_c, 0, 62, 95
1, 1440, Note_on_c, 0, 50, 93
1, 1440, Note_off_c, 0, 53, 93
1, 1488, Note_off_c, 0, 50, 93
1, 1488, Note_on_c, 0, 57, 98
1, 1536, Note_off_c, 0, 57, 98
1, 1536, Note_off_c, 0, 65, 125
1, 3072, Control_c, 0, 1, 100
1, 3072, Control_c, 0, 1, 70
1, 0, Control_c, 0, 1, 70
1, 0, Note_on_c, 0, 77, 78
1, 24, Note_off_c, 0, 77, 78
1, 24, Note_on_c, 0, 84, 66
1, 48, Note_on_c, 0, 81, 71
1, 48, Note_off_c, 0, 84, 66
1, 72, Note_on_c, 0, 77, 67
1, 72, Note_off_c, 0, 81, 71
1, 96, Note_off_c, 0, 77, 67
1, 96, Note_on_c, 0, 84, 73
1, 120, Note_on_c, 0, 81, 64
1, 120, Note_off_c, 0, 84, 73
1, 144, Note_on_c, 0, 77, 66
1, 144, Note_off_c, 0, 81, 64
1, 168, Note_off_c, 0, 77, 66
1, 168, Note_on_c, 0, 84, 64
1, 192, Note_on_c, 0, 74, 78
1, 192, Note_off_c, 0, 84, 64
1, 216, Note_off_c, 0, 74, 78
1, 216, Note_on_c, 0, 84, 65
1, 240, Note_on_c, 0, 81, 70
1, 240, Note_off_c, 0, 84, 65
1, 264, Note_on_c, 0, 74, 64
1, 264, Note_off_c, 0, 81, 70
1, 288, Note_off_c, 0, 74, 64
1, 288, Note_on_c, 0, 84, 70
1, 312, Note_on_c, 0, 81, 65
1, 312, Note_off_c, 0, 84, 70
1, 336, Note_on_c, 0, 74, 66
1, 336, Note_off_c, 0, 81, 65
1, 360, Note_off_c, 0, 74, 66
1, 360, Note_on_c, 0, 84, 66
1, 384, Note_on_c, 0, 74, 73
1, 384, Note_off_c, 0, 84, 66
1, 408, Note_off_c, 0, 74, 73
1, 408, Note_on_c, 0, 81, 64
1, 432, Note_on_c, 0, 79, 69
1, 432, Note_off_c, 0, 81, 64
1, 456, Note_on_c, 0, 74, 68
1, 456, Note_off_c, 0, 79, 69
1, 480, Note_off_c, 0, 74, 68
1, 480, Note_on_c, 0, 81, 69
1, 504, Note_on_c, 0, 79, 66
1, 504, Note_off_c, 0, 81, 69
1, 528, Note_on_c, 0, 74, 64
1, 528, Note_off_c, 0, 79, 66
1, 552, Note_off_c, 0, 74, 64
1, 552, Note_on_c, 0, 81, 66
1, 576, Note_on_c, 0, 74, 73
1, 576, Note_off_c, 0, 81, 66
1, 600, Note_off_c, 0, 74, 73
1, 600, Note_on_c, 0, 84, 66
1, 624, Note_on_c, 0, 79, 67
1, 624, Note_off_c, 0, 84, 66
1, 648, Note_on_c, 0, 74, 66
1, 648, Note_off_c, 0, 79, 67
1, 672, Note_off_c, 0, 74, 66
1, 672, Note_on_c, 0, 84, 68
1, 696, Note_on_c, 0, 79, 64
1, 696, Note_off_c, 0, 84, 68
1, 720, Note_on_c, 0, 74, 66
1, 720, Note_off_c, 0, 79, 64
1, 744, Note_off_c, 0, 74, 66
1, 744, Note_on_c, 0, 84, 65
1, 768, Note_on_c, 0, 76, 78
1, 768, Note_off_c, 0, 84, 65
1, 792, Note_off_c, 0, 76, 78
1, 792, Note_on_c, 0, 84, 67
1, 816, Note_on_c, 0, 81, 68
1, 816, Note_off_c, 0, 84, 67
1, 840, Note_on_c, 0, 76, 64
1, 840, Note_off_c, 0, 81, 68
1, 864, Note_off_c, 0, 76, 64
1, 864, Note_on_c, 0, 84, 70
1, 888, Note_on_c, 0, 81, 68
1, 888, Note_off_c, 0, 84, 70
1, 912, Note_on_c, 0, 76, 66
1, 912, Note_off_c, 0, 81, 68
1, 936, Note_off_c, 0, 76, 66
1, 936, Note_on_c, 0, 84, 66
1, 960, Note_on_c, 0, 74, 76
1, 960, Note_off_c, 0, 84, 66
1, 984, Note_off_c, 0, 74, 76
1, 984, Note_on_c, 0, 84, 66
1, 1008, Note_on_c, 0, 81, 67
1, 1008, Note_off_c, 0, 84, 66
1, 1032, Note_on_c, 0, 74, 65
1, 1032, Note_off_c, 0, 81, 67
1, 1056, Note_off_c, 0, 74, 65
1, 1056, Note_on_c, 0, 84, 71
1, 1080, Note_on_c, 0, 81, 64
1, 1080, Note_off_c, 0, 84, 71
1, 1104, Note_on_c, 0, 74, 66
1, 1104, Note_off_c, 0, 81, 64
1, 1128, Note_off_c, 0, 74, 66
1, 1128, Note_on_c, 0, 84, 64
1, 1152, Note_on_c, 0, 74, 71
1, 1152, Note_off_c, 0, 84, 64
1, 1176, Note_off_c, 0, 74, 71
1, 1176, Note_on_c, 0, 81, 68
1, 1200, Note_on_c, 0, 79, 68
1, 1200, Note_off_c, 0, 81, 68
1, 1224, Note_on_c, 0, 74, 67
1, 1224, Note_off_c, 0, 79, 68
1, 1248, Note_off_c, 0, 74, 67
1, 1248, Note_on_c, 0, 81, 72
1, 1272, Note_on_c, 0, 79, 68
1, 1272, Note_off_c, 0, 81, 72
1, 1296, Note_on_c, 0, 74, 68
1, 1296, Note_off_c, 0, 79, 68
1, 1320, Note_off_c, 0, 74, 68
1, 1320, Note_on_c, 0, 81, 66
1, 1344, Note_on_c, 0, 74, 73
1, 1344, Note_off_c, 0, 81, 66
1, 1368, Note_off_c, 0, 74, 73
1, 1368, Note_on_c, 0, 86, 64
1, 1392, Note_on_c, 0, 79, 69
1, 1392, Note_off_c, 0, 86, 64
1, 1416, Note_on_c, 0, 74, 64
1, 1416, Note_off_c, 0, 79, 69
1, 1440, Note_off_c, 0, 74, 64
1, 1440, Note_on_c, 0, 86, 70
1, 1464, Note_on_c, 0, 79, 66
1, 1464, Note_off_c, 0, 86, 70
1, 1488, Note_on_c, 0, 74, 68
1, 1488, Note_off_c, 0, 79, 66
1, 1512, Note_off_c, 0, 74, 68
1, 1512, Note_on_c, 0, 86, 64
1, 1533, Note_off_c, 0, 86, 64
1, 0, Pitch_bend_c, 0, 8192
1, 0, Control_c, 0, 6, 12
1, 0, Control_c, 0, 7, 100
1, 0, Control_c, 0, 10, 64
1, 0, Control_c, 0, 100, 0
1, 0, Control_c, 0, 101, 0
1, 0, Note_on_c, 0, 81, 105
1, 48, Note_off_c, 0, 81, 64
1, 48, Note_on_c, 0, 83, 95
1, 144, Note_off_c, 0, 83, 64
1, 144, Note_on_c, 0, 84, 97
1, 192, Note_off_c, 0, 84, 64
1, 192, Note_on_c, 0, 86, 96
1, 288, Note_off_c, 0, 86, 64
1, 288, Note_on_c, 0, 88, 95
1, 336, Note_on_c, 0, 84, 99
1, 336, Note_off_c, 0, 88, 64
1, 384, Note_off_c, 0, 84, 64
1, 384, Note_on_c, 0, 86, 99
1, 432, Note_on_c, 0, 84, 96
1, 432, Note_off_c, 0, 86, 64
1, 480, Note_on_c, 0, 83, 93
1, 480, Note_off_c, 0, 84, 64
1, 528, Note_on_c, 0, 81, 96
1, 528, Note_off_c, 0, 83, 64
1, 672, Note_off_c, 0, 81, 64
1, 816, Note_on_c, 0, 88, 95
1, 864, Note_on_c, 0, 86, 101
1, 864, Note_off_c, 0, 88, 64
1, 912, Note_on_c, 0, 84, 100
1, 912, Note_off_c, 0, 86, 64
1, 960, Note_on_c, 0, 81, 100
1, 960, Note_off_c, 0, 84, 64
1, 1056, Note_off_c, 0, 81, 64
1, 1056, Note_on_c, 0, 84, 105
1, 1152, Note_on_c, 0, 83, 101
1, 1152, Note_off_c, 0, 84, 64
1, 1200, Note_on_c, 0, 81, 106
1, 1200, Note_off_c, 0, 83, 64
1, 1248, Note_on_c, 0, 80, 99
1, 1248, Note_off_c, 0, 81, 64
1, 1296, Note_on_c, 0, 76, 97
1, 1296, Note_off_c, 0, 80, 64
1, 1392, Note_off_c, 0, 76, 64
1, 1392, Note_on_c, 0, 84, 103
1, 1440, Note_on_c, 0, 83, 106
1, 1440, Note_off_c, 0, 84, 64
1, 1488, Note_on_c, 0, 80, 95
1, 1488, Note_off_c, 0, 83, 64
1, 1536, Note_off_c, 0, 80, 64
1, 1824, Note_on_c, 0, 88, 106
1, 1872, Note_off_c, 0, 88, 64
1, 2352, Note_on_c, 0, 88, 105
1, 2400, Note_off_c, 0, 88, 64
1, 2832, Note_on_c, 0, 89, 106
1, 2880, Note_on_c, 0, 88, 101
1, 2880, Note_off_c, 0, 89, 64
1, 2928, Note_off_c, 0, 88, 64
1, 3072, Pitch_bend_c, 0, 8192
1, 3072, Pitch_bend_c, 0, 8192
1, 3072, Control_c, 0, 6, 12
1, 3072, Control_c, 0, 6, 12
1, 3072, Control_c, 0, 7, 100
1, 3072, Control_c, 0, 7, 100
1, 3072, Control_c, 0, 10, 64
1, 3072, Control_c, 0, 10, 64
1, 3072, Control_c, 0, 100, 0
1, 3072, Control_c, 0, 100, 0
1, 3072, Control_c, 0, 101, 0
1, 3072, Control_c, 0, 101, 0
1, 3073, Pitch_bend_c, 0, 8192
1, 3073, Control_c, 0, 6, 12
1, 3073, Control_c, 0, 7, 100
1, 3073, Control_c, 0, 10, 64
1, 3073, Control_c, 0, 100, 0
1, 3073, Control_c, 0, 101, 0
1, 0, Note_on_c, 0, 33, 44
1, 48, Note_on_c, 0, 45, 41
1, 72, Note_on_c, 0, 52, 29
1, 74, Note_off_c, 0, 45, 41
1, 103, Note_off_c, 0, 52, 29
1, 120, Note_on_c, 0, 60, 42
1, 144, Note_off_c, 0, 33, 44
1, 144, Note_on_c, 0, 69, 42
1, 144, Note_off_c, 0, 60, 42
1, 177, Note_off_c, 0, 69, 42
1, 192, Note_on_c, 0, 72, 40
1, 216, Note_on_c, 0, 65, 41
1, 240, Note_on_c, 0, 60, 30
1, 264, Note_on_c, 0, 53, 44
1, 277, Note_off_c, 0, 72, 40
1, 287, Note_off_c, 0, 60, 30
1, 301, Note_off_c, 0, 65, 41
1, 312, Note_on_c, 0, 41, 51
1, 315, Note_off_c, 0, 53, 44
1, 381, Note_off_c, 0, 41, 51
1, 384, Note_on_c, 0, 29, 56
1, 432, Note_on_c, 0, 41, 41
1, 455, Note_off_c, 0, 29, 56
1, 456, Note_on_c, 0, 53, 36
1, 480, Note_on_c, 0, 62, 42
1, 497, Note_off_c, 0, 41, 41
1, 506, Note_off_c, 0, 53, 36
1, 528, Note_off_c, 0, 62, 42
1, 528, Note_on_c, 0, 69, 41
1, 564, Note_off_c, 0, 69, 41
1, 576, Note_on_c, 0, 38, 35
1, 576, Note_on_c, 0, 72, 44
1, 676, Note_off_c, 0, 72, 44
1, 766, Note_off_c, 0, 38, 35
1, 768, Note_on_c, 0, 40, 43
1, 816, Note_on_c, 0, 52, 46
1, 840, Note_on_c, 0, 59, 35
1, 847, Note_off_c, 0, 52, 46
1, 888, Note_on_c, 0, 67, 35
1, 889, Note_off_c, 0, 59, 35
1, 912, Note_off_c, 0, 67, 35
1, 912, Note_on_c, 0, 76, 39
1, 959, Note_off_c, 0, 40, 43
1, 959, Note_off_c, 0, 76, 39
1, 960, Note_on_c, 0, 74, 40
1, 984, Note_on_c, 0, 67, 43
1, 1008, Note_on_c, 0, 62, 30
1, 1008, Note_off_c, 0, 74, 40
1, 1049, Note_off_c, 0, 62, 30
1, 1056, Note_on_c, 0, 55, 47
1, 1058, Note_off_c, 0, 67, 43
1, 1080, Note_on_c, 0, 43, 55
1, 1092, Note_off_c, 0, 55, 47
1, 1148, Note_off_c, 0, 43, 55
1, 1152, Note_on_c, 0, 31, 57
1, 1152, Note_on_c, 0, 72, 36
1, 1274, Note_off_c, 0, 72, 36
1, 1343, Note_off_c, 0, 31, 57
1, 1344, Note_on_c, 0, 31, 50
1, 1344, Note_on_c, 0, 67, 40
1, 1424, Note_off_c, 0, 67, 40
1, 1534, Note_off_c, 0, 31, 50
1, 0, Control_c, 0, 1, 100
1, 0, Note_on_c, 0, 45, 76
1, 0, Note_on_c, 0, 84, 110
1, 192, Note_on_c, 0, 76, 101
1, 192, Note_off_c, 0, 84, 110
1, 288, Note_off_c, 0, 76, 101
1, 288, Note_on_c, 0, 81, 94
1, 336, Note_off_c, 0, 81, 94
1, 336, Note_on_c, 0, 83, 94
1, 384, Note_off_c, 0, 45, 76
1, 384, Note_on_c, 0, 53, 72
1, 384, Note_off_c, 0, 83, 94
1, 384, Note_on_c, 0, 84, 106
1, 768, Note_on_c, 0, 43, 72
1, 768, Note_off_c, 0, 53, 72
1, 768, Note_on_c, 0, 74, 110
1, 768, Note_off_c, 0, 84, 106
1, 864, Note_off_c, 0, 74, 110
1, 864, Note_on_c, 0, 79, 102
1, 912, Note_on_c, 0, 74, 94
1, 912, Note_off_c, 0, 79, 102
1, 960, Note_off_c, 0, 74, 94
1, 960, Note_on_c, 0, 79, 106
1, 1152, Note_off_c, 0, 43, 72
1, 1152, Note_on_c, 0, 48, 72
1, 1152, Note_on_c, 0, 76, 107
1, 1152, Note_off_c, 0, 79, 106
1, 1344, Note_on_c, 0, 67, 100
1, 1344, Note_off_c, 0, 76, 107
1, 1536, Note_off_c, 0, 48, 72
1, 1536, Note_off_c, 0, 67, 100
1, 3072, Control_c, 0, 1, 100
1, 3072, Control_c, 0, 1, 70
1, 0, Control_c, 0, 1, 100
1, 0, Note_on_c, 0, 76, 104
1, 192, Note_on_c, 0, 72, 103
1, 192, Note_off_c, 0, 76, 104
1, 384, Note_on_c, 0, 65, 106
1, 384, Note_off_c, 0, 72, 103
1, 576, Note_off_c, 0, 65, 106
1, 576, Note_on_c, 0, 72, 100
1, 768, Note_on_c, 0, 67, 110
1, 768, Note_off_c, 0, 72, 100
1, 960, Note_on_c, 0, 59, 102
1, 960, Note_off_c, 0, 67, 110
1, 1056, Note_off_c, 0, 59, 102
1, 1056, Note_on_c, 0, 62, 97
1, 1104, Note_off_c, 0, 62, 97
1, 1104, Note_on_c, 0, 67, 95
1, 1147, Note_off_c, 0, 67, 95
1, 1152, Note_on_c, 0, 67, 112
1, 1344, Note_off_c, 0, 67, 112
1, 1344, Note_on_c, 0, 72, 103
1, 1536, Note_off_c, 0, 72, 103
1, 0, Note_on_c, 0, 57, 64
1, 0, Note_on_c, 0, 76, 73
1, 48, Note_on_c, 0, 72, 62
1, 61, Note_off_c, 0, 76, 52
1, 96, Note_off_c, 0, 57, 64
1, 96, Note_on_c, 0, 64, 55
1, 101, Note_off_c, 0, 72, 37
1, 144, Note_on_c, 0, 71, 60
1, 154, Note_off_c, 0, 64, 26
1, 240, Note_on_c, 0, 69, 60
1, 240, Note_off_c, 0, 71, 3
1, 288, Note_on_c, 0, 71, 60
1, 312, Note_on_c, 0, 57, 64
1, 336, Note_off_c, 0, 69, 64
1, 336, Note_on_c, 0, 72, 60
1, 345, Note_off_c, 0, 57, 64
1, 384, Note_on_c, 0, 57, 64
1, 384, Note_off_c, 0, 71, 64
1, 384, Note_on_c, 0, 76, 73
1, 432, Note_off_c, 0, 72, 64
1, 445, Note_off_c, 0, 76, 64
1, 480, Note_off_c, 0, 57, 64
1, 480, Note_on_c, 0, 64, 55
1, 528, Note_on_c, 0, 71, 60
1, 538, Note_off_c, 0, 64, 64
1, 624, Note_on_c, 0, 69, 60
1, 624, Note_off_c, 0, 71, 64
1, 672, Note_on_c, 0, 71, 60
1, 720, Note_off_c, 0, 69, 64
1, 720, Note_on_c, 0, 72, 60
1, 768, Note_on_c, 0, 57, 63
1, 768, Note_off_c, 0, 71, 64
1, 768, Note_on_c, 0, 76, 73
1, 816, Note_off_c, 0, 72, 64
1, 816, Note_on_c, 0, 72, 62
1, 816, Note_off_c, 0, 72, 64
1, 829, Note_off_c, 0, 76, 64
1, 864, Note_off_c, 0, 57, 64
1, 864, Note_on_c, 0, 64, 55
1, 912, Note_on_c, 0, 71, 60
1, 922, Note_off_c, 0, 64, 64
1, 1008, Note_on_c, 0, 69, 60
1, 1008, Note_off_c, 0, 71, 64
1, 1056, Note_on_c, 0, 71, 60
1, 1080, Note_on_c, 0, 57, 64
1, 1104, Note_off_c, 0, 69, 64
1, 1104, Note_on_c, 0, 72, 60
1, 1113, Note_off_c, 0, 57, 64
1, 1152, Note_on_c, 0, 57, 65
1, 1152, Note_off_c, 0, 71, 64
1, 1152, Note_on_c, 0, 76, 73
1, 1200, Note_off_c, 0, 72, 64
1, 1200, Note_on_c, 0, 72, 62
1, 1200, Note_off_c, 0, 72, 64
1, 1213, Note_off_c, 0, 76, 64
1, 1248, Note_off_c, 0, 57, 64
1, 1248, Note_on_c, 0, 64, 55
1, 1296, Note_on_c, 0, 71, 60
1, 1306, Note_off_c, 0, 64, 64
1, 1392, Note_on_c, 0, 69, 60
1, 1392, Note_off_c, 0, 71, 64
1, 1440, Note_on_c, 0, 72, 60
1, 1488, Note_off_c, 0, 69, 64
1, 1488, Note_on_c, 0, 71, 60
1, 1536, Note_off_c, 0, 71, 64
1, 1536, Note_off_c, 0, 72, 64
1, 0, Note_on_c, 0, 45, 80
1, 0, Note_on_c, 0, 64, 80
1, 3, Note_on_c, 0, 69, 62
1, 4, Note_on_c, 0, 72, 85
1, 8, Note_on_c, 0, 76, 85
1, 96, Note_on_c, 0, 86, 16
1, 103, Note_off_c, 0, 69, 0
1, 112, Note_off_c, 0, 64, 0
1, 114, Note_off_c, 0, 72, 0
1, 120, Note_off_c, 0, 76, 0
1, 144, Note_on_c, 0, 83, 16
1, 144, Note_off_c, 0, 86, 64
1, 192, Note_on_c, 0, 64, 91
1, 192, Note_on_c, 0, 81, 16
1, 192, Note_off_c, 0, 83, 64
1, 195, Note_on_c, 0, 69, 80
1, 197, Note_on_c, 0, 72, 101
1, 200, Note_on_c, 0, 76, 85
1, 240, Note_off_c, 0, 81, 64
1, 240, Note_on_c, 0, 83, 16
1, 266, Note_off_c, 0, 64, 0
1, 278, Note_off_c, 0, 69, 0
1, 285, Note_off_c, 0, 72, 0
1, 286, Note_off_c, 0, 76, 0
1, 288, Note_off_c, 0, 83, 64
1, 288, Note_on_c, 0, 83, 16
1, 336, Note_off_c, 0, 83, 64
1, 384, Note_on_c, 0, 40, 62
1, 384, Note_off_c, 0, 45, 0
1, 384, Note_on_c, 0, 62, 62
1, 387, Note_on_c, 0, 68, 75
1, 389, Note_on_c, 0, 71, 85
1, 392, Note_on_c, 0, 76, 64
1, 492, Note_off_c, 0, 62, 0
1, 495, Note_off_c, 0, 76, 0
1, 498, Note_off_c, 0, 68, 0
1, 506, Note_off_c, 0, 71, 0
1, 576, Note_on_c, 0, 62, 64
1, 579, Note_on_c, 0, 68, 64
1, 580, Note_on_c, 0, 71, 85
1, 584, Note_on_c, 0, 76, 80
1, 638, Note_off_c, 0, 62, 0
1, 651, Note_off_c, 0, 68, 0
1, 663, Note_off_c, 0, 71, 0
1, 667, Note_off_c, 0, 76, 0
1, 672, Note_on_c, 0, 52, 100
1, 768, Note_off_c, 0, 40, 0
1, 768, Note_on_c, 0, 45, 80
1, 768, Note_off_c, 0, 52, 64
1, 768, Note_on_c, 0, 64, 80
1, 771, Note_on_c, 0, 69, 62
1, 772, Note_on_c, 0, 72, 85
1, 776, Note_on_c, 0, 76, 85
1, 864, Note_on_c, 0, 86, 16
1, 871, Note_off_c, 0, 69, 0
1, 880, Note_off_c, 0, 64, 0
1, 882, Note_off_c, 0, 72, 0
1, 888, Note_off_c, 0, 76, 0
1, 912, Note_on_c, 0, 83, 16
1, 912, Note_off_c, 0, 86, 64
1, 960, Note_on_c, 0, 64, 91
1, 960, Note_on_c, 0, 81, 16
1, 960, Note_off_c, 0, 83, 64
1, 964, Note_on_c, 0, 69, 80
1, 965, Note_on_c, 0, 72, 101
1, 968, Note_on_c, 0, 76, 85
1, 1008, Note_off_c, 0, 81, 64
1, 1008, Note_on_c, 0, 83, 16
1, 1035, Note_off_c, 0, 64, 0
1, 1046, Note_off_c, 0, 69, 0
1, 1053, Note_off_c, 0, 72, 0
1, 1054, Note_off_c, 0, 76, 0
1, 1056, Note_off_c, 0, 83, 64
1, 1056, Note_on_c, 0, 83, 16
1, 1104, Note_off_c, 0, 83, 64
1, 1152, Note_on_c, 0, 40, 62
1, 1152, Note_off_c, 0, 45, 0
1, 1152, Note_on_c, 0, 62, 62
1, 1155, Note_on_c, 0, 68, 75
1, 1156, Note_on_c, 0, 71, 85
1, 1160, Note_on_c, 0, 76, 64
1, 1260, Note_off_c, 0, 62, 0
1, 1263, Note_off_c, 0, 76, 0
1, 1265, Note_off_c, 0, 68, 0
1, 1273, Note_off_c, 0, 71, 0
1, 1344, Note_on_c, 0, 41, 64
1, 1344, Note_on_c, 0, 62, 64
1, 1347, Note_on_c, 0, 68, 64
1, 1348, Note_on_c, 0, 71, 85
1, 1352, Note_on_c, 0, 76, 80
1, 1406, Note_off_c, 0, 62, 0
1, 1419, Note_off_c, 0, 68, 0
1, 1431, Note_off_c, 0, 71, 0
1, 1435, Note_off_c, 0, 76, 0
1, 1440, Note_off_c, 0, 40, 0
1, 1440, Note_on_c, 0, 55, 100
1, 1440, Note_on_c, 0, 84, 16
1, 1488, Note_on_c, 0, 74, 100
1, 1488, Note_off_c, 0, 84, 64
1, 1536, Note_off_c, 0, 41, 0
1, 1536, Note_off_c, 0, 55, 64
1, 1536, Note_off_c, 0, 74, 64
1, 0, Note_on_c, 0, 57, 60
1, 0, Note_on_c, 0, 69, 62
1, 0, Note_on_c, 0, 72, 63
1, 0, Note_on_c, 0, 76, 64
1, 48, Note_off_c, 0, 57, 50
1, 48, Note_on_c, 0, 64, 64
1, 48, Note_off_c, 0, 69, 7
1, 48, Note_off_c, 0, 72, 5
1, 48, Note_off_c, 0, 76, 33
1, 92, Note_off_c, 0, 64, 59
1, 96, Note_on_c, 0, 76, 75
1, 120, Note_on_c, 0, 72, 59
1, 120, Note_off_c, 0, 76, 29
1, 144, Note_on_c, 0, 69, 65
1, 144, Note_off_c, 0, 72, 46
1, 190, Note_off_c, 0, 69, 48
1, 192, Note_on_c, 0, 69, 61
1, 192, Note_on_c, 0, 72, 70
1, 192, Note_on_c, 0, 77, 74
1, 240, Note_on_c, 0, 57, 61
1, 240, Note_off_c, 0, 69, 35
1, 240, Note_off_c, 0, 72, 31
1, 240, Note_off_c, 0, 77, 24
1, 282, Note_off_c, 0, 57, 49
1, 288, Note_on_c, 0, 65, 63
1, 288, Note_on_c, 0, 77, 76
1, 312, Note_off_c, 0, 77, 56
1, 312, Note_on_c, 0, 79, 69
1, 336, Note_off_c, 0, 65, 55
1, 336, Note_off_c, 0, 79, 44
1, 336, Note_on_c, 0, 81, 67
1, 356, Note_off_c, 0, 81, 62
1, 384, Note_on_c, 0, 56, 74
1, 384, Note_on_c, 0, 68, 62
1, 384, Note_on_c, 0, 71, 65
1, 384, Note_on_c, 0, 74, 67
1, 393, Note_off_c, 0, 68, 47
1, 393, Note_off_c, 0, 71, 47
1, 398, Note_off_c, 0, 74, 36
1, 432, Note_on_c, 0, 62, 67
1, 433, Note_off_c, 0, 56, 49
1, 480, Note_on_c, 0, 68, 64
1, 480, Note_on_c, 0, 71, 77
1, 480, Note_on_c, 0, 74, 67
1, 488, Note_off_c, 0, 62, 53
1, 492, Note_off_c, 0, 71, 49
1, 493, Note_off_c, 0, 68, 37
1, 496, Note_off_c, 0, 74, 35
1, 528, Note_on_c, 0, 62, 68
1, 548, Note_off_c, 0, 62, 44
1, 552, Note_on_c, 0, 68, 67
1, 552, Note_on_c, 0, 71, 86
1, 552, Note_on_c, 0, 74, 72
1, 564, Note_off_c, 0, 71, 42
1, 566, Note_off_c, 0, 68, 36
1, 568, Note_off_c, 0, 74, 36
1, 600, Note_on_c, 0, 68, 64
1, 600, Note_on_c, 0, 71, 73
1, 600, Note_on_c, 0, 74, 68
1, 614, Note_off_c, 0, 68, 42
1, 614, Note_off_c, 0, 71, 46
1, 616, Note_off_c, 0, 74, 47
1, 624, Note_on_c, 0, 62, 61
1, 637, Note_off_c, 0, 62, 46
1, 672, Note_on_c, 0, 69, 68
1, 672, Note_on_c, 0, 72, 68
1, 688, Note_off_c, 0, 69, 64
1, 688, Note_off_c, 0, 72, 64
1, 720, Note_on_c, 0, 71, 68
1, 736, Note_off_c, 0, 71, 64
1, 768, Note_on_c, 0, 57, 60
1, 768, Note_on_c, 0, 69, 62
1, 768, Note_on_c, 0, 72, 63
1, 768, Note_on_c, 0, 76, 64
1, 816, Note_off_c, 0, 57, 50
1, 816, Note_on_c, 0, 64, 64
1, 816, Note_off_c, 0, 69, 7
1, 816, Note_off_c, 0, 72, 5
1, 816, Note_off_c, 0, 76, 33
1, 860, Note_off_c, 0, 64, 59
1, 864, Note_on_c, 0, 76, 75
1, 888, Note_on_c, 0, 72, 59
1, 888, Note_off_c, 0, 76, 29
1, 912, Note_on_c, 0, 69, 65
1, 912, Note_off_c, 0, 72, 46
1, 958, Note_off_c, 0, 69, 48
1, 960, Note_on_c, 0, 69, 61
1, 960, Note_on_c, 0, 72, 70
1, 960, Note_on_c, 0, 77, 74
1, 1008, Note_on_c, 0, 57, 61
1, 1008, Note_off_c, 0, 69, 35
1, 1008, Note_off_c, 0, 72, 31
1, 1008, Note_off_c, 0, 77, 24
1, 1050, Note_off_c, 0, 57, 49
1, 1056, Note_on_c, 0, 65, 63
1, 1056, Note_on_c, 0, 77, 76
1, 1080, Note_off_c, 0, 77, 56
1, 1080, Note_on_c, 0, 79, 69
1, 1104, Note_off_c, 0, 65, 55
1, 1104, Note_off_c, 0, 79, 44
1, 1104, Note_on_c, 0, 81, 67
1, 1124, Note_off_c, 0, 81, 62
1, 1152, Note_on_c, 0, 56, 74
1, 1152, Note_on_c, 0, 68, 62
1, 1152, Note_on_c, 0, 71, 65
1, 1152, Note_on_c, 0, 74, 67
1, 1161, Note_off_c, 0, 68, 47
1, 1161, Note_off_c, 0, 71, 47
1, 1166, Note_off_c, 0, 74, 36
1, 1200, Note_on_c, 0, 62, 67
1, 1201, Note_off_c, 0, 56, 49
1, 1248, Note_on_c, 0, 68, 64
1, 1248, Note_on_c, 0, 71, 77
1, 1248, Note_on_c, 0, 74, 67
1, 1256, Note_off_c, 0, 62, 53
1, 1260, Note_off_c, 0, 71, 49
1, 1261, Note_off_c, 0, 68, 37
1, 1264, Note_off_c, 0, 74, 35
1, 1296, Note_on_c, 0, 62, 68
1, 1316, Note_off_c, 0, 62, 44
1, 1320, Note_on_c, 0, 68, 67
1, 1320, Note_on_c, 0, 71, 86
1, 1320, Note_on_c, 0, 74, 72
1, 1332, Note_off_c, 0, 71, 42
1, 1334, Note_off_c, 0, 68, 36
1, 1336, Note_off_c, 0, 74, 36
1, 1368, Note_on_c, 0, 68, 64
1, 1368, Note_on_c, 0, 71, 73
1, 1368, Note_on_c, 0, 74, 68
1, 1382, Note_off_c, 0, 68, 42
1, 1382, Note_off_c, 0, 71, 46
1, 1384, Note_off_c, 0, 74, 47
1, 1392, Note_on_c, 0, 62, 61
1, 1405, Note_off_c, 0, 62, 46
1, 1440, Note_on_c, 0, 69, 68
1, 1440, Note_on_c, 0, 72, 68
1, 1456, Note_off_c, 0, 69, 64
1, 1456, Note_off_c, 0, 72, 64
1, 1488, Note_on_c, 0, 71, 68
1, 1504, Note_off_c, 0, 71, 64
1, 0, Note_on_c, 0, 33, 77
1, 0, Note_on_c, 0, 45, 59
1, 0, Note_on_c, 0, 48, 60
1, 0, Note_on_c, 0, 52, 59
1, 0, Note_on_c, 0, 64, 65
1, 94, Note_off_c, 0, 45, 64
1, 94, Note_off_c, 0, 48, 64
1, 94, Note_off_c, 0, 52, 64
1, 96, Note_on_c, 0, 40, 70
1, 96, Note_on_c, 0, 76, 108
1, 101, Note_off_c, 0, 33, 64
1, 183, Note_off_c, 0, 76, 64
1, 192, Note_on_c, 0, 33, 68
1, 192, Note_on_c, 0, 69, 127
1, 194, Note_off_c, 0, 40, 64
1, 240, Note_off_c, 0, 33, 64
1, 240, Note_on_c, 0, 41, 79
1, 240, Note_on_c, 0, 65, 67
1, 245, Note_off_c, 0, 64, 60
1, 288, Note_on_c, 0, 57, 57
1, 291, Note_off_c, 0, 65, 58
1, 336, Note_on_c, 0, 65, 59
1, 339, Note_off_c, 0, 57, 64
1, 379, Note_off_c, 0, 69, 64
1, 384, Note_on_c, 0, 33, 68
1, 384, Note_on_c, 0, 45, 56
1, 384, Note_on_c, 0, 48, 53
1, 384, Note_on_c, 0, 52, 49
1, 384, Note_on_c, 0, 64, 67
1, 387, Note_off_c, 0, 41, 64
1, 390, Note_off_c, 0, 65, 53
1, 476, Note_off_c, 0, 45, 64
1, 476, Note_off_c, 0, 48, 64
1, 476, Note_off_c, 0, 52, 64
1, 480, Note_on_c, 0, 40, 79
1, 480, Note_on_c, 0, 76, 108
1, 481, Note_off_c, 0, 33, 64
1, 567, Note_off_c, 0, 76, 64
1, 576, Note_on_c, 0, 33, 69
1, 576, Note_off_c, 0, 40, 64
1, 576, Note_on_c, 0, 57, 68
1, 576, Note_off_c, 0, 64, 59
1, 576, Note_on_c, 0, 69, 127
1, 624, Note_on_c, 0, 41, 84
1, 624, Note_on_c, 0, 65, 76
1, 625, Note_off_c, 0, 57, 53
1, 627, Note_off_c, 0, 33, 64
1, 720, Note_on_c, 0, 38, 70
1, 720, Note_on_c, 0, 62, 76
1, 720, Note_off_c, 0, 65, 64
1, 723, Note_off_c, 0, 41, 64
1, 763, Note_off_c, 0, 69, 64
1, 768, Note_on_c, 0, 33, 77
1, 768, Note_on_c, 0, 45, 57
1, 768, Note_on_c, 0, 48, 60
1, 768, Note_on_c, 0, 52, 59
1, 768, Note_off_c, 0, 62, 57
1, 768, Note_on_c, 0, 64, 65
1, 769, Note_off_c, 0, 38, 64
1, 856, Note_off_c, 0, 48, 64
1, 857, Note_off_c, 0, 45, 64
1, 857, Note_off_c, 0, 52, 64
1, 864, Note_on_c, 0, 40, 70
1, 864, Note_on_c, 0, 76, 108
1, 869, Note_off_c, 0, 33, 64
1, 951, Note_off_c, 0, 76, 64
1, 960, Note_on_c, 0, 33, 68
1, 960, Note_on_c, 0, 69, 127
1, 962, Note_off_c, 0, 40, 64
1, 1008, Note_off_c, 0, 33, 64
1, 1008, Note_on_c, 0, 41, 79
1, 1008, Note_on_c, 0, 65, 67
1, 1013, Note_off_c, 0, 64, 64
1, 1056, Note_on_c, 0, 57, 57
1, 1059, Note_off_c, 0, 65, 64
1, 1104, Note_on_c, 0, 65, 59
1, 1107, Note_off_c, 0, 57, 64
1, 1147, Note_off_c, 0, 69, 64
1, 1152, Note_on_c, 0, 33, 68
1, 1152, Note_on_c, 0, 45, 49
1, 1152, Note_on_c, 0, 48, 52
1, 1152, Note_on_c, 0, 52, 50
1, 1152, Note_on_c, 0, 64, 67
1, 1155, Note_off_c, 0, 41, 64
1, 1158, Note_off_c, 0, 65, 64
1, 1235, Note_off_c, 0, 45, 64
1, 1235, Note_off_c, 0, 48, 64
1, 1238, Note_off_c, 0, 52, 64
1, 1248, Note_on_c, 0, 40, 79
1, 1248, Note_on_c, 0, 76, 108
1, 1249, Note_off_c, 0, 33, 64
1, 1335, Note_off_c, 0, 76, 64
1, 1344, Note_on_c, 0, 33, 69
1, 1344, Note_off_c, 0, 40, 64
1, 1344, Note_on_c, 0, 57, 68
1, 1344, Note_off_c, 0, 64, 64
1, 1344, Note_on_c, 0, 69, 127
1, 1392, Note_on_c, 0, 41, 84
1, 1392, Note_on_c, 0, 65, 76
1, 1393, Note_off_c, 0, 57, 64
1, 1395, Note_off_c, 0, 33, 64
1, 1488, Note_on_c, 0, 38, 70
1, 1488, Note_on_c, 0, 62, 76
1, 1488, Note_off_c, 0, 65, 64
1, 1491, Note_off_c, 0, 41, 64
1, 1531, Note_off_c, 0, 69, 64
1, 1536, Note_off_c, 0, 38, 64
1, 1536, Note_off_c, 0, 62, 64
1, 0, Note_on_c, 0, 41, 85
1, 0, Note_on_c, 0, 53, 78
1, 0, Note_on_c, 0, 65, 91
1, 0, Note_on_c, 0, 69, 90
1, 0, Note_on_c, 0, 72, 83
1, 0, Note_on_c, 0, 81, 79
1, 58, Note_off_c, 0, 81, 61
1, 192, Note_on_c, 0, 83, 82
1, 250, Note_off_c, 0, 83, 38
1, 383, Note_off_c, 0, 41, 52
1, 383, Note_off_c, 0, 53, 47
1, 383, Note_off_c, 0, 69, 62
1, 383, Note_off_c, 0, 72, 38
1, 384, Note_on_c, 0, 41, 94
1, 384, Note_on_c, 0, 53, 89
1, 384, Note_on_c, 0, 67, 99
1, 384, Note_on_c, 0, 69, 93
1, 384, Note_on_c, 0, 72, 82
1, 384, Note_on_c, 0, 84, 102
1, 385, Note_off_c, 0, 65, 65
1, 446, Note_off_c, 0, 84, 50
1, 576, Note_on_c, 0, 88, 111
1, 624, Note_off_c, 0, 88, 75
1, 767, Note_off_c, 0, 67, 78
1, 767, Note_off_c, 0, 72, 71
1, 768, Note_on_c, 0, 48, 85
1, 768, Note_on_c, 0, 60, 80
1, 768, Note_on_c, 0, 67, 73
1, 768, Note_on_c, 0, 72, 102
1, 768, Note_on_c, 0, 76, 86
1, 768, Note_on_c, 0, 86, 106
1, 773, Note_off_c, 0, 41, 70
1, 773, Note_off_c, 0, 53, 67
1, 773, Note_off_c, 0, 69, 68
1, 812, Note_off_c, 0, 86, 70
1, 816, Note_on_c, 0, 88, 90
1, 856, Note_off_c, 0, 88, 58
1, 864, Note_on_c, 0, 86, 51
1, 906, Note_off_c, 0, 86, 70
1, 912, Note_on_c, 0, 84, 80
1, 938, Note_off_c, 0, 84, 69
1, 960, Note_on_c, 0, 84, 93
1, 1014, Note_off_c, 0, 84, 55
1, 1152, Note_on_c, 0, 43, 93
1, 1152, Note_on_c, 0, 55, 85
1, 1152, Note_on_c, 0, 62, 73
1, 1152, Note_on_c, 0, 69, 82
1, 1152, Note_on_c, 0, 71, 76
1, 1152, Note_on_c, 0, 86, 76
1, 1157, Note_off_c, 0, 48, 55
1, 1157, Note_off_c, 0, 60, 53
1, 1157, Note_off_c, 0, 67, 59
1, 1157, Note_off_c, 0, 72, 76
1, 1157, Note_off_c, 0, 76, 73
1, 1195, Note_off_c, 0, 86, 63
1, 1200, Note_on_c, 0, 88, 86
1, 1248, Note_on_c, 0, 86, 73
1, 1251, Note_off_c, 0, 88, 43
1, 1294, Note_off_c, 0, 86, 67
1, 1296, Note_on_c, 0, 84, 72
1, 1344, Note_on_c, 0, 83, 86
1, 1349, Note_off_c, 0, 84, 14
1, 1436, Note_off_c, 0, 83, 34
1, 1440, Note_on_c, 0, 84, 90
1, 1501, Note_off_c, 0, 84, 65
1, 1536, Note_off_c, 0, 69, 74
1, 1537, Note_off_c, 0, 43, 70
1, 1537, Note_off_c, 0, 55, 57
1, 1537, Note_off_c, 0, 62, 61
1, 1537, Note_off_c, 0, 71, 48
1, 0, Note_on_c, 0, 41, 104
1, 0, Note_on_c, 0, 53, 104
1, 6, Note_on_c, 0, 50, 104
1, 96, Note_on_c, 0, 57, 104
1, 144, Note_on_c, 0, 60, 104
1, 192, Note_off_c, 0, 57, 64
1, 192, Note_on_c, 0, 59, 104
1, 240, Note_off_c, 0, 60, 64
1, 288, Note_on_c, 0, 57, 104
1, 384, Note_off_c, 0, 41, 64
1, 384, Note_on_c, 0, 45, 104
1, 384, Note_off_c, 0, 50, 64
1, 384, Note_off_c, 0, 53, 64
1, 384, Note_off_c, 0, 57, 64
1, 384, Note_off_c, 0, 59, 64
1, 384, Note_on_c, 0, 60, 127
1, 432, Note_on_c, 0, 48, 104
1, 480, Note_on_c, 0, 52, 104
1, 528, Note_off_c, 0, 48, 64
1, 528, Note_on_c, 0, 53, 104
1, 552, Note_off_c, 0, 60, 64
1, 576, Note_off_c, 0, 52, 64
1, 576, Note_on_c, 0, 59, 104
1, 672, Note_on_c, 0, 48, 104
1, 677, Note_on_c, 0, 57, 104
1, 744, Note_off_c, 0, 59, 64
1, 768, Note_on_c, 0, 41, 104
1, 768, Note_off_c, 0, 45, 64
1, 768, Note_off_c, 0, 48, 64
1, 768, Note_off_c, 0, 53, 64
1, 768, Note_on_c, 0, 53, 104
1, 768, Note_off_c, 0, 57, 64
1, 774, Note_on_c, 0, 50, 104
1, 864, Note_on_c, 0, 57, 104
1, 912, Note_on_c, 0, 60, 104
1, 960, Note_off_c, 0, 57, 64
1, 960, Note_on_c, 0, 59, 104
1, 1008, Note_off_c, 0, 60, 64
1, 1056, Note_on_c, 0, 57, 104
1, 1152, Note_off_c, 0, 41, 64
1, 1152, Note_on_c, 0, 45, 104
1, 1152, Note_off_c, 0, 50, 64
1, 1152, Note_off_c, 0, 53, 64
1, 1152, Note_off_c, 0, 57, 64
1, 1152, Note_off_c, 0, 59, 64
1, 1152, Note_on_c, 0, 60, 127
1, 1200, Note_on_c, 0, 48, 104
1, 1248, Note_on_c, 0, 52, 104
1, 1296, Note_off_c, 0, 48, 64
1, 1296, Note_on_c, 0, 53, 104
1, 1320, Note_off_c, 0, 60, 64
1, 1344, Note_off_c, 0, 52, 64
1, 1344, Note_on_c, 0, 59, 104
1, 1440, Note_on_c, 0, 48, 104
1, 1445, Note_on_c, 0, 57, 104
1, 1512, Note_off_c, 0, 59, 64
1, 1536, Note_on_c, 0, 41, 104
1, 1536, Note_off_c, 0, 45, 64
1, 1536, Note_off_c, 0, 48, 64
1, 1536, Note_off_c, 0, 53, 64
1, 1536, Note_on_c, 0, 53, 104
1, 1536, Note_off_c, 0, 57, 64
1, 1542, Note_on_c, 0, 50, 104
1, 1632, Note_on_c, 0, 57, 104
1, 1680, Note_on_c, 0, 60, 104
1, 1728, Note_off_c, 0, 57, 64
1, 1728, Note_on_c, 0, 59, 104
1, 1776, Note_off_c, 0, 60, 64
1, 1824, Note_on_c, 0, 57, 104
1, 1920, Note_off_c, 0, 41, 64
1, 1920, Note_on_c, 0, 45, 104
1, 1920, Note_off_c, 0, 50, 64
1, 1920, Note_off_c, 0, 53, 64
1, 1920, Note_off_c, 0, 57, 64
1, 1920, Note_off_c, 0, 59, 64
1, 1920, Note_on_c, 0, 60, 127
1, 1968, Note_on_c, 0, 48, 104
1, 2016, Note_on_c, 0, 52, 104
1, 2064, Note_off_c, 0, 48, 64
1, 2064, Note_on_c, 0, 53, 104
1, 2088, Note_off_c, 0, 60, 64
1, 2112, Note_off_c, 0, 52, 64
1, 2112, Note_on_c, 0, 59, 104
1, 2208, Note_on_c, 0, 48, 104
1, 2213, Note_on_c, 0, 57, 104
1, 2280, Note_off_c, 0, 59, 64
1, 2304, Note_on_c, 0, 41, 104
1, 2304, Note_off_c, 0, 45, 64
1, 2304, Note_off_c, 0, 48, 64
1, 2304, Note_off_c, 0, 53, 64
1, 2304, Note_on_c, 0, 53, 104
1, 2304, Note_off_c, 0, 57, 64
1, 2310, Note_on_c, 0, 50, 104
1, 2400, Note_on_c, 0, 57, 104
1, 2448, Note_on_c, 0, 60, 104
1, 2496, Note_off_c, 0, 57, 64
1, 2496, Note_on_c, 0, 59, 104
1, 2544, Note_off_c, 0, 60, 64
1, 2592, Note_on_c, 0, 57, 104
1, 2688, Note_off_c, 0, 41, 64
1, 2688, Note_on_c, 0, 45, 104
1, 2688, Note_off_c, 0, 50, 64
1, 2688, Note_off_c, 0, 53, 64
1, 2688, Note_off_c, 0, 57, 64
1, 2688, Note_off_c, 0, 59, 64
1, 2688, Note_on_c, 0, 60, 127
1, 2736, Note_on_c, 0, 48, 104
1, 2784, Note_on_c, 0, 52, 104
1, 2832, Note_off_c, 0, 48, 64
1, 2832, Note_on_c, 0, 53, 104
1, 2856, Note_off_c, 0, 60, 64
1, 2880, Note_off_c, 0, 52, 64
1, 2880, Note_on_c, 0, 59, 104
1, 2976, Note_on_c, 0, 48, 104
1, 2981, Note_on_c, 0, 57, 104
1, 3048, Note_off_c, 0, 59, 64
1, 3072, Note_off_c, 0, 45, 64
1, 3072, Note_off_c, 0, 48, 64
1, 3072, Note_off_c, 0, 53, 64
1, 3072, Note_off_c, 0, 57, 64
1, 0, Note_on_c, 0, 50, 72
1, 0, Note_on_c, 0, 53, 72
1, 0, Note_on_c, 0, 57, 72
1, 96, Note_off_c, 0, 50, 64
1, 96, Note_off_c, 0, 53, 64
1, 96, Note_off_c, 0, 57, 64
1, 96, Note_on_c, 0, 72, 80
1, 144, Note_on_c, 0, 71, 80
1, 144, Note_off_c, 0, 72, 64
1, 192, Note_on_c, 0, 69, 80
1, 192, Note_off_c, 0, 71, 64
1, 240, Note_off_c, 0, 69, 64
1, 384, Note_on_c, 0, 45, 72
1, 384, Note_on_c, 0, 52, 72
1, 384, Note_on_c, 0, 60, 72
1, 576, Note_off_c, 0, 45, 64
1, 576, Note_off_c, 0, 52, 64
1, 576, Note_off_c, 0, 60, 64
1, 576, Note_on_c, 0, 65, 80
1, 648, Note_off_c, 0, 65, 64
1, 672, Note_on_c, 0, 64, 80
1, 720, Note_off_c, 0, 64, 64
1, 768, Note_on_c, 0, 50, 72
1, 768, Note_on_c, 0, 53, 72
1, 768, Note_on_c, 0, 57, 72
1, 864, Note_off_c, 0, 50, 64
1, 864, Note_off_c, 0, 53, 64
1, 864, Note_off_c, 0, 57, 64
1, 864, Note_on_c, 0, 72, 80
1, 912, Note_on_c, 0, 67, 80
1, 912, Note_on_c, 0, 71, 80
1, 912, Note_off_c, 0, 72, 64
1, 960, Note_off_c, 0, 71, 64
1, 984, Note_off_c, 0, 67, 64
1, 1152, Note_on_c, 0, 45, 72
1, 1152, Note_on_c, 0, 52, 72
1, 1152, Note_on_c, 0, 60, 72
1, 1344, Note_off_c, 0, 45, 64
1, 1344, Note_off_c, 0, 52, 64
1, 1344, Note_off_c, 0, 60, 64
1, 1344, Note_on_c, 0, 65, 80
1, 1416, Note_off_c, 0, 65, 64
1, 1440, Note_on_c, 0, 64, 80
1, 1488, Note_off_c, 0, 64, 64
1, 0, Note_on_c, 0, 45, 90
1, 0, Note_on_c, 0, 88, 120
1, 6, Note_on_c, 0, 57, 90
1, 11, Note_on_c, 0, 69, 90
1, 72, Note_off_c, 0, 88, 64
1, 72, Note_on_c, 0, 88, 120
1, 84, Note_on_c, 0, 83, 120
1, 84, Note_off_c, 0, 88, 64
1, 96, Note_on_c, 0, 60, 90
1, 96, Note_off_c, 0, 83, 64
1, 96, Note_on_c, 0, 84, 120
1, 102, Note_off_c, 0, 57, 64
1, 107, Note_off_c, 0, 69, 64
1, 186, Note_off_c, 0, 84, 64
1, 192, Note_on_c, 0, 64, 90
1, 192, Note_on_c, 0, 84, 120
1, 282, Note_off_c, 0, 84, 64
1, 288, Note_on_c, 0, 69, 90
1, 288, Note_on_c, 0, 83, 120
1, 336, Note_off_c, 0, 83, 64
1, 384, Note_off_c, 0, 45, 64
1, 384, Note_on_c, 0, 53, 90
1, 384, Note_off_c, 0, 60, 64
1, 384, Note_on_c, 0, 62, 90
1, 384, Note_off_c, 0, 64, 64
1, 384, Note_off_c, 0, 69, 64
1, 384, Note_on_c, 0, 89, 120
1, 408, Note_off_c, 0, 89, 64
1, 432, Note_on_c, 0, 59, 90
1, 432, Note_on_c, 0, 88, 120
1, 456, Note_off_c, 0, 88, 64
1, 480, Note_on_c, 0, 60, 90
1, 480, Note_on_c, 0, 86, 120
1, 504, Note_off_c, 0, 62, 64
1, 504, Note_off_c, 0, 86, 64
1, 528, Note_on_c, 0, 84, 120
1, 552, Note_off_c, 0, 59, 64
1, 552, Note_off_c, 0, 84, 64
1, 576, Note_on_c, 0, 64, 90
1, 576, Note_on_c, 0, 86, 120
1, 672, Note_off_c, 0, 60, 64
1, 672, Note_on_c, 0, 62, 90
1, 672, Note_off_c, 0, 64, 64
1, 672, Note_on_c, 0, 84, 120
1, 672, Note_off_c, 0, 86, 64
1, 696, Note_off_c, 0, 84, 64
1, 720, Note_on_c, 0, 86, 120
1, 744, Note_off_c, 0, 86, 64
1, 768, Note_on_c, 0, 45, 90
1, 768, Note_off_c, 0, 53, 64
1, 768, Note_off_c, 0, 62, 64
1, 768, Note_on_c, 0, 88, 120
1, 774, Note_on_c, 0, 57, 90
1, 779, Note_on_c, 0, 69, 90
1, 833, Note_off_c, 0, 88, 64
1, 840, Note_on_c, 0, 88, 120
1, 852, Note_on_c, 0, 83, 120
1, 852, Note_off_c, 0, 88, 64
1, 864, Note_on_c, 0, 60, 90
1, 864, Note_off_c, 0, 83, 64
1, 864, Note_on_c, 0, 84, 120
1, 870, Note_off_c, 0, 57, 64
1, 875, Note_off_c, 0, 69, 64
1, 954, Note_off_c, 0, 84, 64
1, 960, Note_on_c, 0, 64, 90
1, 960, Note_on_c, 0, 84, 120
1, 1050, Note_off_c, 0, 84, 64
1, 1056, Note_on_c, 0, 69, 90
1, 1056, Note_on_c, 0, 83, 120
1, 1104, Note_off_c, 0, 83, 64
1, 1152, Note_off_c, 0, 45, 64
1, 1152, Note_on_c, 0, 53, 90
1, 1152, Note_off_c, 0, 60, 64
1, 1152, Note_on_c, 0, 62, 90
1, 1152, Note_off_c, 0, 64, 64
1, 1152, Note_off_c, 0, 69, 64
1, 1152, Note_on_c, 0, 89, 120
1, 1176, Note_off_c, 0, 89, 64
1, 1200, Note_on_c, 0, 59, 90
1, 1200, Note_on_c, 0, 88, 120
1, 1224, Note_off_c, 0, 88, 64
1, 1248, Note_on_c, 0, 60, 90
1, 1248, Note_on_c, 0, 86, 120
1, 1272, Note_off_c, 0, 62, 64
1, 1272, Note_off_c, 0, 86, 64
1, 1320, Note_off_c, 0, 59, 64
1, 1344, Note_on_c, 0, 64, 90
1, 1344, Note_on_c, 0, 84, 120
1, 1390, Note_off_c, 0, 84, 64
1, 1428, Note_on_c, 0, 84, 127
1, 1440, Note_off_c, 0, 60, 64
1, 1440, Note_on_c, 0, 62, 90
1, 1440, Note_off_c, 0, 64, 64
1, 1440, Note_on_c, 0, 83, 127
1, 1440, Note_off_c, 0, 84, 64
1, 1536, Note_on_c, 0, 33, 90
1, 1536, Note_on_c, 0, 45, 90
1, 1536, Note_off_c, 0, 53, 64
1, 1536, Note_off_c, 0, 62, 64
1, 1536, Note_off_c, 0, 83, 64
1, 1536, Note_on_c, 0, 88, 120
1, 1542, Note_on_c, 0, 57, 90
1, 1547, Note_on_c, 0, 69, 90
1, 1608, Note_off_c, 0, 88, 64
1, 1608, Note_on_c, 0, 88, 120
1, 1620, Note_on_c, 0, 83, 120
1, 1620, Note_off_c, 0, 88, 64
1, 1632, Note_on_c, 0, 60, 90
1, 1632, Note_off_c, 0, 83, 64
1, 1632, Note_on_c, 0, 84, 120
1, 1638, Note_off_c, 0, 57, 64
1, 1643, Note_off_c, 0, 69, 64
1, 1722, Note_off_c, 0, 84, 64
1, 1728, Note_on_c, 0, 64, 90
1, 1728, Note_on_c, 0, 84, 120
1, 1818, Note_off_c, 0, 84, 64
1, 1824, Note_on_c, 0, 69, 90
1, 1824, Note_on_c, 0, 83, 120
1, 1872, Note_off_c, 0, 83, 64
1, 1920, Note_off_c, 0, 33, 64
1, 1920, Note_on_c, 0, 41, 90
1, 1920, Note_off_c, 0, 45, 64
1, 1920, Note_on_c, 0, 53, 90
1, 1920, Note_off_c, 0, 60, 64
1, 1920, Note_on_c, 0, 62, 90
1, 1920, Note_off_c, 0, 64, 64
1, 1920, Note_off_c, 0, 69, 64
1, 1920, Note_on_c, 0, 89, 120
1, 1968, Note_on_c, 0, 59, 90
1, 1968, Note_on_c, 0, 88, 120
1, 1968, Note_off_c, 0, 89, 64
1, 2016, Note_on_c, 0, 60, 90
1, 2016, Note_on_c, 0, 86, 120
1, 2016, Note_off_c, 0, 88, 64
1, 2040, Note_off_c, 0, 62, 64
1, 2064, Note_off_c, 0, 86, 64
1, 2088, Note_off_c, 0, 59, 64
1, 2112, Note_on_c, 0, 64, 90
1, 2113, Note_on_c, 0, 84, 120
1, 2207, Note_off_c, 0, 84, 64
1, 2208, Note_off_c, 0, 60, 64
1, 2208, Note_on_c, 0, 62, 90
1, 2208, Note_off_c, 0, 64, 64
1, 2208, Note_on_c, 0, 84, 120
1, 2220, Note_off_c, 0, 84, 64
1, 2220, Note_on_c, 0, 86, 120
1, 2292, Note_off_c, 0, 86, 64
1, 2304, Note_off_c, 0, 41, 64
1, 2304, Note_on_c, 0, 45, 90
1, 2304, Note_off_c, 0, 53, 64
1, 2304, Note_off_c, 0, 62, 64
1, 2304, Note_on_c, 0, 88, 120
1, 2310, Note_on_c, 0, 57, 90
1, 2315, Note_on_c, 0, 69, 90
1, 2369, Note_off_c, 0, 88, 64
1, 2376, Note_on_c, 0, 88, 120
1, 2388, Note_on_c, 0, 83, 120
1, 2388, Note_off_c, 0, 88, 64
1, 2400, Note_on_c, 0, 60, 90
1, 2400, Note_off_c, 0, 83, 64
1, 2400, Note_on_c, 0, 84, 120
1, 2406, Note_off_c, 0, 57, 64
1, 2411, Note_off_c, 0, 69, 64
1, 2490, Note_off_c, 0, 84, 64
1, 2496, Note_on_c, 0, 64, 90
1, 2496, Note_on_c, 0, 84, 120
1, 2586, Note_off_c, 0, 84, 64
1, 2592, Note_on_c, 0, 69, 90
1, 2592, Note_on_c, 0, 83, 120
1, 2640, Note_off_c, 0, 83, 64
1, 2688, Note_off_c, 0, 45, 64
1, 2688, Note_on_c, 0, 53, 90
1, 2688, Note_off_c, 0, 60, 64
1, 2688, Note_on_c, 0, 62, 90
1, 2688, Note_off_c, 0, 64, 64
1, 2688, Note_off_c, 0, 69, 64
1, 2688, Note_on_c, 0, 89, 120
1, 2712, Note_off_c, 0, 89, 64
1, 2736, Note_on_c, 0, 59, 90
1, 2736, Note_on_c, 0, 88, 120
1, 2760, Note_off_c, 0, 88, 64
1, 2784, Note_on_c, 0, 60, 90
1, 2784, Note_on_c, 0, 86, 120
1, 2808, Note_off_c, 0, 62, 64
1, 2808, Note_off_c, 0, 86, 64
1, 2856, Note_off_c, 0, 59, 64
1, 2880, Note_on_c, 0, 64, 90
1, 2881, Note_on_c, 0, 84, 120
1, 2976, Note_off_c, 0, 60, 64
1, 2976, Note_on_c, 0, 62, 90
1, 2976, Note_off_c, 0, 64, 64
1, 2976, Note_off_c, 0, 84, 64
1, 3072, Note_off_c, 0, 53, 64
1, 3072, Note_off_c, 0, 62, 64
1, 0, Note_on_c, 0, 57, 66
1, 0, Note_on_c, 0, 60, 57
1, 0, Note_on_c, 0, 64, 79
1, 72, Note_on_c, 0, 45, 68
1, 95, Note_off_c, 0, 64, 57
1, 96, Note_on_c, 0, 65, 73
1, 144, Note_off_c, 0, 45, 64
1, 144, Note_on_c, 0, 45, 54
1, 144, Note_off_c, 0, 45, 64
1, 144, Note_on_c, 0, 64, 79
1, 154, Note_off_c, 0, 65, 48
1, 206, Note_off_c, 0, 60, 50
1, 240, Note_on_c, 0, 60, 68
1, 240, Note_off_c, 0, 64, 57
1, 288, Note_on_c, 0, 62, 70
1, 293, Note_off_c, 0, 60, 53
1, 328, Note_off_c, 0, 57, 37
1, 336, Note_on_c, 0, 64, 81
1, 339, Note_off_c, 0, 62, 55
1, 384, Note_on_c, 0, 52, 56
1, 384, Note_on_c, 0, 55, 58
1, 384, Note_on_c, 0, 59, 74
1, 386, Note_off_c, 0, 64, 63
1, 456, Note_on_c, 0, 40, 22
1, 480, Note_on_c, 0, 64, 73
1, 528, Note_off_c, 0, 40, 64
1, 528, Note_on_c, 0, 40, 11
1, 528, Note_off_c, 0, 40, 64
1, 528, Note_on_c, 0, 62, 70
1, 534, Note_off_c, 0, 59, 44
1, 537, Note_off_c, 0, 64, 44
1, 619, Note_off_c, 0, 62, 56
1, 624, Note_on_c, 0, 64, 69
1, 672, Note_on_c, 0, 65, 68
1, 674, Note_off_c, 0, 64, 52
1, 719, Note_off_c, 0, 52, 36
1, 720, Note_on_c, 0, 67, 68
1, 724, Note_off_c, 0, 55, 33
1, 725, Note_off_c, 0, 65, 58
1, 760, Note_on_c, 0, 81, 42
1, 767, Note_on_c, 0, 84, 46
1, 768, Note_on_c, 0, 57, 66
1, 768, Note_on_c, 0, 60, 57
1, 768, Note_on_c, 0, 64, 79
1, 779, Note_on_c, 0, 88, 57
1, 783, Note_off_c, 0, 67, 44
1, 840, Note_on_c, 0, 45, 68
1, 863, Note_off_c, 0, 64, 64
1, 864, Note_on_c, 0, 65, 73
1, 886, Note_off_c, 0, 88, 64
1, 912, Note_off_c, 0, 45, 64
1, 912, Note_on_c, 0, 45, 54
1, 912, Note_off_c, 0, 45, 64
1, 912, Note_on_c, 0, 64, 79
1, 913, Note_on_c, 0, 88, 58
1, 922, Note_off_c, 0, 65, 64
1, 974, Note_off_c, 0, 60, 64
1, 1008, Note_on_c, 0, 60, 68
1, 1008, Note_off_c, 0, 64, 64
1, 1056, Note_on_c, 0, 62, 70
1, 1061, Note_off_c, 0, 60, 64
1, 1068, Note_off_c, 0, 88, 64
1, 1072, Note_off_c, 0, 84, 64
1, 1079, Note_off_c, 0, 81, 64
1, 1096, Note_off_c, 0, 57, 64
1, 1104, Note_on_c, 0, 64, 81
1, 1107, Note_off_c, 0, 62, 64
1, 1139, Note_on_c, 0, 76, 29
1, 1142, Note_on_c, 0, 79, 36
1, 1148, Note_on_c, 0, 83, 39
1, 1152, Note_on_c, 0, 52, 56
1, 1152, Note_on_c, 0, 55, 58
1, 1152, Note_on_c, 0, 59, 74
1, 1154, Note_off_c, 0, 64, 64
1, 1224, Note_on_c, 0, 40, 22
1, 1248, Note_on_c, 0, 64, 73
1, 1288, Note_off_c, 0, 83, 64
1, 1292, Note_on_c, 0, 83, 47
1, 1296, Note_off_c, 0, 40, 64
1, 1296, Note_on_c, 0, 40, 11
1, 1296, Note_off_c, 0, 40, 64
1, 1296, Note_on_c, 0, 62, 70
1, 1302, Note_off_c, 0, 59, 64
1, 1305, Note_off_c, 0, 64, 64
1, 1387, Note_off_c, 0, 62, 64
1, 1392, Note_on_c, 0, 64, 69
1, 1440, Note_on_c, 0, 65, 68
1, 1442, Note_off_c, 0, 64, 64
1, 1448, Note_off_c, 0, 79, 64
1, 1451, Note_off_c, 0, 76, 64
1, 1453, Note_off_c, 0, 83, 64
1, 1487, Note_off_c, 0, 52, 64
1, 1488, Note_on_c, 0, 67, 68
1, 1492, Note_off_c, 0, 55, 64
1, 1493, Note_off_c, 0, 65, 64
1, 1536, Note_off_c, 0, 67, 64
1, 0, Note_on_c, 0, 45, 64
1, 0, Note_on_c, 0, 57, 52
1, 0, Note_on_c, 0, 60, 56
1, 0, Note_on_c, 0, 64, 56
1, 48, Note_on_c, 0, 81, 68
1, 96, Note_on_c, 0, 88, 64
1, 144, Note_on_c, 0, 41, 62
1, 150, Note_off_c, 0, 45, 41
1, 192, Note_on_c, 0, 40, 60
1, 200, Note_off_c, 0, 41, 58
1, 288, Note_on_c, 0, 47, 56
1, 288, Note_on_c, 0, 59, 57
1, 288, Note_off_c, 0, 60, 64
1, 288, Note_off_c, 0, 64, 64
1, 288, Note_on_c, 0, 65, 56
1, 292, Note_off_c, 0, 40, 61
1, 336, Note_on_c, 0, 48, 59
1, 340, Note_off_c, 0, 47, 59
1, 384, Note_on_c, 0, 45, 61
1, 384, Note_off_c, 0, 57, 64
1, 384, Note_on_c, 0, 57, 35
1, 384, Note_off_c, 0, 57, 64
1, 384, Note_off_c, 0, 59, 64
1, 384, Note_on_c, 0, 60, 58
1, 384, Note_on_c, 0, 64, 52
1, 384, Note_off_c, 0, 65, 64
1, 388, Note_off_c, 0, 81, 64
1, 391, Note_off_c, 0, 48, 42
1, 393, Note_off_c, 0, 88, 64
1, 432, Note_on_c, 0, 81, 65
1, 480, Note_on_c, 0, 88, 53
1, 528, Note_on_c, 0, 41, 66
1, 535, Note_off_c, 0, 45, 44
1, 576, Note_on_c, 0, 40, 64
1, 576, Note_on_c, 0, 59, 58
1, 576, Note_off_c, 0, 60, 64
1, 576, Note_off_c, 0, 64, 64
1, 587, Note_off_c, 0, 41, 48
1, 666, Note_off_c, 0, 81, 64
1, 667, Note_off_c, 0, 88, 64
1, 670, Note_off_c, 0, 40, 53
1, 672, Note_on_c, 0, 33, 67
1, 672, Note_off_c, 0, 59, 64
1, 760, Note_off_c, 0, 33, 63
1, 768, Note_on_c, 0, 45, 64
1, 768, Note_on_c, 0, 57, 29
1, 768, Note_on_c, 0, 60, 57
1, 768, Note_on_c, 0, 64, 33
1, 816, Note_on_c, 0, 81, 68
1, 864, Note_on_c, 0, 88, 64
1, 912, Note_on_c, 0, 41, 62
1, 918, Note_off_c, 0, 45, 64
1, 960, Note_on_c, 0, 40, 60
1, 968, Note_off_c, 0, 41, 64
1, 1056, Note_on_c, 0, 47, 56
1, 1056, Note_on_c, 0, 59, 36
1, 1056, Note_on_c, 0, 65, 54
1, 1060, Note_off_c, 0, 40, 64
1, 1060, Note_off_c, 0, 60, 64
1, 1063, Note_off_c, 0, 64, 64
1, 1104, Note_on_c, 0, 48, 59
1, 1108, Note_off_c, 0, 47, 64
1, 1152, Note_on_c, 0, 45, 61
1, 1152, Note_on_c, 0, 60, 60
1, 1152, Note_on_c, 0, 64, 59
1, 1152, Note_off_c, 0, 65, 64
1, 1156, Note_off_c, 0, 81, 64
1, 1159, Note_off_c, 0, 48, 64
1, 1160, Note_off_c, 0, 59, 64
1, 1161, Note_off_c, 0, 88, 64
1, 1200, Note_on_c, 0, 81, 65
1, 1248, Note_on_c, 0, 88, 53
1, 1296, Note_on_c, 0, 41, 66
1, 1303, Note_off_c, 0, 45, 64
1, 1342, Note_off_c, 0, 60, 64
1, 1344, Note_on_c, 0, 40, 64
1, 1344, Note_on_c, 0, 59, 39
1, 1355, Note_off_c, 0, 41, 64
1, 1434, Note_off_c, 0, 81, 64
1, 1435, Note_off_c, 0, 88, 64
1, 1438, Note_off_c, 0, 40, 64
1, 1440, Note_on_c, 0, 33, 67
1, 1440, Note_off_c, 0, 57, 64
1, 1440, Note_off_c, 0, 59, 64
1, 1440, Note_off_c, 0, 64, 64
1, 1528, Note_off_c, 0, 33, 64
1, 1536, Note_on_c, 0, 45, 64
1, 1536, Note_on_c, 0, 57, 52
1, 1536, Note_on_c, 0, 60, 56
1, 1536, Note_on_c, 0, 64, 56
1, 1584, Note_on_c, 0, 81, 68
1, 1627, Note_on_c, 0, 52, 98
1, 1632, Note_on_c, 0, 88, 64
1, 1680, Note_on_c, 0, 41, 62
1, 1686, Note_off_c, 0, 45, 64
1, 1722, Note_on_c, 0, 77, 62
1, 1724, Note_off_c, 0, 52, 64
1, 1728, Note_on_c, 0, 40, 60
1, 1736, Note_off_c, 0, 41, 64
1, 1771, Note_on_c, 0, 48, 98
1, 1819, Note_on_c, 0, 76, 53
1, 1824, Note_on_c, 0, 47, 56
1, 1824, Note_on_c, 0, 59, 57
1, 1824, Note_off_c, 0, 60, 64
1, 1824, Note_off_c, 0, 64, 64
1, 1824, Note_on_c, 0, 65, 56
1, 1828, Note_off_c, 0, 40, 64
1, 1831, Note_off_c, 0, 77, 56
1, 1868, Note_off_c, 0, 48, 64
1, 1872, Note_on_c, 0, 48, 59
1, 1876, Note_off_c, 0, 47, 64
1, 1920, Note_on_c, 0, 45, 61
1, 1920, Note_off_c, 0, 57, 64
1, 1920, Note_on_c, 0, 57, 35
1, 1920, Note_off_c, 0, 57, 64
1, 1920, Note_off_c, 0, 59, 64
1, 1920, Note_on_c, 0, 60, 58
1, 1920, Note_on_c, 0, 64, 52
1, 1920, Note_off_c, 0, 65, 64
1, 1924, Note_off_c, 0, 81, 64
1, 1927, Note_off_c, 0, 48, 64
1, 1929, Note_off_c, 0, 88, 64
1, 1968, Note_on_c, 0, 81, 65
1, 2011, Note_on_c, 0, 52, 98
1, 2016, Note_on_c, 0, 88, 53
1, 2064, Note_on_c, 0, 41, 66
1, 2071, Note_off_c, 0, 45, 64
1, 2100, Note_on_c, 0, 72, 47
1, 2108, Note_off_c, 0, 52, 64
1, 2108, Note_off_c, 0, 76, 47
1, 2112, Note_on_c, 0, 40, 64
1, 2112, Note_on_c, 0, 59, 58
1, 2112, Note_off_c, 0, 60, 64
1, 2112, Note_off_c, 0, 64, 64
1, 2123, Note_off_c, 0, 41, 64
1, 2193, Note_on_c, 0, 71, 39
1, 2199, Note_off_c, 0, 72, 44
1, 2202, Note_off_c, 0, 81, 64
1, 2203, Note_off_c, 0, 88, 64
1, 2206, Note_off_c, 0, 40, 64
1, 2208, Note_on_c, 0, 33, 67
1, 2208, Note_off_c, 0, 59, 64
1, 2296, Note_off_c, 0, 33, 64
1, 2304, Note_on_c, 0, 45, 64
1, 2304, Note_on_c, 0, 57, 29
1, 2304, Note_on_c, 0, 60, 57
1, 2304, Note_on_c, 0, 64, 33
1, 2311, Note_off_c, 0, 71, 62
1, 2352, Note_on_c, 0, 81, 68
1, 2395, Note_on_c, 0, 52, 98
1, 2400, Note_on_c, 0, 88, 64
1, 2448, Note_on_c, 0, 41, 62
1, 2454, Note_off_c, 0, 45, 64
1, 2490, Note_on_c, 0, 77, 62
1, 2492, Note_off_c, 0, 52, 64
1, 2496, Note_on_c, 0, 40, 60
1, 2504, Note_off_c, 0, 41, 64
1, 2539, Note_on_c, 0, 48, 98
1, 2587, Note_on_c, 0, 76, 53
1, 2592, Note_on_c, 0, 47, 56
1, 2592, Note_on_c, 0, 59, 36
1, 2592, Note_on_c, 0, 65, 54
1, 2596, Note_off_c, 0, 40, 64
1, 2596, Note_off_c, 0, 60, 64
1, 2599, Note_off_c, 0, 64, 64
1, 2599, Note_off_c, 0, 77, 56
1, 2636, Note_off_c, 0, 48, 64
1, 2640, Note_on_c, 0, 48, 59
1, 2644, Note_off_c, 0, 47, 64
1, 2688, Note_on_c, 0, 45, 61
1, 2688, Note_on_c, 0, 60, 60
1, 2688, Note_on_c, 0, 64, 59
1, 2688, Note_off_c, 0, 65, 64
1, 2692, Note_off_c, 0, 81, 64
1, 2695, Note_off_c, 0, 48, 64
1, 2696, Note_off_c, 0, 59, 64
1, 2697, Note_off_c, 0, 88, 64
1, 2736, Note_on_c, 0, 81, 65
1, 2779, Note_on_c, 0, 52, 98
1, 2784, Note_on_c, 0, 88, 53
1, 2832, Note_on_c, 0, 41, 66
1, 2839, Note_off_c, 0, 45, 64
1, 2868, Note_on_c, 0, 72, 47
1, 2876, Note_off_c, 0, 52, 64
1, 2876, Note_off_c, 0, 76, 47
1, 2878, Note_off_c, 0, 60, 64
1, 2880, Note_on_c, 0, 40, 64
1, 2880, Note_on_c, 0, 59, 39
1, 2891, Note_off_c, 0, 41, 64
1, 2961, Note_on_c, 0, 71, 39
1, 2967, Note_off_c, 0, 72, 44
1, 2970, Note_off_c, 0, 81, 64
1, 2971, Note_off_c, 0, 88, 64
1, 2974, Note_off_c, 0, 40, 64
1, 2976, Note_on_c, 0, 33, 67
1, 2976, Note_off_c, 0, 57, 64
1, 2976, Note_off_c, 0, 59, 64
1, 2976, Note_off_c, 0, 64, 64
1, 3064, Note_off_c, 0, 33, 64
1, 3072, Note_off_c, 0, 71, 62
1, 0, Note_on_c, 0, 57, 65
1, 48, Note_on_c, 0, 52, 53
1, 49, Note_off_c, 0, 57, 35
1, 72, Note_on_c, 0, 45, 60
1, 96, Note_on_c, 0, 64, 63
1, 100, Note_off_c, 0, 52, 58
1, 110, Note_off_c, 0, 45, 64
1, 144, Note_on_c, 0, 45, 60
1, 144, Note_on_c, 0, 65, 59
1, 146, Note_off_c, 0, 64, 56
1, 192, Note_on_c, 0, 60, 64
1, 194, Note_off_c, 0, 65, 55
1, 238, Note_off_c, 0, 60, 60
1, 240, Note_off_c, 0, 45, 64
1, 240, Note_on_c, 0, 57, 58
1, 287, Note_off_c, 0, 57, 63
1, 288, Note_on_c, 0, 69, 63
1, 336, Note_on_c, 0, 70, 59
1, 337, Note_off_c, 0, 69, 81
1, 380, Note_off_c, 0, 70, 55
1, 384, Note_on_c, 0, 57, 62
1, 432, Note_on_c, 0, 52, 56
1, 435, Note_off_c, 0, 57, 57
1, 456, Note_on_c, 0, 45, 60
1, 480, Note_on_c, 0, 64, 63
1, 483, Note_off_c, 0, 52, 61
1, 494, Note_off_c, 0, 45, 64
1, 528, Note_on_c, 0, 45, 60
1, 528, Note_on_c, 0, 65, 63
1, 533, Note_off_c, 0, 64, 62
1, 573, Note_off_c, 0, 65, 59
1, 576, Note_on_c, 0, 60, 63
1, 624, Note_off_c, 0, 45, 64
1, 624, Note_on_c, 0, 57, 55
1, 633, Note_off_c, 0, 60, 53
1, 672, Note_off_c, 0, 57, 69
1, 672, Note_on_c, 0, 70, 59
1, 720, Note_on_c, 0, 69, 46
1, 725, Note_off_c, 0, 70, 59
1, 757, Note_off_c, 0, 69, 65
1, 768, Note_on_c, 0, 57, 65
1, 816, Note_on_c, 0, 52, 53
1, 817, Note_off_c, 0, 57, 35
1, 864, Note_on_c, 0, 64, 63
1, 868, Note_off_c, 0, 52, 58
1, 912, Note_on_c, 0, 65, 59
1, 914, Note_off_c, 0, 64, 56
1, 960, Note_on_c, 0, 60, 64
1, 962, Note_off_c, 0, 65, 55
1, 1006, Note_off_c, 0, 60, 60
1, 1008, Note_on_c, 0, 57, 58
1, 1055, Note_off_c, 0, 57, 63
1, 1056, Note_on_c, 0, 69, 63
1, 1104, Note_on_c, 0, 70, 59
1, 1105, Note_off_c, 0, 69, 81
1, 1148, Note_off_c, 0, 70, 55
1, 1152, Note_on_c, 0, 57, 62
1, 1200, Note_on_c, 0, 52, 56
1, 1203, Note_off_c, 0, 57, 57
1, 1248, Note_on_c, 0, 64, 63
1, 1251, Note_off_c, 0, 52, 61
1, 1296, Note_on_c, 0, 65, 63
1, 1301, Note_off_c, 0, 64, 62
1, 1341, Note_off_c, 0, 65, 59
1, 1344, Note_on_c, 0, 60, 63
1, 1392, Note_on_c, 0, 57, 55
1, 1401, Note_off_c, 0, 60, 53
1, 1440, Note_off_c, 0, 57, 69
1, 1440, Note_on_c, 0, 70, 59
1, 1488, Note_on_c, 0, 69, 46
1, 1493, Note_off_c, 0, 70, 59
1, 1525, Note_off_c, 0, 69, 65
1, 0, Note_on_c, 0, 33, 100
1, 0, Note_on_c, 0, 52, 100
1, 0, Note_on_c, 0, 60, 100
1, 48, Note_on_c, 0, 69, 100
1, 96, Note_off_c, 0, 69, 64
1, 96, Note_on_c, 0, 72, 100
1, 144, Note_on_c, 0, 71, 100
1, 144, Note_off_c, 0, 72, 64
1, 192, Note_on_c, 0, 69, 100
1, 192, Note_off_c, 0, 71, 64
1, 288, Note_off_c, 0, 69, 64
1, 288, Note_on_c, 0, 76, 100
1, 336, Note_on_c, 0, 62, 100
1, 384, Note_on_c, 0, 29, 100
1, 384, Note_off_c, 0, 33, 64
1, 384, Note_on_c, 0, 50, 100
1, 384, Note_off_c, 0, 52, 64
1, 384, Note_on_c, 0, 57, 100
1, 384, Note_off_c, 0, 60, 64
1, 384, Note_off_c, 0, 62, 64
1, 384, Note_on_c, 0, 65, 100
1, 384, Note_off_c, 0, 76, 64
1, 480, Note_off_c, 0, 65, 64
1, 480, Note_on_c, 0, 69, 100
1, 576, Note_off_c, 0, 69, 64
1, 576, Note_on_c, 0, 72, 100
1, 672, Note_off_c, 0, 72, 64
1, 672, Note_on_c, 0, 76, 100
1, 720, Note_on_c, 0, 64, 100
1, 768, Note_off_c, 0, 29, 64
1, 768, Note_on_c, 0, 33, 100
1, 768, Note_off_c, 0, 50, 64
1, 768, Note_on_c, 0, 52, 100
1, 768, Note_off_c, 0, 57, 64
1, 768, Note_on_c, 0, 60, 100
1, 768, Note_off_c, 0, 64, 64
1, 768, Note_off_c, 0, 76, 64
1, 816, Note_on_c, 0, 69, 100
1, 864, Note_off_c, 0, 69, 64
1, 864, Note_on_c, 0, 72, 100
1, 912, Note_on_c, 0, 71, 100
1, 912, Note_off_c, 0, 72, 64
1, 960, Note_on_c, 0, 69, 100
1, 960, Note_off_c, 0, 71, 64
1, 1056, Note_off_c, 0, 69, 64
1, 1056, Note_on_c, 0, 76, 100
1, 1104, Note_on_c, 0, 62, 100
1, 1152, Note_on_c, 0, 29, 100
1, 1152, Note_off_c, 0, 33, 64
1, 1152, Note_on_c, 0, 50, 100
1, 1152, Note_off_c, 0, 52, 64
1, 1152, Note_on_c, 0, 57, 100
1, 1152, Note_off_c, 0, 60, 64
1, 1152, Note_off_c, 0, 62, 64
1, 1152, Note_on_c, 0, 65, 100
1, 1152, Note_off_c, 0, 76, 64
1, 1248, Note_off_c, 0, 65, 64
1, 1248, Note_on_c, 0, 69, 100
1, 1344, Note_off_c, 0, 69, 64
1, 1344, Note_on_c, 0, 72, 100
1, 1440, Note_off_c, 0, 72, 64
1, 1440, Note_on_c, 0, 76, 100
1, 1488, Note_on_c, 0, 59, 100
1, 1536, Note_off_c, 0, 29, 64
1, 1536, Note_off_c, 0, 50, 64
1, 1536, Note_off_c, 0, 57, 64
1, 1536, Note_off_c, 0, 59, 64
1, 1536, Note_off_c, 0, 76, 64
1, 0, Note_on_c, 0, 76, 59
1, 47, Note_off_c, 0, 76, 36
1, 48, Note_on_c, 0, 81, 57
1, 95, Note_off_c, 0, 81, 64
1, 96, Note_on_c, 0, 65, 58
1, 144, Note_on_c, 0, 72, 56
1, 146, Note_off_c, 0, 65, 49
1, 192, Note_on_c, 0, 57, 36
1, 192, Note_on_c, 0, 60, 35
1, 192, Note_on_c, 0, 64, 36
1, 192, Note_on_c, 0, 76, 42
1, 200, Note_off_c, 0, 76, 64
1, 240, Note_on_c, 0, 69, 50
1, 252, Note_off_c, 0, 72, 52
1, 277, Note_off_c, 0, 69, 50
1, 288, Note_off_c, 0, 64, 49
1, 288, Note_on_c, 0, 64, 59
1, 288, Note_on_c, 0, 76, 36
1, 299, Note_off_c, 0, 76, 64
1, 336, Note_off_c, 0, 60, 47
1, 336, Note_on_c, 0, 60, 44
1, 337, Note_off_c, 0, 64, 49
1, 372, Note_off_c, 0, 60, 47
1, 384, Note_on_c, 0, 76, 57
1, 385, Note_off_c, 0, 57, 64
1, 431, Note_off_c, 0, 76, 64
1, 432, Note_on_c, 0, 81, 59
1, 479, Note_off_c, 0, 81, 64
1, 480, Note_on_c, 0, 65, 58
1, 528, Note_on_c, 0, 72, 56
1, 530, Note_off_c, 0, 65, 64
1, 576, Note_on_c, 0, 57, 36
1, 576, Note_on_c, 0, 60, 35
1, 576, Note_on_c, 0, 64, 36
1, 576, Note_on_c, 0, 76, 42
1, 584, Note_off_c, 0, 76, 64
1, 624, Note_on_c, 0, 69, 50
1, 636, Note_off_c, 0, 72, 64
1, 661, Note_off_c, 0, 69, 64
1, 672, Note_off_c, 0, 64, 64
1, 672, Note_on_c, 0, 64, 59
1, 672, Note_on_c, 0, 76, 36
1, 683, Note_off_c, 0, 76, 64
1, 768, Note_off_c, 0, 64, 64
1, 768, Note_on_c, 0, 76, 57
1, 769, Note_off_c, 0, 57, 64
1, 769, Note_off_c, 0, 60, 64
1, 815, Note_off_c, 0, 76, 64
1, 816, Note_on_c, 0, 81, 59
1, 863, Note_off_c, 0, 81, 64
1, 864, Note_on_c, 0, 65, 58
1, 912, Note_on_c, 0, 72, 56
1, 914, Note_off_c, 0, 65, 64
1, 960, Note_on_c, 0, 57, 36
1, 960, Note_on_c, 0, 60, 35
1, 960, Note_on_c, 0, 64, 36
1, 960, Note_on_c, 0, 76, 42
1, 968, Note_off_c, 0, 76, 64
1, 1008, Note_on_c, 0, 69, 50
1, 1020, Note_off_c, 0, 72, 64
1, 1045, Note_off_c, 0, 69, 64
1, 1056, Note_off_c, 0, 64, 64
1, 1056, Note_on_c, 0, 64, 59
1, 1056, Note_on_c, 0, 76, 36
1, 1067, Note_off_c, 0, 76, 64
1, 1104, Note_off_c, 0, 60, 64
1, 1104, Note_on_c, 0, 60, 44
1, 1105, Note_off_c, 0, 64, 64
1, 1140, Note_off_c, 0, 60, 64
1, 1152, Note_on_c, 0, 76, 57
1, 1153, Note_off_c, 0, 57, 64
1, 1199, Note_off_c, 0, 76, 64
1, 1200, Note_on_c, 0, 81, 59
1, 1247, Note_off_c, 0, 81, 64
1, 1248, Note_on_c, 0, 65, 58
1, 1296, Note_on_c, 0, 72, 56
1, 1298, Note_off_c, 0, 65, 64
1, 1344, Note_on_c, 0, 57, 36
1, 1344, Note_on_c, 0, 60, 35
1, 1344, Note_on_c, 0, 64, 36
1, 1344, Note_on_c, 0, 76, 42
1, 1352, Note_off_c, 0, 76, 64
1, 1392, Note_on_c, 0, 69, 50
1, 1404, Note_off_c, 0, 72, 64
1, 1429, Note_off_c, 0, 69, 64
1, 1440, Note_off_c, 0, 64, 64
1, 1440, Note_on_c, 0, 64, 59
1, 1440, Note_on_c, 0, 76, 36
1, 1451, Note_off_c, 0, 76, 64
1, 1536, Note_off_c, 0, 57, 64
1, 1536, Note_off_c, 0, 60, 64
1, 1536, Note_off_c, 0, 64, 64
1, 0, Note_on_c, 0, 38, 72
1, 0, Note_on_c, 0, 62, 72
1, 0, Note_on_c, 0, 65, 72
1, 0, Note_on_c, 0, 69, 72
1, 48, Note_off_c, 0, 62, 64
1, 48, Note_off_c, 0, 65, 64
1, 48, Note_off_c, 0, 69, 64
1, 96, Note_on_c, 0, 62, 72
1, 96, Note_on_c, 0, 65, 72
1, 96, Note_on_c, 0, 69, 72
1, 144, Note_off_c, 0, 62, 64
1, 144, Note_off_c, 0, 65, 64
1, 144, Note_off_c, 0, 69, 64
1, 192, Note_on_c, 0, 62, 72
1, 192, Note_on_c, 0, 65, 72
1, 192, Note_on_c, 0, 69, 72
1, 240, Note_off_c, 0, 62, 64
1, 240, Note_off_c, 0, 65, 64
1, 240, Note_off_c, 0, 69, 64
1, 288, Note_on_c, 0, 62, 72
1, 288, Note_on_c, 0, 65, 72
1, 288, Note_on_c, 0, 69, 72
1, 336, Note_off_c, 0, 62, 64
1, 336, Note_off_c, 0, 65, 64
1, 336, Note_off_c, 0, 69, 64
1, 384, Note_on_c, 0, 62, 72
1, 384, Note_on_c, 0, 65, 72
1, 384, Note_on_c, 0, 69, 72
1, 432, Note_off_c, 0, 62, 64
1, 432, Note_off_c, 0, 65, 64
1, 432, Note_off_c, 0, 69, 64
1, 480, Note_off_c, 0, 38, 64
1, 480, Note_on_c, 0, 50, 72
1, 480, Note_on_c, 0, 62, 72
1, 480, Note_on_c, 0, 68, 72
1, 480, Note_on_c, 0, 71, 72
1, 528, Note_off_c, 0, 62, 64
1, 528, Note_off_c, 0, 68, 64
1, 528, Note_off_c, 0, 71, 64
1, 576, Note_on_c, 0, 45, 72
1, 576, Note_off_c, 0, 50, 64
1, 576, Note_on_c, 0, 57, 72
1, 576, Note_on_c, 0, 64, 72
1, 576, Note_on_c, 0, 72, 72
1, 624, Note_off_c, 0, 57, 64
1, 624, Note_off_c, 0, 64, 64
1, 624, Note_off_c, 0, 72, 64
1, 672, Note_on_c, 0, 57, 72
1, 672, Note_on_c, 0, 64, 72
1, 672, Note_on_c, 0, 74, 72
1, 720, Note_off_c, 0, 57, 64
1, 720, Note_off_c, 0, 64, 64
1, 720, Note_off_c, 0, 74, 64
1, 768, Note_on_c, 0, 38, 72
1, 768, Note_off_c, 0, 45, 64
1, 768, Note_on_c, 0, 62, 72
1, 768, Note_on_c, 0, 65, 72
1, 768, Note_on_c, 0, 69, 72
1, 816, Note_off_c, 0, 62, 64
1, 816, Note_off_c, 0, 65, 64
1, 816, Note_off_c, 0, 69, 64
1, 864, Note_on_c, 0, 62, 72
1, 864, Note_on_c, 0, 65, 72
1, 864, Note_on_c, 0, 69, 72
1, 912, Note_off_c, 0, 62, 64
1, 912, Note_off_c, 0, 65, 64
1, 912, Note_off_c, 0, 69, 64
1, 960, Note_on_c, 0, 62, 72
1, 960, Note_on_c, 0, 65, 72
1, 960, Note_on_c, 0, 69, 72
1, 1008, Note_off_c, 0, 62, 64
1, 1008, Note_off_c, 0, 65, 64
1, 1008, Note_off_c, 0, 69, 64
1, 1056, Note_on_c, 0, 62, 72
1, 1056, Note_on_c, 0, 65, 72
1, 1056, Note_on_c, 0, 69, 72
1, 1104, Note_off_c, 0, 62, 64
1, 1104, Note_off_c, 0, 65, 64
1, 1104, Note_off_c, 0, 69, 64
1, 1152, Note_on_c, 0, 62, 72
1, 1152, Note_on_c, 0, 65, 72
1, 1152, Note_on_c, 0, 69, 72
1, 1200, Note_off_c, 0, 62, 64
1, 1200, Note_off_c, 0, 65, 64
1, 1200, Note_off_c, 0, 69, 64
1, 1248, Note_off_c, 0, 38, 64
1, 1248, Note_on_c, 0, 50, 72
1, 1248, Note_on_c, 0, 62, 72
1, 1248, Note_on_c, 0, 68, 72
1, 1248, Note_on_c, 0, 71, 72
1, 1296, Note_off_c, 0, 62, 64
1, 1296, Note_off_c, 0, 68, 64
1, 1296, Note_off_c, 0, 71, 64
1, 1344, Note_on_c, 0, 45, 72
1, 1344, Note_off_c, 0, 50, 64
1, 1344, Note_on_c, 0, 57, 72
1, 1344, Note_on_c, 0, 64, 72
1, 1344, Note_on_c, 0, 72, 72
1, 1392, Note_off_c, 0, 57, 64
1, 1392, Note_off_c, 0, 64, 64
1, 1392, Note_off_c, 0, 72, 64
1, 1440, Note_on_c, 0, 40, 72
1, 1440, Note_off_c, 0, 45, 64
1, 1440, Note_on_c, 0, 57, 72
1, 1440, Note_on_c, 0, 64, 72
1, 1440, Note_on_c, 0, 74, 72
1, 1488, Note_off_c, 0, 57, 64
1, 1488, Note_off_c, 0, 64, 64
1, 1488, Note_off_c, 0, 74, 64
1, 1536, Note_off_c, 0, 40, 64
1, 0, Note_on_c, 0, 57, 75
1, 0, Note_on_c, 0, 60, 62
1, 0, Note_on_c, 0, 64, 62
1, 0, Note_on_c, 0, 69, 76
1, 0, Note_on_c, 0, 88, 59
1, 48, Note_on_c, 0, 72, 67
1, 48, Note_on_c, 0, 76, 68
1, 144, Note_off_c, 0, 69, 64
1, 144, Note_on_c, 0, 69, 76
1, 144, Note_off_c, 0, 69, 64
1, 144, Note_off_c, 0, 72, 64
1, 144, Note_off_c, 0, 76, 64
1, 240, Note_on_c, 0, 72, 67
1, 240, Note_on_c, 0, 76, 68
1, 302, Note_off_c, 0, 60, 64
1, 309, Note_off_c, 0, 57, 64
1, 310, Note_off_c, 0, 64, 64
1, 336, Note_on_c, 0, 69, 76
1, 336, Note_off_c, 0, 72, 64
1, 336, Note_off_c, 0, 76, 64
1, 384, Note_on_c, 0, 56, 78
1, 384, Note_on_c, 0, 59, 63
1, 384, Note_on_c, 0, 62, 66
1, 384, Note_on_c, 0, 68, 76
1, 384, Note_off_c, 0, 69, 64
1, 384, Note_on_c, 0, 86, 37
1, 384, Note_off_c, 0, 88, 64
1, 432, Note_on_c, 0, 71, 67
1, 432, Note_on_c, 0, 74, 68
1, 528, Note_off_c, 0, 68, 59
1, 528, Note_on_c, 0, 68, 76
1, 528, Note_off_c, 0, 68, 59
1, 528, Note_off_c, 0, 74, 65
1, 532, Note_off_c, 0, 71, 57
1, 576, Note_on_c, 0, 52, 73
1, 576, Note_on_c, 0, 89, 37
1, 583, Note_off_c, 0, 86, 64
1, 615, Control_c, 0, 22, 0
1, 615, Control_c, 0, 22, 116
1, 624, Note_on_c, 0, 71, 67
1, 624, Note_on_c, 0, 74, 68
1, 672, Note_off_c, 0, 59, 64
1, 672, Note_on_c, 0, 65, 79
1, 679, Note_off_c, 0, 62, 64
1, 720, Note_off_c, 0, 74, 64
1, 720, Note_on_c, 0, 77, 68
1, 724, Note_off_c, 0, 71, 64
1, 749, Note_off_c, 0, 65, 64
1, 768, Note_on_c, 0, 57, 75
1, 768, Note_on_c, 0, 60, 62
1, 768, Note_on_c, 0, 64, 62
1, 768, Note_on_c, 0, 69, 76
1, 768, Note_on_c, 0, 88, 59
1, 770, Note_off_c, 0, 52, 64
1, 771, Note_off_c, 0, 56, 64
1, 775, Note_off_c, 0, 89, 64
1, 816, Note_on_c, 0, 72, 67
1, 816, Note_on_c, 0, 76, 68
1, 816, Note_off_c, 0, 77, 64
1, 912, Note_off_c, 0, 69, 64
1, 912, Note_on_c, 0, 69, 76
1, 912, Note_off_c, 0, 69, 64
1, 912, Note_off_c, 0, 72, 64
1, 912, Note_off_c, 0, 76, 64
1, 1008, Note_on_c, 0, 72, 67
1, 1008, Note_on_c, 0, 76, 68
1, 1070, Note_off_c, 0, 60, 64
1, 1077, Note_off_c, 0, 57, 64
1, 1078, Note_off_c, 0, 64, 64
1, 1104, Note_on_c, 0, 69, 76
1, 1104, Note_off_c, 0, 72, 64
1, 1104, Note_off_c, 0, 76, 64
1, 1152, Note_on_c, 0, 56, 78
1, 1152, Note_on_c, 0, 59, 63
1, 1152, Note_on_c, 0, 62, 66
1, 1152, Note_on_c, 0, 68, 76
1, 1152, Note_off_c, 0, 69, 64
1, 1152, Note_on_c, 0, 86, 37
1, 1152, Note_off_c, 0, 88, 64
1, 1200, Note_on_c, 0, 71, 67
1, 1200, Note_on_c, 0, 74, 68
1, 1296, Note_off_c, 0, 68, 59
1, 1296, Note_on_c, 0, 68, 76
1, 1296, Note_off_c, 0, 68, 59
1, 1296, Note_off_c, 0, 74, 65
1, 1300, Note_off_c, 0, 71, 57
1, 1344, Note_on_c, 0, 52, 73
1, 1344, Note_on_c, 0, 89, 37
1, 1351, Note_off_c, 0, 86, 64
1, 1383, Control_c, 0, 22, 116
1, 1383, Control_c, 0, 22, 116
1, 1392, Note_on_c, 0, 71, 67
1, 1392, Note_on_c, 0, 74, 68
1, 1401, Note_off_c, 0, 59, 64
1, 1408, Note_off_c, 0, 62, 64
1, 1440, Note_on_c, 0, 65, 79
1, 1488, Note_off_c, 0, 74, 64
1, 1488, Note_on_c, 0, 77, 68
1, 1492, Note_off_c, 0, 71, 64
1, 1517, Note_off_c, 0, 65, 64
1, 1536, Note_on_c, 0, 57, 75
1, 1536, Note_on_c, 0, 60, 62
1, 1536, Note_on_c, 0, 64, 62
1, 1536, Note_on_c, 0, 69, 76
1, 1536, Note_on_c, 0, 88, 59
1, 1538, Note_off_c, 0, 52, 64
1, 1539, Note_off_c, 0, 56, 64
1, 1543, Note_off_c, 0, 89, 64
1, 1584, Note_on_c, 0, 72, 67
1, 1584, Note_on_c, 0, 76, 68
1, 1584, Note_off_c, 0, 77, 64
1, 1680, Note_off_c, 0, 69, 64
1, 1680, Note_on_c, 0, 69, 76
1, 1680, Note_off_c, 0, 69, 64
1, 1680, Note_off_c, 0, 72, 64
1, 1680, Note_off_c, 0, 76, 64
1, 1776, Note_on_c, 0, 72, 67
1, 1776, Note_on_c, 0, 76, 68
1, 1838, Note_off_c, 0, 60, 64
1, 1845, Note_off_c, 0, 57, 64
1, 1846, Note_off_c, 0, 64, 64
1, 1872, Note_on_c, 0, 69, 76
1, 1872, Note_off_c, 0, 72, 64
1, 1872, Note_off_c, 0, 76, 64
1, 1920, Note_on_c, 0, 56, 78
1, 1920, Note_on_c, 0, 59, 63
1, 1920, Note_on_c, 0, 62, 66
1, 1920, Note_on_c, 0, 68, 76
1, 1920, Note_off_c, 0, 69, 64
1, 1920, Note_on_c, 0, 86, 37
1, 1920, Note_off_c, 0, 88, 64
1, 1968, Note_on_c, 0, 71, 67
1, 1968, Note_on_c, 0, 74, 68
1, 2064, Note_off_c, 0, 68, 59
1, 2064, Note_on_c, 0, 68, 76
1, 2064, Note_off_c, 0, 68, 59
1, 2064, Note_off_c, 0, 74, 65
1, 2068, Note_off_c, 0, 71, 57
1, 2112, Note_on_c, 0, 52, 73
1, 2112, Note_on_c, 0, 89, 37
1, 2119, Note_off_c, 0, 86, 64
1, 2151, Control_c, 0, 22, 116
1, 2151, Control_c, 0, 22, 116
1, 2160, Note_on_c, 0, 71, 67
1, 2160, Note_on_c, 0, 74, 68
1, 2208, Note_off_c, 0, 59, 64
1, 2208, Note_on_c, 0, 65, 79
1, 2215, Note_off_c, 0, 62, 64
1, 2256, Note_off_c, 0, 74, 64
1, 2256, Note_on_c, 0, 77, 68
1, 2260, Note_off_c, 0, 71, 64
1, 2285, Note_off_c, 0, 65, 64
1, 2304, Note_on_c, 0, 57, 75
1, 2304, Note_on_c, 0, 60, 62
1, 2304, Note_on_c, 0, 64, 62
1, 2304, Note_on_c, 0, 69, 76
1, 2304, Note_on_c, 0, 88, 59
1, 2306, Note_off_c, 0, 52, 64
1, 2307, Note_off_c, 0, 56, 64
1, 2311, Note_off_c, 0, 89, 64
1, 2352, Note_on_c, 0, 72, 67
1, 2352, Note_on_c, 0, 76, 68
1, 2352, Note_off_c, 0, 77, 64
1, 2448, Note_off_c, 0, 69, 64
1, 2448, Note_on_c, 0, 69, 76
1, 2448, Note_off_c, 0, 69, 64
1, 2448, Note_off_c, 0, 72, 64
1, 2448, Note_off_c, 0, 76, 64
1, 2544, Note_on_c, 0, 72, 67
1, 2544, Note_on_c, 0, 76, 68
1, 2606, Note_off_c, 0, 60, 64
1, 2613, Note_off_c, 0, 57, 64
1, 2614, Note_off_c, 0, 64, 64
1, 2640, Note_on_c, 0, 69, 76
1, 2640, Note_off_c, 0, 72, 64
1, 2640, Note_off_c, 0, 76, 64
1, 2688, Note_on_c, 0, 56, 78
1, 2688, Note_on_c, 0, 59, 63
1, 2688, Note_on_c, 0, 62, 66
1, 2688, Note_on_c, 0, 68, 76
1, 2688, Note_off_c, 0, 69, 64
1, 2688, Note_on_c, 0, 86, 37
1, 2688, Note_off_c, 0, 88, 64
1, 2736, Note_on_c, 0, 71, 67
1, 2736, Note_on_c, 0, 74, 68
1, 2832, Note_off_c, 0, 68, 59
1, 2832, Note_on_c, 0, 68, 76
1, 2832, Note_off_c, 0, 68, 59
1, 2832, Note_off_c, 0, 74, 65
1, 2836, Note_off_c, 0, 71, 57
1, 2880, Note_on_c, 0, 52, 73
1, 2880, Note_on_c, 0, 89, 37
1, 2887, Note_off_c, 0, 86, 64
1, 2919, Control_c, 0, 22, 116
1, 2919, Control_c, 0, 22, 116
1, 2928, Note_on_c, 0, 71, 67
1, 2928, Note_on_c, 0, 74, 68
1, 2937, Note_off_c, 0, 59, 64
1, 2944, Note_off_c, 0, 62, 64
1, 2976, Note_on_c, 0, 65, 79
1, 3024, Note_off_c, 0, 74, 64
1, 3024, Note_on_c, 0, 77, 68
1, 3028, Note_off_c, 0, 71, 64
1, 3053, Note_off_c, 0, 65, 64
1, 3072, Note_off_c, 0, 52, 64
1, 3072, Note_off_c, 0, 56, 64
1, 3072, Note_off_c, 0, 77, 64
1, 3072, Note_off_c, 0, 89, 64
1, 0, Note_on_c, 0, 45, 83
1, 0, Note_on_c, 0, 57, 83
1, 0, Note_on_c, 0, 64, 83
1, 0, Note_on_c, 0, 69, 83
1, 0, Note_on_c, 0, 72, 83
1, 144, Note_off_c, 0, 45, 0
1, 144, Note_on_c, 0, 47, 83
1, 144, Note_off_c, 0, 57, 0
1, 144, Note_on_c, 0, 59, 83
1, 144, Note_on_c, 0, 62, 83
1, 144, Note_off_c, 0, 64, 0
1, 144, Note_on_c, 0, 67, 83
1, 144, Note_off_c, 0, 69, 0
1, 144, Note_off_c, 0, 72, 0
1, 144, Note_on_c, 0, 74, 83
1, 288, Note_off_c, 0, 47, 0
1, 288, Note_on_c, 0, 48, 83
1, 288, Note_off_c, 0, 59, 0
1, 288, Note_on_c, 0, 60, 83
1, 288, Note_off_c, 0, 62, 0
1, 288, Note_off_c, 0, 67, 0
1, 288, Note_on_c, 0, 67, 83
1, 288, Note_off_c, 0, 74, 0
1, 288, Note_on_c, 0, 76, 83
1, 432, Note_on_c, 0, 40, 83
1, 432, Note_off_c, 0, 48, 0
1, 432, Note_on_c, 0, 59, 83
1, 432, Note_off_c, 0, 60, 0
1, 432, Note_on_c, 0, 64, 83
1, 432, Note_off_c, 0, 67, 0
1, 432, Note_on_c, 0, 67, 83
1, 432, Note_off_c, 0, 76, 0
1, 576, Note_off_c, 0, 40, 127
1, 576, Note_on_c, 0, 41, 83
1, 576, Note_on_c, 0, 57, 83
1, 576, Note_off_c, 0, 59, 127
1, 576, Note_on_c, 0, 60, 83
1, 576, Note_off_c, 0, 64, 127
1, 576, Note_on_c, 0, 65, 83
1, 576, Note_off_c, 0, 67, 127
1, 576, Note_on_c, 0, 69, 83
1, 1344, Note_off_c, 0, 41, 0
1, 1344, Note_off_c, 0, 57, 0
1, 1344, Note_off_c, 0, 60, 0
1, 1344, Note_off_c, 0, 65, 0
1, 1344, Note_off_c, 0, 69, 0
1, 1344, Note_on_c, 0, 81, 83
1, 1392, Note_on_c, 0, 77, 83
1, 1392, Note_off_c, 0, 81, 0
1, 1440, Note_off_c, 0, 77, 0
1, 1440, Note_on_c, 0, 79, 83
1, 1488, Note_on_c, 0, 76, 83
1, 1488, Note_off_c, 0, 79, 0
1, 1536, Note_off_c, 0, 76, 0
1, 0, Note_on_c, 0, 57, 84
1, 0, Note_on_c, 0, 81, 62
1, 24, Note_on_c, 0, 52, 44
1, 48, Note_on_c, 0, 60, 86
1, 57, Note_off_c, 0, 57, 64
1, 72, Note_on_c, 0, 69, 44
1, 81, Note_off_c, 0, 52, 64
1, 96, Note_on_c, 0, 65, 91
1, 99, Note_on_c, 0, 72, 81
1, 102, Note_off_c, 0, 60, 64
1, 120, Note_on_c, 0, 57, 44
1, 124, Note_on_c, 0, 71, 108
1, 127, Note_off_c, 0, 72, 64
1, 129, Note_off_c, 0, 69, 64
1, 144, Note_on_c, 0, 64, 90
1, 149, Note_off_c, 0, 65, 64
1, 168, Note_on_c, 0, 45, 44
1, 177, Note_off_c, 0, 57, 64
1, 192, Note_on_c, 0, 57, 83
1, 197, Note_off_c, 0, 64, 64
1, 216, Note_on_c, 0, 52, 44
1, 225, Note_off_c, 0, 45, 64
1, 240, Note_on_c, 0, 60, 81
1, 243, Note_off_c, 0, 57, 64
1, 264, Note_on_c, 0, 45, 44
1, 273, Note_off_c, 0, 52, 64
1, 288, Note_on_c, 0, 65, 95
1, 291, Note_off_c, 0, 60, 64
1, 312, Note_on_c, 0, 48, 44
1, 321, Note_off_c, 0, 45, 64
1, 332, Note_off_c, 0, 71, 64
1, 336, Note_on_c, 0, 64, 87
1, 336, Note_on_c, 0, 69, 101
1, 342, Note_off_c, 0, 65, 64
1, 357, Note_off_c, 0, 81, 64
1, 360, Note_on_c, 0, 45, 44
1, 369, Note_off_c, 0, 48, 64
1, 380, Note_off_c, 0, 69, 64
1, 384, Note_on_c, 0, 57, 84
1, 384, Note_on_c, 0, 81, 82
1, 387, Note_off_c, 0, 64, 64
1, 408, Note_on_c, 0, 52, 44
1, 417, Note_off_c, 0, 45, 64
1, 432, Note_on_c, 0, 60, 86
1, 441, Note_off_c, 0, 57, 64
1, 456, Note_on_c, 0, 69, 44
1, 465, Note_off_c, 0, 52, 64
1, 480, Note_on_c, 0, 65, 91
1, 483, Note_on_c, 0, 72, 61
1, 486, Note_off_c, 0, 60, 64
1, 504, Note_on_c, 0, 57, 44
1, 508, Note_on_c, 0, 71, 88
1, 511, Note_off_c, 0, 72, 64
1, 513, Note_off_c, 0, 69, 64
1, 528, Note_on_c, 0, 64, 90
1, 533, Note_off_c, 0, 65, 64
1, 552, Note_on_c, 0, 45, 44
1, 561, Note_off_c, 0, 57, 64
1, 576, Note_on_c, 0, 57, 83
1, 581, Note_off_c, 0, 64, 64
1, 600, Note_on_c, 0, 52, 44
1, 609, Note_off_c, 0, 45, 64
1, 624, Note_on_c, 0, 60, 81
1, 627, Note_off_c, 0, 57, 64
1, 648, Note_on_c, 0, 45, 44
1, 657, Note_off_c, 0, 52, 64
1, 672, Note_on_c, 0, 65, 95
1, 675, Note_off_c, 0, 60, 64
1, 696, Note_on_c, 0, 48, 44
1, 705, Note_off_c, 0, 45, 64
1, 719, Note_off_c, 0, 81, 64
1, 720, Note_on_c, 0, 64, 87
1, 720, Note_off_c, 0, 71, 64
1, 726, Note_off_c, 0, 65, 64
1, 744, Note_on_c, 0, 45, 44
1, 753, Note_off_c, 0, 48, 64
1, 768, Note_on_c, 0, 57, 84
1, 768, Note_on_c, 0, 81, 62
1, 771, Note_off_c, 0, 64, 64
1, 792, Note_on_c, 0, 52, 44
1, 801, Note_off_c, 0, 45, 64
1, 816, Note_on_c, 0, 60, 86
1, 825, Note_off_c, 0, 57, 64
1, 840, Note_on_c, 0, 69, 44
1, 849, Note_off_c, 0, 52, 64
1, 864, Note_on_c, 0, 65, 91
1, 867, Note_on_c, 0, 72, 81
1, 870, Note_off_c, 0, 60, 64
1, 888, Note_on_c, 0, 57, 44
1, 892, Note_on_c, 0, 71, 108
1, 895, Note_off_c, 0, 72, 64
1, 897, Note_off_c, 0, 69, 64
1, 912, Note_on_c, 0, 64, 90
1, 917, Note_off_c, 0, 65, 64
1, 936, Note_on_c, 0, 45, 44
1, 945, Note_off_c, 0, 57, 64
1, 960, Note_on_c, 0, 57, 83
1, 965, Note_off_c, 0, 64, 64
1, 984, Note_on_c, 0, 52, 44
1, 993, Note_off_c, 0, 45, 64
1, 1008, Note_on_c, 0, 60, 81
1, 1011, Note_off_c, 0, 57, 64
1, 1032, Note_on_c, 0, 45, 44
1, 1041, Note_off_c, 0, 52, 64
1, 1056, Note_on_c, 0, 65, 95
1, 1059, Note_off_c, 0, 60, 64
1, 1080, Note_on_c, 0, 48, 44
1, 1089, Note_off_c, 0, 45, 64
1, 1100, Note_off_c, 0, 71, 64
1, 1104, Note_on_c, 0, 64, 87
1, 1104, Note_on_c, 0, 69, 101
1, 1110, Note_off_c, 0, 65, 64
1, 1125, Note_off_c, 0, 81, 64
1, 1128, Note_on_c, 0, 45, 44
1, 1137, Note_off_c, 0, 48, 64
1, 1148, Note_off_c, 0, 69, 64
1, 1152, Note_on_c, 0, 57, 84
1, 1152, Note_on_c, 0, 81, 82
1, 1155, Note_off_c, 0, 64, 64
1, 1176, Note_on_c, 0, 52, 44
1, 1185, Note_off_c, 0, 45, 64
1, 1200, Note_on_c, 0, 60, 86
1, 1209, Note_off_c, 0, 57, 64
1, 1224, Note_on_c, 0, 69, 44
1, 1233, Note_off_c, 0, 52, 64
1, 1248, Note_on_c, 0, 65, 91
1, 1251, Note_on_c, 0, 72, 61
1, 1254, Note_off_c, 0, 60, 64
1, 1272, Note_on_c, 0, 57, 44
1, 1276, Note_on_c, 0, 71, 88
1, 1279, Note_off_c, 0, 72, 64
1, 1281, Note_off_c, 0, 69, 64
1, 1296, Note_on_c, 0, 64, 90
1, 1301, Note_off_c, 0, 65, 64
1, 1320, Note_on_c, 0, 45, 44
1, 1329, Note_off_c, 0, 57, 64
1, 1344, Note_on_c, 0, 57, 83
1, 1349, Note_off_c, 0, 64, 64
1, 1368, Note_on_c, 0, 52, 44
1, 1377, Note_off_c, 0, 45, 64
1, 1392, Note_on_c, 0, 60, 81
1, 1395, Note_off_c, 0, 57, 64
1, 1416, Note_on_c, 0, 45, 44
1, 1425, Note_off_c, 0, 52, 64
1, 1440, Note_on_c, 0, 65, 95
1, 1443, Note_off_c, 0, 60, 64
1, 1464, Note_on_c, 0, 48, 44
1, 1473, Note_off_c, 0, 45, 64
1, 1487, Note_off_c, 0, 81, 64
1, 1488, Note_on_c, 0, 64, 87
1, 1488, Note_on_c, 0, 69, 81
1, 1488, Note_off_c, 0, 71, 64
1, 1494, Note_off_c, 0, 65, 64
1, 1512, Note_on_c, 0, 45, 44
1, 1521, Note_off_c, 0, 48, 64
1, 1532, Note_off_c, 0, 69, 64
1, 1536, Note_off_c, 0, 45, 64
1, 1536, Note_off_c, 0, 64, 64
1, 0, Note_on_c, 0, 45, 95
1, 0, Note_on_c, 0, 60, 115
1, 0, Note_on_c, 0, 76, 102
1, 90, Note_off_c, 0, 45, 0
1, 114, Note_off_c, 0, 60, 0
1, 187, Note_off_c, 0, 76, 0
1, 191, Note_on_c, 0, 45, 50
1, 191, Note_on_c, 0, 71, 72
1, 192, Note_on_c, 0, 60, 79
1, 192, Note_on_c, 0, 76, 120
1, 281, Note_off_c, 0, 71, 0
1, 281, Note_off_c, 0, 76, 0
1, 288, Note_on_c, 0, 71, 78
1, 288, Note_on_c, 0, 76, 120
1, 288, Note_on_c, 0, 81, 94
1, 316, Note_off_c, 0, 45, 0
1, 362, Note_off_c, 0, 81, 0
1, 368, Note_off_c, 0, 71, 0
1, 377, Note_off_c, 0, 76, 0
1, 383, Note_on_c, 0, 72, 65
1, 384, Note_on_c, 0, 50, 101
1, 384, Note_on_c, 0, 57, 28
1, 384, Note_on_c, 0, 79, 78
1, 431, Note_on_c, 0, 81, 90
1, 432, Note_on_c, 0, 38, 65
1, 433, Note_off_c, 0, 60, 0
1, 460, Note_off_c, 0, 50, 0
1, 460, Note_off_c, 0, 57, 0
1, 460, Note_off_c, 0, 79, 0
1, 479, Note_on_c, 0, 50, 98
1, 479, Note_on_c, 0, 79, 80
1, 479, Note_off_c, 0, 81, 0
1, 480, Note_on_c, 0, 83, 88
1, 576, Note_on_c, 0, 71, 115
1, 615, Note_off_c, 0, 72, 0
1, 623, Note_on_c, 0, 60, 71
1, 664, Note_off_c, 0, 79, 0
1, 672, Note_on_c, 0, 64, 91
1, 682, Note_off_c, 0, 83, 0
1, 707, Note_off_c, 0, 60, 0
1, 740, Note_off_c, 0, 38, 0
1, 748, Note_off_c, 0, 71, 0
1, 758, Note_off_c, 0, 50, 0
1, 767, Note_off_c, 0, 64, 0
1, 767, Note_on_c, 0, 69, 53
1, 768, Note_on_c, 0, 41, 38
1, 768, Note_on_c, 0, 59, 125
1, 845, Note_off_c, 0, 59, 0
1, 863, Note_on_c, 0, 64, 72
1, 863, Note_off_c, 0, 69, 0
1, 863, Note_on_c, 0, 74, 77
1, 935, Note_off_c, 0, 41, 0
1, 939, Note_off_c, 0, 74, 0
1, 959, Note_on_c, 0, 74, 110
1, 960, Note_on_c, 0, 52, 95
1, 960, Note_on_c, 0, 67, 42
1, 960, Note_on_c, 0, 71, 101
1, 968, Note_off_c, 0, 64, 0
1, 1133, Note_off_c, 0, 67, 0
1, 1144, Note_off_c, 0, 52, 0
1, 1151, Note_on_c, 0, 50, 113
1, 1151, Note_on_c, 0, 67, 100
1, 1151, Note_on_c, 0, 77, 80
1, 1152, Note_on_c, 0, 41, 84
1, 1152, Note_off_c, 0, 74, 0
1, 1156, Note_off_c, 0, 71, 0
1, 1229, Note_off_c, 0, 41, 0
1, 1335, Note_off_c, 0, 77, 0
1, 1344, Note_on_c, 0, 43, 25
1, 1344, Note_on_c, 0, 60, 40
1, 1344, Note_on_c, 0, 76, 72
1, 1421, Note_off_c, 0, 60, 0
1, 1440, Note_on_c, 0, 64, 101
1, 1440, Note_on_c, 0, 74, 104
1, 1440, Note_off_c, 0, 76, 0
1, 1499, Note_off_c, 0, 43, 0
1, 1536, Note_on_c, 0, 45, 62
1, 1536, Note_on_c, 0, 72, 100
1, 1536, Note_on_c, 0, 76, 90
1, 1541, Note_off_c, 0, 64, 0
1, 1554, Note_off_c, 0, 50, 0
1, 1560, Note_off_c, 0, 67, 0
1, 1564, Note_off_c, 0, 74, 0
1, 1580, Note_off_c, 0, 76, 0
1, 1583, Note_on_c, 0, 60, 64
1, 1631, Note_on_c, 0, 74, 87
1, 1704, Note_off_c, 0, 60, 0
1, 1705, Note_off_c, 0, 72, 0
1, 1728, Note_on_c, 0, 72, 82
1, 1775, Note_on_c, 0, 88, 71
1, 1810, Note_off_c, 0, 74, 0
1, 1811, Note_off_c, 0, 72, 0
1, 1824, Note_on_c, 0, 71, 61
1, 1824, Note_on_c, 0, 77, 86
1, 1865, Note_off_c, 0, 88, 0
1, 1872, Note_on_c, 0, 57, 42
1, 1872, Note_on_c, 0, 72, 60
1, 1907, Note_off_c, 0, 71, 0
1, 1916, Note_off_c, 0, 72, 0
1, 1920, Note_on_c, 0, 38, 62
1, 1920, Note_off_c, 0, 45, 0
1, 1920, Note_on_c, 0, 50, 82
1, 1920, Note_on_c, 0, 72, 68
1, 1920, Note_on_c, 0, 79, 97
1, 1925, Note_off_c, 0, 57, 0
1, 2014, Note_off_c, 0, 77, 0
1, 2015, Note_on_c, 0, 83, 74
1, 2016, Note_on_c, 0, 77, 92
1, 2065, Note_off_c, 0, 72, 0
1, 2077, Note_off_c, 0, 79, 0
1, 2093, Note_off_c, 0, 77, 0
1, 2112, Note_on_c, 0, 71, 108
1, 2159, Note_on_c, 0, 60, 66
1, 2208, Note_on_c, 0, 64, 79
1, 2237, Note_off_c, 0, 60, 0
1, 2284, Note_off_c, 0, 71, 0
1, 2304, Note_off_c, 0, 38, 0
1, 2304, Note_on_c, 0, 41, 53
1, 2304, Note_off_c, 0, 50, 0
1, 2304, Note_on_c, 0, 57, 53
1, 2304, Note_on_c, 0, 60, 108
1, 2304, Note_on_c, 0, 76, 38
1, 2310, Note_off_c, 0, 64, 0
1, 2400, Note_on_c, 0, 64, 110
1, 2414, Note_off_c, 0, 83, 0
1, 2453, Note_off_c, 0, 60, 0
1, 2495, Note_off_c, 0, 57, 0
1, 2496, Note_on_c, 0, 72, 79
1, 2496, Note_off_c, 0, 76, 0
1, 2496, Note_on_c, 0, 83, 103
1, 2501, Note_off_c, 0, 64, 0
1, 2565, Note_off_c, 0, 72, 0
1, 2592, Note_on_c, 0, 76, 98
1, 2686, Note_off_c, 0, 76, 0
1, 2687, Note_off_c, 0, 41, 0
1, 2687, Note_on_c, 0, 67, 97
1, 2688, Note_on_c, 0, 41, 79
1, 2688, Note_on_c, 0, 50, 106
1, 2688, Note_on_c, 0, 79, 104
1, 2702, Note_off_c, 0, 83, 0
1, 2880, Note_off_c, 0, 41, 0
1, 2880, Note_on_c, 0, 43, 27
1, 2880, Note_on_c, 0, 62, 29
1, 2880, Note_on_c, 0, 81, 93
1, 2927, Note_on_c, 0, 60, 61
1, 2946, Note_off_c, 0, 81, 0
1, 2975, Note_on_c, 0, 81, 77
1, 2976, Note_on_c, 0, 74, 87
1, 2993, Note_off_c, 0, 62, 0
1, 2997, Note_off_c, 0, 79, 0
1, 3011, Note_off_c, 0, 60, 0
1, 3023, Note_on_c, 0, 64, 92
1, 3067, Note_off_c, 0, 43, 0
1, 3068, Note_off_c, 0, 50, 0
1, 3072, Note_off_c, 0, 64, 0
1, 3072, Note_off_c, 0, 67, 0
1, 3072, Note_off_c, 0, 74, 0
1, 3072, Note_off_c, 0, 81, 0
1, 0, Note_on_c, 0, 57, 72
1, 0, Note_on_c, 0, 64, 72
1, 0, Note_on_c, 0, 72, 72
1, 0, Note_on_c, 0, 86, 112
1, 10, Note_on_c, 0, 88, 96
1, 28, Note_off_c, 0, 86, 0
1, 59, Note_off_c, 0, 88, 0
1, 96, Note_off_c, 0, 57, 64
1, 96, Note_off_c, 0, 64, 64
1, 96, Note_off_c, 0, 72, 64
1, 192, Note_on_c, 0, 76, 72
1, 240, Note_on_c, 0, 74, 72
1, 240, Note_off_c, 0, 76, 64
1, 288, Note_on_c, 0, 56, 72
1, 288, Note_on_c, 0, 62, 72
1, 288, Note_on_c, 0, 71, 72
1, 288, Note_off_c, 0, 74, 64
1, 383, Note_on_c, 0, 89, 117
1, 384, Note_off_c, 0, 56, 64
1, 384, Note_off_c, 0, 62, 64
1, 384, Note_on_c, 0, 69, 72
1, 384, Note_off_c, 0, 71, 64
1, 402, Note_on_c, 0, 91, 96
1, 414, Note_off_c, 0, 89, 0
1, 480, Note_off_c, 0, 69, 64
1, 482, Note_on_c, 0, 89, 127
1, 483, Note_off_c, 0, 91, 0
1, 523, Note_off_c, 0, 89, 0
1, 576, Note_on_c, 0, 72, 72
1, 576, Note_on_c, 0, 88, 91
1, 624, Note_off_c, 0, 72, 64
1, 624, Note_on_c, 0, 74, 72
1, 624, Note_off_c, 0, 88, 0
1, 672, Note_on_c, 0, 68, 72
1, 672, Note_off_c, 0, 74, 64
1, 672, Note_on_c, 0, 86, 85
1, 708, Note_off_c, 0, 86, 0
1, 766, Note_on_c, 0, 86, 117
1, 768, Note_on_c, 0, 57, 72
1, 768, Note_on_c, 0, 64, 72
1, 768, Note_off_c, 0, 68, 64
1, 768, Note_on_c, 0, 72, 72
1, 780, Note_on_c, 0, 88, 106
1, 793, Note_off_c, 0, 86, 0
1, 830, Note_off_c, 0, 88, 0
1, 864, Note_off_c, 0, 57, 64
1, 864, Note_off_c, 0, 64, 64
1, 864, Note_off_c, 0, 72, 64
1, 960, Note_on_c, 0, 64, 72
1, 1008, Note_off_c, 0, 64, 64
1, 1008, Note_on_c, 0, 74, 72
1, 1056, Note_on_c, 0, 56, 72
1, 1056, Note_on_c, 0, 62, 72
1, 1056, Note_on_c, 0, 71, 72
1, 1056, Note_off_c, 0, 74, 64
1, 1056, Note_on_c, 0, 92, 106
1, 1106, Note_off_c, 0, 92, 0
1, 1152, Note_off_c, 0, 56, 64
1, 1152, Note_off_c, 0, 62, 64
1, 1152, Note_on_c, 0, 69, 72
1, 1152, Note_off_c, 0, 71, 64
1, 1248, Note_off_c, 0, 69, 64
1, 1248, Note_on_c, 0, 72, 72
1, 1344, Note_on_c, 0, 71, 72
1, 1344, Note_off_c, 0, 72, 64
1, 1344, Note_on_c, 0, 88, 91
1, 1392, Note_off_c, 0, 88, 0
1, 1440, Note_off_c, 0, 71, 64
1, 1440, Note_on_c, 0, 76, 72
1, 1440, Note_on_c, 0, 91, 85
1, 1476, Note_off_c, 0, 91, 0
1, 1536, Note_off_c, 0, 76, 64
1, 0, Note_on_c, 0, 48, 41
1, 7, Note_on_c, 0, 53, 37
1, 12, Note_on_c, 0, 57, 51
1, 24, Note_on_c, 0, 64, 71
1, 96, Note_on_c, 0, 91, 93
1, 120, Note_on_c, 0, 89, 86
1, 124, Note_off_c, 0, 91, 96
1, 144, Note_on_c, 0, 88, 90
1, 151, Note_off_c, 0, 89, 92
1, 192, Note_on_c, 0, 81, 78
1, 235, Note_off_c, 0, 81, 113
1, 240, Note_on_c, 0, 79, 82
1, 287, Note_off_c, 0, 79, 127
1, 288, Note_on_c, 0, 86, 87
1, 289, Note_off_c, 0, 88, 112
1, 333, Note_off_c, 0, 53, 1
1, 339, Note_on_c, 0, 76, 87
1, 342, Note_off_c, 0, 86, 108
1, 350, Note_off_c, 0, 48, 41
1, 354, Note_off_c, 0, 57, 77
1, 354, Note_off_c, 0, 64, 48
1, 382, Note_on_c, 0, 48, 57
1, 384, Note_on_c, 0, 88, 88
1, 389, Note_on_c, 0, 55, 20
1, 398, Note_on_c, 0, 59, 55
1, 415, Note_on_c, 0, 64, 60
1, 432, Note_off_c, 0, 88, 120
1, 440, Note_on_c, 0, 79, 84
1, 451, Note_off_c, 0, 55, 62
1, 453, Note_on_c, 0, 55, 20
1, 672, Note_on_c, 0, 72, 105
1, 672, Note_off_c, 0, 76, 112
1, 721, Note_on_c, 0, 74, 72
1, 723, Note_off_c, 0, 72, 98
1, 735, Note_off_c, 0, 55, 62
1, 746, Note_off_c, 0, 59, 109
1, 747, Note_off_c, 0, 64, 82
1, 752, Note_off_c, 0, 48, 62
1, 768, Note_on_c, 0, 48, 41
1, 768, Note_off_c, 0, 74, 105
1, 768, Note_off_c, 0, 79, 88
1, 775, Note_on_c, 0, 53, 37
1, 780, Note_on_c, 0, 57, 51
1, 792, Note_on_c, 0, 64, 71
1, 864, Note_on_c, 0, 91, 93
1, 888, Note_on_c, 0, 89, 86
1, 892, Note_off_c, 0, 91, 96
1, 912, Note_on_c, 0, 88, 90
1, 919, Note_off_c, 0, 89, 92
1, 960, Note_on_c, 0, 81, 78
1, 1003, Note_off_c, 0, 81, 113
1, 1008, Note_on_c, 0, 79, 82
1, 1055, Note_off_c, 0, 79, 127
1, 1056, Note_on_c, 0, 86, 87
1, 1057, Note_off_c, 0, 88, 112
1, 1101, Note_off_c, 0, 53, 1
1, 1107, Note_on_c, 0, 76, 87
1, 1110, Note_off_c, 0, 86, 108
1, 1118, Note_off_c, 0, 48, 41
1, 1122, Note_off_c, 0, 57, 77
1, 1122, Note_off_c, 0, 64, 48
1, 1150, Note_on_c, 0, 48, 57
1, 1152, Note_on_c, 0, 88, 88
1, 1157, Note_on_c, 0, 55, 20
1, 1166, Note_on_c, 0, 59, 55
1, 1183, Note_on_c, 0, 64, 60
1, 1200, Note_off_c, 0, 88, 120
1, 1208, Note_on_c, 0, 79, 84
1, 1219, Note_off_c, 0, 55, 62
1, 1221, Note_on_c, 0, 55, 20
1, 1440, Note_on_c, 0, 72, 105
1, 1440, Note_off_c, 0, 76, 112
1, 1489, Note_on_c, 0, 74, 72
1, 1491, Note_off_c, 0, 72, 98
1, 1503, Note_off_c, 0, 55, 62
1, 1514, Note_off_c, 0, 59, 109
1, 1515, Note_off_c, 0, 64, 82
1, 1520, Note_off_c, 0, 48, 62
1, 1536, Note_off_c, 0, 74, 105
1, 1536, Note_off_c, 0, 79, 88
1, 0, Note_on_c, 0, 41, 87
1, 0, Note_on_c, 0, 48, 87
1, 0, Note_on_c, 0, 52, 87
1, 0, Note_on_c, 0, 57, 87
1, 192, Note_off_c, 0, 41, 64
1, 192, Note_on_c, 0, 41, 87
1, 192, Note_off_c, 0, 48, 64
1, 192, Note_off_c, 0, 52, 64
1, 192, Note_on_c, 0, 52, 87
1, 192, Note_off_c, 0, 57, 64
1, 192, Note_on_c, 0, 57, 87
1, 192, Note_on_c, 0, 60, 87
1, 264, Note_off_c, 0, 41, 64
1, 264, Note_on_c, 0, 43, 87
1, 264, Note_on_c, 0, 50, 87
1, 264, Note_off_c, 0, 52, 64
1, 264, Note_off_c, 0, 57, 64
1, 264, Note_on_c, 0, 57, 87
1, 264, Note_on_c, 0, 59, 87
1, 264, Note_off_c, 0, 60, 64
1, 336, Note_off_c, 0, 43, 64
1, 336, Note_on_c, 0, 45, 87
1, 336, Note_off_c, 0, 50, 64
1, 336, Note_on_c, 0, 52, 87
1, 336, Note_on_c, 0, 55, 87
1, 336, Note_off_c, 0, 57, 64
1, 336, Note_off_c, 0, 59, 64
1, 336, Note_on_c, 0, 60, 87
1, 480, Note_off_c, 0, 45, 64
1, 480, Note_off_c, 0, 52, 64
1, 480, Note_off_c, 0, 55, 64
1, 480, Note_off_c, 0, 60, 64
1, 552, Note_on_c, 0, 45, 91
1, 576, Note_off_c, 0, 45, 64
1, 576, Note_on_c, 0, 45, 87
1, 576, Note_on_c, 0, 55, 87
1, 576, Note_on_c, 0, 60, 87
1, 576, Note_on_c, 0, 64, 87
1, 576, Note_on_c, 0, 76, 87
1, 672, Note_off_c, 0, 45, 64
1, 672, Note_on_c, 0, 45, 87
1, 672, Note_on_c, 0, 52, 87
1, 672, Note_off_c, 0, 55, 64
1, 672, Note_on_c, 0, 55, 87
1, 672, Note_off_c, 0, 60, 64
1, 672, Note_on_c, 0, 60, 87
1, 672, Note_off_c, 0, 64, 64
1, 672, Note_on_c, 0, 72, 87
1, 672, Note_off_c, 0, 76, 64
1, 768, Note_on_c, 0, 40, 87
1, 768, Note_off_c, 0, 45, 64
1, 768, Note_on_c, 0, 50, 87
1, 768, Note_off_c, 0, 52, 64
1, 768, Note_off_c, 0, 55, 64
1, 768, Note_on_c, 0, 55, 87
1, 768, Note_on_c, 0, 59, 87
1, 768, Note_off_c, 0, 60, 64
1, 768, Note_on_c, 0, 71, 87
1, 768, Note_off_c, 0, 72, 64
1, 960, Note_off_c, 0, 40, 64
1, 960, Note_on_c, 0, 40, 87
1, 960, Note_off_c, 0, 50, 64
1, 960, Note_on_c, 0, 50, 87
1, 960, Note_off_c, 0, 55, 64
1, 960, Note_on_c, 0, 55, 87
1, 960, Note_off_c, 0, 59, 64
1, 960, Note_on_c, 0, 59, 87
1, 960, Note_off_c, 0, 71, 64
1, 1032, Note_off_c, 0, 40, 64
1, 1032, Note_on_c, 0, 40, 87
1, 1032, Note_off_c, 0, 50, 64
1, 1032, Note_off_c, 0, 55, 64
1, 1032, Note_on_c, 0, 55, 87
1, 1032, Note_off_c, 0, 59, 64
1, 1032, Note_on_c, 0, 59, 87
1, 1032, Note_on_c, 0, 62, 87
1, 1104, Note_off_c, 0, 40, 64
1, 1104, Note_on_c, 0, 40, 87
1, 1104, Note_on_c, 0, 50, 87
1, 1104, Note_off_c, 0, 55, 64
1, 1104, Note_on_c, 0, 55, 87
1, 1104, Note_off_c, 0, 59, 64
1, 1104, Note_on_c, 0, 59, 87
1, 1104, Note_off_c, 0, 62, 64
1, 1248, Note_off_c, 0, 40, 64
1, 1248, Note_off_c, 0, 50, 64
1, 1248, Note_off_c, 0, 55, 64
1, 1248, Note_off_c, 0, 59, 64
1, 1344, Note_on_c, 0, 41, 87
1, 1344, Note_on_c, 0, 55, 87
1, 1344, Note_on_c, 0, 60, 87
1, 1344, Note_on_c, 0, 64, 87
1, 1344, Note_on_c, 0, 76, 87
1, 1440, Note_on_c, 0, 40, 87
1, 1440, Note_off_c, 0, 41, 64
1, 1440, Note_on_c, 0, 50, 87
1, 1440, Note_off_c, 0, 55, 64
1, 1440, Note_on_c, 0, 55, 87
1, 1440, Note_on_c, 0, 59, 87
1, 1440, Note_off_c, 0, 60, 64
1, 1440, Note_off_c, 0, 64, 64
1, 1440, Note_off_c, 0, 76, 64
1, 1440, Note_on_c, 0, 79, 87
1, 1536, Note_off_c, 0, 40, 64
1, 1536, Note_off_c, 0, 50, 64
1, 1536, Note_off_c, 0, 55, 64
1, 1536, Note_off_c, 0, 59, 64
1, 1536, Note_off_c, 0, 79, 64
1, 0, Note_on_c, 0, 36, 72
1, 0, Note_on_c, 0, 48, 70
1, 0, Note_on_c, 0, 52, 75
1, 0, Note_on_c, 0, 55, 72
1, 0, Note_on_c, 0, 59, 76
1, 94, Note_off_c, 0, 55, 0
1, 95, Note_off_c, 0, 48, 0
1, 95, Note_off_c, 0, 52, 0
1, 96, Note_on_c, 0, 48, 24
1, 96, Note_on_c, 0, 52, 66
1, 96, Note_on_c, 0, 55, 43
1, 96, Note_on_c, 0, 62, 75
1, 281, Note_off_c, 0, 52, 0
1, 281, Note_off_c, 0, 59, 0
1, 288, Note_on_c, 0, 52, 84
1, 288, Note_on_c, 0, 59, 63
1, 331, Note_off_c, 0, 48, 0
1, 336, Note_on_c, 0, 48, 82
1, 384, Note_off_c, 0, 36, 0
1, 384, Note_on_c, 0, 43, 75
1, 384, Note_off_c, 0, 48, 0
1, 384, Note_off_c, 0, 52, 0
1, 384, Note_on_c, 0, 53, 62
1, 384, Note_on_c, 0, 57, 76
1, 384, Note_off_c, 0, 59, 0
1, 384, Note_on_c, 0, 59, 79
1, 384, Note_off_c, 0, 62, 0
1, 384, Note_on_c, 0, 62, 77
1, 393, Note_off_c, 0, 55, 0
1, 478, Note_off_c, 0, 59, 0
1, 479, Note_off_c, 0, 57, 0
1, 480, Note_off_c, 0, 53, 0
1, 480, Note_on_c, 0, 53, 72
1, 480, Note_on_c, 0, 57, 69
1, 480, Note_on_c, 0, 59, 72
1, 480, Note_on_c, 0, 65, 109
1, 569, Note_off_c, 0, 57, 0
1, 570, Note_off_c, 0, 53, 0
1, 572, Note_off_c, 0, 43, 0
1, 576, Note_on_c, 0, 40, 75
1, 576, Note_on_c, 0, 52, 90
1, 576, Note_on_c, 0, 56, 79
1, 576, Note_on_c, 0, 67, 92
1, 660, Note_off_c, 0, 62, 0
1, 661, Note_off_c, 0, 59, 0
1, 662, Note_off_c, 0, 65, 0
1, 666, Note_off_c, 0, 40, 0
1, 669, Note_off_c, 0, 52, 0
1, 669, Note_off_c, 0, 56, 0
1, 669, Note_off_c, 0, 67, 0
1, 672, Note_on_c, 0, 44, 75
1, 672, Note_on_c, 0, 52, 84
1, 672, Note_on_c, 0, 56, 83
1, 672, Note_on_c, 0, 59, 65
1, 672, Note_on_c, 0, 65, 111
1, 758, Note_off_c, 0, 52, 0
1, 759, Note_off_c, 0, 65, 0
1, 760, Note_off_c, 0, 59, 0
1, 761, Note_off_c, 0, 44, 0
1, 761, Note_off_c, 0, 56, 0
1, 768, Note_on_c, 0, 45, 83
1, 768, Note_on_c, 0, 52, 76
1, 768, Note_on_c, 0, 55, 67
1, 768, Note_on_c, 0, 59, 69
1, 768, Note_on_c, 0, 60, 62
1, 768, Note_on_c, 0, 64, 79
1, 912, Note_off_c, 0, 55, 0
1, 912, Note_on_c, 0, 55, 65
1, 954, Note_off_c, 0, 59, 0
1, 956, Note_off_c, 0, 60, 0
1, 958, Note_off_c, 0, 64, 0
1, 960, Note_on_c, 0, 59, 79
1, 960, Note_on_c, 0, 60, 80
1, 960, Note_on_c, 0, 64, 86
1, 1043, Note_off_c, 0, 55, 0
1, 1056, Note_on_c, 0, 55, 69
1, 1104, Note_on_c, 0, 43, 86
1, 1104, Note_off_c, 0, 52, 0
1, 1105, Note_off_c, 0, 45, 0
1, 1152, Note_on_c, 0, 41, 84
1, 1152, Note_on_c, 0, 48, 76
1, 1152, Note_on_c, 0, 53, 69
1, 1152, Note_on_c, 0, 57, 63
1, 1153, Note_off_c, 0, 43, 0
1, 1154, Note_off_c, 0, 55, 0
1, 1155, Note_off_c, 0, 64, 0
1, 1156, Note_off_c, 0, 59, 0
1, 1156, Note_off_c, 0, 60, 0
1, 1245, Note_off_c, 0, 53, 0
1, 1248, Note_on_c, 0, 53, 70
1, 1248, Note_on_c, 0, 55, 73
1, 1248, Note_on_c, 0, 60, 77
1, 1248, Note_on_c, 0, 64, 84
1, 1342, Note_off_c, 0, 55, 0
1, 1342, Note_off_c, 0, 64, 0
1, 1344, Note_on_c, 0, 55, 75
1, 1344, Note_off_c, 0, 60, 0
1, 1344, Note_on_c, 0, 60, 65
1, 1344, Note_on_c, 0, 64, 92
1, 1389, Note_off_c, 0, 53, 0
1, 1392, Note_on_c, 0, 53, 84
1, 1435, Note_off_c, 0, 64, 0
1, 1436, Note_off_c, 0, 60, 0
1, 1440, Note_off_c, 0, 55, 0
1, 1440, Note_on_c, 0, 55, 75
1, 1440, Note_on_c, 0, 60, 65
1, 1440, Note_on_c, 0, 64, 107
1, 1486, Note_off_c, 0, 41, 0
1, 1488, Note_on_c, 0, 41, 84
1, 1532, Note_off_c, 0, 57, 0
1, 1534, Note_off_c, 0, 48, 0
1, 1536, Note_on_c, 0, 36, 72
1, 1536, Note_off_c, 0, 41, 0
1, 1536, Note_on_c, 0, 48, 70
1, 1536, Note_on_c, 0, 52, 75
1, 1536, Note_off_c, 0, 53, 0
1, 1536, Note_off_c, 0, 55, 0
1, 1536, Note_on_c, 0, 55, 72
1, 1536, Note_on_c, 0, 59, 76
1, 1536, Note_off_c, 0, 60, 0
1, 1536, Note_off_c, 0, 64, 0
1, 1630, Note_off_c, 0, 55, 0
1, 1631, Note_off_c, 0, 48, 0
1, 1631, Note_off_c, 0, 52, 0
1, 1632, Note_on_c, 0, 48, 24
1, 1632, Note_on_c, 0, 52, 66
1, 1632, Note_on_c, 0, 55, 43
1, 1632, Note_on_c, 0, 62, 75
1, 1817, Note_off_c, 0, 52, 0
1, 1817, Note_off_c, 0, 59, 0
1, 1824, Note_on_c, 0, 52, 84
1, 1824, Note_on_c, 0, 59, 63
1, 1867, Note_off_c, 0, 48, 0
1, 1872, Note_on_c, 0, 48, 82
1, 1920, Note_off_c, 0, 36, 0
1, 1920, Note_on_c, 0, 43, 75
1, 1920, Note_off_c, 0, 48, 0
1, 1920, Note_off_c, 0, 52, 0
1, 1920, Note_on_c, 0, 53, 62
1, 1920, Note_on_c, 0, 57, 76
1, 1920, Note_off_c, 0, 59, 0
1, 1920, Note_on_c, 0, 59, 79
1, 1920, Note_off_c, 0, 62, 0
1, 1920, Note_on_c, 0, 62, 77
1, 1929, Note_off_c, 0, 55, 0
1, 2014, Note_off_c, 0, 59, 0
1, 2015, Note_off_c, 0, 57, 0
1, 2016, Note_off_c, 0, 53, 0
1, 2016, Note_on_c, 0, 53, 72
1, 2016, Note_on_c, 0, 57, 69
1, 2016, Note_on_c, 0, 59, 72
1, 2016, Note_on_c, 0, 65, 109
1, 2105, Note_off_c, 0, 57, 0
1, 2106, Note_off_c, 0, 53, 0
1, 2108, Note_off_c, 0, 43, 0
1, 2112, Note_on_c, 0, 40, 75
1, 2112, Note_on_c, 0, 52, 90
1, 2112, Note_on_c, 0, 56, 79
1, 2112, Note_on_c, 0, 67, 92
1, 2196, Note_off_c, 0, 62, 0
1, 2197, Note_off_c, 0, 59, 0
1, 2198, Note_off_c, 0, 65, 0
1, 2202, Note_off_c, 0, 40, 0
1, 2205, Note_off_c, 0, 52, 0
1, 2205, Note_off_c, 0, 56, 0
1, 2205, Note_off_c, 0, 67, 0
1, 2208, Note_on_c, 0, 44, 75
1, 2208, Note_on_c, 0, 52, 84
1, 2208, Note_on_c, 0, 56, 83
1, 2208, Note_on_c, 0, 59, 65
1, 2208, Note_on_c, 0, 65, 111
1, 2294, Note_off_c, 0, 52, 0
1, 2295, Note_off_c, 0, 65, 0
1, 2296, Note_off_c, 0, 59, 0
1, 2297, Note_off_c, 0, 44, 0
1, 2297, Note_off_c, 0, 56, 0
1, 2304, Note_on_c, 0, 45, 83
1, 2304, Note_on_c, 0, 52, 76
1, 2304, Note_on_c, 0, 55, 67
1, 2304, Note_on_c, 0, 59, 69
1, 2304, Note_on_c, 0, 60, 62
1, 2304, Note_on_c, 0, 64, 79
1, 2448, Note_off_c, 0, 55, 0
1, 2448, Note_on_c, 0, 55, 65
1, 2490, Note_off_c, 0, 59, 0
1, 2492, Note_off_c, 0, 60, 0
1, 2494, Note_off_c, 0, 64, 0
1, 2496, Note_on_c, 0, 59, 79
1, 2496, Note_on_c, 0, 60, 80
1, 2496, Note_on_c, 0, 64, 86
1, 2579, Note_off_c, 0, 55, 0
1, 2592, Note_on_c, 0, 55, 69
1, 2640, Note_on_c, 0, 43, 86
1, 2640, Note_off_c, 0, 52, 0
1, 2641, Note_off_c, 0, 45, 0
1, 2688, Note_on_c, 0, 41, 84
1, 2688, Note_on_c, 0, 48, 76
1, 2688, Note_on_c, 0, 53, 69
1, 2688, Note_on_c, 0, 57, 63
1, 2689, Note_off_c, 0, 43, 0
1, 2690, Note_off_c, 0, 55, 0
1, 2691, Note_off_c, 0, 64, 0
1, 2692, Note_off_c, 0, 59, 0
1, 2692, Note_off_c, 0, 60, 0
1, 2781, Note_off_c, 0, 53, 0
1, 2784, Note_on_c, 0, 53, 70
1, 2784, Note_on_c, 0, 55, 73
1, 2784, Note_on_c, 0, 60, 77
1, 2784, Note_on_c, 0, 64, 84
1, 2878, Note_off_c, 0, 55, 0
1, 2878, Note_off_c, 0, 64, 0
1, 2880, Note_on_c, 0, 55, 75
1, 2880, Note_off_c, 0, 60, 0
1, 2880, Note_on_c, 0, 60, 65
1, 2880, Note_on_c, 0, 64, 92
1, 2925, Note_off_c, 0, 53, 0
1, 2928, Note_on_c, 0, 53, 84
1, 2971, Note_off_c, 0, 64, 0
1, 2972, Note_off_c, 0, 60, 0
1, 2976, Note_off_c, 0, 55, 0
1, 2976, Note_on_c, 0, 55, 75
1, 2976, Note_on_c, 0, 60, 65
1, 2976, Note_on_c, 0, 64, 107
1, 3022, Note_off_c, 0, 41, 0
1, 3024, Note_on_c, 0, 41, 84
1, 3068, Note_off_c, 0, 57, 0
1, 3070, Note_off_c, 0, 48, 0
1, 3072, Note_off_c, 0, 41, 0
1, 3072, Note_off_c, 0, 53, 0
1, 3072, Note_off_c, 0, 55, 0
1, 3072, Note_off_c, 0, 60, 0
1, 3072, Note_off_c, 0, 64, 0
1, 0, Note_on_c, 0, 48, 68
1, 0, Note_on_c, 0, 59, 68
1, 0, Note_on_c, 0, 64, 68
1, 0, Note_on_c, 0, 67, 68
1, 48, Note_on_c, 0, 55, 68
1, 96, Note_on_c, 0, 57, 68
1, 141, Note_off_c, 0, 48, 0
1, 141, Note_off_c, 0, 55, 0
1, 141, Note_off_c, 0, 57, 0
1, 141, Note_off_c, 0, 59, 0
1, 141, Note_off_c, 0, 64, 0
1, 141, Note_off_c, 0, 67, 0
1, 144, Note_on_c, 0, 45, 68
1, 144, Note_on_c, 0, 57, 68
1, 144, Note_on_c, 0, 60, 68
1, 144, Note_on_c, 0, 64, 68
1, 240, Note_on_c, 0, 52, 68
1, 288, Note_on_c, 0, 55, 68
1, 336, Note_on_c, 0, 53, 68
1, 374, Note_off_c, 0, 52, 0
1, 375, Note_off_c, 0, 55, 0
1, 377, Note_off_c, 0, 53, 0
1, 378, Note_off_c, 0, 57, 0
1, 378, Note_off_c, 0, 60, 0
1, 379, Note_off_c, 0, 45, 0
1, 379, Note_off_c, 0, 64, 0
1, 384, Note_on_c, 0, 38, 68
1, 384, Note_on_c, 0, 53, 68
1, 384, Note_on_c, 0, 57, 68
1, 384, Note_on_c, 0, 60, 68
1, 431, Note_off_c, 0, 53, 0
1, 432, Note_on_c, 0, 50, 68
1, 432, Note_on_c, 0, 53, 68
1, 432, Note_on_c, 0, 64, 68
1, 528, Note_on_c, 0, 43, 68
1, 528, Note_off_c, 0, 57, 0
1, 528, Note_on_c, 0, 57, 68
1, 528, Note_on_c, 0, 59, 68
1, 528, Note_on_c, 0, 62, 68
1, 530, Note_off_c, 0, 38, 0
1, 542, Note_off_c, 0, 53, 0
1, 543, Note_off_c, 0, 50, 0
1, 544, Note_off_c, 0, 60, 0
1, 544, Note_off_c, 0, 64, 0
1, 624, Note_on_c, 0, 53, 68
1, 663, Note_off_c, 0, 57, 0
1, 672, Note_on_c, 0, 57, 68
1, 711, Note_off_c, 0, 59, 0
1, 720, Note_on_c, 0, 59, 68
1, 753, Note_off_c, 0, 62, 0
1, 754, Note_off_c, 0, 43, 0
1, 760, Note_off_c, 0, 53, 0
1, 761, Note_off_c, 0, 57, 0
1, 762, Note_off_c, 0, 59, 0
1, 768, Note_on_c, 0, 48, 68
1, 816, Note_on_c, 0, 55, 68
1, 816, Note_on_c, 0, 59, 68
1, 816, Note_on_c, 0, 64, 68
1, 864, Note_on_c, 0, 60, 68
1, 912, Note_on_c, 0, 45, 68
1, 912, Note_on_c, 0, 52, 68
1, 912, Note_off_c, 0, 55, 0
1, 912, Note_on_c, 0, 55, 68
1, 912, Note_on_c, 0, 57, 68
1, 912, Note_off_c, 0, 60, 0
1, 912, Note_on_c, 0, 60, 68
1, 917, Note_off_c, 0, 48, 0
1, 917, Note_off_c, 0, 59, 0
1, 917, Note_off_c, 0, 64, 0
1, 1005, Note_off_c, 0, 55, 0
1, 1008, Note_on_c, 0, 55, 68
1, 1056, Note_off_c, 0, 57, 0
1, 1056, Note_on_c, 0, 57, 68
1, 1099, Note_off_c, 0, 60, 0
1, 1104, Note_on_c, 0, 60, 68
1, 1133, Note_off_c, 0, 52, 0
1, 1134, Note_off_c, 0, 57, 0
1, 1136, Note_off_c, 0, 45, 0
1, 1137, Note_off_c, 0, 55, 0
1, 1140, Note_off_c, 0, 60, 0
1, 1152, Note_on_c, 0, 38, 68
1, 1152, Note_on_c, 0, 53, 68
1, 1152, Note_on_c, 0, 60, 68
1, 1152, Note_on_c, 0, 64, 68
1, 1200, Note_on_c, 0, 50, 68
1, 1296, Note_on_c, 0, 43, 68
1, 1296, Note_off_c, 0, 50, 0
1, 1296, Note_off_c, 0, 53, 0
1, 1296, Note_on_c, 0, 53, 68
1, 1296, Note_on_c, 0, 57, 68
1, 1296, Note_on_c, 0, 59, 68
1, 1296, Note_on_c, 0, 62, 68
1, 1297, Note_off_c, 0, 60, 0
1, 1297, Note_off_c, 0, 64, 0
1, 1298, Note_off_c, 0, 38, 0
1, 1388, Note_off_c, 0, 43, 0
1, 1392, Note_on_c, 0, 43, 68
1, 1437, Note_off_c, 0, 53, 0
1, 1437, Note_off_c, 0, 62, 0
1, 1439, Note_off_c, 0, 57, 0
1, 1439, Note_off_c, 0, 59, 0
1, 1440, Note_on_c, 0, 53, 68
1, 1440, Note_on_c, 0, 57, 68
1, 1440, Note_on_c, 0, 59, 68
1, 1440, Note_on_c, 0, 62, 68
1, 1488, Note_on_c, 0, 47, 68
1, 1532, Note_off_c, 0, 57, 0
1, 1532, Note_off_c, 0, 59, 0
1, 1533, Note_off_c, 0, 43, 0
1, 1533, Note_off_c, 0, 47, 0
1, 1533, Note_off_c, 0, 53, 0
1, 1533, Note_off_c, 0, 62, 0
1, 0, Note_on_c, 0, 41, 79
1, 0, Note_on_c, 0, 53, 79
1, 0, Note_on_c, 0, 57, 79
1, 0, Note_on_c, 0, 60, 79
1, 0, Note_on_c, 0, 64, 79
1, 48, Note_on_c, 0, 84, 46
1, 48, Note_on_c, 0, 96, 46
1, 96, Note_off_c, 0, 84, 64
1, 96, Note_off_c, 0, 96, 64
1, 384, Note_off_c, 0, 53, 64
1, 384, Note_off_c, 0, 57, 64
1, 384, Note_off_c, 0, 60, 64
1, 384, Note_off_c, 0, 64, 64
1, 432, Note_on_c, 0, 83, 46
1, 432, Note_on_c, 0, 95, 46
1, 480, Note_on_c, 0, 72, 79
1, 480, Note_off_c, 0, 83, 64
1, 480, Note_off_c, 0, 95, 64
1, 576, Note_on_c, 0, 71, 79
1, 576, Note_off_c, 0, 72, 64
1, 672, Note_on_c, 0, 69, 79
1, 672, Note_off_c, 0, 71, 64
1, 720, Note_on_c, 0, 67, 79
1, 720, Note_off_c, 0, 69, 64
1, 768, Note_on_c, 0, 33, 79
1, 768, Note_off_c, 0, 41, 64
1, 768, Note_on_c, 0, 57, 79
1, 768, Note_on_c, 0, 64, 79
1, 768, Note_off_c, 0, 67, 64
1, 768, Note_on_c, 0, 67, 79
1, 768, Note_on_c, 0, 72, 79
1, 816, Note_on_c, 0, 81, 46
1, 816, Note_on_c, 0, 93, 46
1, 864, Note_off_c, 0, 81, 64
1, 864, Note_off_c, 0, 93, 64
1, 1152, Note_off_c, 0, 33, 64
1, 1152, Note_on_c, 0, 33, 79
1, 1152, Note_off_c, 0, 57, 64
1, 1152, Note_off_c, 0, 64, 64
1, 1152, Note_off_c, 0, 67, 64
1, 1152, Note_off_c, 0, 72, 64
1, 1200, Note_on_c, 0, 76, 46
1, 1200, Note_on_c, 0, 88, 46
1, 1248, Note_on_c, 0, 69, 79
1, 1248, Note_off_c, 0, 76, 64
1, 1248, Note_off_c, 0, 88, 64
1, 1344, Note_off_c, 0, 69, 64
1, 1344, Note_on_c, 0, 71, 79
1, 1440, Note_off_c, 0, 33, 64
1, 1440, Note_on_c, 0, 40, 79
1, 1440, Note_on_c, 0, 69, 79
1, 1440, Note_off_c, 0, 71, 64
1, 1488, Note_on_c, 0, 62, 79
1, 1488, Note_off_c, 0, 69, 64
1, 1536, Note_off_c, 0, 40, 64
1, 1536, Note_off_c, 0, 62, 64
1, 0, Note_on_c, 0, 45, 66
1, 0, Note_on_c, 0, 57, 62
1, 0, Note_on_c, 0, 72, 76
1, 96, Note_off_c, 0, 45, 64
1, 96, Note_on_c, 0, 52, 58
1, 96, Note_on_c, 0, 71, 60
1, 100, Note_off_c, 0, 72, 64
1, 144, Note_on_c, 0, 45, 37
1, 144, Note_on_c, 0, 69, 50
1, 148, Note_off_c, 0, 71, 64
1, 153, Note_off_c, 0, 52, 64
1, 187, Note_off_c, 0, 69, 64
1, 192, Note_on_c, 0, 64, 57
1, 288, Note_on_c, 0, 65, 56
1, 296, Note_off_c, 0, 64, 64
1, 336, Note_on_c, 0, 72, 53
1, 344, Note_off_c, 0, 65, 64
1, 360, Note_off_c, 0, 72, 64
1, 381, Note_off_c, 0, 45, 64
1, 384, Note_on_c, 0, 40, 60
1, 432, Note_on_c, 0, 72, 63
1, 480, Note_off_c, 0, 40, 64
1, 480, Note_on_c, 0, 48, 58
1, 480, Note_on_c, 0, 71, 64
1, 480, Note_off_c, 0, 72, 64
1, 524, Note_off_c, 0, 71, 64
1, 528, Note_on_c, 0, 40, 47
1, 528, Note_on_c, 0, 69, 64
1, 534, Note_off_c, 0, 48, 64
1, 572, Note_off_c, 0, 69, 64
1, 576, Note_on_c, 0, 64, 70
1, 672, Note_on_c, 0, 65, 68
1, 677, Note_off_c, 0, 64, 64
1, 698, Note_off_c, 0, 65, 64
1, 720, Note_on_c, 0, 69, 35
1, 746, Note_off_c, 0, 69, 64
1, 756, Note_off_c, 0, 57, 57
1, 768, Note_off_c, 0, 40, 64
1, 768, Note_on_c, 0, 45, 66
1, 768, Note_on_c, 0, 57, 62
1, 768, Note_on_c, 0, 72, 76
1, 864, Note_off_c, 0, 45, 64
1, 864, Note_on_c, 0, 52, 58
1, 864, Note_on_c, 0, 71, 60
1, 868, Note_off_c, 0, 72, 64
1, 912, Note_on_c, 0, 45, 37
1, 912, Note_on_c, 0, 69, 50
1, 916, Note_off_c, 0, 71, 64
1, 921, Note_off_c, 0, 52, 64
1, 955, Note_off_c, 0, 69, 64
1, 960, Note_on_c, 0, 64, 57
1, 1056, Note_on_c, 0, 65, 56
1, 1064, Note_off_c, 0, 64, 64
1, 1104, Note_on_c, 0, 72, 53
1, 1112, Note_off_c, 0, 65, 64
1, 1128, Note_off_c, 0, 72, 64
1, 1149, Note_off_c, 0, 45, 64
1, 1152, Note_on_c, 0, 40, 60
1, 1200, Note_on_c, 0, 72, 63
1, 1248, Note_off_c, 0, 40, 64
1, 1248, Note_on_c, 0, 48, 58
1, 1248, Note_on_c, 0, 71, 64
1, 1248, Note_off_c, 0, 72, 64
1, 1292, Note_off_c, 0, 71, 64
1, 1296, Note_on_c, 0, 40, 47
1, 1296, Note_on_c, 0, 69, 64
1, 1302, Note_off_c, 0, 48, 64
1, 1340, Note_off_c, 0, 69, 64
1, 1344, Note_on_c, 0, 64, 70
1, 1440, Note_on_c, 0, 69, 68
1, 1445, Note_off_c, 0, 64, 64
1, 1466, Note_off_c, 0, 69, 64
1, 1488, Note_on_c, 0, 71, 35
1, 1514, Note_off_c, 0, 71, 64
1, 1524, Note_off_c, 0, 57, 57
1, 1536, Note_off_c, 0, 40, 64
1, 0, Note_on_c, 0, 29, 42
1, 0, Note_on_c, 0, 41, 42
1, 0, Note_on_c, 0, 48, 42
1, 0, Note_on_c, 0, 57, 42
1, 0, Note_on_c, 0, 64, 42
1, 0, Note_on_c, 0, 67, 42
1, 0, Note_on_c, 0, 72, 42
1, 37, Note_off_c, 0, 72, 64
1, 48, Note_off_c, 0, 64, 64
1, 48, Note_off_c, 0, 67, 64
1, 96, Note_on_c, 0, 64, 42
1, 96, Note_on_c, 0, 67, 42
1, 96, Note_on_c, 0, 72, 42
1, 144, Note_off_c, 0, 64, 64
1, 144, Note_off_c, 0, 67, 64
1, 144, Note_off_c, 0, 72, 64
1, 192, Note_on_c, 0, 64, 42
1, 192, Note_on_c, 0, 67, 42
1, 192, Note_on_c, 0, 72, 42
1, 192, Note_on_c, 0, 76, 42
1, 240, Note_off_c, 0, 64, 64
1, 240, Note_off_c, 0, 67, 64
1, 240, Note_off_c, 0, 72, 64
1, 240, Note_on_c, 0, 79, 42
1, 253, Note_off_c, 0, 76, 64
1, 288, Note_off_c, 0, 29, 64
1, 288, Note_on_c, 0, 29, 42
1, 288, Note_on_c, 0, 64, 42
1, 288, Note_on_c, 0, 67, 42
1, 288, Note_on_c, 0, 72, 42
1, 288, Note_on_c, 0, 76, 42
1, 307, Note_off_c, 0, 79, 64
1, 336, Note_on_c, 0, 28, 42
1, 336, Note_off_c, 0, 29, 64
1, 336, Note_off_c, 0, 64, 64
1, 336, Note_off_c, 0, 67, 64
1, 336, Note_on_c, 0, 67, 42
1, 336, Note_off_c, 0, 72, 64
1, 336, Note_on_c, 0, 74, 42
1, 380, Note_off_c, 0, 67, 64
1, 380, Note_off_c, 0, 74, 64
1, 380, Note_off_c, 0, 76, 64
1, 384, Note_on_c, 0, 26, 42
1, 384, Note_off_c, 0, 28, 64
1, 384, Note_on_c, 0, 38, 42
1, 384, Note_off_c, 0, 41, 64
1, 384, Note_on_c, 0, 45, 42
1, 384, Note_off_c, 0, 48, 64
1, 384, Note_on_c, 0, 53, 42
1, 384, Note_off_c, 0, 57, 64
1, 384, Note_on_c, 0, 64, 42
1, 384, Note_on_c, 0, 69, 42
1, 384, Note_on_c, 0, 72, 42
1, 432, Note_off_c, 0, 64, 64
1, 432, Note_off_c, 0, 69, 64
1, 432, Note_off_c, 0, 72, 64
1, 480, Note_on_c, 0, 64, 42
1, 480, Note_on_c, 0, 69, 42
1, 480, Note_on_c, 0, 72, 42
1, 528, Note_off_c, 0, 64, 64
1, 528, Note_off_c, 0, 69, 64
1, 528, Note_off_c, 0, 72, 64
1, 576, Note_on_c, 0, 64, 42
1, 576, Note_on_c, 0, 69, 42
1, 576, Note_on_c, 0, 72, 42
1, 576, Note_on_c, 0, 76, 42
1, 624, Note_off_c, 0, 64, 64
1, 624, Note_off_c, 0, 69, 64
1, 624, Note_off_c, 0, 72, 64
1, 624, Note_on_c, 0, 79, 42
1, 630, Note_off_c, 0, 76, 64
1, 672, Note_off_c, 0, 26, 64
1, 672, Note_on_c, 0, 26, 42
1, 672, Note_on_c, 0, 64, 42
1, 672, Note_on_c, 0, 69, 42
1, 672, Note_on_c, 0, 72, 42
1, 672, Note_on_c, 0, 76, 42
1, 701, Note_off_c, 0, 79, 64
1, 720, Note_off_c, 0, 26, 64
1, 720, Note_on_c, 0, 28, 42
1, 720, Note_off_c, 0, 64, 64
1, 720, Note_off_c, 0, 69, 64
1, 720, Note_on_c, 0, 69, 42
1, 720, Note_off_c, 0, 72, 64
1, 720, Note_on_c, 0, 74, 42
1, 743, Note_off_c, 0, 76, 64
1, 764, Note_off_c, 0, 69, 64
1, 766, Note_off_c, 0, 74, 64
1, 768, Note_on_c, 0, 21, 42
1, 768, Note_off_c, 0, 28, 64
1, 768, Note_on_c, 0, 36, 42
1, 768, Note_off_c, 0, 38, 64
1, 768, Note_off_c, 0, 45, 64
1, 768, Note_on_c, 0, 45, 42
1, 768, Note_on_c, 0, 52, 42
1, 768, Note_off_c, 0, 53, 64
1, 768, Note_on_c, 0, 64, 42
1, 768, Note_on_c, 0, 67, 42
1, 768, Note_on_c, 0, 72, 42
1, 816, Note_off_c, 0, 64, 64
1, 816, Note_off_c, 0, 67, 64
1, 823, Note_off_c, 0, 72, 64
1, 864, Note_on_c, 0, 64, 42
1, 864, Note_on_c, 0, 67, 42
1, 864, Note_on_c, 0, 72, 42
1, 912, Note_off_c, 0, 64, 64
1, 912, Note_off_c, 0, 67, 64
1, 912, Note_off_c, 0, 72, 64
1, 960, Note_on_c, 0, 64, 42
1, 960, Note_on_c, 0, 67, 42
1, 960, Note_on_c, 0, 72, 42
1, 960, Note_on_c, 0, 76, 42
1, 1008, Note_off_c, 0, 64, 64
1, 1008, Note_off_c, 0, 67, 64
1, 1008, Note_off_c, 0, 72, 64
1, 1008, Note_on_c, 0, 79, 42
1, 1020, Note_off_c, 0, 76, 64
1, 1056, Note_off_c, 0, 21, 64
1, 1056, Note_on_c, 0, 23, 42
1, 1056, Note_on_c, 0, 64, 42
1, 1056, Note_on_c, 0, 67, 42
1, 1056, Note_on_c, 0, 72, 42
1, 1056, Note_on_c, 0, 76, 42
1, 1075, Note_off_c, 0, 79, 64
1, 1104, Note_off_c, 0, 64, 64
1, 1104, Note_off_c, 0, 67, 64
1, 1104, Note_on_c, 0, 67, 42
1, 1104, Note_off_c, 0, 72, 64
1, 1104, Note_on_c, 0, 74, 42
1, 1148, Note_off_c, 0, 67, 64
1, 1148, Note_off_c, 0, 74, 64
1, 1148, Note_off_c, 0, 76, 64
1, 1152, Note_off_c, 0, 23, 64
1, 1152, Note_on_c, 0, 24, 42
1, 1152, Note_off_c, 0, 36, 64
1, 1152, Note_on_c, 0, 36, 42
1, 1152, Note_on_c, 0, 43, 42
1, 1152, Note_off_c, 0, 45, 64
1, 1152, Note_off_c, 0, 52, 64
1, 1152, Note_on_c, 0, 52, 42
1, 1152, Note_on_c, 0, 64, 42
1, 1152, Note_on_c, 0, 67, 42
1, 1152, Note_on_c, 0, 72, 42
1, 1200, Note_off_c, 0, 64, 64
1, 1200, Note_off_c, 0, 67, 64
1, 1200, Note_off_c, 0, 72, 64
1, 1248, Note_on_c, 0, 64, 42
1, 1248, Note_on_c, 0, 67, 42
1, 1248, Note_on_c, 0, 72, 42
1, 1296, Note_off_c, 0, 64, 64
1, 1296, Note_off_c, 0, 67, 64
1, 1296, Note_off_c, 0, 72, 64
1, 1344, Note_on_c, 0, 64, 42
1, 1344, Note_on_c, 0, 67, 42
1, 1344, Note_on_c, 0, 72, 42
1, 1344, Note_on_c, 0, 79, 42
1, 1387, Note_off_c, 0, 79, 64
1, 1392, Note_off_c, 0, 64, 64
1, 1392, Note_off_c, 0, 67, 64
1, 1392, Note_off_c, 0, 72, 64
1, 1392, Note_on_c, 0, 81, 42
1, 1440, Note_off_c, 0, 24, 64
1, 1440, Note_on_c, 0, 31, 42
1, 1440, Note_on_c, 0, 64, 42
1, 1440, Note_on_c, 0, 67, 42
1, 1440, Note_on_c, 0, 72, 42
1, 1440, Note_on_c, 0, 76, 42
1, 1445, Note_off_c, 0, 81, 64
1, 1488, Note_off_c, 0, 64, 64
1, 1488, Note_off_c, 0, 67, 64
1, 1488, Note_on_c, 0, 67, 42
1, 1488, Note_off_c, 0, 72, 64
1, 1488, Note_on_c, 0, 74, 42
1, 1488, Note_on_c, 0, 79, 42
1, 1500, Note_off_c, 0, 76, 64
1, 1525, Note_off_c, 0, 79, 64
1, 1532, Note_off_c, 0, 67, 64
1, 1532, Note_off_c, 0, 74, 64
1, 1536, Note_off_c, 0, 31, 64
1, 1536, Note_off_c, 0, 36, 64
1, 1536, Note_off_c, 0, 43, 64
1, 1536, Note_off_c, 0, 52, 64
1, 0, Note_on_c, 0, 41, 92
1, 0, Note_on_c, 0, 48, 74
1, 0, Note_on_c, 0, 60, 82
1, 0, Note_on_c, 0, 69, 93
1, 19, Note_off_c, 0, 41, 74
1, 21, Note_off_c, 0, 60, 62
1, 21, Note_off_c, 0, 69, 75
1, 23, Note_off_c, 0, 48, 61
1, 48, Note_on_c, 0, 41, 87
1, 48, Note_on_c, 0, 48, 89
1, 48, Note_on_c, 0, 60, 80
1, 48, Note_on_c, 0, 69, 84
1, 63, Note_off_c, 0, 41, 75
1, 64, Note_off_c, 0, 60, 70
1, 65, Note_off_c, 0, 48, 70
1, 65, Note_off_c, 0, 69, 89
1, 96, Note_on_c, 0, 41, 92
1, 96, Note_on_c, 0, 48, 100
1, 96, Note_on_c, 0, 60, 97
1, 96, Note_on_c, 0, 69, 95
1, 96, Note_on_c, 0, 88, 95
1, 115, Note_off_c, 0, 60, 73
1, 116, Note_off_c, 0, 41, 54
1, 116, Note_off_c, 0, 69, 80
1, 118, Note_off_c, 0, 48, 62
1, 144, Note_on_c, 0, 41, 83
1, 144, Note_on_c, 0, 48, 85
1, 144, Note_on_c, 0, 60, 82
1, 144, Note_on_c, 0, 69, 86
1, 144, Note_on_c, 0, 86, 85
1, 144, Note_off_c, 0, 88, 65
1, 160, Note_off_c, 0, 69, 82
1, 161, Note_off_c, 0, 41, 61
1, 163, Note_off_c, 0, 48, 59
1, 163, Note_off_c, 0, 60, 62
1, 192, Note_on_c, 0, 41, 89
1, 192, Note_on_c, 0, 48, 92
1, 192, Note_on_c, 0, 60, 90
1, 192, Note_on_c, 0, 69, 93
1, 192, Note_off_c, 0, 86, 43
1, 207, Note_off_c, 0, 69, 81
1, 208, Note_off_c, 0, 60, 68
1, 210, Note_off_c, 0, 41, 58
1, 211, Note_off_c, 0, 48, 59
1, 240, Note_on_c, 0, 41, 82
1, 240, Note_on_c, 0, 48, 83
1, 240, Note_on_c, 0, 60, 80
1, 240, Note_on_c, 0, 69, 88
1, 255, Note_off_c, 0, 41, 70
1, 256, Note_off_c, 0, 69, 89
1, 257, Note_off_c, 0, 60, 72
1, 260, Note_off_c, 0, 48, 67
1, 288, Note_on_c, 0, 41, 84
1, 288, Note_on_c, 0, 48, 87
1, 288, Note_on_c, 0, 60, 89
1, 288, Note_on_c, 0, 69, 88
1, 288, Note_on_c, 0, 84, 89
1, 303, Note_off_c, 0, 41, 66
1, 303, Note_off_c, 0, 60, 70
1, 303, Note_off_c, 0, 69, 86
1, 305, Note_off_c, 0, 48, 67
1, 336, Note_on_c, 0, 41, 85
1, 336, Note_on_c, 0, 48, 91
1, 336, Note_on_c, 0, 60, 89
1, 336, Note_on_c, 0, 69, 91
1, 336, Note_on_c, 0, 83, 67
1, 336, Note_off_c, 0, 84, 58
1, 349, Note_off_c, 0, 60, 82
1, 352, Note_off_c, 0, 41, 69
1, 353, Note_off_c, 0, 69, 94
1, 356, Note_off_c, 0, 48, 63
1, 384, Note_off_c, 0, 83, 26
1, 432, Note_on_c, 0, 43, 99
1, 432, Note_on_c, 0, 50, 88
1, 432, Note_on_c, 0, 62, 82
1, 432, Note_on_c, 0, 71, 96
1, 450, Note_off_c, 0, 62, 67
1, 452, Note_off_c, 0, 43, 75
1, 452, Note_off_c, 0, 71, 70
1, 454, Note_off_c, 0, 50, 61
1, 480, Note_on_c, 0, 43, 97
1, 480, Note_on_c, 0, 50, 92
1, 480, Note_on_c, 0, 62, 87
1, 480, Note_on_c, 0, 71, 108
1, 480, Note_on_c, 0, 83, 80
1, 498, Note_off_c, 0, 71, 58
1, 500, Note_off_c, 0, 62, 53
1, 501, Note_off_c, 0, 43, 59
1, 505, Note_off_c, 0, 50, 60
1, 528, Note_on_c, 0, 43, 89
1, 528, Note_on_c, 0, 50, 87
1, 528, Note_on_c, 0, 62, 76
1, 528, Note_on_c, 0, 71, 94
1, 528, Note_off_c, 0, 83, 46
1, 528, Note_on_c, 0, 84, 84
1, 544, Note_off_c, 0, 62, 61
1, 547, Note_off_c, 0, 43, 61
1, 548, Note_off_c, 0, 71, 65
1, 549, Note_off_c, 0, 50, 56
1, 576, Note_on_c, 0, 43, 89
1, 576, Note_on_c, 0, 50, 95
1, 576, Note_on_c, 0, 62, 86
1, 576, Note_on_c, 0, 71, 96
1, 576, Note_off_c, 0, 84, 67
1, 576, Note_on_c, 0, 86, 83
1, 593, Note_off_c, 0, 71, 55
1, 594, Note_off_c, 0, 62, 55
1, 596, Note_off_c, 0, 43, 60
1, 600, Note_off_c, 0, 50, 55
1, 624, Note_on_c, 0, 43, 90
1, 624, Note_on_c, 0, 50, 87
1, 624, Note_on_c, 0, 62, 85
1, 624, Note_on_c, 0, 71, 96
1, 624, Note_on_c, 0, 84, 80
1, 624, Note_off_c, 0, 86, 54
1, 639, Note_off_c, 0, 71, 60
1, 640, Note_off_c, 0, 62, 60
1, 645, Note_off_c, 0, 43, 66
1, 646, Note_off_c, 0, 50, 57
1, 672, Note_on_c, 0, 43, 89
1, 672, Note_on_c, 0, 50, 89
1, 672, Note_on_c, 0, 62, 94
1, 672, Note_on_c, 0, 71, 98
1, 672, Note_on_c, 0, 83, 60
1, 672, Note_off_c, 0, 84, 71
1, 687, Note_off_c, 0, 71, 50
1, 688, Note_off_c, 0, 62, 55
1, 693, Note_off_c, 0, 43, 65
1, 693, Note_off_c, 0, 50, 57
1, 720, Note_on_c, 0, 43, 86
1, 720, Note_on_c, 0, 50, 82
1, 720, Note_on_c, 0, 62, 97
1, 720, Note_on_c, 0, 71, 92
1, 720, Note_on_c, 0, 81, 79
1, 720, Note_off_c, 0, 83, 39
1, 737, Note_off_c, 0, 62, 68
1, 738, Note_off_c, 0, 71, 57
1, 741, Note_off_c, 0, 43, 74
1, 744, Note_off_c, 0, 50, 58
1, 768, Note_on_c, 0, 45, 88
1, 768, Note_on_c, 0, 52, 102
1, 768, Note_on_c, 0, 64, 99
1, 768, Note_on_c, 0, 72, 98
1, 768, Note_off_c, 0, 81, 44
1, 790, Note_off_c, 0, 64, 53
1, 794, Note_off_c, 0, 72, 70
1, 796, Note_off_c, 0, 45, 43
1, 796, Note_off_c, 0, 52, 46
1, 816, Note_on_c, 0, 45, 94
1, 816, Note_on_c, 0, 52, 100
1, 816, Note_on_c, 0, 64, 87
1, 816, Note_on_c, 0, 72, 103
1, 836, Note_off_c, 0, 64, 68
1, 836, Note_off_c, 0, 72, 85
1, 839, Note_off_c, 0, 45, 74
1, 839, Note_off_c, 0, 52, 68
1, 864, Note_on_c, 0, 45, 89
1, 864, Note_on_c, 0, 52, 92
1, 864, Note_on_c, 0, 64, 89
1, 864, Note_on_c, 0, 72, 100
1, 864, Note_on_c, 0, 88, 89
1, 882, Note_off_c, 0, 64, 55
1, 887, Note_off_c, 0, 52, 56
1, 887, Note_off_c, 0, 72, 77
1, 888, Note_off_c, 0, 45, 67
1, 912, Note_on_c, 0, 45, 81
1, 912, Note_on_c, 0, 52, 85
1, 912, Note_on_c, 0, 64, 80
1, 912, Note_on_c, 0, 72, 99
1, 912, Note_on_c, 0, 86, 76
1, 912, Note_off_c, 0, 88, 69
1, 924, Note_off_c, 0, 64, 69
1, 928, Note_off_c, 0, 72, 83
1, 930, Note_off_c, 0, 52, 54
1, 931, Note_off_c, 0, 45, 58
1, 960, Note_on_c, 0, 45, 88
1, 960, Note_on_c, 0, 52, 91
1, 960, Note_on_c, 0, 64, 83
1, 960, Note_on_c, 0, 72, 102
1, 960, Note_off_c, 0, 86, 43
1, 977, Note_off_c, 0, 64, 71
1, 979, Note_off_c, 0, 72, 82
1, 982, Note_off_c, 0, 52, 57
1, 985, Note_off_c, 0, 45, 63
1, 1008, Note_on_c, 0, 45, 86
1, 1008, Note_on_c, 0, 52, 91
1, 1008, Note_on_c, 0, 64, 81
1, 1008, Note_on_c, 0, 72, 98
1, 1024, Note_off_c, 0, 64, 62
1, 1025, Note_off_c, 0, 72, 77
1, 1029, Note_off_c, 0, 45, 49
1, 1031, Note_off_c, 0, 52, 50
1, 1056, Note_on_c, 0, 45, 82
1, 1056, Note_on_c, 0, 52, 88
1, 1056, Note_on_c, 0, 64, 82
1, 1056, Note_on_c, 0, 72, 98
1, 1056, Note_on_c, 0, 84, 73
1, 1071, Note_off_c, 0, 64, 67
1, 1074, Note_off_c, 0, 52, 55
1, 1075, Note_off_c, 0, 72, 77
1, 1077, Note_off_c, 0, 45, 57
1, 1104, Note_on_c, 0, 45, 89
1, 1104, Note_on_c, 0, 52, 93
1, 1104, Note_on_c, 0, 64, 71
1, 1104, Note_on_c, 0, 72, 97
1, 1104, Note_on_c, 0, 83, 74
1, 1104, Note_off_c, 0, 84, 60
1, 1117, Note_off_c, 0, 64, 74
1, 1122, Note_off_c, 0, 72, 90
1, 1123, Note_off_c, 0, 52, 58
1, 1125, Note_off_c, 0, 45, 64
1, 1152, Note_off_c, 0, 83, 27
1, 1200, Note_on_c, 0, 45, 89
1, 1200, Note_on_c, 0, 52, 89
1, 1200, Note_on_c, 0, 64, 75
1, 1200, Note_on_c, 0, 72, 92
1, 1217, Note_off_c, 0, 64, 75
1, 1221, Note_off_c, 0, 72, 89
1, 1222, Note_off_c, 0, 45, 63
1, 1222, Note_off_c, 0, 52, 60
1, 1248, Note_on_c, 0, 45, 88
1, 1248, Note_on_c, 0, 52, 95
1, 1248, Note_on_c, 0, 64, 86
1, 1248, Note_on_c, 0, 72, 95
1, 1248, Note_on_c, 0, 83, 61
1, 1265, Note_off_c, 0, 64, 68
1, 1270, Note_off_c, 0, 72, 59
1, 1271, Note_off_c, 0, 45, 57
1, 1272, Note_off_c, 0, 52, 56
1, 1296, Note_on_c, 0, 45, 81
1, 1296, Note_on_c, 0, 52, 92
1, 1296, Note_on_c, 0, 64, 80
1, 1296, Note_on_c, 0, 72, 98
1, 1296, Note_off_c, 0, 83, 49
1, 1296, Note_on_c, 0, 84, 76
1, 1311, Note_off_c, 0, 64, 72
1, 1315, Note_off_c, 0, 52, 67
1, 1315, Note_off_c, 0, 72, 72
1, 1320, Note_off_c, 0, 45, 70
1, 1344, Note_on_c, 0, 43, 87
1, 1344, Note_on_c, 0, 50, 77
1, 1344, Note_on_c, 0, 62, 86
1, 1344, Note_on_c, 0, 71, 94
1, 1344, Note_off_c, 0, 84, 73
1, 1344, Note_on_c, 0, 86, 76
1, 1362, Note_off_c, 0, 62, 48
1, 1363, Note_off_c, 0, 71, 61
1, 1365, Note_off_c, 0, 43, 58
1, 1370, Note_off_c, 0, 50, 50
1, 1392, Note_on_c, 0, 43, 86
1, 1392, Note_on_c, 0, 50, 80
1, 1392, Note_on_c, 0, 62, 73
1, 1392, Note_on_c, 0, 71, 89
1, 1392, Note_off_c, 0, 86, 56
1, 1392, Note_on_c, 0, 88, 79
1, 1414, Note_off_c, 0, 71, 59
1, 1415, Note_off_c, 0, 62, 63
1, 1417, Note_off_c, 0, 43, 59
1, 1417, Note_off_c, 0, 50, 49
1, 1440, Note_on_c, 0, 43, 89
1, 1440, Note_on_c, 0, 50, 85
1, 1440, Note_on_c, 0, 62, 80
1, 1440, Note_on_c, 0, 71, 91
1, 1440, Note_on_c, 0, 79, 93
1, 1440, Note_off_c, 0, 88, 76
1, 1457, Note_off_c, 0, 62, 57
1, 1461, Note_off_c, 0, 71, 60
1, 1462, Note_off_c, 0, 43, 68
1, 1463, Note_off_c, 0, 50, 58
1, 1488, Note_on_c, 0, 43, 82
1, 1488, Note_on_c, 0, 50, 79
1, 1488, Note_on_c, 0, 62, 77
1, 1488, Note_on_c, 0, 71, 91
1, 1488, Note_off_c, 0, 79, 55
1, 1488, Note_on_c, 0, 81, 95
1, 1502, Note_off_c, 0, 62, 65
1, 1504, Note_off_c, 0, 50, 74
1, 1504, Note_off_c, 0, 71, 72
1, 1510, Note_off_c, 0, 43, 67
1, 1536, Note_off_c, 0, 81, 91
1, 0, Note_on_c, 0, 33, 88
1, 0, Note_on_c, 0, 40, 59
1, 0, Note_on_c, 0, 48, 59
1, 0, Note_on_c, 0, 60, 40
1, 96, Note_on_c, 0, 59, 40
1, 192, Note_off_c, 0, 48, 64
1, 192, Note_on_c, 0, 48, 83
1, 192, Note_off_c, 0, 60, 64
1, 192, Note_on_c, 0, 67, 40
1, 200, Note_on_c, 0, 76, 55
1, 288, Note_on_c, 0, 52, 75
1, 288, Note_off_c, 0, 59, 64
1, 288, Note_on_c, 0, 65, 40
1, 288, Note_off_c, 0, 67, 64
1, 384, Note_on_c, 0, 31, 88
1, 384, Note_off_c, 0, 33, 64
1, 384, Note_on_c, 0, 38, 88
1, 384, Note_off_c, 0, 40, 64
1, 384, Note_off_c, 0, 48, 64
1, 384, Note_off_c, 0, 52, 64
1, 384, Note_on_c, 0, 52, 77
1, 384, Note_on_c, 0, 55, 76
1, 384, Note_on_c, 0, 60, 40
1, 384, Note_off_c, 0, 65, 64
1, 384, Note_on_c, 0, 67, 39
1, 434, Note_off_c, 0, 76, 64
1, 480, Note_on_c, 0, 59, 40
1, 574, Note_off_c, 0, 52, 64
1, 576, Note_on_c, 0, 52, 91
1, 576, Note_off_c, 0, 55, 64
1, 576, Note_on_c, 0, 55, 40
1, 576, Note_off_c, 0, 60, 64
1, 576, Note_off_c, 0, 67, 64
1, 576, Note_on_c, 0, 72, 58
1, 672, Note_on_c, 0, 48, 79
1, 672, Note_off_c, 0, 52, 64
1, 672, Note_on_c, 0, 53, 90
1, 672, Note_off_c, 0, 55, 64
1, 672, Note_off_c, 0, 59, 64
1, 672, Note_on_c, 0, 65, 40
1, 672, Note_off_c, 0, 72, 64
1, 672, Note_on_c, 0, 74, 58
1, 768, Note_on_c, 0, 29, 88
1, 768, Note_off_c, 0, 31, 64
1, 768, Note_on_c, 0, 36, 59
1, 768, Note_off_c, 0, 38, 64
1, 768, Note_on_c, 0, 45, 88
1, 768, Note_on_c, 0, 60, 40
1, 768, Note_off_c, 0, 65, 64
1, 768, Note_on_c, 0, 72, 58
1, 768, Note_off_c, 0, 74, 64
1, 864, Note_on_c, 0, 59, 40
1, 960, Note_off_c, 0, 48, 64
1, 960, Note_on_c, 0, 52, 64
1, 960, Note_off_c, 0, 53, 64
1, 960, Note_off_c, 0, 60, 64
1, 960, Note_on_c, 0, 67, 40
1, 960, Note_off_c, 0, 72, 64
1, 968, Note_on_c, 0, 76, 55
1, 1025, Note_off_c, 0, 76, 64
1, 1056, Note_on_c, 0, 48, 77
1, 1056, Note_off_c, 0, 59, 64
1, 1056, Note_on_c, 0, 65, 40
1, 1056, Note_off_c, 0, 67, 64
1, 1064, Note_off_c, 0, 52, 64
1, 1145, Note_off_c, 0, 48, 64
1, 1152, Note_off_c, 0, 29, 64
1, 1152, Note_on_c, 0, 31, 88
1, 1152, Note_off_c, 0, 36, 64
1, 1152, Note_on_c, 0, 41, 88
1, 1152, Note_off_c, 0, 45, 64
1, 1152, Note_on_c, 0, 50, 83
1, 1152, Note_on_c, 0, 53, 75
1, 1152, Note_on_c, 0, 60, 40
1, 1152, Note_off_c, 0, 65, 64
1, 1152, Note_on_c, 0, 67, 39
1, 1215, Note_off_c, 0, 67, 64
1, 1245, Note_off_c, 0, 53, 64
1, 1248, Note_on_c, 0, 52, 75
1, 1248, Note_on_c, 0, 59, 40
1, 1344, Note_off_c, 0, 50, 64
1, 1344, Note_on_c, 0, 50, 83
1, 1344, Note_on_c, 0, 55, 40
1, 1344, Note_off_c, 0, 60, 64
1, 1344, Note_on_c, 0, 76, 52
1, 1346, Note_off_c, 0, 52, 64
1, 1407, Note_off_c, 0, 76, 64
1, 1440, Note_on_c, 0, 48, 77
1, 1440, Note_on_c, 0, 53, 40
1, 1440, Note_off_c, 0, 55, 64
1, 1440, Note_off_c, 0, 59, 64
1, 1440, Note_on_c, 0, 72, 52
1, 1453, Note_off_c, 0, 50, 64
1, 1503, Note_off_c, 0, 72, 64
1, 1536, Note_off_c, 0, 31, 64
1, 1536, Note_on_c, 0, 33, 88
1, 1536, Note_on_c, 0, 40, 59
1, 1536, Note_off_c, 0, 41, 64
1, 1536, Note_off_c, 0, 48, 64
1, 1536, Note_on_c, 0, 48, 59
1, 1536, Note_off_c, 0, 53, 64
1, 1536, Note_on_c, 0, 60, 40
1, 1632, Note_on_c, 0, 59, 40
1, 1728, Note_off_c, 0, 48, 64
1, 1728, Note_on_c, 0, 48, 83
1, 1728, Note_off_c, 0, 60, 64
1, 1728, Note_on_c, 0, 67, 40
1, 1824, Note_on_c, 0, 52, 75
1, 1824, Note_off_c, 0, 59, 64
1, 1824, Note_on_c, 0, 65, 40
1, 1824, Note_off_c, 0, 67, 64
1, 1920, Note_on_c, 0, 31, 88
1, 1920, Note_off_c, 0, 33, 64
1, 1920, Note_on_c, 0, 38, 88
1, 1920, Note_off_c, 0, 40, 64
1, 1920, Note_off_c, 0, 48, 64
1, 1920, Note_off_c, 0, 52, 64
1, 1920, Note_on_c, 0, 52, 77
1, 1920, Note_on_c, 0, 55, 76
1, 1920, Note_on_c, 0, 60, 40
1, 1920, Note_off_c, 0, 65, 64
1, 2016, Note_on_c, 0, 59, 40
1, 2110, Note_off_c, 0, 52, 64
1, 2112, Note_on_c, 0, 52, 91
1, 2112, Note_off_c, 0, 55, 64
1, 2112, Note_on_c, 0, 55, 40
1, 2112, Note_off_c, 0, 60, 64
1, 2208, Note_on_c, 0, 48, 79
1, 2208, Note_off_c, 0, 52, 64
1, 2208, Note_on_c, 0, 53, 90
1, 2208, Note_off_c, 0, 55, 64
1, 2208, Note_off_c, 0, 59, 64
1, 2208, Note_on_c, 0, 65, 40
1, 2304, Note_on_c, 0, 29, 88
1, 2304, Note_off_c, 0, 31, 64
1, 2304, Note_on_c, 0, 36, 59
1, 2304, Note_off_c, 0, 38, 64
1, 2304, Note_on_c, 0, 45, 88
1, 2304, Note_on_c, 0, 60, 40
1, 2304, Note_off_c, 0, 65, 64
1, 2400, Note_on_c, 0, 59, 40
1, 2496, Note_off_c, 0, 48, 64
1, 2496, Note_on_c, 0, 52, 64
1, 2496, Note_off_c, 0, 53, 64
1, 2496, Note_off_c, 0, 60, 64
1, 2496, Note_on_c, 0, 67, 40
1, 2592, Note_on_c, 0, 48, 77
1, 2592, Note_off_c, 0, 59, 64
1, 2592, Note_on_c, 0, 65, 40
1, 2592, Note_off_c, 0, 67, 64
1, 2600, Note_off_c, 0, 52, 64
1, 2681, Note_off_c, 0, 48, 64
1, 2688, Note_off_c, 0, 29, 64
1, 2688, Note_on_c, 0, 31, 88
1, 2688, Note_off_c, 0, 36, 64
1, 2688, Note_on_c, 0, 41, 88
1, 2688, Note_off_c, 0, 45, 64
1, 2688, Note_on_c, 0, 50, 83
1, 2688, Note_on_c, 0, 53, 75
1, 2688, Note_on_c, 0, 60, 40
1, 2688, Note_off_c, 0, 65, 64
1, 2781, Note_off_c, 0, 53, 64
1, 2784, Note_on_c, 0, 52, 75
1, 2784, Note_on_c, 0, 59, 40
1, 2880, Note_off_c, 0, 50, 64
1, 2880, Note_on_c, 0, 50, 83
1, 2880, Note_on_c, 0, 55, 40
1, 2880, Note_off_c, 0, 60, 64
1, 2882, Note_off_c, 0, 52, 64
1, 2976, Note_on_c, 0, 48, 77
1, 2976, Note_on_c, 0, 53, 40
1, 2976, Note_off_c, 0, 55, 64
1, 2976, Note_off_c, 0, 59, 64
1, 2989, Note_off_c, 0, 50, 64
1, 3072, Note_off_c, 0, 31, 64
1, 3072, Note_off_c, 0, 41, 64
1, 3072, Note_off_c, 0, 48, 64
1, 3072, Note_off_c, 0, 53, 64
1, 0, Note_on_c, 0, 41, 64
1, 0, Note_on_c, 0, 53, 64
1, 0, Note_on_c, 0, 57, 64
1, 0, Note_on_c, 0, 60, 64
1, 0, Note_on_c, 0, 64, 64
1, 24, Note_off_c, 0, 41, 0
1, 24, Note_off_c, 0, 53, 0
1, 24, Note_off_c, 0, 57, 0
1, 24, Note_off_c, 0, 60, 0
1, 24, Note_off_c, 0, 64, 0
1, 72, Note_on_c, 0, 41, 64
1, 72, Note_on_c, 0, 53, 64
1, 72, Note_on_c, 0, 57, 64
1, 72, Note_on_c, 0, 60, 64
1, 72, Note_on_c, 0, 64, 64
1, 96, Note_off_c, 0, 41, 0
1, 96, Note_off_c, 0, 53, 0
1, 96, Note_off_c, 0, 57, 0
1, 96, Note_off_c, 0, 60, 0
1, 96, Note_off_c, 0, 64, 0
1, 96, Note_on_c, 0, 67, 64
1, 110, Note_off_c, 0, 67, 0
1, 144, Note_on_c, 0, 64, 64
1, 167, Note_off_c, 0, 64, 0
1, 192, Note_on_c, 0, 43, 64
1, 192, Note_on_c, 0, 55, 64
1, 192, Note_on_c, 0, 59, 64
1, 192, Note_on_c, 0, 62, 64
1, 214, Note_off_c, 0, 62, 0
1, 216, Note_off_c, 0, 43, 0
1, 216, Note_off_c, 0, 55, 0
1, 216, Note_off_c, 0, 59, 0
1, 240, Note_on_c, 0, 64, 64
1, 264, Note_on_c, 0, 43, 64
1, 264, Note_on_c, 0, 53, 64
1, 264, Note_on_c, 0, 55, 64
1, 264, Note_on_c, 0, 59, 64
1, 264, Note_on_c, 0, 62, 64
1, 268, Note_off_c, 0, 64, 0
1, 288, Note_off_c, 0, 43, 0
1, 288, Note_off_c, 0, 53, 0
1, 288, Note_off_c, 0, 55, 0
1, 288, Note_off_c, 0, 59, 0
1, 288, Note_off_c, 0, 62, 0
1, 336, Note_on_c, 0, 43, 64
1, 336, Note_on_c, 0, 53, 64
1, 336, Note_on_c, 0, 55, 64
1, 336, Note_on_c, 0, 60, 64
1, 360, Note_off_c, 0, 43, 0
1, 360, Note_off_c, 0, 53, 0
1, 360, Note_off_c, 0, 55, 0
1, 360, Note_off_c, 0, 60, 0
1, 384, Note_on_c, 0, 36, 64
1, 384, Note_on_c, 0, 48, 64
1, 384, Note_on_c, 0, 50, 64
1, 384, Note_on_c, 0, 52, 64
1, 384, Note_on_c, 0, 55, 64
1, 384, Note_on_c, 0, 59, 64
1, 408, Note_off_c, 0, 36, 0
1, 408, Note_off_c, 0, 48, 0
1, 408, Note_off_c, 0, 50, 0
1, 408, Note_off_c, 0, 52, 0
1, 408, Note_off_c, 0, 55, 0
1, 408, Note_off_c, 0, 59, 0
1, 456, Note_on_c, 0, 36, 64
1, 456, Note_on_c, 0, 48, 64
1, 456, Note_on_c, 0, 52, 64
1, 456, Note_on_c, 0, 55, 64
1, 456, Note_on_c, 0, 59, 64
1, 480, Note_off_c, 0, 36, 0
1, 480, Note_off_c, 0, 48, 0
1, 480, Note_off_c, 0, 52, 0
1, 480, Note_off_c, 0, 55, 0
1, 480, Note_off_c, 0, 59, 0
1, 480, Note_on_c, 0, 67, 64
1, 500, Note_off_c, 0, 67, 0
1, 528, Note_on_c, 0, 64, 64
1, 555, Note_off_c, 0, 64, 0
1, 576, Note_on_c, 0, 33, 64
1, 576, Note_on_c, 0, 45, 64
1, 576, Note_on_c, 0, 48, 64
1, 576, Note_on_c, 0, 52, 64
1, 576, Note_on_c, 0, 55, 64
1, 576, Note_on_c, 0, 62, 64
1, 600, Note_off_c, 0, 33, 0
1, 600, Note_off_c, 0, 45, 0
1, 600, Note_off_c, 0, 48, 0
1, 600, Note_off_c, 0, 52, 0
1, 600, Note_off_c, 0, 55, 0
1, 604, Note_off_c, 0, 62, 0
1, 624, Note_on_c, 0, 64, 64
1, 637, Note_off_c, 0, 64, 0
1, 648, Note_on_c, 0, 33, 64
1, 648, Note_on_c, 0, 45, 64
1, 648, Note_on_c, 0, 48, 64
1, 648, Note_on_c, 0, 52, 64
1, 648, Note_on_c, 0, 55, 64
1, 672, Note_off_c, 0, 33, 0
1, 672, Note_off_c, 0, 45, 0
1, 672, Note_off_c, 0, 48, 0
1, 672, Note_off_c, 0, 52, 0
1, 672, Note_off_c, 0, 55, 0
1, 672, Note_on_c, 0, 60, 64
1, 672, Note_on_c, 0, 62, 64
1, 673, Note_off_c, 0, 60, 0
1, 704, Note_off_c, 0, 62, 0
1, 720, Note_on_c, 0, 33, 64
1, 720, Note_on_c, 0, 45, 64
1, 720, Note_on_c, 0, 48, 64
1, 720, Note_on_c, 0, 52, 64
1, 720, Note_on_c, 0, 57, 64
1, 720, Note_on_c, 0, 60, 64
1, 744, Note_off_c, 0, 33, 0
1, 744, Note_off_c, 0, 45, 0
1, 744, Note_off_c, 0, 48, 0
1, 744, Note_off_c, 0, 52, 0
1, 744, Note_off_c, 0, 57, 0
1, 747, Note_off_c, 0, 60, 0
1, 768, Note_on_c, 0, 41, 64
1, 768, Note_on_c, 0, 53, 64
1, 768, Note_on_c, 0, 57, 64
1, 768, Note_on_c, 0, 60, 64
1, 768, Note_on_c, 0, 64, 64
1, 792, Note_off_c, 0, 41, 0
1, 792, Note_off_c, 0, 53, 0
1, 792, Note_off_c, 0, 57, 0
1, 792, Note_off_c, 0, 60, 0
1, 792, Note_off_c, 0, 64, 0
1, 840, Note_on_c, 0, 41, 64
1, 840, Note_on_c, 0, 53, 64
1, 840, Note_on_c, 0, 57, 64
1, 840, Note_on_c, 0, 60, 64
1, 840, Note_on_c, 0, 64, 64
1, 864, Note_off_c, 0, 41, 0
1, 864, Note_off_c, 0, 53, 0
1, 864, Note_off_c, 0, 57, 0
1, 864, Note_off_c, 0, 60, 0
1, 864, Note_off_c, 0, 64, 0
1, 864, Note_on_c, 0, 67, 64
1, 880, Note_off_c, 0, 67, 0
1, 912, Note_on_c, 0, 64, 64
1, 937, Note_off_c, 0, 64, 0
1, 960, Note_on_c, 0, 43, 64
1, 960, Note_on_c, 0, 53, 64
1, 960, Note_on_c, 0, 55, 64
1, 960, Note_on_c, 0, 59, 64
1, 960, Note_on_c, 0, 62, 64
1, 984, Note_off_c, 0, 43, 0
1, 984, Note_off_c, 0, 53, 0
1, 984, Note_off_c, 0, 55, 0
1, 984, Note_off_c, 0, 59, 0
1, 984, Note_off_c, 0, 62, 0
1, 1008, Note_on_c, 0, 64, 64
1, 1032, Note_on_c, 0, 43, 64
1, 1032, Note_on_c, 0, 53, 64
1, 1032, Note_on_c, 0, 55, 64
1, 1032, Note_on_c, 0, 59, 64
1, 1032, Note_on_c, 0, 62, 64
1, 1038, Note_off_c, 0, 64, 0
1, 1056, Note_off_c, 0, 43, 0
1, 1056, Note_off_c, 0, 53, 0
1, 1056, Note_off_c, 0, 55, 0
1, 1056, Note_off_c, 0, 59, 0
1, 1056, Note_off_c, 0, 62, 0
1, 1104, Note_on_c, 0, 53, 64
1, 1104, Note_on_c, 0, 55, 64
1, 1104, Note_on_c, 0, 60, 64
1, 1104, Note_on_c, 0, 69, 64
1, 1128, Note_off_c, 0, 53, 0
1, 1128, Note_off_c, 0, 55, 0
1, 1128, Note_off_c, 0, 60, 0
1, 1129, Note_off_c, 0, 69, 0
1, 1152, Note_on_c, 0, 36, 64
1, 1152, Note_on_c, 0, 48, 64
1, 1152, Note_on_c, 0, 52, 64
1, 1152, Note_on_c, 0, 55, 64
1, 1152, Note_on_c, 0, 59, 64
1, 1152, Note_on_c, 0, 69, 64
1, 1152, Note_on_c, 0, 71, 64
1, 1154, Note_off_c, 0, 69, 0
1, 1174, Note_off_c, 0, 71, 0
1, 1175, Note_off_c, 0, 55, 0
1, 1176, Note_off_c, 0, 36, 0
1, 1176, Note_off_c, 0, 48, 0
1, 1176, Note_off_c, 0, 52, 0
1, 1176, Note_off_c, 0, 59, 0
1, 1224, Note_on_c, 0, 36, 64
1, 1224, Note_on_c, 0, 48, 64
1, 1224, Note_on_c, 0, 52, 64
1, 1224, Note_on_c, 0, 55, 64
1, 1224, Note_on_c, 0, 59, 64
1, 1248, Note_off_c, 0, 36, 0
1, 1248, Note_off_c, 0, 48, 0
1, 1248, Note_off_c, 0, 52, 0
1, 1248, Note_off_c, 0, 55, 0
1, 1248, Note_off_c, 0, 59, 0
1, 1248, Note_on_c, 0, 69, 64
1, 1272, Note_off_c, 0, 69, 0
1, 1344, Note_on_c, 0, 36, 64
1, 1344, Note_on_c, 0, 48, 64
1, 1344, Note_on_c, 0, 50, 64
1, 1344, Note_on_c, 0, 55, 64
1, 1344, Note_on_c, 0, 58, 64
1, 1344, Note_on_c, 0, 67, 64
1, 1344, Note_on_c, 0, 69, 64
1, 1346, Note_off_c, 0, 67, 0
1, 1367, Note_off_c, 0, 36, 0
1, 1367, Note_off_c, 0, 50, 0
1, 1367, Note_off_c, 0, 55, 0
1, 1368, Note_off_c, 0, 48, 0
1, 1368, Note_off_c, 0, 58, 0
1, 1369, Note_off_c, 0, 69, 0
1, 1416, Note_on_c, 0, 36, 64
1, 1416, Note_on_c, 0, 48, 64
1, 1416, Note_on_c, 0, 50, 64
1, 1416, Note_on_c, 0, 55, 64
1, 1416, Note_on_c, 0, 58, 64
1, 1440, Note_off_c, 0, 36, 0
1, 1440, Note_off_c, 0, 48, 0
1, 1440, Note_off_c, 0, 50, 0
1, 1440, Note_off_c, 0, 55, 0
1, 1440, Note_off_c, 0, 58, 0
1, 1440, Note_on_c, 0, 67, 64
1, 1462, Note_off_c, 0, 67, 0
1, 1488, Note_on_c, 0, 36, 64
1, 1488, Note_on_c, 0, 48, 64
1, 1488, Note_on_c, 0, 50, 64
1, 1488, Note_on_c, 0, 55, 64
1, 1488, Note_on_c, 0, 60, 64
1, 1488, Note_on_c, 0, 64, 64
1, 1512, Note_off_c, 0, 36, 0
1, 1512, Note_off_c, 0, 48, 0
1, 1512, Note_off_c, 0, 50, 0
1, 1512, Note_off_c, 0, 55, 0
1, 1512, Note_off_c, 0, 60, 0
1, 1533, Note_off_c, 0, 64, 0
1, 0, Note_on_c, 0, 45, 56
1, 0, Note_on_c, 0, 59, 43
1, 0, Note_on_c, 0, 60, 59
1, 0, Note_on_c, 0, 64, 69
1, 0, Note_on_c, 0, 67, 67
1, 374, Note_off_c, 0, 59, 0
1, 374, Note_off_c, 0, 60, 0
1, 374, Note_off_c, 0, 64, 0
1, 374, Note_off_c, 0, 67, 0
1, 375, Note_off_c, 0, 45, 0
1, 384, Note_on_c, 0, 52, 46
1, 384, Note_on_c, 0, 62, 56
1, 384, Note_on_c, 0, 64, 56
1, 384, Note_on_c, 0, 66, 67
1, 384, Note_on_c, 0, 67, 18
1, 384, Note_on_c, 0, 71, 67
1, 750, Note_off_c, 0, 67, 0
1, 751, Note_off_c, 0, 52, 0
1, 751, Note_off_c, 0, 64, 0
1, 753, Note_off_c, 0, 62, 0
1, 753, Note_off_c, 0, 66, 0
1, 753, Note_off_c, 0, 71, 0
1, 768, Note_on_c, 0, 49, 55
1, 768, Note_on_c, 0, 59, 45
1, 768, Note_on_c, 0, 61, 47
1, 768, Note_on_c, 0, 63, 52
1, 768, Note_on_c, 0, 64, 60
1, 768, Note_on_c, 0, 68, 60
1, 1152, Note_on_c, 0, 48, 51
1, 1152, Note_off_c, 0, 59, 0
1, 1152, Note_on_c, 0, 59, 44
1, 1152, Note_on_c, 0, 60, 61
1, 1152, Note_off_c, 0, 61, 0
1, 1152, Note_off_c, 0, 64, 0
1, 1152, Note_on_c, 0, 64, 76
1, 1152, Note_on_c, 0, 67, 64
1, 1153, Note_off_c, 0, 63, 0
1, 1153, Note_off_c, 0, 68, 0
1, 1155, Note_off_c, 0, 49, 0
1, 1339, Note_off_c, 0, 59, 0
1, 1339, Note_off_c, 0, 60, 0
1, 1344, Note_on_c, 0, 59, 30
1, 1344, Note_on_c, 0, 60, 55
1, 1344, Note_on_c, 0, 62, 58
1, 1535, Note_off_c, 0, 48, 0
1, 1535, Note_off_c, 0, 64, 0
1, 1535, Note_off_c, 0, 67, 0
1, 1536, Note_on_c, 0, 45, 58
1, 1536, Note_off_c, 0, 59, 0
1, 1536, Note_on_c, 0, 59, 50
1, 1536, Note_off_c, 0, 60, 0
1, 1536, Note_on_c, 0, 60, 57
1, 1536, Note_on_c, 0, 64, 58
1, 1536, Note_on_c, 0, 67, 1
1, 1536, Note_on_c, 0, 71, 66
1, 1539, Note_off_c, 0, 62, 0
1, 1906, Note_off_c, 0, 67, 0
1, 1915, Note_off_c, 0, 59, 0
1, 1916, Note_off_c, 0, 45, 0
1, 1916, Note_off_c, 0, 60, 0
1, 1916, Note_off_c, 0, 64, 0
1, 1916, Note_off_c, 0, 71, 0
1, 1920, Note_on_c, 0, 52, 36
1, 1920, Note_on_c, 0, 64, 26
1, 1920, Note_on_c, 0, 66, 50
1, 1920, Note_on_c, 0, 67, 60
1, 1920, Note_on_c, 0, 71, 71
1, 1920, Note_on_c, 0, 74, 58
1, 2303, Note_off_c, 0, 64, 0
1, 2304, Note_on_c, 0, 49, 36
1, 2304, Note_on_c, 0, 63, 42
1, 2304, Note_on_c, 0, 64, 34
1, 2304, Note_on_c, 0, 68, 44
1, 2304, Note_off_c, 0, 71, 0
1, 2304, Note_on_c, 0, 71, 45
1, 2304, Note_on_c, 0, 75, 45
1, 2305, Note_off_c, 0, 74, 0
1, 2306, Note_off_c, 0, 67, 0
1, 2307, Note_off_c, 0, 66, 0
1, 2311, Note_off_c, 0, 52, 0
1, 2677, Note_off_c, 0, 64, 0
1, 2677, Note_off_c, 0, 71, 0
1, 2678, Note_off_c, 0, 63, 0
1, 2678, Note_off_c, 0, 75, 0
1, 2679, Note_off_c, 0, 49, 0
1, 2679, Note_off_c, 0, 68, 0
1, 2688, Note_on_c, 0, 48, 45
1, 2688, Note_on_c, 0, 62, 41
1, 2688, Note_on_c, 0, 64, 48
1, 2688, Note_on_c, 0, 67, 49
1, 2688, Note_on_c, 0, 71, 52
1, 2688, Note_on_c, 0, 74, 24
1, 3067, Note_off_c, 0, 64, 0
1, 3067, Note_off_c, 0, 67, 0
1, 3067, Note_off_c, 0, 74, 0
1, 3069, Note_off_c, 0, 48, 0
1, 3069, Note_off_c, 0, 62, 0
1, 3069, Note_off_c, 0, 71, 0
1, 0, Note_on_c, 0, 45, 56
1, 0, Note_on_c, 0, 59, 43
1, 0, Note_on_c, 0, 60, 59
1, 0, Note_on_c, 0, 64, 69
1, 0, Note_on_c, 0, 67, 67
1, 374, Note_off_c, 0, 59, 0
1, 374, Note_off_c, 0, 60, 0
1, 374, Note_off_c, 0, 64, 0
1, 374, Note_off_c, 0, 67, 0
1, 375, Note_off_c, 0, 45, 0
1, 384, Note_on_c, 0, 52, 46
1, 384, Note_on_c, 0, 62, 56
1, 384, Note_on_c, 0, 64, 56
1, 384, Note_on_c, 0, 66, 67
1, 384, Note_on_c, 0, 67, 18
1, 384, Note_on_c, 0, 71, 67
1, 750, Note_off_c, 0, 67, 0
1, 751, Note_off_c, 0, 52, 0
1, 751, Note_off_c, 0, 64, 0
1, 753, Note_off_c, 0, 62, 0
1, 753, Note_off_c, 0, 66, 0
1, 753, Note_off_c, 0, 71, 0
1, 768, Note_on_c, 0, 49, 55
1, 768, Note_on_c, 0, 59, 45
1, 768, Note_on_c, 0, 61, 47
1, 768, Note_on_c, 0, 63, 52
1, 768, Note_on_c, 0, 64, 60
1, 768, Note_on_c, 0, 68, 60
1, 1152, Note_on_c, 0, 48, 51
1, 1152, Note_off_c, 0, 59, 0
1, 1152, Note_on_c, 0, 59, 44
1, 1152, Note_on_c, 0, 60, 61
1, 1152, Note_off_c, 0, 61, 0
1, 1152, Note_off_c, 0, 64, 0
1, 1152, Note_on_c, 0, 64, 76
1, 1152, Note_on_c, 0, 67, 64
1, 1153, Note_off_c, 0, 63, 0
1, 1153, Note_off_c, 0, 68, 0
1, 1155, Note_off_c, 0, 49, 0
1, 1339, Note_off_c, 0, 59, 0
1, 1339, Note_off_c, 0, 60, 0
1, 1344, Note_on_c, 0, 59, 30
1, 1344, Note_on_c, 0, 60, 55
1, 1344, Note_on_c, 0, 62, 58
1, 1535, Note_off_c, 0, 48, 0
1, 1535, Note_off_c, 0, 64, 0
1, 1535, Note_off_c, 0, 67, 0
1, 1536, Note_on_c, 0, 45, 58
1, 1536, Note_off_c, 0, 59, 0
1, 1536, Note_on_c, 0, 59, 50
1, 1536, Note_off_c, 0, 60, 0
1, 1536, Note_on_c, 0, 60, 57
1, 1536, Note_on_c, 0, 64, 58
1, 1536, Note_on_c, 0, 67, 1
1, 1536, Note_on_c, 0, 71, 66
1, 1539, Note_off_c, 0, 62, 0
1, 1906, Note_off_c, 0, 67, 0
1, 1915, Note_off_c, 0, 59, 0
1, 1916, Note_off_c, 0, 45, 0
1, 1916, Note_off_c, 0, 60, 0
1, 1916, Note_off_c, 0, 64, 0
1, 1916, Note_off_c, 0, 71, 0
1, 1920, Note_on_c, 0, 52, 36
1, 1920, Note_on_c, 0, 64, 26
1, 1920, Note_on_c, 0, 66, 50
1, 1920, Note_on_c, 0, 67, 60
1, 1920, Note_on_c, 0, 71, 71
1, 1920, Note_on_c, 0, 74, 58
1, 2303, Note_off_c, 0, 64, 0
1, 2304, Note_on_c, 0, 49, 36
1, 2304, Note_on_c, 0, 63, 42
1, 2304, Note_on_c, 0, 64, 34
1, 2304, Note_on_c, 0, 68, 44
1, 2304, Note_off_c, 0, 71, 0
1, 2304, Note_on_c, 0, 71, 45
1, 2304, Note_on_c, 0, 75, 45
1, 2305, Note_off_c, 0, 74, 0
1, 2306, Note_off_c, 0, 67, 0
1, 2307, Note_off_c, 0, 66, 0
1, 2311, Note_off_c, 0, 52, 0
1, 2677, Note_off_c, 0, 64, 0
1, 2677, Note_off_c, 0, 71, 0
1, 2678, Note_off_c, 0, 63, 0
1, 2678, Note_off_c, 0, 75, 0
1, 2679, Note_off_c, 0, 49, 0
1, 2679, Note_off_c, 0, 68, 0
1, 2688, Note_on_c, 0, 48, 45
1, 2688, Note_on_c, 0, 62, 41
1, 2688, Note_on_c, 0, 64, 48
1, 2688, Note_on_c, 0, 67, 49
1, 2688, Note_on_c, 0, 71, 52
1, 2688, Note_on_c, 0, 74, 24
1, 3067, Note_off_c, 0, 64, 0
1, 3067, Note_off_c, 0, 67, 0
1, 3067, Note_off_c, 0, 74, 0
1, 3069, Note_off_c, 0, 48, 0
1, 3069, Note_off_c, 0, 62, 0
1, 3069, Note_off_c, 0, 71, 0
1, 0, Note_on_c, 0, 53, 72
1, 0, Note_on_c, 0, 57, 72
1, 0, Note_on_c, 0, 60, 72
1, 0, Note_on_c, 0, 64, 72
1, 0, Note_on_c, 0, 67, 72
1, 96, Note_on_c, 0, 84, 72
1, 139, Note_off_c, 0, 84, 0
1, 144, Note_on_c, 0, 83, 72
1, 288, Note_on_c, 0, 79, 72
1, 288, Note_off_c, 0, 83, 0
1, 335, Note_off_c, 0, 79, 0
1, 336, Note_on_c, 0, 76, 72
1, 432, Note_off_c, 0, 76, 0
1, 480, Note_on_c, 0, 74, 72
1, 528, Note_off_c, 0, 74, 0
1, 528, Note_on_c, 0, 76, 72
1, 624, Note_off_c, 0, 76, 0
1, 665, Note_off_c, 0, 67, 0
1, 666, Note_off_c, 0, 64, 0
1, 667, Note_off_c, 0, 53, 0
1, 667, Note_off_c, 0, 57, 0
1, 670, Note_off_c, 0, 60, 0
1, 672, Note_on_c, 0, 55, 72
1, 672, Note_on_c, 0, 59, 72
1, 672, Note_on_c, 0, 62, 72
1, 672, Note_on_c, 0, 67, 72
1, 672, Note_on_c, 0, 79, 72
1, 720, Note_on_c, 0, 76, 72
1, 720, Note_off_c, 0, 79, 0
1, 753, Note_off_c, 0, 59, 0
1, 754, Note_off_c, 0, 62, 0
1, 755, Note_off_c, 0, 67, 0
1, 757, Note_off_c, 0, 55, 0
1, 768, Note_on_c, 0, 57, 72
1, 768, Note_on_c, 0, 60, 72
1, 768, Note_on_c, 0, 64, 72
1, 768, Note_on_c, 0, 67, 72
1, 768, Note_off_c, 0, 76, 0
1, 864, Note_on_c, 0, 84, 72
1, 900, Note_off_c, 0, 64, 0
1, 902, Note_off_c, 0, 60, 0
1, 902, Note_off_c, 0, 67, 0
1, 903, Note_off_c, 0, 57, 0
1, 912, Note_on_c, 0, 57, 72
1, 912, Note_on_c, 0, 60, 72
1, 912, Note_on_c, 0, 64, 72
1, 912, Note_on_c, 0, 67, 72
1, 912, Note_on_c, 0, 71, 72
1, 912, Note_on_c, 0, 83, 72
1, 912, Note_off_c, 0, 84, 0
1, 1056, Note_on_c, 0, 79, 72
1, 1056, Note_off_c, 0, 83, 0
1, 1104, Note_on_c, 0, 76, 72
1, 1104, Note_off_c, 0, 79, 0
1, 1134, Note_off_c, 0, 64, 0
1, 1136, Note_off_c, 0, 60, 0
1, 1138, Note_off_c, 0, 57, 0
1, 1138, Note_off_c, 0, 67, 0
1, 1138, Note_off_c, 0, 71, 0
1, 1152, Note_on_c, 0, 57, 72
1, 1152, Note_on_c, 0, 60, 72
1, 1152, Note_on_c, 0, 64, 72
1, 1152, Note_on_c, 0, 67, 72
1, 1152, Note_on_c, 0, 71, 72
1, 1248, Note_on_c, 0, 74, 72
1, 1248, Note_off_c, 0, 76, 0
1, 1273, Note_off_c, 0, 64, 0
1, 1276, Note_off_c, 0, 67, 0
1, 1283, Note_off_c, 0, 60, 0
1, 1284, Note_off_c, 0, 71, 0
1, 1288, Note_off_c, 0, 57, 0
1, 1296, Note_on_c, 0, 60, 72
1, 1296, Note_on_c, 0, 64, 72
1, 1296, Note_on_c, 0, 67, 72
1, 1296, Note_on_c, 0, 71, 72
1, 1296, Note_off_c, 0, 74, 0
1, 1296, Note_on_c, 0, 74, 72
1, 1296, Note_on_c, 0, 76, 72
1, 1427, Note_off_c, 0, 76, 0
1, 1431, Note_off_c, 0, 60, 0
1, 1431, Note_off_c, 0, 67, 0
1, 1432, Note_off_c, 0, 74, 0
1, 1434, Note_off_c, 0, 64, 0
1, 1435, Note_off_c, 0, 71, 0
1, 1440, Note_on_c, 0, 60, 72
1, 1440, Note_on_c, 0, 62, 72
1, 1440, Note_on_c, 0, 64, 72
1, 1440, Note_on_c, 0, 67, 72
1, 1440, Note_on_c, 0, 71, 72
1, 1440, Note_on_c, 0, 86, 72
1, 1488, Note_off_c, 0, 86, 0
1, 1488, Note_on_c, 0, 88, 72
1, 1527, Note_off_c, 0, 64, 0
1, 1529, Note_off_c, 0, 60, 0
1, 1529, Note_off_c, 0, 67, 0
1, 1530, Note_off_c, 0, 62, 0
1, 1531, Note_off_c, 0, 71, 0
1, 1536, Note_off_c, 0, 88, 0
1, 0, Note_on_c, 0, 33, 57
1, 0, Note_on_c, 0, 55, 57
1, 0, Note_on_c, 0, 60, 57
1, 0, Note_on_c, 0, 62, 57
1, 0, Note_on_c, 0, 64, 57
1, 0, Note_on_c, 0, 76, 57
1, 0, Note_on_c, 0, 88, 57
1, 48, Note_off_c, 0, 64, 64
1, 48, Note_on_c, 0, 74, 57
1, 48, Note_off_c, 0, 76, 64
1, 48, Note_on_c, 0, 86, 57
1, 48, Note_off_c, 0, 88, 64
1, 72, Note_off_c, 0, 55, 64
1, 72, Note_on_c, 0, 55, 57
1, 72, Note_off_c, 0, 60, 64
1, 72, Note_on_c, 0, 60, 57
1, 72, Note_off_c, 0, 62, 64
1, 72, Note_on_c, 0, 62, 57
1, 72, Note_on_c, 0, 64, 57
1, 72, Note_on_c, 0, 72, 57
1, 72, Note_off_c, 0, 74, 64
1, 72, Note_on_c, 0, 84, 57
1, 72, Note_off_c, 0, 86, 64
1, 94, Note_off_c, 0, 64, 64
1, 94, Note_on_c, 0, 64, 57
1, 96, Note_off_c, 0, 33, 64
1, 96, Note_off_c, 0, 55, 64
1, 96, Note_off_c, 0, 60, 64
1, 96, Note_off_c, 0, 62, 64
1, 96, Note_off_c, 0, 72, 64
1, 96, Note_off_c, 0, 84, 64
1, 142, Note_off_c, 0, 64, 64
1, 144, Note_on_c, 0, 55, 57
1, 144, Note_on_c, 0, 60, 57
1, 144, Note_on_c, 0, 62, 57
1, 144, Note_on_c, 0, 64, 57
1, 144, Note_on_c, 0, 72, 57
1, 144, Note_on_c, 0, 84, 57
1, 168, Note_off_c, 0, 55, 64
1, 168, Note_off_c, 0, 60, 64
1, 168, Note_off_c, 0, 62, 64
1, 168, Note_off_c, 0, 64, 64
1, 192, Note_on_c, 0, 40, 57
1, 192, Note_on_c, 0, 55, 57
1, 192, Note_on_c, 0, 59, 57
1, 192, Note_on_c, 0, 62, 57
1, 192, Note_on_c, 0, 64, 57
1, 192, Note_off_c, 0, 72, 64
1, 192, Note_on_c, 0, 74, 57
1, 192, Note_off_c, 0, 84, 64
1, 192, Note_on_c, 0, 86, 57
1, 240, Note_off_c, 0, 64, 64
1, 240, Note_off_c, 0, 74, 64
1, 240, Note_on_c, 0, 76, 57
1, 240, Note_off_c, 0, 86, 64
1, 240, Note_on_c, 0, 88, 57
1, 264, Note_on_c, 0, 39, 57
1, 264, Note_off_c, 0, 40, 64
1, 264, Note_on_c, 0, 54, 57
1, 264, Note_off_c, 0, 55, 64
1, 264, Note_on_c, 0, 58, 57
1, 264, Note_off_c, 0, 59, 64
1, 264, Note_on_c, 0, 61, 57
1, 264, Note_off_c, 0, 62, 64
1, 288, Note_on_c, 0, 64, 57
1, 288, Note_off_c, 0, 76, 64
1, 288, Note_off_c, 0, 88, 64
1, 336, Note_on_c, 0, 38, 57
1, 336, Note_off_c, 0, 39, 64
1, 336, Note_on_c, 0, 53, 57
1, 336, Note_off_c, 0, 54, 64
1, 336, Note_on_c, 0, 57, 57
1, 336, Note_off_c, 0, 58, 64
1, 336, Note_on_c, 0, 60, 57
1, 336, Note_off_c, 0, 61, 64
1, 336, Note_off_c, 0, 64, 64
1, 336, Note_on_c, 0, 67, 57
1, 336, Note_on_c, 0, 79, 57
1, 384, Note_on_c, 0, 64, 57
1, 384, Note_off_c, 0, 67, 64
1, 384, Note_on_c, 0, 74, 57
1, 384, Note_off_c, 0, 79, 64
1, 384, Note_on_c, 0, 86, 57
1, 432, Note_off_c, 0, 64, 64
1, 478, Note_on_c, 0, 64, 57
1, 526, Note_off_c, 0, 64, 64
1, 528, Note_off_c, 0, 38, 64
1, 576, Note_on_c, 0, 41, 57
1, 576, Note_on_c, 0, 52, 57
1, 576, Note_off_c, 0, 53, 64
1, 576, Note_off_c, 0, 57, 64
1, 576, Note_on_c, 0, 57, 57
1, 576, Note_off_c, 0, 60, 64
1, 576, Note_on_c, 0, 60, 57
1, 576, Note_on_c, 0, 64, 57
1, 576, Note_off_c, 0, 74, 64
1, 576, Note_off_c, 0, 86, 64
1, 624, Note_off_c, 0, 64, 64
1, 672, Note_off_c, 0, 41, 64
1, 672, Note_on_c, 0, 64, 57
1, 672, Note_on_c, 0, 72, 57
1, 672, Note_on_c, 0, 84, 57
1, 720, Note_off_c, 0, 64, 64
1, 768, Note_on_c, 0, 33, 57
1, 768, Note_off_c, 0, 52, 64
1, 768, Note_on_c, 0, 55, 57
1, 768, Note_off_c, 0, 57, 64
1, 768, Note_off_c, 0, 60, 64
1, 768, Note_on_c, 0, 60, 57
1, 768, Note_on_c, 0, 62, 57
1, 768, Note_on_c, 0, 64, 57
1, 768, Note_off_c, 0, 72, 64
1, 768, Note_on_c, 0, 76, 57
1, 768, Note_off_c, 0, 84, 64
1, 768, Note_on_c, 0, 88, 57
1, 816, Note_off_c, 0, 64, 64
1, 816, Note_on_c, 0, 74, 57
1, 816, Note_off_c, 0, 76, 64
1, 816, Note_on_c, 0, 86, 57
1, 816, Note_off_c, 0, 88, 64
1, 840, Note_off_c, 0, 55, 64
1, 840, Note_on_c, 0, 55, 57
1, 840, Note_off_c, 0, 60, 64
1, 840, Note_on_c, 0, 60, 57
1, 840, Note_off_c, 0, 62, 64
1, 840, Note_on_c, 0, 62, 57
1, 840, Note_on_c, 0, 64, 57
1, 840, Note_on_c, 0, 72, 57
1, 840, Note_off_c, 0, 74, 64
1, 840, Note_on_c, 0, 84, 57
1, 840, Note_off_c, 0, 86, 64
1, 862, Note_off_c, 0, 64, 64
1, 862, Note_on_c, 0, 64, 57
1, 864, Note_off_c, 0, 33, 64
1, 864, Note_off_c, 0, 55, 64
1, 864, Note_off_c, 0, 60, 64
1, 864, Note_off_c, 0, 62, 64
1, 864, Note_off_c, 0, 72, 64
1, 864, Note_off_c, 0, 84, 64
1, 910, Note_off_c, 0, 64, 64
1, 912, Note_on_c, 0, 55, 57
1, 912, Note_on_c, 0, 60, 57
1, 912, Note_on_c, 0, 62, 57
1, 912, Note_on_c, 0, 64, 57
1, 912, Note_on_c, 0, 72, 57
1, 912, Note_on_c, 0, 84, 57
1, 936, Note_off_c, 0, 55, 64
1, 936, Note_off_c, 0, 60, 64
1, 936, Note_off_c, 0, 62, 64
1, 936, Note_off_c, 0, 64, 64
1, 960, Note_on_c, 0, 40, 57
1, 960, Note_on_c, 0, 55, 57
1, 960, Note_on_c, 0, 59, 57
1, 960, Note_on_c, 0, 62, 57
1, 960, Note_on_c, 0, 64, 57
1, 960, Note_off_c, 0, 72, 64
1, 960, Note_on_c, 0, 74, 57
1, 960, Note_off_c, 0, 84, 64
1, 960, Note_on_c, 0, 86, 57
1, 1008, Note_off_c, 0, 64, 64
1, 1008, Note_off_c, 0, 74, 64
1, 1008, Note_on_c, 0, 76, 57
1, 1008, Note_off_c, 0, 86, 64
1, 1008, Note_on_c, 0, 88, 57
1, 1032, Note_on_c, 0, 39, 57
1, 1032, Note_off_c, 0, 40, 64
1, 1032, Note_on_c, 0, 54, 57
1, 1032, Note_off_c, 0, 55, 64
1, 1032, Note_on_c, 0, 58, 57
1, 1032, Note_off_c, 0, 59, 64
1, 1032, Note_on_c, 0, 61, 57
1, 1032, Note_off_c, 0, 62, 64
1, 1056, Note_on_c, 0, 64, 57
1, 1056, Note_off_c, 0, 76, 64
1, 1056, Note_off_c, 0, 88, 64
1, 1104, Note_on_c, 0, 38, 57
1, 1104, Note_off_c, 0, 39, 64
1, 1104, Note_on_c, 0, 53, 57
1, 1104, Note_off_c, 0, 54, 64
1, 1104, Note_on_c, 0, 57, 57
1, 1104, Note_off_c, 0, 58, 64
1, 1104, Note_on_c, 0, 60, 57
1, 1104, Note_off_c, 0, 61, 64
1, 1104, Note_off_c, 0, 64, 64
1, 1104, Note_on_c, 0, 79, 57
1, 1104, Note_on_c, 0, 91, 57
1, 1152, Note_on_c, 0, 64, 57
1, 1152, Note_off_c, 0, 79, 64
1, 1152, Note_on_c, 0, 81, 57
1, 1152, Note_off_c, 0, 91, 64
1, 1152, Note_on_c, 0, 93, 57
1, 1200, Note_off_c, 0, 64, 64
1, 1246, Note_on_c, 0, 64, 57
1, 1294, Note_off_c, 0, 64, 64
1, 1296, Note_off_c, 0, 38, 64
1, 1344, Note_on_c, 0, 41, 57
1, 1344, Note_on_c, 0, 52, 57
1, 1344, Note_off_c, 0, 53, 64
1, 1344, Note_off_c, 0, 57, 64
1, 1344, Note_on_c, 0, 57, 57
1, 1344, Note_off_c, 0, 60, 64
1, 1344, Note_on_c, 0, 60, 57
1, 1344, Note_on_c, 0, 64, 57
1, 1344, Note_on_c, 0, 79, 57
1, 1344, Note_off_c, 0, 81, 64
1, 1344, Note_on_c, 0, 91, 57
1, 1344, Note_off_c, 0, 93, 64
1, 1392, Note_off_c, 0, 64, 64
1, 1392, Note_off_c, 0, 79, 64
1, 1392, Note_off_c, 0, 91, 64
1, 1440, Note_off_c, 0, 41, 64
1, 1440, Note_on_c, 0, 64, 57
1, 1440, Note_on_c, 0, 72, 57
1, 1440, Note_on_c, 0, 84, 57
1, 1488, Note_off_c, 0, 64, 64
1, 1488, Note_off_c, 0, 72, 64
1, 1488, Note_off_c, 0, 84, 64
1, 1536, Note_off_c, 0, 52, 64
1, 1536, Note_off_c, 0, 57, 64
1, 1536, Note_off_c, 0, 60, 64
1, 3, Note_on_c, 0, 41, 68
1, 3, Note_on_c, 0, 53, 68
1, 3, Note_on_c, 0, 64, 68
1, 4, Note_on_c, 0, 57, 68
1, 4, Note_on_c, 0, 60, 68
1, 133, Note_off_c, 0, 41, 0
1, 133, Note_off_c, 0, 53, 0
1, 133, Note_off_c, 0, 57, 0
1, 133, Note_off_c, 0, 60, 0
1, 133, Note_off_c, 0, 64, 0
1, 141, Note_on_c, 0, 53, 68
1, 142, Note_on_c, 0, 60, 68
1, 143, Note_on_c, 0, 41, 68
1, 143, Note_on_c, 0, 57, 68
1, 143, Note_on_c, 0, 64, 68
1, 144, Note_on_c, 0, 69, 68
1, 176, Note_on_c, 0, 72, 68
1, 194, Note_on_c, 0, 76, 68
1, 238, Note_on_c, 0, 74, 68
1, 287, Note_on_c, 0, 71, 68
1, 320, Note_off_c, 0, 72, 0
1, 321, Note_on_c, 0, 72, 68
1, 336, Note_off_c, 0, 71, 0
1, 337, Note_on_c, 0, 71, 68
1, 371, Note_on_c, 0, 67, 68
1, 373, Note_off_c, 0, 41, 0
1, 373, Note_off_c, 0, 53, 0
1, 373, Note_off_c, 0, 57, 0
1, 373, Note_off_c, 0, 60, 0
1, 373, Note_off_c, 0, 64, 0
1, 373, Note_off_c, 0, 69, 0
1, 373, Note_off_c, 0, 71, 0
1, 373, Note_off_c, 0, 72, 0
1, 373, Note_off_c, 0, 74, 0
1, 373, Note_off_c, 0, 76, 0
1, 380, Note_on_c, 0, 38, 68
1, 381, Note_on_c, 0, 50, 68
1, 381, Note_on_c, 0, 53, 68
1, 381, Note_on_c, 0, 57, 68
1, 381, Note_on_c, 0, 60, 68
1, 391, Note_off_c, 0, 67, 0
1, 481, Note_on_c, 0, 67, 68
1, 525, Note_off_c, 0, 38, 0
1, 525, Note_off_c, 0, 57, 0
1, 526, Note_on_c, 0, 38, 68
1, 526, Note_off_c, 0, 50, 0
1, 526, Note_off_c, 0, 53, 0
1, 526, Note_on_c, 0, 53, 68
1, 526, Note_on_c, 0, 57, 68
1, 526, Note_off_c, 0, 60, 0
1, 527, Note_on_c, 0, 50, 68
1, 527, Note_on_c, 0, 60, 68
1, 579, Note_off_c, 0, 67, 0
1, 580, Note_on_c, 0, 67, 68
1, 621, Note_on_c, 0, 64, 68
1, 654, Note_on_c, 0, 62, 68
1, 675, Note_off_c, 0, 67, 0
1, 675, Note_on_c, 0, 67, 68
1, 700, Note_on_c, 0, 69, 68
1, 748, Note_on_c, 0, 72, 68
1, 761, Note_off_c, 0, 38, 0
1, 761, Note_off_c, 0, 50, 0
1, 761, Note_off_c, 0, 53, 0
1, 761, Note_off_c, 0, 57, 0
1, 761, Note_off_c, 0, 60, 0
1, 761, Note_off_c, 0, 62, 0
1, 761, Note_off_c, 0, 64, 0
1, 761, Note_off_c, 0, 67, 0
1, 761, Note_off_c, 0, 69, 0
1, 765, Note_off_c, 0, 72, 0
1, 767, Note_on_c, 0, 41, 68
1, 767, Note_on_c, 0, 53, 68
1, 767, Note_on_c, 0, 57, 68
1, 767, Note_on_c, 0, 60, 68
1, 767, Note_on_c, 0, 64, 68
1, 911, Note_off_c, 0, 60, 0
1, 911, Note_off_c, 0, 64, 0
1, 912, Note_off_c, 0, 41, 0
1, 912, Note_off_c, 0, 53, 0
1, 912, Note_on_c, 0, 53, 68
1, 912, Note_off_c, 0, 57, 0
1, 912, Note_on_c, 0, 57, 68
1, 912, Note_on_c, 0, 60, 68
1, 912, Note_on_c, 0, 64, 68
1, 912, Note_on_c, 0, 69, 68
1, 913, Note_on_c, 0, 41, 68
1, 944, Note_on_c, 0, 72, 68
1, 962, Note_on_c, 0, 76, 68
1, 1006, Note_on_c, 0, 74, 68
1, 1055, Note_on_c, 0, 71, 68
1, 1088, Note_off_c, 0, 72, 0
1, 1089, Note_on_c, 0, 72, 68
1, 1105, Note_on_c, 0, 79, 68
1, 1128, Note_off_c, 0, 41, 0
1, 1128, Note_off_c, 0, 53, 0
1, 1128, Note_off_c, 0, 57, 0
1, 1128, Note_off_c, 0, 60, 0
1, 1128, Note_off_c, 0, 64, 0
1, 1128, Note_off_c, 0, 69, 0
1, 1128, Note_off_c, 0, 71, 0
1, 1128, Note_off_c, 0, 72, 0
1, 1128, Note_off_c, 0, 74, 0
1, 1128, Note_off_c, 0, 76, 0
1, 1138, Note_off_c, 0, 79, 0
1, 1139, Note_on_c, 0, 76, 68
1, 1147, Note_on_c, 0, 38, 68
1, 1147, Note_on_c, 0, 50, 68
1, 1148, Note_on_c, 0, 53, 68
1, 1148, Note_on_c, 0, 57, 68
1, 1148, Note_on_c, 0, 60, 68
1, 1159, Note_off_c, 0, 76, 0
1, 1248, Note_on_c, 0, 76, 68
1, 1295, Note_off_c, 0, 38, 0
1, 1295, Note_off_c, 0, 50, 0
1, 1295, Note_off_c, 0, 53, 0
1, 1295, Note_off_c, 0, 57, 0
1, 1295, Note_off_c, 0, 60, 0
1, 1296, Note_on_c, 0, 38, 68
1, 1296, Note_on_c, 0, 50, 68
1, 1296, Note_on_c, 0, 53, 68
1, 1296, Note_on_c, 0, 57, 68
1, 1296, Note_on_c, 0, 60, 68
1, 1347, Note_off_c, 0, 76, 64
1, 1348, Note_on_c, 0, 76, 68
1, 1389, Note_on_c, 0, 74, 68
1, 1422, Note_on_c, 0, 62, 68
1, 1442, Note_off_c, 0, 53, 0
1, 1442, Note_off_c, 0, 57, 0
1, 1443, Note_off_c, 0, 50, 0
1, 1443, Note_on_c, 0, 53, 68
1, 1443, Note_on_c, 0, 57, 68
1, 1443, Note_on_c, 0, 67, 68
1, 1444, Note_off_c, 0, 38, 0
1, 1444, Note_on_c, 0, 38, 68
1, 1444, Note_on_c, 0, 50, 68
1, 1449, Note_off_c, 0, 60, 0
1, 1449, Note_off_c, 0, 74, 0
1, 1449, Note_off_c, 0, 76, 0
1, 1458, Note_off_c, 0, 62, 0
1, 1458, Note_off_c, 0, 67, 0
1, 1468, Note_on_c, 0, 69, 68
1, 1516, Note_on_c, 0, 72, 68
1, 1529, Note_off_c, 0, 38, 0
1, 1529, Note_off_c, 0, 50, 0
1, 1529, Note_off_c, 0, 53, 0
1, 1529, Note_off_c, 0, 57, 0
1, 1529, Note_off_c, 0, 69, 0
1, 1533, Note_off_c, 0, 72, 0
1, 0, Note_on_c, 0, 45, 53
1, 0, Note_on_c, 0, 57, 49
1, 0, Note_on_c, 0, 59, 34
1, 0, Note_on_c, 0, 67, 56
1, 4, Note_on_c, 0, 60, 28
1, 50, Note_on_c, 0, 71, 76
1, 376, Note_off_c, 0, 45, 0
1, 376, Note_off_c, 0, 57, 0
1, 376, Note_off_c, 0, 59, 0
1, 376, Note_off_c, 0, 60, 0
1, 376, Note_off_c, 0, 67, 0
1, 376, Note_off_c, 0, 71, 0
1, 377, Note_on_c, 0, 43, 43
1, 385, Note_on_c, 0, 55, 31
1, 385, Note_on_c, 0, 59, 46
1, 386, Note_on_c, 0, 63, 26
1, 387, Note_on_c, 0, 65, 43
1, 387, Note_on_c, 0, 67, 55
1, 437, Note_on_c, 0, 69, 64
1, 576, Note_off_c, 0, 43, 0
1, 576, Note_off_c, 0, 63, 0
1, 576, Note_on_c, 0, 63, 26
1, 576, Note_off_c, 0, 65, 0
1, 576, Note_on_c, 0, 65, 43
1, 577, Note_off_c, 0, 59, 0
1, 577, Note_off_c, 0, 67, 0
1, 578, Note_on_c, 0, 47, 54
1, 578, Note_on_c, 0, 59, 54
1, 578, Note_on_c, 0, 67, 75
1, 672, Note_off_c, 0, 47, 0
1, 672, Note_on_c, 0, 47, 54
1, 672, Note_off_c, 0, 55, 0
1, 672, Note_on_c, 0, 55, 31
1, 672, Note_off_c, 0, 59, 0
1, 672, Note_on_c, 0, 59, 54
1, 672, Note_off_c, 0, 63, 0
1, 672, Note_on_c, 0, 63, 26
1, 672, Note_off_c, 0, 65, 0
1, 673, Note_on_c, 0, 65, 56
1, 755, Note_off_c, 0, 47, 0
1, 755, Note_off_c, 0, 55, 0
1, 755, Note_off_c, 0, 59, 0
1, 755, Note_off_c, 0, 63, 0
1, 755, Note_off_c, 0, 65, 0
1, 755, Note_off_c, 0, 67, 0
1, 755, Note_off_c, 0, 69, 0
1, 765, Note_on_c, 0, 55, 39
1, 766, Note_on_c, 0, 59, 56
1, 768, Note_on_c, 0, 48, 52
1, 770, Note_on_c, 0, 60, 21
1, 771, Note_on_c, 0, 64, 45
1, 856, Note_on_c, 0, 62, 39
1, 858, Note_on_c, 0, 67, 19
1, 908, Note_on_c, 0, 71, 42
1, 1148, Note_off_c, 0, 59, 0
1, 1149, Note_on_c, 0, 40, 45
1, 1150, Note_on_c, 0, 59, 51
1, 1150, Note_off_c, 0, 60, 0
1, 1151, Note_off_c, 0, 67, 0
1, 1152, Note_off_c, 0, 48, 0
1, 1152, Note_on_c, 0, 52, 43
1, 1152, Note_off_c, 0, 55, 0
1, 1152, Note_on_c, 0, 60, 48
1, 1152, Note_off_c, 0, 62, 0
1, 1152, Note_off_c, 0, 64, 0
1, 1152, Note_off_c, 0, 71, 0
1, 1158, Note_on_c, 0, 67, 19
1, 1246, Note_on_c, 0, 65, 56
1, 1295, Note_off_c, 0, 60, 0
1, 1296, Note_on_c, 0, 60, 56
1, 1344, Note_off_c, 0, 40, 0
1, 1344, Note_on_c, 0, 44, 51
1, 1344, Note_off_c, 0, 52, 0
1, 1344, Note_off_c, 0, 59, 0
1, 1344, Note_off_c, 0, 60, 0
1, 1344, Note_off_c, 0, 65, 0
1, 1344, Note_off_c, 0, 67, 0
1, 1349, Note_on_c, 0, 56, 35
1, 1349, Note_on_c, 0, 59, 47
1, 1352, Note_on_c, 0, 60, 53
1, 1355, Note_on_c, 0, 65, 51
1, 1416, Note_off_c, 0, 65, 0
1, 1419, Note_on_c, 0, 65, 61
1, 1427, Note_on_c, 0, 67, 73
1, 1444, Note_off_c, 0, 65, 0
1, 1445, Note_on_c, 0, 65, 74
1, 1493, Note_on_c, 0, 64, 54
1, 1527, Note_off_c, 0, 67, 0
1, 1536, Note_off_c, 0, 44, 0
1, 1536, Note_off_c, 0, 56, 0
1, 1536, Note_off_c, 0, 59, 0
1, 1536, Note_off_c, 0, 60, 0
1, 1536, Note_off_c, 0, 64, 0
1, 1536, Note_off_c, 0, 65, 0
1, 0, Note_on_c, 0, 84, 93
1, 2, Note_on_c, 0, 53, 57
1, 5, Note_on_c, 0, 64, 55
1, 11, Note_on_c, 0, 86, 86
1, 12, Note_off_c, 0, 84, 64
1, 13, Note_on_c, 0, 69, 63
1, 15, Note_on_c, 0, 60, 34
1, 49, Note_on_c, 0, 84, 77
1, 50, Note_off_c, 0, 86, 56
1, 188, Note_on_c, 0, 81, 80
1, 190, Note_off_c, 0, 84, 112
1, 235, Note_on_c, 0, 83, 80
1, 238, Note_off_c, 0, 81, 89
1, 280, Note_off_c, 0, 64, 46
1, 287, Note_on_c, 0, 84, 87
1, 288, Note_off_c, 0, 83, 101
1, 293, Note_off_c, 0, 60, 51
1, 294, Note_on_c, 0, 76, 95
1, 301, Note_off_c, 0, 69, 82
1, 305, Note_off_c, 0, 53, 52
1, 333, Note_on_c, 0, 52, 50
1, 336, Note_on_c, 0, 81, 73
1, 339, Note_on_c, 0, 59, 13
1, 340, Note_on_c, 0, 62, 49
1, 340, Note_on_c, 0, 67, 76
1, 340, Note_off_c, 0, 84, 115
1, 342, Note_off_c, 0, 76, 89
1, 343, Note_on_c, 0, 74, 91
1, 349, Note_on_c, 0, 83, 73
1, 352, Note_off_c, 0, 81, 99
1, 472, Note_on_c, 0, 79, 72
1, 479, Note_off_c, 0, 83, 83
1, 485, Note_on_c, 0, 72, 81
1, 485, Note_off_c, 0, 74, 108
1, 527, Note_on_c, 0, 76, 63
1, 528, Note_on_c, 0, 64, 55
1, 530, Note_off_c, 0, 79, 85
1, 531, Note_on_c, 0, 71, 73
1, 539, Note_off_c, 0, 72, 127
1, 720, Note_off_c, 0, 59, 42
1, 727, Note_off_c, 0, 52, 78
1, 728, Note_off_c, 0, 62, 85
1, 741, Note_off_c, 0, 64, 93
1, 763, Note_on_c, 0, 53, 79
1, 769, Note_on_c, 0, 64, 48
1, 770, Note_on_c, 0, 69, 81
1, 773, Note_on_c, 0, 60, 14
1, 936, Note_off_c, 0, 76, 49
1, 962, Note_on_c, 0, 81, 84
1, 1007, Note_on_c, 0, 83, 82
1, 1008, Note_off_c, 0, 81, 90
1, 1056, Note_off_c, 0, 69, 96
1, 1058, Note_off_c, 0, 83, 127
1, 1058, Note_on_c, 0, 84, 93
1, 1060, Note_off_c, 0, 67, 37
1, 1061, Note_off_c, 0, 64, 71
1, 1064, Note_off_c, 0, 53, 64
1, 1067, Note_off_c, 0, 60, 66
1, 1072, Note_off_c, 0, 84, 92
1, 1101, Note_on_c, 0, 81, 81
1, 1106, Note_on_c, 0, 62, 56
1, 1106, Note_on_c, 0, 67, 33
1, 1107, Note_on_c, 0, 59, 42
1, 1112, Note_on_c, 0, 52, 36
1, 1113, Note_on_c, 0, 83, 83
1, 1117, Note_off_c, 0, 81, 117
1, 1152, Note_off_c, 0, 71, 64
1, 1155, Note_on_c, 0, 77, 56
1, 1162, Note_on_c, 0, 79, 95
1, 1168, Note_off_c, 0, 77, 125
1, 1202, Note_on_c, 0, 77, 85
1, 1207, Note_off_c, 0, 79, 95
1, 1240, Note_off_c, 0, 83, 81
1, 1245, Note_on_c, 0, 79, 74
1, 1253, Note_off_c, 0, 62, 67
1, 1253, Note_off_c, 0, 67, 45
1, 1254, Note_on_c, 0, 76, 88
1, 1255, Note_off_c, 0, 59, 74
1, 1256, Note_off_c, 0, 52, 54
1, 1264, Note_off_c, 0, 77, 88
1, 1296, Note_on_c, 0, 45, 93
1, 1296, Note_on_c, 0, 57, 67
1, 1296, Note_on_c, 0, 64, 64
1, 1296, Note_off_c, 0, 79, 93
1, 1296, Note_on_c, 0, 81, 76
1, 1297, Note_on_c, 0, 60, 66
1, 1304, Note_on_c, 0, 74, 88
1, 1306, Note_off_c, 0, 76, 112
1, 1399, Note_on_c, 0, 76, 81
1, 1405, Note_off_c, 0, 74, 78
1, 1446, Note_on_c, 0, 74, 60
1, 1450, Note_off_c, 0, 76, 76
1, 1493, Note_on_c, 0, 72, 80
1, 1496, Note_off_c, 0, 74, 76
1, 1505, Note_off_c, 0, 81, 115
1, 1518, Note_off_c, 0, 72, 127
1, 1520, Note_off_c, 0, 60, 50
1, 1526, Note_off_c, 0, 64, 93
1, 1529, Note_off_c, 0, 57, 69
1, 1536, Note_off_c, 0, 45, 64
1, 0, Note_on_c, 0, 45, 102
1, 0, Note_on_c, 0, 57, 102
1, 7, Note_on_c, 0, 60, 102
1, 24, Note_off_c, 0, 57, 64
1, 24, Note_on_c, 0, 64, 102
1, 31, Note_off_c, 0, 60, 64
1, 72, Note_on_c, 0, 62, 102
1, 96, Note_off_c, 0, 45, 64
1, 96, Note_on_c, 0, 57, 102
1, 96, Note_off_c, 0, 62, 64
1, 96, Note_off_c, 0, 64, 64
1, 120, Note_on_c, 0, 60, 102
1, 192, Note_off_c, 0, 57, 64
1, 192, Note_on_c, 0, 59, 102
1, 192, Note_off_c, 0, 60, 64
1, 192, Note_on_c, 0, 62, 102
1, 192, Note_on_c, 0, 64, 102
1, 264, Note_off_c, 0, 59, 64
1, 264, Note_on_c, 0, 60, 102
1, 264, Note_off_c, 0, 62, 64
1, 264, Note_off_c, 0, 64, 64
1, 288, Note_on_c, 0, 41, 102
1, 288, Note_on_c, 0, 53, 102
1, 288, Note_on_c, 0, 57, 102
1, 288, Note_off_c, 0, 60, 64
1, 288, Note_on_c, 0, 64, 102
1, 336, Note_off_c, 0, 57, 64
1, 340, Note_on_c, 0, 62, 102
1, 360, Note_off_c, 0, 53, 64
1, 360, Note_off_c, 0, 64, 64
1, 384, Note_off_c, 0, 41, 64
1, 384, Note_on_c, 0, 60, 102
1, 388, Note_off_c, 0, 62, 64
1, 432, Note_on_c, 0, 57, 102
1, 432, Note_off_c, 0, 60, 64
1, 480, Note_on_c, 0, 40, 102
1, 480, Note_off_c, 0, 57, 64
1, 483, Note_on_c, 0, 50, 100
1, 483, Note_on_c, 0, 56, 102
1, 489, Note_on_c, 0, 59, 102
1, 531, Note_off_c, 0, 56, 64
1, 552, Note_off_c, 0, 40, 64
1, 555, Note_off_c, 0, 50, 64
1, 561, Note_off_c, 0, 59, 64
1, 576, Note_on_c, 0, 56, 102
1, 624, Note_off_c, 0, 56, 64
1, 624, Note_on_c, 0, 59, 102
1, 672, Note_off_c, 0, 59, 64
1, 672, Note_on_c, 0, 60, 100
1, 720, Note_off_c, 0, 60, 64
1, 720, Note_on_c, 0, 62, 100
1, 768, Note_on_c, 0, 45, 102
1, 768, Note_on_c, 0, 57, 102
1, 768, Note_off_c, 0, 62, 64
1, 775, Note_on_c, 0, 60, 102
1, 792, Note_off_c, 0, 57, 64
1, 792, Note_on_c, 0, 64, 102
1, 799, Note_off_c, 0, 60, 64
1, 840, Note_on_c, 0, 62, 102
1, 864, Note_off_c, 0, 45, 64
1, 864, Note_on_c, 0, 57, 102
1, 864, Note_off_c, 0, 62, 64
1, 864, Note_off_c, 0, 64, 64
1, 888, Note_on_c, 0, 60, 102
1, 960, Note_off_c, 0, 57, 64
1, 960, Note_on_c, 0, 59, 102
1, 960, Note_off_c, 0, 60, 64
1, 960, Note_on_c, 0, 62, 102
1, 960, Note_on_c, 0, 64, 102
1, 1032, Note_off_c, 0, 59, 64
1, 1032, Note_on_c, 0, 60, 102
1, 1032, Note_off_c, 0, 62, 64
1, 1032, Note_off_c, 0, 64, 64
1, 1056, Note_on_c, 0, 41, 102
1, 1056, Note_on_c, 0, 53, 102
1, 1056, Note_on_c, 0, 57, 102
1, 1056, Note_off_c, 0, 60, 64
1, 1056, Note_on_c, 0, 64, 102
1, 1104, Note_off_c, 0, 57, 64
1, 1108, Note_on_c, 0, 62, 102
1, 1128, Note_off_c, 0, 53, 64
1, 1128, Note_off_c, 0, 64, 64
1, 1152, Note_off_c, 0, 41, 64
1, 1152, Note_on_c, 0, 60, 102
1, 1156, Note_off_c, 0, 62, 64
1, 1200, Note_on_c, 0, 57, 102
1, 1200, Note_off_c, 0, 60, 64
1, 1248, Note_on_c, 0, 40, 102
1, 1248, Note_off_c, 0, 57, 64
1, 1251, Note_on_c, 0, 50, 100
1, 1251, Note_on_c, 0, 56, 102
1, 1257, Note_on_c, 0, 59, 102
1, 1299, Note_off_c, 0, 56, 64
1, 1320, Note_off_c, 0, 40, 64
1, 1323, Note_off_c, 0, 50, 64
1, 1329, Note_off_c, 0, 59, 64
1, 1344, Note_on_c, 0, 56, 102
1, 1392, Note_off_c, 0, 56, 64
1, 1392, Note_on_c, 0, 59, 102
1, 1440, Note_off_c, 0, 59, 64
1, 1440, Note_on_c, 0, 60, 100
1, 1488, Note_off_c, 0, 60, 64
1, 1488, Note_on_c, 0, 62, 100
1, 1536, Note_off_c, 0, 62, 64
1, 0, Control_c, 0, 1, 100
1, 0, Note_on_c, 0, 53, 78
1, 0, Note_on_c, 0, 81, 108
1, 48, Note_on_c, 0, 79, 97
1, 48, Note_off_c, 0, 81, 108
1, 72, Note_off_c, 0, 79, 97
1, 72, Note_on_c, 0, 81, 93
1, 96, Note_off_c, 0, 81, 93
1, 96, Note_on_c, 0, 84, 104
1, 192, Note_off_c, 0, 53, 78
1, 192, Note_on_c, 0, 57, 77
1, 192, Note_off_c, 0, 84, 104
1, 192, Note_on_c, 0, 88, 106
1, 285, Note_off_c, 0, 88, 106
1, 288, Note_on_c, 0, 88, 100
1, 384, Note_on_c, 0, 55, 75
1, 384, Note_off_c, 0, 57, 77
1, 384, Note_off_c, 0, 88, 100
1, 384, Note_on_c, 0, 91, 105
1, 432, Note_off_c, 0, 91, 105
1, 432, Note_on_c, 0, 95, 103
1, 480, Note_on_c, 0, 86, 100
1, 480, Note_off_c, 0, 95, 103
1, 528, Note_off_c, 0, 86, 100
1, 528, Note_on_c, 0, 95, 94
1, 576, Note_on_c, 0, 48, 75
1, 576, Note_off_c, 0, 55, 75
1, 576, Note_on_c, 0, 91, 110
1, 576, Note_off_c, 0, 95, 94
1, 672, Note_off_c, 0, 91, 110
1, 672, Note_on_c, 0, 96, 102
1, 768, Note_off_c, 0, 48, 75
1, 768, Note_on_c, 0, 53, 72
1, 768, Note_on_c, 0, 81, 108
1, 768, Note_off_c, 0, 96, 102
1, 816, Note_on_c, 0, 79, 103
1, 816, Note_off_c, 0, 81, 108
1, 840, Note_off_c, 0, 79, 103
1, 840, Note_on_c, 0, 81, 98
1, 864, Note_off_c, 0, 81, 98
1, 864, Note_on_c, 0, 84, 101
1, 960, Note_off_c, 0, 53, 72
1, 960, Note_on_c, 0, 57, 73
1, 960, Note_off_c, 0, 84, 101
1, 960, Note_on_c, 0, 88, 108
1, 1053, Note_off_c, 0, 88, 108
1, 1056, Note_on_c, 0, 88, 99
1, 1152, Note_on_c, 0, 55, 77
1, 1152, Note_off_c, 0, 57, 73
1, 1152, Note_off_c, 0, 88, 99
1, 1152, Note_on_c, 0, 91, 110
1, 1200, Note_off_c, 0, 91, 110
1, 1200, Note_on_c, 0, 95, 103
1, 1248, Note_on_c, 0, 86, 100
1, 1248, Note_off_c, 0, 95, 103
1, 1296, Note_off_c, 0, 86, 100
1, 1296, Note_on_c, 0, 95, 93
1, 1344, Note_on_c, 0, 48, 75
1, 1344, Note_off_c, 0, 55, 77
1, 1344, Note_on_c, 0, 91, 102
1, 1344, Note_off_c, 0, 95, 93
1, 1440, Note_off_c, 0, 91, 102
1, 1440, Note_on_c, 0, 96, 103
1, 1526, Control_c, 0, 1, 100
1, 1526, Control_c, 0, 1, 70
1, 1533, Note_off_c, 0, 48, 75
1, 1533, Note_off_c, 0, 96, 103
1, 0, Note_on_c, 0, 33, 99
1, 95, Note_off_c, 0, 33, 45
1, 96, Note_on_c, 0, 59, 113
1, 123, Note_off_c, 0, 59, 44
1, 124, Note_on_c, 0, 33, 74
1, 143, Note_off_c, 0, 33, 73
1, 144, Note_on_c, 0, 45, 114
1, 171, Note_off_c, 0, 45, 77
1, 172, Note_on_c, 0, 52, 120
1, 239, Note_off_c, 0, 52, 52
1, 240, Note_on_c, 0, 33, 87
1, 287, Note_off_c, 0, 33, 60
1, 288, Note_on_c, 0, 45, 87
1, 335, Note_off_c, 0, 45, 66
1, 336, Note_on_c, 0, 59, 86
1, 383, Note_off_c, 0, 59, 28
1, 384, Note_on_c, 0, 29, 103
1, 479, Note_off_c, 0, 29, 48
1, 480, Note_on_c, 0, 60, 85
1, 507, Note_off_c, 0, 60, 55
1, 508, Note_on_c, 0, 29, 103
1, 527, Note_off_c, 0, 29, 48
1, 528, Note_on_c, 0, 41, 98
1, 555, Note_off_c, 0, 41, 72
1, 556, Note_on_c, 0, 55, 111
1, 575, Note_off_c, 0, 55, 62
1, 576, Note_on_c, 0, 31, 93
1, 623, Note_off_c, 0, 31, 75
1, 624, Note_on_c, 0, 43, 93
1, 671, Note_off_c, 0, 43, 64
1, 672, Note_on_c, 0, 55, 82
1, 719, Note_off_c, 0, 55, 56
1, 720, Note_on_c, 0, 62, 95
1, 767, Note_off_c, 0, 62, 51
1, 768, Note_on_c, 0, 33, 99
1, 863, Note_off_c, 0, 33, 45
1, 864, Note_on_c, 0, 59, 113
1, 891, Note_off_c, 0, 59, 44
1, 892, Note_on_c, 0, 33, 74
1, 911, Note_off_c, 0, 33, 73
1, 912, Note_on_c, 0, 45, 114
1, 939, Note_off_c, 0, 45, 77
1, 940, Note_on_c, 0, 52, 120
1, 1007, Note_off_c, 0, 52, 52
1, 1008, Note_on_c, 0, 33, 87
1, 1055, Note_off_c, 0, 33, 60
1, 1056, Note_on_c, 0, 45, 87
1, 1103, Note_off_c, 0, 45, 66
1, 1104, Note_on_c, 0, 59, 86
1, 1151, Note_off_c, 0, 59, 28
1, 1152, Note_on_c, 0, 29, 103
1, 1247, Note_off_c, 0, 29, 48
1, 1248, Note_on_c, 0, 60, 85
1, 1275, Note_off_c, 0, 60, 55
1, 1276, Note_on_c, 0, 29, 103
1, 1295, Note_off_c, 0, 29, 48
1, 1296, Note_on_c, 0, 41, 98
1, 1323, Note_off_c, 0, 41, 72
1, 1324, Note_on_c, 0, 55, 111
1, 1343, Note_off_c, 0, 55, 62
1, 1344, Note_on_c, 0, 26, 93
1, 1391, Note_off_c, 0, 26, 75
1, 1392, Note_on_c, 0, 45, 93
1, 1439, Note_off_c, 0, 45, 64
1, 1440, Note_on_c, 0, 53, 82
1, 1487, Note_off_c, 0, 53, 56
1, 1488, Note_on_c, 0, 52, 95
1, 1535, Note_off_c, 0, 52, 51
1, 0, Note_on_c, 0, 50, 61
1, 0, Note_on_c, 0, 77, 61
1, 2, Note_on_c, 0, 62, 61
1, 2, Note_on_c, 0, 65, 61
1, 2, Note_on_c, 0, 69, 61
1, 3, Note_on_c, 0, 72, 61
1, 45, Note_off_c, 0, 69, 0
1, 46, Note_off_c, 0, 65, 0
1, 46, Note_on_c, 0, 69, 61
1, 47, Note_on_c, 0, 65, 61
1, 47, Note_on_c, 0, 76, 61
1, 79, Note_off_c, 0, 77, 64
1, 144, Note_off_c, 0, 50, 0
1, 145, Note_on_c, 0, 54, 61
1, 185, Note_off_c, 0, 54, 0
1, 186, Note_off_c, 0, 65, 0
1, 186, Note_off_c, 0, 76, 0
1, 187, Note_off_c, 0, 69, 0
1, 189, Note_off_c, 0, 72, 0
1, 191, Note_on_c, 0, 55, 61
1, 192, Note_on_c, 0, 65, 61
1, 192, Note_on_c, 0, 67, 61
1, 193, Note_on_c, 0, 71, 61
1, 198, Note_off_c, 0, 62, 0
1, 239, Note_off_c, 0, 67, 0
1, 240, Note_off_c, 0, 65, 0
1, 240, Note_on_c, 0, 67, 61
1, 241, Note_on_c, 0, 65, 61
1, 241, Note_on_c, 0, 74, 61
1, 338, Note_on_c, 0, 47, 61
1, 385, Note_off_c, 0, 47, 0
1, 385, Note_off_c, 0, 65, 0
1, 385, Note_off_c, 0, 71, 0
1, 385, Note_off_c, 0, 74, 0
1, 386, Note_on_c, 0, 52, 61
1, 386, Note_off_c, 0, 55, 0
1, 386, Note_off_c, 0, 67, 0
1, 387, Note_on_c, 0, 71, 61
1, 388, Note_on_c, 0, 62, 61
1, 435, Note_off_c, 0, 62, 0
1, 435, Note_on_c, 0, 74, 61
1, 436, Note_on_c, 0, 62, 61
1, 437, Note_on_c, 0, 67, 61
1, 528, Note_off_c, 0, 52, 0
1, 529, Note_on_c, 0, 56, 61
1, 575, Note_off_c, 0, 67, 0
1, 576, Note_off_c, 0, 62, 0
1, 576, Note_off_c, 0, 74, 0
1, 577, Note_off_c, 0, 71, 0
1, 578, Note_off_c, 0, 56, 0
1, 578, Note_on_c, 0, 67, 61
1, 579, Note_on_c, 0, 57, 61
1, 579, Note_on_c, 0, 69, 61
1, 581, Note_on_c, 0, 73, 61
1, 624, Note_off_c, 0, 67, 0
1, 624, Note_off_c, 0, 69, 0
1, 624, Note_on_c, 0, 76, 61
1, 625, Note_on_c, 0, 67, 61
1, 625, Note_on_c, 0, 69, 61
1, 720, Note_on_c, 0, 49, 61
1, 765, Note_off_c, 0, 73, 0
1, 766, Note_off_c, 0, 57, 0
1, 767, Note_on_c, 0, 50, 61
1, 768, Note_off_c, 0, 50, 0
1, 768, Note_on_c, 0, 50, 61
1, 768, Note_off_c, 0, 67, 0
1, 768, Note_off_c, 0, 69, 0
1, 768, Note_off_c, 0, 76, 0
1, 769, Note_off_c, 0, 49, 0
1, 770, Note_on_c, 0, 62, 61
1, 770, Note_on_c, 0, 65, 61
1, 770, Note_on_c, 0, 69, 61
1, 771, Note_on_c, 0, 72, 61
1, 813, Note_off_c, 0, 69, 0
1, 814, Note_off_c, 0, 65, 0
1, 814, Note_on_c, 0, 69, 61
1, 815, Note_on_c, 0, 65, 61
1, 815, Note_on_c, 0, 76, 61
1, 913, Note_on_c, 0, 54, 61
1, 953, Note_off_c, 0, 54, 0
1, 954, Note_off_c, 0, 65, 0
1, 954, Note_off_c, 0, 76, 0
1, 955, Note_off_c, 0, 69, 0
1, 957, Note_off_c, 0, 72, 0
1, 959, Note_on_c, 0, 55, 61
1, 960, Note_off_c, 0, 50, 0
1, 960, Note_on_c, 0, 65, 61
1, 960, Note_on_c, 0, 67, 61
1, 961, Note_on_c, 0, 71, 61
1, 966, Note_off_c, 0, 62, 0
1, 1007, Note_off_c, 0, 67, 0
1, 1008, Note_off_c, 0, 65, 0
1, 1008, Note_on_c, 0, 67, 61
1, 1009, Note_on_c, 0, 65, 61
1, 1009, Note_on_c, 0, 74, 61
1, 1106, Note_on_c, 0, 47, 61
1, 1153, Note_off_c, 0, 47, 0
1, 1153, Note_off_c, 0, 65, 0
1, 1153, Note_off_c, 0, 71, 0
1, 1153, Note_off_c, 0, 74, 0
1, 1154, Note_on_c, 0, 52, 61
1, 1154, Note_off_c, 0, 55, 0
1, 1154, Note_off_c, 0, 67, 0
1, 1155, Note_on_c, 0, 71, 61
1, 1156, Note_on_c, 0, 62, 61
1, 1203, Note_off_c, 0, 62, 0
1, 1203, Note_on_c, 0, 74, 61
1, 1204, Note_on_c, 0, 62, 61
1, 1205, Note_on_c, 0, 67, 61
1, 1297, Note_on_c, 0, 56, 61
1, 1343, Note_off_c, 0, 67, 0
1, 1344, Note_off_c, 0, 62, 0
1, 1344, Note_off_c, 0, 74, 0
1, 1345, Note_off_c, 0, 52, 0
1, 1345, Note_off_c, 0, 71, 0
1, 1346, Note_off_c, 0, 56, 0
1, 1346, Note_on_c, 0, 67, 61
1, 1347, Note_on_c, 0, 57, 61
1, 1347, Note_on_c, 0, 69, 61
1, 1349, Note_on_c, 0, 73, 61
1, 1392, Note_off_c, 0, 67, 0
1, 1392, Note_off_c, 0, 69, 0
1, 1392, Note_on_c, 0, 76, 61
1, 1393, Note_on_c, 0, 67, 61
1, 1393, Note_on_c, 0, 69, 61
1, 1440, Note_on_c, 0, 81, 61
1, 1488, Note_on_c, 0, 49, 61
1, 1488, Note_on_c, 0, 79, 61
1, 1526, Note_off_c, 0, 73, 0
1, 1527, Note_off_c, 0, 57, 0
1, 1528, Note_off_c, 0, 67, 0
1, 1528, Note_off_c, 0, 69, 0
1, 1529, Note_off_c, 0, 76, 0
1, 1535, Note_off_c, 0, 79, 64
1, 1535, Note_off_c, 0, 81, 0
1, 1536, Note_off_c, 0, 49, 0
1, 4294967168, Note_on_c, 0, 65, 58
1, 4294967169, Note_on_c, 0, 50, 52
1, 4294967169, Note_on_c, 0, 59, 58
1, 4294967170, Note_on_c, 0, 69, 54
1, 4294967170, Note_on_c, 0, 72, 54
1, 4294967545, Note_off_c, 0, 50, 0
1, 4294967545, Note_off_c, 0, 65, 0
1, 4294967547, Note_off_c, 0, 59, 0
1, 4294967548, Note_off_c, 0, 69, 0
1, 4294967548, Note_off_c, 0, 72, 0
1, 4294967552, Note_on_c, 0, 68, 58
1, 4294967553, Note_on_c, 0, 53, 52
1, 4294967553, Note_on_c, 0, 62, 58
1, 4294967554, Note_on_c, 0, 60, 54
1, 4294967742, Note_off_c, 0, 68, 0
1, 4294967742, Note_on_c, 0, 68, 58
1, 4294967750, Note_off_c, 0, 68, 0
1, 4294967750, Note_on_c, 0, 70, 58
1, 4294967758, Note_on_c, 0, 68, 58
1, 4294967758, Note_off_c, 0, 70, 0
1, 4294967862, Note_on_c, 0, 67, 58
1, 4294967862, Note_off_c, 0, 68, 0
1, 4294967929, Note_off_c, 0, 53, 0
1, 4294967929, Note_off_c, 0, 67, 0
1, 4294967931, Note_off_c, 0, 62, 0
1, 4294967932, Note_off_c, 0, 60, 0
1, 4294967936, Note_on_c, 0, 62, 58
1, 4294967937, Note_on_c, 0, 48, 52
1, 4294967937, Note_on_c, 0, 59, 58
1, 4294967938, Note_on_c, 0, 67, 54
1, 4294968313, Note_off_c, 0, 48, 0
1, 4294968313, Note_off_c, 0, 62, 0
1, 4294968315, Note_off_c, 0, 59, 0
1, 4294968316, Note_off_c, 0, 67, 0
1, 4294968320, Note_on_c, 0, 60, 58
1, 4294968321, Note_on_c, 0, 45, 52
1, 4294968321, Note_on_c, 0, 54, 58
1, 4294968322, Note_on_c, 0, 64, 54
1, 4294968697, Note_off_c, 0, 45, 0
1, 4294968697, Note_off_c, 0, 60, 0
1, 4294968699, Note_off_c, 0, 54, 0
1, 4294968700, Note_off_c, 0, 64, 0
1, 0, Note_on_c, 0, 38, 87
1, 0, Note_on_c, 0, 50, 87
1, 6, Note_on_c, 0, 57, 87
1, 12, Note_on_c, 0, 64, 87
1, 18, Note_on_c, 0, 65, 87
1, 24, Note_on_c, 0, 72, 87
1, 96, Note_on_c, 0, 79, 58
1, 192, Note_on_c, 0, 76, 58
1, 192, Note_off_c, 0, 79, 64
1, 282, Note_off_c, 0, 38, 64
1, 288, Note_on_c, 0, 43, 87
1, 288, Note_off_c, 0, 76, 64
1, 354, Note_off_c, 0, 50, 64
1, 360, Note_off_c, 0, 57, 64
1, 366, Note_off_c, 0, 64, 64
1, 372, Note_off_c, 0, 65, 64
1, 378, Note_off_c, 0, 43, 64
1, 378, Note_off_c, 0, 72, 64
1, 390, Note_on_c, 0, 36, 87
1, 390, Note_on_c, 0, 48, 87
1, 396, Note_on_c, 0, 55, 87
1, 402, Note_on_c, 0, 62, 87
1, 408, Note_on_c, 0, 64, 87
1, 414, Note_on_c, 0, 71, 87
1, 480, Note_on_c, 0, 79, 58
1, 576, Note_on_c, 0, 76, 58
1, 576, Note_off_c, 0, 79, 64
1, 672, Note_off_c, 0, 76, 64
1, 672, Note_on_c, 0, 81, 58
1, 720, Note_on_c, 0, 74, 58
1, 720, Note_off_c, 0, 81, 64
1, 744, Note_off_c, 0, 36, 64
1, 744, Note_off_c, 0, 48, 64
1, 750, Note_off_c, 0, 55, 64
1, 756, Note_off_c, 0, 62, 64
1, 762, Note_off_c, 0, 64, 64
1, 768, Note_on_c, 0, 38, 87
1, 768, Note_on_c, 0, 50, 87
1, 768, Note_off_c, 0, 71, 64
1, 768, Note_off_c, 0, 74, 64
1, 774, Note_on_c, 0, 57, 87
1, 780, Note_on_c, 0, 64, 87
1, 786, Note_on_c, 0, 65, 87
1, 792, Note_on_c, 0, 72, 87
1, 864, Note_on_c, 0, 79, 58
1, 960, Note_on_c, 0, 76, 58
1, 960, Note_off_c, 0, 79, 64
1, 1050, Note_off_c, 0, 38, 64
1, 1056, Note_on_c, 0, 43, 87
1, 1056, Note_off_c, 0, 76, 64
1, 1122, Note_off_c, 0, 50, 64
1, 1128, Note_off_c, 0, 57, 64
1, 1134, Note_off_c, 0, 64, 64
1, 1140, Note_off_c, 0, 65, 64
1, 1146, Note_off_c, 0, 43, 64
1, 1146, Note_off_c, 0, 72, 64
1, 1158, Note_on_c, 0, 36, 87
1, 1158, Note_on_c, 0, 48, 87
1, 1164, Note_on_c, 0, 55, 87
1, 1170, Note_on_c, 0, 62, 87
1, 1176, Note_on_c, 0, 64, 87
1, 1182, Note_on_c, 0, 71, 87
1, 1248, Note_on_c, 0, 79, 58
1, 1344, Note_on_c, 0, 76, 58
1, 1344, Note_off_c, 0, 79, 64
1, 1440, Note_off_c, 0, 36, 64
1, 1440, Note_on_c, 0, 45, 87
1, 1440, Note_off_c, 0, 76, 64
1, 1440, Note_on_c, 0, 81, 58
1, 1488, Note_on_c, 0, 74, 58
1, 1488, Note_off_c, 0, 81, 64
1, 1512, Note_off_c, 0, 48, 64
1, 1518, Note_off_c, 0, 55, 64
1, 1524, Note_off_c, 0, 62, 64
1, 1530, Note_off_c, 0, 45, 64
1, 1530, Note_off_c, 0, 64, 64
1, 1536, Note_off_c, 0, 71, 64
1, 1536, Note_off_c, 0, 74, 64
1, 0, Note_on_c, 0, 57, 57
1, 0, Note_on_c, 0, 60, 57
1, 0, Note_on_c, 0, 64, 57
1, 4, Note_on_c, 0, 70, 57
1, 13, Note_on_c, 0, 71, 57
1, 16, Note_off_c, 0, 70, 0
1, 93, Note_on_c, 0, 69, 57
1, 121, Note_on_c, 0, 67, 57
1, 144, Note_off_c, 0, 67, 0
1, 145, Note_on_c, 0, 67, 57
1, 145, Note_on_c, 0, 74, 57
1, 380, Note_off_c, 0, 57, 0
1, 380, Note_off_c, 0, 67, 0
1, 380, Note_off_c, 0, 69, 0
1, 380, Note_off_c, 0, 71, 0
1, 380, Note_off_c, 0, 74, 0
1, 382, Note_off_c, 0, 60, 0
1, 382, Note_on_c, 0, 63, 57
1, 382, Note_off_c, 0, 64, 0
1, 382, Note_on_c, 0, 67, 57
1, 384, Note_on_c, 0, 60, 57
1, 388, Note_on_c, 0, 73, 57
1, 396, Note_off_c, 0, 73, 0
1, 397, Note_on_c, 0, 74, 57
1, 477, Note_on_c, 0, 72, 57
1, 505, Note_on_c, 0, 70, 57
1, 523, Note_off_c, 0, 70, 0
1, 529, Note_on_c, 0, 70, 57
1, 529, Note_on_c, 0, 77, 57
1, 765, Note_off_c, 0, 60, 0
1, 765, Note_off_c, 0, 63, 0
1, 765, Note_off_c, 0, 67, 0
1, 765, Note_off_c, 0, 70, 0
1, 765, Note_off_c, 0, 77, 0
1, 766, Note_on_c, 0, 62, 57
1, 766, Note_on_c, 0, 66, 57
1, 768, Note_on_c, 0, 59, 57
1, 768, Note_off_c, 0, 72, 0
1, 768, Note_off_c, 0, 74, 0
1, 772, Note_on_c, 0, 72, 57
1, 780, Note_off_c, 0, 72, 0
1, 781, Note_on_c, 0, 73, 57
1, 861, Note_on_c, 0, 71, 57
1, 889, Note_on_c, 0, 69, 57
1, 907, Note_off_c, 0, 69, 0
1, 913, Note_on_c, 0, 69, 57
1, 913, Note_on_c, 0, 76, 57
1, 1149, Note_off_c, 0, 59, 0
1, 1149, Note_off_c, 0, 62, 0
1, 1149, Note_off_c, 0, 66, 0
1, 1149, Note_off_c, 0, 69, 0
1, 1149, Note_off_c, 0, 76, 0
1, 1150, Note_on_c, 0, 61, 57
1, 1150, Note_on_c, 0, 65, 57
1, 1152, Note_on_c, 0, 58, 57
1, 1152, Note_off_c, 0, 71, 0
1, 1152, Note_off_c, 0, 73, 0
1, 1156, Note_on_c, 0, 71, 57
1, 1164, Note_off_c, 0, 71, 0
1, 1165, Note_on_c, 0, 72, 57
1, 1245, Note_on_c, 0, 70, 57
1, 1273, Note_on_c, 0, 68, 57
1, 1291, Note_off_c, 0, 68, 0
1, 1297, Note_on_c, 0, 68, 57
1, 1297, Note_on_c, 0, 75, 57
1, 1536, Note_off_c, 0, 58, 0
1, 1536, Note_off_c, 0, 61, 0
1, 1536, Note_off_c, 0, 65, 0
1, 1536, Note_off_c, 0, 68, 0
1, 1536, Note_off_c, 0, 70, 0
1, 1536, Note_off_c, 0, 72, 0
1, 1536, Note_off_c, 0, 75, 0
1, 0, Note_on_c, 0, 52, 64
1, 0, Note_on_c, 0, 57, 64
1, 0, Note_on_c, 0, 60, 64
1, 0, Note_on_c, 0, 64, 64
1, 0, Note_on_c, 0, 67, 64
1, 375, Note_off_c, 0, 67, 1
1, 377, Note_off_c, 0, 64, 1
1, 378, Note_off_c, 0, 57, 7
1, 379, Note_off_c, 0, 52, 52
1, 380, Note_off_c, 0, 60, 57
1, 384, Note_on_c, 0, 53, 64
1, 384, Note_on_c, 0, 58, 64
1, 384, Note_on_c, 0, 62, 64
1, 384, Note_on_c, 0, 63, 41
1, 384, Note_on_c, 0, 67, 64
1, 624, Note_on_c, 0, 65, 64
1, 671, Note_off_c, 0, 58, 127
1, 672, Note_on_c, 0, 58, 64
1, 720, Note_on_c, 0, 52, 64
1, 744, Note_off_c, 0, 63, 127
1, 747, Note_off_c, 0, 62, 88
1, 747, Note_off_c, 0, 67, 127
1, 751, Note_off_c, 0, 65, 127
1, 753, Note_off_c, 0, 58, 64
1, 754, Note_off_c, 0, 53, 127
1, 765, Note_off_c, 0, 52, 64
1, 768, Note_on_c, 0, 52, 64
1, 768, Note_on_c, 0, 57, 64
1, 768, Note_on_c, 0, 60, 64
1, 768, Note_on_c, 0, 64, 64
1, 768, Note_on_c, 0, 67, 64
1, 1143, Note_off_c, 0, 67, 1
1, 1145, Note_off_c, 0, 64, 1
1, 1146, Note_off_c, 0, 57, 7
1, 1147, Note_off_c, 0, 52, 52
1, 1148, Note_off_c, 0, 60, 57
1, 1152, Note_on_c, 0, 53, 64
1, 1152, Note_on_c, 0, 58, 64
1, 1152, Note_on_c, 0, 62, 64
1, 1152, Note_on_c, 0, 63, 41
1, 1152, Note_on_c, 0, 67, 64
1, 1392, Note_on_c, 0, 65, 64
1, 1439, Note_off_c, 0, 58, 127
1, 1440, Note_on_c, 0, 58, 64
1, 1488, Note_on_c, 0, 52, 64
1, 1512, Note_off_c, 0, 63, 127
1, 1515, Note_off_c, 0, 62, 88
1, 1515, Note_off_c, 0, 67, 127
1, 1519, Note_off_c, 0, 65, 127
1, 1521, Note_off_c, 0, 58, 64
1, 1522, Note_off_c, 0, 53, 127
1, 1533, Note_off_c, 0, 52, 64
1, 0, Note_on_c, 0, 45, 57
1, 0, Note_on_c, 0, 57, 57
1, 0, Note_on_c, 0, 60, 57
1, 0, Note_on_c, 0, 64, 57
1, 0, Note_on_c, 0, 67, 57
1, 0, Note_on_c, 0, 71, 57
1, 72, Note_on_c, 0, 69, 57
1, 168, Note_off_c, 0, 45, 64
1, 168, Note_on_c, 0, 45, 57
1, 192, Note_off_c, 0, 57, 64
1, 192, Note_on_c, 0, 57, 57
1, 192, Note_off_c, 0, 60, 64
1, 192, Note_on_c, 0, 60, 57
1, 192, Note_off_c, 0, 64, 64
1, 192, Note_on_c, 0, 64, 57
1, 192, Note_off_c, 0, 67, 64
1, 192, Note_on_c, 0, 67, 57
1, 192, Note_off_c, 0, 69, 64
1, 192, Note_off_c, 0, 71, 64
1, 192, Note_on_c, 0, 71, 57
1, 240, Note_off_c, 0, 45, 64
1, 240, Note_on_c, 0, 45, 57
1, 264, Note_on_c, 0, 69, 57
1, 384, Note_off_c, 0, 45, 64
1, 384, Note_on_c, 0, 45, 57
1, 384, Note_off_c, 0, 57, 64
1, 384, Note_on_c, 0, 57, 57
1, 384, Note_off_c, 0, 60, 64
1, 384, Note_on_c, 0, 60, 57
1, 384, Note_off_c, 0, 64, 64
1, 384, Note_on_c, 0, 64, 57
1, 384, Note_off_c, 0, 67, 64
1, 384, Note_on_c, 0, 67, 57
1, 384, Note_off_c, 0, 69, 64
1, 384, Note_off_c, 0, 71, 64
1, 384, Note_on_c, 0, 71, 57
1, 456, Note_on_c, 0, 69, 57
1, 552, Note_off_c, 0, 45, 64
1, 552, Note_on_c, 0, 45, 57
1, 576, Note_off_c, 0, 57, 64
1, 576, Note_on_c, 0, 57, 57
1, 576, Note_off_c, 0, 60, 64
1, 576, Note_on_c, 0, 60, 57
1, 576, Note_off_c, 0, 64, 64
1, 576, Note_on_c, 0, 64, 57
1, 576, Note_off_c, 0, 67, 64
1, 576, Note_on_c, 0, 67, 57
1, 576, Note_off_c, 0, 69, 64
1, 576, Note_off_c, 0, 71, 64
1, 576, Note_on_c, 0, 71, 57
1, 648, Note_on_c, 0, 69, 57
1, 672, Note_on_c, 0, 43, 57
1, 672, Note_off_c, 0, 45, 64
1, 720, Note_on_c, 0, 38, 57
1, 720, Note_off_c, 0, 43, 64
1, 768, Note_off_c, 0, 38, 64
1, 768, Note_on_c, 0, 41, 57
1, 768, Note_on_c, 0, 53, 57
1, 768, Note_off_c, 0, 57, 64
1, 768, Note_on_c, 0, 57, 57
1, 768, Note_off_c, 0, 60, 64
1, 768, Note_on_c, 0, 60, 57
1, 768, Note_off_c, 0, 64, 64
1, 768, Note_on_c, 0, 64, 57
1, 768, Note_off_c, 0, 67, 64
1, 768, Note_on_c, 0, 67, 57
1, 768, Note_off_c, 0, 69, 64
1, 768, Note_off_c, 0, 71, 64
1, 840, Note_off_c, 0, 64, 64
1, 840, Note_on_c, 0, 64, 57
1, 936, Note_off_c, 0, 41, 64
1, 936, Note_on_c, 0, 41, 57
1, 960, Note_off_c, 0, 53, 64
1, 960, Note_on_c, 0, 53, 57
1, 960, Note_off_c, 0, 57, 64
1, 960, Note_on_c, 0, 57, 57
1, 960, Note_off_c, 0, 60, 64
1, 960, Note_on_c, 0, 60, 57
1, 960, Note_off_c, 0, 64, 64
1, 960, Note_on_c, 0, 64, 57
1, 960, Note_off_c, 0, 67, 64
1, 960, Note_on_c, 0, 67, 57
1, 1008, Note_off_c, 0, 41, 64
1, 1008, Note_on_c, 0, 41, 57
1, 1032, Note_off_c, 0, 64, 64
1, 1032, Note_on_c, 0, 64, 57
1, 1152, Note_on_c, 0, 38, 57
1, 1152, Note_off_c, 0, 41, 64
1, 1152, Note_off_c, 0, 53, 64
1, 1152, Note_on_c, 0, 53, 57
1, 1152, Note_off_c, 0, 57, 64
1, 1152, Note_on_c, 0, 57, 57
1, 1152, Note_off_c, 0, 60, 64
1, 1152, Note_on_c, 0, 60, 57
1, 1152, Note_off_c, 0, 64, 64
1, 1152, Note_on_c, 0, 64, 57
1, 1152, Note_off_c, 0, 67, 64
1, 1152, Note_on_c, 0, 67, 57
1, 1224, Note_off_c, 0, 64, 64
1, 1224, Note_on_c, 0, 64, 57
1, 1344, Note_off_c, 0, 38, 64
1, 1344, Note_on_c, 0, 48, 57
1, 1344, Note_off_c, 0, 53, 64
1, 1344, Note_on_c, 0, 53, 57
1, 1344, Note_off_c, 0, 57, 64
1, 1344, Note_on_c, 0, 57, 57
1, 1344, Note_off_c, 0, 60, 64
1, 1344, Note_on_c, 0, 60, 57
1, 1344, Note_off_c, 0, 64, 64
1, 1344, Note_on_c, 0, 64, 57
1, 1344, Note_off_c, 0, 67, 64
1, 1344, Note_on_c, 0, 67, 57
1, 1416, Note_off_c, 0, 64, 64
1, 1416, Note_on_c, 0, 64, 57
1, 1488, Note_on_c, 0, 43, 57
1, 1488, Note_off_c, 0, 48, 64
1, 1536, Note_off_c, 0, 43, 64
1, 1536, Note_off_c, 0, 53, 64
1, 1536, Note_off_c, 0, 57, 64
1, 1536, Note_off_c, 0, 60, 64
1, 1536, Note_off_c, 0, 64, 64
1, 1536, Note_off_c, 0, 67, 64
1, 2, Note_on_c, 0, 60, 61
1, 3, Note_on_c, 0, 45, 45
1, 96, Note_on_c, 0, 52, 35
1, 97, Note_on_c, 0, 62, 66
1, 145, Note_on_c, 0, 59, 56
1, 146, Note_on_c, 0, 64, 58
1, 192, Note_off_c, 0, 60, 0
1, 193, Note_on_c, 0, 60, 37
1, 193, Note_on_c, 0, 67, 66
1, 240, Note_off_c, 0, 62, 0
1, 240, Note_on_c, 0, 62, 52
1, 243, Note_on_c, 0, 69, 15
1, 287, Note_on_c, 0, 71, 79
1, 288, Note_off_c, 0, 64, 0
1, 289, Note_on_c, 0, 64, 60
1, 337, Note_off_c, 0, 67, 0
1, 337, Note_on_c, 0, 67, 58
1, 384, Note_on_c, 0, 79, 60
1, 388, Note_off_c, 0, 69, 0
1, 389, Note_on_c, 0, 69, 36
1, 480, Note_off_c, 0, 71, 0
1, 481, Note_on_c, 0, 71, 72
1, 481, Note_on_c, 0, 76, 73
1, 766, Note_on_c, 0, 50, 72
1, 768, Note_off_c, 0, 45, 0
1, 768, Note_off_c, 0, 52, 0
1, 768, Note_off_c, 0, 59, 0
1, 768, Note_off_c, 0, 60, 0
1, 768, Note_off_c, 0, 62, 0
1, 768, Note_off_c, 0, 64, 0
1, 768, Note_off_c, 0, 67, 0
1, 768, Note_off_c, 0, 69, 0
1, 768, Note_off_c, 0, 71, 0
1, 768, Note_off_c, 0, 76, 0
1, 768, Note_off_c, 0, 79, 0
1, 816, Note_on_c, 0, 57, 60
1, 818, Note_on_c, 0, 65, 73
1, 866, Note_on_c, 0, 64, 51
1, 867, Note_on_c, 0, 69, 50
1, 912, Note_off_c, 0, 65, 0
1, 913, Note_on_c, 0, 65, 65
1, 915, Note_on_c, 0, 72, 54
1, 962, Note_on_c, 0, 67, 55
1, 962, Note_on_c, 0, 74, 71
1, 1011, Note_off_c, 0, 69, 0
1, 1011, Note_on_c, 0, 76, 23
1, 1012, Note_on_c, 0, 69, 60
1, 1059, Note_on_c, 0, 79, 73
1, 1060, Note_off_c, 0, 72, 0
1, 1060, Note_on_c, 0, 72, 60
1, 1108, Note_on_c, 0, 83, 72
1, 1109, Note_off_c, 0, 69, 0
1, 1110, Note_on_c, 0, 69, 47
1, 1200, Note_off_c, 0, 79, 0
1, 1201, Note_on_c, 0, 79, 13
1, 1247, Note_off_c, 0, 72, 0
1, 1248, Note_on_c, 0, 72, 52
1, 1248, Note_off_c, 0, 76, 0
1, 1248, Note_on_c, 0, 76, 23
1, 1248, Note_off_c, 0, 79, 0
1, 1248, Note_on_c, 0, 79, 13
1, 1258, Note_on_c, 0, 81, 46
1, 1296, Note_off_c, 0, 79, 0
1, 1296, Note_on_c, 0, 79, 50
1, 1440, Note_off_c, 0, 57, 0
1, 1440, Note_on_c, 0, 57, 60
1, 1488, Note_off_c, 0, 50, 0
1, 1488, Note_on_c, 0, 50, 72
1, 1536, Note_off_c, 0, 50, 0
1, 1536, Note_off_c, 0, 57, 0
1, 1536, Note_off_c, 0, 64, 0
1, 1536, Note_off_c, 0, 65, 0
1, 1536, Note_off_c, 0, 67, 0
1, 1536, Note_off_c, 0, 69, 0
1, 1536, Note_off_c, 0, 72, 0
1, 1536, Note_off_c, 0, 74, 0
1, 1536, Note_off_c, 0, 76, 0
1, 1536, Note_off_c, 0, 79, 0
1, 1536, Note_off_c, 0, 81, 0
1, 1536, Note_off_c, 0, 83, 0
1, 0, Note_on_c, 0, 41, 75
1, 0, Note_on_c, 0, 53, 55
1, 0, Note_on_c, 0, 69, 55
1, 2, Note_on_c, 0, 60, 55
1, 2, Note_on_c, 0, 72, 55
1, 4, Note_on_c, 0, 64, 55
1, 9, Note_on_c, 0, 76, 55
1, 75, Note_off_c, 0, 53, 64
1, 75, Note_off_c, 0, 69, 64
1, 78, Note_off_c, 0, 60, 64
1, 78, Note_off_c, 0, 72, 64
1, 80, Note_off_c, 0, 64, 64
1, 84, Note_off_c, 0, 76, 64
1, 96, Note_off_c, 0, 41, 64
1, 98, Note_on_c, 0, 84, 48
1, 140, Note_off_c, 0, 84, 64
1, 144, Note_on_c, 0, 81, 46
1, 183, Note_off_c, 0, 81, 64
1, 191, Note_on_c, 0, 40, 75
1, 191, Note_on_c, 0, 52, 55
1, 191, Note_on_c, 0, 67, 55
1, 192, Note_on_c, 0, 62, 55
1, 194, Note_on_c, 0, 59, 55
1, 197, Note_on_c, 0, 79, 29
1, 200, Note_on_c, 0, 71, 55
1, 234, Note_off_c, 0, 79, 64
1, 240, Note_on_c, 0, 76, 29
1, 262, Note_off_c, 0, 52, 64
1, 264, Note_off_c, 0, 40, 64
1, 281, Note_off_c, 0, 62, 64
1, 284, Note_off_c, 0, 67, 64
1, 285, Note_off_c, 0, 76, 64
1, 286, Note_off_c, 0, 59, 64
1, 288, Note_on_c, 0, 69, 34
1, 297, Note_off_c, 0, 71, 64
1, 336, Note_on_c, 0, 33, 75
1, 336, Note_on_c, 0, 45, 55
1, 336, Note_on_c, 0, 57, 55
1, 336, Note_on_c, 0, 60, 55
1, 336, Note_on_c, 0, 64, 55
1, 336, Note_on_c, 0, 67, 55
1, 336, Note_off_c, 0, 69, 64
1, 342, Note_on_c, 0, 74, 55
1, 348, Note_on_c, 0, 81, 29
1, 576, Note_off_c, 0, 33, 64
1, 576, Note_on_c, 0, 79, 39
1, 576, Note_off_c, 0, 81, 64
1, 672, Note_on_c, 0, 35, 99
1, 672, Note_off_c, 0, 45, 64
1, 672, Note_off_c, 0, 57, 64
1, 672, Note_off_c, 0, 67, 64
1, 672, Note_on_c, 0, 77, 39
1, 674, Note_off_c, 0, 60, 64
1, 674, Note_off_c, 0, 64, 64
1, 674, Note_off_c, 0, 79, 64
1, 678, Note_off_c, 0, 74, 64
1, 696, Note_off_c, 0, 35, 64
1, 696, Note_on_c, 0, 36, 99
1, 720, Note_off_c, 0, 36, 64
1, 720, Note_on_c, 0, 38, 98
1, 763, Note_off_c, 0, 38, 64
1, 768, Note_on_c, 0, 41, 75
1, 768, Note_on_c, 0, 53, 55
1, 768, Note_on_c, 0, 64, 55
1, 768, Note_on_c, 0, 69, 55
1, 768, Note_off_c, 0, 77, 64
1, 771, Note_on_c, 0, 60, 55
1, 771, Note_on_c, 0, 72, 55
1, 778, Note_on_c, 0, 76, 55
1, 849, Note_off_c, 0, 64, 64
1, 850, Note_off_c, 0, 53, 64
1, 850, Note_off_c, 0, 69, 64
1, 853, Note_off_c, 0, 60, 64
1, 853, Note_off_c, 0, 72, 64
1, 859, Note_off_c, 0, 76, 64
1, 864, Note_off_c, 0, 41, 64
1, 867, Note_on_c, 0, 84, 48
1, 888, Note_on_c, 0, 83, 46
1, 891, Note_off_c, 0, 84, 64
1, 912, Note_on_c, 0, 81, 46
1, 912, Note_off_c, 0, 83, 64
1, 952, Note_off_c, 0, 81, 64
1, 959, Note_on_c, 0, 40, 75
1, 960, Note_on_c, 0, 52, 55
1, 960, Note_on_c, 0, 62, 55
1, 960, Note_on_c, 0, 67, 55
1, 963, Note_on_c, 0, 59, 55
1, 963, Note_on_c, 0, 71, 55
1, 966, Note_on_c, 0, 79, 29
1, 1002, Note_off_c, 0, 79, 64
1, 1008, Note_on_c, 0, 76, 29
1, 1031, Note_off_c, 0, 52, 64
1, 1031, Note_off_c, 0, 62, 64
1, 1031, Note_off_c, 0, 67, 64
1, 1032, Note_off_c, 0, 40, 64
1, 1034, Note_off_c, 0, 59, 64
1, 1034, Note_off_c, 0, 71, 64
1, 1054, Note_off_c, 0, 76, 64
1, 1102, Note_on_c, 0, 60, 55
1, 1102, Note_on_c, 0, 64, 55
1, 1104, Note_on_c, 0, 33, 75
1, 1104, Note_on_c, 0, 45, 55
1, 1104, Note_on_c, 0, 57, 55
1, 1104, Note_on_c, 0, 67, 55
1, 1104, Note_on_c, 0, 74, 55
1, 1105, Note_on_c, 0, 79, 29
1, 1113, Note_on_c, 0, 83, 29
1, 1344, Note_off_c, 0, 33, 64
1, 1440, Note_on_c, 0, 35, 99
1, 1440, Note_off_c, 0, 45, 64
1, 1464, Note_off_c, 0, 35, 64
1, 1464, Note_on_c, 0, 38, 99
1, 1483, Note_off_c, 0, 60, 64
1, 1483, Note_off_c, 0, 64, 64
1, 1485, Note_off_c, 0, 67, 64
1, 1486, Note_off_c, 0, 57, 64
1, 1486, Note_off_c, 0, 74, 64
1, 1488, Note_off_c, 0, 38, 64
1, 1488, Note_on_c, 0, 40, 98
1, 1488, Note_off_c, 0, 79, 64
1, 1496, Note_off_c, 0, 83, 64
1, 1531, Note_off_c, 0, 40, 64
1, 1531, Note_on_c, 0, 41, 75
1, 1536, Note_on_c, 0, 53, 55
1, 1536, Note_on_c, 0, 69, 55
1, 1538, Note_on_c, 0, 60, 55
1, 1538, Note_on_c, 0, 72, 55
1, 1540, Note_on_c, 0, 64, 55
1, 1545, Note_on_c, 0, 76, 55
1, 1611, Note_off_c, 0, 53, 64
1, 1611, Note_off_c, 0, 69, 64
1, 1614, Note_off_c, 0, 60, 64
1, 1614, Note_off_c, 0, 72, 64
1, 1616, Note_off_c, 0, 64, 64
1, 1620, Note_off_c, 0, 76, 64
1, 1627, Note_off_c, 0, 41, 64
1, 1634, Note_on_c, 0, 84, 48
1, 1676, Note_off_c, 0, 84, 64
1, 1680, Note_on_c, 0, 81, 46
1, 1719, Note_off_c, 0, 81, 64
1, 1723, Note_on_c, 0, 40, 75
1, 1727, Note_on_c, 0, 52, 55
1, 1727, Note_on_c, 0, 67, 55
1, 1728, Note_on_c, 0, 62, 55
1, 1730, Note_on_c, 0, 59, 55
1, 1733, Note_on_c, 0, 79, 29
1, 1736, Note_on_c, 0, 71, 55
1, 1770, Note_off_c, 0, 79, 64
1, 1776, Note_on_c, 0, 76, 29
1, 1795, Note_off_c, 0, 40, 64
1, 1798, Note_off_c, 0, 52, 64
1, 1817, Note_off_c, 0, 62, 64
1, 1820, Note_off_c, 0, 67, 64
1, 1821, Note_off_c, 0, 76, 64
1, 1822, Note_off_c, 0, 59, 64
1, 1824, Note_on_c, 0, 69, 34
1, 1833, Note_off_c, 0, 71, 64
1, 1867, Note_on_c, 0, 33, 75
1, 1872, Note_on_c, 0, 45, 55
1, 1872, Note_on_c, 0, 57, 55
1, 1872, Note_on_c, 0, 60, 55
1, 1872, Note_on_c, 0, 64, 55
1, 1872, Note_on_c, 0, 67, 55
1, 1872, Note_off_c, 0, 69, 64
1, 1878, Note_on_c, 0, 74, 55
1, 1884, Note_on_c, 0, 81, 29
1, 2107, Note_off_c, 0, 33, 64
1, 2112, Note_on_c, 0, 79, 39
1, 2112, Note_off_c, 0, 81, 64
1, 2203, Note_on_c, 0, 35, 99
1, 2208, Note_off_c, 0, 45, 64
1, 2208, Note_off_c, 0, 57, 64
1, 2208, Note_off_c, 0, 67, 64
1, 2208, Note_on_c, 0, 77, 39
1, 2210, Note_off_c, 0, 60, 64
1, 2210, Note_off_c, 0, 64, 64
1, 2210, Note_off_c, 0, 79, 64
1, 2214, Note_off_c, 0, 74, 64
1, 2227, Note_off_c, 0, 35, 64
1, 2227, Note_on_c, 0, 36, 99
1, 2251, Note_off_c, 0, 36, 64
1, 2251, Note_on_c, 0, 38, 98
1, 2295, Note_off_c, 0, 38, 64
1, 2299, Note_on_c, 0, 41, 75
1, 2304, Note_on_c, 0, 53, 55
1, 2304, Note_on_c, 0, 64, 55
1, 2304, Note_on_c, 0, 69, 55
1, 2304, Note_off_c, 0, 77, 64
1, 2307, Note_on_c, 0, 60, 55
1, 2307, Note_on_c, 0, 72, 55
1, 2314, Note_on_c, 0, 76, 55
1, 2385, Note_off_c, 0, 64, 64
1, 2386, Note_off_c, 0, 53, 64
1, 2386, Note_off_c, 0, 69, 64
1, 2389, Note_off_c, 0, 60, 64
1, 2389, Note_off_c, 0, 72, 64
1, 2395, Note_off_c, 0, 41, 64
1, 2395, Note_off_c, 0, 76, 64
1, 2403, Note_on_c, 0, 84, 48
1, 2424, Note_on_c, 0, 83, 46
1, 2427, Note_off_c, 0, 84, 64
1, 2448, Note_on_c, 0, 81, 46
1, 2448, Note_off_c, 0, 83, 64
1, 2488, Note_off_c, 0, 81, 64
1, 2491, Note_on_c, 0, 40, 75
1, 2496, Note_on_c, 0, 52, 55
1, 2496, Note_on_c, 0, 62, 55
1, 2496, Note_on_c, 0, 67, 55
1, 2499, Note_on_c, 0, 59, 55
1, 2499, Note_on_c, 0, 71, 55
1, 2502, Note_on_c, 0, 79, 29
1, 2538, Note_off_c, 0, 79, 64
1, 2544, Note_on_c, 0, 76, 29
1, 2563, Note_off_c, 0, 40, 64
1, 2567, Note_off_c, 0, 52, 64
1, 2567, Note_off_c, 0, 62, 64
1, 2567, Note_off_c, 0, 67, 64
1, 2570, Note_off_c, 0, 59, 64
1, 2570, Note_off_c, 0, 71, 64
1, 2590, Note_off_c, 0, 76, 64
1, 2635, Note_on_c, 0, 33, 75
1, 2638, Note_on_c, 0, 60, 55
1, 2638, Note_on_c, 0, 64, 55
1, 2640, Note_on_c, 0, 45, 55
1, 2640, Note_on_c, 0, 57, 55
1, 2640, Note_on_c, 0, 67, 55
1, 2640, Note_on_c, 0, 74, 55
1, 2641, Note_on_c, 0, 79, 29
1, 2649, Note_on_c, 0, 83, 29
1, 2875, Note_off_c, 0, 33, 64
1, 2971, Note_on_c, 0, 35, 99
1, 2976, Note_off_c, 0, 45, 64
1, 2995, Note_off_c, 0, 35, 64
1, 2995, Note_on_c, 0, 38, 99
1, 3019, Note_off_c, 0, 38, 64
1, 3019, Note_on_c, 0, 40, 98
1, 3019, Note_off_c, 0, 60, 64
1, 3019, Note_off_c, 0, 64, 64
1, 3021, Note_off_c, 0, 67, 64
1, 3022, Note_off_c, 0, 57, 64
1, 3022, Note_off_c, 0, 74, 64
1, 3024, Note_off_c, 0, 79, 64
1, 3032, Note_off_c, 0, 83, 64
1, 3063, Note_off_c, 0, 40, 64
1, 0, Note_on_c, 0, 45, 78
1, 0, Note_on_c, 0, 55, 71
1, 0, Note_on_c, 0, 57, 80
1, 0, Note_on_c, 0, 60, 80
1, 0, Note_on_c, 0, 64, 80
1, 36, Note_off_c, 0, 45, 65
1, 36, Note_off_c, 0, 55, 50
1, 36, Note_off_c, 0, 57, 57
1, 36, Note_off_c, 0, 60, 59
1, 36, Note_off_c, 0, 64, 70
1, 94, Note_on_c, 0, 43, 80
1, 94, Note_on_c, 0, 55, 72
1, 95, Note_on_c, 0, 57, 58
1, 95, Note_on_c, 0, 59, 70
1, 95, Note_on_c, 0, 62, 70
1, 96, Note_on_c, 0, 79, 110
1, 130, Note_off_c, 0, 43, 45
1, 130, Note_off_c, 0, 55, 32
1, 131, Note_off_c, 0, 57, 49
1, 131, Note_off_c, 0, 59, 64
1, 131, Note_off_c, 0, 62, 75
1, 133, Note_off_c, 0, 79, 51
1, 144, Note_on_c, 0, 81, 97
1, 155, Note_off_c, 0, 81, 82
1, 189, Note_on_c, 0, 57, 70
1, 189, Note_on_c, 0, 60, 51
1, 189, Note_on_c, 0, 64, 66
1, 190, Note_on_c, 0, 41, 80
1, 190, Note_on_c, 0, 53, 71
1, 192, Note_on_c, 0, 79, 94
1, 225, Note_off_c, 0, 57, 50
1, 225, Note_off_c, 0, 60, 52
1, 225, Note_off_c, 0, 64, 51
1, 226, Note_off_c, 0, 41, 48
1, 226, Note_off_c, 0, 53, 42
1, 233, Note_off_c, 0, 79, 49
1, 240, Note_on_c, 0, 76, 108
1, 264, Note_off_c, 0, 76, 37
1, 269, Note_on_c, 0, 75, 108
1, 281, Note_off_c, 0, 75, 67
1, 287, Note_on_c, 0, 40, 78
1, 287, Note_on_c, 0, 50, 70
1, 287, Note_on_c, 0, 55, 70
1, 288, Note_on_c, 0, 59, 82
1, 288, Note_on_c, 0, 62, 85
1, 288, Note_on_c, 0, 74, 106
1, 315, Note_off_c, 0, 74, 47
1, 317, Note_on_c, 0, 72, 108
1, 323, Note_off_c, 0, 40, 72
1, 323, Note_off_c, 0, 50, 63
1, 323, Note_off_c, 0, 55, 33
1, 324, Note_off_c, 0, 59, 55
1, 324, Note_off_c, 0, 62, 57
1, 336, Note_on_c, 0, 44, 85
1, 337, Note_off_c, 0, 72, 53
1, 366, Note_on_c, 0, 69, 103
1, 372, Note_off_c, 0, 44, 77
1, 384, Note_on_c, 0, 45, 77
1, 385, Note_on_c, 0, 52, 69
1, 385, Note_on_c, 0, 57, 78
1, 386, Note_on_c, 0, 55, 64
1, 386, Note_on_c, 0, 60, 72
1, 386, Note_on_c, 0, 64, 83
1, 420, Note_off_c, 0, 45, 43
1, 421, Note_off_c, 0, 52, 51
1, 421, Note_off_c, 0, 57, 64
1, 422, Note_off_c, 0, 55, 34
1, 422, Note_off_c, 0, 60, 22
1, 422, Note_off_c, 0, 64, 46
1, 440, Note_off_c, 0, 69, 46
1, 480, Note_on_c, 0, 43, 89
1, 480, Note_on_c, 0, 55, 68
1, 480, Note_on_c, 0, 57, 71
1, 480, Note_on_c, 0, 59, 73
1, 480, Note_on_c, 0, 62, 70
1, 481, Note_on_c, 0, 67, 100
1, 514, Note_off_c, 0, 67, 45
1, 516, Note_off_c, 0, 43, 50
1, 516, Note_off_c, 0, 55, 41
1, 516, Note_off_c, 0, 57, 54
1, 516, Note_off_c, 0, 59, 68
1, 516, Note_off_c, 0, 62, 74
1, 528, Note_on_c, 0, 69, 114
1, 540, Note_off_c, 0, 69, 89
1, 575, Note_on_c, 0, 41, 80
1, 575, Note_on_c, 0, 57, 66
1, 575, Note_on_c, 0, 60, 67
1, 575, Note_on_c, 0, 64, 71
1, 576, Note_on_c, 0, 53, 70
1, 576, Note_on_c, 0, 72, 120
1, 611, Note_off_c, 0, 41, 42
1, 611, Note_off_c, 0, 57, 52
1, 611, Note_off_c, 0, 60, 41
1, 611, Note_off_c, 0, 64, 55
1, 612, Note_off_c, 0, 53, 35
1, 613, Note_off_c, 0, 72, 62
1, 624, Note_on_c, 0, 74, 80
1, 638, Note_off_c, 0, 74, 66
1, 669, Note_on_c, 0, 40, 67
1, 669, Note_on_c, 0, 52, 71
1, 669, Note_on_c, 0, 56, 80
1, 669, Note_on_c, 0, 60, 78
1, 671, Note_on_c, 0, 75, 81
1, 673, Note_on_c, 0, 76, 105
1, 680, Note_off_c, 0, 75, 98
1, 696, Note_off_c, 0, 76, 58
1, 701, Note_on_c, 0, 74, 68
1, 705, Note_off_c, 0, 40, 55
1, 705, Note_off_c, 0, 52, 64
1, 705, Note_off_c, 0, 56, 65
1, 705, Note_off_c, 0, 60, 53
1, 718, Note_on_c, 0, 44, 84
1, 720, Note_on_c, 0, 72, 100
1, 725, Note_off_c, 0, 74, 85
1, 747, Note_off_c, 0, 72, 81
1, 749, Note_on_c, 0, 69, 109
1, 754, Note_off_c, 0, 44, 76
1, 768, Note_on_c, 0, 45, 78
1, 768, Note_on_c, 0, 55, 71
1, 768, Note_on_c, 0, 57, 80
1, 768, Note_on_c, 0, 60, 80
1, 768, Note_on_c, 0, 64, 80
1, 770, Note_off_c, 0, 69, 88
1, 804, Note_off_c, 0, 45, 65
1, 804, Note_off_c, 0, 55, 50
1, 804, Note_off_c, 0, 57, 57
1, 804, Note_off_c, 0, 60, 59
1, 804, Note_off_c, 0, 64, 70
1, 862, Note_on_c, 0, 43, 80
1, 862, Note_on_c, 0, 55, 72
1, 863, Note_on_c, 0, 57, 58
1, 863, Note_on_c, 0, 59, 70
1, 863, Note_on_c, 0, 62, 70
1, 864, Note_on_c, 0, 79, 110
1, 898, Note_off_c, 0, 43, 45
1, 898, Note_off_c, 0, 55, 32
1, 899, Note_off_c, 0, 57, 49
1, 899, Note_off_c, 0, 59, 64
1, 899, Note_off_c, 0, 62, 75
1, 901, Note_off_c, 0, 79, 51
1, 912, Note_on_c, 0, 81, 97
1, 923, Note_off_c, 0, 81, 82
1, 957, Note_on_c, 0, 57, 70
1, 957, Note_on_c, 0, 60, 51
1, 957, Note_on_c, 0, 64, 66
1, 958, Note_on_c, 0, 41, 80
1, 958, Note_on_c, 0, 53, 71
1, 960, Note_on_c, 0, 79, 94
1, 993, Note_off_c, 0, 57, 50
1, 993, Note_off_c, 0, 60, 52
1, 993, Note_off_c, 0, 64, 51
1, 994, Note_off_c, 0, 41, 48
1, 994, Note_off_c, 0, 53, 42
1, 1001, Note_off_c, 0, 79, 49
1, 1008, Note_on_c, 0, 76, 108
1, 1032, Note_off_c, 0, 76, 37
1, 1037, Note_on_c, 0, 75, 108
1, 1049, Note_off_c, 0, 75, 67
1, 1055, Note_on_c, 0, 40, 78
1, 1055, Note_on_c, 0, 50, 70
1, 1055, Note_on_c, 0, 55, 70
1, 1056, Note_on_c, 0, 59, 82
1, 1056, Note_on_c, 0, 62, 85
1, 1056, Note_on_c, 0, 74, 106
1, 1083, Note_off_c, 0, 74, 47
1, 1085, Note_on_c, 0, 72, 108
1, 1091, Note_off_c, 0, 40, 72
1, 1091, Note_off_c, 0, 50, 63
1, 1091, Note_off_c, 0, 55, 33
1, 1092, Note_off_c, 0, 59, 55
1, 1092, Note_off_c, 0, 62, 57
1, 1104, Note_on_c, 0, 44, 85
1, 1105, Note_off_c, 0, 72, 53
1, 1134, Note_on_c, 0, 69, 103
1, 1140, Note_off_c, 0, 44, 77
1, 1152, Note_on_c, 0, 45, 77
1, 1153, Note_on_c, 0, 52, 69
1, 1153, Note_on_c, 0, 57, 78
1, 1154, Note_on_c, 0, 55, 64
1, 1154, Note_on_c, 0, 60, 72
1, 1154, Note_on_c, 0, 64, 83
1, 1188, Note_off_c, 0, 45, 43
1, 1189, Note_off_c, 0, 52, 51
1, 1189, Note_off_c, 0, 57, 64
1, 1190, Note_off_c, 0, 55, 34
1, 1190, Note_off_c, 0, 60, 22
1, 1190, Note_off_c, 0, 64, 46
1, 1208, Note_off_c, 0, 69, 46
1, 1248, Note_on_c, 0, 43, 89
1, 1248, Note_on_c, 0, 55, 68
1, 1248, Note_on_c, 0, 57, 71
1, 1248, Note_on_c, 0, 59, 73
1, 1248, Note_on_c, 0, 62, 70
1, 1249, Note_on_c, 0, 67, 100
1, 1282, Note_off_c, 0, 67, 45
1, 1284, Note_off_c, 0, 43, 50
1, 1284, Note_off_c, 0, 55, 41
1, 1284, Note_off_c, 0, 57, 54
1, 1284, Note_off_c, 0, 59, 68
1, 1284, Note_off_c, 0, 62, 74
1, 1296, Note_on_c, 0, 69, 114
1, 1308, Note_off_c, 0, 69, 89
1, 1343, Note_on_c, 0, 41, 80
1, 1343, Note_on_c, 0, 57, 66
1, 1343, Note_on_c, 0, 60, 67
1, 1343, Note_on_c, 0, 64, 71
1, 1344, Note_on_c, 0, 53, 70
1, 1344, Note_on_c, 0, 72, 120
1, 1379, Note_off_c, 0, 41, 42
1, 1379, Note_off_c, 0, 57, 52
1, 1379, Note_off_c, 0, 60, 41
1, 1379, Note_off_c, 0, 64, 55
1, 1380, Note_off_c, 0, 53, 35
1, 1381, Note_off_c, 0, 72, 62
1, 1392, Note_on_c, 0, 74, 80
1, 1406, Note_off_c, 0, 74, 66
1, 1437, Note_on_c, 0, 40, 67
1, 1437, Note_on_c, 0, 52, 71
1, 1437, Note_on_c, 0, 56, 80
1, 1437, Note_on_c, 0, 60, 78
1, 1439, Note_on_c, 0, 75, 81
1, 1441, Note_on_c, 0, 76, 105
1, 1448, Note_off_c, 0, 75, 98
1, 1464, Note_off_c, 0, 76, 58
1, 1469, Note_on_c, 0, 74, 68
1, 1473, Note_off_c, 0, 40, 55
1, 1473, Note_off_c, 0, 52, 64
1, 1473, Note_off_c, 0, 56, 65
1, 1473, Note_off_c, 0, 60, 53
1, 1486, Note_on_c, 0, 44, 84
1, 1488, Note_on_c, 0, 76, 100
1, 1493, Note_off_c, 0, 74, 85
1, 1515, Note_off_c, 0, 76, 81
1, 1517, Note_on_c, 0, 69, 109
1, 1522, Note_off_c, 0, 44, 76
1, 1535, Note_off_c, 0, 69, 88
1, 0, Note_on_c, 0, 50, 64
1, 0, Note_on_c, 0, 62, 57
1, 0, Note_on_c, 0, 65, 45
1, 0, Note_on_c, 0, 69, 81
1, 0, Note_on_c, 0, 72, 76
1, 96, Note_on_c, 0, 74, 102
1, 110, Note_off_c, 0, 74, 73
1, 144, Note_on_c, 0, 74, 77
1, 144, Note_on_c, 0, 81, 97
1, 155, Note_off_c, 0, 74, 74
1, 155, Note_off_c, 0, 81, 89
1, 172, Note_off_c, 0, 50, 39
1, 172, Note_on_c, 0, 52, 66
1, 172, Note_off_c, 0, 62, 42
1, 172, Note_on_c, 0, 62, 63
1, 172, Note_off_c, 0, 65, 26
1, 172, Note_on_c, 0, 67, 58
1, 172, Note_off_c, 0, 69, 62
1, 172, Note_on_c, 0, 71, 93
1, 172, Note_off_c, 0, 72, 49
1, 192, Note_on_c, 0, 74, 86
1, 192, Note_on_c, 0, 84, 67
1, 199, Note_off_c, 0, 84, 96
1, 200, Note_on_c, 0, 86, 95
1, 228, Note_off_c, 0, 86, 75
1, 240, Note_on_c, 0, 84, 75
1, 250, Note_off_c, 0, 84, 76
1, 252, Note_off_c, 0, 74, 39
1, 288, Note_on_c, 0, 74, 95
1, 288, Note_on_c, 0, 83, 108
1, 318, Note_off_c, 0, 83, 69
1, 336, Note_on_c, 0, 84, 94
1, 349, Note_off_c, 0, 74, 71
1, 350, Note_off_c, 0, 84, 59
1, 364, Note_on_c, 0, 45, 79
1, 364, Note_off_c, 0, 52, 52
1, 364, Note_on_c, 0, 57, 60
1, 364, Note_on_c, 0, 60, 57
1, 364, Note_off_c, 0, 62, 38
1, 364, Note_on_c, 0, 64, 79
1, 364, Note_off_c, 0, 67, 20
1, 364, Note_on_c, 0, 67, 67
1, 364, Note_off_c, 0, 71, 67
1, 364, Note_on_c, 0, 74, 72
1, 364, Note_on_c, 0, 83, 100
1, 410, Note_off_c, 0, 74, 12
1, 423, Note_off_c, 0, 83, 74
1, 432, Note_on_c, 0, 74, 92
1, 432, Note_on_c, 0, 81, 106
1, 444, Note_off_c, 0, 81, 79
1, 446, Note_off_c, 0, 74, 69
1, 528, Note_on_c, 0, 74, 95
1, 540, Note_off_c, 0, 74, 86
1, 576, Note_on_c, 0, 76, 98
1, 576, Note_on_c, 0, 79, 100
1, 608, Note_off_c, 0, 76, 37
1, 609, Note_off_c, 0, 79, 58
1, 624, Note_on_c, 0, 76, 87
1, 624, Note_on_c, 0, 81, 103
1, 635, Note_off_c, 0, 81, 77
1, 636, Note_off_c, 0, 76, 66
1, 672, Note_on_c, 0, 76, 97
1, 672, Note_on_c, 0, 84, 95
1, 714, Note_off_c, 0, 76, 61
1, 714, Note_off_c, 0, 84, 82
1, 720, Note_on_c, 0, 76, 81
1, 720, Note_on_c, 0, 86, 103
1, 742, Note_off_c, 0, 86, 82
1, 745, Note_off_c, 0, 76, 80
1, 767, Note_off_c, 0, 45, 35
1, 767, Note_off_c, 0, 57, 39
1, 767, Note_off_c, 0, 60, 1
1, 767, Note_off_c, 0, 64, 39
1, 767, Note_off_c, 0, 67, 13
1, 768, Note_on_c, 0, 50, 69
1, 768, Note_on_c, 0, 62, 65
1, 768, Note_on_c, 0, 65, 69
1, 768, Note_on_c, 0, 69, 90
1, 768, Note_on_c, 0, 72, 84
1, 864, Note_on_c, 0, 74, 102
1, 878, Note_off_c, 0, 74, 73
1, 912, Note_on_c, 0, 74, 77
1, 912, Note_on_c, 0, 81, 97
1, 923, Note_off_c, 0, 74, 74
1, 923, Note_off_c, 0, 81, 89
1, 940, Note_off_c, 0, 50, 58
1, 940, Note_on_c, 0, 52, 75
1, 940, Note_off_c, 0, 62, 48
1, 940, Note_on_c, 0, 62, 70
1, 940, Note_off_c, 0, 65, 25
1, 940, Note_on_c, 0, 67, 66
1, 940, Note_off_c, 0, 69, 64
1, 940, Note_on_c, 0, 71, 87
1, 940, Note_off_c, 0, 72, 29
1, 960, Note_on_c, 0, 74, 86
1, 960, Note_on_c, 0, 84, 67
1, 967, Note_off_c, 0, 84, 96
1, 968, Note_on_c, 0, 86, 95
1, 996, Note_off_c, 0, 86, 75
1, 1008, Note_on_c, 0, 84, 75
1, 1018, Note_off_c, 0, 84, 76
1, 1020, Note_off_c, 0, 74, 39
1, 1056, Note_on_c, 0, 74, 95
1, 1056, Note_on_c, 0, 83, 108
1, 1086, Note_off_c, 0, 83, 69
1, 1104, Note_on_c, 0, 88, 94
1, 1117, Note_off_c, 0, 74, 71
1, 1118, Note_off_c, 0, 88, 59
1, 1132, Note_on_c, 0, 45, 69
1, 1132, Note_off_c, 0, 52, 57
1, 1132, Note_on_c, 0, 57, 33
1, 1132, Note_on_c, 0, 60, 49
1, 1132, Note_off_c, 0, 62, 43
1, 1132, Note_on_c, 0, 64, 68
1, 1132, Note_off_c, 0, 67, 42
1, 1132, Note_on_c, 0, 67, 76
1, 1132, Note_off_c, 0, 71, 58
1, 1132, Note_on_c, 0, 71, 75
1, 1132, Note_on_c, 0, 74, 72
1, 1132, Note_on_c, 0, 83, 100
1, 1178, Note_off_c, 0, 74, 12
1, 1191, Note_off_c, 0, 83, 74
1, 1200, Note_on_c, 0, 74, 92
1, 1200, Note_on_c, 0, 81, 106
1, 1212, Note_off_c, 0, 81, 79
1, 1214, Note_off_c, 0, 74, 69
1, 1296, Note_on_c, 0, 74, 95
1, 1308, Note_off_c, 0, 74, 86
1, 1344, Note_on_c, 0, 76, 98
1, 1344, Note_on_c, 0, 84, 100
1, 1376, Note_off_c, 0, 76, 37
1, 1377, Note_off_c, 0, 84, 58
1, 1392, Note_on_c, 0, 76, 87
1, 1392, Note_on_c, 0, 86, 103
1, 1403, Note_off_c, 0, 86, 77
1, 1404, Note_off_c, 0, 76, 66
1, 1440, Note_on_c, 0, 76, 97
1, 1440, Note_on_c, 0, 79, 95
1, 1482, Note_off_c, 0, 79, 82
1, 1483, Note_off_c, 0, 76, 61
1, 1487, Note_off_c, 0, 45, 59
1, 1487, Note_off_c, 0, 57, 44
1, 1487, Note_off_c, 0, 60, 11
1, 1487, Note_off_c, 0, 64, 30
1, 1487, Note_off_c, 0, 67, 1
1, 1487, Note_off_c, 0, 71, 57
1, 1488, Note_on_c, 0, 60, 60
1, 1488, Note_on_c, 0, 76, 81
1, 1488, Note_on_c, 0, 81, 103
1, 1510, Note_off_c, 0, 81, 82
1, 1513, Note_off_c, 0, 76, 80
1, 1535, Note_off_c, 0, 60, 80
1, 0, Note_on_c, 0, 45, 99
1, 0, Note_on_c, 0, 52, 99
1, 0, Note_on_c, 0, 57, 99
1, 0, Note_on_c, 0, 60, 99
1, 0, Note_on_c, 0, 67, 99
1, 0, Note_on_c, 0, 84, 127
1, 24, Note_off_c, 0, 45, 64
1, 24, Note_on_c, 0, 45, 99
1, 24, Note_off_c, 0, 52, 64
1, 24, Note_on_c, 0, 52, 99
1, 24, Note_off_c, 0, 57, 64
1, 24, Note_on_c, 0, 57, 99
1, 24, Note_off_c, 0, 60, 64
1, 24, Note_on_c, 0, 60, 99
1, 24, Note_off_c, 0, 67, 64
1, 24, Note_on_c, 0, 67, 99
1, 48, Note_off_c, 0, 45, 64
1, 48, Note_on_c, 0, 45, 99
1, 48, Note_off_c, 0, 52, 64
1, 48, Note_on_c, 0, 52, 99
1, 48, Note_off_c, 0, 57, 64
1, 48, Note_on_c, 0, 57, 99
1, 48, Note_off_c, 0, 60, 64
1, 48, Note_on_c, 0, 60, 99
1, 48, Note_off_c, 0, 67, 64
1, 48, Note_on_c, 0, 67, 99
1, 72, Note_off_c, 0, 45, 64
1, 72, Note_on_c, 0, 45, 99
1, 72, Note_off_c, 0, 52, 64
1, 72, Note_on_c, 0, 52, 99
1, 72, Note_off_c, 0, 57, 64
1, 72, Note_on_c, 0, 57, 99
1, 72, Note_off_c, 0, 60, 64
1, 72, Note_on_c, 0, 60, 99
1, 72, Note_off_c, 0, 67, 64
1, 72, Note_on_c, 0, 67, 99
1, 96, Note_off_c, 0, 45, 64
1, 96, Note_off_c, 0, 52, 64
1, 96, Note_off_c, 0, 57, 64
1, 96, Note_off_c, 0, 60, 64
1, 96, Note_off_c, 0, 67, 64
1, 96, Note_off_c, 0, 84, 64
1, 144, Note_on_c, 0, 41, 99
1, 144, Note_on_c, 0, 48, 99
1, 144, Note_on_c, 0, 53, 99
1, 144, Note_on_c, 0, 55, 99
1, 144, Note_on_c, 0, 67, 99
1, 144, Note_on_c, 0, 84, 127
1, 168, Note_off_c, 0, 41, 64
1, 168, Note_on_c, 0, 41, 99
1, 168, Note_off_c, 0, 48, 64
1, 168, Note_on_c, 0, 48, 99
1, 168, Note_off_c, 0, 53, 64
1, 168, Note_on_c, 0, 53, 99
1, 168, Note_off_c, 0, 55, 64
1, 168, Note_on_c, 0, 55, 99
1, 168, Note_off_c, 0, 67, 64
1, 168, Note_on_c, 0, 67, 99
1, 192, Note_off_c, 0, 41, 64
1, 192, Note_on_c, 0, 41, 99
1, 192, Note_off_c, 0, 48, 64
1, 192, Note_on_c, 0, 48, 99
1, 192, Note_off_c, 0, 53, 64
1, 192, Note_on_c, 0, 53, 99
1, 192, Note_off_c, 0, 55, 64
1, 192, Note_on_c, 0, 55, 99
1, 192, Note_off_c, 0, 67, 64
1, 192, Note_on_c, 0, 67, 99
1, 192, Note_off_c, 0, 84, 64
1, 192, Note_on_c, 0, 91, 127
1, 216, Note_off_c, 0, 41, 64
1, 216, Note_on_c, 0, 41, 99
1, 216, Note_off_c, 0, 48, 64
1, 216, Note_on_c, 0, 48, 99
1, 216, Note_off_c, 0, 53, 64
1, 216, Note_on_c, 0, 53, 99
1, 216, Note_off_c, 0, 55, 64
1, 216, Note_on_c, 0, 55, 99
1, 216, Note_off_c, 0, 67, 64
1, 216, Note_on_c, 0, 67, 99
1, 240, Note_off_c, 0, 41, 64
1, 240, Note_on_c, 0, 41, 99
1, 240, Note_off_c, 0, 48, 64
1, 240, Note_on_c, 0, 48, 99
1, 240, Note_off_c, 0, 53, 64
1, 240, Note_on_c, 0, 53, 99
1, 240, Note_off_c, 0, 55, 64
1, 240, Note_on_c, 0, 55, 99
1, 240, Note_off_c, 0, 67, 64
1, 240, Note_on_c, 0, 67, 99
1, 240, Note_off_c, 0, 91, 64
1, 264, Note_off_c, 0, 41, 64
1, 264, Note_on_c, 0, 41, 99
1, 264, Note_off_c, 0, 48, 64
1, 264, Note_on_c, 0, 48, 99
1, 264, Note_off_c, 0, 53, 64
1, 264, Note_on_c, 0, 53, 99
1, 264, Note_off_c, 0, 55, 64
1, 264, Note_on_c, 0, 55, 99
1, 264, Note_off_c, 0, 67, 64
1, 264, Note_on_c, 0, 67, 99
1, 264, Note_on_c, 0, 89, 127
1, 288, Note_off_c, 0, 41, 64
1, 288, Note_off_c, 0, 48, 64
1, 288, Note_off_c, 0, 53, 64
1, 288, Note_off_c, 0, 55, 64
1, 288, Note_off_c, 0, 67, 64
1, 312, Note_off_c, 0, 89, 64
1, 336, Note_on_c, 0, 41, 99
1, 336, Note_on_c, 0, 48, 99
1, 336, Note_on_c, 0, 53, 99
1, 336, Note_on_c, 0, 55, 99
1, 336, Note_on_c, 0, 67, 99
1, 336, Note_on_c, 0, 88, 127
1, 360, Note_off_c, 0, 41, 64
1, 360, Note_on_c, 0, 41, 99
1, 360, Note_off_c, 0, 48, 64
1, 360, Note_on_c, 0, 48, 99
1, 360, Note_off_c, 0, 53, 64
1, 360, Note_on_c, 0, 53, 99
1, 360, Note_off_c, 0, 55, 64
1, 360, Note_on_c, 0, 55, 99
1, 360, Note_off_c, 0, 67, 64
1, 360, Note_on_c, 0, 67, 99
1, 384, Note_off_c, 0, 41, 64
1, 384, Note_on_c, 0, 43, 99
1, 384, Note_off_c, 0, 48, 64
1, 384, Note_on_c, 0, 50, 99
1, 384, Note_off_c, 0, 53, 64
1, 384, Note_off_c, 0, 55, 64
1, 384, Note_on_c, 0, 55, 99
1, 384, Note_on_c, 0, 59, 99
1, 384, Note_off_c, 0, 67, 64
1, 384, Note_on_c, 0, 67, 99
1, 384, Note_on_c, 0, 86, 127
1, 384, Note_off_c, 0, 88, 64
1, 408, Note_off_c, 0, 43, 64
1, 408, Note_on_c, 0, 43, 99
1, 408, Note_off_c, 0, 50, 64
1, 408, Note_on_c, 0, 50, 99
1, 408, Note_off_c, 0, 55, 64
1, 408, Note_on_c, 0, 55, 99
1, 408, Note_off_c, 0, 59, 64
1, 408, Note_on_c, 0, 59, 99
1, 408, Note_off_c, 0, 67, 64
1, 408, Note_on_c, 0, 67, 99
1, 432, Note_off_c, 0, 43, 64
1, 432, Note_on_c, 0, 43, 99
1, 432, Note_off_c, 0, 50, 64
1, 432, Note_on_c, 0, 50, 99
1, 432, Note_off_c, 0, 55, 64
1, 432, Note_on_c, 0, 55, 99
1, 432, Note_off_c, 0, 59, 64
1, 432, Note_on_c, 0, 59, 99
1, 432, Note_off_c, 0, 67, 64
1, 432, Note_on_c, 0, 67, 99
1, 456, Note_off_c, 0, 43, 64
1, 456, Note_on_c, 0, 43, 99
1, 456, Note_off_c, 0, 50, 64
1, 456, Note_on_c, 0, 50, 99
1, 456, Note_off_c, 0, 55, 64
1, 456, Note_on_c, 0, 55, 99
1, 456, Note_off_c, 0, 59, 64
1, 456, Note_on_c, 0, 59, 99
1, 456, Note_off_c, 0, 67, 64
1, 456, Note_on_c, 0, 67, 99
1, 480, Note_off_c, 0, 43, 64
1, 480, Note_on_c, 0, 43, 99
1, 480, Note_off_c, 0, 50, 64
1, 480, Note_on_c, 0, 50, 99
1, 480, Note_off_c, 0, 55, 64
1, 480, Note_on_c, 0, 55, 99
1, 480, Note_off_c, 0, 59, 64
1, 480, Note_on_c, 0, 59, 99
1, 480, Note_off_c, 0, 67, 64
1, 480, Note_on_c, 0, 67, 99
1, 504, Note_off_c, 0, 43, 64
1, 504, Note_on_c, 0, 43, 99
1, 504, Note_off_c, 0, 50, 64
1, 504, Note_on_c, 0, 50, 99
1, 504, Note_off_c, 0, 55, 64
1, 504, Note_on_c, 0, 55, 99
1, 504, Note_off_c, 0, 59, 64
1, 504, Note_on_c, 0, 59, 99
1, 504, Note_off_c, 0, 67, 64
1, 504, Note_on_c, 0, 67, 99
1, 528, Note_off_c, 0, 43, 64
1, 528, Note_on_c, 0, 45, 99
1, 528, Note_off_c, 0, 50, 64
1, 528, Note_on_c, 0, 52, 99
1, 528, Note_off_c, 0, 55, 64
1, 528, Note_on_c, 0, 55, 99
1, 528, Note_off_c, 0, 59, 64
1, 528, Note_on_c, 0, 60, 99
1, 528, Note_off_c, 0, 67, 64
1, 528, Note_on_c, 0, 67, 99
1, 528, Note_off_c, 0, 86, 64
1, 528, Note_on_c, 0, 88, 127
1, 552, Note_off_c, 0, 45, 64
1, 552, Note_on_c, 0, 45, 99
1, 552, Note_off_c, 0, 52, 64
1, 552, Note_on_c, 0, 52, 99
1, 552, Note_off_c, 0, 55, 64
1, 552, Note_on_c, 0, 55, 99
1, 552, Note_off_c, 0, 60, 64
1, 552, Note_on_c, 0, 60, 99
1, 552, Note_off_c, 0, 67, 64
1, 552, Note_on_c, 0, 67, 99
1, 576, Note_off_c, 0, 45, 64
1, 576, Note_on_c, 0, 45, 99
1, 576, Note_off_c, 0, 52, 64
1, 576, Note_on_c, 0, 52, 99
1, 576, Note_off_c, 0, 55, 64
1, 576, Note_on_c, 0, 55, 99
1, 576, Note_off_c, 0, 60, 64
1, 576, Note_on_c, 0, 60, 99
1, 576, Note_off_c, 0, 67, 64
1, 576, Note_on_c, 0, 67, 99
1, 600, Note_off_c, 0, 45, 64
1, 600, Note_on_c, 0, 45, 99
1, 600, Note_off_c, 0, 52, 64
1, 600, Note_on_c, 0, 52, 99
1, 600, Note_off_c, 0, 55, 64
1, 600, Note_on_c, 0, 55, 99
1, 600, Note_off_c, 0, 60, 64
1, 600, Note_on_c, 0, 60, 99
1, 600, Note_off_c, 0, 67, 64
1, 600, Note_on_c, 0, 67, 99
1, 624, Note_off_c, 0, 45, 64
1, 624, Note_on_c, 0, 45, 99
1, 624, Note_off_c, 0, 52, 64
1, 624, Note_on_c, 0, 52, 99
1, 624, Note_off_c, 0, 55, 64
1, 624, Note_on_c, 0, 55, 99
1, 624, Note_off_c, 0, 60, 64
1, 624, Note_on_c, 0, 60, 99
1, 624, Note_off_c, 0, 67, 64
1, 624, Note_on_c, 0, 67, 99
1, 648, Note_off_c, 0, 45, 64
1, 648, Note_on_c, 0, 45, 99
1, 648, Note_off_c, 0, 52, 64
1, 648, Note_on_c, 0, 52, 99
1, 648, Note_off_c, 0, 55, 64
1, 648, Note_on_c, 0, 55, 99
1, 648, Note_off_c, 0, 60, 64
1, 648, Note_on_c, 0, 60, 99
1, 648, Note_off_c, 0, 67, 64
1, 648, Note_on_c, 0, 67, 99
1, 672, Note_off_c, 0, 45, 64
1, 672, Note_off_c, 0, 52, 64
1, 672, Note_off_c, 0, 55, 64
1, 672, Note_off_c, 0, 60, 64
1, 672, Note_off_c, 0, 67, 64
1, 672, Note_off_c, 0, 88, 64
1, 768, Note_on_c, 0, 48, 99
1, 768, Note_on_c, 0, 55, 99
1, 768, Note_on_c, 0, 60, 99
1, 768, Note_on_c, 0, 64, 99
1, 768, Note_on_c, 0, 67, 99
1, 768, Note_on_c, 0, 91, 127
1, 792, Note_off_c, 0, 48, 64
1, 792, Note_on_c, 0, 48, 99
1, 792, Note_off_c, 0, 55, 64
1, 792, Note_on_c, 0, 55, 99
1, 792, Note_off_c, 0, 60, 64
1, 792, Note_on_c, 0, 60, 99
1, 792, Note_off_c, 0, 64, 64
1, 792, Note_on_c, 0, 64, 99
1, 792, Note_off_c, 0, 67, 64
1, 792, Note_on_c, 0, 67, 99
1, 816, Note_off_c, 0, 48, 64
1, 816, Note_on_c, 0, 48, 99
1, 816, Note_off_c, 0, 55, 64
1, 816, Note_on_c, 0, 55, 99
1, 816, Note_off_c, 0, 60, 64
1, 816, Note_on_c, 0, 60, 99
1, 816, Note_off_c, 0, 64, 64
1, 816, Note_on_c, 0, 64, 99
1, 816, Note_off_c, 0, 67, 64
1, 816, Note_on_c, 0, 67, 99
1, 840, Note_off_c, 0, 48, 64
1, 840, Note_on_c, 0, 48, 99
1, 840, Note_off_c, 0, 55, 64
1, 840, Note_on_c, 0, 55, 99
1, 840, Note_off_c, 0, 60, 64
1, 840, Note_on_c, 0, 60, 99
1, 840, Note_off_c, 0, 64, 64
1, 840, Note_on_c, 0, 64, 99
1, 840, Note_off_c, 0, 67, 64
1, 840, Note_on_c, 0, 67, 99
1, 864, Note_off_c, 0, 48, 64
1, 864, Note_off_c, 0, 55, 64
1, 864, Note_off_c, 0, 60, 64
1, 864, Note_off_c, 0, 64, 64
1, 864, Note_off_c, 0, 67, 64
1, 912, Note_on_c, 0, 41, 99
1, 912, Note_on_c, 0, 48, 99
1, 912, Note_on_c, 0, 53, 99
1, 912, Note_on_c, 0, 55, 99
1, 912, Note_on_c, 0, 67, 99
1, 912, Note_on_c, 0, 84, 127
1, 912, Note_off_c, 0, 91, 64
1, 936, Note_off_c, 0, 41, 64
1, 936, Note_on_c, 0, 41, 99
1, 936, Note_off_c, 0, 48, 64
1, 936, Note_on_c, 0, 48, 99
1, 936, Note_off_c, 0, 53, 64
1, 936, Note_on_c, 0, 53, 99
1, 936, Note_off_c, 0, 55, 64
1, 936, Note_on_c, 0, 55, 99
1, 936, Note_off_c, 0, 67, 64
1, 936, Note_on_c, 0, 67, 99
1, 960, Note_off_c, 0, 41, 64
1, 960, Note_on_c, 0, 41, 99
1, 960, Note_off_c, 0, 48, 64
1, 960, Note_on_c, 0, 48, 99
1, 960, Note_off_c, 0, 53, 64
1, 960, Note_on_c, 0, 53, 99
1, 960, Note_off_c, 0, 55, 64
1, 960, Note_on_c, 0, 55, 99
1, 960, Note_off_c, 0, 67, 64
1, 960, Note_on_c, 0, 67, 99
1, 960, Note_off_c, 0, 84, 64
1, 960, Note_on_c, 0, 88, 127
1, 984, Note_off_c, 0, 41, 64
1, 984, Note_on_c, 0, 41, 99
1, 984, Note_off_c, 0, 48, 64
1, 984, Note_on_c, 0, 48, 99
1, 984, Note_off_c, 0, 53, 64
1, 984, Note_on_c, 0, 53, 99
1, 984, Note_off_c, 0, 55, 64
1, 984, Note_on_c, 0, 55, 99
1, 984, Note_off_c, 0, 67, 64
1, 984, Note_on_c, 0, 67, 99
1, 1008, Note_off_c, 0, 41, 64
1, 1008, Note_on_c, 0, 41, 99
1, 1008, Note_off_c, 0, 48, 64
1, 1008, Note_on_c, 0, 48, 99
1, 1008, Note_off_c, 0, 53, 64
1, 1008, Note_on_c, 0, 53, 99
1, 1008, Note_off_c, 0, 55, 64
1, 1008, Note_on_c, 0, 55, 99
1, 1008, Note_off_c, 0, 67, 64
1, 1008, Note_on_c, 0, 67, 99
1, 1008, Note_off_c, 0, 88, 64
1, 1032, Note_off_c, 0, 41, 64
1, 1032, Note_on_c, 0, 41, 99
1, 1032, Note_off_c, 0, 48, 64
1, 1032, Note_on_c, 0, 48, 99
1, 1032, Note_off_c, 0, 53, 64
1, 1032, Note_on_c, 0, 53, 99
1, 1032, Note_off_c, 0, 55, 64
1, 1032, Note_on_c, 0, 55, 99
1, 1032, Note_off_c, 0, 67, 64
1, 1032, Note_on_c, 0, 67, 99
1, 1032, Note_on_c, 0, 89, 127
1, 1056, Note_off_c, 0, 41, 64
1, 1056, Note_off_c, 0, 48, 64
1, 1056, Note_off_c, 0, 53, 64
1, 1056, Note_off_c, 0, 55, 64
1, 1056, Note_off_c, 0, 67, 64
1, 1080, Note_off_c, 0, 89, 64
1, 1104, Note_on_c, 0, 41, 99
1, 1104, Note_on_c, 0, 48, 99
1, 1104, Note_on_c, 0, 53, 99
1, 1104, Note_on_c, 0, 55, 99
1, 1104, Note_on_c, 0, 67, 99
1, 1104, Note_on_c, 0, 91, 127
1, 1128, Note_off_c, 0, 41, 64
1, 1128, Note_on_c, 0, 41, 99
1, 1128, Note_off_c, 0, 48, 64
1, 1128, Note_on_c, 0, 48, 99
1, 1128, Note_off_c, 0, 53, 64
1, 1128, Note_on_c, 0, 53, 99
1, 1128, Note_off_c, 0, 55, 64
1, 1128, Note_on_c, 0, 55, 99
1, 1128, Note_off_c, 0, 67, 64
1, 1128, Note_on_c, 0, 67, 99
1, 1152, Note_off_c, 0, 41, 64
1, 1152, Note_on_c, 0, 43, 99
1, 1152, Note_off_c, 0, 48, 64
1, 1152, Note_on_c, 0, 50, 99
1, 1152, Note_off_c, 0, 53, 64
1, 1152, Note_off_c, 0, 55, 64
1, 1152, Note_on_c, 0, 55, 99
1, 1152, Note_on_c, 0, 59, 99
1, 1152, Note_off_c, 0, 67, 64
1, 1152, Note_on_c, 0, 67, 99
1, 1152, Note_on_c, 0, 83, 127
1, 1152, Note_off_c, 0, 91, 64
1, 1176, Note_off_c, 0, 43, 64
1, 1176, Note_on_c, 0, 43, 99
1, 1176, Note_off_c, 0, 50, 64
1, 1176, Note_on_c, 0, 50, 99
1, 1176, Note_off_c, 0, 55, 64
1, 1176, Note_on_c, 0, 55, 99
1, 1176, Note_off_c, 0, 59, 64
1, 1176, Note_on_c, 0, 59, 99
1, 1176, Note_off_c, 0, 67, 64
1, 1176, Note_on_c, 0, 67, 99
1, 1200, Note_off_c, 0, 43, 64
1, 1200, Note_on_c, 0, 43, 99
1, 1200, Note_off_c, 0, 50, 64
1, 1200, Note_on_c, 0, 50, 99
1, 1200, Note_off_c, 0, 55, 64
1, 1200, Note_on_c, 0, 55, 99
1, 1200, Note_off_c, 0, 59, 64
1, 1200, Note_on_c, 0, 59, 99
1, 1200, Note_off_c, 0, 67, 64
1, 1200, Note_on_c, 0, 67, 99
1, 1224, Note_off_c, 0, 43, 64
1, 1224, Note_on_c, 0, 43, 99
1, 1224, Note_off_c, 0, 50, 64
1, 1224, Note_on_c, 0, 50, 99
1, 1224, Note_off_c, 0, 55, 64
1, 1224, Note_on_c, 0, 55, 99
1, 1224, Note_off_c, 0, 59, 64
1, 1224, Note_on_c, 0, 59, 99
1, 1224, Note_off_c, 0, 67, 64
1, 1224, Note_on_c, 0, 67, 99
1, 1248, Note_off_c, 0, 43, 64
1, 1248, Note_on_c, 0, 43, 99
1, 1248, Note_off_c, 0, 50, 64
1, 1248, Note_on_c, 0, 50, 99
1, 1248, Note_off_c, 0, 55, 64
1, 1248, Note_on_c, 0, 55, 99
1, 1248, Note_off_c, 0, 59, 64
1, 1248, Note_on_c, 0, 59, 99
1, 1248, Note_off_c, 0, 67, 64
1, 1248, Note_on_c, 0, 67, 99
1, 1272, Note_off_c, 0, 43, 64
1, 1272, Note_on_c, 0, 43, 99
1, 1272, Note_off_c, 0, 50, 64
1, 1272, Note_on_c, 0, 50, 99
1, 1272, Note_off_c, 0, 55, 64
1, 1272, Note_on_c, 0, 55, 99
1, 1272, Note_off_c, 0, 59, 64
1, 1272, Note_on_c, 0, 59, 99
1, 1272, Note_off_c, 0, 67, 64
1, 1272, Note_on_c, 0, 67, 99
1, 1296, Note_off_c, 0, 43, 64
1, 1296, Note_on_c, 0, 45, 99
1, 1296, Note_off_c, 0, 50, 64
1, 1296, Note_on_c, 0, 52, 99
1, 1296, Note_off_c, 0, 55, 64
1, 1296, Note_on_c, 0, 55, 99
1, 1296, Note_off_c, 0, 59, 64
1, 1296, Note_on_c, 0, 60, 99
1, 1296, Note_off_c, 0, 67, 64
1, 1296, Note_on_c, 0, 67, 99
1, 1296, Note_on_c, 0, 79, 127
1, 1296, Note_off_c, 0, 83, 64
1, 1320, Note_off_c, 0, 45, 64
1, 1320, Note_on_c, 0, 45, 99
1, 1320, Note_off_c, 0, 52, 64
1, 1320, Note_on_c, 0, 52, 99
1, 1320, Note_off_c, 0, 55, 64
1, 1320, Note_on_c, 0, 55, 99
1, 1320, Note_off_c, 0, 60, 64
1, 1320, Note_on_c, 0, 60, 99
1, 1320, Note_off_c, 0, 67, 64
1, 1320, Note_on_c, 0, 67, 99
1, 1344, Note_off_c, 0, 45, 64
1, 1344, Note_on_c, 0, 45, 99
1, 1344, Note_off_c, 0, 52, 64
1, 1344, Note_on_c, 0, 52, 99
1, 1344, Note_off_c, 0, 55, 64
1, 1344, Note_on_c, 0, 55, 99
1, 1344, Note_off_c, 0, 60, 64
1, 1344, Note_on_c, 0, 60, 99
1, 1344, Note_off_c, 0, 67, 64
1, 1344, Note_on_c, 0, 67, 99
1, 1368, Note_off_c, 0, 45, 64
1, 1368, Note_on_c, 0, 45, 99
1, 1368, Note_off_c, 0, 52, 64
1, 1368, Note_on_c, 0, 52, 99
1, 1368, Note_off_c, 0, 55, 64
1, 1368, Note_on_c, 0, 55, 99
1, 1368, Note_off_c, 0, 60, 64
1, 1368, Note_on_c, 0, 60, 99
1, 1368, Note_off_c, 0, 67, 64
1, 1368, Note_on_c, 0, 67, 99
1, 1392, Note_off_c, 0, 45, 64
1, 1392, Note_on_c, 0, 45, 99
1, 1392, Note_off_c, 0, 52, 64
1, 1392, Note_on_c, 0, 52, 99
1, 1392, Note_off_c, 0, 55, 64
1, 1392, Note_on_c, 0, 55, 99
1, 1392, Note_off_c, 0, 60, 64
1, 1392, Note_on_c, 0, 60, 99
1, 1392, Note_off_c, 0, 67, 64
1, 1392, Note_on_c, 0, 67, 99
1, 1416, Note_off_c, 0, 45, 64
1, 1416, Note_on_c, 0, 45, 99
1, 1416, Note_off_c, 0, 52, 64
1, 1416, Note_on_c, 0, 52, 99
1, 1416, Note_off_c, 0, 55, 64
1, 1416, Note_on_c, 0, 55, 99
1, 1416, Note_off_c, 0, 60, 64
1, 1416, Note_on_c, 0, 60, 99
1, 1416, Note_off_c, 0, 67, 64
1, 1416, Note_on_c, 0, 67, 99
1, 1440, Note_off_c, 0, 45, 64
1, 1440, Note_off_c, 0, 52, 64
1, 1440, Note_off_c, 0, 55, 64
1, 1440, Note_off_c, 0, 60, 64
1, 1440, Note_off_c, 0, 67, 64
1, 1440, Note_off_c, 0, 79, 64
1, 0, Note_on_c, 0, 38, 35
1, 7, Note_on_c, 0, 53, 35
1, 24, Note_off_c, 0, 38, 64
1, 31, Note_off_c, 0, 53, 64
1, 96, Note_on_c, 0, 53, 35
1, 96, Note_on_c, 0, 65, 35
1, 120, Note_off_c, 0, 53, 64
1, 120, Note_off_c, 0, 65, 64
1, 128, Note_on_c, 0, 57, 35
1, 152, Note_off_c, 0, 57, 64
1, 160, Note_on_c, 0, 64, 35
1, 184, Note_off_c, 0, 64, 64
1, 192, Note_on_c, 0, 50, 35
1, 192, Note_on_c, 0, 65, 35
1, 198, Note_on_c, 0, 57, 35
1, 216, Note_off_c, 0, 50, 64
1, 216, Note_off_c, 0, 65, 64
1, 222, Note_off_c, 0, 57, 64
1, 260, Note_on_c, 0, 64, 35
1, 284, Note_off_c, 0, 64, 64
1, 288, Note_on_c, 0, 62, 35
1, 289, Note_on_c, 0, 53, 35
1, 312, Note_off_c, 0, 62, 64
1, 313, Note_off_c, 0, 53, 64
1, 352, Note_on_c, 0, 57, 35
1, 378, Note_off_c, 0, 57, 64
1, 384, Note_on_c, 0, 38, 35
1, 391, Note_on_c, 0, 53, 35
1, 408, Note_off_c, 0, 38, 64
1, 415, Note_off_c, 0, 53, 64
1, 480, Note_on_c, 0, 53, 35
1, 480, Note_on_c, 0, 65, 35
1, 504, Note_off_c, 0, 53, 64
1, 504, Note_off_c, 0, 65, 64
1, 512, Note_on_c, 0, 57, 35
1, 536, Note_off_c, 0, 57, 64
1, 544, Note_on_c, 0, 64, 35
1, 568, Note_off_c, 0, 64, 64
1, 576, Note_on_c, 0, 50, 35
1, 576, Note_on_c, 0, 65, 35
1, 582, Note_on_c, 0, 57, 35
1, 600, Note_off_c, 0, 50, 64
1, 600, Note_off_c, 0, 65, 64
1, 606, Note_off_c, 0, 57, 64
1, 644, Note_on_c, 0, 64, 35
1, 668, Note_off_c, 0, 64, 64
1, 672, Note_on_c, 0, 50, 35
1, 672, Note_on_c, 0, 62, 35
1, 673, Note_on_c, 0, 53, 35
1, 696, Note_off_c, 0, 50, 64
1, 696, Note_off_c, 0, 62, 64
1, 697, Note_off_c, 0, 53, 64
1, 768, Note_on_c, 0, 33, 35
1, 768, Note_on_c, 0, 45, 35
1, 775, Note_on_c, 0, 52, 35
1, 792, Note_off_c, 0, 33, 64
1, 792, Note_off_c, 0, 45, 64
1, 799, Note_off_c, 0, 52, 64
1, 864, Note_on_c, 0, 52, 35
1, 864, Note_on_c, 0, 64, 35
1, 888, Note_off_c, 0, 52, 64
1, 896, Note_on_c, 0, 57, 35
1, 896, Note_off_c, 0, 64, 64
1, 928, Note_off_c, 0, 57, 64
1, 928, Note_on_c, 0, 60, 35
1, 960, Note_on_c, 0, 45, 35
1, 960, Note_off_c, 0, 60, 64
1, 960, Note_on_c, 0, 64, 35
1, 984, Note_off_c, 0, 45, 64
1, 992, Note_off_c, 0, 64, 64
1, 1024, Note_on_c, 0, 62, 35
1, 1056, Note_on_c, 0, 60, 36
1, 1056, Note_off_c, 0, 62, 64
1, 1057, Note_on_c, 0, 52, 35
1, 1081, Note_off_c, 0, 52, 64
1, 1090, Note_off_c, 0, 60, 64
1, 1120, Note_on_c, 0, 57, 35
1, 1152, Note_on_c, 0, 33, 35
1, 1152, Note_on_c, 0, 45, 35
1, 1152, Note_off_c, 0, 57, 64
1, 1159, Note_on_c, 0, 52, 35
1, 1176, Note_off_c, 0, 33, 64
1, 1176, Note_off_c, 0, 45, 64
1, 1183, Note_off_c, 0, 52, 64
1, 1248, Note_on_c, 0, 52, 35
1, 1248, Note_on_c, 0, 64, 35
1, 1272, Note_off_c, 0, 52, 64
1, 1280, Note_on_c, 0, 57, 35
1, 1280, Note_off_c, 0, 64, 64
1, 1312, Note_off_c, 0, 57, 64
1, 1312, Note_on_c, 0, 60, 35
1, 1344, Note_on_c, 0, 45, 35
1, 1344, Note_off_c, 0, 60, 64
1, 1344, Note_on_c, 0, 64, 35
1, 1368, Note_off_c, 0, 45, 64
1, 1376, Note_off_c, 0, 64, 64
1, 1408, Note_on_c, 0, 62, 35
1, 1440, Note_on_c, 0, 60, 36
1, 1440, Note_off_c, 0, 62, 64
1, 1441, Note_on_c, 0, 52, 35
1, 1465, Note_off_c, 0, 52, 64
1, 1474, Note_off_c, 0, 60, 64
1, 1504, Note_on_c, 0, 57, 35
1, 1536, Note_off_c, 0, 57, 64
1, 0, Note_on_c, 0, 43, 39
1, 0, Note_on_c, 0, 50, 50
1, 0, Note_on_c, 0, 57, 44
1, 0, Note_on_c, 0, 60, 58
1, 0, Note_on_c, 0, 72, 61
1, 11, Note_on_c, 0, 74, 88
1, 13, Note_off_c, 0, 72, 67
1, 194, Note_on_c, 0, 72, 62
1, 199, Note_off_c, 0, 74, 62
1, 236, Note_on_c, 0, 74, 62
1, 246, Note_off_c, 0, 72, 42
1, 285, Note_on_c, 0, 76, 70
1, 286, Note_off_c, 0, 74, 18
1, 383, Note_off_c, 0, 43, 73
1, 383, Note_off_c, 0, 50, 72
1, 383, Note_off_c, 0, 57, 66
1, 383, Note_off_c, 0, 60, 80
1, 384, Note_on_c, 0, 45, 39
1, 384, Note_on_c, 0, 52, 50
1, 384, Note_on_c, 0, 59, 44
1, 384, Note_on_c, 0, 62, 58
1, 385, Note_off_c, 0, 76, 55
1, 386, Note_on_c, 0, 74, 43
1, 570, Note_off_c, 0, 74, 67
1, 572, Note_on_c, 0, 67, 52
1, 767, Note_off_c, 0, 45, 73
1, 767, Note_off_c, 0, 52, 72
1, 767, Note_off_c, 0, 59, 66
1, 767, Note_off_c, 0, 62, 80
1, 767, Note_off_c, 0, 67, 67
1, 767, Note_on_c, 0, 72, 61
1, 768, Note_on_c, 0, 43, 39
1, 768, Note_on_c, 0, 50, 50
1, 768, Note_on_c, 0, 57, 44
1, 768, Note_on_c, 0, 60, 58
1, 779, Note_on_c, 0, 74, 88
1, 781, Note_off_c, 0, 72, 67
1, 962, Note_on_c, 0, 72, 62
1, 967, Note_off_c, 0, 74, 62
1, 1004, Note_on_c, 0, 74, 62
1, 1014, Note_off_c, 0, 72, 42
1, 1053, Note_on_c, 0, 76, 70
1, 1054, Note_off_c, 0, 74, 18
1, 1151, Note_off_c, 0, 43, 73
1, 1151, Note_off_c, 0, 50, 72
1, 1151, Note_off_c, 0, 57, 66
1, 1151, Note_off_c, 0, 60, 80
1, 1152, Note_on_c, 0, 45, 39
1, 1152, Note_on_c, 0, 52, 50
1, 1152, Note_on_c, 0, 59, 44
1, 1152, Note_on_c, 0, 62, 58
1, 1153, Note_off_c, 0, 76, 55
1, 1154, Note_on_c, 0, 74, 43
1, 1338, Note_off_c, 0, 74, 67
1, 1340, Note_on_c, 0, 67, 52
1, 1535, Note_off_c, 0, 45, 73
1, 1535, Note_off_c, 0, 52, 72
1, 1535, Note_off_c, 0, 59, 66
1, 1535, Note_off_c, 0, 62, 80
1, 1535, Note_off_c, 0, 67, 67
1, 0, Note_on_c, 0, 45, 85
1, 48, Note_on_c, 0, 55, 67
1, 48, Note_on_c, 0, 60, 71
1, 48, Note_on_c, 0, 64, 87
1, 51, Note_off_c, 0, 45, 64
1, 60, Note_off_c, 0, 64, 74
1, 61, Note_off_c, 0, 55, 51
1, 61, Note_off_c, 0, 60, 55
1, 96, Note_on_c, 0, 67, 85
1, 124, Note_on_c, 0, 45, 80
1, 125, Note_on_c, 0, 69, 89
1, 130, Note_off_c, 0, 67, 51
1, 137, Note_off_c, 0, 69, 82
1, 140, Note_off_c, 0, 45, 59
1, 144, Note_on_c, 0, 55, 71
1, 144, Note_on_c, 0, 60, 76
1, 144, Note_on_c, 0, 64, 85
1, 144, Note_on_c, 0, 72, 100
1, 156, Note_off_c, 0, 64, 55
1, 157, Note_off_c, 0, 60, 47
1, 159, Note_off_c, 0, 55, 57
1, 165, Note_off_c, 0, 72, 31
1, 172, Note_on_c, 0, 47, 81
1, 173, Note_on_c, 0, 74, 89
1, 189, Note_off_c, 0, 47, 77
1, 192, Note_on_c, 0, 48, 72
1, 192, Note_on_c, 0, 76, 100
1, 194, Note_off_c, 0, 74, 74
1, 204, Note_off_c, 0, 76, 122
1, 234, Note_off_c, 0, 48, 40
1, 240, Note_on_c, 0, 55, 62
1, 240, Note_on_c, 0, 60, 73
1, 240, Note_on_c, 0, 64, 92
1, 240, Note_on_c, 0, 79, 116
1, 250, Note_off_c, 0, 79, 88
1, 255, Note_off_c, 0, 55, 58
1, 255, Note_off_c, 0, 60, 51
1, 255, Note_off_c, 0, 64, 70
1, 287, Note_on_c, 0, 80, 123
1, 292, Note_off_c, 0, 80, 105
1, 292, Note_on_c, 0, 81, 118
1, 316, Note_on_c, 0, 48, 61
1, 328, Note_off_c, 0, 48, 46
1, 335, Note_off_c, 0, 81, 82
1, 336, Note_on_c, 0, 55, 70
1, 336, Note_on_c, 0, 60, 67
1, 336, Note_on_c, 0, 64, 84
1, 336, Note_on_c, 0, 79, 99
1, 357, Note_off_c, 0, 55, 42
1, 358, Note_off_c, 0, 79, 91
1, 359, Note_off_c, 0, 60, 15
1, 359, Note_off_c, 0, 64, 39
1, 364, Note_on_c, 0, 49, 68
1, 364, Note_on_c, 0, 76, 125
1, 376, Note_off_c, 0, 49, 79
1, 384, Note_on_c, 0, 50, 87
1, 432, Note_on_c, 0, 57, 78
1, 432, Note_on_c, 0, 60, 82
1, 432, Note_on_c, 0, 65, 91
1, 433, Note_off_c, 0, 50, 65
1, 442, Note_off_c, 0, 60, 50
1, 444, Note_off_c, 0, 57, 73
1, 445, Note_off_c, 0, 65, 50
1, 508, Note_on_c, 0, 50, 75
1, 512, Note_off_c, 0, 76, 35
1, 524, Note_off_c, 0, 50, 62
1, 528, Note_on_c, 0, 57, 82
1, 528, Note_on_c, 0, 60, 74
1, 528, Note_on_c, 0, 65, 86
1, 554, Note_off_c, 0, 60, 34
1, 555, Note_off_c, 0, 65, 37
1, 556, Note_off_c, 0, 57, 57
1, 575, Note_on_c, 0, 79, 108
1, 576, Note_on_c, 0, 50, 90
1, 622, Note_off_c, 0, 79, 67
1, 623, Note_on_c, 0, 81, 89
1, 624, Note_on_c, 0, 57, 80
1, 624, Note_on_c, 0, 60, 81
1, 624, Note_on_c, 0, 65, 87
1, 628, Note_off_c, 0, 50, 60
1, 634, Note_off_c, 0, 60, 38
1, 634, Note_off_c, 0, 81, 92
1, 636, Note_off_c, 0, 65, 51
1, 637, Note_off_c, 0, 57, 69
1, 671, Note_on_c, 0, 79, 106
1, 700, Note_on_c, 0, 50, 85
1, 718, Note_off_c, 0, 50, 64
1, 718, Note_off_c, 0, 79, 92
1, 720, Note_on_c, 0, 57, 91
1, 720, Note_on_c, 0, 60, 89
1, 720, Note_on_c, 0, 65, 98
1, 720, Note_on_c, 0, 76, 118
1, 731, Note_off_c, 0, 60, 33
1, 733, Note_off_c, 0, 57, 51
1, 735, Note_off_c, 0, 65, 46
1, 748, Note_on_c, 0, 49, 52
1, 757, Note_off_c, 0, 49, 42
1, 762, Note_off_c, 0, 76, 68
1, 768, Note_on_c, 0, 50, 94
1, 768, Note_on_c, 0, 75, 123
1, 777, Note_off_c, 0, 75, 75
1, 785, Note_on_c, 0, 76, 111
1, 800, Note_off_c, 0, 76, 89
1, 800, Note_on_c, 0, 79, 99
1, 812, Note_off_c, 0, 50, 70
1, 816, Note_on_c, 0, 57, 82
1, 816, Note_on_c, 0, 60, 89
1, 816, Note_on_c, 0, 65, 92
1, 816, Note_on_c, 0, 75, 113
1, 817, Note_off_c, 0, 79, 62
1, 822, Note_off_c, 0, 75, 66
1, 824, Note_off_c, 0, 57, 70
1, 825, Note_off_c, 0, 60, 65
1, 825, Note_off_c, 0, 65, 64
1, 833, Note_on_c, 0, 76, 114
1, 848, Note_off_c, 0, 76, 88
1, 848, Note_on_c, 0, 79, 102
1, 864, Note_on_c, 0, 75, 105
1, 864, Note_off_c, 0, 79, 73
1, 870, Note_off_c, 0, 75, 64
1, 881, Note_on_c, 0, 76, 109
1, 892, Note_on_c, 0, 50, 81
1, 895, Note_off_c, 0, 76, 87
1, 896, Note_on_c, 0, 79, 94
1, 907, Note_off_c, 0, 50, 75
1, 910, Note_off_c, 0, 79, 77
1, 912, Note_on_c, 0, 57, 92
1, 912, Note_on_c, 0, 60, 96
1, 912, Note_on_c, 0, 65, 94
1, 912, Note_on_c, 0, 75, 120
1, 920, Note_off_c, 0, 75, 69
1, 922, Note_off_c, 0, 60, 54
1, 922, Note_off_c, 0, 65, 54
1, 923, Note_off_c, 0, 57, 67
1, 929, Note_on_c, 0, 76, 122
1, 940, Note_on_c, 0, 51, 62
1, 943, Note_off_c, 0, 76, 88
1, 944, Note_on_c, 0, 79, 114
1, 956, Note_off_c, 0, 51, 60
1, 960, Note_on_c, 0, 52, 98
1, 960, Note_on_c, 0, 75, 108
1, 963, Note_off_c, 0, 79, 65
1, 967, Note_off_c, 0, 75, 60
1, 977, Note_on_c, 0, 76, 127
1, 992, Note_on_c, 0, 79, 108
1, 993, Note_off_c, 0, 76, 82
1, 1007, Note_off_c, 0, 52, 64
1, 1008, Note_on_c, 0, 59, 76
1, 1008, Note_on_c, 0, 62, 90
1, 1008, Note_on_c, 0, 67, 82
1, 1008, Note_on_c, 0, 75, 108
1, 1013, Note_off_c, 0, 79, 66
1, 1019, Note_off_c, 0, 62, 73
1, 1021, Note_off_c, 0, 59, 60
1, 1021, Note_off_c, 0, 67, 64
1, 1025, Note_on_c, 0, 76, 108
1, 1029, Note_off_c, 0, 75, 64
1, 1040, Note_on_c, 0, 79, 108
1, 1047, Note_off_c, 0, 76, 64
1, 1056, Note_on_c, 0, 80, 116
1, 1061, Note_off_c, 0, 79, 64
1, 1061, Note_on_c, 0, 81, 102
1, 1065, Note_off_c, 0, 80, 78
1, 1082, Note_off_c, 0, 81, 60
1, 1083, Note_on_c, 0, 79, 95
1, 1084, Note_on_c, 0, 52, 72
1, 1101, Note_off_c, 0, 52, 65
1, 1101, Note_off_c, 0, 79, 95
1, 1103, Note_on_c, 0, 76, 105
1, 1104, Note_on_c, 0, 59, 87
1, 1104, Note_on_c, 0, 62, 92
1, 1104, Note_on_c, 0, 67, 88
1, 1130, Note_off_c, 0, 76, 85
1, 1131, Note_on_c, 0, 75, 103
1, 1132, Note_on_c, 0, 46, 84
1, 1132, Note_off_c, 0, 67, 39
1, 1133, Note_off_c, 0, 62, 47
1, 1134, Note_off_c, 0, 59, 39
1, 1146, Note_off_c, 0, 75, 73
1, 1151, Note_on_c, 0, 74, 118
1, 1152, Note_on_c, 0, 45, 91
1, 1152, Note_off_c, 0, 46, 103
1, 1189, Note_off_c, 0, 74, 77
1, 1198, Note_off_c, 0, 45, 64
1, 1198, Note_on_c, 0, 72, 96
1, 1200, Note_on_c, 0, 55, 71
1, 1200, Note_on_c, 0, 60, 72
1, 1200, Note_on_c, 0, 64, 79
1, 1212, Note_off_c, 0, 72, 60
1, 1214, Note_off_c, 0, 64, 77
1, 1215, Note_off_c, 0, 55, 60
1, 1215, Note_off_c, 0, 60, 38
1, 1247, Note_on_c, 0, 69, 105
1, 1276, Note_on_c, 0, 45, 61
1, 1293, Note_off_c, 0, 45, 62
1, 1293, Note_off_c, 0, 69, 49
1, 1296, Note_on_c, 0, 55, 75
1, 1296, Note_on_c, 0, 60, 78
1, 1296, Note_on_c, 0, 64, 90
1, 1296, Note_on_c, 0, 67, 88
1, 1317, Note_off_c, 0, 67, 36
1, 1321, Note_off_c, 0, 55, 46
1, 1321, Note_off_c, 0, 60, 26
1, 1321, Note_off_c, 0, 64, 45
1, 1324, Note_on_c, 0, 45, 76
1, 1325, Note_on_c, 0, 69, 113
1, 1335, Note_off_c, 0, 45, 57
1, 1344, Note_on_c, 0, 45, 85
1, 1381, Note_off_c, 0, 69, 72
1, 1388, Note_off_c, 0, 45, 53
1, 1391, Note_on_c, 0, 55, 88
1, 1391, Note_on_c, 0, 60, 100
1, 1391, Note_on_c, 0, 64, 95
1, 1391, Note_on_c, 0, 72, 113
1, 1400, Note_off_c, 0, 55, 67
1, 1400, Note_off_c, 0, 60, 63
1, 1400, Note_off_c, 0, 64, 77
1, 1468, Note_on_c, 0, 45, 64
1, 1484, Note_off_c, 0, 45, 54
1, 1488, Note_on_c, 0, 55, 85
1, 1488, Note_on_c, 0, 60, 91
1, 1488, Note_on_c, 0, 64, 99
1, 1508, Note_off_c, 0, 55, 17
1, 1510, Note_off_c, 0, 72, 53
1, 1512, Note_off_c, 0, 60, 6
1, 1513, Note_off_c, 0, 64, 22
1, 1516, Note_on_c, 0, 43, 64
1, 1532, Note_off_c, 0, 43, 54
1, 0, Note_on_c, 0, 38, 64
1, 0, Note_on_c, 0, 53, 44
1, 0, Note_on_c, 0, 60, 74
1, 77, Note_off_c, 0, 53, 37
1, 78, Note_off_c, 0, 60, 28
1, 79, Note_off_c, 0, 38, 38
1, 94, Note_on_c, 0, 38, 72
1, 94, Note_on_c, 0, 53, 76
1, 94, Note_on_c, 0, 60, 91
1, 95, Note_on_c, 0, 76, 118
1, 104, Note_off_c, 0, 53, 68
1, 108, Note_off_c, 0, 60, 60
1, 112, Note_off_c, 0, 38, 37
1, 132, Note_off_c, 0, 76, 34
1, 144, Note_on_c, 0, 79, 94
1, 145, Note_on_c, 0, 41, 75
1, 145, Note_on_c, 0, 57, 59
1, 145, Note_on_c, 0, 64, 94
1, 154, Note_off_c, 0, 79, 68
1, 194, Note_on_c, 0, 79, 116
1, 197, Note_on_c, 0, 81, 84
1, 205, Note_off_c, 0, 79, 60
1, 254, Note_off_c, 0, 41, 35
1, 260, Note_off_c, 0, 64, 39
1, 262, Note_off_c, 0, 57, 20
1, 267, Note_off_c, 0, 81, 50
1, 285, Note_on_c, 0, 57, 62
1, 286, Note_on_c, 0, 41, 67
1, 286, Note_on_c, 0, 64, 89
1, 288, Note_on_c, 0, 79, 113
1, 301, Note_off_c, 0, 57, 32
1, 312, Note_on_c, 0, 76, 100
1, 324, Note_off_c, 0, 79, 52
1, 327, Note_off_c, 0, 76, 68
1, 334, Note_on_c, 0, 75, 76
1, 335, Note_off_c, 0, 64, 66
1, 336, Note_on_c, 0, 45, 77
1, 336, Note_on_c, 0, 55, 89
1, 336, Note_on_c, 0, 60, 91
1, 338, Note_off_c, 0, 41, 46
1, 350, Note_off_c, 0, 75, 67
1, 360, Note_on_c, 0, 74, 113
1, 383, Note_on_c, 0, 72, 116
1, 388, Note_off_c, 0, 74, 43
1, 458, Note_off_c, 0, 72, 37
1, 480, Note_on_c, 0, 72, 94
1, 507, Note_off_c, 0, 72, 55
1, 510, Note_on_c, 0, 69, 100
1, 527, Note_off_c, 0, 69, 53
1, 528, Note_on_c, 0, 72, 77
1, 551, Note_off_c, 0, 60, 51
1, 552, Note_off_c, 0, 45, 41
1, 552, Note_off_c, 0, 55, 57
1, 552, Note_off_c, 0, 72, 61
1, 557, Note_on_c, 0, 74, 82
1, 574, Note_on_c, 0, 45, 77
1, 574, Note_on_c, 0, 60, 94
1, 574, Note_on_c, 0, 67, 70
1, 577, Note_on_c, 0, 75, 90
1, 580, Note_off_c, 0, 74, 61
1, 617, Note_off_c, 0, 75, 57
1, 623, Note_on_c, 0, 76, 73
1, 638, Note_off_c, 0, 76, 91
1, 671, Note_on_c, 0, 74, 98
1, 673, Note_on_c, 0, 75, 69
1, 682, Note_off_c, 0, 74, 56
1, 701, Note_on_c, 0, 74, 92
1, 705, Note_off_c, 0, 75, 82
1, 720, Note_on_c, 0, 72, 103
1, 721, Note_off_c, 0, 74, 72
1, 748, Note_off_c, 0, 72, 61
1, 750, Note_on_c, 0, 69, 103
1, 759, Note_off_c, 0, 67, 37
1, 762, Note_off_c, 0, 60, 30
1, 765, Note_off_c, 0, 45, 50
1, 767, Note_on_c, 0, 38, 87
1, 767, Note_on_c, 0, 53, 70
1, 767, Note_on_c, 0, 60, 78
1, 774, Note_off_c, 0, 69, 76
1, 848, Note_off_c, 0, 38, 18
1, 850, Note_off_c, 0, 53, 37
1, 850, Note_off_c, 0, 60, 40
1, 863, Note_on_c, 0, 38, 82
1, 863, Note_on_c, 0, 53, 70
1, 863, Note_on_c, 0, 60, 69
1, 863, Note_on_c, 0, 76, 118
1, 881, Note_off_c, 0, 53, 39
1, 900, Note_off_c, 0, 76, 34
1, 908, Note_off_c, 0, 60, 45
1, 912, Note_on_c, 0, 79, 94
1, 913, Note_on_c, 0, 41, 77
1, 913, Note_on_c, 0, 57, 60
1, 913, Note_on_c, 0, 64, 84
1, 914, Note_off_c, 0, 38, 8
1, 922, Note_off_c, 0, 79, 68
1, 940, Note_on_c, 0, 79, 116
1, 943, Note_on_c, 0, 81, 84
1, 951, Note_off_c, 0, 79, 60
1, 1013, Note_off_c, 0, 81, 50
1, 1028, Note_off_c, 0, 41, 43
1, 1036, Note_off_c, 0, 57, 32
1, 1041, Note_off_c, 0, 64, 39
1, 1053, Note_on_c, 0, 41, 66
1, 1054, Note_on_c, 0, 57, 53
1, 1054, Note_on_c, 0, 64, 73
1, 1056, Note_on_c, 0, 79, 113
1, 1084, Note_on_c, 0, 76, 100
1, 1088, Note_off_c, 0, 57, 17
1, 1092, Note_off_c, 0, 79, 52
1, 1099, Note_off_c, 0, 76, 68
1, 1102, Note_off_c, 0, 64, 85
1, 1103, Note_on_c, 0, 45, 78
1, 1103, Note_on_c, 0, 60, 74
1, 1104, Note_on_c, 0, 55, 92
1, 1104, Note_on_c, 0, 75, 76
1, 1105, Note_off_c, 0, 41, 54
1, 1120, Note_off_c, 0, 75, 67
1, 1132, Note_on_c, 0, 74, 113
1, 1151, Note_on_c, 0, 72, 116
1, 1160, Note_off_c, 0, 74, 43
1, 1226, Note_off_c, 0, 72, 37
1, 1248, Note_on_c, 0, 72, 94
1, 1275, Note_off_c, 0, 72, 55
1, 1278, Note_on_c, 0, 69, 100
1, 1295, Note_off_c, 0, 69, 53
1, 1296, Note_on_c, 0, 72, 77
1, 1319, Note_off_c, 0, 55, 14
1, 1320, Note_off_c, 0, 72, 61
1, 1324, Note_off_c, 0, 60, 38
1, 1325, Note_on_c, 0, 74, 82
1, 1329, Note_off_c, 0, 45, 25
1, 1342, Note_on_c, 0, 45, 75
1, 1342, Note_on_c, 0, 55, 68
1, 1342, Note_on_c, 0, 60, 77
1, 1345, Note_on_c, 0, 75, 90
1, 1348, Note_off_c, 0, 74, 61
1, 1385, Note_off_c, 0, 75, 57
1, 1391, Note_on_c, 0, 76, 73
1, 1406, Note_off_c, 0, 76, 91
1, 1416, Note_off_c, 0, 55, 41
1, 1430, Note_off_c, 0, 60, 21
1, 1436, Note_off_c, 0, 45, 27
1, 1439, Note_on_c, 0, 74, 98
1, 1440, Note_on_c, 0, 48, 74
1, 1440, Note_on_c, 0, 60, 89
1, 1440, Note_on_c, 0, 67, 96
1, 1441, Note_on_c, 0, 75, 69
1, 1450, Note_off_c, 0, 74, 56
1, 1469, Note_on_c, 0, 74, 92
1, 1473, Note_off_c, 0, 75, 82
1, 1488, Note_on_c, 0, 72, 103
1, 1489, Note_off_c, 0, 74, 72
1, 1510, Note_off_c, 0, 48, 53
1, 1510, Note_off_c, 0, 60, 67
1, 1511, Note_off_c, 0, 67, 51
1, 1516, Note_off_c, 0, 72, 61
1, 1518, Note_on_c, 0, 69, 103
1, 1535, Note_off_c, 0, 69, 76
1, 0, Note_on_c, 0, 33, 57
1, 0, Note_on_c, 0, 57, 54
1, 5, Note_on_c, 0, 60, 37
1, 7, Note_on_c, 0, 67, 56
1, 9, Note_on_c, 0, 76, 75
1, 20, Note_on_c, 0, 64, 51
1, 48, Note_off_c, 0, 33, 64
1, 48, Note_on_c, 0, 40, 58
1, 55, Note_on_c, 0, 71, 54
1, 96, Note_off_c, 0, 40, 64
1, 96, Note_on_c, 0, 45, 58
1, 144, Note_off_c, 0, 45, 64
1, 144, Note_on_c, 0, 47, 58
1, 192, Note_off_c, 0, 47, 64
1, 192, Note_on_c, 0, 48, 58
1, 240, Note_off_c, 0, 48, 64
1, 240, Note_on_c, 0, 52, 58
1, 257, Note_off_c, 0, 76, 59
1, 262, Note_off_c, 0, 60, 59
1, 262, Note_off_c, 0, 71, 59
1, 265, Note_off_c, 0, 64, 28
1, 271, Note_off_c, 0, 57, 55
1, 288, Note_on_c, 0, 48, 58
1, 288, Note_off_c, 0, 52, 64
1, 295, Note_off_c, 0, 67, 64
1, 336, Note_on_c, 0, 47, 58
1, 336, Note_off_c, 0, 48, 64
1, 374, Note_on_c, 0, 55, 52
1, 384, Note_on_c, 0, 34, 60
1, 384, Note_off_c, 0, 47, 64
1, 384, Note_on_c, 0, 58, 1
1, 384, Note_on_c, 0, 74, 69
1, 392, Note_on_c, 0, 62, 33
1, 398, Note_on_c, 0, 65, 45
1, 432, Note_off_c, 0, 34, 64
1, 432, Note_on_c, 0, 41, 60
1, 440, Note_on_c, 0, 70, 48
1, 480, Note_off_c, 0, 41, 64
1, 480, Note_on_c, 0, 46, 60
1, 528, Note_off_c, 0, 46, 64
1, 528, Note_on_c, 0, 50, 60
1, 576, Note_off_c, 0, 50, 64
1, 576, Note_on_c, 0, 53, 60
1, 578, Note_on_c, 0, 69, 66
1, 590, Note_off_c, 0, 65, 64
1, 624, Note_on_c, 0, 52, 60
1, 624, Note_off_c, 0, 53, 64
1, 629, Note_on_c, 0, 65, 63
1, 631, Note_off_c, 0, 62, 46
1, 633, Note_off_c, 0, 55, 28
1, 639, Note_off_c, 0, 58, 6
1, 639, Note_off_c, 0, 70, 1
1, 643, Note_off_c, 0, 69, 33
1, 668, Note_off_c, 0, 74, 1
1, 672, Note_on_c, 0, 50, 59
1, 672, Note_off_c, 0, 52, 64
1, 692, Note_off_c, 0, 65, 51
1, 720, Note_off_c, 0, 50, 64
1, 720, Note_on_c, 0, 52, 59
1, 759, Note_on_c, 0, 57, 42
1, 767, Note_on_c, 0, 60, 41
1, 768, Note_on_c, 0, 33, 57
1, 768, Note_off_c, 0, 52, 64
1, 772, Note_on_c, 0, 76, 76
1, 777, Note_on_c, 0, 64, 53
1, 816, Note_off_c, 0, 33, 64
1, 816, Note_on_c, 0, 40, 58
1, 820, Note_on_c, 0, 71, 53
1, 864, Note_off_c, 0, 40, 64
1, 864, Note_on_c, 0, 45, 58
1, 912, Note_off_c, 0, 45, 64
1, 912, Note_on_c, 0, 47, 58
1, 960, Note_off_c, 0, 47, 64
1, 960, Note_on_c, 0, 48, 58
1, 1008, Note_off_c, 0, 48, 64
1, 1008, Note_on_c, 0, 52, 58
1, 1027, Note_off_c, 0, 57, 41
1, 1028, Note_off_c, 0, 76, 38
1, 1033, Note_off_c, 0, 64, 9
1, 1041, Note_off_c, 0, 60, 36
1, 1049, Note_off_c, 0, 71, 44
1, 1056, Note_on_c, 0, 48, 58
1, 1056, Note_off_c, 0, 52, 64
1, 1104, Note_on_c, 0, 47, 58
1, 1104, Note_off_c, 0, 48, 64
1, 1137, Note_on_c, 0, 55, 34
1, 1147, Note_on_c, 0, 58, 17
1, 1151, Note_on_c, 0, 74, 76
1, 1152, Note_on_c, 0, 34, 60
1, 1152, Note_off_c, 0, 47, 64
1, 1152, Note_on_c, 0, 69, 56
1, 1161, Note_on_c, 0, 62, 53
1, 1200, Note_off_c, 0, 34, 64
1, 1200, Note_on_c, 0, 41, 60
1, 1205, Note_on_c, 0, 70, 37
1, 1248, Note_off_c, 0, 41, 64
1, 1248, Note_on_c, 0, 46, 60
1, 1296, Note_off_c, 0, 46, 64
1, 1296, Note_on_c, 0, 50, 60
1, 1334, Note_off_c, 0, 69, 64
1, 1344, Note_off_c, 0, 50, 64
1, 1344, Note_on_c, 0, 65, 63
1, 1388, Note_off_c, 0, 70, 1
1, 1392, Note_on_c, 0, 53, 60
1, 1392, Note_on_c, 0, 67, 56
1, 1399, Note_off_c, 0, 65, 25
1, 1400, Note_off_c, 0, 55, 1
1, 1410, Note_off_c, 0, 62, 24
1, 1424, Note_off_c, 0, 58, 13
1, 1440, Note_on_c, 0, 52, 59
1, 1440, Note_off_c, 0, 53, 64
1, 1440, Note_on_c, 0, 77, 78
1, 1488, Note_on_c, 0, 50, 59
1, 1488, Note_off_c, 0, 52, 64
1, 1488, Note_off_c, 0, 67, 64
1, 1531, Note_off_c, 0, 74, 5
1, 1531, Note_off_c, 0, 77, 64
1, 1536, Note_off_c, 0, 50, 64
1, 1, Note_on_c, 0, 41, 58
1, 2, Note_on_c, 0, 53, 49
1, 2, Note_on_c, 0, 57, 44
1, 2, Note_on_c, 0, 60, 74
1, 2, Note_on_c, 0, 64, 85
1, 96, Note_on_c, 0, 76, 85
1, 139, Note_off_c, 0, 76, 70
1, 144, Note_on_c, 0, 79, 82
1, 152, Note_off_c, 0, 79, 67
1, 188, Note_off_c, 0, 41, 32
1, 189, Note_on_c, 0, 41, 40
1, 189, Note_off_c, 0, 53, 28
1, 189, Note_off_c, 0, 57, 33
1, 189, Note_off_c, 0, 60, 28
1, 189, Note_off_c, 0, 64, 63
1, 191, Note_on_c, 0, 60, 74
1, 191, Note_on_c, 0, 64, 82
1, 191, Note_on_c, 0, 79, 110
1, 192, Note_on_c, 0, 53, 29
1, 192, Note_on_c, 0, 57, 48
1, 202, Note_off_c, 0, 79, 52
1, 202, Note_on_c, 0, 81, 92
1, 232, Note_off_c, 0, 81, 56
1, 287, Note_on_c, 0, 44, 57
1, 287, Note_on_c, 0, 52, 53
1, 287, Note_off_c, 0, 60, 43
1, 288, Note_on_c, 0, 56, 62
1, 288, Note_on_c, 0, 60, 77
1, 289, Note_on_c, 0, 84, 108
1, 291, Note_off_c, 0, 41, 62
1, 291, Note_off_c, 0, 53, 51
1, 291, Note_off_c, 0, 57, 33
1, 291, Note_off_c, 0, 64, 70
1, 324, Note_off_c, 0, 84, 53
1, 334, Note_on_c, 0, 86, 86
1, 343, Note_off_c, 0, 86, 75
1, 378, Note_on_c, 0, 86, 96
1, 382, Note_off_c, 0, 60, 38
1, 383, Note_off_c, 0, 52, 43
1, 383, Note_on_c, 0, 60, 55
1, 384, Note_on_c, 0, 45, 42
1, 384, Note_on_c, 0, 52, 74
1, 384, Note_on_c, 0, 55, 30
1, 384, Note_on_c, 0, 59, 68
1, 385, Note_on_c, 0, 88, 97
1, 392, Note_off_c, 0, 44, 40
1, 392, Note_off_c, 0, 56, 65
1, 394, Note_off_c, 0, 86, 64
1, 452, Note_off_c, 0, 88, 72
1, 482, Note_on_c, 0, 84, 81
1, 485, Note_on_c, 0, 86, 108
1, 487, Note_off_c, 0, 84, 42
1, 520, Note_off_c, 0, 86, 62
1, 575, Note_off_c, 0, 45, 37
1, 575, Note_off_c, 0, 52, 61
1, 575, Note_off_c, 0, 55, 33
1, 575, Note_off_c, 0, 59, 37
1, 575, Note_off_c, 0, 60, 45
1, 576, Note_on_c, 0, 45, 68
1, 576, Note_on_c, 0, 52, 78
1, 576, Note_on_c, 0, 55, 63
1, 576, Note_on_c, 0, 59, 68
1, 576, Note_on_c, 0, 60, 60
1, 576, Note_on_c, 0, 81, 94
1, 582, Note_on_c, 0, 84, 100
1, 584, Note_off_c, 0, 81, 77
1, 621, Note_off_c, 0, 84, 68
1, 673, Note_off_c, 0, 45, 28
1, 673, Note_off_c, 0, 52, 62
1, 673, Note_off_c, 0, 55, 18
1, 673, Note_off_c, 0, 59, 49
1, 674, Note_on_c, 0, 45, 71
1, 674, Note_on_c, 0, 52, 77
1, 674, Note_on_c, 0, 55, 55
1, 674, Note_on_c, 0, 59, 73
1, 674, Note_on_c, 0, 62, 69
1, 674, Note_on_c, 0, 79, 94
1, 681, Note_on_c, 0, 81, 96
1, 682, Note_off_c, 0, 79, 67
1, 685, Note_off_c, 0, 60, 43
1, 717, Note_off_c, 0, 81, 74
1, 721, Note_on_c, 0, 64, 67
1, 721, Note_on_c, 0, 79, 105
1, 769, Note_on_c, 0, 41, 66
1, 770, Note_on_c, 0, 48, 76
1, 771, Note_on_c, 0, 57, 61
1, 771, Note_on_c, 0, 60, 80
1, 771, Note_off_c, 0, 64, 57
1, 772, Note_on_c, 0, 53, 36
1, 772, Note_on_c, 0, 64, 82
1, 789, Note_off_c, 0, 45, 40
1, 789, Note_off_c, 0, 52, 70
1, 789, Note_off_c, 0, 55, 36
1, 789, Note_off_c, 0, 59, 50
1, 789, Note_off_c, 0, 62, 23
1, 810, Note_off_c, 0, 79, 17
1, 816, Note_on_c, 0, 76, 94
1, 905, Note_off_c, 0, 76, 39
1, 912, Note_on_c, 0, 72, 84
1, 922, Note_off_c, 0, 72, 71
1, 959, Note_on_c, 0, 44, 62
1, 959, Note_off_c, 0, 60, 19
1, 960, Note_on_c, 0, 52, 69
1, 960, Note_on_c, 0, 56, 57
1, 960, Note_on_c, 0, 60, 76
1, 961, Note_on_c, 0, 74, 113
1, 962, Note_off_c, 0, 41, 49
1, 962, Note_off_c, 0, 48, 38
1, 962, Note_off_c, 0, 53, 37
1, 962, Note_off_c, 0, 57, 36
1, 962, Note_off_c, 0, 64, 61
1, 1006, Note_off_c, 0, 74, 56
1, 1010, Note_on_c, 0, 76, 100
1, 1020, Note_off_c, 0, 76, 85
1, 1052, Note_off_c, 0, 44, 56
1, 1052, Note_off_c, 0, 52, 52
1, 1052, Note_off_c, 0, 56, 42
1, 1052, Note_off_c, 0, 60, 29
1, 1055, Note_on_c, 0, 44, 58
1, 1056, Note_on_c, 0, 56, 52
1, 1056, Note_on_c, 0, 60, 50
1, 1056, Note_on_c, 0, 67, 89
1, 1057, Note_on_c, 0, 52, 53
1, 1057, Note_on_c, 0, 76, 106
1, 1104, Note_off_c, 0, 76, 77
1, 1105, Note_on_c, 0, 79, 113
1, 1128, Note_off_c, 0, 79, 82
1, 1130, Note_on_c, 0, 76, 116
1, 1151, Note_on_c, 0, 45, 72
1, 1151, Note_off_c, 0, 52, 69
1, 1151, Note_off_c, 0, 60, 38
1, 1152, Note_on_c, 0, 52, 73
1, 1152, Note_on_c, 0, 55, 49
1, 1152, Note_on_c, 0, 59, 56
1, 1152, Note_on_c, 0, 60, 49
1, 1152, Note_on_c, 0, 64, 64
1, 1160, Note_off_c, 0, 44, 72
1, 1160, Note_off_c, 0, 56, 56
1, 1160, Note_off_c, 0, 67, 52
1, 1199, Note_off_c, 0, 76, 53
1, 1203, Note_on_c, 0, 74, 120
1, 1278, Note_off_c, 0, 74, 47
1, 1297, Note_on_c, 0, 72, 113
1, 1306, Note_off_c, 0, 72, 74
1, 1338, Note_off_c, 0, 45, 26
1, 1338, Note_off_c, 0, 52, 51
1, 1338, Note_off_c, 0, 55, 20
1, 1338, Note_off_c, 0, 59, 50
1, 1338, Note_off_c, 0, 60, 48
1, 1338, Note_off_c, 0, 64, 66
1, 1344, Note_on_c, 0, 45, 48
1, 1344, Note_on_c, 0, 52, 62
1, 1344, Note_on_c, 0, 55, 43
1, 1344, Note_on_c, 0, 59, 65
1, 1344, Note_on_c, 0, 60, 61
1, 1345, Note_on_c, 0, 64, 77
1, 1346, Note_on_c, 0, 74, 116
1, 1386, Note_off_c, 0, 74, 55
1, 1393, Note_on_c, 0, 76, 85
1, 1406, Note_off_c, 0, 76, 79
1, 1440, Note_on_c, 0, 36, 71
1, 1440, Note_off_c, 0, 45, 45
1, 1440, Note_on_c, 0, 48, 56
1, 1440, Note_off_c, 0, 52, 59
1, 1440, Note_off_c, 0, 55, 44
1, 1440, Note_on_c, 0, 55, 62
1, 1440, Note_on_c, 0, 58, 89
1, 1440, Note_on_c, 0, 62, 75
1, 1440, Note_on_c, 0, 72, 100
1, 1447, Note_on_c, 0, 74, 87
1, 1450, Note_off_c, 0, 72, 62
1, 1455, Note_off_c, 0, 59, 65
1, 1455, Note_off_c, 0, 60, 54
1, 1455, Note_off_c, 0, 64, 80
1, 1480, Note_off_c, 0, 74, 60
1, 1487, Note_on_c, 0, 72, 103
1, 1489, Note_on_c, 0, 64, 78
1, 1508, Note_off_c, 0, 72, 39
1, 1512, Note_on_c, 0, 69, 127
1, 1525, Note_off_c, 0, 36, 58
1, 1536, Note_off_c, 0, 48, 47
1, 1536, Note_off_c, 0, 55, 56
1, 1536, Note_off_c, 0, 58, 84
1, 1536, Note_off_c, 0, 62, 25
1, 1536, Note_off_c, 0, 64, 94
1, 1536, Note_off_c, 0, 69, 70
1, 0, Note_on_c, 0, 40, 79
1, 0, Note_on_c, 0, 52, 58
1, 0, Note_on_c, 0, 53, 49
1, 0, Note_on_c, 0, 57, 37
1, 0, Note_on_c, 0, 60, 18
1, 0, Note_on_c, 0, 64, 85
1, 36, Note_off_c, 0, 60, 20
1, 41, Note_off_c, 0, 53, 12
1, 42, Note_off_c, 0, 57, 38
1, 46, Note_off_c, 0, 52, 35
1, 94, Note_off_c, 0, 64, 76
1, 95, Note_on_c, 0, 52, 59
1, 95, Note_on_c, 0, 53, 35
1, 95, Note_on_c, 0, 57, 43
1, 95, Note_on_c, 0, 60, 31
1, 95, Note_on_c, 0, 64, 45
1, 96, Note_on_c, 0, 65, 69
1, 125, Note_off_c, 0, 60, 10
1, 130, Note_off_c, 0, 64, 39
1, 133, Note_off_c, 0, 53, 19
1, 134, Note_off_c, 0, 65, 47
1, 138, Note_off_c, 0, 52, 47
1, 143, Note_off_c, 0, 57, 34
1, 144, Note_on_c, 0, 69, 62
1, 191, Note_on_c, 0, 52, 53
1, 191, Note_on_c, 0, 57, 52
1, 191, Note_on_c, 0, 64, 67
1, 192, Note_on_c, 0, 53, 20
1, 192, Note_off_c, 0, 69, 61
1, 192, Note_on_c, 0, 71, 69
1, 225, Note_off_c, 0, 53, 14
1, 228, Note_off_c, 0, 64, 43
1, 235, Note_off_c, 0, 52, 45
1, 235, Note_off_c, 0, 57, 39
1, 288, Note_on_c, 0, 52, 47
1, 288, Note_on_c, 0, 53, 24
1, 288, Note_on_c, 0, 57, 48
1, 288, Note_on_c, 0, 60, 35
1, 288, Note_on_c, 0, 64, 60
1, 288, Note_on_c, 0, 72, 77
1, 291, Note_off_c, 0, 71, 68
1, 316, Note_off_c, 0, 60, 3
1, 319, Note_off_c, 0, 53, 11
1, 321, Note_off_c, 0, 64, 27
1, 324, Note_off_c, 0, 52, 50
1, 328, Note_off_c, 0, 57, 41
1, 383, Note_off_c, 0, 40, 63
1, 383, Note_on_c, 0, 41, 60
1, 383, Note_on_c, 0, 53, 45
1, 383, Note_on_c, 0, 57, 40
1, 383, Note_on_c, 0, 59, 44
1, 383, Note_on_c, 0, 60, 19
1, 383, Note_on_c, 0, 64, 50
1, 383, Note_on_c, 0, 76, 85
1, 387, Note_off_c, 0, 72, 53
1, 414, Note_off_c, 0, 60, 3
1, 417, Note_off_c, 0, 53, 17
1, 417, Note_off_c, 0, 64, 36
1, 419, Note_off_c, 0, 59, 44
1, 425, Note_off_c, 0, 57, 40
1, 480, Note_on_c, 0, 53, 37
1, 480, Note_on_c, 0, 57, 44
1, 480, Note_on_c, 0, 59, 52
1, 480, Note_on_c, 0, 60, 28
1, 480, Note_on_c, 0, 64, 48
1, 499, Note_off_c, 0, 60, 12
1, 505, Note_off_c, 0, 59, 16
1, 514, Note_off_c, 0, 53, 13
1, 514, Note_off_c, 0, 64, 35
1, 518, Note_off_c, 0, 57, 37
1, 575, Note_off_c, 0, 76, 47
1, 576, Note_on_c, 0, 53, 33
1, 576, Note_on_c, 0, 57, 45
1, 576, Note_on_c, 0, 59, 49
1, 576, Note_on_c, 0, 60, 27
1, 576, Note_on_c, 0, 64, 49
1, 576, Note_on_c, 0, 71, 77
1, 597, Note_off_c, 0, 59, 33
1, 603, Note_off_c, 0, 60, 8
1, 607, Note_off_c, 0, 53, 18
1, 614, Note_off_c, 0, 57, 39
1, 614, Note_off_c, 0, 64, 43
1, 672, Note_on_c, 0, 53, 41
1, 672, Note_on_c, 0, 57, 41
1, 672, Note_on_c, 0, 59, 50
1, 672, Note_on_c, 0, 60, 32
1, 672, Note_on_c, 0, 64, 49
1, 692, Note_off_c, 0, 60, 32
1, 693, Note_off_c, 0, 59, 49
1, 696, Note_off_c, 0, 64, 45
1, 701, Note_off_c, 0, 53, 18
1, 705, Note_off_c, 0, 57, 16
1, 762, Note_off_c, 0, 71, 76
1, 767, Note_off_c, 0, 41, 41
1, 768, Note_on_c, 0, 40, 71
1, 768, Note_on_c, 0, 52, 44
1, 768, Note_on_c, 0, 53, 20
1, 768, Note_on_c, 0, 57, 53
1, 768, Note_on_c, 0, 60, 32
1, 768, Note_on_c, 0, 64, 68
1, 798, Note_off_c, 0, 60, 1
1, 802, Note_off_c, 0, 52, 42
1, 806, Note_off_c, 0, 53, 26
1, 806, Note_off_c, 0, 57, 43
1, 858, Note_off_c, 0, 64, 56
1, 863, Note_on_c, 0, 52, 38
1, 863, Note_on_c, 0, 53, 17
1, 863, Note_on_c, 0, 57, 39
1, 863, Note_on_c, 0, 60, 26
1, 863, Note_on_c, 0, 64, 49
1, 863, Note_on_c, 0, 65, 60
1, 892, Note_off_c, 0, 60, 6
1, 893, Note_off_c, 0, 52, 39
1, 897, Note_off_c, 0, 53, 17
1, 900, Note_off_c, 0, 64, 34
1, 902, Note_off_c, 0, 57, 40
1, 908, Note_off_c, 0, 65, 45
1, 912, Note_on_c, 0, 69, 57
1, 960, Note_on_c, 0, 52, 39
1, 960, Note_on_c, 0, 53, 19
1, 960, Note_on_c, 0, 57, 44
1, 960, Note_on_c, 0, 60, 30
1, 960, Note_on_c, 0, 64, 46
1, 960, Note_on_c, 0, 71, 71
1, 964, Note_off_c, 0, 69, 53
1, 991, Note_off_c, 0, 60, 3
1, 993, Note_off_c, 0, 52, 33
1, 996, Note_off_c, 0, 64, 16
1, 997, Note_off_c, 0, 53, 17
1, 1001, Note_off_c, 0, 57, 40
1, 1055, Note_on_c, 0, 52, 50
1, 1055, Note_on_c, 0, 53, 26
1, 1055, Note_on_c, 0, 57, 46
1, 1055, Note_on_c, 0, 60, 45
1, 1055, Note_on_c, 0, 64, 55
1, 1055, Note_off_c, 0, 71, 51
1, 1055, Note_on_c, 0, 72, 78
1, 1087, Note_off_c, 0, 60, 4
1, 1090, Note_off_c, 0, 53, 10
1, 1094, Note_off_c, 0, 64, 46
1, 1096, Note_off_c, 0, 52, 44
1, 1097, Note_off_c, 0, 57, 41
1, 1149, Note_off_c, 0, 72, 42
1, 1151, Note_off_c, 0, 40, 56
1, 1151, Note_on_c, 0, 41, 59
1, 1151, Note_on_c, 0, 53, 41
1, 1151, Note_on_c, 0, 57, 46
1, 1151, Note_on_c, 0, 59, 54
1, 1151, Note_on_c, 0, 60, 30
1, 1151, Note_on_c, 0, 64, 58
1, 1151, Note_on_c, 0, 76, 84
1, 1181, Note_off_c, 0, 60, 10
1, 1184, Note_off_c, 0, 59, 26
1, 1186, Note_off_c, 0, 53, 17
1, 1189, Note_off_c, 0, 57, 35
1, 1189, Note_off_c, 0, 64, 38
1, 1248, Note_on_c, 0, 53, 42
1, 1248, Note_on_c, 0, 57, 42
1, 1248, Note_on_c, 0, 59, 51
1, 1248, Note_on_c, 0, 60, 40
1, 1248, Note_on_c, 0, 64, 45
1, 1279, Note_off_c, 0, 60, 15
1, 1280, Note_off_c, 0, 59, 31
1, 1285, Note_off_c, 0, 64, 38
1, 1286, Note_off_c, 0, 53, 17
1, 1286, Note_off_c, 0, 57, 37
1, 1344, Note_on_c, 0, 53, 53
1, 1344, Note_on_c, 0, 57, 46
1, 1344, Note_on_c, 0, 59, 57
1, 1344, Note_on_c, 0, 60, 46
1, 1344, Note_on_c, 0, 64, 44
1, 1344, Note_on_c, 0, 71, 84
1, 1356, Note_off_c, 0, 76, 45
1, 1372, Note_off_c, 0, 53, 22
1, 1376, Note_off_c, 0, 59, 29
1, 1376, Note_off_c, 0, 60, 9
1, 1381, Note_off_c, 0, 57, 44
1, 1382, Note_off_c, 0, 64, 47
1, 1435, Note_off_c, 0, 71, 63
1, 1440, Note_on_c, 0, 57, 49
1, 1440, Note_on_c, 0, 59, 61
1, 1440, Note_on_c, 0, 60, 37
1, 1440, Note_on_c, 0, 64, 53
1, 1440, Note_on_c, 0, 69, 78
1, 1473, Note_off_c, 0, 59, 7
1, 1473, Note_off_c, 0, 60, 1
1, 1479, Note_off_c, 0, 57, 40
1, 1479, Note_off_c, 0, 64, 41
1, 1535, Note_off_c, 0, 41, 48
1, 1536, Note_on_c, 0, 40, 49
1, 1536, Note_on_c, 0, 52, 58
1, 1536, Note_on_c, 0, 53, 49
1, 1536, Note_on_c, 0, 57, 37
1, 1536, Note_on_c, 0, 60, 18
1, 1536, Note_on_c, 0, 64, 77
1, 1538, Note_off_c, 0, 69, 60
1, 1572, Note_off_c, 0, 60, 20
1, 1577, Note_off_c, 0, 53, 12
1, 1578, Note_off_c, 0, 57, 38
1, 1582, Note_off_c, 0, 52, 35
1, 1630, Note_off_c, 0, 64, 47
1, 1631, Note_on_c, 0, 52, 59
1, 1631, Note_on_c, 0, 53, 35
1, 1631, Note_on_c, 0, 57, 43
1, 1631, Note_on_c, 0, 60, 31
1, 1631, Note_on_c, 0, 64, 45
1, 1632, Note_on_c, 0, 65, 74
1, 1661, Note_off_c, 0, 60, 10
1, 1666, Note_off_c, 0, 64, 39
1, 1669, Note_off_c, 0, 53, 19
1, 1674, Note_off_c, 0, 52, 47
1, 1677, Note_off_c, 0, 65, 31
1, 1679, Note_off_c, 0, 57, 34
1, 1680, Note_on_c, 0, 69, 52
1, 1727, Note_on_c, 0, 52, 53
1, 1727, Note_on_c, 0, 57, 52
1, 1727, Note_on_c, 0, 64, 67
1, 1728, Note_on_c, 0, 53, 20
1, 1728, Note_on_c, 0, 71, 81
1, 1730, Note_off_c, 0, 69, 48
1, 1761, Note_off_c, 0, 53, 14
1, 1764, Note_off_c, 0, 64, 43
1, 1771, Note_off_c, 0, 52, 45
1, 1771, Note_off_c, 0, 57, 39
1, 1822, Note_off_c, 0, 71, 73
1, 1824, Note_on_c, 0, 52, 47
1, 1824, Note_on_c, 0, 53, 24
1, 1824, Note_on_c, 0, 57, 48
1, 1824, Note_on_c, 0, 60, 35
1, 1824, Note_on_c, 0, 64, 60
1, 1824, Note_on_c, 0, 72, 67
1, 1852, Note_off_c, 0, 60, 3
1, 1855, Note_off_c, 0, 53, 11
1, 1857, Note_off_c, 0, 64, 27
1, 1860, Note_off_c, 0, 52, 50
1, 1864, Note_off_c, 0, 57, 41
1, 1914, Note_off_c, 0, 72, 49
1, 1919, Note_off_c, 0, 40, 58
1, 1919, Note_on_c, 0, 41, 56
1, 1919, Note_on_c, 0, 53, 45
1, 1919, Note_on_c, 0, 57, 40
1, 1919, Note_on_c, 0, 59, 44
1, 1919, Note_on_c, 0, 60, 19
1, 1919, Note_on_c, 0, 64, 50
1, 1919, Note_on_c, 0, 76, 85
1, 1950, Note_off_c, 0, 60, 3
1, 1953, Note_off_c, 0, 53, 17
1, 1953, Note_off_c, 0, 64, 36
1, 1955, Note_off_c, 0, 59, 44
1, 1961, Note_off_c, 0, 57, 40
1, 2016, Note_on_c, 0, 53, 37
1, 2016, Note_on_c, 0, 57, 44
1, 2016, Note_on_c, 0, 59, 52
1, 2016, Note_on_c, 0, 60, 28
1, 2016, Note_on_c, 0, 64, 48
1, 2035, Note_off_c, 0, 60, 12
1, 2041, Note_off_c, 0, 59, 16
1, 2050, Note_off_c, 0, 53, 13
1, 2050, Note_off_c, 0, 64, 35
1, 2054, Note_off_c, 0, 57, 37
1, 2111, Note_off_c, 0, 76, 47
1, 2112, Note_on_c, 0, 53, 33
1, 2112, Note_on_c, 0, 57, 45
1, 2112, Note_on_c, 0, 59, 49
1, 2112, Note_on_c, 0, 60, 27
1, 2112, Note_on_c, 0, 64, 49
1, 2112, Note_on_c, 0, 71, 85
1, 2133, Note_off_c, 0, 59, 33
1, 2139, Note_off_c, 0, 60, 8
1, 2143, Note_off_c, 0, 53, 18
1, 2150, Note_off_c, 0, 57, 39
1, 2150, Note_off_c, 0, 64, 43
1, 2208, Note_on_c, 0, 53, 41
1, 2208, Note_on_c, 0, 57, 41
1, 2208, Note_on_c, 0, 59, 50
1, 2208, Note_on_c, 0, 60, 32
1, 2208, Note_on_c, 0, 64, 49
1, 2228, Note_off_c, 0, 60, 32
1, 2229, Note_off_c, 0, 59, 49
1, 2232, Note_off_c, 0, 64, 45
1, 2237, Note_off_c, 0, 53, 18
1, 2241, Note_off_c, 0, 57, 16
1, 2303, Note_off_c, 0, 41, 51
1, 2304, Note_on_c, 0, 45, 55
1, 2304, Note_on_c, 0, 52, 44
1, 2304, Note_on_c, 0, 53, 20
1, 2304, Note_on_c, 0, 57, 53
1, 2304, Note_on_c, 0, 60, 32
1, 2304, Note_on_c, 0, 64, 86
1, 2310, Note_off_c, 0, 71, 62
1, 2334, Note_off_c, 0, 60, 1
1, 2338, Note_off_c, 0, 52, 42
1, 2342, Note_off_c, 0, 53, 26
1, 2342, Note_off_c, 0, 57, 43
1, 2397, Note_off_c, 0, 64, 72
1, 2399, Note_on_c, 0, 52, 38
1, 2399, Note_on_c, 0, 53, 17
1, 2399, Note_on_c, 0, 57, 39
1, 2399, Note_on_c, 0, 60, 26
1, 2399, Note_on_c, 0, 64, 49
1, 2399, Note_on_c, 0, 65, 60
1, 2428, Note_off_c, 0, 60, 6
1, 2429, Note_off_c, 0, 52, 39
1, 2433, Note_off_c, 0, 53, 17
1, 2436, Note_off_c, 0, 64, 34
1, 2438, Note_off_c, 0, 57, 40
1, 2492, Note_off_c, 0, 65, 45
1, 2496, Note_on_c, 0, 52, 39
1, 2496, Note_on_c, 0, 53, 19
1, 2496, Note_on_c, 0, 57, 44
1, 2496, Note_on_c, 0, 60, 30
1, 2496, Note_on_c, 0, 64, 46
1, 2496, Note_on_c, 0, 69, 74
1, 2527, Note_off_c, 0, 60, 3
1, 2529, Note_off_c, 0, 52, 33
1, 2532, Note_off_c, 0, 64, 16
1, 2533, Note_off_c, 0, 53, 17
1, 2537, Note_off_c, 0, 57, 40
1, 2591, Note_on_c, 0, 52, 50
1, 2591, Note_on_c, 0, 53, 26
1, 2591, Note_on_c, 0, 57, 46
1, 2591, Note_on_c, 0, 60, 45
1, 2591, Note_on_c, 0, 64, 55
1, 2591, Note_on_c, 0, 71, 76
1, 2593, Note_off_c, 0, 69, 51
1, 2623, Note_off_c, 0, 60, 4
1, 2626, Note_off_c, 0, 53, 10
1, 2630, Note_off_c, 0, 64, 46
1, 2632, Note_off_c, 0, 52, 44
1, 2633, Note_off_c, 0, 57, 41
1, 2687, Note_off_c, 0, 45, 73
1, 2687, Note_on_c, 0, 47, 60
1, 2687, Note_on_c, 0, 53, 41
1, 2687, Note_on_c, 0, 57, 46
1, 2687, Note_on_c, 0, 59, 54
1, 2687, Note_on_c, 0, 60, 30
1, 2687, Note_on_c, 0, 64, 58
1, 2687, Note_on_c, 0, 72, 74
1, 2695, Note_off_c, 0, 71, 68
1, 2717, Note_off_c, 0, 60, 10
1, 2720, Note_off_c, 0, 59, 26
1, 2722, Note_off_c, 0, 53, 17
1, 2725, Note_off_c, 0, 57, 35
1, 2725, Note_off_c, 0, 64, 38
1, 2784, Note_on_c, 0, 53, 42
1, 2784, Note_on_c, 0, 57, 42
1, 2784, Note_on_c, 0, 59, 51
1, 2784, Note_on_c, 0, 60, 40
1, 2784, Note_on_c, 0, 64, 45
1, 2815, Note_off_c, 0, 60, 15
1, 2816, Note_off_c, 0, 59, 31
1, 2821, Note_off_c, 0, 64, 38
1, 2822, Note_off_c, 0, 53, 17
1, 2822, Note_off_c, 0, 57, 37
1, 2871, Note_off_c, 0, 72, 36
1, 2880, Note_on_c, 0, 53, 53
1, 2880, Note_on_c, 0, 57, 46
1, 2880, Note_on_c, 0, 59, 57
1, 2880, Note_on_c, 0, 60, 46
1, 2880, Note_on_c, 0, 64, 44
1, 2880, Note_on_c, 0, 76, 84
1, 2908, Note_off_c, 0, 53, 22
1, 2912, Note_off_c, 0, 59, 29
1, 2912, Note_off_c, 0, 60, 9
1, 2917, Note_off_c, 0, 57, 44
1, 2918, Note_off_c, 0, 64, 47
1, 2976, Note_on_c, 0, 57, 49
1, 2976, Note_on_c, 0, 59, 61
1, 2976, Note_on_c, 0, 60, 37
1, 2976, Note_on_c, 0, 64, 53
1, 2976, Note_on_c, 0, 65, 82
1, 2978, Note_off_c, 0, 76, 69
1, 3009, Note_off_c, 0, 59, 7
1, 3009, Note_off_c, 0, 60, 1
1, 3015, Note_off_c, 0, 57, 40
1, 3015, Note_off_c, 0, 64, 41
1, 3059, Note_off_c, 0, 65, 86
1, 3071, Note_off_c, 0, 47, 103
1, 0, Note_on_c, 0, 33, 100
1, 0, Note_on_c, 0, 48, 100
1, 0, Note_on_c, 0, 57, 100
1, 0, Note_on_c, 0, 72, 100
1, 24, Note_off_c, 0, 57, 64
1, 24, Note_off_c, 0, 72, 64
1, 48, Note_off_c, 0, 33, 64
1, 48, Note_off_c, 0, 48, 64
1, 48, Note_on_c, 0, 60, 100
1, 72, Note_off_c, 0, 60, 64
1, 96, Note_on_c, 0, 36, 100
1, 96, Note_on_c, 0, 64, 100
1, 96, Note_on_c, 0, 71, 100
1, 120, Note_off_c, 0, 64, 64
1, 120, Note_off_c, 0, 71, 64
1, 144, Note_off_c, 0, 36, 64
1, 192, Note_on_c, 0, 40, 100
1, 192, Note_on_c, 0, 47, 100
1, 192, Note_on_c, 0, 76, 100
1, 216, Note_off_c, 0, 76, 64
1, 240, Note_off_c, 0, 40, 64
1, 240, Note_off_c, 0, 47, 64
1, 288, Note_on_c, 0, 77, 100
1, 312, Note_off_c, 0, 77, 64
1, 384, Note_on_c, 0, 40, 100
1, 384, Note_on_c, 0, 52, 100
1, 384, Note_on_c, 0, 64, 100
1, 384, Note_on_c, 0, 76, 100
1, 408, Note_off_c, 0, 64, 64
1, 408, Note_off_c, 0, 76, 64
1, 432, Note_off_c, 0, 40, 64
1, 432, Note_off_c, 0, 52, 64
1, 432, Note_on_c, 0, 57, 100
1, 456, Note_off_c, 0, 57, 64
1, 480, Note_on_c, 0, 33, 100
1, 480, Note_on_c, 0, 60, 100
1, 480, Note_on_c, 0, 74, 100
1, 504, Note_off_c, 0, 60, 64
1, 504, Note_off_c, 0, 74, 64
1, 528, Note_off_c, 0, 33, 64
1, 528, Note_on_c, 0, 64, 100
1, 552, Note_off_c, 0, 64, 64
1, 576, Note_on_c, 0, 36, 100
1, 576, Note_on_c, 0, 50, 100
1, 576, Note_on_c, 0, 59, 100
1, 576, Note_on_c, 0, 71, 100
1, 600, Note_off_c, 0, 59, 64
1, 600, Note_off_c, 0, 71, 64
1, 624, Note_off_c, 0, 36, 64
1, 624, Note_off_c, 0, 50, 64
1, 624, Note_on_c, 0, 62, 100
1, 648, Note_off_c, 0, 62, 64
1, 672, Note_on_c, 0, 40, 100
1, 672, Note_on_c, 0, 65, 100
1, 672, Note_on_c, 0, 72, 100
1, 696, Note_off_c, 0, 65, 64
1, 696, Note_off_c, 0, 72, 64
1, 720, Note_off_c, 0, 40, 64
1, 768, Note_on_c, 0, 33, 100
1, 768, Note_on_c, 0, 48, 100
1, 768, Note_on_c, 0, 57, 100
1, 768, Note_on_c, 0, 72, 100
1, 792, Note_off_c, 0, 57, 64
1, 792, Note_off_c, 0, 72, 64
1, 816, Note_off_c, 0, 33, 64
1, 816, Note_off_c, 0, 48, 64
1, 816, Note_on_c, 0, 60, 100
1, 840, Note_off_c, 0, 60, 64
1, 864, Note_on_c, 0, 36, 100
1, 864, Note_on_c, 0, 64, 100
1, 864, Note_on_c, 0, 71, 100
1, 888, Note_off_c, 0, 64, 64
1, 888, Note_off_c, 0, 71, 64
1, 912, Note_off_c, 0, 36, 64
1, 960, Note_on_c, 0, 40, 100
1, 960, Note_on_c, 0, 47, 100
1, 960, Note_on_c, 0, 76, 100
1, 984, Note_off_c, 0, 76, 64
1, 1008, Note_off_c, 0, 40, 64
1, 1008, Note_off_c, 0, 47, 64
1, 1056, Note_on_c, 0, 77, 100
1, 1080, Note_off_c, 0, 77, 64
1, 1152, Note_on_c, 0, 40, 100
1, 1152, Note_on_c, 0, 52, 100
1, 1152, Note_on_c, 0, 64, 100
1, 1152, Note_on_c, 0, 76, 100
1, 1176, Note_off_c, 0, 64, 64
1, 1176, Note_off_c, 0, 76, 64
1, 1200, Note_off_c, 0, 40, 64
1, 1200, Note_off_c, 0, 52, 64
1, 1200, Note_on_c, 0, 57, 100
1, 1224, Note_off_c, 0, 57, 64
1, 1248, Note_on_c, 0, 33, 100
1, 1248, Note_on_c, 0, 60, 100
1, 1248, Note_on_c, 0, 74, 100
1, 1272, Note_off_c, 0, 60, 64
1, 1272, Note_off_c, 0, 74, 64
1, 1296, Note_off_c, 0, 33, 64
1, 1296, Note_on_c, 0, 64, 100
1, 1320, Note_off_c, 0, 64, 64
1, 1344, Note_on_c, 0, 36, 100
1, 1344, Note_on_c, 0, 50, 100
1, 1344, Note_on_c, 0, 59, 100
1, 1344, Note_on_c, 0, 71, 100
1, 1368, Note_off_c, 0, 59, 64
1, 1368, Note_off_c, 0, 71, 64
1, 1392, Note_off_c, 0, 36, 64
1, 1392, Note_off_c, 0, 50, 64
1, 1392, Note_on_c, 0, 62, 100
1, 1416, Note_off_c, 0, 62, 64
1, 1440, Note_on_c, 0, 40, 100
1, 1440, Note_on_c, 0, 65, 100
1, 1440, Note_on_c, 0, 72, 100
1, 1464, Note_off_c, 0, 65, 64
1, 1464, Note_off_c, 0, 72, 64
1, 1488, Note_off_c, 0, 40, 64
1, 0, Note_on_c, 0, 57, 72
1, 0, Note_on_c, 0, 64, 72
1, 0, Note_on_c, 0, 69, 72
1, 0, Note_on_c, 0, 76, 72
1, 48, Note_off_c, 0, 69, 64
1, 48, Note_off_c, 0, 76, 64
1, 96, Note_off_c, 0, 57, 64
1, 96, Note_off_c, 0, 64, 64
1, 96, Note_on_c, 0, 72, 72
1, 144, Note_off_c, 0, 72, 64
1, 192, Note_on_c, 0, 60, 72
1, 288, Note_off_c, 0, 60, 64
1, 384, Note_on_c, 0, 57, 72
1, 384, Note_on_c, 0, 64, 72
1, 384, Note_on_c, 0, 69, 72
1, 384, Note_on_c, 0, 76, 72
1, 432, Note_off_c, 0, 69, 64
1, 432, Note_off_c, 0, 76, 64
1, 480, Note_off_c, 0, 57, 64
1, 480, Note_off_c, 0, 64, 64
1, 480, Note_on_c, 0, 72, 72
1, 528, Note_off_c, 0, 72, 64
1, 576, Note_on_c, 0, 60, 72
1, 576, Note_on_c, 0, 74, 72
1, 624, Note_off_c, 0, 74, 64
1, 672, Note_off_c, 0, 60, 64
1, 672, Note_on_c, 0, 77, 72
1, 720, Note_off_c, 0, 77, 64
1, 768, Note_on_c, 0, 57, 72
1, 768, Note_on_c, 0, 64, 72
1, 768, Note_on_c, 0, 69, 72
1, 768, Note_on_c, 0, 76, 72
1, 816, Note_off_c, 0, 69, 64
1, 816, Note_off_c, 0, 76, 64
1, 864, Note_off_c, 0, 57, 64
1, 864, Note_off_c, 0, 64, 64
1, 864, Note_on_c, 0, 72, 72
1, 912, Note_off_c, 0, 72, 64
1, 960, Note_on_c, 0, 60, 72
1, 1056, Note_off_c, 0, 60, 64
1, 1152, Note_on_c, 0, 57, 72
1, 1152, Note_on_c, 0, 64, 72
1, 1152, Note_on_c, 0, 69, 72
1, 1152, Note_on_c, 0, 76, 72
1, 1200, Note_off_c, 0, 69, 64
1, 1200, Note_off_c, 0, 76, 64
1, 1248, Note_off_c, 0, 57, 64
1, 1248, Note_off_c, 0, 64, 64
1, 1248, Note_on_c, 0, 72, 72
1, 1296, Note_off_c, 0, 72, 64
1, 1344, Note_on_c, 0, 60, 72
1, 1344, Note_on_c, 0, 74, 72
1, 1392, Note_off_c, 0, 74, 64
1, 1440, Note_off_c, 0, 60, 64
1, 1440, Note_on_c, 0, 77, 72
1, 1488, Note_off_c, 0, 77, 64
1, 0, Note_on_c, 0, 57, 100
1, 0, Note_on_c, 0, 60, 100
1, 0, Note_on_c, 0, 64, 100
1, 0, Note_on_c, 0, 76, 100
1, 72, Note_off_c, 0, 76, 64
1, 96, Note_on_c, 0, 59, 100
1, 96, Note_on_c, 0, 71, 100
1, 168, Note_off_c, 0, 71, 64
1, 192, Note_on_c, 0, 71, 100
1, 264, Note_off_c, 0, 64, 64
1, 264, Note_off_c, 0, 71, 64
1, 288, Note_off_c, 0, 59, 64
1, 288, Note_on_c, 0, 64, 100
1, 288, Note_on_c, 0, 72, 100
1, 360, Note_off_c, 0, 57, 64
1, 360, Note_off_c, 0, 60, 64
1, 360, Note_off_c, 0, 72, 64
1, 384, Note_on_c, 0, 57, 100
1, 384, Note_on_c, 0, 60, 100
1, 384, Note_off_c, 0, 64, 64
1, 384, Note_on_c, 0, 74, 100
1, 456, Note_off_c, 0, 74, 64
1, 480, Note_on_c, 0, 59, 100
1, 480, Note_on_c, 0, 72, 100
1, 552, Note_off_c, 0, 72, 64
1, 576, Note_on_c, 0, 72, 100
1, 648, Note_off_c, 0, 72, 64
1, 672, Note_on_c, 0, 69, 100
1, 744, Note_off_c, 0, 57, 64
1, 744, Note_off_c, 0, 59, 64
1, 744, Note_off_c, 0, 60, 64
1, 744, Note_off_c, 0, 69, 64
1, 768, Note_on_c, 0, 57, 100
1, 768, Note_on_c, 0, 60, 100
1, 768, Note_on_c, 0, 64, 100
1, 768, Note_on_c, 0, 77, 100
1, 840, Note_off_c, 0, 77, 64
1, 864, Note_on_c, 0, 59, 100
1, 864, Note_on_c, 0, 71, 100
1, 936, Note_off_c, 0, 71, 64
1, 960, Note_on_c, 0, 71, 100
1, 1032, Note_off_c, 0, 64, 64
1, 1032, Note_off_c, 0, 71, 64
1, 1056, Note_off_c, 0, 59, 64
1, 1056, Note_on_c, 0, 64, 100
1, 1056, Note_on_c, 0, 72, 100
1, 1128, Note_off_c, 0, 57, 64
1, 1128, Note_off_c, 0, 60, 64
1, 1128, Note_off_c, 0, 72, 64
1, 1152, Note_on_c, 0, 57, 100
1, 1152, Note_on_c, 0, 60, 100
1, 1152, Note_off_c, 0, 64, 64
1, 1152, Note_on_c, 0, 74, 100
1, 1224, Note_off_c, 0, 74, 64
1, 1248, Note_on_c, 0, 59, 100
1, 1248, Note_on_c, 0, 74, 100
1, 1320, Note_off_c, 0, 74, 64
1, 1344, Note_on_c, 0, 77, 100
1, 1416, Note_off_c, 0, 77, 64
1, 1440, Note_on_c, 0, 72, 100
1, 1512, Note_off_c, 0, 57, 64
1, 1512, Note_off_c, 0, 59, 64
1, 1512, Note_off_c, 0, 60, 64
1, 1512, Note_off_c, 0, 72, 64
1, 0, Note_on_c, 0, 41, 97
1, 0, Note_on_c, 0, 55, 97
1, 0, Note_on_c, 0, 60, 97
1, 0, Note_on_c, 0, 64, 97
1, 0, Note_on_c, 0, 81, 100
1, 23, Note_off_c, 0, 81, 32
1, 72, Note_on_c, 0, 81, 100
1, 94, Note_off_c, 0, 81, 36
1, 144, Note_on_c, 0, 79, 100
1, 167, Note_off_c, 0, 79, 33
1, 216, Note_on_c, 0, 79, 100
1, 245, Note_off_c, 0, 79, 15
1, 288, Note_on_c, 0, 76, 100
1, 321, Note_off_c, 0, 76, 1
1, 384, Note_off_c, 0, 41, 0
1, 384, Note_on_c, 0, 43, 97
1, 384, Note_off_c, 0, 55, 0
1, 384, Note_on_c, 0, 55, 97
1, 384, Note_off_c, 0, 60, 0
1, 384, Note_on_c, 0, 60, 97
1, 384, Note_on_c, 0, 62, 97
1, 384, Note_off_c, 0, 64, 0
1, 720, Note_on_c, 0, 74, 100
1, 768, Note_off_c, 0, 43, 0
1, 768, Note_on_c, 0, 45, 97
1, 768, Note_off_c, 0, 55, 0
1, 768, Note_on_c, 0, 55, 97
1, 768, Note_off_c, 0, 60, 0
1, 768, Note_on_c, 0, 60, 97
1, 768, Note_off_c, 0, 62, 0
1, 768, Note_on_c, 0, 64, 97
1, 768, Note_on_c, 0, 76, 100
1, 770, Note_off_c, 0, 74, 32
1, 791, Note_off_c, 0, 76, 48
1, 840, Note_on_c, 0, 76, 100
1, 867, Note_off_c, 0, 76, 18
1, 912, Note_on_c, 0, 74, 100
1, 944, Note_off_c, 0, 74, 24
1, 984, Note_on_c, 0, 74, 100
1, 1021, Note_off_c, 0, 74, 36
1, 1056, Note_on_c, 0, 72, 100
1, 1091, Note_off_c, 0, 72, 62
1, 1152, Note_off_c, 0, 45, 0
1, 1152, Note_on_c, 0, 48, 97
1, 1152, Note_off_c, 0, 55, 0
1, 1152, Note_on_c, 0, 55, 97
1, 1152, Note_off_c, 0, 60, 0
1, 1152, Note_on_c, 0, 60, 97
1, 1152, Note_off_c, 0, 64, 0
1, 1152, Note_on_c, 0, 64, 97
1, 1536, Note_off_c, 0, 48, 0
1, 1536, Note_off_c, 0, 55, 0
1, 1536, Note_off_c, 0, 60, 0
1, 1536, Note_off_c, 0, 64, 0
1, 0, Note_on_c, 0, 45, 102
1, 6, Note_on_c, 0, 60, 95
1, 96, Note_on_c, 0, 59, 99
1, 191, Note_off_c, 0, 59, 64
1, 192, Note_on_c, 0, 59, 94
1, 288, Note_off_c, 0, 45, 64
1, 288, Note_on_c, 0, 48, 99
1, 288, Note_off_c, 0, 59, 64
1, 288, Note_off_c, 0, 60, 64
1, 289, Note_on_c, 0, 64, 97
1, 384, Note_on_c, 0, 45, 103
1, 384, Note_off_c, 0, 48, 64
1, 384, Note_off_c, 0, 64, 64
1, 385, Note_on_c, 0, 60, 105
1, 480, Note_on_c, 0, 59, 97
1, 575, Note_off_c, 0, 59, 64
1, 576, Note_on_c, 0, 59, 107
1, 672, Note_off_c, 0, 45, 64
1, 672, Note_on_c, 0, 48, 97
1, 672, Note_off_c, 0, 59, 64
1, 672, Note_off_c, 0, 60, 64
1, 673, Note_on_c, 0, 64, 97
1, 768, Note_on_c, 0, 45, 106
1, 768, Note_off_c, 0, 48, 64
1, 768, Note_off_c, 0, 64, 64
1, 774, Note_on_c, 0, 60, 100
1, 864, Note_on_c, 0, 59, 99
1, 959, Note_off_c, 0, 59, 64
1, 960, Note_on_c, 0, 59, 94
1, 1056, Note_on_c, 0, 41, 107
1, 1056, Note_off_c, 0, 45, 64
1, 1056, Note_off_c, 0, 59, 64
1, 1056, Note_off_c, 0, 60, 64
1, 1057, Note_on_c, 0, 57, 96
1, 1152, Note_off_c, 0, 41, 64
1, 1152, Note_on_c, 0, 45, 101
1, 1152, Note_off_c, 0, 57, 64
1, 1153, Note_on_c, 0, 60, 97
1, 1248, Note_on_c, 0, 59, 100
1, 1343, Note_off_c, 0, 59, 64
1, 1344, Note_on_c, 0, 59, 102
1, 1440, Note_off_c, 0, 45, 64
1, 1440, Note_on_c, 0, 47, 102
1, 1440, Note_off_c, 0, 59, 64
1, 1440, Note_off_c, 0, 60, 64
1, 1441, Note_on_c, 0, 62, 102
1, 1536, Note_off_c, 0, 47, 64
1, 1536, Note_off_c, 0, 62, 64
1, 0, Note_on_c, 0, 65, 99
1, 48, Note_on_c, 0, 69, 99
1, 96, Note_on_c, 0, 72, 99
1, 144, Note_on_c, 0, 74, 99
1, 192, Note_on_c, 0, 76, 99
1, 336, Note_off_c, 0, 65, 64
1, 384, Note_on_c, 0, 64, 99
1, 384, Note_off_c, 0, 69, 64
1, 384, Note_off_c, 0, 72, 64
1, 384, Note_off_c, 0, 74, 64
1, 384, Note_off_c, 0, 76, 64
1, 432, Note_on_c, 0, 68, 99
1, 480, Note_on_c, 0, 71, 99
1, 528, Note_on_c, 0, 74, 99
1, 576, Note_on_c, 0, 79, 99
1, 672, Note_on_c, 0, 77, 99
1, 672, Note_off_c, 0, 79, 64
1, 720, Note_off_c, 0, 64, 64
1, 768, Note_on_c, 0, 62, 99
1, 768, Note_off_c, 0, 68, 64
1, 768, Note_off_c, 0, 71, 64
1, 768, Note_off_c, 0, 74, 64
1, 768, Note_off_c, 0, 77, 64
1, 816, Note_on_c, 0, 65, 99
1, 864, Note_on_c, 0, 69, 99
1, 912, Note_on_c, 0, 72, 99
1, 960, Note_on_c, 0, 74, 99
1, 1002, Note_off_c, 0, 65, 64
1, 1008, Note_off_c, 0, 69, 64
1, 1008, Note_on_c, 0, 69, 99
1, 1056, Note_off_c, 0, 62, 64
1, 1056, Note_on_c, 0, 62, 99
1, 1152, Note_off_c, 0, 62, 64
1, 1152, Note_on_c, 0, 64, 99
1, 1152, Note_off_c, 0, 69, 64
1, 1152, Note_off_c, 0, 72, 64
1, 1197, Note_on_c, 0, 68, 99
1, 1232, Note_off_c, 0, 74, 64
1, 1248, Note_on_c, 0, 71, 99
1, 1296, Note_on_c, 0, 74, 99
1, 1344, Note_on_c, 0, 79, 99
1, 1440, Note_on_c, 0, 77, 99
1, 1440, Note_off_c, 0, 79, 64
1, 1488, Note_off_c, 0, 64, 64
1, 1533, Note_off_c, 0, 68, 64
1, 1536, Note_on_c, 0, 65, 99
1, 1536, Note_off_c, 0, 71, 64
1, 1536, Note_off_c, 0, 74, 64
1, 1536, Note_off_c, 0, 77, 64
1, 1584, Note_on_c, 0, 69, 99
1, 1632, Note_on_c, 0, 72, 99
1, 1680, Note_on_c, 0, 74, 99
1, 1728, Note_on_c, 0, 76, 99
1, 1872, Note_off_c, 0, 65, 64
1, 1920, Note_on_c, 0, 64, 99
1, 1920, Note_off_c, 0, 69, 64
1, 1920, Note_off_c, 0, 72, 64
1, 1920, Note_off_c, 0, 74, 64
1, 1920, Note_off_c, 0, 76, 64
1, 1968, Note_on_c, 0, 68, 99
1, 2016, Note_on_c, 0, 71, 99
1, 2064, Note_on_c, 0, 74, 99
1, 2112, Note_on_c, 0, 79, 99
1, 2208, Note_on_c, 0, 77, 99
1, 2208, Note_off_c, 0, 79, 64
1, 2256, Note_off_c, 0, 64, 64
1, 2304, Note_on_c, 0, 62, 99
1, 2304, Note_off_c, 0, 68, 64
1, 2304, Note_off_c, 0, 71, 64
1, 2304, Note_off_c, 0, 74, 64
1, 2304, Note_off_c, 0, 77, 64
1, 2352, Note_on_c, 0, 65, 99
1, 2400, Note_on_c, 0, 69, 99
1, 2448, Note_on_c, 0, 72, 99
1, 2496, Note_on_c, 0, 74, 99
1, 2538, Note_off_c, 0, 65, 64
1, 2544, Note_off_c, 0, 69, 64
1, 2544, Note_on_c, 0, 69, 99
1, 2592, Note_off_c, 0, 62, 64
1, 2592, Note_on_c, 0, 62, 99
1, 2688, Note_off_c, 0, 62, 64
1, 2688, Note_on_c, 0, 64, 99
1, 2688, Note_off_c, 0, 69, 64
1, 2688, Note_off_c, 0, 72, 64
1, 2733, Note_on_c, 0, 68, 99
1, 2768, Note_off_c, 0, 74, 64
1, 2784, Note_on_c, 0, 71, 99
1, 2832, Note_on_c, 0, 74, 99
1, 2880, Note_on_c, 0, 79, 99
1, 2976, Note_on_c, 0, 77, 99
1, 2976, Note_off_c, 0, 79, 64
1, 3024, Note_off_c, 0, 64, 64
1, 3069, Note_off_c, 0, 68, 64
1, 3072, Note_off_c, 0, 71, 64
1, 3072, Note_off_c, 0, 74, 64
1, 3072, Note_off_c, 0, 77, 64
1, 0, Note_on_c, 0, 33, 100
1, 0, Note_on_c, 0, 45, 100
1, 0, Note_on_c, 0, 59, 100
1, 0, Note_on_c, 0, 71, 100
1, 96, Note_off_c, 0, 45, 64
1, 96, Note_on_c, 0, 52, 100
1, 96, Note_off_c, 0, 71, 64
1, 192, Note_off_c, 0, 33, 64
1, 192, Note_on_c, 0, 40, 100
1, 192, Note_off_c, 0, 52, 64
1, 192, Note_off_c, 0, 59, 64
1, 192, Note_on_c, 0, 72, 100
1, 288, Note_off_c, 0, 72, 64
1, 288, Note_on_c, 0, 77, 100
1, 384, Note_off_c, 0, 40, 64
1, 384, Note_on_c, 0, 64, 100
1, 384, Note_on_c, 0, 76, 100
1, 384, Note_off_c, 0, 77, 64
1, 480, Note_on_c, 0, 52, 100
1, 480, Note_off_c, 0, 76, 64
1, 576, Note_on_c, 0, 40, 100
1, 576, Note_off_c, 0, 52, 64
1, 576, Note_off_c, 0, 64, 64
1, 576, Note_on_c, 0, 72, 100
1, 672, Note_off_c, 0, 72, 64
1, 672, Note_on_c, 0, 77, 100
1, 768, Note_on_c, 0, 33, 100
1, 768, Note_off_c, 0, 40, 64
1, 768, Note_on_c, 0, 45, 100
1, 768, Note_on_c, 0, 59, 100
1, 768, Note_on_c, 0, 71, 100
1, 768, Note_off_c, 0, 77, 64
1, 864, Note_off_c, 0, 45, 64
1, 864, Note_on_c, 0, 52, 100
1, 864, Note_off_c, 0, 71, 64
1, 960, Note_off_c, 0, 33, 64
1, 960, Note_on_c, 0, 40, 100
1, 960, Note_off_c, 0, 52, 64
1, 960, Note_off_c, 0, 59, 64
1, 960, Note_on_c, 0, 72, 100
1, 1056, Note_off_c, 0, 72, 64
1, 1056, Note_on_c, 0, 77, 100
1, 1152, Note_off_c, 0, 40, 64
1, 1152, Note_on_c, 0, 64, 100
1, 1152, Note_on_c, 0, 76, 100
1, 1152, Note_off_c, 0, 77, 64
1, 1248, Note_on_c, 0, 52, 100
1, 1248, Note_off_c, 0, 76, 64
1, 1344, Note_on_c, 0, 40, 100
1, 1344, Note_off_c, 0, 52, 64
1, 1344, Note_off_c, 0, 64, 64
1, 1344, Note_on_c, 0, 72, 100
1, 1440, Note_off_c, 0, 72, 64
1, 1440, Note_on_c, 0, 77, 100
1, 1536, Note_off_c, 0, 40, 64
1, 1536, Note_off_c, 0, 77, 64
1, 0, Note_on_c, 0, 52, 54
1, 0, Note_on_c, 0, 57, 37
1, 5, Note_on_c, 0, 69, 54
1, 48, Note_on_c, 0, 60, 37
1, 53, Note_on_c, 0, 72, 54
1, 90, Note_off_c, 0, 52, 64
1, 95, Note_off_c, 0, 57, 64
1, 96, Note_on_c, 0, 57, 37
1, 96, Note_off_c, 0, 60, 64
1, 96, Note_off_c, 0, 69, 64
1, 144, Note_on_c, 0, 65, 54
1, 191, Note_off_c, 0, 57, 64
1, 192, Note_on_c, 0, 57, 37
1, 192, Note_on_c, 0, 64, 41
1, 192, Note_off_c, 0, 72, 64
1, 234, Note_off_c, 0, 65, 64
1, 240, Note_on_c, 0, 60, 37
1, 240, Note_on_c, 0, 69, 37
1, 287, Note_off_c, 0, 57, 64
1, 288, Note_on_c, 0, 57, 37
1, 288, Note_off_c, 0, 60, 64
1, 288, Note_off_c, 0, 69, 64
1, 288, Note_on_c, 0, 71, 44
1, 296, Note_on_c, 0, 72, 44
1, 299, Note_off_c, 0, 71, 64
1, 336, Note_off_c, 0, 64, 64
1, 336, Note_on_c, 0, 71, 37
1, 336, Note_off_c, 0, 72, 64
1, 379, Note_off_c, 0, 57, 64
1, 384, Note_on_c, 0, 53, 54
1, 384, Note_on_c, 0, 57, 37
1, 384, Note_off_c, 0, 71, 64
1, 389, Note_on_c, 0, 71, 54
1, 432, Note_on_c, 0, 60, 37
1, 437, Note_on_c, 0, 74, 54
1, 474, Note_off_c, 0, 53, 64
1, 479, Note_off_c, 0, 57, 64
1, 480, Note_on_c, 0, 57, 37
1, 480, Note_off_c, 0, 60, 64
1, 480, Note_off_c, 0, 71, 64
1, 528, Note_on_c, 0, 65, 54
1, 575, Note_off_c, 0, 57, 64
1, 576, Note_on_c, 0, 57, 37
1, 576, Note_on_c, 0, 64, 41
1, 576, Note_off_c, 0, 74, 64
1, 618, Note_off_c, 0, 65, 64
1, 624, Note_on_c, 0, 60, 37
1, 671, Note_off_c, 0, 57, 64
1, 672, Note_on_c, 0, 57, 37
1, 672, Note_off_c, 0, 60, 64
1, 672, Note_on_c, 0, 69, 44
1, 720, Note_off_c, 0, 64, 64
1, 720, Note_off_c, 0, 69, 64
1, 720, Note_on_c, 0, 71, 37
1, 767, Note_off_c, 0, 57, 64
1, 768, Note_on_c, 0, 52, 54
1, 768, Note_on_c, 0, 57, 37
1, 768, Note_off_c, 0, 71, 64
1, 773, Note_on_c, 0, 69, 54
1, 816, Note_on_c, 0, 60, 37
1, 821, Note_on_c, 0, 72, 54
1, 858, Note_off_c, 0, 52, 64
1, 863, Note_off_c, 0, 57, 64
1, 864, Note_on_c, 0, 57, 37
1, 864, Note_off_c, 0, 60, 64
1, 864, Note_off_c, 0, 69, 64
1, 912, Note_on_c, 0, 65, 54
1, 959, Note_off_c, 0, 57, 64
1, 960, Note_on_c, 0, 57, 37
1, 960, Note_on_c, 0, 64, 41
1, 960, Note_off_c, 0, 72, 64
1, 1002, Note_off_c, 0, 65, 64
1, 1008, Note_on_c, 0, 60, 37
1, 1008, Note_on_c, 0, 69, 37
1, 1055, Note_off_c, 0, 57, 64
1, 1056, Note_on_c, 0, 57, 37
1, 1056, Note_off_c, 0, 60, 64
1, 1056, Note_off_c, 0, 69, 64
1, 1056, Note_on_c, 0, 71, 44
1, 1064, Note_on_c, 0, 72, 44
1, 1067, Note_off_c, 0, 71, 64
1, 1104, Note_off_c, 0, 64, 64
1, 1104, Note_on_c, 0, 71, 37
1, 1104, Note_off_c, 0, 72, 64
1, 1147, Note_off_c, 0, 57, 64
1, 1152, Note_on_c, 0, 53, 54
1, 1152, Note_on_c, 0, 57, 37
1, 1152, Note_off_c, 0, 71, 64
1, 1157, Note_on_c, 0, 71, 54
1, 1200, Note_on_c, 0, 60, 37
1, 1205, Note_on_c, 0, 74, 54
1, 1242, Note_off_c, 0, 53, 64
1, 1247, Note_off_c, 0, 57, 64
1, 1248, Note_on_c, 0, 57, 37
1, 1248, Note_off_c, 0, 60, 64
1, 1248, Note_off_c, 0, 71, 64
1, 1296, Note_on_c, 0, 65, 54
1, 1343, Note_off_c, 0, 57, 64
1, 1344, Note_on_c, 0, 57, 37
1, 1344, Note_on_c, 0, 64, 41
1, 1344, Note_off_c, 0, 74, 64
1, 1386, Note_off_c, 0, 65, 64
1, 1392, Note_on_c, 0, 60, 37
1, 1439, Note_off_c, 0, 57, 64
1, 1440, Note_on_c, 0, 57, 37
1, 1440, Note_off_c, 0, 60, 64
1, 1440, Note_on_c, 0, 69, 44
1, 1488, Note_off_c, 0, 64, 64
1, 1488, Note_off_c, 0, 69, 64
1, 1488, Note_on_c, 0, 71, 37
1, 1536, Note_on_c, 0, 40, 54
1, 1536, Note_on_c, 0, 45, 37
1, 1536, Note_off_c, 0, 57, 64
1, 1536, Note_off_c, 0, 71, 64
1, 1541, Note_on_c, 0, 57, 54
1, 1584, Note_on_c, 0, 48, 37
1, 1589, Note_on_c, 0, 60, 54
1, 1626, Note_off_c, 0, 40, 64
1, 1631, Note_off_c, 0, 45, 64
1, 1632, Note_on_c, 0, 45, 37
1, 1632, Note_off_c, 0, 48, 64
1, 1632, Note_off_c, 0, 57, 64
1, 1680, Note_on_c, 0, 53, 54
1, 1727, Note_off_c, 0, 45, 64
1, 1728, Note_on_c, 0, 45, 37
1, 1728, Note_on_c, 0, 52, 41
1, 1728, Note_off_c, 0, 60, 64
1, 1728, Note_on_c, 0, 76, 89
1, 1770, Note_off_c, 0, 53, 64
1, 1776, Note_on_c, 0, 48, 37
1, 1776, Note_on_c, 0, 57, 37
1, 1776, Note_off_c, 0, 76, 64
1, 1823, Note_off_c, 0, 45, 64
1, 1824, Note_on_c, 0, 45, 37
1, 1824, Note_off_c, 0, 48, 64
1, 1824, Note_off_c, 0, 57, 64
1, 1824, Note_on_c, 0, 59, 44
1, 1824, Note_on_c, 0, 77, 58
1, 1832, Note_on_c, 0, 60, 44
1, 1835, Note_off_c, 0, 59, 64
1, 1856, Note_off_c, 0, 77, 64
1, 1858, Note_on_c, 0, 77, 62
1, 1872, Note_off_c, 0, 52, 64
1, 1872, Note_on_c, 0, 59, 37
1, 1872, Note_off_c, 0, 60, 64
1, 1888, Note_on_c, 0, 76, 74
1, 1888, Note_off_c, 0, 77, 64
1, 1915, Note_off_c, 0, 45, 64
1, 1920, Note_on_c, 0, 41, 54
1, 1920, Note_on_c, 0, 45, 37
1, 1920, Note_off_c, 0, 59, 64
1, 1925, Note_on_c, 0, 59, 54
1, 1934, Note_off_c, 0, 76, 64
1, 1968, Note_on_c, 0, 48, 37
1, 1973, Note_on_c, 0, 62, 54
1, 2010, Note_off_c, 0, 41, 64
1, 2015, Note_off_c, 0, 45, 64
1, 2016, Note_on_c, 0, 45, 37
1, 2016, Note_off_c, 0, 48, 64
1, 2016, Note_off_c, 0, 59, 64
1, 2016, Note_on_c, 0, 76, 89
1, 2064, Note_on_c, 0, 53, 54
1, 2064, Note_off_c, 0, 76, 64
1, 2111, Note_off_c, 0, 45, 64
1, 2112, Note_on_c, 0, 45, 37
1, 2112, Note_on_c, 0, 52, 41
1, 2112, Note_off_c, 0, 62, 64
1, 2154, Note_off_c, 0, 53, 64
1, 2160, Note_on_c, 0, 48, 37
1, 2207, Note_off_c, 0, 45, 64
1, 2208, Note_on_c, 0, 45, 37
1, 2208, Note_off_c, 0, 48, 64
1, 2208, Note_on_c, 0, 57, 44
1, 2208, Note_on_c, 0, 74, 82
1, 2256, Note_off_c, 0, 52, 64
1, 2256, Note_off_c, 0, 57, 64
1, 2256, Note_on_c, 0, 59, 37
1, 2256, Note_off_c, 0, 74, 64
1, 2303, Note_off_c, 0, 45, 64
1, 2304, Note_on_c, 0, 40, 54
1, 2304, Note_on_c, 0, 45, 37
1, 2304, Note_off_c, 0, 59, 64
1, 2309, Note_on_c, 0, 57, 54
1, 2352, Note_on_c, 0, 48, 37
1, 2357, Note_on_c, 0, 60, 54
1, 2394, Note_off_c, 0, 40, 64
1, 2399, Note_off_c, 0, 45, 64
1, 2400, Note_on_c, 0, 45, 37
1, 2400, Note_off_c, 0, 48, 64
1, 2400, Note_off_c, 0, 57, 64
1, 2448, Note_on_c, 0, 53, 54
1, 2495, Note_off_c, 0, 45, 64
1, 2496, Note_on_c, 0, 45, 37
1, 2496, Note_on_c, 0, 52, 41
1, 2496, Note_off_c, 0, 60, 64
1, 2496, Note_on_c, 0, 74, 82
1, 2538, Note_off_c, 0, 53, 64
1, 2544, Note_on_c, 0, 48, 37
1, 2544, Note_on_c, 0, 57, 37
1, 2544, Note_off_c, 0, 74, 64
1, 2591, Note_off_c, 0, 45, 64
1, 2592, Note_on_c, 0, 45, 37
1, 2592, Note_off_c, 0, 48, 64
1, 2592, Note_off_c, 0, 57, 64
1, 2592, Note_on_c, 0, 59, 44
1, 2592, Note_on_c, 0, 77, 58
1, 2600, Note_on_c, 0, 60, 44
1, 2603, Note_off_c, 0, 59, 64
1, 2624, Note_off_c, 0, 77, 64
1, 2626, Note_on_c, 0, 77, 62
1, 2640, Note_off_c, 0, 52, 64
1, 2640, Note_on_c, 0, 59, 37
1, 2640, Note_off_c, 0, 60, 64
1, 2656, Note_on_c, 0, 76, 74
1, 2656, Note_off_c, 0, 77, 64
1, 2683, Note_off_c, 0, 45, 64
1, 2688, Note_on_c, 0, 41, 54
1, 2688, Note_on_c, 0, 45, 37
1, 2688, Note_off_c, 0, 59, 64
1, 2693, Note_on_c, 0, 59, 54
1, 2702, Note_off_c, 0, 76, 64
1, 2736, Note_on_c, 0, 48, 37
1, 2741, Note_on_c, 0, 62, 54
1, 2778, Note_off_c, 0, 41, 64
1, 2783, Note_off_c, 0, 45, 64
1, 2784, Note_on_c, 0, 45, 37
1, 2784, Note_off_c, 0, 48, 64
1, 2784, Note_off_c, 0, 59, 64
1, 2784, Note_on_c, 0, 76, 89
1, 2832, Note_on_c, 0, 53, 54
1, 2832, Note_off_c, 0, 76, 64
1, 2879, Note_off_c, 0, 45, 64
1, 2880, Note_on_c, 0, 45, 37
1, 2880, Note_on_c, 0, 52, 41
1, 2880, Note_off_c, 0, 62, 64
1, 2880, Note_on_c, 0, 74, 82
1, 2922, Note_off_c, 0, 53, 64
1, 2928, Note_on_c, 0, 48, 37
1, 2928, Note_off_c, 0, 74, 64
1, 2975, Note_off_c, 0, 45, 64
1, 2976, Note_on_c, 0, 45, 37
1, 2976, Note_off_c, 0, 48, 64
1, 2976, Note_on_c, 0, 57, 44
1, 2976, Note_on_c, 0, 69, 82
1, 3024, Note_off_c, 0, 52, 64
1, 3024, Note_off_c, 0, 57, 64
1, 3024, Note_on_c, 0, 59, 37
1, 3024, Note_off_c, 0, 69, 64
1, 3072, Note_off_c, 0, 45, 64
1, 3072, Note_off_c, 0, 59, 64
1, 0, Note_on_c, 0, 52, 54
1, 0, Note_on_c, 0, 57, 37
1, 5, Note_on_c, 0, 69, 54
1, 48, Note_on_c, 0, 60, 37
1, 53, Note_on_c, 0, 72, 54
1, 90, Note_off_c, 0, 52, 64
1, 95, Note_off_c, 0, 57, 64
1, 96, Note_on_c, 0, 57, 37
1, 96, Note_off_c, 0, 60, 64
1, 96, Note_off_c, 0, 69, 64
1, 144, Note_on_c, 0, 65, 54
1, 191, Note_off_c, 0, 57, 64
1, 192, Note_on_c, 0, 57, 37
1, 192, Note_on_c, 0, 64, 41
1, 192, Note_off_c, 0, 72, 64
1, 234, Note_off_c, 0, 65, 64
1, 240, Note_on_c, 0, 60, 37
1, 240, Note_on_c, 0, 69, 37
1, 287, Note_off_c, 0, 57, 64
1, 288, Note_on_c, 0, 57, 37
1, 288, Note_off_c, 0, 60, 64
1, 288, Note_off_c, 0, 69, 64
1, 288, Note_on_c, 0, 71, 44
1, 296, Note_on_c, 0, 72, 44
1, 299, Note_off_c, 0, 71, 64
1, 336, Note_off_c, 0, 64, 64
1, 336, Note_on_c, 0, 71, 37
1, 336, Note_off_c, 0, 72, 64
1, 379, Note_off_c, 0, 57, 64
1, 384, Note_on_c, 0, 53, 54
1, 384, Note_on_c, 0, 57, 37
1, 384, Note_off_c, 0, 71, 64
1, 389, Note_on_c, 0, 71, 54
1, 432, Note_on_c, 0, 60, 37
1, 437, Note_on_c, 0, 74, 54
1, 474, Note_off_c, 0, 53, 64
1, 479, Note_off_c, 0, 57, 64
1, 480, Note_on_c, 0, 57, 37
1, 480, Note_off_c, 0, 60, 64
1, 480, Note_off_c, 0, 71, 64
1, 528, Note_on_c, 0, 65, 54
1, 575, Note_off_c, 0, 57, 64
1, 576, Note_on_c, 0, 57, 37
1, 576, Note_on_c, 0, 64, 41
1, 576, Note_off_c, 0, 74, 64
1, 618, Note_off_c, 0, 65, 64
1, 624, Note_on_c, 0, 60, 37
1, 671, Note_off_c, 0, 57, 64
1, 672, Note_on_c, 0, 57, 37
1, 672, Note_off_c, 0, 60, 64
1, 672, Note_on_c, 0, 69, 44
1, 720, Note_off_c, 0, 64, 64
1, 720, Note_off_c, 0, 69, 64
1, 720, Note_on_c, 0, 71, 37
1, 767, Note_off_c, 0, 57, 64
1, 768, Note_on_c, 0, 52, 54
1, 768, Note_on_c, 0, 57, 37
1, 768, Note_off_c, 0, 71, 64
1, 773, Note_on_c, 0, 69, 54
1, 816, Note_on_c, 0, 60, 37
1, 821, Note_on_c, 0, 72, 54
1, 858, Note_off_c, 0, 52, 64
1, 863, Note_off_c, 0, 57, 64
1, 864, Note_on_c, 0, 57, 37
1, 864, Note_off_c, 0, 60, 64
1, 864, Note_off_c, 0, 69, 64
1, 912, Note_on_c, 0, 65, 54
1, 959, Note_off_c, 0, 57, 64
1, 960, Note_on_c, 0, 57, 37
1, 960, Note_on_c, 0, 64, 41
1, 960, Note_off_c, 0, 72, 64
1, 1002, Note_off_c, 0, 65, 64
1, 1008, Note_on_c, 0, 60, 37
1, 1008, Note_on_c, 0, 69, 37
1, 1055, Note_off_c, 0, 57, 64
1, 1056, Note_on_c, 0, 57, 37
1, 1056, Note_off_c, 0, 60, 64
1, 1056, Note_off_c, 0, 69, 64
1, 1056, Note_on_c, 0, 71, 44
1, 1064, Note_on_c, 0, 72, 44
1, 1067, Note_off_c, 0, 71, 64
1, 1104, Note_off_c, 0, 64, 64
1, 1104, Note_on_c, 0, 71, 37
1, 1104, Note_off_c, 0, 72, 64
1, 1147, Note_off_c, 0, 57, 64
1, 1152, Note_on_c, 0, 53, 54
1, 1152, Note_on_c, 0, 57, 37
1, 1152, Note_off_c, 0, 71, 64
1, 1157, Note_on_c, 0, 71, 54
1, 1200, Note_on_c, 0, 60, 37
1, 1205, Note_on_c, 0, 74, 54
1, 1242, Note_off_c, 0, 53, 64
1, 1247, Note_off_c, 0, 57, 64
1, 1248, Note_on_c, 0, 57, 37
1, 1248, Note_off_c, 0, 60, 64
1, 1248, Note_off_c, 0, 71, 64
1, 1296, Note_on_c, 0, 65, 54
1, 1343, Note_off_c, 0, 57, 64
1, 1344, Note_on_c, 0, 57, 37
1, 1344, Note_on_c, 0, 64, 41
1, 1344, Note_off_c, 0, 74, 64
1, 1386, Note_off_c, 0, 65, 64
1, 1392, Note_on_c, 0, 60, 37
1, 1439, Note_off_c, 0, 57, 64
1, 1440, Note_on_c, 0, 57, 37
1, 1440, Note_off_c, 0, 60, 64
1, 1440, Note_on_c, 0, 69, 44
1, 1488, Note_off_c, 0, 64, 64
1, 1488, Note_off_c, 0, 69, 64
1, 1488, Note_on_c, 0, 71, 37
1, 1536, Note_on_c, 0, 40, 54
1, 1536, Note_on_c, 0, 45, 37
1, 1536, Note_off_c, 0, 57, 64
1, 1536, Note_off_c, 0, 71, 64
1, 1541, Note_on_c, 0, 57, 54
1, 1584, Note_on_c, 0, 48, 37
1, 1589, Note_on_c, 0, 60, 54
1, 1626, Note_off_c, 0, 40, 64
1, 1631, Note_off_c, 0, 45, 64
1, 1632, Note_on_c, 0, 45, 37
1, 1632, Note_off_c, 0, 48, 64
1, 1632, Note_off_c, 0, 57, 64
1, 1680, Note_on_c, 0, 53, 54
1, 1727, Note_off_c, 0, 45, 64
1, 1728, Note_on_c, 0, 45, 37
1, 1728, Note_on_c, 0, 52, 41
1, 1728, Note_off_c, 0, 60, 64
1, 1728, Note_on_c, 0, 76, 89
1, 1770, Note_off_c, 0, 53, 64
1, 1776, Note_on_c, 0, 48, 37
1, 1776, Note_on_c, 0, 57, 37
1, 1776, Note_off_c, 0, 76, 64
1, 1823, Note_off_c, 0, 45, 64
1, 1824, Note_on_c, 0, 45, 37
1, 1824, Note_off_c, 0, 48, 64
1, 1824, Note_off_c, 0, 57, 64
1, 1824, Note_on_c, 0, 59, 44
1, 1824, Note_on_c, 0, 77, 58
1, 1832, Note_on_c, 0, 60, 44
1, 1835, Note_off_c, 0, 59, 64
1, 1856, Note_off_c, 0, 77, 64
1, 1858, Note_on_c, 0, 77, 62
1, 1872, Note_off_c, 0, 52, 64
1, 1872, Note_on_c, 0, 59, 37
1, 1872, Note_off_c, 0, 60, 64
1, 1888, Note_on_c, 0, 76, 74
1, 1888, Note_off_c, 0, 77, 64
1, 1915, Note_off_c, 0, 45, 64
1, 1920, Note_on_c, 0, 41, 54
1, 1920, Note_on_c, 0, 45, 37
1, 1920, Note_off_c, 0, 59, 64
1, 1925, Note_on_c, 0, 59, 54
1, 1934, Note_off_c, 0, 76, 64
1, 1968, Note_on_c, 0, 48, 37
1, 1973, Note_on_c, 0, 62, 54
1, 2010, Note_off_c, 0, 41, 64
1, 2015, Note_off_c, 0, 45, 64
1, 2016, Note_on_c, 0, 45, 37
1, 2016, Note_off_c, 0, 48, 64
1, 2016, Note_off_c, 0, 59, 64
1, 2016, Note_on_c, 0, 76, 89
1, 2064, Note_on_c, 0, 53, 54
1, 2064, Note_off_c, 0, 76, 64
1, 2111, Note_off_c, 0, 45, 64
1, 2112, Note_on_c, 0, 45, 37
1, 2112, Note_on_c, 0, 52, 41
1, 2112, Note_off_c, 0, 62, 64
1, 2154, Note_off_c, 0, 53, 64
1, 2160, Note_on_c, 0, 48, 37
1, 2207, Note_off_c, 0, 45, 64
1, 2208, Note_on_c, 0, 45, 37
1, 2208, Note_off_c, 0, 48, 64
1, 2208, Note_on_c, 0, 57, 44
1, 2208, Note_on_c, 0, 74, 82
1, 2256, Note_off_c, 0, 52, 64
1, 2256, Note_off_c, 0, 57, 64
1, 2256, Note_on_c, 0, 59, 37
1, 2256, Note_off_c, 0, 74, 64
1, 2303, Note_off_c, 0, 45, 64
1, 2304, Note_on_c, 0, 40, 54
1, 2304, Note_on_c, 0, 45, 37
1, 2304, Note_off_c, 0, 59, 64
1, 2309, Note_on_c, 0, 57, 54
1, 2352, Note_on_c, 0, 48, 37
1, 2357, Note_on_c, 0, 60, 54
1, 2394, Note_off_c, 0, 40, 64
1, 2399, Note_off_c, 0, 45, 64
1, 2400, Note_on_c, 0, 45, 37
1, 2400, Note_off_c, 0, 48, 64
1, 2400, Note_off_c, 0, 57, 64
1, 2448, Note_on_c, 0, 53, 54
1, 2495, Note_off_c, 0, 45, 64
1, 2496, Note_on_c, 0, 45, 37
1, 2496, Note_on_c, 0, 52, 41
1, 2496, Note_off_c, 0, 60, 64
1, 2496, Note_on_c, 0, 74, 82
1, 2538, Note_off_c, 0, 53, 64
1, 2544, Note_on_c, 0, 48, 37
1, 2544, Note_on_c, 0, 57, 37
1, 2544, Note_off_c, 0, 74, 64
1, 2591, Note_off_c, 0, 45, 64
1, 2592, Note_on_c, 0, 45, 37
1, 2592, Note_off_c, 0, 48, 64
1, 2592, Note_off_c, 0, 57, 64
1, 2592, Note_on_c, 0, 59, 44
1, 2592, Note_on_c, 0, 77, 58
1, 2600, Note_on_c, 0, 60, 44
1, 2603, Note_off_c, 0, 59, 64
1, 2624, Note_off_c, 0, 77, 64
1, 2626, Note_on_c, 0, 77, 62
1, 2640, Note_off_c, 0, 52, 64
1, 2640, Note_on_c, 0, 59, 37
1, 2640, Note_off_c, 0, 60, 64
1, 2656, Note_on_c, 0, 76, 74
1, 2656, Note_off_c, 0, 77, 64
1, 2683, Note_off_c, 0, 45, 64
1, 2688, Note_on_c, 0, 41, 54
1, 2688, Note_on_c, 0, 45, 37
1, 2688, Note_off_c, 0, 59, 64
1, 2693, Note_on_c, 0, 59, 54
1, 2702, Note_off_c, 0, 76, 64
1, 2736, Note_on_c, 0, 48, 37
1, 2741, Note_on_c, 0, 62, 54
1, 2778, Note_off_c, 0, 41, 64
1, 2783, Note_off_c, 0, 45, 64
1, 2784, Note_on_c, 0, 45, 37
1, 2784, Note_off_c, 0, 48, 64
1, 2784, Note_off_c, 0, 59, 64
1, 2784, Note_on_c, 0, 76, 89
1, 2832, Note_on_c, 0, 53, 54
1, 2832, Note_off_c, 0, 76, 64
1, 2879, Note_off_c, 0, 45, 64
1, 2880, Note_on_c, 0, 45, 37
1, 2880, Note_on_c, 0, 52, 41
1, 2880, Note_off_c, 0, 62, 64
1, 2880, Note_on_c, 0, 74, 82
1, 2922, Note_off_c, 0, 53, 64
1, 2928, Note_on_c, 0, 48, 37
1, 2928, Note_off_c, 0, 74, 64
1, 2975, Note_off_c, 0, 45, 64
1, 2976, Note_on_c, 0, 45, 37
1, 2976, Note_off_c, 0, 48, 64
1, 2976, Note_on_c, 0, 57, 44
1, 2976, Note_on_c, 0, 69, 82
1, 3024, Note_off_c, 0, 52, 64
1, 3024, Note_off_c, 0, 57, 64
1, 3024, Note_on_c, 0, 59, 37
1, 3024, Note_off_c, 0, 69, 64
1, 3072, Note_off_c, 0, 45, 64
1, 3072, Note_off_c, 0, 59, 64
1, 0, Note_on_c, 0, 33, 120
1, 0, Note_on_c, 0, 45, 120
1, 48, Note_on_c, 0, 48, 120
1, 96, Note_off_c, 0, 45, 64
1, 96, Note_on_c, 0, 52, 120
1, 144, Note_off_c, 0, 48, 64
1, 144, Note_on_c, 0, 60, 120
1, 191, Note_off_c, 0, 60, 64
1, 192, Note_off_c, 0, 52, 64
1, 192, Note_on_c, 0, 60, 120
1, 240, Note_on_c, 0, 59, 120
1, 240, Note_off_c, 0, 60, 64
1, 384, Note_off_c, 0, 33, 64
1, 384, Note_on_c, 0, 50, 120
1, 384, Note_off_c, 0, 59, 64
1, 432, Note_on_c, 0, 53, 120
1, 480, Note_on_c, 0, 38, 120
1, 480, Note_off_c, 0, 50, 64
1, 481, Note_on_c, 0, 57, 120
1, 528, Note_off_c, 0, 53, 64
1, 528, Note_on_c, 0, 65, 120
1, 575, Note_off_c, 0, 65, 64
1, 576, Note_on_c, 0, 65, 120
1, 577, Note_off_c, 0, 57, 64
1, 624, Note_on_c, 0, 64, 120
1, 624, Note_off_c, 0, 65, 64
1, 768, Note_on_c, 0, 33, 120
1, 768, Note_off_c, 0, 38, 64
1, 768, Note_on_c, 0, 45, 120
1, 768, Note_off_c, 0, 64, 64
1, 816, Note_on_c, 0, 48, 120
1, 864, Note_off_c, 0, 45, 64
1, 864, Note_on_c, 0, 52, 120
1, 912, Note_off_c, 0, 48, 64
1, 912, Note_on_c, 0, 60, 120
1, 959, Note_off_c, 0, 60, 64
1, 960, Note_off_c, 0, 52, 64
1, 960, Note_on_c, 0, 60, 120
1, 1008, Note_on_c, 0, 59, 120
1, 1008, Note_off_c, 0, 60, 64
1, 1152, Note_off_c, 0, 33, 64
1, 1152, Note_on_c, 0, 50, 120
1, 1152, Note_off_c, 0, 59, 64
1, 1200, Note_on_c, 0, 53, 120
1, 1248, Note_on_c, 0, 38, 120
1, 1248, Note_off_c, 0, 50, 64
1, 1249, Note_on_c, 0, 57, 120
1, 1296, Note_off_c, 0, 53, 64
1, 1296, Note_on_c, 0, 62, 120
1, 1343, Note_off_c, 0, 62, 64
1, 1344, Note_on_c, 0, 62, 120
1, 1345, Note_off_c, 0, 57, 64
1, 1392, Note_off_c, 0, 62, 64
1, 1392, Note_on_c, 0, 64, 120
1, 1536, Note_off_c, 0, 38, 64
1, 1536, Note_off_c, 0, 64, 64
1, 0, Note_on_c, 0, 33, 94
1, 0, Note_on_c, 0, 45, 94
1, 0, Note_on_c, 0, 64, 94
1, 96, Note_on_c, 0, 57, 94
1, 192, Note_on_c, 0, 60, 94
1, 282, Note_off_c, 0, 57, 64
1, 282, Note_off_c, 0, 60, 64
1, 288, Note_on_c, 0, 57, 94
1, 384, Note_on_c, 0, 62, 94
1, 384, Note_off_c, 0, 64, 64
1, 475, Note_off_c, 0, 57, 64
1, 480, Note_on_c, 0, 57, 94
1, 576, Note_on_c, 0, 65, 94
1, 671, Note_off_c, 0, 57, 64
1, 672, Note_on_c, 0, 57, 94
1, 768, Note_off_c, 0, 62, 64
1, 768, Note_on_c, 0, 64, 94
1, 768, Note_off_c, 0, 65, 64
1, 858, Note_off_c, 0, 57, 64
1, 864, Note_on_c, 0, 57, 94
1, 960, Note_on_c, 0, 60, 94
1, 1049, Note_off_c, 0, 64, 64
1, 1052, Note_off_c, 0, 57, 64
1, 1056, Note_on_c, 0, 52, 96
1, 1056, Note_on_c, 0, 57, 94
1, 1145, Note_off_c, 0, 60, 64
1, 1152, Note_on_c, 0, 64, 94
1, 1247, Note_off_c, 0, 57, 64
1, 1248, Note_on_c, 0, 57, 94
1, 1338, Note_off_c, 0, 64, 64
1, 1344, Note_on_c, 0, 65, 94
1, 1437, Note_off_c, 0, 57, 64
1, 1440, Note_on_c, 0, 57, 94
1, 1533, Note_off_c, 0, 33, 64
1, 1533, Note_off_c, 0, 65, 64
1, 1536, Note_on_c, 0, 38, 94
1, 1536, Note_off_c, 0, 45, 64
1, 1536, Note_on_c, 0, 50, 94
1, 1536, Note_off_c, 0, 52, 64
1, 1536, Note_on_c, 0, 60, 94
1, 1536, Note_on_c, 0, 62, 94
1, 1536, Note_on_c, 0, 64, 94
1, 1628, Note_off_c, 0, 57, 64
1, 1632, Note_on_c, 0, 57, 94
1, 1727, Note_off_c, 0, 60, 64
1, 1728, Note_on_c, 0, 60, 96
1, 1818, Note_off_c, 0, 57, 64
1, 1824, Note_on_c, 0, 57, 94
1, 1824, Note_off_c, 0, 60, 64
1, 1915, Note_off_c, 0, 64, 64
1, 1919, Note_off_c, 0, 62, 64
1, 1920, Note_on_c, 0, 62, 94
1, 2015, Note_off_c, 0, 57, 64
1, 2016, Note_on_c, 0, 57, 94
1, 2112, Note_on_c, 0, 65, 94
1, 2204, Note_off_c, 0, 57, 64
1, 2208, Note_on_c, 0, 57, 94
1, 2298, Note_off_c, 0, 38, 64
1, 2300, Note_off_c, 0, 62, 64
1, 2301, Note_off_c, 0, 50, 64
1, 2301, Note_off_c, 0, 65, 64
1, 2304, Note_on_c, 0, 41, 94
1, 2304, Note_on_c, 0, 53, 94
1, 2304, Note_on_c, 0, 64, 94
1, 2395, Note_off_c, 0, 57, 64
1, 2400, Note_on_c, 0, 57, 94
1, 2454, Note_off_c, 0, 64, 64
1, 2496, Note_on_c, 0, 60, 94
1, 2496, Note_on_c, 0, 64, 94
1, 2496, Note_on_c, 0, 65, 94
1, 2582, Note_off_c, 0, 57, 64
1, 2589, Note_off_c, 0, 60, 64
1, 2592, Note_on_c, 0, 57, 94
1, 2592, Note_on_c, 0, 60, 94
1, 2679, Note_off_c, 0, 60, 64
1, 2682, Note_off_c, 0, 53, 64
1, 2685, Note_off_c, 0, 41, 64
1, 2687, Note_off_c, 0, 64, 64
1, 2688, Note_on_c, 0, 40, 94
1, 2688, Note_on_c, 0, 52, 94
1, 2688, Note_on_c, 0, 64, 94
1, 2688, Note_off_c, 0, 65, 64
1, 2688, Note_on_c, 0, 67, 94
1, 2783, Note_off_c, 0, 57, 64
1, 2784, Note_on_c, 0, 57, 94
1, 2875, Note_off_c, 0, 64, 64
1, 2875, Note_off_c, 0, 67, 64
1, 2880, Note_on_c, 0, 65, 94
1, 2880, Note_on_c, 0, 69, 94
1, 2969, Note_off_c, 0, 57, 64
1, 2976, Note_on_c, 0, 57, 94
1, 3065, Note_off_c, 0, 57, 64
1, 3067, Note_off_c, 0, 65, 64
1, 3067, Note_off_c, 0, 69, 64
1, 3069, Note_off_c, 0, 40, 64
1, 3071, Note_off_c, 0, 52, 64
1, 0, Note_on_c, 0, 33, 94
1, 0, Note_on_c, 0, 45, 94
1, 0, Note_on_c, 0, 64, 94
1, 96, Note_on_c, 0, 57, 94
1, 192, Note_on_c, 0, 60, 94
1, 282, Note_off_c, 0, 57, 64
1, 282, Note_off_c, 0, 60, 64
1, 288, Note_on_c, 0, 57, 94
1, 384, Note_on_c, 0, 62, 94
1, 384, Note_off_c, 0, 64, 64
1, 475, Note_off_c, 0, 57, 64
1, 480, Note_on_c, 0, 57, 94
1, 576, Note_on_c, 0, 65, 94
1, 671, Note_off_c, 0, 57, 64
1, 672, Note_on_c, 0, 57, 94
1, 768, Note_off_c, 0, 62, 64
1, 768, Note_on_c, 0, 64, 94
1, 768, Note_off_c, 0, 65, 64
1, 858, Note_off_c, 0, 57, 64
1, 864, Note_on_c, 0, 57, 94
1, 960, Note_on_c, 0, 60, 94
1, 1049, Note_off_c, 0, 64, 64
1, 1052, Note_off_c, 0, 57, 64
1, 1056, Note_on_c, 0, 52, 96
1, 1056, Note_on_c, 0, 57, 94
1, 1145, Note_off_c, 0, 60, 64
1, 1152, Note_on_c, 0, 64, 94
1, 1247, Note_off_c, 0, 57, 64
1, 1248, Note_on_c, 0, 57, 94
1, 1338, Note_off_c, 0, 64, 64
1, 1344, Note_on_c, 0, 65, 94
1, 1437, Note_off_c, 0, 57, 64
1, 1440, Note_on_c, 0, 57, 94
1, 1533, Note_off_c, 0, 33, 64
1, 1533, Note_off_c, 0, 65, 64
1, 1536, Note_on_c, 0, 38, 94
1, 1536, Note_off_c, 0, 45, 64
1, 1536, Note_on_c, 0, 50, 94
1, 1536, Note_off_c, 0, 52, 64
1, 1536, Note_on_c, 0, 60, 94
1, 1536, Note_on_c, 0, 62, 94
1, 1536, Note_on_c, 0, 64, 94
1, 1628, Note_off_c, 0, 57, 64
1, 1632, Note_on_c, 0, 57, 94
1, 1727, Note_off_c, 0, 60, 64
1, 1728, Note_on_c, 0, 60, 96
1, 1818, Note_off_c, 0, 57, 64
1, 1824, Note_on_c, 0, 57, 94
1, 1824, Note_off_c, 0, 60, 64
1, 1915, Note_off_c, 0, 64, 64
1, 1919, Note_off_c, 0, 62, 64
1, 1920, Note_on_c, 0, 62, 94
1, 2015, Note_off_c, 0, 57, 64
1, 2016, Note_on_c, 0, 57, 94
1, 2112, Note_on_c, 0, 65, 94
1, 2204, Note_off_c, 0, 57, 64
1, 2208, Note_on_c, 0, 57, 94
1, 2298, Note_off_c, 0, 38, 64
1, 2300, Note_off_c, 0, 62, 64
1, 2301, Note_off_c, 0, 50, 64
1, 2301, Note_off_c, 0, 65, 64
1, 2304, Note_on_c, 0, 41, 94
1, 2304, Note_on_c, 0, 53, 94
1, 2304, Note_on_c, 0, 64, 94
1, 2395, Note_off_c, 0, 57, 64
1, 2400, Note_on_c, 0, 57, 94
1, 2454, Note_off_c, 0, 64, 64
1, 2496, Note_on_c, 0, 60, 94
1, 2496, Note_on_c, 0, 64, 94
1, 2496, Note_on_c, 0, 65, 94
1, 2582, Note_off_c, 0, 57, 64
1, 2589, Note_off_c, 0, 60, 64
1, 2592, Note_on_c, 0, 57, 94
1, 2592, Note_on_c, 0, 60, 94
1, 2679, Note_off_c, 0, 60, 64
1, 2682, Note_off_c, 0, 53, 64
1, 2685, Note_off_c, 0, 41, 64
1, 2687, Note_off_c, 0, 64, 64
1, 2688, Note_on_c, 0, 40, 94
1, 2688, Note_on_c, 0, 52, 94
1, 2688, Note_on_c, 0, 64, 94
1, 2688, Note_off_c, 0, 65, 64
1, 2688, Note_on_c, 0, 67, 94
1, 2783, Note_off_c, 0, 57, 64
1, 2784, Note_on_c, 0, 57, 94
1, 2875, Note_off_c, 0, 64, 64
1, 2875, Note_off_c, 0, 67, 64
1, 2880, Note_on_c, 0, 65, 94
1, 2880, Note_on_c, 0, 69, 94
1, 2969, Note_off_c, 0, 57, 64
1, 2976, Note_on_c, 0, 57, 94
1, 3065, Note_off_c, 0, 57, 64
1, 3067, Note_off_c, 0, 65, 64
1, 3067, Note_off_c, 0, 69, 64
1, 3069, Note_off_c, 0, 40, 64
1, 3071, Note_off_c, 0, 52, 64
1, 0, Note_on_c, 0, 33, 94
1, 0, Note_on_c, 0, 45, 94
1, 0, Note_on_c, 0, 64, 94
1, 96, Note_on_c, 0, 57, 94
1, 192, Note_on_c, 0, 60, 94
1, 282, Note_off_c, 0, 57, 64
1, 282, Note_off_c, 0, 60, 64
1, 288, Note_on_c, 0, 57, 94
1, 384, Note_on_c, 0, 62, 94
1, 384, Note_off_c, 0, 64, 64
1, 475, Note_off_c, 0, 57, 64
1, 480, Note_on_c, 0, 57, 94
1, 576, Note_on_c, 0, 65, 94
1, 671, Note_off_c, 0, 57, 64
1, 672, Note_on_c, 0, 57, 94
1, 768, Note_off_c, 0, 62, 64
1, 768, Note_on_c, 0, 64, 94
1, 768, Note_off_c, 0, 65, 64
1, 858, Note_off_c, 0, 57, 64
1, 864, Note_on_c, 0, 57, 94
1, 960, Note_on_c, 0, 60, 94
1, 1049, Note_off_c, 0, 64, 64
1, 1052, Note_off_c, 0, 57, 64
1, 1056, Note_on_c, 0, 52, 96
1, 1056, Note_on_c, 0, 57, 94
1, 1145, Note_off_c, 0, 60, 64
1, 1152, Note_on_c, 0, 64, 94
1, 1247, Note_off_c, 0, 57, 64
1, 1248, Note_on_c, 0, 57, 94
1, 1338, Note_off_c, 0, 64, 64
1, 1344, Note_on_c, 0, 65, 94
1, 1437, Note_off_c, 0, 57, 64
1, 1440, Note_on_c, 0, 57, 94
1, 1533, Note_off_c, 0, 33, 64
1, 1533, Note_off_c, 0, 65, 64
1, 1536, Note_on_c, 0, 38, 94
1, 1536, Note_off_c, 0, 45, 64
1, 1536, Note_on_c, 0, 50, 94
1, 1536, Note_off_c, 0, 52, 64
1, 1536, Note_on_c, 0, 60, 94
1, 1536, Note_on_c, 0, 62, 94
1, 1536, Note_on_c, 0, 64, 94
1, 1628, Note_off_c, 0, 57, 64
1, 1632, Note_on_c, 0, 57, 94
1, 1727, Note_off_c, 0, 60, 64
1, 1728, Note_on_c, 0, 60, 96
1, 1818, Note_off_c, 0, 57, 64
1, 1824, Note_on_c, 0, 57, 94
1, 1824, Note_off_c, 0, 60, 64
1, 1915, Note_off_c, 0, 64, 64
1, 1919, Note_off_c, 0, 62, 64
1, 1920, Note_on_c, 0, 62, 94
1, 2015, Note_off_c, 0, 57, 64
1, 2016, Note_on_c, 0, 57, 94
1, 2112, Note_on_c, 0, 65, 94
1, 2204, Note_off_c, 0, 57, 64
1, 2208, Note_on_c, 0, 57, 94
1, 2298, Note_off_c, 0, 38, 64
1, 2300, Note_off_c, 0, 62, 64
1, 2301, Note_off_c, 0, 50, 64
1, 2301, Note_off_c, 0, 65, 64
1, 2304, Note_on_c, 0, 41, 94
1, 2304, Note_on_c, 0, 53, 94
1, 2304, Note_on_c, 0, 64, 94
1, 2395, Note_off_c, 0, 57, 64
1, 2400, Note_on_c, 0, 57, 94
1, 2454, Note_off_c, 0, 64, 64
1, 2496, Note_on_c, 0, 60, 94
1, 2496, Note_on_c, 0, 64, 94
1, 2496, Note_on_c, 0, 65, 94
1, 2582, Note_off_c, 0, 57, 64
1, 2589, Note_off_c, 0, 60, 64
1, 2592, Note_on_c, 0, 57, 94
1, 2592, Note_on_c, 0, 60, 94
1, 2679, Note_off_c, 0, 60, 64
1, 2682, Note_off_c, 0, 53, 64
1, 2685, Note_off_c, 0, 41, 64
1, 2687, Note_off_c, 0, 64, 64
1, 2688, Note_on_c, 0, 40, 94
1, 2688, Note_on_c, 0, 52, 94
1, 2688, Note_on_c, 0, 64, 94
1, 2688, Note_off_c, 0, 65, 64
1, 2688, Note_on_c, 0, 67, 94
1, 2783, Note_off_c, 0, 57, 64
1, 2784, Note_on_c, 0, 57, 94
1, 2875, Note_off_c, 0, 64, 64
1, 2875, Note_off_c, 0, 67, 64
1, 2880, Note_on_c, 0, 65, 94
1, 2880, Note_on_c, 0, 69, 94
1, 2969, Note_off_c, 0, 57, 64
1, 2976, Note_on_c, 0, 57, 94
1, 3065, Note_off_c, 0, 57, 64
1, 3067, Note_off_c, 0, 65, 64
1, 3067, Note_off_c, 0, 69, 64
1, 3069, Note_off_c, 0, 40, 64
1, 3071, Note_off_c, 0, 52, 64
1, 0, Note_on_c, 0, 33, 101
1, 0, Note_on_c, 0, 48, 101
1, 96, Note_on_c, 0, 47, 101
1, 96, Note_on_c, 0, 64, 101
1, 191, Note_off_c, 0, 48, 64
1, 192, Note_on_c, 0, 48, 101
1, 192, Note_on_c, 0, 62, 101
1, 192, Note_off_c, 0, 64, 64
1, 288, Note_off_c, 0, 47, 64
1, 288, Note_on_c, 0, 52, 101
1, 288, Note_on_c, 0, 60, 101
1, 288, Note_off_c, 0, 62, 64
1, 360, Note_off_c, 0, 33, 64
1, 383, Note_off_c, 0, 48, 64
1, 384, Note_on_c, 0, 33, 101
1, 384, Note_on_c, 0, 48, 101
1, 384, Note_on_c, 0, 59, 101
1, 384, Note_off_c, 0, 60, 64
1, 480, Note_on_c, 0, 47, 101
1, 480, Note_off_c, 0, 52, 64
1, 480, Note_on_c, 0, 57, 101
1, 480, Note_off_c, 0, 59, 64
1, 576, Note_off_c, 0, 48, 64
1, 576, Note_on_c, 0, 53, 101
1, 576, Note_off_c, 0, 57, 64
1, 576, Note_on_c, 0, 59, 101
1, 672, Note_off_c, 0, 47, 64
1, 672, Note_on_c, 0, 52, 101
1, 672, Note_off_c, 0, 59, 64
1, 672, Note_on_c, 0, 60, 101
1, 744, Note_off_c, 0, 33, 64
1, 768, Note_on_c, 0, 33, 101
1, 768, Note_on_c, 0, 48, 101
1, 768, Note_off_c, 0, 53, 64
1, 768, Note_off_c, 0, 60, 64
1, 864, Note_on_c, 0, 47, 101
1, 864, Note_off_c, 0, 52, 64
1, 864, Note_on_c, 0, 64, 101
1, 959, Note_off_c, 0, 48, 64
1, 960, Note_on_c, 0, 48, 101
1, 960, Note_on_c, 0, 62, 101
1, 960, Note_off_c, 0, 64, 64
1, 1056, Note_off_c, 0, 47, 64
1, 1056, Note_on_c, 0, 52, 101
1, 1056, Note_on_c, 0, 60, 101
1, 1056, Note_off_c, 0, 62, 64
1, 1128, Note_off_c, 0, 33, 64
1, 1151, Note_off_c, 0, 48, 64
1, 1152, Note_on_c, 0, 33, 101
1, 1152, Note_on_c, 0, 48, 101
1, 1152, Note_on_c, 0, 59, 101
1, 1152, Note_off_c, 0, 60, 64
1, 1248, Note_on_c, 0, 47, 101
1, 1248, Note_off_c, 0, 52, 64
1, 1248, Note_on_c, 0, 57, 101
1, 1248, Note_off_c, 0, 59, 64
1, 1344, Note_off_c, 0, 48, 64
1, 1344, Note_on_c, 0, 53, 101
1, 1344, Note_off_c, 0, 57, 64
1, 1344, Note_on_c, 0, 65, 101
1, 1440, Note_off_c, 0, 47, 64
1, 1440, Note_on_c, 0, 52, 101
1, 1440, Note_off_c, 0, 53, 64
1, 1440, Note_on_c, 0, 64, 101
1, 1440, Note_off_c, 0, 65, 64
1, 1512, Note_off_c, 0, 33, 64
1, 1536, Note_off_c, 0, 52, 64
1, 1536, Note_off_c, 0, 64, 64
1, 0, Pitch_bend_c, 0, 8192
1, 0, Note_on_c, 0, 45, 127
1, 0, Note_on_c, 0, 57, 127
1, 0, Note_on_c, 0, 60, 127
1, 0, Note_on_c, 0, 64, 127
1, 0, Note_on_c, 0, 69, 127
1, 47, Note_off_c, 0, 45, 64
1, 47, Note_off_c, 0, 57, 64
1, 47, Note_off_c, 0, 60, 64
1, 47, Note_off_c, 0, 64, 64
1, 47, Note_off_c, 0, 69, 64
1, 48, Note_on_c, 0, 45, 127
1, 48, Note_on_c, 0, 57, 127
1, 48, Note_on_c, 0, 60, 127
1, 48, Note_on_c, 0, 64, 127
1, 48, Note_on_c, 0, 69, 127
1, 96, Note_off_c, 0, 45, 64
1, 96, Note_off_c, 0, 57, 64
1, 96, Note_off_c, 0, 60, 64
1, 96, Note_off_c, 0, 64, 64
1, 96, Note_off_c, 0, 69, 64
1, 192, Note_on_c, 0, 45, 127
1, 192, Note_off_c, 0, 45, 64
1, 192, Note_on_c, 0, 57, 127
1, 192, Note_off_c, 0, 57, 64
1, 192, Note_on_c, 0, 60, 127
1, 192, Note_off_c, 0, 60, 64
1, 192, Note_on_c, 0, 64, 127
1, 192, Note_off_c, 0, 64, 64
1, 192, Note_on_c, 0, 69, 127
1, 192, Note_off_c, 0, 69, 64
1, 240, Note_on_c, 0, 69, 127
1, 240, Note_off_c, 0, 69, 64
1, 288, Note_on_c, 0, 69, 127
1, 288, Note_off_c, 0, 69, 64
1, 336, Note_on_c, 0, 69, 127
1, 336, Note_off_c, 0, 69, 64
1, 384, Note_on_c, 0, 41, 127
1, 384, Note_on_c, 0, 57, 127
1, 384, Note_off_c, 0, 57, 64
1, 384, Note_on_c, 0, 60, 127
1, 384, Note_off_c, 0, 60, 64
1, 384, Note_on_c, 0, 65, 127
1, 431, Note_off_c, 0, 65, 64
1, 432, Note_on_c, 0, 65, 127
1, 479, Note_off_c, 0, 65, 64
1, 480, Note_on_c, 0, 65, 127
1, 527, Note_off_c, 0, 65, 64
1, 528, Note_on_c, 0, 65, 127
1, 575, Note_off_c, 0, 65, 64
1, 576, Note_on_c, 0, 65, 127
1, 623, Note_off_c, 0, 65, 64
1, 624, Note_on_c, 0, 65, 127
1, 672, Note_off_c, 0, 41, 64
1, 672, Note_on_c, 0, 53, 127
1, 672, Note_off_c, 0, 65, 64
1, 672, Note_on_c, 0, 77, 127
1, 768, Note_on_c, 0, 48, 127
1, 768, Note_off_c, 0, 53, 64
1, 768, Note_on_c, 0, 55, 127
1, 768, Note_on_c, 0, 60, 127
1, 768, Note_on_c, 0, 64, 127
1, 768, Note_on_c, 0, 72, 127
1, 768, Note_on_c, 0, 76, 127
1, 768, Note_off_c, 0, 77, 64
1, 815, Note_off_c, 0, 48, 64
1, 815, Note_off_c, 0, 55, 64
1, 815, Note_off_c, 0, 60, 64
1, 815, Note_off_c, 0, 64, 64
1, 815, Note_off_c, 0, 72, 64
1, 816, Note_on_c, 0, 48, 127
1, 816, Note_on_c, 0, 55, 127
1, 816, Note_on_c, 0, 60, 127
1, 816, Note_on_c, 0, 64, 127
1, 816, Note_on_c, 0, 72, 127
1, 864, Note_off_c, 0, 48, 64
1, 864, Note_off_c, 0, 55, 64
1, 864, Note_off_c, 0, 60, 64
1, 864, Note_off_c, 0, 64, 64
1, 864, Note_off_c, 0, 72, 64
1, 960, Note_on_c, 0, 48, 127
1, 960, Note_off_c, 0, 48, 64
1, 960, Note_on_c, 0, 55, 127
1, 960, Note_off_c, 0, 55, 64
1, 960, Note_on_c, 0, 60, 127
1, 960, Note_off_c, 0, 60, 64
1, 960, Note_on_c, 0, 64, 127
1, 960, Note_off_c, 0, 64, 64
1, 960, Note_on_c, 0, 72, 127
1, 960, Note_off_c, 0, 72, 64
1, 1008, Note_on_c, 0, 72, 127
1, 1008, Note_off_c, 0, 72, 64
1, 1056, Note_on_c, 0, 72, 127
1, 1056, Note_off_c, 0, 72, 64
1, 1104, Note_on_c, 0, 72, 127
1, 1104, Note_off_c, 0, 72, 64
1, 1152, Note_on_c, 0, 43, 127
1, 1152, Note_on_c, 0, 55, 127
1, 1152, Note_off_c, 0, 55, 64
1, 1152, Note_on_c, 0, 59, 127
1, 1152, Note_on_c, 0, 62, 127
1, 1152, Note_on_c, 0, 67, 127
1, 1152, Note_on_c, 0, 74, 127
1, 1152, Note_off_c, 0, 76, 64
1, 1199, Note_off_c, 0, 67, 64
1, 1200, Note_on_c, 0, 67, 127
1, 1247, Note_off_c, 0, 67, 64
1, 1248, Note_on_c, 0, 67, 127
1, 1295, Note_off_c, 0, 67, 64
1, 1296, Note_on_c, 0, 67, 127
1, 1343, Note_off_c, 0, 67, 64
1, 1344, Note_on_c, 0, 67, 127
1, 1391, Note_off_c, 0, 67, 64
1, 1392, Note_on_c, 0, 67, 127
1, 1440, Note_off_c, 0, 43, 64
1, 1440, Note_off_c, 0, 59, 64
1, 1440, Note_off_c, 0, 62, 64
1, 1440, Note_off_c, 0, 67, 64
1, 1440, Note_off_c, 0, 74, 64
1, 1536, Pitch_bend_c, 0, 8192
1, 1536, Pitch_bend_c, 0, 8192
1, 0, Pitch_bend_c, 0, 8192
1, 0, Control_c, 0, 6, 12
1, 0, Control_c, 0, 7, 100
1, 0, Control_c, 0, 10, 64
1, 0, Control_c, 0, 100, 0
1, 0, Control_c, 0, 101, 0
1, 0, Note_on_c, 0, 67, 100
1, 48, Note_off_c, 0, 67, 64
1, 48, Note_on_c, 0, 72, 100
1, 96, Note_off_c, 0, 72, 64
1, 96, Note_on_c, 0, 83, 100
1, 144, Note_on_c, 0, 79, 100
1, 144, Note_off_c, 0, 83, 64
1, 192, Note_on_c, 0, 76, 100
1, 192, Note_off_c, 0, 79, 64
1, 240, Note_off_c, 0, 76, 64
1, 336, Note_on_c, 0, 72, 100
1, 384, Note_on_c, 0, 67, 100
1, 384, Note_off_c, 0, 72, 64
1, 432, Note_off_c, 0, 67, 64
1, 432, Note_on_c, 0, 72, 100
1, 480, Note_off_c, 0, 72, 64
1, 480, Note_on_c, 0, 79, 100
1, 528, Note_on_c, 0, 76, 100
1, 528, Note_off_c, 0, 79, 64
1, 576, Note_on_c, 0, 72, 100
1, 576, Note_off_c, 0, 76, 64
1, 624, Note_off_c, 0, 72, 64
1, 672, Note_on_c, 0, 71, 100
1, 720, Note_off_c, 0, 71, 64
1, 768, Note_on_c, 0, 64, 100
1, 816, Note_off_c, 0, 64, 64
1, 816, Note_on_c, 0, 72, 100
1, 864, Note_on_c, 0, 71, 100
1, 864, Note_off_c, 0, 72, 64
1, 912, Note_on_c, 0, 64, 100
1, 912, Note_off_c, 0, 71, 64
1, 960, Note_off_c, 0, 64, 64
1, 960, Note_on_c, 0, 67, 100
1, 1008, Note_off_c, 0, 67, 64
1, 1104, Note_on_c, 0, 74, 100
1, 1152, Note_on_c, 0, 72, 100
1, 1152, Note_off_c, 0, 74, 64
1, 1200, Note_off_c, 0, 72, 64
1, 1248, Note_on_c, 0, 71, 100
1, 1296, Note_on_c, 0, 67, 100
1, 1296, Note_off_c, 0, 71, 64
1, 1344, Note_off_c, 0, 67, 64
1, 1536, Pitch_bend_c, 0, 8192
1, 1536, Pitch_bend_c, 0, 8192
1, 1536, Control_c, 0, 6, 12
1, 1536, Control_c, 0, 6, 12
1, 1536, Control_c, 0, 7, 100
1, 1536, Control_c, 0, 7, 100
1, 1536, Control_c, 0, 10, 64
1, 1536, Control_c, 0, 10, 64
1, 1536, Control_c, 0, 100, 0
1, 1536, Control_c, 0, 100, 0
1, 1536, Control_c, 0, 101, 0
1, 1536, Control_c, 0, 101, 0
1, 0, Note_on_c, 0, 45, 75
1, 0, Note_on_c, 0, 52, 75
1, 0, Note_on_c, 0, 64, 75
1, 0, Note_on_c, 0, 69, 75
1, 0, Note_on_c, 0, 76, 75
1, 13, Note_on_c, 0, 83, 75
1, 96, Note_off_c, 0, 69, 64
1, 96, Note_on_c, 0, 69, 75
1, 96, Note_off_c, 0, 76, 64
1, 192, Note_off_c, 0, 69, 64
1, 192, Note_on_c, 0, 76, 75
1, 288, Note_on_c, 0, 72, 75
1, 384, Note_on_c, 0, 71, 75
1, 384, Note_off_c, 0, 76, 64
1, 480, Note_on_c, 0, 69, 75
1, 480, Note_off_c, 0, 72, 64
1, 576, Note_off_c, 0, 71, 64
1, 576, Note_on_c, 0, 71, 75
1, 672, Note_off_c, 0, 69, 64
1, 672, Note_on_c, 0, 72, 75
1, 767, Note_off_c, 0, 52, 64
1, 768, Note_off_c, 0, 45, 64
1, 768, Note_off_c, 0, 64, 64
1, 768, Note_on_c, 0, 67, 75
1, 768, Note_off_c, 0, 71, 64
1, 768, Note_off_c, 0, 72, 64
1, 769, Note_on_c, 0, 41, 75
1, 769, Note_on_c, 0, 53, 75
1, 769, Note_on_c, 0, 57, 75
1, 769, Note_on_c, 0, 72, 75
1, 774, Note_on_c, 0, 76, 75
1, 781, Note_off_c, 0, 83, 64
1, 864, Note_off_c, 0, 67, 64
1, 864, Note_on_c, 0, 67, 75
1, 960, Note_off_c, 0, 67, 64
1, 960, Note_off_c, 0, 72, 64
1, 960, Note_on_c, 0, 72, 75
1, 1056, Note_on_c, 0, 71, 75
1, 1152, Note_on_c, 0, 69, 75
1, 1152, Note_off_c, 0, 72, 64
1, 1248, Note_off_c, 0, 71, 64
1, 1248, Note_on_c, 0, 71, 75
1, 1344, Note_off_c, 0, 69, 64
1, 1344, Note_on_c, 0, 72, 75
1, 1440, Note_off_c, 0, 71, 64
1, 1440, Note_on_c, 0, 74, 75
1, 1531, Note_off_c, 0, 41, 64
1, 1536, Note_on_c, 0, 45, 75
1, 1536, Note_on_c, 0, 52, 75
1, 1536, Note_off_c, 0, 53, 64
1, 1536, Note_off_c, 0, 57, 64
1, 1536, Note_on_c, 0, 64, 75
1, 1536, Note_on_c, 0, 69, 75
1, 1536, Note_off_c, 0, 72, 64
1, 1536, Note_off_c, 0, 74, 64
1, 1536, Note_off_c, 0, 76, 64
1, 1536, Note_on_c, 0, 76, 75
1, 1549, Note_on_c, 0, 83, 75
1, 1632, Note_off_c, 0, 69, 64
1, 1632, Note_on_c, 0, 69, 75
1, 1632, Note_off_c, 0, 76, 64
1, 1728, Note_off_c, 0, 69, 64
1, 1728, Note_on_c, 0, 76, 75
1, 1824, Note_on_c, 0, 72, 75
1, 1920, Note_on_c, 0, 71, 75
1, 1920, Note_off_c, 0, 76, 64
1, 2016, Note_on_c, 0, 69, 75
1, 2016, Note_off_c, 0, 72, 64
1, 2112, Note_off_c, 0, 71, 64
1, 2112, Note_on_c, 0, 71, 75
1, 2208, Note_off_c, 0, 69, 64
1, 2208, Note_on_c, 0, 72, 75
1, 2303, Note_off_c, 0, 52, 64
1, 2304, Note_off_c, 0, 45, 64
1, 2304, Note_off_c, 0, 64, 64
1, 2304, Note_on_c, 0, 67, 75
1, 2304, Note_off_c, 0, 71, 64
1, 2304, Note_off_c, 0, 72, 64
1, 2305, Note_on_c, 0, 41, 75
1, 2305, Note_on_c, 0, 53, 75
1, 2305, Note_on_c, 0, 57, 75
1, 2305, Note_on_c, 0, 72, 75
1, 2310, Note_on_c, 0, 76, 75
1, 2317, Note_off_c, 0, 83, 64
1, 2400, Note_off_c, 0, 67, 64
1, 2400, Note_on_c, 0, 67, 75
1, 2496, Note_off_c, 0, 67, 64
1, 2496, Note_off_c, 0, 72, 64
1, 2496, Note_on_c, 0, 72, 75
1, 2592, Note_on_c, 0, 71, 75
1, 2688, Note_on_c, 0, 69, 75
1, 2688, Note_off_c, 0, 72, 64
1, 2784, Note_off_c, 0, 71, 64
1, 2784, Note_on_c, 0, 71, 75
1, 2880, Note_off_c, 0, 69, 64
1, 2880, Note_on_c, 0, 72, 75
1, 2976, Note_off_c, 0, 71, 64
1, 2976, Note_on_c, 0, 74, 75
1, 3067, Note_off_c, 0, 41, 64
1, 3072, Note_on_c, 0, 45, 75
1, 3072, Note_on_c, 0, 52, 75
1, 3072, Note_off_c, 0, 53, 64
1, 3072, Note_off_c, 0, 57, 64
1, 3072, Note_on_c, 0, 64, 75
1, 3072, Note_on_c, 0, 69, 75
1, 3072, Note_off_c, 0, 72, 64
1, 3072, Note_off_c, 0, 74, 64
1, 3072, Note_off_c, 0, 76, 64
1, 3072, Note_on_c, 0, 76, 75
1, 3085, Note_on_c, 0, 83, 75
1, 3168, Note_off_c, 0, 69, 64
1, 3168, Note_on_c, 0, 69, 75
1, 3168, Note_off_c, 0, 76, 64
1, 3264, Note_off_c, 0, 69, 64
1, 3264, Note_on_c, 0, 76, 75
1, 3360, Note_on_c, 0, 72, 75
1, 3456, Note_on_c, 0, 71, 75
1, 3456, Note_off_c, 0, 76, 64
1, 3552, Note_on_c, 0, 69, 75
1, 3552, Note_off_c, 0, 72, 64
1, 3648, Note_off_c, 0, 71, 64
1, 3648, Note_on_c, 0, 71, 75
1, 3744, Note_off_c, 0, 69, 64
1, 3744, Note_on_c, 0, 72, 75
1, 3839, Note_off_c, 0, 52, 64
1, 3840, Note_off_c, 0, 45, 64
1, 3840, Note_off_c, 0, 64, 64
1, 3840, Note_on_c, 0, 67, 75
1, 3840, Note_off_c, 0, 71, 64
1, 3840, Note_off_c, 0, 72, 64
1, 3841, Note_on_c, 0, 41, 75
1, 3841, Note_on_c, 0, 53, 75
1, 3841, Note_on_c, 0, 57, 75
1, 3841, Note_on_c, 0, 72, 75
1, 3846, Note_on_c, 0, 76, 75
1, 3853, Note_off_c, 0, 83, 64
1, 3936, Note_off_c, 0, 67, 64
1, 3936, Note_on_c, 0, 67, 75
1, 4032, Note_off_c, 0, 67, 64
1, 4032, Note_off_c, 0, 72, 64
1, 4032, Note_on_c, 0, 72, 75
1, 4128, Note_on_c, 0, 71, 75
1, 4224, Note_on_c, 0, 69, 75
1, 4224, Note_off_c, 0, 72, 64
1, 4320, Note_off_c, 0, 71, 64
1, 4320, Note_on_c, 0, 71, 75
1, 4416, Note_off_c, 0, 69, 64
1, 4416, Note_on_c, 0, 72, 75
1, 4512, Note_off_c, 0, 71, 64
1, 4512, Note_on_c, 0, 74, 75
1, 4603, Note_off_c, 0, 41, 64
1, 4608, Note_on_c, 0, 45, 75
1, 4608, Note_on_c, 0, 52, 75
1, 4608, Note_off_c, 0, 53, 64
1, 4608, Note_off_c, 0, 57, 64
1, 4608, Note_on_c, 0, 64, 75
1, 4608, Note_on_c, 0, 69, 75
1, 4608, Note_off_c, 0, 72, 64
1, 4608, Note_off_c, 0, 74, 64
1, 4608, Note_off_c, 0, 76, 64
1, 4608, Note_on_c, 0, 76, 75
1, 4621, Note_on_c, 0, 83, 75
1, 4704, Note_off_c, 0, 69, 64
1, 4704, Note_on_c, 0, 69, 75
1, 4704, Note_off_c, 0, 76, 64
1, 4800, Note_off_c, 0, 69, 64
1, 4800, Note_on_c, 0, 76, 75
1, 4896, Note_on_c, 0, 72, 75
1, 4992, Note_on_c, 0, 71, 75
1, 4992, Note_off_c, 0, 76, 64
1, 5088, Note_on_c, 0, 69, 75
1, 5088, Note_off_c, 0, 72, 64
1, 5184, Note_off_c, 0, 71, 64
1, 5184, Note_on_c, 0, 71, 75
1, 5280, Note_off_c, 0, 69, 64
1, 5280, Note_on_c, 0, 72, 75
1, 5375, Note_off_c, 0, 52, 64
1, 5376, Note_off_c, 0, 45, 64
1, 5376, Note_off_c, 0, 64, 64
1, 5376, Note_on_c, 0, 67, 75
1, 5376, Note_off_c, 0, 71, 64
1, 5376, Note_off_c, 0, 72, 64
1, 5377, Note_on_c, 0, 41, 75
1, 5377, Note_on_c, 0, 53, 75
1, 5377, Note_on_c, 0, 57, 75
1, 5377, Note_on_c, 0, 72, 75
1, 5382, Note_on_c, 0, 76, 75
1, 5389, Note_off_c, 0, 83, 64
1, 5472, Note_off_c, 0, 67, 64
1, 5472, Note_on_c, 0, 67, 75
1, 5568, Note_off_c, 0, 67, 64
1, 5568, Note_off_c, 0, 72, 64
1, 5568, Note_on_c, 0, 72, 75
1, 5664, Note_on_c, 0, 71, 75
1, 5760, Note_on_c, 0, 69, 75
1, 5760, Note_off_c, 0, 72, 64
1, 5856, Note_off_c, 0, 71, 64
1, 5856, Note_on_c, 0, 71, 75
1, 5952, Note_off_c, 0, 69, 64
1, 5952, Note_on_c, 0, 72, 75
1, 6048, Note_off_c, 0, 71, 64
1, 6048, Note_on_c, 0, 74, 75
1, 6139, Note_off_c, 0, 41, 64
1, 6144, Note_off_c, 0, 53, 64
1, 6144, Note_off_c, 0, 57, 64
1, 6144, Note_off_c, 0, 72, 64
1, 6144, Note_off_c, 0, 74, 64
1, 6144, Note_off_c, 0, 76, 64
1, 0, Note_on_c, 0, 69, 108
1, 0, Note_on_c, 0, 81, 108
1, 4, Note_on_c, 0, 84, 108
1, 15, Note_on_c, 0, 88, 108
1, 82, Note_off_c, 0, 88, 64
1, 96, Note_on_c, 0, 88, 108
1, 180, Note_off_c, 0, 84, 64
1, 192, Note_on_c, 0, 76, 76
1, 360, Note_off_c, 0, 76, 64
1, 360, Note_off_c, 0, 88, 64
1, 366, Note_off_c, 0, 69, 64
1, 366, Note_off_c, 0, 81, 64
1, 383, Note_on_c, 0, 65, 108
1, 383, Note_on_c, 0, 77, 108
1, 387, Note_on_c, 0, 81, 108
1, 393, Note_on_c, 0, 84, 108
1, 480, Note_on_c, 0, 88, 127
1, 554, Note_off_c, 0, 84, 64
1, 564, Note_off_c, 0, 65, 64
1, 564, Note_off_c, 0, 77, 64
1, 568, Note_off_c, 0, 81, 64
1, 576, Note_on_c, 0, 64, 108
1, 576, Note_on_c, 0, 76, 108
1, 576, Note_off_c, 0, 88, 64
1, 581, Note_on_c, 0, 79, 108
1, 582, Note_on_c, 0, 83, 108
1, 584, Note_on_c, 0, 86, 108
1, 756, Note_off_c, 0, 86, 64
1, 768, Note_off_c, 0, 64, 64
1, 768, Note_on_c, 0, 69, 108
1, 768, Note_off_c, 0, 76, 64
1, 768, Note_off_c, 0, 79, 64
1, 768, Note_on_c, 0, 81, 108
1, 768, Note_off_c, 0, 83, 64
1, 772, Note_on_c, 0, 84, 108
1, 783, Note_on_c, 0, 88, 108
1, 850, Note_off_c, 0, 88, 64
1, 864, Note_on_c, 0, 88, 108
1, 1128, Note_off_c, 0, 88, 64
1, 1134, Note_off_c, 0, 69, 64
1, 1134, Note_off_c, 0, 81, 64
1, 1139, Note_off_c, 0, 84, 64
1, 1151, Note_on_c, 0, 65, 108
1, 1151, Note_on_c, 0, 77, 108
1, 1155, Note_on_c, 0, 81, 108
1, 1161, Note_on_c, 0, 84, 108
1, 1247, Note_on_c, 0, 88, 108
1, 1322, Note_off_c, 0, 84, 64
1, 1324, Note_off_c, 0, 88, 64
1, 1332, Note_off_c, 0, 65, 64
1, 1332, Note_off_c, 0, 77, 64
1, 1336, Note_off_c, 0, 81, 64
1, 1344, Note_on_c, 0, 64, 108
1, 1344, Note_on_c, 0, 76, 108
1, 1349, Note_on_c, 0, 79, 108
1, 1349, Note_on_c, 0, 86, 108
1, 1350, Note_on_c, 0, 83, 108
1, 1536, Note_off_c, 0, 64, 64
1, 1536, Note_on_c, 0, 69, 108
1, 1536, Note_off_c, 0, 76, 64
1, 1536, Note_off_c, 0, 79, 64
1, 1536, Note_on_c, 0, 81, 108
1, 1536, Note_off_c, 0, 83, 64
1, 1536, Note_off_c, 0, 86, 64
1, 1540, Note_on_c, 0, 84, 108
1, 1551, Note_on_c, 0, 88, 108
1, 1618, Note_off_c, 0, 88, 64
1, 1632, Note_on_c, 0, 88, 108
1, 1716, Note_off_c, 0, 84, 64
1, 1728, Note_on_c, 0, 76, 76
1, 1896, Note_off_c, 0, 76, 64
1, 1896, Note_off_c, 0, 88, 64
1, 1902, Note_off_c, 0, 69, 64
1, 1902, Note_off_c, 0, 81, 64
1, 1919, Note_on_c, 0, 65, 108
1, 1919, Note_on_c, 0, 77, 108
1, 1923, Note_on_c, 0, 81, 108
1, 1929, Note_on_c, 0, 84, 108
1, 2016, Note_on_c, 0, 88, 127
1, 2090, Note_off_c, 0, 84, 64
1, 2100, Note_off_c, 0, 65, 64
1, 2100, Note_off_c, 0, 77, 64
1, 2104, Note_off_c, 0, 81, 64
1, 2112, Note_on_c, 0, 64, 108
1, 2112, Note_on_c, 0, 76, 108
1, 2112, Note_off_c, 0, 88, 64
1, 2117, Note_on_c, 0, 79, 108
1, 2118, Note_on_c, 0, 83, 108
1, 2120, Note_on_c, 0, 86, 108
1, 2292, Note_off_c, 0, 86, 64
1, 2304, Note_off_c, 0, 64, 64
1, 2304, Note_on_c, 0, 69, 108
1, 2304, Note_off_c, 0, 76, 64
1, 2304, Note_off_c, 0, 79, 64
1, 2304, Note_on_c, 0, 81, 108
1, 2304, Note_off_c, 0, 83, 64
1, 2308, Note_on_c, 0, 84, 108
1, 2319, Note_on_c, 0, 88, 108
1, 2386, Note_off_c, 0, 88, 64
1, 2400, Note_on_c, 0, 88, 108
1, 2664, Note_off_c, 0, 88, 64
1, 2670, Note_off_c, 0, 69, 64
1, 2670, Note_off_c, 0, 81, 64
1, 2675, Note_off_c, 0, 84, 64
1, 2687, Note_on_c, 0, 65, 108
1, 2687, Note_on_c, 0, 77, 108
1, 2691, Note_on_c, 0, 81, 108
1, 2697, Note_on_c, 0, 84, 108
1, 2783, Note_on_c, 0, 88, 108
1, 2858, Note_off_c, 0, 84, 64
1, 2860, Note_off_c, 0, 88, 64
1, 2868, Note_off_c, 0, 65, 64
1, 2868, Note_off_c, 0, 77, 64
1, 2872, Note_off_c, 0, 81, 64
1, 2880, Note_on_c, 0, 64, 108
1, 2880, Note_on_c, 0, 76, 108
1, 2885, Note_on_c, 0, 79, 108
1, 2885, Note_on_c, 0, 86, 108
1, 2886, Note_on_c, 0, 83, 108
1, 3072, Note_off_c, 0, 64, 64
1, 3072, Note_off_c, 0, 76, 64
1, 3072, Note_off_c, 0, 79, 64
1, 3072, Note_off_c, 0, 83, 64
1, 3072, Note_off_c, 0, 86, 64
1, 0, Note_on_c, 0, 41, 120
1, 6, Note_on_c, 0, 65, 120
1, 96, Note_off_c, 0, 41, 64
1, 96, Note_on_c, 0, 53, 96
1, 192, Note_on_c, 0, 60, 68
1, 195, Note_on_c, 0, 72, 120
1, 246, Note_off_c, 0, 65, 64
1, 288, Note_on_c, 0, 67, 90
1, 384, Note_off_c, 0, 53, 64
1, 384, Note_off_c, 0, 60, 64
1, 384, Note_off_c, 0, 67, 64
1, 387, Note_off_c, 0, 72, 64
1, 389, Note_on_c, 0, 70, 120
1, 480, Note_on_c, 0, 36, 120
1, 480, Note_on_c, 0, 48, 120
1, 484, Note_on_c, 0, 73, 120
1, 576, Note_off_c, 0, 36, 64
1, 576, Note_on_c, 0, 55, 120
1, 580, Note_off_c, 0, 73, 64
1, 675, Note_on_c, 0, 72, 120
1, 768, Note_on_c, 0, 41, 120
1, 768, Note_off_c, 0, 48, 64
1, 768, Note_off_c, 0, 55, 64
1, 768, Note_off_c, 0, 70, 64
1, 768, Note_off_c, 0, 72, 64
1, 774, Note_on_c, 0, 65, 120
1, 864, Note_off_c, 0, 41, 64
1, 864, Note_on_c, 0, 53, 96
1, 960, Note_on_c, 0, 60, 68
1, 963, Note_on_c, 0, 72, 120
1, 1014, Note_off_c, 0, 65, 64
1, 1056, Note_on_c, 0, 67, 90
1, 1152, Note_off_c, 0, 53, 64
1, 1152, Note_off_c, 0, 60, 64
1, 1152, Note_off_c, 0, 67, 64
1, 1155, Note_off_c, 0, 72, 64
1, 1157, Note_on_c, 0, 70, 120
1, 1248, Note_on_c, 0, 36, 120
1, 1248, Note_on_c, 0, 48, 120
1, 1252, Note_on_c, 0, 73, 120
1, 1344, Note_off_c, 0, 36, 64
1, 1344, Note_on_c, 0, 55, 120
1, 1348, Note_off_c, 0, 73, 64
1, 1443, Note_on_c, 0, 72, 120
1, 1536, Note_off_c, 0, 48, 64
1, 1536, Note_off_c, 0, 55, 64
1, 1536, Note_off_c, 0, 70, 64
1, 1536, Note_off_c, 0, 72, 64
1, 0, Pitch_bend_c, 0, 8192
1, 0, Control_c, 0, 6, 12
1, 0, Control_c, 0, 7, 100
1, 0, Control_c, 0, 10, 64
1, 0, Control_c, 0, 100, 0
1, 0, Control_c, 0, 101, 0
1, 0, Note_on_c, 0, 67, 100
1, 48, Note_off_c, 0, 67, 64
1, 48, Note_on_c, 0, 72, 100
1, 96, Note_off_c, 0, 72, 64
1, 96, Note_on_c, 0, 83, 100
1, 144, Note_on_c, 0, 79, 100
1, 144, Note_off_c, 0, 83, 64
1, 192, Note_on_c, 0, 76, 100
1, 192, Note_off_c, 0, 79, 64
1, 240, Note_off_c, 0, 76, 64
1, 336, Note_on_c, 0, 72, 100
1, 384, Note_on_c, 0, 67, 100
1, 384, Note_off_c, 0, 72, 64
1, 432, Note_off_c, 0, 67, 64
1, 432, Note_on_c, 0, 72, 100
1, 480, Note_off_c, 0, 72, 64
1, 480, Note_on_c, 0, 79, 100
1, 528, Note_on_c, 0, 76, 100
1, 528, Note_off_c, 0, 79, 64
1, 576, Note_on_c, 0, 72, 100
1, 576, Note_off_c, 0, 76, 64
1, 624, Note_off_c, 0, 72, 64
1, 672, Note_on_c, 0, 71, 100
1, 720, Note_off_c, 0, 71, 64
1, 768, Note_on_c, 0, 64, 100
1, 816, Note_off_c, 0, 64, 64
1, 816, Note_on_c, 0, 72, 100
1, 864, Note_on_c, 0, 71, 100
1, 864, Note_off_c, 0, 72, 64
1, 912, Note_on_c, 0, 64, 100
1, 912, Note_off_c, 0, 71, 64
1, 960, Note_off_c, 0, 64, 64
1, 960, Note_on_c, 0, 67, 100
1, 1008, Note_off_c, 0, 67, 64
1, 1104, Note_on_c, 0, 74, 100
1, 1152, Note_on_c, 0, 72, 100
1, 1152, Note_off_c, 0, 74, 64
1, 1200, Note_off_c, 0, 72, 64
1, 1248, Note_on_c, 0, 71, 100
1, 1296, Note_on_c, 0, 67, 100
1, 1296, Note_off_c, 0, 71, 64
1, 1344, Note_off_c, 0, 67, 64
1, 1536, Pitch_bend_c, 0, 8192
1, 1536, Pitch_bend_c, 0, 8192
1, 1536, Control_c, 0, 6, 12
1, 1536, Control_c, 0, 6, 12
1, 1536, Control_c, 0, 7, 100
1, 1536, Control_c, 0, 7, 100
1, 1536, Control_c, 0, 10, 64
1, 1536, Control_c, 0, 10, 64
1, 1536, Control_c, 0, 100, 0
1, 1536, Control_c, 0, 100, 0
1, 1536, Control_c, 0, 101, 0
1, 1536, Control_c, 0, 101, 0
1, 0, Pitch_bend_c, 0, 8192
1, 0, Control_c, 0, 6, 12
1, 0, Control_c, 0, 7, 100
1, 0, Control_c, 0, 10, 64
1, 0, Control_c, 0, 100, 0
1, 0, Control_c, 0, 101, 0
1, 0, Note_on_c, 0, 57, 100
1, 0, Note_on_c, 0, 60, 100
1, 0, Note_on_c, 0, 64, 100
1, 48, Note_off_c, 0, 57, 64
1, 48, Note_off_c, 0, 60, 64
1, 48, Note_off_c, 0, 64, 64
1, 96, Note_on_c, 0, 57, 100
1, 96, Note_on_c, 0, 60, 100
1, 96, Note_on_c, 0, 64, 100
1, 120, Note_off_c, 0, 57, 64
1, 120, Note_off_c, 0, 60, 64
1, 120, Note_off_c, 0, 64, 64
1, 144, Note_on_c, 0, 57, 100
1, 144, Note_on_c, 0, 60, 100
1, 144, Note_on_c, 0, 64, 100
1, 168, Note_off_c, 0, 57, 64
1, 168, Note_off_c, 0, 60, 64
1, 168, Note_off_c, 0, 64, 64
1, 192, Note_on_c, 0, 57, 100
1, 192, Note_on_c, 0, 60, 100
1, 192, Note_on_c, 0, 64, 100
1, 216, Note_off_c, 0, 57, 64
1, 216, Note_off_c, 0, 60, 64
1, 216, Note_off_c, 0, 64, 64
1, 264, Note_on_c, 0, 59, 100
1, 264, Note_on_c, 0, 62, 100
1, 264, Note_on_c, 0, 67, 100
1, 312, Note_off_c, 0, 59, 64
1, 312, Note_off_c, 0, 62, 64
1, 312, Note_off_c, 0, 67, 64
1, 336, Note_on_c, 0, 60, 100
1, 336, Note_on_c, 0, 64, 100
1, 336, Note_on_c, 0, 69, 100
1, 432, Note_off_c, 0, 60, 64
1, 432, Note_off_c, 0, 64, 64
1, 432, Note_off_c, 0, 69, 64
1, 480, Note_on_c, 0, 60, 100
1, 480, Note_on_c, 0, 64, 100
1, 480, Note_on_c, 0, 69, 100
1, 528, Note_on_c, 0, 67, 100
1, 528, Note_off_c, 0, 69, 64
1, 576, Note_on_c, 0, 55, 100
1, 576, Note_on_c, 0, 59, 100
1, 576, Note_off_c, 0, 60, 64
1, 576, Note_on_c, 0, 62, 100
1, 576, Note_off_c, 0, 64, 64
1, 576, Note_off_c, 0, 67, 64
1, 624, Note_off_c, 0, 55, 64
1, 624, Note_off_c, 0, 59, 64
1, 624, Note_off_c, 0, 62, 64
1, 648, Note_on_c, 0, 55, 100
1, 648, Note_on_c, 0, 59, 100
1, 648, Note_on_c, 0, 62, 100
1, 672, Note_off_c, 0, 55, 64
1, 672, Note_off_c, 0, 59, 64
1, 672, Note_off_c, 0, 62, 64
1, 720, Note_on_c, 0, 55, 100
1, 720, Note_on_c, 0, 59, 100
1, 720, Note_on_c, 0, 62, 100
1, 744, Note_off_c, 0, 55, 64
1, 744, Note_off_c, 0, 59, 64
1, 744, Note_off_c, 0, 62, 64
1, 768, Note_on_c, 0, 57, 100
1, 768, Note_on_c, 0, 60, 100
1, 768, Note_on_c, 0, 64, 100
1, 816, Note_off_c, 0, 57, 64
1, 816, Note_off_c, 0, 60, 64
1, 816, Note_off_c, 0, 64, 64
1, 864, Note_on_c, 0, 60, 100
1, 864, Note_on_c, 0, 64, 100
1, 864, Note_on_c, 0, 69, 100
1, 912, Note_on_c, 0, 67, 100
1, 912, Note_off_c, 0, 69, 64
1, 960, Note_off_c, 0, 60, 64
1, 960, Note_off_c, 0, 64, 64
1, 960, Note_on_c, 0, 64, 100
1, 960, Note_off_c, 0, 67, 64
1, 960, Note_on_c, 0, 69, 100
1, 960, Note_on_c, 0, 72, 100
1, 984, Note_off_c, 0, 64, 64
1, 984, Note_off_c, 0, 69, 64
1, 984, Note_off_c, 0, 72, 64
1, 1032, Note_on_c, 0, 64, 100
1, 1032, Note_on_c, 0, 67, 100
1, 1032, Note_on_c, 0, 71, 100
1, 1056, Note_off_c, 0, 64, 64
1, 1056, Note_off_c, 0, 67, 64
1, 1056, Note_off_c, 0, 71, 64
1, 1104, Note_on_c, 0, 59, 100
1, 1104, Note_on_c, 0, 62, 100
1, 1104, Note_on_c, 0, 67, 100
1, 1200, Note_off_c, 0, 59, 64
1, 1200, Note_off_c, 0, 62, 64
1, 1200, Note_off_c, 0, 67, 64
1, 1248, Note_on_c, 0, 60, 100
1, 1248, Note_on_c, 0, 64, 100
1, 1248, Note_on_c, 0, 69, 100
1, 1248, Note_on_c, 0, 72, 65
1, 1296, Note_on_c, 0, 67, 100
1, 1296, Note_off_c, 0, 69, 64
1, 1296, Note_on_c, 0, 71, 66
1, 1296, Note_off_c, 0, 72, 64
1, 1344, Note_on_c, 0, 59, 100
1, 1344, Note_off_c, 0, 60, 64
1, 1344, Note_on_c, 0, 62, 100
1, 1344, Note_off_c, 0, 64, 64
1, 1344, Note_off_c, 0, 67, 64
1, 1344, Note_on_c, 0, 67, 100
1, 1344, Note_off_c, 0, 71, 64
1, 1392, Note_off_c, 0, 59, 64
1, 1392, Note_off_c, 0, 62, 64
1, 1392, Note_off_c, 0, 67, 64
1, 1416, Note_on_c, 0, 59, 100
1, 1416, Note_on_c, 0, 62, 100
1, 1416, Note_on_c, 0, 67, 100
1, 1440, Note_off_c, 0, 59, 64
1, 1440, Note_off_c, 0, 62, 64
1, 1440, Note_off_c, 0, 67, 64
1, 1488, Note_on_c, 0, 59, 100
1, 1488, Note_on_c, 0, 62, 100
1, 1488, Note_on_c, 0, 67, 100
1, 1512, Note_off_c, 0, 59, 64
1, 1512, Note_off_c, 0, 62, 64
1, 1512, Note_off_c, 0, 67, 64
1, 1536, Pitch_bend_c, 0, 8192
1, 1536, Pitch_bend_c, 0, 8192
1, 1536, Control_c, 0, 6, 12
1, 1536, Control_c, 0, 6, 12
1, 1536, Control_c, 0, 7, 100
1, 1536, Control_c, 0, 7, 100
1, 1536, Control_c, 0, 10, 64
1, 1536, Control_c, 0, 10, 64
1, 1536, Control_c, 0, 100, 0
1, 1536, Control_c, 0, 100, 0
1, 1536, Control_c, 0, 101, 0
1, 1536, Control_c, 0, 101, 0
1, 0, Pitch_bend_c, 0, 8192
1, 0, Control_c, 0, 6, 12
1, 0, Control_c, 0, 7, 100
1, 0, Control_c, 0, 10, 64
1, 0, Control_c, 0, 100, 0
1, 0, Control_c, 0, 101, 0
1, 0, Note_on_c, 0, 62, 107
1, 0, Note_on_c, 0, 65, 107
1, 0, Note_on_c, 0, 69, 107
1, 0, Note_on_c, 0, 72, 107
1, 48, Note_off_c, 0, 62, 0
1, 48, Note_off_c, 0, 65, 0
1, 48, Note_off_c, 0, 69, 0
1, 48, Note_off_c, 0, 72, 0
1, 96, Note_on_c, 0, 62, 107
1, 96, Note_on_c, 0, 65, 107
1, 96, Note_on_c, 0, 69, 107
1, 96, Note_on_c, 0, 72, 107
1, 120, Note_off_c, 0, 62, 0
1, 120, Note_off_c, 0, 65, 0
1, 120, Note_off_c, 0, 69, 0
1, 120, Note_off_c, 0, 72, 0
1, 168, Note_on_c, 0, 62, 107
1, 168, Note_on_c, 0, 65, 107
1, 168, Note_on_c, 0, 69, 107
1, 168, Note_on_c, 0, 72, 107
1, 192, Note_off_c, 0, 62, 0
1, 192, Note_off_c, 0, 65, 0
1, 192, Note_off_c, 0, 69, 0
1, 192, Note_off_c, 0, 72, 0
1, 240, Note_on_c, 0, 62, 107
1, 240, Note_on_c, 0, 65, 107
1, 240, Note_on_c, 0, 69, 107
1, 240, Note_on_c, 0, 72, 107
1, 264, Note_off_c, 0, 62, 0
1, 264, Note_off_c, 0, 65, 0
1, 264, Note_off_c, 0, 69, 0
1, 264, Note_off_c, 0, 72, 0
1, 312, Note_on_c, 0, 62, 107
1, 312, Note_on_c, 0, 65, 107
1, 312, Note_on_c, 0, 69, 107
1, 312, Note_on_c, 0, 74, 107
1, 336, Note_off_c, 0, 62, 0
1, 336, Note_off_c, 0, 65, 0
1, 336, Note_off_c, 0, 69, 0
1, 336, Note_off_c, 0, 74, 0
1, 384, Note_on_c, 0, 65, 107
1, 384, Note_on_c, 0, 69, 107
1, 384, Note_on_c, 0, 72, 107
1, 384, Note_on_c, 0, 76, 107
1, 432, Note_off_c, 0, 65, 0
1, 432, Note_off_c, 0, 69, 0
1, 432, Note_off_c, 0, 72, 0
1, 432, Note_off_c, 0, 76, 0
1, 480, Note_on_c, 0, 65, 107
1, 480, Note_on_c, 0, 69, 107
1, 480, Note_on_c, 0, 72, 107
1, 480, Note_on_c, 0, 76, 107
1, 504, Note_off_c, 0, 65, 0
1, 504, Note_off_c, 0, 69, 0
1, 504, Note_off_c, 0, 72, 0
1, 504, Note_off_c, 0, 76, 0
1, 552, Note_on_c, 0, 65, 107
1, 552, Note_on_c, 0, 69, 107
1, 552, Note_on_c, 0, 72, 107
1, 552, Note_on_c, 0, 76, 107
1, 576, Note_off_c, 0, 65, 0
1, 576, Note_off_c, 0, 69, 0
1, 576, Note_off_c, 0, 72, 0
1, 576, Note_off_c, 0, 76, 0
1, 624, Note_on_c, 0, 65, 107
1, 624, Note_on_c, 0, 69, 107
1, 624, Note_on_c, 0, 72, 107
1, 624, Note_on_c, 0, 76, 107
1, 648, Note_off_c, 0, 65, 0
1, 648, Note_off_c, 0, 69, 0
1, 648, Note_off_c, 0, 72, 0
1, 648, Note_off_c, 0, 76, 0
1, 696, Note_on_c, 0, 65, 107
1, 696, Note_on_c, 0, 69, 107
1, 696, Note_on_c, 0, 72, 107
1, 696, Note_on_c, 0, 76, 107
1, 720, Note_off_c, 0, 65, 0
1, 720, Note_off_c, 0, 69, 0
1, 720, Note_off_c, 0, 72, 0
1, 720, Note_off_c, 0, 76, 0
1, 768, Note_on_c, 0, 65, 107
1, 768, Note_on_c, 0, 69, 107
1, 768, Note_on_c, 0, 72, 107
1, 768, Note_on_c, 0, 74, 107
1, 816, Note_off_c, 0, 65, 0
1, 816, Note_off_c, 0, 69, 0
1, 816, Note_off_c, 0, 72, 0
1, 816, Note_off_c, 0, 74, 0
1, 864, Note_on_c, 0, 65, 107
1, 864, Note_on_c, 0, 69, 107
1, 864, Note_on_c, 0, 72, 107
1, 864, Note_on_c, 0, 74, 107
1, 888, Note_off_c, 0, 65, 0
1, 888, Note_off_c, 0, 69, 0
1, 888, Note_off_c, 0, 72, 0
1, 888, Note_off_c, 0, 74, 0
1, 936, Note_on_c, 0, 65, 107
1, 936, Note_on_c, 0, 69, 107
1, 936, Note_on_c, 0, 72, 107
1, 936, Note_on_c, 0, 74, 107
1, 960, Note_off_c, 0, 65, 0
1, 960, Note_off_c, 0, 69, 0
1, 960, Note_off_c, 0, 72, 0
1, 960, Note_off_c, 0, 74, 0
1, 1008, Note_on_c, 0, 65, 107
1, 1008, Note_on_c, 0, 69, 107
1, 1008, Note_on_c, 0, 72, 107
1, 1008, Note_on_c, 0, 74, 107
1, 1032, Note_off_c, 0, 65, 0
1, 1032, Note_off_c, 0, 69, 0
1, 1032, Note_off_c, 0, 72, 0
1, 1032, Note_off_c, 0, 74, 0
1, 1080, Note_on_c, 0, 64, 107
1, 1080, Note_on_c, 0, 69, 107
1, 1080, Note_on_c, 0, 72, 107
1, 1080, Note_on_c, 0, 74, 107
1, 1104, Note_off_c, 0, 64, 0
1, 1104, Note_off_c, 0, 69, 0
1, 1104, Note_off_c, 0, 72, 0
1, 1104, Note_off_c, 0, 74, 0
1, 1152, Note_on_c, 0, 60, 107
1, 1152, Note_on_c, 0, 64, 107
1, 1152, Note_on_c, 0, 67, 107
1, 1152, Note_on_c, 0, 72, 107
1, 1200, Note_off_c, 0, 60, 0
1, 1200, Note_off_c, 0, 64, 0
1, 1200, Note_off_c, 0, 67, 0
1, 1200, Note_off_c, 0, 72, 0
1, 1248, Note_on_c, 0, 60, 107
1, 1248, Note_on_c, 0, 64, 107
1, 1248, Note_on_c, 0, 67, 107
1, 1248, Note_on_c, 0, 72, 107
1, 1272, Note_off_c, 0, 60, 0
1, 1272, Note_off_c, 0, 64, 0
1, 1272, Note_off_c, 0, 67, 0
1, 1272, Note_off_c, 0, 72, 0
1, 1320, Note_on_c, 0, 60, 107
1, 1320, Note_on_c, 0, 64, 107
1, 1320, Note_on_c, 0, 67, 107
1, 1320, Note_on_c, 0, 72, 107
1, 1344, Note_off_c, 0, 60, 0
1, 1344, Note_off_c, 0, 64, 0
1, 1344, Note_off_c, 0, 67, 0
1, 1344, Note_off_c, 0, 72, 0
1, 1392, Note_on_c, 0, 60, 107
1, 1392, Note_on_c, 0, 64, 107
1, 1392, Note_on_c, 0, 67, 107
1, 1392, Note_on_c, 0, 72, 107
1, 1416, Note_off_c, 0, 60, 0
1, 1416, Note_off_c, 0, 64, 0
1, 1416, Note_off_c, 0, 67, 0
1, 1416, Note_off_c, 0, 72, 0
1, 1464, Note_on_c, 0, 60, 107
1, 1464, Note_on_c, 0, 64, 107
1, 1464, Note_on_c, 0, 69, 107
1, 1464, Note_on_c, 0, 72, 107
1, 1488, Note_off_c, 0, 60, 0
1, 1488, Note_off_c, 0, 64, 0
1, 1488, Note_off_c, 0, 69, 0
1, 1488, Note_off_c, 0, 72, 0
1, 1535, Pitch_bend_c, 0, 8192
1, 1535, Pitch_bend_c, 0, 8192
1, 1535, Control_c, 0, 7, 100
1, 1535, Control_c, 0, 7, 100
1, 1535, Control_c, 0, 10, 64
1, 1535, Control_c, 0, 10, 64
1, 1536, Pitch_bend_c, 0, 8192
1, 1536, Control_c, 0, 6, 12
1, 1536, Control_c, 0, 6, 12
1, 1536, Control_c, 0, 7, 100
1, 1536, Control_c, 0, 10, 64
1, 1536, Control_c, 0, 100, 0
1, 1536, Control_c, 0, 100, 0
1, 1536, Control_c, 0, 101, 0
1, 1536, Control_c, 0, 101, 0
1, 0, Pitch_bend_c, 0, 8192
1, 0, Control_c, 0, 6, 12
1, 0, Control_c, 0, 7, 100
1, 0, Control_c, 0, 10, 64
1, 0, Control_c, 0, 100, 0
1, 0, Control_c, 0, 101, 0
1, 0, Note_on_c, 0, 36, 100
1, 0, Note_on_c, 0, 48, 100
1, 0, Note_on_c, 0, 52, 100
1, 0, Note_on_c, 0, 55, 100
1, 0, Note_on_c, 0, 67, 100
1, 72, Note_on_c, 0, 64, 100
1, 72, Note_off_c, 0, 67, 64
1, 96, Note_off_c, 0, 36, 64
1, 96, Note_off_c, 0, 48, 64
1, 96, Note_off_c, 0, 52, 64
1, 96, Note_off_c, 0, 55, 64
1, 144, Note_on_c, 0, 48, 100
1, 144, Note_on_c, 0, 52, 100
1, 144, Note_on_c, 0, 55, 100
1, 144, Note_off_c, 0, 64, 64
1, 144, Note_on_c, 0, 69, 100
1, 168, Note_off_c, 0, 48, 64
1, 168, Note_off_c, 0, 52, 64
1, 168, Note_off_c, 0, 55, 64
1, 192, Note_on_c, 0, 40, 100
1, 192, Note_on_c, 0, 45, 100
1, 192, Note_on_c, 0, 48, 100
1, 192, Note_on_c, 0, 52, 100
1, 192, Note_on_c, 0, 67, 100
1, 192, Note_off_c, 0, 69, 64
1, 264, Note_on_c, 0, 64, 100
1, 264, Note_off_c, 0, 67, 64
1, 288, Note_off_c, 0, 40, 64
1, 288, Note_off_c, 0, 45, 64
1, 288, Note_off_c, 0, 48, 64
1, 288, Note_off_c, 0, 52, 64
1, 336, Note_on_c, 0, 45, 100
1, 336, Note_on_c, 0, 48, 100
1, 336, Note_on_c, 0, 52, 100
1, 336, Note_off_c, 0, 64, 64
1, 336, Note_on_c, 0, 64, 100
1, 360, Note_off_c, 0, 45, 64
1, 360, Note_off_c, 0, 48, 64
1, 360, Note_off_c, 0, 52, 64
1, 384, Note_on_c, 0, 36, 100
1, 384, Note_on_c, 0, 41, 100
1, 384, Note_on_c, 0, 45, 100
1, 384, Note_on_c, 0, 48, 100
1, 384, Note_on_c, 0, 60, 100
1, 384, Note_off_c, 0, 64, 64
1, 456, Note_off_c, 0, 60, 64
1, 456, Note_on_c, 0, 64, 100
1, 480, Note_off_c, 0, 36, 64
1, 480, Note_off_c, 0, 41, 64
1, 480, Note_off_c, 0, 45, 64
1, 480, Note_off_c, 0, 48, 64
1, 528, Note_on_c, 0, 41, 100
1, 528, Note_on_c, 0, 45, 100
1, 528, Note_on_c, 0, 48, 100
1, 528, Note_on_c, 0, 60, 100
1, 528, Note_off_c, 0, 64, 64
1, 552, Note_off_c, 0, 41, 64
1, 552, Note_off_c, 0, 45, 64
1, 552, Note_off_c, 0, 48, 64
1, 576, Note_on_c, 0, 38, 100
1, 576, Note_on_c, 0, 43, 100
1, 576, Note_on_c, 0, 47, 100
1, 576, Note_on_c, 0, 50, 100
1, 576, Note_off_c, 0, 60, 64
1, 576, Note_on_c, 0, 62, 100
1, 648, Note_on_c, 0, 59, 100
1, 648, Note_off_c, 0, 62, 64
1, 672, Note_off_c, 0, 38, 64
1, 672, Note_off_c, 0, 43, 64
1, 672, Note_off_c, 0, 47, 64
1, 672, Note_off_c, 0, 50, 64
1, 720, Note_on_c, 0, 43, 100
1, 720, Note_on_c, 0, 47, 100
1, 720, Note_on_c, 0, 50, 100
1, 720, Note_off_c, 0, 59, 64
1, 720, Note_on_c, 0, 62, 100
1, 744, Note_off_c, 0, 43, 64
1, 744, Note_off_c, 0, 47, 64
1, 744, Note_off_c, 0, 50, 64
1, 768, Note_on_c, 0, 43, 100
1, 768, Note_on_c, 0, 48, 100
1, 768, Note_on_c, 0, 52, 100
1, 768, Note_on_c, 0, 55, 100
1, 768, Note_off_c, 0, 62, 64
1, 768, Note_on_c, 0, 67, 100
1, 840, Note_on_c, 0, 64, 100
1, 840, Note_off_c, 0, 67, 64
1, 864, Note_off_c, 0, 43, 64
1, 864, Note_off_c, 0, 48, 64
1, 864, Note_off_c, 0, 52, 64
1, 864, Note_off_c, 0, 55, 64
1, 912, Note_on_c, 0, 48, 100
1, 912, Note_on_c, 0, 52, 100
1, 912, Note_on_c, 0, 55, 100
1, 912, Note_off_c, 0, 64, 64
1, 912, Note_on_c, 0, 69, 100
1, 936, Note_off_c, 0, 48, 64
1, 936, Note_off_c, 0, 52, 64
1, 936, Note_off_c, 0, 55, 64
1, 960, Note_on_c, 0, 40, 100
1, 960, Note_on_c, 0, 45, 100
1, 960, Note_on_c, 0, 48, 100
1, 960, Note_on_c, 0, 52, 100
1, 960, Note_on_c, 0, 67, 100
1, 960, Note_off_c, 0, 69, 64
1, 1032, Note_on_c, 0, 64, 100
1, 1032, Note_off_c, 0, 67, 64
1, 1056, Note_off_c, 0, 40, 64
1, 1056, Note_off_c, 0, 45, 64
1, 1056, Note_off_c, 0, 48, 64
1, 1056, Note_off_c, 0, 52, 64
1, 1104, Note_on_c, 0, 45, 100
1, 1104, Note_on_c, 0, 48, 100
1, 1104, Note_on_c, 0, 52, 100
1, 1104, Note_off_c, 0, 64, 64
1, 1104, Note_on_c, 0, 64, 100
1, 1128, Note_off_c, 0, 45, 64
1, 1128, Note_off_c, 0, 48, 64
1, 1128, Note_off_c, 0, 52, 64
1, 1152, Note_on_c, 0, 36, 100
1, 1152, Note_on_c, 0, 41, 100
1, 1152, Note_on_c, 0, 45, 100
1, 1152, Note_on_c, 0, 48, 100
1, 1152, Note_on_c, 0, 60, 100
1, 1152, Note_off_c, 0, 64, 64
1, 1224, Note_off_c, 0, 60, 64
1, 1224, Note_on_c, 0, 64, 100
1, 1248, Note_off_c, 0, 36, 64
1, 1248, Note_off_c, 0, 41, 64
1, 1248, Note_off_c, 0, 45, 64
1, 1248, Note_off_c, 0, 48, 64
1, 1296, Note_on_c, 0, 41, 100
1, 1296, Note_on_c, 0, 45, 100
1, 1296, Note_on_c, 0, 48, 100
1, 1296, Note_on_c, 0, 60, 100
1, 1296, Note_off_c, 0, 64, 64
1, 1320, Note_off_c, 0, 41, 64
1, 1320, Note_off_c, 0, 45, 64
1, 1320, Note_off_c, 0, 48, 64
1, 1344, Note_on_c, 0, 35, 100
1, 1344, Note_on_c, 0, 43, 100
1, 1344, Note_on_c, 0, 47, 100
1, 1344, Note_on_c, 0, 50, 100
1, 1344, Note_off_c, 0, 60, 64
1, 1344, Note_on_c, 0, 62, 100
1, 1416, Note_off_c, 0, 62, 64
1, 1416, Note_on_c, 0, 67, 100
1, 1440, Note_off_c, 0, 35, 64
1, 1440, Note_off_c, 0, 43, 64
1, 1440, Note_off_c, 0, 47, 64
1, 1440, Note_off_c, 0, 50, 64
1, 1488, Note_on_c, 0, 43, 100
1, 1488, Note_on_c, 0, 47, 100
1, 1488, Note_on_c, 0, 50, 100
1, 1512, Note_off_c, 0, 43, 64
1, 1512, Note_off_c, 0, 47, 64
1, 1512, Note_off_c, 0, 50, 64
1, 1535, Note_off_c, 0, 67, 64
1, 1536, Pitch_bend_c, 0, 8192
1, 1536, Pitch_bend_c, 0, 8192
1, 1536, Control_c, 0, 6, 12
1, 1536, Control_c, 0, 6, 12
1, 1536, Control_c, 0, 7, 100
1, 1536, Control_c, 0, 7, 100
1, 1536, Control_c, 0, 10, 64
1, 1536, Control_c, 0, 10, 64
1, 1536, Control_c, 0, 100, 0
1, 1536, Control_c, 0, 100, 0
1, 1536, Control_c, 0, 101, 0
1, 1536, Control_c, 0, 101, 0
1, 0, Pitch_bend_c, 0, 8192
1, 0, Control_c, 0, 6, 12
1, 0, Control_c, 0, 7, 100
1, 0, Control_c, 0, 10, 64
1, 0, Control_c, 0, 100, 0
1, 0, Control_c, 0, 101, 0
1, 0, Note_on_c, 0, 57, 100
1, 48, Note_on_c, 0, 45, 100
1, 48, Note_off_c, 0, 57, 64
1, 96, Note_off_c, 0, 45, 64
1, 96, Note_on_c, 0, 60, 100
1, 144, Note_off_c, 0, 60, 64
1, 144, Note_on_c, 0, 67, 100
1, 192, Note_on_c, 0, 48, 100
1, 192, Note_off_c, 0, 67, 64
1, 240, Note_on_c, 0, 43, 100
1, 240, Note_off_c, 0, 48, 64
1, 288, Note_off_c, 0, 43, 64
1, 288, Note_on_c, 0, 64, 100
1, 336, Note_on_c, 0, 52, 100
1, 336, Note_off_c, 0, 64, 64
1, 384, Note_off_c, 0, 52, 64
1, 384, Note_on_c, 0, 55, 100
1, 432, Note_on_c, 0, 43, 100
1, 432, Note_off_c, 0, 55, 64
1, 480, Note_off_c, 0, 43, 64
1, 480, Note_on_c, 0, 64, 100
1, 528, Note_on_c, 0, 62, 100
1, 528, Note_off_c, 0, 64, 64
1, 576, Note_on_c, 0, 50, 100
1, 576, Note_off_c, 0, 62, 64
1, 624, Note_on_c, 0, 43, 100
1, 624, Note_off_c, 0, 50, 64
1, 672, Note_off_c, 0, 43, 64
1, 672, Note_on_c, 0, 60, 100
1, 720, Note_on_c, 0, 47, 100
1, 720, Note_off_c, 0, 60, 64
1, 768, Note_off_c, 0, 47, 64
1, 768, Note_on_c, 0, 57, 100
1, 816, Note_on_c, 0, 45, 100
1, 816, Note_off_c, 0, 57, 64
1, 864, Note_off_c, 0, 45, 64
1, 864, Note_on_c, 0, 60, 100
1, 912, Note_off_c, 0, 60, 64
1, 912, Note_on_c, 0, 67, 100
1, 960, Note_on_c, 0, 48, 100
1, 960, Note_off_c, 0, 67, 64
1, 1008, Note_on_c, 0, 43, 100
1, 1008, Note_off_c, 0, 48, 64
1, 1056, Note_off_c, 0, 43, 64
1, 1056, Note_on_c, 0, 64, 100
1, 1104, Note_on_c, 0, 52, 100
1, 1104, Note_off_c, 0, 64, 64
1, 1152, Note_off_c, 0, 52, 64
1, 1152, Note_on_c, 0, 55, 100
1, 1200, Note_on_c, 0, 43, 100
1, 1200, Note_off_c, 0, 55, 64
1, 1248, Note_off_c, 0, 43, 64
1, 1248, Note_on_c, 0, 64, 100
1, 1296, Note_on_c, 0, 62, 100
1, 1296, Note_off_c, 0, 64, 64
1, 1344, Note_on_c, 0, 50, 100
1, 1344, Note_off_c, 0, 62, 64
1, 1392, Note_on_c, 0, 43, 100
1, 1392, Note_off_c, 0, 50, 64
1, 1440, Note_off_c, 0, 43, 64
1, 1440, Note_on_c, 0, 60, 100
1, 1488, Note_on_c, 0, 59, 100
1, 1488, Note_off_c, 0, 60, 64
1, 1535, Note_off_c, 0, 59, 64
1, 1536, Pitch_bend_c, 0, 8192
1, 1536, Pitch_bend_c, 0, 8192
1, 1536, Control_c, 0, 6, 12
1, 1536, Control_c, 0, 6, 12
1, 1536, Control_c, 0, 7, 100
1, 1536, Control_c, 0, 7, 100
1, 1536, Control_c, 0, 10, 64
1, 1536, Control_c, 0, 10, 64
1, 1536, Control_c, 0, 100, 0
1, 1536, Control_c, 0, 100, 0
1, 1536, Control_c, 0, 101, 0
1, 1536, Control_c, 0, 101, 0
1, 0, Control_c, 0, 1, 100
1, 0, Note_on_c, 0, 72, 103
1, 192, Note_on_c, 0, 67, 102
1, 192, Note_off_c, 0, 72, 103
1, 384, Note_on_c, 0, 60, 105
1, 384, Note_off_c, 0, 67, 102
1, 576, Note_off_c, 0, 60, 105
1, 576, Note_on_c, 0, 67, 99
1, 768, Note_on_c, 0, 62, 109
1, 768, Note_off_c, 0, 67, 99
1, 960, Note_on_c, 0, 55, 101
1, 960, Note_off_c, 0, 62, 109
1, 1056, Note_off_c, 0, 55, 101
1, 1056, Note_on_c, 0, 57, 96
1, 1104, Note_off_c, 0, 57, 96
1, 1104, Note_on_c, 0, 62, 94
1, 1147, Note_off_c, 0, 62, 94
1, 1152, Note_on_c, 0, 62, 111
1, 1344, Note_off_c, 0, 62, 111
1, 1344, Note_on_c, 0, 67, 102
1, 1536, Note_off_c, 0, 67, 102
1, 0, Note_on_c, 0, 45, 74
1, 0, Note_on_c, 0, 57, 74
1, 0, Note_on_c, 0, 69, 74
1, 0, Note_on_c, 0, 72, 70
1, 0, Note_on_c, 0, 76, 62
1, 192, Note_off_c, 0, 76, 64
1, 192, Note_on_c, 0, 76, 122
1, 384, Note_off_c, 0, 45, 64
1, 384, Note_on_c, 0, 53, 83
1, 384, Note_off_c, 0, 57, 64
1, 384, Note_on_c, 0, 65, 83
1, 384, Note_off_c, 0, 69, 64
1, 384, Note_on_c, 0, 69, 74
1, 384, Note_off_c, 0, 72, 64
1, 384, Note_on_c, 0, 72, 68
1, 384, Note_off_c, 0, 76, 64
1, 576, Note_on_c, 0, 76, 122
1, 768, Note_on_c, 0, 48, 69
1, 768, Note_off_c, 0, 53, 64
1, 768, Note_on_c, 0, 60, 69
1, 768, Note_off_c, 0, 65, 64
1, 768, Note_on_c, 0, 67, 81
1, 768, Note_off_c, 0, 69, 64
1, 768, Note_off_c, 0, 72, 64
1, 768, Note_on_c, 0, 72, 69
1, 768, Note_off_c, 0, 76, 64
1, 768, Note_on_c, 0, 76, 76
1, 960, Note_off_c, 0, 76, 64
1, 960, Note_on_c, 0, 76, 122
1, 1152, Note_on_c, 0, 43, 76
1, 1152, Note_off_c, 0, 48, 64
1, 1152, Note_on_c, 0, 55, 76
1, 1152, Note_off_c, 0, 60, 64
1, 1152, Note_off_c, 0, 67, 64
1, 1152, Note_on_c, 0, 67, 76
1, 1152, Note_on_c, 0, 71, 78
1, 1152, Note_off_c, 0, 72, 64
1, 1152, Note_on_c, 0, 74, 62
1, 1152, Note_off_c, 0, 76, 64
1, 1344, Note_on_c, 0, 76, 122
1, 1536, Note_off_c, 0, 43, 64
1, 1536, Note_off_c, 0, 55, 64
1, 1536, Note_off_c, 0, 67, 64
1, 1536, Note_off_c, 0, 71, 64
1, 1536, Note_off_c, 0, 74, 64
1, 1536, Note_off_c, 0, 76, 64
1, 0, Pitch_bend_c, 0, 8192
1, 0, Control_c, 0, 6, 12
1, 0, Control_c, 0, 7, 100
1, 0, Control_c, 0, 10, 64
1, 0, Control_c, 0, 100, 0
1, 0, Control_c, 0, 101, 0
1, 0, Note_on_c, 0, 52, 127
1, 48, Note_off_c, 0, 52, 64
1, 96, Note_on_c, 0, 52, 127
1, 144, Note_off_c, 0, 52, 64
1, 168, Note_on_c, 0, 52, 127
1, 216, Note_off_c, 0, 52, 64
1, 240, Note_on_c, 0, 52, 127
1, 288, Note_off_c, 0, 52, 64
1, 312, Note_on_c, 0, 52, 127
1, 360, Note_off_c, 0, 52, 64
1, 384, Note_on_c, 0, 60, 127
1, 432, Note_off_c, 0, 60, 64
1, 480, Note_on_c, 0, 60, 127
1, 528, Note_off_c, 0, 60, 64
1, 552, Note_on_c, 0, 57, 127
1, 600, Note_off_c, 0, 57, 64
1, 624, Note_on_c, 0, 57, 127
1, 672, Note_off_c, 0, 57, 64
1, 696, Note_on_c, 0, 57, 127
1, 744, Note_off_c, 0, 57, 64
1, 768, Note_on_c, 0, 52, 127
1, 816, Note_off_c, 0, 52, 64
1, 864, Note_on_c, 0, 52, 127
1, 912, Note_off_c, 0, 52, 64
1, 936, Note_on_c, 0, 52, 127
1, 984, Note_off_c, 0, 52, 64
1, 1008, Note_on_c, 0, 52, 127
1, 1056, Note_off_c, 0, 52, 64
1, 1080, Note_on_c, 0, 52, 127
1, 1128, Note_off_c, 0, 52, 64
1, 1152, Note_on_c, 0, 60, 127
1, 1200, Note_off_c, 0, 60, 64
1, 1248, Note_on_c, 0, 60, 127
1, 1296, Note_off_c, 0, 60, 64
1, 1296, Note_on_c, 0, 62, 127
1, 1320, Note_on_c, 0, 57, 127
1, 1320, Note_off_c, 0, 62, 64
1, 1368, Note_off_c, 0, 57, 64
1, 1392, Note_on_c, 0, 57, 127
1, 1440, Note_off_c, 0, 57, 64
1, 1464, Note_on_c, 0, 55, 127
1, 1512, Note_off_c, 0, 55, 64
1, 1535, Pitch_bend_c, 0, 8192
1, 1535, Pitch_bend_c, 0, 8192
1, 1535, Control_c, 0, 7, 100
1, 1535, Control_c, 0, 7, 100
1, 1535, Control_c, 0, 10, 64
1, 1535, Control_c, 0, 10, 64
1, 1536, Pitch_bend_c, 0, 8192
1, 1536, Control_c, 0, 6, 12
1, 1536, Control_c, 0, 6, 12
1, 1536, Control_c, 0, 7, 100
1, 1536, Control_c, 0, 10, 64
1, 1536, Control_c, 0, 100, 0
1, 1536, Control_c, 0, 100, 0
1, 1536, Control_c, 0, 101, 0
1, 1536, Control_c, 0, 101, 0
1, 0, Control_c, 0, 1, 70
1, 0, Note_on_c, 0, 69, 72
1, 31, Note_off_c, 0, 69, 72
1, 31, Note_on_c, 0, 72, 65
1, 64, Note_off_c, 0, 72, 65
1, 64, Note_on_c, 0, 76, 65
1, 96, Note_on_c, 0, 69, 72
1, 96, Note_off_c, 0, 76, 65
1, 127, Note_off_c, 0, 69, 72
1, 127, Note_on_c, 0, 72, 66
1, 160, Note_off_c, 0, 72, 66
1, 160, Note_on_c, 0, 76, 67
1, 192, Note_on_c, 0, 65, 74
1, 192, Note_off_c, 0, 76, 67
1, 223, Note_off_c, 0, 65, 74
1, 223, Note_on_c, 0, 69, 66
1, 255, Note_off_c, 0, 69, 66
1, 256, Note_on_c, 0, 74, 66
1, 288, Note_on_c, 0, 65, 70
1, 288, Note_off_c, 0, 74, 66
1, 319, Note_off_c, 0, 65, 70
1, 319, Note_on_c, 0, 69, 65
1, 352, Note_off_c, 0, 69, 65
1, 352, Note_on_c, 0, 74, 68
1, 384, Note_on_c, 0, 69, 75
1, 384, Note_off_c, 0, 74, 68
1, 415, Note_off_c, 0, 69, 75
1, 415, Note_on_c, 0, 72, 65
1, 447, Note_on_c, 0, 77, 69
1, 448, Note_off_c, 0, 72, 65
1, 479, Note_off_c, 0, 77, 69
1, 480, Note_on_c, 0, 69, 72
1, 511, Note_off_c, 0, 69, 72
1, 511, Note_on_c, 0, 72, 65
1, 544, Note_off_c, 0, 72, 65
1, 544, Note_on_c, 0, 77, 65
1, 576, Note_on_c, 0, 67, 75
1, 576, Note_off_c, 0, 77, 65
1, 607, Note_off_c, 0, 67, 75
1, 607, Note_on_c, 0, 71, 65
1, 639, Note_on_c, 0, 76, 65
1, 640, Note_off_c, 0, 71, 65
1, 671, Note_off_c, 0, 76, 65
1, 672, Note_on_c, 0, 67, 70
1, 703, Note_off_c, 0, 67, 70
1, 703, Note_on_c, 0, 71, 67
1, 736, Note_off_c, 0, 71, 67
1, 736, Note_on_c, 0, 76, 68
1, 768, Note_on_c, 0, 69, 72
1, 768, Note_off_c, 0, 76, 68
1, 799, Note_off_c, 0, 69, 72
1, 799, Note_on_c, 0, 72, 65
1, 831, Note_off_c, 0, 72, 65
1, 832, Note_on_c, 0, 76, 69
1, 864, Note_on_c, 0, 69, 74
1, 864, Note_off_c, 0, 76, 69
1, 895, Note_off_c, 0, 69, 74
1, 895, Note_on_c, 0, 72, 65
1, 927, Note_off_c, 0, 72, 65
1, 928, Note_on_c, 0, 76, 69
1, 960, Note_on_c, 0, 65, 73
1, 960, Note_off_c, 0, 76, 69
1, 991, Note_off_c, 0, 65, 73
1, 991, Note_on_c, 0, 69, 67
1, 1023, Note_off_c, 0, 69, 67
1, 1024, Note_on_c, 0, 74, 65
1, 1056, Note_on_c, 0, 65, 72
1, 1056, Note_off_c, 0, 74, 65
1, 1087, Note_off_c, 0, 65, 72
1, 1087, Note_on_c, 0, 69, 68
1, 1119, Note_off_c, 0, 69, 68
1, 1120, Note_on_c, 0, 74, 65
1, 1152, Note_on_c, 0, 69, 72
1, 1152, Note_off_c, 0, 74, 65
1, 1183, Note_off_c, 0, 69, 72
1, 1183, Note_on_c, 0, 72, 66
1, 1215, Note_off_c, 0, 72, 66
1, 1216, Note_on_c, 0, 77, 65
1, 1248, Note_on_c, 0, 69, 72
1, 1248, Note_off_c, 0, 77, 65
1, 1279, Note_off_c, 0, 69, 72
1, 1279, Note_on_c, 0, 72, 68
1, 1311, Note_off_c, 0, 72, 68
1, 1312, Note_on_c, 0, 77, 67
1, 1344, Note_on_c, 0, 67, 74
1, 1344, Note_off_c, 0, 77, 67
1, 1375, Note_off_c, 0, 67, 74
1, 1375, Note_on_c, 0, 71, 68
1, 1407, Note_off_c, 0, 71, 68
1, 1408, Note_on_c, 0, 76, 65
1, 1440, Note_on_c, 0, 67, 72
1, 1440, Note_off_c, 0, 76, 65
1, 1471, Note_off_c, 0, 67, 72
1, 1471, Note_on_c, 0, 71, 65
1, 1503, Note_off_c, 0, 71, 65
1, 1504, Note_on_c, 0, 76, 68
1, 1533, Note_off_c, 0, 76, 68
1, 0, Pitch_bend_c, 0, 8192
1, 0, Control_c, 0, 6, 12
1, 0, Control_c, 0, 7, 100
1, 0, Control_c, 0, 10, 64
1, 0, Control_c, 0, 100, 0
1, 0, Control_c, 0, 101, 0
1, 0, Note_on_c, 0, 57, 100
1, 0, Note_on_c, 0, 60, 100
1, 0, Note_on_c, 0, 64, 100
1, 0, Note_on_c, 0, 67, 100
1, 96, Note_off_c, 0, 57, 64
1, 96, Note_off_c, 0, 60, 64
1, 96, Note_off_c, 0, 64, 64
1, 96, Note_off_c, 0, 67, 64
1, 144, Note_on_c, 0, 57, 100
1, 144, Note_on_c, 0, 60, 100
1, 144, Note_on_c, 0, 64, 100
1, 144, Note_on_c, 0, 67, 100
1, 240, Note_off_c, 0, 57, 64
1, 240, Note_on_c, 0, 57, 100
1, 240, Note_off_c, 0, 60, 64
1, 240, Note_off_c, 0, 64, 64
1, 240, Note_off_c, 0, 67, 64
1, 288, Note_off_c, 0, 57, 64
1, 288, Note_on_c, 0, 60, 100
1, 336, Note_off_c, 0, 60, 64
1, 336, Note_on_c, 0, 67, 100
1, 384, Note_on_c, 0, 57, 100
1, 384, Note_on_c, 0, 60, 100
1, 384, Note_on_c, 0, 64, 100
1, 384, Note_off_c, 0, 67, 64
1, 480, Note_off_c, 0, 57, 64
1, 480, Note_off_c, 0, 60, 64
1, 480, Note_off_c, 0, 64, 64
1, 528, Note_on_c, 0, 57, 100
1, 528, Note_on_c, 0, 60, 100
1, 528, Note_on_c, 0, 64, 100
1, 624, Note_off_c, 0, 57, 64
1, 624, Note_off_c, 0, 60, 64
1, 624, Note_off_c, 0, 64, 64
1, 624, Note_on_c, 0, 64, 100
1, 672, Note_on_c, 0, 62, 100
1, 672, Note_off_c, 0, 64, 64
1, 720, Note_on_c, 0, 60, 100
1, 720, Note_off_c, 0, 62, 64
1, 768, Note_on_c, 0, 57, 100
1, 768, Note_off_c, 0, 60, 64
1, 768, Note_on_c, 0, 60, 100
1, 768, Note_on_c, 0, 64, 100
1, 768, Note_on_c, 0, 67, 100
1, 864, Note_off_c, 0, 57, 64
1, 864, Note_off_c, 0, 60, 64
1, 864, Note_off_c, 0, 64, 64
1, 864, Note_off_c, 0, 67, 64
1, 912, Note_on_c, 0, 57, 100
1, 912, Note_on_c, 0, 60, 100
1, 912, Note_on_c, 0, 64, 100
1, 912, Note_on_c, 0, 67, 100
1, 1008, Note_off_c, 0, 57, 64
1, 1008, Note_off_c, 0, 60, 64
1, 1008, Note_off_c, 0, 64, 64
1, 1008, Note_off_c, 0, 67, 64
1, 1008, Note_on_c, 0, 69, 100
1, 1056, Note_off_c, 0, 69, 64
1, 1080, Note_on_c, 0, 62, 100
1, 1104, Note_on_c, 0, 67, 100
1, 1128, Note_off_c, 0, 62, 64
1, 1152, Note_on_c, 0, 55, 100
1, 1152, Note_on_c, 0, 60, 100
1, 1152, Note_on_c, 0, 64, 100
1, 1152, Note_off_c, 0, 67, 64
1, 1248, Note_off_c, 0, 55, 64
1, 1248, Note_off_c, 0, 60, 64
1, 1248, Note_off_c, 0, 64, 64
1, 1296, Note_on_c, 0, 55, 100
1, 1296, Note_on_c, 0, 60, 100
1, 1296, Note_on_c, 0, 64, 100
1, 1392, Note_off_c, 0, 55, 64
1, 1392, Note_off_c, 0, 60, 64
1, 1392, Note_on_c, 0, 60, 100
1, 1392, Note_off_c, 0, 64, 64
1, 1440, Note_on_c, 0, 59, 100
1, 1440, Note_off_c, 0, 60, 64
1, 1488, Note_on_c, 0, 57, 100
1, 1488, Note_off_c, 0, 59, 64
1, 1535, Pitch_bend_c, 0, 8192
1, 1535, Pitch_bend_c, 0, 8192
1, 1535, Control_c, 0, 7, 100
1, 1535, Control_c, 0, 7, 100
1, 1535, Control_c, 0, 10, 64
1, 1535, Control_c, 0, 10, 64
1, 1535, Note_off_c, 0, 57, 64
1, 1536, Pitch_bend_c, 0, 8192
1, 1536, Control_c, 0, 6, 12
1, 1536, Control_c, 0, 6, 12
1, 1536, Control_c, 0, 7, 100
1, 1536, Control_c, 0, 10, 64
1, 1536, Control_c, 0, 100, 0
1, 1536, Control_c, 0, 100, 0
1, 1536, Control_c, 0, 101, 0
1, 1536, Control_c, 0, 101, 0
1, 0, Note_on_c, 0, 57, 63
1, 48, Note_on_c, 0, 64, 58
1, 144, Note_off_c, 0, 64, 58
1, 144, Note_on_c, 0, 69, 74
1, 185, Note_off_c, 0, 69, 74
1, 192, Note_on_c, 0, 64, 50
1, 192, Note_on_c, 0, 74, 66
1, 229, Note_off_c, 0, 74, 66
1, 264, Note_off_c, 0, 64, 50
1, 288, Note_on_c, 0, 76, 73
1, 333, Note_off_c, 0, 57, 63
1, 335, Note_off_c, 0, 76, 73
1, 384, Note_on_c, 0, 57, 60
1, 432, Note_on_c, 0, 64, 57
1, 507, Note_off_c, 0, 64, 57
1, 528, Note_on_c, 0, 69, 74
1, 574, Note_off_c, 0, 69, 74
1, 576, Note_on_c, 0, 64, 49
1, 576, Note_on_c, 0, 74, 72
1, 616, Note_off_c, 0, 74, 72
1, 648, Note_off_c, 0, 57, 60
1, 682, Note_off_c, 0, 64, 49
1, 768, Note_on_c, 0, 59, 59
1, 816, Note_on_c, 0, 67, 58
1, 864, Note_off_c, 0, 67, 58
1, 912, Note_on_c, 0, 76, 73
1, 955, Note_off_c, 0, 76, 73
1, 960, Note_off_c, 0, 59, 59
1, 960, Note_on_c, 0, 59, 59
1, 960, Note_on_c, 0, 69, 76
1, 1004, Note_off_c, 0, 69, 76
1, 1008, Note_off_c, 0, 59, 59
1, 1008, Note_on_c, 0, 67, 58
1, 1056, Note_off_c, 0, 67, 58
1, 1056, Note_on_c, 0, 69, 76
1, 1100, Note_off_c, 0, 69, 76
1, 1104, Note_on_c, 0, 76, 73
1, 1147, Note_off_c, 0, 76, 73
1, 1152, Note_on_c, 0, 59, 52
1, 1152, Note_on_c, 0, 76, 68
1, 1152, Note_on_c, 0, 79, 71
1, 1189, Note_off_c, 0, 76, 68
1, 1192, Note_off_c, 0, 79, 71
1, 1200, Note_off_c, 0, 59, 52
1, 1200, Note_on_c, 0, 71, 57
1, 1289, Note_off_c, 0, 71, 57
1, 1296, Note_on_c, 0, 69, 74
1, 1344, Note_off_c, 0, 69, 74
1, 1344, Note_on_c, 0, 74, 70
1, 1392, Note_on_c, 0, 64, 58
1, 1392, Note_off_c, 0, 74, 70
1, 1488, Note_off_c, 0, 64, 58
1, 1488, Note_on_c, 0, 69, 65
1, 1536, Note_off_c, 0, 69, 65
1, 0, Control_c, 0, 1, 100
1, 0, Note_on_c, 0, 69, 108
1, 96, Note_on_c, 0, 64, 105
1, 96, Note_off_c, 0, 69, 108
1, 192, Note_off_c, 0, 64, 105
1, 192, Note_on_c, 0, 71, 113
1, 288, Note_off_c, 0, 71, 113
1, 288, Note_on_c, 0, 76, 106
1, 384, Note_on_c, 0, 65, 111
1, 384, Note_off_c, 0, 76, 106
1, 480, Note_on_c, 0, 60, 104
1, 480, Note_off_c, 0, 65, 111
1, 528, Note_on_c, 0, 59, 98
1, 528, Note_off_c, 0, 60, 104
1, 552, Note_on_c, 0, 57, 94
1, 552, Note_off_c, 0, 59, 98
1, 576, Note_off_c, 0, 57, 94
1, 576, Note_on_c, 0, 62, 109
1, 672, Note_off_c, 0, 62, 109
1, 672, Note_on_c, 0, 69, 105
1, 765, Note_off_c, 0, 69, 105
1, 768, Note_on_c, 0, 69, 112
1, 864, Note_on_c, 0, 64, 105
1, 864, Note_off_c, 0, 69, 112
1, 960, Note_off_c, 0, 64, 105
1, 960, Note_on_c, 0, 71, 112
1, 1056, Note_off_c, 0, 71, 112
1, 1056, Note_on_c, 0, 76, 103
1, 1152, Note_on_c, 0, 65, 103
1, 1152, Note_off_c, 0, 76, 103
1, 1248, Note_on_c, 0, 60, 105
1, 1248, Note_off_c, 0, 65, 103
1, 1296, Note_on_c, 0, 59, 97
1, 1296, Note_off_c, 0, 60, 105
1, 1320, Note_on_c, 0, 57, 96
1, 1320, Note_off_c, 0, 59, 97
1, 1344, Note_off_c, 0, 57, 96
1, 1344, Note_on_c, 0, 62, 109
1, 1440, Note_off_c, 0, 62, 109
1, 1440, Note_on_c, 0, 69, 105
1, 1533, Note_off_c, 0, 69, 105
1, 6144, Control_c, 0, 1, 100
1, 6144, Control_c, 0, 1, 70
1, 0, Note_on_c, 0, 57, 78
1, 48, Note_off_c, 0, 57, 78
1, 48, Note_on_c, 0, 64, 68
1, 95, Note_on_c, 0, 69, 69
1, 96, Note_off_c, 0, 64, 68
1, 149, Note_off_c, 0, 69, 69
1, 192, Note_on_c, 0, 76, 76
1, 281, Note_off_c, 0, 76, 76
1, 288, Note_on_c, 0, 69, 60
1, 335, Note_off_c, 0, 69, 60
1, 336, Note_on_c, 0, 76, 93
1, 384, Note_on_c, 0, 59, 87
1, 384, Note_off_c, 0, 76, 93
1, 432, Note_on_c, 0, 64, 82
1, 480, Note_off_c, 0, 59, 87
1, 480, Note_on_c, 0, 71, 71
1, 528, Note_off_c, 0, 64, 82
1, 528, Note_off_c, 0, 71, 71
1, 576, Note_on_c, 0, 79, 95
1, 758, Note_off_c, 0, 79, 95
1, 768, Note_on_c, 0, 67, 81
1, 816, Note_off_c, 0, 67, 81
1, 816, Note_on_c, 0, 71, 76
1, 850, Note_off_c, 0, 71, 76
1, 864, Note_on_c, 0, 79, 76
1, 912, Note_on_c, 0, 83, 83
1, 924, Note_off_c, 0, 79, 76
1, 960, Note_off_c, 0, 83, 83
1, 960, Note_on_c, 0, 86, 20
1, 1008, Note_on_c, 0, 71, 71
1, 1008, Note_off_c, 0, 86, 20
1, 1056, Note_off_c, 0, 71, 71
1, 1056, Note_on_c, 0, 79, 51
1, 1104, Note_on_c, 0, 83, 97
1, 1106, Note_off_c, 0, 79, 51
1, 1151, Note_off_c, 0, 83, 97
1, 1152, Note_on_c, 0, 69, 87
1, 1200, Note_off_c, 0, 69, 87
1, 1200, Note_on_c, 0, 76, 76
1, 1248, Note_off_c, 0, 76, 76
1, 1248, Note_on_c, 0, 84, 106
1, 1296, Note_on_c, 0, 79, 74
1, 1296, Note_off_c, 0, 84, 106
1, 1344, Note_off_c, 0, 79, 74
1, 1392, Note_on_c, 0, 76, 64
1, 1423, Note_off_c, 0, 76, 64
1, 0, Pitch_bend_c, 0, 8192
1, 0, Control_c, 0, 6, 12
1, 0, Control_c, 0, 7, 100
1, 0, Control_c, 0, 10, 64
1, 0, Control_c, 0, 100, 0
1, 0, Control_c, 0, 101, 0
1, 0, Note_on_c, 0, 81, 108
1, 24, Note_off_c, 0, 81, 64
1, 48, Note_on_c, 0, 79, 107
1, 72, Note_off_c, 0, 79, 64
1, 96, Note_on_c, 0, 76, 108
1, 120, Note_off_c, 0, 76, 64
1, 144, Note_on_c, 0, 77, 105
1, 168, Note_off_c, 0, 77, 64
1, 192, Note_on_c, 0, 76, 108
1, 216, Note_off_c, 0, 76, 64
1, 240, Note_on_c, 0, 74, 100
1, 264, Note_off_c, 0, 74, 64
1, 288, Note_on_c, 0, 76, 103
1, 312, Note_off_c, 0, 76, 64
1, 336, Note_on_c, 0, 79, 106
1, 360, Note_off_c, 0, 79, 64
1, 384, Note_on_c, 0, 81, 108
1, 432, Note_off_c, 0, 81, 64
1, 456, Note_on_c, 0, 79, 108
1, 504, Note_off_c, 0, 79, 64
1, 528, Note_on_c, 0, 84, 104
1, 576, Note_off_c, 0, 84, 64
1, 600, Note_on_c, 0, 79, 108
1, 648, Note_off_c, 0, 79, 64
1, 672, Note_on_c, 0, 83, 110
1, 696, Note_off_c, 0, 83, 64
1, 720, Note_on_c, 0, 84, 102
1, 744, Note_on_c, 0, 83, 105
1, 744, Note_off_c, 0, 84, 64
1, 768, Note_on_c, 0, 81, 103
1, 768, Note_off_c, 0, 83, 64
1, 792, Note_off_c, 0, 81, 64
1, 816, Note_on_c, 0, 79, 104
1, 840, Note_off_c, 0, 79, 64
1, 864, Note_on_c, 0, 76, 101
1, 888, Note_off_c, 0, 76, 64
1, 912, Note_on_c, 0, 74, 100
1, 936, Note_off_c, 0, 74, 64
1, 960, Note_on_c, 0, 76, 108
1, 984, Note_off_c, 0, 76, 64
1, 1008, Note_on_c, 0, 74, 109
1, 1032, Note_off_c, 0, 74, 64
1, 1056, Note_on_c, 0, 74, 104
1, 1080, Note_off_c, 0, 74, 64
1, 1080, Note_on_c, 0, 76, 106
1, 1104, Note_off_c, 0, 76, 64
1, 1104, Note_on_c, 0, 79, 110
1, 1128, Note_off_c, 0, 79, 64
1, 1128, Note_on_c, 0, 81, 106
1, 1152, Note_off_c, 0, 81, 64
1, 1152, Note_on_c, 0, 83, 102
1, 1200, Note_off_c, 0, 83, 64
1, 1224, Note_on_c, 0, 76, 107
1, 1272, Note_off_c, 0, 76, 64
1, 1296, Note_on_c, 0, 84, 104
1, 1344, Note_off_c, 0, 84, 64
1, 1368, Note_on_c, 0, 76, 109
1, 1416, Note_off_c, 0, 76, 64
1, 1440, Note_on_c, 0, 74, 104
1, 1464, Note_off_c, 0, 74, 64
1, 1488, Note_on_c, 0, 76, 108
1, 1512, Note_off_c, 0, 76, 64
1, 1536, Pitch_bend_c, 0, 8192
1, 1536, Pitch_bend_c, 0, 8192
1, 1536, Control_c, 0, 6, 12
1, 1536, Control_c, 0, 6, 12
1, 1536, Control_c, 0, 7, 100
1, 1536, Control_c, 0, 7, 100
1, 1536, Control_c, 0, 10, 64
1, 1536, Control_c, 0, 10, 64
1, 1536, Control_c, 0, 100, 0
1, 1536, Control_c, 0, 100, 0
1, 1536, Control_c, 0, 101, 0
1, 1536, Control_c, 0, 101, 0
1, 1537, Pitch_bend_c, 0, 8192
1, 1537, Control_c, 0, 6, 12
1, 1537, Control_c, 0, 7, 100
1, 1537, Control_c, 0, 10, 64
1, 1537, Control_c, 0, 100, 0
1, 1537, Control_c, 0, 101, 0
1, 0, Control_c, 0, 1, 100
1, 0, Note_on_c, 0, 45, 76
1, 0, Note_on_c, 0, 72, 109
1, 192, Note_on_c, 0, 64, 100
1, 192, Note_off_c, 0, 72, 109
1, 288, Note_off_c, 0, 64, 100
1, 288, Note_on_c, 0, 69, 99
1, 336, Note_on_c, 0, 64, 97
1, 336, Note_off_c, 0, 69, 99
1, 384, Note_on_c, 0, 41, 72
1, 384, Note_off_c, 0, 45, 76
1, 384, Note_off_c, 0, 64, 97
1, 384, Note_on_c, 0, 65, 107
1, 576, Note_off_c, 0, 65, 107
1, 576, Note_on_c, 0, 72, 104
1, 768, Note_off_c, 0, 41, 72
1, 768, Note_on_c, 0, 50, 79
1, 768, Note_off_c, 0, 72, 104
1, 768, Note_on_c, 0, 77, 106
1, 864, Note_on_c, 0, 74, 103
1, 864, Note_off_c, 0, 77, 106
1, 912, Note_off_c, 0, 74, 103
1, 912, Note_on_c, 0, 77, 93
1, 960, Note_on_c, 0, 74, 106
1, 960, Note_off_c, 0, 77, 93
1, 1152, Note_on_c, 0, 45, 79
1, 1152, Note_off_c, 0, 50, 79
1, 1152, Note_off_c, 0, 74, 106
1, 1152, Note_on_c, 0, 81, 107
1, 1339, Note_off_c, 0, 81, 107
1, 1344, Note_on_c, 0, 81, 101
1, 1531, Note_off_c, 0, 45, 79
1, 1536, Note_on_c, 0, 45, 74
1, 1536, Note_on_c, 0, 72, 106
1, 1536, Note_off_c, 0, 81, 101
1, 1728, Note_on_c, 0, 64, 104
1, 1728, Note_off_c, 0, 72, 106
1, 1824, Note_off_c, 0, 64, 104
1, 1824, Note_on_c, 0, 69, 93
1, 1872, Note_on_c, 0, 64, 93
1, 1872, Note_off_c, 0, 69, 93
1, 1920, Note_on_c, 0, 41, 76
1, 1920, Note_off_c, 0, 45, 74
1, 1920, Note_off_c, 0, 64, 93
1, 1920, Note_on_c, 0, 65, 112
1, 2112, Note_off_c, 0, 65, 112
1, 2112, Note_on_c, 0, 72, 106
1, 2304, Note_off_c, 0, 41, 76
1, 2304, Note_on_c, 0, 50, 74
1, 2304, Note_off_c, 0, 72, 106
1, 2304, Note_on_c, 0, 77, 112
1, 2400, Note_on_c, 0, 74, 104
1, 2400, Note_off_c, 0, 77, 112
1, 2448, Note_off_c, 0, 74, 104
1, 2448, Note_on_c, 0, 77, 95
1, 2496, Note_on_c, 0, 74, 102
1, 2496, Note_off_c, 0, 77, 95
1, 2688, Note_on_c, 0, 45, 72
1, 2688, Note_off_c, 0, 50, 74
1, 2688, Note_off_c, 0, 74, 102
1, 2688, Note_on_c, 0, 81, 112
1, 2875, Note_off_c, 0, 81, 112
1, 2880, Note_on_c, 0, 81, 103
1, 3067, Note_off_c, 0, 45, 72
1, 3067, Note_off_c, 0, 81, 103
1, 3072, Control_c, 0, 1, 100
1, 3072, Control_c, 0, 1, 70
1, 0, Control_c, 0, 1, 70
1, 0, Note_on_c, 0, 45, 45
1, 0, Note_on_c, 0, 69, 78
1, 24, Note_off_c, 0, 69, 78
1, 96, Note_on_c, 0, 69, 69
1, 120, Note_off_c, 0, 69, 69
1, 192, Note_on_c, 0, 69, 69
1, 216, Note_off_c, 0, 69, 69
1, 288, Note_on_c, 0, 69, 66
1, 312, Note_off_c, 0, 69, 66
1, 312, Note_on_c, 0, 72, 65
1, 336, Note_off_c, 0, 72, 65
1, 336, Note_on_c, 0, 76, 67
1, 360, Note_on_c, 0, 72, 67
1, 360, Note_off_c, 0, 76, 67
1, 384, Note_off_c, 0, 45, 45
1, 384, Note_on_c, 0, 47, 42
1, 384, Note_on_c, 0, 69, 75
1, 384, Note_off_c, 0, 72, 67
1, 408, Note_off_c, 0, 69, 75
1, 480, Note_on_c, 0, 69, 72
1, 504, Note_off_c, 0, 69, 72
1, 576, Note_on_c, 0, 69, 73
1, 600, Note_off_c, 0, 69, 73
1, 672, Note_on_c, 0, 69, 65
1, 696, Note_off_c, 0, 69, 65
1, 696, Note_on_c, 0, 72, 65
1, 720, Note_off_c, 0, 72, 65
1, 720, Note_on_c, 0, 77, 69
1, 744, Note_on_c, 0, 72, 67
1, 744, Note_off_c, 0, 77, 69
1, 763, Note_off_c, 0, 47, 42
1, 768, Note_on_c, 0, 48, 45
1, 768, Note_on_c, 0, 67, 75
1, 768, Note_off_c, 0, 72, 67
1, 792, Note_off_c, 0, 67, 75
1, 864, Note_on_c, 0, 67, 70
1, 888, Note_off_c, 0, 67, 70
1, 960, Note_on_c, 0, 67, 70
1, 984, Note_off_c, 0, 67, 70
1, 1056, Note_on_c, 0, 67, 66
1, 1080, Note_off_c, 0, 67, 66
1, 1080, Note_on_c, 0, 71, 67
1, 1104, Note_off_c, 0, 71, 67
1, 1104, Note_on_c, 0, 76, 65
1, 1128, Note_on_c, 0, 71, 67
1, 1128, Note_off_c, 0, 76, 65
1, 1147, Note_off_c, 0, 48, 45
1, 1152, Note_on_c, 0, 47, 44
1, 1152, Note_on_c, 0, 69, 72
1, 1152, Note_off_c, 0, 71, 67
1, 1176, Note_off_c, 0, 69, 72
1, 1248, Note_on_c, 0, 69, 72
1, 1272, Note_off_c, 0, 69, 72
1, 1344, Note_on_c, 0, 69, 74
1, 1368, Note_off_c, 0, 69, 74
1, 1440, Note_on_c, 0, 69, 68
1, 1464, Note_off_c, 0, 69, 68
1, 1464, Note_on_c, 0, 74, 68
1, 1488, Note_off_c, 0, 74, 68
1, 1488, Note_on_c, 0, 77, 66
1, 1512, Note_on_c, 0, 74, 66
1, 1512, Note_off_c, 0, 77, 66
1, 1536, Note_off_c, 0, 47, 44
1, 1536, Note_off_c, 0, 74, 66
1, 0, Pitch_bend_c, 0, 8192
1, 0, Control_c, 0, 6, 12
1, 0, Control_c, 0, 7, 100
1, 0, Control_c, 0, 10, 64
1, 0, Control_c, 0, 100, 0
1, 0, Control_c, 0, 101, 0
1, 0, Note_on_c, 0, 52, 100
1, 0, Note_on_c, 0, 55, 100
1, 0, Note_on_c, 0, 60, 100
1, 48, Note_off_c, 0, 52, 64
1, 48, Note_off_c, 0, 55, 64
1, 48, Note_off_c, 0, 60, 64
1, 96, Note_on_c, 0, 67, 100
1, 144, Note_off_c, 0, 67, 64
1, 168, Note_on_c, 0, 64, 100
1, 216, Note_off_c, 0, 64, 64
1, 240, Note_on_c, 0, 52, 100
1, 240, Note_on_c, 0, 55, 100
1, 240, Note_on_c, 0, 60, 100
1, 288, Note_off_c, 0, 52, 64
1, 288, Note_off_c, 0, 55, 64
1, 288, Note_off_c, 0, 60, 64
1, 312, Note_on_c, 0, 67, 100
1, 360, Note_off_c, 0, 67, 64
1, 384, Note_on_c, 0, 52, 100
1, 384, Note_on_c, 0, 57, 100
1, 384, Note_on_c, 0, 60, 100
1, 432, Note_off_c, 0, 52, 64
1, 432, Note_off_c, 0, 57, 64
1, 432, Note_off_c, 0, 60, 64
1, 480, Note_on_c, 0, 69, 100
1, 528, Note_off_c, 0, 69, 64
1, 552, Note_on_c, 0, 64, 100
1, 600, Note_off_c, 0, 64, 64
1, 624, Note_on_c, 0, 52, 100
1, 624, Note_on_c, 0, 57, 100
1, 624, Note_on_c, 0, 60, 100
1, 672, Note_off_c, 0, 52, 64
1, 672, Note_off_c, 0, 57, 64
1, 672, Note_off_c, 0, 60, 64
1, 696, Note_on_c, 0, 52, 100
1, 696, Note_on_c, 0, 57, 100
1, 696, Note_on_c, 0, 60, 100
1, 696, Note_on_c, 0, 67, 100
1, 744, Note_off_c, 0, 52, 64
1, 744, Note_off_c, 0, 57, 64
1, 744, Note_off_c, 0, 60, 64
1, 744, Note_off_c, 0, 67, 64
1, 768, Note_on_c, 0, 50, 100
1, 768, Note_on_c, 0, 55, 100
1, 768, Note_on_c, 0, 59, 100
1, 816, Note_off_c, 0, 50, 64
1, 816, Note_off_c, 0, 55, 64
1, 816, Note_off_c, 0, 59, 64
1, 864, Note_on_c, 0, 67, 100
1, 912, Note_off_c, 0, 67, 64
1, 936, Note_on_c, 0, 62, 100
1, 984, Note_off_c, 0, 62, 64
1, 1008, Note_on_c, 0, 50, 100
1, 1008, Note_on_c, 0, 55, 100
1, 1008, Note_on_c, 0, 59, 100
1, 1056, Note_off_c, 0, 50, 64
1, 1056, Note_off_c, 0, 55, 64
1, 1056, Note_off_c, 0, 59, 64
1, 1080, Note_on_c, 0, 67, 100
1, 1128, Note_off_c, 0, 67, 64
1, 1152, Note_on_c, 0, 55, 100
1, 1152, Note_on_c, 0, 59, 100
1, 1152, Note_on_c, 0, 62, 100
1, 1200, Note_off_c, 0, 55, 64
1, 1200, Note_off_c, 0, 59, 64
1, 1200, Note_off_c, 0, 62, 64
1, 1248, Note_on_c, 0, 71, 100
1, 1296, Note_off_c, 0, 71, 64
1, 1320, Note_on_c, 0, 67, 100
1, 1368, Note_on_c, 0, 50, 100
1, 1368, Note_off_c, 0, 67, 64
1, 1392, Note_off_c, 0, 50, 64
1, 1392, Note_on_c, 0, 55, 100
1, 1392, Note_on_c, 0, 59, 100
1, 1392, Note_on_c, 0, 62, 100
1, 1440, Note_on_c, 0, 50, 100
1, 1440, Note_off_c, 0, 55, 64
1, 1440, Note_off_c, 0, 59, 64
1, 1440, Note_off_c, 0, 62, 64
1, 1488, Note_off_c, 0, 50, 64
1, 1488, Note_on_c, 0, 55, 100
1, 1488, Note_on_c, 0, 60, 100
1, 1488, Note_on_c, 0, 64, 100
1, 1535, Note_off_c, 0, 55, 64
1, 1535, Note_off_c, 0, 60, 64
1, 1535, Note_off_c, 0, 64, 64
1, 1536, Pitch_bend_c, 0, 8192
1, 1536, Pitch_bend_c, 0, 8192
1, 1536, Control_c, 0, 6, 12
1, 1536, Control_c, 0, 6, 12
1, 1536, Control_c, 0, 7, 100
1, 1536, Control_c, 0, 7, 100
1, 1536, Control_c, 0, 10, 64
1, 1536, Control_c, 0, 10, 64
1, 1536, Control_c, 0, 100, 0
1, 1536, Control_c, 0, 100, 0
1, 1536, Control_c, 0, 101, 0
1, 1536, Control_c, 0, 101, 0
1, 0, Note_on_c, 0, 45, 100
1, 0, Note_on_c, 0, 52, 100
1, 0, Note_on_c, 0, 57, 127
1, 72, Note_off_c, 0, 57, 0
1, 96, Note_off_c, 0, 45, 64
1, 96, Note_off_c, 0, 52, 64
1, 144, Note_on_c, 0, 41, 100
1, 144, Note_on_c, 0, 48, 100
1, 144, Note_on_c, 0, 60, 127
1, 156, Note_off_c, 0, 60, 0
1, 168, Note_on_c, 0, 60, 127
1, 180, Note_off_c, 0, 60, 64
1, 192, Note_off_c, 0, 41, 64
1, 192, Note_on_c, 0, 41, 100
1, 192, Note_off_c, 0, 48, 64
1, 192, Note_on_c, 0, 48, 100
1, 192, Note_on_c, 0, 59, 127
1, 216, Note_off_c, 0, 41, 64
1, 216, Note_off_c, 0, 48, 64
1, 240, Note_on_c, 0, 41, 100
1, 240, Note_on_c, 0, 48, 100
1, 264, Note_off_c, 0, 41, 64
1, 264, Note_off_c, 0, 48, 64
1, 264, Note_off_c, 0, 59, 64
1, 288, Note_on_c, 0, 41, 100
1, 288, Note_on_c, 0, 48, 100
1, 288, Note_on_c, 0, 57, 127
1, 312, Note_off_c, 0, 41, 64
1, 312, Note_off_c, 0, 48, 64
1, 336, Note_on_c, 0, 41, 100
1, 336, Note_on_c, 0, 48, 100
1, 360, Note_off_c, 0, 57, 64
1, 384, Note_off_c, 0, 41, 64
1, 384, Note_on_c, 0, 41, 100
1, 384, Note_off_c, 0, 48, 64
1, 384, Note_on_c, 0, 48, 100
1, 384, Note_on_c, 0, 57, 127
1, 456, Note_off_c, 0, 57, 64
1, 480, Note_off_c, 0, 41, 64
1, 480, Note_off_c, 0, 48, 64
1, 528, Note_on_c, 0, 43, 100
1, 528, Note_on_c, 0, 50, 100
1, 528, Note_on_c, 0, 60, 127
1, 576, Note_off_c, 0, 43, 64
1, 576, Note_on_c, 0, 43, 100
1, 576, Note_off_c, 0, 50, 64
1, 576, Note_on_c, 0, 50, 100
1, 576, Note_on_c, 0, 62, 127
1, 580, Note_off_c, 0, 60, 64
1, 624, Note_off_c, 0, 43, 64
1, 624, Note_off_c, 0, 50, 64
1, 625, Note_off_c, 0, 62, 0
1, 648, Note_on_c, 0, 43, 100
1, 648, Note_on_c, 0, 50, 100
1, 648, Note_on_c, 0, 60, 127
1, 690, Note_off_c, 0, 60, 0
1, 696, Note_off_c, 0, 43, 64
1, 696, Note_off_c, 0, 50, 64
1, 720, Note_on_c, 0, 43, 100
1, 720, Note_on_c, 0, 50, 100
1, 720, Note_on_c, 0, 59, 127
1, 762, Note_off_c, 0, 59, 0
1, 768, Note_off_c, 0, 43, 64
1, 768, Note_on_c, 0, 45, 100
1, 768, Note_off_c, 0, 50, 64
1, 768, Note_on_c, 0, 52, 100
1, 768, Note_on_c, 0, 57, 127
1, 840, Note_off_c, 0, 57, 64
1, 864, Note_off_c, 0, 45, 64
1, 864, Note_off_c, 0, 52, 64
1, 912, Note_on_c, 0, 38, 100
1, 912, Note_on_c, 0, 45, 100
1, 912, Note_on_c, 0, 59, 127
1, 924, Note_off_c, 0, 59, 64
1, 936, Note_on_c, 0, 59, 127
1, 948, Note_off_c, 0, 59, 64
1, 960, Note_off_c, 0, 38, 64
1, 960, Note_on_c, 0, 38, 100
1, 960, Note_off_c, 0, 45, 64
1, 960, Note_on_c, 0, 45, 100
1, 960, Note_on_c, 0, 60, 127
1, 984, Note_off_c, 0, 38, 64
1, 984, Note_off_c, 0, 45, 64
1, 1008, Note_on_c, 0, 38, 100
1, 1008, Note_on_c, 0, 45, 100
1, 1032, Note_off_c, 0, 38, 64
1, 1032, Note_off_c, 0, 45, 64
1, 1032, Note_off_c, 0, 60, 64
1, 1056, Note_on_c, 0, 38, 100
1, 1056, Note_on_c, 0, 45, 100
1, 1056, Note_on_c, 0, 59, 127
1, 1080, Note_off_c, 0, 38, 64
1, 1080, Note_off_c, 0, 45, 64
1, 1104, Note_on_c, 0, 38, 100
1, 1104, Note_on_c, 0, 45, 100
1, 1128, Note_off_c, 0, 59, 64
1, 1152, Note_off_c, 0, 38, 64
1, 1152, Note_on_c, 0, 41, 100
1, 1152, Note_off_c, 0, 45, 64
1, 1152, Note_on_c, 0, 48, 100
1, 1152, Note_on_c, 0, 57, 127
1, 1200, Note_off_c, 0, 41, 64
1, 1200, Note_off_c, 0, 48, 64
1, 1247, Note_off_c, 0, 57, 64
1, 1248, Note_on_c, 0, 41, 100
1, 1248, Note_on_c, 0, 48, 100
1, 1248, Note_on_c, 0, 60, 127
1, 1288, Note_off_c, 0, 60, 64
1, 1296, Note_off_c, 0, 41, 64
1, 1296, Note_on_c, 0, 43, 100
1, 1296, Note_off_c, 0, 48, 64
1, 1296, Note_on_c, 0, 50, 100
1, 1296, Note_on_c, 0, 59, 127
1, 1336, Note_off_c, 0, 59, 64
1, 1344, Note_off_c, 0, 43, 64
1, 1344, Note_on_c, 0, 43, 100
1, 1344, Note_off_c, 0, 50, 64
1, 1344, Note_on_c, 0, 50, 100
1, 1344, Note_on_c, 0, 62, 127
1, 1392, Note_off_c, 0, 43, 64
1, 1392, Note_on_c, 0, 43, 100
1, 1392, Note_off_c, 0, 50, 64
1, 1392, Note_on_c, 0, 50, 100
1, 1393, Note_off_c, 0, 62, 64
1, 1416, Note_on_c, 0, 64, 127
1, 1440, Note_off_c, 0, 43, 64
1, 1440, Note_off_c, 0, 50, 64
1, 1458, Note_off_c, 0, 64, 64
1, 1488, Note_on_c, 0, 67, 127
1, 1530, Note_off_c, 0, 67, 64
1, 0, Note_on_c, 0, 57, 76
1, 24, Note_off_c, 0, 57, 76
1, 24, Note_on_c, 0, 64, 76
1, 48, Note_off_c, 0, 64, 76
1, 48, Note_on_c, 0, 72, 76
1, 72, Note_off_c, 0, 72, 76
1, 96, Note_on_c, 0, 57, 76
1, 120, Note_off_c, 0, 57, 76
1, 120, Note_on_c, 0, 64, 76
1, 144, Note_off_c, 0, 64, 76
1, 144, Note_on_c, 0, 72, 76
1, 168, Note_off_c, 0, 72, 76
1, 192, Note_on_c, 0, 64, 76
1, 216, Note_off_c, 0, 64, 76
1, 216, Note_on_c, 0, 72, 76
1, 240, Note_on_c, 0, 71, 76
1, 240, Note_off_c, 0, 72, 76
1, 264, Note_off_c, 0, 71, 76
1, 288, Note_on_c, 0, 64, 76
1, 312, Note_off_c, 0, 64, 76
1, 312, Note_on_c, 0, 72, 76
1, 336, Note_on_c, 0, 71, 76
1, 336, Note_off_c, 0, 72, 76
1, 360, Note_off_c, 0, 71, 76
1, 384, Note_on_c, 0, 57, 76
1, 408, Note_off_c, 0, 57, 76
1, 408, Note_on_c, 0, 76, 76
1, 432, Note_on_c, 0, 72, 76
1, 432, Note_off_c, 0, 76, 76
1, 456, Note_on_c, 0, 69, 76
1, 456, Note_off_c, 0, 72, 76
1, 480, Note_on_c, 0, 57, 76
1, 480, Note_off_c, 0, 69, 76
1, 504, Note_off_c, 0, 57, 76
1, 504, Note_on_c, 0, 76, 76
1, 528, Note_on_c, 0, 72, 76
1, 528, Note_off_c, 0, 76, 76
1, 552, Note_on_c, 0, 64, 76
1, 552, Note_off_c, 0, 72, 76
1, 576, Note_on_c, 0, 57, 76
1, 576, Note_off_c, 0, 64, 76
1, 600, Note_off_c, 0, 57, 76
1, 600, Note_on_c, 0, 64, 76
1, 624, Note_off_c, 0, 64, 76
1, 624, Note_on_c, 0, 71, 76
1, 648, Note_on_c, 0, 67, 76
1, 648, Note_off_c, 0, 71, 76
1, 672, Note_on_c, 0, 57, 76
1, 674, Note_off_c, 0, 67, 76
1, 696, Note_off_c, 0, 57, 76
1, 696, Note_on_c, 0, 69, 76
1, 720, Note_on_c, 0, 64, 76
1, 720, Note_off_c, 0, 69, 76
1, 744, Note_on_c, 0, 67, 76
1, 746, Note_off_c, 0, 64, 76
1, 768, Note_on_c, 0, 53, 76
1, 768, Note_off_c, 0, 67, 76
1, 792, Note_off_c, 0, 53, 76
1, 792, Note_on_c, 0, 60, 76
1, 816, Note_off_c, 0, 60, 76
1, 816, Note_on_c, 0, 65, 76
1, 840, Note_off_c, 0, 65, 76
1, 840, Note_on_c, 0, 69, 76
1, 864, Note_on_c, 0, 53, 76
1, 864, Note_off_c, 0, 69, 76
1, 888, Note_off_c, 0, 53, 76
1, 888, Note_on_c, 0, 60, 76
1, 912, Note_off_c, 0, 60, 76
1, 912, Note_on_c, 0, 65, 76
1, 936, Note_off_c, 0, 65, 76
1, 936, Note_on_c, 0, 67, 76
1, 960, Note_on_c, 0, 53, 76
1, 960, Note_off_c, 0, 67, 76
1, 984, Note_off_c, 0, 53, 76
1, 984, Note_on_c, 0, 60, 76
1, 1008, Note_off_c, 0, 60, 76
1, 1008, Note_on_c, 0, 69, 76
1, 1032, Note_on_c, 0, 67, 76
1, 1032, Note_off_c, 0, 69, 76
1, 1056, Note_on_c, 0, 53, 76
1, 1056, Note_off_c, 0, 67, 76
1, 1080, Note_off_c, 0, 53, 76
1, 1080, Note_on_c, 0, 60, 76
1, 1104, Note_off_c, 0, 60, 76
1, 1104, Note_on_c, 0, 69, 76
1, 1128, Note_on_c, 0, 67, 76
1, 1128, Note_off_c, 0, 69, 76
1, 1152, Note_on_c, 0, 57, 76
1, 1152, Note_off_c, 0, 67, 76
1, 1176, Note_off_c, 0, 57, 76
1, 1176, Note_on_c, 0, 64, 76
1, 1200, Note_off_c, 0, 64, 76
1, 1200, Note_on_c, 0, 69, 76
1, 1224, Note_off_c, 0, 69, 76
1, 1224, Note_on_c, 0, 72, 76
1, 1248, Note_on_c, 0, 57, 76
1, 1248, Note_off_c, 0, 72, 76
1, 1272, Note_off_c, 0, 57, 76
1, 1272, Note_on_c, 0, 64, 76
1, 1296, Note_off_c, 0, 64, 76
1, 1296, Note_on_c, 0, 69, 76
1, 1320, Note_off_c, 0, 69, 76
1, 1320, Note_on_c, 0, 72, 76
1, 1344, Note_on_c, 0, 57, 76
1, 1344, Note_off_c, 0, 72, 76
1, 1368, Note_off_c, 0, 57, 76
1, 1368, Note_on_c, 0, 76, 76
1, 1392, Note_on_c, 0, 72, 76
1, 1392, Note_off_c, 0, 76, 76
1, 1416, Note_on_c, 0, 69, 76
1, 1416, Note_off_c, 0, 72, 76
1, 1440, Note_on_c, 0, 57, 76
1, 1440, Note_off_c, 0, 69, 76
1, 1464, Note_off_c, 0, 57, 76
1, 1464, Note_on_c, 0, 76, 76
1, 1488, Note_on_c, 0, 72, 76
1, 1488, Note_off_c, 0, 76, 76
1, 1512, Note_on_c, 0, 69, 76
1, 1512, Note_off_c, 0, 72, 76
1, 1536, Note_off_c, 0, 69, 76
1, 0, Control_c, 0, 1, 100
1, 0, Note_on_c, 0, 33, 79
1, 0, Note_on_c, 0, 72, 107
1, 48, Note_on_c, 0, 71, 104
1, 48, Note_off_c, 0, 72, 107
1, 96, Note_on_c, 0, 69, 102
1, 96, Note_off_c, 0, 71, 104
1, 192, Note_off_c, 0, 33, 79
1, 192, Note_on_c, 0, 38, 74
1, 192, Note_on_c, 0, 62, 113
1, 192, Note_off_c, 0, 69, 102
1, 285, Note_off_c, 0, 62, 113
1, 288, Note_on_c, 0, 62, 106
1, 384, Note_off_c, 0, 38, 74
1, 384, Note_on_c, 0, 41, 74
1, 384, Note_off_c, 0, 62, 106
1, 384, Note_on_c, 0, 72, 113
1, 432, Note_on_c, 0, 65, 99
1, 432, Note_off_c, 0, 72, 113
1, 456, Note_off_c, 0, 65, 99
1, 456, Note_on_c, 0, 77, 98
1, 480, Note_on_c, 0, 69, 102
1, 480, Note_off_c, 0, 77, 98
1, 576, Note_on_c, 0, 40, 74
1, 576, Note_off_c, 0, 41, 74
1, 576, Note_on_c, 0, 67, 104
1, 576, Note_off_c, 0, 69, 102
1, 672, Note_off_c, 0, 67, 104
1, 672, Note_on_c, 0, 76, 101
1, 768, Note_on_c, 0, 33, 73
1, 768, Note_off_c, 0, 40, 74
1, 768, Note_on_c, 0, 72, 113
1, 768, Note_off_c, 0, 76, 101
1, 816, Note_on_c, 0, 71, 101
1, 816, Note_off_c, 0, 72, 113
1, 864, Note_on_c, 0, 69, 105
1, 864, Note_off_c, 0, 71, 101
1, 960, Note_off_c, 0, 33, 73
1, 960, Note_on_c, 0, 38, 78
1, 960, Note_on_c, 0, 62, 107
1, 960, Note_off_c, 0, 69, 105
1, 1053, Note_off_c, 0, 62, 107
1, 1056, Note_on_c, 0, 62, 103
1, 1152, Note_off_c, 0, 38, 78
1, 1152, Note_on_c, 0, 41, 75
1, 1152, Note_off_c, 0, 62, 103
1, 1152, Note_on_c, 0, 72, 111
1, 1200, Note_on_c, 0, 65, 101
1, 1200, Note_off_c, 0, 72, 111
1, 1224, Note_off_c, 0, 65, 101
1, 1224, Note_on_c, 0, 77, 94
1, 1248, Note_on_c, 0, 69, 106
1, 1248, Note_off_c, 0, 77, 94
1, 1344, Note_on_c, 0, 40, 76
1, 1344, Note_off_c, 0, 41, 75
1, 1344, Note_on_c, 0, 67, 109
1, 1344, Note_off_c, 0, 69, 106
1, 1440, Note_off_c, 0, 67, 109
1, 1440, Note_on_c, 0, 76, 103
1, 1526, Control_c, 0, 1, 100
1, 1526, Control_c, 0, 1, 70
1, 1533, Note_off_c, 0, 40, 76
1, 1533, Note_off_c, 0, 76, 103
1, 0, Control_c, 0, 1, 40
1, 0, Note_on_c, 0, 72, 45
1, 24, Note_off_c, 0, 72, 45
1, 24, Note_on_c, 0, 81, 40
1, 48, Note_on_c, 0, 76, 40
1, 48, Note_off_c, 0, 81, 40
1, 96, Note_on_c, 0, 72, 40
1, 96, Note_off_c, 0, 76, 40
1, 120, Note_off_c, 0, 72, 40
1, 120, Note_on_c, 0, 81, 40
1, 144, Note_on_c, 0, 76, 38
1, 144, Note_off_c, 0, 81, 40
1, 192, Note_off_c, 0, 76, 38
1, 192, Note_on_c, 0, 81, 43
1, 216, Note_off_c, 0, 81, 43
1, 288, Note_on_c, 0, 81, 40
1, 312, Note_off_c, 0, 81, 40
1, 384, Note_on_c, 0, 72, 44
1, 408, Note_off_c, 0, 72, 44
1, 408, Note_on_c, 0, 81, 38
1, 432, Note_on_c, 0, 76, 38
1, 432, Note_off_c, 0, 81, 38
1, 480, Note_on_c, 0, 72, 42
1, 480, Note_off_c, 0, 76, 38
1, 504, Note_off_c, 0, 72, 42
1, 504, Note_on_c, 0, 81, 38
1, 528, Note_on_c, 0, 76, 40
1, 528, Note_off_c, 0, 81, 38
1, 576, Note_off_c, 0, 76, 40
1, 576, Note_on_c, 0, 81, 42
1, 600, Note_off_c, 0, 81, 42
1, 672, Note_on_c, 0, 81, 40
1, 696, Note_off_c, 0, 81, 40
1, 768, Note_on_c, 0, 72, 44
1, 792, Note_off_c, 0, 72, 44
1, 792, Note_on_c, 0, 79, 39
1, 816, Note_on_c, 0, 74, 40
1, 816, Note_off_c, 0, 79, 39
1, 864, Note_on_c, 0, 72, 42
1, 864, Note_off_c, 0, 74, 40
1, 888, Note_off_c, 0, 72, 42
1, 888, Note_on_c, 0, 79, 38
1, 912, Note_on_c, 0, 74, 40
1, 912, Note_off_c, 0, 79, 38
1, 960, Note_off_c, 0, 74, 40
1, 960, Note_on_c, 0, 79, 41
1, 984, Note_off_c, 0, 79, 41
1, 1056, Note_on_c, 0, 79, 38
1, 1080, Note_off_c, 0, 79, 38
1, 1152, Note_on_c, 0, 72, 46
1, 1176, Note_off_c, 0, 72, 46
1, 1176, Note_on_c, 0, 79, 38
1, 1200, Note_on_c, 0, 74, 38
1, 1200, Note_off_c, 0, 79, 38
1, 1248, Note_on_c, 0, 72, 40
1, 1248, Note_off_c, 0, 74, 38
1, 1272, Note_off_c, 0, 72, 40
1, 1272, Note_on_c, 0, 79, 40
1, 1296, Note_on_c, 0, 74, 38
1, 1296, Note_off_c, 0, 79, 40
1, 1344, Note_off_c, 0, 74, 38
1, 1344, Note_on_c, 0, 79, 42
1, 1368, Note_off_c, 0, 79, 42
1, 1440, Note_on_c, 0, 79, 38
1, 1464, Note_off_c, 0, 79, 38
1, 0, Pitch_bend_c, 0, 8192
1, 0, Control_c, 0, 6, 12
1, 0, Control_c, 0, 7, 100
1, 0, Control_c, 0, 10, 64
1, 0, Control_c, 0, 100, 0
1, 0, Control_c, 0, 101, 0
1, 0, Note_on_c, 0, 76, 106
1, 96, Note_off_c, 0, 76, 64
1, 96, Note_on_c, 0, 76, 105
1, 192, Note_off_c, 0, 76, 64
1, 240, Note_on_c, 0, 76, 101
1, 336, Note_on_c, 0, 72, 104
1, 336, Note_off_c, 0, 76, 64
1, 384, Note_off_c, 0, 72, 64
1, 384, Note_on_c, 0, 79, 102
1, 480, Note_off_c, 0, 79, 64
1, 480, Note_on_c, 0, 79, 103
1, 576, Note_off_c, 0, 79, 64
1, 624, Note_on_c, 0, 79, 104
1, 720, Note_on_c, 0, 74, 107
1, 720, Note_off_c, 0, 79, 64
1, 768, Note_on_c, 0, 72, 101
1, 768, Note_off_c, 0, 74, 64
1, 864, Note_off_c, 0, 72, 64
1, 864, Note_on_c, 0, 72, 105
1, 960, Note_off_c, 0, 72, 64
1, 1008, Note_on_c, 0, 72, 108
1, 1104, Note_on_c, 0, 71, 109
1, 1104, Note_off_c, 0, 72, 64
1, 1152, Note_off_c, 0, 71, 64
1, 1152, Note_on_c, 0, 72, 104
1, 1248, Note_off_c, 0, 72, 64
1, 1248, Note_on_c, 0, 72, 106
1, 1344, Note_off_c, 0, 72, 64
1, 1392, Note_on_c, 0, 72, 101
1, 1488, Note_off_c, 0, 72, 64
1, 1488, Note_on_c, 0, 74, 107
1, 1535, Note_off_c, 0, 74, 64
1, 1536, Pitch_bend_c, 0, 8192
1, 1536, Pitch_bend_c, 0, 8192
1, 1536, Control_c, 0, 6, 12
1, 1536, Control_c, 0, 6, 12
1, 1536, Control_c, 0, 7, 100
1, 1536, Control_c, 0, 7, 100
1, 1536, Control_c, 0, 10, 64
1, 1536, Control_c, 0, 10, 64
1, 1536, Control_c, 0, 100, 0
1, 1536, Control_c, 0, 100, 0
1, 1536, Control_c, 0, 101, 0
1, 1536, Control_c, 0, 101, 0
1, 1537, Pitch_bend_c, 0, 8192
1, 1537, Control_c, 0, 6, 12
1, 1537, Control_c, 0, 7, 100
1, 1537, Control_c, 0, 10, 64
1, 1537, Control_c, 0, 100, 0
1, 1537, Control_c, 0, 101, 0
1, 0, Control_c, 0, 1, 70
1, 48, Note_on_c, 0, 81, 67
1, 96, Note_on_c, 0, 69, 69
1, 96, Note_off_c, 0, 81, 67
1, 120, Note_off_c, 0, 69, 69
1, 120, Note_on_c, 0, 72, 69
1, 144, Note_off_c, 0, 72, 69
1, 144, Note_on_c, 0, 76, 65
1, 168, Note_off_c, 0, 76, 65
1, 192, Note_on_c, 0, 69, 72
1, 216, Note_off_c, 0, 69, 72
1, 216, Note_on_c, 0, 72, 66
1, 240, Note_off_c, 0, 72, 66
1, 240, Note_on_c, 0, 76, 65
1, 264, Note_off_c, 0, 76, 65
1, 288, Note_on_c, 0, 69, 66
1, 312, Note_off_c, 0, 69, 66
1, 312, Note_on_c, 0, 72, 69
1, 336, Note_off_c, 0, 72, 69
1, 336, Note_on_c, 0, 76, 65
1, 360, Note_off_c, 0, 76, 65
1, 432, Note_on_c, 0, 79, 65
1, 480, Note_on_c, 0, 67, 71
1, 480, Note_off_c, 0, 79, 65
1, 504, Note_off_c, 0, 67, 71
1, 504, Note_on_c, 0, 71, 68
1, 528, Note_off_c, 0, 71, 68
1, 528, Note_on_c, 0, 76, 69
1, 552, Note_off_c, 0, 76, 69
1, 576, Note_on_c, 0, 67, 69
1, 600, Note_off_c, 0, 67, 69
1, 600, Note_on_c, 0, 71, 69
1, 624, Note_off_c, 0, 71, 69
1, 624, Note_on_c, 0, 76, 68
1, 648, Note_off_c, 0, 76, 68
1, 672, Note_on_c, 0, 67, 67
1, 696, Note_off_c, 0, 67, 67
1, 696, Note_on_c, 0, 71, 68
1, 720, Note_off_c, 0, 71, 68
1, 720, Note_on_c, 0, 76, 67
1, 744, Note_off_c, 0, 76, 67
1, 816, Note_on_c, 0, 81, 69
1, 864, Note_on_c, 0, 69, 71
1, 864, Note_off_c, 0, 81, 69
1, 888, Note_off_c, 0, 69, 71
1, 888, Note_on_c, 0, 72, 69
1, 912, Note_off_c, 0, 72, 69
1, 912, Note_on_c, 0, 77, 65
1, 936, Note_off_c, 0, 77, 65
1, 960, Note_on_c, 0, 69, 71
1, 984, Note_off_c, 0, 69, 71
1, 984, Note_on_c, 0, 72, 67
1, 1008, Note_off_c, 0, 72, 67
1, 1008, Note_on_c, 0, 77, 68
1, 1032, Note_off_c, 0, 77, 68
1, 1056, Note_on_c, 0, 69, 65
1, 1080, Note_off_c, 0, 69, 65
1, 1080, Note_on_c, 0, 72, 67
1, 1104, Note_off_c, 0, 72, 67
1, 1104, Note_on_c, 0, 77, 69
1, 1128, Note_off_c, 0, 77, 69
1, 1200, Note_on_c, 0, 81, 68
1, 1248, Note_on_c, 0, 69, 69
1, 1248, Note_off_c, 0, 81, 68
1, 1272, Note_off_c, 0, 69, 69
1, 1272, Note_on_c, 0, 72, 66
1, 1296, Note_off_c, 0, 72, 66
1, 1296, Note_on_c, 0, 76, 69
1, 1320, Note_off_c, 0, 76, 69
1, 1344, Note_on_c, 0, 69, 70
1, 1368, Note_off_c, 0, 69, 70
1, 1368, Note_on_c, 0, 72, 69
1, 1392, Note_off_c, 0, 72, 69
1, 1392, Note_on_c, 0, 76, 65
1, 1416, Note_off_c, 0, 76, 65
1, 1440, Note_on_c, 0, 69, 65
1, 1464, Note_off_c, 0, 69, 65
1, 1464, Note_on_c, 0, 72, 68
1, 1488, Note_off_c, 0, 72, 68
1, 1488, Note_on_c, 0, 76, 68
1, 1512, Note_off_c, 0, 76, 68
1, 0, Control_c, 0, 1, 100
1, 0, Note_on_c, 0, 48, 112
1, 0, Note_on_c, 0, 60, 108
1, 96, Note_off_c, 0, 60, 108
1, 96, Note_on_c, 0, 67, 101
1, 192, Note_on_c, 0, 64, 105
1, 192, Note_off_c, 0, 67, 101
1, 384, Note_on_c, 0, 45, 104
1, 384, Note_off_c, 0, 48, 112
1, 384, Note_on_c, 0, 60, 106
1, 384, Note_off_c, 0, 64, 105
1, 768, Note_on_c, 0, 41, 110
1, 768, Note_off_c, 0, 45, 104
1, 768, Note_on_c, 0, 57, 110
1, 768, Note_off_c, 0, 60, 106
1, 864, Note_off_c, 0, 57, 110
1, 864, Note_on_c, 0, 60, 98
1, 960, Note_on_c, 0, 57, 100
1, 960, Note_off_c, 0, 60, 98
1, 1056, Note_off_c, 0, 57, 100
1, 1056, Note_on_c, 0, 64, 93
1, 1152, Note_off_c, 0, 41, 110
1, 1152, Note_on_c, 0, 43, 103
1, 1152, Note_on_c, 0, 59, 107
1, 1152, Note_off_c, 0, 64, 93
1, 1344, Note_off_c, 0, 59, 107
1, 1344, Note_on_c, 0, 67, 102
1, 1536, Note_off_c, 0, 43, 103
1, 1536, Note_off_c, 0, 67, 102
1, 0, Note_on_c, 0, 57, 63
1, 48, Note_off_c, 0, 57, 63
1, 48, Note_on_c, 0, 64, 58
1, 95, Note_on_c, 0, 71, 73
1, 96, Note_off_c, 0, 64, 58
1, 143, Note_off_c, 0, 71, 73
1, 144, Note_on_c, 0, 77, 73
1, 191, Note_off_c, 0, 77, 73
1, 192, Note_on_c, 0, 57, 63
1, 240, Note_off_c, 0, 57, 63
1, 240, Note_on_c, 0, 64, 58
1, 288, Note_off_c, 0, 64, 58
1, 288, Note_on_c, 0, 69, 73
1, 335, Note_off_c, 0, 69, 73
1, 336, Note_on_c, 0, 74, 66
1, 373, Note_off_c, 0, 74, 66
1, 384, Note_on_c, 0, 57, 60
1, 432, Note_off_c, 0, 57, 60
1, 432, Note_on_c, 0, 64, 57
1, 480, Note_off_c, 0, 64, 57
1, 480, Note_on_c, 0, 69, 66
1, 528, Note_on_c, 0, 71, 69
1, 528, Note_off_c, 0, 69, 66
1, 576, Note_on_c, 0, 57, 60
1, 577, Note_off_c, 0, 71, 69
1, 624, Note_off_c, 0, 57, 60
1, 624, Note_on_c, 0, 64, 57
1, 672, Note_off_c, 0, 64, 57
1, 672, Note_on_c, 0, 67, 66
1, 719, Note_on_c, 0, 72, 72
1, 720, Note_off_c, 0, 67, 66
1, 767, Note_off_c, 0, 72, 72
1, 768, Note_on_c, 0, 59, 59
1, 816, Note_off_c, 0, 59, 59
1, 816, Note_on_c, 0, 67, 58
1, 864, Note_off_c, 0, 67, 58
1, 864, Note_on_c, 0, 69, 76
1, 908, Note_off_c, 0, 69, 76
1, 912, Note_on_c, 0, 76, 73
1, 955, Note_off_c, 0, 76, 73
1, 960, Note_on_c, 0, 60, 59
1, 1008, Note_off_c, 0, 60, 59
1, 1008, Note_on_c, 0, 67, 58
1, 1055, Note_on_c, 0, 71, 76
1, 1056, Note_off_c, 0, 67, 58
1, 1100, Note_off_c, 0, 71, 76
1, 1104, Note_on_c, 0, 76, 73
1, 1147, Note_off_c, 0, 76, 73
1, 1152, Note_on_c, 0, 59, 52
1, 1200, Note_off_c, 0, 59, 52
1, 1200, Note_on_c, 0, 71, 57
1, 1248, Note_off_c, 0, 71, 57
1, 1248, Note_on_c, 0, 76, 68
1, 1285, Note_off_c, 0, 76, 68
1, 1296, Note_on_c, 0, 67, 74
1, 1344, Note_on_c, 0, 62, 70
1, 1344, Note_off_c, 0, 67, 74
1, 1392, Note_off_c, 0, 62, 70
1, 1392, Note_on_c, 0, 64, 58
1, 1440, Note_off_c, 0, 64, 58
1, 1440, Note_on_c, 0, 69, 65
1, 1483, Note_off_c, 0, 69, 65
1, 1488, Note_on_c, 0, 67, 65
1, 1531, Note_off_c, 0, 67, 65
1, 0, Control_c, 0, 1, 40
1, 0, Note_on_c, 0, 64, 43
1, 48, Note_off_c, 0, 64, 43
1, 48, Note_on_c, 0, 72, 38
1, 96, Note_on_c, 0, 67, 41
1, 96, Note_off_c, 0, 72, 38
1, 144, Note_on_c, 0, 64, 38
1, 144, Note_off_c, 0, 67, 41
1, 192, Note_off_c, 0, 64, 38
1, 192, Note_on_c, 0, 72, 42
1, 240, Note_on_c, 0, 67, 38
1, 240, Note_off_c, 0, 72, 42
1, 288, Note_on_c, 0, 64, 38
1, 288, Note_off_c, 0, 67, 38
1, 336, Note_off_c, 0, 64, 38
1, 336, Note_on_c, 0, 72, 40
1, 384, Note_on_c, 0, 64, 42
1, 384, Note_off_c, 0, 72, 40
1, 432, Note_off_c, 0, 64, 42
1, 432, Note_on_c, 0, 71, 39
1, 480, Note_on_c, 0, 67, 41
1, 480, Note_off_c, 0, 71, 39
1, 528, Note_on_c, 0, 64, 39
1, 528, Note_off_c, 0, 67, 41
1, 576, Note_off_c, 0, 64, 39
1, 576, Note_on_c, 0, 71, 41
1, 624, Note_on_c, 0, 67, 40
1, 624, Note_off_c, 0, 71, 41
1, 672, Note_on_c, 0, 64, 39
1, 672, Note_off_c, 0, 67, 40
1, 720, Note_off_c, 0, 64, 39
1, 720, Note_on_c, 0, 71, 39
1, 768, Note_on_c, 0, 64, 44
1, 768, Note_off_c, 0, 71, 39
1, 816, Note_off_c, 0, 64, 44
1, 816, Note_on_c, 0, 72, 40
1, 864, Note_on_c, 0, 65, 41
1, 864, Note_off_c, 0, 72, 40
1, 912, Note_on_c, 0, 64, 39
1, 912, Note_off_c, 0, 65, 41
1, 960, Note_off_c, 0, 64, 39
1, 960, Note_on_c, 0, 72, 42
1, 1008, Note_on_c, 0, 65, 38
1, 1008, Note_off_c, 0, 72, 42
1, 1056, Note_on_c, 0, 64, 39
1, 1056, Note_off_c, 0, 65, 38
1, 1104, Note_off_c, 0, 64, 39
1, 1104, Note_on_c, 0, 72, 40
1, 1152, Note_on_c, 0, 62, 45
1, 1152, Note_off_c, 0, 72, 40
1, 1200, Note_off_c, 0, 62, 45
1, 1200, Note_on_c, 0, 72, 40
1, 1248, Note_on_c, 0, 65, 42
1, 1248, Note_off_c, 0, 72, 40
1, 1296, Note_on_c, 0, 62, 40
1, 1296, Note_off_c, 0, 65, 42
1, 1344, Note_off_c, 0, 62, 40
1, 1344, Note_on_c, 0, 72, 43
1, 1392, Note_on_c, 0, 65, 40
1, 1392, Note_off_c, 0, 72, 43
1, 1440, Note_on_c, 0, 62, 40
1, 1440, Note_off_c, 0, 65, 40
1, 1488, Note_off_c, 0, 62, 40
1, 1488, Note_on_c, 0, 72, 38
1, 1536, Note_off_c, 0, 72, 38
1, 0, Pitch_bend_c, 0, 8192
1, 0, Control_c, 0, 6, 12
1, 0, Control_c, 0, 7, 100
1, 0, Control_c, 0, 10, 64
1, 0, Control_c, 0, 100, 0
1, 0, Control_c, 0, 101, 0
1, 0, Note_on_c, 0, 81, 111
1, 48, Note_off_c, 0, 81, 64
1, 48, Note_on_c, 0, 81, 107
1, 96, Note_off_c, 0, 81, 64
1, 96, Note_on_c, 0, 83, 100
1, 144, Note_off_c, 0, 83, 64
1, 144, Note_on_c, 0, 84, 108
1, 192, Note_off_c, 0, 84, 64
1, 192, Note_on_c, 0, 84, 108
1, 240, Note_off_c, 0, 84, 64
1, 240, Note_on_c, 0, 84, 106
1, 288, Note_off_c, 0, 84, 64
1, 288, Note_on_c, 0, 84, 103
1, 336, Note_on_c, 0, 83, 112
1, 336, Note_off_c, 0, 84, 64
1, 384, Note_off_c, 0, 83, 64
1, 384, Note_on_c, 0, 84, 100
1, 432, Note_off_c, 0, 84, 64
1, 432, Note_on_c, 0, 86, 108
1, 480, Note_on_c, 0, 84, 101
1, 480, Note_off_c, 0, 86, 64
1, 528, Note_on_c, 0, 83, 106
1, 528, Note_off_c, 0, 84, 64
1, 576, Note_on_c, 0, 81, 101
1, 576, Note_off_c, 0, 83, 64
1, 624, Note_off_c, 0, 81, 64
1, 624, Note_on_c, 0, 81, 109
1, 672, Note_off_c, 0, 81, 64
1, 672, Note_on_c, 0, 81, 101
1, 720, Note_on_c, 0, 79, 106
1, 720, Note_off_c, 0, 81, 64
1, 768, Note_off_c, 0, 79, 64
1, 768, Note_on_c, 0, 88, 101
1, 816, Note_off_c, 0, 88, 64
1, 816, Note_on_c, 0, 88, 111
1, 864, Note_off_c, 0, 88, 64
1, 864, Note_on_c, 0, 89, 106
1, 912, Note_on_c, 0, 88, 110
1, 912, Note_off_c, 0, 89, 64
1, 960, Note_on_c, 0, 86, 109
1, 960, Note_off_c, 0, 88, 64
1, 1008, Note_off_c, 0, 86, 64
1, 1008, Note_on_c, 0, 88, 102
1, 1056, Note_on_c, 0, 84, 108
1, 1056, Note_off_c, 0, 88, 64
1, 1104, Note_on_c, 0, 83, 102
1, 1104, Note_off_c, 0, 84, 64
1, 1152, Note_off_c, 0, 83, 64
1, 1152, Note_on_c, 0, 86, 105
1, 1200, Note_on_c, 0, 84, 107
1, 1200, Note_off_c, 0, 86, 64
1, 1248, Note_on_c, 0, 83, 112
1, 1248, Note_off_c, 0, 84, 64
1, 1296, Note_off_c, 0, 83, 64
1, 1296, Note_on_c, 0, 84, 110
1, 1344, Note_on_c, 0, 83, 112
1, 1344, Note_off_c, 0, 84, 64
1, 1392, Note_on_c, 0, 79, 100
1, 1392, Note_off_c, 0, 83, 64
1, 1440, Note_off_c, 0, 79, 64
1, 1440, Note_on_c, 0, 81, 107
1, 1488, Note_on_c, 0, 76, 102
1, 1488, Note_off_c, 0, 81, 64
1, 1535, Note_off_c, 0, 76, 64
1, 1536, Pitch_bend_c, 0, 8192
1, 1536, Pitch_bend_c, 0, 8192
1, 1536, Control_c, 0, 6, 12
1, 1536, Control_c, 0, 6, 12
1, 1536, Control_c, 0, 7, 100
1, 1536, Control_c, 0, 7, 100
1, 1536, Control_c, 0, 10, 64
1, 1536, Control_c, 0, 10, 64
1, 1536, Control_c, 0, 100, 0
1, 1536, Control_c, 0, 100, 0
1, 1536, Control_c, 0, 101, 0
1, 1536, Control_c, 0, 101, 0
1, 1537, Pitch_bend_c, 0, 8192
1, 1537, Control_c, 0, 6, 12
1, 1537, Control_c, 0, 7, 100
1, 1537, Control_c, 0, 10, 64
1, 1537, Control_c, 0, 100, 0
1, 1537, Control_c, 0, 101, 0
1, 0, Note_on_c, 0, 48, 62
1, 72, Note_off_c, 0, 48, 62
1, 72, Note_on_c, 0, 72, 101
1, 96, Note_on_c, 0, 55, 56
1, 96, Note_off_c, 0, 72, 101
1, 120, Note_off_c, 0, 55, 56
1, 144, Note_on_c, 0, 48, 57
1, 167, Note_off_c, 0, 48, 57
1, 167, Note_on_c, 0, 57, 47
1, 191, Note_off_c, 0, 57, 47
1, 192, Note_on_c, 0, 62, 35
1, 192, Note_on_c, 0, 67, 53
1, 216, Note_off_c, 0, 67, 53
1, 240, Note_on_c, 0, 69, 61
1, 264, Note_off_c, 0, 62, 35
1, 288, Note_on_c, 0, 62, 64
1, 288, Note_off_c, 0, 69, 61
1, 312, Note_off_c, 0, 62, 64
1, 336, Note_on_c, 0, 67, 46
1, 360, Note_on_c, 0, 60, 65
1, 360, Note_off_c, 0, 67, 46
1, 384, Note_on_c, 0, 48, 60
1, 384, Note_off_c, 0, 60, 65
1, 456, Note_off_c, 0, 48, 60
1, 456, Note_on_c, 0, 67, 87
1, 480, Note_on_c, 0, 55, 45
1, 480, Note_off_c, 0, 67, 87
1, 504, Note_off_c, 0, 55, 45
1, 528, Note_on_c, 0, 48, 60
1, 552, Note_off_c, 0, 48, 60
1, 552, Note_on_c, 0, 64, 53
1, 576, Note_on_c, 0, 50, 54
1, 576, Note_off_c, 0, 64, 53
1, 648, Note_off_c, 0, 50, 54
1, 672, Note_on_c, 0, 50, 75
1, 696, Note_off_c, 0, 50, 75
1, 720, Note_on_c, 0, 67, 79
1, 744, Note_off_c, 0, 67, 79
1, 744, Note_on_c, 0, 69, 60
1, 768, Note_on_c, 0, 48, 62
1, 768, Note_off_c, 0, 69, 60
1, 840, Note_off_c, 0, 48, 62
1, 864, Note_on_c, 0, 55, 56
1, 888, Note_off_c, 0, 55, 56
1, 912, Note_on_c, 0, 48, 57
1, 936, Note_off_c, 0, 48, 57
1, 936, Note_on_c, 0, 57, 47
1, 960, Note_off_c, 0, 57, 47
1, 960, Note_on_c, 0, 62, 35
1, 960, Note_on_c, 0, 67, 53
1, 984, Note_off_c, 0, 67, 53
1, 1008, Note_on_c, 0, 69, 61
1, 1032, Note_off_c, 0, 62, 35
1, 1056, Note_on_c, 0, 62, 64
1, 1056, Note_off_c, 0, 69, 61
1, 1080, Note_off_c, 0, 62, 64
1, 1104, Note_on_c, 0, 72, 71
1, 1128, Note_off_c, 0, 72, 71
1, 1128, Note_on_c, 0, 76, 62
1, 1152, Note_on_c, 0, 48, 60
1, 1152, Note_off_c, 0, 76, 62
1, 1224, Note_off_c, 0, 48, 60
1, 1224, Note_on_c, 0, 67, 87
1, 1248, Note_on_c, 0, 55, 45
1, 1248, Note_off_c, 0, 67, 87
1, 1272, Note_off_c, 0, 55, 45
1, 1296, Note_on_c, 0, 48, 60
1, 1320, Note_off_c, 0, 48, 60
1, 1320, Note_on_c, 0, 64, 53
1, 1344, Note_on_c, 0, 50, 54
1, 1344, Note_off_c, 0, 64, 53
1, 1416, Note_off_c, 0, 50, 54
1, 1440, Note_on_c, 0, 50, 75
1, 1464, Note_off_c, 0, 50, 66
1, 1488, Note_on_c, 0, 67, 103
1, 1512, Note_off_c, 0, 67, 103
1, 1512, Note_on_c, 0, 69, 95
1, 1536, Note_off_c, 0, 69, 95
1, 0, Note_on_c, 0, 33, 101
1, 48, Note_on_c, 0, 64, 101
1, 84, Note_off_c, 0, 64, 64
1, 93, Note_off_c, 0, 33, 64
1, 96, Note_on_c, 0, 60, 101
1, 132, Note_off_c, 0, 60, 64
1, 144, Note_on_c, 0, 33, 101
1, 189, Note_off_c, 0, 33, 64
1, 192, Note_on_c, 0, 33, 101
1, 239, Note_on_c, 0, 60, 101
1, 275, Note_off_c, 0, 60, 64
1, 279, Note_off_c, 0, 33, 64
1, 287, Note_on_c, 0, 59, 101
1, 288, Note_on_c, 0, 33, 101
1, 323, Note_off_c, 0, 59, 64
1, 336, Note_off_c, 0, 33, 64
1, 336, Note_on_c, 0, 45, 101
1, 384, Note_on_c, 0, 33, 101
1, 384, Note_off_c, 0, 45, 64
1, 431, Note_on_c, 0, 59, 101
1, 467, Note_off_c, 0, 59, 64
1, 477, Note_off_c, 0, 33, 64
1, 479, Note_on_c, 0, 57, 101
1, 515, Note_off_c, 0, 57, 64
1, 528, Note_on_c, 0, 33, 101
1, 573, Note_off_c, 0, 33, 64
1, 576, Note_on_c, 0, 33, 101
1, 623, Note_on_c, 0, 60, 101
1, 659, Note_off_c, 0, 60, 64
1, 663, Note_off_c, 0, 33, 64
1, 671, Note_on_c, 0, 59, 101
1, 672, Note_on_c, 0, 33, 101
1, 707, Note_off_c, 0, 59, 64
1, 720, Note_off_c, 0, 33, 64
1, 720, Note_on_c, 0, 45, 101
1, 768, Note_on_c, 0, 41, 101
1, 768, Note_off_c, 0, 45, 64
1, 816, Note_on_c, 0, 64, 101
1, 852, Note_off_c, 0, 64, 64
1, 861, Note_off_c, 0, 41, 64
1, 864, Note_on_c, 0, 60, 101
1, 900, Note_off_c, 0, 60, 64
1, 912, Note_on_c, 0, 41, 101
1, 957, Note_off_c, 0, 41, 64
1, 960, Note_on_c, 0, 41, 101
1, 1007, Note_on_c, 0, 60, 101
1, 1043, Note_off_c, 0, 60, 64
1, 1047, Note_off_c, 0, 41, 64
1, 1055, Note_on_c, 0, 59, 101
1, 1056, Note_on_c, 0, 41, 101
1, 1091, Note_off_c, 0, 59, 64
1, 1104, Note_on_c, 0, 40, 101
1, 1104, Note_off_c, 0, 41, 64
1, 1152, Note_on_c, 0, 38, 101
1, 1152, Note_off_c, 0, 40, 64
1, 1199, Note_on_c, 0, 62, 101
1, 1235, Note_off_c, 0, 62, 64
1, 1245, Note_off_c, 0, 38, 64
1, 1247, Note_on_c, 0, 62, 101
1, 1283, Note_off_c, 0, 62, 64
1, 1296, Note_on_c, 0, 38, 101
1, 1341, Note_off_c, 0, 38, 64
1, 1343, Note_on_c, 0, 62, 101
1, 1344, Note_on_c, 0, 38, 101
1, 1379, Note_off_c, 0, 62, 64
1, 1391, Note_on_c, 0, 60, 101
1, 1427, Note_off_c, 0, 60, 64
1, 1431, Note_off_c, 0, 38, 64
1, 1440, Note_on_c, 0, 38, 101
1, 1487, Note_on_c, 0, 59, 101
1, 1488, Note_off_c, 0, 38, 64
1, 1488, Note_on_c, 0, 50, 101
1, 1523, Note_off_c, 0, 59, 64
1, 1536, Note_off_c, 0, 50, 64
1, 0, Pitch_bend_c, 0, 8192
1, 0, Control_c, 0, 6, 12
1, 0, Control_c, 0, 7, 100
1, 0, Control_c, 0, 10, 64
1, 0, Control_c, 0, 100, 0
1, 0, Control_c, 0, 101, 0
1, 0, Note_on_c, 0, 81, 110
1, 48, Note_off_c, 0, 81, 64
1, 48, Note_on_c, 0, 88, 106
1, 96, Note_on_c, 0, 84, 105
1, 96, Note_off_c, 0, 88, 64
1, 144, Note_on_c, 0, 81, 108
1, 144, Note_off_c, 0, 84, 64
1, 192, Note_off_c, 0, 81, 64
1, 192, Note_on_c, 0, 88, 107
1, 216, Note_on_c, 0, 86, 101
1, 216, Note_off_c, 0, 88, 64
1, 240, Note_on_c, 0, 84, 101
1, 240, Note_off_c, 0, 86, 64
1, 288, Note_on_c, 0, 81, 101
1, 288, Note_off_c, 0, 84, 64
1, 336, Note_off_c, 0, 81, 64
1, 336, Note_on_c, 0, 91, 108
1, 432, Note_on_c, 0, 86, 100
1, 432, Note_off_c, 0, 91, 64
1, 480, Note_off_c, 0, 86, 64
1, 480, Note_on_c, 0, 90, 102
1, 528, Note_on_c, 0, 88, 104
1, 528, Note_off_c, 0, 90, 64
1, 624, Note_on_c, 0, 84, 102
1, 624, Note_off_c, 0, 88, 64
1, 672, Note_off_c, 0, 84, 64
1, 672, Note_on_c, 0, 86, 107
1, 696, Note_on_c, 0, 84, 106
1, 696, Note_off_c, 0, 86, 64
1, 720, Note_on_c, 0, 83, 104
1, 720, Note_off_c, 0, 84, 64
1, 768, Note_on_c, 0, 81, 101
1, 768, Note_off_c, 0, 83, 64
1, 816, Note_off_c, 0, 81, 64
1, 816, Note_on_c, 0, 88, 100
1, 864, Note_on_c, 0, 84, 102
1, 864, Note_off_c, 0, 88, 64
1, 912, Note_on_c, 0, 81, 101
1, 912, Note_off_c, 0, 84, 64
1, 936, Note_off_c, 0, 81, 64
1, 936, Note_on_c, 0, 84, 109
1, 960, Note_off_c, 0, 84, 64
1, 960, Note_on_c, 0, 86, 107
1, 1008, Note_on_c, 0, 84, 103
1, 1008, Note_off_c, 0, 86, 64
1, 1056, Note_on_c, 0, 81, 107
1, 1056, Note_off_c, 0, 84, 64
1, 1104, Note_off_c, 0, 81, 64
1, 1104, Note_on_c, 0, 83, 104
1, 1104, Note_on_c, 0, 91, 105
1, 1200, Note_off_c, 0, 83, 64
1, 1200, Note_on_c, 0, 88, 103
1, 1200, Note_off_c, 0, 91, 64
1, 1200, Note_on_c, 0, 93, 110
1, 1248, Note_on_c, 0, 86, 102
1, 1248, Note_off_c, 0, 88, 64
1, 1248, Note_off_c, 0, 93, 64
1, 1248, Note_on_c, 0, 95, 110
1, 1296, Note_on_c, 0, 85, 101
1, 1296, Note_off_c, 0, 86, 64
1, 1296, Note_on_c, 0, 93, 103
1, 1296, Note_off_c, 0, 95, 64
1, 1440, Note_on_c, 0, 76, 93
1, 1440, Note_off_c, 0, 85, 64
1, 1440, Note_off_c, 0, 93, 64
1, 1440, Note_on_c, 0, 93, 106
1, 1464, Note_off_c, 0, 76, 64
1, 1464, Note_on_c, 0, 79, 94
1, 1464, Note_on_c, 0, 91, 108
1, 1464, Note_off_c, 0, 93, 64
1, 1488, Note_off_c, 0, 79, 64
1, 1488, Note_on_c, 0, 81, 90
1, 1488, Note_on_c, 0, 88, 104
1, 1488, Note_off_c, 0, 91, 64
1, 1512, Note_off_c, 0, 81, 64
1, 1512, Note_on_c, 0, 84, 106
1, 1512, Note_off_c, 0, 88, 64
1, 1535, Note_off_c, 0, 84, 64
1, 1536, Pitch_bend_c, 0, 8192
1, 1536, Pitch_bend_c, 0, 8192
1, 1536, Control_c, 0, 6, 12
1, 1536, Control_c, 0, 6, 12
1, 1536, Control_c, 0, 7, 100
1, 1536, Control_c, 0, 7, 100
1, 1536, Control_c, 0, 10, 64
1, 1536, Control_c, 0, 10, 64
1, 1536, Control_c, 0, 100, 0
1, 1536, Control_c, 0, 100, 0
1, 1536, Control_c, 0, 101, 0
1, 1536, Control_c, 0, 101, 0
1, 1537, Pitch_bend_c, 0, 8192
1, 1537, Control_c, 0, 6, 12
1, 1537, Control_c, 0, 7, 100
1, 1537, Control_c, 0, 10, 64
1, 1537, Control_c, 0, 100, 0
1, 1537, Control_c, 0, 101, 0
1, 0, Note_on_c, 0, 33, 44
1, 48, Note_off_c, 0, 33, 44
1, 72, Note_on_c, 0, 45, 41
1, 96, Note_off_c, 0, 45, 41
1, 120, Note_on_c, 0, 52, 29
1, 168, Note_off_c, 0, 52, 29
1, 192, Note_on_c, 0, 60, 42
1, 240, Note_on_c, 0, 52, 29
1, 240, Note_off_c, 0, 60, 42
1, 288, Note_off_c, 0, 52, 29
1, 288, Note_on_c, 0, 69, 42
1, 384, Note_on_c, 0, 67, 40
1, 384, Note_off_c, 0, 69, 42
1, 432, Note_on_c, 0, 55, 30
1, 432, Note_off_c, 0, 67, 40
1, 455, Note_off_c, 0, 55, 30
1, 480, Note_on_c, 0, 60, 41
1, 504, Note_off_c, 0, 60, 41
1, 528, Note_on_c, 0, 48, 44
1, 624, Note_on_c, 0, 36, 51
1, 630, Note_off_c, 0, 48, 44
1, 696, Note_off_c, 0, 36, 51
1, 768, Note_on_c, 0, 48, 56
1, 816, Note_on_c, 0, 43, 41
1, 816, Note_off_c, 0, 48, 56
1, 840, Note_off_c, 0, 43, 41
1, 864, Note_on_c, 0, 55, 36
1, 911, Note_off_c, 0, 55, 36
1, 912, Note_on_c, 0, 65, 42
1, 960, Note_off_c, 0, 65, 42
1, 1008, Note_on_c, 0, 55, 36
1, 1056, Note_off_c, 0, 55, 36
1, 1056, Note_on_c, 0, 72, 41
1, 1152, Note_on_c, 0, 29, 35
1, 1152, Note_on_c, 0, 62, 44
1, 1152, Note_off_c, 0, 72, 41
1, 1248, Note_off_c, 0, 62, 44
1, 1344, Note_off_c, 0, 29, 35
1, 0, Control_c, 0, 1, 100
1, 0, Note_on_c, 0, 81, 104
1, 96, Note_on_c, 0, 77, 100
1, 96, Note_off_c, 0, 81, 104
1, 144, Note_off_c, 0, 77, 100
1, 144, Note_on_c, 0, 79, 94
1, 168, Note_on_c, 0, 77, 99
1, 168, Note_off_c, 0, 79, 94
1, 192, Note_off_c, 0, 77, 99
1, 192, Note_on_c, 0, 86, 104
1, 384, Note_on_c, 0, 83, 106
1, 384, Note_off_c, 0, 86, 104
1, 432, Note_on_c, 0, 81, 98
1, 432, Note_off_c, 0, 83, 106
1, 456, Note_on_c, 0, 79, 98
1, 456, Note_off_c, 0, 81, 98
1, 480, Note_off_c, 0, 79, 98
1, 480, Note_on_c, 0, 88, 101
1, 576, Note_on_c, 0, 81, 106
1, 576, Note_off_c, 0, 88, 101
1, 672, Note_on_c, 0, 72, 104
1, 672, Note_off_c, 0, 81, 106
1, 768, Note_off_c, 0, 72, 104
1, 768, Note_on_c, 0, 81, 107
1, 864, Note_on_c, 0, 77, 106
1, 864, Note_off_c, 0, 81, 107
1, 912, Note_off_c, 0, 77, 106
1, 912, Note_on_c, 0, 79, 96
1, 936, Note_on_c, 0, 77, 98
1, 936, Note_off_c, 0, 79, 96
1, 960, Note_off_c, 0, 77, 98
1, 960, Note_on_c, 0, 86, 108
1, 1152, Note_on_c, 0, 83, 103
1, 1152, Note_off_c, 0, 86, 108
1, 1200, Note_on_c, 0, 81, 102
1, 1200, Note_off_c, 0, 83, 103
1, 1224, Note_on_c, 0, 79, 96
1, 1224, Note_off_c, 0, 81, 102
1, 1248, Note_off_c, 0, 79, 96
1, 1248, Note_on_c, 0, 88, 105
1, 1344, Note_on_c, 0, 81, 104
1, 1344, Note_off_c, 0, 88, 105
1, 1440, Note_on_c, 0, 72, 101
1, 1440, Note_off_c, 0, 81, 104
1, 1533, Note_off_c, 0, 72, 101
1, 0, Channel_aftertouch_c, 0, 0
1, 0, Note_on_c, 0, 65, 64
1, 0, Note_on_c, 0, 41, 47
1, 218, Note_off_c, 0, 65, 64
1, 378, Note_off_c, 0, 41, 47
1, 380, Note_on_c, 0, 62, 71
1, 380, Note_on_c, 0, 64, 71
1, 458, Note_off_c, 0, 64, 71
1, 562, Note_off_c, 0, 62, 71
1, 581, Note_on_c, 0, 67, 72
1, 607, Note_off_c, 0, 67, 72
1, 768, Note_on_c, 0, 65, 50
1, 774, Note_on_c, 0, 50, 45
1, 778, Note_on_c, 0, 74, 77
1, 779, Note_on_c, 0, 62, 39
1, 1137, Note_off_c, 0, 62, 39
1, 1137, Note_off_c, 0, 65, 50
1, 1146, Note_off_c, 0, 50, 45
1, 1146, Note_off_c, 0, 74, 77
1, 1152, Note_on_c, 0, 74, 61
1, 1152, Note_on_c, 0, 76, 36
1, 1530, Note_off_c, 0, 74, 61
1, 1530, Note_off_c, 0, 76, 36
1, 0, Pitch_bend_c, 0, 8192
1, 0, Control_c, 0, 6, 12
1, 0, Control_c, 0, 7, 100
1, 0, Control_c, 0, 10, 64
1, 0, Control_c, 0, 100, 0
1, 0, Control_c, 0, 101, 0
1, 0, Note_on_c, 0, 57, 127
1, 72, Note_off_c, 0, 57, 64
1, 72, Note_on_c, 0, 69, 127
1, 96, Note_on_c, 0, 57, 127
1, 96, Note_off_c, 0, 69, 64
1, 144, Note_off_c, 0, 57, 64
1, 144, Note_on_c, 0, 69, 127
1, 192, Note_on_c, 0, 57, 127
1, 192, Note_off_c, 0, 69, 64
1, 264, Note_off_c, 0, 57, 64
1, 264, Note_on_c, 0, 69, 127
1, 288, Note_on_c, 0, 57, 127
1, 288, Note_off_c, 0, 69, 64
1, 336, Note_off_c, 0, 57, 64
1, 336, Note_on_c, 0, 69, 127
1, 384, Note_on_c, 0, 52, 127
1, 384, Note_off_c, 0, 69, 64
1, 456, Note_off_c, 0, 52, 64
1, 456, Note_on_c, 0, 60, 127
1, 480, Note_on_c, 0, 52, 127
1, 480, Note_off_c, 0, 60, 64
1, 528, Note_off_c, 0, 52, 64
1, 528, Note_on_c, 0, 60, 127
1, 576, Note_on_c, 0, 52, 127
1, 576, Note_off_c, 0, 60, 64
1, 624, Note_off_c, 0, 52, 64
1, 624, Note_on_c, 0, 60, 127
1, 648, Note_off_c, 0, 60, 64
1, 648, Note_on_c, 0, 71, 127
1, 672, Note_on_c, 0, 59, 127
1, 672, Note_off_c, 0, 71, 64
1, 696, Note_off_c, 0, 59, 64
1, 696, Note_on_c, 0, 67, 127
1, 720, Note_off_c, 0, 67, 64
1, 720, Note_on_c, 0, 69, 127
1, 744, Note_on_c, 0, 64, 127
1, 744, Note_off_c, 0, 69, 64
1, 768, Note_on_c, 0, 57, 127
1, 768, Note_off_c, 0, 64, 64
1, 840, Note_off_c, 0, 57, 64
1, 840, Note_on_c, 0, 69, 127
1, 864, Note_on_c, 0, 57, 127
1, 864, Note_off_c, 0, 69, 64
1, 912, Note_off_c, 0, 57, 64
1, 912, Note_on_c, 0, 69, 127
1, 960, Note_on_c, 0, 57, 127
1, 960, Note_off_c, 0, 69, 64
1, 1032, Note_off_c, 0, 57, 64
1, 1032, Note_on_c, 0, 69, 127
1, 1056, Note_on_c, 0, 57, 127
1, 1056, Note_off_c, 0, 69, 64
1, 1104, Note_off_c, 0, 57, 64
1, 1104, Note_on_c, 0, 69, 127
1, 1152, Note_on_c, 0, 52, 127
1, 1152, Note_off_c, 0, 69, 64
1, 1224, Note_off_c, 0, 52, 64
1, 1224, Note_on_c, 0, 60, 127
1, 1248, Note_on_c, 0, 52, 127
1, 1248, Note_off_c, 0, 60, 64
1, 1296, Note_off_c, 0, 52, 64
1, 1296, Note_on_c, 0, 60, 127
1, 1344, Note_on_c, 0, 52, 127
1, 1344, Note_off_c, 0, 60, 64
1, 1368, Note_off_c, 0, 52, 64
1, 1368, Note_on_c, 0, 72, 127
1, 1392, Note_on_c, 0, 60, 127
1, 1392, Note_off_c, 0, 72, 64
1, 1416, Note_off_c, 0, 60, 64
1, 1416, Note_on_c, 0, 71, 127
1, 1440, Note_on_c, 0, 55, 127
1, 1440, Note_off_c, 0, 71, 64
1, 1464, Note_off_c, 0, 55, 64
1, 1464, Note_on_c, 0, 64, 127
1, 1488, Note_off_c, 0, 64, 64
1, 1488, Note_on_c, 0, 69, 127
1, 1535, Pitch_bend_c, 0, 8192
1, 1535, Pitch_bend_c, 0, 8192
1, 1535, Control_c, 0, 7, 100
1, 1535, Control_c, 0, 7, 100
1, 1535, Control_c, 0, 10, 64
1, 1535, Control_c, 0, 10, 64
1, 1535, Note_off_c, 0, 69, 64
1, 1536, Pitch_bend_c, 0, 8192
1, 1536, Control_c, 0, 6, 12
1, 1536, Control_c, 0, 6, 12
1, 1536, Control_c, 0, 7, 100
1, 1536, Control_c, 0, 10, 64
1, 1536, Control_c, 0, 100, 0
1, 1536, Control_c, 0, 100, 0
1, 1536, Control_c, 0, 101, 0
1, 1536, Control_c, 0, 101, 0
1, 0, Pitch_bend_c, 0, 8192
1, 0, Control_c, 0, 6, 12
1, 0, Control_c, 0, 7, 100
1, 0, Control_c, 0, 10, 64
1, 0, Control_c, 0, 100, 0
1, 0, Control_c, 0, 101, 0
1, 0, Note_on_c, 0, 57, 127
1, 48, Note_off_c, 0, 57, 64
1, 96, Note_on_c, 0, 57, 127
1, 144, Note_off_c, 0, 57, 64
1, 144, Note_on_c, 0, 60, 127
1, 192, Note_off_c, 0, 60, 64
1, 192, Note_on_c, 0, 67, 127
1, 240, Note_off_c, 0, 67, 64
1, 264, Note_on_c, 0, 64, 127
1, 312, Note_off_c, 0, 64, 64
1, 336, Note_on_c, 0, 60, 127
1, 384, Note_off_c, 0, 60, 64
1, 480, Note_on_c, 0, 55, 127
1, 528, Note_off_c, 0, 55, 64
1, 528, Note_on_c, 0, 60, 127
1, 576, Note_off_c, 0, 60, 64
1, 576, Note_on_c, 0, 69, 127
1, 624, Note_off_c, 0, 69, 64
1, 648, Note_on_c, 0, 67, 127
1, 696, Note_off_c, 0, 67, 64
1, 720, Note_on_c, 0, 64, 127
1, 768, Note_on_c, 0, 57, 127
1, 768, Note_off_c, 0, 64, 64
1, 816, Note_off_c, 0, 57, 64
1, 864, Note_on_c, 0, 57, 127
1, 912, Note_off_c, 0, 57, 64
1, 912, Note_on_c, 0, 60, 127
1, 960, Note_off_c, 0, 60, 64
1, 960, Note_on_c, 0, 67, 127
1, 1008, Note_off_c, 0, 67, 64
1, 1032, Note_on_c, 0, 64, 127
1, 1080, Note_off_c, 0, 64, 64
1, 1104, Note_on_c, 0, 60, 127
1, 1152, Note_off_c, 0, 60, 64
1, 1152, Note_on_c, 0, 72, 127
1, 1200, Note_off_c, 0, 72, 64
1, 1224, Note_on_c, 0, 71, 127
1, 1272, Note_off_c, 0, 71, 64
1, 1296, Note_on_c, 0, 67, 127
1, 1344, Note_off_c, 0, 67, 64
1, 1392, Note_on_c, 0, 64, 127
1, 1440, Note_off_c, 0, 64, 64
1, 1535, Pitch_bend_c, 0, 8192
1, 1535, Pitch_bend_c, 0, 8192
1, 1535, Control_c, 0, 7, 100
1, 1535, Control_c, 0, 7, 100
1, 1535, Control_c, 0, 10, 64
1, 1535, Control_c, 0, 10, 64
1, 1536, Pitch_bend_c, 0, 8192
1, 1536, Control_c, 0, 6, 12
1, 1536, Control_c, 0, 6, 12
1, 1536, Control_c, 0, 7, 100
1, 1536, Control_c, 0, 10, 64
1, 1536, Control_c, 0, 100, 0
1, 1536, Control_c, 0, 100, 0
1, 1536, Control_c, 0, 101, 0
1, 1536, Control_c, 0, 101, 0
1, 0, Pitch_bend_c, 0, 8192
1, 0, Control_c, 0, 6, 12
1, 0, Control_c, 0, 7, 100
1, 0, Control_c, 0, 10, 64
1, 0, Control_c, 0, 100, 0
1, 0, Control_c, 0, 101, 0
1, 0, Note_on_c, 0, 57, 100
1, 0, Note_on_c, 0, 67, 100
1, 24, Note_off_c, 0, 57, 64
1, 24, Note_off_c, 0, 67, 64
1, 48, Note_on_c, 0, 60, 100
1, 72, Note_off_c, 0, 60, 64
1, 72, Note_on_c, 0, 64, 100
1, 96, Note_off_c, 0, 64, 64
1, 144, Note_on_c, 0, 67, 100
1, 168, Note_off_c, 0, 67, 64
1, 192, Note_on_c, 0, 64, 100
1, 192, Note_on_c, 0, 69, 100
1, 216, Note_off_c, 0, 64, 64
1, 216, Note_off_c, 0, 69, 64
1, 240, Note_on_c, 0, 60, 100
1, 264, Note_off_c, 0, 60, 64
1, 264, Note_on_c, 0, 64, 100
1, 288, Note_off_c, 0, 64, 64
1, 336, Note_on_c, 0, 59, 100
1, 360, Note_off_c, 0, 59, 64
1, 384, Note_on_c, 0, 55, 100
1, 384, Note_on_c, 0, 67, 100
1, 408, Note_off_c, 0, 55, 64
1, 408, Note_off_c, 0, 67, 64
1, 432, Note_on_c, 0, 60, 100
1, 456, Note_on_c, 0, 59, 100
1, 456, Note_off_c, 0, 60, 64
1, 480, Note_off_c, 0, 59, 64
1, 528, Note_on_c, 0, 67, 100
1, 552, Note_off_c, 0, 67, 64
1, 576, Note_on_c, 0, 57, 100
1, 576, Note_on_c, 0, 65, 100
1, 600, Note_off_c, 0, 57, 64
1, 600, Note_off_c, 0, 65, 64
1, 624, Note_on_c, 0, 60, 100
1, 648, Note_on_c, 0, 57, 100
1, 648, Note_off_c, 0, 60, 64
1, 648, Note_on_c, 0, 65, 100
1, 672, Note_off_c, 0, 57, 64
1, 672, Note_off_c, 0, 65, 64
1, 696, Note_on_c, 0, 62, 100
1, 720, Note_off_c, 0, 62, 64
1, 720, Note_on_c, 0, 64, 100
1, 744, Note_off_c, 0, 64, 64
1, 768, Note_on_c, 0, 57, 100
1, 768, Note_on_c, 0, 67, 100
1, 792, Note_off_c, 0, 57, 64
1, 792, Note_off_c, 0, 67, 64
1, 816, Note_on_c, 0, 60, 100
1, 840, Note_off_c, 0, 60, 64
1, 840, Note_on_c, 0, 64, 100
1, 864, Note_off_c, 0, 64, 64
1, 912, Note_on_c, 0, 67, 100
1, 936, Note_off_c, 0, 67, 64
1, 960, Note_on_c, 0, 64, 100
1, 960, Note_on_c, 0, 69, 100
1, 984, Note_off_c, 0, 64, 64
1, 984, Note_off_c, 0, 69, 64
1, 1008, Note_on_c, 0, 60, 100
1, 1032, Note_off_c, 0, 60, 64
1, 1032, Note_on_c, 0, 64, 100
1, 1056, Note_off_c, 0, 64, 64
1, 1104, Note_on_c, 0, 59, 100
1, 1128, Note_off_c, 0, 59, 64
1, 1152, Note_on_c, 0, 55, 100
1, 1152, Note_on_c, 0, 67, 100
1, 1176, Note_off_c, 0, 55, 64
1, 1176, Note_off_c, 0, 67, 64
1, 1200, Note_on_c, 0, 60, 100
1, 1224, Note_on_c, 0, 59, 100
1, 1224, Note_off_c, 0, 60, 64
1, 1248, Note_off_c, 0, 59, 64
1, 1272, Note_on_c, 0, 69, 100
1, 1296, Note_on_c, 0, 67, 100
1, 1296, Note_off_c, 0, 69, 64
1, 1320, Note_off_c, 0, 67, 64
1, 1344, Note_on_c, 0, 57, 100
1, 1344, Note_on_c, 0, 65, 100
1, 1368, Note_off_c, 0, 57, 64
1, 1368, Note_off_c, 0, 65, 64
1, 1392, Note_on_c, 0, 60, 100
1, 1416, Note_on_c, 0, 57, 100
1, 1416, Note_off_c, 0, 60, 64
1, 1416, Note_on_c, 0, 65, 100
1, 1440, Note_on_c, 0, 55, 100
1, 1440, Note_off_c, 0, 57, 64
1, 1440, Note_off_c, 0, 65, 64
1, 1464, Note_off_c, 0, 55, 64
1, 1464, Note_on_c, 0, 60, 100
1, 1488, Note_off_c, 0, 60, 64
1, 1488, Note_on_c, 0, 62, 100
1, 1512, Note_off_c, 0, 62, 64
1, 1512, Note_on_c, 0, 64, 100
1, 1535, Pitch_bend_c, 0, 8192
1, 1535, Pitch_bend_c, 0, 8192
1, 1535, Control_c, 0, 7, 100
1, 1535, Control_c, 0, 7, 100
1, 1535, Control_c, 0, 10, 64
1, 1535, Control_c, 0, 10, 64
1, 1535, Note_off_c, 0, 64, 64
1, 1536, Pitch_bend_c, 0, 8192
1, 1536, Control_c, 0, 6, 12
1, 1536, Control_c, 0, 6, 12
1, 1536, Control_c, 0, 7, 100
1, 1536, Control_c, 0, 10, 64
1, 1536, Control_c, 0, 100, 0
1, 1536, Control_c, 0, 100, 0
1, 1536, Control_c, 0, 101, 0
1, 1536, Control_c, 0, 101, 0
1, 0, Pitch_bend_c, 0, 8192
1, 0, Control_c, 0, 6, 12
1, 0, Control_c, 0, 7, 100
1, 0, Control_c, 0, 10, 64
1, 0, Control_c, 0, 100, 0
1, 0, Control_c, 0, 101, 0
1, 0, Note_on_c, 0, 76, 105
1, 12, Note_on_c, 0, 81, 105
1, 24, Note_on_c, 0, 84, 105
1, 36, Note_on_c, 0, 88, 105
1, 48, Note_off_c, 0, 76, 64
1, 48, Note_on_c, 0, 91, 105
1, 60, Note_off_c, 0, 81, 64
1, 72, Note_off_c, 0, 84, 64
1, 84, Note_off_c, 0, 88, 64
1, 96, Note_on_c, 0, 88, 105
1, 96, Note_off_c, 0, 91, 64
1, 144, Note_on_c, 0, 84, 105
1, 144, Note_off_c, 0, 88, 64
1, 192, Note_on_c, 0, 83, 105
1, 192, Note_off_c, 0, 84, 64
1, 240, Note_on_c, 0, 79, 105
1, 240, Note_off_c, 0, 83, 64
1, 252, Note_on_c, 0, 83, 105
1, 264, Note_on_c, 0, 86, 105
1, 276, Note_on_c, 0, 88, 105
1, 288, Note_off_c, 0, 79, 64
1, 288, Note_on_c, 0, 91, 105
1, 300, Note_off_c, 0, 83, 64
1, 312, Note_off_c, 0, 86, 64
1, 324, Note_off_c, 0, 88, 64
1, 336, Note_off_c, 0, 91, 64
1, 384, Note_on_c, 0, 72, 105
1, 408, Note_on_c, 0, 81, 105
1, 420, Note_on_c, 0, 84, 105
1, 432, Note_off_c, 0, 72, 64
1, 432, Note_on_c, 0, 88, 105
1, 456, Note_off_c, 0, 81, 64
1, 468, Note_off_c, 0, 84, 64
1, 480, Note_on_c, 0, 86, 105
1, 480, Note_off_c, 0, 88, 64
1, 528, Note_on_c, 0, 84, 105
1, 528, Note_off_c, 0, 86, 64
1, 576, Note_on_c, 0, 83, 105
1, 576, Note_off_c, 0, 84, 64
1, 624, Note_on_c, 0, 67, 105
1, 624, Note_off_c, 0, 83, 64
1, 648, Note_on_c, 0, 74, 105
1, 660, Note_on_c, 0, 79, 105
1, 672, Note_off_c, 0, 67, 64
1, 672, Note_on_c, 0, 84, 105
1, 696, Note_off_c, 0, 74, 64
1, 708, Note_off_c, 0, 79, 64
1, 720, Note_on_c, 0, 83, 105
1, 720, Note_off_c, 0, 84, 64
1, 768, Note_on_c, 0, 76, 105
1, 768, Note_off_c, 0, 83, 64
1, 780, Note_on_c, 0, 81, 105
1, 792, Note_on_c, 0, 84, 105
1, 804, Note_on_c, 0, 88, 105
1, 816, Note_off_c, 0, 76, 64
1, 816, Note_on_c, 0, 91, 105
1, 828, Note_off_c, 0, 81, 64
1, 840, Note_off_c, 0, 84, 64
1, 852, Note_off_c, 0, 88, 64
1, 864, Note_on_c, 0, 88, 105
1, 864, Note_off_c, 0, 91, 64
1, 912, Note_on_c, 0, 84, 105
1, 912, Note_off_c, 0, 88, 64
1, 960, Note_on_c, 0, 83, 105
1, 960, Note_off_c, 0, 84, 64
1, 1008, Note_on_c, 0, 79, 105
1, 1008, Note_off_c, 0, 83, 64
1, 1020, Note_on_c, 0, 83, 105
1, 1032, Note_on_c, 0, 86, 105
1, 1044, Note_on_c, 0, 88, 105
1, 1056, Note_off_c, 0, 79, 64
1, 1056, Note_on_c, 0, 91, 105
1, 1068, Note_off_c, 0, 83, 64
1, 1080, Note_off_c, 0, 86, 64
1, 1092, Note_off_c, 0, 88, 64
1, 1104, Note_off_c, 0, 91, 64
1, 1152, Note_on_c, 0, 72, 105
1, 1164, Note_on_c, 0, 76, 105
1, 1176, Note_on_c, 0, 81, 105
1, 1188, Note_on_c, 0, 84, 105
1, 1200, Note_off_c, 0, 72, 64
1, 1200, Note_on_c, 0, 88, 105
1, 1212, Note_off_c, 0, 76, 64
1, 1224, Note_off_c, 0, 81, 64
1, 1236, Note_off_c, 0, 84, 64
1, 1248, Note_off_c, 0, 88, 64
1, 1248, Note_on_c, 0, 91, 105
1, 1296, Note_on_c, 0, 88, 105
1, 1296, Note_off_c, 0, 91, 64
1, 1344, Note_on_c, 0, 86, 105
1, 1344, Note_off_c, 0, 88, 64
1, 1392, Note_on_c, 0, 74, 105
1, 1392, Note_off_c, 0, 86, 64
1, 1416, Note_on_c, 0, 79, 105
1, 1440, Note_off_c, 0, 74, 64
1, 1440, Note_on_c, 0, 83, 105
1, 1440, Note_on_c, 0, 86, 105
1, 1464, Note_off_c, 0, 79, 64
1, 1488, Note_on_c, 0, 81, 105
1, 1488, Note_off_c, 0, 83, 64
1, 1488, Note_on_c, 0, 84, 105
1, 1488, Note_off_c, 0, 86, 64
1, 1535, Pitch_bend_c, 0, 8192
1, 1535, Pitch_bend_c, 0, 8192
1, 1535, Control_c, 0, 7, 100
1, 1535, Control_c, 0, 7, 100
1, 1535, Control_c, 0, 10, 64
1, 1535, Control_c, 0, 10, 64
1, 1535, Note_off_c, 0, 81, 64
1, 1535, Note_off_c, 0, 84, 64
1, 1536, Pitch_bend_c, 0, 8192
1, 1536, Control_c, 0, 6, 12
1, 1536, Control_c, 0, 6, 12
1, 1536, Control_c, 0, 7, 100
1, 1536, Control_c, 0, 10, 64
1, 1536, Control_c, 0, 100, 0
1, 1536, Control_c, 0, 100, 0
1, 1536, Control_c, 0, 101, 0
1, 1536, Control_c, 0, 101, 0
1, 0, Pitch_bend_c, 0, 8192
1, 0, Control_c, 0, 6, 12
1, 0, Control_c, 0, 7, 100
1, 0, Control_c, 0, 10, 64
1, 0, Control_c, 0, 100, 0
1, 0, Control_c, 0, 101, 0
1, 0, Note_on_c, 0, 78, 105
1, 48, Note_on_c, 0, 73, 105
1, 48, Note_off_c, 0, 78, 64
1, 96, Note_on_c, 0, 66, 105
1, 96, Note_off_c, 0, 73, 64
1, 144, Note_off_c, 0, 66, 64
1, 144, Note_on_c, 0, 78, 105
1, 192, Note_off_c, 0, 78, 64
1, 192, Note_on_c, 0, 82, 105
1, 192, Note_on_c, 0, 85, 105
1, 288, Note_off_c, 0, 82, 64
1, 288, Note_on_c, 0, 83, 105
1, 288, Note_off_c, 0, 85, 64
1, 288, Note_on_c, 0, 87, 105
1, 384, Note_on_c, 0, 78, 105
1, 384, Note_off_c, 0, 83, 64
1, 384, Note_off_c, 0, 87, 64
1, 432, Note_on_c, 0, 73, 105
1, 432, Note_off_c, 0, 78, 64
1, 480, Note_off_c, 0, 73, 64
1, 480, Note_on_c, 0, 78, 105
1, 528, Note_off_c, 0, 78, 64
1, 528, Note_on_c, 0, 80, 105
1, 576, Note_off_c, 0, 80, 64
1, 576, Note_on_c, 0, 83, 105
1, 576, Note_on_c, 0, 87, 105
1, 672, Note_on_c, 0, 82, 105
1, 672, Note_off_c, 0, 83, 64
1, 672, Note_on_c, 0, 85, 105
1, 672, Note_off_c, 0, 87, 64
1, 768, Note_on_c, 0, 78, 105
1, 768, Note_off_c, 0, 82, 64
1, 768, Note_off_c, 0, 85, 64
1, 816, Note_on_c, 0, 73, 105
1, 816, Note_off_c, 0, 78, 64
1, 864, Note_on_c, 0, 66, 105
1, 864, Note_off_c, 0, 73, 64
1, 912, Note_off_c, 0, 66, 64
1, 912, Note_on_c, 0, 78, 105
1, 960, Note_off_c, 0, 78, 64
1, 960, Note_on_c, 0, 82, 105
1, 960, Note_on_c, 0, 85, 105
1, 1056, Note_off_c, 0, 82, 64
1, 1056, Note_on_c, 0, 83, 105
1, 1056, Note_off_c, 0, 85, 64
1, 1056, Note_on_c, 0, 87, 105
1, 1152, Note_on_c, 0, 82, 105
1, 1152, Note_off_c, 0, 83, 64
1, 1152, Note_on_c, 0, 85, 105
1, 1152, Note_off_c, 0, 87, 64
1, 1248, Note_on_c, 0, 80, 105
1, 1248, Note_off_c, 0, 82, 64
1, 1248, Note_on_c, 0, 83, 105
1, 1248, Note_off_c, 0, 85, 64
1, 1296, Note_on_c, 0, 73, 105
1, 1296, Note_off_c, 0, 80, 64
1, 1344, Note_off_c, 0, 73, 64
1, 1344, Note_on_c, 0, 77, 105
1, 1344, Note_on_c, 0, 80, 105
1, 1344, Note_off_c, 0, 83, 64
1, 1440, Note_on_c, 0, 73, 105
1, 1440, Note_off_c, 0, 77, 64
1, 1440, Note_on_c, 0, 78, 105
1, 1440, Note_off_c, 0, 80, 64
1, 1534, Pitch_bend_c, 0, 8192
1, 1534, Pitch_bend_c, 0, 8192
1, 1534, Control_c, 0, 7, 100
1, 1534, Control_c, 0, 7, 100
1, 1534, Control_c, 0, 10, 64
1, 1534, Control_c, 0, 10, 64
1, 1534, Note_off_c, 0, 73, 64
1, 1534, Note_off_c, 0, 78, 64
1, 1536, Pitch_bend_c, 0, 8192
1, 1536, Control_c, 0, 6, 12
1, 1536, Control_c, 0, 7, 100
1, 1536, Control_c, 0, 10, 64
1, 1536, Control_c, 0, 100, 0
1, 1536, Control_c, 0, 101, 0
1, 0, Pitch_bend_c, 0, 8192
1, 0, Control_c, 0, 6, 12
1, 0, Control_c, 0, 7, 100
1, 0, Control_c, 0, 10, 64
1, 0, Control_c, 0, 100, 0
1, 0, Control_c, 0, 101, 0
1, 0, Note_on_c, 0, 64, 100
1, 0, Note_on_c, 0, 69, 100
1, 0, Note_on_c, 0, 72, 100
1, 48, Note_off_c, 0, 64, 64
1, 48, Note_off_c, 0, 69, 64
1, 48, Note_off_c, 0, 72, 64
1, 48, Note_on_c, 0, 74, 100
1, 96, Note_off_c, 0, 74, 64
1, 96, Note_on_c, 0, 76, 100
1, 144, Note_on_c, 0, 62, 100
1, 144, Note_on_c, 0, 67, 100
1, 144, Note_on_c, 0, 71, 100
1, 144, Note_off_c, 0, 76, 64
1, 192, Note_off_c, 0, 62, 64
1, 192, Note_off_c, 0, 67, 64
1, 192, Note_off_c, 0, 71, 64
1, 192, Note_on_c, 0, 74, 100
1, 240, Note_off_c, 0, 74, 64
1, 240, Note_on_c, 0, 76, 100
1, 288, Note_on_c, 0, 60, 100
1, 288, Note_on_c, 0, 65, 100
1, 288, Note_on_c, 0, 69, 100
1, 288, Note_off_c, 0, 76, 64
1, 336, Note_off_c, 0, 60, 64
1, 336, Note_off_c, 0, 65, 64
1, 336, Note_off_c, 0, 69, 64
1, 336, Note_on_c, 0, 71, 100
1, 384, Note_off_c, 0, 71, 64
1, 384, Note_on_c, 0, 72, 100
1, 432, Note_off_c, 0, 72, 64
1, 432, Note_on_c, 0, 74, 100
1, 480, Note_on_c, 0, 60, 100
1, 480, Note_on_c, 0, 65, 100
1, 480, Note_on_c, 0, 69, 100
1, 480, Note_off_c, 0, 74, 64
1, 528, Note_off_c, 0, 60, 64
1, 528, Note_off_c, 0, 65, 64
1, 528, Note_off_c, 0, 69, 64
1, 528, Note_on_c, 0, 71, 100
1, 576, Note_off_c, 0, 71, 64
1, 576, Note_on_c, 0, 72, 100
1, 624, Note_on_c, 0, 60, 100
1, 624, Note_on_c, 0, 65, 100
1, 624, Note_on_c, 0, 69, 100
1, 624, Note_off_c, 0, 72, 64
1, 672, Note_off_c, 0, 60, 64
1, 672, Note_off_c, 0, 65, 64
1, 672, Note_off_c, 0, 69, 64
1, 672, Note_on_c, 0, 71, 100
1, 720, Note_off_c, 0, 71, 64
1, 720, Note_on_c, 0, 72, 100
1, 768, Note_on_c, 0, 60, 100
1, 768, Note_on_c, 0, 65, 100
1, 768, Note_on_c, 0, 69, 100
1, 768, Note_off_c, 0, 72, 64
1, 816, Note_off_c, 0, 60, 64
1, 816, Note_off_c, 0, 65, 64
1, 816, Note_off_c, 0, 69, 64
1, 816, Note_on_c, 0, 71, 100
1, 864, Note_off_c, 0, 71, 64
1, 864, Note_on_c, 0, 72, 100
1, 912, Note_on_c, 0, 62, 100
1, 912, Note_on_c, 0, 67, 100
1, 912, Note_on_c, 0, 71, 100
1, 912, Note_off_c, 0, 72, 64
1, 960, Note_off_c, 0, 62, 64
1, 960, Note_off_c, 0, 67, 64
1, 960, Note_off_c, 0, 71, 64
1, 960, Note_on_c, 0, 74, 100
1, 1008, Note_off_c, 0, 74, 64
1, 1008, Note_on_c, 0, 76, 100
1, 1056, Note_on_c, 0, 64, 100
1, 1056, Note_on_c, 0, 69, 100
1, 1056, Note_on_c, 0, 72, 100
1, 1056, Note_off_c, 0, 76, 64
1, 1104, Note_off_c, 0, 64, 64
1, 1104, Note_off_c, 0, 69, 64
1, 1104, Note_off_c, 0, 72, 64
1, 1104, Note_on_c, 0, 76, 100
1, 1152, Note_off_c, 0, 76, 64
1, 1152, Note_on_c, 0, 79, 100
1, 1200, Note_on_c, 0, 76, 100
1, 1200, Note_off_c, 0, 79, 64
1, 1248, Note_on_c, 0, 64, 100
1, 1248, Note_on_c, 0, 69, 100
1, 1248, Note_on_c, 0, 72, 100
1, 1248, Note_off_c, 0, 76, 64
1, 1296, Note_off_c, 0, 64, 64
1, 1296, Note_off_c, 0, 69, 64
1, 1296, Note_off_c, 0, 72, 64
1, 1296, Note_on_c, 0, 76, 100
1, 1344, Note_off_c, 0, 76, 64
1, 1344, Note_on_c, 0, 79, 100
1, 1392, Note_on_c, 0, 76, 100
1, 1392, Note_off_c, 0, 79, 64
1, 1440, Note_on_c, 0, 64, 100
1, 1440, Note_on_c, 0, 69, 100
1, 1440, Note_on_c, 0, 72, 100
1, 1440, Note_off_c, 0, 76, 64
1, 1488, Note_off_c, 0, 64, 64
1, 1488, Note_off_c, 0, 69, 64
1, 1488, Note_off_c, 0, 72, 64
1, 1488, Note_on_c, 0, 74, 100
1, 1536, Note_off_c, 0, 74, 64
1, 3072, Pitch_bend_c, 0, 8192
1, 3072, Pitch_bend_c, 0, 8192
1, 3072, Control_c, 0, 6, 12
1, 3072, Control_c, 0, 6, 12
1, 3072, Control_c, 0, 7, 100
1, 3072, Control_c, 0, 7, 100
1, 3072, Control_c, 0, 10, 64
1, 3072, Control_c, 0, 10, 64
1, 3072, Control_c, 0, 100, 0
1, 3072, Control_c, 0, 100, 0
1, 3072, Control_c, 0, 101, 0
1, 3072, Control_c, 0, 101, 0
1, 0, Note_on_c, 0, 45, 62
1, 0, Note_on_c, 0, 57, 62
1, 0, Note_on_c, 0, 60, 60
1, 0, Note_on_c, 0, 64, 65
1, 0, Note_on_c, 0, 72, 65
1, 96, Note_off_c, 0, 45, 64
1, 96, Note_off_c, 0, 57, 64
1, 96, Note_off_c, 0, 60, 64
1, 96, Note_off_c, 0, 64, 64
1, 96, Note_off_c, 0, 72, 64
1, 144, Note_on_c, 0, 45, 62
1, 144, Note_on_c, 0, 57, 62
1, 144, Note_on_c, 0, 60, 60
1, 144, Note_on_c, 0, 64, 65
1, 144, Note_on_c, 0, 72, 65
1, 240, Note_off_c, 0, 45, 64
1, 240, Note_off_c, 0, 57, 64
1, 240, Note_off_c, 0, 60, 64
1, 240, Note_off_c, 0, 64, 64
1, 240, Note_off_c, 0, 72, 64
1, 288, Note_on_c, 0, 45, 62
1, 288, Note_on_c, 0, 57, 62
1, 288, Note_on_c, 0, 60, 60
1, 288, Note_on_c, 0, 64, 65
1, 288, Note_on_c, 0, 72, 65
1, 384, Note_off_c, 0, 45, 64
1, 384, Note_off_c, 0, 57, 64
1, 384, Note_off_c, 0, 60, 64
1, 384, Note_off_c, 0, 64, 64
1, 384, Note_off_c, 0, 72, 64
1, 432, Note_on_c, 0, 45, 62
1, 432, Note_on_c, 0, 57, 62
1, 432, Note_on_c, 0, 60, 60
1, 432, Note_on_c, 0, 64, 65
1, 432, Note_on_c, 0, 72, 65
1, 528, Note_off_c, 0, 45, 64
1, 528, Note_off_c, 0, 57, 64
1, 528, Note_off_c, 0, 60, 64
1, 528, Note_off_c, 0, 64, 64
1, 528, Note_off_c, 0, 72, 64
1, 576, Note_on_c, 0, 45, 62
1, 576, Note_on_c, 0, 57, 62
1, 576, Note_on_c, 0, 60, 60
1, 576, Note_on_c, 0, 64, 65
1, 576, Note_on_c, 0, 72, 65
1, 672, Note_off_c, 0, 45, 64
1, 672, Note_off_c, 0, 57, 64
1, 672, Note_off_c, 0, 60, 64
1, 672, Note_off_c, 0, 64, 64
1, 672, Note_off_c, 0, 72, 64
1, 720, Note_on_c, 0, 45, 62
1, 720, Note_on_c, 0, 57, 62
1, 720, Note_on_c, 0, 60, 60
1, 720, Note_on_c, 0, 64, 65
1, 768, Note_off_c, 0, 45, 64
1, 768, Note_on_c, 0, 48, 62
1, 768, Note_off_c, 0, 57, 64
1, 768, Note_off_c, 0, 60, 64
1, 768, Note_on_c, 0, 60, 62
1, 768, Note_off_c, 0, 64, 64
1, 768, Note_on_c, 0, 64, 60
1, 768, Note_on_c, 0, 67, 65
1, 768, Note_on_c, 0, 74, 65
1, 864, Note_off_c, 0, 48, 64
1, 864, Note_off_c, 0, 60, 64
1, 864, Note_off_c, 0, 64, 64
1, 864, Note_off_c, 0, 67, 64
1, 864, Note_off_c, 0, 74, 64
1, 912, Note_on_c, 0, 48, 62
1, 912, Note_on_c, 0, 60, 62
1, 912, Note_on_c, 0, 64, 60
1, 912, Note_on_c, 0, 67, 65
1, 912, Note_on_c, 0, 74, 65
1, 1008, Note_off_c, 0, 48, 64
1, 1008, Note_off_c, 0, 60, 64
1, 1008, Note_off_c, 0, 64, 64
1, 1008, Note_off_c, 0, 67, 64
1, 1008, Note_off_c, 0, 74, 64
1, 1056, Note_on_c, 0, 50, 53
1, 1056, Note_on_c, 0, 62, 53
1, 1056, Note_on_c, 0, 65, 76
1, 1056, Note_on_c, 0, 69, 65
1, 1056, Note_on_c, 0, 72, 65
1, 1152, Note_off_c, 0, 50, 64
1, 1152, Note_off_c, 0, 62, 64
1, 1152, Note_off_c, 0, 65, 64
1, 1152, Note_off_c, 0, 69, 64
1, 1152, Note_off_c, 0, 72, 64
1, 1200, Note_on_c, 0, 50, 53
1, 1200, Note_on_c, 0, 62, 53
1, 1200, Note_on_c, 0, 65, 76
1, 1200, Note_on_c, 0, 69, 65
1, 1200, Note_on_c, 0, 72, 65
1, 1296, Note_off_c, 0, 50, 64
1, 1296, Note_off_c, 0, 62, 64
1, 1296, Note_off_c, 0, 65, 64
1, 1296, Note_off_c, 0, 69, 64
1, 1296, Note_off_c, 0, 72, 64
1, 1344, Note_on_c, 0, 50, 53
1, 1344, Note_on_c, 0, 62, 53
1, 1344, Note_on_c, 0, 65, 76
1, 1344, Note_on_c, 0, 69, 65
1, 1344, Note_on_c, 0, 72, 65
1, 1440, Note_off_c, 0, 50, 64
1, 1440, Note_off_c, 0, 62, 64
1, 1440, Note_off_c, 0, 65, 64
1, 1440, Note_off_c, 0, 69, 64
1, 1440, Note_off_c, 0, 72, 64
1, 1488, Note_on_c, 0, 50, 53
1, 1488, Note_on_c, 0, 62, 53
1, 1488, Note_on_c, 0, 65, 76
1, 1488, Note_on_c, 0, 69, 65
1, 1488, Note_on_c, 0, 72, 65
1, 1536, Note_off_c, 0, 50, 64
1, 1536, Note_off_c, 0, 62, 64
1, 1536, Note_off_c, 0, 65, 64
1, 1536, Note_off_c, 0, 69, 64
1, 1536, Note_off_c, 0, 72, 64
1, 0, Control_c, 0, 1, 40
1, 0, Note_on_c, 0, 45, 85
1, 24, Note_off_c, 0, 45, 85
1, 24, Note_on_c, 0, 48, 83
1, 48, Note_off_c, 0, 48, 83
1, 48, Note_on_c, 0, 52, 83
1, 72, Note_on_c, 0, 45, 85
1, 72, Note_off_c, 0, 52, 83
1, 96, Note_off_c, 0, 45, 85
1, 96, Note_on_c, 0, 48, 83
1, 120, Note_off_c, 0, 48, 83
1, 120, Note_on_c, 0, 52, 83
1, 144, Note_on_c, 0, 45, 85
1, 144, Note_off_c, 0, 52, 83
1, 168, Note_off_c, 0, 45, 85
1, 168, Note_on_c, 0, 48, 83
1, 192, Note_on_c, 0, 47, 82
1, 192, Note_off_c, 0, 48, 83
1, 216, Note_off_c, 0, 47, 82
1, 216, Note_on_c, 0, 50, 86
1, 240, Note_off_c, 0, 50, 86
1, 240, Note_on_c, 0, 53, 85
1, 264, Note_on_c, 0, 47, 82
1, 264, Note_off_c, 0, 53, 85
1, 288, Note_off_c, 0, 47, 82
1, 288, Note_on_c, 0, 50, 86
1, 312, Note_off_c, 0, 50, 86
1, 312, Note_on_c, 0, 53, 85
1, 336, Note_on_c, 0, 47, 82
1, 336, Note_off_c, 0, 53, 85
1, 360, Note_off_c, 0, 47, 82
1, 360, Note_on_c, 0, 50, 86
1, 384, Note_on_c, 0, 47, 85
1, 384, Note_off_c, 0, 50, 86
1, 408, Note_off_c, 0, 47, 85
1, 408, Note_on_c, 0, 52, 83
1, 432, Note_off_c, 0, 52, 83
1, 432, Note_on_c, 0, 55, 84
1, 456, Note_on_c, 0, 47, 85
1, 456, Note_off_c, 0, 55, 84
1, 480, Note_off_c, 0, 47, 85
1, 480, Note_on_c, 0, 52, 83
1, 504, Note_off_c, 0, 52, 83
1, 504, Note_on_c, 0, 55, 84
1, 528, Note_on_c, 0, 47, 85
1, 528, Note_off_c, 0, 55, 84
1, 552, Note_off_c, 0, 47, 85
1, 552, Note_on_c, 0, 52, 83
1, 576, Note_on_c, 0, 47, 84
1, 576, Note_off_c, 0, 52, 83
1, 600, Note_off_c, 0, 47, 84
1, 600, Note_on_c, 0, 50, 83
1, 624, Note_off_c, 0, 50, 83
1, 624, Note_on_c, 0, 53, 83
1, 648, Note_on_c, 0, 47, 84
1, 648, Note_off_c, 0, 53, 83
1, 672, Note_off_c, 0, 47, 84
1, 672, Note_on_c, 0, 50, 83
1, 696, Note_off_c, 0, 50, 83
1, 696, Note_on_c, 0, 53, 83
1, 720, Note_on_c, 0, 47, 84
1, 720, Note_off_c, 0, 53, 83
1, 744, Note_off_c, 0, 47, 84
1, 744, Note_on_c, 0, 50, 83
1, 768, Note_on_c, 0, 48, 85
1, 768, Note_off_c, 0, 50, 83
1, 792, Note_off_c, 0, 48, 85
1, 792, Note_on_c, 0, 52, 85
1, 816, Note_off_c, 0, 52, 85
1, 816, Note_on_c, 0, 57, 86
1, 840, Note_on_c, 0, 48, 85
1, 840, Note_off_c, 0, 57, 86
1, 864, Note_off_c, 0, 48, 85
1, 864, Note_on_c, 0, 52, 85
1, 888, Note_off_c, 0, 52, 85
1, 888, Note_on_c, 0, 57, 86
1, 912, Note_on_c, 0, 48, 85
1, 912, Note_off_c, 0, 57, 86
1, 936, Note_off_c, 0, 48, 85
1, 936, Note_on_c, 0, 52, 85
1, 960, Note_on_c, 0, 48, 85
1, 960, Note_off_c, 0, 52, 85
1, 984, Note_off_c, 0, 48, 85
1, 984, Note_on_c, 0, 53, 86
1, 1008, Note_off_c, 0, 53, 86
1, 1008, Note_on_c, 0, 57, 86
1, 1032, Note_on_c, 0, 48, 85
1, 1032, Note_off_c, 0, 57, 86
1, 1056, Note_off_c, 0, 48, 85
1, 1056, Note_on_c, 0, 53, 86
1, 1080, Note_off_c, 0, 53, 86
1, 1080, Note_on_c, 0, 57, 86
1, 1104, Note_on_c, 0, 48, 85
1, 1104, Note_off_c, 0, 57, 86
1, 1128, Note_off_c, 0, 48, 85
1, 1128, Note_on_c, 0, 53, 86
1, 1152, Note_on_c, 0, 48, 84
1, 1152, Note_off_c, 0, 53, 86
1, 1176, Note_off_c, 0, 48, 84
1, 1176, Note_on_c, 0, 52, 84
1, 1200, Note_off_c, 0, 52, 84
1, 1200, Note_on_c, 0, 55, 82
1, 1224, Note_on_c, 0, 48, 84
1, 1224, Note_off_c, 0, 55, 82
1, 1248, Note_off_c, 0, 48, 84
1, 1248, Note_on_c, 0, 52, 84
1, 1272, Note_off_c, 0, 52, 84
1, 1272, Note_on_c, 0, 55, 82
1, 1296, Note_on_c, 0, 48, 84
1, 1296, Note_off_c, 0, 55, 82
1, 1320, Note_off_c, 0, 48, 84
1, 1320, Note_on_c, 0, 52, 84
1, 1344, Note_on_c, 0, 47, 84
1, 1344, Note_off_c, 0, 52, 84
1, 1368, Note_off_c, 0, 47, 84
1, 1368, Note_on_c, 0, 52, 83
1, 1392, Note_off_c, 0, 52, 83
1, 1392, Note_on_c, 0, 55, 82
1, 1416, Note_on_c, 0, 47, 84
1, 1416, Note_off_c, 0, 55, 82
1, 1440, Note_off_c, 0, 47, 84
1, 1440, Note_on_c, 0, 52, 83
1, 1464, Note_off_c, 0, 52, 83
1, 1464, Note_on_c, 0, 55, 82
1, 1488, Note_on_c, 0, 47, 84
1, 1488, Note_off_c, 0, 55, 82
1, 1512, Note_off_c, 0, 47, 84
1, 1512, Note_on_c, 0, 52, 83
1, 1536, Note_off_c, 0, 52, 83
1, 0, Note_on_c, 0, 45, 91
1, 0, Note_on_c, 0, 55, 85
1, 0, Note_on_c, 0, 60, 89
1, 0, Note_on_c, 0, 64, 103
1, 96, Note_on_c, 0, 72, 98
1, 132, Note_off_c, 0, 72, 20
1, 192, Note_on_c, 0, 74, 108
1, 226, Note_off_c, 0, 74, 34
1, 282, Note_off_c, 0, 45, 65
1, 282, Note_off_c, 0, 55, 61
1, 282, Note_off_c, 0, 60, 44
1, 282, Note_off_c, 0, 64, 49
1, 288, Note_on_c, 0, 76, 116
1, 317, Note_off_c, 0, 76, 59
1, 384, Note_on_c, 0, 43, 80
1, 384, Note_on_c, 0, 55, 69
1, 384, Note_on_c, 0, 59, 87
1, 384, Note_on_c, 0, 64, 80
1, 384, Note_on_c, 0, 79, 103
1, 420, Note_off_c, 0, 79, 18
1, 480, Note_on_c, 0, 81, 99
1, 504, Note_off_c, 0, 81, 70
1, 528, Note_on_c, 0, 79, 96
1, 593, Note_off_c, 0, 79, 18
1, 624, Note_on_c, 0, 76, 99
1, 666, Note_off_c, 0, 43, 65
1, 666, Note_off_c, 0, 55, 66
1, 666, Note_off_c, 0, 59, 79
1, 666, Note_off_c, 0, 64, 62
1, 679, Note_off_c, 0, 76, 45
1, 720, Note_on_c, 0, 74, 81
1, 768, Note_on_c, 0, 42, 74
1, 768, Note_on_c, 0, 54, 74
1, 768, Note_on_c, 0, 57, 90
1, 768, Note_on_c, 0, 64, 89
1, 819, Note_off_c, 0, 74, 51
1, 864, Note_on_c, 0, 76, 85
1, 901, Note_off_c, 0, 76, 53
1, 912, Note_on_c, 0, 74, 74
1, 1041, Note_off_c, 0, 74, 33
1, 1050, Note_off_c, 0, 42, 64
1, 1050, Note_off_c, 0, 54, 66
1, 1050, Note_off_c, 0, 57, 63
1, 1050, Note_off_c, 0, 64, 56
1, 1056, Note_on_c, 0, 76, 91
1, 1104, Note_on_c, 0, 74, 74
1, 1114, Note_off_c, 0, 76, 54
1, 1152, Note_on_c, 0, 41, 76
1, 1152, Note_on_c, 0, 53, 76
1, 1152, Note_on_c, 0, 57, 102
1, 1152, Note_on_c, 0, 64, 102
1, 1185, Note_off_c, 0, 74, 52
1, 1200, Note_on_c, 0, 69, 80
1, 1245, Note_off_c, 0, 69, 46
1, 1248, Note_on_c, 0, 72, 78
1, 1281, Note_off_c, 0, 72, 36
1, 1296, Note_on_c, 0, 74, 80
1, 1312, Note_off_c, 0, 74, 55
1, 1338, Note_off_c, 0, 41, 54
1, 1344, Note_on_c, 0, 38, 98
1, 1344, Note_on_c, 0, 74, 87
1, 1352, Note_on_c, 0, 76, 91
1, 1361, Note_off_c, 0, 74, 31
1, 1378, Note_off_c, 0, 76, 38
1, 1440, Note_on_c, 0, 72, 89
1, 1469, Note_off_c, 0, 72, 35
1, 1536, Note_off_c, 0, 38, 80
1, 1536, Note_off_c, 0, 53, 54
1, 1536, Note_off_c, 0, 57, 89
1, 1536, Note_off_c, 0, 64, 57
1, 0, Note_on_c, 0, 17, 91
1, 0, Note_on_c, 0, 45, 78
1, 0, Note_on_c, 0, 52, 92
1, 0, Note_on_c, 0, 69, 85
1, 44, Note_off_c, 0, 69, 51
1, 49, Note_off_c, 0, 17, 57
1, 58, Note_off_c, 0, 52, 70
1, 59, Note_off_c, 0, 45, 50
1, 72, Note_on_c, 0, 17, 92
1, 72, Note_on_c, 0, 45, 78
1, 72, Note_on_c, 0, 52, 92
1, 96, Note_on_c, 0, 72, 59
1, 122, Note_off_c, 0, 17, 50
1, 126, Note_off_c, 0, 52, 69
1, 127, Note_off_c, 0, 45, 53
1, 130, Note_off_c, 0, 72, 28
1, 144, Note_on_c, 0, 17, 91
1, 144, Note_on_c, 0, 45, 82
1, 144, Note_on_c, 0, 52, 105
1, 189, Note_off_c, 0, 17, 50
1, 192, Note_on_c, 0, 74, 89
1, 197, Note_off_c, 0, 52, 72
1, 198, Note_off_c, 0, 45, 48
1, 216, Note_on_c, 0, 17, 94
1, 216, Note_on_c, 0, 45, 76
1, 216, Note_on_c, 0, 52, 99
1, 222, Note_off_c, 0, 74, 36
1, 264, Note_off_c, 0, 17, 38
1, 269, Note_off_c, 0, 52, 66
1, 270, Note_off_c, 0, 45, 48
1, 288, Note_on_c, 0, 29, 108
1, 288, Note_on_c, 0, 45, 73
1, 288, Note_on_c, 0, 52, 94
1, 288, Note_on_c, 0, 76, 97
1, 321, Note_off_c, 0, 76, 54
1, 322, Note_off_c, 0, 29, 55
1, 326, Note_off_c, 0, 45, 66
1, 330, Note_off_c, 0, 52, 85
1, 384, Note_on_c, 0, 17, 96
1, 384, Note_on_c, 0, 45, 100
1, 384, Note_on_c, 0, 52, 109
1, 384, Note_on_c, 0, 79, 96
1, 417, Note_off_c, 0, 79, 33
1, 432, Note_off_c, 0, 17, 48
1, 437, Note_off_c, 0, 52, 78
1, 438, Note_off_c, 0, 45, 64
1, 456, Note_on_c, 0, 17, 92
1, 456, Note_on_c, 0, 45, 82
1, 456, Note_on_c, 0, 52, 98
1, 480, Note_on_c, 0, 81, 89
1, 497, Note_off_c, 0, 17, 48
1, 503, Note_off_c, 0, 52, 56
1, 504, Note_off_c, 0, 45, 47
1, 521, Note_off_c, 0, 81, 39
1, 528, Note_on_c, 0, 17, 96
1, 528, Note_on_c, 0, 45, 80
1, 528, Note_on_c, 0, 52, 98
1, 563, Note_off_c, 0, 17, 42
1, 576, Note_off_c, 0, 45, 48
1, 576, Note_on_c, 0, 84, 108
1, 578, Note_off_c, 0, 52, 75
1, 595, Note_off_c, 0, 84, 59
1, 600, Note_on_c, 0, 17, 92
1, 600, Note_on_c, 0, 45, 85
1, 600, Note_on_c, 0, 52, 99
1, 648, Note_off_c, 0, 17, 29
1, 652, Note_off_c, 0, 45, 44
1, 656, Note_off_c, 0, 52, 68
1, 672, Note_on_c, 0, 29, 108
1, 672, Note_on_c, 0, 45, 85
1, 672, Note_on_c, 0, 52, 99
1, 672, Note_on_c, 0, 86, 71
1, 680, Note_on_c, 0, 88, 89
1, 683, Note_off_c, 0, 86, 57
1, 698, Note_off_c, 0, 29, 49
1, 706, Note_off_c, 0, 88, 57
1, 720, Note_on_c, 0, 31, 108
1, 720, Note_on_c, 0, 86, 89
1, 725, Note_off_c, 0, 45, 45
1, 726, Note_off_c, 0, 52, 69
1, 740, Note_off_c, 0, 31, 57
1, 754, Note_off_c, 0, 86, 48
1, 768, Note_on_c, 0, 21, 94
1, 768, Note_on_c, 0, 48, 67
1, 768, Note_on_c, 0, 55, 92
1, 816, Note_off_c, 0, 55, 58
1, 816, Note_on_c, 0, 84, 98
1, 819, Note_off_c, 0, 21, 72
1, 823, Note_off_c, 0, 48, 47
1, 840, Note_on_c, 0, 21, 98
1, 840, Note_on_c, 0, 48, 87
1, 840, Note_on_c, 0, 55, 92
1, 857, Note_off_c, 0, 84, 36
1, 885, Note_off_c, 0, 21, 67
1, 888, Note_off_c, 0, 55, 36
1, 892, Note_off_c, 0, 48, 40
1, 912, Note_on_c, 0, 21, 97
1, 912, Note_on_c, 0, 48, 77
1, 912, Note_on_c, 0, 55, 87
1, 912, Note_on_c, 0, 84, 86
1, 934, Note_off_c, 0, 84, 38
1, 958, Note_off_c, 0, 21, 68
1, 958, Note_off_c, 0, 55, 32
1, 965, Note_off_c, 0, 48, 37
1, 984, Note_on_c, 0, 21, 98
1, 984, Note_on_c, 0, 48, 78
1, 984, Note_on_c, 0, 55, 86
1, 1028, Note_off_c, 0, 55, 36
1, 1030, Note_off_c, 0, 48, 25
1, 1034, Note_off_c, 0, 21, 55
1, 1056, Note_on_c, 0, 33, 105
1, 1056, Note_on_c, 0, 48, 81
1, 1056, Note_on_c, 0, 55, 87
1, 1056, Note_on_c, 0, 86, 82
1, 1068, Note_on_c, 0, 88, 89
1, 1070, Note_off_c, 0, 86, 65
1, 1090, Note_off_c, 0, 33, 53
1, 1095, Note_off_c, 0, 48, 50
1, 1098, Note_off_c, 0, 55, 50
1, 1103, Note_off_c, 0, 88, 32
1, 1104, Note_on_c, 0, 86, 96
1, 1138, Note_off_c, 0, 86, 25
1, 1152, Note_on_c, 0, 21, 98
1, 1152, Note_on_c, 0, 48, 91
1, 1152, Note_on_c, 0, 55, 96
1, 1200, Note_off_c, 0, 55, 42
1, 1203, Note_off_c, 0, 21, 75
1, 1203, Note_off_c, 0, 48, 39
1, 1224, Note_on_c, 0, 21, 95
1, 1224, Note_on_c, 0, 48, 76
1, 1224, Note_on_c, 0, 55, 81
1, 1248, Note_on_c, 0, 84, 84
1, 1266, Note_off_c, 0, 84, 52
1, 1267, Note_off_c, 0, 55, 36
1, 1274, Note_off_c, 0, 21, 68
1, 1275, Note_off_c, 0, 48, 29
1, 1296, Note_on_c, 0, 21, 95
1, 1296, Note_on_c, 0, 48, 73
1, 1296, Note_on_c, 0, 55, 80
1, 1337, Note_off_c, 0, 21, 69
1, 1337, Note_off_c, 0, 55, 46
1, 1342, Note_off_c, 0, 48, 29
1, 1344, Note_on_c, 0, 84, 92
1, 1366, Note_off_c, 0, 84, 42
1, 1368, Note_on_c, 0, 21, 91
1, 1368, Note_on_c, 0, 48, 76
1, 1368, Note_on_c, 0, 55, 82
1, 1392, Note_on_c, 0, 81, 91
1, 1409, Note_off_c, 0, 21, 62
1, 1411, Note_off_c, 0, 55, 34
1, 1413, Note_off_c, 0, 81, 72
1, 1418, Note_off_c, 0, 48, 20
1, 1440, Note_on_c, 0, 33, 99
1, 1440, Note_on_c, 0, 48, 84
1, 1440, Note_on_c, 0, 55, 89
1, 1440, Note_on_c, 0, 79, 70
1, 1459, Note_off_c, 0, 79, 31
1, 1470, Note_off_c, 0, 33, 73
1, 1488, Note_on_c, 0, 76, 85
1, 1489, Note_off_c, 0, 55, 48
1, 1490, Note_off_c, 0, 48, 40
1, 1501, Note_off_c, 0, 76, 81
1, 0, Control_c, 0, 1, 40
1, 0, Note_on_c, 0, 64, 42
1, 24, Note_off_c, 0, 64, 42
1, 24, Note_on_c, 0, 67, 38
1, 48, Note_off_c, 0, 67, 38
1, 48, Note_on_c, 0, 72, 40
1, 72, Note_on_c, 0, 64, 39
1, 72, Note_off_c, 0, 72, 40
1, 96, Note_off_c, 0, 64, 39
1, 96, Note_on_c, 0, 67, 41
1, 120, Note_off_c, 0, 67, 41
1, 120, Note_on_c, 0, 72, 40
1, 144, Note_on_c, 0, 64, 39
1, 144, Note_off_c, 0, 72, 40
1, 168, Note_off_c, 0, 64, 39
1, 168, Note_on_c, 0, 67, 38
1, 192, Note_on_c, 0, 65, 42
1, 192, Note_off_c, 0, 67, 38
1, 216, Note_off_c, 0, 65, 42
1, 216, Note_on_c, 0, 69, 38
1, 240, Note_off_c, 0, 69, 38
1, 240, Note_on_c, 0, 76, 40
1, 264, Note_on_c, 0, 65, 38
1, 264, Note_off_c, 0, 76, 40
1, 288, Note_off_c, 0, 65, 38
1, 288, Note_on_c, 0, 69, 42
1, 312, Note_off_c, 0, 69, 42
1, 312, Note_on_c, 0, 76, 40
1, 336, Note_on_c, 0, 65, 39
1, 336, Note_off_c, 0, 76, 40
1, 360, Note_off_c, 0, 65, 39
1, 360, Note_on_c, 0, 69, 38
1, 384, Note_on_c, 0, 65, 44
1, 384, Note_off_c, 0, 69, 38
1, 408, Note_off_c, 0, 65, 44
1, 408, Note_on_c, 0, 69, 40
1, 432, Note_off_c, 0, 69, 40
1, 432, Note_on_c, 0, 74, 41
1, 456, Note_on_c, 0, 65, 38
1, 456, Note_off_c, 0, 74, 41
1, 480, Note_off_c, 0, 65, 38
1, 480, Note_on_c, 0, 69, 41
1, 504, Note_off_c, 0, 69, 41
1, 504, Note_on_c, 0, 74, 38
1, 528, Note_on_c, 0, 65, 39
1, 528, Note_off_c, 0, 74, 38
1, 552, Note_off_c, 0, 65, 39
1, 552, Note_on_c, 0, 69, 39
1, 576, Note_on_c, 0, 64, 42
1, 576, Note_off_c, 0, 69, 39
1, 600, Note_off_c, 0, 64, 42
1, 600, Note_on_c, 0, 67, 40
1, 624, Note_off_c, 0, 67, 40
1, 624, Note_on_c, 0, 74, 42
1, 648, Note_on_c, 0, 64, 38
1, 648, Note_off_c, 0, 74, 42
1, 672, Note_off_c, 0, 64, 38
1, 672, Note_on_c, 0, 67, 43
1, 696, Note_off_c, 0, 67, 43
1, 696, Note_on_c, 0, 74, 38
1, 720, Note_on_c, 0, 64, 40
1, 720, Note_off_c, 0, 74, 38
1, 744, Note_off_c, 0, 64, 40
1, 744, Note_on_c, 0, 67, 39
1, 768, Note_on_c, 0, 65, 42
1, 768, Note_off_c, 0, 67, 39
1, 792, Note_off_c, 0, 65, 42
1, 792, Note_on_c, 0, 69, 40
1, 816, Note_off_c, 0, 69, 40
1, 816, Note_on_c, 0, 76, 41
1, 840, Note_on_c, 0, 65, 39
1, 840, Note_off_c, 0, 76, 41
1, 864, Note_off_c, 0, 65, 39
1, 864, Note_on_c, 0, 69, 42
1, 888, Note_off_c, 0, 69, 42
1, 888, Note_on_c, 0, 76, 40
1, 912, Note_on_c, 0, 65, 40
1, 912, Note_off_c, 0, 76, 40
1, 936, Note_off_c, 0, 65, 40
1, 936, Note_on_c, 0, 69, 40
1, 960, Note_on_c, 0, 65, 42
1, 960, Note_off_c, 0, 69, 40
1, 984, Note_off_c, 0, 65, 42
1, 984, Note_on_c, 0, 69, 39
1, 1008, Note_off_c, 0, 69, 39
1, 1008, Note_on_c, 0, 74, 42
1, 1032, Note_on_c, 0, 65, 39
1, 1032, Note_off_c, 0, 74, 42
1, 1056, Note_off_c, 0, 65, 39
1, 1056, Note_on_c, 0, 69, 41
1, 1080, Note_off_c, 0, 69, 41
1, 1080, Note_on_c, 0, 74, 40
1, 1104, Note_on_c, 0, 65, 38
1, 1104, Note_off_c, 0, 74, 40
1, 1128, Note_off_c, 0, 65, 38
1, 1128, Note_on_c, 0, 69, 40
1, 1152, Note_on_c, 0, 65, 44
1, 1152, Note_off_c, 0, 69, 40
1, 1176, Note_off_c, 0, 65, 44
1, 1176, Note_on_c, 0, 69, 39
1, 1200, Note_off_c, 0, 69, 39
1, 1200, Note_on_c, 0, 74, 41
1, 1224, Note_on_c, 0, 65, 40
1, 1224, Note_off_c, 0, 74, 41
1, 1248, Note_off_c, 0, 65, 40
1, 1248, Note_on_c, 0, 69, 42
1, 1272, Note_off_c, 0, 69, 42
1, 1272, Note_on_c, 0, 74, 40
1, 1296, Note_on_c, 0, 65, 39
1, 1296, Note_off_c, 0, 74, 40
1, 1320, Note_off_c, 0, 65, 39
1, 1320, Note_on_c, 0, 69, 38
1, 1344, Note_on_c, 0, 64, 45
1, 1344, Note_off_c, 0, 69, 38
1, 1368, Note_off_c, 0, 64, 45
1, 1368, Note_on_c, 0, 69, 40
1, 1392, Note_off_c, 0, 69, 40
1, 1392, Note_on_c, 0, 72, 42
1, 1416, Note_on_c, 0, 64, 40
1, 1416, Note_off_c, 0, 72, 42
1, 1440, Note_off_c, 0, 64, 40
1, 1440, Note_on_c, 0, 69, 41
1, 1464, Note_off_c, 0, 69, 41
1, 1464, Note_on_c, 0, 72, 40
1, 1488, Note_on_c, 0, 64, 39
1, 1488, Note_off_c, 0, 72, 40
1, 1512, Note_off_c, 0, 64, 39
1, 1512, Note_on_c, 0, 69, 39
1, 1533, Note_off_c, 0, 69, 39
1, 0, Note_on_c, 0, 33, 82
1, 0, Note_on_c, 0, 60, 82
1, 60, Note_off_c, 0, 33, 48
1, 60, Note_off_c, 0, 60, 35
1, 96, Note_on_c, 0, 81, 105
1, 144, Note_on_c, 0, 33, 70
1, 144, Note_on_c, 0, 60, 59
1, 155, Note_off_c, 0, 81, 70
1, 192, Note_on_c, 0, 79, 93
1, 204, Note_off_c, 0, 33, 66
1, 204, Note_off_c, 0, 60, 21
1, 246, Note_off_c, 0, 79, 66
1, 288, Note_on_c, 0, 74, 87
1, 296, Note_on_c, 0, 76, 106
1, 301, Note_off_c, 0, 74, 64
1, 335, Note_off_c, 0, 76, 58
1, 336, Note_on_c, 0, 74, 111
1, 384, Note_on_c, 0, 26, 81
1, 384, Note_on_c, 0, 54, 89
1, 436, Note_off_c, 0, 74, 67
1, 444, Note_off_c, 0, 26, 49
1, 444, Note_off_c, 0, 54, 51
1, 480, Note_on_c, 0, 74, 106
1, 526, Note_off_c, 0, 74, 58
1, 528, Note_on_c, 0, 26, 80
1, 528, Note_on_c, 0, 54, 79
1, 528, Note_on_c, 0, 76, 92
1, 565, Note_off_c, 0, 76, 50
1, 576, Note_on_c, 0, 74, 91
1, 588, Note_off_c, 0, 26, 50
1, 588, Note_off_c, 0, 54, 51
1, 645, Note_off_c, 0, 74, 50
1, 672, Note_on_c, 0, 26, 79
1, 672, Note_on_c, 0, 55, 91
1, 672, Note_on_c, 0, 72, 96
1, 724, Note_off_c, 0, 72, 52
1, 732, Note_off_c, 0, 26, 43
1, 732, Note_off_c, 0, 55, 50
1, 768, Note_on_c, 0, 29, 78
1, 768, Note_on_c, 0, 57, 75
1, 828, Note_off_c, 0, 29, 33
1, 828, Note_off_c, 0, 57, 58
1, 862, Note_on_c, 0, 81, 108
1, 912, Note_on_c, 0, 29, 72
1, 912, Note_on_c, 0, 57, 79
1, 928, Note_off_c, 0, 81, 56
1, 960, Note_on_c, 0, 79, 97
1, 972, Note_off_c, 0, 29, 36
1, 972, Note_off_c, 0, 57, 59
1, 1022, Note_off_c, 0, 79, 38
1, 1056, Note_on_c, 0, 29, 65
1, 1056, Note_on_c, 0, 55, 77
1, 1056, Note_on_c, 0, 74, 95
1, 1060, Note_on_c, 0, 76, 95
1, 1064, Note_off_c, 0, 74, 64
1, 1093, Note_off_c, 0, 76, 67
1, 1104, Note_on_c, 0, 84, 91
1, 1116, Note_off_c, 0, 29, 31
1, 1116, Note_off_c, 0, 55, 69
1, 1152, Note_on_c, 0, 36, 80
1, 1152, Note_on_c, 0, 52, 86
1, 1206, Note_off_c, 0, 84, 48
1, 1212, Note_off_c, 0, 36, 32
1, 1212, Note_off_c, 0, 52, 50
1, 1247, Note_on_c, 0, 83, 105
1, 1296, Note_on_c, 0, 36, 70
1, 1296, Note_on_c, 0, 52, 80
1, 1297, Note_off_c, 0, 83, 62
1, 1344, Note_on_c, 0, 79, 94
1, 1356, Note_off_c, 0, 36, 20
1, 1356, Note_off_c, 0, 52, 17
1, 1389, Note_off_c, 0, 79, 67
1, 1390, Note_on_c, 0, 74, 85
1, 1395, Note_on_c, 0, 76, 87
1, 1398, Note_off_c, 0, 74, 46
1, 1428, Note_off_c, 0, 76, 40
1, 1440, Note_on_c, 0, 31, 75
1, 1440, Note_on_c, 0, 59, 88
1, 1489, Note_on_c, 0, 81, 98
1, 1500, Note_off_c, 0, 31, 46
1, 1500, Note_off_c, 0, 59, 76
1, 1535, Note_off_c, 0, 81, 82
1, 0, Note_on_c, 0, 41, 100
1, 0, Note_on_c, 0, 65, 100
1, 0, Note_on_c, 0, 69, 100
1, 0, Note_on_c, 0, 72, 100
1, 0, Note_on_c, 0, 76, 100
1, 0, Note_on_c, 0, 88, 100
1, 24, Note_on_c, 0, 84, 100
1, 24, Note_off_c, 0, 88, 64
1, 48, Note_on_c, 0, 81, 100
1, 48, Note_off_c, 0, 84, 64
1, 72, Note_on_c, 0, 77, 100
1, 72, Note_off_c, 0, 81, 64
1, 96, Note_off_c, 0, 77, 64
1, 96, Note_on_c, 0, 88, 100
1, 120, Note_on_c, 0, 84, 100
1, 120, Note_off_c, 0, 88, 64
1, 144, Note_on_c, 0, 81, 100
1, 144, Note_off_c, 0, 84, 64
1, 168, Note_on_c, 0, 77, 100
1, 168, Note_off_c, 0, 81, 64
1, 192, Note_off_c, 0, 77, 64
1, 192, Note_on_c, 0, 88, 100
1, 216, Note_on_c, 0, 84, 100
1, 216, Note_off_c, 0, 88, 64
1, 240, Note_on_c, 0, 81, 100
1, 240, Note_off_c, 0, 84, 64
1, 264, Note_on_c, 0, 77, 100
1, 264, Note_off_c, 0, 81, 64
1, 288, Note_off_c, 0, 77, 64
1, 288, Note_on_c, 0, 88, 100
1, 312, Note_on_c, 0, 84, 100
1, 312, Note_off_c, 0, 88, 64
1, 336, Note_on_c, 0, 81, 100
1, 336, Note_off_c, 0, 84, 64
1, 360, Note_on_c, 0, 77, 100
1, 360, Note_off_c, 0, 81, 64
1, 384, Note_off_c, 0, 77, 64
1, 384, Note_on_c, 0, 88, 100
1, 408, Note_on_c, 0, 84, 100
1, 408, Note_off_c, 0, 88, 64
1, 432, Note_on_c, 0, 81, 100
1, 432, Note_off_c, 0, 84, 64
1, 456, Note_on_c, 0, 77, 100
1, 456, Note_off_c, 0, 81, 64
1, 480, Note_off_c, 0, 77, 64
1, 480, Note_on_c, 0, 88, 100
1, 504, Note_on_c, 0, 84, 100
1, 504, Note_off_c, 0, 88, 64
1, 528, Note_on_c, 0, 81, 100
1, 528, Note_off_c, 0, 84, 64
1, 552, Note_on_c, 0, 77, 100
1, 552, Note_off_c, 0, 81, 64
1, 576, Note_off_c, 0, 77, 64
1, 576, Note_on_c, 0, 88, 100
1, 600, Note_on_c, 0, 84, 100
1, 600, Note_off_c, 0, 88, 64
1, 624, Note_on_c, 0, 81, 100
1, 624, Note_off_c, 0, 84, 64
1, 648, Note_on_c, 0, 77, 100
1, 648, Note_off_c, 0, 81, 64
1, 672, Note_off_c, 0, 41, 64
1, 672, Note_on_c, 0, 60, 100
1, 672, Note_off_c, 0, 77, 64
1, 672, Note_on_c, 0, 88, 100
1, 696, Note_on_c, 0, 84, 100
1, 696, Note_off_c, 0, 88, 64
1, 720, Note_on_c, 0, 59, 100
1, 720, Note_off_c, 0, 60, 64
1, 720, Note_on_c, 0, 81, 100
1, 720, Note_off_c, 0, 84, 64
1, 744, Note_on_c, 0, 77, 100
1, 744, Note_off_c, 0, 81, 64
1, 768, Note_on_c, 0, 45, 100
1, 768, Note_on_c, 0, 57, 100
1, 768, Note_off_c, 0, 59, 64
1, 768, Note_off_c, 0, 65, 64
1, 768, Note_off_c, 0, 69, 64
1, 768, Note_off_c, 0, 72, 64
1, 768, Note_on_c, 0, 72, 100
1, 768, Note_off_c, 0, 76, 64
1, 768, Note_on_c, 0, 76, 100
1, 768, Note_off_c, 0, 77, 64
1, 768, Note_on_c, 0, 79, 100
1, 768, Note_on_c, 0, 91, 100
1, 792, Note_on_c, 0, 88, 100
1, 792, Note_off_c, 0, 91, 64
1, 816, Note_on_c, 0, 84, 100
1, 816, Note_off_c, 0, 88, 64
1, 840, Note_on_c, 0, 81, 100
1, 840, Note_off_c, 0, 84, 64
1, 864, Note_off_c, 0, 81, 64
1, 864, Note_on_c, 0, 91, 100
1, 888, Note_on_c, 0, 88, 100
1, 888, Note_off_c, 0, 91, 64
1, 912, Note_on_c, 0, 84, 100
1, 912, Note_off_c, 0, 88, 64
1, 936, Note_on_c, 0, 81, 100
1, 936, Note_off_c, 0, 84, 64
1, 960, Note_off_c, 0, 81, 64
1, 960, Note_on_c, 0, 91, 100
1, 984, Note_on_c, 0, 88, 100
1, 984, Note_off_c, 0, 91, 64
1, 1008, Note_on_c, 0, 84, 100
1, 1008, Note_off_c, 0, 88, 64
1, 1032, Note_on_c, 0, 81, 100
1, 1032, Note_off_c, 0, 84, 64
1, 1056, Note_off_c, 0, 81, 64
1, 1056, Note_on_c, 0, 91, 100
1, 1080, Note_on_c, 0, 88, 100
1, 1080, Note_off_c, 0, 91, 64
1, 1104, Note_on_c, 0, 84, 100
1, 1104, Note_off_c, 0, 88, 64
1, 1128, Note_on_c, 0, 81, 100
1, 1128, Note_off_c, 0, 84, 64
1, 1152, Note_off_c, 0, 45, 64
1, 1152, Note_on_c, 0, 47, 100
1, 1152, Note_off_c, 0, 57, 64
1, 1152, Note_on_c, 0, 59, 100
1, 1152, Note_off_c, 0, 72, 64
1, 1152, Note_on_c, 0, 72, 100
1, 1152, Note_off_c, 0, 76, 64
1, 1152, Note_on_c, 0, 76, 100
1, 1152, Note_off_c, 0, 79, 64
1, 1152, Note_on_c, 0, 79, 100
1, 1152, Note_off_c, 0, 81, 64
1, 1152, Note_on_c, 0, 91, 100
1, 1176, Note_on_c, 0, 88, 100
1, 1176, Note_off_c, 0, 91, 64
1, 1200, Note_on_c, 0, 84, 100
1, 1200, Note_off_c, 0, 88, 64
1, 1224, Note_on_c, 0, 83, 100
1, 1224, Note_off_c, 0, 84, 64
1, 1248, Note_off_c, 0, 83, 64
1, 1248, Note_on_c, 0, 91, 100
1, 1272, Note_on_c, 0, 88, 100
1, 1272, Note_off_c, 0, 91, 64
1, 1296, Note_on_c, 0, 84, 100
1, 1296, Note_off_c, 0, 88, 64
1, 1320, Note_on_c, 0, 83, 100
1, 1320, Note_off_c, 0, 84, 64
1, 1344, Note_off_c, 0, 47, 64
1, 1344, Note_on_c, 0, 48, 100
1, 1344, Note_off_c, 0, 83, 64
1, 1344, Note_on_c, 0, 91, 100
1, 1368, Note_on_c, 0, 88, 100
1, 1368, Note_off_c, 0, 91, 64
1, 1392, Note_on_c, 0, 84, 100
1, 1392, Note_off_c, 0, 88, 64
1, 1416, Note_on_c, 0, 83, 100
1, 1416, Note_off_c, 0, 84, 64
1, 1440, Note_off_c, 0, 83, 64
1, 1440, Note_on_c, 0, 91, 100
1, 1464, Note_on_c, 0, 88, 100
1, 1464, Note_off_c, 0, 91, 64
1, 1488, Note_on_c, 0, 84, 100
1, 1488, Note_off_c, 0, 88, 64
1, 1512, Note_on_c, 0, 83, 100
1, 1512, Note_off_c, 0, 84, 64
1, 1536, Note_off_c, 0, 48, 64
1, 1536, Note_off_c, 0, 59, 64
1, 1536, Note_off_c, 0, 72, 64
1, 1536, Note_off_c, 0, 76, 64
1, 1536, Note_off_c, 0, 79, 64
1, 1536, Note_off_c, 0, 83, 64
1, 0, Note_on_c, 0, 33, 100
1, 0, Note_on_c, 0, 45, 100
1, 0, Note_on_c, 0, 52, 100
1, 0, Note_on_c, 0, 57, 100
1, 96, Note_off_c, 0, 33, 64
1, 96, Note_off_c, 0, 45, 64
1, 96, Note_off_c, 0, 52, 64
1, 96, Note_off_c, 0, 57, 64
1, 144, Note_on_c, 0, 33, 100
1, 144, Note_on_c, 0, 45, 100
1, 144, Note_on_c, 0, 52, 100
1, 144, Note_on_c, 0, 67, 100
1, 192, Note_off_c, 0, 33, 64
1, 192, Note_on_c, 0, 33, 100
1, 192, Note_off_c, 0, 45, 64
1, 192, Note_on_c, 0, 45, 100
1, 192, Note_off_c, 0, 52, 64
1, 192, Note_on_c, 0, 52, 100
1, 192, Note_on_c, 0, 64, 100
1, 192, Note_off_c, 0, 67, 64
1, 240, Note_off_c, 0, 33, 64
1, 240, Note_on_c, 0, 33, 100
1, 240, Note_off_c, 0, 45, 64
1, 240, Note_on_c, 0, 45, 100
1, 240, Note_off_c, 0, 52, 64
1, 240, Note_on_c, 0, 52, 100
1, 240, Note_on_c, 0, 57, 100
1, 240, Note_off_c, 0, 64, 64
1, 288, Note_off_c, 0, 33, 64
1, 288, Note_on_c, 0, 33, 100
1, 288, Note_off_c, 0, 45, 64
1, 288, Note_on_c, 0, 45, 100
1, 288, Note_off_c, 0, 52, 64
1, 288, Note_on_c, 0, 52, 100
1, 288, Note_off_c, 0, 57, 64
1, 288, Note_on_c, 0, 60, 100
1, 336, Note_off_c, 0, 33, 64
1, 336, Note_on_c, 0, 33, 100
1, 336, Note_off_c, 0, 45, 64
1, 336, Note_on_c, 0, 45, 100
1, 336, Note_off_c, 0, 52, 64
1, 336, Note_on_c, 0, 52, 100
1, 336, Note_on_c, 0, 59, 100
1, 336, Note_off_c, 0, 60, 64
1, 384, Note_on_c, 0, 29, 100
1, 384, Note_off_c, 0, 33, 64
1, 384, Note_off_c, 0, 45, 64
1, 384, Note_on_c, 0, 45, 101
1, 384, Note_on_c, 0, 48, 101
1, 384, Note_off_c, 0, 52, 64
1, 384, Note_on_c, 0, 57, 100
1, 384, Note_off_c, 0, 59, 64
1, 480, Note_off_c, 0, 29, 64
1, 480, Note_off_c, 0, 45, 64
1, 480, Note_off_c, 0, 48, 64
1, 480, Note_off_c, 0, 57, 64
1, 528, Note_on_c, 0, 29, 100
1, 528, Note_on_c, 0, 45, 101
1, 528, Note_on_c, 0, 48, 101
1, 528, Note_on_c, 0, 57, 100
1, 672, Note_off_c, 0, 29, 64
1, 672, Note_off_c, 0, 45, 64
1, 672, Note_off_c, 0, 48, 64
1, 672, Note_off_c, 0, 57, 64
1, 768, Note_on_c, 0, 29, 101
1, 768, Note_on_c, 0, 48, 101
1, 768, Note_on_c, 0, 57, 101
1, 804, Note_off_c, 0, 29, 64
1, 804, Note_off_c, 0, 48, 64
1, 804, Note_off_c, 0, 57, 64
1, 816, Note_on_c, 0, 29, 101
1, 816, Note_on_c, 0, 48, 101
1, 816, Note_on_c, 0, 59, 101
1, 852, Note_off_c, 0, 29, 64
1, 852, Note_off_c, 0, 48, 64
1, 852, Note_off_c, 0, 59, 64
1, 864, Note_on_c, 0, 29, 101
1, 864, Note_on_c, 0, 48, 101
1, 864, Note_on_c, 0, 60, 101
1, 912, Note_off_c, 0, 29, 64
1, 912, Note_off_c, 0, 48, 64
1, 916, Note_off_c, 0, 60, 64
1, 936, Note_on_c, 0, 29, 101
1, 936, Note_on_c, 0, 48, 101
1, 936, Note_on_c, 0, 60, 101
1, 984, Note_off_c, 0, 29, 64
1, 984, Note_off_c, 0, 48, 64
1, 984, Note_off_c, 0, 60, 64
1, 1008, Note_on_c, 0, 31, 101
1, 1008, Note_on_c, 0, 47, 98
1, 1008, Note_on_c, 0, 59, 101
1, 1056, Note_off_c, 0, 31, 64
1, 1056, Note_off_c, 0, 47, 64
1, 1056, Note_off_c, 0, 59, 64
1, 1080, Note_on_c, 0, 31, 101
1, 1080, Note_on_c, 0, 47, 98
1, 1080, Note_on_c, 0, 50, 98
1, 1080, Note_on_c, 0, 55, 101
1, 1128, Note_off_c, 0, 31, 64
1, 1128, Note_off_c, 0, 47, 64
1, 1128, Note_off_c, 0, 50, 64
1, 1128, Note_off_c, 0, 55, 64
1, 1152, Note_on_c, 0, 33, 101
1, 1152, Note_on_c, 0, 45, 101
1, 1152, Note_on_c, 0, 48, 101
1, 1152, Note_on_c, 0, 52, 101
1, 1152, Note_on_c, 0, 57, 101
1, 1536, Note_off_c, 0, 33, 64
1, 1536, Note_off_c, 0, 45, 64
1, 1536, Note_off_c, 0, 48, 64
1, 1536, Note_off_c, 0, 52, 64
1, 1536, Note_off_c, 0, 57, 64
1, 0, Note_on_c, 0, 41, 95
1, 0, Note_on_c, 0, 57, 95
1, 0, Note_on_c, 0, 60, 95
1, 0, Note_on_c, 0, 64, 95
1, 0, Note_on_c, 0, 69, 90
1, 24, Note_off_c, 0, 69, 127
1, 24, Note_on_c, 0, 72, 90
1, 48, Note_off_c, 0, 72, 127
1, 72, Note_on_c, 0, 76, 90
1, 96, Note_off_c, 0, 76, 127
1, 96, Note_on_c, 0, 79, 90
1, 120, Note_off_c, 0, 79, 127
1, 144, Note_on_c, 0, 76, 90
1, 192, Note_off_c, 0, 76, 127
1, 384, Note_off_c, 0, 41, 95
1, 384, Note_on_c, 0, 45, 95
1, 384, Note_off_c, 0, 57, 95
1, 384, Note_off_c, 0, 60, 95
1, 384, Note_on_c, 0, 60, 95
1, 384, Note_off_c, 0, 64, 95
1, 384, Note_on_c, 0, 64, 95
1, 384, Note_on_c, 0, 67, 95
1, 384, Note_on_c, 0, 76, 90
1, 408, Note_on_c, 0, 72, 90
1, 408, Note_off_c, 0, 76, 127
1, 432, Note_off_c, 0, 72, 127
1, 456, Note_on_c, 0, 72, 90
1, 480, Note_off_c, 0, 72, 127
1, 480, Note_on_c, 0, 79, 90
1, 504, Note_off_c, 0, 79, 127
1, 528, Note_on_c, 0, 40, 95
1, 528, Note_off_c, 0, 45, 95
1, 528, Note_on_c, 0, 55, 95
1, 528, Note_on_c, 0, 59, 95
1, 528, Note_off_c, 0, 60, 95
1, 528, Note_on_c, 0, 62, 95
1, 528, Note_off_c, 0, 64, 95
1, 528, Note_off_c, 0, 67, 95
1, 528, Note_on_c, 0, 74, 90
1, 576, Note_off_c, 0, 74, 127
1, 768, Note_on_c, 0, 69, 90
1, 792, Note_off_c, 0, 69, 127
1, 792, Note_on_c, 0, 72, 90
1, 816, Note_off_c, 0, 72, 127
1, 840, Note_on_c, 0, 76, 90
1, 864, Note_off_c, 0, 76, 127
1, 864, Note_on_c, 0, 79, 90
1, 888, Note_off_c, 0, 79, 127
1, 912, Note_on_c, 0, 74, 90
1, 960, Note_off_c, 0, 74, 127
1, 1056, Note_on_c, 0, 81, 90
1, 1080, Note_on_c, 0, 79, 90
1, 1080, Note_off_c, 0, 81, 127
1, 1104, Note_on_c, 0, 74, 90
1, 1104, Note_off_c, 0, 79, 127
1, 1128, Note_on_c, 0, 72, 90
1, 1128, Note_off_c, 0, 74, 127
1, 1152, Note_off_c, 0, 40, 95
1, 1152, Note_on_c, 0, 41, 95
1, 1152, Note_on_c, 0, 53, 95
1, 1152, Note_off_c, 0, 55, 95
1, 1152, Note_on_c, 0, 57, 95
1, 1152, Note_off_c, 0, 59, 95
1, 1152, Note_on_c, 0, 60, 95
1, 1152, Note_off_c, 0, 62, 95
1, 1152, Note_off_c, 0, 72, 127
1, 1152, Note_on_c, 0, 76, 90
1, 1176, Note_on_c, 0, 72, 90
1, 1176, Note_off_c, 0, 76, 64
1, 1200, Note_off_c, 0, 72, 64
1, 1224, Note_on_c, 0, 72, 90
1, 1248, Note_on_c, 0, 69, 90
1, 1248, Note_off_c, 0, 72, 64
1, 1248, Note_on_c, 0, 79, 90
1, 1272, Note_off_c, 0, 69, 127
1, 1272, Note_off_c, 0, 79, 64
1, 1296, Note_on_c, 0, 72, 90
1, 1339, Note_on_c, 0, 62, 91
1, 1344, Note_off_c, 0, 72, 127
1, 1536, Note_off_c, 0, 41, 95
1, 1536, Note_off_c, 0, 53, 95
1, 1536, Note_off_c, 0, 57, 95
1, 1536, Note_off_c, 0, 60, 95
1, 1536, Note_off_c, 0, 62, 57
1, 0, Note_on_c, 0, 29, 100
1, 0, Note_on_c, 0, 41, 100
1, 0, Note_on_c, 0, 48, 100
1, 0, Note_on_c, 0, 57, 100
1, 0, Note_on_c, 0, 60, 100
1, 0, Note_on_c, 0, 72, 100
1, 48, Note_off_c, 0, 29, 64
1, 48, Note_on_c, 0, 29, 100
1, 48, Note_off_c, 0, 60, 64
1, 96, Note_off_c, 0, 29, 64
1, 96, Note_on_c, 0, 29, 100
1, 96, Note_on_c, 0, 60, 100
1, 144, Note_off_c, 0, 29, 64
1, 144, Note_on_c, 0, 29, 100
1, 144, Note_off_c, 0, 60, 64
1, 192, Note_off_c, 0, 29, 64
1, 192, Note_off_c, 0, 41, 64
1, 192, Note_off_c, 0, 48, 64
1, 192, Note_on_c, 0, 53, 100
1, 192, Note_off_c, 0, 57, 64
1, 192, Note_off_c, 0, 72, 64
1, 288, Note_on_c, 0, 33, 100
1, 288, Note_on_c, 0, 45, 100
1, 288, Note_on_c, 0, 52, 100
1, 288, Note_off_c, 0, 53, 64
1, 288, Note_on_c, 0, 60, 100
1, 288, Note_on_c, 0, 64, 100
1, 288, Note_on_c, 0, 76, 100
1, 336, Note_off_c, 0, 33, 64
1, 336, Note_on_c, 0, 33, 100
1, 336, Note_off_c, 0, 64, 64
1, 384, Note_off_c, 0, 33, 64
1, 384, Note_on_c, 0, 33, 100
1, 384, Note_on_c, 0, 64, 100
1, 432, Note_off_c, 0, 33, 64
1, 432, Note_on_c, 0, 33, 100
1, 432, Note_off_c, 0, 64, 64
1, 480, Note_off_c, 0, 33, 64
1, 480, Note_on_c, 0, 33, 100
1, 480, Note_on_c, 0, 64, 100
1, 528, Note_off_c, 0, 33, 64
1, 528, Note_on_c, 0, 33, 100
1, 528, Note_off_c, 0, 64, 64
1, 576, Note_off_c, 0, 33, 64
1, 576, Note_off_c, 0, 45, 64
1, 576, Note_off_c, 0, 52, 64
1, 576, Note_off_c, 0, 60, 64
1, 576, Note_off_c, 0, 76, 64
1, 768, Note_on_c, 0, 36, 100
1, 768, Note_on_c, 0, 48, 100
1, 768, Note_on_c, 0, 55, 100
1, 768, Note_on_c, 0, 64, 100
1, 768, Note_on_c, 0, 67, 100
1, 768, Note_on_c, 0, 79, 100
1, 816, Note_off_c, 0, 36, 64
1, 816, Note_on_c, 0, 36, 100
1, 816, Note_off_c, 0, 67, 64
1, 864, Note_off_c, 0, 36, 64
1, 864, Note_on_c, 0, 36, 100
1, 864, Note_on_c, 0, 67, 100
1, 912, Note_off_c, 0, 36, 64
1, 912, Note_on_c, 0, 36, 100
1, 912, Note_off_c, 0, 67, 64
1, 960, Note_off_c, 0, 36, 64
1, 960, Note_off_c, 0, 48, 64
1, 960, Note_off_c, 0, 55, 64
1, 960, Note_off_c, 0, 64, 64
1, 960, Note_off_c, 0, 79, 64
1, 1056, Note_on_c, 0, 31, 100
1, 1056, Note_on_c, 0, 43, 100
1, 1056, Note_on_c, 0, 50, 100
1, 1056, Note_on_c, 0, 59, 100
1, 1056, Note_on_c, 0, 62, 100
1, 1056, Note_on_c, 0, 74, 100
1, 1104, Note_off_c, 0, 31, 64
1, 1104, Note_on_c, 0, 31, 100
1, 1104, Note_off_c, 0, 62, 64
1, 1152, Note_off_c, 0, 31, 64
1, 1152, Note_on_c, 0, 31, 100
1, 1152, Note_on_c, 0, 62, 100
1, 1200, Note_off_c, 0, 31, 64
1, 1200, Note_on_c, 0, 31, 100
1, 1200, Note_off_c, 0, 62, 64
1, 1248, Note_off_c, 0, 31, 64
1, 1248, Note_on_c, 0, 31, 100
1, 1248, Note_on_c, 0, 62, 100
1, 1296, Note_off_c, 0, 31, 64
1, 1296, Note_on_c, 0, 31, 100
1, 1296, Note_off_c, 0, 62, 64
1, 1344, Note_off_c, 0, 31, 64
1, 1344, Note_off_c, 0, 43, 64
1, 1344, Note_off_c, 0, 50, 64
1, 1344, Note_off_c, 0, 59, 64
1, 1344, Note_off_c, 0, 74, 64
1, 1440, Note_on_c, 0, 31, 100
1, 1536, Note_off_c, 0, 31, 64
1, 0, Note_on_c, 0, 33, 77
1, 0, Note_on_c, 0, 60, 77
1, 96, Note_on_c, 0, 74, 99
1, 112, Note_on_c, 0, 76, 69
1, 124, Note_off_c, 0, 74, 60
1, 177, Note_off_c, 0, 76, 60
1, 192, Note_on_c, 0, 74, 98
1, 243, Note_off_c, 0, 74, 71
1, 288, Note_on_c, 0, 72, 96
1, 336, Note_on_c, 0, 69, 93
1, 337, Note_off_c, 0, 72, 55
1, 378, Note_off_c, 0, 69, 74
1, 383, Note_off_c, 0, 33, 70
1, 383, Note_off_c, 0, 60, 48
1, 384, Note_on_c, 0, 31, 71
1, 384, Note_on_c, 0, 59, 77
1, 480, Note_on_c, 0, 67, 84
1, 528, Note_off_c, 0, 67, 67
1, 576, Note_on_c, 0, 72, 92
1, 623, Note_off_c, 0, 72, 48
1, 624, Note_on_c, 0, 74, 103
1, 677, Note_off_c, 0, 74, 84
1, 720, Note_on_c, 0, 69, 100
1, 767, Note_off_c, 0, 31, 58
1, 767, Note_off_c, 0, 59, 69
1, 768, Note_on_c, 0, 30, 78
1, 768, Note_on_c, 0, 62, 91
1, 768, Note_off_c, 0, 69, 58
1, 865, Note_on_c, 0, 74, 89
1, 877, Note_on_c, 0, 76, 97
1, 890, Note_off_c, 0, 74, 77
1, 937, Note_off_c, 0, 76, 54
1, 960, Note_on_c, 0, 74, 108
1, 1017, Note_off_c, 0, 74, 69
1, 1056, Note_on_c, 0, 72, 94
1, 1104, Note_on_c, 0, 69, 78
1, 1104, Note_off_c, 0, 72, 50
1, 1151, Note_off_c, 0, 30, 70
1, 1151, Note_off_c, 0, 62, 87
1, 1152, Note_on_c, 0, 29, 69
1, 1152, Note_on_c, 0, 57, 84
1, 1154, Note_off_c, 0, 69, 55
1, 1248, Note_on_c, 0, 67, 66
1, 1296, Note_off_c, 0, 67, 62
1, 1343, Note_off_c, 0, 29, 42
1, 1343, Note_off_c, 0, 57, 67
1, 1344, Note_on_c, 0, 31, 78
1, 1344, Note_on_c, 0, 59, 85
1, 1344, Note_on_c, 0, 77, 81
1, 1392, Note_on_c, 0, 76, 87
1, 1404, Note_off_c, 0, 77, 61
1, 1440, Note_off_c, 0, 76, 82
1, 1488, Note_on_c, 0, 72, 105
1, 1535, Note_off_c, 0, 31, 91
1, 1535, Note_off_c, 0, 59, 89
1, 1537, Note_off_c, 0, 72, 75
1, 0, Note_on_c, 0, 33, 70
1, 0, Note_on_c, 0, 45, 74
1, 0, Note_on_c, 0, 60, 56
1, 0, Note_on_c, 0, 64, 72
1, 0, Note_on_c, 0, 67, 74
1, 48, Note_on_c, 0, 95, 92
1, 56, Note_on_c, 0, 96, 99
1, 61, Note_off_c, 0, 95, 60
1, 96, Note_on_c, 0, 95, 80
1, 96, Note_off_c, 0, 96, 68
1, 116, Note_off_c, 0, 95, 61
1, 144, Note_on_c, 0, 93, 103
1, 159, Note_off_c, 0, 93, 61
1, 192, Note_on_c, 0, 91, 125
1, 247, Note_off_c, 0, 91, 73
1, 264, Note_on_c, 0, 93, 92
1, 278, Note_off_c, 0, 93, 69
1, 336, Note_on_c, 0, 88, 120
1, 383, Note_off_c, 0, 33, 62
1, 383, Note_off_c, 0, 45, 52
1, 383, Note_off_c, 0, 60, 74
1, 383, Note_off_c, 0, 64, 67
1, 383, Note_off_c, 0, 67, 95
1, 384, Note_on_c, 0, 36, 84
1, 384, Note_on_c, 0, 48, 77
1, 384, Note_on_c, 0, 64, 77
1, 384, Note_on_c, 0, 67, 95
1, 384, Note_on_c, 0, 71, 91
1, 391, Note_off_c, 0, 88, 53
1, 432, Note_on_c, 0, 90, 116
1, 436, Note_on_c, 0, 91, 113
1, 443, Note_off_c, 0, 90, 103
1, 468, Note_off_c, 0, 91, 76
1, 480, Note_on_c, 0, 89, 99
1, 502, Note_off_c, 0, 89, 85
1, 528, Note_on_c, 0, 88, 120
1, 541, Note_off_c, 0, 88, 72
1, 576, Note_on_c, 0, 86, 127
1, 632, Note_off_c, 0, 86, 71
1, 648, Note_on_c, 0, 88, 105
1, 662, Note_off_c, 0, 88, 72
1, 720, Note_on_c, 0, 84, 122
1, 767, Note_off_c, 0, 36, 75
1, 767, Note_off_c, 0, 48, 74
1, 767, Note_off_c, 0, 64, 51
1, 767, Note_off_c, 0, 67, 91
1, 767, Note_off_c, 0, 71, 60
1, 767, Note_off_c, 0, 84, 78
1, 768, Note_on_c, 0, 38, 80
1, 768, Note_on_c, 0, 50, 78
1, 768, Note_on_c, 0, 65, 81
1, 768, Note_on_c, 0, 69, 52
1, 768, Note_on_c, 0, 72, 87
1, 816, Note_on_c, 0, 81, 98
1, 842, Note_off_c, 0, 81, 43
1, 864, Note_on_c, 0, 84, 93
1, 887, Note_off_c, 0, 84, 82
1, 912, Note_on_c, 0, 81, 105
1, 925, Note_off_c, 0, 81, 75
1, 960, Note_on_c, 0, 84, 114
1, 1018, Note_off_c, 0, 84, 60
1, 1032, Note_on_c, 0, 86, 105
1, 1047, Note_off_c, 0, 86, 91
1, 1104, Note_on_c, 0, 86, 120
1, 1112, Note_on_c, 0, 88, 96
1, 1116, Note_off_c, 0, 86, 92
1, 1158, Note_off_c, 0, 88, 71
1, 1200, Note_on_c, 0, 81, 110
1, 1214, Note_off_c, 0, 81, 62
1, 1248, Note_on_c, 0, 84, 108
1, 1278, Note_off_c, 0, 84, 64
1, 1296, Note_on_c, 0, 81, 82
1, 1313, Note_off_c, 0, 81, 61
1, 1343, Note_off_c, 0, 38, 75
1, 1343, Note_off_c, 0, 50, 57
1, 1343, Note_off_c, 0, 65, 55
1, 1343, Note_off_c, 0, 69, 41
1, 1343, Note_off_c, 0, 72, 55
1, 1344, Note_on_c, 0, 36, 71
1, 1344, Note_on_c, 0, 48, 77
1, 1344, Note_on_c, 0, 64, 70
1, 1344, Note_on_c, 0, 67, 76
1, 1344, Note_on_c, 0, 71, 94
1, 1344, Note_on_c, 0, 84, 100
1, 1390, Note_off_c, 0, 84, 70
1, 1416, Note_on_c, 0, 85, 105
1, 1423, Note_on_c, 0, 86, 106
1, 1425, Note_off_c, 0, 85, 105
1, 1438, Note_off_c, 0, 86, 85
1, 1488, Note_on_c, 0, 81, 116
1, 1535, Note_off_c, 0, 36, 94
1, 1535, Note_off_c, 0, 48, 70
1, 1535, Note_off_c, 0, 64, 70
1, 1535, Note_off_c, 0, 67, 93
1, 1535, Note_off_c, 0, 71, 58
1, 1537, Note_off_c, 0, 81, 71
1, 0, Note_on_c, 0, 30, 75
1, 0, Note_on_c, 0, 61, 74
1, 48, Note_off_c, 0, 30, 62
1, 48, Note_off_c, 0, 61, 21
1, 72, Note_on_c, 0, 30, 76
1, 72, Note_on_c, 0, 54, 87
1, 120, Note_off_c, 0, 30, 41
1, 120, Note_off_c, 0, 54, 46
1, 144, Note_on_c, 0, 30, 71
1, 144, Note_on_c, 0, 54, 61
1, 192, Note_off_c, 0, 30, 47
1, 192, Note_off_c, 0, 54, 52
1, 216, Note_on_c, 0, 30, 70
1, 216, Note_on_c, 0, 54, 80
1, 264, Note_off_c, 0, 30, 38
1, 264, Note_off_c, 0, 54, 26
1, 288, Note_on_c, 0, 30, 77
1, 288, Note_on_c, 0, 61, 84
1, 312, Note_off_c, 0, 30, 42
1, 336, Note_on_c, 0, 30, 78
1, 336, Note_on_c, 0, 54, 72
1, 336, Note_off_c, 0, 61, 37
1, 360, Note_off_c, 0, 54, 64
1, 384, Note_off_c, 0, 30, 36
1, 384, Note_on_c, 0, 33, 83
1, 384, Note_on_c, 0, 64, 91
1, 432, Note_off_c, 0, 33, 55
1, 456, Note_on_c, 0, 33, 81
1, 456, Note_on_c, 0, 61, 76
1, 456, Note_off_c, 0, 64, 18
1, 480, Note_off_c, 0, 61, 61
1, 504, Note_off_c, 0, 33, 61
1, 528, Note_on_c, 0, 35, 82
1, 528, Note_on_c, 0, 66, 96
1, 576, Note_off_c, 0, 35, 68
1, 576, Note_off_c, 0, 66, 58
1, 600, Note_on_c, 0, 35, 83
1, 600, Note_on_c, 0, 59, 89
1, 648, Note_off_c, 0, 35, 51
1, 648, Note_off_c, 0, 59, 55
1, 672, Note_on_c, 0, 35, 92
1, 672, Note_on_c, 0, 66, 98
1, 719, Note_off_c, 0, 35, 61
1, 720, Note_on_c, 0, 35, 94
1, 720, Note_on_c, 0, 59, 91
1, 720, Note_off_c, 0, 66, 59
1, 768, Note_on_c, 0, 26, 108
1, 768, Note_off_c, 0, 35, 66
1, 768, Note_off_c, 0, 59, 65
1, 768, Note_on_c, 0, 66, 92
1, 816, Note_off_c, 0, 26, 65
1, 816, Note_off_c, 0, 66, 46
1, 840, Note_on_c, 0, 26, 103
1, 840, Note_on_c, 0, 57, 70
1, 888, Note_off_c, 0, 26, 67
1, 888, Note_off_c, 0, 57, 41
1, 912, Note_on_c, 0, 26, 98
1, 912, Note_on_c, 0, 66, 103
1, 960, Note_off_c, 0, 26, 68
1, 960, Note_off_c, 0, 66, 59
1, 984, Note_on_c, 0, 26, 90
1, 984, Note_on_c, 0, 57, 85
1, 1032, Note_off_c, 0, 26, 56
1, 1032, Note_off_c, 0, 57, 51
1, 1056, Note_on_c, 0, 26, 105
1, 1056, Note_on_c, 0, 66, 98
1, 1103, Note_off_c, 0, 26, 67
1, 1104, Note_on_c, 0, 26, 99
1, 1104, Note_on_c, 0, 57, 80
1, 1104, Note_off_c, 0, 66, 48
1, 1128, Note_off_c, 0, 57, 49
1, 1152, Note_off_c, 0, 26, 62
1, 1152, Note_on_c, 0, 28, 81
1, 1152, Note_on_c, 0, 68, 87
1, 1200, Note_off_c, 0, 28, 67
1, 1200, Note_off_c, 0, 68, 38
1, 1224, Note_on_c, 0, 28, 92
1, 1224, Note_on_c, 0, 59, 86
1, 1272, Note_off_c, 0, 28, 69
1, 1272, Note_off_c, 0, 59, 48
1, 1296, Note_on_c, 0, 28, 89
1, 1296, Note_on_c, 0, 68, 86
1, 1344, Note_off_c, 0, 28, 58
1, 1344, Note_off_c, 0, 68, 17
1, 1368, Note_on_c, 0, 28, 89
1, 1368, Note_on_c, 0, 68, 108
1, 1378, Note_off_c, 0, 68, 53
1, 1379, Note_on_c, 0, 69, 89
1, 1391, Note_off_c, 0, 69, 75
1, 1392, Note_on_c, 0, 68, 78
1, 1415, Note_off_c, 0, 68, 63
1, 1416, Note_on_c, 0, 66, 89
1, 1439, Note_off_c, 0, 28, 89
1, 1440, Note_on_c, 0, 28, 89
1, 1440, Note_on_c, 0, 64, 79
1, 1440, Note_off_c, 0, 66, 66
1, 1487, Note_off_c, 0, 28, 89
1, 1488, Note_on_c, 0, 28, 89
1, 1488, Note_on_c, 0, 62, 80
1, 1488, Note_off_c, 0, 64, 57
1, 1535, Note_off_c, 0, 62, 64
1, 1536, Note_off_c, 0, 28, 89
1, 0, Note_on_c, 0, 33, 100
1, 0, Note_on_c, 0, 57, 100
1, 0, Note_on_c, 0, 64, 100
1, 0, Note_on_c, 0, 67, 100
1, 0, Note_on_c, 0, 69, 100
1, 0, Note_on_c, 0, 72, 100
1, 0, Note_on_c, 0, 76, 100
1, 0, Note_on_c, 0, 79, 27
1, 6, Note_off_c, 0, 79, 64
1, 6, Note_on_c, 0, 79, 40
1, 12, Note_off_c, 0, 79, 64
1, 12, Note_on_c, 0, 79, 53
1, 18, Note_off_c, 0, 79, 64
1, 18, Note_on_c, 0, 79, 67
1, 24, Note_off_c, 0, 79, 64
1, 24, Note_on_c, 0, 79, 100
1, 48, Note_off_c, 0, 33, 64
1, 48, Note_off_c, 0, 57, 64
1, 48, Note_off_c, 0, 64, 64
1, 48, Note_off_c, 0, 67, 64
1, 48, Note_off_c, 0, 69, 64
1, 48, Note_off_c, 0, 72, 64
1, 48, Note_off_c, 0, 76, 64
1, 48, Note_on_c, 0, 77, 100
1, 72, Note_off_c, 0, 79, 64
1, 96, Note_on_c, 0, 76, 100
1, 96, Note_off_c, 0, 77, 64
1, 144, Note_on_c, 0, 33, 100
1, 144, Note_on_c, 0, 57, 100
1, 144, Note_on_c, 0, 64, 100
1, 144, Note_on_c, 0, 67, 100
1, 144, Note_on_c, 0, 69, 100
1, 144, Note_on_c, 0, 72, 100
1, 144, Note_off_c, 0, 76, 64
1, 192, Note_off_c, 0, 33, 64
1, 192, Note_off_c, 0, 57, 64
1, 192, Note_off_c, 0, 64, 64
1, 192, Note_off_c, 0, 67, 64
1, 192, Note_off_c, 0, 69, 64
1, 192, Note_off_c, 0, 72, 64
1, 288, Note_on_c, 0, 40, 100
1, 288, Note_on_c, 0, 52, 100
1, 288, Note_on_c, 0, 59, 100
1, 288, Note_on_c, 0, 64, 100
1, 288, Note_on_c, 0, 67, 100
1, 288, Note_on_c, 0, 69, 100
1, 288, Note_on_c, 0, 71, 100
1, 288, Note_on_c, 0, 74, 100
1, 336, Note_off_c, 0, 40, 64
1, 336, Note_off_c, 0, 52, 64
1, 336, Note_off_c, 0, 59, 64
1, 336, Note_off_c, 0, 64, 64
1, 336, Note_off_c, 0, 67, 64
1, 336, Note_off_c, 0, 69, 64
1, 336, Note_off_c, 0, 71, 64
1, 336, Note_off_c, 0, 74, 64
1, 336, Note_on_c, 0, 76, 100
1, 384, Note_on_c, 0, 41, 100
1, 384, Note_on_c, 0, 53, 100
1, 384, Note_on_c, 0, 60, 100
1, 384, Note_on_c, 0, 65, 100
1, 384, Note_on_c, 0, 69, 100
1, 384, Note_on_c, 0, 72, 100
1, 384, Note_off_c, 0, 76, 64
1, 432, Note_off_c, 0, 41, 64
1, 432, Note_off_c, 0, 53, 64
1, 432, Note_off_c, 0, 60, 64
1, 432, Note_off_c, 0, 65, 64
1, 432, Note_off_c, 0, 69, 64
1, 432, Note_off_c, 0, 72, 64
1, 432, Note_on_c, 0, 77, 100
1, 480, Note_off_c, 0, 77, 64
1, 528, Note_on_c, 0, 76, 100
1, 576, Note_off_c, 0, 76, 64
1, 624, Note_on_c, 0, 72, 33
1, 636, Note_off_c, 0, 72, 64
1, 636, Note_on_c, 0, 72, 49
1, 648, Note_off_c, 0, 72, 64
1, 648, Note_on_c, 0, 72, 65
1, 660, Note_off_c, 0, 72, 64
1, 660, Note_on_c, 0, 72, 81
1, 672, Note_off_c, 0, 72, 64
1, 672, Note_on_c, 0, 72, 100
1, 720, Note_on_c, 0, 71, 100
1, 720, Note_off_c, 0, 72, 64
1, 768, Note_on_c, 0, 33, 100
1, 768, Note_on_c, 0, 60, 100
1, 768, Note_on_c, 0, 64, 100
1, 768, Note_on_c, 0, 67, 100
1, 768, Note_off_c, 0, 71, 64
1, 768, Note_on_c, 0, 72, 100
1, 816, Note_off_c, 0, 33, 64
1, 816, Note_off_c, 0, 60, 64
1, 816, Note_off_c, 0, 64, 64
1, 816, Note_off_c, 0, 67, 64
1, 816, Note_off_c, 0, 72, 64
1, 816, Note_on_c, 0, 74, 100
1, 864, Note_on_c, 0, 72, 100
1, 864, Note_off_c, 0, 74, 64
1, 912, Note_on_c, 0, 40, 100
1, 912, Note_on_c, 0, 52, 100
1, 912, Note_on_c, 0, 59, 100
1, 912, Note_on_c, 0, 64, 100
1, 912, Note_on_c, 0, 67, 100
1, 912, Note_off_c, 0, 72, 64
1, 912, Note_on_c, 0, 76, 100
1, 960, Note_off_c, 0, 40, 64
1, 960, Note_off_c, 0, 52, 64
1, 960, Note_off_c, 0, 59, 64
1, 960, Note_off_c, 0, 64, 64
1, 960, Note_off_c, 0, 67, 64
1, 960, Note_off_c, 0, 76, 64
1, 1056, Note_on_c, 0, 40, 100
1, 1056, Note_on_c, 0, 52, 100
1, 1056, Note_on_c, 0, 59, 100
1, 1056, Note_on_c, 0, 64, 100
1, 1056, Note_on_c, 0, 67, 100
1, 1056, Note_on_c, 0, 69, 100
1, 1104, Note_off_c, 0, 40, 64
1, 1104, Note_off_c, 0, 52, 64
1, 1104, Note_off_c, 0, 59, 64
1, 1104, Note_off_c, 0, 64, 64
1, 1104, Note_off_c, 0, 67, 64
1, 1104, Note_off_c, 0, 69, 64
1, 1104, Note_on_c, 0, 71, 100
1, 1152, Note_on_c, 0, 41, 100
1, 1152, Note_on_c, 0, 53, 100
1, 1152, Note_on_c, 0, 60, 100
1, 1152, Note_on_c, 0, 65, 100
1, 1152, Note_on_c, 0, 69, 100
1, 1152, Note_off_c, 0, 71, 64
1, 1152, Note_on_c, 0, 72, 100
1, 1200, Note_off_c, 0, 41, 64
1, 1200, Note_off_c, 0, 53, 64
1, 1200, Note_off_c, 0, 60, 64
1, 1200, Note_off_c, 0, 65, 64
1, 1200, Note_off_c, 0, 69, 64
1, 1200, Note_off_c, 0, 72, 64
1, 1344, Note_on_c, 0, 69, 100
1, 1392, Note_off_c, 0, 69, 64
1, 1392, Note_on_c, 0, 72, 100
1, 1440, Note_on_c, 0, 71, 100
1, 1440, Note_off_c, 0, 72, 64
1, 1488, Note_off_c, 0, 71, 64
1, 1488, Note_on_c, 0, 74, 100
1, 1536, Note_off_c, 0, 74, 64
1, 0, Note_on_c, 0, 33, 76
1, 0, Note_on_c, 0, 60, 95
1, 48, Note_on_c, 0, 84, 59
1, 52, Note_off_c, 0, 33, 53
1, 55, Note_off_c, 0, 60, 58
1, 72, Note_on_c, 0, 33, 75
1, 72, Note_on_c, 0, 60, 92
1, 74, Note_off_c, 0, 84, 43
1, 112, Note_off_c, 0, 33, 31
1, 118, Note_off_c, 0, 60, 57
1, 144, Note_on_c, 0, 33, 75
1, 144, Note_on_c, 0, 60, 93
1, 144, Note_on_c, 0, 81, 89
1, 171, Note_off_c, 0, 81, 49
1, 186, Note_off_c, 0, 33, 49
1, 190, Note_off_c, 0, 60, 55
1, 192, Note_on_c, 0, 84, 72
1, 216, Note_on_c, 0, 33, 76
1, 216, Note_on_c, 0, 60, 91
1, 227, Note_off_c, 0, 84, 25
1, 252, Note_off_c, 0, 33, 40
1, 257, Note_off_c, 0, 60, 62
1, 288, Note_on_c, 0, 33, 72
1, 288, Note_on_c, 0, 60, 91
1, 288, Note_on_c, 0, 86, 85
1, 317, Note_off_c, 0, 86, 54
1, 336, Note_on_c, 0, 88, 92
1, 342, Note_off_c, 0, 33, 43
1, 342, Note_off_c, 0, 60, 45
1, 358, Note_off_c, 0, 88, 58
1, 360, Note_on_c, 0, 33, 70
1, 360, Note_on_c, 0, 60, 90
1, 403, Note_off_c, 0, 33, 40
1, 406, Note_off_c, 0, 60, 48
1, 432, Note_on_c, 0, 33, 66
1, 432, Note_on_c, 0, 60, 89
1, 471, Note_off_c, 0, 33, 33
1, 478, Note_off_c, 0, 60, 44
1, 480, Note_on_c, 0, 88, 82
1, 503, Note_off_c, 0, 88, 47
1, 504, Note_on_c, 0, 33, 77
1, 504, Note_on_c, 0, 60, 89
1, 539, Note_off_c, 0, 33, 23
1, 540, Note_off_c, 0, 60, 55
1, 576, Note_on_c, 0, 35, 84
1, 576, Note_on_c, 0, 62, 94
1, 576, Note_on_c, 0, 89, 72
1, 603, Note_off_c, 0, 89, 28
1, 618, Note_off_c, 0, 35, 41
1, 629, Note_off_c, 0, 62, 37
1, 648, Note_on_c, 0, 35, 81
1, 648, Note_on_c, 0, 62, 91
1, 672, Note_on_c, 0, 88, 89
1, 689, Note_off_c, 0, 35, 44
1, 689, Note_off_c, 0, 62, 59
1, 705, Note_off_c, 0, 88, 43
1, 720, Note_on_c, 0, 35, 75
1, 720, Note_on_c, 0, 62, 92
1, 720, Note_on_c, 0, 84, 70
1, 748, Note_off_c, 0, 35, 27
1, 749, Note_off_c, 0, 84, 27
1, 753, Note_off_c, 0, 62, 60
1, 768, Note_on_c, 0, 36, 81
1, 768, Note_on_c, 0, 64, 86
1, 818, Note_off_c, 0, 36, 60
1, 826, Note_off_c, 0, 64, 46
1, 840, Note_on_c, 0, 36, 88
1, 840, Note_on_c, 0, 64, 86
1, 864, Note_on_c, 0, 88, 89
1, 878, Note_off_c, 0, 64, 55
1, 882, Note_off_c, 0, 36, 51
1, 882, Note_off_c, 0, 88, 84
1, 912, Note_on_c, 0, 29, 98
1, 912, Note_on_c, 0, 57, 70
1, 912, Note_on_c, 0, 89, 91
1, 940, Note_off_c, 0, 89, 20
1, 958, Note_off_c, 0, 57, 24
1, 964, Note_off_c, 0, 29, 64
1, 984, Note_on_c, 0, 29, 105
1, 984, Note_on_c, 0, 57, 81
1, 1028, Note_off_c, 0, 57, 30
1, 1030, Note_off_c, 0, 29, 51
1, 1056, Note_on_c, 0, 29, 106
1, 1056, Note_on_c, 0, 57, 87
1, 1056, Note_on_c, 0, 88, 85
1, 1096, Note_off_c, 0, 88, 60
1, 1104, Note_on_c, 0, 81, 77
1, 1107, Note_off_c, 0, 57, 12
1, 1108, Note_off_c, 0, 29, 51
1, 1128, Note_on_c, 0, 29, 99
1, 1128, Note_on_c, 0, 57, 86
1, 1146, Note_off_c, 0, 81, 51
1, 1171, Note_off_c, 0, 29, 55
1, 1172, Note_off_c, 0, 57, 37
1, 1200, Note_on_c, 0, 29, 93
1, 1200, Note_on_c, 0, 57, 84
1, 1247, Note_off_c, 0, 29, 54
1, 1248, Note_on_c, 0, 81, 82
1, 1250, Note_off_c, 0, 57, 32
1, 1272, Note_on_c, 0, 29, 100
1, 1272, Note_on_c, 0, 57, 78
1, 1283, Note_off_c, 0, 81, 57
1, 1309, Note_off_c, 0, 57, 32
1, 1317, Note_off_c, 0, 29, 48
1, 1344, Note_on_c, 0, 29, 97
1, 1344, Note_on_c, 0, 57, 84
1, 1344, Note_on_c, 0, 79, 58
1, 1381, Note_off_c, 0, 79, 20
1, 1392, Note_on_c, 0, 81, 58
1, 1393, Note_off_c, 0, 29, 55
1, 1399, Note_off_c, 0, 57, 18
1, 1416, Note_on_c, 0, 31, 89
1, 1416, Note_on_c, 0, 59, 81
1, 1429, Note_off_c, 0, 81, 64
1, 1440, Note_on_c, 0, 84, 75
1, 1456, Note_off_c, 0, 59, 36
1, 1458, Note_off_c, 0, 31, 62
1, 1468, Note_off_c, 0, 84, 47
1, 1488, Note_on_c, 0, 31, 89
1, 1488, Note_on_c, 0, 59, 82
1, 1488, Note_on_c, 0, 86, 75
1, 1516, Note_off_c, 0, 86, 64
1, 1520, Note_off_c, 0, 59, 42
1, 1523, Note_off_c, 0, 31, 72
1, 0, Pitch_bend_c, 0, 8192
1, 0, Control_c, 0, 6, 12
1, 0, Control_c, 0, 7, 100
1, 0, Control_c, 0, 10, 64
1, 0, Control_c, 0, 100, 0
1, 0, Control_c, 0, 101, 0
1, 0, Note_on_c, 0, 57, 100
1, 2, Note_on_c, 0, 60, 100
1, 4, Note_on_c, 0, 64, 100
1, 72, Note_off_c, 0, 57, 64
1, 72, Note_on_c, 0, 57, 100
1, 72, Note_off_c, 0, 60, 64
1, 72, Note_on_c, 0, 60, 100
1, 72, Note_off_c, 0, 64, 64
1, 144, Note_off_c, 0, 57, 64
1, 144, Note_on_c, 0, 57, 100
1, 144, Note_off_c, 0, 60, 64
1, 144, Note_on_c, 0, 60, 100
1, 192, Note_on_c, 0, 55, 100
1, 192, Note_off_c, 0, 57, 64
1, 192, Note_off_c, 0, 60, 64
1, 194, Note_on_c, 0, 59, 100
1, 196, Note_on_c, 0, 62, 100
1, 264, Note_off_c, 0, 55, 64
1, 264, Note_on_c, 0, 55, 100
1, 264, Note_off_c, 0, 59, 64
1, 264, Note_on_c, 0, 59, 100
1, 264, Note_off_c, 0, 62, 64
1, 336, Note_off_c, 0, 55, 64
1, 336, Note_on_c, 0, 55, 100
1, 336, Note_off_c, 0, 59, 64
1, 336, Note_on_c, 0, 59, 100
1, 384, Note_off_c, 0, 55, 64
1, 384, Note_on_c, 0, 55, 100
1, 384, Note_off_c, 0, 59, 64
1, 386, Note_on_c, 0, 59, 100
1, 388, Note_on_c, 0, 62, 100
1, 456, Note_off_c, 0, 55, 64
1, 456, Note_off_c, 0, 59, 64
1, 456, Note_on_c, 0, 59, 100
1, 456, Note_off_c, 0, 62, 64
1, 456, Note_on_c, 0, 62, 100
1, 528, Note_off_c, 0, 59, 64
1, 528, Note_on_c, 0, 59, 100
1, 528, Note_off_c, 0, 62, 64
1, 528, Note_on_c, 0, 62, 100
1, 576, Note_off_c, 0, 59, 64
1, 576, Note_on_c, 0, 60, 100
1, 576, Note_off_c, 0, 62, 64
1, 578, Note_on_c, 0, 64, 100
1, 580, Note_on_c, 0, 67, 100
1, 648, Note_off_c, 0, 60, 64
1, 648, Note_on_c, 0, 60, 100
1, 648, Note_off_c, 0, 64, 64
1, 648, Note_on_c, 0, 64, 100
1, 648, Note_off_c, 0, 67, 64
1, 720, Note_off_c, 0, 60, 64
1, 720, Note_on_c, 0, 60, 100
1, 720, Note_off_c, 0, 64, 64
1, 720, Note_on_c, 0, 64, 100
1, 768, Note_on_c, 0, 57, 100
1, 768, Note_off_c, 0, 60, 64
1, 768, Note_off_c, 0, 64, 64
1, 770, Note_on_c, 0, 60, 100
1, 772, Note_on_c, 0, 64, 100
1, 840, Note_off_c, 0, 57, 64
1, 840, Note_on_c, 0, 57, 100
1, 840, Note_off_c, 0, 60, 64
1, 840, Note_on_c, 0, 60, 100
1, 840, Note_off_c, 0, 64, 64
1, 912, Note_off_c, 0, 57, 64
1, 912, Note_on_c, 0, 57, 100
1, 912, Note_off_c, 0, 60, 64
1, 912, Note_on_c, 0, 60, 100
1, 960, Note_on_c, 0, 55, 100
1, 960, Note_off_c, 0, 57, 64
1, 960, Note_off_c, 0, 60, 64
1, 962, Note_on_c, 0, 59, 100
1, 964, Note_on_c, 0, 62, 100
1, 1032, Note_off_c, 0, 55, 64
1, 1032, Note_on_c, 0, 55, 100
1, 1032, Note_off_c, 0, 59, 64
1, 1032, Note_on_c, 0, 59, 100
1, 1032, Note_off_c, 0, 62, 64
1, 1104, Note_off_c, 0, 55, 64
1, 1104, Note_on_c, 0, 55, 100
1, 1104, Note_off_c, 0, 59, 64
1, 1104, Note_on_c, 0, 59, 100
1, 1152, Note_on_c, 0, 53, 100
1, 1152, Note_off_c, 0, 55, 64
1, 1152, Note_off_c, 0, 59, 64
1, 1154, Note_on_c, 0, 57, 100
1, 1156, Note_on_c, 0, 60, 100
1, 1224, Note_off_c, 0, 53, 64
1, 1224, Note_on_c, 0, 53, 100
1, 1224, Note_off_c, 0, 57, 64
1, 1224, Note_on_c, 0, 57, 100
1, 1224, Note_off_c, 0, 60, 64
1, 1296, Note_off_c, 0, 53, 64
1, 1296, Note_on_c, 0, 53, 100
1, 1296, Note_off_c, 0, 57, 64
1, 1296, Note_on_c, 0, 57, 100
1, 1344, Note_on_c, 0, 52, 100
1, 1344, Note_off_c, 0, 53, 64
1, 1344, Note_off_c, 0, 57, 64
1, 1346, Note_on_c, 0, 55, 100
1, 1348, Note_on_c, 0, 60, 100
1, 1416, Note_off_c, 0, 52, 64
1, 1416, Note_on_c, 0, 52, 100
1, 1416, Note_off_c, 0, 55, 64
1, 1416, Note_on_c, 0, 55, 100
1, 1416, Note_off_c, 0, 60, 64
1, 1488, Note_off_c, 0, 52, 64
1, 1488, Note_off_c, 0, 55, 64
1, 1488, Note_on_c, 0, 55, 100
1, 1488, Note_on_c, 0, 59, 100
1, 1535, Pitch_bend_c, 0, 8192
1, 1535, Pitch_bend_c, 0, 8192
1, 1535, Control_c, 0, 7, 100
1, 1535, Control_c, 0, 7, 100
1, 1535, Control_c, 0, 10, 64
1, 1535, Control_c, 0, 10, 64
1, 1535, Note_off_c, 0, 55, 64
1, 1535, Note_off_c, 0, 59, 64
1, 1536, Pitch_bend_c, 0, 8192
1, 1536, Control_c, 0, 6, 12
1, 1536, Control_c, 0, 6, 12
1, 1536, Control_c, 0, 7, 100
1, 1536, Control_c, 0, 10, 64
1, 1536, Control_c, 0, 100, 0
1, 1536, Control_c, 0, 100, 0
1, 1536, Control_c, 0, 101, 0
1, 1536, Control_c, 0, 101, 0
1, 0, Note_on_c, 0, 41, 127
1, 0, Note_on_c, 0, 53, 127
1, 0, Note_on_c, 0, 60, 127
1, 0, Note_on_c, 0, 64, 127
1, 0, Note_on_c, 0, 65, 127
1, 0, Note_on_c, 0, 69, 127
1, 0, Note_on_c, 0, 72, 127
1, 0, Note_on_c, 0, 93, 127
1, 96, Note_off_c, 0, 93, 64
1, 144, Note_on_c, 0, 91, 127
1, 192, Note_off_c, 0, 91, 64
1, 240, Note_on_c, 0, 84, 127
1, 288, Note_off_c, 0, 84, 64
1, 384, Note_off_c, 0, 41, 64
1, 384, Note_on_c, 0, 48, 127
1, 384, Note_off_c, 0, 53, 64
1, 384, Note_off_c, 0, 60, 64
1, 384, Note_on_c, 0, 60, 127
1, 384, Note_on_c, 0, 62, 127
1, 384, Note_off_c, 0, 64, 64
1, 384, Note_on_c, 0, 64, 127
1, 384, Note_off_c, 0, 65, 64
1, 384, Note_on_c, 0, 67, 127
1, 384, Note_off_c, 0, 69, 64
1, 384, Note_off_c, 0, 72, 64
1, 384, Note_on_c, 0, 72, 127
1, 384, Note_on_c, 0, 76, 127
1, 384, Note_on_c, 0, 84, 127
1, 432, Note_off_c, 0, 84, 64
1, 432, Note_on_c, 0, 88, 127
1, 480, Note_off_c, 0, 88, 64
1, 528, Note_on_c, 0, 88, 127
1, 576, Note_off_c, 0, 88, 64
1, 576, Note_on_c, 0, 91, 127
1, 624, Note_off_c, 0, 91, 64
1, 672, Note_on_c, 0, 84, 127
1, 768, Note_on_c, 0, 43, 127
1, 768, Note_off_c, 0, 48, 64
1, 768, Note_on_c, 0, 55, 127
1, 768, Note_off_c, 0, 60, 64
1, 768, Note_off_c, 0, 62, 64
1, 768, Note_on_c, 0, 62, 127
1, 768, Note_off_c, 0, 64, 64
1, 768, Note_off_c, 0, 67, 64
1, 768, Note_on_c, 0, 67, 127
1, 768, Note_on_c, 0, 69, 127
1, 768, Note_on_c, 0, 71, 127
1, 768, Note_off_c, 0, 72, 64
1, 768, Note_off_c, 0, 76, 64
1, 768, Note_off_c, 0, 84, 64
1, 768, Note_on_c, 0, 93, 127
1, 864, Note_off_c, 0, 93, 64
1, 912, Note_on_c, 0, 91, 127
1, 960, Note_off_c, 0, 91, 64
1, 1008, Note_on_c, 0, 84, 127
1, 1056, Note_off_c, 0, 84, 64
1, 1056, Note_on_c, 0, 95, 127
1, 1152, Note_off_c, 0, 43, 64
1, 1152, Note_on_c, 0, 45, 127
1, 1152, Note_off_c, 0, 55, 64
1, 1152, Note_on_c, 0, 57, 127
1, 1152, Note_off_c, 0, 62, 64
1, 1152, Note_on_c, 0, 62, 127
1, 1152, Note_on_c, 0, 64, 127
1, 1152, Note_off_c, 0, 67, 64
1, 1152, Note_on_c, 0, 67, 127
1, 1152, Note_off_c, 0, 69, 64
1, 1152, Note_on_c, 0, 69, 127
1, 1152, Note_off_c, 0, 71, 64
1, 1152, Note_on_c, 0, 72, 127
1, 1152, Note_off_c, 0, 95, 64
1, 1152, Note_on_c, 0, 96, 127
1, 1200, Note_on_c, 0, 91, 127
1, 1200, Note_off_c, 0, 96, 64
1, 1248, Note_on_c, 0, 88, 127
1, 1248, Note_off_c, 0, 91, 64
1, 1296, Note_on_c, 0, 86, 127
1, 1296, Note_off_c, 0, 88, 64
1, 1344, Note_off_c, 0, 86, 64
1, 1392, Note_on_c, 0, 86, 127
1, 1440, Note_on_c, 0, 84, 127
1, 1440, Note_off_c, 0, 86, 64
1, 1536, Note_off_c, 0, 45, 64
1, 1536, Note_off_c, 0, 57, 64
1, 1536, Note_off_c, 0, 62, 64
1, 1536, Note_off_c, 0, 64, 64
1, 1536, Note_off_c, 0, 67, 64
1, 1536, Note_off_c, 0, 69, 64
1, 1536, Note_off_c, 0, 72, 64
1, 1536, Note_off_c, 0, 84, 64
1, 0, Note_on_c, 0, 45, 80
1, 0, Note_on_c, 0, 57, 80
1, 0, Note_on_c, 0, 64, 80
1, 0, Note_on_c, 0, 69, 80
1, 0, Note_on_c, 0, 72, 80
1, 72, Note_off_c, 0, 45, 64
1, 72, Note_off_c, 0, 57, 64
1, 72, Note_off_c, 0, 64, 64
1, 72, Note_off_c, 0, 69, 64
1, 72, Note_off_c, 0, 72, 64
1, 144, Note_on_c, 0, 45, 80
1, 144, Note_on_c, 0, 57, 80
1, 144, Note_on_c, 0, 64, 80
1, 144, Note_on_c, 0, 69, 80
1, 144, Note_on_c, 0, 72, 80
1, 216, Note_off_c, 0, 45, 64
1, 216, Note_off_c, 0, 57, 64
1, 216, Note_off_c, 0, 64, 64
1, 216, Note_off_c, 0, 69, 64
1, 216, Note_off_c, 0, 72, 64
1, 240, Note_on_c, 0, 45, 80
1, 240, Note_on_c, 0, 57, 80
1, 240, Note_on_c, 0, 64, 80
1, 240, Note_on_c, 0, 69, 80
1, 240, Note_on_c, 0, 74, 80
1, 312, Note_off_c, 0, 45, 64
1, 312, Note_on_c, 0, 45, 80
1, 312, Note_off_c, 0, 57, 64
1, 312, Note_on_c, 0, 57, 80
1, 312, Note_off_c, 0, 64, 64
1, 312, Note_on_c, 0, 64, 80
1, 312, Note_off_c, 0, 69, 64
1, 312, Note_on_c, 0, 69, 80
1, 312, Note_on_c, 0, 71, 80
1, 312, Note_off_c, 0, 74, 64
1, 384, Note_on_c, 0, 41, 80
1, 384, Note_off_c, 0, 45, 64
1, 384, Note_on_c, 0, 53, 80
1, 384, Note_off_c, 0, 57, 64
1, 384, Note_on_c, 0, 60, 80
1, 384, Note_off_c, 0, 64, 64
1, 384, Note_on_c, 0, 65, 80
1, 384, Note_off_c, 0, 69, 64
1, 384, Note_on_c, 0, 69, 80
1, 384, Note_off_c, 0, 71, 64
1, 384, Note_on_c, 0, 72, 80
1, 456, Note_off_c, 0, 41, 64
1, 456, Note_off_c, 0, 53, 64
1, 456, Note_off_c, 0, 60, 64
1, 456, Note_off_c, 0, 65, 64
1, 456, Note_off_c, 0, 69, 64
1, 456, Note_off_c, 0, 72, 64
1, 528, Note_on_c, 0, 41, 80
1, 528, Note_on_c, 0, 53, 80
1, 528, Note_on_c, 0, 60, 80
1, 528, Note_on_c, 0, 65, 80
1, 528, Note_on_c, 0, 69, 80
1, 528, Note_on_c, 0, 79, 80
1, 576, Note_on_c, 0, 76, 80
1, 576, Note_off_c, 0, 79, 64
1, 648, Note_off_c, 0, 41, 64
1, 648, Note_on_c, 0, 41, 80
1, 648, Note_off_c, 0, 53, 64
1, 648, Note_on_c, 0, 53, 80
1, 648, Note_off_c, 0, 60, 64
1, 648, Note_on_c, 0, 60, 80
1, 648, Note_off_c, 0, 65, 64
1, 648, Note_on_c, 0, 65, 80
1, 648, Note_off_c, 0, 69, 64
1, 648, Note_on_c, 0, 69, 80
1, 648, Note_off_c, 0, 76, 64
1, 648, Note_on_c, 0, 77, 80
1, 720, Note_on_c, 0, 76, 80
1, 720, Note_off_c, 0, 77, 64
1, 768, Note_off_c, 0, 41, 64
1, 768, Note_on_c, 0, 50, 80
1, 768, Note_off_c, 0, 53, 64
1, 768, Note_off_c, 0, 60, 64
1, 768, Note_off_c, 0, 65, 64
1, 768, Note_on_c, 0, 65, 80
1, 768, Note_off_c, 0, 69, 64
1, 768, Note_on_c, 0, 69, 80
1, 768, Note_on_c, 0, 72, 80
1, 768, Note_off_c, 0, 76, 64
1, 840, Note_off_c, 0, 50, 64
1, 840, Note_off_c, 0, 65, 64
1, 840, Note_off_c, 0, 69, 64
1, 840, Note_off_c, 0, 72, 64
1, 912, Note_on_c, 0, 50, 80
1, 912, Note_on_c, 0, 65, 80
1, 912, Note_on_c, 0, 69, 80
1, 912, Note_on_c, 0, 72, 80
1, 984, Note_off_c, 0, 50, 64
1, 984, Note_off_c, 0, 65, 64
1, 984, Note_off_c, 0, 69, 64
1, 984, Note_off_c, 0, 72, 64
1, 1008, Note_on_c, 0, 50, 80
1, 1008, Note_on_c, 0, 65, 80
1, 1008, Note_on_c, 0, 69, 80
1, 1008, Note_on_c, 0, 77, 80
1, 1080, Note_off_c, 0, 50, 64
1, 1080, Note_on_c, 0, 50, 80
1, 1080, Note_off_c, 0, 65, 64
1, 1080, Note_on_c, 0, 65, 80
1, 1080, Note_off_c, 0, 69, 64
1, 1080, Note_on_c, 0, 69, 80
1, 1080, Note_on_c, 0, 72, 80
1, 1080, Note_off_c, 0, 77, 64
1, 1152, Note_on_c, 0, 43, 80
1, 1152, Note_off_c, 0, 50, 64
1, 1152, Note_on_c, 0, 55, 80
1, 1152, Note_on_c, 0, 62, 80
1, 1152, Note_off_c, 0, 65, 64
1, 1152, Note_on_c, 0, 67, 80
1, 1152, Note_off_c, 0, 69, 64
1, 1152, Note_on_c, 0, 71, 80
1, 1152, Note_off_c, 0, 72, 64
1, 1224, Note_off_c, 0, 43, 64
1, 1224, Note_off_c, 0, 55, 64
1, 1224, Note_off_c, 0, 62, 64
1, 1224, Note_off_c, 0, 67, 64
1, 1224, Note_off_c, 0, 71, 64
1, 1296, Note_on_c, 0, 43, 80
1, 1296, Note_on_c, 0, 55, 80
1, 1296, Note_on_c, 0, 62, 80
1, 1296, Note_on_c, 0, 67, 80
1, 1296, Note_on_c, 0, 71, 80
1, 1368, Note_off_c, 0, 43, 64
1, 1368, Note_off_c, 0, 55, 64
1, 1368, Note_off_c, 0, 62, 64
1, 1368, Note_off_c, 0, 67, 64
1, 1368, Note_off_c, 0, 71, 64
1, 1392, Note_on_c, 0, 43, 80
1, 1392, Note_on_c, 0, 55, 80
1, 1392, Note_on_c, 0, 62, 80
1, 1392, Note_on_c, 0, 67, 80
1, 1392, Note_on_c, 0, 71, 80
1, 1440, Note_on_c, 0, 79, 80
1, 1464, Note_off_c, 0, 43, 64
1, 1464, Note_on_c, 0, 43, 80
1, 1464, Note_off_c, 0, 55, 64
1, 1464, Note_on_c, 0, 55, 80
1, 1464, Note_off_c, 0, 62, 64
1, 1464, Note_on_c, 0, 62, 80
1, 1464, Note_off_c, 0, 67, 64
1, 1464, Note_on_c, 0, 67, 80
1, 1464, Note_off_c, 0, 71, 64
1, 1464, Note_on_c, 0, 71, 80
1, 1488, Note_on_c, 0, 74, 80
1, 1488, Note_off_c, 0, 79, 64
1, 1536, Note_off_c, 0, 43, 64
1, 1536, Note_off_c, 0, 55, 64
1, 1536, Note_off_c, 0, 62, 64
1, 1536, Note_off_c, 0, 67, 64
1, 1536, Note_off_c, 0, 71, 64
1, 1536, Note_off_c, 0, 74, 64
1, 0, Note_on_c, 0, 57, 63
1, 96, Note_on_c, 0, 69, 72
1, 107, Note_off_c, 0, 57, 34
1, 120, Note_on_c, 0, 57, 82
1, 124, Note_off_c, 0, 69, 72
1, 168, Note_on_c, 0, 70, 102
1, 172, Note_off_c, 0, 57, 64
1, 192, Note_on_c, 0, 57, 71
1, 196, Note_off_c, 0, 70, 68
1, 288, Note_on_c, 0, 69, 90
1, 306, Note_off_c, 0, 57, 25
1, 312, Note_on_c, 0, 57, 72
1, 324, Note_off_c, 0, 69, 66
1, 360, Note_on_c, 0, 70, 114
1, 368, Note_off_c, 0, 57, 72
1, 384, Note_on_c, 0, 57, 72
1, 408, Note_off_c, 0, 70, 64
1, 480, Note_on_c, 0, 69, 80
1, 495, Note_off_c, 0, 57, 36
1, 504, Note_on_c, 0, 72, 112
1, 508, Note_off_c, 0, 69, 72
1, 552, Note_on_c, 0, 69, 110
1, 568, Note_off_c, 0, 72, 82
1, 576, Note_on_c, 0, 57, 75
1, 600, Note_off_c, 0, 69, 60
1, 672, Note_on_c, 0, 67, 71
1, 691, Note_off_c, 0, 57, 26
1, 696, Note_off_c, 0, 67, 68
1, 696, Note_on_c, 0, 70, 80
1, 720, Note_on_c, 0, 67, 84
1, 729, Note_off_c, 0, 70, 70
1, 768, Note_on_c, 0, 57, 63
1, 771, Note_off_c, 0, 67, 67
1, 864, Note_on_c, 0, 69, 72
1, 875, Note_off_c, 0, 57, 64
1, 888, Note_on_c, 0, 57, 82
1, 892, Note_off_c, 0, 69, 64
1, 936, Note_on_c, 0, 70, 102
1, 940, Note_off_c, 0, 57, 64
1, 960, Note_on_c, 0, 57, 71
1, 964, Note_off_c, 0, 70, 64
1, 1056, Note_on_c, 0, 69, 90
1, 1074, Note_off_c, 0, 57, 64
1, 1080, Note_on_c, 0, 57, 72
1, 1092, Note_off_c, 0, 69, 64
1, 1128, Note_on_c, 0, 70, 114
1, 1136, Note_off_c, 0, 57, 64
1, 1152, Note_on_c, 0, 57, 72
1, 1176, Note_off_c, 0, 70, 64
1, 1248, Note_on_c, 0, 69, 80
1, 1263, Note_off_c, 0, 57, 64
1, 1272, Note_on_c, 0, 72, 112
1, 1276, Note_off_c, 0, 69, 64
1, 1320, Note_on_c, 0, 69, 110
1, 1336, Note_off_c, 0, 72, 64
1, 1344, Note_on_c, 0, 57, 75
1, 1368, Note_off_c, 0, 69, 64
1, 1440, Note_on_c, 0, 67, 71
1, 1459, Note_off_c, 0, 57, 64
1, 1464, Note_off_c, 0, 67, 64
1, 1464, Note_on_c, 0, 70, 80
1, 1488, Note_on_c, 0, 67, 84
1, 1497, Note_off_c, 0, 70, 64
1, 1539, Note_off_c, 0, 67, 64
1, 0, Note_on_c, 0, 50, 70
1, 0, Note_on_c, 0, 53, 70
1, 0, Note_on_c, 0, 57, 70
1, 0, Note_on_c, 0, 62, 70
1, 0, Note_on_c, 0, 69, 70
1, 0, Note_on_c, 0, 84, 100
1, 24, Note_off_c, 0, 84, 64
1, 48, Note_on_c, 0, 84, 100
1, 72, Note_off_c, 0, 84, 64
1, 72, Note_on_c, 0, 86, 100
1, 106, Note_off_c, 0, 86, 64
1, 120, Note_on_c, 0, 88, 100
1, 144, Note_off_c, 0, 50, 64
1, 144, Note_on_c, 0, 52, 70
1, 144, Note_off_c, 0, 53, 64
1, 144, Note_off_c, 0, 57, 64
1, 144, Note_on_c, 0, 57, 70
1, 144, Note_on_c, 0, 60, 70
1, 144, Note_off_c, 0, 62, 64
1, 144, Note_off_c, 0, 69, 64
1, 144, Note_on_c, 0, 69, 70
1, 144, Note_on_c, 0, 72, 70
1, 144, Note_off_c, 0, 88, 64
1, 168, Note_on_c, 0, 79, 100
1, 192, Note_off_c, 0, 79, 64
1, 192, Note_on_c, 0, 81, 100
1, 232, Note_off_c, 0, 81, 64
1, 312, Note_on_c, 0, 81, 100
1, 360, Note_off_c, 0, 81, 64
1, 384, Note_on_c, 0, 48, 70
1, 384, Note_off_c, 0, 52, 64
1, 384, Note_on_c, 0, 53, 70
1, 384, Note_off_c, 0, 57, 64
1, 384, Note_on_c, 0, 57, 70
1, 384, Note_off_c, 0, 60, 64
1, 384, Note_on_c, 0, 60, 70
1, 384, Note_off_c, 0, 69, 64
1, 384, Note_on_c, 0, 69, 70
1, 384, Note_off_c, 0, 72, 64
1, 384, Note_on_c, 0, 72, 70
1, 384, Note_on_c, 0, 84, 100
1, 432, Note_off_c, 0, 84, 64
1, 456, Note_on_c, 0, 84, 100
1, 480, Note_on_c, 0, 86, 100
1, 490, Note_off_c, 0, 86, 64
1, 504, Note_off_c, 0, 84, 64
1, 504, Note_on_c, 0, 86, 100
1, 513, Note_on_c, 0, 88, 100
1, 517, Note_off_c, 0, 86, 64
1, 527, Note_off_c, 0, 88, 64
1, 528, Note_off_c, 0, 48, 64
1, 528, Note_on_c, 0, 50, 70
1, 528, Note_off_c, 0, 53, 64
1, 528, Note_on_c, 0, 55, 70
1, 528, Note_off_c, 0, 57, 64
1, 528, Note_on_c, 0, 59, 70
1, 528, Note_off_c, 0, 60, 64
1, 528, Note_on_c, 0, 62, 70
1, 528, Note_off_c, 0, 69, 64
1, 528, Note_on_c, 0, 71, 70
1, 528, Note_off_c, 0, 72, 64
1, 528, Note_on_c, 0, 74, 70
1, 552, Note_on_c, 0, 86, 100
1, 565, Note_off_c, 0, 86, 64
1, 600, Note_on_c, 0, 84, 100
1, 648, Note_off_c, 0, 84, 64
1, 648, Note_on_c, 0, 86, 100
1, 672, Note_on_c, 0, 84, 100
1, 696, Note_off_c, 0, 86, 64
1, 720, Note_on_c, 0, 81, 100
1, 720, Note_off_c, 0, 84, 64
1, 768, Note_off_c, 0, 50, 64
1, 768, Note_on_c, 0, 50, 70
1, 768, Note_on_c, 0, 53, 70
1, 768, Note_off_c, 0, 55, 64
1, 768, Note_on_c, 0, 57, 70
1, 768, Note_off_c, 0, 59, 64
1, 768, Note_off_c, 0, 62, 64
1, 768, Note_on_c, 0, 62, 70
1, 768, Note_on_c, 0, 69, 70
1, 768, Note_off_c, 0, 71, 64
1, 768, Note_off_c, 0, 74, 64
1, 768, Note_off_c, 0, 81, 64
1, 768, Note_on_c, 0, 84, 100
1, 792, Note_off_c, 0, 84, 64
1, 816, Note_on_c, 0, 84, 100
1, 840, Note_off_c, 0, 84, 64
1, 840, Note_on_c, 0, 86, 100
1, 874, Note_off_c, 0, 86, 64
1, 888, Note_on_c, 0, 88, 100
1, 912, Note_off_c, 0, 50, 64
1, 912, Note_on_c, 0, 52, 70
1, 912, Note_off_c, 0, 53, 64
1, 912, Note_off_c, 0, 57, 64
1, 912, Note_on_c, 0, 57, 70
1, 912, Note_on_c, 0, 60, 70
1, 912, Note_off_c, 0, 62, 64
1, 912, Note_off_c, 0, 69, 64
1, 912, Note_on_c, 0, 69, 70
1, 912, Note_off_c, 0, 88, 64
1, 936, Note_on_c, 0, 79, 100
1, 960, Note_off_c, 0, 79, 64
1, 960, Note_on_c, 0, 81, 100
1, 1000, Note_off_c, 0, 81, 64
1, 1080, Note_on_c, 0, 81, 100
1, 1128, Note_off_c, 0, 81, 64
1, 1152, Note_on_c, 0, 48, 70
1, 1152, Note_off_c, 0, 52, 64
1, 1152, Note_on_c, 0, 53, 70
1, 1152, Note_off_c, 0, 57, 64
1, 1152, Note_on_c, 0, 57, 70
1, 1152, Note_off_c, 0, 60, 64
1, 1152, Note_on_c, 0, 60, 70
1, 1152, Note_off_c, 0, 69, 64
1, 1152, Note_on_c, 0, 69, 70
1, 1152, Note_on_c, 0, 84, 100
1, 1200, Note_off_c, 0, 84, 64
1, 1224, Note_on_c, 0, 84, 100
1, 1248, Note_on_c, 0, 86, 100
1, 1258, Note_off_c, 0, 86, 64
1, 1272, Note_off_c, 0, 84, 64
1, 1272, Note_on_c, 0, 86, 100
1, 1281, Note_on_c, 0, 88, 100
1, 1285, Note_off_c, 0, 86, 64
1, 1295, Note_off_c, 0, 88, 64
1, 1296, Note_off_c, 0, 48, 64
1, 1296, Note_on_c, 0, 50, 70
1, 1296, Note_off_c, 0, 53, 64
1, 1296, Note_on_c, 0, 55, 70
1, 1296, Note_off_c, 0, 57, 64
1, 1296, Note_on_c, 0, 59, 70
1, 1296, Note_off_c, 0, 60, 64
1, 1296, Note_on_c, 0, 62, 70
1, 1296, Note_off_c, 0, 69, 64
1, 1296, Note_on_c, 0, 71, 70
1, 1320, Note_on_c, 0, 86, 100
1, 1333, Note_off_c, 0, 86, 64
1, 1368, Note_on_c, 0, 84, 100
1, 1416, Note_off_c, 0, 84, 64
1, 1416, Note_on_c, 0, 86, 100
1, 1440, Note_on_c, 0, 84, 100
1, 1464, Note_off_c, 0, 86, 64
1, 1488, Note_on_c, 0, 81, 100
1, 1488, Note_off_c, 0, 84, 64
1, 1536, Note_off_c, 0, 50, 64
1, 1536, Note_off_c, 0, 55, 64
1, 1536, Note_off_c, 0, 59, 64
1, 1536, Note_off_c, 0, 62, 64
1, 1536, Note_off_c, 0, 71, 64
1, 1536, Note_off_c, 0, 81, 64
1, 0, Note_on_c, 0, 33, 89
1, 95, Note_off_c, 0, 33, 59
1, 96, Note_on_c, 0, 33, 85
1, 96, Note_on_c, 0, 65, 84
1, 112, Note_off_c, 0, 65, 54
1, 126, Note_on_c, 0, 67, 88
1, 143, Note_off_c, 0, 33, 73
1, 144, Note_on_c, 0, 33, 77
1, 144, Note_on_c, 0, 65, 78
1, 150, Note_off_c, 0, 67, 89
1, 175, Note_off_c, 0, 65, 36
1, 191, Note_off_c, 0, 33, 70
1, 192, Note_on_c, 0, 36, 74
1, 192, Note_on_c, 0, 64, 92
1, 233, Note_off_c, 0, 64, 52
1, 269, Note_off_c, 0, 36, 52
1, 270, Note_on_c, 0, 36, 68
1, 270, Note_on_c, 0, 62, 84
1, 301, Note_off_c, 0, 62, 74
1, 317, Note_off_c, 0, 36, 46
1, 318, Note_on_c, 0, 36, 47
1, 336, Note_on_c, 0, 60, 76
1, 356, Note_off_c, 0, 60, 46
1, 365, Note_off_c, 0, 36, 35
1, 366, Note_on_c, 0, 29, 56
1, 431, Note_off_c, 0, 29, 20
1, 432, Note_on_c, 0, 29, 46
1, 479, Note_off_c, 0, 29, 37
1, 480, Note_on_c, 0, 29, 73
1, 480, Note_on_c, 0, 60, 80
1, 505, Note_off_c, 0, 60, 32
1, 527, Note_off_c, 0, 29, 35
1, 528, Note_on_c, 0, 29, 71
1, 528, Note_on_c, 0, 57, 74
1, 552, Note_off_c, 0, 57, 57
1, 575, Note_off_c, 0, 29, 50
1, 576, Note_on_c, 0, 38, 98
1, 576, Note_on_c, 0, 60, 75
1, 612, Note_off_c, 0, 60, 17
1, 653, Note_off_c, 0, 38, 49
1, 654, Note_on_c, 0, 38, 89
1, 654, Note_on_c, 0, 64, 88
1, 672, Note_off_c, 0, 64, 72
1, 701, Note_off_c, 0, 38, 50
1, 702, Note_on_c, 0, 38, 79
1, 720, Note_on_c, 0, 60, 74
1, 749, Note_off_c, 0, 38, 70
1, 750, Note_on_c, 0, 38, 87
1, 753, Note_off_c, 0, 60, 31
1, 815, Note_off_c, 0, 38, 64
1, 816, Note_on_c, 0, 33, 64
1, 863, Note_off_c, 0, 33, 54
1, 864, Note_on_c, 0, 33, 63
1, 864, Note_on_c, 0, 65, 82
1, 880, Note_off_c, 0, 65, 54
1, 894, Note_on_c, 0, 67, 50
1, 911, Note_off_c, 0, 33, 43
1, 912, Note_on_c, 0, 33, 88
1, 912, Note_on_c, 0, 65, 76
1, 914, Note_off_c, 0, 67, 88
1, 943, Note_off_c, 0, 65, 48
1, 959, Note_off_c, 0, 33, 70
1, 960, Note_on_c, 0, 36, 94
1, 960, Note_on_c, 0, 64, 98
1, 994, Note_off_c, 0, 64, 54
1, 1037, Note_off_c, 0, 36, 43
1, 1038, Note_on_c, 0, 36, 84
1, 1038, Note_on_c, 0, 69, 76
1, 1071, Note_off_c, 0, 69, 54
1, 1085, Note_off_c, 0, 36, 58
1, 1086, Note_on_c, 0, 36, 80
1, 1104, Note_on_c, 0, 64, 93
1, 1133, Note_off_c, 0, 36, 44
1, 1134, Note_on_c, 0, 29, 70
1, 1136, Note_off_c, 0, 64, 57
1, 1199, Note_off_c, 0, 29, 36
1, 1200, Note_on_c, 0, 29, 62
1, 1247, Note_off_c, 0, 29, 37
1, 1248, Note_on_c, 0, 29, 67
1, 1248, Note_on_c, 0, 64, 75
1, 1282, Note_off_c, 0, 64, 50
1, 1295, Note_off_c, 0, 29, 35
1, 1296, Note_on_c, 0, 29, 72
1, 1296, Note_on_c, 0, 65, 80
1, 1311, Note_off_c, 0, 65, 62
1, 1343, Note_off_c, 0, 29, 45
1, 1344, Note_on_c, 0, 38, 91
1, 1344, Note_on_c, 0, 64, 97
1, 1353, Note_on_c, 0, 65, 96
1, 1362, Note_off_c, 0, 64, 93
1, 1379, Note_off_c, 0, 65, 28
1, 1421, Note_off_c, 0, 38, 53
1, 1422, Note_on_c, 0, 40, 88
1, 1422, Note_on_c, 0, 64, 90
1, 1459, Note_off_c, 0, 64, 49
1, 1469, Note_off_c, 0, 40, 48
1, 1470, Note_on_c, 0, 40, 83
1, 1488, Note_on_c, 0, 60, 68
1, 1517, Note_off_c, 0, 40, 58
1, 1518, Note_on_c, 0, 33, 83
1, 1520, Note_off_c, 0, 60, 67
1, 1535, Note_off_c, 0, 33, 58
1, 0, Note_on_c, 0, 31, 100
1, 0, Note_on_c, 0, 47, 100
1, 0, Note_on_c, 0, 50, 100
1, 0, Note_on_c, 0, 55, 100
1, 24, Note_off_c, 0, 55, 127
1, 24, Note_on_c, 0, 71, 100
1, 48, Note_off_c, 0, 71, 127
1, 48, Note_on_c, 0, 72, 100
1, 72, Note_off_c, 0, 72, 127
1, 72, Note_on_c, 0, 79, 100
1, 96, Note_on_c, 0, 72, 100
1, 96, Note_off_c, 0, 79, 127
1, 120, Note_on_c, 0, 67, 100
1, 120, Note_off_c, 0, 72, 127
1, 144, Note_off_c, 0, 31, 127
1, 144, Note_on_c, 0, 33, 100
1, 144, Note_off_c, 0, 47, 64
1, 144, Note_on_c, 0, 48, 100
1, 144, Note_off_c, 0, 50, 64
1, 144, Note_on_c, 0, 52, 100
1, 144, Note_on_c, 0, 55, 100
1, 144, Note_off_c, 0, 67, 127
1, 168, Note_off_c, 0, 55, 127
1, 168, Note_on_c, 0, 71, 100
1, 192, Note_on_c, 0, 55, 100
1, 192, Note_off_c, 0, 71, 127
1, 216, Note_off_c, 0, 55, 127
1, 216, Note_on_c, 0, 71, 100
1, 240, Note_off_c, 0, 71, 127
1, 240, Note_on_c, 0, 72, 100
1, 264, Note_off_c, 0, 72, 127
1, 264, Note_on_c, 0, 79, 100
1, 288, Note_on_c, 0, 72, 100
1, 288, Note_off_c, 0, 79, 127
1, 312, Note_on_c, 0, 60, 100
1, 312, Note_off_c, 0, 72, 127
1, 336, Note_on_c, 0, 29, 100
1, 336, Note_off_c, 0, 33, 127
1, 336, Note_on_c, 0, 45, 100
1, 336, Note_off_c, 0, 48, 64
1, 336, Note_on_c, 0, 48, 100
1, 336, Note_off_c, 0, 52, 64
1, 336, Note_on_c, 0, 55, 100
1, 336, Note_off_c, 0, 60, 127
1, 360, Note_off_c, 0, 55, 127
1, 360, Note_on_c, 0, 60, 100
1, 384, Note_on_c, 0, 55, 100
1, 384, Note_off_c, 0, 60, 127
1, 408, Note_off_c, 0, 55, 127
1, 408, Note_on_c, 0, 71, 100
1, 432, Note_off_c, 0, 71, 127
1, 432, Note_on_c, 0, 72, 100
1, 456, Note_off_c, 0, 72, 127
1, 456, Note_on_c, 0, 79, 100
1, 480, Note_on_c, 0, 72, 100
1, 480, Note_off_c, 0, 79, 127
1, 504, Note_on_c, 0, 71, 100
1, 504, Note_off_c, 0, 72, 127
1, 528, Note_on_c, 0, 55, 100
1, 528, Note_off_c, 0, 71, 127
1, 552, Note_off_c, 0, 55, 127
1, 552, Note_on_c, 0, 60, 100
1, 576, Note_off_c, 0, 60, 127
1, 576, Note_on_c, 0, 60, 100
1, 600, Note_off_c, 0, 60, 127
1, 600, Note_on_c, 0, 71, 100
1, 624, Note_off_c, 0, 71, 127
1, 624, Note_on_c, 0, 72, 100
1, 648, Note_off_c, 0, 72, 127
1, 648, Note_on_c, 0, 79, 100
1, 672, Note_on_c, 0, 72, 100
1, 672, Note_off_c, 0, 79, 127
1, 696, Note_on_c, 0, 67, 100
1, 696, Note_off_c, 0, 72, 127
1, 720, Note_off_c, 0, 29, 49
1, 720, Note_on_c, 0, 31, 100
1, 720, Note_off_c, 0, 45, 64
1, 720, Note_on_c, 0, 47, 100
1, 720, Note_off_c, 0, 48, 64
1, 720, Note_on_c, 0, 50, 100
1, 720, Note_on_c, 0, 55, 100
1, 720, Note_off_c, 0, 67, 127
1, 744, Note_off_c, 0, 55, 127
1, 744, Note_on_c, 0, 59, 100
1, 768, Note_off_c, 0, 59, 127
1, 768, Note_on_c, 0, 60, 100
1, 792, Note_off_c, 0, 60, 127
1, 792, Note_on_c, 0, 71, 100
1, 816, Note_off_c, 0, 71, 127
1, 816, Note_on_c, 0, 72, 100
1, 840, Note_off_c, 0, 72, 127
1, 840, Note_on_c, 0, 79, 100
1, 864, Note_on_c, 0, 72, 100
1, 864, Note_off_c, 0, 79, 127
1, 888, Note_on_c, 0, 71, 100
1, 888, Note_off_c, 0, 72, 127
1, 912, Note_off_c, 0, 31, 127
1, 912, Note_on_c, 0, 33, 100
1, 912, Note_off_c, 0, 47, 64
1, 912, Note_on_c, 0, 48, 100
1, 912, Note_off_c, 0, 50, 64
1, 912, Note_on_c, 0, 52, 100
1, 912, Note_on_c, 0, 60, 100
1, 912, Note_off_c, 0, 71, 127
1, 936, Note_off_c, 0, 60, 127
1, 936, Note_on_c, 0, 67, 100
1, 960, Note_on_c, 0, 60, 100
1, 960, Note_off_c, 0, 67, 127
1, 984, Note_off_c, 0, 60, 127
1, 984, Note_on_c, 0, 71, 100
1, 1008, Note_off_c, 0, 71, 127
1, 1008, Note_on_c, 0, 72, 100
1, 1032, Note_off_c, 0, 72, 127
1, 1032, Note_on_c, 0, 79, 100
1, 1056, Note_on_c, 0, 72, 100
1, 1056, Note_off_c, 0, 79, 127
1, 1080, Note_on_c, 0, 67, 100
1, 1080, Note_off_c, 0, 72, 127
1, 1104, Note_on_c, 0, 29, 100
1, 1104, Note_off_c, 0, 33, 127
1, 1104, Note_on_c, 0, 45, 100
1, 1104, Note_off_c, 0, 48, 64
1, 1104, Note_on_c, 0, 48, 100
1, 1104, Note_off_c, 0, 52, 64
1, 1104, Note_on_c, 0, 60, 100
1, 1104, Note_off_c, 0, 67, 127
1, 1128, Note_on_c, 0, 55, 100
1, 1128, Note_off_c, 0, 60, 127
1, 1152, Note_off_c, 0, 55, 127
1, 1152, Note_on_c, 0, 55, 100
1, 1176, Note_off_c, 0, 55, 127
1, 1176, Note_on_c, 0, 71, 100
1, 1200, Note_off_c, 0, 71, 127
1, 1200, Note_on_c, 0, 72, 100
1, 1224, Note_off_c, 0, 72, 127
1, 1224, Note_on_c, 0, 79, 100
1, 1248, Note_on_c, 0, 72, 100
1, 1248, Note_off_c, 0, 79, 127
1, 1272, Note_on_c, 0, 71, 100
1, 1272, Note_off_c, 0, 72, 127
1, 1296, Note_on_c, 0, 55, 100
1, 1296, Note_off_c, 0, 71, 127
1, 1320, Note_off_c, 0, 55, 127
1, 1320, Note_on_c, 0, 60, 100
1, 1344, Note_on_c, 0, 55, 100
1, 1344, Note_off_c, 0, 60, 127
1, 1368, Note_off_c, 0, 55, 127
1, 1368, Note_on_c, 0, 71, 100
1, 1392, Note_off_c, 0, 71, 127
1, 1392, Note_on_c, 0, 72, 100
1, 1416, Note_off_c, 0, 72, 127
1, 1416, Note_on_c, 0, 79, 100
1, 1440, Note_on_c, 0, 72, 100
1, 1440, Note_off_c, 0, 79, 127
1, 1464, Note_on_c, 0, 71, 100
1, 1464, Note_off_c, 0, 72, 127
1, 1488, Note_off_c, 0, 45, 64
1, 1488, Note_off_c, 0, 48, 64
1, 1488, Note_on_c, 0, 55, 100
1, 1488, Note_off_c, 0, 71, 127
1, 1512, Note_off_c, 0, 55, 127
1, 1512, Note_on_c, 0, 55, 100
1, 1536, Note_off_c, 0, 29, 49
1, 1536, Note_off_c, 0, 55, 127
1, 0, Note_on_c, 0, 65, 100
1, 0, Note_on_c, 0, 69, 100
1, 0, Note_on_c, 0, 72, 100
1, 0, Note_on_c, 0, 76, 100
1, 384, Note_on_c, 0, 62, 100
1, 384, Note_off_c, 0, 72, 64
1, 384, Note_on_c, 0, 74, 100
1, 384, Note_off_c, 0, 76, 64
1, 672, Note_off_c, 0, 62, 64
1, 672, Note_off_c, 0, 65, 64
1, 672, Note_off_c, 0, 69, 64
1, 672, Note_off_c, 0, 74, 64
1, 672, Note_on_c, 0, 77, 95
1, 768, Note_on_c, 0, 69, 100
1, 768, Note_on_c, 0, 72, 100
1, 768, Note_on_c, 0, 76, 100
1, 768, Note_off_c, 0, 77, 127
1, 1152, Note_off_c, 0, 72, 64
1, 1152, Note_on_c, 0, 74, 100
1, 1152, Note_off_c, 0, 76, 64
1, 1248, Note_on_c, 0, 58, 100
1, 1248, Note_off_c, 0, 69, 64
1, 1248, Note_on_c, 0, 70, 100
1, 1536, Note_off_c, 0, 58, 64
1, 1536, Note_off_c, 0, 70, 64
1, 1536, Note_off_c, 0, 74, 64
1, 0, Note_on_c, 0, 29, 85
1, 0, Note_on_c, 0, 64, 94
1, 48, Note_on_c, 0, 72, 82
1, 90, Note_off_c, 0, 72, 40
1, 96, Note_on_c, 0, 74, 80
1, 144, Note_on_c, 0, 76, 92
1, 146, Note_off_c, 0, 74, 57
1, 197, Note_off_c, 0, 76, 62
1, 240, Note_on_c, 0, 72, 89
1, 288, Note_on_c, 0, 74, 81
1, 291, Note_off_c, 0, 72, 62
1, 336, Note_off_c, 0, 74, 76
1, 336, Note_on_c, 0, 79, 102
1, 383, Note_off_c, 0, 29, 78
1, 383, Note_off_c, 0, 64, 71
1, 384, Note_on_c, 0, 33, 78
1, 384, Note_on_c, 0, 67, 87
1, 399, Note_off_c, 0, 79, 82
1, 480, Note_on_c, 0, 81, 95
1, 543, Note_off_c, 0, 81, 50
1, 576, Note_on_c, 0, 79, 89
1, 638, Note_off_c, 0, 79, 40
1, 672, Note_on_c, 0, 76, 83
1, 720, Note_on_c, 0, 74, 87
1, 722, Note_off_c, 0, 76, 73
1, 767, Note_off_c, 0, 33, 68
1, 767, Note_off_c, 0, 67, 75
1, 768, Note_on_c, 0, 36, 75
1, 768, Note_on_c, 0, 62, 89
1, 772, Note_off_c, 0, 74, 53
1, 816, Note_on_c, 0, 72, 89
1, 862, Note_off_c, 0, 72, 39
1, 864, Note_on_c, 0, 74, 82
1, 909, Note_off_c, 0, 74, 73
1, 912, Note_on_c, 0, 76, 80
1, 964, Note_off_c, 0, 76, 54
1, 1008, Note_on_c, 0, 72, 87
1, 1053, Note_off_c, 0, 72, 49
1, 1056, Note_on_c, 0, 74, 93
1, 1103, Note_off_c, 0, 74, 75
1, 1104, Note_on_c, 0, 79, 103
1, 1179, Note_off_c, 0, 79, 56
1, 1248, Note_on_c, 0, 77, 89
1, 1306, Note_off_c, 0, 77, 43
1, 1343, Note_off_c, 0, 36, 78
1, 1344, Note_on_c, 0, 31, 88
1, 1344, Note_on_c, 0, 76, 94
1, 1412, Note_off_c, 0, 76, 54
1, 1440, Note_on_c, 0, 74, 106
1, 1488, Note_on_c, 0, 72, 111
1, 1490, Note_off_c, 0, 74, 65
1, 1535, Note_off_c, 0, 31, 80
1, 1535, Note_off_c, 0, 72, 67
1, 1536, Note_off_c, 0, 62, 70
1, 48, Note_on_c, 0, 57, 100
1, 48, Note_on_c, 0, 60, 100
1, 48, Note_on_c, 0, 64, 100
1, 48, Note_on_c, 0, 76, 100
1, 96, Note_off_c, 0, 57, 64
1, 96, Note_off_c, 0, 60, 64
1, 96, Note_off_c, 0, 64, 64
1, 96, Note_off_c, 0, 76, 64
1, 120, Note_on_c, 0, 57, 100
1, 120, Note_on_c, 0, 60, 100
1, 120, Note_on_c, 0, 64, 100
1, 120, Note_on_c, 0, 76, 100
1, 168, Note_off_c, 0, 57, 64
1, 168, Note_off_c, 0, 60, 64
1, 168, Note_off_c, 0, 64, 64
1, 168, Note_off_c, 0, 76, 64
1, 216, Note_on_c, 0, 57, 100
1, 216, Note_on_c, 0, 60, 100
1, 216, Note_on_c, 0, 64, 100
1, 216, Note_on_c, 0, 74, 100
1, 264, Note_off_c, 0, 74, 64
1, 276, Note_off_c, 0, 57, 64
1, 276, Note_off_c, 0, 60, 64
1, 276, Note_off_c, 0, 64, 64
1, 312, Note_on_c, 0, 57, 100
1, 312, Note_on_c, 0, 60, 100
1, 312, Note_on_c, 0, 64, 100
1, 312, Note_on_c, 0, 72, 100
1, 360, Note_off_c, 0, 72, 64
1, 360, Note_on_c, 0, 81, 100
1, 372, Note_off_c, 0, 57, 64
1, 372, Note_off_c, 0, 60, 64
1, 372, Note_off_c, 0, 64, 64
1, 384, Note_off_c, 0, 81, 64
1, 432, Note_on_c, 0, 53, 100
1, 432, Note_on_c, 0, 57, 100
1, 432, Note_on_c, 0, 60, 100
1, 432, Note_on_c, 0, 64, 100
1, 432, Note_on_c, 0, 76, 100
1, 480, Note_off_c, 0, 53, 64
1, 480, Note_off_c, 0, 57, 64
1, 480, Note_off_c, 0, 60, 64
1, 480, Note_off_c, 0, 64, 64
1, 480, Note_off_c, 0, 76, 64
1, 504, Note_on_c, 0, 53, 100
1, 504, Note_on_c, 0, 57, 100
1, 504, Note_on_c, 0, 60, 100
1, 504, Note_on_c, 0, 64, 100
1, 504, Note_on_c, 0, 76, 100
1, 552, Note_off_c, 0, 53, 64
1, 552, Note_off_c, 0, 57, 64
1, 552, Note_off_c, 0, 60, 64
1, 552, Note_off_c, 0, 64, 64
1, 552, Note_off_c, 0, 76, 64
1, 600, Note_on_c, 0, 53, 100
1, 600, Note_on_c, 0, 57, 100
1, 600, Note_on_c, 0, 60, 100
1, 600, Note_on_c, 0, 64, 100
1, 600, Note_on_c, 0, 74, 100
1, 648, Note_off_c, 0, 74, 64
1, 660, Note_off_c, 0, 53, 64
1, 660, Note_off_c, 0, 57, 64
1, 660, Note_off_c, 0, 60, 64
1, 660, Note_off_c, 0, 64, 64
1, 696, Note_on_c, 0, 53, 100
1, 696, Note_on_c, 0, 57, 100
1, 696, Note_on_c, 0, 60, 100
1, 696, Note_on_c, 0, 64, 100
1, 696, Note_on_c, 0, 79, 100
1, 744, Note_off_c, 0, 53, 64
1, 744, Note_off_c, 0, 57, 64
1, 744, Note_off_c, 0, 60, 64
1, 744, Note_off_c, 0, 64, 64
1, 744, Note_off_c, 0, 79, 64
1, 816, Note_on_c, 0, 55, 100
1, 816, Note_on_c, 0, 59, 100
1, 816, Note_on_c, 0, 62, 100
1, 816, Note_on_c, 0, 76, 100
1, 864, Note_off_c, 0, 55, 64
1, 864, Note_off_c, 0, 59, 64
1, 864, Note_off_c, 0, 62, 64
1, 864, Note_off_c, 0, 76, 64
1, 888, Note_on_c, 0, 55, 100
1, 888, Note_on_c, 0, 59, 100
1, 888, Note_on_c, 0, 62, 100
1, 888, Note_on_c, 0, 76, 100
1, 936, Note_off_c, 0, 55, 64
1, 936, Note_off_c, 0, 59, 64
1, 936, Note_off_c, 0, 62, 64
1, 936, Note_off_c, 0, 76, 64
1, 984, Note_on_c, 0, 55, 100
1, 984, Note_on_c, 0, 59, 100
1, 984, Note_on_c, 0, 62, 100
1, 984, Note_on_c, 0, 74, 100
1, 1032, Note_off_c, 0, 74, 64
1, 1044, Note_off_c, 0, 55, 64
1, 1044, Note_off_c, 0, 59, 64
1, 1044, Note_off_c, 0, 62, 64
1, 1080, Note_on_c, 0, 55, 100
1, 1080, Note_on_c, 0, 59, 100
1, 1080, Note_on_c, 0, 62, 100
1, 1080, Note_on_c, 0, 72, 100
1, 1128, Note_off_c, 0, 72, 64
1, 1128, Note_on_c, 0, 81, 100
1, 1140, Note_off_c, 0, 55, 64
1, 1140, Note_off_c, 0, 59, 64
1, 1140, Note_off_c, 0, 62, 64
1, 1152, Note_off_c, 0, 81, 64
1, 1200, Note_on_c, 0, 50, 100
1, 1200, Note_on_c, 0, 53, 100
1, 1200, Note_on_c, 0, 57, 100
1, 1200, Note_on_c, 0, 60, 100
1, 1200, Note_on_c, 0, 76, 100
1, 1248, Note_off_c, 0, 50, 64
1, 1248, Note_off_c, 0, 53, 64
1, 1248, Note_off_c, 0, 57, 64
1, 1248, Note_off_c, 0, 60, 64
1, 1248, Note_off_c, 0, 76, 64
1, 1272, Note_on_c, 0, 50, 100
1, 1272, Note_on_c, 0, 53, 100
1, 1272, Note_on_c, 0, 57, 100
1, 1272, Note_on_c, 0, 60, 100
1, 1272, Note_on_c, 0, 76, 100
1, 1320, Note_off_c, 0, 50, 64
1, 1320, Note_off_c, 0, 53, 64
1, 1320, Note_off_c, 0, 57, 64
1, 1320, Note_off_c, 0, 60, 64
1, 1320, Note_off_c, 0, 76, 64
1, 1368, Note_on_c, 0, 50, 100
1, 1368, Note_on_c, 0, 53, 100
1, 1368, Note_on_c, 0, 57, 100
1, 1368, Note_on_c, 0, 60, 100
1, 1368, Note_on_c, 0, 74, 100
1, 1416, Note_off_c, 0, 74, 64
1, 1428, Note_off_c, 0, 50, 64
1, 1428, Note_off_c, 0, 53, 64
1, 1428, Note_off_c, 0, 57, 64
1, 1428, Note_off_c, 0, 60, 64
1, 1464, Note_on_c, 0, 50, 100
1, 1464, Note_on_c, 0, 53, 100
1, 1464, Note_on_c, 0, 57, 100
1, 1464, Note_on_c, 0, 60, 100
1, 1464, Note_on_c, 0, 79, 100
1, 1512, Note_off_c, 0, 79, 64
1, 1512, Note_on_c, 0, 91, 100
1, 1524, Note_off_c, 0, 50, 64
1, 1524, Note_off_c, 0, 53, 64
1, 1524, Note_off_c, 0, 57, 64
1, 1524, Note_off_c, 0, 60, 64
1, 1536, Note_off_c, 0, 91, 64
1, 0, Note_on_c, 0, 33, 100
1, 0, Note_on_c, 0, 45, 100
1, 0, Note_on_c, 0, 57, 100
1, 0, Note_on_c, 0, 69, 100
1, 96, Note_off_c, 0, 57, 64
1, 96, Note_off_c, 0, 69, 64
1, 144, Note_on_c, 0, 59, 100
1, 144, Note_on_c, 0, 71, 100
1, 192, Note_off_c, 0, 33, 64
1, 192, Note_on_c, 0, 40, 100
1, 192, Note_off_c, 0, 45, 64
1, 192, Note_on_c, 0, 52, 100
1, 192, Note_on_c, 0, 55, 100
1, 192, Note_off_c, 0, 59, 64
1, 192, Note_on_c, 0, 67, 100
1, 192, Note_off_c, 0, 71, 64
1, 240, Note_off_c, 0, 55, 64
1, 240, Note_off_c, 0, 67, 64
1, 264, Note_on_c, 0, 57, 100
1, 264, Note_on_c, 0, 69, 100
1, 312, Note_off_c, 0, 57, 64
1, 312, Note_off_c, 0, 69, 64
1, 336, Note_on_c, 0, 62, 100
1, 336, Note_on_c, 0, 74, 100
1, 384, Note_on_c, 0, 36, 100
1, 384, Note_off_c, 0, 40, 64
1, 384, Note_on_c, 0, 48, 100
1, 384, Note_off_c, 0, 52, 64
1, 384, Note_off_c, 0, 62, 64
1, 384, Note_on_c, 0, 64, 100
1, 384, Note_off_c, 0, 74, 64
1, 384, Note_on_c, 0, 76, 100
1, 575, Note_off_c, 0, 64, 64
1, 575, Note_off_c, 0, 76, 64
1, 576, Note_on_c, 0, 64, 100
1, 576, Note_on_c, 0, 76, 100
1, 720, Note_on_c, 0, 62, 100
1, 720, Note_off_c, 0, 64, 64
1, 720, Note_on_c, 0, 74, 100
1, 720, Note_off_c, 0, 76, 64
1, 768, Note_off_c, 0, 36, 64
1, 768, Note_on_c, 0, 38, 100
1, 768, Note_off_c, 0, 48, 64
1, 768, Note_on_c, 0, 50, 100
1, 768, Note_off_c, 0, 62, 64
1, 768, Note_on_c, 0, 65, 100
1, 768, Note_off_c, 0, 74, 64
1, 768, Note_on_c, 0, 77, 100
1, 849, Note_off_c, 0, 65, 64
1, 849, Note_off_c, 0, 77, 64
1, 863, Note_off_c, 0, 38, 64
1, 863, Note_off_c, 0, 50, 64
1, 864, Note_on_c, 0, 38, 100
1, 864, Note_on_c, 0, 50, 100
1, 912, Note_on_c, 0, 65, 100
1, 912, Note_on_c, 0, 77, 100
1, 936, Note_on_c, 0, 64, 99
1, 936, Note_on_c, 0, 76, 99
1, 949, Note_off_c, 0, 65, 64
1, 949, Note_off_c, 0, 77, 64
1, 959, Note_off_c, 0, 64, 64
1, 959, Note_off_c, 0, 76, 64
1, 960, Note_on_c, 0, 36, 100
1, 960, Note_off_c, 0, 38, 64
1, 960, Note_on_c, 0, 48, 100
1, 960, Note_off_c, 0, 50, 64
1, 960, Note_on_c, 0, 64, 100
1, 960, Note_on_c, 0, 76, 100
1, 1041, Note_off_c, 0, 64, 64
1, 1041, Note_off_c, 0, 76, 64
1, 1055, Note_off_c, 0, 36, 64
1, 1055, Note_off_c, 0, 48, 64
1, 1056, Note_on_c, 0, 36, 100
1, 1056, Note_on_c, 0, 48, 100
1, 1104, Note_on_c, 0, 62, 100
1, 1104, Note_on_c, 0, 74, 100
1, 1128, Note_on_c, 0, 64, 99
1, 1128, Note_on_c, 0, 76, 99
1, 1141, Note_off_c, 0, 62, 64
1, 1141, Note_off_c, 0, 74, 64
1, 1152, Note_on_c, 0, 33, 100
1, 1152, Note_off_c, 0, 36, 64
1, 1152, Note_on_c, 0, 45, 100
1, 1152, Note_off_c, 0, 48, 64
1, 1152, Note_on_c, 0, 60, 100
1, 1152, Note_off_c, 0, 64, 64
1, 1152, Note_on_c, 0, 72, 100
1, 1152, Note_off_c, 0, 76, 64
1, 1247, Note_off_c, 0, 33, 64
1, 1247, Note_off_c, 0, 45, 64
1, 1248, Note_on_c, 0, 33, 100
1, 1248, Note_on_c, 0, 45, 100
1, 1296, Note_off_c, 0, 60, 64
1, 1296, Note_on_c, 0, 62, 100
1, 1296, Note_off_c, 0, 72, 64
1, 1296, Note_on_c, 0, 74, 100
1, 1343, Note_off_c, 0, 33, 64
1, 1343, Note_off_c, 0, 45, 64
1, 1344, Note_on_c, 0, 33, 100
1, 1344, Note_on_c, 0, 45, 100
1, 1344, Note_on_c, 0, 60, 100
1, 1344, Note_off_c, 0, 62, 64
1, 1344, Note_on_c, 0, 72, 100
1, 1344, Note_off_c, 0, 74, 64
1, 1439, Note_off_c, 0, 33, 64
1, 1439, Note_off_c, 0, 45, 64
1, 1440, Note_on_c, 0, 33, 100
1, 1440, Note_on_c, 0, 45, 100
1, 1488, Note_on_c, 0, 57, 100
1, 1488, Note_off_c, 0, 60, 64
1, 1488, Note_on_c, 0, 69, 100
1, 1488, Note_off_c, 0, 72, 64
1, 1535, Note_off_c, 0, 33, 64
1, 1535, Note_off_c, 0, 57, 64
1, 1536, Note_off_c, 0, 45, 64
1, 1536, Note_off_c, 0, 69, 64
1, 0, Control_c, 0, 1, 70
1, 0, Note_on_c, 0, 69, 72
1, 48, Note_off_c, 0, 69, 72
1, 48, Note_on_c, 0, 76, 66
1, 72, Note_off_c, 0, 76, 66
1, 96, Note_on_c, 0, 69, 72
1, 144, Note_off_c, 0, 69, 72
1, 144, Note_on_c, 0, 76, 66
1, 168, Note_off_c, 0, 76, 66
1, 192, Note_on_c, 0, 69, 72
1, 216, Note_off_c, 0, 69, 72
1, 216, Note_on_c, 0, 72, 67
1, 240, Note_off_c, 0, 72, 67
1, 240, Note_on_c, 0, 81, 67
1, 264, Note_on_c, 0, 76, 67
1, 264, Note_off_c, 0, 81, 67
1, 288, Note_on_c, 0, 69, 65
1, 288, Note_off_c, 0, 76, 67
1, 312, Note_off_c, 0, 69, 65
1, 312, Note_on_c, 0, 72, 67
1, 336, Note_off_c, 0, 72, 67
1, 336, Note_on_c, 0, 81, 67
1, 360, Note_on_c, 0, 76, 68
1, 360, Note_off_c, 0, 81, 67
1, 384, Note_on_c, 0, 69, 76
1, 384, Note_off_c, 0, 76, 68
1, 432, Note_off_c, 0, 69, 76
1, 432, Note_on_c, 0, 77, 67
1, 456, Note_off_c, 0, 77, 67
1, 480, Note_on_c, 0, 69, 69
1, 528, Note_off_c, 0, 69, 69
1, 528, Note_on_c, 0, 77, 65
1, 552, Note_off_c, 0, 77, 65
1, 576, Note_on_c, 0, 69, 72
1, 600, Note_off_c, 0, 69, 72
1, 600, Note_on_c, 0, 74, 66
1, 624, Note_off_c, 0, 74, 66
1, 624, Note_on_c, 0, 81, 65
1, 648, Note_on_c, 0, 77, 67
1, 648, Note_off_c, 0, 81, 65
1, 672, Note_on_c, 0, 69, 65
1, 672, Note_off_c, 0, 77, 67
1, 696, Note_off_c, 0, 69, 65
1, 696, Note_on_c, 0, 74, 66
1, 720, Note_off_c, 0, 74, 66
1, 720, Note_on_c, 0, 81, 65
1, 744, Note_on_c, 0, 77, 65
1, 744, Note_off_c, 0, 81, 65
1, 768, Note_on_c, 0, 69, 76
1, 768, Note_off_c, 0, 77, 65
1, 816, Note_off_c, 0, 69, 76
1, 816, Note_on_c, 0, 77, 67
1, 840, Note_off_c, 0, 77, 67
1, 864, Note_on_c, 0, 69, 72
1, 912, Note_off_c, 0, 69, 72
1, 912, Note_on_c, 0, 77, 68
1, 936, Note_off_c, 0, 77, 68
1, 960, Note_on_c, 0, 69, 69
1, 984, Note_off_c, 0, 69, 69
1, 984, Note_on_c, 0, 72, 65
1, 1008, Note_off_c, 0, 72, 65
1, 1008, Note_on_c, 0, 81, 69
1, 1032, Note_on_c, 0, 77, 67
1, 1032, Note_off_c, 0, 81, 69
1, 1056, Note_on_c, 0, 69, 65
1, 1056, Note_off_c, 0, 77, 67
1, 1080, Note_off_c, 0, 69, 65
1, 1080, Note_on_c, 0, 72, 65
1, 1104, Note_off_c, 0, 72, 65
1, 1104, Note_on_c, 0, 81, 66
1, 1128, Note_on_c, 0, 77, 66
1, 1128, Note_off_c, 0, 81, 66
1, 1152, Note_on_c, 0, 67, 72
1, 1152, Note_off_c, 0, 77, 66
1, 1200, Note_off_c, 0, 67, 72
1, 1200, Note_on_c, 0, 76, 65
1, 1224, Note_off_c, 0, 76, 65
1, 1248, Note_on_c, 0, 67, 70
1, 1296, Note_off_c, 0, 67, 70
1, 1296, Note_on_c, 0, 76, 65
1, 1320, Note_off_c, 0, 76, 65
1, 1344, Note_on_c, 0, 67, 69
1, 1368, Note_off_c, 0, 67, 69
1, 1368, Note_on_c, 0, 71, 67
1, 1392, Note_off_c, 0, 71, 67
1, 1392, Note_on_c, 0, 79, 65
1, 1416, Note_on_c, 0, 76, 67
1, 1416, Note_off_c, 0, 79, 65
1, 1440, Note_on_c, 0, 67, 67
1, 1440, Note_off_c, 0, 76, 67
1, 1464, Note_off_c, 0, 67, 67
1, 1464, Note_on_c, 0, 71, 66
1, 1488, Note_off_c, 0, 71, 66
1, 1488, Note_on_c, 0, 79, 67
1, 1512, Note_on_c, 0, 76, 65
1, 1512, Note_off_c, 0, 79, 67
1, 1536, Note_off_c, 0, 76, 65
1, 0, Note_on_c, 0, 29, 89
1, 0, Note_on_c, 0, 41, 72
1, 0, Note_on_c, 0, 57, 87
1, 0, Note_on_c, 0, 60, 96
1, 48, Note_on_c, 0, 72, 82
1, 82, Note_off_c, 0, 72, 24
1, 95, Note_off_c, 0, 29, 35
1, 95, Note_off_c, 0, 41, 32
1, 95, Note_off_c, 0, 57, 16
1, 95, Note_off_c, 0, 60, 25
1, 96, Note_on_c, 0, 29, 82
1, 96, Note_on_c, 0, 41, 82
1, 96, Note_on_c, 0, 57, 80
1, 96, Note_on_c, 0, 60, 96
1, 96, Note_on_c, 0, 74, 84
1, 127, Note_off_c, 0, 74, 34
1, 144, Note_on_c, 0, 76, 91
1, 171, Note_off_c, 0, 76, 58
1, 174, Note_off_c, 0, 29, 48
1, 174, Note_off_c, 0, 41, 46
1, 174, Note_off_c, 0, 57, 28
1, 174, Note_off_c, 0, 60, 62
1, 175, Note_on_c, 0, 29, 89
1, 175, Note_on_c, 0, 41, 82
1, 175, Note_on_c, 0, 57, 43
1, 175, Note_on_c, 0, 64, 99
1, 240, Note_on_c, 0, 72, 60
1, 285, Note_off_c, 0, 72, 23
1, 287, Note_off_c, 0, 29, 47
1, 287, Note_off_c, 0, 41, 36
1, 287, Note_off_c, 0, 57, 30
1, 287, Note_off_c, 0, 64, 84
1, 288, Note_on_c, 0, 29, 96
1, 288, Note_on_c, 0, 41, 86
1, 288, Note_on_c, 0, 57, 41
1, 288, Note_on_c, 0, 64, 105
1, 288, Note_on_c, 0, 74, 89
1, 319, Note_off_c, 0, 74, 20
1, 383, Note_off_c, 0, 29, 60
1, 383, Note_off_c, 0, 41, 62
1, 383, Note_off_c, 0, 57, 19
1, 383, Note_off_c, 0, 64, 67
1, 384, Note_on_c, 0, 33, 82
1, 384, Note_on_c, 0, 45, 98
1, 384, Note_on_c, 0, 57, 66
1, 384, Note_on_c, 0, 64, 100
1, 384, Note_on_c, 0, 79, 72
1, 426, Note_off_c, 0, 79, 22
1, 431, Note_off_c, 0, 33, 50
1, 431, Note_off_c, 0, 45, 47
1, 431, Note_off_c, 0, 57, 41
1, 431, Note_off_c, 0, 64, 86
1, 432, Note_on_c, 0, 33, 82
1, 432, Note_on_c, 0, 45, 82
1, 432, Note_on_c, 0, 57, 70
1, 432, Note_on_c, 0, 64, 97
1, 479, Note_off_c, 0, 33, 51
1, 479, Note_off_c, 0, 45, 48
1, 479, Note_off_c, 0, 57, 35
1, 479, Note_off_c, 0, 64, 75
1, 480, Note_on_c, 0, 33, 96
1, 480, Note_on_c, 0, 45, 91
1, 480, Note_on_c, 0, 57, 75
1, 480, Note_on_c, 0, 64, 106
1, 480, Note_on_c, 0, 77, 84
1, 504, Note_off_c, 0, 77, 25
1, 558, Note_off_c, 0, 33, 65
1, 558, Note_off_c, 0, 45, 55
1, 558, Note_off_c, 0, 57, 13
1, 558, Note_off_c, 0, 64, 68
1, 559, Note_on_c, 0, 31, 77
1, 559, Note_on_c, 0, 43, 74
1, 559, Note_on_c, 0, 57, 61
1, 559, Note_on_c, 0, 59, 99
1, 576, Note_on_c, 0, 76, 77
1, 595, Note_off_c, 0, 76, 62
1, 671, Note_off_c, 0, 31, 34
1, 671, Note_off_c, 0, 43, 46
1, 671, Note_off_c, 0, 57, 26
1, 671, Note_off_c, 0, 59, 76
1, 672, Note_on_c, 0, 31, 78
1, 672, Note_on_c, 0, 43, 96
1, 672, Note_on_c, 0, 57, 65
1, 672, Note_on_c, 0, 59, 100
1, 672, Note_on_c, 0, 74, 75
1, 695, Note_off_c, 0, 74, 38
1, 720, Note_on_c, 0, 76, 89
1, 739, Note_off_c, 0, 76, 68
1, 767, Note_off_c, 0, 31, 45
1, 767, Note_off_c, 0, 43, 38
1, 767, Note_off_c, 0, 57, 34
1, 767, Note_off_c, 0, 59, 72
1, 768, Note_on_c, 0, 29, 89
1, 768, Note_on_c, 0, 41, 87
1, 768, Note_on_c, 0, 57, 74
1, 768, Note_on_c, 0, 60, 94
1, 816, Note_on_c, 0, 72, 62
1, 843, Note_off_c, 0, 72, 41
1, 863, Note_off_c, 0, 29, 33
1, 863, Note_off_c, 0, 41, 39
1, 863, Note_off_c, 0, 57, 10
1, 863, Note_off_c, 0, 60, 66
1, 864, Note_on_c, 0, 29, 84
1, 864, Note_on_c, 0, 41, 87
1, 864, Note_on_c, 0, 57, 75
1, 864, Note_on_c, 0, 60, 94
1, 864, Note_on_c, 0, 74, 68
1, 881, Note_off_c, 0, 74, 48
1, 912, Note_on_c, 0, 76, 76
1, 935, Note_off_c, 0, 76, 56
1, 942, Note_off_c, 0, 29, 51
1, 942, Note_off_c, 0, 41, 49
1, 942, Note_off_c, 0, 57, 36
1, 942, Note_off_c, 0, 60, 45
1, 943, Note_on_c, 0, 29, 84
1, 943, Note_on_c, 0, 41, 84
1, 943, Note_on_c, 0, 57, 68
1, 943, Note_on_c, 0, 64, 105
1, 1008, Note_on_c, 0, 72, 60
1, 1027, Note_off_c, 0, 72, 38
1, 1055, Note_off_c, 0, 29, 38
1, 1055, Note_off_c, 0, 41, 31
1, 1055, Note_off_c, 0, 57, 33
1, 1055, Note_off_c, 0, 64, 73
1, 1056, Note_on_c, 0, 29, 84
1, 1056, Note_on_c, 0, 41, 87
1, 1056, Note_on_c, 0, 57, 64
1, 1056, Note_on_c, 0, 64, 100
1, 1056, Note_on_c, 0, 74, 80
1, 1092, Note_off_c, 0, 74, 2
1, 1151, Note_off_c, 0, 29, 44
1, 1151, Note_off_c, 0, 41, 62
1, 1151, Note_off_c, 0, 57, 10
1, 1151, Note_off_c, 0, 64, 51
1, 1152, Note_on_c, 0, 33, 86
1, 1152, Note_on_c, 0, 45, 91
1, 1152, Note_on_c, 0, 57, 75
1, 1152, Note_on_c, 0, 67, 100
1, 1152, Note_on_c, 0, 77, 87
1, 1188, Note_off_c, 0, 77, 40
1, 1199, Note_off_c, 0, 33, 49
1, 1199, Note_off_c, 0, 45, 50
1, 1199, Note_off_c, 0, 57, 40
1, 1199, Note_off_c, 0, 67, 57
1, 1200, Note_on_c, 0, 33, 62
1, 1200, Note_on_c, 0, 45, 84
1, 1200, Note_on_c, 0, 57, 77
1, 1200, Note_on_c, 0, 67, 105
1, 1247, Note_off_c, 0, 33, 53
1, 1247, Note_off_c, 0, 45, 41
1, 1247, Note_off_c, 0, 57, 37
1, 1247, Note_off_c, 0, 67, 45
1, 1248, Note_on_c, 0, 33, 82
1, 1248, Note_on_c, 0, 45, 100
1, 1248, Note_on_c, 0, 57, 80
1, 1248, Note_on_c, 0, 67, 108
1, 1248, Note_on_c, 0, 76, 66
1, 1284, Note_off_c, 0, 76, 58
1, 1326, Note_off_c, 0, 33, 53
1, 1326, Note_off_c, 0, 45, 49
1, 1326, Note_off_c, 0, 57, 45
1, 1326, Note_off_c, 0, 67, 45
1, 1327, Note_on_c, 0, 31, 91
1, 1327, Note_on_c, 0, 43, 87
1, 1327, Note_on_c, 0, 57, 55
1, 1327, Note_on_c, 0, 59, 103
1, 1344, Note_on_c, 0, 74, 89
1, 1376, Note_off_c, 0, 74, 34
1, 1439, Note_off_c, 0, 31, 37
1, 1439, Note_off_c, 0, 43, 43
1, 1439, Note_off_c, 0, 57, 27
1, 1439, Note_off_c, 0, 59, 73
1, 1440, Note_on_c, 0, 31, 87
1, 1440, Note_on_c, 0, 43, 94
1, 1440, Note_on_c, 0, 57, 67
1, 1440, Note_on_c, 0, 59, 99
1, 1440, Note_on_c, 0, 76, 84
1, 1467, Note_off_c, 0, 76, 44
1, 1488, Note_on_c, 0, 72, 77
1, 1514, Note_off_c, 0, 72, 47
1, 1535, Note_off_c, 0, 31, 59
1, 1535, Note_off_c, 0, 43, 56
1, 1535, Note_off_c, 0, 57, 29
1, 1535, Note_off_c, 0, 59, 84
1, 0, Note_on_c, 0, 33, 59
1, 0, Note_on_c, 0, 45, 70
1, 0, Note_on_c, 0, 52, 82
1, 0, Note_on_c, 0, 55, 71
1, 0, Note_on_c, 0, 60, 79
1, 0, Note_on_c, 0, 88, 78
1, 47, Note_off_c, 0, 88, 64
1, 48, Note_on_c, 0, 84, 73
1, 95, Note_off_c, 0, 84, 64
1, 96, Note_on_c, 0, 79, 70
1, 143, Note_off_c, 0, 79, 64
1, 144, Note_on_c, 0, 84, 71
1, 191, Note_off_c, 0, 84, 64
1, 192, Note_on_c, 0, 88, 78
1, 239, Note_off_c, 0, 88, 64
1, 240, Note_on_c, 0, 84, 79
1, 287, Note_off_c, 0, 84, 64
1, 288, Note_on_c, 0, 79, 76
1, 335, Note_off_c, 0, 79, 64
1, 336, Note_on_c, 0, 84, 68
1, 383, Note_off_c, 0, 84, 64
1, 384, Note_on_c, 0, 88, 82
1, 431, Note_off_c, 0, 88, 64
1, 432, Note_on_c, 0, 84, 78
1, 479, Note_off_c, 0, 84, 64
1, 480, Note_on_c, 0, 79, 72
1, 527, Note_off_c, 0, 79, 64
1, 528, Note_on_c, 0, 84, 76
1, 575, Note_off_c, 0, 84, 64
1, 576, Note_on_c, 0, 28, 94
1, 576, Note_off_c, 0, 33, 64
1, 576, Note_on_c, 0, 40, 83
1, 576, Note_off_c, 0, 45, 64
1, 576, Note_off_c, 0, 52, 64
1, 576, Note_on_c, 0, 52, 79
1, 576, Note_off_c, 0, 55, 64
1, 576, Note_on_c, 0, 55, 67
1, 576, Note_on_c, 0, 59, 79
1, 576, Note_off_c, 0, 60, 64
1, 576, Note_on_c, 0, 88, 76
1, 623, Note_off_c, 0, 88, 64
1, 624, Note_on_c, 0, 84, 59
1, 671, Note_off_c, 0, 84, 64
1, 672, Note_on_c, 0, 79, 79
1, 719, Note_off_c, 0, 79, 64
1, 720, Note_on_c, 0, 84, 78
1, 767, Note_off_c, 0, 84, 64
1, 768, Note_off_c, 0, 28, 64
1, 768, Note_on_c, 0, 29, 75
1, 768, Note_off_c, 0, 40, 64
1, 768, Note_on_c, 0, 41, 73
1, 768, Note_off_c, 0, 52, 64
1, 768, Note_off_c, 0, 55, 64
1, 768, Note_on_c, 0, 55, 70
1, 768, Note_on_c, 0, 57, 79
1, 768, Note_off_c, 0, 59, 64
1, 768, Note_on_c, 0, 60, 79
1, 768, Note_on_c, 0, 88, 75
1, 815, Note_off_c, 0, 88, 64
1, 816, Note_on_c, 0, 84, 67
1, 863, Note_off_c, 0, 84, 64
1, 864, Note_on_c, 0, 79, 76
1, 911, Note_off_c, 0, 79, 64
1, 912, Note_on_c, 0, 84, 62
1, 959, Note_off_c, 0, 84, 64
1, 960, Note_on_c, 0, 88, 75
1, 1007, Note_off_c, 0, 88, 64
1, 1008, Note_on_c, 0, 84, 76
1, 1055, Note_off_c, 0, 84, 64
1, 1056, Note_on_c, 0, 79, 82
1, 1103, Note_off_c, 0, 79, 64
1, 1104, Note_on_c, 0, 84, 73
1, 1151, Note_off_c, 0, 84, 64
1, 1152, Note_on_c, 0, 88, 79
1, 1199, Note_off_c, 0, 88, 64
1, 1200, Note_on_c, 0, 84, 63
1, 1247, Note_off_c, 0, 84, 64
1, 1248, Note_on_c, 0, 79, 82
1, 1295, Note_off_c, 0, 79, 64
1, 1296, Note_on_c, 0, 84, 76
1, 1343, Note_off_c, 0, 84, 64
1, 1344, Note_off_c, 0, 29, 64
1, 1344, Note_on_c, 0, 36, 93
1, 1344, Note_off_c, 0, 41, 64
1, 1344, Note_on_c, 0, 48, 45
1, 1344, Note_off_c, 0, 55, 64
1, 1344, Note_on_c, 0, 55, 72
1, 1344, Note_off_c, 0, 57, 64
1, 1344, Note_off_c, 0, 60, 64
1, 1344, Note_on_c, 0, 62, 44
1, 1344, Note_on_c, 0, 64, 84
1, 1344, Note_on_c, 0, 91, 82
1, 1391, Note_off_c, 0, 91, 64
1, 1392, Note_on_c, 0, 89, 79
1, 1439, Note_off_c, 0, 89, 64
1, 1440, Note_on_c, 0, 88, 76
1, 1487, Note_off_c, 0, 88, 64
1, 1488, Note_on_c, 0, 84, 77
1, 1535, Note_off_c, 0, 84, 64
1, 1536, Note_off_c, 0, 36, 64
1, 1536, Note_off_c, 0, 48, 64
1, 1536, Note_off_c, 0, 55, 64
1, 1536, Note_off_c, 0, 62, 64
1, 1536, Note_off_c, 0, 64, 64
1, 0, Note_on_c, 0, 38, 100
1, 0, Note_on_c, 0, 64, 100
1, 47, Note_off_c, 0, 64, 64
1, 47, Note_on_c, 0, 65, 100
1, 96, Note_on_c, 0, 64, 100
1, 96, Note_off_c, 0, 65, 64
1, 143, Note_off_c, 0, 64, 64
1, 143, Note_on_c, 0, 65, 100
1, 192, Note_on_c, 0, 64, 100
1, 192, Note_off_c, 0, 65, 64
1, 239, Note_off_c, 0, 64, 64
1, 239, Note_on_c, 0, 65, 100
1, 288, Note_on_c, 0, 64, 100
1, 288, Note_off_c, 0, 65, 64
1, 335, Note_off_c, 0, 64, 64
1, 335, Note_on_c, 0, 65, 100
1, 384, Note_off_c, 0, 38, 64
1, 384, Note_on_c, 0, 40, 100
1, 384, Note_off_c, 0, 65, 64
1, 384, Note_on_c, 0, 67, 100
1, 431, Note_on_c, 0, 65, 100
1, 431, Note_off_c, 0, 67, 64
1, 480, Note_off_c, 0, 65, 64
1, 480, Note_on_c, 0, 67, 100
1, 527, Note_on_c, 0, 65, 100
1, 527, Note_off_c, 0, 67, 64
1, 576, Note_off_c, 0, 65, 64
1, 576, Note_on_c, 0, 67, 100
1, 623, Note_on_c, 0, 65, 100
1, 623, Note_off_c, 0, 67, 64
1, 672, Note_off_c, 0, 65, 64
1, 672, Note_on_c, 0, 67, 100
1, 719, Note_on_c, 0, 65, 100
1, 719, Note_off_c, 0, 67, 64
1, 768, Note_off_c, 0, 40, 64
1, 768, Note_on_c, 0, 41, 100
1, 768, Note_off_c, 0, 65, 64
1, 768, Note_on_c, 0, 67, 100
1, 815, Note_off_c, 0, 67, 64
1, 815, Note_on_c, 0, 69, 100
1, 864, Note_on_c, 0, 67, 100
1, 864, Note_off_c, 0, 69, 64
1, 911, Note_off_c, 0, 67, 64
1, 911, Note_on_c, 0, 69, 100
1, 960, Note_on_c, 0, 67, 100
1, 960, Note_off_c, 0, 69, 64
1, 1007, Note_off_c, 0, 67, 64
1, 1007, Note_on_c, 0, 69, 100
1, 1056, Note_on_c, 0, 67, 100
1, 1056, Note_off_c, 0, 69, 64
1, 1103, Note_off_c, 0, 67, 64
1, 1103, Note_on_c, 0, 69, 100
1, 1152, Note_off_c, 0, 41, 64
1, 1152, Note_on_c, 0, 45, 100
1, 1152, Note_off_c, 0, 69, 64
1, 1152, Note_on_c, 0, 71, 100
1, 1199, Note_off_c, 0, 71, 64
1, 1199, Note_on_c, 0, 72, 100
1, 1248, Note_on_c, 0, 71, 100
1, 1248, Note_off_c, 0, 72, 64
1, 1295, Note_on_c, 0, 43, 100
1, 1295, Note_off_c, 0, 45, 64
1, 1295, Note_off_c, 0, 71, 64
1, 1295, Note_on_c, 0, 72, 100
1, 1344, Note_on_c, 0, 71, 100
1, 1344, Note_off_c, 0, 72, 64
1, 1391, Note_off_c, 0, 71, 64
1, 1391, Note_on_c, 0, 72, 100
1, 1440, Note_on_c, 0, 71, 100
1, 1440, Note_off_c, 0, 72, 64
1, 1487, Note_off_c, 0, 71, 64
1, 1488, Note_on_c, 0, 72, 100
1, 1535, Note_off_c, 0, 72, 64
1, 1536, Note_off_c, 0, 43, 64
1, 0, Note_on_c, 0, 53, 73
1, 0, Note_on_c, 0, 60, 73
1, 0, Note_on_c, 0, 67, 73
1, 48, Note_off_c, 0, 53, 64
1, 48, Note_off_c, 0, 60, 64
1, 48, Note_off_c, 0, 67, 64
1, 96, Note_on_c, 0, 64, 73
1, 144, Note_off_c, 0, 64, 64
1, 168, Note_on_c, 0, 53, 73
1, 168, Note_on_c, 0, 60, 73
1, 168, Note_on_c, 0, 62, 73
1, 168, Note_on_c, 0, 64, 73
1, 192, Note_off_c, 0, 53, 64
1, 192, Note_off_c, 0, 60, 64
1, 192, Note_off_c, 0, 62, 64
1, 192, Note_off_c, 0, 64, 64
1, 288, Note_on_c, 0, 55, 73
1, 288, Note_on_c, 0, 62, 73
1, 288, Note_on_c, 0, 67, 73
1, 336, Note_on_c, 0, 71, 73
1, 384, Note_off_c, 0, 55, 64
1, 384, Note_on_c, 0, 57, 73
1, 384, Note_off_c, 0, 62, 64
1, 384, Note_on_c, 0, 64, 73
1, 384, Note_off_c, 0, 67, 64
1, 384, Note_off_c, 0, 71, 64
1, 384, Note_on_c, 0, 72, 73
1, 432, Note_off_c, 0, 57, 64
1, 432, Note_off_c, 0, 64, 64
1, 432, Note_off_c, 0, 72, 64
1, 480, Note_on_c, 0, 71, 73
1, 528, Note_off_c, 0, 71, 64
1, 552, Note_on_c, 0, 57, 73
1, 552, Note_on_c, 0, 60, 73
1, 552, Note_on_c, 0, 64, 73
1, 552, Note_on_c, 0, 69, 73
1, 552, Note_on_c, 0, 71, 73
1, 552, Note_on_c, 0, 72, 73
1, 576, Note_off_c, 0, 57, 64
1, 576, Note_off_c, 0, 60, 64
1, 576, Note_off_c, 0, 64, 64
1, 576, Note_off_c, 0, 69, 64
1, 576, Note_off_c, 0, 71, 64
1, 576, Note_off_c, 0, 72, 64
1, 672, Note_on_c, 0, 69, 73
1, 684, Note_on_c, 0, 72, 73
1, 696, Note_off_c, 0, 69, 64
1, 696, Note_on_c, 0, 76, 73
1, 708, Note_off_c, 0, 72, 64
1, 720, Note_off_c, 0, 76, 64
1, 768, Note_on_c, 0, 60, 73
1, 768, Note_on_c, 0, 64, 73
1, 768, Note_on_c, 0, 67, 73
1, 768, Note_on_c, 0, 72, 73
1, 768, Note_off_c, 0, 72, 64
1, 768, Note_on_c, 0, 76, 73
1, 816, Note_off_c, 0, 60, 64
1, 816, Note_off_c, 0, 64, 64
1, 816, Note_off_c, 0, 67, 64
1, 816, Note_off_c, 0, 76, 64
1, 912, Note_on_c, 0, 60, 73
1, 912, Note_on_c, 0, 64, 73
1, 912, Note_on_c, 0, 67, 73
1, 912, Note_on_c, 0, 71, 73
1, 912, Note_on_c, 0, 72, 73
1, 960, Note_off_c, 0, 60, 64
1, 960, Note_off_c, 0, 64, 64
1, 960, Note_off_c, 0, 67, 64
1, 960, Note_off_c, 0, 71, 64
1, 960, Note_off_c, 0, 72, 64
1, 1056, Note_on_c, 0, 59, 73
1, 1056, Note_on_c, 0, 64, 73
1, 1056, Note_on_c, 0, 67, 73
1, 1056, Note_on_c, 0, 71, 73
1, 1056, Note_on_c, 0, 74, 73
1, 1056, Note_on_c, 0, 76, 73
1, 1056, Note_on_c, 0, 79, 72
1, 1104, Note_off_c, 0, 59, 64
1, 1104, Note_off_c, 0, 64, 64
1, 1104, Note_off_c, 0, 67, 64
1, 1104, Note_on_c, 0, 69, 73
1, 1104, Note_off_c, 0, 71, 64
1, 1104, Note_off_c, 0, 74, 64
1, 1104, Note_off_c, 0, 76, 64
1, 1104, Note_off_c, 0, 79, 64
1, 1152, Note_on_c, 0, 57, 73
1, 1152, Note_on_c, 0, 64, 73
1, 1152, Note_off_c, 0, 69, 64
1, 1152, Note_on_c, 0, 72, 73
1, 1224, Note_on_c, 0, 71, 73
1, 1296, Note_off_c, 0, 57, 64
1, 1296, Note_on_c, 0, 57, 73
1, 1296, Note_on_c, 0, 60, 73
1, 1296, Note_off_c, 0, 64, 64
1, 1296, Note_on_c, 0, 64, 73
1, 1296, Note_on_c, 0, 69, 73
1, 1296, Note_off_c, 0, 71, 64
1, 1296, Note_on_c, 0, 71, 73
1, 1296, Note_off_c, 0, 72, 64
1, 1296, Note_on_c, 0, 72, 73
1, 1440, Note_off_c, 0, 57, 64
1, 1440, Note_off_c, 0, 60, 64
1, 1440, Note_off_c, 0, 64, 64
1, 1440, Note_off_c, 0, 69, 64
1, 1440, Note_off_c, 0, 71, 64
1, 1440, Note_off_c, 0, 72, 64
1, 1440, Note_on_c, 0, 74, 73
1, 1464, Note_on_c, 0, 72, 73
1, 1464, Note_off_c, 0, 74, 64
1, 1488, Note_on_c, 0, 67, 73
1, 1488, Note_off_c, 0, 72, 64
1, 1512, Note_on_c, 0, 59, 73
1, 1512, Note_on_c, 0, 62, 73
1, 1512, Note_off_c, 0, 67, 64
1, 1536, Note_off_c, 0, 59, 64
1, 1536, Note_off_c, 0, 62, 64
1, 0, Note_on_c, 0, 29, 97
1, 0, Note_on_c, 0, 41, 97
1, 0, Note_on_c, 0, 53, 99
1, 0, Note_on_c, 0, 57, 76
1, 0, Note_on_c, 0, 60, 99
1, 0, Note_on_c, 0, 67, 99
1, 69, Note_off_c, 0, 57, 53
1, 96, Note_on_c, 0, 57, 77
1, 164, Note_off_c, 0, 57, 56
1, 192, Note_on_c, 0, 57, 79
1, 260, Note_off_c, 0, 57, 58
1, 288, Note_on_c, 0, 57, 74
1, 355, Note_off_c, 0, 57, 58
1, 383, Note_off_c, 0, 29, 86
1, 383, Note_off_c, 0, 41, 86
1, 383, Note_off_c, 0, 53, 62
1, 383, Note_off_c, 0, 60, 62
1, 383, Note_off_c, 0, 67, 62
1, 384, Note_on_c, 0, 31, 102
1, 384, Note_on_c, 0, 43, 102
1, 384, Note_on_c, 0, 55, 94
1, 384, Note_on_c, 0, 57, 81
1, 384, Note_on_c, 0, 62, 99
1, 384, Note_on_c, 0, 65, 99
1, 450, Note_off_c, 0, 57, 62
1, 480, Note_on_c, 0, 57, 75
1, 548, Note_off_c, 0, 57, 56
1, 576, Note_on_c, 0, 57, 73
1, 638, Note_off_c, 0, 57, 57
1, 672, Note_on_c, 0, 57, 73
1, 732, Note_off_c, 0, 57, 71
1, 767, Note_off_c, 0, 31, 47
1, 767, Note_off_c, 0, 43, 47
1, 767, Note_off_c, 0, 55, 57
1, 767, Note_off_c, 0, 62, 62
1, 767, Note_off_c, 0, 65, 62
1, 768, Note_on_c, 0, 33, 98
1, 768, Note_on_c, 0, 45, 98
1, 768, Note_on_c, 0, 55, 116
1, 768, Note_on_c, 0, 57, 76
1, 768, Note_on_c, 0, 60, 116
1, 768, Note_on_c, 0, 64, 99
1, 837, Note_off_c, 0, 57, 53
1, 864, Note_on_c, 0, 57, 77
1, 932, Note_off_c, 0, 57, 56
1, 960, Note_on_c, 0, 57, 79
1, 1028, Note_off_c, 0, 57, 58
1, 1056, Note_on_c, 0, 57, 74
1, 1123, Note_off_c, 0, 57, 58
1, 1151, Note_off_c, 0, 33, 56
1, 1151, Note_off_c, 0, 45, 56
1, 1151, Note_off_c, 0, 55, 84
1, 1151, Note_off_c, 0, 60, 84
1, 1151, Note_off_c, 0, 64, 62
1, 1152, Note_on_c, 0, 24, 103
1, 1152, Note_on_c, 0, 36, 103
1, 1152, Note_on_c, 0, 48, 89
1, 1152, Note_on_c, 0, 52, 89
1, 1152, Note_on_c, 0, 55, 89
1, 1152, Note_on_c, 0, 57, 81
1, 1152, Note_on_c, 0, 59, 127
1, 1218, Note_off_c, 0, 57, 62
1, 1248, Note_on_c, 0, 57, 75
1, 1316, Note_off_c, 0, 57, 56
1, 1344, Note_on_c, 0, 57, 73
1, 1406, Note_off_c, 0, 57, 57
1, 1440, Note_on_c, 0, 57, 73
1, 1500, Note_off_c, 0, 57, 71
1, 1535, Note_off_c, 0, 24, 84
1, 1535, Note_off_c, 0, 36, 84
1, 1535, Note_off_c, 0, 48, 88
1, 1535, Note_off_c, 0, 52, 88
1, 1535, Note_off_c, 0, 55, 88
1, 1535, Note_off_c, 0, 59, 62
1, 1536, Note_on_c, 0, 29, 97
1, 1536, Note_on_c, 0, 41, 97
1, 1536, Note_on_c, 0, 53, 99
1, 1536, Note_on_c, 0, 57, 76
1, 1536, Note_on_c, 0, 60, 99
1, 1536, Note_on_c, 0, 67, 99
1, 1536, Note_on_c, 0, 71, 68
1, 1583, Note_off_c, 0, 71, 41
1, 1605, Note_off_c, 0, 57, 53
1, 1632, Note_on_c, 0, 57, 77
1, 1700, Note_off_c, 0, 57, 56
1, 1728, Note_on_c, 0, 57, 79
1, 1728, Note_on_c, 0, 72, 94
1, 1785, Note_off_c, 0, 72, 50
1, 1796, Note_off_c, 0, 57, 58
1, 1824, Note_on_c, 0, 57, 74
1, 1891, Note_off_c, 0, 57, 58
1, 1919, Note_off_c, 0, 29, 86
1, 1919, Note_off_c, 0, 41, 86
1, 1919, Note_off_c, 0, 53, 62
1, 1919, Note_off_c, 0, 60, 62
1, 1919, Note_off_c, 0, 67, 62
1, 1920, Note_on_c, 0, 31, 102
1, 1920, Note_on_c, 0, 43, 102
1, 1920, Note_on_c, 0, 55, 94
1, 1920, Note_on_c, 0, 57, 81
1, 1920, Note_on_c, 0, 62, 99
1, 1920, Note_on_c, 0, 65, 99
1, 1920, Note_on_c, 0, 76, 76
1, 1960, Note_off_c, 0, 76, 33
1, 1986, Note_off_c, 0, 57, 62
1, 2016, Note_on_c, 0, 57, 75
1, 2084, Note_off_c, 0, 57, 56
1, 2112, Note_on_c, 0, 57, 73
1, 2112, Note_on_c, 0, 72, 83
1, 2155, Note_off_c, 0, 72, 49
1, 2174, Note_off_c, 0, 57, 57
1, 2208, Note_on_c, 0, 57, 73
1, 2268, Note_off_c, 0, 57, 71
1, 2303, Note_off_c, 0, 31, 47
1, 2303, Note_off_c, 0, 43, 47
1, 2303, Note_off_c, 0, 55, 57
1, 2303, Note_off_c, 0, 62, 62
1, 2303, Note_off_c, 0, 65, 62
1, 2304, Note_on_c, 0, 33, 98
1, 2304, Note_on_c, 0, 45, 98
1, 2304, Note_on_c, 0, 55, 116
1, 2304, Note_on_c, 0, 57, 76
1, 2304, Note_on_c, 0, 60, 116
1, 2304, Note_on_c, 0, 64, 99
1, 2304, Note_on_c, 0, 71, 68
1, 2338, Note_off_c, 0, 71, 34
1, 2373, Note_off_c, 0, 57, 53
1, 2400, Note_on_c, 0, 57, 77
1, 2468, Note_off_c, 0, 57, 56
1, 2496, Note_on_c, 0, 57, 79
1, 2496, Note_on_c, 0, 72, 75
1, 2537, Note_off_c, 0, 72, 44
1, 2564, Note_off_c, 0, 57, 58
1, 2592, Note_on_c, 0, 57, 74
1, 2659, Note_off_c, 0, 57, 58
1, 2687, Note_off_c, 0, 33, 56
1, 2687, Note_off_c, 0, 45, 56
1, 2687, Note_off_c, 0, 55, 84
1, 2687, Note_off_c, 0, 60, 84
1, 2687, Note_off_c, 0, 64, 62
1, 2688, Note_on_c, 0, 24, 103
1, 2688, Note_on_c, 0, 36, 103
1, 2688, Note_on_c, 0, 48, 89
1, 2688, Note_on_c, 0, 55, 89
1, 2688, Note_on_c, 0, 57, 81
1, 2688, Note_on_c, 0, 60, 89
1, 2688, Note_on_c, 0, 64, 89
1, 2688, Note_on_c, 0, 71, 99
1, 2688, Note_on_c, 0, 76, 75
1, 2717, Note_off_c, 0, 76, 31
1, 2754, Note_off_c, 0, 57, 62
1, 2784, Note_on_c, 0, 57, 75
1, 2852, Note_off_c, 0, 57, 56
1, 2880, Note_on_c, 0, 57, 73
1, 2880, Note_on_c, 0, 72, 64
1, 2922, Note_off_c, 0, 72, 48
1, 2942, Note_off_c, 0, 57, 57
1, 2976, Note_on_c, 0, 57, 73
1, 3036, Note_off_c, 0, 57, 71
1, 3071, Note_off_c, 0, 24, 84
1, 3071, Note_off_c, 0, 36, 84
1, 3071, Note_off_c, 0, 48, 88
1, 3071, Note_off_c, 0, 55, 88
1, 3071, Note_off_c, 0, 60, 88
1, 3071, Note_off_c, 0, 64, 88
1, 3071, Note_off_c, 0, 71, 62
1, 0, Note_on_c, 0, 45, 91
1, 0, Note_on_c, 0, 57, 86
1, 0, Note_on_c, 0, 60, 72
1, 0, Note_on_c, 0, 64, 78
1, 0, Note_on_c, 0, 67, 82
1, 6, Note_on_c, 0, 76, 98
1, 25, Note_off_c, 0, 76, 77
1, 36, Note_off_c, 0, 45, 68
1, 36, Note_off_c, 0, 57, 72
1, 36, Note_off_c, 0, 60, 61
1, 36, Note_off_c, 0, 64, 71
1, 36, Note_off_c, 0, 67, 80
1, 48, Note_on_c, 0, 45, 92
1, 48, Note_on_c, 0, 57, 89
1, 48, Note_on_c, 0, 60, 75
1, 48, Note_on_c, 0, 64, 77
1, 48, Note_on_c, 0, 67, 88
1, 54, Note_on_c, 0, 76, 91
1, 83, Note_off_c, 0, 76, 70
1, 84, Note_off_c, 0, 45, 84
1, 84, Note_off_c, 0, 57, 79
1, 84, Note_off_c, 0, 60, 76
1, 84, Note_off_c, 0, 64, 82
1, 84, Note_off_c, 0, 67, 92
1, 144, Note_on_c, 0, 40, 82
1, 144, Note_on_c, 0, 52, 85
1, 144, Note_on_c, 0, 55, 85
1, 144, Note_on_c, 0, 59, 84
1, 144, Note_on_c, 0, 62, 82
1, 150, Note_on_c, 0, 71, 82
1, 177, Note_off_c, 0, 71, 62
1, 180, Note_off_c, 0, 40, 57
1, 180, Note_off_c, 0, 52, 56
1, 180, Note_off_c, 0, 55, 48
1, 180, Note_off_c, 0, 59, 66
1, 180, Note_off_c, 0, 62, 60
1, 192, Note_on_c, 0, 40, 84
1, 192, Note_on_c, 0, 52, 85
1, 192, Note_on_c, 0, 55, 66
1, 192, Note_on_c, 0, 59, 68
1, 192, Note_on_c, 0, 62, 61
1, 198, Note_on_c, 0, 71, 95
1, 228, Note_off_c, 0, 40, 54
1, 228, Note_off_c, 0, 52, 69
1, 228, Note_off_c, 0, 55, 70
1, 228, Note_off_c, 0, 59, 75
1, 228, Note_off_c, 0, 62, 74
1, 233, Note_off_c, 0, 71, 62
1, 288, Note_on_c, 0, 41, 86
1, 288, Note_on_c, 0, 53, 81
1, 288, Note_on_c, 0, 57, 73
1, 288, Note_on_c, 0, 60, 73
1, 288, Note_on_c, 0, 64, 75
1, 294, Note_on_c, 0, 72, 77
1, 317, Note_off_c, 0, 72, 72
1, 324, Note_off_c, 0, 41, 40
1, 324, Note_off_c, 0, 53, 50
1, 324, Note_off_c, 0, 57, 72
1, 324, Note_off_c, 0, 60, 73
1, 324, Note_off_c, 0, 64, 77
1, 336, Note_on_c, 0, 41, 86
1, 336, Note_on_c, 0, 53, 87
1, 336, Note_on_c, 0, 57, 82
1, 336, Note_on_c, 0, 60, 80
1, 336, Note_on_c, 0, 64, 85
1, 342, Note_on_c, 0, 72, 79
1, 363, Note_off_c, 0, 72, 74
1, 372, Note_off_c, 0, 41, 44
1, 372, Note_off_c, 0, 53, 45
1, 372, Note_off_c, 0, 57, 60
1, 372, Note_off_c, 0, 60, 61
1, 372, Note_off_c, 0, 64, 64
1, 432, Note_on_c, 0, 41, 81
1, 432, Note_on_c, 0, 53, 77
1, 432, Note_on_c, 0, 57, 78
1, 432, Note_on_c, 0, 60, 71
1, 432, Note_on_c, 0, 64, 82
1, 438, Note_on_c, 0, 72, 74
1, 456, Note_off_c, 0, 72, 69
1, 468, Note_off_c, 0, 41, 46
1, 468, Note_off_c, 0, 53, 60
1, 468, Note_off_c, 0, 57, 56
1, 468, Note_off_c, 0, 60, 67
1, 468, Note_off_c, 0, 64, 67
1, 480, Note_on_c, 0, 41, 73
1, 480, Note_on_c, 0, 53, 73
1, 480, Note_on_c, 0, 57, 73
1, 480, Note_on_c, 0, 60, 70
1, 480, Note_on_c, 0, 64, 71
1, 486, Note_on_c, 0, 72, 78
1, 501, Note_off_c, 0, 72, 80
1, 516, Note_off_c, 0, 41, 44
1, 516, Note_off_c, 0, 53, 48
1, 516, Note_off_c, 0, 57, 59
1, 516, Note_off_c, 0, 60, 69
1, 516, Note_off_c, 0, 64, 71
1, 528, Note_on_c, 0, 41, 75
1, 528, Note_on_c, 0, 53, 77
1, 528, Note_on_c, 0, 57, 76
1, 528, Note_on_c, 0, 60, 73
1, 528, Note_on_c, 0, 64, 83
1, 534, Note_on_c, 0, 72, 77
1, 545, Note_off_c, 0, 72, 76
1, 564, Note_off_c, 0, 41, 53
1, 564, Note_off_c, 0, 53, 52
1, 564, Note_off_c, 0, 57, 59
1, 564, Note_off_c, 0, 60, 68
1, 564, Note_off_c, 0, 64, 72
1, 576, Note_on_c, 0, 41, 84
1, 576, Note_on_c, 0, 53, 81
1, 576, Note_on_c, 0, 57, 80
1, 576, Note_on_c, 0, 60, 80
1, 576, Note_on_c, 0, 64, 83
1, 582, Note_on_c, 0, 72, 102
1, 608, Note_off_c, 0, 72, 72
1, 612, Note_off_c, 0, 41, 42
1, 612, Note_off_c, 0, 53, 42
1, 612, Note_off_c, 0, 57, 58
1, 612, Note_off_c, 0, 60, 69
1, 612, Note_off_c, 0, 64, 70
1, 624, Note_on_c, 0, 41, 73
1, 624, Note_on_c, 0, 53, 73
1, 624, Note_on_c, 0, 57, 74
1, 624, Note_on_c, 0, 60, 75
1, 624, Note_on_c, 0, 64, 81
1, 630, Note_on_c, 0, 69, 109
1, 655, Note_off_c, 0, 69, 75
1, 660, Note_off_c, 0, 41, 51
1, 660, Note_off_c, 0, 53, 50
1, 660, Note_off_c, 0, 57, 60
1, 660, Note_off_c, 0, 60, 70
1, 660, Note_off_c, 0, 64, 72
1, 672, Note_on_c, 0, 41, 92
1, 672, Note_on_c, 0, 53, 89
1, 672, Note_on_c, 0, 57, 87
1, 672, Note_on_c, 0, 60, 82
1, 672, Note_on_c, 0, 64, 85
1, 678, Note_on_c, 0, 72, 90
1, 699, Note_off_c, 0, 72, 75
1, 708, Note_off_c, 0, 41, 43
1, 708, Note_off_c, 0, 53, 52
1, 708, Note_off_c, 0, 57, 62
1, 708, Note_off_c, 0, 60, 69
1, 708, Note_off_c, 0, 64, 73
1, 720, Note_on_c, 0, 41, 56
1, 720, Note_on_c, 0, 53, 76
1, 720, Note_on_c, 0, 57, 70
1, 720, Note_on_c, 0, 60, 67
1, 720, Note_on_c, 0, 64, 72
1, 726, Note_on_c, 0, 74, 92
1, 744, Note_off_c, 0, 74, 77
1, 756, Note_off_c, 0, 41, 59
1, 756, Note_off_c, 0, 53, 51
1, 756, Note_off_c, 0, 57, 81
1, 756, Note_off_c, 0, 60, 82
1, 756, Note_off_c, 0, 64, 83
1, 768, Note_on_c, 0, 45, 100
1, 768, Note_on_c, 0, 57, 108
1, 768, Note_on_c, 0, 60, 98
1, 768, Note_on_c, 0, 64, 103
1, 768, Note_on_c, 0, 67, 103
1, 774, Note_on_c, 0, 76, 99
1, 792, Note_off_c, 0, 76, 85
1, 804, Note_off_c, 0, 45, 62
1, 804, Note_off_c, 0, 57, 67
1, 804, Note_off_c, 0, 60, 52
1, 804, Note_off_c, 0, 64, 71
1, 804, Note_off_c, 0, 67, 74
1, 816, Note_on_c, 0, 45, 93
1, 816, Note_on_c, 0, 57, 75
1, 816, Note_on_c, 0, 60, 88
1, 816, Note_on_c, 0, 64, 95
1, 816, Note_on_c, 0, 67, 97
1, 822, Note_on_c, 0, 76, 103
1, 845, Note_off_c, 0, 76, 72
1, 852, Note_off_c, 0, 45, 77
1, 852, Note_off_c, 0, 57, 74
1, 852, Note_off_c, 0, 60, 70
1, 852, Note_off_c, 0, 64, 73
1, 852, Note_off_c, 0, 67, 72
1, 912, Note_on_c, 0, 40, 77
1, 912, Note_on_c, 0, 52, 86
1, 912, Note_on_c, 0, 55, 64
1, 912, Note_on_c, 0, 59, 74
1, 912, Note_on_c, 0, 62, 85
1, 918, Note_on_c, 0, 71, 85
1, 940, Note_off_c, 0, 71, 76
1, 948, Note_off_c, 0, 40, 66
1, 948, Note_off_c, 0, 52, 77
1, 948, Note_off_c, 0, 55, 50
1, 948, Note_off_c, 0, 59, 73
1, 948, Note_off_c, 0, 62, 68
1, 960, Note_on_c, 0, 40, 82
1, 960, Note_on_c, 0, 52, 78
1, 960, Note_on_c, 0, 55, 72
1, 960, Note_on_c, 0, 59, 73
1, 960, Note_on_c, 0, 62, 70
1, 966, Note_on_c, 0, 71, 90
1, 992, Note_off_c, 0, 71, 66
1, 996, Note_off_c, 0, 40, 70
1, 996, Note_off_c, 0, 52, 37
1, 996, Note_off_c, 0, 55, 70
1, 996, Note_off_c, 0, 59, 82
1, 996, Note_off_c, 0, 62, 80
1, 1056, Note_on_c, 0, 41, 80
1, 1056, Note_on_c, 0, 53, 87
1, 1056, Note_on_c, 0, 57, 76
1, 1056, Note_on_c, 0, 60, 70
1, 1056, Note_on_c, 0, 64, 77
1, 1062, Note_on_c, 0, 79, 84
1, 1081, Note_off_c, 0, 79, 87
1, 1092, Note_off_c, 0, 41, 41
1, 1092, Note_off_c, 0, 53, 51
1, 1092, Note_off_c, 0, 57, 70
1, 1092, Note_off_c, 0, 60, 69
1, 1092, Note_off_c, 0, 64, 72
1, 1104, Note_on_c, 0, 41, 86
1, 1104, Note_on_c, 0, 53, 94
1, 1104, Note_on_c, 0, 57, 83
1, 1104, Note_on_c, 0, 60, 78
1, 1104, Note_on_c, 0, 64, 86
1, 1110, Note_on_c, 0, 76, 106
1, 1127, Note_off_c, 0, 76, 83
1, 1140, Note_off_c, 0, 41, 49
1, 1140, Note_off_c, 0, 53, 61
1, 1140, Note_off_c, 0, 57, 58
1, 1140, Note_off_c, 0, 60, 77
1, 1140, Note_off_c, 0, 64, 79
1, 1200, Note_on_c, 0, 38, 70
1, 1200, Note_on_c, 0, 50, 63
1, 1200, Note_on_c, 0, 53, 58
1, 1200, Note_on_c, 0, 57, 85
1, 1200, Note_on_c, 0, 60, 70
1, 1206, Note_on_c, 0, 76, 88
1, 1224, Note_off_c, 0, 76, 80
1, 1236, Note_off_c, 0, 38, 55
1, 1236, Note_off_c, 0, 50, 57
1, 1236, Note_off_c, 0, 53, 34
1, 1236, Note_off_c, 0, 57, 53
1, 1236, Note_off_c, 0, 60, 60
1, 1248, Note_on_c, 0, 38, 72
1, 1248, Note_on_c, 0, 50, 73
1, 1248, Note_on_c, 0, 53, 29
1, 1248, Note_on_c, 0, 57, 91
1, 1248, Note_on_c, 0, 60, 79
1, 1254, Note_on_c, 0, 76, 106
1, 1272, Note_off_c, 0, 76, 80
1, 1284, Note_off_c, 0, 38, 57
1, 1284, Note_off_c, 0, 50, 54
1, 1284, Note_off_c, 0, 53, 28
1, 1284, Note_off_c, 0, 57, 73
1, 1284, Note_off_c, 0, 60, 69
1, 1296, Note_on_c, 0, 38, 68
1, 1296, Note_on_c, 0, 50, 73
1, 1296, Note_on_c, 0, 53, 35
1, 1296, Note_on_c, 0, 57, 91
1, 1296, Note_on_c, 0, 60, 78
1, 1302, Note_on_c, 0, 76, 105
1, 1318, Note_off_c, 0, 76, 84
1, 1332, Note_off_c, 0, 38, 48
1, 1332, Note_off_c, 0, 50, 55
1, 1332, Note_off_c, 0, 53, 37
1, 1332, Note_off_c, 0, 57, 74
1, 1332, Note_off_c, 0, 60, 68
1, 1344, Note_on_c, 0, 38, 72
1, 1344, Note_on_c, 0, 50, 73
1, 1344, Note_on_c, 0, 53, 50
1, 1344, Note_on_c, 0, 57, 94
1, 1344, Note_on_c, 0, 60, 83
1, 1350, Note_on_c, 0, 76, 109
1, 1376, Note_off_c, 0, 76, 79
1, 1380, Note_off_c, 0, 38, 46
1, 1380, Note_off_c, 0, 50, 49
1, 1380, Note_off_c, 0, 53, 40
1, 1380, Note_off_c, 0, 57, 74
1, 1380, Note_off_c, 0, 60, 70
1, 1392, Note_on_c, 0, 38, 67
1, 1392, Note_on_c, 0, 50, 74
1, 1392, Note_on_c, 0, 53, 52
1, 1392, Note_on_c, 0, 57, 90
1, 1392, Note_on_c, 0, 60, 82
1, 1398, Note_on_c, 0, 69, 103
1, 1426, Note_off_c, 0, 69, 79
1, 1428, Note_off_c, 0, 38, 55
1, 1428, Note_off_c, 0, 50, 70
1, 1428, Note_off_c, 0, 53, 45
1, 1428, Note_off_c, 0, 57, 85
1, 1428, Note_off_c, 0, 60, 81
1, 1440, Note_on_c, 0, 38, 76
1, 1440, Note_on_c, 0, 50, 76
1, 1440, Note_on_c, 0, 53, 64
1, 1440, Note_on_c, 0, 57, 89
1, 1440, Note_on_c, 0, 60, 85
1, 1446, Note_on_c, 0, 72, 100
1, 1465, Note_off_c, 0, 72, 72
1, 1476, Note_off_c, 0, 38, 53
1, 1476, Note_off_c, 0, 50, 53
1, 1476, Note_off_c, 0, 53, 50
1, 1476, Note_off_c, 0, 57, 78
1, 1476, Note_off_c, 0, 60, 80
1, 1488, Note_on_c, 0, 38, 78
1, 1488, Note_on_c, 0, 50, 80
1, 1488, Note_on_c, 0, 53, 61
1, 1488, Note_on_c, 0, 57, 85
1, 1488, Note_on_c, 0, 60, 91
1, 1494, Note_on_c, 0, 74, 118
1, 1511, Note_off_c, 0, 74, 84
1, 1524, Note_off_c, 0, 38, 80
1, 1524, Note_off_c, 0, 50, 70
1, 1524, Note_off_c, 0, 53, 50
1, 1524, Note_off_c, 0, 57, 63
1, 1524, Note_off_c, 0, 60, 75
1, 0, Note_on_c, 0, 33, 92
1, 0, Note_on_c, 0, 57, 92
1, 0, Note_on_c, 0, 64, 92
1, 0, Note_on_c, 0, 67, 91
1, 3, Note_on_c, 0, 72, 92
1, 36, Note_off_c, 0, 33, 90
1, 36, Note_on_c, 0, 33, 92
1, 36, Note_off_c, 0, 57, 90
1, 36, Note_on_c, 0, 57, 92
1, 36, Note_off_c, 0, 64, 90
1, 36, Note_on_c, 0, 64, 92
1, 36, Note_off_c, 0, 67, 90
1, 36, Note_on_c, 0, 67, 91
1, 39, Note_off_c, 0, 72, 90
1, 39, Note_on_c, 0, 72, 92
1, 96, Note_off_c, 0, 33, 90
1, 96, Note_off_c, 0, 57, 90
1, 96, Note_off_c, 0, 64, 90
1, 96, Note_off_c, 0, 67, 90
1, 99, Note_off_c, 0, 72, 90
1, 120, Note_on_c, 0, 33, 92
1, 120, Note_on_c, 0, 57, 92
1, 168, Note_off_c, 0, 33, 90
1, 168, Note_off_c, 0, 57, 90
1, 192, Note_on_c, 0, 33, 92
1, 192, Note_on_c, 0, 57, 92
1, 192, Note_on_c, 0, 64, 92
1, 192, Note_on_c, 0, 67, 91
1, 195, Note_on_c, 0, 72, 92
1, 288, Note_off_c, 0, 33, 90
1, 288, Note_on_c, 0, 33, 92
1, 288, Note_off_c, 0, 57, 90
1, 288, Note_on_c, 0, 57, 92
1, 288, Note_off_c, 0, 64, 90
1, 288, Note_off_c, 0, 67, 90
1, 291, Note_off_c, 0, 72, 90
1, 384, Note_off_c, 0, 33, 90
1, 384, Note_on_c, 0, 38, 92
1, 384, Note_off_c, 0, 57, 90
1, 384, Note_on_c, 0, 62, 92
1, 384, Note_on_c, 0, 65, 92
1, 387, Note_on_c, 0, 69, 92
1, 391, Note_on_c, 0, 72, 92
1, 420, Note_off_c, 0, 38, 90
1, 420, Note_on_c, 0, 38, 92
1, 420, Note_off_c, 0, 62, 90
1, 420, Note_on_c, 0, 62, 92
1, 432, Note_off_c, 0, 65, 64
1, 435, Note_off_c, 0, 69, 64
1, 439, Note_off_c, 0, 72, 64
1, 456, Note_on_c, 0, 65, 92
1, 459, Note_on_c, 0, 69, 92
1, 463, Note_on_c, 0, 72, 92
1, 480, Note_off_c, 0, 38, 90
1, 480, Note_off_c, 0, 62, 90
1, 504, Note_on_c, 0, 38, 92
1, 504, Note_on_c, 0, 62, 92
1, 504, Note_off_c, 0, 65, 64
1, 507, Note_off_c, 0, 69, 64
1, 511, Note_off_c, 0, 72, 64
1, 528, Note_on_c, 0, 65, 92
1, 531, Note_on_c, 0, 69, 92
1, 535, Note_on_c, 0, 72, 92
1, 576, Note_off_c, 0, 38, 90
1, 576, Note_on_c, 0, 38, 92
1, 576, Note_off_c, 0, 62, 90
1, 576, Note_on_c, 0, 62, 92
1, 576, Note_off_c, 0, 65, 64
1, 576, Note_on_c, 0, 65, 92
1, 579, Note_off_c, 0, 69, 64
1, 579, Note_on_c, 0, 69, 92
1, 583, Note_off_c, 0, 72, 64
1, 583, Note_on_c, 0, 72, 92
1, 624, Note_off_c, 0, 65, 64
1, 627, Note_off_c, 0, 69, 64
1, 631, Note_off_c, 0, 72, 64
1, 648, Note_on_c, 0, 65, 92
1, 651, Note_on_c, 0, 69, 92
1, 655, Note_on_c, 0, 72, 92
1, 696, Note_off_c, 0, 65, 64
1, 699, Note_off_c, 0, 69, 64
1, 703, Note_off_c, 0, 72, 64
1, 768, Note_on_c, 0, 29, 92
1, 768, Note_off_c, 0, 38, 90
1, 768, Note_on_c, 0, 53, 92
1, 768, Note_off_c, 0, 62, 90
1, 768, Note_on_c, 0, 65, 92
1, 768, Note_on_c, 0, 69, 91
1, 771, Note_on_c, 0, 72, 91
1, 804, Note_off_c, 0, 29, 90
1, 804, Note_on_c, 0, 29, 92
1, 804, Note_off_c, 0, 53, 90
1, 804, Note_on_c, 0, 53, 92
1, 804, Note_off_c, 0, 65, 90
1, 804, Note_on_c, 0, 65, 92
1, 804, Note_off_c, 0, 69, 90
1, 804, Note_on_c, 0, 69, 91
1, 807, Note_off_c, 0, 72, 90
1, 807, Note_on_c, 0, 72, 91
1, 864, Note_off_c, 0, 29, 90
1, 864, Note_off_c, 0, 53, 90
1, 864, Note_off_c, 0, 65, 90
1, 864, Note_off_c, 0, 69, 90
1, 867, Note_off_c, 0, 72, 90
1, 888, Note_on_c, 0, 29, 92
1, 888, Note_on_c, 0, 53, 92
1, 960, Note_off_c, 0, 29, 90
1, 960, Note_on_c, 0, 29, 92
1, 960, Note_off_c, 0, 53, 90
1, 960, Note_on_c, 0, 53, 92
1, 960, Note_on_c, 0, 65, 92
1, 960, Note_on_c, 0, 69, 92
1, 962, Note_on_c, 0, 72, 92
1, 1008, Note_off_c, 0, 65, 90
1, 1008, Note_off_c, 0, 69, 90
1, 1010, Note_off_c, 0, 72, 90
1, 1032, Note_on_c, 0, 67, 92
1, 1035, Note_on_c, 0, 71, 92
1, 1039, Note_on_c, 0, 74, 92
1, 1056, Note_off_c, 0, 29, 90
1, 1056, Note_on_c, 0, 29, 92
1, 1056, Note_off_c, 0, 53, 90
1, 1056, Note_on_c, 0, 53, 92
1, 1080, Note_off_c, 0, 67, 64
1, 1083, Note_off_c, 0, 71, 64
1, 1087, Note_off_c, 0, 74, 64
1, 1152, Note_off_c, 0, 29, 90
1, 1152, Note_on_c, 0, 31, 92
1, 1152, Note_off_c, 0, 53, 90
1, 1152, Note_on_c, 0, 55, 92
1, 1152, Note_on_c, 0, 71, 92
1, 1155, Note_on_c, 0, 62, 92
1, 1156, Note_on_c, 0, 74, 92
1, 1159, Note_on_c, 0, 67, 92
1, 1188, Note_off_c, 0, 31, 90
1, 1188, Note_on_c, 0, 31, 92
1, 1188, Note_off_c, 0, 55, 90
1, 1188, Note_on_c, 0, 55, 92
1, 1188, Note_off_c, 0, 71, 90
1, 1188, Note_on_c, 0, 71, 92
1, 1192, Note_off_c, 0, 74, 90
1, 1192, Note_on_c, 0, 74, 92
1, 1203, Note_off_c, 0, 62, 64
1, 1207, Note_off_c, 0, 67, 64
1, 1227, Note_on_c, 0, 62, 92
1, 1231, Note_on_c, 0, 67, 92
1, 1248, Note_off_c, 0, 31, 90
1, 1248, Note_off_c, 0, 55, 90
1, 1248, Note_off_c, 0, 71, 90
1, 1252, Note_off_c, 0, 74, 90
1, 1272, Note_on_c, 0, 31, 92
1, 1272, Note_on_c, 0, 55, 92
1, 1275, Note_off_c, 0, 62, 64
1, 1279, Note_off_c, 0, 67, 64
1, 1299, Note_on_c, 0, 62, 92
1, 1303, Note_on_c, 0, 67, 92
1, 1344, Note_off_c, 0, 31, 90
1, 1344, Note_on_c, 0, 31, 92
1, 1344, Note_off_c, 0, 55, 90
1, 1344, Note_on_c, 0, 55, 92
1, 1344, Note_on_c, 0, 71, 92
1, 1347, Note_off_c, 0, 62, 64
1, 1347, Note_on_c, 0, 62, 92
1, 1348, Note_on_c, 0, 74, 92
1, 1351, Note_off_c, 0, 67, 64
1, 1351, Note_on_c, 0, 67, 92
1, 1395, Note_off_c, 0, 62, 64
1, 1399, Note_off_c, 0, 67, 64
1, 1419, Note_on_c, 0, 62, 92
1, 1423, Note_on_c, 0, 67, 92
1, 1440, Note_on_c, 0, 64, 92
1, 1444, Note_on_c, 0, 69, 92
1, 1467, Note_off_c, 0, 62, 64
1, 1471, Note_off_c, 0, 67, 64
1, 1488, Note_off_c, 0, 64, 64
1, 1492, Note_off_c, 0, 69, 64
1, 1533, Note_off_c, 0, 74, 90
1, 1536, Note_off_c, 0, 31, 90
1, 1536, Note_off_c, 0, 55, 90
1, 1536, Note_off_c, 0, 71, 90
1, 0, Note_on_c, 0, 33, 56
1, 0, Note_on_c, 0, 52, 60
1, 0, Note_on_c, 0, 72, 68
1, 85, Note_off_c, 0, 52, 61
1, 91, Note_off_c, 0, 72, 40
1, 95, Note_on_c, 0, 53, 34
1, 96, Note_on_c, 0, 71, 68
1, 186, Note_off_c, 0, 71, 73
1, 187, Note_off_c, 0, 53, 37
1, 191, Note_off_c, 0, 33, 53
1, 192, Note_on_c, 0, 35, 56
1, 193, Note_on_c, 0, 57, 52
1, 193, Note_on_c, 0, 69, 56
1, 283, Note_off_c, 0, 57, 48
1, 286, Note_off_c, 0, 69, 55
1, 289, Note_on_c, 0, 59, 56
1, 289, Note_on_c, 0, 65, 62
1, 381, Note_off_c, 0, 59, 48
1, 381, Note_off_c, 0, 65, 59
1, 383, Note_off_c, 0, 35, 67
1, 384, Note_on_c, 0, 36, 56
1, 386, Note_on_c, 0, 60, 22
1, 386, Note_on_c, 0, 64, 59
1, 465, Note_off_c, 0, 60, 41
1, 472, Note_off_c, 0, 64, 63
1, 480, Note_on_c, 0, 59, 51
1, 481, Note_on_c, 0, 65, 57
1, 571, Note_off_c, 0, 59, 58
1, 573, Note_off_c, 0, 65, 37
1, 575, Note_off_c, 0, 36, 52
1, 575, Note_on_c, 0, 57, 55
1, 576, Note_on_c, 0, 40, 57
1, 576, Note_on_c, 0, 69, 63
1, 665, Note_off_c, 0, 69, 60
1, 669, Note_off_c, 0, 57, 49
1, 673, Note_on_c, 0, 53, 28
1, 673, Note_on_c, 0, 71, 44
1, 751, Note_off_c, 0, 53, 34
1, 767, Note_off_c, 0, 40, 39
1, 767, Note_on_c, 0, 41, 45
1, 767, Note_on_c, 0, 52, 57
1, 768, Note_on_c, 0, 72, 72
1, 774, Note_off_c, 0, 71, 59
1, 858, Note_off_c, 0, 52, 46
1, 858, Note_off_c, 0, 72, 25
1, 862, Note_on_c, 0, 53, 39
1, 863, Note_on_c, 0, 71, 58
1, 951, Note_off_c, 0, 71, 73
1, 954, Note_off_c, 0, 53, 45
1, 959, Note_off_c, 0, 41, 16
1, 959, Note_on_c, 0, 57, 52
1, 959, Note_on_c, 0, 69, 54
1, 960, Note_on_c, 0, 40, 53
1, 1055, Note_on_c, 0, 65, 51
1, 1057, Note_on_c, 0, 59, 43
1, 1057, Note_off_c, 0, 69, 51
1, 1064, Note_off_c, 0, 57, 50
1, 1146, Note_off_c, 0, 65, 41
1, 1150, Note_off_c, 0, 59, 50
1, 1151, Note_off_c, 0, 40, 44
1, 1151, Note_on_c, 0, 64, 66
1, 1152, Note_on_c, 0, 36, 40
1, 1153, Note_on_c, 0, 60, 24
1, 1229, Note_off_c, 0, 60, 51
1, 1247, Note_on_c, 0, 59, 57
1, 1249, Note_on_c, 0, 65, 66
1, 1263, Note_off_c, 0, 64, 67
1, 1341, Note_off_c, 0, 65, 52
1, 1343, Note_off_c, 0, 36, 50
1, 1344, Note_on_c, 0, 40, 49
1, 1345, Note_on_c, 0, 57, 36
1, 1345, Note_on_c, 0, 69, 50
1, 1346, Note_off_c, 0, 59, 47
1, 1430, Note_off_c, 0, 69, 56
1, 1437, Note_off_c, 0, 57, 50
1, 1440, Note_on_c, 0, 53, 40
1, 1441, Note_on_c, 0, 71, 40
1, 1512, Note_off_c, 0, 53, 46
1, 1512, Note_off_c, 0, 71, 82
1, 1535, Note_off_c, 0, 40, 82
1, 0, Note_on_c, 0, 57, 100
1, 0, Note_on_c, 0, 69, 100
1, 12, Note_on_c, 0, 84, 100
1, 24, Note_off_c, 0, 69, 64
1, 24, Note_on_c, 0, 72, 100
1, 36, Note_off_c, 0, 84, 64
1, 48, Note_off_c, 0, 57, 64
1, 72, Note_off_c, 0, 72, 64
1, 192, Note_on_c, 0, 64, 100
1, 204, Note_on_c, 0, 80, 100
1, 216, Note_off_c, 0, 64, 64
1, 228, Note_off_c, 0, 80, 64
1, 384, Note_on_c, 0, 59, 100
1, 384, Note_on_c, 0, 71, 100
1, 396, Note_on_c, 0, 86, 100
1, 408, Note_off_c, 0, 71, 64
1, 408, Note_on_c, 0, 74, 100
1, 420, Note_off_c, 0, 86, 64
1, 432, Note_off_c, 0, 59, 64
1, 456, Note_off_c, 0, 74, 64
1, 576, Note_on_c, 0, 88, 100
1, 588, Note_on_c, 0, 68, 100
1, 600, Note_off_c, 0, 88, 64
1, 612, Note_off_c, 0, 68, 64
1, 768, Note_on_c, 0, 57, 100
1, 768, Note_on_c, 0, 69, 100
1, 780, Note_on_c, 0, 84, 100
1, 792, Note_off_c, 0, 69, 64
1, 792, Note_on_c, 0, 72, 100
1, 804, Note_off_c, 0, 84, 64
1, 816, Note_off_c, 0, 57, 64
1, 840, Note_off_c, 0, 72, 64
1, 960, Note_on_c, 0, 64, 100
1, 972, Note_on_c, 0, 80, 100
1, 984, Note_off_c, 0, 64, 64
1, 996, Note_off_c, 0, 80, 64
1, 1152, Note_on_c, 0, 59, 100
1, 1152, Note_on_c, 0, 71, 100
1, 1164, Note_on_c, 0, 86, 100
1, 1176, Note_off_c, 0, 71, 64
1, 1176, Note_on_c, 0, 74, 100
1, 1188, Note_off_c, 0, 86, 64
1, 1200, Note_off_c, 0, 59, 64
1, 1224, Note_off_c, 0, 74, 64
1, 1344, Note_on_c, 0, 88, 100
1, 1356, Note_on_c, 0, 68, 100
1, 1368, Note_off_c, 0, 88, 64
1, 1380, Note_off_c, 0, 68, 64
1, 0, Note_on_c, 0, 45, 109
1, 0, Note_on_c, 0, 57, 91
1, 94, Note_off_c, 0, 57, 61
1, 96, Note_on_c, 0, 64, 100
1, 191, Note_off_c, 0, 64, 77
1, 192, Note_on_c, 0, 57, 89
1, 287, Note_off_c, 0, 57, 65
1, 288, Note_on_c, 0, 64, 102
1, 382, Note_off_c, 0, 64, 74
1, 383, Note_off_c, 0, 45, 69
1, 384, Note_on_c, 0, 45, 106
1, 384, Note_on_c, 0, 65, 80
1, 473, Note_off_c, 0, 65, 52
1, 480, Note_on_c, 0, 64, 103
1, 567, Note_off_c, 0, 64, 80
1, 576, Note_on_c, 0, 60, 82
1, 672, Note_on_c, 0, 59, 93
1, 673, Note_off_c, 0, 60, 49
1, 759, Note_off_c, 0, 59, 83
1, 767, Note_off_c, 0, 45, 84
1, 768, Note_on_c, 0, 45, 118
1, 768, Note_on_c, 0, 57, 85
1, 864, Note_on_c, 0, 64, 103
1, 866, Note_off_c, 0, 57, 67
1, 960, Note_on_c, 0, 57, 92
1, 960, Note_off_c, 0, 64, 82
1, 1053, Note_off_c, 0, 57, 60
1, 1056, Note_on_c, 0, 64, 98
1, 1151, Note_off_c, 0, 45, 64
1, 1152, Note_on_c, 0, 45, 97
1, 1152, Note_on_c, 0, 65, 84
1, 1155, Note_off_c, 0, 64, 76
1, 1243, Note_off_c, 0, 65, 45
1, 1248, Note_on_c, 0, 64, 94
1, 1341, Note_off_c, 0, 64, 76
1, 1344, Note_on_c, 0, 60, 84
1, 1427, Note_off_c, 0, 60, 52
1, 1440, Note_on_c, 0, 59, 88
1, 1535, Note_off_c, 0, 45, 80
1, 1536, Note_on_c, 0, 41, 108
1, 1536, Note_on_c, 0, 57, 83
1, 1540, Note_off_c, 0, 59, 82
1, 1625, Note_off_c, 0, 57, 70
1, 1632, Note_on_c, 0, 64, 105
1, 1728, Note_on_c, 0, 57, 79
1, 1732, Note_off_c, 0, 64, 80
1, 1824, Note_on_c, 0, 64, 94
1, 1825, Note_off_c, 0, 57, 71
1, 1919, Note_off_c, 0, 41, 72
1, 1919, Note_off_c, 0, 64, 64
1, 1920, Note_on_c, 0, 41, 123
1, 1920, Note_on_c, 0, 65, 76
1, 2016, Note_on_c, 0, 64, 99
1, 2028, Note_off_c, 0, 65, 38
1, 2105, Note_off_c, 0, 64, 73
1, 2112, Note_on_c, 0, 60, 78
1, 2190, Note_off_c, 0, 60, 56
1, 2208, Note_on_c, 0, 59, 84
1, 2297, Note_off_c, 0, 59, 81
1, 2303, Note_off_c, 0, 41, 69
1, 2304, Note_on_c, 0, 41, 113
1, 2304, Note_on_c, 0, 57, 85
1, 2400, Note_on_c, 0, 64, 99
1, 2402, Note_off_c, 0, 57, 66
1, 2496, Note_on_c, 0, 57, 88
1, 2500, Note_off_c, 0, 64, 81
1, 2587, Note_off_c, 0, 57, 66
1, 2592, Note_on_c, 0, 64, 106
1, 2687, Note_off_c, 0, 41, 49
1, 2688, Note_on_c, 0, 41, 110
1, 2688, Note_on_c, 0, 65, 82
1, 2703, Note_off_c, 0, 64, 74
1, 2780, Note_off_c, 0, 65, 46
1, 2784, Note_on_c, 0, 64, 106
1, 2869, Note_off_c, 0, 64, 78
1, 2879, Note_off_c, 0, 41, 50
1, 2880, Note_on_c, 0, 44, 120
1, 2880, Note_on_c, 0, 60, 92
1, 2973, Note_off_c, 0, 60, 54
1, 2976, Note_on_c, 0, 64, 102
1, 3068, Note_off_c, 0, 64, 77
1, 3071, Note_off_c, 0, 44, 77
1, 0, Note_on_c, 0, 36, 100
1, 24, Note_off_c, 0, 36, 100
1, 24, Note_on_c, 0, 45, 64
1, 48, Note_off_c, 0, 45, 64
1, 48, Note_on_c, 0, 55, 88
1, 72, Note_off_c, 0, 55, 88
1, 72, Note_on_c, 0, 67, 64
1, 96, Note_on_c, 0, 36, 100
1, 96, Note_off_c, 0, 67, 64
1, 120, Note_off_c, 0, 36, 100
1, 120, Note_on_c, 0, 45, 64
1, 144, Note_off_c, 0, 45, 64
1, 144, Note_on_c, 0, 55, 88
1, 168, Note_off_c, 0, 55, 88
1, 168, Note_on_c, 0, 69, 64
1, 192, Note_on_c, 0, 36, 100
1, 192, Note_off_c, 0, 69, 64
1, 216, Note_off_c, 0, 36, 100
1, 216, Note_on_c, 0, 45, 64
1, 240, Note_off_c, 0, 45, 64
1, 240, Note_on_c, 0, 55, 88
1, 264, Note_off_c, 0, 55, 88
1, 264, Note_on_c, 0, 67, 64
1, 288, Note_on_c, 0, 36, 100
1, 288, Note_off_c, 0, 67, 64
1, 312, Note_off_c, 0, 36, 100
1, 312, Note_on_c, 0, 45, 64
1, 336, Note_off_c, 0, 45, 64
1, 336, Note_on_c, 0, 55, 88
1, 360, Note_off_c, 0, 55, 88
1, 360, Note_on_c, 0, 69, 64
1, 384, Note_on_c, 0, 36, 100
1, 384, Note_off_c, 0, 69, 64
1, 408, Note_off_c, 0, 36, 100
1, 408, Note_on_c, 0, 45, 64
1, 432, Note_off_c, 0, 45, 64
1, 432, Note_on_c, 0, 55, 88
1, 456, Note_off_c, 0, 55, 88
1, 456, Note_on_c, 0, 67, 64
1, 480, Note_on_c, 0, 36, 100
1, 480, Note_off_c, 0, 67, 64
1, 504, Note_off_c, 0, 36, 100
1, 504, Note_on_c, 0, 45, 64
1, 528, Note_off_c, 0, 45, 64
1, 528, Note_on_c, 0, 55, 88
1, 552, Note_off_c, 0, 55, 88
1, 552, Note_on_c, 0, 65, 64
1, 576, Note_on_c, 0, 36, 100
1, 576, Note_off_c, 0, 65, 64
1, 600, Note_off_c, 0, 36, 100
1, 600, Note_on_c, 0, 45, 64
1, 624, Note_off_c, 0, 45, 64
1, 624, Note_on_c, 0, 55, 88
1, 648, Note_off_c, 0, 55, 88
1, 648, Note_on_c, 0, 67, 64
1, 672, Note_on_c, 0, 36, 100
1, 672, Note_off_c, 0, 67, 64
1, 696, Note_off_c, 0, 36, 100
1, 696, Note_on_c, 0, 45, 64
1, 720, Note_off_c, 0, 45, 64
1, 720, Note_on_c, 0, 55, 88
1, 744, Note_off_c, 0, 55, 88
1, 744, Note_on_c, 0, 65, 64
1, 768, Note_on_c, 0, 36, 100
1, 768, Note_off_c, 0, 65, 64
1, 792, Note_off_c, 0, 36, 100
1, 792, Note_on_c, 0, 45, 64
1, 816, Note_off_c, 0, 45, 64
1, 816, Note_on_c, 0, 55, 88
1, 840, Note_off_c, 0, 55, 88
1, 840, Note_on_c, 0, 64, 64
1, 864, Note_on_c, 0, 36, 100
1, 864, Note_off_c, 0, 64, 64
1, 888, Note_off_c, 0, 36, 100
1, 888, Note_on_c, 0, 45, 64
1, 912, Note_off_c, 0, 45, 64
1, 912, Note_on_c, 0, 55, 88
1, 936, Note_off_c, 0, 55, 88
1, 936, Note_on_c, 0, 67, 64
1, 960, Note_on_c, 0, 36, 100
1, 960, Note_off_c, 0, 67, 64
1, 984, Note_off_c, 0, 36, 100
1, 984, Note_on_c, 0, 45, 64
1, 1008, Note_off_c, 0, 45, 64
1, 1008, Note_on_c, 0, 55, 88
1, 1032, Note_off_c, 0, 55, 88
1, 1032, Note_on_c, 0, 64, 64
1, 1056, Note_on_c, 0, 36, 100
1, 1056, Note_off_c, 0, 64, 64
1, 1080, Note_off_c, 0, 36, 100
1, 1080, Note_on_c, 0, 45, 64
1, 1104, Note_off_c, 0, 45, 64
1, 1104, Note_on_c, 0, 55, 88
1, 1128, Note_off_c, 0, 55, 88
1, 1128, Note_on_c, 0, 67, 64
1, 1152, Note_on_c, 0, 36, 100
1, 1152, Note_off_c, 0, 67, 64
1, 1176, Note_off_c, 0, 36, 100
1, 1176, Note_on_c, 0, 45, 64
1, 1200, Note_off_c, 0, 45, 64
1, 1200, Note_on_c, 0, 55, 88
1, 1224, Note_off_c, 0, 55, 88
1, 1224, Note_on_c, 0, 64, 64
1, 1248, Note_on_c, 0, 36, 100
1, 1248, Note_off_c, 0, 64, 64
1, 1272, Note_off_c, 0, 36, 100
1, 1272, Note_on_c, 0, 45, 64
1, 1296, Note_off_c, 0, 45, 64
1, 1296, Note_on_c, 0, 55, 88
1, 1320, Note_off_c, 0, 55, 88
1, 1320, Note_on_c, 0, 67, 64
1, 1344, Note_on_c, 0, 36, 100
1, 1344, Note_off_c, 0, 67, 64
1, 1368, Note_off_c, 0, 36, 100
1, 1368, Note_on_c, 0, 45, 64
1, 1392, Note_off_c, 0, 45, 64
1, 1392, Note_on_c, 0, 55, 88
1, 1416, Note_off_c, 0, 55, 88
1, 1416, Note_on_c, 0, 64, 64
1, 1440, Note_on_c, 0, 36, 100
1, 1440, Note_off_c, 0, 64, 64
1, 1464, Note_off_c, 0, 36, 100
1, 1464, Note_on_c, 0, 45, 64
1, 1488, Note_off_c, 0, 45, 64
1, 1488, Note_on_c, 0, 55, 88
1, 1512, Note_off_c, 0, 55, 88
1, 1512, Note_on_c, 0, 67, 64
1, 1536, Note_on_c, 0, 40, 100
1, 1536, Note_off_c, 0, 67, 64
1, 1560, Note_off_c, 0, 40, 100
1, 1560, Note_on_c, 0, 47, 64
1, 1584, Note_off_c, 0, 47, 64
1, 1584, Note_on_c, 0, 59, 88
1, 1608, Note_off_c, 0, 59, 88
1, 1608, Note_on_c, 0, 71, 64
1, 1632, Note_on_c, 0, 40, 100
1, 1632, Note_off_c, 0, 71, 64
1, 1656, Note_off_c, 0, 40, 100
1, 1656, Note_on_c, 0, 47, 64
1, 1680, Note_off_c, 0, 47, 64
1, 1680, Note_on_c, 0, 59, 88
1, 1704, Note_off_c, 0, 59, 88
1, 1704, Note_on_c, 0, 69, 64
1, 1728, Note_on_c, 0, 40, 100
1, 1728, Note_off_c, 0, 69, 64
1, 1752, Note_off_c, 0, 40, 100
1, 1752, Note_on_c, 0, 47, 64
1, 1776, Note_off_c, 0, 47, 64
1, 1776, Note_on_c, 0, 59, 88
1, 1800, Note_off_c, 0, 59, 88
1, 1800, Note_on_c, 0, 71, 64
1, 1824, Note_on_c, 0, 40, 100
1, 1824, Note_off_c, 0, 71, 64
1, 1848, Note_off_c, 0, 40, 100
1, 1848, Note_on_c, 0, 47, 64
1, 1872, Note_off_c, 0, 47, 64
1, 1872, Note_on_c, 0, 59, 88
1, 1896, Note_off_c, 0, 59, 88
1, 1896, Note_on_c, 0, 69, 64
1, 1920, Note_on_c, 0, 40, 100
1, 1920, Note_off_c, 0, 69, 64
1, 1944, Note_off_c, 0, 40, 100
1, 1944, Note_on_c, 0, 47, 64
1, 1968, Note_off_c, 0, 47, 64
1, 1968, Note_on_c, 0, 59, 88
1, 1992, Note_off_c, 0, 59, 88
1, 1992, Note_on_c, 0, 71, 64
1, 2016, Note_on_c, 0, 40, 100
1, 2016, Note_off_c, 0, 71, 64
1, 2040, Note_off_c, 0, 40, 100
1, 2040, Note_on_c, 0, 47, 64
1, 2064, Note_off_c, 0, 47, 64
1, 2064, Note_on_c, 0, 59, 88
1, 2088, Note_off_c, 0, 59, 88
1, 2088, Note_on_c, 0, 69, 64
1, 2112, Note_on_c, 0, 40, 100
1, 2112, Note_off_c, 0, 69, 64
1, 2136, Note_off_c, 0, 40, 100
1, 2136, Note_on_c, 0, 47, 64
1, 2160, Note_off_c, 0, 47, 64
1, 2160, Note_on_c, 0, 59, 88
1, 2184, Note_off_c, 0, 59, 88
1, 2184, Note_on_c, 0, 71, 64
1, 2208, Note_on_c, 0, 40, 100
1, 2208, Note_off_c, 0, 71, 64
1, 2232, Note_off_c, 0, 40, 100
1, 2232, Note_on_c, 0, 47, 64
1, 2256, Note_off_c, 0, 47, 64
1, 2256, Note_on_c, 0, 59, 88
1, 2280, Note_off_c, 0, 59, 88
1, 2280, Note_on_c, 0, 69, 64
1, 2304, Note_on_c, 0, 40, 100
1, 2304, Note_off_c, 0, 69, 64
1, 2328, Note_off_c, 0, 40, 100
1, 2328, Note_on_c, 0, 47, 64
1, 2352, Note_off_c, 0, 47, 64
1, 2352, Note_on_c, 0, 59, 88
1, 2376, Note_off_c, 0, 59, 88
1, 2376, Note_on_c, 0, 74, 64
1, 2400, Note_on_c, 0, 40, 100
1, 2400, Note_off_c, 0, 74, 64
1, 2424, Note_off_c, 0, 40, 100
1, 2424, Note_on_c, 0, 47, 64
1, 2448, Note_off_c, 0, 47, 64
1, 2448, Note_on_c, 0, 59, 88
1, 2472, Note_off_c, 0, 59, 88
1, 2472, Note_on_c, 0, 71, 64
1, 2496, Note_on_c, 0, 40, 100
1, 2496, Note_off_c, 0, 71, 64
1, 2520, Note_off_c, 0, 40, 100
1, 2520, Note_on_c, 0, 47, 64
1, 2544, Note_off_c, 0, 47, 64
1, 2544, Note_on_c, 0, 59, 88
1, 2568, Note_off_c, 0, 59, 88
1, 2568, Note_on_c, 0, 74, 64
1, 2592, Note_on_c, 0, 40, 100
1, 2592, Note_off_c, 0, 74, 64
1, 2616, Note_off_c, 0, 40, 100
1, 2616, Note_on_c, 0, 47, 64
1, 2640, Note_off_c, 0, 47, 64
1, 2640, Note_on_c, 0, 59, 88
1, 2664, Note_off_c, 0, 59, 88
1, 2664, Note_on_c, 0, 71, 64
1, 2688, Note_on_c, 0, 40, 100
1, 2688, Note_off_c, 0, 71, 64
1, 2712, Note_off_c, 0, 40, 100
1, 2712, Note_on_c, 0, 47, 64
1, 2736, Note_off_c, 0, 47, 64
1, 2736, Note_on_c, 0, 59, 88
1, 2760, Note_off_c, 0, 59, 88
1, 2760, Note_on_c, 0, 74, 64
1, 2784, Note_on_c, 0, 40, 100
1, 2784, Note_off_c, 0, 74, 64
1, 2808, Note_off_c, 0, 40, 100
1, 2808, Note_on_c, 0, 47, 64
1, 2832, Note_off_c, 0, 47, 64
1, 2832, Note_on_c, 0, 59, 88
1, 2856, Note_off_c, 0, 59, 88
1, 2856, Note_on_c, 0, 74, 64
1, 2880, Note_on_c, 0, 40, 100
1, 2880, Note_off_c, 0, 74, 64
1, 2904, Note_off_c, 0, 40, 100
1, 2904, Note_on_c, 0, 47, 64
1, 2928, Note_off_c, 0, 47, 64
1, 2928, Note_on_c, 0, 59, 88
1, 2952, Note_off_c, 0, 59, 88
1, 2952, Note_on_c, 0, 74, 64
1, 2976, Note_on_c, 0, 40, 100
1, 2976, Note_off_c, 0, 74, 64
1, 3000, Note_off_c, 0, 40, 100
1, 3000, Note_on_c, 0, 47, 64
1, 3024, Note_off_c, 0, 47, 64
1, 3024, Note_on_c, 0, 59, 88
1, 3048, Note_off_c, 0, 59, 88
1, 3048, Note_on_c, 0, 74, 64
1, 3066, Note_off_c, 0, 74, 64
1, 0, Note_on_c, 0, 57, 30
1, 0, Note_on_c, 0, 88, 59
1, 95, Note_on_c, 0, 64, 56
1, 187, Note_on_c, 0, 69, 57
1, 283, Note_on_c, 0, 71, 50
1, 297, Note_off_c, 0, 69, 43
1, 374, Note_on_c, 0, 86, 47
1, 374, Note_off_c, 0, 88, 95
1, 376, Note_off_c, 0, 71, 46
1, 378, Note_on_c, 0, 72, 53
1, 474, Note_on_c, 0, 71, 58
1, 481, Note_off_c, 0, 72, 58
1, 575, Note_on_c, 0, 76, 60
1, 587, Note_off_c, 0, 71, 62
1, 668, Note_off_c, 0, 76, 55
1, 669, Note_on_c, 0, 71, 59
1, 685, Note_off_c, 0, 57, 59
1, 688, Note_off_c, 0, 64, 18
1, 761, Note_on_c, 0, 88, 57
1, 763, Note_on_c, 0, 57, 52
1, 768, Note_off_c, 0, 86, 45
1, 772, Note_off_c, 0, 71, 71
1, 861, Note_on_c, 0, 64, 56
1, 954, Note_on_c, 0, 84, 44
1, 957, Note_on_c, 0, 69, 60
1, 1052, Note_on_c, 0, 71, 58
1, 1060, Note_off_c, 0, 69, 45
1, 1140, Note_on_c, 0, 89, 49
1, 1142, Note_off_c, 0, 88, 77
1, 1145, Note_off_c, 0, 71, 8
1, 1146, Note_on_c, 0, 83, 44
1, 1147, Note_on_c, 0, 72, 53
1, 1147, Note_off_c, 0, 84, 64
1, 1238, Note_off_c, 0, 89, 55
1, 1239, Note_on_c, 0, 88, 58
1, 1241, Note_on_c, 0, 71, 57
1, 1243, Note_off_c, 0, 72, 54
1, 1331, Note_off_c, 0, 88, 71
1, 1332, Note_on_c, 0, 86, 47
1, 1338, Note_on_c, 0, 76, 40
1, 1349, Note_off_c, 0, 71, 102
1, 1410, Note_off_c, 0, 83, 64
1, 1425, Note_on_c, 0, 93, 54
1, 1429, Note_off_c, 0, 86, 45
1, 1433, Note_on_c, 0, 71, 43
1, 1468, Note_off_c, 0, 71, 107
1, 1469, Note_off_c, 0, 64, 22
1, 1474, Note_off_c, 0, 57, 26
1, 1492, Note_off_c, 0, 93, 25
1, 1524, Note_off_c, 0, 76, 64
1, 0, Note_on_c, 0, 69, 100
1, 0, Note_on_c, 0, 76, 100
1, 48, Note_on_c, 0, 83, 100
1, 96, Note_off_c, 0, 83, 64
1, 96, Note_on_c, 0, 84, 100
1, 144, Note_off_c, 0, 84, 64
1, 192, Note_off_c, 0, 69, 64
1, 192, Note_off_c, 0, 76, 64
1, 288, Note_on_c, 0, 89, 100
1, 384, Note_on_c, 0, 69, 100
1, 384, Note_on_c, 0, 76, 100
1, 384, Note_on_c, 0, 88, 100
1, 384, Note_off_c, 0, 89, 64
1, 432, Note_on_c, 0, 83, 100
1, 480, Note_off_c, 0, 83, 64
1, 480, Note_on_c, 0, 84, 100
1, 480, Note_off_c, 0, 88, 64
1, 528, Note_off_c, 0, 84, 64
1, 576, Note_off_c, 0, 69, 64
1, 576, Note_off_c, 0, 76, 64
1, 768, Note_on_c, 0, 69, 100
1, 768, Note_on_c, 0, 76, 100
1, 816, Note_on_c, 0, 83, 100
1, 864, Note_off_c, 0, 83, 64
1, 864, Note_on_c, 0, 84, 100
1, 912, Note_off_c, 0, 84, 64
1, 960, Note_off_c, 0, 69, 64
1, 960, Note_off_c, 0, 76, 64
1, 1056, Note_on_c, 0, 89, 100
1, 1152, Note_on_c, 0, 64, 100
1, 1152, Note_on_c, 0, 71, 100
1, 1152, Note_on_c, 0, 88, 100
1, 1152, Note_off_c, 0, 89, 64
1, 1200, Note_on_c, 0, 83, 100
1, 1248, Note_off_c, 0, 83, 64
1, 1248, Note_on_c, 0, 84, 100
1, 1248, Note_off_c, 0, 88, 64
1, 1296, Note_off_c, 0, 84, 64
1, 1344, Note_off_c, 0, 64, 64
1, 1344, Note_on_c, 0, 68, 100
1, 1344, Note_off_c, 0, 71, 64
1, 1536, Note_off_c, 0, 68, 64
1, 0, Note_on_c, 0, 45, 75
1, 0, Note_on_c, 0, 57, 75
1, 0, Note_on_c, 0, 64, 75
1, 96, Note_on_c, 0, 69, 75
1, 192, Note_off_c, 0, 69, 64
1, 192, Note_on_c, 0, 71, 75
1, 192, Note_on_c, 0, 72, 75
1, 288, Note_on_c, 0, 69, 75
1, 288, Note_off_c, 0, 71, 64
1, 288, Note_off_c, 0, 72, 64
1, 384, Note_off_c, 0, 45, 64
1, 384, Note_on_c, 0, 53, 75
1, 384, Note_off_c, 0, 57, 64
1, 384, Note_off_c, 0, 64, 64
1, 384, Note_on_c, 0, 65, 75
1, 384, Note_off_c, 0, 69, 64
1, 384, Note_on_c, 0, 77, 75
1, 479, Note_off_c, 0, 65, 64
1, 480, Note_on_c, 0, 65, 75
1, 480, Note_off_c, 0, 77, 64
1, 576, Note_on_c, 0, 52, 75
1, 576, Note_off_c, 0, 53, 64
1, 576, Note_on_c, 0, 64, 75
1, 576, Note_off_c, 0, 65, 64
1, 576, Note_on_c, 0, 76, 75
1, 672, Note_on_c, 0, 72, 75
1, 672, Note_off_c, 0, 76, 64
1, 767, Note_off_c, 0, 64, 64
1, 768, Note_on_c, 0, 45, 75
1, 768, Note_off_c, 0, 52, 64
1, 768, Note_on_c, 0, 57, 75
1, 768, Note_on_c, 0, 64, 75
1, 768, Note_off_c, 0, 72, 64
1, 864, Note_on_c, 0, 69, 75
1, 960, Note_off_c, 0, 69, 64
1, 960, Note_on_c, 0, 71, 75
1, 960, Note_on_c, 0, 72, 75
1, 1056, Note_on_c, 0, 69, 75
1, 1056, Note_off_c, 0, 71, 64
1, 1056, Note_off_c, 0, 72, 64
1, 1152, Note_off_c, 0, 45, 64
1, 1152, Note_on_c, 0, 53, 75
1, 1152, Note_off_c, 0, 57, 64
1, 1152, Note_off_c, 0, 64, 64
1, 1152, Note_on_c, 0, 65, 75
1, 1152, Note_off_c, 0, 69, 64
1, 1152, Note_on_c, 0, 77, 75
1, 1247, Note_off_c, 0, 65, 64
1, 1248, Note_on_c, 0, 65, 75
1, 1248, Note_off_c, 0, 77, 64
1, 1344, Note_on_c, 0, 52, 75
1, 1344, Note_off_c, 0, 53, 64
1, 1344, Note_on_c, 0, 64, 75
1, 1344, Note_off_c, 0, 65, 64
1, 1344, Note_on_c, 0, 76, 75
1, 1440, Note_on_c, 0, 72, 75
1, 1440, Note_off_c, 0, 76, 64
1, 1536, Note_off_c, 0, 52, 64
1, 1536, Note_off_c, 0, 64, 64
1, 1536, Note_off_c, 0, 72, 64
1, 0, Note_on_c, 0, 45, 34
1, 0, Note_on_c, 0, 52, 34
1, 0, Note_on_c, 0, 60, 34
1, 0, Note_on_c, 0, 69, 31
1, 0, Note_on_c, 0, 84, 45
1, 48, Note_on_c, 0, 48, 32
1, 48, Note_off_c, 0, 60, 64
1, 48, Note_off_c, 0, 69, 64
1, 71, Note_off_c, 0, 52, 64
1, 72, Note_on_c, 0, 52, 23
1, 96, Note_off_c, 0, 45, 64
1, 96, Note_on_c, 0, 60, 21
1, 96, Note_on_c, 0, 69, 17
1, 120, Note_on_c, 0, 28, 34
1, 120, Note_on_c, 0, 45, 34
1, 120, Note_off_c, 0, 48, 64
1, 144, Note_on_c, 0, 59, 32
1, 144, Note_off_c, 0, 60, 64
1, 144, Note_off_c, 0, 69, 64
1, 191, Note_off_c, 0, 52, 64
1, 192, Note_on_c, 0, 52, 34
1, 192, Note_off_c, 0, 59, 64
1, 192, Note_on_c, 0, 60, 34
1, 192, Note_on_c, 0, 69, 17
1, 192, Note_on_c, 0, 83, 45
1, 192, Note_off_c, 0, 84, 64
1, 240, Note_on_c, 0, 48, 32
1, 240, Note_off_c, 0, 60, 64
1, 240, Note_off_c, 0, 69, 64
1, 263, Note_off_c, 0, 52, 64
1, 264, Note_off_c, 0, 28, 64
1, 264, Note_off_c, 0, 45, 64
1, 264, Note_on_c, 0, 52, 23
1, 288, Note_on_c, 0, 60, 32
1, 288, Note_on_c, 0, 69, 17
1, 312, Note_on_c, 0, 45, 34
1, 312, Note_off_c, 0, 48, 64
1, 336, Note_on_c, 0, 59, 32
1, 336, Note_off_c, 0, 60, 64
1, 336, Note_off_c, 0, 69, 64
1, 360, Note_off_c, 0, 52, 64
1, 360, Note_on_c, 0, 53, 25
1, 383, Note_off_c, 0, 45, 64
1, 384, Note_on_c, 0, 29, 34
1, 384, Note_on_c, 0, 45, 34
1, 384, Note_on_c, 0, 52, 34
1, 384, Note_off_c, 0, 53, 64
1, 384, Note_off_c, 0, 59, 64
1, 384, Note_on_c, 0, 60, 34
1, 384, Note_on_c, 0, 69, 31
1, 384, Note_on_c, 0, 76, 45
1, 384, Note_off_c, 0, 83, 64
1, 432, Note_on_c, 0, 48, 32
1, 432, Note_off_c, 0, 60, 64
1, 432, Note_off_c, 0, 69, 64
1, 455, Note_off_c, 0, 52, 64
1, 456, Note_on_c, 0, 52, 23
1, 480, Note_off_c, 0, 29, 64
1, 480, Note_off_c, 0, 45, 64
1, 480, Note_on_c, 0, 60, 21
1, 480, Note_on_c, 0, 69, 17
1, 504, Note_on_c, 0, 29, 34
1, 504, Note_on_c, 0, 45, 34
1, 504, Note_off_c, 0, 48, 64
1, 528, Note_on_c, 0, 59, 32
1, 528, Note_off_c, 0, 60, 64
1, 528, Note_off_c, 0, 69, 64
1, 575, Note_off_c, 0, 52, 64
1, 576, Note_on_c, 0, 52, 34
1, 576, Note_off_c, 0, 59, 64
1, 576, Note_on_c, 0, 60, 34
1, 576, Note_on_c, 0, 69, 17
1, 576, Note_off_c, 0, 76, 64
1, 576, Note_on_c, 0, 81, 45
1, 624, Note_on_c, 0, 48, 32
1, 624, Note_off_c, 0, 60, 64
1, 624, Note_off_c, 0, 69, 64
1, 647, Note_off_c, 0, 52, 64
1, 648, Note_off_c, 0, 29, 64
1, 648, Note_off_c, 0, 45, 64
1, 648, Note_on_c, 0, 52, 23
1, 672, Note_on_c, 0, 60, 32
1, 672, Note_on_c, 0, 69, 17
1, 696, Note_on_c, 0, 45, 34
1, 696, Note_off_c, 0, 48, 64
1, 720, Note_on_c, 0, 59, 32
1, 720, Note_off_c, 0, 60, 64
1, 720, Note_off_c, 0, 69, 64
1, 744, Note_off_c, 0, 52, 64
1, 744, Note_on_c, 0, 53, 25
1, 767, Note_off_c, 0, 45, 64
1, 768, Note_on_c, 0, 33, 34
1, 768, Note_on_c, 0, 45, 34
1, 768, Note_on_c, 0, 52, 34
1, 768, Note_off_c, 0, 53, 64
1, 768, Note_off_c, 0, 59, 64
1, 768, Note_on_c, 0, 60, 34
1, 768, Note_on_c, 0, 69, 31
1, 768, Note_off_c, 0, 81, 64
1, 768, Note_on_c, 0, 84, 45
1, 816, Note_on_c, 0, 48, 32
1, 816, Note_off_c, 0, 60, 64
1, 816, Note_off_c, 0, 69, 64
1, 839, Note_off_c, 0, 52, 64
1, 840, Note_on_c, 0, 52, 23
1, 864, Note_off_c, 0, 33, 64
1, 864, Note_off_c, 0, 45, 64
1, 864, Note_on_c, 0, 60, 21
1, 864, Note_on_c, 0, 69, 17
1, 888, Note_on_c, 0, 28, 34
1, 888, Note_on_c, 0, 45, 34
1, 888, Note_off_c, 0, 48, 64
1, 912, Note_on_c, 0, 59, 32
1, 912, Note_off_c, 0, 60, 64
1, 912, Note_off_c, 0, 69, 64
1, 959, Note_off_c, 0, 52, 64
1, 960, Note_on_c, 0, 52, 34
1, 960, Note_off_c, 0, 59, 64
1, 960, Note_on_c, 0, 60, 34
1, 960, Note_on_c, 0, 69, 17
1, 960, Note_on_c, 0, 83, 45
1, 960, Note_off_c, 0, 84, 64
1, 1008, Note_on_c, 0, 48, 32
1, 1008, Note_off_c, 0, 60, 64
1, 1008, Note_off_c, 0, 69, 64
1, 1031, Note_off_c, 0, 52, 64
1, 1032, Note_off_c, 0, 28, 64
1, 1032, Note_off_c, 0, 45, 64
1, 1032, Note_on_c, 0, 52, 23
1, 1056, Note_on_c, 0, 60, 32
1, 1056, Note_on_c, 0, 69, 17
1, 1080, Note_on_c, 0, 45, 34
1, 1080, Note_off_c, 0, 48, 64
1, 1104, Note_on_c, 0, 59, 32
1, 1104, Note_off_c, 0, 60, 64
1, 1104, Note_off_c, 0, 69, 64
1, 1128, Note_off_c, 0, 52, 64
1, 1128, Note_on_c, 0, 53, 25
1, 1151, Note_off_c, 0, 45, 64
1, 1152, Note_on_c, 0, 29, 34
1, 1152, Note_on_c, 0, 45, 34
1, 1152, Note_on_c, 0, 52, 34
1, 1152, Note_off_c, 0, 53, 64
1, 1152, Note_off_c, 0, 59, 64
1, 1152, Note_on_c, 0, 60, 34
1, 1152, Note_on_c, 0, 69, 31
1, 1152, Note_on_c, 0, 76, 45
1, 1152, Note_off_c, 0, 83, 64
1, 1200, Note_on_c, 0, 48, 32
1, 1200, Note_off_c, 0, 60, 64
1, 1200, Note_off_c, 0, 69, 64
1, 1223, Note_off_c, 0, 52, 64
1, 1224, Note_on_c, 0, 52, 23
1, 1248, Note_off_c, 0, 29, 64
1, 1248, Note_off_c, 0, 45, 64
1, 1248, Note_on_c, 0, 60, 21
1, 1248, Note_on_c, 0, 69, 17
1, 1272, Note_on_c, 0, 29, 34
1, 1272, Note_on_c, 0, 45, 34
1, 1272, Note_off_c, 0, 48, 64
1, 1296, Note_on_c, 0, 59, 32
1, 1296, Note_off_c, 0, 60, 64
1, 1296, Note_off_c, 0, 69, 64
1, 1343, Note_off_c, 0, 52, 64
1, 1344, Note_on_c, 0, 52, 34
1, 1344, Note_off_c, 0, 59, 64
1, 1344, Note_on_c, 0, 60, 34
1, 1344, Note_on_c, 0, 69, 17
1, 1344, Note_off_c, 0, 76, 64
1, 1344, Note_on_c, 0, 81, 45
1, 1392, Note_on_c, 0, 48, 32
1, 1392, Note_off_c, 0, 60, 64
1, 1392, Note_off_c, 0, 69, 64
1, 1415, Note_off_c, 0, 52, 64
1, 1416, Note_off_c, 0, 29, 64
1, 1416, Note_off_c, 0, 45, 64
1, 1416, Note_on_c, 0, 52, 23
1, 1440, Note_on_c, 0, 60, 32
1, 1440, Note_on_c, 0, 69, 17
1, 1464, Note_on_c, 0, 35, 34
1, 1464, Note_on_c, 0, 45, 34
1, 1464, Note_off_c, 0, 48, 64
1, 1488, Note_on_c, 0, 59, 32
1, 1488, Note_off_c, 0, 60, 64
1, 1488, Note_off_c, 0, 69, 64
1, 1512, Note_off_c, 0, 52, 64
1, 1512, Note_on_c, 0, 53, 25
1, 1535, Note_off_c, 0, 45, 64
1, 1536, Note_off_c, 0, 35, 64
1, 1536, Note_on_c, 0, 45, 34
1, 1536, Note_on_c, 0, 52, 34
1, 1536, Note_off_c, 0, 53, 64
1, 1536, Note_off_c, 0, 59, 64
1, 1536, Note_on_c, 0, 60, 34
1, 1536, Note_on_c, 0, 69, 31
1, 1536, Note_off_c, 0, 81, 64
1, 1584, Note_on_c, 0, 48, 32
1, 1584, Note_off_c, 0, 60, 64
1, 1584, Note_off_c, 0, 69, 64
1, 1607, Note_off_c, 0, 52, 64
1, 1608, Note_on_c, 0, 52, 23
1, 1632, Note_off_c, 0, 45, 64
1, 1632, Note_on_c, 0, 60, 21
1, 1632, Note_on_c, 0, 69, 17
1, 1656, Note_on_c, 0, 28, 34
1, 1656, Note_on_c, 0, 45, 34
1, 1656, Note_off_c, 0, 48, 64
1, 1680, Note_on_c, 0, 59, 32
1, 1680, Note_off_c, 0, 60, 64
1, 1680, Note_off_c, 0, 69, 64
1, 1727, Note_off_c, 0, 52, 64
1, 1728, Note_on_c, 0, 52, 34
1, 1728, Note_off_c, 0, 59, 64
1, 1728, Note_on_c, 0, 60, 34
1, 1728, Note_on_c, 0, 69, 17
1, 1776, Note_on_c, 0, 48, 32
1, 1776, Note_off_c, 0, 60, 64
1, 1776, Note_off_c, 0, 69, 64
1, 1799, Note_off_c, 0, 52, 64
1, 1800, Note_off_c, 0, 28, 64
1, 1800, Note_off_c, 0, 45, 64
1, 1800, Note_on_c, 0, 52, 23
1, 1824, Note_on_c, 0, 60, 32
1, 1824, Note_on_c, 0, 69, 17
1, 1848, Note_on_c, 0, 45, 34
1, 1848, Note_off_c, 0, 48, 64
1, 1872, Note_on_c, 0, 59, 32
1, 1872, Note_off_c, 0, 60, 64
1, 1872, Note_off_c, 0, 69, 64
1, 1896, Note_off_c, 0, 52, 64
1, 1896, Note_on_c, 0, 53, 25
1, 1919, Note_off_c, 0, 45, 64
1, 1920, Note_on_c, 0, 29, 34
1, 1920, Note_on_c, 0, 45, 34
1, 1920, Note_on_c, 0, 52, 34
1, 1920, Note_off_c, 0, 53, 64
1, 1920, Note_off_c, 0, 59, 64
1, 1920, Note_on_c, 0, 60, 34
1, 1920, Note_on_c, 0, 69, 31
1, 1968, Note_on_c, 0, 48, 32
1, 1968, Note_off_c, 0, 60, 64
1, 1968, Note_off_c, 0, 69, 64
1, 1991, Note_off_c, 0, 52, 64
1, 1992, Note_on_c, 0, 52, 23
1, 2016, Note_off_c, 0, 29, 64
1, 2016, Note_off_c, 0, 45, 64
1, 2016, Note_on_c, 0, 60, 21
1, 2016, Note_on_c, 0, 69, 17
1, 2040, Note_on_c, 0, 29, 34
1, 2040, Note_on_c, 0, 45, 34
1, 2040, Note_off_c, 0, 48, 64
1, 2064, Note_on_c, 0, 59, 32
1, 2064, Note_off_c, 0, 60, 64
1, 2064, Note_off_c, 0, 69, 64
1, 2111, Note_off_c, 0, 52, 64
1, 2112, Note_on_c, 0, 52, 34
1, 2112, Note_off_c, 0, 59, 64
1, 2112, Note_on_c, 0, 60, 34
1, 2112, Note_on_c, 0, 69, 17
1, 2160, Note_on_c, 0, 48, 32
1, 2160, Note_off_c, 0, 60, 64
1, 2160, Note_off_c, 0, 69, 64
1, 2183, Note_off_c, 0, 52, 64
1, 2184, Note_off_c, 0, 29, 64
1, 2184, Note_off_c, 0, 45, 64
1, 2184, Note_on_c, 0, 52, 23
1, 2208, Note_on_c, 0, 60, 32
1, 2208, Note_on_c, 0, 69, 17
1, 2232, Note_on_c, 0, 45, 34
1, 2232, Note_off_c, 0, 48, 64
1, 2256, Note_on_c, 0, 59, 32
1, 2256, Note_off_c, 0, 60, 64
1, 2256, Note_off_c, 0, 69, 64
1, 2280, Note_off_c, 0, 52, 64
1, 2280, Note_on_c, 0, 53, 25
1, 2303, Note_off_c, 0, 45, 64
1, 2304, Note_on_c, 0, 33, 34
1, 2304, Note_on_c, 0, 45, 34
1, 2304, Note_on_c, 0, 52, 34
1, 2304, Note_off_c, 0, 53, 64
1, 2304, Note_off_c, 0, 59, 64
1, 2304, Note_on_c, 0, 60, 34
1, 2304, Note_on_c, 0, 69, 31
1, 2352, Note_on_c, 0, 48, 32
1, 2352, Note_off_c, 0, 60, 64
1, 2352, Note_off_c, 0, 69, 64
1, 2375, Note_off_c, 0, 52, 64
1, 2376, Note_on_c, 0, 52, 23
1, 2400, Note_off_c, 0, 33, 64
1, 2400, Note_off_c, 0, 45, 64
1, 2400, Note_on_c, 0, 60, 21
1, 2400, Note_on_c, 0, 69, 17
1, 2424, Note_on_c, 0, 28, 34
1, 2424, Note_on_c, 0, 45, 34
1, 2424, Note_off_c, 0, 48, 64
1, 2448, Note_on_c, 0, 59, 32
1, 2448, Note_off_c, 0, 60, 64
1, 2448, Note_off_c, 0, 69, 64
1, 2495, Note_off_c, 0, 52, 64
1, 2496, Note_on_c, 0, 52, 34
1, 2496, Note_off_c, 0, 59, 64
1, 2496, Note_on_c, 0, 60, 34
1, 2496, Note_on_c, 0, 69, 17
1, 2544, Note_on_c, 0, 48, 32
1, 2544, Note_off_c, 0, 60, 64
1, 2544, Note_off_c, 0, 69, 64
1, 2567, Note_off_c, 0, 52, 64
1, 2568, Note_off_c, 0, 28, 64
1, 2568, Note_off_c, 0, 45, 64
1, 2568, Note_on_c, 0, 52, 23
1, 2592, Note_on_c, 0, 60, 32
1, 2592, Note_on_c, 0, 69, 17
1, 2616, Note_on_c, 0, 45, 34
1, 2616, Note_off_c, 0, 48, 64
1, 2640, Note_on_c, 0, 59, 32
1, 2640, Note_off_c, 0, 60, 64
1, 2640, Note_off_c, 0, 69, 64
1, 2664, Note_off_c, 0, 52, 64
1, 2664, Note_on_c, 0, 53, 25
1, 2687, Note_off_c, 0, 45, 64
1, 2688, Note_on_c, 0, 29, 34
1, 2688, Note_on_c, 0, 45, 34
1, 2688, Note_on_c, 0, 52, 34
1, 2688, Note_off_c, 0, 53, 64
1, 2688, Note_off_c, 0, 59, 64
1, 2688, Note_on_c, 0, 60, 34
1, 2688, Note_on_c, 0, 69, 31
1, 2736, Note_on_c, 0, 48, 32
1, 2736, Note_off_c, 0, 60, 64
1, 2736, Note_off_c, 0, 69, 64
1, 2759, Note_off_c, 0, 52, 64
1, 2760, Note_on_c, 0, 52, 23
1, 2784, Note_off_c, 0, 29, 64
1, 2784, Note_off_c, 0, 45, 64
1, 2784, Note_on_c, 0, 60, 21
1, 2784, Note_on_c, 0, 69, 17
1, 2808, Note_on_c, 0, 29, 34
1, 2808, Note_on_c, 0, 45, 34
1, 2808, Note_off_c, 0, 48, 64
1, 2832, Note_on_c, 0, 59, 32
1, 2832, Note_off_c, 0, 60, 64
1, 2832, Note_off_c, 0, 69, 64
1, 2879, Note_off_c, 0, 52, 64
1, 2880, Note_on_c, 0, 52, 34
1, 2880, Note_off_c, 0, 59, 64
1, 2880, Note_on_c, 0, 60, 34
1, 2880, Note_on_c, 0, 69, 17
1, 2928, Note_on_c, 0, 48, 32
1, 2928, Note_off_c, 0, 60, 64
1, 2928, Note_off_c, 0, 69, 64
1, 2951, Note_off_c, 0, 52, 64
1, 2952, Note_off_c, 0, 29, 64
1, 2952, Note_off_c, 0, 45, 64
1, 2952, Note_on_c, 0, 52, 23
1, 2976, Note_on_c, 0, 60, 32
1, 2976, Note_on_c, 0, 69, 17
1, 3000, Note_on_c, 0, 35, 34
1, 3000, Note_on_c, 0, 45, 34
1, 3000, Note_off_c, 0, 48, 64
1, 3024, Note_on_c, 0, 59, 32
1, 3024, Note_off_c, 0, 60, 64
1, 3024, Note_off_c, 0, 69, 64
1, 3048, Note_off_c, 0, 52, 64
1, 3048, Note_on_c, 0, 53, 25
1, 3072, Note_off_c, 0, 35, 64
1, 3072, Note_off_c, 0, 45, 64
1, 3072, Note_off_c, 0, 53, 64
1, 3072, Note_off_c, 0, 59, 64
1, 0, Note_on_c, 0, 33, 97
1, 0, Note_on_c, 0, 45, 67
1, 0, Note_on_c, 0, 57, 74
1, 0, Note_on_c, 0, 76, 68
1, 23, Note_off_c, 0, 57, 66
1, 33, Note_off_c, 0, 76, 56
1, 34, Note_off_c, 0, 45, 42
1, 96, Note_on_c, 0, 47, 72
1, 96, Note_on_c, 0, 74, 55
1, 127, Note_off_c, 0, 47, 56
1, 127, Note_off_c, 0, 74, 52
1, 192, Note_on_c, 0, 48, 60
1, 192, Note_on_c, 0, 64, 69
1, 192, Note_on_c, 0, 72, 49
1, 218, Note_off_c, 0, 64, 60
1, 225, Note_off_c, 0, 48, 30
1, 227, Note_off_c, 0, 72, 22
1, 287, Note_off_c, 0, 33, 35
1, 288, Note_on_c, 0, 45, 38
1, 288, Note_on_c, 0, 47, 61
1, 288, Note_on_c, 0, 71, 64
1, 313, Note_off_c, 0, 47, 53
1, 319, Note_off_c, 0, 71, 55
1, 383, Note_off_c, 0, 45, 55
1, 384, Note_on_c, 0, 28, 62
1, 384, Note_on_c, 0, 45, 70
1, 384, Note_on_c, 0, 65, 39
1, 403, Note_off_c, 0, 65, 33
1, 423, Note_off_c, 0, 45, 39
1, 480, Note_on_c, 0, 47, 75
1, 480, Note_on_c, 0, 71, 70
1, 516, Note_off_c, 0, 47, 55
1, 522, Note_off_c, 0, 71, 39
1, 528, Note_on_c, 0, 72, 59
1, 567, Note_off_c, 0, 72, 23
1, 576, Note_on_c, 0, 48, 32
1, 576, Note_on_c, 0, 60, 46
1, 576, Note_on_c, 0, 74, 77
1, 594, Note_off_c, 0, 60, 36
1, 609, Note_off_c, 0, 48, 20
1, 622, Note_off_c, 0, 74, 62
1, 671, Note_off_c, 0, 28, 53
1, 672, Note_on_c, 0, 40, 82
1, 672, Note_on_c, 0, 50, 61
1, 672, Note_on_c, 0, 76, 78
1, 698, Note_off_c, 0, 50, 42
1, 704, Note_off_c, 0, 76, 51
1, 767, Note_off_c, 0, 40, 76
1, 768, Note_on_c, 0, 26, 89
1, 768, Note_on_c, 0, 45, 67
1, 768, Note_on_c, 0, 57, 54
1, 768, Note_on_c, 0, 69, 67
1, 802, Note_off_c, 0, 45, 42
1, 802, Note_off_c, 0, 57, 47
1, 818, Note_off_c, 0, 69, 40
1, 864, Note_on_c, 0, 47, 72
1, 895, Note_off_c, 0, 47, 56
1, 959, Note_off_c, 0, 26, 43
1, 960, Note_on_c, 0, 38, 59
1, 960, Note_on_c, 0, 48, 60
1, 960, Note_on_c, 0, 64, 55
1, 960, Note_on_c, 0, 72, 57
1, 993, Note_off_c, 0, 48, 30
1, 995, Note_off_c, 0, 64, 53
1, 998, Note_off_c, 0, 72, 33
1, 1056, Note_on_c, 0, 47, 61
1, 1081, Note_off_c, 0, 47, 53
1, 1151, Note_off_c, 0, 38, 77
1, 1152, Note_on_c, 0, 26, 91
1, 1152, Note_on_c, 0, 45, 70
1, 1152, Note_on_c, 0, 60, 41
1, 1180, Note_off_c, 0, 60, 36
1, 1191, Note_off_c, 0, 45, 39
1, 1248, Note_on_c, 0, 47, 75
1, 1248, Note_on_c, 0, 71, 56
1, 1278, Note_off_c, 0, 71, 44
1, 1284, Note_off_c, 0, 47, 55
1, 1296, Note_on_c, 0, 72, 67
1, 1328, Note_off_c, 0, 72, 28
1, 1343, Note_off_c, 0, 26, 54
1, 1344, Note_on_c, 0, 38, 100
1, 1344, Note_on_c, 0, 48, 32
1, 1344, Note_on_c, 0, 59, 56
1, 1344, Note_on_c, 0, 74, 83
1, 1370, Note_off_c, 0, 59, 42
1, 1377, Note_off_c, 0, 48, 20
1, 1382, Note_off_c, 0, 74, 48
1, 1440, Note_on_c, 0, 50, 61
1, 1440, Note_on_c, 0, 76, 68
1, 1466, Note_off_c, 0, 50, 42
1, 1468, Note_off_c, 0, 76, 59
1, 1535, Note_off_c, 0, 38, 82
1, 1536, Note_on_c, 0, 33, 97
1, 1536, Note_on_c, 0, 45, 67
1, 1536, Note_on_c, 0, 57, 74
1, 1536, Note_on_c, 0, 76, 68
1, 1559, Note_off_c, 0, 57, 66
1, 1569, Note_off_c, 0, 76, 56
1, 1570, Note_off_c, 0, 45, 42
1, 1632, Note_on_c, 0, 47, 72
1, 1632, Note_on_c, 0, 74, 55
1, 1663, Note_off_c, 0, 47, 56
1, 1663, Note_off_c, 0, 74, 52
1, 1728, Note_on_c, 0, 48, 60
1, 1728, Note_on_c, 0, 64, 69
1, 1728, Note_on_c, 0, 72, 49
1, 1754, Note_off_c, 0, 64, 60
1, 1761, Note_off_c, 0, 48, 30
1, 1763, Note_off_c, 0, 72, 22
1, 1823, Note_off_c, 0, 33, 35
1, 1824, Note_on_c, 0, 45, 38
1, 1824, Note_on_c, 0, 47, 61
1, 1824, Note_on_c, 0, 71, 64
1, 1849, Note_off_c, 0, 47, 53
1, 1855, Note_off_c, 0, 71, 55
1, 1919, Note_off_c, 0, 45, 55
1, 1920, Note_on_c, 0, 28, 62
1, 1920, Note_on_c, 0, 45, 70
1, 1920, Note_on_c, 0, 65, 39
1, 1939, Note_off_c, 0, 65, 33
1, 1959, Note_off_c, 0, 45, 39
1, 2016, Note_on_c, 0, 47, 75
1, 2016, Note_on_c, 0, 71, 70
1, 2052, Note_off_c, 0, 47, 55
1, 2058, Note_off_c, 0, 71, 39
1, 2064, Note_on_c, 0, 72, 59
1, 2103, Note_off_c, 0, 72, 23
1, 2112, Note_on_c, 0, 48, 32
1, 2112, Note_on_c, 0, 60, 46
1, 2112, Note_on_c, 0, 74, 77
1, 2130, Note_off_c, 0, 60, 36
1, 2145, Note_off_c, 0, 48, 20
1, 2158, Note_off_c, 0, 74, 62
1, 2207, Note_off_c, 0, 28, 53
1, 2208, Note_on_c, 0, 40, 82
1, 2208, Note_on_c, 0, 50, 61
1, 2208, Note_on_c, 0, 76, 78
1, 2234, Note_off_c, 0, 50, 42
1, 2240, Note_off_c, 0, 76, 51
1, 2256, Note_on_c, 0, 38, 82
1, 2256, Note_off_c, 0, 40, 76
1, 2303, Note_off_c, 0, 38, 76
1, 2304, Note_on_c, 0, 26, 89
1, 2304, Note_on_c, 0, 45, 67
1, 2304, Note_on_c, 0, 57, 54
1, 2304, Note_on_c, 0, 69, 67
1, 2338, Note_off_c, 0, 45, 42
1, 2338, Note_off_c, 0, 57, 47
1, 2354, Note_off_c, 0, 69, 40
1, 2400, Note_on_c, 0, 47, 72
1, 2431, Note_off_c, 0, 47, 56
1, 2495, Note_off_c, 0, 26, 43
1, 2496, Note_on_c, 0, 38, 59
1, 2496, Note_on_c, 0, 48, 60
1, 2496, Note_on_c, 0, 64, 55
1, 2496, Note_on_c, 0, 72, 57
1, 2529, Note_off_c, 0, 48, 30
1, 2531, Note_off_c, 0, 64, 53
1, 2534, Note_off_c, 0, 72, 33
1, 2592, Note_on_c, 0, 47, 61
1, 2617, Note_off_c, 0, 47, 53
1, 2687, Note_off_c, 0, 38, 77
1, 2688, Note_on_c, 0, 26, 91
1, 2688, Note_on_c, 0, 45, 70
1, 2688, Note_on_c, 0, 60, 41
1, 2716, Note_off_c, 0, 60, 36
1, 2727, Note_off_c, 0, 45, 39
1, 2784, Note_on_c, 0, 47, 75
1, 2784, Note_on_c, 0, 71, 56
1, 2814, Note_off_c, 0, 71, 44
1, 2820, Note_off_c, 0, 47, 55
1, 2832, Note_on_c, 0, 72, 67
1, 2864, Note_off_c, 0, 72, 28
1, 2879, Note_off_c, 0, 26, 54
1, 2880, Note_on_c, 0, 38, 100
1, 2880, Note_on_c, 0, 48, 32
1, 2880, Note_on_c, 0, 59, 56
1, 2880, Note_on_c, 0, 74, 83
1, 2906, Note_off_c, 0, 59, 42
1, 2913, Note_off_c, 0, 48, 20
1, 2918, Note_off_c, 0, 74, 48
1, 2976, Note_on_c, 0, 24, 100
1, 2976, Note_off_c, 0, 38, 82
1, 2976, Note_on_c, 0, 50, 61
1, 2976, Note_on_c, 0, 76, 68
1, 3002, Note_off_c, 0, 50, 42
1, 3004, Note_off_c, 0, 76, 59
1, 3071, Note_off_c, 0, 24, 82
1, 0, Note_on_c, 0, 45, 100
1, 0, Note_on_c, 0, 60, 100
1, 96, Note_off_c, 0, 45, 64
1, 96, Note_off_c, 0, 60, 64
1, 96, Note_on_c, 0, 65, 100
1, 192, Note_off_c, 0, 65, 64
1, 192, Note_on_c, 0, 69, 100
1, 288, Note_on_c, 0, 45, 100
1, 288, Note_on_c, 0, 64, 100
1, 288, Note_off_c, 0, 69, 64
1, 384, Note_off_c, 0, 45, 64
1, 384, Note_off_c, 0, 64, 64
1, 384, Note_on_c, 0, 65, 100
1, 480, Note_on_c, 0, 64, 100
1, 480, Note_off_c, 0, 65, 64
1, 576, Note_on_c, 0, 45, 100
1, 576, Note_on_c, 0, 59, 100
1, 576, Note_off_c, 0, 64, 64
1, 672, Note_off_c, 0, 45, 64
1, 672, Note_off_c, 0, 59, 64
1, 672, Note_on_c, 0, 60, 100
1, 767, Note_off_c, 0, 60, 64
1, 768, Note_on_c, 0, 45, 100
1, 768, Note_on_c, 0, 60, 100
1, 864, Note_off_c, 0, 45, 64
1, 864, Note_off_c, 0, 60, 64
1, 864, Note_on_c, 0, 65, 100
1, 960, Note_off_c, 0, 65, 64
1, 960, Note_on_c, 0, 69, 100
1, 1056, Note_on_c, 0, 45, 100
1, 1056, Note_on_c, 0, 64, 100
1, 1056, Note_off_c, 0, 69, 64
1, 1152, Note_off_c, 0, 45, 64
1, 1152, Note_off_c, 0, 64, 64
1, 1152, Note_on_c, 0, 65, 100
1, 1248, Note_on_c, 0, 64, 100
1, 1248, Note_off_c, 0, 65, 64
1, 1344, Note_on_c, 0, 41, 100
1, 1344, Note_on_c, 0, 59, 100
1, 1344, Note_off_c, 0, 64, 64
1, 1440, Note_off_c, 0, 41, 64
1, 1440, Note_off_c, 0, 59, 64
1, 1440, Note_on_c, 0, 60, 100
1, 1536, Note_off_c, 0, 60, 64
1, 0, Note_on_c, 0, 45, 83
1, 0, Note_on_c, 0, 64, 83
1, 96, Note_on_c, 0, 57, 83
1, 192, Note_off_c, 0, 57, 64
1, 192, Note_on_c, 0, 59, 83
1, 288, Note_off_c, 0, 59, 64
1, 288, Note_on_c, 0, 60, 83
1, 384, Note_off_c, 0, 45, 64
1, 384, Note_off_c, 0, 60, 64
1, 384, Note_on_c, 0, 62, 83
1, 384, Note_off_c, 0, 64, 64
1, 480, Note_on_c, 0, 57, 83
1, 480, Note_off_c, 0, 62, 64
1, 576, Note_on_c, 0, 52, 83
1, 576, Note_off_c, 0, 57, 64
1, 576, Note_on_c, 0, 65, 83
1, 672, Note_on_c, 0, 60, 83
1, 768, Note_on_c, 0, 45, 83
1, 768, Note_off_c, 0, 52, 64
1, 768, Note_off_c, 0, 60, 64
1, 768, Note_on_c, 0, 64, 83
1, 768, Note_off_c, 0, 65, 64
1, 864, Note_on_c, 0, 57, 83
1, 960, Note_off_c, 0, 57, 64
1, 960, Note_on_c, 0, 59, 83
1, 1056, Note_off_c, 0, 59, 64
1, 1056, Note_on_c, 0, 60, 83
1, 1152, Note_off_c, 0, 45, 64
1, 1152, Note_off_c, 0, 60, 64
1, 1152, Note_on_c, 0, 62, 83
1, 1152, Note_off_c, 0, 64, 64
1, 1248, Note_on_c, 0, 57, 83
1, 1248, Note_off_c, 0, 62, 64
1, 1344, Note_on_c, 0, 52, 83
1, 1344, Note_off_c, 0, 57, 64
1, 1344, Note_on_c, 0, 65, 83
1, 1440, Note_on_c, 0, 60, 83
1, 1536, Note_on_c, 0, 45, 83
1, 1536, Note_off_c, 0, 52, 64
1, 1536, Note_off_c, 0, 60, 64
1, 1536, Note_on_c, 0, 64, 83
1, 1536, Note_off_c, 0, 65, 64
1, 1632, Note_on_c, 0, 57, 83
1, 1728, Note_off_c, 0, 57, 64
1, 1728, Note_on_c, 0, 59, 83
1, 1824, Note_off_c, 0, 59, 64
1, 1824, Note_on_c, 0, 60, 83
1, 1920, Note_off_c, 0, 45, 64
1, 1920, Note_off_c, 0, 60, 64
1, 1920, Note_on_c, 0, 62, 83
1, 1920, Note_off_c, 0, 64, 64
1, 2016, Note_on_c, 0, 57, 83
1, 2016, Note_off_c, 0, 62, 64
1, 2112, Note_on_c, 0, 52, 83
1, 2112, Note_off_c, 0, 57, 64
1, 2112, Note_on_c, 0, 65, 83
1, 2208, Note_on_c, 0, 60, 83
1, 2304, Note_on_c, 0, 45, 83
1, 2304, Note_off_c, 0, 52, 64
1, 2304, Note_off_c, 0, 60, 64
1, 2304, Note_on_c, 0, 64, 83
1, 2304, Note_off_c, 0, 65, 64
1, 2400, Note_on_c, 0, 57, 83
1, 2496, Note_off_c, 0, 57, 64
1, 2496, Note_on_c, 0, 59, 83
1, 2592, Note_off_c, 0, 59, 64
1, 2592, Note_on_c, 0, 60, 83
1, 2688, Note_off_c, 0, 45, 64
1, 2688, Note_off_c, 0, 60, 64
1, 2688, Note_on_c, 0, 62, 83
1, 2688, Note_off_c, 0, 64, 64
1, 2784, Note_on_c, 0, 57, 83
1, 2784, Note_off_c, 0, 62, 64
1, 2880, Note_on_c, 0, 52, 83
1, 2880, Note_off_c, 0, 57, 64
1, 2880, Note_on_c, 0, 65, 83
1, 2976, Note_on_c, 0, 60, 83
1, 3072, Note_off_c, 0, 52, 64
1, 3072, Note_off_c, 0, 60, 64
1, 3072, Note_off_c, 0, 65, 64
1, 0, Note_on_c, 0, 45, 105
1, 0, Note_on_c, 0, 64, 105
1, 0, Note_on_c, 0, 76, 105
1, 96, Note_on_c, 0, 57, 105
1, 96, Note_off_c, 0, 64, 64
1, 192, Note_off_c, 0, 57, 64
1, 192, Note_on_c, 0, 59, 105
1, 192, Note_on_c, 0, 69, 105
1, 192, Note_off_c, 0, 76, 64
1, 288, Note_off_c, 0, 59, 64
1, 288, Note_on_c, 0, 60, 105
1, 384, Note_off_c, 0, 60, 64
1, 384, Note_on_c, 0, 62, 105
1, 384, Note_off_c, 0, 69, 64
1, 384, Note_on_c, 0, 72, 105
1, 480, Note_on_c, 0, 57, 105
1, 480, Note_off_c, 0, 62, 64
1, 576, Note_on_c, 0, 52, 105
1, 576, Note_off_c, 0, 57, 64
1, 576, Note_on_c, 0, 71, 105
1, 576, Note_off_c, 0, 72, 64
1, 672, Note_off_c, 0, 52, 64
1, 672, Note_on_c, 0, 60, 105
1, 767, Note_off_c, 0, 45, 64
1, 767, Note_off_c, 0, 71, 64
1, 768, Note_on_c, 0, 45, 105
1, 768, Note_off_c, 0, 60, 64
1, 768, Note_on_c, 0, 64, 105
1, 768, Note_on_c, 0, 71, 105
1, 864, Note_on_c, 0, 57, 105
1, 864, Note_off_c, 0, 64, 64
1, 960, Note_off_c, 0, 57, 64
1, 960, Note_on_c, 0, 59, 105
1, 960, Note_on_c, 0, 69, 105
1, 960, Note_off_c, 0, 71, 64
1, 1056, Note_off_c, 0, 59, 64
1, 1056, Note_on_c, 0, 60, 105
1, 1152, Note_off_c, 0, 60, 64
1, 1152, Note_on_c, 0, 62, 105
1, 1152, Note_on_c, 0, 65, 105
1, 1152, Note_off_c, 0, 69, 64
1, 1248, Note_on_c, 0, 57, 105
1, 1248, Note_off_c, 0, 62, 64
1, 1344, Note_on_c, 0, 41, 105
1, 1344, Note_off_c, 0, 45, 64
1, 1344, Note_off_c, 0, 57, 64
1, 1344, Note_on_c, 0, 64, 105
1, 1344, Note_off_c, 0, 65, 64
1, 1440, Note_on_c, 0, 60, 105
1, 1535, Note_off_c, 0, 64, 64
1, 1536, Note_off_c, 0, 41, 64
1, 1536, Note_on_c, 0, 45, 105
1, 1536, Note_off_c, 0, 60, 64
1, 1536, Note_on_c, 0, 64, 105
1, 1536, Note_on_c, 0, 76, 105
1, 1632, Note_on_c, 0, 57, 105
1, 1632, Note_off_c, 0, 64, 64
1, 1728, Note_off_c, 0, 57, 64
1, 1728, Note_on_c, 0, 59, 105
1, 1728, Note_on_c, 0, 69, 105
1, 1728, Note_off_c, 0, 76, 64
1, 1824, Note_off_c, 0, 59, 64
1, 1824, Note_on_c, 0, 60, 105
1, 1920, Note_off_c, 0, 60, 64
1, 1920, Note_on_c, 0, 62, 105
1, 1920, Note_off_c, 0, 69, 64
1, 1920, Note_on_c, 0, 72, 105
1, 2016, Note_on_c, 0, 57, 105
1, 2016, Note_off_c, 0, 62, 64
1, 2112, Note_on_c, 0, 52, 105
1, 2112, Note_off_c, 0, 57, 64
1, 2112, Note_on_c, 0, 71, 105
1, 2112, Note_off_c, 0, 72, 64
1, 2208, Note_off_c, 0, 52, 64
1, 2208, Note_on_c, 0, 60, 105
1, 2303, Note_off_c, 0, 45, 64
1, 2303, Note_off_c, 0, 71, 64
1, 2304, Note_on_c, 0, 45, 105
1, 2304, Note_off_c, 0, 60, 64
1, 2304, Note_on_c, 0, 64, 105
1, 2304, Note_on_c, 0, 71, 105
1, 2400, Note_on_c, 0, 57, 105
1, 2400, Note_off_c, 0, 64, 64
1, 2496, Note_off_c, 0, 57, 64
1, 2496, Note_on_c, 0, 59, 105
1, 2496, Note_on_c, 0, 69, 105
1, 2496, Note_off_c, 0, 71, 64
1, 2592, Note_off_c, 0, 59, 64
1, 2592, Note_on_c, 0, 60, 105
1, 2688, Note_off_c, 0, 60, 64
1, 2688, Note_on_c, 0, 62, 105
1, 2688, Note_on_c, 0, 65, 105
1, 2688, Note_off_c, 0, 69, 64
1, 2784, Note_on_c, 0, 57, 105
1, 2784, Note_off_c, 0, 62, 64
1, 2880, Note_on_c, 0, 41, 105
1, 2880, Note_off_c, 0, 45, 64
1, 2880, Note_off_c, 0, 57, 64
1, 2880, Note_on_c, 0, 64, 105
1, 2880, Note_off_c, 0, 65, 64
1, 2976, Note_on_c, 0, 60, 105
1, 3072, Note_off_c, 0, 41, 64
1, 3072, Note_off_c, 0, 60, 64
1, 3072, Note_off_c, 0, 64, 64
1, 0, Note_on_c, 0, 45, 99
1, 0, Note_on_c, 0, 64, 57
1, 94, Note_on_c, 0, 69, 44
1, 192, Note_on_c, 0, 72, 67
1, 288, Note_on_c, 0, 71, 62
1, 291, Note_off_c, 0, 72, 42
1, 317, Note_off_c, 0, 64, 59
1, 323, Note_off_c, 0, 69, 24
1, 385, Note_on_c, 0, 74, 45
1, 389, Note_off_c, 0, 71, 53
1, 477, Note_on_c, 0, 65, 38
1, 574, Note_on_c, 0, 76, 45
1, 674, Note_on_c, 0, 71, 28
1, 752, Note_off_c, 0, 65, 1
1, 752, Note_off_c, 0, 71, 1
1, 752, Note_off_c, 0, 74, 44
1, 752, Note_off_c, 0, 76, 30
1, 767, Note_off_c, 0, 45, 62
1, 768, Note_on_c, 0, 45, 90
1, 768, Note_on_c, 0, 64, 21
1, 866, Note_on_c, 0, 69, 43
1, 962, Note_on_c, 0, 72, 35
1, 1063, Note_on_c, 0, 71, 35
1, 1156, Note_on_c, 0, 74, 40
1, 1248, Note_off_c, 0, 45, 83
1, 1248, Note_on_c, 0, 53, 73
1, 1250, Note_on_c, 0, 65, 31
1, 1264, Note_off_c, 0, 64, 22
1, 1264, Note_off_c, 0, 69, 1
1, 1264, Note_off_c, 0, 71, 47
1, 1264, Note_off_c, 0, 72, 1
1, 1345, Note_on_c, 0, 76, 35
1, 1440, Note_on_c, 0, 52, 70
1, 1440, Note_off_c, 0, 53, 108
1, 1440, Note_on_c, 0, 71, 37
1, 1516, Note_off_c, 0, 65, 23
1, 1516, Note_off_c, 0, 71, 32
1, 1516, Note_off_c, 0, 74, 31
1, 1516, Note_off_c, 0, 76, 50
1, 1534, Note_off_c, 0, 52, 127
1, 0, Note_on_c, 0, 45, 66
1, 0, Note_on_c, 0, 52, 82
1, 0, Note_on_c, 0, 57, 85
1, 0, Note_on_c, 0, 64, 89
1, 184, Note_off_c, 0, 52, 64
1, 192, Note_on_c, 0, 52, 80
1, 192, Note_on_c, 0, 60, 57
1, 192, Note_on_c, 0, 72, 50
1, 281, Note_off_c, 0, 60, 64
1, 283, Note_off_c, 0, 57, 64
1, 288, Note_on_c, 0, 57, 64
1, 288, Note_on_c, 0, 59, 64
1, 377, Note_off_c, 0, 57, 64
1, 379, Note_off_c, 0, 45, 64
1, 379, Note_off_c, 0, 64, 64
1, 382, Note_off_c, 0, 72, 64
1, 383, Note_off_c, 0, 52, 64
1, 384, Note_on_c, 0, 45, 65
1, 384, Note_on_c, 0, 52, 84
1, 384, Note_on_c, 0, 57, 87
1, 384, Note_off_c, 0, 59, 64
1, 384, Note_on_c, 0, 64, 89
1, 384, Note_on_c, 0, 77, 52
1, 570, Note_off_c, 0, 52, 64
1, 576, Note_on_c, 0, 52, 73
1, 576, Note_on_c, 0, 60, 59
1, 757, Note_off_c, 0, 60, 64
1, 758, Note_off_c, 0, 57, 64
1, 762, Note_off_c, 0, 45, 64
1, 762, Note_off_c, 0, 52, 64
1, 762, Note_off_c, 0, 77, 64
1, 765, Note_off_c, 0, 64, 64
1, 768, Note_on_c, 0, 45, 66
1, 768, Note_on_c, 0, 52, 82
1, 768, Note_on_c, 0, 57, 85
1, 768, Note_on_c, 0, 64, 89
1, 952, Note_off_c, 0, 52, 64
1, 960, Note_on_c, 0, 52, 80
1, 960, Note_on_c, 0, 60, 57
1, 960, Note_on_c, 0, 72, 50
1, 1049, Note_off_c, 0, 60, 64
1, 1051, Note_off_c, 0, 57, 64
1, 1056, Note_on_c, 0, 57, 64
1, 1056, Note_on_c, 0, 59, 64
1, 1145, Note_off_c, 0, 57, 64
1, 1147, Note_off_c, 0, 45, 64
1, 1147, Note_off_c, 0, 64, 64
1, 1150, Note_off_c, 0, 72, 64
1, 1151, Note_off_c, 0, 52, 64
1, 1152, Note_on_c, 0, 45, 65
1, 1152, Note_on_c, 0, 52, 84
1, 1152, Note_on_c, 0, 57, 87
1, 1152, Note_off_c, 0, 59, 64
1, 1152, Note_on_c, 0, 64, 89
1, 1152, Note_on_c, 0, 77, 52
1, 1338, Note_off_c, 0, 52, 64
1, 1344, Note_on_c, 0, 52, 73
1, 1344, Note_on_c, 0, 60, 59
1, 1525, Note_off_c, 0, 60, 64
1, 1526, Note_off_c, 0, 57, 64
1, 1530, Note_off_c, 0, 45, 64
1, 1530, Note_off_c, 0, 52, 64
1, 1530, Note_off_c, 0, 77, 64
1, 1533, Note_off_c, 0, 64, 64
1, 0, Note_on_c, 0, 33, 44
1, 48, Note_off_c, 0, 33, 44
1, 48, Note_on_c, 0, 45, 41
1, 143, Note_off_c, 0, 45, 41
1, 144, Note_on_c, 0, 52, 29
1, 192, Note_on_c, 0, 60, 42
1, 207, Note_off_c, 0, 52, 29
1, 241, Note_off_c, 0, 60, 42
1, 288, Note_on_c, 0, 69, 42
1, 354, Note_off_c, 0, 69, 42
1, 384, Note_on_c, 0, 72, 40
1, 431, Note_off_c, 0, 72, 40
1, 432, Note_on_c, 0, 65, 41
1, 528, Note_on_c, 0, 60, 30
1, 528, Note_off_c, 0, 65, 41
1, 576, Note_on_c, 0, 53, 44
1, 623, Note_off_c, 0, 60, 30
1, 672, Note_on_c, 0, 41, 51
1, 678, Note_off_c, 0, 53, 44
1, 768, Note_on_c, 0, 33, 44
1, 768, Note_off_c, 0, 41, 51
1, 816, Note_off_c, 0, 33, 44
1, 816, Note_on_c, 0, 45, 41
1, 912, Note_off_c, 0, 45, 41
1, 912, Note_on_c, 0, 57, 41
1, 960, Note_off_c, 0, 57, 41
1, 960, Note_on_c, 0, 62, 29
1, 1023, Note_off_c, 0, 62, 29
1, 1056, Note_on_c, 0, 65, 42
1, 1104, Note_on_c, 0, 69, 42
1, 1105, Note_off_c, 0, 65, 42
1, 1152, Note_off_c, 0, 69, 42
1, 1152, Note_on_c, 0, 72, 40
1, 1200, Note_on_c, 0, 65, 41
1, 1200, Note_off_c, 0, 72, 40
1, 1296, Note_on_c, 0, 60, 30
1, 1344, Note_on_c, 0, 52, 44
1, 1371, Note_off_c, 0, 65, 41
1, 1391, Note_off_c, 0, 60, 30
1, 1440, Note_on_c, 0, 74, 51
1, 1446, Note_off_c, 0, 52, 44
1, 1536, Note_off_c, 0, 74, 51
1, 0, Note_on_c, 0, 45, 105
1, 0, Note_on_c, 0, 60, 105
1, 0, Note_on_c, 0, 64, 105
1, 0, Note_on_c, 0, 81, 105
1, 192, Note_off_c, 0, 45, 64
1, 192, Note_off_c, 0, 60, 64
1, 192, Note_off_c, 0, 64, 64
1, 192, Note_off_c, 0, 81, 64
1, 288, Note_on_c, 0, 41, 105
1, 288, Note_on_c, 0, 57, 105
1, 288, Note_on_c, 0, 60, 105
1, 288, Note_on_c, 0, 79, 105
1, 480, Note_off_c, 0, 41, 64
1, 480, Note_off_c, 0, 57, 64
1, 480, Note_off_c, 0, 60, 64
1, 480, Note_off_c, 0, 79, 64
1, 576, Note_on_c, 0, 43, 105
1, 576, Note_on_c, 0, 59, 105
1, 576, Note_on_c, 0, 62, 105
1, 576, Note_on_c, 0, 79, 105
1, 672, Note_on_c, 0, 74, 105
1, 672, Note_off_c, 0, 79, 64
1, 768, Note_off_c, 0, 43, 64
1, 768, Note_on_c, 0, 45, 105
1, 768, Note_off_c, 0, 59, 64
1, 768, Note_on_c, 0, 60, 105
1, 768, Note_off_c, 0, 62, 64
1, 768, Note_on_c, 0, 64, 105
1, 768, Note_off_c, 0, 74, 64
1, 768, Note_on_c, 0, 76, 105
1, 960, Note_off_c, 0, 45, 64
1, 960, Note_off_c, 0, 60, 64
1, 960, Note_off_c, 0, 64, 64
1, 960, Note_off_c, 0, 76, 64
1, 1056, Note_on_c, 0, 41, 105
1, 1056, Note_on_c, 0, 57, 105
1, 1056, Note_on_c, 0, 60, 105
1, 1056, Note_on_c, 0, 72, 105
1, 1248, Note_off_c, 0, 41, 64
1, 1248, Note_off_c, 0, 57, 64
1, 1248, Note_off_c, 0, 60, 64
1, 1248, Note_off_c, 0, 72, 64
1, 1344, Note_on_c, 0, 43, 105
1, 1344, Note_on_c, 0, 59, 105
1, 1344, Note_on_c, 0, 62, 105
1, 1344, Note_on_c, 0, 74, 105
1, 1440, Note_off_c, 0, 74, 64
1, 1440, Note_on_c, 0, 76, 105
1, 1536, Note_off_c, 0, 43, 64
1, 1536, Note_off_c, 0, 59, 64
1, 1536, Note_off_c, 0, 62, 64
1, 1536, Note_off_c, 0, 76, 64
1, 0, Note_on_c, 0, 45, 87
1, 0, Note_on_c, 0, 60, 87
1, 96, Note_off_c, 0, 45, 64
1, 144, Note_on_c, 0, 45, 87
1, 192, Note_on_c, 0, 57, 87
1, 192, Note_off_c, 0, 60, 64
1, 240, Note_off_c, 0, 45, 64
1, 288, Note_on_c, 0, 41, 87
1, 384, Note_off_c, 0, 41, 64
1, 384, Note_off_c, 0, 57, 64
1, 384, Note_on_c, 0, 67, 87
1, 480, Note_on_c, 0, 65, 87
1, 480, Note_off_c, 0, 67, 64
1, 576, Note_on_c, 0, 64, 87
1, 576, Note_off_c, 0, 65, 64
1, 672, Note_on_c, 0, 62, 87
1, 672, Note_off_c, 0, 64, 64
1, 768, Note_on_c, 0, 48, 87
1, 768, Note_on_c, 0, 60, 87
1, 768, Note_off_c, 0, 62, 64
1, 864, Note_off_c, 0, 48, 64
1, 912, Note_on_c, 0, 48, 87
1, 960, Note_on_c, 0, 57, 87
1, 960, Note_off_c, 0, 60, 64
1, 1008, Note_off_c, 0, 48, 64
1, 1056, Note_on_c, 0, 43, 87
1, 1152, Note_off_c, 0, 43, 64
1, 1152, Note_off_c, 0, 57, 64
1, 1152, Note_on_c, 0, 62, 87
1, 1248, Note_off_c, 0, 62, 64
1, 1248, Note_on_c, 0, 64, 87
1, 1344, Note_on_c, 0, 62, 87
1, 1344, Note_off_c, 0, 64, 64
1, 1440, Note_on_c, 0, 55, 87
1, 1440, Note_off_c, 0, 62, 64
1, 1536, Note_on_c, 0, 45, 87
1, 1536, Note_off_c, 0, 55, 64
1, 1536, Note_on_c, 0, 60, 87
1, 1632, Note_off_c, 0, 45, 64
1, 1680, Note_on_c, 0, 45, 87
1, 1728, Note_on_c, 0, 57, 87
1, 1728, Note_off_c, 0, 60, 64
1, 1776, Note_off_c, 0, 45, 64
1, 1824, Note_on_c, 0, 41, 87
1, 1920, Note_off_c, 0, 41, 64
1, 1920, Note_off_c, 0, 57, 64
1, 1920, Note_on_c, 0, 67, 87
1, 2016, Note_on_c, 0, 65, 87
1, 2016, Note_off_c, 0, 67, 64
1, 2112, Note_on_c, 0, 64, 87
1, 2112, Note_off_c, 0, 65, 64
1, 2208, Note_on_c, 0, 62, 87
1, 2208, Note_off_c, 0, 64, 64
1, 2304, Note_on_c, 0, 48, 87
1, 2304, Note_on_c, 0, 60, 87
1, 2304, Note_off_c, 0, 62, 64
1, 2400, Note_off_c, 0, 48, 64
1, 2448, Note_on_c, 0, 48, 87
1, 2496, Note_on_c, 0, 57, 87
1, 2496, Note_off_c, 0, 60, 64
1, 2544, Note_off_c, 0, 48, 64
1, 2592, Note_on_c, 0, 43, 87
1, 2688, Note_off_c, 0, 43, 64
1, 2688, Note_off_c, 0, 57, 64
1, 2688, Note_on_c, 0, 62, 87
1, 2784, Note_off_c, 0, 62, 64
1, 2784, Note_on_c, 0, 64, 87
1, 2880, Note_on_c, 0, 62, 87
1, 2880, Note_off_c, 0, 64, 64
1, 2976, Note_on_c, 0, 55, 87
1, 2976, Note_off_c, 0, 62, 64
1, 3072, Note_off_c, 0, 55, 64
1, 0, Note_on_c, 0, 53, 62
1, 0, Note_on_c, 0, 69, 34
1, 1, Note_on_c, 0, 72, 59
1, 97, Note_on_c, 0, 60, 40
1, 190, Note_on_c, 0, 67, 45
1, 190, Note_off_c, 0, 69, 21
1, 191, Note_on_c, 0, 69, 12
1, 191, Note_off_c, 0, 72, 47
1, 191, Note_on_c, 0, 72, 48
1, 193, Note_on_c, 0, 76, 73
1, 292, Note_on_c, 0, 65, 39
1, 384, Note_off_c, 0, 72, 36
1, 385, Note_off_c, 0, 67, 38
1, 385, Note_off_c, 0, 69, 24
1, 385, Note_on_c, 0, 72, 67
1, 386, Note_off_c, 0, 60, 60
1, 386, Note_on_c, 0, 60, 34
1, 386, Note_on_c, 0, 67, 31
1, 386, Note_on_c, 0, 69, 56
1, 574, Note_off_c, 0, 65, 57
1, 575, Note_on_c, 0, 65, 59
1, 667, Note_off_c, 0, 53, 51
1, 667, Note_off_c, 0, 65, 53
1, 667, Note_off_c, 0, 67, 14
1, 667, Note_off_c, 0, 69, 14
1, 667, Note_off_c, 0, 72, 8
1, 667, Note_off_c, 0, 76, 50
1, 670, Note_on_c, 0, 52, 49
1, 670, Note_on_c, 0, 64, 39
1, 670, Note_on_c, 0, 67, 38
1, 670, Note_on_c, 0, 71, 56
1, 672, Note_off_c, 0, 60, 35
1, 766, Note_on_c, 0, 50, 65
1, 766, Note_on_c, 0, 72, 61
1, 767, Note_on_c, 0, 65, 38
1, 767, Note_on_c, 0, 69, 42
1, 768, Note_off_c, 0, 52, 61
1, 768, Note_off_c, 0, 64, 39
1, 768, Note_off_c, 0, 67, 49
1, 768, Note_off_c, 0, 71, 73
1, 863, Note_on_c, 0, 57, 37
1, 958, Note_on_c, 0, 64, 38
1, 958, Note_off_c, 0, 65, 12
1, 958, Note_off_c, 0, 69, 25
1, 958, Note_off_c, 0, 72, 37
1, 958, Note_on_c, 0, 76, 76
1, 959, Note_on_c, 0, 65, 50
1, 959, Note_on_c, 0, 69, 46
1, 959, Note_on_c, 0, 72, 48
1, 1053, Note_off_c, 0, 57, 38
1, 1054, Note_on_c, 0, 57, 36
1, 1151, Note_off_c, 0, 50, 48
1, 1151, Note_off_c, 0, 72, 19
1, 1152, Note_on_c, 0, 50, 63
1, 1152, Note_off_c, 0, 65, 38
1, 1152, Note_off_c, 0, 69, 38
1, 1152, Note_on_c, 0, 72, 67
1, 1153, Note_on_c, 0, 65, 37
1, 1153, Note_on_c, 0, 69, 39
1, 1344, Note_off_c, 0, 57, 36
1, 1345, Note_on_c, 0, 62, 50
1, 1436, Note_off_c, 0, 64, 1
1, 1437, Note_on_c, 0, 52, 39
1, 1437, Note_on_c, 0, 59, 49
1, 1437, Note_on_c, 0, 64, 41
1, 1438, Note_on_c, 0, 67, 46
1, 1439, Note_off_c, 0, 50, 39
1, 1439, Note_off_c, 0, 62, 50
1, 1439, Note_off_c, 0, 65, 31
1, 1439, Note_off_c, 0, 69, 8
1, 1439, Note_off_c, 0, 72, 7
1, 1439, Note_off_c, 0, 76, 57
1, 1536, Note_on_c, 0, 53, 68
1, 1536, Note_on_c, 0, 72, 50
1, 1537, Note_on_c, 0, 69, 46
1, 1542, Note_off_c, 0, 52, 57
1, 1542, Note_off_c, 0, 59, 57
1, 1542, Note_off_c, 0, 64, 42
1, 1542, Note_off_c, 0, 67, 39
1, 1631, Note_on_c, 0, 60, 51
1, 1724, Note_off_c, 0, 69, 9
1, 1724, Note_on_c, 0, 69, 47
1, 1724, Note_off_c, 0, 72, 31
1, 1724, Note_on_c, 0, 72, 58
1, 1724, Note_on_c, 0, 79, 66
1, 1726, Note_on_c, 0, 67, 39
1, 1821, Note_off_c, 0, 60, 46
1, 1822, Note_on_c, 0, 60, 35
1, 1918, Note_off_c, 0, 69, 22
1, 1918, Note_off_c, 0, 72, 32
1, 1919, Note_on_c, 0, 65, 36
1, 1919, Note_on_c, 0, 69, 49
1, 1919, Note_on_c, 0, 72, 55
1, 1919, Note_on_c, 0, 76, 50
1, 2110, Note_off_c, 0, 69, 30
1, 2111, Note_off_c, 0, 65, 49
1, 2111, Note_on_c, 0, 65, 38
1, 2111, Note_on_c, 0, 69, 43
1, 2111, Note_on_c, 0, 74, 60
1, 2207, Note_on_c, 0, 52, 67
1, 2207, Note_off_c, 0, 67, 25
1, 2207, Note_off_c, 0, 74, 64
1, 2208, Note_on_c, 0, 67, 55
1, 2208, Note_on_c, 0, 71, 56
1, 2208, Note_on_c, 0, 74, 54
1, 2209, Note_off_c, 0, 53, 58
1, 2209, Note_off_c, 0, 60, 45
1, 2209, Note_off_c, 0, 65, 43
1, 2209, Note_off_c, 0, 69, 50
1, 2209, Note_off_c, 0, 72, 30
1, 2209, Note_off_c, 0, 76, 38
1, 2209, Note_off_c, 0, 79, 53
1, 2303, Note_on_c, 0, 50, 66
1, 2303, Note_on_c, 0, 72, 78
1, 2304, Note_on_c, 0, 65, 48
1, 2304, Note_on_c, 0, 69, 69
1, 2309, Note_on_c, 0, 76, 58
1, 2310, Note_off_c, 0, 52, 55
1, 2310, Note_off_c, 0, 67, 59
1, 2310, Note_off_c, 0, 71, 69
1, 2310, Note_off_c, 0, 74, 70
1, 2401, Note_on_c, 0, 57, 42
1, 2493, Note_on_c, 0, 64, 53
1, 2493, Note_off_c, 0, 69, 49
1, 2493, Note_on_c, 0, 79, 67
1, 2494, Note_on_c, 0, 69, 67
1, 2592, Note_off_c, 0, 57, 50
1, 2592, Note_on_c, 0, 57, 42
1, 2683, Note_off_c, 0, 76, 73
1, 2684, Note_off_c, 0, 65, 47
1, 2684, Note_off_c, 0, 69, 31
1, 2684, Note_on_c, 0, 76, 48
1, 2685, Note_on_c, 0, 62, 43
1, 2685, Note_on_c, 0, 65, 50
1, 2685, Note_on_c, 0, 69, 62
1, 2879, Note_off_c, 0, 62, 34
1, 2880, Note_off_c, 0, 57, 40
1, 2880, Note_on_c, 0, 62, 50
1, 2880, Note_off_c, 0, 65, 1
1, 2880, Note_off_c, 0, 69, 1
1, 2880, Note_on_c, 0, 69, 49
1, 2881, Note_on_c, 0, 65, 41
1, 2976, Note_off_c, 0, 64, 36
1, 2976, Note_on_c, 0, 67, 46
1, 2976, Note_on_c, 0, 71, 70
1, 2977, Note_on_c, 0, 52, 45
1, 2977, Note_on_c, 0, 64, 52
1, 2981, Note_off_c, 0, 50, 50
1, 2981, Note_off_c, 0, 62, 54
1, 2981, Note_off_c, 0, 65, 39
1, 2981, Note_off_c, 0, 69, 30
1, 2981, Note_off_c, 0, 72, 56
1, 2981, Note_off_c, 0, 76, 55
1, 2981, Note_off_c, 0, 79, 30
1, 3072, Note_off_c, 0, 52, 70
1, 3072, Note_off_c, 0, 64, 63
1, 3072, Note_off_c, 0, 67, 50
1, 3072, Note_off_c, 0, 71, 69
1, 0, Note_on_c, 0, 69, 54
1, 1, Note_on_c, 0, 53, 53
1, 1, Note_on_c, 0, 65, 52
1, 2, Note_on_c, 0, 72, 60
1, 33, Note_off_c, 0, 65, 51
1, 34, Note_off_c, 0, 69, 76
1, 39, Note_off_c, 0, 72, 77
1, 52, Note_off_c, 0, 53, 40
1, 145, Note_on_c, 0, 69, 60
1, 145, Note_on_c, 0, 72, 55
1, 146, Note_on_c, 0, 53, 47
1, 148, Note_on_c, 0, 65, 53
1, 171, Note_off_c, 0, 69, 80
1, 178, Note_off_c, 0, 65, 33
1, 179, Note_off_c, 0, 72, 63
1, 184, Note_off_c, 0, 53, 46
1, 287, Note_on_c, 0, 69, 58
1, 288, Note_on_c, 0, 65, 49
1, 288, Note_on_c, 0, 72, 61
1, 291, Note_on_c, 0, 53, 53
1, 304, Note_off_c, 0, 65, 99
1, 309, Note_off_c, 0, 69, 100
1, 315, Note_off_c, 0, 72, 119
1, 334, Note_off_c, 0, 53, 58
1, 383, Note_on_c, 0, 71, 57
1, 384, Note_on_c, 0, 74, 71
1, 385, Note_on_c, 0, 55, 48
1, 385, Note_on_c, 0, 67, 47
1, 413, Note_off_c, 0, 71, 51
1, 417, Note_off_c, 0, 67, 32
1, 419, Note_off_c, 0, 55, 60
1, 423, Note_off_c, 0, 74, 70
1, 528, Note_on_c, 0, 55, 52
1, 528, Note_on_c, 0, 71, 49
1, 528, Note_on_c, 0, 74, 55
1, 531, Note_on_c, 0, 67, 45
1, 554, Note_off_c, 0, 71, 56
1, 558, Note_off_c, 0, 55, 59
1, 560, Note_off_c, 0, 67, 32
1, 561, Note_off_c, 0, 74, 48
1, 670, Note_on_c, 0, 71, 56
1, 670, Note_on_c, 0, 74, 63
1, 671, Note_on_c, 0, 67, 53
1, 674, Note_on_c, 0, 55, 58
1, 687, Note_off_c, 0, 67, 114
1, 687, Note_off_c, 0, 71, 122
1, 699, Note_off_c, 0, 74, 120
1, 704, Note_off_c, 0, 55, 53
1, 769, Note_on_c, 0, 57, 40
1, 769, Note_on_c, 0, 69, 35
1, 770, Note_on_c, 0, 76, 57
1, 774, Note_on_c, 0, 72, 62
1, 797, Note_off_c, 0, 72, 54
1, 799, Note_off_c, 0, 69, 63
1, 808, Note_off_c, 0, 57, 48
1, 813, Note_off_c, 0, 76, 80
1, 911, Note_on_c, 0, 57, 42
1, 913, Note_on_c, 0, 69, 55
1, 914, Note_on_c, 0, 76, 58
1, 916, Note_on_c, 0, 72, 61
1, 932, Note_off_c, 0, 72, 52
1, 948, Note_off_c, 0, 76, 70
1, 951, Note_off_c, 0, 69, 27
1, 955, Note_off_c, 0, 57, 41
1, 1054, Note_on_c, 0, 57, 52
1, 1056, Note_on_c, 0, 69, 20
1, 1057, Note_on_c, 0, 76, 45
1, 1058, Note_on_c, 0, 72, 55
1, 1069, Note_off_c, 0, 69, 61
1, 1073, Note_off_c, 0, 72, 115
1, 1076, Note_off_c, 0, 76, 30
1, 1093, Note_off_c, 0, 57, 36
1, 1152, Note_on_c, 0, 72, 60
1, 1153, Note_on_c, 0, 79, 65
1, 1154, Note_on_c, 0, 60, 71
1, 1154, Note_on_c, 0, 76, 58
1, 1173, Note_off_c, 0, 76, 61
1, 1181, Note_off_c, 0, 60, 64
1, 1185, Note_off_c, 0, 72, 54
1, 1190, Note_off_c, 0, 79, 65
1, 1298, Note_on_c, 0, 76, 52
1, 1298, Note_on_c, 0, 79, 58
1, 1299, Note_on_c, 0, 60, 61
1, 1300, Note_on_c, 0, 72, 48
1, 1328, Note_off_c, 0, 60, 60
1, 1328, Note_off_c, 0, 72, 55
1, 1330, Note_off_c, 0, 76, 25
1, 1335, Note_off_c, 0, 79, 68
1, 1439, Note_on_c, 0, 81, 61
1, 1444, Note_on_c, 0, 72, 54
1, 1445, Note_on_c, 0, 60, 68
1, 1445, Note_on_c, 0, 76, 59
1, 1467, Note_off_c, 0, 60, 96
1, 1467, Note_off_c, 0, 76, 58
1, 1468, Note_off_c, 0, 72, 74
1, 1472, Note_off_c, 0, 81, 60
1, 4294967168, Note_on_c, 0, 45, 101
1, 4294967169, Note_on_c, 0, 57, 100
1, 4294967171, Note_on_c, 0, 62, 98
1, 4294967216, Note_on_c, 0, 69, 98
1, 4294967264, Note_on_c, 0, 76, 100
1, 4294967359, Note_off_c, 0, 62, 64
1, 4294967360, Note_on_c, 0, 62, 99
1, 4294967407, Note_off_c, 0, 69, 64
1, 4294967408, Note_on_c, 0, 69, 102
1, 4294967456, Note_on_c, 0, 50, 101
1, 4294967504, Note_off_c, 0, 50, 64
1, 4294967504, Note_on_c, 0, 52, 99
1, 4294967544, Note_off_c, 0, 57, 64
1, 4294967552, Note_off_c, 0, 45, 64
1, 4294967552, Note_on_c, 0, 48, 102
1, 4294967552, Note_off_c, 0, 52, 64
1, 4294967552, Note_off_c, 0, 62, 64
1, 4294967552, Note_off_c, 0, 76, 64
1, 4294967553, Note_on_c, 0, 55, 99
1, 4294967555, Note_on_c, 0, 64, 99
1, 4294967576, Note_off_c, 0, 69, 64
1, 4294967648, Note_on_c, 0, 67, 102
1, 4294967695, Note_off_c, 0, 64, 64
1, 4294967696, Note_on_c, 0, 64, 100
1, 4294967791, Note_off_c, 0, 67, 64
1, 4294967792, Note_on_c, 0, 67, 100
1, 4294967839, Note_off_c, 0, 64, 64
1, 4294967840, Note_on_c, 0, 64, 98
1, 4294967888, Note_on_c, 0, 50, 99
1, 4294967936, Note_on_c, 0, 45, 102
1, 4294967936, Note_off_c, 0, 48, 64
1, 4294967936, Note_off_c, 0, 50, 64
1, 4294967936, Note_off_c, 0, 55, 64
1, 4294967936, Note_off_c, 0, 64, 64
1, 4294967936, Note_off_c, 0, 67, 64
1, 4294967937, Note_on_c, 0, 57, 100
1, 4294967939, Note_on_c, 0, 62, 99
1, 4294967960, Note_on_c, 0, 69, 100
1, 4294967984, Note_on_c, 0, 72, 101
1, 4294968032, Note_on_c, 0, 76, 101
1, 4294968127, Note_off_c, 0, 62, 64
1, 4294968128, Note_on_c, 0, 62, 101
1, 4294968175, Note_off_c, 0, 69, 64
1, 4294968176, Note_on_c, 0, 69, 102
1, 4294968224, Note_on_c, 0, 50, 102
1, 4294968272, Note_off_c, 0, 50, 64
1, 4294968272, Note_on_c, 0, 52, 100
1, 4294968312, Note_off_c, 0, 57, 64
1, 4294968320, Note_off_c, 0, 45, 64
1, 4294968320, Note_on_c, 0, 48, 100
1, 4294968320, Note_off_c, 0, 52, 64
1, 4294968320, Note_off_c, 0, 62, 64
1, 4294968320, Note_off_c, 0, 69, 64
1, 4294968320, Note_off_c, 0, 72, 64
1, 4294968320, Note_off_c, 0, 76, 64
1, 4294968321, Note_on_c, 0, 55, 98
1, 4294968323, Note_on_c, 0, 64, 99
1, 4294968416, Note_on_c, 0, 67, 99
1, 4294968463, Note_off_c, 0, 64, 64
1, 4294968464, Note_on_c, 0, 64, 102
1, 4294968559, Note_off_c, 0, 67, 64
1, 4294968560, Note_on_c, 0, 67, 98
1, 4294968607, Note_off_c, 0, 64, 64
1, 4294968608, Note_on_c, 0, 64, 101
1, 4294968656, Note_on_c, 0, 50, 99
1, 4294968704, Note_off_c, 0, 48, 64
1, 4294968704, Note_off_c, 0, 50, 64
1, 4294968704, Note_off_c, 0, 55, 64
1, 4294968704, Note_off_c, 0, 64, 64
1, 4294968704, Note_off_c, 0, 67, 64
1, 0, Note_on_c, 0, 45, 60
1, 94, Note_on_c, 0, 52, 24
1, 94, Note_on_c, 0, 57, 44
1, 95, Note_on_c, 0, 55, 38
1, 95, Note_on_c, 0, 60, 47
1, 96, Note_on_c, 0, 64, 67
1, 200, Note_off_c, 0, 52, 1
1, 239, Note_on_c, 0, 52, 47
1, 242, Note_off_c, 0, 55, 41
1, 242, Note_off_c, 0, 64, 38
1, 244, Note_off_c, 0, 60, 54
1, 245, Note_off_c, 0, 57, 40
1, 288, Note_on_c, 0, 55, 67
1, 289, Note_on_c, 0, 57, 56
1, 289, Note_on_c, 0, 60, 68
1, 289, Note_on_c, 0, 64, 70
1, 290, Note_off_c, 0, 52, 64
1, 335, Note_off_c, 0, 55, 61
1, 337, Note_on_c, 0, 52, 62
1, 365, Note_off_c, 0, 45, 73
1, 384, Note_off_c, 0, 52, 73
1, 385, Note_on_c, 0, 38, 42
1, 391, Note_off_c, 0, 64, 50
1, 392, Note_off_c, 0, 60, 74
1, 396, Note_off_c, 0, 57, 48
1, 475, Note_on_c, 0, 45, 40
1, 480, Note_on_c, 0, 48, 43
1, 480, Note_on_c, 0, 52, 37
1, 481, Note_on_c, 0, 53, 33
1, 481, Note_on_c, 0, 57, 60
1, 482, Note_on_c, 0, 60, 69
1, 569, Note_off_c, 0, 45, 3
1, 619, Note_off_c, 0, 48, 43
1, 619, Note_off_c, 0, 57, 60
1, 619, Note_off_c, 0, 60, 55
1, 621, Note_off_c, 0, 53, 32
1, 622, Note_on_c, 0, 45, 55
1, 625, Note_off_c, 0, 52, 46
1, 672, Note_on_c, 0, 48, 60
1, 672, Note_on_c, 0, 52, 48
1, 673, Note_on_c, 0, 53, 30
1, 673, Note_on_c, 0, 57, 49
1, 673, Note_on_c, 0, 60, 59
1, 679, Note_off_c, 0, 45, 51
1, 717, Note_off_c, 0, 38, 68
1, 719, Note_off_c, 0, 48, 40
1, 765, Note_off_c, 0, 52, 74
1, 767, Note_off_c, 0, 53, 14
1, 768, Note_on_c, 0, 45, 60
1, 772, Note_off_c, 0, 57, 67
1, 774, Note_off_c, 0, 60, 42
1, 858, Note_on_c, 0, 52, 43
1, 863, Note_on_c, 0, 55, 45
1, 863, Note_on_c, 0, 60, 53
1, 864, Note_on_c, 0, 64, 70
1, 955, Note_off_c, 0, 52, 11
1, 993, Note_off_c, 0, 64, 47
1, 997, Note_off_c, 0, 60, 46
1, 1006, Note_on_c, 0, 52, 43
1, 1007, Note_off_c, 0, 55, 35
1, 1053, Note_off_c, 0, 52, 58
1, 1054, Note_on_c, 0, 55, 61
1, 1055, Note_on_c, 0, 57, 66
1, 1055, Note_on_c, 0, 60, 56
1, 1055, Note_on_c, 0, 64, 67
1, 1102, Note_on_c, 0, 52, 76
1, 1103, Note_off_c, 0, 55, 52
1, 1110, Note_off_c, 0, 45, 67
1, 1152, Note_on_c, 0, 38, 53
1, 1152, Note_off_c, 0, 52, 72
1, 1155, Note_off_c, 0, 64, 60
1, 1157, Note_off_c, 0, 60, 76
1, 1162, Note_off_c, 0, 57, 50
1, 1241, Note_on_c, 0, 45, 30
1, 1247, Note_on_c, 0, 52, 35
1, 1248, Note_on_c, 0, 48, 44
1, 1248, Note_on_c, 0, 53, 30
1, 1249, Note_on_c, 0, 57, 70
1, 1249, Note_on_c, 0, 60, 54
1, 1288, Note_off_c, 0, 45, 13
1, 1380, Note_off_c, 0, 60, 40
1, 1382, Note_off_c, 0, 57, 48
1, 1386, Note_off_c, 0, 53, 36
1, 1391, Note_on_c, 0, 45, 63
1, 1392, Note_off_c, 0, 52, 42
1, 1394, Note_off_c, 0, 48, 45
1, 1439, Note_on_c, 0, 48, 55
1, 1439, Note_on_c, 0, 52, 46
1, 1439, Note_on_c, 0, 53, 40
1, 1440, Note_on_c, 0, 57, 76
1, 1440, Note_on_c, 0, 60, 53
1, 1474, Note_off_c, 0, 45, 41
1, 1487, Note_off_c, 0, 60, 53
1, 1488, Note_on_c, 0, 43, 63
1, 1489, Note_off_c, 0, 53, 35
1, 1490, Note_off_c, 0, 57, 52
1, 1491, Note_off_c, 0, 52, 51
1, 1492, Note_off_c, 0, 48, 52
1, 1496, Note_off_c, 0, 38, 46
1, 1535, Note_off_c, 0, 43, 77
1, 0, Note_on_c, 0, 38, 57
1, 2, Note_on_c, 0, 50, 58
1, 4, Note_on_c, 0, 53, 54
1, 5, Note_on_c, 0, 57, 71
1, 6, Note_on_c, 0, 60, 76
1, 8, Note_on_c, 0, 64, 77
1, 19, Note_off_c, 0, 38, 68
1, 27, Note_off_c, 0, 50, 62
1, 28, Note_off_c, 0, 53, 64
1, 29, Note_off_c, 0, 57, 80
1, 31, Note_off_c, 0, 60, 81
1, 32, Note_off_c, 0, 64, 68
1, 187, Note_on_c, 0, 43, 63
1, 190, Note_on_c, 0, 53, 43
1, 192, Note_on_c, 0, 59, 51
1, 192, Note_on_c, 0, 62, 57
1, 192, Note_on_c, 0, 65, 51
1, 212, Note_off_c, 0, 53, 63
1, 219, Note_off_c, 0, 62, 46
1, 219, Note_off_c, 0, 65, 73
1, 221, Note_off_c, 0, 59, 47
1, 226, Note_off_c, 0, 43, 62
1, 287, Note_on_c, 0, 67, 67
1, 300, Note_off_c, 0, 67, 82
1, 382, Note_on_c, 0, 36, 49
1, 386, Note_on_c, 0, 48, 53
1, 386, Note_on_c, 0, 59, 69
1, 387, Note_on_c, 0, 52, 39
1, 387, Note_on_c, 0, 55, 37
1, 389, Note_on_c, 0, 62, 65
1, 413, Note_off_c, 0, 48, 38
1, 414, Note_off_c, 0, 55, 51
1, 417, Note_off_c, 0, 62, 57
1, 419, Note_off_c, 0, 59, 53
1, 422, Note_off_c, 0, 52, 47
1, 424, Note_off_c, 0, 36, 62
1, 572, Note_on_c, 0, 45, 69
1, 575, Note_on_c, 0, 55, 48
1, 577, Note_on_c, 0, 65, 82
1, 598, Note_off_c, 0, 65, 83
1, 599, Note_off_c, 0, 55, 68
1, 610, Note_off_c, 0, 45, 47
1, 672, Note_on_c, 0, 64, 77
1, 681, Note_off_c, 0, 64, 91
1, 762, Note_on_c, 0, 38, 46
1, 767, Note_on_c, 0, 50, 48
1, 768, Note_on_c, 0, 53, 40
1, 769, Note_on_c, 0, 57, 45
1, 769, Note_on_c, 0, 60, 51
1, 770, Note_on_c, 0, 64, 81
1, 789, Note_off_c, 0, 50, 49
1, 789, Note_off_c, 0, 53, 66
1, 789, Note_off_c, 0, 57, 71
1, 790, Note_off_c, 0, 38, 72
1, 792, Note_off_c, 0, 60, 73
1, 793, Note_off_c, 0, 64, 73
1, 959, Note_on_c, 0, 43, 75
1, 960, Note_on_c, 0, 53, 30
1, 961, Note_on_c, 0, 62, 67
1, 978, Note_off_c, 0, 43, 72
1, 986, Note_off_c, 0, 53, 47
1, 987, Note_off_c, 0, 62, 35
1, 1057, Note_on_c, 0, 47, 70
1, 1057, Note_on_c, 0, 53, 61
1, 1057, Note_on_c, 0, 62, 70
1, 1069, Note_off_c, 0, 53, 76
1, 1073, Note_off_c, 0, 47, 59
1, 1073, Note_off_c, 0, 62, 64
1, 1149, Note_on_c, 0, 36, 58
1, 1151, Note_on_c, 0, 48, 41
1, 1152, Note_on_c, 0, 59, 68
1, 1153, Note_on_c, 0, 62, 51
1, 1153, Note_on_c, 0, 64, 36
1, 1156, Note_on_c, 0, 67, 68
1, 1182, Note_off_c, 0, 48, 42
1, 1183, Note_off_c, 0, 67, 52
1, 1189, Note_off_c, 0, 62, 63
1, 1190, Note_off_c, 0, 36, 49
1, 1190, Note_off_c, 0, 64, 65
1, 1193, Note_off_c, 0, 59, 54
1, 1296, Note_on_c, 0, 36, 64
1, 1306, Note_off_c, 0, 36, 78
1, 1344, Note_on_c, 0, 45, 54
1, 1344, Note_on_c, 0, 55, 59
1, 1345, Note_on_c, 0, 65, 61
1, 1369, Note_off_c, 0, 55, 50
1, 1371, Note_off_c, 0, 65, 56
1, 1374, Note_off_c, 0, 45, 60
1, 1438, Note_on_c, 0, 65, 55
1, 1443, Note_off_c, 0, 65, 73
1, 1443, Note_on_c, 0, 67, 72
1, 1472, Note_off_c, 0, 67, 2
1, 1490, Note_on_c, 0, 65, 81
1, 1502, Note_off_c, 0, 65, 94
1, 0, Note_on_c, 0, 48, 35
1, 0, Note_on_c, 0, 60, 50
1, 0, Note_on_c, 0, 64, 49
1, 0, Note_on_c, 0, 67, 56
1, 0, Note_on_c, 0, 71, 81
1, 190, Note_off_c, 0, 64, 33
1, 190, Note_on_c, 0, 74, 61
1, 191, Note_on_c, 0, 64, 47
1, 382, Note_on_c, 0, 52, 34
1, 383, Note_off_c, 0, 64, 57
1, 384, Note_on_c, 0, 64, 48
1, 384, Note_off_c, 0, 71, 39
1, 385, Note_on_c, 0, 68, 23
1, 385, Note_on_c, 0, 71, 56
1, 386, Note_off_c, 0, 60, 51
1, 386, Note_off_c, 0, 67, 39
1, 386, Note_off_c, 0, 74, 69
1, 392, Note_off_c, 0, 48, 55
1, 572, Note_off_c, 0, 64, 43
1, 572, Note_on_c, 0, 64, 40
1, 572, Note_off_c, 0, 68, 14
1, 572, Note_on_c, 0, 68, 36
1, 572, Note_on_c, 0, 74, 85
1, 670, Note_on_c, 0, 76, 69
1, 763, Note_on_c, 0, 53, 41
1, 764, Note_off_c, 0, 52, 71
1, 764, Note_off_c, 0, 64, 54
1, 764, Note_off_c, 0, 68, 18
1, 764, Note_off_c, 0, 71, 56
1, 764, Note_off_c, 0, 74, 30
1, 764, Note_off_c, 0, 76, 54
1, 767, Note_on_c, 0, 65, 45
1, 767, Note_on_c, 0, 69, 55
1, 767, Note_on_c, 0, 72, 62
1, 959, Note_on_c, 0, 76, 58
1, 1140, Note_off_c, 0, 65, 45
1, 1140, Note_off_c, 0, 69, 48
1, 1140, Note_off_c, 0, 72, 31
1, 1140, Note_off_c, 0, 76, 54
1, 1147, Note_on_c, 0, 65, 42
1, 1148, Note_on_c, 0, 68, 33
1, 1149, Note_on_c, 0, 74, 80
1, 1151, Note_off_c, 0, 53, 54
1, 1152, Note_on_c, 0, 53, 36
1, 1342, Note_off_c, 0, 53, 46
1, 1342, Note_off_c, 0, 65, 39
1, 1342, Note_off_c, 0, 68, 8
1, 1343, Note_on_c, 0, 53, 40
1, 1343, Note_on_c, 0, 65, 38
1, 1343, Note_on_c, 0, 68, 37
1, 1343, Note_on_c, 0, 72, 77
1, 1531, Note_off_c, 0, 53, 54
1, 1531, Note_off_c, 0, 65, 35
1, 1531, Note_off_c, 0, 68, 13
1, 1531, Note_off_c, 0, 72, 39
1, 1531, Note_off_c, 0, 74, 36
1, 0, Note_on_c, 0, 60, 65
1, 0, Note_on_c, 0, 64, 62
1, 0, Note_on_c, 0, 67, 67
1, 0, Note_on_c, 0, 72, 80
1, 50, Note_on_c, 0, 71, 89
1, 122, Note_off_c, 0, 71, 67
1, 122, Note_on_c, 0, 71, 102
1, 169, Note_off_c, 0, 71, 73
1, 170, Note_on_c, 0, 71, 100
1, 284, Note_off_c, 0, 71, 76
1, 285, Note_on_c, 0, 71, 103
1, 335, Note_off_c, 0, 71, 47
1, 336, Note_on_c, 0, 71, 85
1, 382, Note_off_c, 0, 72, 53
1, 383, Note_on_c, 0, 57, 60
1, 383, Note_off_c, 0, 64, 75
1, 383, Note_on_c, 0, 72, 84
1, 384, Note_off_c, 0, 60, 36
1, 384, Note_on_c, 0, 60, 46
1, 384, Note_on_c, 0, 64, 48
1, 385, Note_off_c, 0, 71, 45
1, 386, Note_off_c, 0, 67, 24
1, 432, Note_on_c, 0, 71, 89
1, 505, Note_off_c, 0, 71, 52
1, 506, Note_on_c, 0, 71, 85
1, 553, Note_on_c, 0, 67, 85
1, 668, Note_off_c, 0, 60, 40
1, 668, Note_off_c, 0, 64, 34
1, 668, Note_off_c, 0, 67, 44
1, 669, Note_off_c, 0, 57, 43
1, 669, Note_on_c, 0, 60, 48
1, 669, Note_on_c, 0, 64, 44
1, 669, Note_on_c, 0, 67, 74
1, 670, Note_on_c, 0, 57, 55
1, 719, Note_off_c, 0, 71, 67
1, 719, Note_on_c, 0, 71, 82
1, 765, Note_off_c, 0, 60, 62
1, 765, Note_off_c, 0, 64, 43
1, 765, Note_off_c, 0, 72, 52
1, 766, Note_on_c, 0, 60, 73
1, 766, Note_on_c, 0, 64, 59
1, 766, Note_off_c, 0, 67, 10
1, 766, Note_on_c, 0, 72, 87
1, 767, Note_on_c, 0, 67, 60
1, 768, Note_off_c, 0, 57, 62
1, 768, Note_off_c, 0, 71, 51
1, 815, Note_on_c, 0, 71, 84
1, 888, Note_on_c, 0, 74, 89
1, 935, Note_off_c, 0, 71, 50
1, 936, Note_on_c, 0, 71, 93
1, 1052, Note_off_c, 0, 67, 38
1, 1052, Note_off_c, 0, 71, 52
1, 1053, Note_on_c, 0, 67, 65
1, 1053, Note_on_c, 0, 71, 83
1, 1103, Note_off_c, 0, 71, 47
1, 1104, Note_on_c, 0, 71, 85
1, 1150, Note_off_c, 0, 60, 40
1, 1150, Note_off_c, 0, 64, 61
1, 1151, Note_on_c, 0, 60, 69
1, 1151, Note_on_c, 0, 64, 73
1, 1151, Note_off_c, 0, 72, 57
1, 1152, Note_on_c, 0, 57, 77
1, 1152, Note_on_c, 0, 72, 76
1, 1155, Note_off_c, 0, 67, 39
1, 1155, Note_off_c, 0, 71, 46
1, 1155, Note_off_c, 0, 74, 67
1, 1201, Note_on_c, 0, 71, 99
1, 1273, Note_off_c, 0, 71, 50
1, 1274, Note_on_c, 0, 71, 86
1, 1321, Note_on_c, 0, 67, 95
1, 1437, Note_on_c, 0, 55, 75
1, 1437, Note_off_c, 0, 57, 43
1, 1437, Note_on_c, 0, 59, 74
1, 1437, Note_off_c, 0, 60, 68
1, 1437, Note_on_c, 0, 62, 66
1, 1437, Note_off_c, 0, 64, 41
1, 1437, Note_off_c, 0, 67, 45
1, 1437, Note_on_c, 0, 69, 52
1, 1437, Note_off_c, 0, 71, 55
1, 1437, Note_off_c, 0, 72, 51
1, 1440, Note_on_c, 0, 65, 52
1, 1487, Note_on_c, 0, 71, 89
1, 1535, Note_off_c, 0, 55, 49
1, 1535, Note_off_c, 0, 59, 72
1, 1535, Note_off_c, 0, 62, 57
1, 1535, Note_off_c, 0, 65, 64
1, 1535, Note_off_c, 0, 69, 43
1, 1535, Note_off_c, 0, 71, 75
1, 0, Note_on_c, 0, 45, 80
1, 0, Note_on_c, 0, 52, 71
1, 0, Note_on_c, 0, 55, 60
1, 96, Note_on_c, 0, 48, 58
1, 96, Note_off_c, 0, 52, 45
1, 96, Note_off_c, 0, 55, 30
1, 192, Note_off_c, 0, 48, 15
1, 192, Note_on_c, 0, 52, 71
1, 192, Note_on_c, 0, 55, 67
1, 192, Note_on_c, 0, 59, 90
1, 288, Note_off_c, 0, 45, 35
1, 288, Note_on_c, 0, 48, 62
1, 288, Note_off_c, 0, 55, 40
1, 288, Note_off_c, 0, 59, 70
1, 383, Note_off_c, 0, 48, 31
1, 383, Note_off_c, 0, 52, 46
1, 384, Note_on_c, 0, 41, 78
1, 384, Note_on_c, 0, 48, 67
1, 384, Note_on_c, 0, 52, 62
1, 480, Note_on_c, 0, 45, 58
1, 575, Note_off_c, 0, 52, 39
1, 576, Note_on_c, 0, 52, 59
1, 576, Note_on_c, 0, 55, 70
1, 672, Note_off_c, 0, 41, 41
1, 767, Note_off_c, 0, 45, 53
1, 767, Note_off_c, 0, 52, 39
1, 767, Note_off_c, 0, 55, 24
1, 768, Note_on_c, 0, 45, 78
1, 768, Note_off_c, 0, 48, 28
1, 768, Note_on_c, 0, 52, 54
1, 768, Note_on_c, 0, 55, 64
1, 864, Note_on_c, 0, 48, 65
1, 864, Note_off_c, 0, 52, 36
1, 864, Note_off_c, 0, 55, 25
1, 960, Note_on_c, 0, 52, 67
1, 960, Note_on_c, 0, 55, 46
1, 960, Note_on_c, 0, 59, 85
1, 1055, Note_off_c, 0, 48, 32
1, 1056, Note_off_c, 0, 45, 78
1, 1056, Note_on_c, 0, 48, 38
1, 1056, Note_off_c, 0, 55, 38
1, 1056, Note_off_c, 0, 59, 60
1, 1151, Note_off_c, 0, 48, 40
1, 1151, Note_off_c, 0, 52, 54
1, 1152, Note_on_c, 0, 41, 68
1, 1152, Note_on_c, 0, 48, 62
1, 1152, Note_on_c, 0, 52, 62
1, 1248, Note_off_c, 0, 41, 5
1, 1248, Note_on_c, 0, 45, 57
1, 1344, Note_on_c, 0, 43, 53
1, 1344, Note_off_c, 0, 45, 42
1, 1344, Note_on_c, 0, 47, 74
1, 1344, Note_off_c, 0, 48, 41
1, 1344, Note_on_c, 0, 50, 83
1, 1344, Note_off_c, 0, 52, 49
1, 1439, Note_off_c, 0, 43, 26
1, 1440, Note_on_c, 0, 43, 67
1, 1536, Note_off_c, 0, 43, 22
1, 1536, Note_on_c, 0, 45, 76
1, 1536, Note_off_c, 0, 47, 64
1, 1536, Note_off_c, 0, 50, 57
1, 1536, Note_on_c, 0, 52, 56
1, 1536, Note_on_c, 0, 55, 73
1, 1632, Note_on_c, 0, 48, 59
1, 1632, Note_off_c, 0, 52, 41
1, 1632, Note_off_c, 0, 55, 26
1, 1728, Note_off_c, 0, 48, 19
1, 1728, Note_on_c, 0, 52, 67
1, 1728, Note_on_c, 0, 55, 60
1, 1728, Note_on_c, 0, 59, 80
1, 1824, Note_off_c, 0, 45, 33
1, 1824, Note_on_c, 0, 48, 32
1, 1824, Note_off_c, 0, 55, 41
1, 1824, Note_off_c, 0, 59, 60
1, 1919, Note_off_c, 0, 48, 48
1, 1919, Note_off_c, 0, 52, 53
1, 1920, Note_on_c, 0, 41, 80
1, 1920, Note_on_c, 0, 48, 68
1, 1920, Note_on_c, 0, 52, 63
1, 2016, Note_on_c, 0, 45, 64
1, 2016, Note_off_c, 0, 48, 15
1, 2016, Note_off_c, 0, 52, 34
1, 2112, Note_on_c, 0, 48, 30
1, 2112, Note_on_c, 0, 52, 50
1, 2112, Note_on_c, 0, 55, 57
1, 2303, Note_off_c, 0, 45, 40
1, 2303, Note_off_c, 0, 52, 51
1, 2303, Note_off_c, 0, 55, 43
1, 2304, Note_off_c, 0, 41, 48
1, 2304, Note_on_c, 0, 45, 68
1, 2304, Note_off_c, 0, 48, 19
1, 2304, Note_on_c, 0, 52, 72
1, 2304, Note_on_c, 0, 55, 61
1, 2400, Note_on_c, 0, 48, 52
1, 2400, Note_off_c, 0, 52, 35
1, 2400, Note_off_c, 0, 55, 29
1, 2496, Note_off_c, 0, 48, 44
1, 2496, Note_on_c, 0, 52, 73
1, 2496, Note_on_c, 0, 55, 70
1, 2496, Note_on_c, 0, 59, 80
1, 2592, Note_off_c, 0, 45, 65
1, 2592, Note_on_c, 0, 48, 26
1, 2592, Note_off_c, 0, 52, 33
1, 2592, Note_off_c, 0, 55, 34
1, 2592, Note_off_c, 0, 59, 66
1, 2687, Note_off_c, 0, 48, 42
1, 2688, Note_on_c, 0, 41, 51
1, 2688, Note_on_c, 0, 48, 67
1, 2688, Note_on_c, 0, 52, 54
1, 2784, Note_on_c, 0, 45, 77
1, 2784, Note_off_c, 0, 48, 5
1, 2784, Note_on_c, 0, 55, 87
1, 2880, Note_off_c, 0, 41, 19
1, 2880, Note_on_c, 0, 43, 64
1, 2880, Note_off_c, 0, 45, 49
1, 2880, Note_on_c, 0, 47, 46
1, 2880, Note_on_c, 0, 50, 85
1, 2880, Note_off_c, 0, 52, 59
1, 2880, Note_off_c, 0, 55, 1
1, 2976, Note_off_c, 0, 47, 40
1, 2976, Note_off_c, 0, 50, 53
1, 3072, Note_off_c, 0, 43, 29
1, 0, Control_c, 0, 1, 70
1, 0, Note_on_c, 0, 55, 72
1, 48, Note_off_c, 0, 55, 72
1, 48, Note_on_c, 0, 60, 67
1, 96, Note_off_c, 0, 60, 67
1, 96, Note_on_c, 0, 64, 69
1, 144, Note_off_c, 0, 64, 69
1, 144, Note_on_c, 0, 67, 69
1, 192, Note_on_c, 0, 64, 74
1, 192, Note_off_c, 0, 67, 69
1, 240, Note_off_c, 0, 64, 74
1, 240, Note_on_c, 0, 67, 65
1, 288, Note_on_c, 0, 64, 69
1, 288, Note_off_c, 0, 67, 65
1, 336, Note_off_c, 0, 64, 69
1, 336, Note_on_c, 0, 67, 68
1, 384, Note_on_c, 0, 57, 72
1, 384, Note_off_c, 0, 67, 68
1, 432, Note_off_c, 0, 57, 72
1, 432, Note_on_c, 0, 60, 69
1, 480, Note_off_c, 0, 60, 69
1, 480, Note_on_c, 0, 65, 70
1, 528, Note_off_c, 0, 65, 70
1, 528, Note_on_c, 0, 69, 68
1, 576, Note_on_c, 0, 65, 71
1, 576, Note_off_c, 0, 69, 68
1, 624, Note_off_c, 0, 65, 71
1, 624, Note_on_c, 0, 69, 66
1, 672, Note_on_c, 0, 65, 65
1, 672, Note_off_c, 0, 69, 66
1, 720, Note_off_c, 0, 65, 65
1, 720, Note_on_c, 0, 69, 68
1, 768, Note_on_c, 0, 57, 77
1, 768, Note_off_c, 0, 69, 68
1, 816, Note_off_c, 0, 57, 77
1, 816, Note_on_c, 0, 60, 69
1, 864, Note_off_c, 0, 60, 69
1, 864, Note_on_c, 0, 64, 69
1, 912, Note_off_c, 0, 64, 69
1, 912, Note_on_c, 0, 69, 67
1, 960, Note_on_c, 0, 64, 72
1, 960, Note_off_c, 0, 69, 67
1, 1008, Note_off_c, 0, 64, 72
1, 1008, Note_on_c, 0, 69, 65
1, 1056, Note_on_c, 0, 64, 66
1, 1056, Note_off_c, 0, 69, 65
1, 1104, Note_off_c, 0, 64, 66
1, 1104, Note_on_c, 0, 69, 67
1, 1152, Note_on_c, 0, 55, 76
1, 1152, Note_off_c, 0, 69, 67
1, 1200, Note_off_c, 0, 55, 76
1, 1200, Note_on_c, 0, 59, 66
1, 1248, Note_off_c, 0, 59, 66
1, 1248, Note_on_c, 0, 62, 72
1, 1296, Note_off_c, 0, 62, 72
1, 1296, Note_on_c, 0, 67, 67
1, 1344, Note_on_c, 0, 62, 72
1, 1344, Note_off_c, 0, 67, 67
1, 1392, Note_off_c, 0, 62, 72
1, 1392, Note_on_c, 0, 67, 68
1, 1440, Note_on_c, 0, 62, 68
1, 1440, Note_off_c, 0, 67, 68
1, 1488, Note_off_c, 0, 62, 68
1, 1488, Note_on_c, 0, 67, 66
1, 1536, Note_off_c, 0, 67, 66
1, 0, Note_on_c, 0, 47, 100
1, 0, Note_on_c, 0, 62, 100
1, 96, Note_on_c, 0, 60, 69
1, 96, Note_off_c, 0, 62, 64
1, 96, Note_on_c, 0, 64, 100
1, 191, Note_off_c, 0, 60, 64
1, 192, Note_off_c, 0, 47, 64
1, 192, Note_on_c, 0, 48, 100
1, 192, Note_on_c, 0, 55, 100
1, 192, Note_on_c, 0, 60, 80
1, 287, Note_off_c, 0, 60, 64
1, 288, Note_on_c, 0, 60, 100
1, 288, Note_on_c, 0, 62, 67
1, 288, Note_off_c, 0, 64, 64
1, 336, Note_on_c, 0, 52, 100
1, 336, Note_off_c, 0, 55, 64
1, 336, Note_on_c, 0, 64, 67
1, 384, Note_on_c, 0, 45, 100
1, 384, Note_off_c, 0, 48, 64
1, 431, Note_off_c, 0, 60, 64
1, 432, Note_on_c, 0, 60, 100
1, 480, Note_on_c, 0, 59, 67
1, 480, Note_off_c, 0, 62, 64
1, 480, Note_off_c, 0, 64, 64
1, 574, Note_off_c, 0, 59, 64
1, 576, Note_on_c, 0, 59, 67
1, 670, Note_off_c, 0, 59, 64
1, 671, Note_off_c, 0, 60, 64
1, 672, Note_on_c, 0, 60, 67
1, 720, Note_off_c, 0, 52, 64
1, 720, Note_on_c, 0, 57, 100
1, 768, Note_off_c, 0, 45, 64
1, 768, Note_on_c, 0, 48, 100
1, 774, Note_on_c, 0, 41, 100
1, 862, Note_off_c, 0, 60, 64
1, 864, Note_off_c, 0, 57, 64
1, 864, Note_on_c, 0, 59, 100
1, 864, Note_on_c, 0, 60, 69
1, 912, Note_off_c, 0, 48, 64
1, 959, Note_off_c, 0, 60, 64
1, 960, Note_off_c, 0, 41, 64
1, 960, Note_on_c, 0, 43, 100
1, 960, Note_on_c, 0, 50, 100
1, 960, Note_on_c, 0, 60, 80
1, 1055, Note_off_c, 0, 60, 64
1, 1056, Note_off_c, 0, 59, 64
1, 1056, Note_on_c, 0, 60, 100
1, 1056, Note_on_c, 0, 62, 67
1, 1104, Note_off_c, 0, 50, 64
1, 1104, Note_on_c, 0, 52, 100
1, 1104, Note_on_c, 0, 64, 67
1, 1152, Note_off_c, 0, 43, 64
1, 1152, Note_on_c, 0, 45, 100
1, 1247, Note_off_c, 0, 60, 64
1, 1248, Note_on_c, 0, 60, 67
1, 1248, Note_off_c, 0, 62, 64
1, 1248, Note_off_c, 0, 64, 64
1, 1344, Note_on_c, 0, 67, 67
1, 1440, Note_off_c, 0, 60, 64
1, 1440, Note_on_c, 0, 64, 67
1, 1440, Note_off_c, 0, 67, 64
1, 1488, Note_off_c, 0, 52, 64
1, 1534, Note_off_c, 0, 64, 64
1, 1536, Note_off_c, 0, 45, 64
1, 1, Note_on_c, 0, 41, 73
1, 1, Note_on_c, 0, 72, 70
1, 37, Note_off_c, 0, 41, 40
1, 37, Note_off_c, 0, 72, 32
1, 95, Note_on_c, 0, 48, 58
1, 131, Note_off_c, 0, 48, 24
1, 191, Note_on_c, 0, 53, 60
1, 192, Note_on_c, 0, 71, 64
1, 228, Note_off_c, 0, 53, 23
1, 228, Note_off_c, 0, 71, 29
1, 288, Note_on_c, 0, 55, 56
1, 324, Note_off_c, 0, 55, 29
1, 384, Note_on_c, 0, 57, 71
1, 384, Note_on_c, 0, 67, 62
1, 420, Note_off_c, 0, 57, 44
1, 420, Note_off_c, 0, 67, 26
1, 480, Note_on_c, 0, 59, 73
1, 516, Note_off_c, 0, 59, 50
1, 576, Note_on_c, 0, 60, 65
1, 576, Note_on_c, 0, 64, 80
1, 612, Note_off_c, 0, 60, 16
1, 612, Note_off_c, 0, 64, 64
1, 672, Note_on_c, 0, 59, 41
1, 708, Note_off_c, 0, 59, 60
1, 768, Note_on_c, 0, 45, 76
1, 769, Note_on_c, 0, 72, 64
1, 804, Note_off_c, 0, 45, 47
1, 804, Note_off_c, 0, 72, 25
1, 864, Note_on_c, 0, 52, 57
1, 900, Note_off_c, 0, 52, 33
1, 960, Note_on_c, 0, 57, 68
1, 960, Note_on_c, 0, 71, 72
1, 996, Note_off_c, 0, 57, 50
1, 996, Note_off_c, 0, 71, 44
1, 1056, Note_on_c, 0, 59, 66
1, 1092, Note_off_c, 0, 59, 67
1, 1151, Note_on_c, 0, 48, 67
1, 1152, Note_on_c, 0, 67, 59
1, 1187, Note_off_c, 0, 48, 27
1, 1188, Note_off_c, 0, 67, 38
1, 1247, Note_on_c, 0, 55, 54
1, 1283, Note_off_c, 0, 55, 10
1, 1344, Note_on_c, 0, 60, 60
1, 1344, Note_on_c, 0, 64, 75
1, 1379, Note_off_c, 0, 60, 52
1, 1379, Note_off_c, 0, 64, 57
1, 1439, Note_on_c, 0, 62, 70
1, 1475, Note_off_c, 0, 62, 49
1, 1536, Note_on_c, 0, 41, 76
1, 1536, Note_on_c, 0, 72, 72
1, 1572, Note_off_c, 0, 41, 34
1, 1572, Note_off_c, 0, 72, 20
1, 1632, Note_on_c, 0, 48, 61
1, 1668, Note_off_c, 0, 48, 19
1, 1728, Note_on_c, 0, 53, 62
1, 1729, Note_on_c, 0, 71, 63
1, 1764, Note_off_c, 0, 53, 11
1, 1765, Note_off_c, 0, 71, 47
1, 1824, Note_on_c, 0, 55, 71
1, 1860, Note_off_c, 0, 55, 28
1, 1920, Note_on_c, 0, 57, 67
1, 1920, Note_on_c, 0, 67, 67
1, 1956, Note_off_c, 0, 57, 50
1, 1956, Note_off_c, 0, 67, 18
1, 2016, Note_on_c, 0, 59, 72
1, 2052, Note_off_c, 0, 59, 47
1, 2112, Note_on_c, 0, 55, 66
1, 2112, Note_on_c, 0, 64, 85
1, 2148, Note_off_c, 0, 55, 21
1, 2148, Note_off_c, 0, 64, 49
1, 2208, Note_on_c, 0, 62, 60
1, 2244, Note_off_c, 0, 62, 71
1, 2304, Note_on_c, 0, 45, 76
1, 2304, Note_on_c, 0, 72, 70
1, 2340, Note_off_c, 0, 45, 46
1, 2340, Note_off_c, 0, 72, 19
1, 2400, Note_on_c, 0, 52, 69
1, 2436, Note_off_c, 0, 52, 36
1, 2496, Note_on_c, 0, 57, 67
1, 2496, Note_on_c, 0, 71, 73
1, 2532, Note_off_c, 0, 57, 49
1, 2532, Note_off_c, 0, 71, 47
1, 2592, Note_on_c, 0, 59, 67
1, 2628, Note_off_c, 0, 59, 59
1, 2688, Note_on_c, 0, 48, 64
1, 2688, Note_on_c, 0, 67, 60
1, 2724, Note_off_c, 0, 48, 32
1, 2724, Note_off_c, 0, 67, 25
1, 2784, Note_on_c, 0, 55, 66
1, 2820, Note_off_c, 0, 55, 24
1, 2880, Note_on_c, 0, 60, 62
1, 2880, Note_on_c, 0, 64, 43
1, 2916, Note_off_c, 0, 60, 23
1, 2916, Note_off_c, 0, 64, 11
1, 2976, Note_on_c, 0, 62, 67
1, 3012, Note_off_c, 0, 62, 44
1, 0, Note_on_c, 0, 57, 121
1, 0, Note_on_c, 0, 93, 65
1, 6, Note_on_c, 0, 72, 121
1, 39, Note_off_c, 0, 93, 65
1, 96, Note_off_c, 0, 57, 64
1, 96, Note_on_c, 0, 59, 66
1, 192, Note_off_c, 0, 59, 64
1, 192, Note_on_c, 0, 64, 121
1, 193, Note_on_c, 0, 60, 121
1, 196, Note_on_c, 0, 84, 56
1, 198, Note_off_c, 0, 72, 64
1, 231, Note_off_c, 0, 84, 59
1, 289, Note_off_c, 0, 60, 64
1, 289, Note_on_c, 0, 62, 121
1, 384, Note_off_c, 0, 64, 64
1, 384, Note_on_c, 0, 67, 121
1, 385, Note_off_c, 0, 62, 64
1, 387, Note_on_c, 0, 71, 121
1, 391, Note_on_c, 0, 88, 62
1, 418, Note_off_c, 0, 88, 77
1, 479, Note_off_c, 0, 67, 64
1, 480, Note_on_c, 0, 64, 84
1, 528, Note_on_c, 0, 69, 98
1, 576, Note_on_c, 0, 59, 121
1, 576, Note_off_c, 0, 64, 64
1, 576, Note_on_c, 0, 67, 121
1, 576, Note_off_c, 0, 69, 64
1, 576, Note_off_c, 0, 71, 64
1, 584, Note_on_c, 0, 83, 50
1, 611, Note_off_c, 0, 83, 57
1, 672, Note_off_c, 0, 59, 64
1, 672, Note_on_c, 0, 60, 88
1, 720, Note_on_c, 0, 64, 98
1, 768, Note_on_c, 0, 57, 121
1, 768, Note_off_c, 0, 60, 64
1, 768, Note_off_c, 0, 64, 64
1, 768, Note_off_c, 0, 67, 64
1, 768, Note_on_c, 0, 93, 69
1, 774, Note_on_c, 0, 72, 121
1, 798, Note_off_c, 0, 93, 101
1, 864, Note_off_c, 0, 57, 64
1, 864, Note_on_c, 0, 59, 66
1, 955, Note_on_c, 0, 84, 57
1, 960, Note_off_c, 0, 59, 64
1, 960, Note_on_c, 0, 64, 121
1, 961, Note_on_c, 0, 60, 121
1, 966, Note_off_c, 0, 72, 64
1, 988, Note_off_c, 0, 84, 55
1, 1057, Note_off_c, 0, 60, 64
1, 1057, Note_on_c, 0, 62, 121
1, 1150, Note_on_c, 0, 88, 65
1, 1152, Note_off_c, 0, 64, 64
1, 1152, Note_on_c, 0, 67, 121
1, 1153, Note_off_c, 0, 62, 64
1, 1155, Note_on_c, 0, 71, 121
1, 1177, Note_off_c, 0, 88, 57
1, 1247, Note_off_c, 0, 67, 64
1, 1248, Note_on_c, 0, 64, 84
1, 1296, Note_on_c, 0, 69, 98
1, 1343, Note_on_c, 0, 91, 60
1, 1344, Note_on_c, 0, 59, 121
1, 1344, Note_off_c, 0, 64, 64
1, 1344, Note_on_c, 0, 67, 121
1, 1344, Note_off_c, 0, 69, 64
1, 1344, Note_off_c, 0, 71, 64
1, 1369, Note_off_c, 0, 91, 110
1, 1440, Note_off_c, 0, 59, 64
1, 1440, Note_on_c, 0, 60, 88
1, 1488, Note_on_c, 0, 64, 98
1, 1536, Note_off_c, 0, 60, 64
1, 1536, Note_off_c, 0, 64, 64
1, 1536, Note_off_c, 0, 67, 64
1, 0, Note_on_c, 0, 57, 89
1, 0, Note_on_c, 0, 72, 96
1, 48, Note_on_c, 0, 79, 93
1, 96, Note_on_c, 0, 71, 88
1, 96, Note_on_c, 0, 76, 93
1, 191, Note_off_c, 0, 72, 66
1, 192, Note_on_c, 0, 72, 91
1, 288, Note_on_c, 0, 84, 98
1, 336, Note_on_c, 0, 83, 96
1, 336, Note_off_c, 0, 84, 66
1, 378, Note_off_c, 0, 76, 66
1, 384, Note_on_c, 0, 53, 92
1, 384, Note_off_c, 0, 57, 66
1, 384, Note_on_c, 0, 69, 102
1, 384, Note_off_c, 0, 71, 66
1, 384, Note_off_c, 0, 72, 66
1, 384, Note_off_c, 0, 79, 66
1, 384, Note_off_c, 0, 83, 66
1, 480, Note_on_c, 0, 72, 93
1, 480, Note_on_c, 0, 76, 93
1, 576, Note_on_c, 0, 79, 92
1, 671, Note_off_c, 0, 72, 66
1, 672, Note_on_c, 0, 72, 87
1, 672, Note_off_c, 0, 76, 66
1, 767, Note_off_c, 0, 72, 66
1, 768, Note_off_c, 0, 53, 66
1, 768, Note_on_c, 0, 57, 89
1, 768, Note_off_c, 0, 69, 66
1, 768, Note_on_c, 0, 72, 96
1, 768, Note_off_c, 0, 79, 66
1, 816, Note_on_c, 0, 79, 93
1, 864, Note_on_c, 0, 71, 88
1, 864, Note_on_c, 0, 76, 93
1, 959, Note_off_c, 0, 72, 66
1, 960, Note_on_c, 0, 72, 91
1, 1056, Note_on_c, 0, 69, 98
1, 1103, Note_off_c, 0, 71, 66
1, 1104, Note_off_c, 0, 69, 66
1, 1104, Note_on_c, 0, 71, 96
1, 1146, Note_off_c, 0, 76, 66
1, 1151, Note_off_c, 0, 72, 66
1, 1152, Note_off_c, 0, 57, 66
1, 1152, Note_on_c, 0, 60, 92
1, 1152, Note_off_c, 0, 71, 66
1, 1152, Note_on_c, 0, 72, 102
1, 1152, Note_off_c, 0, 79, 66
1, 1247, Note_off_c, 0, 72, 66
1, 1248, Note_on_c, 0, 72, 93
1, 1248, Note_on_c, 0, 76, 93
1, 1343, Note_off_c, 0, 76, 66
1, 1344, Note_on_c, 0, 76, 92
1, 1440, Note_on_c, 0, 74, 87
1, 1440, Note_off_c, 0, 76, 66
1, 1487, Note_off_c, 0, 72, 66
1, 1488, Note_on_c, 0, 72, 102
1, 1536, Note_off_c, 0, 60, 66
1, 1536, Note_off_c, 0, 72, 66
1, 1536, Note_off_c, 0, 74, 66
1, 0, Note_on_c, 0, 53, 69
1, 0, Note_on_c, 0, 72, 77
1, 32, Note_off_c, 0, 72, 23
1, 90, Note_off_c, 0, 53, 10
1, 94, Note_on_c, 0, 60, 56
1, 95, Note_on_c, 0, 74, 76
1, 128, Note_off_c, 0, 74, 54
1, 182, Note_off_c, 0, 60, 1
1, 190, Note_on_c, 0, 79, 92
1, 191, Note_on_c, 0, 65, 40
1, 192, Note_on_c, 0, 67, 38
1, 192, Note_on_c, 0, 69, 61
1, 225, Note_off_c, 0, 79, 25
1, 230, Note_off_c, 0, 67, 23
1, 240, Note_off_c, 0, 69, 42
1, 263, Note_off_c, 0, 65, 13
1, 286, Note_on_c, 0, 60, 50
1, 286, Note_on_c, 0, 74, 79
1, 319, Note_off_c, 0, 60, 29
1, 326, Note_off_c, 0, 74, 42
1, 383, Note_on_c, 0, 48, 44
1, 383, Note_on_c, 0, 72, 76
1, 414, Note_off_c, 0, 72, 26
1, 478, Note_on_c, 0, 74, 76
1, 480, Note_on_c, 0, 55, 16
1, 510, Note_off_c, 0, 74, 45
1, 574, Note_on_c, 0, 79, 69
1, 575, Note_on_c, 0, 60, 31
1, 575, Note_on_c, 0, 64, 54
1, 603, Note_off_c, 0, 79, 32
1, 611, Note_off_c, 0, 48, 27
1, 618, Note_off_c, 0, 55, 12
1, 622, Note_off_c, 0, 64, 37
1, 634, Note_off_c, 0, 60, 26
1, 767, Note_on_c, 0, 50, 62
1, 768, Note_on_c, 0, 72, 70
1, 809, Note_off_c, 0, 72, 23
1, 862, Note_on_c, 0, 57, 43
1, 862, Note_on_c, 0, 74, 82
1, 893, Note_off_c, 0, 74, 49
1, 944, Note_off_c, 0, 57, 35
1, 959, Note_on_c, 0, 62, 43
1, 959, Note_on_c, 0, 64, 51
1, 959, Note_on_c, 0, 65, 47
1, 959, Note_on_c, 0, 79, 81
1, 983, Note_off_c, 0, 79, 37
1, 1015, Note_off_c, 0, 65, 19
1, 1025, Note_off_c, 0, 64, 40
1, 1029, Note_off_c, 0, 50, 1
1, 1036, Note_off_c, 0, 62, 30
1, 1053, Note_on_c, 0, 57, 65
1, 1054, Note_on_c, 0, 74, 78
1, 1081, Note_off_c, 0, 57, 66
1, 1084, Note_off_c, 0, 74, 44
1, 1102, Note_on_c, 0, 72, 60
1, 1150, Note_off_c, 0, 72, 20
1, 1152, Note_on_c, 0, 45, 56
1, 1152, Note_on_c, 0, 71, 84
1, 1200, Note_off_c, 0, 71, 32
1, 1246, Note_on_c, 0, 72, 67
1, 1247, Note_on_c, 0, 52, 49
1, 1279, Note_off_c, 0, 72, 29
1, 1342, Note_on_c, 0, 60, 51
1, 1342, Note_on_c, 0, 74, 78
1, 1343, Note_on_c, 0, 57, 44
1, 1344, Note_on_c, 0, 59, 44
1, 1378, Note_off_c, 0, 74, 48
1, 1393, Note_off_c, 0, 60, 20
1, 1394, Note_off_c, 0, 45, 48
1, 1394, Note_off_c, 0, 59, 56
1, 1396, Note_off_c, 0, 52, 1
1, 1399, Note_off_c, 0, 57, 51
1, 1439, Note_on_c, 0, 72, 92
1, 1468, Note_off_c, 0, 72, 64
1, 1536, Note_on_c, 0, 53, 69
1, 1536, Note_on_c, 0, 72, 77
1, 1568, Note_off_c, 0, 72, 23
1, 1626, Note_off_c, 0, 53, 10
1, 1630, Note_on_c, 0, 60, 56
1, 1631, Note_on_c, 0, 74, 76
1, 1664, Note_off_c, 0, 74, 54
1, 1718, Note_off_c, 0, 60, 1
1, 1726, Note_on_c, 0, 79, 92
1, 1727, Note_on_c, 0, 65, 40
1, 1728, Note_on_c, 0, 67, 38
1, 1728, Note_on_c, 0, 69, 61
1, 1761, Note_off_c, 0, 79, 25
1, 1766, Note_off_c, 0, 67, 23
1, 1776, Note_off_c, 0, 69, 42
1, 1799, Note_off_c, 0, 65, 13
1, 1822, Note_on_c, 0, 60, 50
1, 1822, Note_on_c, 0, 74, 79
1, 1855, Note_off_c, 0, 60, 29
1, 1862, Note_off_c, 0, 74, 42
1, 1919, Note_on_c, 0, 48, 44
1, 1919, Note_on_c, 0, 72, 76
1, 1950, Note_off_c, 0, 72, 26
1, 2014, Note_on_c, 0, 74, 76
1, 2016, Note_on_c, 0, 55, 16
1, 2046, Note_off_c, 0, 74, 45
1, 2110, Note_on_c, 0, 79, 69
1, 2111, Note_on_c, 0, 60, 31
1, 2111, Note_on_c, 0, 64, 54
1, 2139, Note_off_c, 0, 79, 32
1, 2147, Note_off_c, 0, 48, 27
1, 2154, Note_off_c, 0, 55, 12
1, 2158, Note_off_c, 0, 64, 37
1, 2170, Note_off_c, 0, 60, 26
1, 2303, Note_on_c, 0, 50, 62
1, 2304, Note_on_c, 0, 72, 70
1, 2345, Note_off_c, 0, 72, 23
1, 2398, Note_on_c, 0, 57, 43
1, 2398, Note_on_c, 0, 74, 82
1, 2429, Note_off_c, 0, 74, 49
1, 2480, Note_off_c, 0, 57, 35
1, 2495, Note_on_c, 0, 62, 43
1, 2495, Note_on_c, 0, 64, 51
1, 2495, Note_on_c, 0, 65, 47
1, 2495, Note_on_c, 0, 79, 81
1, 2519, Note_off_c, 0, 79, 37
1, 2551, Note_off_c, 0, 65, 19
1, 2561, Note_off_c, 0, 64, 40
1, 2565, Note_off_c, 0, 50, 1
1, 2572, Note_off_c, 0, 62, 30
1, 2589, Note_on_c, 0, 57, 65
1, 2590, Note_on_c, 0, 74, 78
1, 2617, Note_off_c, 0, 57, 66
1, 2620, Note_off_c, 0, 74, 44
1, 2638, Note_on_c, 0, 72, 60
1, 2686, Note_off_c, 0, 72, 20
1, 2688, Note_on_c, 0, 45, 56
1, 2688, Note_on_c, 0, 71, 84
1, 2736, Note_off_c, 0, 71, 32
1, 2782, Note_on_c, 0, 72, 67
1, 2783, Note_on_c, 0, 52, 49
1, 2815, Note_off_c, 0, 72, 29
1, 2878, Note_on_c, 0, 60, 51
1, 2878, Note_on_c, 0, 76, 78
1, 2879, Note_on_c, 0, 57, 44
1, 2880, Note_on_c, 0, 59, 44
1, 2914, Note_off_c, 0, 76, 48
1, 2929, Note_off_c, 0, 60, 20
1, 2930, Note_off_c, 0, 45, 48
1, 2930, Note_off_c, 0, 59, 56
1, 2932, Note_off_c, 0, 52, 1
1, 2935, Note_off_c, 0, 57, 51
1, 2975, Note_on_c, 0, 72, 92
1, 3004, Note_off_c, 0, 72, 64
1, 0, Note_on_c, 0, 64, 56
1, 0, Note_on_c, 0, 69, 54
1, 0, Note_on_c, 0, 72, 88
1, 318, Note_off_c, 0, 69, 25
1, 340, Note_off_c, 0, 64, 61
1, 382, Note_on_c, 0, 62, 68
1, 383, Note_on_c, 0, 69, 57
1, 388, Note_on_c, 0, 65, 67
1, 398, Note_off_c, 0, 72, 80
1, 1013, Note_off_c, 0, 69, 66
1, 1032, Note_off_c, 0, 65, 1
1, 1056, Note_off_c, 0, 62, 21
1, 1056, Note_on_c, 0, 67, 82
1, 1104, Note_off_c, 0, 67, 64
1, 1104, Note_on_c, 0, 69, 82
1, 1144, Note_off_c, 0, 69, 64
1, 1148, Note_on_c, 0, 71, 79
1, 1149, Note_on_c, 0, 64, 59
1, 1149, Note_on_c, 0, 67, 80
1, 1333, Note_off_c, 0, 64, 89
1, 1344, Note_on_c, 0, 64, 62
1, 1517, Note_off_c, 0, 71, 1
1, 1519, Note_off_c, 0, 67, 72
1, 1527, Note_off_c, 0, 64, 89
1, 1536, Note_on_c, 0, 64, 56
1, 1536, Note_on_c, 0, 69, 54
1, 1536, Note_on_c, 0, 72, 88
1, 1854, Note_off_c, 0, 69, 25
1, 1876, Note_off_c, 0, 64, 61
1, 1918, Note_on_c, 0, 62, 70
1, 1919, Note_on_c, 0, 69, 59
1, 1924, Note_on_c, 0, 65, 69
1, 1934, Note_off_c, 0, 72, 80
1, 2568, Note_off_c, 0, 69, 66
1, 2572, Note_off_c, 0, 65, 1
1, 2592, Note_on_c, 0, 67, 82
1, 2600, Note_off_c, 0, 62, 21
1, 2640, Note_off_c, 0, 67, 64
1, 2640, Note_on_c, 0, 69, 82
1, 2680, Note_off_c, 0, 69, 64
1, 2684, Note_on_c, 0, 71, 79
1, 2685, Note_on_c, 0, 67, 80
1, 2688, Note_on_c, 0, 64, 59
1, 2871, Note_off_c, 0, 64, 89
1, 2880, Note_on_c, 0, 64, 62
1, 2880, Note_on_c, 0, 74, 81
1, 3053, Note_off_c, 0, 71, 1
1, 3055, Note_off_c, 0, 67, 72
1, 3063, Note_off_c, 0, 64, 89
1, 3072, Note_off_c, 0, 74, 64
1, 0, Note_on_c, 0, 53, 63
1, 0, Note_on_c, 0, 64, 63
1, 0, Note_on_c, 0, 76, 50
1, 96, Note_on_c, 0, 60, 63
1, 96, Note_off_c, 0, 64, 64
1, 144, Note_off_c, 0, 60, 64
1, 144, Note_on_c, 0, 62, 63
1, 192, Note_off_c, 0, 62, 64
1, 192, Note_on_c, 0, 67, 63
1, 192, Note_on_c, 0, 84, 69
1, 288, Note_on_c, 0, 60, 63
1, 288, Note_off_c, 0, 67, 64
1, 336, Note_off_c, 0, 60, 64
1, 336, Note_on_c, 0, 62, 63
1, 384, Note_on_c, 0, 45, 63
1, 384, Note_off_c, 0, 53, 64
1, 384, Note_off_c, 0, 62, 64
1, 384, Note_on_c, 0, 64, 63
1, 384, Note_on_c, 0, 83, 69
1, 384, Note_off_c, 0, 84, 64
1, 480, Note_on_c, 0, 62, 63
1, 480, Note_off_c, 0, 64, 64
1, 528, Note_on_c, 0, 60, 63
1, 528, Note_off_c, 0, 62, 64
1, 576, Note_on_c, 0, 59, 63
1, 576, Note_off_c, 0, 60, 64
1, 576, Note_on_c, 0, 79, 69
1, 576, Note_off_c, 0, 83, 64
1, 672, Note_on_c, 0, 55, 63
1, 672, Note_off_c, 0, 59, 64
1, 767, Note_off_c, 0, 76, 64
1, 768, Note_off_c, 0, 45, 64
1, 768, Note_on_c, 0, 48, 63
1, 768, Note_off_c, 0, 55, 64
1, 768, Note_on_c, 0, 64, 63
1, 768, Note_on_c, 0, 76, 69
1, 768, Note_off_c, 0, 79, 64
1, 864, Note_on_c, 0, 60, 63
1, 864, Note_off_c, 0, 64, 64
1, 912, Note_off_c, 0, 60, 64
1, 912, Note_on_c, 0, 62, 63
1, 960, Note_off_c, 0, 62, 64
1, 960, Note_on_c, 0, 67, 63
1, 960, Note_on_c, 0, 72, 47
1, 1056, Note_on_c, 0, 60, 63
1, 1056, Note_off_c, 0, 67, 64
1, 1104, Note_off_c, 0, 60, 64
1, 1104, Note_on_c, 0, 62, 63
1, 1152, Note_off_c, 0, 62, 64
1, 1152, Note_on_c, 0, 64, 63
1, 1152, Note_off_c, 0, 72, 64
1, 1152, Note_on_c, 0, 74, 47
1, 1248, Note_on_c, 0, 62, 63
1, 1248, Note_off_c, 0, 64, 64
1, 1248, Note_off_c, 0, 76, 64
1, 1296, Note_on_c, 0, 60, 63
1, 1296, Note_off_c, 0, 62, 64
1, 1344, Note_off_c, 0, 48, 64
1, 1344, Note_on_c, 0, 52, 63
1, 1344, Note_off_c, 0, 60, 64
1, 1344, Note_on_c, 0, 69, 63
1, 1344, Note_off_c, 0, 74, 64
1, 1344, Note_on_c, 0, 76, 54
1, 1344, Note_on_c, 0, 79, 69
1, 1440, Note_on_c, 0, 62, 63
1, 1440, Note_off_c, 0, 69, 64
1, 1440, Note_off_c, 0, 79, 64
1, 1440, Note_on_c, 0, 81, 69
1, 1536, Note_off_c, 0, 52, 64
1, 1536, Note_off_c, 0, 62, 64
1, 1536, Note_off_c, 0, 76, 64
1, 1536, Note_off_c, 0, 81, 64
1, 0, Note_on_c, 0, 45, 92
1, 0, Note_on_c, 0, 52, 92
1, 0, Note_on_c, 0, 60, 92
1, 96, Note_on_c, 0, 76, 108
1, 200, Note_off_c, 0, 76, 64
1, 288, Note_on_c, 0, 76, 108
1, 392, Note_off_c, 0, 76, 64
1, 480, Note_on_c, 0, 74, 108
1, 584, Note_off_c, 0, 74, 64
1, 672, Note_on_c, 0, 72, 108
1, 767, Note_off_c, 0, 60, 64
1, 768, Note_on_c, 0, 41, 92
1, 768, Note_off_c, 0, 45, 64
1, 768, Note_off_c, 0, 52, 64
1, 768, Note_on_c, 0, 53, 92
1, 768, Note_on_c, 0, 60, 92
1, 768, Note_on_c, 0, 69, 108
1, 776, Note_off_c, 0, 72, 64
1, 864, Note_on_c, 0, 76, 108
1, 968, Note_off_c, 0, 76, 64
1, 1056, Note_on_c, 0, 76, 108
1, 1160, Note_off_c, 0, 69, 64
1, 1160, Note_off_c, 0, 76, 64
1, 1248, Note_on_c, 0, 74, 108
1, 1352, Note_off_c, 0, 74, 64
1, 1440, Note_on_c, 0, 79, 108
1, 1536, Note_off_c, 0, 41, 64
1, 1536, Note_off_c, 0, 53, 64
1, 1536, Note_off_c, 0, 60, 64
1, 1536, Note_off_c, 0, 79, 64
1, 0, Note_on_c, 0, 65, 59
1, 0, Note_on_c, 0, 69, 67
1, 0, Note_on_c, 0, 76, 67
1, 27, Note_off_c, 0, 76, 52
1, 31, Note_off_c, 0, 65, 21
1, 42, Note_off_c, 0, 69, 45
1, 95, Note_on_c, 0, 65, 56
1, 96, Note_on_c, 0, 69, 53
1, 96, Note_on_c, 0, 74, 51
1, 126, Note_off_c, 0, 65, 27
1, 130, Note_off_c, 0, 74, 47
1, 140, Note_off_c, 0, 69, 39
1, 143, Note_on_c, 0, 72, 54
1, 178, Note_off_c, 0, 72, 30
1, 190, Note_on_c, 0, 65, 64
1, 191, Note_on_c, 0, 69, 78
1, 219, Note_off_c, 0, 65, 28
1, 235, Note_off_c, 0, 69, 50
1, 384, Note_on_c, 0, 65, 69
1, 384, Note_on_c, 0, 76, 54
1, 385, Note_on_c, 0, 69, 55
1, 415, Note_off_c, 0, 65, 30
1, 415, Note_off_c, 0, 76, 54
1, 421, Note_off_c, 0, 69, 47
1, 479, Note_on_c, 0, 65, 65
1, 479, Note_on_c, 0, 69, 61
1, 479, Note_on_c, 0, 74, 72
1, 506, Note_off_c, 0, 65, 31
1, 507, Note_off_c, 0, 74, 53
1, 517, Note_off_c, 0, 69, 40
1, 527, Note_on_c, 0, 72, 54
1, 565, Note_off_c, 0, 72, 36
1, 574, Note_on_c, 0, 65, 71
1, 575, Note_on_c, 0, 69, 76
1, 599, Note_off_c, 0, 65, 47
1, 605, Note_off_c, 0, 69, 66
1, 767, Note_on_c, 0, 69, 78
1, 767, Note_on_c, 0, 72, 52
1, 767, Note_on_c, 0, 79, 82
1, 798, Note_off_c, 0, 79, 46
1, 810, Note_off_c, 0, 69, 48
1, 819, Note_off_c, 0, 72, 9
1, 863, Note_on_c, 0, 69, 72
1, 863, Note_on_c, 0, 76, 78
1, 864, Note_on_c, 0, 72, 28
1, 897, Note_off_c, 0, 76, 63
1, 900, Note_off_c, 0, 69, 45
1, 911, Note_on_c, 0, 74, 70
1, 922, Note_off_c, 0, 72, 17
1, 950, Note_off_c, 0, 74, 43
1, 959, Note_on_c, 0, 69, 75
1, 959, Note_on_c, 0, 72, 69
1, 993, Note_off_c, 0, 69, 51
1, 1003, Note_off_c, 0, 72, 17
1, 1152, Note_on_c, 0, 67, 54
1, 1152, Note_on_c, 0, 71, 61
1, 1152, Note_on_c, 0, 79, 74
1, 1181, Note_off_c, 0, 67, 25
1, 1188, Note_off_c, 0, 79, 30
1, 1196, Note_off_c, 0, 71, 39
1, 1248, Note_on_c, 0, 67, 39
1, 1248, Note_on_c, 0, 71, 56
1, 1248, Note_on_c, 0, 76, 75
1, 1280, Note_off_c, 0, 67, 28
1, 1284, Note_off_c, 0, 76, 66
1, 1287, Note_off_c, 0, 71, 44
1, 1295, Note_on_c, 0, 74, 74
1, 1323, Note_off_c, 0, 74, 56
1, 1342, Note_on_c, 0, 72, 69
1, 1344, Note_on_c, 0, 67, 57
1, 1344, Note_on_c, 0, 71, 67
1, 1374, Note_off_c, 0, 67, 25
1, 1374, Note_off_c, 0, 72, 22
1, 1386, Note_off_c, 0, 71, 41
1, 1536, Note_on_c, 0, 65, 59
1, 1536, Note_on_c, 0, 69, 67
1, 1536, Note_on_c, 0, 76, 67
1, 1563, Note_off_c, 0, 76, 52
1, 1567, Note_off_c, 0, 65, 21
1, 1578, Note_off_c, 0, 69, 45
1, 1631, Note_on_c, 0, 65, 56
1, 1632, Note_on_c, 0, 69, 53
1, 1632, Note_on_c, 0, 74, 51
1, 1662, Note_off_c, 0, 65, 27
1, 1666, Note_off_c, 0, 74, 47
1, 1676, Note_off_c, 0, 69, 39
1, 1679, Note_on_c, 0, 72, 54
1, 1714, Note_off_c, 0, 72, 30
1, 1726, Note_on_c, 0, 65, 64
1, 1727, Note_on_c, 0, 69, 78
1, 1755, Note_off_c, 0, 65, 28
1, 1771, Note_off_c, 0, 69, 50
1, 1920, Note_on_c, 0, 65, 69
1, 1920, Note_on_c, 0, 76, 54
1, 1921, Note_on_c, 0, 69, 55
1, 1951, Note_off_c, 0, 65, 30
1, 1951, Note_off_c, 0, 76, 54
1, 1957, Note_off_c, 0, 69, 47
1, 2015, Note_on_c, 0, 65, 65
1, 2015, Note_on_c, 0, 69, 61
1, 2015, Note_on_c, 0, 74, 72
1, 2042, Note_off_c, 0, 65, 31
1, 2043, Note_off_c, 0, 74, 53
1, 2053, Note_off_c, 0, 69, 40
1, 2063, Note_on_c, 0, 72, 54
1, 2101, Note_off_c, 0, 72, 36
1, 2110, Note_on_c, 0, 65, 71
1, 2111, Note_on_c, 0, 69, 76
1, 2135, Note_off_c, 0, 65, 47
1, 2141, Note_off_c, 0, 69, 66
1, 2303, Note_on_c, 0, 69, 78
1, 2303, Note_on_c, 0, 72, 52
1, 2303, Note_on_c, 0, 79, 82
1, 2334, Note_off_c, 0, 79, 46
1, 2346, Note_off_c, 0, 69, 48
1, 2355, Note_off_c, 0, 72, 9
1, 2399, Note_on_c, 0, 69, 72
1, 2399, Note_on_c, 0, 76, 78
1, 2400, Note_on_c, 0, 72, 28
1, 2433, Note_off_c, 0, 76, 63
1, 2436, Note_off_c, 0, 69, 45
1, 2447, Note_on_c, 0, 74, 70
1, 2458, Note_off_c, 0, 72, 17
1, 2486, Note_off_c, 0, 74, 43
1, 2495, Note_on_c, 0, 69, 75
1, 2495, Note_on_c, 0, 72, 69
1, 2529, Note_off_c, 0, 69, 51
1, 2539, Note_off_c, 0, 72, 17
1, 2688, Note_on_c, 0, 67, 54
1, 2688, Note_on_c, 0, 71, 61
1, 2688, Note_on_c, 0, 79, 74
1, 2717, Note_off_c, 0, 67, 25
1, 2724, Note_off_c, 0, 79, 30
1, 2732, Note_off_c, 0, 71, 39
1, 2784, Note_on_c, 0, 67, 39
1, 2784, Note_on_c, 0, 71, 56
1, 2784, Note_on_c, 0, 76, 75
1, 2816, Note_off_c, 0, 67, 28
1, 2820, Note_off_c, 0, 76, 66
1, 2823, Note_off_c, 0, 71, 44
1, 2831, Note_on_c, 0, 74, 74
1, 2859, Note_off_c, 0, 74, 56
1, 2878, Note_on_c, 0, 72, 69
1, 2880, Note_on_c, 0, 67, 57
1, 2880, Note_on_c, 0, 71, 67
1, 2910, Note_off_c, 0, 67, 25
1, 2910, Note_off_c, 0, 72, 22
1, 2922, Note_off_c, 0, 71, 41
1, 2974, Note_on_c, 0, 74, 69
1, 3006, Note_off_c, 0, 74, 22
1, 0, Note_on_c, 0, 29, 8
1, 0, Note_on_c, 0, 41, 24
1, 0, Note_on_c, 0, 53, 24
1, 48, Note_on_c, 0, 45, 24
1, 96, Note_off_c, 0, 45, 64
1, 96, Note_on_c, 0, 48, 24
1, 144, Note_on_c, 0, 45, 24
1, 288, Note_on_c, 0, 28, 8
1, 288, Note_off_c, 0, 29, 64
1, 288, Note_on_c, 0, 40, 24
1, 288, Note_off_c, 0, 41, 64
1, 288, Note_off_c, 0, 53, 64
1, 312, Note_on_c, 0, 55, 24
1, 336, Note_on_c, 0, 59, 24
1, 384, Note_off_c, 0, 28, 64
1, 384, Note_on_c, 0, 29, 8
1, 384, Note_off_c, 0, 40, 64
1, 384, Note_on_c, 0, 41, 24
1, 384, Note_off_c, 0, 45, 64
1, 384, Note_off_c, 0, 48, 64
1, 384, Note_on_c, 0, 53, 24
1, 384, Note_off_c, 0, 55, 64
1, 384, Note_off_c, 0, 59, 64
1, 432, Note_on_c, 0, 45, 24
1, 480, Note_off_c, 0, 45, 64
1, 480, Note_on_c, 0, 48, 24
1, 528, Note_on_c, 0, 45, 24
1, 672, Note_on_c, 0, 28, 8
1, 672, Note_off_c, 0, 29, 64
1, 672, Note_on_c, 0, 40, 24
1, 672, Note_off_c, 0, 41, 64
1, 672, Note_off_c, 0, 53, 64
1, 696, Note_on_c, 0, 55, 24
1, 720, Note_on_c, 0, 59, 24
1, 768, Note_off_c, 0, 28, 64
1, 768, Note_on_c, 0, 33, 24
1, 768, Note_off_c, 0, 40, 64
1, 768, Note_off_c, 0, 45, 64
1, 768, Note_off_c, 0, 48, 64
1, 768, Note_off_c, 0, 55, 64
1, 768, Note_off_c, 0, 59, 64
1, 792, Note_on_c, 0, 60, 24
1, 816, Note_on_c, 0, 45, 24
1, 816, Note_on_c, 0, 48, 24
1, 840, Note_off_c, 0, 60, 64
1, 959, Note_off_c, 0, 33, 64
1, 960, Note_on_c, 0, 33, 29
1, 960, Note_off_c, 0, 45, 64
1, 960, Note_off_c, 0, 48, 64
1, 960, Note_on_c, 0, 64, 15
1, 1008, Note_on_c, 0, 62, 11
1, 1008, Note_off_c, 0, 64, 64
1, 1056, Note_on_c, 0, 29, 24
1, 1056, Note_off_c, 0, 33, 64
1, 1056, Note_on_c, 0, 45, 24
1, 1056, Note_on_c, 0, 48, 24
1, 1056, Note_on_c, 0, 60, 11
1, 1056, Note_off_c, 0, 62, 64
1, 1104, Note_on_c, 0, 59, 11
1, 1104, Note_off_c, 0, 60, 64
1, 1152, Note_off_c, 0, 29, 64
1, 1152, Note_on_c, 0, 33, 24
1, 1152, Note_off_c, 0, 45, 64
1, 1152, Note_off_c, 0, 48, 64
1, 1152, Note_off_c, 0, 59, 64
1, 1176, Note_on_c, 0, 60, 24
1, 1200, Note_on_c, 0, 45, 24
1, 1200, Note_on_c, 0, 48, 24
1, 1224, Note_off_c, 0, 60, 64
1, 1344, Note_off_c, 0, 33, 64
1, 1344, Note_on_c, 0, 35, 8
1, 1344, Note_off_c, 0, 45, 64
1, 1344, Note_off_c, 0, 48, 64
1, 1344, Note_on_c, 0, 64, 15
1, 1389, Note_off_c, 0, 35, 64
1, 1392, Note_on_c, 0, 36, 5
1, 1392, Note_on_c, 0, 62, 11
1, 1392, Note_off_c, 0, 64, 64
1, 1437, Note_off_c, 0, 36, 64
1, 1440, Note_on_c, 0, 29, 24
1, 1440, Note_on_c, 0, 41, 24
1, 1440, Note_on_c, 0, 60, 11
1, 1440, Note_off_c, 0, 62, 64
1, 1488, Note_on_c, 0, 59, 11
1, 1488, Note_off_c, 0, 60, 64
1, 1535, Note_off_c, 0, 29, 64
1, 1535, Note_off_c, 0, 41, 64
1, 1536, Note_on_c, 0, 29, 8
1, 1536, Note_on_c, 0, 41, 24
1, 1536, Note_on_c, 0, 53, 24
1, 1536, Note_off_c, 0, 59, 64
1, 1536, Note_on_c, 0, 69, 96
1, 1547, Note_on_c, 0, 72, 96
1, 1550, Note_off_c, 0, 69, 64
1, 1560, Note_on_c, 0, 76, 96
1, 1562, Note_off_c, 0, 72, 64
1, 1584, Note_on_c, 0, 45, 24
1, 1632, Note_off_c, 0, 45, 64
1, 1632, Note_on_c, 0, 48, 24
1, 1680, Note_on_c, 0, 45, 24
1, 1728, Note_on_c, 0, 74, 96
1, 1728, Note_off_c, 0, 76, 64
1, 1824, Note_on_c, 0, 28, 8
1, 1824, Note_off_c, 0, 29, 64
1, 1824, Note_on_c, 0, 40, 24
1, 1824, Note_off_c, 0, 41, 64
1, 1824, Note_off_c, 0, 53, 64
1, 1848, Note_on_c, 0, 55, 24
1, 1872, Note_on_c, 0, 59, 24
1, 1920, Note_off_c, 0, 28, 64
1, 1920, Note_on_c, 0, 29, 8
1, 1920, Note_off_c, 0, 40, 64
1, 1920, Note_on_c, 0, 41, 24
1, 1920, Note_off_c, 0, 45, 64
1, 1920, Note_off_c, 0, 48, 64
1, 1920, Note_on_c, 0, 53, 24
1, 1920, Note_off_c, 0, 55, 64
1, 1920, Note_off_c, 0, 59, 64
1, 1920, Note_on_c, 0, 65, 96
1, 1920, Note_off_c, 0, 74, 64
1, 1931, Note_on_c, 0, 69, 96
1, 1934, Note_off_c, 0, 65, 64
1, 1944, Note_on_c, 0, 72, 96
1, 1946, Note_off_c, 0, 69, 64
1, 1968, Note_on_c, 0, 45, 24
1, 2016, Note_off_c, 0, 45, 64
1, 2016, Note_on_c, 0, 48, 24
1, 2064, Note_on_c, 0, 45, 24
1, 2112, Note_on_c, 0, 71, 96
1, 2112, Note_off_c, 0, 72, 64
1, 2208, Note_on_c, 0, 28, 8
1, 2208, Note_off_c, 0, 29, 64
1, 2208, Note_on_c, 0, 40, 24
1, 2208, Note_off_c, 0, 41, 64
1, 2208, Note_off_c, 0, 53, 64
1, 2208, Note_on_c, 0, 67, 97
1, 2208, Note_off_c, 0, 71, 64
1, 2232, Note_on_c, 0, 55, 24
1, 2256, Note_on_c, 0, 59, 24
1, 2304, Note_off_c, 0, 28, 64
1, 2304, Note_on_c, 0, 33, 24
1, 2304, Note_off_c, 0, 40, 64
1, 2304, Note_off_c, 0, 45, 64
1, 2304, Note_off_c, 0, 48, 64
1, 2304, Note_off_c, 0, 55, 64
1, 2304, Note_off_c, 0, 59, 64
1, 2304, Note_off_c, 0, 67, 64
1, 2304, Note_on_c, 0, 81, 96
1, 2309, Note_on_c, 0, 84, 96
1, 2313, Note_off_c, 0, 81, 64
1, 2321, Note_on_c, 0, 88, 96
1, 2323, Note_off_c, 0, 84, 64
1, 2328, Note_on_c, 0, 60, 24
1, 2352, Note_on_c, 0, 45, 24
1, 2352, Note_on_c, 0, 48, 24
1, 2376, Note_off_c, 0, 60, 64
1, 2495, Note_off_c, 0, 33, 64
1, 2496, Note_on_c, 0, 33, 29
1, 2496, Note_off_c, 0, 45, 64
1, 2496, Note_off_c, 0, 48, 64
1, 2496, Note_on_c, 0, 64, 15
1, 2496, Note_on_c, 0, 86, 96
1, 2496, Note_off_c, 0, 88, 64
1, 2544, Note_on_c, 0, 62, 11
1, 2544, Note_off_c, 0, 64, 64
1, 2592, Note_on_c, 0, 29, 24
1, 2592, Note_off_c, 0, 33, 64
1, 2592, Note_on_c, 0, 45, 24
1, 2592, Note_on_c, 0, 48, 24
1, 2592, Note_on_c, 0, 60, 11
1, 2592, Note_off_c, 0, 62, 64
1, 2640, Note_on_c, 0, 59, 11
1, 2640, Note_off_c, 0, 60, 64
1, 2684, Note_off_c, 0, 86, 64
1, 2688, Note_off_c, 0, 29, 64
1, 2688, Note_on_c, 0, 33, 24
1, 2688, Note_off_c, 0, 45, 64
1, 2688, Note_off_c, 0, 48, 64
1, 2688, Note_off_c, 0, 59, 64
1, 2688, Note_on_c, 0, 79, 39
1, 2694, Note_on_c, 0, 81, 39
1, 2697, Note_off_c, 0, 79, 64
1, 2712, Note_on_c, 0, 60, 24
1, 2736, Note_on_c, 0, 45, 24
1, 2736, Note_on_c, 0, 48, 24
1, 2760, Note_off_c, 0, 60, 64
1, 2879, Note_off_c, 0, 81, 64
1, 2880, Note_off_c, 0, 33, 64
1, 2880, Note_on_c, 0, 35, 8
1, 2880, Note_off_c, 0, 45, 64
1, 2880, Note_off_c, 0, 48, 64
1, 2880, Note_on_c, 0, 64, 15
1, 2880, Note_on_c, 0, 71, 96
1, 2925, Note_off_c, 0, 35, 64
1, 2928, Note_on_c, 0, 36, 5
1, 2928, Note_on_c, 0, 62, 11
1, 2928, Note_off_c, 0, 64, 64
1, 2973, Note_off_c, 0, 36, 64
1, 2976, Note_on_c, 0, 29, 24
1, 2976, Note_on_c, 0, 41, 24
1, 2976, Note_on_c, 0, 60, 11
1, 2976, Note_off_c, 0, 62, 64
1, 2976, Note_on_c, 0, 67, 97
1, 2976, Note_off_c, 0, 71, 64
1, 3024, Note_on_c, 0, 59, 11
1, 3024, Note_off_c, 0, 60, 64
1, 3072, Note_off_c, 0, 29, 64
1, 3072, Note_off_c, 0, 41, 64
1, 3072, Note_off_c, 0, 59, 64
1, 3072, Note_off_c, 0, 67, 64
1, 0, Note_on_c, 0, 39, 127
1, 32, Note_off_c, 0, 39, 127
1, 32, Program_c, 0, 30
1, 32, Note_on_c, 0, 42, 127
1, 64, Note_off_c, 0, 42, 127
1, 64, Program_c, 0, 30
1, 64, Note_on_c, 0, 29, 127
1, 96, Note_off_c, 0, 29, 127
1, 96, Program_c, 0, 30
1, 96, Note_on_c, 0, 42, 127
1, 128, Note_off_c, 0, 42, 127
1, 128, Program_c, 0, 30
1, 128, Note_on_c, 0, 29, 127
1, 160, Note_off_c, 0, 29, 127
1, 160, Program_c, 0, 30
1, 160, Note_on_c, 0, 42, 127
1, 192, Note_off_c, 0, 42, 127
1, 192, Program_c, 0, 30
1, 192, Note_on_c, 0, 29, 127
1, 224, Note_off_c, 0, 29, 127
1, 224, Program_c, 0, 30
1, 224, Note_on_c, 0, 42, 127
1, 256, Note_off_c, 0, 42, 127
1, 256, Program_c, 0, 30
1, 256, Note_on_c, 0, 29, 127
1, 448, Note_off_c, 0, 29, 127
1, 448, Program_c, 0, 30
1, 448, Note_on_c, 0, 29, 127
1, 480, Note_off_c, 0, 29, 127
1, 480, Program_c, 0, 30
1, 480, Note_on_c, 0, 42, 127
1, 512, Note_off_c, 0, 42, 127
1, 512, Program_c, 0, 30
1, 512, Note_on_c, 0, 29, 127
1, 544, Note_off_c, 0, 29, 127
1, 544, Program_c, 0, 30
1, 544, Note_on_c, 0, 42, 127
1, 576, Note_off_c, 0, 42, 127
1, 576, Program_c, 0, 30
1, 576, Note_on_c, 0, 29, 127
1, 608, Note_off_c, 0, 29, 127
1, 608, Program_c, 0, 30
1, 608, Note_on_c, 0, 42, 127
1, 640, Note_off_c, 0, 42, 127
1, 640, Program_c, 0, 30
1, 640, Note_on_c, 0, 29, 127
1, 672, Note_off_c, 0, 29, 127
1, 672, Program_c, 0, 30
1, 672, Note_on_c, 0, 42, 127
1, 704, Note_off_c, 0, 42, 127
1, 704, Program_c, 0, 30
1, 704, Note_on_c, 0, 29, 127
1, 896, Note_off_c, 0, 29, 127
1, 896, Program_c, 0, 30
1, 896, Note_on_c, 0, 39, 127
1, 928, Note_off_c, 0, 39, 127
1, 928, Program_c, 0, 30
1, 928, Note_on_c, 0, 42, 127
1, 960, Note_off_c, 0, 42, 127
1, 960, Program_c, 0, 30
1, 960, Note_on_c, 0, 29, 127
1, 992, Note_off_c, 0, 29, 127
1, 992, Program_c, 0, 30
1, 992, Note_on_c, 0, 42, 127
1, 1024, Note_off_c, 0, 42, 127
1, 1024, Program_c, 0, 30
1, 1024, Note_on_c, 0, 29, 127
1, 1056, Note_off_c, 0, 29, 127
1, 1056, Program_c, 0, 30
1, 1056, Note_on_c, 0, 42, 127
1, 1088, Note_off_c, 0, 42, 127
1, 1088, Program_c, 0, 30
1, 1088, Note_on_c, 0, 29, 127
1, 1120, Note_off_c, 0, 29, 127
1, 1120, Program_c, 0, 30
1, 1120, Note_on_c, 0, 42, 127
1, 1152, Note_off_c, 0, 42, 127
1, 1152, Program_c, 0, 30
1, 1152, Note_on_c, 0, 29, 127
1, 1344, Note_off_c, 0, 29, 127
1, 1344, Program_c, 0, 30
1, 1344, Note_on_c, 0, 29, 127
1, 1376, Note_off_c, 0, 29, 127
1, 1376, Program_c, 0, 30
1, 1376, Note_on_c, 0, 42, 127
1, 1408, Note_off_c, 0, 42, 127
1, 1408, Program_c, 0, 30
1, 1408, Note_on_c, 0, 29, 127
1, 1440, Note_off_c, 0, 29, 127
1, 1440, Program_c, 0, 30
1, 1440, Note_on_c, 0, 42, 127
1, 1472, Note_off_c, 0, 42, 127
1, 1472, Program_c, 0, 30
1, 1472, Note_on_c, 0, 29, 127
1, 1504, Note_off_c, 0, 29, 127
1, 1504, Program_c, 0, 30
1, 1504, Note_on_c, 0, 42, 127
1, 1536, Note_off_c, 0, 42, 127
1, 1536, Program_c, 0, 30
1, 1536, Note_on_c, 0, 29, 127
1, 1568, Note_off_c, 0, 29, 127
1, 1568, Program_c, 0, 30
1, 1568, Note_on_c, 0, 42, 127
1, 1600, Note_off_c, 0, 42, 127
1, 1600, Program_c, 0, 30
1, 1600, Note_on_c, 0, 29, 127
1, 1792, Note_off_c, 0, 29, 127
1, 1792, Program_c, 0, 30
1, 1792, Note_on_c, 0, 39, 127
1, 1824, Note_off_c, 0, 39, 127
1, 1824, Program_c, 0, 30
1, 1824, Note_on_c, 0, 42, 127
1, 1856, Note_off_c, 0, 42, 127
1, 1856, Program_c, 0, 30
1, 1856, Note_on_c, 0, 29, 127
1, 1888, Note_off_c, 0, 29, 127
1, 1888, Program_c, 0, 30
1, 1888, Note_on_c, 0, 42, 127
1, 1920, Note_off_c, 0, 42, 127
1, 1920, Program_c, 0, 30
1, 1920, Note_on_c, 0, 29, 127
1, 1952, Note_off_c, 0, 29, 127
1, 1952, Program_c, 0, 30
1, 1952, Note_on_c, 0, 42, 127
1, 1984, Note_off_c, 0, 42, 127
1, 1984, Program_c, 0, 30
1, 1984, Note_on_c, 0, 29, 127
1, 2016, Note_off_c, 0, 29, 127
1, 2016, Program_c, 0, 30
1, 2016, Note_on_c, 0, 42, 127
1, 2048, Note_off_c, 0, 42, 127
1, 2048, Program_c, 0, 30
1, 2048, Note_on_c, 0, 29, 127
1, 2240, Note_off_c, 0, 29, 127
1, 2240, End_track
2, 0, Start_track
2, 0, Tempo, 705882
2, 0, Instrument_name_t, "bass"
2, 0, Program_c, 0, 35
2, 0, Note_on_c, 0, 27, 127
2, 32, Note_off_c, 0, 27, 127
2, 32, Program_c, 0, 35
2, 32, Note_on_c, 0, 30, 127
2, 64, Note_off_c, 0, 30, 127
2, 64, Program_c, 0, 35
2, 64, Note_on_c, 0, 17, 127
2, 96, Note_off_c, 0, 17, 127
2, 96, Program_c, 0, 35
2, 96, Note_on_c, 0, 30, 127
2, 128, Note_off_c, 0, 30, 127
2, 128, Program_c, 0, 35
2, 128, Note_on_c, 0, 17, 127
2, 160, Note_off_c, 0, 17, 127
2, 160, Program_c, 0, 35
2, 160, Note_on_c, 0, 30, 127
2, 192, Note_off_c, 0, 30, 127
2, 192, Program_c, 0, 35
2, 192, Note_on_c, 0, 17, 127
2, 224, Note_off_c, 0, 17, 127
2, 224, Program_c, 0, 35
2, 224, Note_on_c, 0, 30, 127
2, 256, Note_off_c, 0, 30, 127
2, 256, Program_c, 0, 35
2, 256, Note_on_c, 0, 17, 127
2, 448, Note_off_c, 0, 17, 127
2, 448, Program_c, 0, 35
2, 448, Note_on_c, 0, 17, 127
2, 480, Note_off_c, 0, 17, 127
2, 480, Program_c, 0, 35
2, 480, Note_on_c, 0, 30, 127
2, 512, Note_off_c, 0, 30, 127
2, 512, Program_c, 0, 35
2, 512, Note_on_c, 0, 17, 127
2, 544, Note_off_c, 0, 17, 127
2, 544, Program_c, 0, 35
2, 544, Note_on_c, 0, 30, 127
2, 576, Note_off_c, 0, 30, 127
2, 576, Program_c, 0, 35
2, 576, Note_on_c, 0, 17, 127
2, 608, Note_off_c, 0, 17, 127
2, 608, Program_c, 0, 35
2, 608, Note_on_c, 0, 30, 127
2, 640, Note_off_c, 0, 30, 127
2, 640, Program_c, 0, 35
2, 640, Note_on_c, 0, 17, 127
2, 672, Note_off_c, 0, 17, 127
2, 672, Program_c, 0, 35
2, 672, Note_on_c, 0, 30, 127
2, 704, Note_off_c, 0, 30, 127
2, 704, Program_c, 0, 35
2, 704, Note_on_c, 0, 17, 127
2, 896, Note_off_c, 0, 17, 127
2, 896, Program_c, 0, 35
2, 896, Note_on_c, 0, 27, 127
2, 928, Note_off_c, 0, 27, 127
2, 928, Program_c, 0, 35
2, 928, Note_on_c, 0, 30, 127
2, 960, Note_off_c, 0, 30, 127
2, 960, Program_c, 0, 35
2, 960, Note_on_c, 0, 17, 127
2, 992, Note_off_c, 0, 17, 127
2, 992, Program_c, 0, 35
2, 992, Note_on_c, 0, 30, 127
2, 1024, Note_off_c, 0, 30, 127
2, 1024, Program_c, 0, 35
2, 1024, Note_on_c, 0, 17, 127
2, 1056, Note_off_c, 0, 17, 127
2, 1056, Program_c, 0, 35
2, 1056, Note_on_c, 0, 30, 127
2, 1088, Note_off_c, 0, 30, 127
2, 1088, Program_c, 0, 35
2, 1088, Note_on_c, 0, 17, 127
2, 1120, Note_off_c, 0, 17, 127
2, 1120, Program_c, 0, 35
2, 1120, Note_on_c, 0, 30, 127
2, 1152, Note_off_c, 0, 30, 127
2, 1152, Program_c, 0, 35
2, 1152, Note_on_c, 0, 17, 127
2, 1344, Note_off_c, 0, 17, 127
2, 1344, Program_c, 0, 35
2, 1344, Note_on_c, 0, 17, 127
2, 1376, Note_off_c, 0, 17, 127
2, 1376, Program_c, 0, 35
2, 1376, Note_on_c, 0, 30, 127
2, 1408, Note_off_c, 0, 30, 127
2, 1408, Program_c, 0, 35
2, 1408, Note_on_c, 0, 17, 127
2, 1440, Note_off_c, 0, 17, 127
2, 1440, Program_c, 0, 35
2, 1440, Note_on_c, 0, 30, 127
2, 1472, Note_off_c, 0, 30, 127
2, 1472, Program_c, 0, 35
2, 1472, Note_on_c, 0, 17, 127
2, 1504, Note_off_c, 0, 17, 127
2, 1504, Program_c, 0, 35
2, 1504, Note_on_c, 0, 30, 127
2, 1536, Note_off_c, 0, 30, 127
2, 1536, Program_c, 0, 35
2, 1536, Note_on_c, 0, 17, 127
2, 1568, Note_off_c, 0, 17, 127
2, 1568, Program_c, 0, 35
2, 1568, Note_on_c, 0, 30, 127
2, 1600, Note_off_c, 0, 30, 127
2, 1600, Program_c, 0, 35
2, 1600, Note_on_c, 0, 17, 127
2, 1792, Note_off_c, 0, 17, 127
2, 1792, Program_c, 0, 35
2, 1792, Note_on_c, 0, 27, 127
2, 1824, Note_off_c, 0, 27, 127
2, 1824, Program_c, 0, 35
2, 1824, Note_on_c, 0, 30, 127
2, 1856, Note_off_c, 0, 30, 127
2, 1856, Program_c, 0, 35
2, 1856, Note_on_c, 0, 17, 127
2, 1888, Note_off_c, 0, 17, 127
2, 1888, Program_c, 0, 35
2, 1888, Note_on_c, 0, 30, 127
2, 1920, Note_off_c, 0, 30, 127
2, 1920, Program_c, 0, 35
2, 1920, Note_on_c, 0, 17, 127
2, 1952, Note_off_c, 0, 17, 127
2, 1952, Program_c, 0, 35
2, 1952, Note_on_c, 0, 30, 127
2, 1984, Note_off_c, 0, 30, 127
2, 1984, Program_c, 0, 35
2, 1984, Note_on_c, 0, 17, 127
2, 2016, Note_off_c, 0, 17, 127
2, 2016, Program_c, 0, 35
2, 2016, Note_on_c, 0, 30, 127
2, 2048, Note_off_c, 0, 30, 127
2, 2048, Program_c, 0, 35
2, 2048, Note_on_c, 0, 17, 127
2, 2240, Note_off_c, 0, 17, 127
