1, 0, Note_on_c, 0, 57, 64
1, 0, Note_on_c, 0, 76, 73
1, 48, Note_on_c, 0, 72, 62
1, 61, Note_off_c, 0, 76, 52
1, 96, Note_off_c, 0, 57, 64
1, 96, Note_on_c, 0, 64, 55
1, 101, Note_off_c, 0, 72, 37
1, 144, Note_on_c, 0, 71, 60
1, 154, Note_off_c, 0, 64, 26
1, 240, Note_on_c, 0, 69, 60
1, 240, Note_off_c, 0, 71, 3
1, 288, Note_on_c, 0, 71, 60
1, 312, Note_on_c, 0, 57, 64
1, 336, Note_off_c, 0, 69, 64
1, 336, Note_on_c, 0, 72, 60
1, 345, Note_off_c, 0, 57, 64
1, 384, Note_on_c, 0, 57, 64
1, 384, Note_off_c, 0, 71, 64
1, 384, Note_on_c, 0, 76, 73
1, 432, Note_off_c, 0, 72, 64
1, 445, Note_off_c, 0, 76, 64
1, 480, Note_off_c, 0, 57, 64
1, 480, Note_on_c, 0, 64, 55
1, 528, Note_on_c, 0, 71, 60
1, 538, Note_off_c, 0, 64, 64
1, 624, Note_on_c, 0, 69, 60
1, 624, Note_off_c, 0, 71, 64
1, 672, Note_on_c, 0, 71, 60
1, 720, Note_off_c, 0, 69, 64
1, 720, Note_on_c, 0, 72, 60
1, 768, Note_on_c, 0, 57, 63
1, 768, Note_off_c, 0, 71, 64
1, 768, Note_on_c, 0, 76, 73
1, 816, Note_off_c, 0, 72, 64
1, 816, Note_on_c, 0, 72, 62
1, 816, Note_off_c, 0, 72, 64
1, 829, Note_off_c, 0, 76, 64
1, 864, Note_off_c, 0, 57, 64
1, 864, Note_on_c, 0, 64, 55
1, 912, Note_on_c, 0, 71, 60
1, 922, Note_off_c, 0, 64, 64
1, 1008, Note_on_c, 0, 69, 60
1, 1008, Note_off_c, 0, 71, 64
1, 1056, Note_on_c, 0, 71, 60
1, 1080, Note_on_c, 0, 57, 64
1, 1104, Note_off_c, 0, 69, 64
1, 1104, Note_on_c, 0, 72, 60
1, 1113, Note_off_c, 0, 57, 64
1, 1152, Note_on_c, 0, 57, 65
1, 1152, Note_off_c, 0, 71, 64
1, 1152, Note_on_c, 0, 76, 73
1, 1200, Note_off_c, 0, 72, 64
1, 1200, Note_on_c, 0, 72, 62
1, 1200, Note_off_c, 0, 72, 64
1, 1213, Note_off_c, 0, 76, 64
1, 1248, Note_off_c, 0, 57, 64
1, 1248, Note_on_c, 0, 64, 55
1, 1296, Note_on_c, 0, 71, 60
1, 1306, Note_off_c, 0, 64, 64
1, 1392, Note_on_c, 0, 69, 60
1, 1392, Note_off_c, 0, 71, 64
1, 1440, Note_on_c, 0, 72, 60
1, 1488, Note_off_c, 0, 69, 64
1, 1488, Note_on_c, 0, 71, 60
1, 1536, Note_off_c, 0, 71, 64
1, 1536, Note_off_c, 0, 72, 64
1, 1536, Note_on_c, 0, 76, 59
1, 1583, Note_off_c, 0, 76, 36
1, 1584, Note_on_c, 0, 81, 57
1, 1631, Note_off_c, 0, 81, 64
1, 1632, Note_on_c, 0, 65, 58
1, 1680, Note_on_c, 0, 72, 56
1, 1682, Note_off_c, 0, 65, 49
1, 1728, Note_on_c, 0, 57, 36
1, 1728, Note_on_c, 0, 60, 35
1, 1728, Note_on_c, 0, 64, 36
1, 1728, Note_on_c, 0, 76, 42
1, 1736, Note_off_c, 0, 76, 64
1, 1776, Note_on_c, 0, 69, 50
1, 1788, Note_off_c, 0, 72, 52
1, 1813, Note_off_c, 0, 69, 50
1, 1824, Note_off_c, 0, 64, 49
1, 1824, Note_on_c, 0, 64, 59
1, 1824, Note_on_c, 0, 76, 36
1, 1835, Note_off_c, 0, 76, 64
1, 1872, Note_off_c, 0, 60, 47
1, 1872, Note_on_c, 0, 60, 44
1, 1873, Note_off_c, 0, 64, 49
1, 1908, Note_off_c, 0, 60, 47
1, 1920, Note_on_c, 0, 76, 57
1, 1921, Note_off_c, 0, 57, 64
1, 1967, Note_off_c, 0, 76, 64
1, 1968, Note_on_c, 0, 81, 59
1, 2015, Note_off_c, 0, 81, 64
1, 2016, Note_on_c, 0, 65, 58
1, 2064, Note_on_c, 0, 72, 56
1, 2066, Note_off_c, 0, 65, 64
1, 2112, Note_on_c, 0, 57, 36
1, 2112, Note_on_c, 0, 60, 35
1, 2112, Note_on_c, 0, 64, 36
1, 2112, Note_on_c, 0, 76, 42
1, 2120, Note_off_c, 0, 76, 64
1, 2160, Note_on_c, 0, 69, 50
1, 2172, Note_off_c, 0, 72, 64
1, 2197, Note_off_c, 0, 69, 64
1, 2208, Note_off_c, 0, 64, 64
1, 2208, Note_on_c, 0, 64, 59
1, 2208, Note_on_c, 0, 76, 36
1, 2219, Note_off_c, 0, 76, 64
1, 2304, Note_off_c, 0, 64, 64
1, 2304, Note_on_c, 0, 76, 57
1, 2305, Note_off_c, 0, 57, 64
1, 2305, Note_off_c, 0, 60, 64
1, 2351, Note_off_c, 0, 76, 64
1, 2352, Note_on_c, 0, 81, 59
1, 2399, Note_off_c, 0, 81, 64
1, 2400, Note_on_c, 0, 65, 58
1, 2448, Note_on_c, 0, 72, 56
1, 2450, Note_off_c, 0, 65, 64
1, 2496, Note_on_c, 0, 57, 36
1, 2496, Note_on_c, 0, 60, 35
1, 2496, Note_on_c, 0, 64, 36
1, 2496, Note_on_c, 0, 76, 42
1, 2504, Note_off_c, 0, 76, 64
1, 2544, Note_on_c, 0, 69, 50
1, 2556, Note_off_c, 0, 72, 64
1, 2581, Note_off_c, 0, 69, 64
1, 2592, Note_off_c, 0, 64, 64
1, 2592, Note_on_c, 0, 64, 59
1, 2592, Note_on_c, 0, 76, 36
1, 2603, Note_off_c, 0, 76, 64
1, 2640, Note_off_c, 0, 60, 64
1, 2640, Note_on_c, 0, 60, 44
1, 2641, Note_off_c, 0, 64, 64
1, 2676, Note_off_c, 0, 60, 64
1, 2688, Note_on_c, 0, 76, 57
1, 2689, Note_off_c, 0, 57, 64
1, 2735, Note_off_c, 0, 76, 64
1, 2736, Note_on_c, 0, 81, 59
1, 2783, Note_off_c, 0, 81, 64
1, 2784, Note_on_c, 0, 65, 58
1, 2832, Note_on_c, 0, 72, 56
1, 2834, Note_off_c, 0, 65, 64
1, 2880, Note_on_c, 0, 57, 36
1, 2880, Note_on_c, 0, 60, 35
1, 2880, Note_on_c, 0, 64, 36
1, 2880, Note_on_c, 0, 76, 42
1, 2888, Note_off_c, 0, 76, 64
1, 2928, Note_on_c, 0, 69, 50
1, 2940, Note_off_c, 0, 72, 64
1, 2965, Note_off_c, 0, 69, 64
1, 2976, Note_off_c, 0, 64, 64
1, 2976, Note_on_c, 0, 64, 59
1, 2976, Note_on_c, 0, 76, 36
1, 2987, Note_off_c, 0, 76, 64
1, 3072, Note_on_c, 0, 45, 66
1, 3072, Note_off_c, 0, 57, 64
1, 3072, Note_on_c, 0, 57, 62
1, 3072, Note_off_c, 0, 60, 64
1, 3072, Note_off_c, 0, 64, 64
1, 3072, Note_on_c, 0, 72, 76
1, 3168, Note_off_c, 0, 45, 64
1, 3168, Note_on_c, 0, 52, 58
1, 3168, Note_on_c, 0, 71, 60
1, 3172, Note_off_c, 0, 72, 64
1, 3216, Note_on_c, 0, 45, 37
1, 3216, Note_on_c, 0, 69, 50
1, 3220, Note_off_c, 0, 71, 64
1, 3225, Note_off_c, 0, 52, 64
1, 3259, Note_off_c, 0, 69, 64
1, 3264, Note_on_c, 0, 64, 57
1, 3360, Note_on_c, 0, 65, 56
1, 3368, Note_off_c, 0, 64, 64
1, 3408, Note_on_c, 0, 72, 53
1, 3416, Note_off_c, 0, 65, 64
1, 3432, Note_off_c, 0, 72, 64
1, 3453, Note_off_c, 0, 45, 64
1, 3456, Note_on_c, 0, 40, 60
1, 3504, Note_on_c, 0, 72, 63
1, 3552, Note_off_c, 0, 40, 64
1, 3552, Note_on_c, 0, 48, 58
1, 3552, Note_on_c, 0, 71, 64
1, 3552, Note_off_c, 0, 72, 64
1, 3596, Note_off_c, 0, 71, 64
1, 3600, Note_on_c, 0, 40, 47
1, 3600, Note_on_c, 0, 69, 64
1, 3606, Note_off_c, 0, 48, 64
1, 3644, Note_off_c, 0, 69, 64
1, 3648, Note_on_c, 0, 64, 70
1, 3744, Note_on_c, 0, 65, 68
1, 3749, Note_off_c, 0, 64, 64
1, 3770, Note_off_c, 0, 65, 64
1, 3792, Note_on_c, 0, 69, 35
1, 3818, Note_off_c, 0, 69, 64
1, 3828, Note_off_c, 0, 57, 57
1, 3840, Note_off_c, 0, 40, 64
1, 3840, Note_on_c, 0, 45, 66
1, 3840, Note_on_c, 0, 57, 62
1, 3840, Note_on_c, 0, 72, 76
1, 3936, Note_off_c, 0, 45, 64
1, 3936, Note_on_c, 0, 52, 58
1, 3936, Note_on_c, 0, 71, 60
1, 3940, Note_off_c, 0, 72, 64
1, 3984, Note_on_c, 0, 45, 37
1, 3984, Note_on_c, 0, 69, 50
1, 3988, Note_off_c, 0, 71, 64
1, 3993, Note_off_c, 0, 52, 64
1, 4027, Note_off_c, 0, 69, 64
1, 4032, Note_on_c, 0, 64, 57
1, 4128, Note_on_c, 0, 65, 56
1, 4136, Note_off_c, 0, 64, 64
1, 4176, Note_on_c, 0, 72, 53
1, 4184, Note_off_c, 0, 65, 64
1, 4200, Note_off_c, 0, 72, 64
1, 4221, Note_off_c, 0, 45, 64
1, 4224, Note_on_c, 0, 40, 60
1, 4272, Note_on_c, 0, 72, 63
1, 4320, Note_off_c, 0, 40, 64
1, 4320, Note_on_c, 0, 48, 58
1, 4320, Note_on_c, 0, 71, 64
1, 4320, Note_off_c, 0, 72, 64
1, 4364, Note_off_c, 0, 71, 64
1, 4368, Note_on_c, 0, 40, 47
1, 4368, Note_on_c, 0, 69, 64
1, 4374, Note_off_c, 0, 48, 64
1, 4412, Note_off_c, 0, 69, 64
1, 4416, Note_on_c, 0, 64, 70
1, 4512, Note_on_c, 0, 69, 68
1, 4517, Note_off_c, 0, 64, 64
1, 4538, Note_off_c, 0, 69, 64
1, 4560, Note_on_c, 0, 71, 35
1, 4586, Note_off_c, 0, 71, 64
1, 4596, Note_off_c, 0, 57, 57
1, 4608, Note_off_c, 0, 40, 64
1, 4608, Note_on_c, 0, 45, 102
1, 4608, Note_on_c, 0, 57, 102
1, 4615, Note_on_c, 0, 60, 102
1, 4632, Note_off_c, 0, 57, 64
1, 4632, Note_on_c, 0, 64, 102
1, 4639, Note_off_c, 0, 60, 64
1, 4680, Note_on_c, 0, 62, 102
1, 4704, Note_off_c, 0, 45, 64
1, 4704, Note_on_c, 0, 57, 102
1, 4704, Note_off_c, 0, 62, 64
1, 4704, Note_off_c, 0, 64, 64
1, 4728, Note_on_c, 0, 60, 102
1, 4800, Note_off_c, 0, 57, 64
1, 4800, Note_on_c, 0, 59, 102
1, 4800, Note_off_c, 0, 60, 64
1, 4800, Note_on_c, 0, 62, 102
1, 4800, Note_on_c, 0, 64, 102
1, 4872, Note_off_c, 0, 59, 64
1, 4872, Note_on_c, 0, 60, 102
1, 4872, Note_off_c, 0, 62, 64
1, 4872, Note_off_c, 0, 64, 64
1, 4896, Note_on_c, 0, 41, 102
1, 4896, Note_on_c, 0, 53, 102
1, 4896, Note_on_c, 0, 57, 102
1, 4896, Note_off_c, 0, 60, 64
1, 4896, Note_on_c, 0, 64, 102
1, 4944, Note_off_c, 0, 57, 64
1, 4948, Note_on_c, 0, 62, 102
1, 4968, Note_off_c, 0, 53, 64
1, 4968, Note_off_c, 0, 64, 64
1, 4992, Note_off_c, 0, 41, 64
1, 4992, Note_on_c, 0, 60, 102
1, 4996, Note_off_c, 0, 62, 64
1, 5040, Note_on_c, 0, 57, 102
1, 5040, Note_off_c, 0, 60, 64
1, 5088, Note_on_c, 0, 40, 102
1, 5088, Note_off_c, 0, 57, 64
1, 5091, Note_on_c, 0, 50, 100
1, 5091, Note_on_c, 0, 56, 102
1, 5097, Note_on_c, 0, 59, 102
1, 5139, Note_off_c, 0, 56, 64
1, 5160, Note_off_c, 0, 40, 64
1, 5163, Note_off_c, 0, 50, 64
1, 5169, Note_off_c, 0, 59, 64
1, 5184, Note_on_c, 0, 56, 102
1, 5232, Note_off_c, 0, 56, 64
1, 5232, Note_on_c, 0, 59, 102
1, 5280, Note_off_c, 0, 59, 64
1, 5280, Note_on_c, 0, 60, 100
1, 5328, Note_off_c, 0, 60, 64
1, 5328, Note_on_c, 0, 62, 100
1, 5376, Note_on_c, 0, 45, 102
1, 5376, Note_on_c, 0, 57, 102
1, 5376, Note_off_c, 0, 62, 64
1, 5383, Note_on_c, 0, 60, 102
1, 5400, Note_off_c, 0, 57, 64
1, 5400, Note_on_c, 0, 64, 102
1, 5407, Note_off_c, 0, 60, 64
1, 5448, Note_on_c, 0, 62, 102
1, 5472, Note_off_c, 0, 45, 64
1, 5472, Note_on_c, 0, 57, 102
1, 5472, Note_off_c, 0, 62, 64
1, 5472, Note_off_c, 0, 64, 64
1, 5496, Note_on_c, 0, 60, 102
1, 5568, Note_off_c, 0, 57, 64
1, 5568, Note_on_c, 0, 59, 102
1, 5568, Note_off_c, 0, 60, 64
1, 5568, Note_on_c, 0, 62, 102
1, 5568, Note_on_c, 0, 64, 102
1, 5640, Note_off_c, 0, 59, 64
1, 5640, Note_on_c, 0, 60, 102
1, 5640, Note_off_c, 0, 62, 64
1, 5640, Note_off_c, 0, 64, 64
1, 5664, Note_on_c, 0, 41, 102
1, 5664, Note_on_c, 0, 53, 102
1, 5664, Note_on_c, 0, 57, 102
1, 5664, Note_off_c, 0, 60, 64
1, 5664, Note_on_c, 0, 64, 102
1, 5712, Note_off_c, 0, 57, 64
1, 5716, Note_on_c, 0, 62, 102
1, 5736, Note_off_c, 0, 53, 64
1, 5736, Note_off_c, 0, 64, 64
1, 5760, Note_off_c, 0, 41, 64
1, 5760, Note_on_c, 0, 60, 102
1, 5764, Note_off_c, 0, 62, 64
1, 5808, Note_on_c, 0, 57, 102
1, 5808, Note_off_c, 0, 60, 64
1, 5856, Note_on_c, 0, 40, 102
1, 5856, Note_off_c, 0, 57, 64
1, 5859, Note_on_c, 0, 50, 100
1, 5859, Note_on_c, 0, 56, 102
1, 5865, Note_on_c, 0, 59, 102
1, 5907, Note_off_c, 0, 56, 64
1, 5928, Note_off_c, 0, 40, 64
1, 5931, Note_off_c, 0, 50, 64
1, 5937, Note_off_c, 0, 59, 64
1, 5952, Note_on_c, 0, 56, 102
1, 6000, Note_off_c, 0, 56, 64
1, 6000, Note_on_c, 0, 59, 102
1, 6048, Note_off_c, 0, 59, 64
1, 6048, Note_on_c, 0, 60, 100
1, 6096, Note_off_c, 0, 60, 64
1, 6096, Note_on_c, 0, 62, 100
1, 6144, Note_on_c, 0, 38, 35
1, 6144, Note_off_c, 0, 62, 64
1, 6151, Note_on_c, 0, 53, 35
1, 6168, Note_off_c, 0, 38, 64
1, 6175, Note_off_c, 0, 53, 64
1, 6240, Note_on_c, 0, 53, 35
1, 6240, Note_on_c, 0, 65, 35
1, 6264, Note_off_c, 0, 53, 64
1, 6264, Note_off_c, 0, 65, 64
1, 6272, Note_on_c, 0, 57, 35
1, 6296, Note_off_c, 0, 57, 64
1, 6304, Note_on_c, 0, 64, 35
1, 6328, Note_off_c, 0, 64, 64
1, 6336, Note_on_c, 0, 50, 35
1, 6336, Note_on_c, 0, 65, 35
1, 6342, Note_on_c, 0, 57, 35
1, 6360, Note_off_c, 0, 50, 64
1, 6360, Note_off_c, 0, 65, 64
1, 6366, Note_off_c, 0, 57, 64
1, 6404, Note_on_c, 0, 64, 35
1, 6428, Note_off_c, 0, 64, 64
1, 6432, Note_on_c, 0, 62, 35
1, 6433, Note_on_c, 0, 53, 35
1, 6456, Note_off_c, 0, 62, 64
1, 6457, Note_off_c, 0, 53, 64
1, 6496, Note_on_c, 0, 57, 35
1, 6522, Note_off_c, 0, 57, 64
1, 6528, Note_on_c, 0, 38, 35
1, 6535, Note_on_c, 0, 53, 35
1, 6552, Note_off_c, 0, 38, 64
1, 6559, Note_off_c, 0, 53, 64
1, 6624, Note_on_c, 0, 53, 35
1, 6624, Note_on_c, 0, 65, 35
1, 6648, Note_off_c, 0, 53, 64
1, 6648, Note_off_c, 0, 65, 64
1, 6656, Note_on_c, 0, 57, 35
1, 6680, Note_off_c, 0, 57, 64
1, 6688, Note_on_c, 0, 64, 35
1, 6712, Note_off_c, 0, 64, 64
1, 6720, Note_on_c, 0, 50, 35
1, 6720, Note_on_c, 0, 65, 35
1, 6726, Note_on_c, 0, 57, 35
1, 6744, Note_off_c, 0, 50, 64
1, 6744, Note_off_c, 0, 65, 64
1, 6750, Note_off_c, 0, 57, 64
1, 6788, Note_on_c, 0, 64, 35
1, 6812, Note_off_c, 0, 64, 64
1, 6816, Note_on_c, 0, 50, 35
1, 6816, Note_on_c, 0, 62, 35
1, 6817, Note_on_c, 0, 53, 35
1, 6840, Note_off_c, 0, 50, 64
1, 6840, Note_off_c, 0, 62, 64
1, 6841, Note_off_c, 0, 53, 64
1, 6912, Note_on_c, 0, 33, 35
1, 6912, Note_on_c, 0, 45, 35
1, 6919, Note_on_c, 0, 52, 35
1, 6936, Note_off_c, 0, 33, 64
1, 6936, Note_off_c, 0, 45, 64
1, 6943, Note_off_c, 0, 52, 64
1, 7008, Note_on_c, 0, 52, 35
1, 7008, Note_on_c, 0, 64, 35
1, 7032, Note_off_c, 0, 52, 64
1, 7040, Note_on_c, 0, 57, 35
1, 7040, Note_off_c, 0, 64, 64
1, 7072, Note_off_c, 0, 57, 64
1, 7072, Note_on_c, 0, 60, 35
1, 7104, Note_on_c, 0, 45, 35
1, 7104, Note_off_c, 0, 60, 64
1, 7104, Note_on_c, 0, 64, 35
1, 7128, Note_off_c, 0, 45, 64
1, 7136, Note_off_c, 0, 64, 64
1, 7168, Note_on_c, 0, 62, 35
1, 7200, Note_on_c, 0, 60, 36
1, 7200, Note_off_c, 0, 62, 64
1, 7201, Note_on_c, 0, 52, 35
1, 7225, Note_off_c, 0, 52, 64
1, 7234, Note_off_c, 0, 60, 64
1, 7264, Note_on_c, 0, 57, 35
1, 7296, Note_on_c, 0, 33, 35
1, 7296, Note_on_c, 0, 45, 35
1, 7296, Note_off_c, 0, 57, 64
1, 7303, Note_on_c, 0, 52, 35
1, 7320, Note_off_c, 0, 33, 64
1, 7320, Note_off_c, 0, 45, 64
1, 7327, Note_off_c, 0, 52, 64
1, 7392, Note_on_c, 0, 52, 35
1, 7392, Note_on_c, 0, 64, 35
1, 7416, Note_off_c, 0, 52, 64
1, 7424, Note_on_c, 0, 57, 35
1, 7424, Note_off_c, 0, 64, 64
1, 7456, Note_off_c, 0, 57, 64
1, 7456, Note_on_c, 0, 60, 35
1, 7488, Note_on_c, 0, 45, 35
1, 7488, Note_off_c, 0, 60, 64
1, 7488, Note_on_c, 0, 64, 35
1, 7512, Note_off_c, 0, 45, 64
1, 7520, Note_off_c, 0, 64, 64
1, 7552, Note_on_c, 0, 62, 35
1, 7584, Note_on_c, 0, 60, 36
1, 7584, Note_off_c, 0, 62, 64
1, 7585, Note_on_c, 0, 52, 35
1, 7609, Note_off_c, 0, 52, 64
1, 7618, Note_off_c, 0, 60, 64
1, 7648, Note_on_c, 0, 57, 35
1, 7680, Note_off_c, 0, 57, 64
1, 7680, Note_on_c, 0, 65, 99
1, 7728, Note_on_c, 0, 69, 99
1, 7776, Note_on_c, 0, 72, 99
1, 7824, Note_on_c, 0, 74, 99
1, 7872, Note_on_c, 0, 76, 99
1, 8016, Note_off_c, 0, 65, 64
1, 8064, Note_on_c, 0, 64, 99
1, 8064, Note_off_c, 0, 69, 64
1, 8064, Note_off_c, 0, 72, 64
1, 8064, Note_off_c, 0, 74, 64
1, 8064, Note_off_c, 0, 76, 64
1, 8112, Note_on_c, 0, 68, 99
1, 8160, Note_on_c, 0, 71, 99
1, 8208, Note_on_c, 0, 74, 99
1, 8256, Note_on_c, 0, 79, 99
1, 8352, Note_on_c, 0, 77, 99
1, 8352, Note_off_c, 0, 79, 64
1, 8400, Note_off_c, 0, 64, 64
1, 8448, Note_on_c, 0, 62, 99
1, 8448, Note_off_c, 0, 68, 64
1, 8448, Note_off_c, 0, 71, 64
1, 8448, Note_off_c, 0, 74, 64
1, 8448, Note_off_c, 0, 77, 64
1, 8496, Note_on_c, 0, 65, 99
1, 8544, Note_on_c, 0, 69, 99
1, 8592, Note_on_c, 0, 72, 99
1, 8640, Note_on_c, 0, 74, 99
1, 8682, Note_off_c, 0, 65, 64
1, 8688, Note_off_c, 0, 69, 64
1, 8688, Note_on_c, 0, 69, 99
1, 8736, Note_off_c, 0, 62, 64
1, 8736, Note_on_c, 0, 62, 99
1, 8832, Note_off_c, 0, 62, 64
1, 8832, Note_on_c, 0, 64, 99
1, 8832, Note_off_c, 0, 69, 64
1, 8832, Note_off_c, 0, 72, 64
1, 8877, Note_on_c, 0, 68, 99
1, 8912, Note_off_c, 0, 74, 64
1, 8928, Note_on_c, 0, 71, 99
1, 8976, Note_on_c, 0, 74, 99
1, 9024, Note_on_c, 0, 79, 99
1, 9120, Note_on_c, 0, 77, 99
1, 9120, Note_off_c, 0, 79, 64
1, 9168, Note_off_c, 0, 64, 64
1, 9213, Note_off_c, 0, 68, 64
1, 9216, Note_on_c, 0, 45, 75
1, 9216, Note_on_c, 0, 52, 75
1, 9216, Note_on_c, 0, 64, 75
1, 9216, Note_on_c, 0, 69, 75
1, 9216, Note_off_c, 0, 71, 64
1, 9216, Note_off_c, 0, 74, 64
1, 9216, Note_on_c, 0, 76, 75
1, 9216, Note_off_c, 0, 77, 64
1, 9229, Note_on_c, 0, 83, 75
1, 9312, Note_off_c, 0, 69, 64
1, 9312, Note_on_c, 0, 69, 75
1, 9312, Note_off_c, 0, 76, 64
1, 9408, Note_off_c, 0, 69, 64
1, 9408, Note_on_c, 0, 76, 75
1, 9504, Note_on_c, 0, 72, 75
1, 9600, Note_on_c, 0, 71, 75
1, 9600, Note_off_c, 0, 76, 64
1, 9696, Note_on_c, 0, 69, 75
1, 9696, Note_off_c, 0, 72, 64
1, 9792, Note_off_c, 0, 71, 64
1, 9792, Note_on_c, 0, 71, 75
1, 9888, Note_off_c, 0, 69, 64
1, 9888, Note_on_c, 0, 72, 75
1, 9983, Note_off_c, 0, 52, 64
1, 9984, Note_off_c, 0, 45, 64
1, 9984, Note_off_c, 0, 64, 64
1, 9984, Note_on_c, 0, 67, 75
1, 9984, Note_off_c, 0, 71, 64
1, 9984, Note_off_c, 0, 72, 64
1, 9985, Note_on_c, 0, 41, 75
1, 9985, Note_on_c, 0, 53, 75
1, 9985, Note_on_c, 0, 57, 75
1, 9985, Note_on_c, 0, 72, 75
1, 9990, Note_on_c, 0, 76, 75
1, 9997, Note_off_c, 0, 83, 64
1, 10080, Note_off_c, 0, 67, 64
1, 10080, Note_on_c, 0, 67, 75
1, 10176, Note_off_c, 0, 67, 64
1, 10176, Note_off_c, 0, 72, 64
1, 10176, Note_on_c, 0, 72, 75
1, 10272, Note_on_c, 0, 71, 75
1, 10368, Note_on_c, 0, 69, 75
1, 10368, Note_off_c, 0, 72, 64
1, 10464, Note_off_c, 0, 71, 64
1, 10464, Note_on_c, 0, 71, 75
1, 10560, Note_off_c, 0, 69, 64
1, 10560, Note_on_c, 0, 72, 75
1, 10656, Note_off_c, 0, 71, 64
1, 10656, Note_on_c, 0, 74, 75
1, 10747, Note_off_c, 0, 41, 64
1, 10752, Note_off_c, 0, 53, 64
1, 10752, Note_off_c, 0, 57, 64
1, 10752, Note_on_c, 0, 69, 108
1, 10752, Note_off_c, 0, 72, 64
1, 10752, Note_off_c, 0, 74, 64
1, 10752, Note_off_c, 0, 76, 64
1, 10752, Note_on_c, 0, 81, 108
1, 10756, Note_on_c, 0, 84, 108
1, 10767, Note_on_c, 0, 88, 108
1, 10834, Note_off_c, 0, 88, 64
1, 10848, Note_on_c, 0, 88, 108
1, 10932, Note_off_c, 0, 84, 64
1, 10944, Note_on_c, 0, 76, 76
1, 11112, Note_off_c, 0, 76, 64
1, 11112, Note_off_c, 0, 88, 64
1, 11118, Note_off_c, 0, 69, 64
1, 11118, Note_off_c, 0, 81, 64
1, 11135, Note_on_c, 0, 65, 108
1, 11135, Note_on_c, 0, 77, 108
1, 11139, Note_on_c, 0, 81, 108
1, 11145, Note_on_c, 0, 84, 108
1, 11232, Note_on_c, 0, 88, 127
1, 11306, Note_off_c, 0, 84, 64
1, 11316, Note_off_c, 0, 65, 64
1, 11316, Note_off_c, 0, 77, 64
1, 11320, Note_off_c, 0, 81, 64
1, 11328, Note_on_c, 0, 64, 108
1, 11328, Note_on_c, 0, 76, 108
1, 11328, Note_off_c, 0, 88, 64
1, 11333, Note_on_c, 0, 79, 108
1, 11334, Note_on_c, 0, 83, 108
1, 11336, Note_on_c, 0, 86, 108
1, 11508, Note_off_c, 0, 86, 64
1, 11520, Note_off_c, 0, 64, 64
1, 11520, Note_on_c, 0, 69, 108
1, 11520, Note_off_c, 0, 76, 64
1, 11520, Note_off_c, 0, 79, 64
1, 11520, Note_on_c, 0, 81, 108
1, 11520, Note_off_c, 0, 83, 64
1, 11524, Note_on_c, 0, 84, 108
1, 11535, Note_on_c, 0, 88, 108
1, 11602, Note_off_c, 0, 88, 64
1, 11616, Note_on_c, 0, 88, 108
1, 11880, Note_off_c, 0, 88, 64
1, 11886, Note_off_c, 0, 69, 64
1, 11886, Note_off_c, 0, 81, 64
1, 11891, Note_off_c, 0, 84, 64
1, 11903, Note_on_c, 0, 65, 108
1, 11903, Note_on_c, 0, 77, 108
1, 11907, Note_on_c, 0, 81, 108
1, 11913, Note_on_c, 0, 84, 108
1, 11999, Note_on_c, 0, 88, 108
1, 12074, Note_off_c, 0, 84, 64
1, 12076, Note_off_c, 0, 88, 64
1, 12084, Note_off_c, 0, 65, 64
1, 12084, Note_off_c, 0, 77, 64
1, 12088, Note_off_c, 0, 81, 64
1, 12096, Note_on_c, 0, 64, 108
1, 12096, Note_on_c, 0, 76, 108
1, 12101, Note_on_c, 0, 79, 108
1, 12101, Note_on_c, 0, 86, 108
1, 12102, Note_on_c, 0, 83, 108
1, 12288, Note_on_c, 0, 41, 120
1, 12288, Note_off_c, 0, 64, 64
1, 12288, Note_off_c, 0, 76, 64
1, 12288, Note_off_c, 0, 79, 64
1, 12288, Note_off_c, 0, 83, 64
1, 12288, Note_off_c, 0, 86, 64
1, 12294, Note_on_c, 0, 65, 120
1, 12384, Note_off_c, 0, 41, 64
1, 12384, Note_on_c, 0, 53, 96
1, 12480, Note_on_c, 0, 60, 68
1, 12483, Note_on_c, 0, 72, 120
1, 12534, Note_off_c, 0, 65, 64
1, 12576, Note_on_c, 0, 67, 90
1, 12672, Note_off_c, 0, 53, 64
1, 12672, Note_off_c, 0, 60, 64
1, 12672, Note_off_c, 0, 67, 64
1, 12675, Note_off_c, 0, 72, 64
1, 12677, Note_on_c, 0, 70, 120
1, 12768, Note_on_c, 0, 36, 120
1, 12768, Note_on_c, 0, 48, 120
1, 12772, Note_on_c, 0, 73, 120
1, 12864, Note_off_c, 0, 36, 64
1, 12864, Note_on_c, 0, 55, 120
1, 12868, Note_off_c, 0, 73, 64
1, 12963, Note_on_c, 0, 72, 120
1, 13056, Note_on_c, 0, 41, 120
1, 13056, Note_off_c, 0, 48, 64
1, 13056, Note_off_c, 0, 55, 64
1, 13056, Note_off_c, 0, 70, 64
1, 13056, Note_off_c, 0, 72, 64
1, 13062, Note_on_c, 0, 65, 120
1, 13152, Note_off_c, 0, 41, 64
1, 13152, Note_on_c, 0, 53, 96
1, 13248, Note_on_c, 0, 60, 68
1, 13251, Note_on_c, 0, 72, 120
1, 13302, Note_off_c, 0, 65, 64
1, 13344, Note_on_c, 0, 67, 90
1, 13440, Note_off_c, 0, 53, 64
1, 13440, Note_off_c, 0, 60, 64
1, 13440, Note_off_c, 0, 67, 64
1, 13443, Note_off_c, 0, 72, 64
1, 13445, Note_on_c, 0, 70, 120
1, 13536, Note_on_c, 0, 36, 120
1, 13536, Note_on_c, 0, 48, 120
1, 13540, Note_on_c, 0, 73, 120
1, 13632, Note_off_c, 0, 36, 64
1, 13632, Note_on_c, 0, 55, 120
1, 13636, Note_off_c, 0, 73, 64
1, 13731, Note_on_c, 0, 72, 120
1, 13824, Note_on_c, 0, 45, 80
1, 13824, Note_off_c, 0, 48, 64
1, 13824, Note_off_c, 0, 55, 64
1, 13824, Note_on_c, 0, 64, 80
1, 13824, Note_off_c, 0, 70, 64
1, 13824, Note_off_c, 0, 72, 64
1, 13827, Note_on_c, 0, 69, 62
1, 13828, Note_on_c, 0, 72, 85
1, 13832, Note_on_c, 0, 76, 85
1, 13920, Note_on_c, 0, 86, 16
1, 13927, Note_off_c, 0, 69, 0
1, 13936, Note_off_c, 0, 64, 0
1, 13938, Note_off_c, 0, 72, 0
1, 13944, Note_off_c, 0, 76, 0
1, 13968, Note_on_c, 0, 83, 16
1, 13968, Note_off_c, 0, 86, 64
1, 14016, Note_on_c, 0, 64, 91
1, 14016, Note_on_c, 0, 81, 16
1, 14016, Note_off_c, 0, 83, 64
1, 14019, Note_on_c, 0, 69, 80
1, 14021, Note_on_c, 0, 72, 101
1, 14024, Note_on_c, 0, 76, 85
1, 14064, Note_off_c, 0, 81, 64
1, 14064, Note_on_c, 0, 83, 16
1, 14090, Note_off_c, 0, 64, 0
1, 14102, Note_off_c, 0, 69, 0
1, 14109, Note_off_c, 0, 72, 0
1, 14110, Note_off_c, 0, 76, 0
1, 14112, Note_off_c, 0, 83, 64
1, 14112, Note_on_c, 0, 83, 16
1, 14160, Note_off_c, 0, 83, 64
1, 14208, Note_on_c, 0, 40, 62
1, 14208, Note_off_c, 0, 45, 0
1, 14208, Note_on_c, 0, 62, 62
1, 14211, Note_on_c, 0, 68, 75
1, 14213, Note_on_c, 0, 71, 85
1, 14216, Note_on_c, 0, 76, 64
1, 14316, Note_off_c, 0, 62, 0
1, 14319, Note_off_c, 0, 76, 0
1, 14322, Note_off_c, 0, 68, 0
1, 14330, Note_off_c, 0, 71, 0
1, 14400, Note_on_c, 0, 62, 64
1, 14403, Note_on_c, 0, 68, 64
1, 14404, Note_on_c, 0, 71, 85
1, 14408, Note_on_c, 0, 76, 80
1, 14462, Note_off_c, 0, 62, 0
1, 14475, Note_off_c, 0, 68, 0
1, 14487, Note_off_c, 0, 71, 0
1, 14491, Note_off_c, 0, 76, 0
1, 14496, Note_on_c, 0, 52, 100
1, 14592, Note_off_c, 0, 40, 0
1, 14592, Note_on_c, 0, 45, 80
1, 14592, Note_off_c, 0, 52, 64
1, 14592, Note_on_c, 0, 64, 80
1, 14595, Note_on_c, 0, 69, 62
1, 14596, Note_on_c, 0, 72, 85
1, 14600, Note_on_c, 0, 76, 85
1, 14688, Note_on_c, 0, 86, 16
1, 14695, Note_off_c, 0, 69, 0
1, 14704, Note_off_c, 0, 64, 0
1, 14706, Note_off_c, 0, 72, 0
1, 14712, Note_off_c, 0, 76, 0
1, 14736, Note_on_c, 0, 83, 16
1, 14736, Note_off_c, 0, 86, 64
1, 14784, Note_on_c, 0, 64, 91
1, 14784, Note_on_c, 0, 81, 16
1, 14784, Note_off_c, 0, 83, 64
1, 14788, Note_on_c, 0, 69, 80
1, 14789, Note_on_c, 0, 72, 101
1, 14792, Note_on_c, 0, 76, 85
1, 14832, Note_off_c, 0, 81, 64
1, 14832, Note_on_c, 0, 83, 16
1, 14859, Note_off_c, 0, 64, 0
1, 14870, Note_off_c, 0, 69, 0
1, 14877, Note_off_c, 0, 72, 0
1, 14878, Note_off_c, 0, 76, 0
1, 14880, Note_off_c, 0, 83, 64
1, 14880, Note_on_c, 0, 83, 16
1, 14928, Note_off_c, 0, 83, 64
1, 14976, Note_on_c, 0, 40, 62
1, 14976, Note_off_c, 0, 45, 0
1, 14976, Note_on_c, 0, 62, 62
1, 14979, Note_on_c, 0, 68, 75
1, 14980, Note_on_c, 0, 71, 85
1, 14984, Note_on_c, 0, 76, 64
1, 15084, Note_off_c, 0, 62, 0
1, 15087, Note_off_c, 0, 76, 0
1, 15089, Note_off_c, 0, 68, 0
1, 15097, Note_off_c, 0, 71, 0
1, 15168, Note_on_c, 0, 41, 64
1, 15168, Note_on_c, 0, 62, 64
1, 15171, Note_on_c, 0, 68, 64
1, 15172, Note_on_c, 0, 71, 85
1, 15176, Note_on_c, 0, 76, 80
1, 15230, Note_off_c, 0, 62, 0
1, 15243, Note_off_c, 0, 68, 0
1, 15255, Note_off_c, 0, 71, 0
1, 15259, Note_off_c, 0, 76, 0
1, 15264, Note_off_c, 0, 40, 0
1, 15264, Note_on_c, 0, 55, 100
1, 15264, Note_on_c, 0, 84, 16
1, 15312, Note_on_c, 0, 74, 100
1, 15312, Note_off_c, 0, 84, 64
1, 15360, Note_off_c, 0, 41, 0
1, 15360, Note_off_c, 0, 55, 64
1, 15360, Note_on_c, 0, 57, 60
1, 15360, Note_on_c, 0, 69, 62
1, 15360, Note_on_c, 0, 72, 63
1, 15360, Note_off_c, 0, 74, 64
1, 15360, Note_on_c, 0, 76, 64
1, 15408, Note_off_c, 0, 57, 50
1, 15408, Note_on_c, 0, 64, 64
1, 15408, Note_off_c, 0, 69, 7
1, 15408, Note_off_c, 0, 72, 5
1, 15408, Note_off_c, 0, 76, 33
1, 15452, Note_off_c, 0, 64, 59
1, 15456, Note_on_c, 0, 76, 75
1, 15480, Note_on_c, 0, 72, 59
1, 15480, Note_off_c, 0, 76, 29
1, 15504, Note_on_c, 0, 69, 65
1, 15504, Note_off_c, 0, 72, 46
1, 15550, Note_off_c, 0, 69, 48
1, 15552, Note_on_c, 0, 69, 61
1, 15552, Note_on_c, 0, 72, 70
1, 15552, Note_on_c, 0, 77, 74
1, 15600, Note_on_c, 0, 57, 61
1, 15600, Note_off_c, 0, 69, 35
1, 15600, Note_off_c, 0, 72, 31
1, 15600, Note_off_c, 0, 77, 24
1, 15642, Note_off_c, 0, 57, 49
1, 15648, Note_on_c, 0, 65, 63
1, 15648, Note_on_c, 0, 77, 76
1, 15672, Note_off_c, 0, 77, 56
1, 15672, Note_on_c, 0, 79, 69
1, 15696, Note_off_c, 0, 65, 55
1, 15696, Note_off_c, 0, 79, 44
1, 15696, Note_on_c, 0, 81, 67
1, 15716, Note_off_c, 0, 81, 62
1, 15744, Note_on_c, 0, 56, 74
1, 15744, Note_on_c, 0, 68, 62
1, 15744, Note_on_c, 0, 71, 65
1, 15744, Note_on_c, 0, 74, 67
1, 15753, Note_off_c, 0, 68, 47
1, 15753, Note_off_c, 0, 71, 47
1, 15758, Note_off_c, 0, 74, 36
1, 15792, Note_on_c, 0, 62, 67
1, 15793, Note_off_c, 0, 56, 49
1, 15840, Note_on_c, 0, 68, 64
1, 15840, Note_on_c, 0, 71, 77
1, 15840, Note_on_c, 0, 74, 67
1, 15848, Note_off_c, 0, 62, 53
1, 15852, Note_off_c, 0, 71, 49
1, 15853, Note_off_c, 0, 68, 37
1, 15856, Note_off_c, 0, 74, 35
1, 15888, Note_on_c, 0, 62, 68
1, 15908, Note_off_c, 0, 62, 44
1, 15912, Note_on_c, 0, 68, 67
1, 15912, Note_on_c, 0, 71, 86
1, 15912, Note_on_c, 0, 74, 72
1, 15924, Note_off_c, 0, 71, 42
1, 15926, Note_off_c, 0, 68, 36
1, 15928, Note_off_c, 0, 74, 36
1, 15960, Note_on_c, 0, 68, 64
1, 15960, Note_on_c, 0, 71, 73
1, 15960, Note_on_c, 0, 74, 68
1, 15974, Note_off_c, 0, 68, 42
1, 15974, Note_off_c, 0, 71, 46
1, 15976, Note_off_c, 0, 74, 47
1, 15984, Note_on_c, 0, 62, 61
1, 15997, Note_off_c, 0, 62, 46
1, 16032, Note_on_c, 0, 69, 68
1, 16032, Note_on_c, 0, 72, 68
1, 16048, Note_off_c, 0, 69, 64
1, 16048, Note_off_c, 0, 72, 64
1, 16080, Note_on_c, 0, 71, 68
1, 16096, Note_off_c, 0, 71, 64
1, 16128, Note_on_c, 0, 57, 60
1, 16128, Note_on_c, 0, 69, 62
1, 16128, Note_on_c, 0, 72, 63
1, 16128, Note_on_c, 0, 76, 64
1, 16176, Note_off_c, 0, 57, 50
1, 16176, Note_on_c, 0, 64, 64
1, 16176, Note_off_c, 0, 69, 7
1, 16176, Note_off_c, 0, 72, 5
1, 16176, Note_off_c, 0, 76, 33
1, 16220, Note_off_c, 0, 64, 59
1, 16224, Note_on_c, 0, 76, 75
1, 16248, Note_on_c, 0, 72, 59
1, 16248, Note_off_c, 0, 76, 29
1, 16272, Note_on_c, 0, 69, 65
1, 16272, Note_off_c, 0, 72, 46
1, 16318, Note_off_c, 0, 69, 48
1, 16320, Note_on_c, 0, 69, 61
1, 16320, Note_on_c, 0, 72, 70
1, 16320, Note_on_c, 0, 77, 74
1, 16368, Note_on_c, 0, 57, 61
1, 16368, Note_off_c, 0, 69, 35
1, 16368, Note_off_c, 0, 72, 31
1, 16368, Note_off_c, 0, 77, 24
1, 16410, Note_off_c, 0, 57, 49
1, 16416, Note_on_c, 0, 65, 63
1, 16416, Note_on_c, 0, 77, 76
1, 16440, Note_off_c, 0, 77, 56
1, 16440, Note_on_c, 0, 79, 69
1, 16464, Note_off_c, 0, 65, 55
1, 16464, Note_off_c, 0, 79, 44
1, 16464, Note_on_c, 0, 81, 67
1, 16484, Note_off_c, 0, 81, 62
1, 16512, Note_on_c, 0, 56, 74
1, 16512, Note_on_c, 0, 68, 62
1, 16512, Note_on_c, 0, 71, 65
1, 16512, Note_on_c, 0, 74, 67
1, 16521, Note_off_c, 0, 68, 47
1, 16521, Note_off_c, 0, 71, 47
1, 16526, Note_off_c, 0, 74, 36
1, 16560, Note_on_c, 0, 62, 67
1, 16561, Note_off_c, 0, 56, 49
1, 16608, Note_on_c, 0, 68, 64
1, 16608, Note_on_c, 0, 71, 77
1, 16608, Note_on_c, 0, 74, 67
1, 16616, Note_off_c, 0, 62, 53
1, 16620, Note_off_c, 0, 71, 49
1, 16621, Note_off_c, 0, 68, 37
1, 16624, Note_off_c, 0, 74, 35
1, 16656, Note_on_c, 0, 62, 68
1, 16676, Note_off_c, 0, 62, 44
1, 16680, Note_on_c, 0, 68, 67
1, 16680, Note_on_c, 0, 71, 86
1, 16680, Note_on_c, 0, 74, 72
1, 16692, Note_off_c, 0, 71, 42
1, 16694, Note_off_c, 0, 68, 36
1, 16696, Note_off_c, 0, 74, 36
1, 16728, Note_on_c, 0, 68, 64
1, 16728, Note_on_c, 0, 71, 73
1, 16728, Note_on_c, 0, 74, 68
1, 16742, Note_off_c, 0, 68, 42
1, 16742, Note_off_c, 0, 71, 46
1, 16744, Note_off_c, 0, 74, 47
1, 16752, Note_on_c, 0, 62, 61
1, 16765, Note_off_c, 0, 62, 46
1, 16800, Note_on_c, 0, 69, 68
1, 16800, Note_on_c, 0, 72, 68
1, 16816, Note_off_c, 0, 69, 64
1, 16816, Note_off_c, 0, 72, 64
1, 16848, Note_on_c, 0, 71, 68
1, 16864, Note_off_c, 0, 71, 64
1, 16896, Note_on_c, 0, 33, 77
1, 16896, Note_on_c, 0, 45, 59
1, 16896, Note_on_c, 0, 48, 60
1, 16896, Note_on_c, 0, 52, 59
1, 16896, Note_on_c, 0, 64, 65
1, 16990, Note_off_c, 0, 45, 64
1, 16990, Note_off_c, 0, 48, 64
1, 16990, Note_off_c, 0, 52, 64
1, 16992, Note_on_c, 0, 40, 70
1, 16992, Note_on_c, 0, 76, 108
1, 16997, Note_off_c, 0, 33, 64
1, 17079, Note_off_c, 0, 76, 64
1, 17088, Note_on_c, 0, 33, 68
1, 17088, Note_on_c, 0, 69, 127
1, 17090, Note_off_c, 0, 40, 64
1, 17136, Note_off_c, 0, 33, 64
1, 17136, Note_on_c, 0, 41, 79
1, 17136, Note_on_c, 0, 65, 67
1, 17141, Note_off_c, 0, 64, 60
1, 17184, Note_on_c, 0, 57, 57
1, 17187, Note_off_c, 0, 65, 58
1, 17232, Note_on_c, 0, 65, 59
1, 17235, Note_off_c, 0, 57, 64
1, 17275, Note_off_c, 0, 69, 64
1, 17280, Note_on_c, 0, 33, 68
1, 17280, Note_on_c, 0, 45, 56
1, 17280, Note_on_c, 0, 48, 53
1, 17280, Note_on_c, 0, 52, 49
1, 17280, Note_on_c, 0, 64, 67
1, 17283, Note_off_c, 0, 41, 64
1, 17286, Note_off_c, 0, 65, 53
1, 17372, Note_off_c, 0, 45, 64
1, 17372, Note_off_c, 0, 48, 64
1, 17372, Note_off_c, 0, 52, 64
1, 17376, Note_on_c, 0, 40, 79
1, 17376, Note_on_c, 0, 76, 108
1, 17377, Note_off_c, 0, 33, 64
1, 17463, Note_off_c, 0, 76, 64
1, 17472, Note_on_c, 0, 33, 69
1, 17472, Note_off_c, 0, 40, 64
1, 17472, Note_on_c, 0, 57, 68
1, 17472, Note_off_c, 0, 64, 59
1, 17472, Note_on_c, 0, 69, 127
1, 17520, Note_on_c, 0, 41, 84
1, 17520, Note_on_c, 0, 65, 76
1, 17521, Note_off_c, 0, 57, 53
1, 17523, Note_off_c, 0, 33, 64
1, 17616, Note_on_c, 0, 38, 70
1, 17616, Note_on_c, 0, 62, 76
1, 17616, Note_off_c, 0, 65, 64
1, 17619, Note_off_c, 0, 41, 64
1, 17659, Note_off_c, 0, 69, 64
1, 17664, Note_on_c, 0, 33, 77
1, 17664, Note_on_c, 0, 45, 57
1, 17664, Note_on_c, 0, 48, 60
1, 17664, Note_on_c, 0, 52, 59
1, 17664, Note_off_c, 0, 62, 57
1, 17664, Note_on_c, 0, 64, 65
1, 17665, Note_off_c, 0, 38, 64
1, 17752, Note_off_c, 0, 48, 64
1, 17753, Note_off_c, 0, 45, 64
1, 17753, Note_off_c, 0, 52, 64
1, 17760, Note_on_c, 0, 40, 70
1, 17760, Note_on_c, 0, 76, 108
1, 17765, Note_off_c, 0, 33, 64
1, 17847, Note_off_c, 0, 76, 64
1, 17856, Note_on_c, 0, 33, 68
1, 17856, Note_on_c, 0, 69, 127
1, 17858, Note_off_c, 0, 40, 64
1, 17904, Note_off_c, 0, 33, 64
1, 17904, Note_on_c, 0, 41, 79
1, 17904, Note_on_c, 0, 65, 67
1, 17909, Note_off_c, 0, 64, 64
1, 17952, Note_on_c, 0, 57, 57
1, 17955, Note_off_c, 0, 65, 64
1, 18000, Note_on_c, 0, 65, 59
1, 18003, Note_off_c, 0, 57, 64
1, 18043, Note_off_c, 0, 69, 64
1, 18048, Note_on_c, 0, 33, 68
1, 18048, Note_on_c, 0, 45, 49
1, 18048, Note_on_c, 0, 48, 52
1, 18048, Note_on_c, 0, 52, 50
1, 18048, Note_on_c, 0, 64, 67
1, 18051, Note_off_c, 0, 41, 64
1, 18054, Note_off_c, 0, 65, 64
1, 18131, Note_off_c, 0, 45, 64
1, 18131, Note_off_c, 0, 48, 64
1, 18134, Note_off_c, 0, 52, 64
1, 18144, Note_on_c, 0, 40, 79
1, 18144, Note_on_c, 0, 76, 108
1, 18145, Note_off_c, 0, 33, 64
1, 18231, Note_off_c, 0, 76, 64
1, 18240, Note_on_c, 0, 33, 69
1, 18240, Note_off_c, 0, 40, 64
1, 18240, Note_on_c, 0, 57, 68
1, 18240, Note_off_c, 0, 64, 64
1, 18240, Note_on_c, 0, 69, 127
1, 18288, Note_on_c, 0, 41, 84
1, 18288, Note_on_c, 0, 65, 76
1, 18289, Note_off_c, 0, 57, 64
1, 18291, Note_off_c, 0, 33, 64
1, 18384, Note_on_c, 0, 38, 70
1, 18384, Note_on_c, 0, 62, 76
1, 18384, Note_off_c, 0, 65, 64
1, 18387, Note_off_c, 0, 41, 64
1, 18427, Note_off_c, 0, 69, 64
1, 18432, Note_off_c, 0, 38, 64
1, 18432, Note_on_c, 0, 41, 104
1, 18432, Note_on_c, 0, 53, 104
1, 18432, Note_off_c, 0, 62, 64
1, 18438, Note_on_c, 0, 50, 104
1, 18528, Note_on_c, 0, 57, 104
1, 18576, Note_on_c, 0, 60, 104
1, 18624, Note_off_c, 0, 57, 64
1, 18624, Note_on_c, 0, 59, 104
1, 18672, Note_off_c, 0, 60, 64
1, 18720, Note_on_c, 0, 57, 104
1, 18816, Note_off_c, 0, 41, 64
1, 18816, Note_on_c, 0, 45, 104
1, 18816, Note_off_c, 0, 50, 64
1, 18816, Note_off_c, 0, 53, 64
1, 18816, Note_off_c, 0, 57, 64
1, 18816, Note_off_c, 0, 59, 64
1, 18816, Note_on_c, 0, 60, 127
1, 18864, Note_on_c, 0, 48, 104
1, 18912, Note_on_c, 0, 52, 104
1, 18960, Note_off_c, 0, 48, 64
1, 18960, Note_on_c, 0, 53, 104
1, 18984, Note_off_c, 0, 60, 64
1, 19008, Note_off_c, 0, 52, 64
1, 19008, Note_on_c, 0, 59, 104
1, 19104, Note_on_c, 0, 48, 104
1, 19109, Note_on_c, 0, 57, 104
1, 19176, Note_off_c, 0, 59, 64
1, 19200, Note_on_c, 0, 41, 104
1, 19200, Note_off_c, 0, 45, 64
1, 19200, Note_off_c, 0, 48, 64
1, 19200, Note_off_c, 0, 53, 64
1, 19200, Note_on_c, 0, 53, 104
1, 19200, Note_off_c, 0, 57, 64
1, 19206, Note_on_c, 0, 50, 104
1, 19296, Note_on_c, 0, 57, 104
1, 19344, Note_on_c, 0, 60, 104
1, 19392, Note_off_c, 0, 57, 64
1, 19392, Note_on_c, 0, 59, 104
1, 19440, Note_off_c, 0, 60, 64
1, 19488, Note_on_c, 0, 57, 104
1, 19584, Note_off_c, 0, 41, 64
1, 19584, Note_on_c, 0, 45, 104
1, 19584, Note_off_c, 0, 50, 64
1, 19584, Note_off_c, 0, 53, 64
1, 19584, Note_off_c, 0, 57, 64
1, 19584, Note_off_c, 0, 59, 64
1, 19584, Note_on_c, 0, 60, 127
1, 19632, Note_on_c, 0, 48, 104
1, 19680, Note_on_c, 0, 52, 104
1, 19728, Note_off_c, 0, 48, 64
1, 19728, Note_on_c, 0, 53, 104
1, 19752, Note_off_c, 0, 60, 64
1, 19776, Note_off_c, 0, 52, 64
1, 19776, Note_on_c, 0, 59, 104
1, 19872, Note_on_c, 0, 48, 104
1, 19877, Note_on_c, 0, 57, 104
1, 19944, Note_off_c, 0, 59, 64
1, 19968, Note_off_c, 0, 45, 64
1, 19968, Note_off_c, 0, 48, 64
1, 19968, Note_on_c, 0, 50, 72
1, 19968, Note_off_c, 0, 53, 64
1, 19968, Note_on_c, 0, 53, 72
1, 19968, Note_off_c, 0, 57, 64
1, 19968, Note_on_c, 0, 57, 72
1, 20064, Note_off_c, 0, 50, 64
1, 20064, Note_off_c, 0, 53, 64
1, 20064, Note_off_c, 0, 57, 64
1, 20064, Note_on_c, 0, 72, 80
1, 20112, Note_on_c, 0, 71, 80
1, 20112, Note_off_c, 0, 72, 64
1, 20160, Note_on_c, 0, 69, 80
1, 20160, Note_off_c, 0, 71, 64
1, 20208, Note_off_c, 0, 69, 64
1, 20352, Note_on_c, 0, 45, 72
1, 20352, Note_on_c, 0, 52, 72
1, 20352, Note_on_c, 0, 60, 72
1, 20544, Note_off_c, 0, 45, 64
1, 20544, Note_off_c, 0, 52, 64
1, 20544, Note_off_c, 0, 60, 64
1, 20544, Note_on_c, 0, 65, 80
1, 20616, Note_off_c, 0, 65, 64
1, 20640, Note_on_c, 0, 64, 80
1, 20688, Note_off_c, 0, 64, 64
1, 20736, Note_on_c, 0, 50, 72
1, 20736, Note_on_c, 0, 53, 72
1, 20736, Note_on_c, 0, 57, 72
1, 20832, Note_off_c, 0, 50, 64
1, 20832, Note_off_c, 0, 53, 64
1, 20832, Note_off_c, 0, 57, 64
1, 20832, Note_on_c, 0, 72, 80
1, 20880, Note_on_c, 0, 67, 80
1, 20880, Note_on_c, 0, 71, 80
1, 20880, Note_off_c, 0, 72, 64
1, 20928, Note_off_c, 0, 71, 64
1, 20952, Note_off_c, 0, 67, 64
1, 21120, Note_on_c, 0, 45, 72
1, 21120, Note_on_c, 0, 52, 72
1, 21120, Note_on_c, 0, 60, 72
1, 21312, Note_off_c, 0, 45, 64
1, 21312, Note_off_c, 0, 52, 64
1, 21312, Note_off_c, 0, 60, 64
1, 21312, Note_on_c, 0, 65, 80
1, 21384, Note_off_c, 0, 65, 64
1, 21408, Note_on_c, 0, 64, 80
1, 21456, Note_off_c, 0, 64, 64
1, 21504, Note_on_c, 0, 45, 90
1, 21504, Note_on_c, 0, 88, 120
1, 21510, Note_on_c, 0, 57, 90
1, 21515, Note_on_c, 0, 69, 90
1, 21576, Note_off_c, 0, 88, 64
1, 21576, Note_on_c, 0, 88, 120
1, 21588, Note_on_c, 0, 83, 120
1, 21588, Note_off_c, 0, 88, 64
1, 21600, Note_on_c, 0, 60, 90
1, 21600, Note_off_c, 0, 83, 64
1, 21600, Note_on_c, 0, 84, 120
1, 21606, Note_off_c, 0, 57, 64
1, 21611, Note_off_c, 0, 69, 64
1, 21690, Note_off_c, 0, 84, 64
1, 21696, Note_on_c, 0, 64, 90
1, 21696, Note_on_c, 0, 84, 120
1, 21786, Note_off_c, 0, 84, 64
1, 21792, Note_on_c, 0, 69, 90
1, 21792, Note_on_c, 0, 83, 120
1, 21840, Note_off_c, 0, 83, 64
1, 21888, Note_off_c, 0, 45, 64
1, 21888, Note_on_c, 0, 53, 90
1, 21888, Note_off_c, 0, 60, 64
1, 21888, Note_on_c, 0, 62, 90
1, 21888, Note_off_c, 0, 64, 64
1, 21888, Note_off_c, 0, 69, 64
1, 21888, Note_on_c, 0, 89, 120
1, 21912, Note_off_c, 0, 89, 64
1, 21936, Note_on_c, 0, 59, 90
1, 21936, Note_on_c, 0, 88, 120
1, 21960, Note_off_c, 0, 88, 64
1, 21984, Note_on_c, 0, 60, 90
1, 21984, Note_on_c, 0, 86, 120
1, 22008, Note_off_c, 0, 62, 64
1, 22008, Note_off_c, 0, 86, 64
1, 22032, Note_on_c, 0, 84, 120
1, 22056, Note_off_c, 0, 59, 64
1, 22056, Note_off_c, 0, 84, 64
1, 22080, Note_on_c, 0, 64, 90
1, 22080, Note_on_c, 0, 86, 120
1, 22176, Note_off_c, 0, 60, 64
1, 22176, Note_on_c, 0, 62, 90
1, 22176, Note_off_c, 0, 64, 64
1, 22176, Note_on_c, 0, 84, 120
1, 22176, Note_off_c, 0, 86, 64
1, 22200, Note_off_c, 0, 84, 64
1, 22224, Note_on_c, 0, 86, 120
1, 22248, Note_off_c, 0, 86, 64
1, 22272, Note_on_c, 0, 45, 90
1, 22272, Note_off_c, 0, 53, 64
1, 22272, Note_off_c, 0, 62, 64
1, 22272, Note_on_c, 0, 88, 120
1, 22278, Note_on_c, 0, 57, 90
1, 22283, Note_on_c, 0, 69, 90
1, 22337, Note_off_c, 0, 88, 64
1, 22344, Note_on_c, 0, 88, 120
1, 22356, Note_on_c, 0, 83, 120
1, 22356, Note_off_c, 0, 88, 64
1, 22368, Note_on_c, 0, 60, 90
1, 22368, Note_off_c, 0, 83, 64
1, 22368, Note_on_c, 0, 84, 120
1, 22374, Note_off_c, 0, 57, 64
1, 22379, Note_off_c, 0, 69, 64
1, 22458, Note_off_c, 0, 84, 64
1, 22464, Note_on_c, 0, 64, 90
1, 22464, Note_on_c, 0, 84, 120
1, 22554, Note_off_c, 0, 84, 64
1, 22560, Note_on_c, 0, 69, 90
1, 22560, Note_on_c, 0, 83, 120
1, 22608, Note_off_c, 0, 83, 64
1, 22656, Note_off_c, 0, 45, 64
1, 22656, Note_on_c, 0, 53, 90
1, 22656, Note_off_c, 0, 60, 64
1, 22656, Note_on_c, 0, 62, 90
1, 22656, Note_off_c, 0, 64, 64
1, 22656, Note_off_c, 0, 69, 64
1, 22656, Note_on_c, 0, 89, 120
1, 22680, Note_off_c, 0, 89, 64
1, 22704, Note_on_c, 0, 59, 90
1, 22704, Note_on_c, 0, 88, 120
1, 22728, Note_off_c, 0, 88, 64
1, 22752, Note_on_c, 0, 60, 90
1, 22752, Note_on_c, 0, 86, 120
1, 22776, Note_off_c, 0, 62, 64
1, 22776, Note_off_c, 0, 86, 64
1, 22824, Note_off_c, 0, 59, 64
1, 22848, Note_on_c, 0, 64, 90
1, 22848, Note_on_c, 0, 84, 120
1, 22894, Note_off_c, 0, 84, 64
1, 22932, Note_on_c, 0, 84, 127
1, 22944, Note_off_c, 0, 60, 64
1, 22944, Note_on_c, 0, 62, 90
1, 22944, Note_off_c, 0, 64, 64
1, 22944, Note_on_c, 0, 83, 127
1, 22944, Note_off_c, 0, 84, 64
1, 23040, Note_off_c, 0, 53, 64
1, 23040, Note_on_c, 0, 57, 66
1, 23040, Note_on_c, 0, 60, 57
1, 23040, Note_off_c, 0, 62, 64
1, 23040, Note_on_c, 0, 64, 79
1, 23040, Note_off_c, 0, 83, 64
1, 23112, Note_on_c, 0, 45, 68
1, 23135, Note_off_c, 0, 64, 57
1, 23136, Note_on_c, 0, 65, 73
1, 23184, Note_off_c, 0, 45, 64
1, 23184, Note_on_c, 0, 45, 54
1, 23184, Note_off_c, 0, 45, 64
1, 23184, Note_on_c, 0, 64, 79
1, 23194, Note_off_c, 0, 65, 48
1, 23246, Note_off_c, 0, 60, 50
1, 23280, Note_on_c, 0, 60, 68
1, 23280, Note_off_c, 0, 64, 57
1, 23328, Note_on_c, 0, 62, 70
1, 23333, Note_off_c, 0, 60, 53
1, 23368, Note_off_c, 0, 57, 37
1, 23376, Note_on_c, 0, 64, 81
1, 23379, Note_off_c, 0, 62, 55
1, 23424, Note_on_c, 0, 52, 56
1, 23424, Note_on_c, 0, 55, 58
1, 23424, Note_on_c, 0, 59, 74
1, 23426, Note_off_c, 0, 64, 63
1, 23496, Note_on_c, 0, 40, 22
1, 23520, Note_on_c, 0, 64, 73
1, 23568, Note_off_c, 0, 40, 64
1, 23568, Note_on_c, 0, 40, 11
1, 23568, Note_off_c, 0, 40, 64
1, 23568, Note_on_c, 0, 62, 70
1, 23574, Note_off_c, 0, 59, 44
1, 23577, Note_off_c, 0, 64, 44
1, 23659, Note_off_c, 0, 62, 56
1, 23664, Note_on_c, 0, 64, 69
1, 23712, Note_on_c, 0, 65, 68
1, 23714, Note_off_c, 0, 64, 52
1, 23759, Note_off_c, 0, 52, 36
1, 23760, Note_on_c, 0, 67, 68
1, 23764, Note_off_c, 0, 55, 33
1, 23765, Note_off_c, 0, 65, 58
1, 23800, Note_on_c, 0, 81, 42
1, 23807, Note_on_c, 0, 84, 46
1, 23808, Note_on_c, 0, 57, 66
1, 23808, Note_on_c, 0, 60, 57
1, 23808, Note_on_c, 0, 64, 79
1, 23819, Note_on_c, 0, 88, 57
1, 23823, Note_off_c, 0, 67, 44
1, 23880, Note_on_c, 0, 45, 68
1, 23903, Note_off_c, 0, 64, 64
1, 23904, Note_on_c, 0, 65, 73
1, 23926, Note_off_c, 0, 88, 64
1, 23952, Note_off_c, 0, 45, 64
1, 23952, Note_on_c, 0, 45, 54
1, 23952, Note_off_c, 0, 45, 64
1, 23952, Note_on_c, 0, 64, 79
1, 23953, Note_on_c, 0, 88, 58
1, 23962, Note_off_c, 0, 65, 64
1, 24014, Note_off_c, 0, 60, 64
1, 24048, Note_on_c, 0, 60, 68
1, 24048, Note_off_c, 0, 64, 64
1, 24096, Note_on_c, 0, 62, 70
1, 24101, Note_off_c, 0, 60, 64
1, 24108, Note_off_c, 0, 88, 64
1, 24112, Note_off_c, 0, 84, 64
1, 24119, Note_off_c, 0, 81, 64
1, 24136, Note_off_c, 0, 57, 64
1, 24144, Note_on_c, 0, 64, 81
1, 24147, Note_off_c, 0, 62, 64
1, 24179, Note_on_c, 0, 76, 29
1, 24182, Note_on_c, 0, 79, 36
1, 24188, Note_on_c, 0, 83, 39
1, 24192, Note_on_c, 0, 52, 56
1, 24192, Note_on_c, 0, 55, 58
1, 24192, Note_on_c, 0, 59, 74
1, 24194, Note_off_c, 0, 64, 64
1, 24264, Note_on_c, 0, 40, 22
1, 24288, Note_on_c, 0, 64, 73
1, 24328, Note_off_c, 0, 83, 64
1, 24332, Note_on_c, 0, 83, 47
1, 24336, Note_off_c, 0, 40, 64
1, 24336, Note_on_c, 0, 40, 11
1, 24336, Note_off_c, 0, 40, 64
1, 24336, Note_on_c, 0, 62, 70
1, 24342, Note_off_c, 0, 59, 64
1, 24345, Note_off_c, 0, 64, 64
1, 24427, Note_off_c, 0, 62, 64
1, 24432, Note_on_c, 0, 64, 69
1, 24480, Note_on_c, 0, 65, 68
1, 24482, Note_off_c, 0, 64, 64
1, 24488, Note_off_c, 0, 79, 64
1, 24491, Note_off_c, 0, 76, 64
1, 24493, Note_off_c, 0, 83, 64
1, 24527, Note_off_c, 0, 52, 64
1, 24528, Note_on_c, 0, 67, 68
1, 24532, Note_off_c, 0, 55, 64
1, 24533, Note_off_c, 0, 65, 64
1, 24576, Note_on_c, 0, 45, 64
1, 24576, Note_on_c, 0, 57, 52
1, 24576, Note_on_c, 0, 60, 56
1, 24576, Note_on_c, 0, 64, 56
1, 24576, Note_off_c, 0, 67, 64
1, 24624, Note_on_c, 0, 81, 68
1, 24672, Note_on_c, 0, 88, 64
1, 24720, Note_on_c, 0, 41, 62
1, 24726, Note_off_c, 0, 45, 41
1, 24768, Note_on_c, 0, 40, 60
1, 24776, Note_off_c, 0, 41, 58
1, 24864, Note_on_c, 0, 47, 56
1, 24864, Note_on_c, 0, 59, 57
1, 24864, Note_off_c, 0, 60, 64
1, 24864, Note_off_c, 0, 64, 64
1, 24864, Note_on_c, 0, 65, 56
1, 24868, Note_off_c, 0, 40, 61
1, 24912, Note_on_c, 0, 48, 59
1, 24916, Note_off_c, 0, 47, 59
1, 24960, Note_on_c, 0, 45, 61
1, 24960, Note_off_c, 0, 57, 64
1, 24960, Note_on_c, 0, 57, 35
1, 24960, Note_off_c, 0, 57, 64
1, 24960, Note_off_c, 0, 59, 64
1, 24960, Note_on_c, 0, 60, 58
1, 24960, Note_on_c, 0, 64, 52
1, 24960, Note_off_c, 0, 65, 64
1, 24964, Note_off_c, 0, 81, 64
1, 24967, Note_off_c, 0, 48, 42
1, 24969, Note_off_c, 0, 88, 64
1, 25008, Note_on_c, 0, 81, 65
1, 25056, Note_on_c, 0, 88, 53
1, 25104, Note_on_c, 0, 41, 66
1, 25111, Note_off_c, 0, 45, 44
1, 25152, Note_on_c, 0, 40, 64
1, 25152, Note_on_c, 0, 59, 58
1, 25152, Note_off_c, 0, 60, 64
1, 25152, Note_off_c, 0, 64, 64
1, 25163, Note_off_c, 0, 41, 48
1, 25242, Note_off_c, 0, 81, 64
1, 25243, Note_off_c, 0, 88, 64
1, 25246, Note_off_c, 0, 40, 53
1, 25248, Note_on_c, 0, 33, 67
1, 25248, Note_off_c, 0, 59, 64
1, 25336, Note_off_c, 0, 33, 63
1, 25344, Note_on_c, 0, 45, 64
1, 25344, Note_on_c, 0, 57, 29
1, 25344, Note_on_c, 0, 60, 57
1, 25344, Note_on_c, 0, 64, 33
1, 25392, Note_on_c, 0, 81, 68
1, 25440, Note_on_c, 0, 88, 64
1, 25488, Note_on_c, 0, 41, 62
1, 25494, Note_off_c, 0, 45, 64
1, 25536, Note_on_c, 0, 40, 60
1, 25544, Note_off_c, 0, 41, 64
1, 25632, Note_on_c, 0, 47, 56
1, 25632, Note_on_c, 0, 59, 36
1, 25632, Note_on_c, 0, 65, 54
1, 25636, Note_off_c, 0, 40, 64
1, 25636, Note_off_c, 0, 60, 64
1, 25639, Note_off_c, 0, 64, 64
1, 25680, Note_on_c, 0, 48, 59
1, 25684, Note_off_c, 0, 47, 64
1, 25728, Note_on_c, 0, 45, 61
1, 25728, Note_on_c, 0, 60, 60
1, 25728, Note_on_c, 0, 64, 59
1, 25728, Note_off_c, 0, 65, 64
1, 25732, Note_off_c, 0, 81, 64
1, 25735, Note_off_c, 0, 48, 64
1, 25736, Note_off_c, 0, 59, 64
1, 25737, Note_off_c, 0, 88, 64
1, 25776, Note_on_c, 0, 81, 65
1, 25824, Note_on_c, 0, 88, 53
1, 25872, Note_on_c, 0, 41, 66
1, 25879, Note_off_c, 0, 45, 64
1, 25918, Note_off_c, 0, 60, 64
1, 25920, Note_on_c, 0, 40, 64
1, 25920, Note_on_c, 0, 59, 39
1, 25931, Note_off_c, 0, 41, 64
1, 26010, Note_off_c, 0, 81, 64
1, 26011, Note_off_c, 0, 88, 64
1, 26014, Note_off_c, 0, 40, 64
1, 26016, Note_on_c, 0, 33, 67
1, 26016, Note_off_c, 0, 57, 64
1, 26016, Note_off_c, 0, 59, 64
1, 26016, Note_off_c, 0, 64, 64
1, 26104, Note_off_c, 0, 33, 64
1, 26112, Note_on_c, 0, 57, 65
1, 26160, Note_on_c, 0, 52, 53
1, 26161, Note_off_c, 0, 57, 35
1, 26184, Note_on_c, 0, 45, 60
1, 26208, Note_on_c, 0, 64, 63
1, 26212, Note_off_c, 0, 52, 58
1, 26222, Note_off_c, 0, 45, 64
1, 26256, Note_on_c, 0, 45, 60
1, 26256, Note_on_c, 0, 65, 59
1, 26258, Note_off_c, 0, 64, 56
1, 26304, Note_on_c, 0, 60, 64
1, 26306, Note_off_c, 0, 65, 55
1, 26350, Note_off_c, 0, 60, 60
1, 26352, Note_off_c, 0, 45, 64
1, 26352, Note_on_c, 0, 57, 58
1, 26399, Note_off_c, 0, 57, 63
1, 26400, Note_on_c, 0, 69, 63
1, 26448, Note_on_c, 0, 70, 59
1, 26449, Note_off_c, 0, 69, 81
1, 26492, Note_off_c, 0, 70, 55
1, 26496, Note_on_c, 0, 57, 62
1, 26544, Note_on_c, 0, 52, 56
1, 26547, Note_off_c, 0, 57, 57
1, 26568, Note_on_c, 0, 45, 60
1, 26592, Note_on_c, 0, 64, 63
1, 26595, Note_off_c, 0, 52, 61
1, 26606, Note_off_c, 0, 45, 64
1, 26640, Note_on_c, 0, 45, 60
1, 26640, Note_on_c, 0, 65, 63
1, 26645, Note_off_c, 0, 64, 62
1, 26685, Note_off_c, 0, 65, 59
1, 26688, Note_on_c, 0, 60, 63
1, 26736, Note_off_c, 0, 45, 64
1, 26736, Note_on_c, 0, 57, 55
1, 26745, Note_off_c, 0, 60, 53
1, 26784, Note_off_c, 0, 57, 69
1, 26784, Note_on_c, 0, 70, 59
1, 26832, Note_on_c, 0, 69, 46
1, 26837, Note_off_c, 0, 70, 59
1, 26869, Note_off_c, 0, 69, 65
1, 26880, Note_on_c, 0, 57, 65
1, 26928, Note_on_c, 0, 52, 53
1, 26929, Note_off_c, 0, 57, 35
1, 26976, Note_on_c, 0, 64, 63
1, 26980, Note_off_c, 0, 52, 58
1, 27024, Note_on_c, 0, 65, 59
1, 27026, Note_off_c, 0, 64, 56
1, 27072, Note_on_c, 0, 60, 64
1, 27074, Note_off_c, 0, 65, 55
1, 27118, Note_off_c, 0, 60, 60
1, 27120, Note_on_c, 0, 57, 58
1, 27167, Note_off_c, 0, 57, 63
1, 27168, Note_on_c, 0, 69, 63
1, 27216, Note_on_c, 0, 70, 59
1, 27217, Note_off_c, 0, 69, 81
1, 27260, Note_off_c, 0, 70, 55
1, 27264, Note_on_c, 0, 57, 62
1, 27312, Note_on_c, 0, 52, 56
1, 27315, Note_off_c, 0, 57, 57
1, 27360, Note_on_c, 0, 64, 63
1, 27363, Note_off_c, 0, 52, 61
1, 27408, Note_on_c, 0, 65, 63
1, 27413, Note_off_c, 0, 64, 62
1, 27453, Note_off_c, 0, 65, 59
1, 27456, Note_on_c, 0, 60, 63
1, 27504, Note_on_c, 0, 57, 55
1, 27513, Note_off_c, 0, 60, 53
1, 27552, Note_off_c, 0, 57, 69
1, 27552, Note_on_c, 0, 70, 59
1, 27600, Note_on_c, 0, 69, 46
1, 27605, Note_off_c, 0, 70, 59
1, 27637, Note_off_c, 0, 69, 65
1, 27648, Note_on_c, 0, 33, 100
1, 27648, Note_on_c, 0, 52, 100
1, 27648, Note_on_c, 0, 60, 100
1, 27696, Note_on_c, 0, 69, 100
1, 27744, Note_off_c, 0, 69, 64
1, 27744, Note_on_c, 0, 72, 100
1, 27792, Note_on_c, 0, 71, 100
1, 27792, Note_off_c, 0, 72, 64
1, 27840, Note_on_c, 0, 69, 100
1, 27840, Note_off_c, 0, 71, 64
1, 27936, Note_off_c, 0, 69, 64
1, 27936, Note_on_c, 0, 76, 100
1, 27984, Note_on_c, 0, 62, 100
1, 28032, Note_on_c, 0, 29, 100
1, 28032, Note_off_c, 0, 33, 64
1, 28032, Note_on_c, 0, 50, 100
1, 28032, Note_off_c, 0, 52, 64
1, 28032, Note_on_c, 0, 57, 100
1, 28032, Note_off_c, 0, 60, 64
1, 28032, Note_off_c, 0, 62, 64
1, 28032, Note_on_c, 0, 65, 100
1, 28032, Note_off_c, 0, 76, 64
1, 28128, Note_off_c, 0, 65, 64
1, 28128, Note_on_c, 0, 69, 100
1, 28224, Note_off_c, 0, 69, 64
1, 28224, Note_on_c, 0, 72, 100
1, 28320, Note_off_c, 0, 72, 64
1, 28320, Note_on_c, 0, 76, 100
1, 28368, Note_on_c, 0, 64, 100
1, 28416, Note_off_c, 0, 29, 64
1, 28416, Note_on_c, 0, 33, 100
1, 28416, Note_off_c, 0, 50, 64
1, 28416, Note_on_c, 0, 52, 100
1, 28416, Note_off_c, 0, 57, 64
1, 28416, Note_on_c, 0, 60, 100
1, 28416, Note_off_c, 0, 64, 64
1, 28416, Note_off_c, 0, 76, 64
1, 28464, Note_on_c, 0, 69, 100
1, 28512, Note_off_c, 0, 69, 64
1, 28512, Note_on_c, 0, 72, 100
1, 28560, Note_on_c, 0, 71, 100
1, 28560, Note_off_c, 0, 72, 64
1, 28608, Note_on_c, 0, 69, 100
1, 28608, Note_off_c, 0, 71, 64
1, 28704, Note_off_c, 0, 69, 64
1, 28704, Note_on_c, 0, 76, 100
1, 28752, Note_on_c, 0, 62, 100
1, 28800, Note_on_c, 0, 29, 100
1, 28800, Note_off_c, 0, 33, 64
1, 28800, Note_on_c, 0, 50, 100
1, 28800, Note_off_c, 0, 52, 64
1, 28800, Note_on_c, 0, 57, 100
1, 28800, Note_off_c, 0, 60, 64
1, 28800, Note_off_c, 0, 62, 64
1, 28800, Note_on_c, 0, 65, 100
1, 28800, Note_off_c, 0, 76, 64
1, 28896, Note_off_c, 0, 65, 64
1, 28896, Note_on_c, 0, 69, 100
1, 28992, Note_off_c, 0, 69, 64
1, 28992, Note_on_c, 0, 72, 100
1, 29088, Note_off_c, 0, 72, 64
1, 29088, Note_on_c, 0, 76, 100
1, 29136, Note_on_c, 0, 59, 100
1, 29184, Note_off_c, 0, 29, 64
1, 29184, Note_on_c, 0, 38, 72
1, 29184, Note_off_c, 0, 50, 64
1, 29184, Note_off_c, 0, 57, 64
1, 29184, Note_off_c, 0, 59, 64
1, 29184, Note_on_c, 0, 62, 72
1, 29184, Note_on_c, 0, 65, 72
1, 29184, Note_on_c, 0, 69, 72
1, 29184, Note_off_c, 0, 76, 64
1, 29232, Note_off_c, 0, 62, 64
1, 29232, Note_off_c, 0, 65, 64
1, 29232, Note_off_c, 0, 69, 64
1, 29280, Note_on_c, 0, 62, 72
1, 29280, Note_on_c, 0, 65, 72
1, 29280, Note_on_c, 0, 69, 72
1, 29328, Note_off_c, 0, 62, 64
1, 29328, Note_off_c, 0, 65, 64
1, 29328, Note_off_c, 0, 69, 64
1, 29376, Note_on_c, 0, 62, 72
1, 29376, Note_on_c, 0, 65, 72
1, 29376, Note_on_c, 0, 69, 72
1, 29424, Note_off_c, 0, 62, 64
1, 29424, Note_off_c, 0, 65, 64
1, 29424, Note_off_c, 0, 69, 64
1, 29472, Note_on_c, 0, 62, 72
1, 29472, Note_on_c, 0, 65, 72
1, 29472, Note_on_c, 0, 69, 72
1, 29520, Note_off_c, 0, 62, 64
1, 29520, Note_off_c, 0, 65, 64
1, 29520, Note_off_c, 0, 69, 64
1, 29568, Note_on_c, 0, 62, 72
1, 29568, Note_on_c, 0, 65, 72
1, 29568, Note_on_c, 0, 69, 72
1, 29616, Note_off_c, 0, 62, 64
1, 29616, Note_off_c, 0, 65, 64
1, 29616, Note_off_c, 0, 69, 64
1, 29664, Note_off_c, 0, 38, 64
1, 29664, Note_on_c, 0, 50, 72
1, 29664, Note_on_c, 0, 62, 72
1, 29664, Note_on_c, 0, 68, 72
1, 29664, Note_on_c, 0, 71, 72
1, 29712, Note_off_c, 0, 62, 64
1, 29712, Note_off_c, 0, 68, 64
1, 29712, Note_off_c, 0, 71, 64
1, 29760, Note_on_c, 0, 45, 72
1, 29760, Note_off_c, 0, 50, 64
1, 29760, Note_on_c, 0, 57, 72
1, 29760, Note_on_c, 0, 64, 72
1, 29760, Note_on_c, 0, 72, 72
1, 29808, Note_off_c, 0, 57, 64
1, 29808, Note_off_c, 0, 64, 64
1, 29808, Note_off_c, 0, 72, 64
1, 29856, Note_on_c, 0, 57, 72
1, 29856, Note_on_c, 0, 64, 72
1, 29856, Note_on_c, 0, 74, 72
1, 29904, Note_off_c, 0, 57, 64
1, 29904, Note_off_c, 0, 64, 64
1, 29904, Note_off_c, 0, 74, 64
1, 29952, Note_on_c, 0, 38, 72
1, 29952, Note_off_c, 0, 45, 64
1, 29952, Note_on_c, 0, 62, 72
1, 29952, Note_on_c, 0, 65, 72
1, 29952, Note_on_c, 0, 69, 72
1, 30000, Note_off_c, 0, 62, 64
1, 30000, Note_off_c, 0, 65, 64
1, 30000, Note_off_c, 0, 69, 64
1, 30048, Note_on_c, 0, 62, 72
1, 30048, Note_on_c, 0, 65, 72
1, 30048, Note_on_c, 0, 69, 72
1, 30096, Note_off_c, 0, 62, 64
1, 30096, Note_off_c, 0, 65, 64
1, 30096, Note_off_c, 0, 69, 64
1, 30144, Note_on_c, 0, 62, 72
1, 30144, Note_on_c, 0, 65, 72
1, 30144, Note_on_c, 0, 69, 72
1, 30192, Note_off_c, 0, 62, 64
1, 30192, Note_off_c, 0, 65, 64
1, 30192, Note_off_c, 0, 69, 64
1, 30240, Note_on_c, 0, 62, 72
1, 30240, Note_on_c, 0, 65, 72
1, 30240, Note_on_c, 0, 69, 72
1, 30288, Note_off_c, 0, 62, 64
1, 30288, Note_off_c, 0, 65, 64
1, 30288, Note_off_c, 0, 69, 64
1, 30336, Note_on_c, 0, 62, 72
1, 30336, Note_on_c, 0, 65, 72
1, 30336, Note_on_c, 0, 69, 72
1, 30384, Note_off_c, 0, 62, 64
1, 30384, Note_off_c, 0, 65, 64
1, 30384, Note_off_c, 0, 69, 64
1, 30432, Note_off_c, 0, 38, 64
1, 30432, Note_on_c, 0, 50, 72
1, 30432, Note_on_c, 0, 62, 72
1, 30432, Note_on_c, 0, 68, 72
1, 30432, Note_on_c, 0, 71, 72
1, 30480, Note_off_c, 0, 62, 64
1, 30480, Note_off_c, 0, 68, 64
1, 30480, Note_off_c, 0, 71, 64
1, 30528, Note_on_c, 0, 45, 72
1, 30528, Note_off_c, 0, 50, 64
1, 30528, Note_on_c, 0, 57, 72
1, 30528, Note_on_c, 0, 64, 72
1, 30528, Note_on_c, 0, 72, 72
1, 30576, Note_off_c, 0, 57, 64
1, 30576, Note_off_c, 0, 64, 64
1, 30576, Note_off_c, 0, 72, 64
1, 30624, Note_on_c, 0, 40, 72
1, 30624, Note_off_c, 0, 45, 64
1, 30624, Note_on_c, 0, 57, 72
1, 30624, Note_on_c, 0, 64, 72
1, 30624, Note_on_c, 0, 74, 72
1, 30672, Note_off_c, 0, 57, 64
1, 30672, Note_off_c, 0, 64, 64
1, 30672, Note_off_c, 0, 74, 64
1, 30720, Note_off_c, 0, 40, 64
1, 30720, Note_on_c, 0, 57, 75
1, 30720, Note_on_c, 0, 60, 62
1, 30720, Note_on_c, 0, 64, 62
1, 30720, Note_on_c, 0, 69, 76
1, 30720, Note_on_c, 0, 88, 59
1, 30768, Note_on_c, 0, 72, 67
1, 30768, Note_on_c, 0, 76, 68
1, 30864, Note_off_c, 0, 69, 64
1, 30864, Note_on_c, 0, 69, 76
1, 30864, Note_off_c, 0, 69, 64
1, 30864, Note_off_c, 0, 72, 64
1, 30864, Note_off_c, 0, 76, 64
1, 30960, Note_on_c, 0, 72, 67
1, 30960, Note_on_c, 0, 76, 68
1, 31022, Note_off_c, 0, 60, 64
1, 31029, Note_off_c, 0, 57, 64
1, 31030, Note_off_c, 0, 64, 64
1, 31056, Note_on_c, 0, 69, 76
1, 31056, Note_off_c, 0, 72, 64
1, 31056, Note_off_c, 0, 76, 64
1, 31104, Note_on_c, 0, 56, 78
1, 31104, Note_on_c, 0, 59, 63
1, 31104, Note_on_c, 0, 62, 66
1, 31104, Note_on_c, 0, 68, 76
1, 31104, Note_off_c, 0, 69, 64
1, 31104, Note_on_c, 0, 86, 37
1, 31104, Note_off_c, 0, 88, 64
1, 31152, Note_on_c, 0, 71, 67
1, 31152, Note_on_c, 0, 74, 68
1, 31248, Note_off_c, 0, 68, 59
1, 31248, Note_on_c, 0, 68, 76
1, 31248, Note_off_c, 0, 68, 59
1, 31248, Note_off_c, 0, 74, 65
1, 31252, Note_off_c, 0, 71, 57
1, 31296, Note_on_c, 0, 52, 73
1, 31296, Note_on_c, 0, 89, 37
1, 31303, Note_off_c, 0, 86, 64
1, 31335, Control_c, 0, 22, 0
1, 31335, Control_c, 0, 22, 116
1, 31344, Note_on_c, 0, 71, 67
1, 31344, Note_on_c, 0, 74, 68
1, 31392, Note_off_c, 0, 59, 64
1, 31392, Note_on_c, 0, 65, 79
1, 31399, Note_off_c, 0, 62, 64
1, 31440, Note_off_c, 0, 74, 64
1, 31440, Note_on_c, 0, 77, 68
1, 31444, Note_off_c, 0, 71, 64
1, 31469, Note_off_c, 0, 65, 64
1, 31488, Note_on_c, 0, 57, 75
1, 31488, Note_on_c, 0, 60, 62
1, 31488, Note_on_c, 0, 64, 62
1, 31488, Note_on_c, 0, 69, 76
1, 31488, Note_on_c, 0, 88, 59
1, 31490, Note_off_c, 0, 52, 64
1, 31491, Note_off_c, 0, 56, 64
1, 31495, Note_off_c, 0, 89, 64
1, 31536, Note_on_c, 0, 72, 67
1, 31536, Note_on_c, 0, 76, 68
1, 31536, Note_off_c, 0, 77, 64
1, 31632, Note_off_c, 0, 69, 64
1, 31632, Note_on_c, 0, 69, 76
1, 31632, Note_off_c, 0, 69, 64
1, 31632, Note_off_c, 0, 72, 64
1, 31632, Note_off_c, 0, 76, 64
1, 31728, Note_on_c, 0, 72, 67
1, 31728, Note_on_c, 0, 76, 68
1, 31790, Note_off_c, 0, 60, 64
1, 31797, Note_off_c, 0, 57, 64
1, 31798, Note_off_c, 0, 64, 64
1, 31824, Note_on_c, 0, 69, 76
1, 31824, Note_off_c, 0, 72, 64
1, 31824, Note_off_c, 0, 76, 64
1, 31872, Note_on_c, 0, 56, 78
1, 31872, Note_on_c, 0, 59, 63
1, 31872, Note_on_c, 0, 62, 66
1, 31872, Note_on_c, 0, 68, 76
1, 31872, Note_off_c, 0, 69, 64
1, 31872, Note_on_c, 0, 86, 37
1, 31872, Note_off_c, 0, 88, 64
1, 31920, Note_on_c, 0, 71, 67
1, 31920, Note_on_c, 0, 74, 68
1, 32016, Note_off_c, 0, 68, 59
1, 32016, Note_on_c, 0, 68, 76
1, 32016, Note_off_c, 0, 68, 59
1, 32016, Note_off_c, 0, 74, 65
1, 32020, Note_off_c, 0, 71, 57
1, 32064, Note_on_c, 0, 52, 73
1, 32064, Note_on_c, 0, 89, 37
1, 32071, Note_off_c, 0, 86, 64
1, 32103, Control_c, 0, 22, 116
1, 32103, Control_c, 0, 22, 116
1, 32112, Note_on_c, 0, 71, 67
1, 32112, Note_on_c, 0, 74, 68
1, 32121, Note_off_c, 0, 59, 64
1, 32128, Note_off_c, 0, 62, 64
1, 32160, Note_on_c, 0, 65, 79
1, 32208, Note_off_c, 0, 74, 64
1, 32208, Note_on_c, 0, 77, 68
1, 32212, Note_off_c, 0, 71, 64
1, 32237, Note_off_c, 0, 65, 64
1, 32256, Control_c, 0, 22, 116
1, 32256, Control_c, 0, 22, 0
1, 32256, Note_off_c, 0, 52, 64
1, 32256, Note_off_c, 0, 56, 64
1, 32256, Note_on_c, 0, 57, 84
1, 32256, Note_off_c, 0, 77, 64
1, 32256, Note_on_c, 0, 81, 62
1, 32256, Note_off_c, 0, 89, 64
1, 32280, Note_on_c, 0, 52, 44
1, 32304, Note_on_c, 0, 60, 86
1, 32313, Note_off_c, 0, 57, 64
1, 32328, Note_on_c, 0, 69, 44
1, 32337, Note_off_c, 0, 52, 64
1, 32352, Note_on_c, 0, 65, 91
1, 32355, Note_on_c, 0, 72, 81
1, 32358, Note_off_c, 0, 60, 64
1, 32376, Note_on_c, 0, 57, 44
1, 32380, Note_on_c, 0, 71, 108
1, 32383, Note_off_c, 0, 72, 64
1, 32385, Note_off_c, 0, 69, 64
1, 32400, Note_on_c, 0, 64, 90
1, 32405, Note_off_c, 0, 65, 64
1, 32424, Note_on_c, 0, 45, 44
1, 32433, Note_off_c, 0, 57, 64
1, 32448, Note_on_c, 0, 57, 83
1, 32453, Note_off_c, 0, 64, 64
1, 32472, Note_on_c, 0, 52, 44
1, 32481, Note_off_c, 0, 45, 64
1, 32496, Note_on_c, 0, 60, 81
1, 32499, Note_off_c, 0, 57, 64
1, 32520, Note_on_c, 0, 45, 44
1, 32529, Note_off_c, 0, 52, 64
1, 32544, Note_on_c, 0, 65, 95
1, 32547, Note_off_c, 0, 60, 64
1, 32568, Note_on_c, 0, 48, 44
1, 32577, Note_off_c, 0, 45, 64
1, 32588, Note_off_c, 0, 71, 64
1, 32592, Note_on_c, 0, 64, 87
1, 32592, Note_on_c, 0, 69, 101
1, 32598, Note_off_c, 0, 65, 64
1, 32613, Note_off_c, 0, 81, 64
1, 32616, Note_on_c, 0, 45, 44
1, 32625, Note_off_c, 0, 48, 64
1, 32636, Note_off_c, 0, 69, 64
1, 32640, Note_on_c, 0, 57, 84
1, 32640, Note_on_c, 0, 81, 82
1, 32643, Note_off_c, 0, 64, 64
1, 32664, Note_on_c, 0, 52, 44
1, 32673, Note_off_c, 0, 45, 64
1, 32688, Note_on_c, 0, 60, 86
1, 32697, Note_off_c, 0, 57, 64
1, 32712, Note_on_c, 0, 69, 44
1, 32721, Note_off_c, 0, 52, 64
1, 32736, Note_on_c, 0, 65, 91
1, 32739, Note_on_c, 0, 72, 61
1, 32742, Note_off_c, 0, 60, 64
1, 32760, Note_on_c, 0, 57, 44
1, 32764, Note_on_c, 0, 71, 88
1, 32767, Note_off_c, 0, 72, 64
1, 32769, Note_off_c, 0, 69, 64
1, 32784, Note_on_c, 0, 64, 90
1, 32789, Note_off_c, 0, 65, 64
1, 32808, Note_on_c, 0, 45, 44
1, 32817, Note_off_c, 0, 57, 64
1, 32832, Note_on_c, 0, 57, 83
1, 32837, Note_off_c, 0, 64, 64
1, 32856, Note_on_c, 0, 52, 44
1, 32865, Note_off_c, 0, 45, 64
1, 32880, Note_on_c, 0, 60, 81
1, 32883, Note_off_c, 0, 57, 64
1, 32904, Note_on_c, 0, 45, 44
1, 32913, Note_off_c, 0, 52, 64
1, 32928, Note_on_c, 0, 65, 95
1, 32931, Note_off_c, 0, 60, 64
1, 32952, Note_on_c, 0, 48, 44
1, 32961, Note_off_c, 0, 45, 64
1, 32975, Note_off_c, 0, 81, 64
1, 32976, Note_on_c, 0, 64, 87
1, 32976, Note_off_c, 0, 71, 64
1, 32982, Note_off_c, 0, 65, 64
1, 33000, Note_on_c, 0, 45, 44
1, 33009, Note_off_c, 0, 48, 64
1, 33024, Note_on_c, 0, 57, 84
1, 33024, Note_on_c, 0, 81, 62
1, 33027, Note_off_c, 0, 64, 64
1, 33048, Note_on_c, 0, 52, 44
1, 33057, Note_off_c, 0, 45, 64
1, 33072, Note_on_c, 0, 60, 86
1, 33081, Note_off_c, 0, 57, 64
1, 33096, Note_on_c, 0, 69, 44
1, 33105, Note_off_c, 0, 52, 64
1, 33120, Note_on_c, 0, 65, 91
1, 33123, Note_on_c, 0, 72, 81
1, 33126, Note_off_c, 0, 60, 64
1, 33144, Note_on_c, 0, 57, 44
1, 33148, Note_on_c, 0, 71, 108
1, 33151, Note_off_c, 0, 72, 64
1, 33153, Note_off_c, 0, 69, 64
1, 33168, Note_on_c, 0, 64, 90
1, 33173, Note_off_c, 0, 65, 64
1, 33192, Note_on_c, 0, 45, 44
1, 33201, Note_off_c, 0, 57, 64
1, 33216, Note_on_c, 0, 57, 83
1, 33221, Note_off_c, 0, 64, 64
1, 33240, Note_on_c, 0, 52, 44
1, 33249, Note_off_c, 0, 45, 64
1, 33264, Note_on_c, 0, 60, 81
1, 33267, Note_off_c, 0, 57, 64
1, 33288, Note_on_c, 0, 45, 44
1, 33297, Note_off_c, 0, 52, 64
1, 33312, Note_on_c, 0, 65, 95
1, 33315, Note_off_c, 0, 60, 64
1, 33336, Note_on_c, 0, 48, 44
1, 33345, Note_off_c, 0, 45, 64
1, 33356, Note_off_c, 0, 71, 64
1, 33360, Note_on_c, 0, 64, 87
1, 33360, Note_on_c, 0, 69, 101
1, 33366, Note_off_c, 0, 65, 64
1, 33381, Note_off_c, 0, 81, 64
1, 33384, Note_on_c, 0, 45, 44
1, 33393, Note_off_c, 0, 48, 64
1, 33404, Note_off_c, 0, 69, 64
1, 33408, Note_on_c, 0, 57, 84
1, 33408, Note_on_c, 0, 81, 82
1, 33411, Note_off_c, 0, 64, 64
1, 33432, Note_on_c, 0, 52, 44
1, 33441, Note_off_c, 0, 45, 64
1, 33456, Note_on_c, 0, 60, 86
1, 33465, Note_off_c, 0, 57, 64
1, 33480, Note_on_c, 0, 69, 44
1, 33489, Note_off_c, 0, 52, 64
1, 33504, Note_on_c, 0, 65, 91
1, 33507, Note_on_c, 0, 72, 61
1, 33510, Note_off_c, 0, 60, 64
1, 33528, Note_on_c, 0, 57, 44
1, 33532, Note_on_c, 0, 71, 88
1, 33535, Note_off_c, 0, 72, 64
1, 33537, Note_off_c, 0, 69, 64
1, 33552, Note_on_c, 0, 64, 90
1, 33557, Note_off_c, 0, 65, 64
1, 33576, Note_on_c, 0, 45, 44
1, 33585, Note_off_c, 0, 57, 64
1, 33600, Note_on_c, 0, 57, 83
1, 33605, Note_off_c, 0, 64, 64
1, 33624, Note_on_c, 0, 52, 44
1, 33633, Note_off_c, 0, 45, 64
1, 33648, Note_on_c, 0, 60, 81
1, 33651, Note_off_c, 0, 57, 64
1, 33672, Note_on_c, 0, 45, 44
1, 33681, Note_off_c, 0, 52, 64
1, 33696, Note_on_c, 0, 65, 95
1, 33699, Note_off_c, 0, 60, 64
1, 33720, Note_on_c, 0, 48, 44
1, 33729, Note_off_c, 0, 45, 64
1, 33743, Note_off_c, 0, 81, 64
1, 33744, Note_on_c, 0, 64, 87
1, 33744, Note_on_c, 0, 69, 81
1, 33744, Note_off_c, 0, 71, 64
1, 33750, Note_off_c, 0, 65, 64
1, 33768, Note_on_c, 0, 45, 44
1, 33777, Note_off_c, 0, 48, 64
1, 33788, Note_off_c, 0, 69, 64
1, 33792, Note_off_c, 0, 45, 64
1, 33792, Note_on_c, 0, 45, 95
1, 33792, Note_on_c, 0, 60, 115
1, 33792, Note_off_c, 0, 64, 64
1, 33792, Note_on_c, 0, 76, 102
1, 33882, Note_off_c, 0, 45, 0
1, 33906, Note_off_c, 0, 60, 0
1, 33979, Note_off_c, 0, 76, 0
1, 33983, Note_on_c, 0, 45, 50
1, 33983, Note_on_c, 0, 71, 72
1, 33984, Note_on_c, 0, 60, 79
1, 33984, Note_on_c, 0, 76, 120
1, 34073, Note_off_c, 0, 71, 0
1, 34073, Note_off_c, 0, 76, 0
1, 34080, Note_on_c, 0, 71, 78
1, 34080, Note_on_c, 0, 76, 120
1, 34080, Note_on_c, 0, 81, 94
1, 34108, Note_off_c, 0, 45, 0
1, 34154, Note_off_c, 0, 81, 0
1, 34160, Note_off_c, 0, 71, 0
1, 34169, Note_off_c, 0, 76, 0
1, 34175, Note_on_c, 0, 72, 65
1, 34176, Note_on_c, 0, 50, 101
1, 34176, Note_on_c, 0, 57, 28
1, 34176, Note_on_c, 0, 79, 78
1, 34223, Note_on_c, 0, 81, 90
1, 34224, Note_on_c, 0, 38, 65
1, 34225, Note_off_c, 0, 60, 0
1, 34252, Note_off_c, 0, 50, 0
1, 34252, Note_off_c, 0, 57, 0
1, 34252, Note_off_c, 0, 79, 0
1, 34271, Note_on_c, 0, 50, 98
1, 34271, Note_on_c, 0, 79, 80
1, 34271, Note_off_c, 0, 81, 0
1, 34272, Note_on_c, 0, 83, 88
1, 34368, Note_on_c, 0, 71, 115
1, 34407, Note_off_c, 0, 72, 0
1, 34415, Note_on_c, 0, 60, 71
1, 34456, Note_off_c, 0, 79, 0
1, 34464, Note_on_c, 0, 64, 91
1, 34474, Note_off_c, 0, 83, 0
1, 34499, Note_off_c, 0, 60, 0
1, 34532, Note_off_c, 0, 38, 0
1, 34540, Note_off_c, 0, 71, 0
1, 34550, Note_off_c, 0, 50, 0
1, 34559, Note_off_c, 0, 64, 0
1, 34559, Note_on_c, 0, 69, 53
1, 34560, Note_on_c, 0, 41, 38
1, 34560, Note_on_c, 0, 59, 125
1, 34637, Note_off_c, 0, 59, 0
1, 34655, Note_on_c, 0, 64, 72
1, 34655, Note_off_c, 0, 69, 0
1, 34655, Note_on_c, 0, 74, 77
1, 34727, Note_off_c, 0, 41, 0
1, 34731, Note_off_c, 0, 74, 0
1, 34751, Note_on_c, 0, 74, 110
1, 34752, Note_on_c, 0, 52, 95
1, 34752, Note_on_c, 0, 67, 42
1, 34752, Note_on_c, 0, 71, 101
1, 34760, Note_off_c, 0, 64, 0
1, 34925, Note_off_c, 0, 67, 0
1, 34936, Note_off_c, 0, 52, 0
1, 34943, Note_on_c, 0, 50, 113
1, 34943, Note_on_c, 0, 67, 100
1, 34943, Note_on_c, 0, 77, 80
1, 34944, Note_on_c, 0, 41, 84
1, 34944, Note_off_c, 0, 74, 0
1, 34948, Note_off_c, 0, 71, 0
1, 35021, Note_off_c, 0, 41, 0
1, 35127, Note_off_c, 0, 77, 0
1, 35136, Note_on_c, 0, 43, 25
1, 35136, Note_on_c, 0, 60, 40
1, 35136, Note_on_c, 0, 76, 72
1, 35213, Note_off_c, 0, 60, 0
1, 35232, Note_on_c, 0, 64, 101
1, 35232, Note_on_c, 0, 74, 104
1, 35232, Note_off_c, 0, 76, 0
1, 35291, Note_off_c, 0, 43, 0
1, 35328, Note_off_c, 0, 50, 0
1, 35328, Note_on_c, 0, 57, 72
1, 35328, Note_off_c, 0, 64, 0
1, 35328, Note_on_c, 0, 64, 72
1, 35328, Note_off_c, 0, 67, 0
1, 35328, Note_on_c, 0, 72, 72
1, 35328, Note_off_c, 0, 74, 0
1, 35328, Note_on_c, 0, 86, 112
1, 35338, Note_on_c, 0, 88, 96
1, 35356, Note_off_c, 0, 86, 0
1, 35387, Note_off_c, 0, 88, 0
1, 35424, Note_off_c, 0, 57, 64
1, 35424, Note_off_c, 0, 64, 64
1, 35424, Note_off_c, 0, 72, 64
1, 35520, Note_on_c, 0, 76, 72
1, 35568, Note_on_c, 0, 74, 72
1, 35568, Note_off_c, 0, 76, 64
1, 35616, Note_on_c, 0, 56, 72
1, 35616, Note_on_c, 0, 62, 72
1, 35616, Note_on_c, 0, 71, 72
1, 35616, Note_off_c, 0, 74, 64
1, 35711, Note_on_c, 0, 89, 117
1, 35712, Note_off_c, 0, 56, 64
1, 35712, Note_off_c, 0, 62, 64
1, 35712, Note_on_c, 0, 69, 72
1, 35712, Note_off_c, 0, 71, 64
1, 35730, Note_on_c, 0, 91, 96
1, 35742, Note_off_c, 0, 89, 0
1, 35808, Note_off_c, 0, 69, 64
1, 35810, Note_on_c, 0, 89, 127
1, 35811, Note_off_c, 0, 91, 0
1, 35851, Note_off_c, 0, 89, 0
1, 35904, Note_on_c, 0, 72, 72
1, 35904, Note_on_c, 0, 88, 91
1, 35952, Note_off_c, 0, 72, 64
1, 35952, Note_on_c, 0, 74, 72
1, 35952, Note_off_c, 0, 88, 0
1, 36000, Note_on_c, 0, 68, 72
1, 36000, Note_off_c, 0, 74, 64
1, 36000, Note_on_c, 0, 86, 85
1, 36036, Note_off_c, 0, 86, 0
1, 36094, Note_on_c, 0, 86, 117
1, 36096, Note_on_c, 0, 57, 72
1, 36096, Note_on_c, 0, 64, 72
1, 36096, Note_off_c, 0, 68, 64
1, 36096, Note_on_c, 0, 72, 72
1, 36108, Note_on_c, 0, 88, 106
1, 36121, Note_off_c, 0, 86, 0
1, 36158, Note_off_c, 0, 88, 0
1, 36192, Note_off_c, 0, 57, 64
1, 36192, Note_off_c, 0, 64, 64
1, 36192, Note_off_c, 0, 72, 64
1, 36288, Note_on_c, 0, 64, 72
1, 36336, Note_off_c, 0, 64, 64
1, 36336, Note_on_c, 0, 74, 72
1, 36384, Note_on_c, 0, 56, 72
1, 36384, Note_on_c, 0, 62, 72
1, 36384, Note_on_c, 0, 71, 72
1, 36384, Note_off_c, 0, 74, 64
1, 36384, Note_on_c, 0, 92, 106
1, 36434, Note_off_c, 0, 92, 0
1, 36480, Note_off_c, 0, 56, 64
1, 36480, Note_off_c, 0, 62, 64
1, 36480, Note_on_c, 0, 69, 72
1, 36480, Note_off_c, 0, 71, 64
1, 36576, Note_off_c, 0, 69, 64
1, 36576, Note_on_c, 0, 72, 72
1, 36672, Note_on_c, 0, 71, 72
1, 36672, Note_off_c, 0, 72, 64
1, 36672, Note_on_c, 0, 88, 91
1, 36720, Note_off_c, 0, 88, 0
1, 36768, Note_off_c, 0, 71, 64
1, 36768, Note_on_c, 0, 76, 72
1, 36768, Note_on_c, 0, 91, 85
1, 36804, Note_off_c, 0, 91, 0
1, 36864, Note_on_c, 0, 48, 41
1, 36864, Note_off_c, 0, 76, 64
1, 36871, Note_on_c, 0, 53, 37
1, 36876, Note_on_c, 0, 57, 51
1, 36888, Note_on_c, 0, 64, 71
1, 36960, Note_on_c, 0, 91, 93
1, 36984, Note_on_c, 0, 89, 86
1, 36988, Note_off_c, 0, 91, 96
1, 37008, Note_on_c, 0, 88, 90
1, 37015, Note_off_c, 0, 89, 92
1, 37056, Note_on_c, 0, 81, 78
1, 37099, Note_off_c, 0, 81, 113
1, 37104, Note_on_c, 0, 79, 82
1, 37151, Note_off_c, 0, 79, 127
1, 37152, Note_on_c, 0, 86, 87
1, 37153, Note_off_c, 0, 88, 112
1, 37197, Note_off_c, 0, 53, 1
1, 37203, Note_on_c, 0, 76, 87
1, 37206, Note_off_c, 0, 86, 108
1, 37214, Note_off_c, 0, 48, 41
1, 37218, Note_off_c, 0, 57, 77
1, 37218, Note_off_c, 0, 64, 48
1, 37246, Note_on_c, 0, 48, 57
1, 37248, Note_on_c, 0, 88, 88
1, 37253, Note_on_c, 0, 55, 20
1, 37262, Note_on_c, 0, 59, 55
1, 37279, Note_on_c, 0, 64, 60
1, 37296, Note_off_c, 0, 88, 120
1, 37304, Note_on_c, 0, 79, 84
1, 37315, Note_off_c, 0, 55, 62
1, 37317, Note_on_c, 0, 55, 20
1, 37536, Note_on_c, 0, 72, 105
1, 37536, Note_off_c, 0, 76, 112
1, 37585, Note_on_c, 0, 74, 72
1, 37587, Note_off_c, 0, 72, 98
1, 37599, Note_off_c, 0, 55, 62
1, 37610, Note_off_c, 0, 59, 109
1, 37611, Note_off_c, 0, 64, 82
1, 37616, Note_off_c, 0, 48, 62
1, 37632, Note_on_c, 0, 48, 41
1, 37632, Note_off_c, 0, 74, 105
1, 37632, Note_off_c, 0, 79, 88
1, 37639, Note_on_c, 0, 53, 37
1, 37644, Note_on_c, 0, 57, 51
1, 37656, Note_on_c, 0, 64, 71
1, 37728, Note_on_c, 0, 91, 93
1, 37752, Note_on_c, 0, 89, 86
1, 37756, Note_off_c, 0, 91, 96
1, 37776, Note_on_c, 0, 88, 90
1, 37783, Note_off_c, 0, 89, 92
1, 37824, Note_on_c, 0, 81, 78
1, 37867, Note_off_c, 0, 81, 113
1, 37872, Note_on_c, 0, 79, 82
1, 37919, Note_off_c, 0, 79, 127
1, 37920, Note_on_c, 0, 86, 87
1, 37921, Note_off_c, 0, 88, 112
1, 37965, Note_off_c, 0, 53, 1
1, 37971, Note_on_c, 0, 76, 87
1, 37974, Note_off_c, 0, 86, 108
1, 37982, Note_off_c, 0, 48, 41
1, 37986, Note_off_c, 0, 57, 77
1, 37986, Note_off_c, 0, 64, 48
1, 38014, Note_on_c, 0, 48, 57
1, 38016, Note_on_c, 0, 88, 88
1, 38021, Note_on_c, 0, 55, 20
1, 38030, Note_on_c, 0, 59, 55
1, 38047, Note_on_c, 0, 64, 60
1, 38064, Note_off_c, 0, 88, 120
1, 38072, Note_on_c, 0, 79, 84
1, 38083, Note_off_c, 0, 55, 62
1, 38085, Note_on_c, 0, 55, 20
1, 38304, Note_on_c, 0, 72, 105
1, 38304, Note_off_c, 0, 76, 112
1, 38353, Note_on_c, 0, 74, 72
1, 38355, Note_off_c, 0, 72, 98
1, 38367, Note_off_c, 0, 55, 62
1, 38378, Note_off_c, 0, 59, 109
1, 38379, Note_off_c, 0, 64, 82
1, 38384, Note_off_c, 0, 48, 62
1, 38400, Note_on_c, 0, 41, 87
1, 38400, Note_on_c, 0, 48, 87
1, 38400, Note_on_c, 0, 52, 87
1, 38400, Note_on_c, 0, 57, 87
1, 38400, Note_off_c, 0, 74, 105
1, 38400, Note_off_c, 0, 79, 88
1, 38592, Note_off_c, 0, 41, 64
1, 38592, Note_on_c, 0, 41, 87
1, 38592, Note_off_c, 0, 48, 64
1, 38592, Note_off_c, 0, 52, 64
1, 38592, Note_on_c, 0, 52, 87
1, 38592, Note_off_c, 0, 57, 64
1, 38592, Note_on_c, 0, 57, 87
1, 38592, Note_on_c, 0, 60, 87
1, 38664, Note_off_c, 0, 41, 64
1, 38664, Note_on_c, 0, 43, 87
1, 38664, Note_on_c, 0, 50, 87
1, 38664, Note_off_c, 0, 52, 64
1, 38664, Note_off_c, 0, 57, 64
1, 38664, Note_on_c, 0, 57, 87
1, 38664, Note_on_c, 0, 59, 87
1, 38664, Note_off_c, 0, 60, 64
1, 38736, Note_off_c, 0, 43, 64
1, 38736, Note_on_c, 0, 45, 87
1, 38736, Note_off_c, 0, 50, 64
1, 38736, Note_on_c, 0, 52, 87
1, 38736, Note_on_c, 0, 55, 87
1, 38736, Note_off_c, 0, 57, 64
1, 38736, Note_off_c, 0, 59, 64
1, 38736, Note_on_c, 0, 60, 87
1, 38880, Note_off_c, 0, 45, 64
1, 38880, Note_off_c, 0, 52, 64
1, 38880, Note_off_c, 0, 55, 64
1, 38880, Note_off_c, 0, 60, 64
1, 38952, Note_on_c, 0, 45, 91
1, 38976, Note_off_c, 0, 45, 64
1, 38976, Note_on_c, 0, 45, 87
1, 38976, Note_on_c, 0, 55, 87
1, 38976, Note_on_c, 0, 60, 87
1, 38976, Note_on_c, 0, 64, 87
1, 38976, Note_on_c, 0, 76, 87
1, 39072, Note_off_c, 0, 45, 64
1, 39072, Note_on_c, 0, 45, 87
1, 39072, Note_on_c, 0, 52, 87
1, 39072, Note_off_c, 0, 55, 64
1, 39072, Note_on_c, 0, 55, 87
1, 39072, Note_off_c, 0, 60, 64
1, 39072, Note_on_c, 0, 60, 87
1, 39072, Note_off_c, 0, 64, 64
1, 39072, Note_on_c, 0, 72, 87
1, 39072, Note_off_c, 0, 76, 64
1, 39168, Note_on_c, 0, 40, 87
1, 39168, Note_off_c, 0, 45, 64
1, 39168, Note_on_c, 0, 50, 87
1, 39168, Note_off_c, 0, 52, 64
1, 39168, Note_off_c, 0, 55, 64
1, 39168, Note_on_c, 0, 55, 87
1, 39168, Note_on_c, 0, 59, 87
1, 39168, Note_off_c, 0, 60, 64
1, 39168, Note_on_c, 0, 71, 87
1, 39168, Note_off_c, 0, 72, 64
1, 39360, Note_off_c, 0, 40, 64
1, 39360, Note_on_c, 0, 40, 87
1, 39360, Note_off_c, 0, 50, 64
1, 39360, Note_on_c, 0, 50, 87
1, 39360, Note_off_c, 0, 55, 64
1, 39360, Note_on_c, 0, 55, 87
1, 39360, Note_off_c, 0, 59, 64
1, 39360, Note_on_c, 0, 59, 87
1, 39360, Note_off_c, 0, 71, 64
1, 39432, Note_off_c, 0, 40, 64
1, 39432, Note_on_c, 0, 40, 87
1, 39432, Note_off_c, 0, 50, 64
1, 39432, Note_off_c, 0, 55, 64
1, 39432, Note_on_c, 0, 55, 87
1, 39432, Note_off_c, 0, 59, 64
1, 39432, Note_on_c, 0, 59, 87
1, 39432, Note_on_c, 0, 62, 87
1, 39504, Note_off_c, 0, 40, 64
1, 39504, Note_on_c, 0, 40, 87
1, 39504, Note_on_c, 0, 50, 87
1, 39504, Note_off_c, 0, 55, 64
1, 39504, Note_on_c, 0, 55, 87
1, 39504, Note_off_c, 0, 59, 64
1, 39504, Note_on_c, 0, 59, 87
1, 39504, Note_off_c, 0, 62, 64
1, 39648, Note_off_c, 0, 40, 64
1, 39648, Note_off_c, 0, 50, 64
1, 39648, Note_off_c, 0, 55, 64
1, 39648, Note_off_c, 0, 59, 64
1, 39744, Note_on_c, 0, 41, 87
1, 39744, Note_on_c, 0, 55, 87
1, 39744, Note_on_c, 0, 60, 87
1, 39744, Note_on_c, 0, 64, 87
1, 39744, Note_on_c, 0, 76, 87
1, 39840, Note_on_c, 0, 40, 87
1, 39840, Note_off_c, 0, 41, 64
1, 39840, Note_on_c, 0, 50, 87
1, 39840, Note_off_c, 0, 55, 64
1, 39840, Note_on_c, 0, 55, 87
1, 39840, Note_on_c, 0, 59, 87
1, 39840, Note_off_c, 0, 60, 64
1, 39840, Note_off_c, 0, 64, 64
1, 39840, Note_off_c, 0, 76, 64
1, 39840, Note_on_c, 0, 79, 87
1, 39936, Note_on_c, 0, 36, 72
1, 39936, Note_off_c, 0, 40, 64
1, 39936, Note_on_c, 0, 48, 70
1, 39936, Note_off_c, 0, 50, 64
1, 39936, Note_on_c, 0, 52, 75
1, 39936, Note_off_c, 0, 55, 64
1, 39936, Note_on_c, 0, 55, 72
1, 39936, Note_off_c, 0, 59, 64
1, 39936, Note_on_c, 0, 59, 76
1, 39936, Note_off_c, 0, 79, 64
1, 40030, Note_off_c, 0, 55, 0
1, 40031, Note_off_c, 0, 48, 0
1, 40031, Note_off_c, 0, 52, 0
1, 40032, Note_on_c, 0, 48, 24
1, 40032, Note_on_c, 0, 52, 66
1, 40032, Note_on_c, 0, 55, 43
1, 40032, Note_on_c, 0, 62, 75
1, 40217, Note_off_c, 0, 52, 0
1, 40217, Note_off_c, 0, 59, 0
1, 40224, Note_on_c, 0, 52, 84
1, 40224, Note_on_c, 0, 59, 63
1, 40267, Note_off_c, 0, 48, 0
1, 40272, Note_on_c, 0, 48, 82
1, 40320, Note_off_c, 0, 36, 0
1, 40320, Note_on_c, 0, 43, 75
1, 40320, Note_off_c, 0, 48, 0
1, 40320, Note_off_c, 0, 52, 0
1, 40320, Note_on_c, 0, 53, 62
1, 40320, Note_on_c, 0, 57, 76
1, 40320, Note_off_c, 0, 59, 0
1, 40320, Note_on_c, 0, 59, 79
1, 40320, Note_off_c, 0, 62, 0
1, 40320, Note_on_c, 0, 62, 77
1, 40329, Note_off_c, 0, 55, 0
1, 40414, Note_off_c, 0, 59, 0
1, 40415, Note_off_c, 0, 57, 0
1, 40416, Note_off_c, 0, 53, 0
1, 40416, Note_on_c, 0, 53, 72
1, 40416, Note_on_c, 0, 57, 69
1, 40416, Note_on_c, 0, 59, 72
1, 40416, Note_on_c, 0, 65, 109
1, 40505, Note_off_c, 0, 57, 0
1, 40506, Note_off_c, 0, 53, 0
1, 40508, Note_off_c, 0, 43, 0
1, 40512, Note_on_c, 0, 40, 75
1, 40512, Note_on_c, 0, 52, 90
1, 40512, Note_on_c, 0, 56, 79
1, 40512, Note_on_c, 0, 67, 92
1, 40596, Note_off_c, 0, 62, 0
1, 40597, Note_off_c, 0, 59, 0
1, 40598, Note_off_c, 0, 65, 0
1, 40602, Note_off_c, 0, 40, 0
1, 40605, Note_off_c, 0, 52, 0
1, 40605, Note_off_c, 0, 56, 0
1, 40605, Note_off_c, 0, 67, 0
1, 40608, Note_on_c, 0, 44, 75
1, 40608, Note_on_c, 0, 52, 84
1, 40608, Note_on_c, 0, 56, 83
1, 40608, Note_on_c, 0, 59, 65
1, 40608, Note_on_c, 0, 65, 111
1, 40694, Note_off_c, 0, 52, 0
1, 40695, Note_off_c, 0, 65, 0
1, 40696, Note_off_c, 0, 59, 0
1, 40697, Note_off_c, 0, 44, 0
1, 40697, Note_off_c, 0, 56, 0
1, 40704, Note_on_c, 0, 45, 83
1, 40704, Note_on_c, 0, 52, 76
1, 40704, Note_on_c, 0, 55, 67
1, 40704, Note_on_c, 0, 59, 69
1, 40704, Note_on_c, 0, 60, 62
1, 40704, Note_on_c, 0, 64, 79
1, 40848, Note_off_c, 0, 55, 0
1, 40848, Note_on_c, 0, 55, 65
1, 40890, Note_off_c, 0, 59, 0
1, 40892, Note_off_c, 0, 60, 0
1, 40894, Note_off_c, 0, 64, 0
1, 40896, Note_on_c, 0, 59, 79
1, 40896, Note_on_c, 0, 60, 80
1, 40896, Note_on_c, 0, 64, 86
1, 40979, Note_off_c, 0, 55, 0
1, 40992, Note_on_c, 0, 55, 69
1, 41040, Note_on_c, 0, 43, 86
1, 41040, Note_off_c, 0, 52, 0
1, 41041, Note_off_c, 0, 45, 0
1, 41088, Note_on_c, 0, 41, 84
1, 41088, Note_on_c, 0, 48, 76
1, 41088, Note_on_c, 0, 53, 69
1, 41088, Note_on_c, 0, 57, 63
1, 41089, Note_off_c, 0, 43, 0
1, 41090, Note_off_c, 0, 55, 0
1, 41091, Note_off_c, 0, 64, 0
1, 41092, Note_off_c, 0, 59, 0
1, 41092, Note_off_c, 0, 60, 0
1, 41181, Note_off_c, 0, 53, 0
1, 41184, Note_on_c, 0, 53, 70
1, 41184, Note_on_c, 0, 55, 73
1, 41184, Note_on_c, 0, 60, 77
1, 41184, Note_on_c, 0, 64, 84
1, 41278, Note_off_c, 0, 55, 0
1, 41278, Note_off_c, 0, 64, 0
1, 41280, Note_on_c, 0, 55, 75
1, 41280, Note_off_c, 0, 60, 0
1, 41280, Note_on_c, 0, 60, 65
1, 41280, Note_on_c, 0, 64, 92
1, 41325, Note_off_c, 0, 53, 0
1, 41328, Note_on_c, 0, 53, 84
1, 41371, Note_off_c, 0, 64, 0
1, 41372, Note_off_c, 0, 60, 0
1, 41376, Note_off_c, 0, 55, 0
1, 41376, Note_on_c, 0, 55, 75
1, 41376, Note_on_c, 0, 60, 65
1, 41376, Note_on_c, 0, 64, 107
1, 41422, Note_off_c, 0, 41, 0
1, 41424, Note_on_c, 0, 41, 84
1, 41468, Note_off_c, 0, 57, 0
1, 41470, Note_off_c, 0, 48, 0
1, 41472, Note_off_c, 0, 41, 0
1, 41472, Note_on_c, 0, 48, 68
1, 41472, Note_off_c, 0, 53, 0
1, 41472, Note_off_c, 0, 55, 0
1, 41472, Note_on_c, 0, 59, 68
1, 41472, Note_off_c, 0, 60, 0
1, 41472, Note_off_c, 0, 64, 0
1, 41472, Note_on_c, 0, 64, 68
1, 41472, Note_on_c, 0, 67, 68
1, 41520, Note_on_c, 0, 55, 68
1, 41568, Note_on_c, 0, 57, 68
1, 41613, Note_off_c, 0, 48, 0
1, 41613, Note_off_c, 0, 55, 0
1, 41613, Note_off_c, 0, 57, 0
1, 41613, Note_off_c, 0, 59, 0
1, 41613, Note_off_c, 0, 64, 0
1, 41613, Note_off_c, 0, 67, 0
1, 41616, Note_on_c, 0, 45, 68
1, 41616, Note_on_c, 0, 57, 68
1, 41616, Note_on_c, 0, 60, 68
1, 41616, Note_on_c, 0, 64, 68
1, 41712, Note_on_c, 0, 52, 68
1, 41760, Note_on_c, 0, 55, 68
1, 41808, Note_on_c, 0, 53, 68
1, 41846, Note_off_c, 0, 52, 0
1, 41847, Note_off_c, 0, 55, 0
1, 41849, Note_off_c, 0, 53, 0
1, 41850, Note_off_c, 0, 57, 0
1, 41850, Note_off_c, 0, 60, 0
1, 41851, Note_off_c, 0, 45, 0
1, 41851, Note_off_c, 0, 64, 0
1, 41856, Note_on_c, 0, 38, 68
1, 41856, Note_on_c, 0, 53, 68
1, 41856, Note_on_c, 0, 57, 68
1, 41856, Note_on_c, 0, 60, 68
1, 41903, Note_off_c, 0, 53, 0
1, 41904, Note_on_c, 0, 50, 68
1, 41904, Note_on_c, 0, 53, 68
1, 41904, Note_on_c, 0, 64, 68
1, 42000, Note_on_c, 0, 43, 68
1, 42000, Note_off_c, 0, 57, 0
1, 42000, Note_on_c, 0, 57, 68
1, 42000, Note_on_c, 0, 59, 68
1, 42000, Note_on_c, 0, 62, 68
1, 42002, Note_off_c, 0, 38, 0
1, 42014, Note_off_c, 0, 53, 0
1, 42015, Note_off_c, 0, 50, 0
1, 42016, Note_off_c, 0, 60, 0
1, 42016, Note_off_c, 0, 64, 0
1, 42096, Note_on_c, 0, 53, 68
1, 42135, Note_off_c, 0, 57, 0
1, 42144, Note_on_c, 0, 57, 68
1, 42183, Note_off_c, 0, 59, 0
1, 42192, Note_on_c, 0, 59, 68
1, 42225, Note_off_c, 0, 62, 0
1, 42226, Note_off_c, 0, 43, 0
1, 42232, Note_off_c, 0, 53, 0
1, 42233, Note_off_c, 0, 57, 0
1, 42234, Note_off_c, 0, 59, 0
1, 42240, Note_on_c, 0, 48, 68
1, 42288, Note_on_c, 0, 55, 68
1, 42288, Note_on_c, 0, 59, 68
1, 42288, Note_on_c, 0, 64, 68
1, 42336, Note_on_c, 0, 60, 68
1, 42384, Note_on_c, 0, 45, 68
1, 42384, Note_on_c, 0, 52, 68
1, 42384, Note_off_c, 0, 55, 0
1, 42384, Note_on_c, 0, 55, 68
1, 42384, Note_on_c, 0, 57, 68
1, 42384, Note_off_c, 0, 60, 0
1, 42384, Note_on_c, 0, 60, 68
1, 42389, Note_off_c, 0, 48, 0
1, 42389, Note_off_c, 0, 59, 0
1, 42389, Note_off_c, 0, 64, 0
1, 42477, Note_off_c, 0, 55, 0
1, 42480, Note_on_c, 0, 55, 68
1, 42528, Note_off_c, 0, 57, 0
1, 42528, Note_on_c, 0, 57, 68
1, 42571, Note_off_c, 0, 60, 0
1, 42576, Note_on_c, 0, 60, 68
1, 42605, Note_off_c, 0, 52, 0
1, 42606, Note_off_c, 0, 57, 0
1, 42608, Note_off_c, 0, 45, 0
1, 42609, Note_off_c, 0, 55, 0
1, 42612, Note_off_c, 0, 60, 0
1, 42624, Note_on_c, 0, 38, 68
1, 42624, Note_on_c, 0, 53, 68
1, 42624, Note_on_c, 0, 60, 68
1, 42624, Note_on_c, 0, 64, 68
1, 42672, Note_on_c, 0, 50, 68
1, 42768, Note_on_c, 0, 43, 68
1, 42768, Note_off_c, 0, 50, 0
1, 42768, Note_off_c, 0, 53, 0
1, 42768, Note_on_c, 0, 53, 68
1, 42768, Note_on_c, 0, 57, 68
1, 42768, Note_on_c, 0, 59, 68
1, 42768, Note_on_c, 0, 62, 68
1, 42769, Note_off_c, 0, 60, 0
1, 42769, Note_off_c, 0, 64, 0
1, 42770, Note_off_c, 0, 38, 0
1, 42860, Note_off_c, 0, 43, 0
1, 42864, Note_on_c, 0, 43, 68
1, 42909, Note_off_c, 0, 53, 0
1, 42909, Note_off_c, 0, 62, 0
1, 42911, Note_off_c, 0, 57, 0
1, 42911, Note_off_c, 0, 59, 0
1, 42912, Note_on_c, 0, 53, 68
1, 42912, Note_on_c, 0, 57, 68
1, 42912, Note_on_c, 0, 59, 68
1, 42912, Note_on_c, 0, 62, 68
1, 42960, Note_on_c, 0, 47, 68
1, 43004, Note_off_c, 0, 57, 0
1, 43004, Note_off_c, 0, 59, 0
1, 43005, Note_off_c, 0, 43, 0
1, 43005, Note_off_c, 0, 47, 0
1, 43005, Note_off_c, 0, 53, 0
1, 43005, Note_off_c, 0, 62, 0
1, 43008, Note_on_c, 0, 41, 79
1, 43008, Note_on_c, 0, 53, 79
1, 43008, Note_on_c, 0, 57, 79
1, 43008, Note_on_c, 0, 60, 79
1, 43008, Note_on_c, 0, 64, 79
1, 43056, Note_on_c, 0, 84, 46
1, 43056, Note_on_c, 0, 96, 46
1, 43104, Note_off_c, 0, 84, 64
1, 43104, Note_off_c, 0, 96, 64
1, 43392, Note_off_c, 0, 53, 64
1, 43392, Note_off_c, 0, 57, 64
1, 43392, Note_off_c, 0, 60, 64
1, 43392, Note_off_c, 0, 64, 64
1, 43440, Note_on_c, 0, 83, 46
1, 43440, Note_on_c, 0, 95, 46
1, 43488, Note_on_c, 0, 72, 79
1, 43488, Note_off_c, 0, 83, 64
1, 43488, Note_off_c, 0, 95, 64
1, 43584, Note_on_c, 0, 71, 79
1, 43584, Note_off_c, 0, 72, 64
1, 43680, Note_on_c, 0, 69, 79
1, 43680, Note_off_c, 0, 71, 64
1, 43728, Note_on_c, 0, 67, 79
1, 43728, Note_off_c, 0, 69, 64
1, 43776, Note_on_c, 0, 33, 79
1, 43776, Note_off_c, 0, 41, 64
1, 43776, Note_on_c, 0, 57, 79
1, 43776, Note_on_c, 0, 64, 79
1, 43776, Note_off_c, 0, 67, 64
1, 43776, Note_on_c, 0, 67, 79
1, 43776, Note_on_c, 0, 72, 79
1, 43824, Note_on_c, 0, 81, 46
1, 43824, Note_on_c, 0, 93, 46
1, 43872, Note_off_c, 0, 81, 64
1, 43872, Note_off_c, 0, 93, 64
1, 44160, Note_off_c, 0, 33, 64
1, 44160, Note_on_c, 0, 33, 79
1, 44160, Note_off_c, 0, 57, 64
1, 44160, Note_off_c, 0, 64, 64
1, 44160, Note_off_c, 0, 67, 64
1, 44160, Note_off_c, 0, 72, 64
1, 44208, Note_on_c, 0, 76, 46
1, 44208, Note_on_c, 0, 88, 46
1, 44256, Note_on_c, 0, 69, 79
1, 44256, Note_off_c, 0, 76, 64
1, 44256, Note_off_c, 0, 88, 64
1, 44352, Note_off_c, 0, 69, 64
1, 44352, Note_on_c, 0, 71, 79
1, 44448, Note_off_c, 0, 33, 64
1, 44448, Note_on_c, 0, 40, 79
1, 44448, Note_on_c, 0, 69, 79
1, 44448, Note_off_c, 0, 71, 64
1, 44496, Note_on_c, 0, 62, 79
1, 44496, Note_off_c, 0, 69, 64
1, 44544, Note_on_c, 0, 29, 42
1, 44544, Note_off_c, 0, 40, 64
1, 44544, Note_on_c, 0, 41, 42
1, 44544, Note_on_c, 0, 48, 42
1, 44544, Note_on_c, 0, 57, 42
1, 44544, Note_off_c, 0, 62, 64
1, 44544, Note_on_c, 0, 64, 42
1, 44544, Note_on_c, 0, 67, 42
1, 44544, Note_on_c, 0, 72, 42
1, 44581, Note_off_c, 0, 72, 64
1, 44592, Note_off_c, 0, 64, 64
1, 44592, Note_off_c, 0, 67, 64
1, 44640, Note_on_c, 0, 64, 42
1, 44640, Note_on_c, 0, 67, 42
1, 44640, Note_on_c, 0, 72, 42
1, 44688, Note_off_c, 0, 64, 64
1, 44688, Note_off_c, 0, 67, 64
1, 44688, Note_off_c, 0, 72, 64
1, 44736, Note_on_c, 0, 64, 42
1, 44736, Note_on_c, 0, 67, 42
1, 44736, Note_on_c, 0, 72, 42
1, 44736, Note_on_c, 0, 76, 42
1, 44784, Note_off_c, 0, 64, 64
1, 44784, Note_off_c, 0, 67, 64
1, 44784, Note_off_c, 0, 72, 64
1, 44784, Note_on_c, 0, 79, 42
1, 44797, Note_off_c, 0, 76, 64
1, 44832, Note_off_c, 0, 29, 64
1, 44832, Note_on_c, 0, 29, 42
1, 44832, Note_on_c, 0, 64, 42
1, 44832, Note_on_c, 0, 67, 42
1, 44832, Note_on_c, 0, 72, 42
1, 44832, Note_on_c, 0, 76, 42
1, 44851, Note_off_c, 0, 79, 64
1, 44880, Note_on_c, 0, 28, 42
1, 44880, Note_off_c, 0, 29, 64
1, 44880, Note_off_c, 0, 64, 64
1, 44880, Note_off_c, 0, 67, 64
1, 44880, Note_on_c, 0, 67, 42
1, 44880, Note_off_c, 0, 72, 64
1, 44880, Note_on_c, 0, 74, 42
1, 44924, Note_off_c, 0, 67, 64
1, 44924, Note_off_c, 0, 74, 64
1, 44924, Note_off_c, 0, 76, 64
1, 44928, Note_on_c, 0, 26, 42
1, 44928, Note_off_c, 0, 28, 64
1, 44928, Note_on_c, 0, 38, 42
1, 44928, Note_off_c, 0, 41, 64
1, 44928, Note_on_c, 0, 45, 42
1, 44928, Note_off_c, 0, 48, 64
1, 44928, Note_on_c, 0, 53, 42
1, 44928, Note_off_c, 0, 57, 64
1, 44928, Note_on_c, 0, 64, 42
1, 44928, Note_on_c, 0, 69, 42
1, 44928, Note_on_c, 0, 72, 42
1, 44976, Note_off_c, 0, 64, 64
1, 44976, Note_off_c, 0, 69, 64
1, 44976, Note_off_c, 0, 72, 64
1, 45024, Note_on_c, 0, 64, 42
1, 45024, Note_on_c, 0, 69, 42
1, 45024, Note_on_c, 0, 72, 42
1, 45072, Note_off_c, 0, 64, 64
1, 45072, Note_off_c, 0, 69, 64
1, 45072, Note_off_c, 0, 72, 64
1, 45120, Note_on_c, 0, 64, 42
1, 45120, Note_on_c, 0, 69, 42
1, 45120, Note_on_c, 0, 72, 42
1, 45120, Note_on_c, 0, 76, 42
1, 45168, Note_off_c, 0, 64, 64
1, 45168, Note_off_c, 0, 69, 64
1, 45168, Note_off_c, 0, 72, 64
1, 45168, Note_on_c, 0, 79, 42
1, 45174, Note_off_c, 0, 76, 64
1, 45216, Note_off_c, 0, 26, 64
1, 45216, Note_on_c, 0, 26, 42
1, 45216, Note_on_c, 0, 64, 42
1, 45216, Note_on_c, 0, 69, 42
1, 45216, Note_on_c, 0, 72, 42
1, 45216, Note_on_c, 0, 76, 42
1, 45245, Note_off_c, 0, 79, 64
1, 45264, Note_off_c, 0, 26, 64
1, 45264, Note_on_c, 0, 28, 42
1, 45264, Note_off_c, 0, 64, 64
1, 45264, Note_off_c, 0, 69, 64
1, 45264, Note_on_c, 0, 69, 42
1, 45264, Note_off_c, 0, 72, 64
1, 45264, Note_on_c, 0, 74, 42
1, 45287, Note_off_c, 0, 76, 64
1, 45308, Note_off_c, 0, 69, 64
1, 45310, Note_off_c, 0, 74, 64
1, 45312, Note_on_c, 0, 21, 42
1, 45312, Note_off_c, 0, 28, 64
1, 45312, Note_on_c, 0, 36, 42
1, 45312, Note_off_c, 0, 38, 64
1, 45312, Note_off_c, 0, 45, 64
1, 45312, Note_on_c, 0, 45, 42
1, 45312, Note_on_c, 0, 52, 42
1, 45312, Note_off_c, 0, 53, 64
1, 45312, Note_on_c, 0, 64, 42
1, 45312, Note_on_c, 0, 67, 42
1, 45312, Note_on_c, 0, 72, 42
1, 45360, Note_off_c, 0, 64, 64
1, 45360, Note_off_c, 0, 67, 64
1, 45367, Note_off_c, 0, 72, 64
1, 45408, Note_on_c, 0, 64, 42
1, 45408, Note_on_c, 0, 67, 42
1, 45408, Note_on_c, 0, 72, 42
1, 45456, Note_off_c, 0, 64, 64
1, 45456, Note_off_c, 0, 67, 64
1, 45456, Note_off_c, 0, 72, 64
1, 45504, Note_on_c, 0, 64, 42
1, 45504, Note_on_c, 0, 67, 42
1, 45504, Note_on_c, 0, 72, 42
1, 45504, Note_on_c, 0, 76, 42
1, 45552, Note_off_c, 0, 64, 64
1, 45552, Note_off_c, 0, 67, 64
1, 45552, Note_off_c, 0, 72, 64
1, 45552, Note_on_c, 0, 79, 42
1, 45564, Note_off_c, 0, 76, 64
1, 45600, Note_off_c, 0, 21, 64
1, 45600, Note_on_c, 0, 23, 42
1, 45600, Note_on_c, 0, 64, 42
1, 45600, Note_on_c, 0, 67, 42
1, 45600, Note_on_c, 0, 72, 42
1, 45600, Note_on_c, 0, 76, 42
1, 45619, Note_off_c, 0, 79, 64
1, 45648, Note_off_c, 0, 64, 64
1, 45648, Note_off_c, 0, 67, 64
1, 45648, Note_on_c, 0, 67, 42
1, 45648, Note_off_c, 0, 72, 64
1, 45648, Note_on_c, 0, 74, 42
1, 45692, Note_off_c, 0, 67, 64
1, 45692, Note_off_c, 0, 74, 64
1, 45692, Note_off_c, 0, 76, 64
1, 45696, Note_off_c, 0, 23, 64
1, 45696, Note_on_c, 0, 24, 42
1, 45696, Note_off_c, 0, 36, 64
1, 45696, Note_on_c, 0, 36, 42
1, 45696, Note_on_c, 0, 43, 42
1, 45696, Note_off_c, 0, 45, 64
1, 45696, Note_off_c, 0, 52, 64
1, 45696, Note_on_c, 0, 52, 42
1, 45696, Note_on_c, 0, 64, 42
1, 45696, Note_on_c, 0, 67, 42
1, 45696, Note_on_c, 0, 72, 42
1, 45744, Note_off_c, 0, 64, 64
1, 45744, Note_off_c, 0, 67, 64
1, 45744, Note_off_c, 0, 72, 64
1, 45792, Note_on_c, 0, 64, 42
1, 45792, Note_on_c, 0, 67, 42
1, 45792, Note_on_c, 0, 72, 42
1, 45840, Note_off_c, 0, 64, 64
1, 45840, Note_off_c, 0, 67, 64
1, 45840, Note_off_c, 0, 72, 64
1, 45888, Note_on_c, 0, 64, 42
1, 45888, Note_on_c, 0, 67, 42
1, 45888, Note_on_c, 0, 72, 42
1, 45888, Note_on_c, 0, 79, 42
1, 45931, Note_off_c, 0, 79, 64
1, 45936, Note_off_c, 0, 64, 64
1, 45936, Note_off_c, 0, 67, 64
1, 45936, Note_off_c, 0, 72, 64
1, 45936, Note_on_c, 0, 81, 42
1, 45984, Note_off_c, 0, 24, 64
1, 45984, Note_on_c, 0, 31, 42
1, 45984, Note_on_c, 0, 64, 42
1, 45984, Note_on_c, 0, 67, 42
1, 45984, Note_on_c, 0, 72, 42
1, 45984, Note_on_c, 0, 76, 42
1, 45989, Note_off_c, 0, 81, 64
1, 46032, Note_off_c, 0, 64, 64
1, 46032, Note_off_c, 0, 67, 64
1, 46032, Note_on_c, 0, 67, 42
1, 46032, Note_off_c, 0, 72, 64
1, 46032, Note_on_c, 0, 74, 42
1, 46032, Note_on_c, 0, 79, 42
1, 46044, Note_off_c, 0, 76, 64
1, 46069, Note_off_c, 0, 79, 64
1, 46076, Note_off_c, 0, 67, 64
1, 46076, Note_off_c, 0, 74, 64
1, 46080, Note_off_c, 0, 31, 64
1, 46080, Note_on_c, 0, 33, 88
1, 46080, Note_off_c, 0, 36, 64
1, 46080, Note_on_c, 0, 40, 59
1, 46080, Note_off_c, 0, 43, 64
1, 46080, Note_on_c, 0, 48, 59
1, 46080, Note_off_c, 0, 52, 64
1, 46080, Note_on_c, 0, 60, 40
1, 46176, Note_on_c, 0, 59, 40
1, 46272, Note_off_c, 0, 48, 64
1, 46272, Note_on_c, 0, 48, 83
1, 46272, Note_off_c, 0, 60, 64
1, 46272, Note_on_c, 0, 67, 40
1, 46280, Note_on_c, 0, 76, 55
1, 46368, Note_on_c, 0, 52, 75
1, 46368, Note_off_c, 0, 59, 64
1, 46368, Note_on_c, 0, 65, 40
1, 46368, Note_off_c, 0, 67, 64
1, 46464, Note_on_c, 0, 31, 88
1, 46464, Note_off_c, 0, 33, 64
1, 46464, Note_on_c, 0, 38, 88
1, 46464, Note_off_c, 0, 40, 64
1, 46464, Note_off_c, 0, 48, 64
1, 46464, Note_off_c, 0, 52, 64
1, 46464, Note_on_c, 0, 52, 77
1, 46464, Note_on_c, 0, 55, 76
1, 46464, Note_on_c, 0, 60, 40
1, 46464, Note_off_c, 0, 65, 64
1, 46464, Note_on_c, 0, 67, 39
1, 46514, Note_off_c, 0, 76, 64
1, 46560, Note_on_c, 0, 59, 40
1, 46654, Note_off_c, 0, 52, 64
1, 46656, Note_on_c, 0, 52, 91
1, 46656, Note_off_c, 0, 55, 64
1, 46656, Note_on_c, 0, 55, 40
1, 46656, Note_off_c, 0, 60, 64
1, 46656, Note_off_c, 0, 67, 64
1, 46656, Note_on_c, 0, 72, 58
1, 46752, Note_on_c, 0, 48, 79
1, 46752, Note_off_c, 0, 52, 64
1, 46752, Note_on_c, 0, 53, 90
1, 46752, Note_off_c, 0, 55, 64
1, 46752, Note_off_c, 0, 59, 64
1, 46752, Note_on_c, 0, 65, 40
1, 46752, Note_off_c, 0, 72, 64
1, 46752, Note_on_c, 0, 74, 58
1, 46848, Note_on_c, 0, 29, 88
1, 46848, Note_off_c, 0, 31, 64
1, 46848, Note_on_c, 0, 36, 59
1, 46848, Note_off_c, 0, 38, 64
1, 46848, Note_on_c, 0, 45, 88
1, 46848, Note_on_c, 0, 60, 40
1, 46848, Note_off_c, 0, 65, 64
1, 46848, Note_on_c, 0, 72, 58
1, 46848, Note_off_c, 0, 74, 64
1, 46944, Note_on_c, 0, 59, 40
1, 47040, Note_off_c, 0, 48, 64
1, 47040, Note_on_c, 0, 52, 64
1, 47040, Note_off_c, 0, 53, 64
1, 47040, Note_off_c, 0, 60, 64
1, 47040, Note_on_c, 0, 67, 40
1, 47040, Note_off_c, 0, 72, 64
1, 47048, Note_on_c, 0, 76, 55
1, 47105, Note_off_c, 0, 76, 64
1, 47136, Note_on_c, 0, 48, 77
1, 47136, Note_off_c, 0, 59, 64
1, 47136, Note_on_c, 0, 65, 40
1, 47136, Note_off_c, 0, 67, 64
1, 47144, Note_off_c, 0, 52, 64
1, 47225, Note_off_c, 0, 48, 64
1, 47232, Note_off_c, 0, 29, 64
1, 47232, Note_on_c, 0, 31, 88
1, 47232, Note_off_c, 0, 36, 64
1, 47232, Note_on_c, 0, 41, 88
1, 47232, Note_off_c, 0, 45, 64
1, 47232, Note_on_c, 0, 50, 83
1, 47232, Note_on_c, 0, 53, 75
1, 47232, Note_on_c, 0, 60, 40
1, 47232, Note_off_c, 0, 65, 64
1, 47232, Note_on_c, 0, 67, 39
1, 47295, Note_off_c, 0, 67, 64
1, 47325, Note_off_c, 0, 53, 64
1, 47328, Note_on_c, 0, 52, 75
1, 47328, Note_on_c, 0, 59, 40
1, 47424, Note_off_c, 0, 50, 64
1, 47424, Note_on_c, 0, 50, 83
1, 47424, Note_on_c, 0, 55, 40
1, 47424, Note_off_c, 0, 60, 64
1, 47424, Note_on_c, 0, 76, 52
1, 47426, Note_off_c, 0, 52, 64
1, 47487, Note_off_c, 0, 76, 64
1, 47520, Note_on_c, 0, 48, 77
1, 47520, Note_on_c, 0, 53, 40
1, 47520, Note_off_c, 0, 55, 64
1, 47520, Note_off_c, 0, 59, 64
1, 47520, Note_on_c, 0, 72, 52
1, 47533, Note_off_c, 0, 50, 64
1, 47583, Note_off_c, 0, 72, 64
1, 47616, Note_off_c, 0, 31, 64
1, 47616, Note_off_c, 0, 41, 64
1, 47616, Note_on_c, 0, 41, 64
1, 47616, Note_off_c, 0, 48, 64
1, 47616, Note_off_c, 0, 53, 64
1, 47616, Note_on_c, 0, 53, 64
1, 47616, Note_on_c, 0, 57, 64
1, 47616, Note_on_c, 0, 60, 64
1, 47616, Note_on_c, 0, 64, 64
1, 47640, Note_off_c, 0, 41, 0
1, 47640, Note_off_c, 0, 53, 0
1, 47640, Note_off_c, 0, 57, 0
1, 47640, Note_off_c, 0, 60, 0
1, 47640, Note_off_c, 0, 64, 0
1, 47688, Note_on_c, 0, 41, 64
1, 47688, Note_on_c, 0, 53, 64
1, 47688, Note_on_c, 0, 57, 64
1, 47688, Note_on_c, 0, 60, 64
1, 47688, Note_on_c, 0, 64, 64
1, 47712, Note_off_c, 0, 41, 0
1, 47712, Note_off_c, 0, 53, 0
1, 47712, Note_off_c, 0, 57, 0
1, 47712, Note_off_c, 0, 60, 0
1, 47712, Note_off_c, 0, 64, 0
1, 47712, Note_on_c, 0, 67, 64
1, 47726, Note_off_c, 0, 67, 0
1, 47760, Note_on_c, 0, 64, 64
1, 47783, Note_off_c, 0, 64, 0
1, 47808, Note_on_c, 0, 43, 64
1, 47808, Note_on_c, 0, 55, 64
1, 47808, Note_on_c, 0, 59, 64
1, 47808, Note_on_c, 0, 62, 64
1, 47830, Note_off_c, 0, 62, 0
1, 47832, Note_off_c, 0, 43, 0
1, 47832, Note_off_c, 0, 55, 0
1, 47832, Note_off_c, 0, 59, 0
1, 47856, Note_on_c, 0, 64, 64
1, 47880, Note_on_c, 0, 43, 64
1, 47880, Note_on_c, 0, 53, 64
1, 47880, Note_on_c, 0, 55, 64
1, 47880, Note_on_c, 0, 59, 64
1, 47880, Note_on_c, 0, 62, 64
1, 47884, Note_off_c, 0, 64, 0
1, 47904, Note_off_c, 0, 43, 0
1, 47904, Note_off_c, 0, 53, 0
1, 47904, Note_off_c, 0, 55, 0
1, 47904, Note_off_c, 0, 59, 0
1, 47904, Note_off_c, 0, 62, 0
1, 47952, Note_on_c, 0, 43, 64
1, 47952, Note_on_c, 0, 53, 64
1, 47952, Note_on_c, 0, 55, 64
1, 47952, Note_on_c, 0, 60, 64
1, 47976, Note_off_c, 0, 43, 0
1, 47976, Note_off_c, 0, 53, 0
1, 47976, Note_off_c, 0, 55, 0
1, 47976, Note_off_c, 0, 60, 0
1, 48000, Note_on_c, 0, 36, 64
1, 48000, Note_on_c, 0, 48, 64
1, 48000, Note_on_c, 0, 50, 64
1, 48000, Note_on_c, 0, 52, 64
1, 48000, Note_on_c, 0, 55, 64
1, 48000, Note_on_c, 0, 59, 64
1, 48024, Note_off_c, 0, 36, 0
1, 48024, Note_off_c, 0, 48, 0
1, 48024, Note_off_c, 0, 50, 0
1, 48024, Note_off_c, 0, 52, 0
1, 48024, Note_off_c, 0, 55, 0
1, 48024, Note_off_c, 0, 59, 0
1, 48072, Note_on_c, 0, 36, 64
1, 48072, Note_on_c, 0, 48, 64
1, 48072, Note_on_c, 0, 52, 64
1, 48072, Note_on_c, 0, 55, 64
1, 48072, Note_on_c, 0, 59, 64
1, 48096, Note_off_c, 0, 36, 0
1, 48096, Note_off_c, 0, 48, 0
1, 48096, Note_off_c, 0, 52, 0
1, 48096, Note_off_c, 0, 55, 0
1, 48096, Note_off_c, 0, 59, 0
1, 48096, Note_on_c, 0, 67, 64
1, 48116, Note_off_c, 0, 67, 0
1, 48144, Note_on_c, 0, 64, 64
1, 48171, Note_off_c, 0, 64, 0
1, 48192, Note_on_c, 0, 33, 64
1, 48192, Note_on_c, 0, 45, 64
1, 48192, Note_on_c, 0, 48, 64
1, 48192, Note_on_c, 0, 52, 64
1, 48192, Note_on_c, 0, 55, 64
1, 48192, Note_on_c, 0, 62, 64
1, 48216, Note_off_c, 0, 33, 0
1, 48216, Note_off_c, 0, 45, 0
1, 48216, Note_off_c, 0, 48, 0
1, 48216, Note_off_c, 0, 52, 0
1, 48216, Note_off_c, 0, 55, 0
1, 48220, Note_off_c, 0, 62, 0
1, 48240, Note_on_c, 0, 64, 64
1, 48253, Note_off_c, 0, 64, 0
1, 48264, Note_on_c, 0, 33, 64
1, 48264, Note_on_c, 0, 45, 64
1, 48264, Note_on_c, 0, 48, 64
1, 48264, Note_on_c, 0, 52, 64
1, 48264, Note_on_c, 0, 55, 64
1, 48288, Note_off_c, 0, 33, 0
1, 48288, Note_off_c, 0, 45, 0
1, 48288, Note_off_c, 0, 48, 0
1, 48288, Note_off_c, 0, 52, 0
1, 48288, Note_off_c, 0, 55, 0
1, 48288, Note_on_c, 0, 60, 64
1, 48288, Note_on_c, 0, 62, 64
1, 48289, Note_off_c, 0, 60, 0
1, 48320, Note_off_c, 0, 62, 0
1, 48336, Note_on_c, 0, 33, 64
1, 48336, Note_on_c, 0, 45, 64
1, 48336, Note_on_c, 0, 48, 64
1, 48336, Note_on_c, 0, 52, 64
1, 48336, Note_on_c, 0, 57, 64
1, 48336, Note_on_c, 0, 60, 64
1, 48360, Note_off_c, 0, 33, 0
1, 48360, Note_off_c, 0, 45, 0
1, 48360, Note_off_c, 0, 48, 0
1, 48360, Note_off_c, 0, 52, 0
1, 48360, Note_off_c, 0, 57, 0
1, 48363, Note_off_c, 0, 60, 0
1, 48384, Note_on_c, 0, 41, 64
1, 48384, Note_on_c, 0, 53, 64
1, 48384, Note_on_c, 0, 57, 64
1, 48384, Note_on_c, 0, 60, 64
1, 48384, Note_on_c, 0, 64, 64
1, 48408, Note_off_c, 0, 41, 0
1, 48408, Note_off_c, 0, 53, 0
1, 48408, Note_off_c, 0, 57, 0
1, 48408, Note_off_c, 0, 60, 0
1, 48408, Note_off_c, 0, 64, 0
1, 48456, Note_on_c, 0, 41, 64
1, 48456, Note_on_c, 0, 53, 64
1, 48456, Note_on_c, 0, 57, 64
1, 48456, Note_on_c, 0, 60, 64
1, 48456, Note_on_c, 0, 64, 64
1, 48480, Note_off_c, 0, 41, 0
1, 48480, Note_off_c, 0, 53, 0
1, 48480, Note_off_c, 0, 57, 0
1, 48480, Note_off_c, 0, 60, 0
1, 48480, Note_off_c, 0, 64, 0
1, 48480, Note_on_c, 0, 67, 64
1, 48496, Note_off_c, 0, 67, 0
1, 48528, Note_on_c, 0, 64, 64
1, 48553, Note_off_c, 0, 64, 0
1, 48576, Note_on_c, 0, 43, 64
1, 48576, Note_on_c, 0, 53, 64
1, 48576, Note_on_c, 0, 55, 64
1, 48576, Note_on_c, 0, 59, 64
1, 48576, Note_on_c, 0, 62, 64
1, 48600, Note_off_c, 0, 43, 0
1, 48600, Note_off_c, 0, 53, 0
1, 48600, Note_off_c, 0, 55, 0
1, 48600, Note_off_c, 0, 59, 0
1, 48600, Note_off_c, 0, 62, 0
1, 48624, Note_on_c, 0, 64, 64
1, 48648, Note_on_c, 0, 43, 64
1, 48648, Note_on_c, 0, 53, 64
1, 48648, Note_on_c, 0, 55, 64
1, 48648, Note_on_c, 0, 59, 64
1, 48648, Note_on_c, 0, 62, 64
1, 48654, Note_off_c, 0, 64, 0
1, 48672, Note_off_c, 0, 43, 0
1, 48672, Note_off_c, 0, 53, 0
1, 48672, Note_off_c, 0, 55, 0
1, 48672, Note_off_c, 0, 59, 0
1, 48672, Note_off_c, 0, 62, 0
1, 48720, Note_on_c, 0, 53, 64
1, 48720, Note_on_c, 0, 55, 64
1, 48720, Note_on_c, 0, 60, 64
1, 48720, Note_on_c, 0, 69, 64
1, 48744, Note_off_c, 0, 53, 0
1, 48744, Note_off_c, 0, 55, 0
1, 48744, Note_off_c, 0, 60, 0
1, 48745, Note_off_c, 0, 69, 0
1, 48768, Note_on_c, 0, 36, 64
1, 48768, Note_on_c, 0, 48, 64
1, 48768, Note_on_c, 0, 52, 64
1, 48768, Note_on_c, 0, 55, 64
1, 48768, Note_on_c, 0, 59, 64
1, 48768, Note_on_c, 0, 69, 64
1, 48768, Note_on_c, 0, 71, 64
1, 48770, Note_off_c, 0, 69, 0
1, 48790, Note_off_c, 0, 71, 0
1, 48791, Note_off_c, 0, 55, 0
1, 48792, Note_off_c, 0, 36, 0
1, 48792, Note_off_c, 0, 48, 0
1, 48792, Note_off_c, 0, 52, 0
1, 48792, Note_off_c, 0, 59, 0
1, 48840, Note_on_c, 0, 36, 64
1, 48840, Note_on_c, 0, 48, 64
1, 48840, Note_on_c, 0, 52, 64
1, 48840, Note_on_c, 0, 55, 64
1, 48840, Note_on_c, 0, 59, 64
1, 48864, Note_off_c, 0, 36, 0
1, 48864, Note_off_c, 0, 48, 0
1, 48864, Note_off_c, 0, 52, 0
1, 48864, Note_off_c, 0, 55, 0
1, 48864, Note_off_c, 0, 59, 0
1, 48864, Note_on_c, 0, 69, 64
1, 48888, Note_off_c, 0, 69, 0
1, 48960, Note_on_c, 0, 36, 64
1, 48960, Note_on_c, 0, 48, 64
1, 48960, Note_on_c, 0, 50, 64
1, 48960, Note_on_c, 0, 55, 64
1, 48960, Note_on_c, 0, 58, 64
1, 48960, Note_on_c, 0, 67, 64
1, 48960, Note_on_c, 0, 69, 64
1, 48962, Note_off_c, 0, 67, 0
1, 48983, Note_off_c, 0, 36, 0
1, 48983, Note_off_c, 0, 50, 0
1, 48983, Note_off_c, 0, 55, 0
1, 48984, Note_off_c, 0, 48, 0
1, 48984, Note_off_c, 0, 58, 0
1, 48985, Note_off_c, 0, 69, 0
1, 49032, Note_on_c, 0, 36, 64
1, 49032, Note_on_c, 0, 48, 64
1, 49032, Note_on_c, 0, 50, 64
1, 49032, Note_on_c, 0, 55, 64
1, 49032, Note_on_c, 0, 58, 64
1, 49056, Note_off_c, 0, 36, 0
1, 49056, Note_off_c, 0, 48, 0
1, 49056, Note_off_c, 0, 50, 0
1, 49056, Note_off_c, 0, 55, 0
1, 49056, Note_off_c, 0, 58, 0
1, 49056, Note_on_c, 0, 67, 64
1, 49078, Note_off_c, 0, 67, 0
1, 49104, Note_on_c, 0, 36, 64
1, 49104, Note_on_c, 0, 48, 64
1, 49104, Note_on_c, 0, 50, 64
1, 49104, Note_on_c, 0, 55, 64
1, 49104, Note_on_c, 0, 60, 64
1, 49104, Note_on_c, 0, 64, 64
1, 49128, Note_off_c, 0, 36, 0
1, 49128, Note_off_c, 0, 48, 0
1, 49128, Note_off_c, 0, 50, 0
1, 49128, Note_off_c, 0, 55, 0
1, 49128, Note_off_c, 0, 60, 0
1, 49149, Note_off_c, 0, 64, 0
1, 49152, Note_on_c, 0, 45, 56
1, 49152, Note_on_c, 0, 59, 43
1, 49152, Note_on_c, 0, 60, 59
1, 49152, Note_on_c, 0, 64, 69
1, 49152, Note_on_c, 0, 67, 67
1, 49526, Note_off_c, 0, 59, 0
1, 49526, Note_off_c, 0, 60, 0
1, 49526, Note_off_c, 0, 64, 0
1, 49526, Note_off_c, 0, 67, 0
1, 49527, Note_off_c, 0, 45, 0
1, 49536, Note_on_c, 0, 52, 46
1, 49536, Note_on_c, 0, 62, 56
1, 49536, Note_on_c, 0, 64, 56
1, 49536, Note_on_c, 0, 66, 67
1, 49536, Note_on_c, 0, 67, 18
1, 49536, Note_on_c, 0, 71, 67
1, 49902, Note_off_c, 0, 67, 0
1, 49903, Note_off_c, 0, 52, 0
1, 49903, Note_off_c, 0, 64, 0
1, 49905, Note_off_c, 0, 62, 0
1, 49905, Note_off_c, 0, 66, 0
1, 49905, Note_off_c, 0, 71, 0
1, 49920, Note_on_c, 0, 49, 55
1, 49920, Note_on_c, 0, 59, 45
1, 49920, Note_on_c, 0, 61, 47
1, 49920, Note_on_c, 0, 63, 52
1, 49920, Note_on_c, 0, 64, 60
1, 49920, Note_on_c, 0, 68, 60
1, 50304, Note_on_c, 0, 48, 51
1, 50304, Note_off_c, 0, 59, 0
1, 50304, Note_on_c, 0, 59, 44
1, 50304, Note_on_c, 0, 60, 61
1, 50304, Note_off_c, 0, 61, 0
1, 50304, Note_off_c, 0, 64, 0
1, 50304, Note_on_c, 0, 64, 76
1, 50304, Note_on_c, 0, 67, 64
1, 50305, Note_off_c, 0, 63, 0
1, 50305, Note_off_c, 0, 68, 0
1, 50307, Note_off_c, 0, 49, 0
1, 50491, Note_off_c, 0, 59, 0
1, 50491, Note_off_c, 0, 60, 0
1, 50496, Note_on_c, 0, 59, 30
1, 50496, Note_on_c, 0, 60, 55
1, 50496, Note_on_c, 0, 62, 58
1, 50687, Note_off_c, 0, 48, 0
1, 50687, Note_off_c, 0, 64, 0
1, 50687, Note_off_c, 0, 67, 0
1, 50688, Note_on_c, 0, 45, 58
1, 50688, Note_off_c, 0, 59, 0
1, 50688, Note_on_c, 0, 59, 50
1, 50688, Note_off_c, 0, 60, 0
1, 50688, Note_on_c, 0, 60, 57
1, 50688, Note_on_c, 0, 64, 58
1, 50688, Note_on_c, 0, 67, 1
1, 50688, Note_on_c, 0, 71, 66
1, 50691, Note_off_c, 0, 62, 0
1, 51058, Note_off_c, 0, 67, 0
1, 51067, Note_off_c, 0, 59, 0
1, 51068, Note_off_c, 0, 45, 0
1, 51068, Note_off_c, 0, 60, 0
1, 51068, Note_off_c, 0, 64, 0
1, 51068, Note_off_c, 0, 71, 0
1, 51072, Note_on_c, 0, 52, 36
1, 51072, Note_on_c, 0, 64, 26
1, 51072, Note_on_c, 0, 66, 50
1, 51072, Note_on_c, 0, 67, 60
1, 51072, Note_on_c, 0, 71, 71
1, 51072, Note_on_c, 0, 74, 58
1, 51455, Note_off_c, 0, 64, 0
1, 51456, Note_on_c, 0, 49, 36
1, 51456, Note_on_c, 0, 63, 42
1, 51456, Note_on_c, 0, 64, 34
1, 51456, Note_on_c, 0, 68, 44
1, 51456, Note_off_c, 0, 71, 0
1, 51456, Note_on_c, 0, 71, 45
1, 51456, Note_on_c, 0, 75, 45
1, 51457, Note_off_c, 0, 74, 0
1, 51458, Note_off_c, 0, 67, 0
1, 51459, Note_off_c, 0, 66, 0
1, 51463, Note_off_c, 0, 52, 0
1, 51829, Note_off_c, 0, 64, 0
1, 51829, Note_off_c, 0, 71, 0
1, 51830, Note_off_c, 0, 63, 0
1, 51830, Note_off_c, 0, 75, 0
1, 51831, Note_off_c, 0, 49, 0
1, 51831, Note_off_c, 0, 68, 0
1, 51840, Note_on_c, 0, 48, 45
1, 51840, Note_on_c, 0, 62, 41
1, 51840, Note_on_c, 0, 64, 48
1, 51840, Note_on_c, 0, 67, 49
1, 51840, Note_on_c, 0, 71, 52
1, 51840, Note_on_c, 0, 74, 24
1, 52219, Note_off_c, 0, 64, 0
1, 52219, Note_off_c, 0, 67, 0
1, 52219, Note_off_c, 0, 74, 0
1, 52221, Note_off_c, 0, 48, 0
1, 52221, Note_off_c, 0, 62, 0
1, 52221, Note_off_c, 0, 71, 0
1, 52224, Note_on_c, 0, 53, 72
1, 52224, Note_on_c, 0, 57, 72
1, 52224, Note_on_c, 0, 60, 72
1, 52224, Note_on_c, 0, 64, 72
1, 52224, Note_on_c, 0, 67, 72
1, 52320, Note_on_c, 0, 84, 72
1, 52363, Note_off_c, 0, 84, 0
1, 52368, Note_on_c, 0, 83, 72
1, 52512, Note_on_c, 0, 79, 72
1, 52512, Note_off_c, 0, 83, 0
1, 52559, Note_off_c, 0, 79, 0
1, 52560, Note_on_c, 0, 76, 72
1, 52656, Note_off_c, 0, 76, 0
1, 52704, Note_on_c, 0, 74, 72
1, 52752, Note_off_c, 0, 74, 0
1, 52752, Note_on_c, 0, 76, 72
1, 52848, Note_off_c, 0, 76, 0
1, 52889, Note_off_c, 0, 67, 0
1, 52890, Note_off_c, 0, 64, 0
1, 52891, Note_off_c, 0, 53, 0
1, 52891, Note_off_c, 0, 57, 0
1, 52894, Note_off_c, 0, 60, 0
1, 52896, Note_on_c, 0, 55, 72
1, 52896, Note_on_c, 0, 59, 72
1, 52896, Note_on_c, 0, 62, 72
1, 52896, Note_on_c, 0, 67, 72
1, 52896, Note_on_c, 0, 79, 72
1, 52944, Note_on_c, 0, 76, 72
1, 52944, Note_off_c, 0, 79, 0
1, 52977, Note_off_c, 0, 59, 0
1, 52978, Note_off_c, 0, 62, 0
1, 52979, Note_off_c, 0, 67, 0
1, 52981, Note_off_c, 0, 55, 0
1, 52992, Note_on_c, 0, 57, 72
1, 52992, Note_on_c, 0, 60, 72
1, 52992, Note_on_c, 0, 64, 72
1, 52992, Note_on_c, 0, 67, 72
1, 52992, Note_off_c, 0, 76, 0
1, 53088, Note_on_c, 0, 84, 72
1, 53124, Note_off_c, 0, 64, 0
1, 53126, Note_off_c, 0, 60, 0
1, 53126, Note_off_c, 0, 67, 0
1, 53127, Note_off_c, 0, 57, 0
1, 53136, Note_on_c, 0, 57, 72
1, 53136, Note_on_c, 0, 60, 72
1, 53136, Note_on_c, 0, 64, 72
1, 53136, Note_on_c, 0, 67, 72
1, 53136, Note_on_c, 0, 71, 72
1, 53136, Note_on_c, 0, 83, 72
1, 53136, Note_off_c, 0, 84, 0
1, 53280, Note_on_c, 0, 79, 72
1, 53280, Note_off_c, 0, 83, 0
1, 53328, Note_on_c, 0, 76, 72
1, 53328, Note_off_c, 0, 79, 0
1, 53358, Note_off_c, 0, 64, 0
1, 53360, Note_off_c, 0, 60, 0
1, 53362, Note_off_c, 0, 57, 0
1, 53362, Note_off_c, 0, 67, 0
1, 53362, Note_off_c, 0, 71, 0
1, 53376, Note_on_c, 0, 57, 72
1, 53376, Note_on_c, 0, 60, 72
1, 53376, Note_on_c, 0, 64, 72
1, 53376, Note_on_c, 0, 67, 72
1, 53376, Note_on_c, 0, 71, 72
1, 53472, Note_on_c, 0, 74, 72
1, 53472, Note_off_c, 0, 76, 0
1, 53497, Note_off_c, 0, 64, 0
1, 53500, Note_off_c, 0, 67, 0
1, 53507, Note_off_c, 0, 60, 0
1, 53508, Note_off_c, 0, 71, 0
1, 53512, Note_off_c, 0, 57, 0
1, 53520, Note_on_c, 0, 60, 72
1, 53520, Note_on_c, 0, 64, 72
1, 53520, Note_on_c, 0, 67, 72
1, 53520, Note_on_c, 0, 71, 72
1, 53520, Note_off_c, 0, 74, 0
1, 53520, Note_on_c, 0, 74, 72
1, 53520, Note_on_c, 0, 76, 72
1, 53651, Note_off_c, 0, 76, 0
1, 53655, Note_off_c, 0, 60, 0
1, 53655, Note_off_c, 0, 67, 0
1, 53656, Note_off_c, 0, 74, 0
1, 53658, Note_off_c, 0, 64, 0
1, 53659, Note_off_c, 0, 71, 0
1, 53664, Note_on_c, 0, 60, 72
1, 53664, Note_on_c, 0, 62, 72
1, 53664, Note_on_c, 0, 64, 72
1, 53664, Note_on_c, 0, 67, 72
1, 53664, Note_on_c, 0, 71, 72
1, 53664, Note_on_c, 0, 86, 72
1, 53712, Note_off_c, 0, 86, 0
1, 53712, Note_on_c, 0, 88, 72
1, 53751, Note_off_c, 0, 64, 0
1, 53753, Note_off_c, 0, 60, 0
1, 53753, Note_off_c, 0, 67, 0
1, 53754, Note_off_c, 0, 62, 0
1, 53755, Note_off_c, 0, 71, 0
1, 53760, Note_on_c, 0, 33, 57
1, 53760, Note_on_c, 0, 55, 57
1, 53760, Note_on_c, 0, 60, 57
1, 53760, Note_on_c, 0, 62, 57
1, 53760, Note_on_c, 0, 64, 57
1, 53760, Note_on_c, 0, 76, 57
1, 53760, Note_off_c, 0, 88, 0
1, 53760, Note_on_c, 0, 88, 57
1, 53808, Note_off_c, 0, 64, 64
1, 53808, Note_on_c, 0, 74, 57
1, 53808, Note_off_c, 0, 76, 64
1, 53808, Note_on_c, 0, 86, 57
1, 53808, Note_off_c, 0, 88, 64
1, 53832, Note_off_c, 0, 55, 64
1, 53832, Note_on_c, 0, 55, 57
1, 53832, Note_off_c, 0, 60, 64
1, 53832, Note_on_c, 0, 60, 57
1, 53832, Note_off_c, 0, 62, 64
1, 53832, Note_on_c, 0, 62, 57
1, 53832, Note_on_c, 0, 64, 57
1, 53832, Note_on_c, 0, 72, 57
1, 53832, Note_off_c, 0, 74, 64
1, 53832, Note_on_c, 0, 84, 57
1, 53832, Note_off_c, 0, 86, 64
1, 53854, Note_off_c, 0, 64, 64
1, 53854, Note_on_c, 0, 64, 57
1, 53856, Note_off_c, 0, 33, 64
1, 53856, Note_off_c, 0, 55, 64
1, 53856, Note_off_c, 0, 60, 64
1, 53856, Note_off_c, 0, 62, 64
1, 53856, Note_off_c, 0, 72, 64
1, 53856, Note_off_c, 0, 84, 64
1, 53902, Note_off_c, 0, 64, 64
1, 53904, Note_on_c, 0, 55, 57
1, 53904, Note_on_c, 0, 60, 57
1, 53904, Note_on_c, 0, 62, 57
1, 53904, Note_on_c, 0, 64, 57
1, 53904, Note_on_c, 0, 72, 57
1, 53904, Note_on_c, 0, 84, 57
1, 53928, Note_off_c, 0, 55, 64
1, 53928, Note_off_c, 0, 60, 64
1, 53928, Note_off_c, 0, 62, 64
1, 53928, Note_off_c, 0, 64, 64
1, 53952, Note_on_c, 0, 40, 57
1, 53952, Note_on_c, 0, 55, 57
1, 53952, Note_on_c, 0, 59, 57
1, 53952, Note_on_c, 0, 62, 57
1, 53952, Note_on_c, 0, 64, 57
1, 53952, Note_off_c, 0, 72, 64
1, 53952, Note_on_c, 0, 74, 57
1, 53952, Note_off_c, 0, 84, 64
1, 53952, Note_on_c, 0, 86, 57
1, 54000, Note_off_c, 0, 64, 64
1, 54000, Note_off_c, 0, 74, 64
1, 54000, Note_on_c, 0, 76, 57
1, 54000, Note_off_c, 0, 86, 64
1, 54000, Note_on_c, 0, 88, 57
1, 54024, Note_on_c, 0, 39, 57
1, 54024, Note_off_c, 0, 40, 64
1, 54024, Note_on_c, 0, 54, 57
1, 54024, Note_off_c, 0, 55, 64
1, 54024, Note_on_c, 0, 58, 57
1, 54024, Note_off_c, 0, 59, 64
1, 54024, Note_on_c, 0, 61, 57
1, 54024, Note_off_c, 0, 62, 64
1, 54048, Note_on_c, 0, 64, 57
1, 54048, Note_off_c, 0, 76, 64
1, 54048, Note_off_c, 0, 88, 64
1, 54096, Note_on_c, 0, 38, 57
1, 54096, Note_off_c, 0, 39, 64
1, 54096, Note_on_c, 0, 53, 57
1, 54096, Note_off_c, 0, 54, 64
1, 54096, Note_on_c, 0, 57, 57
1, 54096, Note_off_c, 0, 58, 64
1, 54096, Note_on_c, 0, 60, 57
1, 54096, Note_off_c, 0, 61, 64
1, 54096, Note_off_c, 0, 64, 64
1, 54096, Note_on_c, 0, 67, 57
1, 54096, Note_on_c, 0, 79, 57
1, 54144, Note_on_c, 0, 64, 57
1, 54144, Note_off_c, 0, 67, 64
1, 54144, Note_on_c, 0, 74, 57
1, 54144, Note_off_c, 0, 79, 64
1, 54144, Note_on_c, 0, 86, 57
1, 54192, Note_off_c, 0, 64, 64
1, 54238, Note_on_c, 0, 64, 57
1, 54286, Note_off_c, 0, 64, 64
1, 54288, Note_off_c, 0, 38, 64
1, 54336, Note_on_c, 0, 41, 57
1, 54336, Note_on_c, 0, 52, 57
1, 54336, Note_off_c, 0, 53, 64
1, 54336, Note_off_c, 0, 57, 64
1, 54336, Note_on_c, 0, 57, 57
1, 54336, Note_off_c, 0, 60, 64
1, 54336, Note_on_c, 0, 60, 57
1, 54336, Note_on_c, 0, 64, 57
1, 54336, Note_off_c, 0, 74, 64
1, 54336, Note_off_c, 0, 86, 64
1, 54384, Note_off_c, 0, 64, 64
1, 54432, Note_off_c, 0, 41, 64
1, 54432, Note_on_c, 0, 64, 57
1, 54432, Note_on_c, 0, 72, 57
1, 54432, Note_on_c, 0, 84, 57
1, 54480, Note_off_c, 0, 64, 64
1, 54528, Note_on_c, 0, 33, 57
1, 54528, Note_off_c, 0, 52, 64
1, 54528, Note_on_c, 0, 55, 57
1, 54528, Note_off_c, 0, 57, 64
1, 54528, Note_off_c, 0, 60, 64
1, 54528, Note_on_c, 0, 60, 57
1, 54528, Note_on_c, 0, 62, 57
1, 54528, Note_on_c, 0, 64, 57
1, 54528, Note_off_c, 0, 72, 64
1, 54528, Note_on_c, 0, 76, 57
1, 54528, Note_off_c, 0, 84, 64
1, 54528, Note_on_c, 0, 88, 57
1, 54576, Note_off_c, 0, 64, 64
1, 54576, Note_on_c, 0, 74, 57
1, 54576, Note_off_c, 0, 76, 64
1, 54576, Note_on_c, 0, 86, 57
1, 54576, Note_off_c, 0, 88, 64
1, 54600, Note_off_c, 0, 55, 64
1, 54600, Note_on_c, 0, 55, 57
1, 54600, Note_off_c, 0, 60, 64
1, 54600, Note_on_c, 0, 60, 57
1, 54600, Note_off_c, 0, 62, 64
1, 54600, Note_on_c, 0, 62, 57
1, 54600, Note_on_c, 0, 64, 57
1, 54600, Note_on_c, 0, 72, 57
1, 54600, Note_off_c, 0, 74, 64
1, 54600, Note_on_c, 0, 84, 57
1, 54600, Note_off_c, 0, 86, 64
1, 54622, Note_off_c, 0, 64, 64
1, 54622, Note_on_c, 0, 64, 57
1, 54624, Note_off_c, 0, 33, 64
1, 54624, Note_off_c, 0, 55, 64
1, 54624, Note_off_c, 0, 60, 64
1, 54624, Note_off_c, 0, 62, 64
1, 54624, Note_off_c, 0, 72, 64
1, 54624, Note_off_c, 0, 84, 64
1, 54670, Note_off_c, 0, 64, 64
1, 54672, Note_on_c, 0, 55, 57
1, 54672, Note_on_c, 0, 60, 57
1, 54672, Note_on_c, 0, 62, 57
1, 54672, Note_on_c, 0, 64, 57
1, 54672, Note_on_c, 0, 72, 57
1, 54672, Note_on_c, 0, 84, 57
1, 54696, Note_off_c, 0, 55, 64
1, 54696, Note_off_c, 0, 60, 64
1, 54696, Note_off_c, 0, 62, 64
1, 54696, Note_off_c, 0, 64, 64
1, 54720, Note_on_c, 0, 40, 57
1, 54720, Note_on_c, 0, 55, 57
1, 54720, Note_on_c, 0, 59, 57
1, 54720, Note_on_c, 0, 62, 57
1, 54720, Note_on_c, 0, 64, 57
1, 54720, Note_off_c, 0, 72, 64
1, 54720, Note_on_c, 0, 74, 57
1, 54720, Note_off_c, 0, 84, 64
1, 54720, Note_on_c, 0, 86, 57
1, 54768, Note_off_c, 0, 64, 64
1, 54768, Note_off_c, 0, 74, 64
1, 54768, Note_on_c, 0, 76, 57
1, 54768, Note_off_c, 0, 86, 64
1, 54768, Note_on_c, 0, 88, 57
1, 54792, Note_on_c, 0, 39, 57
1, 54792, Note_off_c, 0, 40, 64
1, 54792, Note_on_c, 0, 54, 57
1, 54792, Note_off_c, 0, 55, 64
1, 54792, Note_on_c, 0, 58, 57
1, 54792, Note_off_c, 0, 59, 64
1, 54792, Note_on_c, 0, 61, 57
1, 54792, Note_off_c, 0, 62, 64
1, 54816, Note_on_c, 0, 64, 57
1, 54816, Note_off_c, 0, 76, 64
1, 54816, Note_off_c, 0, 88, 64
1, 54864, Note_on_c, 0, 38, 57
1, 54864, Note_off_c, 0, 39, 64
1, 54864, Note_on_c, 0, 53, 57
1, 54864, Note_off_c, 0, 54, 64
1, 54864, Note_on_c, 0, 57, 57
1, 54864, Note_off_c, 0, 58, 64
1, 54864, Note_on_c, 0, 60, 57
1, 54864, Note_off_c, 0, 61, 64
1, 54864, Note_off_c, 0, 64, 64
1, 54864, Note_on_c, 0, 79, 57
1, 54864, Note_on_c, 0, 91, 57
1, 54912, Note_on_c, 0, 64, 57
1, 54912, Note_off_c, 0, 79, 64
1, 54912, Note_on_c, 0, 81, 57
1, 54912, Note_off_c, 0, 91, 64
1, 54912, Note_on_c, 0, 93, 57
1, 54960, Note_off_c, 0, 64, 64
1, 55006, Note_on_c, 0, 64, 57
1, 55054, Note_off_c, 0, 64, 64
1, 55056, Note_off_c, 0, 38, 64
1, 55104, Note_on_c, 0, 41, 57
1, 55104, Note_on_c, 0, 52, 57
1, 55104, Note_off_c, 0, 53, 64
1, 55104, Note_off_c, 0, 57, 64
1, 55104, Note_on_c, 0, 57, 57
1, 55104, Note_off_c, 0, 60, 64
1, 55104, Note_on_c, 0, 60, 57
1, 55104, Note_on_c, 0, 64, 57
1, 55104, Note_on_c, 0, 79, 57
1, 55104, Note_off_c, 0, 81, 64
1, 55104, Note_on_c, 0, 91, 57
1, 55104, Note_off_c, 0, 93, 64
1, 55152, Note_off_c, 0, 64, 64
1, 55152, Note_off_c, 0, 79, 64
1, 55152, Note_off_c, 0, 91, 64
1, 55200, Note_off_c, 0, 41, 64
1, 55200, Note_on_c, 0, 64, 57
1, 55200, Note_on_c, 0, 72, 57
1, 55200, Note_on_c, 0, 84, 57
1, 55248, Note_off_c, 0, 64, 64
1, 55248, Note_off_c, 0, 72, 64
1, 55248, Note_off_c, 0, 84, 64
1, 55296, Note_off_c, 0, 52, 64
1, 55296, Note_off_c, 0, 57, 64
1, 55296, Note_off_c, 0, 60, 64
1, 55299, Note_on_c, 0, 41, 68
1, 55299, Note_on_c, 0, 53, 68
1, 55299, Note_on_c, 0, 64, 68
1, 55300, Note_on_c, 0, 57, 68
1, 55300, Note_on_c, 0, 60, 68
1, 55429, Note_off_c, 0, 41, 0
1, 55429, Note_off_c, 0, 53, 0
1, 55429, Note_off_c, 0, 57, 0
1, 55429, Note_off_c, 0, 60, 0
1, 55429, Note_off_c, 0, 64, 0
1, 55437, Note_on_c, 0, 53, 68
1, 55438, Note_on_c, 0, 60, 68
1, 55439, Note_on_c, 0, 41, 68
1, 55439, Note_on_c, 0, 57, 68
1, 55439, Note_on_c, 0, 64, 68
1, 55440, Note_on_c, 0, 69, 68
1, 55472, Note_on_c, 0, 72, 68
1, 55490, Note_on_c, 0, 76, 68
1, 55534, Note_on_c, 0, 74, 68
1, 55583, Note_on_c, 0, 71, 68
1, 55616, Note_off_c, 0, 72, 0
1, 55617, Note_on_c, 0, 72, 68
1, 55632, Note_off_c, 0, 71, 0
1, 55633, Note_on_c, 0, 71, 68
1, 55667, Note_on_c, 0, 67, 68
1, 55669, Note_off_c, 0, 41, 0
1, 55669, Note_off_c, 0, 53, 0
1, 55669, Note_off_c, 0, 57, 0
1, 55669, Note_off_c, 0, 60, 0
1, 55669, Note_off_c, 0, 64, 0
1, 55669, Note_off_c, 0, 69, 0
1, 55669, Note_off_c, 0, 71, 0
1, 55669, Note_off_c, 0, 72, 0
1, 55669, Note_off_c, 0, 74, 0
1, 55669, Note_off_c, 0, 76, 0
1, 55676, Note_on_c, 0, 38, 68
1, 55677, Note_on_c, 0, 50, 68
1, 55677, Note_on_c, 0, 53, 68
1, 55677, Note_on_c, 0, 57, 68
1, 55677, Note_on_c, 0, 60, 68
1, 55687, Note_off_c, 0, 67, 0
1, 55777, Note_on_c, 0, 67, 68
1, 55821, Note_off_c, 0, 38, 0
1, 55821, Note_off_c, 0, 57, 0
1, 55822, Note_on_c, 0, 38, 68
1, 55822, Note_off_c, 0, 50, 0
1, 55822, Note_off_c, 0, 53, 0
1, 55822, Note_on_c, 0, 53, 68
1, 55822, Note_on_c, 0, 57, 68
1, 55822, Note_off_c, 0, 60, 0
1, 55823, Note_on_c, 0, 50, 68
1, 55823, Note_on_c, 0, 60, 68
1, 55875, Note_off_c, 0, 67, 0
1, 55876, Note_on_c, 0, 67, 68
1, 55917, Note_on_c, 0, 64, 68
1, 55950, Note_on_c, 0, 62, 68
1, 55971, Note_off_c, 0, 67, 0
1, 55971, Note_on_c, 0, 67, 68
1, 55996, Note_on_c, 0, 69, 68
1, 56044, Note_on_c, 0, 72, 68
1, 56057, Note_off_c, 0, 38, 0
1, 56057, Note_off_c, 0, 50, 0
1, 56057, Note_off_c, 0, 53, 0
1, 56057, Note_off_c, 0, 57, 0
1, 56057, Note_off_c, 0, 60, 0
1, 56057, Note_off_c, 0, 62, 0
1, 56057, Note_off_c, 0, 64, 0
1, 56057, Note_off_c, 0, 67, 0
1, 56057, Note_off_c, 0, 69, 0
1, 56061, Note_off_c, 0, 72, 0
1, 56063, Note_on_c, 0, 41, 68
1, 56063, Note_on_c, 0, 53, 68
1, 56063, Note_on_c, 0, 57, 68
1, 56063, Note_on_c, 0, 60, 68
1, 56063, Note_on_c, 0, 64, 68
1, 56207, Note_off_c, 0, 60, 0
1, 56207, Note_off_c, 0, 64, 0
1, 56208, Note_off_c, 0, 41, 0
1, 56208, Note_off_c, 0, 53, 0
1, 56208, Note_on_c, 0, 53, 68
1, 56208, Note_off_c, 0, 57, 0
1, 56208, Note_on_c, 0, 57, 68
1, 56208, Note_on_c, 0, 60, 68
1, 56208, Note_on_c, 0, 64, 68
1, 56208, Note_on_c, 0, 69, 68
1, 56209, Note_on_c, 0, 41, 68
1, 56240, Note_on_c, 0, 72, 68
1, 56258, Note_on_c, 0, 76, 68
1, 56302, Note_on_c, 0, 74, 68
1, 56351, Note_on_c, 0, 71, 68
1, 56384, Note_off_c, 0, 72, 0
1, 56385, Note_on_c, 0, 72, 68
1, 56401, Note_on_c, 0, 79, 68
1, 56424, Note_off_c, 0, 41, 0
1, 56424, Note_off_c, 0, 53, 0
1, 56424, Note_off_c, 0, 57, 0
1, 56424, Note_off_c, 0, 60, 0
1, 56424, Note_off_c, 0, 64, 0
1, 56424, Note_off_c, 0, 69, 0
1, 56424, Note_off_c, 0, 71, 0
1, 56424, Note_off_c, 0, 72, 0
1, 56424, Note_off_c, 0, 74, 0
1, 56424, Note_off_c, 0, 76, 0
1, 56434, Note_off_c, 0, 79, 0
1, 56435, Note_on_c, 0, 76, 68
1, 56443, Note_on_c, 0, 38, 68
1, 56443, Note_on_c, 0, 50, 68
1, 56444, Note_on_c, 0, 53, 68
1, 56444, Note_on_c, 0, 57, 68
1, 56444, Note_on_c, 0, 60, 68
1, 56455, Note_off_c, 0, 76, 0
1, 56544, Note_on_c, 0, 76, 68
1, 56591, Note_off_c, 0, 38, 0
1, 56591, Note_off_c, 0, 50, 0
1, 56591, Note_off_c, 0, 53, 0
1, 56591, Note_off_c, 0, 57, 0
1, 56591, Note_off_c, 0, 60, 0
1, 56592, Note_on_c, 0, 38, 68
1, 56592, Note_on_c, 0, 50, 68
1, 56592, Note_on_c, 0, 53, 68
1, 56592, Note_on_c, 0, 57, 68
1, 56592, Note_on_c, 0, 60, 68
1, 56643, Note_off_c, 0, 76, 64
1, 56644, Note_on_c, 0, 76, 68
1, 56685, Note_on_c, 0, 74, 68
1, 56718, Note_on_c, 0, 62, 68
1, 56738, Note_off_c, 0, 53, 0
1, 56738, Note_off_c, 0, 57, 0
1, 56739, Note_off_c, 0, 50, 0
1, 56739, Note_on_c, 0, 53, 68
1, 56739, Note_on_c, 0, 57, 68
1, 56739, Note_on_c, 0, 67, 68
1, 56740, Note_off_c, 0, 38, 0
1, 56740, Note_on_c, 0, 38, 68
1, 56740, Note_on_c, 0, 50, 68
1, 56745, Note_off_c, 0, 60, 0
1, 56745, Note_off_c, 0, 74, 0
1, 56745, Note_off_c, 0, 76, 0
1, 56754, Note_off_c, 0, 62, 0
1, 56754, Note_off_c, 0, 67, 0
1, 56764, Note_on_c, 0, 69, 68
1, 56812, Note_on_c, 0, 72, 68
1, 56825, Note_off_c, 0, 38, 0
1, 56825, Note_off_c, 0, 50, 0
1, 56825, Note_off_c, 0, 53, 0
1, 56825, Note_off_c, 0, 57, 0
1, 56825, Note_off_c, 0, 69, 0
1, 56829, Note_off_c, 0, 72, 0
1, 56832, Note_on_c, 0, 45, 53
1, 56832, Note_on_c, 0, 57, 49
1, 56832, Note_on_c, 0, 59, 34
1, 56832, Note_on_c, 0, 67, 56
1, 56836, Note_on_c, 0, 60, 28
1, 56882, Note_on_c, 0, 71, 76
1, 57208, Note_off_c, 0, 45, 0
1, 57208, Note_off_c, 0, 57, 0
1, 57208, Note_off_c, 0, 59, 0
1, 57208, Note_off_c, 0, 60, 0
1, 57208, Note_off_c, 0, 67, 0
1, 57208, Note_off_c, 0, 71, 0
1, 57209, Note_on_c, 0, 43, 43
1, 57217, Note_on_c, 0, 55, 31
1, 57217, Note_on_c, 0, 59, 46
1, 57218, Note_on_c, 0, 63, 26
1, 57219, Note_on_c, 0, 65, 43
1, 57219, Note_on_c, 0, 67, 55
1, 57269, Note_on_c, 0, 69, 64
1, 57408, Note_off_c, 0, 43, 0
1, 57408, Note_off_c, 0, 63, 0
1, 57408, Note_on_c, 0, 63, 26
1, 57408, Note_off_c, 0, 65, 0
1, 57408, Note_on_c, 0, 65, 43
1, 57409, Note_off_c, 0, 59, 0
1, 57409, Note_off_c, 0, 67, 0
1, 57410, Note_on_c, 0, 47, 54
1, 57410, Note_on_c, 0, 59, 54
1, 57410, Note_on_c, 0, 67, 75
1, 57504, Note_off_c, 0, 47, 0
1, 57504, Note_on_c, 0, 47, 54
1, 57504, Note_off_c, 0, 55, 0
1, 57504, Note_on_c, 0, 55, 31
1, 57504, Note_off_c, 0, 59, 0
1, 57504, Note_on_c, 0, 59, 54
1, 57504, Note_off_c, 0, 63, 0
1, 57504, Note_on_c, 0, 63, 26
1, 57504, Note_off_c, 0, 65, 0
1, 57505, Note_on_c, 0, 65, 56
1, 57587, Note_off_c, 0, 47, 0
1, 57587, Note_off_c, 0, 55, 0
1, 57587, Note_off_c, 0, 59, 0
1, 57587, Note_off_c, 0, 63, 0
1, 57587, Note_off_c, 0, 65, 0
1, 57587, Note_off_c, 0, 67, 0
1, 57587, Note_off_c, 0, 69, 0
1, 57597, Note_on_c, 0, 55, 39
1, 57598, Note_on_c, 0, 59, 56
1, 57600, Note_on_c, 0, 48, 52
1, 57602, Note_on_c, 0, 60, 21
1, 57603, Note_on_c, 0, 64, 45
1, 57688, Note_on_c, 0, 62, 39
1, 57690, Note_on_c, 0, 67, 19
1, 57740, Note_on_c, 0, 71, 42
1, 57980, Note_off_c, 0, 59, 0
1, 57981, Note_on_c, 0, 40, 45
1, 57982, Note_on_c, 0, 59, 51
1, 57982, Note_off_c, 0, 60, 0
1, 57983, Note_off_c, 0, 67, 0
1, 57984, Note_off_c, 0, 48, 0
1, 57984, Note_on_c, 0, 52, 43
1, 57984, Note_off_c, 0, 55, 0
1, 57984, Note_on_c, 0, 60, 48
1, 57984, Note_off_c, 0, 62, 0
1, 57984, Note_off_c, 0, 64, 0
1, 57984, Note_off_c, 0, 71, 0
1, 57990, Note_on_c, 0, 67, 19
1, 58078, Note_on_c, 0, 65, 56
1, 58127, Note_off_c, 0, 60, 0
1, 58128, Note_on_c, 0, 60, 56
1, 58176, Note_off_c, 0, 40, 0
1, 58176, Note_on_c, 0, 44, 51
1, 58176, Note_off_c, 0, 52, 0
1, 58176, Note_off_c, 0, 59, 0
1, 58176, Note_off_c, 0, 60, 0
1, 58176, Note_off_c, 0, 65, 0
1, 58176, Note_off_c, 0, 67, 0
1, 58181, Note_on_c, 0, 56, 35
1, 58181, Note_on_c, 0, 59, 47
1, 58184, Note_on_c, 0, 60, 53
1, 58187, Note_on_c, 0, 65, 51
1, 58248, Note_off_c, 0, 65, 0
1, 58251, Note_on_c, 0, 65, 61
1, 58259, Note_on_c, 0, 67, 73
1, 58276, Note_off_c, 0, 65, 0
1, 58277, Note_on_c, 0, 65, 74
1, 58325, Note_on_c, 0, 64, 54
1, 58359, Note_off_c, 0, 67, 0
1, 58368, Note_off_c, 0, 44, 0
1, 58368, Note_off_c, 0, 56, 0
1, 58368, Note_off_c, 0, 59, 0
1, 58368, Note_off_c, 0, 60, 0
1, 58368, Note_off_c, 0, 64, 0
1, 58368, Note_off_c, 0, 65, 0
1, 58368, Note_on_c, 0, 84, 93
1, 58370, Note_on_c, 0, 53, 57
1, 58373, Note_on_c, 0, 64, 55
1, 58379, Note_on_c, 0, 86, 86
1, 58380, Note_off_c, 0, 84, 64
1, 58381, Note_on_c, 0, 69, 63
1, 58383, Note_on_c, 0, 60, 34
1, 58417, Note_on_c, 0, 84, 77
1, 58418, Note_off_c, 0, 86, 56
1, 58556, Note_on_c, 0, 81, 80
1, 58558, Note_off_c, 0, 84, 112
1, 58603, Note_on_c, 0, 83, 80
1, 58606, Note_off_c, 0, 81, 89
1, 58648, Note_off_c, 0, 64, 46
1, 58655, Note_on_c, 0, 84, 87
1, 58656, Note_off_c, 0, 83, 101
1, 58661, Note_off_c, 0, 60, 51
1, 58662, Note_on_c, 0, 76, 95
1, 58669, Note_off_c, 0, 69, 82
1, 58673, Note_off_c, 0, 53, 52
1, 58701, Note_on_c, 0, 52, 50
1, 58704, Note_on_c, 0, 81, 73
1, 58707, Note_on_c, 0, 59, 13
1, 58708, Note_on_c, 0, 62, 49
1, 58708, Note_on_c, 0, 67, 76
1, 58708, Note_off_c, 0, 84, 115
1, 58710, Note_off_c, 0, 76, 89
1, 58711, Note_on_c, 0, 74, 91
1, 58717, Note_on_c, 0, 83, 73
1, 58720, Note_off_c, 0, 81, 99
1, 58840, Note_on_c, 0, 79, 72
1, 58847, Note_off_c, 0, 83, 83
1, 58853, Note_on_c, 0, 72, 81
1, 58853, Note_off_c, 0, 74, 108
1, 58895, Note_on_c, 0, 76, 63
1, 58896, Note_on_c, 0, 64, 55
1, 58898, Note_off_c, 0, 79, 85
1, 58899, Note_on_c, 0, 71, 73
1, 58907, Note_off_c, 0, 72, 127
1, 59088, Note_off_c, 0, 59, 42
1, 59095, Note_off_c, 0, 52, 78
1, 59096, Note_off_c, 0, 62, 85
1, 59109, Note_off_c, 0, 64, 93
1, 59131, Note_on_c, 0, 53, 79
1, 59137, Note_on_c, 0, 64, 48
1, 59138, Note_on_c, 0, 69, 81
1, 59141, Note_on_c, 0, 60, 14
1, 59304, Note_off_c, 0, 76, 49
1, 59330, Note_on_c, 0, 81, 84
1, 59375, Note_on_c, 0, 83, 82
1, 59376, Note_off_c, 0, 81, 90
1, 59424, Note_off_c, 0, 69, 96
1, 59426, Note_off_c, 0, 83, 127
1, 59426, Note_on_c, 0, 84, 93
1, 59428, Note_off_c, 0, 67, 37
1, 59429, Note_off_c, 0, 64, 71
1, 59432, Note_off_c, 0, 53, 64
1, 59435, Note_off_c, 0, 60, 66
1, 59440, Note_off_c, 0, 84, 92
1, 59469, Note_on_c, 0, 81, 81
1, 59474, Note_on_c, 0, 62, 56
1, 59474, Note_on_c, 0, 67, 33
1, 59475, Note_on_c, 0, 59, 42
1, 59480, Note_on_c, 0, 52, 36
1, 59481, Note_on_c, 0, 83, 83
1, 59485, Note_off_c, 0, 81, 117
1, 59520, Note_off_c, 0, 71, 64
1, 59523, Note_on_c, 0, 77, 56
1, 59530, Note_on_c, 0, 79, 95
1, 59536, Note_off_c, 0, 77, 125
1, 59570, Note_on_c, 0, 77, 85
1, 59575, Note_off_c, 0, 79, 95
1, 59608, Note_off_c, 0, 83, 81
1, 59613, Note_on_c, 0, 79, 74
1, 59621, Note_off_c, 0, 62, 67
1, 59621, Note_off_c, 0, 67, 45
1, 59622, Note_on_c, 0, 76, 88
1, 59623, Note_off_c, 0, 59, 74
1, 59624, Note_off_c, 0, 52, 54
1, 59632, Note_off_c, 0, 77, 88
1, 59664, Note_on_c, 0, 45, 93
1, 59664, Note_on_c, 0, 57, 67
1, 59664, Note_on_c, 0, 64, 64
1, 59664, Note_off_c, 0, 79, 93
1, 59664, Note_on_c, 0, 81, 76
1, 59665, Note_on_c, 0, 60, 66
1, 59672, Note_on_c, 0, 74, 88
1, 59674, Note_off_c, 0, 76, 112
1, 59767, Note_on_c, 0, 76, 81
1, 59773, Note_off_c, 0, 74, 78
1, 59814, Note_on_c, 0, 74, 60
1, 59818, Note_off_c, 0, 76, 76
1, 59861, Note_on_c, 0, 72, 80
1, 59864, Note_off_c, 0, 74, 76
1, 59873, Note_off_c, 0, 81, 115
1, 59886, Note_off_c, 0, 72, 127
1, 59888, Note_off_c, 0, 60, 50
1, 59894, Note_off_c, 0, 64, 93
1, 59897, Note_off_c, 0, 57, 69
1, 59904, Note_off_c, 0, 45, 64
1, 59904, Note_on_c, 0, 50, 61
1, 59904, Note_on_c, 0, 77, 61
1, 59906, Note_on_c, 0, 62, 61
1, 59906, Note_on_c, 0, 65, 61
1, 59906, Note_on_c, 0, 69, 61
1, 59907, Note_on_c, 0, 72, 61
1, 59949, Note_off_c, 0, 69, 0
1, 59950, Note_off_c, 0, 65, 0
1, 59950, Note_on_c, 0, 69, 61
1, 59951, Note_on_c, 0, 65, 61
1, 59951, Note_on_c, 0, 76, 61
1, 59983, Note_off_c, 0, 77, 64
1, 60048, Note_off_c, 0, 50, 0
1, 60049, Note_on_c, 0, 54, 61
1, 60089, Note_off_c, 0, 54, 0
1, 60090, Note_off_c, 0, 65, 0
1, 60090, Note_off_c, 0, 76, 0
1, 60091, Note_off_c, 0, 69, 0
1, 60093, Note_off_c, 0, 72, 0
1, 60095, Note_on_c, 0, 55, 61
1, 60096, Note_on_c, 0, 65, 61
1, 60096, Note_on_c, 0, 67, 61
1, 60097, Note_on_c, 0, 71, 61
1, 60102, Note_off_c, 0, 62, 0
1, 60143, Note_off_c, 0, 67, 0
1, 60144, Note_off_c, 0, 65, 0
1, 60144, Note_on_c, 0, 67, 61
1, 60145, Note_on_c, 0, 65, 61
1, 60145, Note_on_c, 0, 74, 61
1, 60242, Note_on_c, 0, 47, 61
1, 60289, Note_off_c, 0, 47, 0
1, 60289, Note_off_c, 0, 65, 0
1, 60289, Note_off_c, 0, 71, 0
1, 60289, Note_off_c, 0, 74, 0
1, 60290, Note_on_c, 0, 52, 61
1, 60290, Note_off_c, 0, 55, 0
1, 60290, Note_off_c, 0, 67, 0
1, 60291, Note_on_c, 0, 71, 61
1, 60292, Note_on_c, 0, 62, 61
1, 60339, Note_off_c, 0, 62, 0
1, 60339, Note_on_c, 0, 74, 61
1, 60340, Note_on_c, 0, 62, 61
1, 60341, Note_on_c, 0, 67, 61
1, 60432, Note_off_c, 0, 52, 0
1, 60433, Note_on_c, 0, 56, 61
1, 60479, Note_off_c, 0, 67, 0
1, 60480, Note_off_c, 0, 62, 0
1, 60480, Note_off_c, 0, 74, 0
1, 60481, Note_off_c, 0, 71, 0
1, 60482, Note_off_c, 0, 56, 0
1, 60482, Note_on_c, 0, 67, 61
1, 60483, Note_on_c, 0, 57, 61
1, 60483, Note_on_c, 0, 69, 61
1, 60485, Note_on_c, 0, 73, 61
1, 60528, Note_off_c, 0, 67, 0
1, 60528, Note_off_c, 0, 69, 0
1, 60528, Note_on_c, 0, 76, 61
1, 60529, Note_on_c, 0, 67, 61
1, 60529, Note_on_c, 0, 69, 61
1, 60624, Note_on_c, 0, 49, 61
1, 60669, Note_off_c, 0, 73, 0
1, 60670, Note_off_c, 0, 57, 0
1, 60671, Note_on_c, 0, 50, 61
1, 60672, Note_off_c, 0, 50, 0
1, 60672, Note_on_c, 0, 50, 61
1, 60672, Note_off_c, 0, 67, 0
1, 60672, Note_off_c, 0, 69, 0
1, 60672, Note_off_c, 0, 76, 0
1, 60673, Note_off_c, 0, 49, 0
1, 60674, Note_on_c, 0, 62, 61
1, 60674, Note_on_c, 0, 65, 61
1, 60674, Note_on_c, 0, 69, 61
1, 60675, Note_on_c, 0, 72, 61
1, 60717, Note_off_c, 0, 69, 0
1, 60718, Note_off_c, 0, 65, 0
1, 60718, Note_on_c, 0, 69, 61
1, 60719, Note_on_c, 0, 65, 61
1, 60719, Note_on_c, 0, 76, 61
1, 60817, Note_on_c, 0, 54, 61
1, 60857, Note_off_c, 0, 54, 0
1, 60858, Note_off_c, 0, 65, 0
1, 60858, Note_off_c, 0, 76, 0
1, 60859, Note_off_c, 0, 69, 0
1, 60861, Note_off_c, 0, 72, 0
1, 60863, Note_on_c, 0, 55, 61
1, 60864, Note_off_c, 0, 50, 0
1, 60864, Note_on_c, 0, 65, 61
1, 60864, Note_on_c, 0, 67, 61
1, 60865, Note_on_c, 0, 71, 61
1, 60870, Note_off_c, 0, 62, 0
1, 60911, Note_off_c, 0, 67, 0
1, 60912, Note_off_c, 0, 65, 0
1, 60912, Note_on_c, 0, 67, 61
1, 60913, Note_on_c, 0, 65, 61
1, 60913, Note_on_c, 0, 74, 61
1, 61010, Note_on_c, 0, 47, 61
1, 61057, Note_off_c, 0, 47, 0
1, 61057, Note_off_c, 0, 65, 0
1, 61057, Note_off_c, 0, 71, 0
1, 61057, Note_off_c, 0, 74, 0
1, 61058, Note_on_c, 0, 52, 61
1, 61058, Note_off_c, 0, 55, 0
1, 61058, Note_off_c, 0, 67, 0
1, 61059, Note_on_c, 0, 71, 61
1, 61060, Note_on_c, 0, 62, 61
1, 61107, Note_off_c, 0, 62, 0
1, 61107, Note_on_c, 0, 74, 61
1, 61108, Note_on_c, 0, 62, 61
1, 61109, Note_on_c, 0, 67, 61
1, 61201, Note_on_c, 0, 56, 61
1, 61247, Note_off_c, 0, 67, 0
1, 61248, Note_off_c, 0, 62, 0
1, 61248, Note_off_c, 0, 74, 0
1, 61249, Note_off_c, 0, 52, 0
1, 61249, Note_off_c, 0, 71, 0
1, 61250, Note_off_c, 0, 56, 0
1, 61250, Note_on_c, 0, 67, 61
1, 61251, Note_on_c, 0, 57, 61
1, 61251, Note_on_c, 0, 69, 61
1, 61253, Note_on_c, 0, 73, 61
1, 61296, Note_off_c, 0, 67, 0
1, 61296, Note_off_c, 0, 69, 0
1, 61296, Note_on_c, 0, 76, 61
1, 61297, Note_on_c, 0, 67, 61
1, 61297, Note_on_c, 0, 69, 61
1, 61344, Note_on_c, 0, 81, 61
1, 61392, Note_on_c, 0, 49, 61
1, 61392, Note_on_c, 0, 79, 61
1, 61430, Note_off_c, 0, 73, 0
1, 61431, Note_off_c, 0, 57, 0
1, 61432, Note_off_c, 0, 67, 0
1, 61432, Note_off_c, 0, 69, 0
1, 61433, Note_off_c, 0, 76, 0
1, 61439, Note_off_c, 0, 79, 64
1, 61439, Note_off_c, 0, 81, 0
1, 61440, Note_on_c, 0, 38, 64
1, 61440, Note_off_c, 0, 49, 0
1, 61440, Note_on_c, 0, 53, 64
1, 61441, Note_on_c, 0, 50, 64
1, 61441, Note_on_c, 0, 57, 64
1, 61442, Note_on_c, 0, 60, 64
1, 61531, Note_off_c, 0, 50, 0
1, 61531, Note_off_c, 0, 57, 0
1, 61532, Note_on_c, 0, 50, 64
1, 61532, Note_off_c, 0, 53, 0
1, 61532, Note_on_c, 0, 57, 64
1, 61533, Note_on_c, 0, 53, 64
1, 61533, Note_on_c, 0, 64, 64
1, 61723, Note_off_c, 0, 50, 0
1, 61723, Note_off_c, 0, 53, 0
1, 61723, Note_off_c, 0, 57, 0
1, 61723, Note_off_c, 0, 64, 0
1, 61724, Note_on_c, 0, 50, 64
1, 61724, Note_on_c, 0, 53, 64
1, 61724, Note_on_c, 0, 57, 64
1, 61724, Note_on_c, 0, 64, 64
1, 61776, Note_on_c, 0, 41, 64
1, 61815, Note_off_c, 0, 38, 0
1, 61817, Note_off_c, 0, 50, 0
1, 61817, Note_off_c, 0, 53, 0
1, 61817, Note_off_c, 0, 57, 0
1, 61817, Note_off_c, 0, 60, 0
1, 61817, Note_off_c, 0, 64, 0
1, 61824, Note_off_c, 0, 41, 0
1, 61825, Note_on_c, 0, 43, 64
1, 61826, Note_on_c, 0, 55, 64
1, 61828, Note_on_c, 0, 53, 64
1, 61828, Note_on_c, 0, 59, 64
1, 61923, Note_off_c, 0, 55, 0
1, 61924, Note_off_c, 0, 53, 0
1, 61924, Note_on_c, 0, 55, 64
1, 61924, Note_on_c, 0, 62, 64
1, 61925, Note_off_c, 0, 43, 0
1, 61925, Note_on_c, 0, 53, 64
1, 61926, Note_on_c, 0, 43, 64
1, 62104, Note_off_c, 0, 43, 0
1, 62105, Note_on_c, 0, 43, 64
1, 62105, Note_off_c, 0, 53, 0
1, 62105, Note_off_c, 0, 55, 0
1, 62105, Note_off_c, 0, 62, 0
1, 62106, Note_on_c, 0, 53, 64
1, 62106, Note_on_c, 0, 55, 64
1, 62106, Note_on_c, 0, 62, 64
1, 62163, Note_on_c, 0, 41, 64
1, 62209, Note_off_c, 0, 41, 0
1, 62209, Note_off_c, 0, 43, 0
1, 62209, Note_off_c, 0, 53, 0
1, 62209, Note_off_c, 0, 55, 0
1, 62209, Note_off_c, 0, 59, 0
1, 62209, Note_off_c, 0, 62, 0
1, 62211, Note_on_c, 0, 50, 64
1, 62211, Note_on_c, 0, 55, 64
1, 62212, Note_on_c, 0, 59, 64
1, 62213, Note_on_c, 0, 40, 64
1, 62304, Note_off_c, 0, 40, 0
1, 62304, Note_off_c, 0, 50, 0
1, 62305, Note_on_c, 0, 40, 64
1, 62305, Note_on_c, 0, 50, 64
1, 62305, Note_on_c, 0, 62, 64
1, 62490, Note_off_c, 0, 40, 0
1, 62491, Note_on_c, 0, 40, 64
1, 62492, Note_off_c, 0, 55, 0
1, 62492, Note_on_c, 0, 55, 64
1, 62492, Note_off_c, 0, 62, 0
1, 62493, Note_off_c, 0, 50, 0
1, 62493, Note_on_c, 0, 62, 64
1, 62494, Note_on_c, 0, 50, 64
1, 62547, Note_on_c, 0, 44, 64
1, 62591, Note_off_c, 0, 55, 0
1, 62591, Note_on_c, 0, 57, 64
1, 62592, Note_on_c, 0, 55, 64
1, 62593, Note_off_c, 0, 40, 0
1, 62593, Note_off_c, 0, 44, 0
1, 62593, Note_off_c, 0, 50, 0
1, 62593, Note_off_c, 0, 59, 0
1, 62593, Note_off_c, 0, 62, 0
1, 62594, Note_on_c, 0, 45, 64
1, 62594, Note_on_c, 0, 61, 64
1, 62684, Note_off_c, 0, 57, 0
1, 62685, Note_on_c, 0, 57, 64
1, 62687, Note_off_c, 0, 55, 0
1, 62687, Note_on_c, 0, 64, 64
1, 62688, Note_off_c, 0, 45, 0
1, 62688, Note_on_c, 0, 45, 64
1, 62688, Note_on_c, 0, 55, 64
1, 62778, Note_off_c, 0, 55, 0
1, 62779, Note_on_c, 0, 55, 64
1, 62780, Note_on_c, 0, 65, 64
1, 62781, Note_off_c, 0, 45, 0
1, 62782, Note_on_c, 0, 45, 64
1, 62864, Note_off_c, 0, 65, 0
1, 62864, Note_on_c, 0, 65, 64
1, 62872, Note_off_c, 0, 45, 0
1, 62873, Note_on_c, 0, 45, 64
1, 62875, Note_on_c, 0, 67, 64
1, 62976, Note_off_c, 0, 45, 0
1, 62976, Note_on_c, 0, 50, 52
1, 62976, Note_off_c, 0, 55, 0
1, 62976, Note_off_c, 0, 57, 0
1, 62976, Note_on_c, 0, 59, 58
1, 62976, Note_off_c, 0, 61, 0
1, 62976, Note_off_c, 0, 64, 0
1, 62976, Note_off_c, 0, 65, 0
1, 62976, Note_off_c, 0, 67, 0
1, 62977, Note_on_c, 0, 69, 54
1, 62977, Note_on_c, 0, 72, 54
1, 63352, Note_off_c, 0, 50, 0
1, 63354, Note_off_c, 0, 59, 0
1, 63355, Note_off_c, 0, 69, 0
1, 63355, Note_off_c, 0, 72, 0
1, 63359, Note_on_c, 0, 68, 58
1, 63360, Note_on_c, 0, 53, 52
1, 63360, Note_on_c, 0, 62, 58
1, 63361, Note_on_c, 0, 60, 54
1, 63549, Note_off_c, 0, 68, 0
1, 63549, Note_on_c, 0, 68, 58
1, 63557, Note_off_c, 0, 68, 0
1, 63557, Note_on_c, 0, 70, 58
1, 63565, Note_on_c, 0, 68, 58
1, 63565, Note_off_c, 0, 70, 0
1, 63669, Note_on_c, 0, 67, 58
1, 63669, Note_off_c, 0, 68, 0
1, 63736, Note_off_c, 0, 53, 0
1, 63736, Note_off_c, 0, 67, 0
1, 63738, Note_off_c, 0, 62, 0
1, 63739, Note_off_c, 0, 60, 0
1, 63743, Note_on_c, 0, 62, 58
1, 63744, Note_on_c, 0, 48, 52
1, 63744, Note_on_c, 0, 59, 58
1, 63745, Note_on_c, 0, 67, 54
1, 64120, Note_off_c, 0, 48, 0
1, 64120, Note_off_c, 0, 62, 0
1, 64122, Note_off_c, 0, 59, 0
1, 64123, Note_off_c, 0, 67, 0
1, 64127, Note_on_c, 0, 60, 58
1, 64128, Note_on_c, 0, 45, 52
1, 64128, Note_on_c, 0, 54, 58
1, 64129, Note_on_c, 0, 64, 54
1, 64504, Note_off_c, 0, 45, 0
1, 64504, Note_off_c, 0, 60, 0
1, 64506, Note_off_c, 0, 54, 0
1, 64507, Note_off_c, 0, 64, 0
1, 64512, Note_on_c, 0, 38, 87
1, 64512, Note_on_c, 0, 50, 87
1, 64518, Note_on_c, 0, 57, 87
1, 64524, Note_on_c, 0, 64, 87
1, 64530, Note_on_c, 0, 65, 87
1, 64536, Note_on_c, 0, 72, 87
1, 64608, Note_on_c, 0, 79, 58
1, 64704, Note_on_c, 0, 76, 58
1, 64704, Note_off_c, 0, 79, 64
1, 64794, Note_off_c, 0, 38, 64
1, 64800, Note_on_c, 0, 43, 87
1, 64800, Note_off_c, 0, 76, 64
1, 64866, Note_off_c, 0, 50, 64
1, 64872, Note_off_c, 0, 57, 64
1, 64878, Note_off_c, 0, 64, 64
1, 64884, Note_off_c, 0, 65, 64
1, 64890, Note_off_c, 0, 43, 64
1, 64890, Note_off_c, 0, 72, 64
1, 64902, Note_on_c, 0, 36, 87
1, 64902, Note_on_c, 0, 48, 87
1, 64908, Note_on_c, 0, 55, 87
1, 64914, Note_on_c, 0, 62, 87
1, 64920, Note_on_c, 0, 64, 87
1, 64926, Note_on_c, 0, 71, 87
1, 64992, Note_on_c, 0, 79, 58
1, 65088, Note_on_c, 0, 76, 58
1, 65088, Note_off_c, 0, 79, 64
1, 65184, Note_off_c, 0, 76, 64
1, 65184, Note_on_c, 0, 81, 58
1, 65232, Note_on_c, 0, 74, 58
1, 65232, Note_off_c, 0, 81, 64
1, 65256, Note_off_c, 0, 36, 64
1, 65256, Note_off_c, 0, 48, 64
1, 65262, Note_off_c, 0, 55, 64
1, 65268, Note_off_c, 0, 62, 64
1, 65274, Note_off_c, 0, 64, 64
1, 65280, Note_on_c, 0, 38, 87
1, 65280, Note_on_c, 0, 50, 87
1, 65280, Note_off_c, 0, 71, 64
1, 65280, Note_off_c, 0, 74, 64
1, 65286, Note_on_c, 0, 57, 87
1, 65292, Note_on_c, 0, 64, 87
1, 65298, Note_on_c, 0, 65, 87
1, 65304, Note_on_c, 0, 72, 87
1, 65376, Note_on_c, 0, 79, 58
1, 65472, Note_on_c, 0, 76, 58
1, 65472, Note_off_c, 0, 79, 64
1, 65562, Note_off_c, 0, 38, 64
1, 65568, Note_on_c, 0, 43, 87
1, 65568, Note_off_c, 0, 76, 64
1, 65634, Note_off_c, 0, 50, 64
1, 65640, Note_off_c, 0, 57, 64
1, 65646, Note_off_c, 0, 64, 64
1, 65652, Note_off_c, 0, 65, 64
1, 65658, Note_off_c, 0, 43, 64
1, 65658, Note_off_c, 0, 72, 64
1, 65670, Note_on_c, 0, 36, 87
1, 65670, Note_on_c, 0, 48, 87
1, 65676, Note_on_c, 0, 55, 87
1, 65682, Note_on_c, 0, 62, 87
1, 65688, Note_on_c, 0, 64, 87
1, 65694, Note_on_c, 0, 71, 87
1, 65760, Note_on_c, 0, 79, 58
1, 65856, Note_on_c, 0, 76, 58
1, 65856, Note_off_c, 0, 79, 64
1, 65952, Note_off_c, 0, 36, 64
1, 65952, Note_on_c, 0, 45, 87
1, 65952, Note_off_c, 0, 76, 64
1, 65952, Note_on_c, 0, 81, 58
1, 66000, Note_on_c, 0, 74, 58
1, 66000, Note_off_c, 0, 81, 64
1, 66024, Note_off_c, 0, 48, 64
1, 66030, Note_off_c, 0, 55, 64
1, 66036, Note_off_c, 0, 62, 64
1, 66042, Note_off_c, 0, 45, 64
1, 66042, Note_off_c, 0, 64, 64
1, 66048, Note_on_c, 0, 57, 57
1, 66048, Note_on_c, 0, 60, 57
1, 66048, Note_on_c, 0, 64, 57
1, 66048, Note_off_c, 0, 71, 64
1, 66048, Note_off_c, 0, 74, 64
1, 66052, Note_on_c, 0, 70, 57
1, 66061, Note_on_c, 0, 71, 57
1, 66064, Note_off_c, 0, 70, 0
1, 66141, Note_on_c, 0, 69, 57
1, 66169, Note_on_c, 0, 67, 57
1, 66192, Note_off_c, 0, 67, 0
1, 66193, Note_on_c, 0, 67, 57
1, 66193, Note_on_c, 0, 74, 57
1, 66428, Note_off_c, 0, 57, 0
1, 66428, Note_off_c, 0, 67, 0
1, 66428, Note_off_c, 0, 69, 0
1, 66428, Note_off_c, 0, 71, 0
1, 66428, Note_off_c, 0, 74, 0
1, 66430, Note_off_c, 0, 60, 0
1, 66430, Note_on_c, 0, 63, 57
1, 66430, Note_off_c, 0, 64, 0
1, 66430, Note_on_c, 0, 67, 57
1, 66432, Note_on_c, 0, 60, 57
1, 66436, Note_on_c, 0, 73, 57
1, 66444, Note_off_c, 0, 73, 0
1, 66445, Note_on_c, 0, 74, 57
1, 66525, Note_on_c, 0, 72, 57
1, 66553, Note_on_c, 0, 70, 57
1, 66571, Note_off_c, 0, 70, 0
1, 66577, Note_on_c, 0, 70, 57
1, 66577, Note_on_c, 0, 77, 57
1, 66813, Note_off_c, 0, 60, 0
1, 66813, Note_off_c, 0, 63, 0
1, 66813, Note_off_c, 0, 67, 0
1, 66813, Note_off_c, 0, 70, 0
1, 66813, Note_off_c, 0, 77, 0
1, 66814, Note_on_c, 0, 62, 57
1, 66814, Note_on_c, 0, 66, 57
1, 66816, Note_on_c, 0, 59, 57
1, 66816, Note_off_c, 0, 72, 0
1, 66816, Note_off_c, 0, 74, 0
1, 66820, Note_on_c, 0, 72, 57
1, 66828, Note_off_c, 0, 72, 0
1, 66829, Note_on_c, 0, 73, 57
1, 66909, Note_on_c, 0, 71, 57
1, 66937, Note_on_c, 0, 69, 57
1, 66955, Note_off_c, 0, 69, 0
1, 66961, Note_on_c, 0, 69, 57
1, 66961, Note_on_c, 0, 76, 57
1, 67197, Note_off_c, 0, 59, 0
1, 67197, Note_off_c, 0, 62, 0
1, 67197, Note_off_c, 0, 66, 0
1, 67197, Note_off_c, 0, 69, 0
1, 67197, Note_off_c, 0, 76, 0
1, 67198, Note_on_c, 0, 61, 57
1, 67198, Note_on_c, 0, 65, 57
1, 67200, Note_on_c, 0, 58, 57
1, 67200, Note_off_c, 0, 71, 0
1, 67200, Note_off_c, 0, 73, 0
1, 67204, Note_on_c, 0, 71, 57
1, 67212, Note_off_c, 0, 71, 0
1, 67213, Note_on_c, 0, 72, 57
1, 67293, Note_on_c, 0, 70, 57
1, 67321, Note_on_c, 0, 68, 57
1, 67339, Note_off_c, 0, 68, 0
1, 67345, Note_on_c, 0, 68, 57
1, 67345, Note_on_c, 0, 75, 57
1, 67584, Note_on_c, 0, 52, 64
1, 67584, Note_on_c, 0, 57, 64
1, 67584, Note_off_c, 0, 58, 0
1, 67584, Note_on_c, 0, 60, 64
1, 67584, Note_off_c, 0, 61, 0
1, 67584, Note_on_c, 0, 64, 64
1, 67584, Note_off_c, 0, 65, 0
1, 67584, Note_on_c, 0, 67, 64
1, 67584, Note_off_c, 0, 68, 0
1, 67584, Note_off_c, 0, 70, 0
1, 67584, Note_off_c, 0, 72, 0
1, 67584, Note_off_c, 0, 75, 0
1, 67959, Note_off_c, 0, 67, 1
1, 67961, Note_off_c, 0, 64, 1
1, 67962, Note_off_c, 0, 57, 7
1, 67963, Note_off_c, 0, 52, 52
1, 67964, Note_off_c, 0, 60, 57
1, 67968, Note_on_c, 0, 53, 64
1, 67968, Note_on_c, 0, 58, 64
1, 67968, Note_on_c, 0, 62, 64
1, 67968, Note_on_c, 0, 63, 41
1, 67968, Note_on_c, 0, 67, 64
1, 68208, Note_on_c, 0, 65, 64
1, 68255, Note_off_c, 0, 58, 127
1, 68256, Note_on_c, 0, 58, 64
1, 68304, Note_on_c, 0, 52, 64
1, 68328, Note_off_c, 0, 63, 127
1, 68331, Note_off_c, 0, 62, 88
1, 68331, Note_off_c, 0, 67, 127
1, 68335, Note_off_c, 0, 65, 127
1, 68337, Note_off_c, 0, 58, 64
1, 68338, Note_off_c, 0, 53, 127
1, 68349, Note_off_c, 0, 52, 64
1, 68352, Note_on_c, 0, 52, 64
1, 68352, Note_on_c, 0, 57, 64
1, 68352, Note_on_c, 0, 60, 64
1, 68352, Note_on_c, 0, 64, 64
1, 68352, Note_on_c, 0, 67, 64
1, 68727, Note_off_c, 0, 67, 1
1, 68729, Note_off_c, 0, 64, 1
1, 68730, Note_off_c, 0, 57, 7
1, 68731, Note_off_c, 0, 52, 52
1, 68732, Note_off_c, 0, 60, 57
1, 68736, Note_on_c, 0, 53, 64
1, 68736, Note_on_c, 0, 58, 64
1, 68736, Note_on_c, 0, 62, 64
1, 68736, Note_on_c, 0, 63, 41
1, 68736, Note_on_c, 0, 67, 64
1, 68976, Note_on_c, 0, 65, 64
1, 69023, Note_off_c, 0, 58, 127
1, 69024, Note_on_c, 0, 58, 64
1, 69072, Note_on_c, 0, 52, 64
1, 69096, Note_off_c, 0, 63, 127
1, 69099, Note_off_c, 0, 62, 88
1, 69099, Note_off_c, 0, 67, 127
1, 69103, Note_off_c, 0, 65, 127
1, 69105, Note_off_c, 0, 58, 64
1, 69106, Note_off_c, 0, 53, 127
1, 69117, Note_off_c, 0, 52, 64
1, 69120, Note_on_c, 0, 45, 57
1, 69120, Note_on_c, 0, 57, 57
1, 69120, Note_on_c, 0, 60, 57
1, 69120, Note_on_c, 0, 64, 57
1, 69120, Note_on_c, 0, 67, 57
1, 69120, Note_on_c, 0, 71, 57
1, 69192, Note_on_c, 0, 69, 57
1, 69288, Note_off_c, 0, 45, 64
1, 69288, Note_on_c, 0, 45, 57
1, 69312, Note_off_c, 0, 57, 64
1, 69312, Note_on_c, 0, 57, 57
1, 69312, Note_off_c, 0, 60, 64
1, 69312, Note_on_c, 0, 60, 57
1, 69312, Note_off_c, 0, 64, 64
1, 69312, Note_on_c, 0, 64, 57
1, 69312, Note_off_c, 0, 67, 64
1, 69312, Note_on_c, 0, 67, 57
1, 69312, Note_off_c, 0, 69, 64
1, 69312, Note_off_c, 0, 71, 64
1, 69312, Note_on_c, 0, 71, 57
1, 69360, Note_off_c, 0, 45, 64
1, 69360, Note_on_c, 0, 45, 57
1, 69384, Note_on_c, 0, 69, 57
1, 69504, Note_off_c, 0, 45, 64
1, 69504, Note_on_c, 0, 45, 57
1, 69504, Note_off_c, 0, 57, 64
1, 69504, Note_on_c, 0, 57, 57
1, 69504, Note_off_c, 0, 60, 64
1, 69504, Note_on_c, 0, 60, 57
1, 69504, Note_off_c, 0, 64, 64
1, 69504, Note_on_c, 0, 64, 57
1, 69504, Note_off_c, 0, 67, 64
1, 69504, Note_on_c, 0, 67, 57
1, 69504, Note_off_c, 0, 69, 64
1, 69504, Note_off_c, 0, 71, 64
1, 69504, Note_on_c, 0, 71, 57
1, 69576, Note_on_c, 0, 69, 57
1, 69672, Note_off_c, 0, 45, 64
1, 69672, Note_on_c, 0, 45, 57
1, 69696, Note_off_c, 0, 57, 64
1, 69696, Note_on_c, 0, 57, 57
1, 69696, Note_off_c, 0, 60, 64
1, 69696, Note_on_c, 0, 60, 57
1, 69696, Note_off_c, 0, 64, 64
1, 69696, Note_on_c, 0, 64, 57
1, 69696, Note_off_c, 0, 67, 64
1, 69696, Note_on_c, 0, 67, 57
1, 69696, Note_off_c, 0, 69, 64
1, 69696, Note_off_c, 0, 71, 64
1, 69696, Note_on_c, 0, 71, 57
1, 69768, Note_on_c, 0, 69, 57
1, 69792, Note_on_c, 0, 43, 57
1, 69792, Note_off_c, 0, 45, 64
1, 69840, Note_on_c, 0, 38, 57
1, 69840, Note_off_c, 0, 43, 64
1, 69888, Note_off_c, 0, 38, 64
1, 69888, Note_on_c, 0, 41, 57
1, 69888, Note_on_c, 0, 53, 57
1, 69888, Note_off_c, 0, 57, 64
1, 69888, Note_on_c, 0, 57, 57
1, 69888, Note_off_c, 0, 60, 64
1, 69888, Note_on_c, 0, 60, 57
1, 69888, Note_off_c, 0, 64, 64
1, 69888, Note_on_c, 0, 64, 57
1, 69888, Note_off_c, 0, 67, 64
1, 69888, Note_on_c, 0, 67, 57
1, 69888, Note_off_c, 0, 69, 64
1, 69888, Note_off_c, 0, 71, 64
1, 69960, Note_off_c, 0, 64, 64
1, 69960, Note_on_c, 0, 64, 57
1, 70056, Note_off_c, 0, 41, 64
1, 70056, Note_on_c, 0, 41, 57
1, 70080, Note_off_c, 0, 53, 64
1, 70080, Note_on_c, 0, 53, 57
1, 70080, Note_off_c, 0, 57, 64
1, 70080, Note_on_c, 0, 57, 57
1, 70080, Note_off_c, 0, 60, 64
1, 70080, Note_on_c, 0, 60, 57
1, 70080, Note_off_c, 0, 64, 64
1, 70080, Note_on_c, 0, 64, 57
1, 70080, Note_off_c, 0, 67, 64
1, 70080, Note_on_c, 0, 67, 57
1, 70128, Note_off_c, 0, 41, 64
1, 70128, Note_on_c, 0, 41, 57
1, 70152, Note_off_c, 0, 64, 64
1, 70152, Note_on_c, 0, 64, 57
1, 70272, Note_on_c, 0, 38, 57
1, 70272, Note_off_c, 0, 41, 64
1, 70272, Note_off_c, 0, 53, 64
1, 70272, Note_on_c, 0, 53, 57
1, 70272, Note_off_c, 0, 57, 64
1, 70272, Note_on_c, 0, 57, 57
1, 70272, Note_off_c, 0, 60, 64
1, 70272, Note_on_c, 0, 60, 57
1, 70272, Note_off_c, 0, 64, 64
1, 70272, Note_on_c, 0, 64, 57
1, 70272, Note_off_c, 0, 67, 64
1, 70272, Note_on_c, 0, 67, 57
1, 70344, Note_off_c, 0, 64, 64
1, 70344, Note_on_c, 0, 64, 57
1, 70464, Note_off_c, 0, 38, 64
1, 70464, Note_on_c, 0, 48, 57
1, 70464, Note_off_c, 0, 53, 64
1, 70464, Note_on_c, 0, 53, 57
1, 70464, Note_off_c, 0, 57, 64
1, 70464, Note_on_c, 0, 57, 57
1, 70464, Note_off_c, 0, 60, 64
1, 70464, Note_on_c, 0, 60, 57
1, 70464, Note_off_c, 0, 64, 64
1, 70464, Note_on_c, 0, 64, 57
1, 70464, Note_off_c, 0, 67, 64
1, 70464, Note_on_c, 0, 67, 57
1, 70536, Note_off_c, 0, 64, 64
1, 70536, Note_on_c, 0, 64, 57
1, 70608, Note_on_c, 0, 43, 57
1, 70608, Note_off_c, 0, 48, 64
1, 70656, Note_off_c, 0, 43, 64
1, 70656, Note_off_c, 0, 53, 64
1, 70656, Note_off_c, 0, 57, 64
1, 70656, Note_off_c, 0, 60, 64
1, 70656, Note_off_c, 0, 64, 64
1, 70656, Note_off_c, 0, 67, 64
1, 70658, Note_on_c, 0, 60, 61
1, 70659, Note_on_c, 0, 45, 45
1, 70752, Note_on_c, 0, 52, 35
1, 70753, Note_on_c, 0, 62, 66
1, 70801, Note_on_c, 0, 59, 56
1, 70802, Note_on_c, 0, 64, 58
1, 70848, Note_off_c, 0, 60, 0
1, 70849, Note_on_c, 0, 60, 37
1, 70849, Note_on_c, 0, 67, 66
1, 70896, Note_off_c, 0, 62, 0
1, 70896, Note_on_c, 0, 62, 52
1, 70899, Note_on_c, 0, 69, 15
1, 70943, Note_on_c, 0, 71, 79
1, 70944, Note_off_c, 0, 64, 0
1, 70945, Note_on_c, 0, 64, 60
1, 70993, Note_off_c, 0, 67, 0
1, 70993, Note_on_c, 0, 67, 58
1, 71040, Note_on_c, 0, 79, 60
1, 71044, Note_off_c, 0, 69, 0
1, 71045, Note_on_c, 0, 69, 36
1, 71136, Note_off_c, 0, 71, 0
1, 71137, Note_on_c, 0, 71, 72
1, 71137, Note_on_c, 0, 76, 73
1, 71422, Note_on_c, 0, 50, 72
1, 71424, Note_off_c, 0, 45, 0
1, 71424, Note_off_c, 0, 52, 0
1, 71424, Note_off_c, 0, 59, 0
1, 71424, Note_off_c, 0, 60, 0
1, 71424, Note_off_c, 0, 62, 0
1, 71424, Note_off_c, 0, 64, 0
1, 71424, Note_off_c, 0, 67, 0
1, 71424, Note_off_c, 0, 69, 0
1, 71424, Note_off_c, 0, 71, 0
1, 71424, Note_off_c, 0, 76, 0
1, 71424, Note_off_c, 0, 79, 0
1, 71472, Note_on_c, 0, 57, 60
1, 71474, Note_on_c, 0, 65, 73
1, 71522, Note_on_c, 0, 64, 51
1, 71523, Note_on_c, 0, 69, 50
1, 71568, Note_off_c, 0, 65, 0
1, 71569, Note_on_c, 0, 65, 65
1, 71571, Note_on_c, 0, 72, 54
1, 71618, Note_on_c, 0, 67, 55
1, 71618, Note_on_c, 0, 74, 71
1, 71667, Note_off_c, 0, 69, 0
1, 71667, Note_on_c, 0, 76, 23
1, 71668, Note_on_c, 0, 69, 60
1, 71715, Note_on_c, 0, 79, 73
1, 71716, Note_off_c, 0, 72, 0
1, 71716, Note_on_c, 0, 72, 60
1, 71764, Note_on_c, 0, 83, 72
1, 71765, Note_off_c, 0, 69, 0
1, 71766, Note_on_c, 0, 69, 47
1, 71856, Note_off_c, 0, 79, 0
1, 71857, Note_on_c, 0, 79, 13
1, 71903, Note_off_c, 0, 72, 0
1, 71904, Note_on_c, 0, 72, 52
1, 71904, Note_off_c, 0, 76, 0
1, 71904, Note_on_c, 0, 76, 23
1, 71904, Note_off_c, 0, 79, 0
1, 71904, Note_on_c, 0, 79, 13
1, 71914, Note_on_c, 0, 81, 46
1, 71952, Note_off_c, 0, 79, 0
1, 71952, Note_on_c, 0, 79, 50
1, 72096, Note_off_c, 0, 57, 0
1, 72096, Note_on_c, 0, 57, 60
1, 72144, Note_off_c, 0, 50, 0
1, 72144, Note_on_c, 0, 50, 72
1, 72192, Note_on_c, 0, 41, 75
1, 72192, Note_off_c, 0, 50, 0
1, 72192, Note_on_c, 0, 53, 55
1, 72192, Note_off_c, 0, 57, 0
1, 72192, Note_off_c, 0, 64, 0
1, 72192, Note_off_c, 0, 65, 0
1, 72192, Note_off_c, 0, 67, 0
1, 72192, Note_off_c, 0, 69, 0
1, 72192, Note_on_c, 0, 69, 55
1, 72192, Note_off_c, 0, 72, 0
1, 72192, Note_off_c, 0, 74, 0
1, 72192, Note_off_c, 0, 76, 0
1, 72192, Note_off_c, 0, 79, 0
1, 72192, Note_off_c, 0, 81, 0
1, 72192, Note_off_c, 0, 83, 0
1, 72194, Note_on_c, 0, 60, 55
1, 72194, Note_on_c, 0, 72, 55
1, 72196, Note_on_c, 0, 64, 55
1, 72201, Note_on_c, 0, 76, 55
1, 72267, Note_off_c, 0, 53, 64
1, 72267, Note_off_c, 0, 69, 64
1, 72270, Note_off_c, 0, 60, 64
1, 72270, Note_off_c, 0, 72, 64
1, 72272, Note_off_c, 0, 64, 64
1, 72276, Note_off_c, 0, 76, 64
1, 72288, Note_off_c, 0, 41, 64
1, 72290, Note_on_c, 0, 84, 48
1, 72332, Note_off_c, 0, 84, 64
1, 72336, Note_on_c, 0, 81, 46
1, 72375, Note_off_c, 0, 81, 64
1, 72383, Note_on_c, 0, 40, 75
1, 72383, Note_on_c, 0, 52, 55
1, 72383, Note_on_c, 0, 67, 55
1, 72384, Note_on_c, 0, 62, 55
1, 72386, Note_on_c, 0, 59, 55
1, 72389, Note_on_c, 0, 79, 29
1, 72392, Note_on_c, 0, 71, 55
1, 72426, Note_off_c, 0, 79, 64
1, 72432, Note_on_c, 0, 76, 29
1, 72454, Note_off_c, 0, 52, 64
1, 72456, Note_off_c, 0, 40, 64
1, 72473, Note_off_c, 0, 62, 64
1, 72476, Note_off_c, 0, 67, 64
1, 72477, Note_off_c, 0, 76, 64
1, 72478, Note_off_c, 0, 59, 64
1, 72480, Note_on_c, 0, 69, 34
1, 72489, Note_off_c, 0, 71, 64
1, 72528, Note_on_c, 0, 33, 75
1, 72528, Note_on_c, 0, 45, 55
1, 72528, Note_on_c, 0, 57, 55
1, 72528, Note_on_c, 0, 60, 55
1, 72528, Note_on_c, 0, 64, 55
1, 72528, Note_on_c, 0, 67, 55
1, 72528, Note_off_c, 0, 69, 64
1, 72534, Note_on_c, 0, 74, 55
1, 72540, Note_on_c, 0, 81, 29
1, 72768, Note_off_c, 0, 33, 64
1, 72768, Note_on_c, 0, 79, 39
1, 72768, Note_off_c, 0, 81, 64
1, 72864, Note_on_c, 0, 35, 99
1, 72864, Note_off_c, 0, 45, 64
1, 72864, Note_off_c, 0, 57, 64
1, 72864, Note_off_c, 0, 67, 64
1, 72864, Note_on_c, 0, 77, 39
1, 72866, Note_off_c, 0, 60, 64
1, 72866, Note_off_c, 0, 64, 64
1, 72866, Note_off_c, 0, 79, 64
1, 72870, Note_off_c, 0, 74, 64
1, 72888, Note_off_c, 0, 35, 64
1, 72888, Note_on_c, 0, 36, 99
1, 72912, Note_off_c, 0, 36, 64
1, 72912, Note_on_c, 0, 38, 98
1, 72955, Note_off_c, 0, 38, 64
1, 72960, Note_on_c, 0, 41, 75
1, 72960, Note_on_c, 0, 53, 55
1, 72960, Note_on_c, 0, 64, 55
1, 72960, Note_on_c, 0, 69, 55
1, 72960, Note_off_c, 0, 77, 64
1, 72963, Note_on_c, 0, 60, 55
1, 72963, Note_on_c, 0, 72, 55
1, 72970, Note_on_c, 0, 76, 55
1, 73041, Note_off_c, 0, 64, 64
1, 73042, Note_off_c, 0, 53, 64
1, 73042, Note_off_c, 0, 69, 64
1, 73045, Note_off_c, 0, 60, 64
1, 73045, Note_off_c, 0, 72, 64
1, 73051, Note_off_c, 0, 76, 64
1, 73056, Note_off_c, 0, 41, 64
1, 73059, Note_on_c, 0, 84, 48
1, 73080, Note_on_c, 0, 83, 46
1, 73083, Note_off_c, 0, 84, 64
1, 73104, Note_on_c, 0, 81, 46
1, 73104, Note_off_c, 0, 83, 64
1, 73144, Note_off_c, 0, 81, 64
1, 73151, Note_on_c, 0, 40, 75
1, 73152, Note_on_c, 0, 52, 55
1, 73152, Note_on_c, 0, 62, 55
1, 73152, Note_on_c, 0, 67, 55
1, 73155, Note_on_c, 0, 59, 55
1, 73155, Note_on_c, 0, 71, 55
1, 73158, Note_on_c, 0, 79, 29
1, 73194, Note_off_c, 0, 79, 64
1, 73200, Note_on_c, 0, 76, 29
1, 73223, Note_off_c, 0, 52, 64
1, 73223, Note_off_c, 0, 62, 64
1, 73223, Note_off_c, 0, 67, 64
1, 73224, Note_off_c, 0, 40, 64
1, 73226, Note_off_c, 0, 59, 64
1, 73226, Note_off_c, 0, 71, 64
1, 73246, Note_off_c, 0, 76, 64
1, 73294, Note_on_c, 0, 60, 55
1, 73294, Note_on_c, 0, 64, 55
1, 73296, Note_on_c, 0, 33, 75
1, 73296, Note_on_c, 0, 45, 55
1, 73296, Note_on_c, 0, 57, 55
1, 73296, Note_on_c, 0, 67, 55
1, 73296, Note_on_c, 0, 74, 55
1, 73297, Note_on_c, 0, 79, 29
1, 73305, Note_on_c, 0, 83, 29
1, 73536, Note_off_c, 0, 33, 64
1, 73632, Note_on_c, 0, 35, 99
1, 73632, Note_off_c, 0, 45, 64
1, 73656, Note_off_c, 0, 35, 64
1, 73656, Note_on_c, 0, 38, 99
1, 73675, Note_off_c, 0, 60, 64
1, 73675, Note_off_c, 0, 64, 64
1, 73677, Note_off_c, 0, 67, 64
1, 73678, Note_off_c, 0, 57, 64
1, 73678, Note_off_c, 0, 74, 64
1, 73680, Note_off_c, 0, 38, 64
1, 73680, Note_on_c, 0, 40, 98
1, 73680, Note_off_c, 0, 79, 64
1, 73688, Note_off_c, 0, 83, 64
1, 73723, Note_off_c, 0, 40, 64
1, 73723, Note_on_c, 0, 41, 75
1, 73728, Note_off_c, 0, 41, 64
1, 73728, Note_on_c, 0, 45, 78
1, 73728, Note_on_c, 0, 55, 71
1, 73728, Note_on_c, 0, 57, 80
1, 73728, Note_on_c, 0, 60, 80
1, 73728, Note_on_c, 0, 64, 80
1, 73764, Note_off_c, 0, 45, 65
1, 73764, Note_off_c, 0, 55, 50
1, 73764, Note_off_c, 0, 57, 57
1, 73764, Note_off_c, 0, 60, 59
1, 73764, Note_off_c, 0, 64, 70
1, 73822, Note_on_c, 0, 43, 80
1, 73822, Note_on_c, 0, 55, 72
1, 73823, Note_on_c, 0, 57, 58
1, 73823, Note_on_c, 0, 59, 70
1, 73823, Note_on_c, 0, 62, 70
1, 73824, Note_on_c, 0, 79, 110
1, 73858, Note_off_c, 0, 43, 45
1, 73858, Note_off_c, 0, 55, 32
1, 73859, Note_off_c, 0, 57, 49
1, 73859, Note_off_c, 0, 59, 64
1, 73859, Note_off_c, 0, 62, 75
1, 73861, Note_off_c, 0, 79, 51
1, 73872, Note_on_c, 0, 81, 97
1, 73883, Note_off_c, 0, 81, 82
1, 73917, Note_on_c, 0, 57, 70
1, 73917, Note_on_c, 0, 60, 51
1, 73917, Note_on_c, 0, 64, 66
1, 73918, Note_on_c, 0, 41, 80
1, 73918, Note_on_c, 0, 53, 71
1, 73920, Note_on_c, 0, 79, 94
1, 73953, Note_off_c, 0, 57, 50
1, 73953, Note_off_c, 0, 60, 52
1, 73953, Note_off_c, 0, 64, 51
1, 73954, Note_off_c, 0, 41, 48
1, 73954, Note_off_c, 0, 53, 42
1, 73961, Note_off_c, 0, 79, 49
1, 73968, Note_on_c, 0, 76, 108
1, 73992, Note_off_c, 0, 76, 37
1, 73997, Note_on_c, 0, 75, 108
1, 74009, Note_off_c, 0, 75, 67
1, 74015, Note_on_c, 0, 40, 78
1, 74015, Note_on_c, 0, 50, 70
1, 74015, Note_on_c, 0, 55, 70
1, 74016, Note_on_c, 0, 59, 82
1, 74016, Note_on_c, 0, 62, 85
1, 74016, Note_on_c, 0, 74, 106
1, 74043, Note_off_c, 0, 74, 47
1, 74045, Note_on_c, 0, 72, 108
1, 74051, Note_off_c, 0, 40, 72
1, 74051, Note_off_c, 0, 50, 63
1, 74051, Note_off_c, 0, 55, 33
1, 74052, Note_off_c, 0, 59, 55
1, 74052, Note_off_c, 0, 62, 57
1, 74064, Note_on_c, 0, 44, 85
1, 74065, Note_off_c, 0, 72, 53
1, 74094, Note_on_c, 0, 69, 103
1, 74100, Note_off_c, 0, 44, 77
1, 74112, Note_on_c, 0, 45, 77
1, 74113, Note_on_c, 0, 52, 69
1, 74113, Note_on_c, 0, 57, 78
1, 74114, Note_on_c, 0, 55, 64
1, 74114, Note_on_c, 0, 60, 72
1, 74114, Note_on_c, 0, 64, 83
1, 74148, Note_off_c, 0, 45, 43
1, 74149, Note_off_c, 0, 52, 51
1, 74149, Note_off_c, 0, 57, 64
1, 74150, Note_off_c, 0, 55, 34
1, 74150, Note_off_c, 0, 60, 22
1, 74150, Note_off_c, 0, 64, 46
1, 74168, Note_off_c, 0, 69, 46
1, 74208, Note_on_c, 0, 43, 89
1, 74208, Note_on_c, 0, 55, 68
1, 74208, Note_on_c, 0, 57, 71
1, 74208, Note_on_c, 0, 59, 73
1, 74208, Note_on_c, 0, 62, 70
1, 74209, Note_on_c, 0, 67, 100
1, 74242, Note_off_c, 0, 67, 45
1, 74244, Note_off_c, 0, 43, 50
1, 74244, Note_off_c, 0, 55, 41
1, 74244, Note_off_c, 0, 57, 54
1, 74244, Note_off_c, 0, 59, 68
1, 74244, Note_off_c, 0, 62, 74
1, 74256, Note_on_c, 0, 69, 114
1, 74268, Note_off_c, 0, 69, 89
1, 74303, Note_on_c, 0, 41, 80
1, 74303, Note_on_c, 0, 57, 66
1, 74303, Note_on_c, 0, 60, 67
1, 74303, Note_on_c, 0, 64, 71
1, 74304, Note_on_c, 0, 53, 70
1, 74304, Note_on_c, 0, 72, 120
1, 74339, Note_off_c, 0, 41, 42
1, 74339, Note_off_c, 0, 57, 52
1, 74339, Note_off_c, 0, 60, 41
1, 74339, Note_off_c, 0, 64, 55
1, 74340, Note_off_c, 0, 53, 35
1, 74341, Note_off_c, 0, 72, 62
1, 74352, Note_on_c, 0, 74, 80
1, 74366, Note_off_c, 0, 74, 66
1, 74397, Note_on_c, 0, 40, 67
1, 74397, Note_on_c, 0, 52, 71
1, 74397, Note_on_c, 0, 56, 80
1, 74397, Note_on_c, 0, 60, 78
1, 74399, Note_on_c, 0, 75, 81
1, 74401, Note_on_c, 0, 76, 105
1, 74408, Note_off_c, 0, 75, 98
1, 74424, Note_off_c, 0, 76, 58
1, 74429, Note_on_c, 0, 74, 68
1, 74433, Note_off_c, 0, 40, 55
1, 74433, Note_off_c, 0, 52, 64
1, 74433, Note_off_c, 0, 56, 65
1, 74433, Note_off_c, 0, 60, 53
1, 74446, Note_on_c, 0, 44, 84
1, 74448, Note_on_c, 0, 72, 100
1, 74453, Note_off_c, 0, 74, 85
1, 74475, Note_off_c, 0, 72, 81
1, 74477, Note_on_c, 0, 69, 109
1, 74482, Note_off_c, 0, 44, 76
1, 74496, Note_on_c, 0, 45, 78
1, 74496, Note_on_c, 0, 55, 71
1, 74496, Note_on_c, 0, 57, 80
1, 74496, Note_on_c, 0, 60, 80
1, 74496, Note_on_c, 0, 64, 80
1, 74498, Note_off_c, 0, 69, 88
1, 74532, Note_off_c, 0, 45, 65
1, 74532, Note_off_c, 0, 55, 50
1, 74532, Note_off_c, 0, 57, 57
1, 74532, Note_off_c, 0, 60, 59
1, 74532, Note_off_c, 0, 64, 70
1, 74590, Note_on_c, 0, 43, 80
1, 74590, Note_on_c, 0, 55, 72
1, 74591, Note_on_c, 0, 57, 58
1, 74591, Note_on_c, 0, 59, 70
1, 74591, Note_on_c, 0, 62, 70
1, 74592, Note_on_c, 0, 79, 110
1, 74626, Note_off_c, 0, 43, 45
1, 74626, Note_off_c, 0, 55, 32
1, 74627, Note_off_c, 0, 57, 49
1, 74627, Note_off_c, 0, 59, 64
1, 74627, Note_off_c, 0, 62, 75
1, 74629, Note_off_c, 0, 79, 51
1, 74640, Note_on_c, 0, 81, 97
1, 74651, Note_off_c, 0, 81, 82
1, 74685, Note_on_c, 0, 57, 70
1, 74685, Note_on_c, 0, 60, 51
1, 74685, Note_on_c, 0, 64, 66
1, 74686, Note_on_c, 0, 41, 80
1, 74686, Note_on_c, 0, 53, 71
1, 74688, Note_on_c, 0, 79, 94
1, 74721, Note_off_c, 0, 57, 50
1, 74721, Note_off_c, 0, 60, 52
1, 74721, Note_off_c, 0, 64, 51
1, 74722, Note_off_c, 0, 41, 48
1, 74722, Note_off_c, 0, 53, 42
1, 74729, Note_off_c, 0, 79, 49
1, 74736, Note_on_c, 0, 76, 108
1, 74760, Note_off_c, 0, 76, 37
1, 74765, Note_on_c, 0, 75, 108
1, 74777, Note_off_c, 0, 75, 67
1, 74783, Note_on_c, 0, 40, 78
1, 74783, Note_on_c, 0, 50, 70
1, 74783, Note_on_c, 0, 55, 70
1, 74784, Note_on_c, 0, 59, 82
1, 74784, Note_on_c, 0, 62, 85
1, 74784, Note_on_c, 0, 74, 106
1, 74811, Note_off_c, 0, 74, 47
1, 74813, Note_on_c, 0, 72, 108
1, 74819, Note_off_c, 0, 40, 72
1, 74819, Note_off_c, 0, 50, 63
1, 74819, Note_off_c, 0, 55, 33
1, 74820, Note_off_c, 0, 59, 55
1, 74820, Note_off_c, 0, 62, 57
1, 74832, Note_on_c, 0, 44, 85
1, 74833, Note_off_c, 0, 72, 53
1, 74862, Note_on_c, 0, 69, 103
1, 74868, Note_off_c, 0, 44, 77
1, 74880, Note_on_c, 0, 45, 77
1, 74881, Note_on_c, 0, 52, 69
1, 74881, Note_on_c, 0, 57, 78
1, 74882, Note_on_c, 0, 55, 64
1, 74882, Note_on_c, 0, 60, 72
1, 74882, Note_on_c, 0, 64, 83
1, 74916, Note_off_c, 0, 45, 43
1, 74917, Note_off_c, 0, 52, 51
1, 74917, Note_off_c, 0, 57, 64
1, 74918, Note_off_c, 0, 55, 34
1, 74918, Note_off_c, 0, 60, 22
1, 74918, Note_off_c, 0, 64, 46
1, 74936, Note_off_c, 0, 69, 46
1, 74976, Note_on_c, 0, 43, 89
1, 74976, Note_on_c, 0, 55, 68
1, 74976, Note_on_c, 0, 57, 71
1, 74976, Note_on_c, 0, 59, 73
1, 74976, Note_on_c, 0, 62, 70
1, 74977, Note_on_c, 0, 67, 100
1, 75010, Note_off_c, 0, 67, 45
1, 75012, Note_off_c, 0, 43, 50
1, 75012, Note_off_c, 0, 55, 41
1, 75012, Note_off_c, 0, 57, 54
1, 75012, Note_off_c, 0, 59, 68
1, 75012, Note_off_c, 0, 62, 74
1, 75024, Note_on_c, 0, 69, 114
1, 75036, Note_off_c, 0, 69, 89
1, 75071, Note_on_c, 0, 41, 80
1, 75071, Note_on_c, 0, 57, 66
1, 75071, Note_on_c, 0, 60, 67
1, 75071, Note_on_c, 0, 64, 71
1, 75072, Note_on_c, 0, 53, 70
1, 75072, Note_on_c, 0, 72, 120
1, 75107, Note_off_c, 0, 41, 42
1, 75107, Note_off_c, 0, 57, 52
1, 75107, Note_off_c, 0, 60, 41
1, 75107, Note_off_c, 0, 64, 55
1, 75108, Note_off_c, 0, 53, 35
1, 75109, Note_off_c, 0, 72, 62
1, 75120, Note_on_c, 0, 74, 80
1, 75134, Note_off_c, 0, 74, 66
1, 75165, Note_on_c, 0, 40, 67
1, 75165, Note_on_c, 0, 52, 71
1, 75165, Note_on_c, 0, 56, 80
1, 75165, Note_on_c, 0, 60, 78
1, 75167, Note_on_c, 0, 75, 81
1, 75169, Note_on_c, 0, 76, 105
1, 75176, Note_off_c, 0, 75, 98
1, 75192, Note_off_c, 0, 76, 58
1, 75197, Note_on_c, 0, 74, 68
1, 75201, Note_off_c, 0, 40, 55
1, 75201, Note_off_c, 0, 52, 64
1, 75201, Note_off_c, 0, 56, 65
1, 75201, Note_off_c, 0, 60, 53
1, 75214, Note_on_c, 0, 44, 84
1, 75216, Note_on_c, 0, 76, 100
1, 75221, Note_off_c, 0, 74, 85
1, 75243, Note_off_c, 0, 76, 81
1, 75245, Note_on_c, 0, 69, 109
1, 75250, Note_off_c, 0, 44, 76
1, 75263, Note_off_c, 0, 69, 88
1, 75264, Note_on_c, 0, 50, 64
1, 75264, Note_on_c, 0, 62, 57
1, 75264, Note_on_c, 0, 65, 45
1, 75264, Note_on_c, 0, 69, 81
1, 75264, Note_on_c, 0, 72, 76
1, 75360, Note_on_c, 0, 74, 102
1, 75374, Note_off_c, 0, 74, 73
1, 75408, Note_on_c, 0, 74, 77
1, 75408, Note_on_c, 0, 81, 97
1, 75419, Note_off_c, 0, 74, 74
1, 75419, Note_off_c, 0, 81, 89
1, 75436, Note_off_c, 0, 50, 39
1, 75436, Note_on_c, 0, 52, 66
1, 75436, Note_off_c, 0, 62, 42
1, 75436, Note_on_c, 0, 62, 63
1, 75436, Note_off_c, 0, 65, 26
1, 75436, Note_on_c, 0, 67, 58
1, 75436, Note_off_c, 0, 69, 62
1, 75436, Note_on_c, 0, 71, 93
1, 75436, Note_off_c, 0, 72, 49
1, 75456, Note_on_c, 0, 74, 86
1, 75456, Note_on_c, 0, 84, 67
1, 75463, Note_off_c, 0, 84, 96
1, 75464, Note_on_c, 0, 86, 95
1, 75492, Note_off_c, 0, 86, 75
1, 75504, Note_on_c, 0, 84, 75
1, 75514, Note_off_c, 0, 84, 76
1, 75516, Note_off_c, 0, 74, 39
1, 75552, Note_on_c, 0, 74, 95
1, 75552, Note_on_c, 0, 83, 108
1, 75582, Note_off_c, 0, 83, 69
1, 75600, Note_on_c, 0, 84, 94
1, 75613, Note_off_c, 0, 74, 71
1, 75614, Note_off_c, 0, 84, 59
1, 75628, Note_on_c, 0, 45, 79
1, 75628, Note_off_c, 0, 52, 52
1, 75628, Note_on_c, 0, 57, 60
1, 75628, Note_on_c, 0, 60, 57
1, 75628, Note_off_c, 0, 62, 38
1, 75628, Note_on_c, 0, 64, 79
1, 75628, Note_off_c, 0, 67, 20
1, 75628, Note_on_c, 0, 67, 67
1, 75628, Note_off_c, 0, 71, 67
1, 75628, Note_on_c, 0, 74, 72
1, 75628, Note_on_c, 0, 83, 100
1, 75674, Note_off_c, 0, 74, 12
1, 75687, Note_off_c, 0, 83, 74
1, 75696, Note_on_c, 0, 74, 92
1, 75696, Note_on_c, 0, 81, 106
1, 75708, Note_off_c, 0, 81, 79
1, 75710, Note_off_c, 0, 74, 69
1, 75792, Note_on_c, 0, 74, 95
1, 75804, Note_off_c, 0, 74, 86
1, 75840, Note_on_c, 0, 76, 98
1, 75840, Note_on_c, 0, 79, 100
1, 75872, Note_off_c, 0, 76, 37
1, 75873, Note_off_c, 0, 79, 58
1, 75888, Note_on_c, 0, 76, 87
1, 75888, Note_on_c, 0, 81, 103
1, 75899, Note_off_c, 0, 81, 77
1, 75900, Note_off_c, 0, 76, 66
1, 75936, Note_on_c, 0, 76, 97
1, 75936, Note_on_c, 0, 84, 95
1, 75978, Note_off_c, 0, 76, 61
1, 75978, Note_off_c, 0, 84, 82
1, 75984, Note_on_c, 0, 76, 81
1, 75984, Note_on_c, 0, 86, 103
1, 76006, Note_off_c, 0, 86, 82
1, 76009, Note_off_c, 0, 76, 80
1, 76031, Note_off_c, 0, 45, 35
1, 76031, Note_off_c, 0, 57, 39
1, 76031, Note_off_c, 0, 60, 1
1, 76031, Note_off_c, 0, 64, 39
1, 76031, Note_off_c, 0, 67, 13
1, 76032, Note_on_c, 0, 50, 69
1, 76032, Note_on_c, 0, 62, 65
1, 76032, Note_on_c, 0, 65, 69
1, 76032, Note_on_c, 0, 69, 90
1, 76032, Note_on_c, 0, 72, 84
1, 76128, Note_on_c, 0, 74, 102
1, 76142, Note_off_c, 0, 74, 73
1, 76176, Note_on_c, 0, 74, 77
1, 76176, Note_on_c, 0, 81, 97
1, 76187, Note_off_c, 0, 74, 74
1, 76187, Note_off_c, 0, 81, 89
1, 76204, Note_off_c, 0, 50, 58
1, 76204, Note_on_c, 0, 52, 75
1, 76204, Note_off_c, 0, 62, 48
1, 76204, Note_on_c, 0, 62, 70
1, 76204, Note_off_c, 0, 65, 25
1, 76204, Note_on_c, 0, 67, 66
1, 76204, Note_off_c, 0, 69, 64
1, 76204, Note_on_c, 0, 71, 87
1, 76204, Note_off_c, 0, 72, 29
1, 76224, Note_on_c, 0, 74, 86
1, 76224, Note_on_c, 0, 84, 67
1, 76231, Note_off_c, 0, 84, 96
1, 76232, Note_on_c, 0, 86, 95
1, 76260, Note_off_c, 0, 86, 75
1, 76272, Note_on_c, 0, 84, 75
1, 76282, Note_off_c, 0, 84, 76
1, 76284, Note_off_c, 0, 74, 39
1, 76320, Note_on_c, 0, 74, 95
1, 76320, Note_on_c, 0, 83, 108
1, 76350, Note_off_c, 0, 83, 69
1, 76368, Note_on_c, 0, 88, 94
1, 76381, Note_off_c, 0, 74, 71
1, 76382, Note_off_c, 0, 88, 59
1, 76396, Note_on_c, 0, 45, 69
1, 76396, Note_off_c, 0, 52, 57
1, 76396, Note_on_c, 0, 57, 33
1, 76396, Note_on_c, 0, 60, 49
1, 76396, Note_off_c, 0, 62, 43
1, 76396, Note_on_c, 0, 64, 68
1, 76396, Note_off_c, 0, 67, 42
1, 76396, Note_on_c, 0, 67, 76
1, 76396, Note_off_c, 0, 71, 58
1, 76396, Note_on_c, 0, 71, 75
1, 76396, Note_on_c, 0, 74, 72
1, 76396, Note_on_c, 0, 83, 100
1, 76442, Note_off_c, 0, 74, 12
1, 76455, Note_off_c, 0, 83, 74
1, 76464, Note_on_c, 0, 74, 92
1, 76464, Note_on_c, 0, 81, 106
1, 76476, Note_off_c, 0, 81, 79
1, 76478, Note_off_c, 0, 74, 69
1, 76560, Note_on_c, 0, 74, 95
1, 76572, Note_off_c, 0, 74, 86
1, 76608, Note_on_c, 0, 76, 98
1, 76608, Note_on_c, 0, 84, 100
1, 76640, Note_off_c, 0, 76, 37
1, 76641, Note_off_c, 0, 84, 58
1, 76656, Note_on_c, 0, 76, 87
1, 76656, Note_on_c, 0, 86, 103
1, 76667, Note_off_c, 0, 86, 77
1, 76668, Note_off_c, 0, 76, 66
1, 76704, Note_on_c, 0, 76, 97
1, 76704, Note_on_c, 0, 79, 95
1, 76746, Note_off_c, 0, 79, 82
1, 76747, Note_off_c, 0, 76, 61
1, 76751, Note_off_c, 0, 45, 59
1, 76751, Note_off_c, 0, 57, 44
1, 76751, Note_off_c, 0, 60, 11
1, 76751, Note_off_c, 0, 64, 30
1, 76751, Note_off_c, 0, 67, 1
1, 76751, Note_off_c, 0, 71, 57
1, 76752, Note_on_c, 0, 60, 60
1, 76752, Note_on_c, 0, 76, 81
1, 76752, Note_on_c, 0, 81, 103
1, 76774, Note_off_c, 0, 81, 82
1, 76777, Note_off_c, 0, 76, 80
1, 76799, Note_off_c, 0, 60, 80
1, 76800, Note_on_c, 0, 43, 39
1, 76800, Note_on_c, 0, 50, 50
1, 76800, Note_on_c, 0, 57, 44
1, 76800, Note_on_c, 0, 60, 58
1, 76800, Note_on_c, 0, 72, 61
1, 76811, Note_on_c, 0, 74, 88
1, 76813, Note_off_c, 0, 72, 67
1, 76994, Note_on_c, 0, 72, 62
1, 76999, Note_off_c, 0, 74, 62
1, 77036, Note_on_c, 0, 74, 62
1, 77046, Note_off_c, 0, 72, 42
1, 77085, Note_on_c, 0, 76, 70
1, 77086, Note_off_c, 0, 74, 18
1, 77183, Note_off_c, 0, 43, 73
1, 77183, Note_off_c, 0, 50, 72
1, 77183, Note_off_c, 0, 57, 66
1, 77183, Note_off_c, 0, 60, 80
1, 77184, Note_on_c, 0, 45, 39
1, 77184, Note_on_c, 0, 52, 50
1, 77184, Note_on_c, 0, 59, 44
1, 77184, Note_on_c, 0, 62, 58
1, 77185, Note_off_c, 0, 76, 55
1, 77186, Note_on_c, 0, 74, 43
1, 77370, Note_off_c, 0, 74, 67
1, 77372, Note_on_c, 0, 67, 52
1, 77567, Note_off_c, 0, 45, 73
1, 77567, Note_off_c, 0, 52, 72
1, 77567, Note_off_c, 0, 59, 66
1, 77567, Note_off_c, 0, 62, 80
1, 77567, Note_off_c, 0, 67, 67
1, 77567, Note_on_c, 0, 72, 61
1, 77568, Note_on_c, 0, 43, 39
1, 77568, Note_on_c, 0, 50, 50
1, 77568, Note_on_c, 0, 57, 44
1, 77568, Note_on_c, 0, 60, 58
1, 77579, Note_on_c, 0, 74, 88
1, 77581, Note_off_c, 0, 72, 67
1, 77762, Note_on_c, 0, 72, 62
1, 77767, Note_off_c, 0, 74, 62
1, 77804, Note_on_c, 0, 74, 62
1, 77814, Note_off_c, 0, 72, 42
1, 77853, Note_on_c, 0, 76, 70
1, 77854, Note_off_c, 0, 74, 18
1, 77951, Note_off_c, 0, 43, 73
1, 77951, Note_off_c, 0, 50, 72
1, 77951, Note_off_c, 0, 57, 66
1, 77951, Note_off_c, 0, 60, 80
1, 77952, Note_on_c, 0, 45, 39
1, 77952, Note_on_c, 0, 52, 50
1, 77952, Note_on_c, 0, 59, 44
1, 77952, Note_on_c, 0, 62, 58
1, 77953, Note_off_c, 0, 76, 55
1, 77954, Note_on_c, 0, 74, 43
1, 78138, Note_off_c, 0, 74, 67
1, 78140, Note_on_c, 0, 67, 52
1, 78335, Note_off_c, 0, 45, 73
1, 78335, Note_off_c, 0, 52, 72
1, 78335, Note_off_c, 0, 59, 66
1, 78335, Note_off_c, 0, 62, 80
1, 78335, Note_off_c, 0, 67, 67
1, 78336, Note_on_c, 0, 45, 85
1, 78384, Note_on_c, 0, 55, 67
1, 78384, Note_on_c, 0, 60, 71
1, 78384, Note_on_c, 0, 64, 87
1, 78387, Note_off_c, 0, 45, 64
1, 78396, Note_off_c, 0, 64, 74
1, 78397, Note_off_c, 0, 55, 51
1, 78397, Note_off_c, 0, 60, 55
1, 78432, Note_on_c, 0, 67, 85
1, 78460, Note_on_c, 0, 45, 80
1, 78461, Note_on_c, 0, 69, 89
1, 78466, Note_off_c, 0, 67, 51
1, 78473, Note_off_c, 0, 69, 82
1, 78476, Note_off_c, 0, 45, 59
1, 78480, Note_on_c, 0, 55, 71
1, 78480, Note_on_c, 0, 60, 76
1, 78480, Note_on_c, 0, 64, 85
1, 78480, Note_on_c, 0, 72, 100
1, 78492, Note_off_c, 0, 64, 55
1, 78493, Note_off_c, 0, 60, 47
1, 78495, Note_off_c, 0, 55, 57
1, 78501, Note_off_c, 0, 72, 31
1, 78508, Note_on_c, 0, 47, 81
1, 78509, Note_on_c, 0, 74, 89
1, 78525, Note_off_c, 0, 47, 77
1, 78528, Note_on_c, 0, 48, 72
1, 78528, Note_on_c, 0, 76, 100
1, 78530, Note_off_c, 0, 74, 74
1, 78540, Note_off_c, 0, 76, 122
1, 78570, Note_off_c, 0, 48, 40
1, 78576, Note_on_c, 0, 55, 62
1, 78576, Note_on_c, 0, 60, 73
1, 78576, Note_on_c, 0, 64, 92
1, 78576, Note_on_c, 0, 79, 116
1, 78586, Note_off_c, 0, 79, 88
1, 78591, Note_off_c, 0, 55, 58
1, 78591, Note_off_c, 0, 60, 51
1, 78591, Note_off_c, 0, 64, 70
1, 78623, Note_on_c, 0, 80, 123
1, 78628, Note_off_c, 0, 80, 105
1, 78628, Note_on_c, 0, 81, 118
1, 78652, Note_on_c, 0, 48, 61
1, 78664, Note_off_c, 0, 48, 46
1, 78671, Note_off_c, 0, 81, 82
1, 78672, Note_on_c, 0, 55, 70
1, 78672, Note_on_c, 0, 60, 67
1, 78672, Note_on_c, 0, 64, 84
1, 78672, Note_on_c, 0, 79, 99
1, 78693, Note_off_c, 0, 55, 42
1, 78694, Note_off_c, 0, 79, 91
1, 78695, Note_off_c, 0, 60, 15
1, 78695, Note_off_c, 0, 64, 39
1, 78700, Note_on_c, 0, 49, 68
1, 78700, Note_on_c, 0, 76, 125
1, 78712, Note_off_c, 0, 49, 79
1, 78720, Note_on_c, 0, 50, 87
1, 78768, Note_on_c, 0, 57, 78
1, 78768, Note_on_c, 0, 60, 82
1, 78768, Note_on_c, 0, 65, 91
1, 78769, Note_off_c, 0, 50, 65
1, 78778, Note_off_c, 0, 60, 50
1, 78780, Note_off_c, 0, 57, 73
1, 78781, Note_off_c, 0, 65, 50
1, 78844, Note_on_c, 0, 50, 75
1, 78848, Note_off_c, 0, 76, 35
1, 78860, Note_off_c, 0, 50, 62
1, 78864, Note_on_c, 0, 57, 82
1, 78864, Note_on_c, 0, 60, 74
1, 78864, Note_on_c, 0, 65, 86
1, 78890, Note_off_c, 0, 60, 34
1, 78891, Note_off_c, 0, 65, 37
1, 78892, Note_off_c, 0, 57, 57
1, 78911, Note_on_c, 0, 79, 108
1, 78912, Note_on_c, 0, 50, 90
1, 78958, Note_off_c, 0, 79, 67
1, 78959, Note_on_c, 0, 81, 89
1, 78960, Note_on_c, 0, 57, 80
1, 78960, Note_on_c, 0, 60, 81
1, 78960, Note_on_c, 0, 65, 87
1, 78964, Note_off_c, 0, 50, 60
1, 78970, Note_off_c, 0, 60, 38
1, 78970, Note_off_c, 0, 81, 92
1, 78972, Note_off_c, 0, 65, 51
1, 78973, Note_off_c, 0, 57, 69
1, 79007, Note_on_c, 0, 79, 106
1, 79036, Note_on_c, 0, 50, 85
1, 79054, Note_off_c, 0, 50, 64
1, 79054, Note_off_c, 0, 79, 92
1, 79056, Note_on_c, 0, 57, 91
1, 79056, Note_on_c, 0, 60, 89
1, 79056, Note_on_c, 0, 65, 98
1, 79056, Note_on_c, 0, 76, 118
1, 79067, Note_off_c, 0, 60, 33
1, 79069, Note_off_c, 0, 57, 51
1, 79071, Note_off_c, 0, 65, 46
1, 79084, Note_on_c, 0, 49, 52
1, 79093, Note_off_c, 0, 49, 42
1, 79098, Note_off_c, 0, 76, 68
1, 79104, Note_on_c, 0, 50, 94
1, 79104, Note_on_c, 0, 75, 123
1, 79113, Note_off_c, 0, 75, 75
1, 79121, Note_on_c, 0, 76, 111
1, 79136, Note_off_c, 0, 76, 89
1, 79136, Note_on_c, 0, 79, 99
1, 79148, Note_off_c, 0, 50, 70
1, 79152, Note_on_c, 0, 57, 82
1, 79152, Note_on_c, 0, 60, 89
1, 79152, Note_on_c, 0, 65, 92
1, 79152, Note_on_c, 0, 75, 113
1, 79153, Note_off_c, 0, 79, 62
1, 79158, Note_off_c, 0, 75, 66
1, 79160, Note_off_c, 0, 57, 70
1, 79161, Note_off_c, 0, 60, 65
1, 79161, Note_off_c, 0, 65, 64
1, 79169, Note_on_c, 0, 76, 114
1, 79184, Note_off_c, 0, 76, 88
1, 79184, Note_on_c, 0, 79, 102
1, 79200, Note_on_c, 0, 75, 105
1, 79200, Note_off_c, 0, 79, 73
1, 79206, Note_off_c, 0, 75, 64
1, 79217, Note_on_c, 0, 76, 109
1, 79228, Note_on_c, 0, 50, 81
1, 79231, Note_off_c, 0, 76, 87
1, 79232, Note_on_c, 0, 79, 94
1, 79243, Note_off_c, 0, 50, 75
1, 79246, Note_off_c, 0, 79, 77
1, 79248, Note_on_c, 0, 57, 92
1, 79248, Note_on_c, 0, 60, 96
1, 79248, Note_on_c, 0, 65, 94
1, 79248, Note_on_c, 0, 75, 120
1, 79256, Note_off_c, 0, 75, 69
1, 79258, Note_off_c, 0, 60, 54
1, 79258, Note_off_c, 0, 65, 54
1, 79259, Note_off_c, 0, 57, 67
1, 79265, Note_on_c, 0, 76, 122
1, 79276, Note_on_c, 0, 51, 62
1, 79279, Note_off_c, 0, 76, 88
1, 79280, Note_on_c, 0, 79, 114
1, 79292, Note_off_c, 0, 51, 60
1, 79296, Note_on_c, 0, 52, 98
1, 79296, Note_on_c, 0, 75, 108
1, 79299, Note_off_c, 0, 79, 65
1, 79303, Note_off_c, 0, 75, 60
1, 79313, Note_on_c, 0, 76, 127
1, 79328, Note_on_c, 0, 79, 108
1, 79329, Note_off_c, 0, 76, 82
1, 79343, Note_off_c, 0, 52, 64
1, 79344, Note_on_c, 0, 59, 76
1, 79344, Note_on_c, 0, 62, 90
1, 79344, Note_on_c, 0, 67, 82
1, 79344, Note_on_c, 0, 75, 108
1, 79349, Note_off_c, 0, 79, 66
1, 79355, Note_off_c, 0, 62, 73
1, 79357, Note_off_c, 0, 59, 60
1, 79357, Note_off_c, 0, 67, 64
1, 79361, Note_on_c, 0, 76, 108
1, 79365, Note_off_c, 0, 75, 64
1, 79376, Note_on_c, 0, 79, 108
1, 79383, Note_off_c, 0, 76, 64
1, 79392, Note_on_c, 0, 80, 116
1, 79397, Note_off_c, 0, 79, 64
1, 79397, Note_on_c, 0, 81, 102
1, 79401, Note_off_c, 0, 80, 78
1, 79418, Note_off_c, 0, 81, 60
1, 79419, Note_on_c, 0, 79, 95
1, 79420, Note_on_c, 0, 52, 72
1, 79437, Note_off_c, 0, 52, 65
1, 79437, Note_off_c, 0, 79, 95
1, 79439, Note_on_c, 0, 76, 105
1, 79440, Note_on_c, 0, 59, 87
1, 79440, Note_on_c, 0, 62, 92
1, 79440, Note_on_c, 0, 67, 88
1, 79466, Note_off_c, 0, 76, 85
1, 79467, Note_on_c, 0, 75, 103
1, 79468, Note_on_c, 0, 46, 84
1, 79468, Note_off_c, 0, 67, 39
1, 79469, Note_off_c, 0, 62, 47
1, 79470, Note_off_c, 0, 59, 39
1, 79482, Note_off_c, 0, 75, 73
1, 79487, Note_on_c, 0, 74, 118
1, 79488, Note_on_c, 0, 45, 91
1, 79488, Note_off_c, 0, 46, 103
1, 79525, Note_off_c, 0, 74, 77
1, 79534, Note_off_c, 0, 45, 64
1, 79534, Note_on_c, 0, 72, 96
1, 79536, Note_on_c, 0, 55, 71
1, 79536, Note_on_c, 0, 60, 72
1, 79536, Note_on_c, 0, 64, 79
1, 79548, Note_off_c, 0, 72, 60
1, 79550, Note_off_c, 0, 64, 77
1, 79551, Note_off_c, 0, 55, 60
1, 79551, Note_off_c, 0, 60, 38
1, 79583, Note_on_c, 0, 69, 105
1, 79612, Note_on_c, 0, 45, 61
1, 79629, Note_off_c, 0, 45, 62
1, 79629, Note_off_c, 0, 69, 49
1, 79632, Note_on_c, 0, 55, 75
1, 79632, Note_on_c, 0, 60, 78
1, 79632, Note_on_c, 0, 64, 90
1, 79632, Note_on_c, 0, 67, 88
1, 79653, Note_off_c, 0, 67, 36
1, 79657, Note_off_c, 0, 55, 46
1, 79657, Note_off_c, 0, 60, 26
1, 79657, Note_off_c, 0, 64, 45
1, 79660, Note_on_c, 0, 45, 76
1, 79661, Note_on_c, 0, 69, 113
1, 79671, Note_off_c, 0, 45, 57
1, 79680, Note_on_c, 0, 45, 85
1, 79717, Note_off_c, 0, 69, 72
1, 79724, Note_off_c, 0, 45, 53
1, 79727, Note_on_c, 0, 55, 88
1, 79727, Note_on_c, 0, 60, 100
1, 79727, Note_on_c, 0, 64, 95
1, 79727, Note_on_c, 0, 72, 113
1, 79736, Note_off_c, 0, 55, 67
1, 79736, Note_off_c, 0, 60, 63
1, 79736, Note_off_c, 0, 64, 77
1, 79804, Note_on_c, 0, 45, 64
1, 79820, Note_off_c, 0, 45, 54
1, 79824, Note_on_c, 0, 55, 85
1, 79824, Note_on_c, 0, 60, 91
1, 79824, Note_on_c, 0, 64, 99
1, 79844, Note_off_c, 0, 55, 17
1, 79846, Note_off_c, 0, 72, 53
1, 79848, Note_off_c, 0, 60, 6
1, 79849, Note_off_c, 0, 64, 22
1, 79852, Note_on_c, 0, 43, 64
1, 79868, Note_off_c, 0, 43, 54
1, 79872, Note_on_c, 0, 38, 64
1, 79872, Note_on_c, 0, 53, 44
1, 79872, Note_on_c, 0, 60, 74
1, 79949, Note_off_c, 0, 53, 37
1, 79950, Note_off_c, 0, 60, 28
1, 79951, Note_off_c, 0, 38, 38
1, 79966, Note_on_c, 0, 38, 72
1, 79966, Note_on_c, 0, 53, 76
1, 79966, Note_on_c, 0, 60, 91
1, 79967, Note_on_c, 0, 76, 118
1, 79976, Note_off_c, 0, 53, 68
1, 79980, Note_off_c, 0, 60, 60
1, 79984, Note_off_c, 0, 38, 37
1, 80004, Note_off_c, 0, 76, 34
1, 80016, Note_on_c, 0, 79, 94
1, 80017, Note_on_c, 0, 41, 75
1, 80017, Note_on_c, 0, 57, 59
1, 80017, Note_on_c, 0, 64, 94
1, 80026, Note_off_c, 0, 79, 68
1, 80066, Note_on_c, 0, 79, 116
1, 80069, Note_on_c, 0, 81, 84
1, 80077, Note_off_c, 0, 79, 60
1, 80126, Note_off_c, 0, 41, 35
1, 80132, Note_off_c, 0, 64, 39
1, 80134, Note_off_c, 0, 57, 20
1, 80139, Note_off_c, 0, 81, 50
1, 80157, Note_on_c, 0, 57, 62
1, 80158, Note_on_c, 0, 41, 67
1, 80158, Note_on_c, 0, 64, 89
1, 80160, Note_on_c, 0, 79, 113
1, 80173, Note_off_c, 0, 57, 32
1, 80184, Note_on_c, 0, 76, 100
1, 80196, Note_off_c, 0, 79, 52
1, 80199, Note_off_c, 0, 76, 68
1, 80206, Note_on_c, 0, 75, 76
1, 80207, Note_off_c, 0, 64, 66
1, 80208, Note_on_c, 0, 45, 77
1, 80208, Note_on_c, 0, 55, 89
1, 80208, Note_on_c, 0, 60, 91
1, 80210, Note_off_c, 0, 41, 46
1, 80222, Note_off_c, 0, 75, 67
1, 80232, Note_on_c, 0, 74, 113
1, 80255, Note_on_c, 0, 72, 116
1, 80260, Note_off_c, 0, 74, 43
1, 80330, Note_off_c, 0, 72, 37
1, 80352, Note_on_c, 0, 72, 94
1, 80379, Note_off_c, 0, 72, 55
1, 80382, Note_on_c, 0, 69, 100
1, 80399, Note_off_c, 0, 69, 53
1, 80400, Note_on_c, 0, 72, 77
1, 80423, Note_off_c, 0, 60, 51
1, 80424, Note_off_c, 0, 45, 41
1, 80424, Note_off_c, 0, 55, 57
1, 80424, Note_off_c, 0, 72, 61
1, 80429, Note_on_c, 0, 74, 82
1, 80446, Note_on_c, 0, 45, 77
1, 80446, Note_on_c, 0, 60, 94
1, 80446, Note_on_c, 0, 67, 70
1, 80449, Note_on_c, 0, 75, 90
1, 80452, Note_off_c, 0, 74, 61
1, 80489, Note_off_c, 0, 75, 57
1, 80495, Note_on_c, 0, 76, 73
1, 80510, Note_off_c, 0, 76, 91
1, 80543, Note_on_c, 0, 74, 98
1, 80545, Note_on_c, 0, 75, 69
1, 80554, Note_off_c, 0, 74, 56
1, 80573, Note_on_c, 0, 74, 92
1, 80577, Note_off_c, 0, 75, 82
1, 80592, Note_on_c, 0, 72, 103
1, 80593, Note_off_c, 0, 74, 72
1, 80620, Note_off_c, 0, 72, 61
1, 80622, Note_on_c, 0, 69, 103
1, 80631, Note_off_c, 0, 67, 37
1, 80634, Note_off_c, 0, 60, 30
1, 80637, Note_off_c, 0, 45, 50
1, 80639, Note_on_c, 0, 38, 87
1, 80639, Note_on_c, 0, 53, 70
1, 80639, Note_on_c, 0, 60, 78
1, 80646, Note_off_c, 0, 69, 76
1, 80720, Note_off_c, 0, 38, 18
1, 80722, Note_off_c, 0, 53, 37
1, 80722, Note_off_c, 0, 60, 40
1, 80735, Note_on_c, 0, 38, 82
1, 80735, Note_on_c, 0, 53, 70
1, 80735, Note_on_c, 0, 60, 69
1, 80735, Note_on_c, 0, 76, 118
1, 80753, Note_off_c, 0, 53, 39
1, 80772, Note_off_c, 0, 76, 34
1, 80780, Note_off_c, 0, 60, 45
1, 80784, Note_on_c, 0, 79, 94
1, 80785, Note_on_c, 0, 41, 77
1, 80785, Note_on_c, 0, 57, 60
1, 80785, Note_on_c, 0, 64, 84
1, 80786, Note_off_c, 0, 38, 8
1, 80794, Note_off_c, 0, 79, 68
1, 80812, Note_on_c, 0, 79, 116
1, 80815, Note_on_c, 0, 81, 84
1, 80823, Note_off_c, 0, 79, 60
1, 80885, Note_off_c, 0, 81, 50
1, 80900, Note_off_c, 0, 41, 43
1, 80908, Note_off_c, 0, 57, 32
1, 80913, Note_off_c, 0, 64, 39
1, 80925, Note_on_c, 0, 41, 66
1, 80926, Note_on_c, 0, 57, 53
1, 80926, Note_on_c, 0, 64, 73
1, 80928, Note_on_c, 0, 79, 113
1, 80956, Note_on_c, 0, 76, 100
1, 80960, Note_off_c, 0, 57, 17
1, 80964, Note_off_c, 0, 79, 52
1, 80971, Note_off_c, 0, 76, 68
1, 80974, Note_off_c, 0, 64, 85
1, 80975, Note_on_c, 0, 45, 78
1, 80975, Note_on_c, 0, 60, 74
1, 80976, Note_on_c, 0, 55, 92
1, 80976, Note_on_c, 0, 75, 76
1, 80977, Note_off_c, 0, 41, 54
1, 80992, Note_off_c, 0, 75, 67
1, 81004, Note_on_c, 0, 74, 113
1, 81023, Note_on_c, 0, 72, 116
1, 81032, Note_off_c, 0, 74, 43
1, 81098, Note_off_c, 0, 72, 37
1, 81120, Note_on_c, 0, 72, 94
1, 81147, Note_off_c, 0, 72, 55
1, 81150, Note_on_c, 0, 69, 100
1, 81167, Note_off_c, 0, 69, 53
1, 81168, Note_on_c, 0, 72, 77
1, 81191, Note_off_c, 0, 55, 14
1, 81192, Note_off_c, 0, 72, 61
1, 81196, Note_off_c, 0, 60, 38
1, 81197, Note_on_c, 0, 74, 82
1, 81201, Note_off_c, 0, 45, 25
1, 81214, Note_on_c, 0, 45, 75
1, 81214, Note_on_c, 0, 55, 68
1, 81214, Note_on_c, 0, 60, 77
1, 81217, Note_on_c, 0, 75, 90
1, 81220, Note_off_c, 0, 74, 61
1, 81257, Note_off_c, 0, 75, 57
1, 81263, Note_on_c, 0, 76, 73
1, 81278, Note_off_c, 0, 76, 91
1, 81288, Note_off_c, 0, 55, 41
1, 81302, Note_off_c, 0, 60, 21
1, 81308, Note_off_c, 0, 45, 27
1, 81311, Note_on_c, 0, 74, 98
1, 81312, Note_on_c, 0, 48, 74
1, 81312, Note_on_c, 0, 60, 89
1, 81312, Note_on_c, 0, 67, 96
1, 81313, Note_on_c, 0, 75, 69
1, 81322, Note_off_c, 0, 74, 56
1, 81341, Note_on_c, 0, 74, 92
1, 81345, Note_off_c, 0, 75, 82
1, 81360, Note_on_c, 0, 72, 103
1, 81361, Note_off_c, 0, 74, 72
1, 81382, Note_off_c, 0, 48, 53
1, 81382, Note_off_c, 0, 60, 67
1, 81383, Note_off_c, 0, 67, 51
1, 81388, Note_off_c, 0, 72, 61
1, 81390, Note_on_c, 0, 69, 103
1, 81407, Note_off_c, 0, 69, 76
1, 81408, Note_on_c, 0, 33, 57
1, 81408, Note_on_c, 0, 57, 54
1, 81413, Note_on_c, 0, 60, 37
1, 81415, Note_on_c, 0, 67, 56
1, 81417, Note_on_c, 0, 76, 75
1, 81428, Note_on_c, 0, 64, 51
1, 81456, Note_off_c, 0, 33, 64
1, 81456, Note_on_c, 0, 40, 58
1, 81463, Note_on_c, 0, 71, 54
1, 81504, Note_off_c, 0, 40, 64
1, 81504, Note_on_c, 0, 45, 58
1, 81552, Note_off_c, 0, 45, 64
1, 81552, Note_on_c, 0, 47, 58
1, 81600, Note_off_c, 0, 47, 64
1, 81600, Note_on_c, 0, 48, 58
1, 81648, Note_off_c, 0, 48, 64
1, 81648, Note_on_c, 0, 52, 58
1, 81665, Note_off_c, 0, 76, 59
1, 81670, Note_off_c, 0, 60, 59
1, 81670, Note_off_c, 0, 71, 59
1, 81673, Note_off_c, 0, 64, 28
1, 81679, Note_off_c, 0, 57, 55
1, 81696, Note_on_c, 0, 48, 58
1, 81696, Note_off_c, 0, 52, 64
1, 81703, Note_off_c, 0, 67, 64
1, 81744, Note_on_c, 0, 47, 58
1, 81744, Note_off_c, 0, 48, 64
1, 81782, Note_on_c, 0, 55, 52
1, 81792, Note_on_c, 0, 34, 60
1, 81792, Note_off_c, 0, 47, 64
1, 81792, Note_on_c, 0, 58, 1
1, 81792, Note_on_c, 0, 74, 69
1, 81800, Note_on_c, 0, 62, 33
1, 81806, Note_on_c, 0, 65, 45
1, 81840, Note_off_c, 0, 34, 64
1, 81840, Note_on_c, 0, 41, 60
1, 81848, Note_on_c, 0, 70, 48
1, 81888, Note_off_c, 0, 41, 64
1, 81888, Note_on_c, 0, 46, 60
1, 81936, Note_off_c, 0, 46, 64
1, 81936, Note_on_c, 0, 50, 60
1, 81984, Note_off_c, 0, 50, 64
1, 81984, Note_on_c, 0, 53, 60
1, 81986, Note_on_c, 0, 69, 66
1, 81998, Note_off_c, 0, 65, 64
1, 82032, Note_on_c, 0, 52, 60
1, 82032, Note_off_c, 0, 53, 64
1, 82037, Note_on_c, 0, 65, 63
1, 82039, Note_off_c, 0, 62, 46
1, 82041, Note_off_c, 0, 55, 28
1, 82047, Note_off_c, 0, 58, 6
1, 82047, Note_off_c, 0, 70, 1
1, 82051, Note_off_c, 0, 69, 33
1, 82076, Note_off_c, 0, 74, 1
1, 82080, Note_on_c, 0, 50, 59
1, 82080, Note_off_c, 0, 52, 64
1, 82100, Note_off_c, 0, 65, 51
1, 82128, Note_off_c, 0, 50, 64
1, 82128, Note_on_c, 0, 52, 59
1, 82167, Note_on_c, 0, 57, 42
1, 82175, Note_on_c, 0, 60, 41
1, 82176, Note_on_c, 0, 33, 57
1, 82176, Note_off_c, 0, 52, 64
1, 82180, Note_on_c, 0, 76, 76
1, 82185, Note_on_c, 0, 64, 53
1, 82224, Note_off_c, 0, 33, 64
1, 82224, Note_on_c, 0, 40, 58
1, 82228, Note_on_c, 0, 71, 53
1, 82272, Note_off_c, 0, 40, 64
1, 82272, Note_on_c, 0, 45, 58
1, 82320, Note_off_c, 0, 45, 64
1, 82320, Note_on_c, 0, 47, 58
1, 82368, Note_off_c, 0, 47, 64
1, 82368, Note_on_c, 0, 48, 58
1, 82416, Note_off_c, 0, 48, 64
1, 82416, Note_on_c, 0, 52, 58
1, 82435, Note_off_c, 0, 57, 41
1, 82436, Note_off_c, 0, 76, 38
1, 82441, Note_off_c, 0, 64, 9
1, 82449, Note_off_c, 0, 60, 36
1, 82457, Note_off_c, 0, 71, 44
1, 82464, Note_on_c, 0, 48, 58
1, 82464, Note_off_c, 0, 52, 64
1, 82512, Note_on_c, 0, 47, 58
1, 82512, Note_off_c, 0, 48, 64
1, 82545, Note_on_c, 0, 55, 34
1, 82555, Note_on_c, 0, 58, 17
1, 82559, Note_on_c, 0, 74, 76
1, 82560, Note_on_c, 0, 34, 60
1, 82560, Note_off_c, 0, 47, 64
1, 82560, Note_on_c, 0, 69, 56
1, 82569, Note_on_c, 0, 62, 53
1, 82608, Note_off_c, 0, 34, 64
1, 82608, Note_on_c, 0, 41, 60
1, 82613, Note_on_c, 0, 70, 37
1, 82656, Note_off_c, 0, 41, 64
1, 82656, Note_on_c, 0, 46, 60
1, 82704, Note_off_c, 0, 46, 64
1, 82704, Note_on_c, 0, 50, 60
1, 82742, Note_off_c, 0, 69, 64
1, 82752, Note_off_c, 0, 50, 64
1, 82752, Note_on_c, 0, 65, 63
1, 82796, Note_off_c, 0, 70, 1
1, 82800, Note_on_c, 0, 53, 60
1, 82800, Note_on_c, 0, 67, 56
1, 82807, Note_off_c, 0, 65, 25
1, 82808, Note_off_c, 0, 55, 1
1, 82818, Note_off_c, 0, 62, 24
1, 82832, Note_off_c, 0, 58, 13
1, 82848, Note_on_c, 0, 52, 59
1, 82848, Note_off_c, 0, 53, 64
1, 82848, Note_on_c, 0, 77, 78
1, 82896, Note_on_c, 0, 50, 59
1, 82896, Note_off_c, 0, 52, 64
1, 82896, Note_off_c, 0, 67, 64
1, 82939, Note_off_c, 0, 74, 5
1, 82939, Note_off_c, 0, 77, 64
1, 82944, Note_off_c, 0, 50, 64
1, 82945, Note_on_c, 0, 41, 58
1, 82946, Note_on_c, 0, 53, 49
1, 82946, Note_on_c, 0, 57, 44
1, 82946, Note_on_c, 0, 60, 74
1, 82946, Note_on_c, 0, 64, 85
1, 83040, Note_on_c, 0, 76, 85
1, 83083, Note_off_c, 0, 76, 70
1, 83088, Note_on_c, 0, 79, 82
1, 83096, Note_off_c, 0, 79, 67
1, 83132, Note_off_c, 0, 41, 32
1, 83133, Note_on_c, 0, 41, 40
1, 83133, Note_off_c, 0, 53, 28
1, 83133, Note_off_c, 0, 57, 33
1, 83133, Note_off_c, 0, 60, 28
1, 83133, Note_off_c, 0, 64, 63
1, 83135, Note_on_c, 0, 60, 74
1, 83135, Note_on_c, 0, 64, 82
1, 83135, Note_on_c, 0, 79, 110
1, 83136, Note_on_c, 0, 53, 29
1, 83136, Note_on_c, 0, 57, 48
1, 83146, Note_off_c, 0, 79, 52
1, 83146, Note_on_c, 0, 81, 92
1, 83176, Note_off_c, 0, 81, 56
1, 83231, Note_on_c, 0, 44, 57
1, 83231, Note_on_c, 0, 52, 53
1, 83231, Note_off_c, 0, 60, 43
1, 83232, Note_on_c, 0, 56, 62
1, 83232, Note_on_c, 0, 60, 77
1, 83233, Note_on_c, 0, 84, 108
1, 83235, Note_off_c, 0, 41, 62
1, 83235, Note_off_c, 0, 53, 51
1, 83235, Note_off_c, 0, 57, 33
1, 83235, Note_off_c, 0, 64, 70
1, 83268, Note_off_c, 0, 84, 53
1, 83278, Note_on_c, 0, 86, 86
1, 83287, Note_off_c, 0, 86, 75
1, 83322, Note_on_c, 0, 86, 96
1, 83326, Note_off_c, 0, 60, 38
1, 83327, Note_off_c, 0, 52, 43
1, 83327, Note_on_c, 0, 60, 55
1, 83328, Note_on_c, 0, 45, 42
1, 83328, Note_on_c, 0, 52, 74
1, 83328, Note_on_c, 0, 55, 30
1, 83328, Note_on_c, 0, 59, 68
1, 83329, Note_on_c, 0, 88, 97
1, 83336, Note_off_c, 0, 44, 40
1, 83336, Note_off_c, 0, 56, 65
1, 83338, Note_off_c, 0, 86, 64
1, 83396, Note_off_c, 0, 88, 72
1, 83426, Note_on_c, 0, 84, 81
1, 83429, Note_on_c, 0, 86, 108
1, 83431, Note_off_c, 0, 84, 42
1, 83464, Note_off_c, 0, 86, 62
1, 83519, Note_off_c, 0, 45, 37
1, 83519, Note_off_c, 0, 52, 61
1, 83519, Note_off_c, 0, 55, 33
1, 83519, Note_off_c, 0, 59, 37
1, 83519, Note_off_c, 0, 60, 45
1, 83520, Note_on_c, 0, 45, 68
1, 83520, Note_on_c, 0, 52, 78
1, 83520, Note_on_c, 0, 55, 63
1, 83520, Note_on_c, 0, 59, 68
1, 83520, Note_on_c, 0, 60, 60
1, 83520, Note_on_c, 0, 81, 94
1, 83526, Note_on_c, 0, 84, 100
1, 83528, Note_off_c, 0, 81, 77
1, 83565, Note_off_c, 0, 84, 68
1, 83617, Note_off_c, 0, 45, 28
1, 83617, Note_off_c, 0, 52, 62
1, 83617, Note_off_c, 0, 55, 18
1, 83617, Note_off_c, 0, 59, 49
1, 83618, Note_on_c, 0, 45, 71
1, 83618, Note_on_c, 0, 52, 77
1, 83618, Note_on_c, 0, 55, 55
1, 83618, Note_on_c, 0, 59, 73
1, 83618, Note_on_c, 0, 62, 69
1, 83618, Note_on_c, 0, 79, 94
1, 83625, Note_on_c, 0, 81, 96
1, 83626, Note_off_c, 0, 79, 67
1, 83629, Note_off_c, 0, 60, 43
1, 83661, Note_off_c, 0, 81, 74
1, 83665, Note_on_c, 0, 64, 67
1, 83665, Note_on_c, 0, 79, 105
1, 83713, Note_on_c, 0, 41, 66
1, 83714, Note_on_c, 0, 48, 76
1, 83715, Note_on_c, 0, 57, 61
1, 83715, Note_on_c, 0, 60, 80
1, 83715, Note_off_c, 0, 64, 57
1, 83716, Note_on_c, 0, 53, 36
1, 83716, Note_on_c, 0, 64, 82
1, 83733, Note_off_c, 0, 45, 40
1, 83733, Note_off_c, 0, 52, 70
1, 83733, Note_off_c, 0, 55, 36
1, 83733, Note_off_c, 0, 59, 50
1, 83733, Note_off_c, 0, 62, 23
1, 83754, Note_off_c, 0, 79, 17
1, 83760, Note_on_c, 0, 76, 94
1, 83849, Note_off_c, 0, 76, 39
1, 83856, Note_on_c, 0, 72, 84
1, 83866, Note_off_c, 0, 72, 71
1, 83903, Note_on_c, 0, 44, 62
1, 83903, Note_off_c, 0, 60, 19
1, 83904, Note_on_c, 0, 52, 69
1, 83904, Note_on_c, 0, 56, 57
1, 83904, Note_on_c, 0, 60, 76
1, 83905, Note_on_c, 0, 74, 113
1, 83906, Note_off_c, 0, 41, 49
1, 83906, Note_off_c, 0, 48, 38
1, 83906, Note_off_c, 0, 53, 37
1, 83906, Note_off_c, 0, 57, 36
1, 83906, Note_off_c, 0, 64, 61
1, 83950, Note_off_c, 0, 74, 56
1, 83954, Note_on_c, 0, 76, 100
1, 83964, Note_off_c, 0, 76, 85
1, 83996, Note_off_c, 0, 44, 56
1, 83996, Note_off_c, 0, 52, 52
1, 83996, Note_off_c, 0, 56, 42
1, 83996, Note_off_c, 0, 60, 29
1, 83999, Note_on_c, 0, 44, 58
1, 84000, Note_on_c, 0, 56, 52
1, 84000, Note_on_c, 0, 60, 50
1, 84000, Note_on_c, 0, 67, 89
1, 84001, Note_on_c, 0, 52, 53
1, 84001, Note_on_c, 0, 76, 106
1, 84048, Note_off_c, 0, 76, 77
1, 84049, Note_on_c, 0, 79, 113
1, 84072, Note_off_c, 0, 79, 82
1, 84074, Note_on_c, 0, 76, 116
1, 84095, Note_on_c, 0, 45, 72
1, 84095, Note_off_c, 0, 52, 69
1, 84095, Note_off_c, 0, 60, 38
1, 84096, Note_on_c, 0, 52, 73
1, 84096, Note_on_c, 0, 55, 49
1, 84096, Note_on_c, 0, 59, 56
1, 84096, Note_on_c, 0, 60, 49
1, 84096, Note_on_c, 0, 64, 64
1, 84104, Note_off_c, 0, 44, 72
1, 84104, Note_off_c, 0, 56, 56
1, 84104, Note_off_c, 0, 67, 52
1, 84143, Note_off_c, 0, 76, 53
1, 84147, Note_on_c, 0, 74, 120
1, 84222, Note_off_c, 0, 74, 47
1, 84241, Note_on_c, 0, 72, 113
1, 84250, Note_off_c, 0, 72, 74
1, 84282, Note_off_c, 0, 45, 26
1, 84282, Note_off_c, 0, 52, 51
1, 84282, Note_off_c, 0, 55, 20
1, 84282, Note_off_c, 0, 59, 50
1, 84282, Note_off_c, 0, 60, 48
1, 84282, Note_off_c, 0, 64, 66
1, 84288, Note_on_c, 0, 45, 48
1, 84288, Note_on_c, 0, 52, 62
1, 84288, Note_on_c, 0, 55, 43
1, 84288, Note_on_c, 0, 59, 65
1, 84288, Note_on_c, 0, 60, 61
1, 84289, Note_on_c, 0, 64, 77
1, 84290, Note_on_c, 0, 74, 116
1, 84330, Note_off_c, 0, 74, 55
1, 84337, Note_on_c, 0, 76, 85
1, 84350, Note_off_c, 0, 76, 79
1, 84384, Note_on_c, 0, 36, 71
1, 84384, Note_off_c, 0, 45, 45
1, 84384, Note_on_c, 0, 48, 56
1, 84384, Note_off_c, 0, 52, 59
1, 84384, Note_off_c, 0, 55, 44
1, 84384, Note_on_c, 0, 55, 62
1, 84384, Note_on_c, 0, 58, 89
1, 84384, Note_on_c, 0, 62, 75
1, 84384, Note_on_c, 0, 72, 100
1, 84391, Note_on_c, 0, 74, 87
1, 84394, Note_off_c, 0, 72, 62
1, 84399, Note_off_c, 0, 59, 65
1, 84399, Note_off_c, 0, 60, 54
1, 84399, Note_off_c, 0, 64, 80
1, 84424, Note_off_c, 0, 74, 60
1, 84431, Note_on_c, 0, 72, 103
1, 84433, Note_on_c, 0, 64, 78
1, 84452, Note_off_c, 0, 72, 39
1, 84456, Note_on_c, 0, 69, 127
1, 84469, Note_off_c, 0, 36, 58
1, 84480, Note_on_c, 0, 40, 79
1, 84480, Note_off_c, 0, 48, 47
1, 84480, Note_on_c, 0, 52, 58
1, 84480, Note_on_c, 0, 53, 49
1, 84480, Note_off_c, 0, 55, 56
1, 84480, Note_on_c, 0, 57, 37
1, 84480, Note_off_c, 0, 58, 84
1, 84480, Note_on_c, 0, 60, 18
1, 84480, Note_off_c, 0, 62, 25
1, 84480, Note_off_c, 0, 64, 94
1, 84480, Note_on_c, 0, 64, 85
1, 84480, Note_off_c, 0, 69, 70
1, 84516, Note_off_c, 0, 60, 20
1, 84521, Note_off_c, 0, 53, 12
1, 84522, Note_off_c, 0, 57, 38
1, 84526, Note_off_c, 0, 52, 35
1, 84574, Note_off_c, 0, 64, 76
1, 84575, Note_on_c, 0, 52, 59
1, 84575, Note_on_c, 0, 53, 35
1, 84575, Note_on_c, 0, 57, 43
1, 84575, Note_on_c, 0, 60, 31
1, 84575, Note_on_c, 0, 64, 45
1, 84576, Note_on_c, 0, 65, 69
1, 84605, Note_off_c, 0, 60, 10
1, 84610, Note_off_c, 0, 64, 39
1, 84613, Note_off_c, 0, 53, 19
1, 84614, Note_off_c, 0, 65, 47
1, 84618, Note_off_c, 0, 52, 47
1, 84623, Note_off_c, 0, 57, 34
1, 84624, Note_on_c, 0, 69, 62
1, 84671, Note_on_c, 0, 52, 53
1, 84671, Note_on_c, 0, 57, 52
1, 84671, Note_on_c, 0, 64, 67
1, 84672, Note_on_c, 0, 53, 20
1, 84672, Note_off_c, 0, 69, 61
1, 84672, Note_on_c, 0, 71, 69
1, 84705, Note_off_c, 0, 53, 14
1, 84708, Note_off_c, 0, 64, 43
1, 84715, Note_off_c, 0, 52, 45
1, 84715, Note_off_c, 0, 57, 39
1, 84768, Note_on_c, 0, 52, 47
1, 84768, Note_on_c, 0, 53, 24
1, 84768, Note_on_c, 0, 57, 48
1, 84768, Note_on_c, 0, 60, 35
1, 84768, Note_on_c, 0, 64, 60
1, 84768, Note_on_c, 0, 72, 77
1, 84771, Note_off_c, 0, 71, 68
1, 84796, Note_off_c, 0, 60, 3
1, 84799, Note_off_c, 0, 53, 11
1, 84801, Note_off_c, 0, 64, 27
1, 84804, Note_off_c, 0, 52, 50
1, 84808, Note_off_c, 0, 57, 41
1, 84863, Note_off_c, 0, 40, 63
1, 84863, Note_on_c, 0, 41, 60
1, 84863, Note_on_c, 0, 53, 45
1, 84863, Note_on_c, 0, 57, 40
1, 84863, Note_on_c, 0, 59, 44
1, 84863, Note_on_c, 0, 60, 19
1, 84863, Note_on_c, 0, 64, 50
1, 84863, Note_on_c, 0, 76, 85
1, 84867, Note_off_c, 0, 72, 53
1, 84894, Note_off_c, 0, 60, 3
1, 84897, Note_off_c, 0, 53, 17
1, 84897, Note_off_c, 0, 64, 36
1, 84899, Note_off_c, 0, 59, 44
1, 84905, Note_off_c, 0, 57, 40
1, 84960, Note_on_c, 0, 53, 37
1, 84960, Note_on_c, 0, 57, 44
1, 84960, Note_on_c, 0, 59, 52
1, 84960, Note_on_c, 0, 60, 28
1, 84960, Note_on_c, 0, 64, 48
1, 84979, Note_off_c, 0, 60, 12
1, 84985, Note_off_c, 0, 59, 16
1, 84994, Note_off_c, 0, 53, 13
1, 84994, Note_off_c, 0, 64, 35
1, 84998, Note_off_c, 0, 57, 37
1, 85055, Note_off_c, 0, 76, 47
1, 85056, Note_on_c, 0, 53, 33
1, 85056, Note_on_c, 0, 57, 45
1, 85056, Note_on_c, 0, 59, 49
1, 85056, Note_on_c, 0, 60, 27
1, 85056, Note_on_c, 0, 64, 49
1, 85056, Note_on_c, 0, 71, 77
1, 85077, Note_off_c, 0, 59, 33
1, 85083, Note_off_c, 0, 60, 8
1, 85087, Note_off_c, 0, 53, 18
1, 85094, Note_off_c, 0, 57, 39
1, 85094, Note_off_c, 0, 64, 43
1, 85152, Note_on_c, 0, 53, 41
1, 85152, Note_on_c, 0, 57, 41
1, 85152, Note_on_c, 0, 59, 50
1, 85152, Note_on_c, 0, 60, 32
1, 85152, Note_on_c, 0, 64, 49
1, 85172, Note_off_c, 0, 60, 32
1, 85173, Note_off_c, 0, 59, 49
1, 85176, Note_off_c, 0, 64, 45
1, 85181, Note_off_c, 0, 53, 18
1, 85185, Note_off_c, 0, 57, 16
1, 85242, Note_off_c, 0, 71, 76
1, 85247, Note_off_c, 0, 41, 41
1, 85248, Note_on_c, 0, 40, 71
1, 85248, Note_on_c, 0, 52, 44
1, 85248, Note_on_c, 0, 53, 20
1, 85248, Note_on_c, 0, 57, 53
1, 85248, Note_on_c, 0, 60, 32
1, 85248, Note_on_c, 0, 64, 68
1, 85278, Note_off_c, 0, 60, 1
1, 85282, Note_off_c, 0, 52, 42
1, 85286, Note_off_c, 0, 53, 26
1, 85286, Note_off_c, 0, 57, 43
1, 85338, Note_off_c, 0, 64, 56
1, 85343, Note_on_c, 0, 52, 38
1, 85343, Note_on_c, 0, 53, 17
1, 85343, Note_on_c, 0, 57, 39
1, 85343, Note_on_c, 0, 60, 26
1, 85343, Note_on_c, 0, 64, 49
1, 85343, Note_on_c, 0, 65, 60
1, 85372, Note_off_c, 0, 60, 6
1, 85373, Note_off_c, 0, 52, 39
1, 85377, Note_off_c, 0, 53, 17
1, 85380, Note_off_c, 0, 64, 34
1, 85382, Note_off_c, 0, 57, 40
1, 85388, Note_off_c, 0, 65, 45
1, 85392, Note_on_c, 0, 69, 57
1, 85440, Note_on_c, 0, 52, 39
1, 85440, Note_on_c, 0, 53, 19
1, 85440, Note_on_c, 0, 57, 44
1, 85440, Note_on_c, 0, 60, 30
1, 85440, Note_on_c, 0, 64, 46
1, 85440, Note_on_c, 0, 71, 71
1, 85444, Note_off_c, 0, 69, 53
1, 85471, Note_off_c, 0, 60, 3
1, 85473, Note_off_c, 0, 52, 33
1, 85476, Note_off_c, 0, 64, 16
1, 85477, Note_off_c, 0, 53, 17
1, 85481, Note_off_c, 0, 57, 40
1, 85535, Note_on_c, 0, 52, 50
1, 85535, Note_on_c, 0, 53, 26
1, 85535, Note_on_c, 0, 57, 46
1, 85535, Note_on_c, 0, 60, 45
1, 85535, Note_on_c, 0, 64, 55
1, 85535, Note_off_c, 0, 71, 51
1, 85535, Note_on_c, 0, 72, 78
1, 85567, Note_off_c, 0, 60, 4
1, 85570, Note_off_c, 0, 53, 10
1, 85574, Note_off_c, 0, 64, 46
1, 85576, Note_off_c, 0, 52, 44
1, 85577, Note_off_c, 0, 57, 41
1, 85629, Note_off_c, 0, 72, 42
1, 85631, Note_off_c, 0, 40, 56
1, 85631, Note_on_c, 0, 41, 59
1, 85631, Note_on_c, 0, 53, 41
1, 85631, Note_on_c, 0, 57, 46
1, 85631, Note_on_c, 0, 59, 54
1, 85631, Note_on_c, 0, 60, 30
1, 85631, Note_on_c, 0, 64, 58
1, 85631, Note_on_c, 0, 76, 84
1, 85661, Note_off_c, 0, 60, 10
1, 85664, Note_off_c, 0, 59, 26
1, 85666, Note_off_c, 0, 53, 17
1, 85669, Note_off_c, 0, 57, 35
1, 85669, Note_off_c, 0, 64, 38
1, 85728, Note_on_c, 0, 53, 42
1, 85728, Note_on_c, 0, 57, 42
1, 85728, Note_on_c, 0, 59, 51
1, 85728, Note_on_c, 0, 60, 40
1, 85728, Note_on_c, 0, 64, 45
1, 85759, Note_off_c, 0, 60, 15
1, 85760, Note_off_c, 0, 59, 31
1, 85765, Note_off_c, 0, 64, 38
1, 85766, Note_off_c, 0, 53, 17
1, 85766, Note_off_c, 0, 57, 37
1, 85824, Note_on_c, 0, 53, 53
1, 85824, Note_on_c, 0, 57, 46
1, 85824, Note_on_c, 0, 59, 57
1, 85824, Note_on_c, 0, 60, 46
1, 85824, Note_on_c, 0, 64, 44
1, 85824, Note_on_c, 0, 71, 84
1, 85836, Note_off_c, 0, 76, 45
1, 85852, Note_off_c, 0, 53, 22
1, 85856, Note_off_c, 0, 59, 29
1, 85856, Note_off_c, 0, 60, 9
1, 85861, Note_off_c, 0, 57, 44
1, 85862, Note_off_c, 0, 64, 47
1, 85915, Note_off_c, 0, 71, 63
1, 85920, Note_on_c, 0, 57, 49
1, 85920, Note_on_c, 0, 59, 61
1, 85920, Note_on_c, 0, 60, 37
1, 85920, Note_on_c, 0, 64, 53
1, 85920, Note_on_c, 0, 69, 78
1, 85953, Note_off_c, 0, 59, 7
1, 85953, Note_off_c, 0, 60, 1
1, 85959, Note_off_c, 0, 57, 40
1, 85959, Note_off_c, 0, 64, 41
1, 86015, Note_off_c, 0, 41, 48
1, 86016, Note_on_c, 0, 33, 100
1, 86016, Note_on_c, 0, 48, 100
1, 86016, Note_on_c, 0, 57, 100
1, 86016, Note_off_c, 0, 69, 60
1, 86016, Note_on_c, 0, 72, 100
1, 86040, Note_off_c, 0, 57, 64
1, 86040, Note_off_c, 0, 72, 64
1, 86064, Note_off_c, 0, 33, 64
1, 86064, Note_off_c, 0, 48, 64
1, 86064, Note_on_c, 0, 60, 100
1, 86088, Note_off_c, 0, 60, 64
1, 86112, Note_on_c, 0, 36, 100
1, 86112, Note_on_c, 0, 64, 100
1, 86112, Note_on_c, 0, 71, 100
1, 86136, Note_off_c, 0, 64, 64
1, 86136, Note_off_c, 0, 71, 64
1, 86160, Note_off_c, 0, 36, 64
1, 86208, Note_on_c, 0, 40, 100
1, 86208, Note_on_c, 0, 47, 100
1, 86208, Note_on_c, 0, 76, 100
1, 86232, Note_off_c, 0, 76, 64
1, 86256, Note_off_c, 0, 40, 64
1, 86256, Note_off_c, 0, 47, 64
1, 86304, Note_on_c, 0, 77, 100
1, 86328, Note_off_c, 0, 77, 64
1, 86400, Note_on_c, 0, 40, 100
1, 86400, Note_on_c, 0, 52, 100
1, 86400, Note_on_c, 0, 64, 100
1, 86400, Note_on_c, 0, 76, 100
1, 86424, Note_off_c, 0, 64, 64
1, 86424, Note_off_c, 0, 76, 64
1, 86448, Note_off_c, 0, 40, 64
1, 86448, Note_off_c, 0, 52, 64
1, 86448, Note_on_c, 0, 57, 100
1, 86472, Note_off_c, 0, 57, 64
1, 86496, Note_on_c, 0, 33, 100
1, 86496, Note_on_c, 0, 60, 100
1, 86496, Note_on_c, 0, 74, 100
1, 86520, Note_off_c, 0, 60, 64
1, 86520, Note_off_c, 0, 74, 64
1, 86544, Note_off_c, 0, 33, 64
1, 86544, Note_on_c, 0, 64, 100
1, 86568, Note_off_c, 0, 64, 64
1, 86592, Note_on_c, 0, 36, 100
1, 86592, Note_on_c, 0, 50, 100
1, 86592, Note_on_c, 0, 59, 100
1, 86592, Note_on_c, 0, 71, 100
1, 86616, Note_off_c, 0, 59, 64
1, 86616, Note_off_c, 0, 71, 64
1, 86640, Note_off_c, 0, 36, 64
1, 86640, Note_off_c, 0, 50, 64
1, 86640, Note_on_c, 0, 62, 100
1, 86664, Note_off_c, 0, 62, 64
1, 86688, Note_on_c, 0, 40, 100
1, 86688, Note_on_c, 0, 65, 100
1, 86688, Note_on_c, 0, 72, 100
1, 86712, Note_off_c, 0, 65, 64
1, 86712, Note_off_c, 0, 72, 64
1, 86736, Note_off_c, 0, 40, 64
1, 86784, Note_on_c, 0, 33, 100
1, 86784, Note_on_c, 0, 48, 100
1, 86784, Note_on_c, 0, 57, 100
1, 86784, Note_on_c, 0, 72, 100
1, 86808, Note_off_c, 0, 57, 64
1, 86808, Note_off_c, 0, 72, 64
1, 86832, Note_off_c, 0, 33, 64
1, 86832, Note_off_c, 0, 48, 64
1, 86832, Note_on_c, 0, 60, 100
1, 86856, Note_off_c, 0, 60, 64
1, 86880, Note_on_c, 0, 36, 100
1, 86880, Note_on_c, 0, 64, 100
1, 86880, Note_on_c, 0, 71, 100
1, 86904, Note_off_c, 0, 64, 64
1, 86904, Note_off_c, 0, 71, 64
1, 86928, Note_off_c, 0, 36, 64
1, 86976, Note_on_c, 0, 40, 100
1, 86976, Note_on_c, 0, 47, 100
1, 86976, Note_on_c, 0, 76, 100
1, 87000, Note_off_c, 0, 76, 64
1, 87024, Note_off_c, 0, 40, 64
1, 87024, Note_off_c, 0, 47, 64
1, 87072, Note_on_c, 0, 77, 100
1, 87096, Note_off_c, 0, 77, 64
1, 87168, Note_on_c, 0, 40, 100
1, 87168, Note_on_c, 0, 52, 100
1, 87168, Note_on_c, 0, 64, 100
1, 87168, Note_on_c, 0, 76, 100
1, 87192, Note_off_c, 0, 64, 64
1, 87192, Note_off_c, 0, 76, 64
1, 87216, Note_off_c, 0, 40, 64
1, 87216, Note_off_c, 0, 52, 64
1, 87216, Note_on_c, 0, 57, 100
1, 87240, Note_off_c, 0, 57, 64
1, 87264, Note_on_c, 0, 33, 100
1, 87264, Note_on_c, 0, 60, 100
1, 87264, Note_on_c, 0, 74, 100
1, 87288, Note_off_c, 0, 60, 64
1, 87288, Note_off_c, 0, 74, 64
1, 87312, Note_off_c, 0, 33, 64
1, 87312, Note_on_c, 0, 64, 100
1, 87336, Note_off_c, 0, 64, 64
1, 87360, Note_on_c, 0, 36, 100
1, 87360, Note_on_c, 0, 50, 100
1, 87360, Note_on_c, 0, 59, 100
1, 87360, Note_on_c, 0, 71, 100
1, 87384, Note_off_c, 0, 59, 64
1, 87384, Note_off_c, 0, 71, 64
1, 87408, Note_off_c, 0, 36, 64
1, 87408, Note_off_c, 0, 50, 64
1, 87408, Note_on_c, 0, 62, 100
1, 87432, Note_off_c, 0, 62, 64
1, 87456, Note_on_c, 0, 40, 100
1, 87456, Note_on_c, 0, 65, 100
1, 87456, Note_on_c, 0, 72, 100
1, 87480, Note_off_c, 0, 65, 64
1, 87480, Note_off_c, 0, 72, 64
1, 87504, Note_off_c, 0, 40, 64
1, 87552, Note_on_c, 0, 57, 72
1, 87552, Note_on_c, 0, 64, 72
1, 87552, Note_on_c, 0, 69, 72
1, 87552, Note_on_c, 0, 76, 72
1, 87600, Note_off_c, 0, 69, 64
1, 87600, Note_off_c, 0, 76, 64
1, 87648, Note_off_c, 0, 57, 64
1, 87648, Note_off_c, 0, 64, 64
1, 87648, Note_on_c, 0, 72, 72
1, 87696, Note_off_c, 0, 72, 64
1, 87744, Note_on_c, 0, 60, 72
1, 87840, Note_off_c, 0, 60, 64
1, 87936, Note_on_c, 0, 57, 72
1, 87936, Note_on_c, 0, 64, 72
1, 87936, Note_on_c, 0, 69, 72
1, 87936, Note_on_c, 0, 76, 72
1, 87984, Note_off_c, 0, 69, 64
1, 87984, Note_off_c, 0, 76, 64
1, 88032, Note_off_c, 0, 57, 64
1, 88032, Note_off_c, 0, 64, 64
1, 88032, Note_on_c, 0, 72, 72
1, 88080, Note_off_c, 0, 72, 64
1, 88128, Note_on_c, 0, 60, 72
1, 88128, Note_on_c, 0, 74, 72
1, 88176, Note_off_c, 0, 74, 64
1, 88224, Note_off_c, 0, 60, 64
1, 88224, Note_on_c, 0, 77, 72
1, 88272, Note_off_c, 0, 77, 64
1, 88320, Note_on_c, 0, 57, 72
1, 88320, Note_on_c, 0, 64, 72
1, 88320, Note_on_c, 0, 69, 72
1, 88320, Note_on_c, 0, 76, 72
1, 88368, Note_off_c, 0, 69, 64
1, 88368, Note_off_c, 0, 76, 64
1, 88416, Note_off_c, 0, 57, 64
1, 88416, Note_off_c, 0, 64, 64
1, 88416, Note_on_c, 0, 72, 72
1, 88464, Note_off_c, 0, 72, 64
1, 88512, Note_on_c, 0, 60, 72
1, 88608, Note_off_c, 0, 60, 64
1, 88704, Note_on_c, 0, 57, 72
1, 88704, Note_on_c, 0, 64, 72
1, 88704, Note_on_c, 0, 69, 72
1, 88704, Note_on_c, 0, 76, 72
1, 88752, Note_off_c, 0, 69, 64
1, 88752, Note_off_c, 0, 76, 64
1, 88800, Note_off_c, 0, 57, 64
1, 88800, Note_off_c, 0, 64, 64
1, 88800, Note_on_c, 0, 72, 72
1, 88848, Note_off_c, 0, 72, 64
1, 88896, Note_on_c, 0, 60, 72
1, 88896, Note_on_c, 0, 74, 72
1, 88944, Note_off_c, 0, 74, 64
1, 88992, Note_off_c, 0, 60, 64
1, 88992, Note_on_c, 0, 77, 72
1, 89040, Note_off_c, 0, 77, 64
1, 89088, Note_on_c, 0, 57, 100
1, 89088, Note_on_c, 0, 60, 100
1, 89088, Note_on_c, 0, 64, 100
1, 89088, Note_on_c, 0, 76, 100
1, 89160, Note_off_c, 0, 76, 64
1, 89184, Note_on_c, 0, 59, 100
1, 89184, Note_on_c, 0, 71, 100
1, 89256, Note_off_c, 0, 71, 64
1, 89280, Note_on_c, 0, 71, 100
1, 89352, Note_off_c, 0, 64, 64
1, 89352, Note_off_c, 0, 71, 64
1, 89376, Note_off_c, 0, 59, 64
1, 89376, Note_on_c, 0, 64, 100
1, 89376, Note_on_c, 0, 72, 100
1, 89448, Note_off_c, 0, 57, 64
1, 89448, Note_off_c, 0, 60, 64
1, 89448, Note_off_c, 0, 72, 64
1, 89472, Note_on_c, 0, 57, 100
1, 89472, Note_on_c, 0, 60, 100
1, 89472, Note_off_c, 0, 64, 64
1, 89472, Note_on_c, 0, 74, 100
1, 89544, Note_off_c, 0, 74, 64
1, 89568, Note_on_c, 0, 59, 100
1, 89568, Note_on_c, 0, 72, 100
1, 89640, Note_off_c, 0, 72, 64
1, 89664, Note_on_c, 0, 72, 100
1, 89736, Note_off_c, 0, 72, 64
1, 89760, Note_on_c, 0, 69, 100
1, 89832, Note_off_c, 0, 57, 64
1, 89832, Note_off_c, 0, 59, 64
1, 89832, Note_off_c, 0, 60, 64
1, 89832, Note_off_c, 0, 69, 64
1, 89856, Note_on_c, 0, 57, 100
1, 89856, Note_on_c, 0, 60, 100
1, 89856, Note_on_c, 0, 64, 100
1, 89856, Note_on_c, 0, 77, 100
1, 89928, Note_off_c, 0, 77, 64
1, 89952, Note_on_c, 0, 59, 100
1, 89952, Note_on_c, 0, 71, 100
1, 90024, Note_off_c, 0, 71, 64
1, 90048, Note_on_c, 0, 71, 100
1, 90120, Note_off_c, 0, 64, 64
1, 90120, Note_off_c, 0, 71, 64
1, 90144, Note_off_c, 0, 59, 64
1, 90144, Note_on_c, 0, 64, 100
1, 90144, Note_on_c, 0, 72, 100
1, 90216, Note_off_c, 0, 57, 64
1, 90216, Note_off_c, 0, 60, 64
1, 90216, Note_off_c, 0, 72, 64
1, 90240, Note_on_c, 0, 57, 100
1, 90240, Note_on_c, 0, 60, 100
1, 90240, Note_off_c, 0, 64, 64
1, 90240, Note_on_c, 0, 74, 100
1, 90312, Note_off_c, 0, 74, 64
1, 90336, Note_on_c, 0, 59, 100
1, 90336, Note_on_c, 0, 74, 100
1, 90408, Note_off_c, 0, 74, 64
1, 90432, Note_on_c, 0, 77, 100
1, 90504, Note_off_c, 0, 77, 64
1, 90528, Note_on_c, 0, 72, 100
1, 90600, Note_off_c, 0, 57, 64
1, 90600, Note_off_c, 0, 59, 64
1, 90600, Note_off_c, 0, 60, 64
1, 90600, Note_off_c, 0, 72, 64
1, 90624, Note_on_c, 0, 45, 102
1, 90630, Note_on_c, 0, 60, 95
1, 90720, Note_on_c, 0, 59, 99
1, 90815, Note_off_c, 0, 59, 64
1, 90816, Note_on_c, 0, 59, 94
1, 90912, Note_off_c, 0, 45, 64
1, 90912, Note_on_c, 0, 48, 99
1, 90912, Note_off_c, 0, 59, 64
1, 90912, Note_off_c, 0, 60, 64
1, 90913, Note_on_c, 0, 64, 97
1, 91008, Note_on_c, 0, 45, 103
1, 91008, Note_off_c, 0, 48, 64
1, 91008, Note_off_c, 0, 64, 64
1, 91009, Note_on_c, 0, 60, 105
1, 91104, Note_on_c, 0, 59, 97
1, 91199, Note_off_c, 0, 59, 64
1, 91200, Note_on_c, 0, 59, 107
1, 91296, Note_off_c, 0, 45, 64
1, 91296, Note_on_c, 0, 48, 97
1, 91296, Note_off_c, 0, 59, 64
1, 91296, Note_off_c, 0, 60, 64
1, 91297, Note_on_c, 0, 64, 97
1, 91392, Note_on_c, 0, 45, 106
1, 91392, Note_off_c, 0, 48, 64
1, 91392, Note_off_c, 0, 64, 64
1, 91398, Note_on_c, 0, 60, 100
1, 91488, Note_on_c, 0, 59, 99
1, 91583, Note_off_c, 0, 59, 64
1, 91584, Note_on_c, 0, 59, 94
1, 91680, Note_on_c, 0, 41, 107
1, 91680, Note_off_c, 0, 45, 64
1, 91680, Note_off_c, 0, 59, 64
1, 91680, Note_off_c, 0, 60, 64
1, 91681, Note_on_c, 0, 57, 96
1, 91776, Note_off_c, 0, 41, 64
1, 91776, Note_on_c, 0, 45, 101
1, 91776, Note_off_c, 0, 57, 64
1, 91777, Note_on_c, 0, 60, 97
1, 91872, Note_on_c, 0, 59, 100
1, 91967, Note_off_c, 0, 59, 64
1, 91968, Note_on_c, 0, 59, 102
1, 92064, Note_off_c, 0, 45, 64
1, 92064, Note_on_c, 0, 47, 102
1, 92064, Note_off_c, 0, 59, 64
1, 92064, Note_off_c, 0, 60, 64
1, 92065, Note_on_c, 0, 62, 102
1, 92160, Note_on_c, 0, 33, 100
1, 92160, Note_on_c, 0, 45, 100
1, 92160, Note_off_c, 0, 47, 64
1, 92160, Note_on_c, 0, 59, 100
1, 92160, Note_off_c, 0, 62, 64
1, 92160, Note_on_c, 0, 71, 100
1, 92256, Note_off_c, 0, 45, 64
1, 92256, Note_on_c, 0, 52, 100
1, 92256, Note_off_c, 0, 71, 64
1, 92352, Note_off_c, 0, 33, 64
1, 92352, Note_on_c, 0, 40, 100
1, 92352, Note_off_c, 0, 52, 64
1, 92352, Note_off_c, 0, 59, 64
1, 92352, Note_on_c, 0, 72, 100
1, 92448, Note_off_c, 0, 72, 64
1, 92448, Note_on_c, 0, 77, 100
1, 92544, Note_off_c, 0, 40, 64
1, 92544, Note_on_c, 0, 64, 100
1, 92544, Note_on_c, 0, 76, 100
1, 92544, Note_off_c, 0, 77, 64
1, 92640, Note_on_c, 0, 52, 100
1, 92640, Note_off_c, 0, 76, 64
1, 92736, Note_on_c, 0, 40, 100
1, 92736, Note_off_c, 0, 52, 64
1, 92736, Note_off_c, 0, 64, 64
1, 92736, Note_on_c, 0, 72, 100
1, 92832, Note_off_c, 0, 72, 64
1, 92832, Note_on_c, 0, 77, 100
1, 92928, Note_on_c, 0, 33, 100
1, 92928, Note_off_c, 0, 40, 64
1, 92928, Note_on_c, 0, 45, 100
1, 92928, Note_on_c, 0, 59, 100
1, 92928, Note_on_c, 0, 71, 100
1, 92928, Note_off_c, 0, 77, 64
1, 93024, Note_off_c, 0, 45, 64
1, 93024, Note_on_c, 0, 52, 100
1, 93024, Note_off_c, 0, 71, 64
1, 93120, Note_off_c, 0, 33, 64
1, 93120, Note_on_c, 0, 40, 100
1, 93120, Note_off_c, 0, 52, 64
1, 93120, Note_off_c, 0, 59, 64
1, 93120, Note_on_c, 0, 72, 100
1, 93216, Note_off_c, 0, 72, 64
1, 93216, Note_on_c, 0, 77, 100
1, 93312, Note_off_c, 0, 40, 64
1, 93312, Note_on_c, 0, 64, 100
1, 93312, Note_on_c, 0, 76, 100
1, 93312, Note_off_c, 0, 77, 64
1, 93408, Note_on_c, 0, 52, 100
1, 93408, Note_off_c, 0, 76, 64
1, 93504, Note_on_c, 0, 40, 100
1, 93504, Note_off_c, 0, 52, 64
1, 93504, Note_off_c, 0, 64, 64
1, 93504, Note_on_c, 0, 72, 100
1, 93600, Note_off_c, 0, 72, 64
1, 93600, Note_on_c, 0, 77, 100
1, 93696, Note_off_c, 0, 40, 64
1, 93696, Note_on_c, 0, 52, 54
1, 93696, Note_on_c, 0, 57, 37
1, 93696, Note_off_c, 0, 77, 64
1, 93701, Note_on_c, 0, 69, 54
1, 93744, Note_on_c, 0, 60, 37
1, 93749, Note_on_c, 0, 72, 54
1, 93786, Note_off_c, 0, 52, 64
1, 93791, Note_off_c, 0, 57, 64
1, 93792, Note_on_c, 0, 57, 37
1, 93792, Note_off_c, 0, 60, 64
1, 93792, Note_off_c, 0, 69, 64
1, 93840, Note_on_c, 0, 65, 54
1, 93887, Note_off_c, 0, 57, 64
1, 93888, Note_on_c, 0, 57, 37
1, 93888, Note_on_c, 0, 64, 41
1, 93888, Note_off_c, 0, 72, 64
1, 93930, Note_off_c, 0, 65, 64
1, 93936, Note_on_c, 0, 60, 37
1, 93936, Note_on_c, 0, 69, 37
1, 93983, Note_off_c, 0, 57, 64
1, 93984, Note_on_c, 0, 57, 37
1, 93984, Note_off_c, 0, 60, 64
1, 93984, Note_off_c, 0, 69, 64
1, 93984, Note_on_c, 0, 71, 44
1, 93992, Note_on_c, 0, 72, 44
1, 93995, Note_off_c, 0, 71, 64
1, 94032, Note_off_c, 0, 64, 64
1, 94032, Note_on_c, 0, 71, 37
1, 94032, Note_off_c, 0, 72, 64
1, 94075, Note_off_c, 0, 57, 64
1, 94080, Note_on_c, 0, 53, 54
1, 94080, Note_on_c, 0, 57, 37
1, 94080, Note_off_c, 0, 71, 64
1, 94085, Note_on_c, 0, 71, 54
1, 94128, Note_on_c, 0, 60, 37
1, 94133, Note_on_c, 0, 74, 54
1, 94170, Note_off_c, 0, 53, 64
1, 94175, Note_off_c, 0, 57, 64
1, 94176, Note_on_c, 0, 57, 37
1, 94176, Note_off_c, 0, 60, 64
1, 94176, Note_off_c, 0, 71, 64
1, 94224, Note_on_c, 0, 65, 54
1, 94271, Note_off_c, 0, 57, 64
1, 94272, Note_on_c, 0, 57, 37
1, 94272, Note_on_c, 0, 64, 41
1, 94272, Note_off_c, 0, 74, 64
1, 94314, Note_off_c, 0, 65, 64
1, 94320, Note_on_c, 0, 60, 37
1, 94367, Note_off_c, 0, 57, 64
1, 94368, Note_on_c, 0, 57, 37
1, 94368, Note_off_c, 0, 60, 64
1, 94368, Note_on_c, 0, 69, 44
1, 94416, Note_off_c, 0, 64, 64
1, 94416, Note_off_c, 0, 69, 64
1, 94416, Note_on_c, 0, 71, 37
1, 94463, Note_off_c, 0, 57, 64
1, 94464, Note_on_c, 0, 52, 54
1, 94464, Note_on_c, 0, 57, 37
1, 94464, Note_off_c, 0, 71, 64
1, 94469, Note_on_c, 0, 69, 54
1, 94512, Note_on_c, 0, 60, 37
1, 94517, Note_on_c, 0, 72, 54
1, 94554, Note_off_c, 0, 52, 64
1, 94559, Note_off_c, 0, 57, 64
1, 94560, Note_on_c, 0, 57, 37
1, 94560, Note_off_c, 0, 60, 64
1, 94560, Note_off_c, 0, 69, 64
1, 94608, Note_on_c, 0, 65, 54
1, 94655, Note_off_c, 0, 57, 64
1, 94656, Note_on_c, 0, 57, 37
1, 94656, Note_on_c, 0, 64, 41
1, 94656, Note_off_c, 0, 72, 64
1, 94698, Note_off_c, 0, 65, 64
1, 94704, Note_on_c, 0, 60, 37
1, 94704, Note_on_c, 0, 69, 37
1, 94751, Note_off_c, 0, 57, 64
1, 94752, Note_on_c, 0, 57, 37
1, 94752, Note_off_c, 0, 60, 64
1, 94752, Note_off_c, 0, 69, 64
1, 94752, Note_on_c, 0, 71, 44
1, 94760, Note_on_c, 0, 72, 44
1, 94763, Note_off_c, 0, 71, 64
1, 94800, Note_off_c, 0, 64, 64
1, 94800, Note_on_c, 0, 71, 37
1, 94800, Note_off_c, 0, 72, 64
1, 94843, Note_off_c, 0, 57, 64
1, 94848, Note_on_c, 0, 53, 54
1, 94848, Note_on_c, 0, 57, 37
1, 94848, Note_off_c, 0, 71, 64
1, 94853, Note_on_c, 0, 71, 54
1, 94896, Note_on_c, 0, 60, 37
1, 94901, Note_on_c, 0, 74, 54
1, 94938, Note_off_c, 0, 53, 64
1, 94943, Note_off_c, 0, 57, 64
1, 94944, Note_on_c, 0, 57, 37
1, 94944, Note_off_c, 0, 60, 64
1, 94944, Note_off_c, 0, 71, 64
1, 94992, Note_on_c, 0, 65, 54
1, 95039, Note_off_c, 0, 57, 64
1, 95040, Note_on_c, 0, 57, 37
1, 95040, Note_on_c, 0, 64, 41
1, 95040, Note_off_c, 0, 74, 64
1, 95082, Note_off_c, 0, 65, 64
1, 95088, Note_on_c, 0, 60, 37
1, 95135, Note_off_c, 0, 57, 64
1, 95136, Note_on_c, 0, 57, 37
1, 95136, Note_off_c, 0, 60, 64
1, 95136, Note_on_c, 0, 69, 44
1, 95184, Note_off_c, 0, 64, 64
1, 95184, Note_off_c, 0, 69, 64
1, 95184, Note_on_c, 0, 71, 37
1, 95232, Note_on_c, 0, 40, 54
1, 95232, Note_on_c, 0, 45, 37
1, 95232, Note_off_c, 0, 57, 64
1, 95232, Note_off_c, 0, 71, 64
1, 95237, Note_on_c, 0, 57, 54
1, 95280, Note_on_c, 0, 48, 37
1, 95285, Note_on_c, 0, 60, 54
1, 95322, Note_off_c, 0, 40, 64
1, 95327, Note_off_c, 0, 45, 64
1, 95328, Note_on_c, 0, 45, 37
1, 95328, Note_off_c, 0, 48, 64
1, 95328, Note_off_c, 0, 57, 64
1, 95376, Note_on_c, 0, 53, 54
1, 95423, Note_off_c, 0, 45, 64
1, 95424, Note_on_c, 0, 45, 37
1, 95424, Note_on_c, 0, 52, 41
1, 95424, Note_off_c, 0, 60, 64
1, 95424, Note_on_c, 0, 76, 89
1, 95466, Note_off_c, 0, 53, 64
1, 95472, Note_on_c, 0, 48, 37
1, 95472, Note_on_c, 0, 57, 37
1, 95472, Note_off_c, 0, 76, 64
1, 95519, Note_off_c, 0, 45, 64
1, 95520, Note_on_c, 0, 45, 37
1, 95520, Note_off_c, 0, 48, 64
1, 95520, Note_off_c, 0, 57, 64
1, 95520, Note_on_c, 0, 59, 44
1, 95520, Note_on_c, 0, 77, 58
1, 95528, Note_on_c, 0, 60, 44
1, 95531, Note_off_c, 0, 59, 64
1, 95552, Note_off_c, 0, 77, 64
1, 95554, Note_on_c, 0, 77, 62
1, 95568, Note_off_c, 0, 52, 64
1, 95568, Note_on_c, 0, 59, 37
1, 95568, Note_off_c, 0, 60, 64
1, 95584, Note_on_c, 0, 76, 74
1, 95584, Note_off_c, 0, 77, 64
1, 95611, Note_off_c, 0, 45, 64
1, 95616, Note_on_c, 0, 41, 54
1, 95616, Note_on_c, 0, 45, 37
1, 95616, Note_off_c, 0, 59, 64
1, 95621, Note_on_c, 0, 59, 54
1, 95630, Note_off_c, 0, 76, 64
1, 95664, Note_on_c, 0, 48, 37
1, 95669, Note_on_c, 0, 62, 54
1, 95706, Note_off_c, 0, 41, 64
1, 95711, Note_off_c, 0, 45, 64
1, 95712, Note_on_c, 0, 45, 37
1, 95712, Note_off_c, 0, 48, 64
1, 95712, Note_off_c, 0, 59, 64
1, 95712, Note_on_c, 0, 76, 89
1, 95760, Note_on_c, 0, 53, 54
1, 95760, Note_off_c, 0, 76, 64
1, 95807, Note_off_c, 0, 45, 64
1, 95808, Note_on_c, 0, 45, 37
1, 95808, Note_on_c, 0, 52, 41
1, 95808, Note_off_c, 0, 62, 64
1, 95850, Note_off_c, 0, 53, 64
1, 95856, Note_on_c, 0, 48, 37
1, 95903, Note_off_c, 0, 45, 64
1, 95904, Note_on_c, 0, 45, 37
1, 95904, Note_off_c, 0, 48, 64
1, 95904, Note_on_c, 0, 57, 44
1, 95904, Note_on_c, 0, 74, 82
1, 95952, Note_off_c, 0, 52, 64
1, 95952, Note_off_c, 0, 57, 64
1, 95952, Note_on_c, 0, 59, 37
1, 95952, Note_off_c, 0, 74, 64
1, 95999, Note_off_c, 0, 45, 64
1, 96000, Note_on_c, 0, 40, 54
1, 96000, Note_on_c, 0, 45, 37
1, 96000, Note_off_c, 0, 59, 64
1, 96005, Note_on_c, 0, 57, 54
1, 96048, Note_on_c, 0, 48, 37
1, 96053, Note_on_c, 0, 60, 54
1, 96090, Note_off_c, 0, 40, 64
1, 96095, Note_off_c, 0, 45, 64
1, 96096, Note_on_c, 0, 45, 37
1, 96096, Note_off_c, 0, 48, 64
1, 96096, Note_off_c, 0, 57, 64
1, 96144, Note_on_c, 0, 53, 54
1, 96191, Note_off_c, 0, 45, 64
1, 96192, Note_on_c, 0, 45, 37
1, 96192, Note_on_c, 0, 52, 41
1, 96192, Note_off_c, 0, 60, 64
1, 96192, Note_on_c, 0, 74, 82
1, 96234, Note_off_c, 0, 53, 64
1, 96240, Note_on_c, 0, 48, 37
1, 96240, Note_on_c, 0, 57, 37
1, 96240, Note_off_c, 0, 74, 64
1, 96287, Note_off_c, 0, 45, 64
1, 96288, Note_on_c, 0, 45, 37
1, 96288, Note_off_c, 0, 48, 64
1, 96288, Note_off_c, 0, 57, 64
1, 96288, Note_on_c, 0, 59, 44
1, 96288, Note_on_c, 0, 77, 58
1, 96296, Note_on_c, 0, 60, 44
1, 96299, Note_off_c, 0, 59, 64
1, 96320, Note_off_c, 0, 77, 64
1, 96322, Note_on_c, 0, 77, 62
1, 96336, Note_off_c, 0, 52, 64
1, 96336, Note_on_c, 0, 59, 37
1, 96336, Note_off_c, 0, 60, 64
1, 96352, Note_on_c, 0, 76, 74
1, 96352, Note_off_c, 0, 77, 64
1, 96379, Note_off_c, 0, 45, 64
1, 96384, Note_on_c, 0, 41, 54
1, 96384, Note_on_c, 0, 45, 37
1, 96384, Note_off_c, 0, 59, 64
1, 96389, Note_on_c, 0, 59, 54
1, 96398, Note_off_c, 0, 76, 64
1, 96432, Note_on_c, 0, 48, 37
1, 96437, Note_on_c, 0, 62, 54
1, 96474, Note_off_c, 0, 41, 64
1, 96479, Note_off_c, 0, 45, 64
1, 96480, Note_on_c, 0, 45, 37
1, 96480, Note_off_c, 0, 48, 64
1, 96480, Note_off_c, 0, 59, 64
1, 96480, Note_on_c, 0, 76, 89
1, 96528, Note_on_c, 0, 53, 54
1, 96528, Note_off_c, 0, 76, 64
1, 96575, Note_off_c, 0, 45, 64
1, 96576, Note_on_c, 0, 45, 37
1, 96576, Note_on_c, 0, 52, 41
1, 96576, Note_off_c, 0, 62, 64
1, 96576, Note_on_c, 0, 74, 82
1, 96618, Note_off_c, 0, 53, 64
1, 96624, Note_on_c, 0, 48, 37
1, 96624, Note_off_c, 0, 74, 64
1, 96671, Note_off_c, 0, 45, 64
1, 96672, Note_on_c, 0, 45, 37
1, 96672, Note_off_c, 0, 48, 64
1, 96672, Note_on_c, 0, 57, 44
1, 96672, Note_on_c, 0, 69, 82
1, 96720, Note_off_c, 0, 52, 64
1, 96720, Note_off_c, 0, 57, 64
1, 96720, Note_on_c, 0, 59, 37
1, 96720, Note_off_c, 0, 69, 64
1, 96768, Note_on_c, 0, 33, 120
1, 96768, Note_off_c, 0, 45, 64
1, 96768, Note_on_c, 0, 45, 120
1, 96768, Note_off_c, 0, 59, 64
1, 96816, Note_on_c, 0, 48, 120
1, 96864, Note_off_c, 0, 45, 64
1, 96864, Note_on_c, 0, 52, 120
1, 96912, Note_off_c, 0, 48, 64
1, 96912, Note_on_c, 0, 60, 120
1, 96959, Note_off_c, 0, 60, 64
1, 96960, Note_off_c, 0, 52, 64
1, 96960, Note_on_c, 0, 60, 120
1, 97008, Note_on_c, 0, 59, 120
1, 97008, Note_off_c, 0, 60, 64
1, 97152, Note_off_c, 0, 33, 64
1, 97152, Note_on_c, 0, 50, 120
1, 97152, Note_off_c, 0, 59, 64
1, 97200, Note_on_c, 0, 53, 120
1, 97248, Note_on_c, 0, 38, 120
1, 97248, Note_off_c, 0, 50, 64
1, 97249, Note_on_c, 0, 57, 120
1, 97296, Note_off_c, 0, 53, 64
1, 97296, Note_on_c, 0, 65, 120
1, 97343, Note_off_c, 0, 65, 64
1, 97344, Note_on_c, 0, 65, 120
1, 97345, Note_off_c, 0, 57, 64
1, 97392, Note_on_c, 0, 64, 120
1, 97392, Note_off_c, 0, 65, 64
1, 97536, Note_on_c, 0, 33, 120
1, 97536, Note_off_c, 0, 38, 64
1, 97536, Note_on_c, 0, 45, 120
1, 97536, Note_off_c, 0, 64, 64
1, 97584, Note_on_c, 0, 48, 120
1, 97632, Note_off_c, 0, 45, 64
1, 97632, Note_on_c, 0, 52, 120
1, 97680, Note_off_c, 0, 48, 64
1, 97680, Note_on_c, 0, 60, 120
1, 97727, Note_off_c, 0, 60, 64
1, 97728, Note_off_c, 0, 52, 64
1, 97728, Note_on_c, 0, 60, 120
1, 97776, Note_on_c, 0, 59, 120
1, 97776, Note_off_c, 0, 60, 64
1, 97920, Note_off_c, 0, 33, 64
1, 97920, Note_on_c, 0, 50, 120
1, 97920, Note_off_c, 0, 59, 64
1, 97968, Note_on_c, 0, 53, 120
1, 98016, Note_on_c, 0, 38, 120
1, 98016, Note_off_c, 0, 50, 64
1, 98017, Note_on_c, 0, 57, 120
1, 98064, Note_off_c, 0, 53, 64
1, 98064, Note_on_c, 0, 62, 120
1, 98111, Note_off_c, 0, 62, 64
1, 98112, Note_on_c, 0, 62, 120
1, 98113, Note_off_c, 0, 57, 64
1, 98160, Note_off_c, 0, 62, 64
1, 98160, Note_on_c, 0, 64, 120
1, 98304, Note_on_c, 0, 33, 94
1, 98304, Note_off_c, 0, 38, 64
1, 98304, Note_on_c, 0, 45, 94
1, 98304, Note_off_c, 0, 64, 64
1, 98304, Note_on_c, 0, 64, 94
1, 98400, Note_on_c, 0, 57, 94
1, 98496, Note_on_c, 0, 60, 94
1, 98586, Note_off_c, 0, 57, 64
1, 98586, Note_off_c, 0, 60, 64
1, 98592, Note_on_c, 0, 57, 94
1, 98688, Note_on_c, 0, 62, 94
1, 98688, Note_off_c, 0, 64, 64
1, 98779, Note_off_c, 0, 57, 64
1, 98784, Note_on_c, 0, 57, 94
1, 98880, Note_on_c, 0, 65, 94
1, 98975, Note_off_c, 0, 57, 64
1, 98976, Note_on_c, 0, 57, 94
1, 99072, Note_off_c, 0, 62, 64
1, 99072, Note_on_c, 0, 64, 94
1, 99072, Note_off_c, 0, 65, 64
1, 99162, Note_off_c, 0, 57, 64
1, 99168, Note_on_c, 0, 57, 94
1, 99264, Note_on_c, 0, 60, 94
1, 99353, Note_off_c, 0, 64, 64
1, 99356, Note_off_c, 0, 57, 64
1, 99360, Note_on_c, 0, 52, 96
1, 99360, Note_on_c, 0, 57, 94
1, 99449, Note_off_c, 0, 60, 64
1, 99456, Note_on_c, 0, 64, 94
1, 99551, Note_off_c, 0, 57, 64
1, 99552, Note_on_c, 0, 57, 94
1, 99642, Note_off_c, 0, 64, 64
1, 99648, Note_on_c, 0, 65, 94
1, 99741, Note_off_c, 0, 57, 64
1, 99744, Note_on_c, 0, 57, 94
1, 99837, Note_off_c, 0, 33, 64
1, 99837, Note_off_c, 0, 65, 64
1, 99840, Note_on_c, 0, 38, 94
1, 99840, Note_off_c, 0, 45, 64
1, 99840, Note_on_c, 0, 50, 94
1, 99840, Note_off_c, 0, 52, 64
1, 99840, Note_on_c, 0, 60, 94
1, 99840, Note_on_c, 0, 62, 94
1, 99840, Note_on_c, 0, 64, 94
1, 99932, Note_off_c, 0, 57, 64
1, 99936, Note_on_c, 0, 57, 94
1, 100031, Note_off_c, 0, 60, 64
1, 100032, Note_on_c, 0, 60, 96
1, 100122, Note_off_c, 0, 57, 64
1, 100128, Note_on_c, 0, 57, 94
1, 100128, Note_off_c, 0, 60, 64
1, 100219, Note_off_c, 0, 64, 64
1, 100223, Note_off_c, 0, 62, 64
1, 100224, Note_on_c, 0, 62, 94
1, 100319, Note_off_c, 0, 57, 64
1, 100320, Note_on_c, 0, 57, 94
1, 100416, Note_on_c, 0, 65, 94
1, 100508, Note_off_c, 0, 57, 64
1, 100512, Note_on_c, 0, 57, 94
1, 100602, Note_off_c, 0, 38, 64
1, 100604, Note_off_c, 0, 62, 64
1, 100605, Note_off_c, 0, 50, 64
1, 100605, Note_off_c, 0, 65, 64
1, 100608, Note_on_c, 0, 41, 94
1, 100608, Note_on_c, 0, 53, 94
1, 100608, Note_on_c, 0, 64, 94
1, 100699, Note_off_c, 0, 57, 64
1, 100704, Note_on_c, 0, 57, 94
1, 100758, Note_off_c, 0, 64, 64
1, 100800, Note_on_c, 0, 60, 94
1, 100800, Note_on_c, 0, 64, 94
1, 100800, Note_on_c, 0, 65, 94
1, 100886, Note_off_c, 0, 57, 64
1, 100893, Note_off_c, 0, 60, 64
1, 100896, Note_on_c, 0, 57, 94
1, 100896, Note_on_c, 0, 60, 94
1, 100983, Note_off_c, 0, 60, 64
1, 100986, Note_off_c, 0, 53, 64
1, 100989, Note_off_c, 0, 41, 64
1, 100991, Note_off_c, 0, 64, 64
1, 100992, Note_on_c, 0, 40, 94
1, 100992, Note_on_c, 0, 52, 94
1, 100992, Note_on_c, 0, 64, 94
1, 100992, Note_off_c, 0, 65, 64
1, 100992, Note_on_c, 0, 67, 94
1, 101087, Note_off_c, 0, 57, 64
1, 101088, Note_on_c, 0, 57, 94
1, 101179, Note_off_c, 0, 64, 64
1, 101179, Note_off_c, 0, 67, 64
1, 101184, Note_on_c, 0, 65, 94
1, 101184, Note_on_c, 0, 69, 94
1, 101273, Note_off_c, 0, 57, 64
1, 101280, Note_on_c, 0, 57, 94
1, 101369, Note_off_c, 0, 57, 64
1, 101371, Note_off_c, 0, 65, 64
1, 101371, Note_off_c, 0, 69, 64
1, 101373, Note_off_c, 0, 40, 64
1, 101375, Note_off_c, 0, 52, 64
1, 101376, Note_on_c, 0, 33, 101
1, 101376, Note_on_c, 0, 48, 101
1, 101472, Note_on_c, 0, 47, 101
1, 101472, Note_on_c, 0, 64, 101
1, 101567, Note_off_c, 0, 48, 64
1, 101568, Note_on_c, 0, 48, 101
1, 101568, Note_on_c, 0, 62, 101
1, 101568, Note_off_c, 0, 64, 64
1, 101664, Note_off_c, 0, 47, 64
1, 101664, Note_on_c, 0, 52, 101
1, 101664, Note_on_c, 0, 60, 101
1, 101664, Note_off_c, 0, 62, 64
1, 101736, Note_off_c, 0, 33, 64
1, 101759, Note_off_c, 0, 48, 64
1, 101760, Note_on_c, 0, 33, 101
1, 101760, Note_on_c, 0, 48, 101
1, 101760, Note_on_c, 0, 59, 101
1, 101760, Note_off_c, 0, 60, 64
1, 101856, Note_on_c, 0, 47, 101
1, 101856, Note_off_c, 0, 52, 64
1, 101856, Note_on_c, 0, 57, 101
1, 101856, Note_off_c, 0, 59, 64
1, 101952, Note_off_c, 0, 48, 64
1, 101952, Note_on_c, 0, 53, 101
1, 101952, Note_off_c, 0, 57, 64
1, 101952, Note_on_c, 0, 59, 101
1, 102048, Note_off_c, 0, 47, 64
1, 102048, Note_on_c, 0, 52, 101
1, 102048, Note_off_c, 0, 59, 64
1, 102048, Note_on_c, 0, 60, 101
1, 102120, Note_off_c, 0, 33, 64
1, 102144, Note_on_c, 0, 33, 101
1, 102144, Note_on_c, 0, 48, 101
1, 102144, Note_off_c, 0, 53, 64
1, 102144, Note_off_c, 0, 60, 64
1, 102240, Note_on_c, 0, 47, 101
1, 102240, Note_off_c, 0, 52, 64
1, 102240, Note_on_c, 0, 64, 101
1, 102335, Note_off_c, 0, 48, 64
1, 102336, Note_on_c, 0, 48, 101
1, 102336, Note_on_c, 0, 62, 101
1, 102336, Note_off_c, 0, 64, 64
1, 102432, Note_off_c, 0, 47, 64
1, 102432, Note_on_c, 0, 52, 101
1, 102432, Note_on_c, 0, 60, 101
1, 102432, Note_off_c, 0, 62, 64
1, 102504, Note_off_c, 0, 33, 64
1, 102527, Note_off_c, 0, 48, 64
1, 102528, Note_on_c, 0, 33, 101
1, 102528, Note_on_c, 0, 48, 101
1, 102528, Note_on_c, 0, 59, 101
1, 102528, Note_off_c, 0, 60, 64
1, 102624, Note_on_c, 0, 47, 101
1, 102624, Note_off_c, 0, 52, 64
1, 102624, Note_on_c, 0, 57, 101
1, 102624, Note_off_c, 0, 59, 64
1, 102720, Note_off_c, 0, 48, 64
1, 102720, Note_on_c, 0, 53, 101
1, 102720, Note_off_c, 0, 57, 64
1, 102720, Note_on_c, 0, 65, 101
1, 102816, Note_off_c, 0, 47, 64
1, 102816, Note_on_c, 0, 52, 101
1, 102816, Note_off_c, 0, 53, 64
1, 102816, Note_on_c, 0, 64, 101
1, 102816, Note_off_c, 0, 65, 64
1, 102888, Note_off_c, 0, 33, 64
1, 102912, Note_on_c, 0, 33, 56
1, 102912, Note_off_c, 0, 52, 64
1, 102912, Note_on_c, 0, 52, 60
1, 102912, Note_off_c, 0, 64, 64
1, 102912, Note_on_c, 0, 72, 68
1, 102997, Note_off_c, 0, 52, 61
1, 103003, Note_off_c, 0, 72, 40
1, 103007, Note_on_c, 0, 53, 34
1, 103008, Note_on_c, 0, 71, 68
1, 103098, Note_off_c, 0, 71, 73
1, 103099, Note_off_c, 0, 53, 37
1, 103103, Note_off_c, 0, 33, 53
1, 103104, Note_on_c, 0, 35, 56
1, 103105, Note_on_c, 0, 57, 52
1, 103105, Note_on_c, 0, 69, 56
1, 103195, Note_off_c, 0, 57, 48
1, 103198, Note_off_c, 0, 69, 55
1, 103201, Note_on_c, 0, 59, 56
1, 103201, Note_on_c, 0, 65, 62
1, 103293, Note_off_c, 0, 59, 48
1, 103293, Note_off_c, 0, 65, 59
1, 103295, Note_off_c, 0, 35, 67
1, 103296, Note_on_c, 0, 36, 56
1, 103298, Note_on_c, 0, 60, 22
1, 103298, Note_on_c, 0, 64, 59
1, 103377, Note_off_c, 0, 60, 41
1, 103384, Note_off_c, 0, 64, 63
1, 103392, Note_on_c, 0, 59, 51
1, 103393, Note_on_c, 0, 65, 57
1, 103483, Note_off_c, 0, 59, 58
1, 103485, Note_off_c, 0, 65, 37
1, 103487, Note_off_c, 0, 36, 52
1, 103487, Note_on_c, 0, 57, 55
1, 103488, Note_on_c, 0, 40, 57
1, 103488, Note_on_c, 0, 69, 63
1, 103577, Note_off_c, 0, 69, 60
1, 103581, Note_off_c, 0, 57, 49
1, 103585, Note_on_c, 0, 53, 28
1, 103585, Note_on_c, 0, 71, 44
1, 103663, Note_off_c, 0, 53, 34
1, 103679, Note_off_c, 0, 40, 39
1, 103679, Note_on_c, 0, 41, 45
1, 103679, Note_on_c, 0, 52, 57
1, 103680, Note_on_c, 0, 72, 72
1, 103686, Note_off_c, 0, 71, 59
1, 103770, Note_off_c, 0, 52, 46
1, 103770, Note_off_c, 0, 72, 25
1, 103774, Note_on_c, 0, 53, 39
1, 103775, Note_on_c, 0, 71, 58
1, 103863, Note_off_c, 0, 71, 73
1, 103866, Note_off_c, 0, 53, 45
1, 103871, Note_off_c, 0, 41, 16
1, 103871, Note_on_c, 0, 57, 52
1, 103871, Note_on_c, 0, 69, 54
1, 103872, Note_on_c, 0, 40, 53
1, 103967, Note_on_c, 0, 65, 51
1, 103969, Note_on_c, 0, 59, 43
1, 103969, Note_off_c, 0, 69, 51
1, 103976, Note_off_c, 0, 57, 50
1, 104058, Note_off_c, 0, 65, 41
1, 104062, Note_off_c, 0, 59, 50
1, 104063, Note_off_c, 0, 40, 44
1, 104063, Note_on_c, 0, 64, 66
1, 104064, Note_on_c, 0, 36, 40
1, 104065, Note_on_c, 0, 60, 24
1, 104141, Note_off_c, 0, 60, 51
1, 104159, Note_on_c, 0, 59, 57
1, 104161, Note_on_c, 0, 65, 66
1, 104175, Note_off_c, 0, 64, 67
1, 104253, Note_off_c, 0, 65, 52
1, 104255, Note_off_c, 0, 36, 50
1, 104256, Note_on_c, 0, 40, 49
1, 104257, Note_on_c, 0, 57, 36
1, 104257, Note_on_c, 0, 69, 50
1, 104258, Note_off_c, 0, 59, 47
1, 104342, Note_off_c, 0, 69, 56
1, 104349, Note_off_c, 0, 57, 50
1, 104352, Note_on_c, 0, 53, 40
1, 104353, Note_on_c, 0, 71, 40
1, 104424, Note_off_c, 0, 53, 46
1, 104424, Note_off_c, 0, 71, 82
1, 104447, Note_off_c, 0, 40, 82
1, 104448, Note_on_c, 0, 57, 100
1, 104448, Note_on_c, 0, 69, 100
1, 104460, Note_on_c, 0, 84, 100
1, 104472, Note_off_c, 0, 69, 64
1, 104472, Note_on_c, 0, 72, 100
1, 104484, Note_off_c, 0, 84, 64
1, 104496, Note_off_c, 0, 57, 64
1, 104520, Note_off_c, 0, 72, 64
1, 104640, Note_on_c, 0, 64, 100
1, 104652, Note_on_c, 0, 80, 100
1, 104664, Note_off_c, 0, 64, 64
1, 104676, Note_off_c, 0, 80, 64
1, 104832, Note_on_c, 0, 59, 100
1, 104832, Note_on_c, 0, 71, 100
1, 104844, Note_on_c, 0, 86, 100
1, 104856, Note_off_c, 0, 71, 64
1, 104856, Note_on_c, 0, 74, 100
1, 104868, Note_off_c, 0, 86, 64
1, 104880, Note_off_c, 0, 59, 64
1, 104904, Note_off_c, 0, 74, 64
1, 105024, Note_on_c, 0, 88, 100
1, 105036, Note_on_c, 0, 68, 100
1, 105048, Note_off_c, 0, 88, 64
1, 105060, Note_off_c, 0, 68, 64
1, 105216, Note_on_c, 0, 57, 100
1, 105216, Note_on_c, 0, 69, 100
1, 105228, Note_on_c, 0, 84, 100
1, 105240, Note_off_c, 0, 69, 64
1, 105240, Note_on_c, 0, 72, 100
1, 105252, Note_off_c, 0, 84, 64
1, 105264, Note_off_c, 0, 57, 64
1, 105288, Note_off_c, 0, 72, 64
1, 105408, Note_on_c, 0, 64, 100
1, 105420, Note_on_c, 0, 80, 100
1, 105432, Note_off_c, 0, 64, 64
1, 105444, Note_off_c, 0, 80, 64
1, 105600, Note_on_c, 0, 59, 100
1, 105600, Note_on_c, 0, 71, 100
1, 105612, Note_on_c, 0, 86, 100
1, 105624, Note_off_c, 0, 71, 64
1, 105624, Note_on_c, 0, 74, 100
1, 105636, Note_off_c, 0, 86, 64
1, 105648, Note_off_c, 0, 59, 64
1, 105672, Note_off_c, 0, 74, 64
1, 105792, Note_on_c, 0, 88, 100
1, 105804, Note_on_c, 0, 68, 100
1, 105816, Note_off_c, 0, 88, 64
1, 105828, Note_off_c, 0, 68, 64
1, 105984, Note_on_c, 0, 45, 109
1, 105984, Note_on_c, 0, 57, 91
1, 106078, Note_off_c, 0, 57, 61
1, 106080, Note_on_c, 0, 64, 100
1, 106175, Note_off_c, 0, 64, 77
1, 106176, Note_on_c, 0, 57, 89
1, 106271, Note_off_c, 0, 57, 65
1, 106272, Note_on_c, 0, 64, 102
1, 106366, Note_off_c, 0, 64, 74
1, 106367, Note_off_c, 0, 45, 69
1, 106368, Note_on_c, 0, 45, 106
1, 106368, Note_on_c, 0, 65, 80
1, 106457, Note_off_c, 0, 65, 52
1, 106464, Note_on_c, 0, 64, 103
1, 106551, Note_off_c, 0, 64, 80
1, 106560, Note_on_c, 0, 60, 82
1, 106656, Note_on_c, 0, 59, 93
1, 106657, Note_off_c, 0, 60, 49
1, 106743, Note_off_c, 0, 59, 83
1, 106751, Note_off_c, 0, 45, 84
1, 106752, Note_on_c, 0, 45, 118
1, 106752, Note_on_c, 0, 57, 85
1, 106848, Note_on_c, 0, 64, 103
1, 106850, Note_off_c, 0, 57, 67
1, 106944, Note_on_c, 0, 57, 92
1, 106944, Note_off_c, 0, 64, 82
1, 107037, Note_off_c, 0, 57, 60
1, 107040, Note_on_c, 0, 64, 98
1, 107135, Note_off_c, 0, 45, 64
1, 107136, Note_on_c, 0, 45, 97
1, 107136, Note_on_c, 0, 65, 84
1, 107139, Note_off_c, 0, 64, 76
1, 107227, Note_off_c, 0, 65, 45
1, 107232, Note_on_c, 0, 64, 94
1, 107325, Note_off_c, 0, 64, 76
1, 107328, Note_on_c, 0, 60, 84
1, 107411, Note_off_c, 0, 60, 52
1, 107424, Note_on_c, 0, 59, 88
1, 107519, Note_off_c, 0, 45, 80
1, 107520, Note_on_c, 0, 57, 30
1, 107520, Note_off_c, 0, 59, 82
1, 107520, Note_on_c, 0, 88, 59
1, 107615, Note_on_c, 0, 64, 56
1, 107707, Note_on_c, 0, 69, 57
1, 107803, Note_on_c, 0, 71, 50
1, 107817, Note_off_c, 0, 69, 43
1, 107894, Note_on_c, 0, 86, 47
1, 107894, Note_off_c, 0, 88, 95
1, 107896, Note_off_c, 0, 71, 46
1, 107898, Note_on_c, 0, 72, 53
1, 107994, Note_on_c, 0, 71, 58
1, 108001, Note_off_c, 0, 72, 58
1, 108095, Note_on_c, 0, 76, 60
1, 108107, Note_off_c, 0, 71, 62
1, 108188, Note_off_c, 0, 76, 55
1, 108189, Note_on_c, 0, 71, 59
1, 108205, Note_off_c, 0, 57, 59
1, 108208, Note_off_c, 0, 64, 18
1, 108281, Note_on_c, 0, 88, 57
1, 108283, Note_on_c, 0, 57, 52
1, 108288, Note_off_c, 0, 86, 45
1, 108292, Note_off_c, 0, 71, 71
1, 108381, Note_on_c, 0, 64, 56
1, 108474, Note_on_c, 0, 84, 44
1, 108477, Note_on_c, 0, 69, 60
1, 108572, Note_on_c, 0, 71, 58
1, 108580, Note_off_c, 0, 69, 45
1, 108660, Note_on_c, 0, 89, 49
1, 108662, Note_off_c, 0, 88, 77
1, 108665, Note_off_c, 0, 71, 8
1, 108666, Note_on_c, 0, 83, 44
1, 108667, Note_on_c, 0, 72, 53
1, 108667, Note_off_c, 0, 84, 64
1, 108758, Note_off_c, 0, 89, 55
1, 108759, Note_on_c, 0, 88, 58
1, 108761, Note_on_c, 0, 71, 57
1, 108763, Note_off_c, 0, 72, 54
1, 108851, Note_off_c, 0, 88, 71
1, 108852, Note_on_c, 0, 86, 47
1, 108858, Note_on_c, 0, 76, 40
1, 108869, Note_off_c, 0, 71, 102
1, 108930, Note_off_c, 0, 83, 64
1, 108945, Note_on_c, 0, 93, 54
1, 108949, Note_off_c, 0, 86, 45
1, 108953, Note_on_c, 0, 71, 43
1, 108988, Note_off_c, 0, 71, 107
1, 108989, Note_off_c, 0, 64, 22
1, 108994, Note_off_c, 0, 57, 26
1, 109012, Note_off_c, 0, 93, 25
1, 109044, Note_off_c, 0, 76, 64
1, 109056, Note_on_c, 0, 69, 100
1, 109056, Note_on_c, 0, 76, 100
1, 109104, Note_on_c, 0, 83, 100
1, 109152, Note_off_c, 0, 83, 64
1, 109152, Note_on_c, 0, 84, 100
1, 109200, Note_off_c, 0, 84, 64
1, 109248, Note_off_c, 0, 69, 64
1, 109248, Note_off_c, 0, 76, 64
1, 109344, Note_on_c, 0, 89, 100
1, 109440, Note_on_c, 0, 69, 100
1, 109440, Note_on_c, 0, 76, 100
1, 109440, Note_on_c, 0, 88, 100
1, 109440, Note_off_c, 0, 89, 64
1, 109488, Note_on_c, 0, 83, 100
1, 109536, Note_off_c, 0, 83, 64
1, 109536, Note_on_c, 0, 84, 100
1, 109536, Note_off_c, 0, 88, 64
1, 109584, Note_off_c, 0, 84, 64
1, 109632, Note_off_c, 0, 69, 64
1, 109632, Note_off_c, 0, 76, 64
1, 109824, Note_on_c, 0, 69, 100
1, 109824, Note_on_c, 0, 76, 100
1, 109872, Note_on_c, 0, 83, 100
1, 109920, Note_off_c, 0, 83, 64
1, 109920, Note_on_c, 0, 84, 100
1, 109968, Note_off_c, 0, 84, 64
1, 110016, Note_off_c, 0, 69, 64
1, 110016, Note_off_c, 0, 76, 64
1, 110112, Note_on_c, 0, 89, 100
1, 110208, Note_on_c, 0, 64, 100
1, 110208, Note_on_c, 0, 71, 100
1, 110208, Note_on_c, 0, 88, 100
1, 110208, Note_off_c, 0, 89, 64
1, 110256, Note_on_c, 0, 83, 100
1, 110304, Note_off_c, 0, 83, 64
1, 110304, Note_on_c, 0, 84, 100
1, 110304, Note_off_c, 0, 88, 64
1, 110352, Note_off_c, 0, 84, 64
1, 110400, Note_off_c, 0, 64, 64
1, 110400, Note_on_c, 0, 68, 100
1, 110400, Note_off_c, 0, 71, 64
1, 110592, Note_on_c, 0, 45, 75
1, 110592, Note_on_c, 0, 57, 75
1, 110592, Note_on_c, 0, 64, 75
1, 110592, Note_off_c, 0, 68, 64
1, 110688, Note_on_c, 0, 69, 75
1, 110784, Note_off_c, 0, 69, 64
1, 110784, Note_on_c, 0, 71, 75
1, 110784, Note_on_c, 0, 72, 75
1, 110880, Note_on_c, 0, 69, 75
1, 110880, Note_off_c, 0, 71, 64
1, 110880, Note_off_c, 0, 72, 64
1, 110976, Note_off_c, 0, 45, 64
1, 110976, Note_on_c, 0, 53, 75
1, 110976, Note_off_c, 0, 57, 64
1, 110976, Note_off_c, 0, 64, 64
1, 110976, Note_on_c, 0, 65, 75
1, 110976, Note_off_c, 0, 69, 64
1, 110976, Note_on_c, 0, 77, 75
1, 111071, Note_off_c, 0, 65, 64
1, 111072, Note_on_c, 0, 65, 75
1, 111072, Note_off_c, 0, 77, 64
1, 111168, Note_on_c, 0, 52, 75
1, 111168, Note_off_c, 0, 53, 64
1, 111168, Note_on_c, 0, 64, 75
1, 111168, Note_off_c, 0, 65, 64
1, 111168, Note_on_c, 0, 76, 75
1, 111264, Note_on_c, 0, 72, 75
1, 111264, Note_off_c, 0, 76, 64
1, 111359, Note_off_c, 0, 64, 64
1, 111360, Note_on_c, 0, 45, 75
1, 111360, Note_off_c, 0, 52, 64
1, 111360, Note_on_c, 0, 57, 75
1, 111360, Note_on_c, 0, 64, 75
1, 111360, Note_off_c, 0, 72, 64
1, 111456, Note_on_c, 0, 69, 75
1, 111552, Note_off_c, 0, 69, 64
1, 111552, Note_on_c, 0, 71, 75
1, 111552, Note_on_c, 0, 72, 75
1, 111648, Note_on_c, 0, 69, 75
1, 111648, Note_off_c, 0, 71, 64
1, 111648, Note_off_c, 0, 72, 64
1, 111744, Note_off_c, 0, 45, 64
1, 111744, Note_on_c, 0, 53, 75
1, 111744, Note_off_c, 0, 57, 64
1, 111744, Note_off_c, 0, 64, 64
1, 111744, Note_on_c, 0, 65, 75
1, 111744, Note_off_c, 0, 69, 64
1, 111744, Note_on_c, 0, 77, 75
1, 111839, Note_off_c, 0, 65, 64
1, 111840, Note_on_c, 0, 65, 75
1, 111840, Note_off_c, 0, 77, 64
1, 111936, Note_on_c, 0, 52, 75
1, 111936, Note_off_c, 0, 53, 64
1, 111936, Note_on_c, 0, 64, 75
1, 111936, Note_off_c, 0, 65, 64
1, 111936, Note_on_c, 0, 76, 75
1, 112032, Note_on_c, 0, 72, 75
1, 112032, Note_off_c, 0, 76, 64
1, 112128, Note_on_c, 0, 45, 34
1, 112128, Note_off_c, 0, 52, 64
1, 112128, Note_on_c, 0, 52, 34
1, 112128, Note_on_c, 0, 60, 34
1, 112128, Note_off_c, 0, 64, 64
1, 112128, Note_on_c, 0, 69, 31
1, 112128, Note_off_c, 0, 72, 64
1, 112128, Note_on_c, 0, 84, 45
1, 112176, Note_on_c, 0, 48, 32
1, 112176, Note_off_c, 0, 60, 64
1, 112176, Note_off_c, 0, 69, 64
1, 112199, Note_off_c, 0, 52, 64
1, 112200, Note_on_c, 0, 52, 23
1, 112224, Note_off_c, 0, 45, 64
1, 112224, Note_on_c, 0, 60, 21
1, 112224, Note_on_c, 0, 69, 17
1, 112248, Note_on_c, 0, 28, 34
1, 112248, Note_on_c, 0, 45, 34
1, 112248, Note_off_c, 0, 48, 64
1, 112272, Note_on_c, 0, 59, 32
1, 112272, Note_off_c, 0, 60, 64
1, 112272, Note_off_c, 0, 69, 64
1, 112319, Note_off_c, 0, 52, 64
1, 112320, Note_on_c, 0, 52, 34
1, 112320, Note_off_c, 0, 59, 64
1, 112320, Note_on_c, 0, 60, 34
1, 112320, Note_on_c, 0, 69, 17
1, 112320, Note_on_c, 0, 83, 45
1, 112320, Note_off_c, 0, 84, 64
1, 112368, Note_on_c, 0, 48, 32
1, 112368, Note_off_c, 0, 60, 64
1, 112368, Note_off_c, 0, 69, 64
1, 112391, Note_off_c, 0, 52, 64
1, 112392, Note_off_c, 0, 28, 64
1, 112392, Note_off_c, 0, 45, 64
1, 112392, Note_on_c, 0, 52, 23
1, 112416, Note_on_c, 0, 60, 32
1, 112416, Note_on_c, 0, 69, 17
1, 112440, Note_on_c, 0, 45, 34
1, 112440, Note_off_c, 0, 48, 64
1, 112464, Note_on_c, 0, 59, 32
1, 112464, Note_off_c, 0, 60, 64
1, 112464, Note_off_c, 0, 69, 64
1, 112488, Note_off_c, 0, 52, 64
1, 112488, Note_on_c, 0, 53, 25
1, 112511, Note_off_c, 0, 45, 64
1, 112512, Note_on_c, 0, 29, 34
1, 112512, Note_on_c, 0, 45, 34
1, 112512, Note_on_c, 0, 52, 34
1, 112512, Note_off_c, 0, 53, 64
1, 112512, Note_off_c, 0, 59, 64
1, 112512, Note_on_c, 0, 60, 34
1, 112512, Note_on_c, 0, 69, 31
1, 112512, Note_on_c, 0, 76, 45
1, 112512, Note_off_c, 0, 83, 64
1, 112560, Note_on_c, 0, 48, 32
1, 112560, Note_off_c, 0, 60, 64
1, 112560, Note_off_c, 0, 69, 64
1, 112583, Note_off_c, 0, 52, 64
1, 112584, Note_on_c, 0, 52, 23
1, 112608, Note_off_c, 0, 29, 64
1, 112608, Note_off_c, 0, 45, 64
1, 112608, Note_on_c, 0, 60, 21
1, 112608, Note_on_c, 0, 69, 17
1, 112632, Note_on_c, 0, 29, 34
1, 112632, Note_on_c, 0, 45, 34
1, 112632, Note_off_c, 0, 48, 64
1, 112656, Note_on_c, 0, 59, 32
1, 112656, Note_off_c, 0, 60, 64
1, 112656, Note_off_c, 0, 69, 64
1, 112703, Note_off_c, 0, 52, 64
1, 112704, Note_on_c, 0, 52, 34
1, 112704, Note_off_c, 0, 59, 64
1, 112704, Note_on_c, 0, 60, 34
1, 112704, Note_on_c, 0, 69, 17
1, 112704, Note_off_c, 0, 76, 64
1, 112704, Note_on_c, 0, 81, 45
1, 112752, Note_on_c, 0, 48, 32
1, 112752, Note_off_c, 0, 60, 64
1, 112752, Note_off_c, 0, 69, 64
1, 112775, Note_off_c, 0, 52, 64
1, 112776, Note_off_c, 0, 29, 64
1, 112776, Note_off_c, 0, 45, 64
1, 112776, Note_on_c, 0, 52, 23
1, 112800, Note_on_c, 0, 60, 32
1, 112800, Note_on_c, 0, 69, 17
1, 112824, Note_on_c, 0, 45, 34
1, 112824, Note_off_c, 0, 48, 64
1, 112848, Note_on_c, 0, 59, 32
1, 112848, Note_off_c, 0, 60, 64
1, 112848, Note_off_c, 0, 69, 64
1, 112872, Note_off_c, 0, 52, 64
1, 112872, Note_on_c, 0, 53, 25
1, 112895, Note_off_c, 0, 45, 64
1, 112896, Note_on_c, 0, 33, 34
1, 112896, Note_on_c, 0, 45, 34
1, 112896, Note_on_c, 0, 52, 34
1, 112896, Note_off_c, 0, 53, 64
1, 112896, Note_off_c, 0, 59, 64
1, 112896, Note_on_c, 0, 60, 34
1, 112896, Note_on_c, 0, 69, 31
1, 112896, Note_off_c, 0, 81, 64
1, 112896, Note_on_c, 0, 84, 45
1, 112944, Note_on_c, 0, 48, 32
1, 112944, Note_off_c, 0, 60, 64
1, 112944, Note_off_c, 0, 69, 64
1, 112967, Note_off_c, 0, 52, 64
1, 112968, Note_on_c, 0, 52, 23
1, 112992, Note_off_c, 0, 33, 64
1, 112992, Note_off_c, 0, 45, 64
1, 112992, Note_on_c, 0, 60, 21
1, 112992, Note_on_c, 0, 69, 17
1, 113016, Note_on_c, 0, 28, 34
1, 113016, Note_on_c, 0, 45, 34
1, 113016, Note_off_c, 0, 48, 64
1, 113040, Note_on_c, 0, 59, 32
1, 113040, Note_off_c, 0, 60, 64
1, 113040, Note_off_c, 0, 69, 64
1, 113087, Note_off_c, 0, 52, 64
1, 113088, Note_on_c, 0, 52, 34
1, 113088, Note_off_c, 0, 59, 64
1, 113088, Note_on_c, 0, 60, 34
1, 113088, Note_on_c, 0, 69, 17
1, 113088, Note_on_c, 0, 83, 45
1, 113088, Note_off_c, 0, 84, 64
1, 113136, Note_on_c, 0, 48, 32
1, 113136, Note_off_c, 0, 60, 64
1, 113136, Note_off_c, 0, 69, 64
1, 113159, Note_off_c, 0, 52, 64
1, 113160, Note_off_c, 0, 28, 64
1, 113160, Note_off_c, 0, 45, 64
1, 113160, Note_on_c, 0, 52, 23
1, 113184, Note_on_c, 0, 60, 32
1, 113184, Note_on_c, 0, 69, 17
1, 113208, Note_on_c, 0, 45, 34
1, 113208, Note_off_c, 0, 48, 64
1, 113232, Note_on_c, 0, 59, 32
1, 113232, Note_off_c, 0, 60, 64
1, 113232, Note_off_c, 0, 69, 64
1, 113256, Note_off_c, 0, 52, 64
1, 113256, Note_on_c, 0, 53, 25
1, 113279, Note_off_c, 0, 45, 64
1, 113280, Note_on_c, 0, 29, 34
1, 113280, Note_on_c, 0, 45, 34
1, 113280, Note_on_c, 0, 52, 34
1, 113280, Note_off_c, 0, 53, 64
1, 113280, Note_off_c, 0, 59, 64
1, 113280, Note_on_c, 0, 60, 34
1, 113280, Note_on_c, 0, 69, 31
1, 113280, Note_on_c, 0, 76, 45
1, 113280, Note_off_c, 0, 83, 64
1, 113328, Note_on_c, 0, 48, 32
1, 113328, Note_off_c, 0, 60, 64
1, 113328, Note_off_c, 0, 69, 64
1, 113351, Note_off_c, 0, 52, 64
1, 113352, Note_on_c, 0, 52, 23
1, 113376, Note_off_c, 0, 29, 64
1, 113376, Note_off_c, 0, 45, 64
1, 113376, Note_on_c, 0, 60, 21
1, 113376, Note_on_c, 0, 69, 17
1, 113400, Note_on_c, 0, 29, 34
1, 113400, Note_on_c, 0, 45, 34
1, 113400, Note_off_c, 0, 48, 64
1, 113424, Note_on_c, 0, 59, 32
1, 113424, Note_off_c, 0, 60, 64
1, 113424, Note_off_c, 0, 69, 64
1, 113471, Note_off_c, 0, 52, 64
1, 113472, Note_on_c, 0, 52, 34
1, 113472, Note_off_c, 0, 59, 64
1, 113472, Note_on_c, 0, 60, 34
1, 113472, Note_on_c, 0, 69, 17
1, 113472, Note_off_c, 0, 76, 64
1, 113472, Note_on_c, 0, 81, 45
1, 113520, Note_on_c, 0, 48, 32
1, 113520, Note_off_c, 0, 60, 64
1, 113520, Note_off_c, 0, 69, 64
1, 113543, Note_off_c, 0, 52, 64
1, 113544, Note_off_c, 0, 29, 64
1, 113544, Note_off_c, 0, 45, 64
1, 113544, Note_on_c, 0, 52, 23
1, 113568, Note_on_c, 0, 60, 32
1, 113568, Note_on_c, 0, 69, 17
1, 113592, Note_on_c, 0, 35, 34
1, 113592, Note_on_c, 0, 45, 34
1, 113592, Note_off_c, 0, 48, 64
1, 113616, Note_on_c, 0, 59, 32
1, 113616, Note_off_c, 0, 60, 64
1, 113616, Note_off_c, 0, 69, 64
1, 113640, Note_off_c, 0, 52, 64
1, 113640, Note_on_c, 0, 53, 25
1, 113663, Note_off_c, 0, 45, 64
1, 113664, Note_on_c, 0, 33, 97
1, 113664, Note_off_c, 0, 35, 64
1, 113664, Note_on_c, 0, 45, 67
1, 113664, Note_off_c, 0, 53, 64
1, 113664, Note_on_c, 0, 57, 74
1, 113664, Note_off_c, 0, 59, 64
1, 113664, Note_on_c, 0, 76, 68
1, 113664, Note_off_c, 0, 81, 64
1, 113687, Note_off_c, 0, 57, 66
1, 113697, Note_off_c, 0, 76, 56
1, 113698, Note_off_c, 0, 45, 42
1, 113760, Note_on_c, 0, 47, 72
1, 113760, Note_on_c, 0, 74, 55
1, 113791, Note_off_c, 0, 47, 56
1, 113791, Note_off_c, 0, 74, 52
1, 113856, Note_on_c, 0, 48, 60
1, 113856, Note_on_c, 0, 64, 69
1, 113856, Note_on_c, 0, 72, 49
1, 113882, Note_off_c, 0, 64, 60
1, 113889, Note_off_c, 0, 48, 30
1, 113891, Note_off_c, 0, 72, 22
1, 113951, Note_off_c, 0, 33, 35
1, 113952, Note_on_c, 0, 45, 38
1, 113952, Note_on_c, 0, 47, 61
1, 113952, Note_on_c, 0, 71, 64
1, 113977, Note_off_c, 0, 47, 53
1, 113983, Note_off_c, 0, 71, 55
1, 114047, Note_off_c, 0, 45, 55
1, 114048, Note_on_c, 0, 28, 62
1, 114048, Note_on_c, 0, 45, 70
1, 114048, Note_on_c, 0, 65, 39
1, 114067, Note_off_c, 0, 65, 33
1, 114087, Note_off_c, 0, 45, 39
1, 114144, Note_on_c, 0, 47, 75
1, 114144, Note_on_c, 0, 71, 70
1, 114180, Note_off_c, 0, 47, 55
1, 114186, Note_off_c, 0, 71, 39
1, 114192, Note_on_c, 0, 72, 59
1, 114231, Note_off_c, 0, 72, 23
1, 114240, Note_on_c, 0, 48, 32
1, 114240, Note_on_c, 0, 60, 46
1, 114240, Note_on_c, 0, 74, 77
1, 114258, Note_off_c, 0, 60, 36
1, 114273, Note_off_c, 0, 48, 20
1, 114286, Note_off_c, 0, 74, 62
1, 114335, Note_off_c, 0, 28, 53
1, 114336, Note_on_c, 0, 40, 82
1, 114336, Note_on_c, 0, 50, 61
1, 114336, Note_on_c, 0, 76, 78
1, 114362, Note_off_c, 0, 50, 42
1, 114368, Note_off_c, 0, 76, 51
1, 114431, Note_off_c, 0, 40, 76
1, 114432, Note_on_c, 0, 26, 89
1, 114432, Note_on_c, 0, 45, 67
1, 114432, Note_on_c, 0, 57, 54
1, 114432, Note_on_c, 0, 69, 67
1, 114466, Note_off_c, 0, 45, 42
1, 114466, Note_off_c, 0, 57, 47
1, 114482, Note_off_c, 0, 69, 40
1, 114528, Note_on_c, 0, 47, 72
1, 114559, Note_off_c, 0, 47, 56
1, 114623, Note_off_c, 0, 26, 43
1, 114624, Note_on_c, 0, 38, 59
1, 114624, Note_on_c, 0, 48, 60
1, 114624, Note_on_c, 0, 64, 55
1, 114624, Note_on_c, 0, 72, 57
1, 114657, Note_off_c, 0, 48, 30
1, 114659, Note_off_c, 0, 64, 53
1, 114662, Note_off_c, 0, 72, 33
1, 114720, Note_on_c, 0, 47, 61
1, 114745, Note_off_c, 0, 47, 53
1, 114815, Note_off_c, 0, 38, 77
1, 114816, Note_on_c, 0, 26, 91
1, 114816, Note_on_c, 0, 45, 70
1, 114816, Note_on_c, 0, 60, 41
1, 114844, Note_off_c, 0, 60, 36
1, 114855, Note_off_c, 0, 45, 39
1, 114912, Note_on_c, 0, 47, 75
1, 114912, Note_on_c, 0, 71, 56
1, 114942, Note_off_c, 0, 71, 44
1, 114948, Note_off_c, 0, 47, 55
1, 114960, Note_on_c, 0, 72, 67
1, 114992, Note_off_c, 0, 72, 28
1, 115007, Note_off_c, 0, 26, 54
1, 115008, Note_on_c, 0, 38, 100
1, 115008, Note_on_c, 0, 48, 32
1, 115008, Note_on_c, 0, 59, 56
1, 115008, Note_on_c, 0, 74, 83
1, 115034, Note_off_c, 0, 59, 42
1, 115041, Note_off_c, 0, 48, 20
1, 115046, Note_off_c, 0, 74, 48
1, 115104, Note_on_c, 0, 50, 61
1, 115104, Note_on_c, 0, 76, 68
1, 115130, Note_off_c, 0, 50, 42
1, 115132, Note_off_c, 0, 76, 59
1, 115199, Note_off_c, 0, 38, 82
1, 115200, Note_on_c, 0, 45, 100
1, 115200, Note_on_c, 0, 60, 100
1, 115296, Note_off_c, 0, 45, 64
1, 115296, Note_off_c, 0, 60, 64
1, 115296, Note_on_c, 0, 65, 100
1, 115392, Note_off_c, 0, 65, 64
1, 115392, Note_on_c, 0, 69, 100
1, 115488, Note_on_c, 0, 45, 100
1, 115488, Note_on_c, 0, 64, 100
1, 115488, Note_off_c, 0, 69, 64
1, 115584, Note_off_c, 0, 45, 64
1, 115584, Note_off_c, 0, 64, 64
1, 115584, Note_on_c, 0, 65, 100
1, 115680, Note_on_c, 0, 64, 100
1, 115680, Note_off_c, 0, 65, 64
1, 115776, Note_on_c, 0, 45, 100
1, 115776, Note_on_c, 0, 59, 100
1, 115776, Note_off_c, 0, 64, 64
1, 115872, Note_off_c, 0, 45, 64
1, 115872, Note_off_c, 0, 59, 64
1, 115872, Note_on_c, 0, 60, 100
1, 115967, Note_off_c, 0, 60, 64
1, 115968, Note_on_c, 0, 45, 100
1, 115968, Note_on_c, 0, 60, 100
1, 116064, Note_off_c, 0, 45, 64
1, 116064, Note_off_c, 0, 60, 64
1, 116064, Note_on_c, 0, 65, 100
1, 116160, Note_off_c, 0, 65, 64
1, 116160, Note_on_c, 0, 69, 100
1, 116256, Note_on_c, 0, 45, 100
1, 116256, Note_on_c, 0, 64, 100
1, 116256, Note_off_c, 0, 69, 64
1, 116352, Note_off_c, 0, 45, 64
1, 116352, Note_off_c, 0, 64, 64
1, 116352, Note_on_c, 0, 65, 100
1, 116448, Note_on_c, 0, 64, 100
1, 116448, Note_off_c, 0, 65, 64
1, 116544, Note_on_c, 0, 41, 100
1, 116544, Note_on_c, 0, 59, 100
1, 116544, Note_off_c, 0, 64, 64
1, 116640, Note_off_c, 0, 41, 64
1, 116640, Note_off_c, 0, 59, 64
1, 116640, Note_on_c, 0, 60, 100
1, 116736, Note_on_c, 0, 45, 83
1, 116736, Note_off_c, 0, 60, 64
1, 116736, Note_on_c, 0, 64, 83
1, 116832, Note_on_c, 0, 57, 83
1, 116928, Note_off_c, 0, 57, 64
1, 116928, Note_on_c, 0, 59, 83
1, 117024, Note_off_c, 0, 59, 64
1, 117024, Note_on_c, 0, 60, 83
1, 117120, Note_off_c, 0, 45, 64
1, 117120, Note_off_c, 0, 60, 64
1, 117120, Note_on_c, 0, 62, 83
1, 117120, Note_off_c, 0, 64, 64
1, 117216, Note_on_c, 0, 57, 83
1, 117216, Note_off_c, 0, 62, 64
1, 117312, Note_on_c, 0, 52, 83
1, 117312, Note_off_c, 0, 57, 64
1, 117312, Note_on_c, 0, 65, 83
1, 117408, Note_on_c, 0, 60, 83
1, 117504, Note_on_c, 0, 45, 83
1, 117504, Note_off_c, 0, 52, 64
1, 117504, Note_off_c, 0, 60, 64
1, 117504, Note_on_c, 0, 64, 83
1, 117504, Note_off_c, 0, 65, 64
1, 117600, Note_on_c, 0, 57, 83
1, 117696, Note_off_c, 0, 57, 64
1, 117696, Note_on_c, 0, 59, 83
1, 117792, Note_off_c, 0, 59, 64
1, 117792, Note_on_c, 0, 60, 83
1, 117888, Note_off_c, 0, 45, 64
1, 117888, Note_off_c, 0, 60, 64
1, 117888, Note_on_c, 0, 62, 83
1, 117888, Note_off_c, 0, 64, 64
1, 117984, Note_on_c, 0, 57, 83
1, 117984, Note_off_c, 0, 62, 64
1, 118080, Note_on_c, 0, 52, 83
1, 118080, Note_off_c, 0, 57, 64
1, 118080, Note_on_c, 0, 65, 83
1, 118176, Note_on_c, 0, 60, 83
1, 118272, Note_on_c, 0, 45, 105
1, 118272, Note_off_c, 0, 52, 64
1, 118272, Note_off_c, 0, 60, 64
1, 118272, Note_on_c, 0, 64, 105
1, 118272, Note_off_c, 0, 65, 64
1, 118272, Note_on_c, 0, 76, 105
1, 118368, Note_on_c, 0, 57, 105
1, 118368, Note_off_c, 0, 64, 64
1, 118464, Note_off_c, 0, 57, 64
1, 118464, Note_on_c, 0, 59, 105
1, 118464, Note_on_c, 0, 69, 105
1, 118464, Note_off_c, 0, 76, 64
1, 118560, Note_off_c, 0, 59, 64
1, 118560, Note_on_c, 0, 60, 105
1, 118656, Note_off_c, 0, 60, 64
1, 118656, Note_on_c, 0, 62, 105
1, 118656, Note_off_c, 0, 69, 64
1, 118656, Note_on_c, 0, 72, 105
1, 118752, Note_on_c, 0, 57, 105
1, 118752, Note_off_c, 0, 62, 64
1, 118848, Note_on_c, 0, 52, 105
1, 118848, Note_off_c, 0, 57, 64
1, 118848, Note_on_c, 0, 71, 105
1, 118848, Note_off_c, 0, 72, 64
1, 118944, Note_off_c, 0, 52, 64
1, 118944, Note_on_c, 0, 60, 105
1, 119039, Note_off_c, 0, 45, 64
1, 119039, Note_off_c, 0, 71, 64
1, 119040, Note_on_c, 0, 45, 105
1, 119040, Note_off_c, 0, 60, 64
1, 119040, Note_on_c, 0, 64, 105
1, 119040, Note_on_c, 0, 71, 105
1, 119136, Note_on_c, 0, 57, 105
1, 119136, Note_off_c, 0, 64, 64
1, 119232, Note_off_c, 0, 57, 64
1, 119232, Note_on_c, 0, 59, 105
1, 119232, Note_on_c, 0, 69, 105
1, 119232, Note_off_c, 0, 71, 64
1, 119328, Note_off_c, 0, 59, 64
1, 119328, Note_on_c, 0, 60, 105
1, 119424, Note_off_c, 0, 60, 64
1, 119424, Note_on_c, 0, 62, 105
1, 119424, Note_on_c, 0, 65, 105
1, 119424, Note_off_c, 0, 69, 64
1, 119520, Note_on_c, 0, 57, 105
1, 119520, Note_off_c, 0, 62, 64
1, 119616, Note_on_c, 0, 41, 105
1, 119616, Note_off_c, 0, 45, 64
1, 119616, Note_off_c, 0, 57, 64
1, 119616, Note_on_c, 0, 64, 105
1, 119616, Note_off_c, 0, 65, 64
1, 119712, Note_on_c, 0, 60, 105
1, 119807, Note_off_c, 0, 64, 64
1, 119808, Note_off_c, 0, 41, 64
1, 119808, Note_on_c, 0, 45, 99
1, 119808, Note_off_c, 0, 60, 64
1, 119808, Note_on_c, 0, 64, 57
1, 119902, Note_on_c, 0, 69, 44
1, 120000, Note_on_c, 0, 72, 67
1, 120096, Note_on_c, 0, 71, 62
1, 120099, Note_off_c, 0, 72, 42
1, 120125, Note_off_c, 0, 64, 59
1, 120131, Note_off_c, 0, 69, 24
1, 120193, Note_on_c, 0, 74, 45
1, 120197, Note_off_c, 0, 71, 53
1, 120285, Note_on_c, 0, 65, 38
1, 120382, Note_on_c, 0, 76, 45
1, 120482, Note_on_c, 0, 71, 28
1, 120560, Note_off_c, 0, 65, 1
1, 120560, Note_off_c, 0, 71, 1
1, 120560, Note_off_c, 0, 74, 44
1, 120560, Note_off_c, 0, 76, 30
1, 120575, Note_off_c, 0, 45, 62
1, 120576, Note_on_c, 0, 45, 90
1, 120576, Note_on_c, 0, 64, 21
1, 120674, Note_on_c, 0, 69, 43
1, 120770, Note_on_c, 0, 72, 35
1, 120871, Note_on_c, 0, 71, 35
1, 120964, Note_on_c, 0, 74, 40
1, 121056, Note_off_c, 0, 45, 83
1, 121056, Note_on_c, 0, 53, 73
1, 121058, Note_on_c, 0, 65, 31
1, 121072, Note_off_c, 0, 64, 22
1, 121072, Note_off_c, 0, 69, 1
1, 121072, Note_off_c, 0, 71, 47
1, 121072, Note_off_c, 0, 72, 1
1, 121153, Note_on_c, 0, 76, 35
1, 121248, Note_on_c, 0, 52, 70
1, 121248, Note_off_c, 0, 53, 108
1, 121248, Note_on_c, 0, 71, 37
1, 121324, Note_off_c, 0, 65, 23
1, 121324, Note_off_c, 0, 71, 32
1, 121324, Note_off_c, 0, 74, 31
1, 121324, Note_off_c, 0, 76, 50
1, 121342, Note_off_c, 0, 52, 127
1, 121344, Note_on_c, 0, 45, 66
1, 121344, Note_on_c, 0, 52, 82
1, 121344, Note_on_c, 0, 57, 85
1, 121344, Note_on_c, 0, 64, 89
1, 121528, Note_off_c, 0, 52, 64
1, 121536, Note_on_c, 0, 52, 80
1, 121536, Note_on_c, 0, 60, 57
1, 121536, Note_on_c, 0, 72, 50
1, 121625, Note_off_c, 0, 60, 64
1, 121627, Note_off_c, 0, 57, 64
1, 121632, Note_on_c, 0, 57, 64
1, 121632, Note_on_c, 0, 59, 64
1, 121721, Note_off_c, 0, 57, 64
1, 121723, Note_off_c, 0, 45, 64
1, 121723, Note_off_c, 0, 64, 64
1, 121726, Note_off_c, 0, 72, 64
1, 121727, Note_off_c, 0, 52, 64
1, 121728, Note_on_c, 0, 45, 65
1, 121728, Note_on_c, 0, 52, 84
1, 121728, Note_on_c, 0, 57, 87
1, 121728, Note_off_c, 0, 59, 64
1, 121728, Note_on_c, 0, 64, 89
1, 121728, Note_on_c, 0, 77, 52
1, 121914, Note_off_c, 0, 52, 64
1, 121920, Note_on_c, 0, 52, 73
1, 121920, Note_on_c, 0, 60, 59
1, 122101, Note_off_c, 0, 60, 64
1, 122102, Note_off_c, 0, 57, 64
1, 122106, Note_off_c, 0, 45, 64
1, 122106, Note_off_c, 0, 52, 64
1, 122106, Note_off_c, 0, 77, 64
1, 122109, Note_off_c, 0, 64, 64
1, 122112, Note_on_c, 0, 45, 66
1, 122112, Note_on_c, 0, 52, 82
1, 122112, Note_on_c, 0, 57, 85
1, 122112, Note_on_c, 0, 64, 89
1, 122296, Note_off_c, 0, 52, 64
1, 122304, Note_on_c, 0, 52, 80
1, 122304, Note_on_c, 0, 60, 57
1, 122304, Note_on_c, 0, 72, 50
1, 122393, Note_off_c, 0, 60, 64
1, 122395, Note_off_c, 0, 57, 64
1, 122400, Note_on_c, 0, 57, 64
1, 122400, Note_on_c, 0, 59, 64
1, 122489, Note_off_c, 0, 57, 64
1, 122491, Note_off_c, 0, 45, 64
1, 122491, Note_off_c, 0, 64, 64
1, 122494, Note_off_c, 0, 72, 64
1, 122495, Note_off_c, 0, 52, 64
1, 122496, Note_on_c, 0, 45, 65
1, 122496, Note_on_c, 0, 52, 84
1, 122496, Note_on_c, 0, 57, 87
1, 122496, Note_off_c, 0, 59, 64
1, 122496, Note_on_c, 0, 64, 89
1, 122496, Note_on_c, 0, 77, 52
1, 122682, Note_off_c, 0, 52, 64
1, 122688, Note_on_c, 0, 52, 73
1, 122688, Note_on_c, 0, 60, 59
1, 122869, Note_off_c, 0, 60, 64
1, 122870, Note_off_c, 0, 57, 64
1, 122874, Note_off_c, 0, 45, 64
1, 122874, Note_off_c, 0, 52, 64
1, 122874, Note_off_c, 0, 77, 64
1, 122877, Note_off_c, 0, 64, 64
1, 122880, Note_on_c, 0, 45, 105
1, 122880, Note_on_c, 0, 60, 105
1, 122880, Note_on_c, 0, 64, 105
1, 122880, Note_on_c, 0, 81, 105
1, 123072, Note_off_c, 0, 45, 64
1, 123072, Note_off_c, 0, 60, 64
1, 123072, Note_off_c, 0, 64, 64
1, 123072, Note_off_c, 0, 81, 64
1, 123168, Note_on_c, 0, 41, 105
1, 123168, Note_on_c, 0, 57, 105
1, 123168, Note_on_c, 0, 60, 105
1, 123168, Note_on_c, 0, 79, 105
1, 123360, Note_off_c, 0, 41, 64
1, 123360, Note_off_c, 0, 57, 64
1, 123360, Note_off_c, 0, 60, 64
1, 123360, Note_off_c, 0, 79, 64
1, 123456, Note_on_c, 0, 43, 105
1, 123456, Note_on_c, 0, 59, 105
1, 123456, Note_on_c, 0, 62, 105
1, 123456, Note_on_c, 0, 79, 105
1, 123552, Note_on_c, 0, 74, 105
1, 123552, Note_off_c, 0, 79, 64
1, 123648, Note_off_c, 0, 43, 64
1, 123648, Note_on_c, 0, 45, 105
1, 123648, Note_off_c, 0, 59, 64
1, 123648, Note_on_c, 0, 60, 105
1, 123648, Note_off_c, 0, 62, 64
1, 123648, Note_on_c, 0, 64, 105
1, 123648, Note_off_c, 0, 74, 64
1, 123648, Note_on_c, 0, 76, 105
1, 123840, Note_off_c, 0, 45, 64
1, 123840, Note_off_c, 0, 60, 64
1, 123840, Note_off_c, 0, 64, 64
1, 123840, Note_off_c, 0, 76, 64
1, 123936, Note_on_c, 0, 41, 105
1, 123936, Note_on_c, 0, 57, 105
1, 123936, Note_on_c, 0, 60, 105
1, 123936, Note_on_c, 0, 72, 105
1, 124128, Note_off_c, 0, 41, 64
1, 124128, Note_off_c, 0, 57, 64
1, 124128, Note_off_c, 0, 60, 64
1, 124128, Note_off_c, 0, 72, 64
1, 124224, Note_on_c, 0, 43, 105
1, 124224, Note_on_c, 0, 59, 105
1, 124224, Note_on_c, 0, 62, 105
1, 124224, Note_on_c, 0, 74, 105
1, 124320, Note_off_c, 0, 74, 64
1, 124320, Note_on_c, 0, 76, 105
1, 124416, Note_off_c, 0, 43, 64
1, 124416, Note_on_c, 0, 45, 87
1, 124416, Note_off_c, 0, 59, 64
1, 124416, Note_on_c, 0, 60, 87
1, 124416, Note_off_c, 0, 62, 64
1, 124416, Note_off_c, 0, 76, 64
1, 124512, Note_off_c, 0, 45, 64
1, 124560, Note_on_c, 0, 45, 87
1, 124608, Note_on_c, 0, 57, 87
1, 124608, Note_off_c, 0, 60, 64
1, 124656, Note_off_c, 0, 45, 64
1, 124704, Note_on_c, 0, 41, 87
1, 124800, Note_off_c, 0, 41, 64
1, 124800, Note_off_c, 0, 57, 64
1, 124800, Note_on_c, 0, 67, 87
1, 124896, Note_on_c, 0, 65, 87
1, 124896, Note_off_c, 0, 67, 64
1, 124992, Note_on_c, 0, 64, 87
1, 124992, Note_off_c, 0, 65, 64
1, 125088, Note_on_c, 0, 62, 87
1, 125088, Note_off_c, 0, 64, 64
1, 125184, Note_on_c, 0, 48, 87
1, 125184, Note_on_c, 0, 60, 87
1, 125184, Note_off_c, 0, 62, 64
1, 125280, Note_off_c, 0, 48, 64
1, 125328, Note_on_c, 0, 48, 87
1, 125376, Note_on_c, 0, 57, 87
1, 125376, Note_off_c, 0, 60, 64
1, 125424, Note_off_c, 0, 48, 64
1, 125472, Note_on_c, 0, 43, 87
1, 125568, Note_off_c, 0, 43, 64
1, 125568, Note_off_c, 0, 57, 64
1, 125568, Note_on_c, 0, 62, 87
1, 125664, Note_off_c, 0, 62, 64
1, 125664, Note_on_c, 0, 64, 87
1, 125760, Note_on_c, 0, 62, 87
1, 125760, Note_off_c, 0, 64, 64
1, 125856, Note_on_c, 0, 55, 87
1, 125856, Note_off_c, 0, 62, 64
1, 125952, Note_on_c, 0, 53, 62
1, 125952, Note_off_c, 0, 55, 64
1, 125952, Note_on_c, 0, 69, 34
1, 125953, Note_on_c, 0, 72, 59
1, 126049, Note_on_c, 0, 60, 40
1, 126142, Note_on_c, 0, 67, 45
1, 126142, Note_off_c, 0, 69, 21
1, 126143, Note_on_c, 0, 69, 12
1, 126143, Note_off_c, 0, 72, 47
1, 126143, Note_on_c, 0, 72, 48
1, 126145, Note_on_c, 0, 76, 73
1, 126244, Note_on_c, 0, 65, 39
1, 126336, Note_off_c, 0, 72, 36
1, 126337, Note_off_c, 0, 67, 38
1, 126337, Note_off_c, 0, 69, 24
1, 126337, Note_on_c, 0, 72, 67
1, 126338, Note_off_c, 0, 60, 60
1, 126338, Note_on_c, 0, 60, 34
1, 126338, Note_on_c, 0, 67, 31
1, 126338, Note_on_c, 0, 69, 56
1, 126526, Note_off_c, 0, 65, 57
1, 126527, Note_on_c, 0, 65, 59
1, 126619, Note_off_c, 0, 53, 51
1, 126619, Note_off_c, 0, 65, 53
1, 126619, Note_off_c, 0, 67, 14
1, 126619, Note_off_c, 0, 69, 14
1, 126619, Note_off_c, 0, 72, 8
1, 126619, Note_off_c, 0, 76, 50
1, 126622, Note_on_c, 0, 52, 49
1, 126622, Note_on_c, 0, 64, 39
1, 126622, Note_on_c, 0, 67, 38
1, 126622, Note_on_c, 0, 71, 56
1, 126624, Note_off_c, 0, 60, 35
1, 126718, Note_on_c, 0, 50, 65
1, 126718, Note_on_c, 0, 72, 61
1, 126719, Note_on_c, 0, 65, 38
1, 126719, Note_on_c, 0, 69, 42
1, 126720, Note_off_c, 0, 52, 61
1, 126720, Note_off_c, 0, 64, 39
1, 126720, Note_off_c, 0, 67, 49
1, 126720, Note_off_c, 0, 71, 73
1, 126815, Note_on_c, 0, 57, 37
1, 126910, Note_on_c, 0, 64, 38
1, 126910, Note_off_c, 0, 65, 12
1, 126910, Note_off_c, 0, 69, 25
1, 126910, Note_off_c, 0, 72, 37
1, 126910, Note_on_c, 0, 76, 76
1, 126911, Note_on_c, 0, 65, 50
1, 126911, Note_on_c, 0, 69, 46
1, 126911, Note_on_c, 0, 72, 48
1, 127005, Note_off_c, 0, 57, 38
1, 127006, Note_on_c, 0, 57, 36
1, 127103, Note_off_c, 0, 50, 48
1, 127103, Note_off_c, 0, 72, 19
1, 127104, Note_on_c, 0, 50, 63
1, 127104, Note_off_c, 0, 65, 38
1, 127104, Note_off_c, 0, 69, 38
1, 127104, Note_on_c, 0, 72, 67
1, 127105, Note_on_c, 0, 65, 37
1, 127105, Note_on_c, 0, 69, 39
1, 127296, Note_off_c, 0, 57, 36
1, 127297, Note_on_c, 0, 62, 50
1, 127388, Note_off_c, 0, 64, 1
1, 127389, Note_on_c, 0, 52, 39
1, 127389, Note_on_c, 0, 59, 49
1, 127389, Note_on_c, 0, 64, 41
1, 127390, Note_on_c, 0, 67, 46
1, 127391, Note_off_c, 0, 50, 39
1, 127391, Note_off_c, 0, 62, 50
1, 127391, Note_off_c, 0, 65, 31
1, 127391, Note_off_c, 0, 69, 8
1, 127391, Note_off_c, 0, 72, 7
1, 127391, Note_off_c, 0, 76, 57
1, 127488, Note_off_c, 0, 52, 57
1, 127488, Note_off_c, 0, 59, 57
1, 127488, Note_off_c, 0, 64, 42
1, 127488, Note_off_c, 0, 67, 39
1, 127488, Note_on_c, 0, 69, 54
1, 127489, Note_on_c, 0, 53, 53
1, 127489, Note_on_c, 0, 65, 52
1, 127490, Note_on_c, 0, 72, 60
1, 127521, Note_off_c, 0, 65, 51
1, 127522, Note_off_c, 0, 69, 76
1, 127527, Note_off_c, 0, 72, 77
1, 127540, Note_off_c, 0, 53, 40
1, 127633, Note_on_c, 0, 69, 60
1, 127633, Note_on_c, 0, 72, 55
1, 127634, Note_on_c, 0, 53, 47
1, 127636, Note_on_c, 0, 65, 53
1, 127659, Note_off_c, 0, 69, 80
1, 127666, Note_off_c, 0, 65, 33
1, 127667, Note_off_c, 0, 72, 63
1, 127672, Note_off_c, 0, 53, 46
1, 127775, Note_on_c, 0, 69, 58
1, 127776, Note_on_c, 0, 65, 49
1, 127776, Note_on_c, 0, 72, 61
1, 127779, Note_on_c, 0, 53, 53
1, 127792, Note_off_c, 0, 65, 99
1, 127797, Note_off_c, 0, 69, 100
1, 127803, Note_off_c, 0, 72, 119
1, 127822, Note_off_c, 0, 53, 58
1, 127871, Note_on_c, 0, 71, 57
1, 127872, Note_on_c, 0, 74, 71
1, 127873, Note_on_c, 0, 55, 48
1, 127873, Note_on_c, 0, 67, 47
1, 127901, Note_off_c, 0, 71, 51
1, 127905, Note_off_c, 0, 67, 32
1, 127907, Note_off_c, 0, 55, 60
1, 127911, Note_off_c, 0, 74, 70
1, 128016, Note_on_c, 0, 55, 52
1, 128016, Note_on_c, 0, 71, 49
1, 128016, Note_on_c, 0, 74, 55
1, 128019, Note_on_c, 0, 67, 45
1, 128042, Note_off_c, 0, 71, 56
1, 128046, Note_off_c, 0, 55, 59
1, 128048, Note_off_c, 0, 67, 32
1, 128049, Note_off_c, 0, 74, 48
1, 128158, Note_on_c, 0, 71, 56
1, 128158, Note_on_c, 0, 74, 63
1, 128159, Note_on_c, 0, 67, 53
1, 128162, Note_on_c, 0, 55, 58
1, 128175, Note_off_c, 0, 67, 114
1, 128175, Note_off_c, 0, 71, 122
1, 128187, Note_off_c, 0, 74, 120
1, 128192, Note_off_c, 0, 55, 53
1, 128257, Note_on_c, 0, 57, 40
1, 128257, Note_on_c, 0, 69, 35
1, 128258, Note_on_c, 0, 76, 57
1, 128262, Note_on_c, 0, 72, 62
1, 128285, Note_off_c, 0, 72, 54
1, 128287, Note_off_c, 0, 69, 63
1, 128296, Note_off_c, 0, 57, 48
1, 128301, Note_off_c, 0, 76, 80
1, 128399, Note_on_c, 0, 57, 42
1, 128401, Note_on_c, 0, 69, 55
1, 128402, Note_on_c, 0, 76, 58
1, 128404, Note_on_c, 0, 72, 61
1, 128420, Note_off_c, 0, 72, 52
1, 128436, Note_off_c, 0, 76, 70
1, 128439, Note_off_c, 0, 69, 27
1, 128443, Note_off_c, 0, 57, 41
1, 128542, Note_on_c, 0, 57, 52
1, 128544, Note_on_c, 0, 69, 20
1, 128545, Note_on_c, 0, 76, 45
1, 128546, Note_on_c, 0, 72, 55
1, 128557, Note_off_c, 0, 69, 61
1, 128561, Note_off_c, 0, 72, 115
1, 128564, Note_off_c, 0, 76, 30
1, 128581, Note_off_c, 0, 57, 36
1, 128640, Note_on_c, 0, 72, 60
1, 128641, Note_on_c, 0, 79, 65
1, 128642, Note_on_c, 0, 60, 71
1, 128642, Note_on_c, 0, 76, 58
1, 128661, Note_off_c, 0, 76, 61
1, 128669, Note_off_c, 0, 60, 64
1, 128673, Note_off_c, 0, 72, 54
1, 128678, Note_off_c, 0, 79, 65
1, 128786, Note_on_c, 0, 76, 52
1, 128786, Note_on_c, 0, 79, 58
1, 128787, Note_on_c, 0, 60, 61
1, 128788, Note_on_c, 0, 72, 48
1, 128816, Note_off_c, 0, 60, 60
1, 128816, Note_off_c, 0, 72, 55
1, 128818, Note_off_c, 0, 76, 25
1, 128823, Note_off_c, 0, 79, 68
1, 128927, Note_on_c, 0, 81, 61
1, 128932, Note_on_c, 0, 72, 54
1, 128933, Note_on_c, 0, 60, 68
1, 128933, Note_on_c, 0, 76, 59
1, 128955, Note_off_c, 0, 60, 96
1, 128955, Note_off_c, 0, 76, 58
1, 128956, Note_off_c, 0, 72, 74
1, 128960, Note_off_c, 0, 81, 60
1, 129024, Note_on_c, 0, 57, 100
1, 129026, Note_on_c, 0, 62, 98
1, 129071, Note_on_c, 0, 69, 98
1, 129119, Note_on_c, 0, 76, 100
1, 129214, Note_off_c, 0, 62, 64
1, 129215, Note_on_c, 0, 62, 99
1, 129262, Note_off_c, 0, 69, 64
1, 129263, Note_on_c, 0, 69, 102
1, 129311, Note_on_c, 0, 50, 101
1, 129359, Note_off_c, 0, 50, 64
1, 129359, Note_on_c, 0, 52, 99
1, 129399, Note_off_c, 0, 57, 64
1, 129407, Note_on_c, 0, 48, 102
1, 129407, Note_off_c, 0, 52, 64
1, 129407, Note_off_c, 0, 62, 64
1, 129407, Note_off_c, 0, 76, 64
1, 129408, Note_on_c, 0, 55, 99
1, 129410, Note_on_c, 0, 64, 99
1, 129431, Note_off_c, 0, 69, 64
1, 129503, Note_on_c, 0, 67, 102
1, 129550, Note_off_c, 0, 64, 64
1, 129551, Note_on_c, 0, 64, 100
1, 129646, Note_off_c, 0, 67, 64
1, 129647, Note_on_c, 0, 67, 100
1, 129694, Note_off_c, 0, 64, 64
1, 129695, Note_on_c, 0, 64, 98
1, 129743, Note_on_c, 0, 50, 99
1, 129791, Note_on_c, 0, 45, 102
1, 129791, Note_off_c, 0, 48, 64
1, 129791, Note_off_c, 0, 50, 64
1, 129791, Note_off_c, 0, 55, 64
1, 129791, Note_off_c, 0, 64, 64
1, 129791, Note_off_c, 0, 67, 64
1, 129792, Note_on_c, 0, 57, 100
1, 129794, Note_on_c, 0, 62, 99
1, 129815, Note_on_c, 0, 69, 100
1, 129839, Note_on_c, 0, 72, 101
1, 129887, Note_on_c, 0, 76, 101
1, 129982, Note_off_c, 0, 62, 64
1, 129983, Note_on_c, 0, 62, 101
1, 130030, Note_off_c, 0, 69, 64
1, 130031, Note_on_c, 0, 69, 102
1, 130079, Note_on_c, 0, 50, 102
1, 130127, Note_off_c, 0, 50, 64
1, 130127, Note_on_c, 0, 52, 100
1, 130167, Note_off_c, 0, 57, 64
1, 130175, Note_off_c, 0, 45, 64
1, 130175, Note_on_c, 0, 48, 100
1, 130175, Note_off_c, 0, 52, 64
1, 130175, Note_off_c, 0, 62, 64
1, 130175, Note_off_c, 0, 69, 64
1, 130175, Note_off_c, 0, 72, 64
1, 130175, Note_off_c, 0, 76, 64
1, 130176, Note_on_c, 0, 55, 98
1, 130178, Note_on_c, 0, 64, 99
1, 130271, Note_on_c, 0, 67, 99
1, 130318, Note_off_c, 0, 64, 64
1, 130319, Note_on_c, 0, 64, 102
1, 130414, Note_off_c, 0, 67, 64
1, 130415, Note_on_c, 0, 67, 98
1, 130462, Note_off_c, 0, 64, 64
1, 130463, Note_on_c, 0, 64, 101
1, 130511, Note_on_c, 0, 50, 99
1, 130559, Note_off_c, 0, 48, 64
1, 130559, Note_off_c, 0, 50, 64
1, 130559, Note_off_c, 0, 55, 64
1, 130559, Note_off_c, 0, 64, 64
1, 130559, Note_off_c, 0, 67, 64
1, 130560, Note_on_c, 0, 45, 60
1, 130654, Note_on_c, 0, 52, 24
1, 130654, Note_on_c, 0, 57, 44
1, 130655, Note_on_c, 0, 55, 38
1, 130655, Note_on_c, 0, 60, 47
1, 130656, Note_on_c, 0, 64, 67
1, 130760, Note_off_c, 0, 52, 1
1, 130799, Note_on_c, 0, 52, 47
1, 130802, Note_off_c, 0, 55, 41
1, 130802, Note_off_c, 0, 64, 38
1, 130804, Note_off_c, 0, 60, 54
1, 130805, Note_off_c, 0, 57, 40
1, 130848, Note_on_c, 0, 55, 67
1, 130849, Note_on_c, 0, 57, 56
1, 130849, Note_on_c, 0, 60, 68
1, 130849, Note_on_c, 0, 64, 70
1, 130850, Note_off_c, 0, 52, 64
1, 130895, Note_off_c, 0, 55, 61
1, 130897, Note_on_c, 0, 52, 62
1, 130925, Note_off_c, 0, 45, 73
1, 130944, Note_off_c, 0, 52, 73
1, 130945, Note_on_c, 0, 38, 42
1, 130951, Note_off_c, 0, 64, 50
1, 130952, Note_off_c, 0, 60, 74
1, 130956, Note_off_c, 0, 57, 48
1, 131035, Note_on_c, 0, 45, 40
1, 131040, Note_on_c, 0, 48, 43
1, 131040, Note_on_c, 0, 52, 37
1, 131041, Note_on_c, 0, 53, 33
1, 131041, Note_on_c, 0, 57, 60
1, 131042, Note_on_c, 0, 60, 69
1, 131129, Note_off_c, 0, 45, 3
1, 131179, Note_off_c, 0, 48, 43
1, 131179, Note_off_c, 0, 57, 60
1, 131179, Note_off_c, 0, 60, 55
1, 131181, Note_off_c, 0, 53, 32
1, 131182, Note_on_c, 0, 45, 55
1, 131185, Note_off_c, 0, 52, 46
1, 131232, Note_on_c, 0, 48, 60
1, 131232, Note_on_c, 0, 52, 48
1, 131233, Note_on_c, 0, 53, 30
1, 131233, Note_on_c, 0, 57, 49
1, 131233, Note_on_c, 0, 60, 59
1, 131239, Note_off_c, 0, 45, 51
1, 131277, Note_off_c, 0, 38, 68
1, 131279, Note_off_c, 0, 48, 40
1, 131325, Note_off_c, 0, 52, 74
1, 131327, Note_off_c, 0, 53, 14
1, 131328, Note_on_c, 0, 45, 60
1, 131332, Note_off_c, 0, 57, 67
1, 131334, Note_off_c, 0, 60, 42
1, 131418, Note_on_c, 0, 52, 43
1, 131423, Note_on_c, 0, 55, 45
1, 131423, Note_on_c, 0, 60, 53
1, 131424, Note_on_c, 0, 64, 70
1, 131515, Note_off_c, 0, 52, 11
1, 131553, Note_off_c, 0, 64, 47
1, 131557, Note_off_c, 0, 60, 46
1, 131566, Note_on_c, 0, 52, 43
1, 131567, Note_off_c, 0, 55, 35
1, 131613, Note_off_c, 0, 52, 58
1, 131614, Note_on_c, 0, 55, 61
1, 131615, Note_on_c, 0, 57, 66
1, 131615, Note_on_c, 0, 60, 56
1, 131615, Note_on_c, 0, 64, 67
1, 131662, Note_on_c, 0, 52, 76
1, 131663, Note_off_c, 0, 55, 52
1, 131670, Note_off_c, 0, 45, 67
1, 131712, Note_on_c, 0, 38, 53
1, 131712, Note_off_c, 0, 52, 72
1, 131715, Note_off_c, 0, 64, 60
1, 131717, Note_off_c, 0, 60, 76
1, 131722, Note_off_c, 0, 57, 50
1, 131801, Note_on_c, 0, 45, 30
1, 131807, Note_on_c, 0, 52, 35
1, 131808, Note_on_c, 0, 48, 44
1, 131808, Note_on_c, 0, 53, 30
1, 131809, Note_on_c, 0, 57, 70
1, 131809, Note_on_c, 0, 60, 54
1, 131848, Note_off_c, 0, 45, 13
1, 131940, Note_off_c, 0, 60, 40
1, 131942, Note_off_c, 0, 57, 48
1, 131946, Note_off_c, 0, 53, 36
1, 131951, Note_on_c, 0, 45, 63
1, 131952, Note_off_c, 0, 52, 42
1, 131954, Note_off_c, 0, 48, 45
1, 131999, Note_on_c, 0, 48, 55
1, 131999, Note_on_c, 0, 52, 46
1, 131999, Note_on_c, 0, 53, 40
1, 132000, Note_on_c, 0, 57, 76
1, 132000, Note_on_c, 0, 60, 53
1, 132034, Note_off_c, 0, 45, 41
1, 132047, Note_off_c, 0, 60, 53
1, 132048, Note_on_c, 0, 43, 63
1, 132049, Note_off_c, 0, 53, 35
1, 132050, Note_off_c, 0, 57, 52
1, 132051, Note_off_c, 0, 52, 51
1, 132052, Note_off_c, 0, 48, 52
1, 132056, Note_off_c, 0, 38, 46
1, 132095, Note_off_c, 0, 43, 77
1, 132096, Note_on_c, 0, 38, 57
1, 132098, Note_on_c, 0, 50, 58
1, 132100, Note_on_c, 0, 53, 54
1, 132101, Note_on_c, 0, 57, 71
1, 132102, Note_on_c, 0, 60, 76
1, 132104, Note_on_c, 0, 64, 77
1, 132115, Note_off_c, 0, 38, 68
1, 132123, Note_off_c, 0, 50, 62
1, 132124, Note_off_c, 0, 53, 64
1, 132125, Note_off_c, 0, 57, 80
1, 132127, Note_off_c, 0, 60, 81
1, 132128, Note_off_c, 0, 64, 68
1, 132283, Note_on_c, 0, 43, 63
1, 132286, Note_on_c, 0, 53, 43
1, 132288, Note_on_c, 0, 59, 51
1, 132288, Note_on_c, 0, 62, 57
1, 132288, Note_on_c, 0, 65, 51
1, 132308, Note_off_c, 0, 53, 63
1, 132315, Note_off_c, 0, 62, 46
1, 132315, Note_off_c, 0, 65, 73
1, 132317, Note_off_c, 0, 59, 47
1, 132322, Note_off_c, 0, 43, 62
1, 132383, Note_on_c, 0, 67, 67
1, 132396, Note_off_c, 0, 67, 82
1, 132478, Note_on_c, 0, 36, 49
1, 132482, Note_on_c, 0, 48, 53
1, 132482, Note_on_c, 0, 59, 69
1, 132483, Note_on_c, 0, 52, 39
1, 132483, Note_on_c, 0, 55, 37
1, 132485, Note_on_c, 0, 62, 65
1, 132509, Note_off_c, 0, 48, 38
1, 132510, Note_off_c, 0, 55, 51
1, 132513, Note_off_c, 0, 62, 57
1, 132515, Note_off_c, 0, 59, 53
1, 132518, Note_off_c, 0, 52, 47
1, 132520, Note_off_c, 0, 36, 62
1, 132668, Note_on_c, 0, 45, 69
1, 132671, Note_on_c, 0, 55, 48
1, 132673, Note_on_c, 0, 65, 82
1, 132694, Note_off_c, 0, 65, 83
1, 132695, Note_off_c, 0, 55, 68
1, 132706, Note_off_c, 0, 45, 47
1, 132768, Note_on_c, 0, 64, 77
1, 132777, Note_off_c, 0, 64, 91
1, 132858, Note_on_c, 0, 38, 46
1, 132863, Note_on_c, 0, 50, 48
1, 132864, Note_on_c, 0, 53, 40
1, 132865, Note_on_c, 0, 57, 45
1, 132865, Note_on_c, 0, 60, 51
1, 132866, Note_on_c, 0, 64, 81
1, 132885, Note_off_c, 0, 50, 49
1, 132885, Note_off_c, 0, 53, 66
1, 132885, Note_off_c, 0, 57, 71
1, 132886, Note_off_c, 0, 38, 72
1, 132888, Note_off_c, 0, 60, 73
1, 132889, Note_off_c, 0, 64, 73
1, 133055, Note_on_c, 0, 43, 75
1, 133056, Note_on_c, 0, 53, 30
1, 133057, Note_on_c, 0, 62, 67
1, 133074, Note_off_c, 0, 43, 72
1, 133082, Note_off_c, 0, 53, 47
1, 133083, Note_off_c, 0, 62, 35
1, 133153, Note_on_c, 0, 47, 70
1, 133153, Note_on_c, 0, 53, 61
1, 133153, Note_on_c, 0, 62, 70
1, 133165, Note_off_c, 0, 53, 76
1, 133169, Note_off_c, 0, 47, 59
1, 133169, Note_off_c, 0, 62, 64
1, 133245, Note_on_c, 0, 36, 58
1, 133247, Note_on_c, 0, 48, 41
1, 133248, Note_on_c, 0, 59, 68
1, 133249, Note_on_c, 0, 62, 51
1, 133249, Note_on_c, 0, 64, 36
1, 133252, Note_on_c, 0, 67, 68
1, 133278, Note_off_c, 0, 48, 42
1, 133279, Note_off_c, 0, 67, 52
1, 133285, Note_off_c, 0, 62, 63
1, 133286, Note_off_c, 0, 36, 49
1, 133286, Note_off_c, 0, 64, 65
1, 133289, Note_off_c, 0, 59, 54
1, 133392, Note_on_c, 0, 36, 64
1, 133402, Note_off_c, 0, 36, 78
1, 133440, Note_on_c, 0, 45, 54
1, 133440, Note_on_c, 0, 55, 59
1, 133441, Note_on_c, 0, 65, 61
1, 133465, Note_off_c, 0, 55, 50
1, 133467, Note_off_c, 0, 65, 56
1, 133470, Note_off_c, 0, 45, 60
1, 133534, Note_on_c, 0, 65, 55
1, 133539, Note_off_c, 0, 65, 73
1, 133539, Note_on_c, 0, 67, 72
1, 133568, Note_off_c, 0, 67, 2
1, 133586, Note_on_c, 0, 65, 81
1, 133598, Note_off_c, 0, 65, 94
1, 133632, Note_on_c, 0, 48, 35
1, 133632, Note_on_c, 0, 60, 50
1, 133632, Note_on_c, 0, 64, 49
1, 133632, Note_on_c, 0, 67, 56
1, 133632, Note_on_c, 0, 71, 81
1, 133822, Note_off_c, 0, 64, 33
1, 133822, Note_on_c, 0, 74, 61
1, 133823, Note_on_c, 0, 64, 47
1, 134014, Note_on_c, 0, 52, 34
1, 134015, Note_off_c, 0, 64, 57
1, 134016, Note_on_c, 0, 64, 48
1, 134016, Note_off_c, 0, 71, 39
1, 134017, Note_on_c, 0, 68, 23
1, 134017, Note_on_c, 0, 71, 56
1, 134018, Note_off_c, 0, 60, 51
1, 134018, Note_off_c, 0, 67, 39
1, 134018, Note_off_c, 0, 74, 69
1, 134024, Note_off_c, 0, 48, 55
1, 134204, Note_off_c, 0, 64, 43
1, 134204, Note_on_c, 0, 64, 40
1, 134204, Note_off_c, 0, 68, 14
1, 134204, Note_on_c, 0, 68, 36
1, 134204, Note_on_c, 0, 74, 85
1, 134302, Note_on_c, 0, 76, 69
1, 134395, Note_on_c, 0, 53, 41
1, 134396, Note_off_c, 0, 52, 71
1, 134396, Note_off_c, 0, 64, 54
1, 134396, Note_off_c, 0, 68, 18
1, 134396, Note_off_c, 0, 71, 56
1, 134396, Note_off_c, 0, 74, 30
1, 134396, Note_off_c, 0, 76, 54
1, 134399, Note_on_c, 0, 65, 45
1, 134399, Note_on_c, 0, 69, 55
1, 134399, Note_on_c, 0, 72, 62
1, 134591, Note_on_c, 0, 76, 58
1, 134772, Note_off_c, 0, 65, 45
1, 134772, Note_off_c, 0, 69, 48
1, 134772, Note_off_c, 0, 72, 31
1, 134772, Note_off_c, 0, 76, 54
1, 134779, Note_on_c, 0, 65, 42
1, 134780, Note_on_c, 0, 68, 33
1, 134781, Note_on_c, 0, 74, 80
1, 134783, Note_off_c, 0, 53, 54
1, 134784, Note_on_c, 0, 53, 36
1, 134974, Note_off_c, 0, 53, 46
1, 134974, Note_off_c, 0, 65, 39
1, 134974, Note_off_c, 0, 68, 8
1, 134975, Note_on_c, 0, 53, 40
1, 134975, Note_on_c, 0, 65, 38
1, 134975, Note_on_c, 0, 68, 37
1, 134975, Note_on_c, 0, 72, 77
1, 135163, Note_off_c, 0, 53, 54
1, 135163, Note_off_c, 0, 65, 35
1, 135163, Note_off_c, 0, 68, 13
1, 135163, Note_off_c, 0, 72, 39
1, 135163, Note_off_c, 0, 74, 36
1, 135168, Note_on_c, 0, 60, 65
1, 135168, Note_on_c, 0, 64, 62
1, 135168, Note_on_c, 0, 67, 67
1, 135168, Note_on_c, 0, 72, 80
1, 135218, Note_on_c, 0, 71, 89
1, 135290, Note_off_c, 0, 71, 67
1, 135290, Note_on_c, 0, 71, 102
1, 135337, Note_off_c, 0, 71, 73
1, 135338, Note_on_c, 0, 71, 100
1, 135452, Note_off_c, 0, 71, 76
1, 135453, Note_on_c, 0, 71, 103
1, 135503, Note_off_c, 0, 71, 47
1, 135504, Note_on_c, 0, 71, 85
1, 135550, Note_off_c, 0, 72, 53
1, 135551, Note_on_c, 0, 57, 60
1, 135551, Note_off_c, 0, 64, 75
1, 135551, Note_on_c, 0, 72, 84
1, 135552, Note_off_c, 0, 60, 36
1, 135552, Note_on_c, 0, 60, 46
1, 135552, Note_on_c, 0, 64, 48
1, 135553, Note_off_c, 0, 71, 45
1, 135554, Note_off_c, 0, 67, 24
1, 135600, Note_on_c, 0, 71, 89
1, 135673, Note_off_c, 0, 71, 52
1, 135674, Note_on_c, 0, 71, 85
1, 135721, Note_on_c, 0, 67, 85
1, 135836, Note_off_c, 0, 60, 40
1, 135836, Note_off_c, 0, 64, 34
1, 135836, Note_off_c, 0, 67, 44
1, 135837, Note_off_c, 0, 57, 43
1, 135837, Note_on_c, 0, 60, 48
1, 135837, Note_on_c, 0, 64, 44
1, 135837, Note_on_c, 0, 67, 74
1, 135838, Note_on_c, 0, 57, 55
1, 135887, Note_off_c, 0, 71, 67
1, 135887, Note_on_c, 0, 71, 82
1, 135933, Note_off_c, 0, 60, 62
1, 135933, Note_off_c, 0, 64, 43
1, 135933, Note_off_c, 0, 72, 52
1, 135934, Note_on_c, 0, 60, 73
1, 135934, Note_on_c, 0, 64, 59
1, 135934, Note_off_c, 0, 67, 10
1, 135934, Note_on_c, 0, 72, 87
1, 135935, Note_on_c, 0, 67, 60
1, 135936, Note_off_c, 0, 57, 62
1, 135936, Note_off_c, 0, 71, 51
1, 135983, Note_on_c, 0, 71, 84
1, 136056, Note_on_c, 0, 74, 89
1, 136103, Note_off_c, 0, 71, 50
1, 136104, Note_on_c, 0, 71, 93
1, 136220, Note_off_c, 0, 67, 38
1, 136220, Note_off_c, 0, 71, 52
1, 136221, Note_on_c, 0, 67, 65
1, 136221, Note_on_c, 0, 71, 83
1, 136271, Note_off_c, 0, 71, 47
1, 136272, Note_on_c, 0, 71, 85
1, 136318, Note_off_c, 0, 60, 40
1, 136318, Note_off_c, 0, 64, 61
1, 136319, Note_on_c, 0, 60, 69
1, 136319, Note_on_c, 0, 64, 73
1, 136319, Note_off_c, 0, 72, 57
1, 136320, Note_on_c, 0, 57, 77
1, 136320, Note_on_c, 0, 72, 76
1, 136323, Note_off_c, 0, 67, 39
1, 136323, Note_off_c, 0, 71, 46
1, 136323, Note_off_c, 0, 74, 67
1, 136369, Note_on_c, 0, 71, 99
1, 136441, Note_off_c, 0, 71, 50
1, 136442, Note_on_c, 0, 71, 86
1, 136489, Note_on_c, 0, 67, 95
1, 136605, Note_on_c, 0, 55, 75
1, 136605, Note_off_c, 0, 57, 43
1, 136605, Note_on_c, 0, 59, 74
1, 136605, Note_off_c, 0, 60, 68
1, 136605, Note_on_c, 0, 62, 66
1, 136605, Note_off_c, 0, 64, 41
1, 136605, Note_off_c, 0, 67, 45
1, 136605, Note_on_c, 0, 69, 52
1, 136605, Note_off_c, 0, 71, 55
1, 136605, Note_off_c, 0, 72, 51
1, 136608, Note_on_c, 0, 65, 52
1, 136655, Note_on_c, 0, 71, 89
1, 136703, Note_off_c, 0, 55, 49
1, 136703, Note_off_c, 0, 59, 72
1, 136703, Note_off_c, 0, 62, 57
1, 136703, Note_off_c, 0, 65, 64
1, 136703, Note_off_c, 0, 69, 43
1, 136703, Note_off_c, 0, 71, 75
1, 136704, Note_on_c, 0, 45, 80
1, 136704, Note_on_c, 0, 52, 71
1, 136704, Note_on_c, 0, 55, 60
1, 136800, Note_on_c, 0, 48, 58
1, 136800, Note_off_c, 0, 52, 45
1, 136800, Note_off_c, 0, 55, 30
1, 136896, Note_off_c, 0, 48, 15
1, 136896, Note_on_c, 0, 52, 71
1, 136896, Note_on_c, 0, 55, 67
1, 136896, Note_on_c, 0, 59, 90
1, 136992, Note_off_c, 0, 45, 35
1, 136992, Note_on_c, 0, 48, 62
1, 136992, Note_off_c, 0, 55, 40
1, 136992, Note_off_c, 0, 59, 70
1, 137087, Note_off_c, 0, 48, 31
1, 137087, Note_off_c, 0, 52, 46
1, 137088, Note_on_c, 0, 41, 78
1, 137088, Note_on_c, 0, 48, 67
1, 137088, Note_on_c, 0, 52, 62
1, 137184, Note_on_c, 0, 45, 58
1, 137279, Note_off_c, 0, 52, 39
1, 137280, Note_on_c, 0, 52, 59
1, 137280, Note_on_c, 0, 55, 70
1, 137376, Note_off_c, 0, 41, 41
1, 137471, Note_off_c, 0, 45, 53
1, 137471, Note_off_c, 0, 52, 39
1, 137471, Note_off_c, 0, 55, 24
1, 137472, Note_on_c, 0, 45, 78
1, 137472, Note_off_c, 0, 48, 28
1, 137472, Note_on_c, 0, 52, 54
1, 137472, Note_on_c, 0, 55, 64
1, 137568, Note_on_c, 0, 48, 65
1, 137568, Note_off_c, 0, 52, 36
1, 137568, Note_off_c, 0, 55, 25
1, 137664, Note_on_c, 0, 52, 67
1, 137664, Note_on_c, 0, 55, 46
1, 137664, Note_on_c, 0, 59, 85
1, 137759, Note_off_c, 0, 48, 32
1, 137760, Note_off_c, 0, 45, 78
1, 137760, Note_on_c, 0, 48, 38
1, 137760, Note_off_c, 0, 55, 38
1, 137760, Note_off_c, 0, 59, 60
1, 137855, Note_off_c, 0, 48, 40
1, 137855, Note_off_c, 0, 52, 54
1, 137856, Note_on_c, 0, 41, 68
1, 137856, Note_on_c, 0, 48, 62
1, 137856, Note_on_c, 0, 52, 62
1, 137952, Note_off_c, 0, 41, 5
1, 137952, Note_on_c, 0, 45, 57
1, 138048, Note_on_c, 0, 43, 53
1, 138048, Note_off_c, 0, 45, 42
1, 138048, Note_on_c, 0, 47, 74
1, 138048, Note_off_c, 0, 48, 41
1, 138048, Note_on_c, 0, 50, 83
1, 138048, Note_off_c, 0, 52, 49
1, 138143, Note_off_c, 0, 43, 26
1, 138144, Note_on_c, 0, 43, 67
1, 138240, Note_off_c, 0, 43, 22
1, 138240, Note_off_c, 0, 47, 64
1, 138240, Note_off_c, 0, 50, 57
1, 138240, Note_on_c, 0, 65, 59
1, 138240, Note_on_c, 0, 69, 67
1, 138240, Note_on_c, 0, 76, 67
1, 138267, Note_off_c, 0, 76, 52
1, 138271, Note_off_c, 0, 65, 21
1, 138282, Note_off_c, 0, 69, 45
1, 138335, Note_on_c, 0, 65, 56
1, 138336, Note_on_c, 0, 69, 53
1, 138336, Note_on_c, 0, 74, 51
1, 138366, Note_off_c, 0, 65, 27
1, 138370, Note_off_c, 0, 74, 47
1, 138380, Note_off_c, 0, 69, 39
1, 138383, Note_on_c, 0, 72, 54
1, 138418, Note_off_c, 0, 72, 30
1, 138430, Note_on_c, 0, 65, 64
1, 138431, Note_on_c, 0, 69, 78
1, 138459, Note_off_c, 0, 65, 28
1, 138475, Note_off_c, 0, 69, 50
1, 138624, Note_on_c, 0, 65, 69
1, 138624, Note_on_c, 0, 76, 54
1, 138625, Note_on_c, 0, 69, 55
1, 138655, Note_off_c, 0, 65, 30
1, 138655, Note_off_c, 0, 76, 54
1, 138661, Note_off_c, 0, 69, 47
1, 138719, Note_on_c, 0, 65, 65
1, 138719, Note_on_c, 0, 69, 61
1, 138719, Note_on_c, 0, 74, 72
1, 138746, Note_off_c, 0, 65, 31
1, 138747, Note_off_c, 0, 74, 53
1, 138757, Note_off_c, 0, 69, 40
1, 138767, Note_on_c, 0, 72, 54
1, 138805, Note_off_c, 0, 72, 36
1, 138814, Note_on_c, 0, 65, 71
1, 138815, Note_on_c, 0, 69, 76
1, 138839, Note_off_c, 0, 65, 47
1, 138845, Note_off_c, 0, 69, 66
1, 139007, Note_on_c, 0, 69, 78
1, 139007, Note_on_c, 0, 72, 52
1, 139007, Note_on_c, 0, 79, 82
1, 139038, Note_off_c, 0, 79, 46
1, 139050, Note_off_c, 0, 69, 48
1, 139059, Note_off_c, 0, 72, 9
1, 139103, Note_on_c, 0, 69, 72
1, 139103, Note_on_c, 0, 76, 78
1, 139104, Note_on_c, 0, 72, 28
1, 139137, Note_off_c, 0, 76, 63
1, 139140, Note_off_c, 0, 69, 45
1, 139151, Note_on_c, 0, 74, 70
1, 139162, Note_off_c, 0, 72, 17
1, 139190, Note_off_c, 0, 74, 43
1, 139199, Note_on_c, 0, 69, 75
1, 139199, Note_on_c, 0, 72, 69
1, 139233, Note_off_c, 0, 69, 51
1, 139243, Note_off_c, 0, 72, 17
1, 139392, Note_on_c, 0, 67, 54
1, 139392, Note_on_c, 0, 71, 61
1, 139392, Note_on_c, 0, 79, 74
1, 139421, Note_off_c, 0, 67, 25
1, 139428, Note_off_c, 0, 79, 30
1, 139436, Note_off_c, 0, 71, 39
1, 139488, Note_on_c, 0, 67, 39
1, 139488, Note_on_c, 0, 71, 56
1, 139488, Note_on_c, 0, 76, 75
1, 139520, Note_off_c, 0, 67, 28
1, 139524, Note_off_c, 0, 76, 66
1, 139527, Note_off_c, 0, 71, 44
1, 139535, Note_on_c, 0, 74, 74
1, 139563, Note_off_c, 0, 74, 56
1, 139582, Note_on_c, 0, 72, 69
1, 139584, Note_on_c, 0, 67, 57
1, 139584, Note_on_c, 0, 71, 67
1, 139614, Note_off_c, 0, 67, 25
1, 139614, Note_off_c, 0, 72, 22
1, 139626, Note_off_c, 0, 71, 41
1, 139776, Note_on_c, 0, 29, 8
1, 139776, Note_on_c, 0, 41, 24
1, 139776, Note_on_c, 0, 53, 24
1, 139824, Note_on_c, 0, 45, 24
1, 139872, Note_off_c, 0, 45, 64
1, 139872, Note_on_c, 0, 48, 24
1, 139920, Note_on_c, 0, 45, 24
1, 140064, Note_on_c, 0, 28, 8
1, 140064, Note_off_c, 0, 29, 64
1, 140064, Note_on_c, 0, 40, 24
1, 140064, Note_off_c, 0, 41, 64
1, 140064, Note_off_c, 0, 53, 64
1, 140088, Note_on_c, 0, 55, 24
1, 140112, Note_on_c, 0, 59, 24
1, 140160, Note_off_c, 0, 28, 64
1, 140160, Note_on_c, 0, 29, 8
1, 140160, Note_off_c, 0, 40, 64
1, 140160, Note_on_c, 0, 41, 24
1, 140160, Note_off_c, 0, 45, 64
1, 140160, Note_off_c, 0, 48, 64
1, 140160, Note_on_c, 0, 53, 24
1, 140160, Note_off_c, 0, 55, 64
1, 140160, Note_off_c, 0, 59, 64
1, 140208, Note_on_c, 0, 45, 24
1, 140256, Note_off_c, 0, 45, 64
1, 140256, Note_on_c, 0, 48, 24
1, 140304, Note_on_c, 0, 45, 24
1, 140448, Note_on_c, 0, 28, 8
1, 140448, Note_off_c, 0, 29, 64
1, 140448, Note_on_c, 0, 40, 24
1, 140448, Note_off_c, 0, 41, 64
1, 140448, Note_off_c, 0, 53, 64
1, 140472, Note_on_c, 0, 55, 24
1, 140496, Note_on_c, 0, 59, 24
1, 140544, Note_off_c, 0, 28, 64
1, 140544, Note_on_c, 0, 33, 24
1, 140544, Note_off_c, 0, 40, 64
1, 140544, Note_off_c, 0, 45, 64
1, 140544, Note_off_c, 0, 48, 64
1, 140544, Note_off_c, 0, 55, 64
1, 140544, Note_off_c, 0, 59, 64
1, 140568, Note_on_c, 0, 60, 24
1, 140592, Note_on_c, 0, 45, 24
1, 140592, Note_on_c, 0, 48, 24
1, 140616, Note_off_c, 0, 60, 64
1, 140735, Note_off_c, 0, 33, 64
1, 140736, Note_on_c, 0, 33, 29
1, 140736, Note_off_c, 0, 45, 64
1, 140736, Note_off_c, 0, 48, 64
1, 140736, Note_on_c, 0, 64, 15
1, 140784, Note_on_c, 0, 62, 11
1, 140784, Note_off_c, 0, 64, 64
1, 140832, Note_on_c, 0, 29, 24
1, 140832, Note_off_c, 0, 33, 64
1, 140832, Note_on_c, 0, 45, 24
1, 140832, Note_on_c, 0, 48, 24
1, 140832, Note_on_c, 0, 60, 11
1, 140832, Note_off_c, 0, 62, 64
1, 140880, Note_on_c, 0, 59, 11
1, 140880, Note_off_c, 0, 60, 64
1, 140928, Note_off_c, 0, 29, 64
1, 140928, Note_on_c, 0, 33, 24
1, 140928, Note_off_c, 0, 45, 64
1, 140928, Note_off_c, 0, 48, 64
1, 140928, Note_off_c, 0, 59, 64
1, 140952, Note_on_c, 0, 60, 24
1, 140976, Note_on_c, 0, 45, 24
1, 140976, Note_on_c, 0, 48, 24
1, 141000, Note_off_c, 0, 60, 64
1, 141120, Note_off_c, 0, 33, 64
1, 141120, Note_on_c, 0, 35, 8
1, 141120, Note_off_c, 0, 45, 64
1, 141120, Note_off_c, 0, 48, 64
1, 141120, Note_on_c, 0, 64, 15
1, 141165, Note_off_c, 0, 35, 64
1, 141168, Note_on_c, 0, 36, 5
1, 141168, Note_on_c, 0, 62, 11
1, 141168, Note_off_c, 0, 64, 64
1, 141213, Note_off_c, 0, 36, 64
1, 141216, Note_on_c, 0, 29, 24
1, 141216, Note_on_c, 0, 41, 24
1, 141216, Note_on_c, 0, 60, 11
1, 141216, Note_off_c, 0, 62, 64
1, 141264, Note_on_c, 0, 59, 11
1, 141264, Note_off_c, 0, 60, 64
1, 141311, Note_off_c, 0, 29, 64
1, 141311, Note_off_c, 0, 41, 64
1, 141312, Note_on_c, 0, 45, 112
1, 141312, Note_on_c, 0, 57, 112
1, 141312, Note_off_c, 0, 59, 64
1, 141312, Note_on_c, 0, 79, 106
1, 141408, Note_on_c, 0, 60, 112
1, 141504, Note_on_c, 0, 64, 112
1, 141504, Note_on_c, 0, 72, 106
1, 141504, Note_off_c, 0, 79, 64
1, 141600, Note_off_c, 0, 60, 64
1, 141696, Note_on_c, 0, 40, 112
1, 141696, Note_off_c, 0, 45, 64
1, 141696, Note_on_c, 0, 52, 112
1, 141696, Note_off_c, 0, 57, 64
1, 141696, Note_off_c, 0, 64, 64
1, 141696, Note_off_c, 0, 72, 64
1, 141696, Note_on_c, 0, 79, 106
1, 141792, Note_on_c, 0, 55, 112
1, 141888, Note_on_c, 0, 59, 112
1, 141888, Note_on_c, 0, 72, 106
1, 141888, Note_off_c, 0, 79, 64
1, 141984, Note_off_c, 0, 55, 64
1, 142080, Note_off_c, 0, 40, 64
1, 142080, Note_on_c, 0, 41, 112
1, 142080, Note_off_c, 0, 52, 64
1, 142080, Note_on_c, 0, 53, 112
1, 142080, Note_off_c, 0, 59, 64
1, 142080, Note_off_c, 0, 72, 64
1, 142080, Note_on_c, 0, 79, 106
1, 142176, Note_on_c, 0, 57, 112
1, 142272, Note_on_c, 0, 60, 112
1, 142272, Note_on_c, 0, 72, 106
1, 142272, Note_off_c, 0, 79, 64
1, 142368, Note_off_c, 0, 57, 64
1, 142463, Note_off_c, 0, 53, 64
1, 142464, Note_on_c, 0, 53, 112
1, 142464, Note_off_c, 0, 60, 64
1, 142464, Note_on_c, 0, 64, 106
1, 142464, Note_off_c, 0, 72, 64
1, 142464, Note_on_c, 0, 79, 106
1, 142560, Note_on_c, 0, 57, 112
1, 142656, Note_on_c, 0, 60, 112
1, 142656, Note_off_c, 0, 64, 64
1, 142656, Note_on_c, 0, 72, 106
1, 142656, Note_off_c, 0, 79, 64
1, 142752, Note_off_c, 0, 57, 64
1, 142848, Note_off_c, 0, 41, 64
1, 142848, Note_on_c, 0, 48, 120
1, 142848, Note_off_c, 0, 53, 64
1, 142848, Note_off_c, 0, 60, 64
1, 142848, Note_on_c, 0, 63, 120
1, 142848, Note_off_c, 0, 72, 64
1, 142896, Note_off_c, 0, 63, 64
1, 142944, Note_on_c, 0, 55, 120
1, 142944, Note_on_c, 0, 58, 120
1, 143040, Note_off_c, 0, 58, 64
1, 143040, Note_on_c, 0, 65, 120
1, 143136, Note_off_c, 0, 55, 64
1, 143136, Note_on_c, 0, 60, 120
1, 143136, Note_off_c, 0, 65, 64
1, 143136, Note_on_c, 0, 67, 120
1, 143184, Note_off_c, 0, 48, 64
1, 143232, Note_on_c, 0, 48, 120
1, 143232, Note_on_c, 0, 63, 120
1, 143280, Note_off_c, 0, 63, 64
1, 143328, Note_on_c, 0, 55, 120
1, 143328, Note_on_c, 0, 58, 120
1, 143328, Note_off_c, 0, 60, 64
1, 143328, Note_off_c, 0, 67, 64
1, 143423, Note_off_c, 0, 58, 64
1, 143424, Note_on_c, 0, 58, 120
1, 143424, Note_on_c, 0, 65, 120
1, 143520, Note_off_c, 0, 55, 64
1, 143520, Note_off_c, 0, 58, 64
1, 143520, Note_on_c, 0, 60, 120
1, 143520, Note_off_c, 0, 65, 64
1, 143520, Note_on_c, 0, 67, 120
1, 143568, Note_off_c, 0, 48, 64
1, 143616, Note_on_c, 0, 44, 120
1, 143616, Note_off_c, 0, 60, 64
1, 143616, Note_on_c, 0, 63, 120
1, 143616, Note_off_c, 0, 67, 64
1, 143712, Note_on_c, 0, 51, 120
1, 143712, Note_on_c, 0, 58, 120
1, 143712, Note_off_c, 0, 63, 64
1, 143808, Note_off_c, 0, 51, 64
1, 143808, Note_on_c, 0, 55, 120
1, 143808, Note_off_c, 0, 58, 64
1, 143808, Note_on_c, 0, 65, 120
1, 143904, Note_off_c, 0, 55, 64
1, 143904, Note_on_c, 0, 58, 120
1, 143904, Note_off_c, 0, 65, 64
1, 143904, Note_on_c, 0, 67, 120
1, 143952, Note_off_c, 0, 44, 64
1, 144000, Note_on_c, 0, 43, 120
1, 144000, Note_off_c, 0, 58, 64
1, 144000, Note_on_c, 0, 62, 120
1, 144000, Note_off_c, 0, 67, 64
1, 144096, Note_on_c, 0, 50, 120
1, 144096, Note_on_c, 0, 58, 120
1, 144096, Note_off_c, 0, 62, 64
1, 144191, Note_off_c, 0, 58, 64
1, 144192, Note_off_c, 0, 50, 64
1, 144192, Note_on_c, 0, 53, 120
1, 144192, Note_on_c, 0, 58, 120
1, 144192, Note_on_c, 0, 65, 120
1, 144288, Note_off_c, 0, 53, 64
1, 144288, Note_on_c, 0, 55, 120
1, 144288, Note_off_c, 0, 58, 64
1, 144288, Note_off_c, 0, 65, 64
1, 144288, Note_on_c, 0, 67, 120
1, 144336, Note_off_c, 0, 43, 64
1, 144384, Note_on_c, 0, 41, 28
1, 144384, Note_off_c, 0, 55, 64
1, 144384, Note_on_c, 0, 57, 69
1, 144384, Note_off_c, 0, 67, 64
1, 144432, Note_off_c, 0, 41, 21
1, 144432, Note_off_c, 0, 57, 51
1, 144479, Note_on_c, 0, 48, 56
1, 144479, Note_on_c, 0, 60, 47
1, 144527, Note_off_c, 0, 48, 21
1, 144527, Note_off_c, 0, 60, 24
1, 144575, Note_on_c, 0, 53, 55
1, 144575, Note_on_c, 0, 57, 60
1, 144575, Note_on_c, 0, 64, 67
1, 144623, Note_off_c, 0, 53, 26
1, 144623, Note_off_c, 0, 57, 1
1, 144623, Note_off_c, 0, 64, 69
1, 144671, Note_on_c, 0, 55, 45
1, 144671, Note_on_c, 0, 57, 73
1, 144671, Note_on_c, 0, 67, 80
1, 144719, Note_off_c, 0, 55, 45
1, 144719, Note_off_c, 0, 57, 42
1, 144719, Note_off_c, 0, 67, 32
1, 144766, Note_on_c, 0, 41, 66
1, 144767, Note_on_c, 0, 57, 68
1, 144814, Note_off_c, 0, 41, 18
1, 144815, Note_off_c, 0, 57, 45
1, 144863, Note_on_c, 0, 48, 67
1, 144863, Note_on_c, 0, 60, 70
1, 144911, Note_off_c, 0, 48, 23
1, 144911, Note_off_c, 0, 60, 39
1, 144959, Note_on_c, 0, 57, 51
1, 144959, Note_on_c, 0, 64, 58
1, 144960, Note_on_c, 0, 53, 65
1, 145007, Note_off_c, 0, 57, 41
1, 145007, Note_off_c, 0, 64, 69
1, 145008, Note_off_c, 0, 53, 36
1, 145055, Note_on_c, 0, 43, 66
1, 145055, Note_on_c, 0, 57, 75
1, 145055, Note_on_c, 0, 67, 80
1, 145103, Note_off_c, 0, 43, 42
1, 145103, Note_off_c, 0, 57, 57
1, 145103, Note_off_c, 0, 67, 31
1, 145151, Note_on_c, 0, 45, 76
1, 145151, Note_on_c, 0, 60, 51
1, 145199, Note_off_c, 0, 45, 46
1, 145199, Note_off_c, 0, 60, 19
1, 145247, Note_on_c, 0, 52, 69
1, 145247, Note_on_c, 0, 64, 86
1, 145295, Note_off_c, 0, 52, 44
1, 145295, Note_off_c, 0, 64, 66
1, 145343, Note_on_c, 0, 59, 56
1, 145343, Note_on_c, 0, 60, 60
1, 145343, Note_on_c, 0, 67, 81
1, 145391, Note_off_c, 0, 59, 53
1, 145391, Note_off_c, 0, 60, 24
1, 145391, Note_off_c, 0, 67, 20
1, 145440, Note_on_c, 0, 60, 59
1, 145440, Note_on_c, 0, 71, 93
1, 145488, Note_off_c, 0, 60, 32
1, 145488, Note_off_c, 0, 71, 74
1, 145535, Note_on_c, 0, 43, 49
1, 145535, Note_on_c, 0, 59, 74
1, 145583, Note_off_c, 0, 43, 28
1, 145583, Note_off_c, 0, 59, 46
1, 145631, Note_on_c, 0, 59, 43
1, 145631, Note_on_c, 0, 62, 72
1, 145679, Note_off_c, 0, 59, 1
1, 145679, Note_off_c, 0, 62, 73
1, 145727, Note_on_c, 0, 55, 65
1, 145727, Note_on_c, 0, 59, 65
1, 145727, Note_on_c, 0, 67, 77
1, 145775, Note_off_c, 0, 55, 17
1, 145775, Note_off_c, 0, 59, 41
1, 145775, Note_off_c, 0, 67, 38
1, 145823, Note_on_c, 0, 50, 82
1, 145823, Note_on_c, 0, 59, 70
1, 145823, Note_on_c, 0, 69, 80
1, 145871, Note_off_c, 0, 50, 33
1, 145871, Note_off_c, 0, 59, 32
1, 145871, Note_off_c, 0, 69, 49
1, 145919, Note_on_c, 0, 41, 60
1, 145919, Note_on_c, 0, 57, 71
1, 145920, Note_off_c, 0, 41, 27
1, 145920, Note_on_c, 0, 45, 60
1, 145920, Note_off_c, 0, 57, 42
1, 145920, Note_on_c, 0, 57, 68
1, 145920, Note_on_c, 0, 60, 47
1, 145920, Note_on_c, 0, 64, 56
1, 145964, Note_off_c, 0, 64, 46
1, 145969, Note_off_c, 0, 45, 37
1, 145971, Note_off_c, 0, 60, 18
1, 145973, Note_off_c, 0, 57, 46
1, 146016, Note_on_c, 0, 48, 46
1, 146061, Note_off_c, 0, 48, 22
1, 146112, Note_on_c, 0, 52, 50
1, 146112, Note_on_c, 0, 57, 71
1, 146112, Note_on_c, 0, 60, 50
1, 146112, Note_on_c, 0, 64, 50
1, 146112, Note_on_c, 0, 72, 61
1, 146152, Note_off_c, 0, 52, 48
1, 146153, Note_off_c, 0, 64, 33
1, 146161, Note_off_c, 0, 57, 44
1, 146163, Note_off_c, 0, 60, 19
1, 146165, Note_off_c, 0, 72, 29
1, 146208, Note_on_c, 0, 48, 52
1, 146243, Note_off_c, 0, 48, 19
1, 146304, Note_on_c, 0, 45, 60
1, 146304, Note_on_c, 0, 57, 57
1, 146304, Note_on_c, 0, 60, 35
1, 146304, Note_on_c, 0, 64, 45
1, 146304, Note_on_c, 0, 71, 57
1, 146342, Note_off_c, 0, 64, 45
1, 146350, Note_off_c, 0, 60, 38
1, 146352, Note_off_c, 0, 45, 35
1, 146358, Note_off_c, 0, 57, 71
1, 146361, Note_off_c, 0, 71, 48
1, 146400, Note_on_c, 0, 48, 62
1, 146424, Note_off_c, 0, 48, 65
1, 146496, Note_on_c, 0, 43, 68
1, 146496, Note_on_c, 0, 55, 60
1, 146496, Note_on_c, 0, 59, 58
1, 146496, Note_on_c, 0, 62, 60
1, 146496, Note_on_c, 0, 72, 61
1, 146534, Note_off_c, 0, 59, 65
1, 146538, Note_off_c, 0, 72, 38
1, 146544, Note_off_c, 0, 55, 38
1, 146546, Note_off_c, 0, 43, 11
1, 146547, Note_off_c, 0, 62, 50
1, 146592, Note_on_c, 0, 47, 68
1, 146618, Note_off_c, 0, 47, 76
1, 146688, Note_on_c, 0, 48, 64
1, 146688, Note_on_c, 0, 60, 69
1, 146688, Note_on_c, 0, 64, 62
1, 146688, Note_on_c, 0, 67, 32
1, 146717, Note_off_c, 0, 48, 32
1, 146739, Note_off_c, 0, 67, 25
1, 146741, Note_off_c, 0, 60, 37
1, 146745, Note_off_c, 0, 64, 64
1, 146784, Note_on_c, 0, 52, 75
1, 146824, Note_off_c, 0, 52, 39
1, 146880, Note_on_c, 0, 55, 67
1, 146880, Note_on_c, 0, 60, 54
1, 146880, Note_on_c, 0, 64, 69
1, 146880, Note_on_c, 0, 67, 37
1, 146880, Note_on_c, 0, 72, 54
1, 146911, Note_off_c, 0, 55, 27
1, 146919, Note_off_c, 0, 60, 26
1, 146936, Note_off_c, 0, 64, 47
1, 146947, Note_off_c, 0, 67, 32
1, 146949, Note_off_c, 0, 72, 28
1, 146976, Note_on_c, 0, 52, 67
1, 146999, Note_off_c, 0, 52, 48
1, 147072, Note_on_c, 0, 50, 45
1, 147072, Note_on_c, 0, 62, 43
1, 147072, Note_on_c, 0, 65, 26
1, 147072, Note_on_c, 0, 69, 55
1, 147072, Note_on_c, 0, 71, 66
1, 147113, Note_off_c, 0, 50, 57
1, 147142, Note_off_c, 0, 69, 39
1, 147144, Note_off_c, 0, 65, 16
1, 147145, Note_off_c, 0, 62, 48
1, 147151, Note_off_c, 0, 71, 51
1, 147168, Note_on_c, 0, 53, 58
1, 147205, Note_off_c, 0, 53, 26
1, 147264, Note_on_c, 0, 57, 62
1, 147264, Note_on_c, 0, 62, 50
1, 147264, Note_on_c, 0, 65, 22
1, 147264, Note_on_c, 0, 69, 47
1, 147264, Note_on_c, 0, 74, 61
1, 147327, Note_off_c, 0, 69, 52
1, 147328, Note_off_c, 0, 65, 30
1, 147333, Note_off_c, 0, 74, 57
1, 147334, Note_off_c, 0, 62, 62
1, 147341, Note_off_c, 0, 57, 1
1, 147360, Note_on_c, 0, 53, 60
1, 147383, Note_off_c, 0, 53, 36
1, 147456, Note_on_c, 0, 57, 46
1, 147456, Note_on_c, 0, 64, 46
1, 147456, Note_on_c, 0, 69, 46
1, 147504, Note_on_c, 0, 67, 46
1, 147600, Note_on_c, 0, 71, 46
1, 147695, Note_off_c, 0, 69, 64
1, 147696, Note_on_c, 0, 69, 46
1, 147696, Note_off_c, 0, 71, 64
1, 147743, Note_off_c, 0, 67, 64
1, 147744, Note_on_c, 0, 67, 46
1, 147839, Note_off_c, 0, 64, 64
1, 147840, Note_on_c, 0, 55, 46
1, 147840, Note_off_c, 0, 57, 64
1, 147840, Note_on_c, 0, 64, 46
1, 147840, Note_off_c, 0, 67, 64
1, 147840, Note_off_c, 0, 69, 64
1, 147936, Note_on_c, 0, 71, 46
1, 148032, Note_on_c, 0, 60, 46
1, 148032, Note_on_c, 0, 67, 46
1, 148127, Note_off_c, 0, 71, 64
1, 148128, Note_off_c, 0, 60, 64
1, 148128, Note_off_c, 0, 67, 64
1, 148128, Note_on_c, 0, 71, 46
1, 148223, Note_off_c, 0, 64, 64
1, 148224, Note_off_c, 0, 55, 64
1, 148224, Note_on_c, 0, 57, 42
1, 148224, Note_on_c, 0, 64, 42
1, 148224, Note_on_c, 0, 69, 42
1, 148224, Note_off_c, 0, 71, 64
1, 148272, Note_on_c, 0, 67, 42
1, 148368, Note_on_c, 0, 71, 42
1, 148463, Note_off_c, 0, 69, 64
1, 148464, Note_on_c, 0, 69, 42
1, 148464, Note_off_c, 0, 71, 64
1, 148511, Note_off_c, 0, 67, 64
1, 148512, Note_on_c, 0, 67, 42
1, 148607, Note_off_c, 0, 64, 64
1, 148607, Note_off_c, 0, 67, 64
1, 148608, Note_on_c, 0, 52, 42
1, 148608, Note_off_c, 0, 57, 64
1, 148608, Note_on_c, 0, 64, 42
1, 148608, Note_on_c, 0, 67, 42
1, 148608, Note_off_c, 0, 69, 64
1, 148704, Note_on_c, 0, 71, 42
1, 148799, Note_off_c, 0, 67, 64
1, 148800, Note_on_c, 0, 60, 42
1, 148800, Note_on_c, 0, 67, 42
1, 148895, Note_off_c, 0, 71, 64
1, 148896, Note_off_c, 0, 60, 64
1, 148896, Note_on_c, 0, 71, 42
1, 148992, Note_on_c, 0, 50, 57
1, 148992, Note_off_c, 0, 52, 64
1, 148992, Note_off_c, 0, 64, 64
1, 148992, Note_off_c, 0, 67, 64
1, 148992, Note_off_c, 0, 71, 64
1, 148994, Note_on_c, 0, 67, 70
1, 149132, Note_on_c, 0, 65, 55
1, 149178, Note_off_c, 0, 67, 60
1, 149182, Note_on_c, 0, 64, 65
1, 149184, Note_off_c, 0, 50, 47
1, 149184, Note_on_c, 0, 52, 57
1, 149192, Note_off_c, 0, 65, 122
1, 149328, Note_on_c, 0, 62, 75
1, 149376, Note_on_c, 0, 45, 51
1, 149378, Note_off_c, 0, 64, 78
1, 149379, Note_on_c, 0, 64, 69
1, 149390, Note_off_c, 0, 52, 47
1, 149390, Note_off_c, 0, 62, 80
1, 149520, Note_on_c, 0, 57, 64
1, 149568, Note_on_c, 0, 48, 45
1, 149575, Note_on_c, 0, 59, 65
1, 149579, Note_off_c, 0, 45, 50
1, 149579, Note_off_c, 0, 64, 64
1, 149581, Note_off_c, 0, 57, 57
1, 149711, Note_on_c, 0, 60, 74
1, 149760, Note_off_c, 0, 48, 29
1, 149760, Note_on_c, 0, 50, 57
1, 149760, Note_off_c, 0, 59, 88
1, 149760, Note_off_c, 0, 60, 127
1, 149762, Note_on_c, 0, 67, 70
1, 149900, Note_on_c, 0, 65, 55
1, 149946, Note_off_c, 0, 67, 60
1, 149950, Note_on_c, 0, 64, 65
1, 149952, Note_off_c, 0, 50, 47
1, 149952, Note_on_c, 0, 52, 57
1, 149960, Note_off_c, 0, 65, 122
1, 150096, Note_on_c, 0, 62, 75
1, 150144, Note_on_c, 0, 45, 51
1, 150146, Note_off_c, 0, 64, 78
1, 150147, Note_on_c, 0, 64, 69
1, 150158, Note_off_c, 0, 52, 47
1, 150158, Note_off_c, 0, 62, 80
1, 150288, Note_on_c, 0, 57, 64
1, 150336, Note_on_c, 0, 48, 45
1, 150343, Note_on_c, 0, 59, 65
1, 150347, Note_off_c, 0, 45, 50
1, 150347, Note_off_c, 0, 64, 64
1, 150349, Note_off_c, 0, 57, 57
1, 150479, Note_on_c, 0, 57, 74
1, 150528, Note_on_c, 0, 47, 100
1, 150528, Note_off_c, 0, 48, 29
1, 150528, Note_off_c, 0, 57, 127
1, 150528, Note_off_c, 0, 59, 88
1, 150528, Note_on_c, 0, 62, 100
1, 150624, Note_on_c, 0, 60, 69
1, 150624, Note_off_c, 0, 62, 64
1, 150624, Note_on_c, 0, 64, 100
1, 150719, Note_off_c, 0, 60, 64
1, 150720, Note_off_c, 0, 47, 64
1, 150720, Note_on_c, 0, 48, 100
1, 150720, Note_on_c, 0, 55, 100
1, 150720, Note_on_c, 0, 60, 80
1, 150815, Note_off_c, 0, 60, 64
1, 150816, Note_on_c, 0, 60, 100
1, 150816, Note_on_c, 0, 62, 67
1, 150816, Note_off_c, 0, 64, 64
1, 150864, Note_on_c, 0, 52, 100
1, 150864, Note_off_c, 0, 55, 64
1, 150864, Note_on_c, 0, 64, 67
1, 150912, Note_on_c, 0, 45, 100
1, 150912, Note_off_c, 0, 48, 64
1, 150959, Note_off_c, 0, 60, 64
1, 150960, Note_on_c, 0, 60, 100
1, 151008, Note_on_c, 0, 59, 67
1, 151008, Note_off_c, 0, 62, 64
1, 151008, Note_off_c, 0, 64, 64
1, 151102, Note_off_c, 0, 59, 64
1, 151104, Note_on_c, 0, 59, 67
1, 151198, Note_off_c, 0, 59, 64
1, 151199, Note_off_c, 0, 60, 64
1, 151200, Note_on_c, 0, 60, 67
1, 151248, Note_off_c, 0, 52, 64
1, 151248, Note_on_c, 0, 57, 100
1, 151296, Note_off_c, 0, 45, 64
1, 151296, Note_on_c, 0, 48, 100
1, 151302, Note_on_c, 0, 41, 100
1, 151390, Note_off_c, 0, 60, 64
1, 151392, Note_off_c, 0, 57, 64
1, 151392, Note_on_c, 0, 59, 100
1, 151392, Note_on_c, 0, 60, 69
1, 151440, Note_off_c, 0, 48, 64
1, 151487, Note_off_c, 0, 60, 64
1, 151488, Note_off_c, 0, 41, 64
1, 151488, Note_on_c, 0, 43, 100
1, 151488, Note_on_c, 0, 50, 100
1, 151488, Note_on_c, 0, 60, 80
1, 151583, Note_off_c, 0, 60, 64
1, 151584, Note_off_c, 0, 59, 64
1, 151584, Note_on_c, 0, 60, 100
1, 151584, Note_on_c, 0, 62, 67
1, 151632, Note_off_c, 0, 50, 64
1, 151632, Note_on_c, 0, 52, 100
1, 151632, Note_on_c, 0, 64, 67
1, 151680, Note_off_c, 0, 43, 64
1, 151680, Note_on_c, 0, 45, 100
1, 151775, Note_off_c, 0, 60, 64
1, 151776, Note_on_c, 0, 60, 67
1, 151776, Note_off_c, 0, 62, 64
1, 151776, Note_off_c, 0, 64, 64
1, 151872, Note_on_c, 0, 67, 67
1, 151968, Note_off_c, 0, 60, 64
1, 151968, Note_on_c, 0, 64, 67
1, 151968, Note_off_c, 0, 67, 64
1, 152016, Note_off_c, 0, 52, 64
1, 152062, Note_off_c, 0, 64, 64
1, 152064, Note_off_c, 0, 45, 64
1, 152065, Note_on_c, 0, 41, 73
1, 152065, Note_on_c, 0, 72, 70
1, 152101, Note_off_c, 0, 41, 40
1, 152101, Note_off_c, 0, 72, 32
1, 152159, Note_on_c, 0, 48, 58
1, 152195, Note_off_c, 0, 48, 24
1, 152255, Note_on_c, 0, 53, 60
1, 152256, Note_on_c, 0, 71, 64
1, 152292, Note_off_c, 0, 53, 23
1, 152292, Note_off_c, 0, 71, 29
1, 152352, Note_on_c, 0, 55, 56
1, 152388, Note_off_c, 0, 55, 29
1, 152448, Note_on_c, 0, 57, 71
1, 152448, Note_on_c, 0, 67, 62
1, 152484, Note_off_c, 0, 57, 44
1, 152484, Note_off_c, 0, 67, 26
1, 152544, Note_on_c, 0, 59, 73
1, 152580, Note_off_c, 0, 59, 50
1, 152640, Note_on_c, 0, 60, 65
1, 152640, Note_on_c, 0, 64, 80
1, 152676, Note_off_c, 0, 60, 16
1, 152676, Note_off_c, 0, 64, 64
1, 152736, Note_on_c, 0, 59, 41
1, 152772, Note_off_c, 0, 59, 60
1, 152832, Note_on_c, 0, 45, 76
1, 152833, Note_on_c, 0, 72, 64
1, 152868, Note_off_c, 0, 45, 47
1, 152868, Note_off_c, 0, 72, 25
1, 152928, Note_on_c, 0, 52, 57
1, 152964, Note_off_c, 0, 52, 33
1, 153024, Note_on_c, 0, 57, 68
1, 153024, Note_on_c, 0, 71, 72
1, 153060, Note_off_c, 0, 57, 50
1, 153060, Note_off_c, 0, 71, 44
1, 153120, Note_on_c, 0, 59, 66
1, 153156, Note_off_c, 0, 59, 67
1, 153215, Note_on_c, 0, 48, 67
1, 153216, Note_on_c, 0, 67, 59
1, 153251, Note_off_c, 0, 48, 27
1, 153252, Note_off_c, 0, 67, 38
1, 153311, Note_on_c, 0, 55, 54
1, 153347, Note_off_c, 0, 55, 10
1, 153408, Note_on_c, 0, 60, 60
1, 153408, Note_on_c, 0, 64, 75
1, 153443, Note_off_c, 0, 60, 52
1, 153443, Note_off_c, 0, 64, 57
1, 153503, Note_on_c, 0, 62, 70
1, 153539, Note_off_c, 0, 62, 49
1, 153600, Note_on_c, 0, 57, 121
1, 153600, Note_on_c, 0, 93, 65
1, 153606, Note_on_c, 0, 72, 121
1, 153639, Note_off_c, 0, 93, 65
1, 153696, Note_off_c, 0, 57, 64
1, 153696, Note_on_c, 0, 59, 66
1, 153792, Note_off_c, 0, 59, 64
1, 153792, Note_on_c, 0, 64, 121
1, 153793, Note_on_c, 0, 60, 121
1, 153796, Note_on_c, 0, 84, 56
1, 153798, Note_off_c, 0, 72, 64
1, 153831, Note_off_c, 0, 84, 59
1, 153889, Note_off_c, 0, 60, 64
1, 153889, Note_on_c, 0, 62, 121
1, 153984, Note_off_c, 0, 64, 64
1, 153984, Note_on_c, 0, 67, 121
1, 153985, Note_off_c, 0, 62, 64
1, 153987, Note_on_c, 0, 71, 121
1, 153991, Note_on_c, 0, 88, 62
1, 154018, Note_off_c, 0, 88, 77
1, 154079, Note_off_c, 0, 67, 64
1, 154080, Note_on_c, 0, 64, 84
1, 154128, Note_on_c, 0, 69, 98
1, 154176, Note_on_c, 0, 59, 121
1, 154176, Note_off_c, 0, 64, 64
1, 154176, Note_on_c, 0, 67, 121
1, 154176, Note_off_c, 0, 69, 64
1, 154176, Note_off_c, 0, 71, 64
1, 154184, Note_on_c, 0, 83, 50
1, 154211, Note_off_c, 0, 83, 57
1, 154272, Note_off_c, 0, 59, 64
1, 154272, Note_on_c, 0, 60, 88
1, 154320, Note_on_c, 0, 64, 98
1, 154368, Note_on_c, 0, 57, 121
1, 154368, Note_off_c, 0, 60, 64
1, 154368, Note_off_c, 0, 64, 64
1, 154368, Note_off_c, 0, 67, 64
1, 154368, Note_on_c, 0, 93, 69
1, 154374, Note_on_c, 0, 72, 121
1, 154398, Note_off_c, 0, 93, 101
1, 154464, Note_off_c, 0, 57, 64
1, 154464, Note_on_c, 0, 59, 66
1, 154555, Note_on_c, 0, 84, 57
1, 154560, Note_off_c, 0, 59, 64
1, 154560, Note_on_c, 0, 64, 121
1, 154561, Note_on_c, 0, 60, 121
1, 154566, Note_off_c, 0, 72, 64
1, 154588, Note_off_c, 0, 84, 55
1, 154657, Note_off_c, 0, 60, 64
1, 154657, Note_on_c, 0, 62, 121
1, 154750, Note_on_c, 0, 88, 65
1, 154752, Note_off_c, 0, 64, 64
1, 154752, Note_on_c, 0, 67, 121
1, 154753, Note_off_c, 0, 62, 64
1, 154755, Note_on_c, 0, 71, 121
1, 154777, Note_off_c, 0, 88, 57
1, 154847, Note_off_c, 0, 67, 64
1, 154848, Note_on_c, 0, 64, 84
1, 154896, Note_on_c, 0, 69, 98
1, 154943, Note_on_c, 0, 91, 60
1, 154944, Note_on_c, 0, 59, 121
1, 154944, Note_off_c, 0, 64, 64
1, 154944, Note_on_c, 0, 67, 121
1, 154944, Note_off_c, 0, 69, 64
1, 154944, Note_off_c, 0, 71, 64
1, 154969, Note_off_c, 0, 91, 110
1, 155040, Note_off_c, 0, 59, 64
1, 155040, Note_on_c, 0, 60, 88
1, 155088, Note_on_c, 0, 64, 98
1, 155136, Note_on_c, 0, 57, 89
1, 155136, Note_off_c, 0, 60, 64
1, 155136, Note_off_c, 0, 64, 64
1, 155136, Note_off_c, 0, 67, 64
1, 155136, Note_on_c, 0, 72, 96
1, 155184, Note_on_c, 0, 79, 93
1, 155232, Note_on_c, 0, 71, 88
1, 155232, Note_on_c, 0, 76, 93
1, 155327, Note_off_c, 0, 72, 66
1, 155328, Note_on_c, 0, 72, 91
1, 155424, Note_on_c, 0, 84, 98
1, 155472, Note_on_c, 0, 83, 96
1, 155472, Note_off_c, 0, 84, 66
1, 155514, Note_off_c, 0, 76, 66
1, 155520, Note_on_c, 0, 53, 92
1, 155520, Note_off_c, 0, 57, 66
1, 155520, Note_on_c, 0, 69, 102
1, 155520, Note_off_c, 0, 71, 66
1, 155520, Note_off_c, 0, 72, 66
1, 155520, Note_off_c, 0, 79, 66
1, 155520, Note_off_c, 0, 83, 66
1, 155616, Note_on_c, 0, 72, 93
1, 155616, Note_on_c, 0, 76, 93
1, 155712, Note_on_c, 0, 79, 92
1, 155807, Note_off_c, 0, 72, 66
1, 155808, Note_on_c, 0, 72, 87
1, 155808, Note_off_c, 0, 76, 66
1, 155903, Note_off_c, 0, 72, 66
1, 155904, Note_off_c, 0, 53, 66
1, 155904, Note_on_c, 0, 57, 89
1, 155904, Note_off_c, 0, 69, 66
1, 155904, Note_on_c, 0, 72, 96
1, 155904, Note_off_c, 0, 79, 66
1, 155952, Note_on_c, 0, 79, 93
1, 156000, Note_on_c, 0, 71, 88
1, 156000, Note_on_c, 0, 76, 93
1, 156095, Note_off_c, 0, 72, 66
1, 156096, Note_on_c, 0, 72, 91
1, 156192, Note_on_c, 0, 69, 98
1, 156239, Note_off_c, 0, 71, 66
1, 156240, Note_off_c, 0, 69, 66
1, 156240, Note_on_c, 0, 71, 96
1, 156282, Note_off_c, 0, 76, 66
1, 156287, Note_off_c, 0, 72, 66
1, 156288, Note_off_c, 0, 57, 66
1, 156288, Note_on_c, 0, 60, 92
1, 156288, Note_off_c, 0, 71, 66
1, 156288, Note_on_c, 0, 72, 102
1, 156288, Note_off_c, 0, 79, 66
1, 156383, Note_off_c, 0, 72, 66
1, 156384, Note_on_c, 0, 72, 93
1, 156384, Note_on_c, 0, 76, 93
1, 156479, Note_off_c, 0, 76, 66
1, 156480, Note_on_c, 0, 76, 92
1, 156576, Note_on_c, 0, 74, 87
1, 156576, Note_off_c, 0, 76, 66
1, 156623, Note_off_c, 0, 72, 66
1, 156624, Note_on_c, 0, 72, 102
1, 156672, Note_on_c, 0, 53, 69
1, 156672, Note_off_c, 0, 60, 66
1, 156672, Note_off_c, 0, 72, 66
1, 156672, Note_on_c, 0, 72, 77
1, 156672, Note_off_c, 0, 74, 66
1, 156704, Note_off_c, 0, 72, 23
1, 156762, Note_off_c, 0, 53, 10
1, 156766, Note_on_c, 0, 60, 56
1, 156767, Note_on_c, 0, 74, 76
1, 156800, Note_off_c, 0, 74, 54
1, 156854, Note_off_c, 0, 60, 1
1, 156862, Note_on_c, 0, 79, 92
1, 156863, Note_on_c, 0, 65, 40
1, 156864, Note_on_c, 0, 67, 38
1, 156864, Note_on_c, 0, 69, 61
1, 156897, Note_off_c, 0, 79, 25
1, 156902, Note_off_c, 0, 67, 23
1, 156912, Note_off_c, 0, 69, 42
1, 156935, Note_off_c, 0, 65, 13
1, 156958, Note_on_c, 0, 60, 50
1, 156958, Note_on_c, 0, 74, 79
1, 156991, Note_off_c, 0, 60, 29
1, 156998, Note_off_c, 0, 74, 42
1, 157055, Note_on_c, 0, 48, 44
1, 157055, Note_on_c, 0, 72, 76
1, 157086, Note_off_c, 0, 72, 26
1, 157150, Note_on_c, 0, 74, 76
1, 157152, Note_on_c, 0, 55, 16
1, 157182, Note_off_c, 0, 74, 45
1, 157246, Note_on_c, 0, 79, 69
1, 157247, Note_on_c, 0, 60, 31
1, 157247, Note_on_c, 0, 64, 54
1, 157275, Note_off_c, 0, 79, 32
1, 157283, Note_off_c, 0, 48, 27
1, 157290, Note_off_c, 0, 55, 12
1, 157294, Note_off_c, 0, 64, 37
1, 157306, Note_off_c, 0, 60, 26
1, 157439, Note_on_c, 0, 50, 62
1, 157440, Note_on_c, 0, 72, 70
1, 157481, Note_off_c, 0, 72, 23
1, 157534, Note_on_c, 0, 57, 43
1, 157534, Note_on_c, 0, 74, 82
1, 157565, Note_off_c, 0, 74, 49
1, 157616, Note_off_c, 0, 57, 35
1, 157631, Note_on_c, 0, 62, 43
1, 157631, Note_on_c, 0, 64, 51
1, 157631, Note_on_c, 0, 65, 47
1, 157631, Note_on_c, 0, 79, 81
1, 157655, Note_off_c, 0, 79, 37
1, 157687, Note_off_c, 0, 65, 19
1, 157697, Note_off_c, 0, 64, 40
1, 157701, Note_off_c, 0, 50, 1
1, 157708, Note_off_c, 0, 62, 30
1, 157725, Note_on_c, 0, 57, 65
1, 157726, Note_on_c, 0, 74, 78
1, 157753, Note_off_c, 0, 57, 66
1, 157756, Note_off_c, 0, 74, 44
1, 157774, Note_on_c, 0, 72, 60
1, 157822, Note_off_c, 0, 72, 20
1, 157824, Note_on_c, 0, 45, 56
1, 157824, Note_on_c, 0, 71, 84
1, 157872, Note_off_c, 0, 71, 32
1, 157918, Note_on_c, 0, 72, 67
1, 157919, Note_on_c, 0, 52, 49
1, 157951, Note_off_c, 0, 72, 29
1, 158014, Note_on_c, 0, 60, 51
1, 158014, Note_on_c, 0, 74, 78
1, 158015, Note_on_c, 0, 57, 44
1, 158016, Note_on_c, 0, 59, 44
1, 158050, Note_off_c, 0, 74, 48
1, 158065, Note_off_c, 0, 60, 20
1, 158066, Note_off_c, 0, 45, 48
1, 158066, Note_off_c, 0, 59, 56
1, 158068, Note_off_c, 0, 52, 1
1, 158071, Note_off_c, 0, 57, 51
1, 158111, Note_on_c, 0, 72, 92
1, 158140, Note_off_c, 0, 72, 64
1, 158208, Note_on_c, 0, 64, 56
1, 158208, Note_on_c, 0, 69, 54
1, 158208, Note_on_c, 0, 72, 88
1, 158526, Note_off_c, 0, 69, 25
1, 158548, Note_off_c, 0, 64, 61
1, 158590, Note_on_c, 0, 62, 68
1, 158591, Note_on_c, 0, 69, 57
1, 158596, Note_on_c, 0, 65, 67
1, 158606, Note_off_c, 0, 72, 80
1, 159221, Note_off_c, 0, 69, 66
1, 159240, Note_off_c, 0, 65, 1
1, 159264, Note_off_c, 0, 62, 21
1, 159264, Note_on_c, 0, 67, 82
1, 159312, Note_off_c, 0, 67, 64
1, 159312, Note_on_c, 0, 69, 82
1, 159352, Note_off_c, 0, 69, 64
1, 159356, Note_on_c, 0, 71, 79
1, 159357, Note_on_c, 0, 64, 59
1, 159357, Note_on_c, 0, 67, 80
1, 159541, Note_off_c, 0, 64, 89
1, 159552, Note_on_c, 0, 64, 62
1, 159725, Note_off_c, 0, 71, 1
1, 159727, Note_off_c, 0, 67, 72
1, 159735, Note_off_c, 0, 64, 89
1, 159744, Note_on_c, 0, 53, 63
1, 159744, Note_on_c, 0, 64, 63
1, 159744, Note_on_c, 0, 76, 50
1, 159840, Note_on_c, 0, 60, 63
1, 159840, Note_off_c, 0, 64, 64
1, 159888, Note_off_c, 0, 60, 64
1, 159888, Note_on_c, 0, 62, 63
1, 159936, Note_off_c, 0, 62, 64
1, 159936, Note_on_c, 0, 67, 63
1, 159936, Note_on_c, 0, 84, 69
1, 160032, Note_on_c, 0, 60, 63
1, 160032, Note_off_c, 0, 67, 64
1, 160080, Note_off_c, 0, 60, 64
1, 160080, Note_on_c, 0, 62, 63
1, 160128, Note_on_c, 0, 45, 63
1, 160128, Note_off_c, 0, 53, 64
1, 160128, Note_off_c, 0, 62, 64
1, 160128, Note_on_c, 0, 64, 63
1, 160128, Note_on_c, 0, 83, 69
1, 160128, Note_off_c, 0, 84, 64
1, 160224, Note_on_c, 0, 62, 63
1, 160224, Note_off_c, 0, 64, 64
1, 160272, Note_on_c, 0, 60, 63
1, 160272, Note_off_c, 0, 62, 64
1, 160320, Note_on_c, 0, 59, 63
1, 160320, Note_off_c, 0, 60, 64
1, 160320, Note_on_c, 0, 79, 69
1, 160320, Note_off_c, 0, 83, 64
1, 160416, Note_on_c, 0, 55, 63
1, 160416, Note_off_c, 0, 59, 64
1, 160511, Note_off_c, 0, 76, 64
1, 160512, Note_off_c, 0, 45, 64
1, 160512, Note_on_c, 0, 48, 63
1, 160512, Note_off_c, 0, 55, 64
1, 160512, Note_on_c, 0, 64, 63
1, 160512, Note_on_c, 0, 76, 69
1, 160512, Note_off_c, 0, 79, 64
1, 160608, Note_on_c, 0, 60, 63
1, 160608, Note_off_c, 0, 64, 64
1, 160656, Note_off_c, 0, 60, 64
1, 160656, Note_on_c, 0, 62, 63
1, 160704, Note_off_c, 0, 62, 64
1, 160704, Note_on_c, 0, 67, 63
1, 160704, Note_on_c, 0, 72, 47
1, 160800, Note_on_c, 0, 60, 63
1, 160800, Note_off_c, 0, 67, 64
1, 160848, Note_off_c, 0, 60, 64
1, 160848, Note_on_c, 0, 62, 63
1, 160896, Note_off_c, 0, 62, 64
1, 160896, Note_on_c, 0, 64, 63
1, 160896, Note_off_c, 0, 72, 64
1, 160896, Note_on_c, 0, 74, 47
1, 160992, Note_on_c, 0, 62, 63
1, 160992, Note_off_c, 0, 64, 64
1, 160992, Note_off_c, 0, 76, 64
1, 161040, Note_on_c, 0, 60, 63
1, 161040, Note_off_c, 0, 62, 64
1, 161088, Note_off_c, 0, 48, 64
1, 161088, Note_on_c, 0, 52, 63
1, 161088, Note_off_c, 0, 60, 64
1, 161088, Note_on_c, 0, 69, 63
1, 161088, Note_off_c, 0, 74, 64
1, 161088, Note_on_c, 0, 76, 54
1, 161088, Note_on_c, 0, 79, 69
1, 161184, Note_on_c, 0, 62, 63
1, 161184, Note_off_c, 0, 69, 64
1, 161184, Note_off_c, 0, 79, 64
1, 161184, Note_on_c, 0, 81, 69
1, 161280, Note_on_c, 0, 45, 92
1, 161280, Note_off_c, 0, 52, 64
1, 161280, Note_on_c, 0, 52, 92
1, 161280, Note_on_c, 0, 60, 92
1, 161280, Note_off_c, 0, 62, 64
1, 161280, Note_off_c, 0, 76, 64
1, 161280, Note_off_c, 0, 81, 64
1, 161376, Note_on_c, 0, 76, 108
1, 161480, Note_off_c, 0, 76, 64
1, 161568, Note_on_c, 0, 76, 108
1, 161672, Note_off_c, 0, 76, 64
1, 161760, Note_on_c, 0, 74, 108
1, 161864, Note_off_c, 0, 74, 64
1, 161952, Note_on_c, 0, 72, 108
1, 162047, Note_off_c, 0, 60, 64
1, 162048, Note_on_c, 0, 41, 92
1, 162048, Note_off_c, 0, 45, 64
1, 162048, Note_off_c, 0, 52, 64
1, 162048, Note_on_c, 0, 53, 92
1, 162048, Note_on_c, 0, 60, 92
1, 162048, Note_on_c, 0, 69, 108
1, 162056, Note_off_c, 0, 72, 64
1, 162144, Note_on_c, 0, 76, 108
1, 162248, Note_off_c, 0, 76, 64
1, 162336, Note_on_c, 0, 76, 108
1, 162440, Note_off_c, 0, 69, 64
1, 162440, Note_off_c, 0, 76, 64
1, 162528, Note_on_c, 0, 74, 108
1, 162632, Note_off_c, 0, 74, 64
1, 162720, Note_on_c, 0, 79, 108
1, 162816, Note_off_c, 0, 41, 64
1, 162816, Note_on_c, 0, 41, 42
1, 162816, Note_off_c, 0, 53, 64
1, 162816, Note_off_c, 0, 60, 64
1, 162816, Note_off_c, 0, 79, 64
1, 162817, Note_on_c, 0, 76, 37
1, 162846, Note_off_c, 0, 76, 23
1, 162960, Note_on_c, 0, 52, 19
1, 163008, Note_on_c, 0, 60, 59
1, 163008, Note_on_c, 0, 65, 48
1, 163016, Note_off_c, 0, 52, 51
1, 163032, Note_off_c, 0, 65, 64
1, 163052, Note_on_c, 0, 52, 28
1, 163105, Note_on_c, 0, 59, 52
1, 163109, Note_off_c, 0, 52, 56
1, 163140, Note_off_c, 0, 60, 1
1, 163147, Note_off_c, 0, 41, 1
1, 163148, Note_off_c, 0, 59, 57
1, 163152, Note_on_c, 0, 52, 30
1, 163200, Note_on_c, 0, 41, 42
1, 163200, Note_on_c, 0, 74, 40
1, 163240, Note_off_c, 0, 74, 19
1, 163299, Note_off_c, 0, 52, 20
1, 163343, Note_on_c, 0, 52, 35
1, 163387, Note_off_c, 0, 52, 38
1, 163391, Note_on_c, 0, 60, 34
1, 163392, Note_on_c, 0, 62, 48
1, 163416, Note_off_c, 0, 62, 64
1, 163440, Note_on_c, 0, 52, 21
1, 163465, Note_off_c, 0, 60, 1
1, 163486, Note_off_c, 0, 52, 49
1, 163489, Note_on_c, 0, 59, 37
1, 163524, Note_off_c, 0, 41, 1
1, 163528, Note_off_c, 0, 59, 23
1, 163533, Note_on_c, 0, 52, 37
1, 163584, Note_on_c, 0, 45, 63
1, 163585, Note_on_c, 0, 72, 53
1, 163625, Note_off_c, 0, 72, 8
1, 163680, Note_off_c, 0, 52, 1
1, 163727, Note_on_c, 0, 52, 52
1, 163775, Note_on_c, 0, 60, 53
1, 163776, Note_on_c, 0, 64, 48
1, 163779, Note_off_c, 0, 52, 47
1, 163800, Note_off_c, 0, 64, 64
1, 163819, Note_on_c, 0, 52, 34
1, 163871, Note_on_c, 0, 59, 45
1, 163875, Note_off_c, 0, 52, 42
1, 163917, Note_off_c, 0, 59, 34
1, 163920, Note_off_c, 0, 60, 1
1, 163921, Note_on_c, 0, 52, 41
1, 163930, Note_off_c, 0, 45, 1
1, 163968, Note_on_c, 0, 45, 52
1, 163968, Note_on_c, 0, 71, 48
1, 163992, Note_off_c, 0, 71, 64
1, 164034, Note_off_c, 0, 52, 1
1, 164111, Note_on_c, 0, 52, 47
1, 164158, Note_on_c, 0, 60, 37
1, 164160, Note_on_c, 0, 64, 22
1, 164160, Note_on_c, 0, 69, 50
1, 164168, Note_off_c, 0, 52, 64
1, 164184, Note_off_c, 0, 64, 64
1, 164191, Note_off_c, 0, 69, 54
1, 164207, Note_on_c, 0, 52, 31
1, 164227, Note_off_c, 0, 60, 1
1, 164256, Note_on_c, 0, 62, 43
1, 164258, Note_off_c, 0, 52, 67
1, 164283, Note_off_c, 0, 62, 16
1, 164304, Note_on_c, 0, 52, 32
1, 164322, Note_off_c, 0, 45, 1
1, 164334, Note_off_c, 0, 52, 58
1, 164352, Note_on_c, 0, 33, 54
1, 164352, Note_on_c, 0, 45, 59
1, 164352, Note_on_c, 0, 60, 48
1, 164448, Note_on_c, 0, 48, 28
1, 164543, Note_off_c, 0, 45, 54
1, 164543, Note_on_c, 0, 52, 50
1, 164544, Note_on_c, 0, 45, 58
1, 164544, Note_on_c, 0, 59, 63
1, 164639, Note_off_c, 0, 48, 18
1, 164640, Note_on_c, 0, 48, 48
1, 164735, Note_on_c, 0, 43, 66
1, 164736, Note_on_c, 0, 31, 59
1, 164736, Note_off_c, 0, 33, 39
1, 164736, Note_off_c, 0, 45, 60
1, 164736, Note_off_c, 0, 48, 37
1, 164736, Note_off_c, 0, 52, 1
1, 164736, Note_off_c, 0, 59, 47
1, 164736, Note_off_c, 0, 60, 19
1, 164736, Note_on_c, 0, 64, 68
1, 164833, Note_on_c, 0, 48, 43
1, 164927, Note_off_c, 0, 43, 41
1, 164928, Note_on_c, 0, 43, 34
1, 164928, Note_on_c, 0, 47, 42
1, 164928, Note_on_c, 0, 59, 57
1, 165021, Note_off_c, 0, 48, 17
1, 165022, Note_on_c, 0, 48, 54
1, 165118, Note_on_c, 0, 41, 57
1, 165119, Note_on_c, 0, 62, 59
1, 165120, Note_on_c, 0, 29, 42
1, 165120, Note_off_c, 0, 31, 8
1, 165120, Note_off_c, 0, 43, 13
1, 165120, Note_off_c, 0, 47, 51
1, 165120, Note_off_c, 0, 48, 47
1, 165120, Note_off_c, 0, 59, 47
1, 165120, Note_off_c, 0, 64, 36
1, 165216, Note_on_c, 0, 47, 53
1, 165311, Note_off_c, 0, 41, 26
1, 165311, Note_on_c, 0, 60, 67
1, 165312, Note_on_c, 0, 41, 47
1, 165312, Note_on_c, 0, 48, 28
1, 165406, Note_off_c, 0, 47, 35
1, 165407, Note_on_c, 0, 47, 57
1, 165503, Note_off_c, 0, 60, 46
1, 165504, Note_on_c, 0, 28, 51
1, 165504, Note_off_c, 0, 29, 27
1, 165504, Note_on_c, 0, 40, 57
1, 165504, Note_off_c, 0, 41, 29
1, 165504, Note_off_c, 0, 47, 52
1, 165504, Note_off_c, 0, 48, 38
1, 165504, Note_on_c, 0, 60, 53
1, 165504, Note_off_c, 0, 62, 30
1, 165599, Note_on_c, 0, 43, 24
1, 165695, Note_off_c, 0, 40, 39
1, 165696, Note_on_c, 0, 40, 35
1, 165696, Note_on_c, 0, 47, 56
1, 165696, Note_on_c, 0, 59, 58
1, 165791, Note_on_c, 0, 48, 33
1, 165878, Note_off_c, 0, 43, 23
1, 165878, Note_off_c, 0, 47, 35
1, 165878, Note_off_c, 0, 48, 42
1, 165878, Note_off_c, 0, 59, 49
1, 165878, Note_off_c, 0, 60, 41
1, 165887, Note_off_c, 0, 40, 57
1, 165888, Note_off_c, 0, 28, 53
1, 165888, Note_on_c, 0, 45, 100
1, 165888, Note_on_c, 0, 64, 100
1, 165888, Note_on_c, 0, 69, 100
1, 166080, Note_on_c, 0, 52, 100
1, 166176, Note_off_c, 0, 69, 64
1, 166176, Note_on_c, 0, 77, 100
1, 166224, Note_off_c, 0, 45, 64
1, 166272, Note_on_c, 0, 45, 100
1, 166272, Note_on_c, 0, 62, 100
1, 166272, Note_off_c, 0, 64, 64
1, 166272, Note_on_c, 0, 76, 100
1, 166272, Note_off_c, 0, 77, 64
1, 166368, Note_off_c, 0, 76, 64
1, 166416, Note_off_c, 0, 52, 64
1, 166464, Note_on_c, 0, 52, 100
1, 166560, Note_on_c, 0, 69, 100
1, 166608, Note_off_c, 0, 45, 64
1, 166608, Note_off_c, 0, 69, 64
1, 166608, Note_on_c, 0, 72, 100
1, 166656, Note_on_c, 0, 45, 100
1, 166656, Note_on_c, 0, 60, 100
1, 166656, Note_off_c, 0, 62, 64
1, 166656, Note_off_c, 0, 72, 64
1, 166656, Note_on_c, 0, 74, 100
1, 166752, Note_off_c, 0, 74, 64
1, 166800, Note_off_c, 0, 52, 64
1, 166848, Note_on_c, 0, 52, 100
1, 166944, Note_on_c, 0, 76, 100
1, 166992, Note_off_c, 0, 45, 64
1, 167040, Note_on_c, 0, 45, 100
1, 167040, Note_on_c, 0, 59, 100
1, 167040, Note_off_c, 0, 60, 64
1, 167040, Note_on_c, 0, 74, 100
1, 167040, Note_off_c, 0, 76, 64
1, 167136, Note_off_c, 0, 74, 64
1, 167184, Note_off_c, 0, 52, 64
1, 167232, Note_on_c, 0, 52, 100
1, 167376, Note_off_c, 0, 45, 64
1, 167424, Note_off_c, 0, 52, 64
1, 167424, Note_on_c, 0, 55, 57
1, 167424, Note_on_c, 0, 57, 50
1, 167424, Note_off_c, 0, 59, 64
1, 167424, Note_on_c, 0, 60, 56
1, 167615, Note_off_c, 0, 60, 60
1, 167616, Note_on_c, 0, 64, 75
1, 167807, Note_off_c, 0, 55, 31
1, 167807, Note_off_c, 0, 64, 66
1, 167808, Note_on_c, 0, 52, 78
1, 167808, Note_on_c, 0, 55, 65
1, 167808, Note_off_c, 0, 57, 48
1, 167808, Note_on_c, 0, 59, 43
1, 167999, Note_off_c, 0, 59, 31
1, 168000, Note_on_c, 0, 62, 55
1, 168191, Note_off_c, 0, 62, 47
1, 168192, Note_off_c, 0, 52, 59
1, 168192, Note_on_c, 0, 53, 78
1, 168192, Note_off_c, 0, 55, 69
1, 168192, Note_on_c, 0, 57, 45
1, 168192, Note_on_c, 0, 60, 70
1, 168383, Note_off_c, 0, 60, 64
1, 168384, Note_on_c, 0, 64, 78
1, 168575, Note_off_c, 0, 53, 40
1, 168575, Note_off_c, 0, 57, 36
1, 168575, Note_off_c, 0, 64, 73
1, 168576, Note_on_c, 0, 50, 58
1, 168576, Note_on_c, 0, 53, 55
1, 168576, Note_on_c, 0, 57, 52
1, 168767, Note_off_c, 0, 57, 47
1, 168768, Note_on_c, 0, 64, 61
1, 168959, Note_off_c, 0, 64, 59
1, 168960, Note_off_c, 0, 50, 58
1, 168960, Note_off_c, 0, 53, 52
1, 168960, Note_on_c, 0, 57, 100
1, 168960, Note_on_c, 0, 69, 100
1, 169056, Note_on_c, 0, 72, 100
1, 169152, Note_on_c, 0, 76, 100
1, 169344, Note_on_c, 0, 53, 100
1, 169344, Note_off_c, 0, 57, 64
1, 169344, Note_on_c, 0, 65, 100
1, 169344, Note_off_c, 0, 69, 64
1, 169439, Note_off_c, 0, 72, 64
1, 169440, Note_on_c, 0, 72, 100
1, 169535, Note_off_c, 0, 76, 64
1, 169536, Note_on_c, 0, 76, 100
1, 169728, Note_on_c, 0, 50, 100
1, 169728, Note_off_c, 0, 53, 64
1, 169728, Note_on_c, 0, 62, 100
1, 169728, Note_off_c, 0, 65, 64
1, 169823, Note_off_c, 0, 72, 64
1, 169824, Note_on_c, 0, 72, 100
1, 169919, Note_off_c, 0, 76, 64
1, 169920, Note_on_c, 0, 76, 100
1, 170112, Note_on_c, 0, 89, 100
1, 170304, Note_on_c, 0, 88, 100
1, 170304, Note_off_c, 0, 89, 64
1, 170496, Note_off_c, 0, 50, 64
1, 170496, Note_on_c, 0, 53, 94
1, 170496, Note_off_c, 0, 62, 64
1, 170496, Note_off_c, 0, 72, 64
1, 170496, Note_off_c, 0, 76, 64
1, 170496, Note_on_c, 0, 76, 94
1, 170496, Note_off_c, 0, 88, 64
1, 170592, Note_on_c, 0, 60, 94
1, 170688, Note_on_c, 0, 65, 94
1, 170688, Note_on_c, 0, 74, 94
1, 170688, Note_off_c, 0, 76, 64
1, 170784, Note_on_c, 0, 69, 94
1, 170880, Note_on_c, 0, 72, 94
1, 170880, Note_off_c, 0, 74, 64
1, 171072, Note_on_c, 0, 71, 94
1, 171072, Note_off_c, 0, 72, 64
1, 171168, Note_off_c, 0, 60, 64
1, 171264, Note_off_c, 0, 53, 64
1, 171264, Note_on_c, 0, 57, 94
1, 171264, Note_off_c, 0, 65, 64
1, 171264, Note_off_c, 0, 69, 64
1, 171264, Note_off_c, 0, 71, 64
1, 171264, Note_on_c, 0, 76, 94
1, 171360, Note_on_c, 0, 64, 94
1, 171456, Note_on_c, 0, 69, 94
1, 171456, Note_on_c, 0, 74, 94
1, 171456, Note_off_c, 0, 76, 64
1, 171552, Note_on_c, 0, 71, 94
1, 171648, Note_on_c, 0, 72, 94
1, 171648, Note_off_c, 0, 74, 64
1, 171840, Note_on_c, 0, 67, 94
1, 171840, Note_off_c, 0, 72, 64
1, 172032, Note_off_c, 0, 57, 64
1, 172032, Note_on_c, 0, 57, 45
1, 172032, Note_off_c, 0, 64, 64
1, 172032, Note_off_c, 0, 67, 64
1, 172032, Note_off_c, 0, 69, 64
1, 172032, Note_off_c, 0, 71, 64
1, 172032, Note_on_c, 0, 71, 56
1, 172129, Note_on_c, 0, 64, 33
1, 172223, Note_on_c, 0, 60, 4
1, 172224, Note_on_c, 0, 83, 121
1, 172248, Note_off_c, 0, 83, 64
1, 172323, Note_on_c, 0, 59, 41
1, 172326, Note_off_c, 0, 71, 1
1, 172333, Note_off_c, 0, 60, 1
1, 172343, Note_off_c, 0, 57, 1
1, 172411, Note_off_c, 0, 64, 1
1, 172416, Note_off_c, 0, 59, 17
1, 172416, Note_on_c, 0, 71, 59
1, 172418, Note_on_c, 0, 57, 35
1, 172516, Note_on_c, 0, 64, 43
1, 172607, Note_on_c, 0, 60, 25
1, 172707, Note_on_c, 0, 59, 20
1, 172711, Note_off_c, 0, 57, 3
1, 172716, Note_off_c, 0, 71, 1
1, 172726, Note_off_c, 0, 60, 1
1, 172794, Note_off_c, 0, 64, 1
1, 172799, Note_off_c, 0, 59, 21
1, 172800, Note_on_c, 0, 57, 45
1, 172800, Note_on_c, 0, 71, 56
1, 172897, Note_on_c, 0, 64, 33
1, 172991, Note_on_c, 0, 60, 4
1, 172992, Note_on_c, 0, 78, 121
1, 173016, Note_off_c, 0, 78, 64
1, 173091, Note_on_c, 0, 59, 41
1, 173094, Note_off_c, 0, 71, 1
1, 173101, Note_off_c, 0, 60, 1
1, 173111, Note_off_c, 0, 57, 1
1, 173179, Note_off_c, 0, 64, 1
1, 173184, Note_off_c, 0, 59, 17
1, 173184, Note_on_c, 0, 71, 59
1, 173186, Note_on_c, 0, 57, 35
1, 173284, Note_on_c, 0, 64, 43
1, 173375, Note_on_c, 0, 60, 25
1, 173382, Note_on_c, 0, 72, 78
1, 173475, Note_on_c, 0, 59, 20
1, 173479, Note_off_c, 0, 57, 3
1, 173484, Note_off_c, 0, 71, 1
1, 173494, Note_off_c, 0, 60, 1
1, 173560, Note_off_c, 0, 72, 64
1, 173562, Note_off_c, 0, 64, 1
1, 173567, Note_off_c, 0, 59, 21
1, 173568, Note_on_c, 0, 57, 100
1, 173568, Note_on_c, 0, 69, 100
1, 173664, Note_on_c, 0, 62, 100
1, 173760, Note_off_c, 0, 57, 64
1, 173760, Note_on_c, 0, 64, 100
1, 173760, Note_off_c, 0, 69, 64
1, 173856, Note_off_c, 0, 62, 64
1, 173952, Note_on_c, 0, 57, 100
1, 173952, Note_off_c, 0, 64, 64
1, 173952, Note_on_c, 0, 65, 100
1, 174048, Note_on_c, 0, 60, 100
1, 174144, Note_off_c, 0, 57, 64
1, 174144, Note_on_c, 0, 62, 100
1, 174144, Note_off_c, 0, 65, 64
1, 174239, Note_off_c, 0, 60, 64
1, 174240, Note_on_c, 0, 60, 100
1, 174336, Note_on_c, 0, 57, 100
1, 174336, Note_off_c, 0, 60, 64
1, 174336, Note_off_c, 0, 62, 64
1, 174336, Note_on_c, 0, 65, 100
1, 174432, Note_on_c, 0, 60, 100
1, 174528, Note_off_c, 0, 57, 64
1, 174528, Note_on_c, 0, 62, 100
1, 174528, Note_off_c, 0, 65, 64
1, 174623, Note_off_c, 0, 60, 64
1, 174624, Note_on_c, 0, 60, 100
1, 174720, Note_on_c, 0, 59, 100
1, 174720, Note_off_c, 0, 60, 64
1, 174720, Note_off_c, 0, 62, 64
1, 174720, Note_on_c, 0, 65, 100
1, 174816, Note_on_c, 0, 62, 100
1, 174912, Note_off_c, 0, 59, 64
1, 174912, Note_on_c, 0, 60, 100
1, 174912, Note_on_c, 0, 64, 100
1, 174912, Note_off_c, 0, 65, 64
1, 175008, Note_off_c, 0, 62, 64
1, 175104, Note_on_c, 0, 45, 44
1, 175104, Note_off_c, 0, 60, 64
1, 175104, Note_off_c, 0, 64, 64
1, 175104, Note_on_c, 0, 76, 76
1, 175109, Note_on_c, 0, 60, 55
1, 175200, Note_on_c, 0, 52, 35
1, 175298, Note_on_c, 0, 59, 45
1, 175393, Note_on_c, 0, 55, 47
1, 175508, Note_off_c, 0, 60, 1
1, 175580, Note_off_c, 0, 52, 52
1, 175584, Note_on_c, 0, 52, 20
1, 175778, Note_off_c, 0, 45, 41
1, 175867, Note_off_c, 0, 52, 52
1, 175871, Note_on_c, 0, 72, 59
1, 175873, Note_on_c, 0, 45, 47
1, 175878, Note_off_c, 0, 59, 45
1, 175879, Note_on_c, 0, 60, 58
1, 175881, Note_off_c, 0, 76, 62
1, 175890, Note_off_c, 0, 55, 46
1, 175973, Note_on_c, 0, 52, 29
1, 176058, Note_on_c, 0, 59, 48
1, 176156, Note_on_c, 0, 55, 43
1, 176244, Note_off_c, 0, 60, 80
1, 176256, Note_on_c, 0, 71, 49
1, 176270, Note_off_c, 0, 72, 40
1, 176345, Note_off_c, 0, 52, 23
1, 176352, Note_on_c, 0, 52, 27
1, 176451, Note_on_c, 0, 69, 55
1, 176460, Note_off_c, 0, 71, 1
1, 176629, Note_off_c, 0, 45, 63
1, 176634, Note_off_c, 0, 55, 2
1, 176635, Note_off_c, 0, 52, 52
1, 176640, Note_on_c, 0, 57, 49
1, 176640, Note_off_c, 0, 59, 12
1, 176640, Note_on_c, 0, 64, 57
1, 176640, Note_off_c, 0, 69, 80
1, 176713, Note_off_c, 0, 57, 44
1, 176727, Note_off_c, 0, 64, 35
1, 176832, Note_on_c, 0, 57, 45
1, 176832, Note_on_c, 0, 64, 47
1, 176832, Note_on_c, 0, 72, 40
1, 176907, Note_off_c, 0, 72, 40
1, 176910, Note_off_c, 0, 64, 42
1, 176914, Note_off_c, 0, 57, 43
1, 177024, Note_on_c, 0, 55, 26
1, 177024, Note_on_c, 0, 64, 39
1, 177024, Note_on_c, 0, 71, 46
1, 177097, Note_off_c, 0, 64, 42
1, 177097, Note_off_c, 0, 71, 46
1, 177107, Note_off_c, 0, 55, 19
1, 177216, Note_on_c, 0, 55, 35
1, 177216, Note_on_c, 0, 64, 46
1, 177216, Note_on_c, 0, 67, 43
1, 177292, Note_off_c, 0, 64, 44
1, 177299, Note_off_c, 0, 67, 3
1, 177301, Note_off_c, 0, 55, 19
1, 177408, Note_on_c, 0, 53, 36
1, 177408, Note_on_c, 0, 64, 60
1, 177481, Note_off_c, 0, 53, 17
1, 177486, Note_off_c, 0, 64, 45
1, 177600, Note_on_c, 0, 53, 30
1, 177600, Note_on_c, 0, 64, 51
1, 177600, Note_on_c, 0, 72, 64
1, 177668, Note_off_c, 0, 72, 25
1, 177674, Note_off_c, 0, 53, 18
1, 177681, Note_off_c, 0, 64, 39
1, 177792, Note_on_c, 0, 53, 20
1, 177792, Note_on_c, 0, 64, 38
1, 177792, Note_on_c, 0, 71, 63
1, 177856, Note_off_c, 0, 53, 30
1, 177866, Note_off_c, 0, 71, 49
1, 177872, Note_off_c, 0, 64, 39
1, 177984, Note_on_c, 0, 50, 37
1, 177984, Note_on_c, 0, 64, 41
1, 177984, Note_on_c, 0, 67, 44
1, 178033, Note_off_c, 0, 67, 15
1, 178080, Note_on_c, 0, 69, 58
1, 178111, Note_off_c, 0, 50, 42
1, 178127, Note_off_c, 0, 64, 38
1, 178137, Note_off_c, 0, 69, 39
1, 178176, Pitch_bend_c, 0, 8192
1, 178176, Control_c, 0, 6, 0
1, 178176, Control_c, 0, 6, 12
1, 178176, Control_c, 0, 7, 100
1, 178176, Control_c, 0, 10, 64
1, 178176, Control_c, 0, 100, 0
1, 178176, Control_c, 0, 101, 0
1, 178176, Note_on_c, 0, 45, 55
1, 178178, Note_on_c, 0, 52, 58
1, 178181, Note_on_c, 0, 57, 62
1, 178183, Note_on_c, 0, 60, 59
1, 178186, Note_on_c, 0, 62, 69
1, 178188, Note_on_c, 0, 76, 75
1, 178200, Note_on_c, 0, 64, 88
1, 178258, Note_off_c, 0, 62, 127
1, 178272, Note_on_c, 0, 69, 1
1, 178311, Note_off_c, 0, 60, 127
1, 178368, Note_on_c, 0, 71, 35
1, 178416, Note_off_c, 0, 64, 64
1, 178421, Note_off_c, 0, 57, 64
1, 178464, Note_on_c, 0, 41, 49
1, 178464, Note_off_c, 0, 45, 64
1, 178466, Note_on_c, 0, 48, 52
1, 178466, Note_off_c, 0, 52, 64
1, 178469, Note_on_c, 0, 53, 56
1, 178471, Note_on_c, 0, 57, 61
1, 178474, Note_on_c, 0, 60, 66
1, 178476, Note_on_c, 0, 64, 88
1, 178488, Note_on_c, 0, 62, 79
1, 178488, Note_on_c, 0, 72, 56
1, 178546, Note_off_c, 0, 60, 0
1, 178605, Note_off_c, 0, 76, 64
1, 178629, Note_off_c, 0, 69, 64
1, 178638, Note_off_c, 0, 71, 64
1, 178644, Note_off_c, 0, 72, 64
1, 178752, Note_on_c, 0, 69, 42
1, 178800, Note_on_c, 0, 71, 26
1, 178838, Note_off_c, 0, 48, 127
1, 178844, Note_off_c, 0, 64, 0
1, 178848, Note_off_c, 0, 41, 127
1, 178848, Note_on_c, 0, 72, 57
1, 178889, Note_off_c, 0, 53, 127
1, 178896, Note_on_c, 0, 74, 59
1, 178918, Note_off_c, 0, 69, 64
1, 178918, Note_off_c, 0, 71, 64
1, 178920, Note_off_c, 0, 74, 64
1, 178927, Note_off_c, 0, 57, 64
1, 178931, Note_off_c, 0, 72, 64
1, 178944, Note_on_c, 0, 41, 50
1, 178944, Note_off_c, 0, 62, 64
1, 178946, Note_on_c, 0, 48, 53
1, 178949, Note_on_c, 0, 53, 56
1, 178951, Note_on_c, 0, 57, 69
1, 178954, Note_on_c, 0, 60, 71
1, 178956, Note_on_c, 0, 76, 75
1, 178968, Note_on_c, 0, 62, 91
1, 179034, Note_off_c, 0, 60, 127
1, 179040, Note_on_c, 0, 69, 1
1, 179088, Note_off_c, 0, 62, 127
1, 179136, Note_on_c, 0, 71, 35
1, 179184, Note_off_c, 0, 41, 64
1, 179186, Note_off_c, 0, 48, 64
1, 179189, Note_off_c, 0, 53, 64
1, 179191, Note_off_c, 0, 57, 64
1, 179232, Note_on_c, 0, 43, 42
1, 179234, Note_on_c, 0, 50, 45
1, 179237, Note_on_c, 0, 55, 60
1, 179239, Note_on_c, 0, 59, 68
1, 179242, Note_on_c, 0, 62, 76
1, 179244, Note_on_c, 0, 64, 99
1, 179256, Note_on_c, 0, 72, 56
1, 179373, Note_off_c, 0, 76, 64
1, 179397, Note_off_c, 0, 69, 64
1, 179406, Note_off_c, 0, 71, 64
1, 179412, Note_off_c, 0, 72, 64
1, 179520, Note_on_c, 0, 69, 42
1, 179568, Note_on_c, 0, 71, 26
1, 179604, Note_off_c, 0, 64, 64
1, 179610, Note_off_c, 0, 62, 127
1, 179616, Note_on_c, 0, 72, 57
1, 179640, Note_off_c, 0, 43, 64
1, 179642, Note_off_c, 0, 50, 64
1, 179645, Note_off_c, 0, 55, 64
1, 179647, Note_off_c, 0, 59, 64
1, 179664, Note_on_c, 0, 74, 59
1, 179686, Note_off_c, 0, 69, 64
1, 179686, Note_off_c, 0, 71, 64
1, 179688, Note_off_c, 0, 74, 64
1, 179699, Note_off_c, 0, 72, 64
1, 179712, Control_c, 0, 6, 12
1, 179712, Control_c, 0, 6, 0
1, 179712, Note_on_c, 0, 33, 61
1, 179712, Note_on_c, 0, 45, 60
1, 179712, Note_on_c, 0, 60, 96
1, 179712, Note_on_c, 0, 84, 35
1, 179760, Note_on_c, 0, 21, 48
1, 179760, Note_off_c, 0, 33, 64
1, 179760, Note_on_c, 0, 83, 62
1, 179789, Note_off_c, 0, 84, 1
1, 179807, Note_on_c, 0, 59, 59
1, 179807, Note_off_c, 0, 83, 46
1, 179808, Note_off_c, 0, 21, 8
1, 179808, Note_on_c, 0, 76, 41
1, 179853, Note_on_c, 0, 57, 52
1, 179865, Note_off_c, 0, 60, 18
1, 179904, Note_on_c, 0, 64, 60
1, 179919, Note_off_c, 0, 59, 1
1, 179998, Note_on_c, 0, 50, 60
1, 180001, Note_off_c, 0, 45, 1
1, 180025, Note_off_c, 0, 76, 45
1, 180047, Note_on_c, 0, 52, 49
1, 180048, Note_on_c, 0, 24, 16
1, 180048, Note_on_c, 0, 79, 55
1, 180062, Note_off_c, 0, 50, 80
1, 180096, Note_off_c, 0, 24, 100
1, 180096, Note_on_c, 0, 26, 60
1, 180096, Note_on_c, 0, 38, 63
1, 180096, Note_on_c, 0, 53, 64
1, 180096, Note_on_c, 0, 77, 37
1, 180097, Note_off_c, 0, 79, 1
1, 180110, Note_off_c, 0, 52, 87
1, 180144, Note_off_c, 0, 26, 63
1, 180192, Note_on_c, 0, 62, 60
1, 180206, Note_off_c, 0, 64, 5
1, 180213, Note_off_c, 0, 77, 14
1, 180230, Note_off_c, 0, 62, 94
1, 180239, Note_on_c, 0, 60, 56
1, 180239, Note_on_c, 0, 76, 47
1, 180240, Note_on_c, 0, 26, 58
1, 180287, Note_on_c, 0, 74, 50
1, 180287, Note_off_c, 0, 76, 63
1, 180288, Note_off_c, 0, 26, 102
1, 180288, Note_on_c, 0, 28, 50
1, 180288, Note_off_c, 0, 60, 98
1, 180288, Note_on_c, 0, 62, 65
1, 180336, Note_off_c, 0, 28, 1
1, 180336, Note_off_c, 0, 38, 64
1, 180336, Note_on_c, 0, 40, 61
1, 180374, Note_off_c, 0, 57, 11
1, 180384, Note_on_c, 0, 57, 62
1, 180415, Note_off_c, 0, 74, 5
1, 180430, Note_on_c, 0, 59, 64
1, 180431, Note_off_c, 0, 62, 34
1, 180440, Note_off_c, 0, 57, 100
1, 180467, Note_off_c, 0, 53, 127
1, 180480, Note_on_c, 0, 33, 74
1, 180480, Note_off_c, 0, 40, 64
1, 180480, Note_on_c, 0, 45, 60
1, 180480, Note_off_c, 0, 59, 127
1, 180480, Note_on_c, 0, 60, 96
1, 180480, Note_on_c, 0, 84, 52
1, 180521, Note_off_c, 0, 84, 38
1, 180527, Note_on_c, 0, 83, 50
1, 180528, Note_on_c, 0, 21, 57
1, 180528, Note_off_c, 0, 33, 120
1, 180575, Note_on_c, 0, 59, 59
1, 180576, Note_off_c, 0, 21, 105
1, 180576, Note_on_c, 0, 76, 48
1, 180580, Note_off_c, 0, 83, 68
1, 180621, Note_on_c, 0, 57, 52
1, 180633, Note_off_c, 0, 60, 18
1, 180672, Note_on_c, 0, 64, 60
1, 180687, Note_off_c, 0, 59, 1
1, 180766, Note_on_c, 0, 50, 60
1, 180769, Note_off_c, 0, 45, 1
1, 180772, Note_off_c, 0, 76, 50
1, 180814, Note_on_c, 0, 79, 54
1, 180815, Note_on_c, 0, 52, 49
1, 180816, Note_on_c, 0, 24, 54
1, 180830, Note_off_c, 0, 50, 80
1, 180862, Note_on_c, 0, 77, 50
1, 180864, Note_off_c, 0, 24, 121
1, 180864, Note_on_c, 0, 26, 64
1, 180864, Note_on_c, 0, 38, 63
1, 180864, Note_on_c, 0, 53, 64
1, 180871, Note_off_c, 0, 79, 41
1, 180878, Note_off_c, 0, 52, 87
1, 180912, Note_off_c, 0, 26, 109
1, 180952, Note_off_c, 0, 77, 64
1, 180960, Note_on_c, 0, 62, 60
1, 180974, Note_off_c, 0, 64, 5
1, 180998, Note_off_c, 0, 62, 94
1, 181007, Note_on_c, 0, 60, 56
1, 181008, Note_on_c, 0, 26, 58
1, 181008, Note_on_c, 0, 81, 49
1, 181055, Note_off_c, 0, 81, 94
1, 181055, Note_on_c, 0, 83, 61
1, 181056, Note_off_c, 0, 26, 106
1, 181056, Note_on_c, 0, 28, 65
1, 181056, Note_off_c, 0, 60, 98
1, 181056, Note_on_c, 0, 62, 65
1, 181104, Note_off_c, 0, 28, 101
1, 181104, Note_off_c, 0, 38, 64
1, 181104, Note_on_c, 0, 40, 61
1, 181142, Note_off_c, 0, 57, 11
1, 181152, Note_on_c, 0, 57, 62
1, 181155, Note_on_c, 0, 65, 61
1, 181174, Note_off_c, 0, 83, 95
1, 181198, Note_on_c, 0, 59, 64
1, 181199, Note_off_c, 0, 62, 34
1, 181208, Note_off_c, 0, 57, 100
1, 181235, Note_off_c, 0, 53, 127
1, 181244, Note_off_c, 0, 65, 64
1, 181248, Note_off_c, 0, 40, 64
1, 181248, Note_on_c, 0, 45, 50
1, 181248, Note_off_c, 0, 59, 127
1, 181248, Note_on_c, 0, 60, 74
1, 181248, Note_on_c, 0, 64, 61
1, 181344, Note_on_c, 0, 52, 65
1, 181439, Note_off_c, 0, 64, 36
1, 181440, Note_on_c, 0, 57, 49
1, 181440, Note_on_c, 0, 64, 84
1, 181440, Note_on_c, 0, 67, 55
1, 181631, Note_off_c, 0, 45, 27
1, 181631, Note_off_c, 0, 64, 50
1, 181631, Note_off_c, 0, 67, 53
1, 181632, Note_on_c, 0, 45, 76
1, 181632, Note_on_c, 0, 64, 87
1, 181632, Note_on_c, 0, 67, 73
1, 181637, Note_off_c, 0, 52, 6
1, 181637, Note_off_c, 0, 57, 24
1, 181637, Note_off_c, 0, 60, 37
1, 181679, Note_off_c, 0, 67, 56
1, 181680, Note_on_c, 0, 69, 73
1, 181727, Note_off_c, 0, 69, 42
1, 181728, Note_on_c, 0, 52, 60
1, 181728, Note_on_c, 0, 60, 87
1, 181728, Note_on_c, 0, 71, 76
1, 181754, Note_off_c, 0, 45, 1
1, 181754, Note_off_c, 0, 64, 17
1, 181760, Note_off_c, 0, 60, 38
1, 181823, Note_off_c, 0, 71, 60
1, 181824, Note_on_c, 0, 45, 68
1, 181824, Note_on_c, 0, 59, 81
1, 181824, Note_on_c, 0, 67, 72
1, 181843, Note_off_c, 0, 52, 26
1, 181920, Note_on_c, 0, 52, 56
1, 182015, Note_off_c, 0, 45, 9
1, 182015, Note_off_c, 0, 67, 66
1, 182016, Note_on_c, 0, 45, 55
1, 182016, Note_on_c, 0, 60, 78
1, 182016, Note_on_c, 0, 64, 64
1, 182021, Note_off_c, 0, 52, 26
1, 182021, Note_off_c, 0, 59, 13
1, 182112, Note_on_c, 0, 52, 62
1, 182135, Note_off_c, 0, 45, 33
1, 182151, Note_off_c, 0, 52, 19
1, 182207, Note_off_c, 0, 64, 52
1, 182208, Note_on_c, 0, 45, 73
1, 182208, Note_on_c, 0, 64, 91
1, 182208, Note_on_c, 0, 67, 64
1, 182221, Note_off_c, 0, 60, 46
1, 182303, Note_off_c, 0, 45, 30
1, 182304, Note_on_c, 0, 45, 73
1, 182328, Note_off_c, 0, 64, 15
1, 182399, Note_off_c, 0, 67, 53
1, 182400, Note_on_c, 0, 52, 75
1, 182400, Note_on_c, 0, 64, 91
1, 182400, Note_on_c, 0, 67, 64
1, 182427, Note_off_c, 0, 45, 29
1, 182447, Note_off_c, 0, 67, 58
1, 182448, Note_on_c, 0, 69, 60
1, 182495, Note_off_c, 0, 69, 40
1, 182496, Note_on_c, 0, 57, 74
1, 182496, Note_on_c, 0, 71, 72
1, 182534, Note_off_c, 0, 52, 1
1, 182534, Note_off_c, 0, 64, 9
1, 182591, Note_off_c, 0, 71, 48
1, 182592, Note_on_c, 0, 45, 60
1, 182592, Note_on_c, 0, 59, 82
1, 182592, Note_on_c, 0, 67, 70
1, 182605, Note_off_c, 0, 57, 28
1, 182687, Note_off_c, 0, 67, 57
1, 182688, Note_on_c, 0, 52, 36
1, 182688, Note_on_c, 0, 64, 46
1, 182774, Note_off_c, 0, 45, 25
1, 182774, Note_off_c, 0, 52, 32
1, 182774, Note_off_c, 0, 59, 10
1, 182783, Note_off_c, 0, 64, 69
1, 182784, Note_on_c, 0, 45, 120
1, 182784, Note_on_c, 0, 57, 120
1, 182784, Note_on_c, 0, 64, 120
1, 182784, Note_on_c, 0, 71, 120
1, 182879, Note_off_c, 0, 64, 64
1, 182880, Note_on_c, 0, 64, 120
1, 182880, Note_off_c, 0, 71, 64
1, 182976, Note_on_c, 0, 60, 120
1, 182976, Note_off_c, 0, 64, 64
1, 183072, Note_off_c, 0, 45, 64
1, 183072, Note_off_c, 0, 57, 64
1, 183072, Note_off_c, 0, 60, 64
1, 183072, Note_on_c, 0, 71, 120
1, 183168, Note_on_c, 0, 52, 120
1, 183168, Note_on_c, 0, 56, 120
1, 183168, Note_on_c, 0, 62, 120
1, 183168, Note_on_c, 0, 64, 120
1, 183168, Note_off_c, 0, 71, 64
1, 183360, Note_on_c, 0, 72, 120
1, 183456, Note_on_c, 0, 69, 120
1, 183456, Note_off_c, 0, 72, 64
1, 183551, Note_off_c, 0, 64, 64
1, 183552, Note_on_c, 0, 45, 120
1, 183552, Note_off_c, 0, 52, 64
1, 183552, Note_off_c, 0, 56, 64
1, 183552, Note_on_c, 0, 57, 120
1, 183552, Note_off_c, 0, 62, 64
1, 183552, Note_on_c, 0, 64, 120
1, 183552, Note_off_c, 0, 69, 64
1, 183552, Note_on_c, 0, 71, 120
1, 183647, Note_off_c, 0, 64, 64
1, 183648, Note_on_c, 0, 64, 120
1, 183648, Note_off_c, 0, 71, 64
1, 183744, Note_on_c, 0, 60, 120
1, 183744, Note_off_c, 0, 64, 64
1, 183840, Note_off_c, 0, 45, 64
1, 183840, Note_off_c, 0, 57, 64
1, 183840, Note_off_c, 0, 60, 64
1, 183840, Note_on_c, 0, 71, 120
1, 183936, Note_on_c, 0, 52, 120
1, 183936, Note_on_c, 0, 56, 120
1, 183936, Note_on_c, 0, 62, 120
1, 183936, Note_on_c, 0, 64, 120
1, 183936, Note_off_c, 0, 71, 64
1, 184128, Note_on_c, 0, 72, 120
1, 184224, Note_on_c, 0, 69, 120
1, 184224, Note_off_c, 0, 72, 64
1, 184320, Note_on_c, 0, 33, 37
1, 184320, Note_off_c, 0, 52, 64
1, 184320, Note_off_c, 0, 56, 64
1, 184320, Note_off_c, 0, 62, 64
1, 184320, Note_off_c, 0, 64, 64
1, 184320, Note_off_c, 0, 69, 64
1, 184320, Note_on_c, 0, 71, 43
1, 184344, Note_on_c, 0, 48, 37
1, 184344, Note_on_c, 0, 72, 51
1, 184351, Note_off_c, 0, 71, 64
1, 184368, Note_on_c, 0, 40, 37
1, 184416, Note_on_c, 0, 45, 3
1, 184417, Note_on_c, 0, 64, 37
1, 184456, Note_off_c, 0, 72, 64
1, 184463, Note_off_c, 0, 40, 64
1, 184464, Note_off_c, 0, 33, 64
1, 184464, Note_on_c, 0, 40, 23
1, 184488, Note_off_c, 0, 48, 64
1, 184496, Note_off_c, 0, 45, 64
1, 184512, Note_on_c, 0, 72, 43
1, 184536, Note_on_c, 0, 48, 37
1, 184536, Note_on_c, 0, 74, 51
1, 184540, Note_off_c, 0, 72, 64
1, 184560, Note_on_c, 0, 33, 23
1, 184560, Note_off_c, 0, 40, 64
1, 184607, Note_off_c, 0, 64, 64
1, 184608, Note_on_c, 0, 40, 23
1, 184608, Note_on_c, 0, 64, 8
1, 184648, Note_off_c, 0, 74, 64
1, 184656, Note_off_c, 0, 48, 64
1, 184703, Note_off_c, 0, 33, 64
1, 184704, Note_on_c, 0, 33, 37
1, 184704, Note_off_c, 0, 40, 64
1, 184704, Note_off_c, 0, 64, 64
1, 184704, Note_on_c, 0, 72, 50
1, 184728, Note_on_c, 0, 48, 37
1, 184752, Note_on_c, 0, 40, 37
1, 184800, Note_on_c, 0, 45, 3
1, 184802, Note_on_c, 0, 64, 37
1, 184847, Note_off_c, 0, 40, 64
1, 184848, Note_off_c, 0, 33, 64
1, 184848, Note_on_c, 0, 40, 23
1, 184872, Note_off_c, 0, 48, 64
1, 184880, Note_off_c, 0, 45, 64
1, 184886, Note_off_c, 0, 72, 64
1, 184896, Note_on_c, 0, 71, 50
1, 184920, Note_on_c, 0, 48, 37
1, 184944, Note_on_c, 0, 33, 23
1, 184944, Note_off_c, 0, 40, 64
1, 184992, Note_on_c, 0, 40, 23
1, 184994, Note_off_c, 0, 64, 64
1, 185064, Note_off_c, 0, 48, 64
1, 185078, Note_off_c, 0, 71, 64
1, 185088, Note_on_c, 0, 28, 37
1, 185088, Note_off_c, 0, 33, 64
1, 185088, Note_off_c, 0, 40, 64
1, 185088, Note_on_c, 0, 71, 43
1, 185112, Note_on_c, 0, 43, 37
1, 185113, Note_on_c, 0, 72, 51
1, 185114, Note_off_c, 0, 71, 64
1, 185136, Note_on_c, 0, 35, 37
1, 185184, Note_on_c, 0, 40, 3
1, 185185, Note_on_c, 0, 59, 37
1, 185226, Note_off_c, 0, 72, 64
1, 185231, Note_off_c, 0, 35, 64
1, 185232, Note_off_c, 0, 28, 64
1, 185232, Note_on_c, 0, 35, 23
1, 185256, Note_off_c, 0, 43, 64
1, 185264, Note_off_c, 0, 40, 64
1, 185280, Note_on_c, 0, 72, 43
1, 185304, Note_on_c, 0, 43, 37
1, 185304, Note_on_c, 0, 74, 51
1, 185305, Note_off_c, 0, 72, 64
1, 185328, Note_on_c, 0, 28, 23
1, 185328, Note_off_c, 0, 35, 64
1, 185375, Note_off_c, 0, 59, 64
1, 185376, Note_on_c, 0, 35, 23
1, 185376, Note_on_c, 0, 59, 8
1, 185416, Note_off_c, 0, 74, 64
1, 185448, Note_off_c, 0, 43, 64
1, 185471, Note_off_c, 0, 28, 64
1, 185472, Note_on_c, 0, 28, 37
1, 185472, Note_off_c, 0, 35, 64
1, 185472, Note_off_c, 0, 59, 64
1, 185472, Note_on_c, 0, 72, 50
1, 185496, Note_on_c, 0, 43, 37
1, 185520, Note_on_c, 0, 35, 37
1, 185568, Note_on_c, 0, 40, 3
1, 185570, Note_on_c, 0, 59, 37
1, 185615, Note_off_c, 0, 35, 64
1, 185616, Note_off_c, 0, 28, 64
1, 185616, Note_on_c, 0, 35, 23
1, 185640, Note_off_c, 0, 43, 64
1, 185648, Note_off_c, 0, 40, 64
1, 185650, Note_off_c, 0, 72, 64
1, 185664, Note_on_c, 0, 71, 50
1, 185688, Note_on_c, 0, 43, 37
1, 185712, Note_on_c, 0, 28, 23
1, 185712, Note_off_c, 0, 35, 64
1, 185760, Note_on_c, 0, 35, 23
1, 185762, Note_off_c, 0, 59, 64
1, 185808, Note_on_c, 0, 55, 8
1, 185832, Note_off_c, 0, 43, 64
1, 185842, Note_off_c, 0, 71, 64
1, 185856, Note_off_c, 0, 28, 64
1, 185856, Note_off_c, 0, 35, 64
1, 185856, Note_on_c, 0, 52, 96
1, 185856, Note_off_c, 0, 55, 64
1, 185856, Note_on_c, 0, 57, 99
1, 185856, Note_on_c, 0, 69, 102
1, 186048, Note_on_c, 0, 64, 96
1, 186071, Note_off_c, 0, 69, 64
1, 186072, Note_on_c, 0, 69, 100
1, 186096, Note_on_c, 0, 72, 97
1, 186143, Note_off_c, 0, 64, 64
1, 186144, Note_on_c, 0, 64, 104
1, 186167, Note_off_c, 0, 69, 64
1, 186168, Note_on_c, 0, 69, 102
1, 186168, Note_off_c, 0, 72, 64
1, 186191, Note_off_c, 0, 52, 64
1, 186192, Note_on_c, 0, 52, 100
1, 186192, Note_on_c, 0, 72, 98
1, 186239, Note_off_c, 0, 64, 64
1, 186240, Note_on_c, 0, 48, 98
1, 186240, Note_off_c, 0, 52, 64
1, 186240, Note_on_c, 0, 56, 97
1, 186240, Note_off_c, 0, 57, 64
1, 186240, Note_on_c, 0, 64, 105
1, 186240, Note_off_c, 0, 69, 64
1, 186240, Note_off_c, 0, 72, 64
1, 186336, Note_on_c, 0, 71, 104
1, 186432, Note_on_c, 0, 47, 100
1, 186432, Note_off_c, 0, 48, 64
1, 186432, Note_on_c, 0, 68, 100
1, 186432, Note_off_c, 0, 71, 64
1, 186527, Note_off_c, 0, 64, 64
1, 186528, Note_on_c, 0, 60, 91
1, 186528, Note_on_c, 0, 64, 95
1, 186528, Note_off_c, 0, 68, 64
1, 186576, Note_on_c, 0, 59, 80
1, 186576, Note_off_c, 0, 60, 64
1, 186623, Note_off_c, 0, 64, 64
1, 186624, Note_off_c, 0, 47, 64
1, 186624, Note_on_c, 0, 48, 97
1, 186624, Note_off_c, 0, 56, 64
1, 186624, Note_on_c, 0, 57, 101
1, 186624, Note_off_c, 0, 59, 64
1, 186624, Note_on_c, 0, 64, 105
1, 186815, Note_off_c, 0, 64, 64
1, 186816, Note_on_c, 0, 64, 100
1, 186840, Note_on_c, 0, 62, 102
1, 186863, Note_off_c, 0, 64, 64
1, 186864, Note_off_c, 0, 62, 64
1, 186864, Note_on_c, 0, 64, 102
1, 186911, Note_off_c, 0, 64, 64
1, 186912, Note_on_c, 0, 64, 102
1, 186936, Note_on_c, 0, 62, 105
1, 186959, Note_off_c, 0, 64, 64
1, 186960, Note_off_c, 0, 62, 64
1, 186960, Note_on_c, 0, 64, 104
1, 187007, Note_off_c, 0, 64, 64
1, 187008, Note_on_c, 0, 44, 101
1, 187008, Note_off_c, 0, 48, 64
1, 187008, Note_on_c, 0, 56, 100
1, 187008, Note_off_c, 0, 57, 64
1, 187008, Note_on_c, 0, 64, 96
1, 187104, Note_on_c, 0, 71, 98
1, 187200, Note_on_c, 0, 68, 98
1, 187200, Note_off_c, 0, 71, 64
1, 187295, Note_off_c, 0, 64, 64
1, 187296, Note_on_c, 0, 48, 105
1, 187296, Note_on_c, 0, 64, 96
1, 187296, Note_off_c, 0, 68, 64
1, 187344, Note_on_c, 0, 47, 103
1, 187344, Note_off_c, 0, 48, 64
1, 187392, Note_off_c, 0, 44, 64
1, 187392, Note_on_c, 0, 45, 77
1, 187392, Note_off_c, 0, 47, 64
1, 187392, Note_off_c, 0, 56, 64
1, 187392, Note_on_c, 0, 57, 53
1, 187392, Note_off_c, 0, 64, 64
1, 187416, Note_on_c, 0, 60, 77
1, 187440, Note_on_c, 0, 52, 77
1, 187488, Note_on_c, 0, 69, 13
1, 187535, Note_off_c, 0, 45, 64
1, 187535, Note_off_c, 0, 57, 64
1, 187536, Note_on_c, 0, 45, 77
1, 187536, Note_on_c, 0, 57, 47
1, 187583, Note_off_c, 0, 52, 64
1, 187584, Note_on_c, 0, 52, 69
1, 187631, Note_off_c, 0, 60, 64
1, 187632, Note_on_c, 0, 60, 69
1, 187632, Note_off_c, 0, 69, 64
1, 187680, Note_on_c, 0, 64, 77
1, 187704, Note_on_c, 0, 67, 35
1, 187727, Note_off_c, 0, 60, 64
1, 187728, Note_off_c, 0, 45, 64
1, 187728, Note_on_c, 0, 47, 77
1, 187728, Note_on_c, 0, 60, 77
1, 187728, Note_off_c, 0, 64, 64
1, 187752, Note_off_c, 0, 57, 64
1, 187752, Note_on_c, 0, 59, 35
1, 187752, Note_off_c, 0, 60, 64
1, 187775, Note_off_c, 0, 52, 64
1, 187776, Note_on_c, 0, 40, 77
1, 187776, Note_off_c, 0, 47, 64
1, 187776, Note_on_c, 0, 52, 53
1, 187800, Note_on_c, 0, 55, 77
1, 187824, Note_on_c, 0, 47, 77
1, 187872, Note_off_c, 0, 59, 64
1, 187872, Note_on_c, 0, 64, 13
1, 187919, Note_off_c, 0, 40, 64
1, 187919, Note_off_c, 0, 52, 64
1, 187920, Note_on_c, 0, 40, 77
1, 187920, Note_on_c, 0, 52, 47
1, 187944, Note_off_c, 0, 67, 64
1, 187967, Note_off_c, 0, 47, 64
1, 187968, Note_on_c, 0, 47, 69
1, 188015, Note_off_c, 0, 55, 64
1, 188016, Note_on_c, 0, 55, 69
1, 188016, Note_off_c, 0, 64, 64
1, 188064, Note_on_c, 0, 59, 77
1, 188112, Note_off_c, 0, 40, 64
1, 188112, Note_on_c, 0, 43, 77
1, 188112, Note_off_c, 0, 52, 64
1, 188112, Note_on_c, 0, 67, 77
1, 188160, Note_off_c, 0, 43, 64
1, 188160, Note_on_c, 0, 45, 77
1, 188160, Note_off_c, 0, 47, 64
1, 188160, Note_off_c, 0, 55, 64
1, 188160, Note_on_c, 0, 57, 53
1, 188160, Note_off_c, 0, 59, 64
1, 188160, Note_off_c, 0, 67, 64
1, 188184, Note_on_c, 0, 60, 77
1, 188208, Note_on_c, 0, 52, 77
1, 188256, Note_on_c, 0, 69, 13
1, 188303, Note_off_c, 0, 45, 64
1, 188303, Note_off_c, 0, 57, 64
1, 188304, Note_on_c, 0, 45, 77
1, 188304, Note_on_c, 0, 57, 47
1, 188351, Note_off_c, 0, 52, 64
1, 188352, Note_on_c, 0, 52, 69
1, 188399, Note_off_c, 0, 60, 64
1, 188400, Note_on_c, 0, 60, 69
1, 188400, Note_off_c, 0, 69, 64
1, 188448, Note_on_c, 0, 64, 77
1, 188472, Note_on_c, 0, 67, 35
1, 188495, Note_off_c, 0, 60, 64
1, 188496, Note_off_c, 0, 45, 64
1, 188496, Note_on_c, 0, 47, 77
1, 188496, Note_on_c, 0, 60, 77
1, 188496, Note_off_c, 0, 64, 64
1, 188520, Note_off_c, 0, 57, 64
1, 188520, Note_on_c, 0, 59, 35
1, 188520, Note_off_c, 0, 60, 64
1, 188543, Note_off_c, 0, 52, 64
1, 188544, Note_on_c, 0, 40, 77
1, 188544, Note_off_c, 0, 47, 64
1, 188544, Note_on_c, 0, 52, 53
1, 188568, Note_on_c, 0, 55, 77
1, 188592, Note_on_c, 0, 47, 77
1, 188640, Note_off_c, 0, 59, 64
1, 188640, Note_on_c, 0, 64, 13
1, 188687, Note_off_c, 0, 40, 64
1, 188687, Note_off_c, 0, 52, 64
1, 188688, Note_on_c, 0, 40, 77
1, 188688, Note_on_c, 0, 52, 47
1, 188712, Note_off_c, 0, 67, 64
1, 188735, Note_off_c, 0, 47, 64
1, 188736, Note_on_c, 0, 47, 69
1, 188783, Note_off_c, 0, 55, 64
1, 188784, Note_on_c, 0, 55, 69
1, 188784, Note_off_c, 0, 64, 64
1, 188832, Note_on_c, 0, 59, 77
1, 188880, Note_off_c, 0, 40, 64
1, 188880, Note_on_c, 0, 43, 77
1, 188880, Note_off_c, 0, 52, 64
1, 188880, Note_off_c, 0, 59, 64
1, 188880, Note_on_c, 0, 67, 77
1, 188928, Note_off_c, 0, 43, 64
1, 188928, Note_off_c, 0, 47, 64
1, 188928, Note_off_c, 0, 55, 64
1, 188928, Note_off_c, 0, 67, 64
1, 188929, Note_on_c, 0, 34, 77
1, 188929, Note_on_c, 0, 54, 72
1, 188929, Note_on_c, 0, 75, 72
1, 189017, Note_off_c, 0, 34, 50
1, 189025, Note_on_c, 0, 46, 82
1, 189068, Note_off_c, 0, 75, 50
1, 189074, Note_on_c, 0, 77, 68
1, 189120, Note_off_c, 0, 77, 60
1, 189120, Note_on_c, 0, 78, 64
1, 189121, Note_off_c, 0, 54, 50
1, 189123, Note_on_c, 0, 53, 88
1, 189144, Note_off_c, 0, 46, 43
1, 189216, Note_on_c, 0, 46, 77
1, 189270, Note_on_c, 0, 75, 69
1, 189280, Note_off_c, 0, 78, 28
1, 189307, Note_off_c, 0, 46, 71
1, 189312, Note_on_c, 0, 34, 89
1, 189312, Note_off_c, 0, 53, 53
1, 189313, Note_on_c, 0, 54, 62
1, 189316, Note_on_c, 0, 71, 80
1, 189317, Note_off_c, 0, 75, 69
1, 189391, Note_off_c, 0, 71, 19
1, 189409, Note_on_c, 0, 46, 83
1, 189411, Note_on_c, 0, 70, 81
1, 189413, Note_off_c, 0, 34, 72
1, 189495, Note_off_c, 0, 70, 74
1, 189503, Note_on_c, 0, 66, 84
1, 189505, Note_off_c, 0, 54, 61
1, 189506, Note_on_c, 0, 53, 93
1, 189515, Note_off_c, 0, 46, 56
1, 189595, Note_off_c, 0, 66, 44
1, 189598, Note_on_c, 0, 46, 80
1, 189600, Note_on_c, 0, 65, 74
1, 189683, Note_off_c, 0, 65, 81
1, 189694, Note_off_c, 0, 53, 65
1, 189697, Note_on_c, 0, 34, 87
1, 189697, Note_on_c, 0, 75, 72
1, 189698, Note_on_c, 0, 54, 64
1, 189701, Note_off_c, 0, 46, 56
1, 189787, Note_off_c, 0, 34, 62
1, 189791, Note_on_c, 0, 46, 76
1, 189836, Note_off_c, 0, 75, 50
1, 189842, Note_on_c, 0, 77, 68
1, 189888, Note_off_c, 0, 54, 55
1, 189888, Note_off_c, 0, 77, 60
1, 189888, Note_on_c, 0, 78, 64
1, 189890, Note_on_c, 0, 53, 99
1, 189899, Note_off_c, 0, 46, 60
1, 189982, Note_on_c, 0, 46, 75
1, 190038, Note_on_c, 0, 75, 69
1, 190048, Note_off_c, 0, 78, 28
1, 190074, Note_off_c, 0, 46, 74
1, 190078, Note_on_c, 0, 34, 93
1, 190078, Note_off_c, 0, 53, 47
1, 190080, Note_on_c, 0, 54, 80
1, 190084, Note_on_c, 0, 71, 80
1, 190085, Note_off_c, 0, 75, 69
1, 190159, Note_off_c, 0, 71, 19
1, 190175, Note_on_c, 0, 46, 77
1, 190179, Note_off_c, 0, 34, 50
1, 190179, Note_on_c, 0, 70, 81
1, 190263, Note_off_c, 0, 70, 74
1, 190270, Note_off_c, 0, 54, 29
1, 190271, Note_on_c, 0, 54, 78
1, 190271, Note_on_c, 0, 66, 84
1, 190363, Note_off_c, 0, 66, 44
1, 190366, Note_off_c, 0, 54, 53
1, 190366, Note_on_c, 0, 56, 82
1, 190368, Note_on_c, 0, 65, 74
1, 190376, Note_off_c, 0, 46, 54
1, 190451, Note_off_c, 0, 65, 81
1, 190463, Note_off_c, 0, 56, 27
1, 190464, Note_on_c, 0, 33, 66
1, 190464, Note_on_c, 0, 45, 58
1, 190464, Note_on_c, 0, 64, 77
1, 190487, Note_off_c, 0, 64, 34
1, 190498, Note_off_c, 0, 45, 30
1, 190560, Note_on_c, 0, 52, 61
1, 190560, Note_on_c, 0, 57, 77
1, 190573, Note_off_c, 0, 57, 31
1, 190588, Note_off_c, 0, 52, 30
1, 190656, Note_on_c, 0, 57, 59
1, 190684, Note_off_c, 0, 57, 24
1, 190752, Note_on_c, 0, 53, 34
1, 190752, Note_on_c, 0, 59, 77
1, 190782, Note_off_c, 0, 59, 48
1, 190785, Note_off_c, 0, 53, 47
1, 190800, Note_on_c, 0, 60, 77
1, 190815, Note_off_c, 0, 60, 37
1, 190848, Note_on_c, 0, 55, 63
1, 190848, Note_on_c, 0, 62, 77
1, 190874, Note_off_c, 0, 55, 31
1, 190878, Note_off_c, 0, 62, 15
1, 190944, Note_on_c, 0, 47, 53
1, 190944, Note_on_c, 0, 64, 77
1, 190975, Note_off_c, 0, 64, 22
1, 190980, Note_off_c, 0, 47, 39
1, 191039, Note_off_c, 0, 33, 49
1, 191040, Note_on_c, 0, 38, 61
1, 191040, Note_on_c, 0, 48, 53
1, 191040, Note_on_c, 0, 62, 77
1, 191075, Note_off_c, 0, 48, 29
1, 191082, Note_off_c, 0, 62, 1
1, 191088, Note_on_c, 0, 60, 77
1, 191128, Note_off_c, 0, 60, 45
1, 191136, Note_on_c, 0, 50, 55
1, 191136, Note_on_c, 0, 59, 77
1, 191164, Note_off_c, 0, 50, 30
1, 191174, Note_off_c, 0, 59, 42
1, 191231, Note_off_c, 0, 38, 44
1, 191232, Note_on_c, 0, 33, 59
1, 191232, Note_on_c, 0, 45, 67
1, 191232, Note_on_c, 0, 64, 77
1, 191255, Note_off_c, 0, 64, 34
1, 191261, Note_off_c, 0, 45, 36
1, 191328, Note_on_c, 0, 52, 60
1, 191328, Note_on_c, 0, 57, 77
1, 191341, Note_off_c, 0, 57, 31
1, 191361, Note_off_c, 0, 52, 28
1, 191424, Note_on_c, 0, 57, 67
1, 191451, Note_off_c, 0, 57, 32
1, 191520, Note_on_c, 0, 53, 60
1, 191520, Note_on_c, 0, 59, 77
1, 191550, Note_off_c, 0, 59, 48
1, 191559, Note_off_c, 0, 53, 38
1, 191568, Note_on_c, 0, 60, 77
1, 191583, Note_off_c, 0, 60, 37
1, 191616, Note_on_c, 0, 55, 58
1, 191616, Note_on_c, 0, 62, 77
1, 191645, Note_off_c, 0, 55, 19
1, 191646, Note_off_c, 0, 62, 15
1, 191712, Note_on_c, 0, 47, 73
1, 191712, Note_on_c, 0, 64, 77
1, 191743, Note_off_c, 0, 64, 22
1, 191748, Note_off_c, 0, 47, 49
1, 191807, Note_off_c, 0, 33, 25
1, 191808, Note_on_c, 0, 40, 46
1, 191808, Note_on_c, 0, 48, 62
1, 191808, Note_on_c, 0, 62, 77
1, 191836, Note_off_c, 0, 48, 37
1, 191850, Note_off_c, 0, 62, 1
1, 191856, Note_on_c, 0, 60, 77
1, 191896, Note_off_c, 0, 60, 45
1, 191904, Note_on_c, 0, 50, 66
1, 191904, Note_on_c, 0, 59, 77
1, 191918, Note_off_c, 0, 50, 58
1, 191942, Note_off_c, 0, 59, 42
1, 191999, Note_off_c, 0, 40, 67
1, 192000, Note_on_c, 0, 45, 100
1, 192000, Note_on_c, 0, 57, 100
1, 192024, Note_off_c, 0, 57, 64
1, 192048, Note_off_c, 0, 45, 64
1, 192048, Note_on_c, 0, 65, 100
1, 192072, Note_on_c, 0, 60, 100
1, 192072, Note_off_c, 0, 65, 64
1, 192096, Note_on_c, 0, 53, 100
1, 192096, Note_off_c, 0, 60, 64
1, 192096, Note_on_c, 0, 64, 100
1, 192120, Note_off_c, 0, 64, 64
1, 192144, Note_on_c, 0, 48, 100
1, 192144, Note_off_c, 0, 53, 64
1, 192144, Note_on_c, 0, 69, 100
1, 192168, Note_off_c, 0, 69, 64
1, 192192, Note_off_c, 0, 48, 64
1, 192192, Note_on_c, 0, 52, 100
1, 192240, Note_off_c, 0, 52, 64
1, 192288, Note_on_c, 0, 57, 100
1, 192336, Note_off_c, 0, 57, 64
1, 192384, Note_on_c, 0, 52, 100
1, 192384, Note_on_c, 0, 64, 100
1, 192408, Note_off_c, 0, 64, 64
1, 192408, Note_on_c, 0, 68, 100
1, 192432, Note_off_c, 0, 52, 64
1, 192432, Note_on_c, 0, 56, 100
1, 192432, Note_on_c, 0, 60, 100
1, 192432, Note_off_c, 0, 68, 64
1, 192456, Note_off_c, 0, 60, 64
1, 192480, Note_on_c, 0, 48, 100
1, 192480, Note_off_c, 0, 56, 64
1, 192480, Note_on_c, 0, 64, 100
1, 192504, Note_off_c, 0, 64, 64
1, 192528, Note_off_c, 0, 48, 64
1, 192528, Note_on_c, 0, 68, 100
1, 192552, Note_off_c, 0, 68, 64
1, 192576, Note_on_c, 0, 52, 100
1, 192624, Note_off_c, 0, 52, 64
1, 192672, Note_on_c, 0, 56, 100
1, 192720, Note_off_c, 0, 56, 64
1, 192768, Note_on_c, 0, 45, 100
1, 192768, Note_on_c, 0, 57, 100
1, 192792, Note_off_c, 0, 57, 64
1, 192816, Note_off_c, 0, 45, 64
1, 192816, Note_on_c, 0, 65, 100
1, 192840, Note_on_c, 0, 60, 100
1, 192840, Note_off_c, 0, 65, 64
1, 192864, Note_on_c, 0, 53, 100
1, 192864, Note_off_c, 0, 60, 64
1, 192864, Note_on_c, 0, 64, 100
1, 192888, Note_off_c, 0, 64, 64
1, 192912, Note_on_c, 0, 48, 100
1, 192912, Note_off_c, 0, 53, 64
1, 192912, Note_on_c, 0, 69, 100
1, 192936, Note_off_c, 0, 69, 64
1, 192960, Note_off_c, 0, 48, 64
1, 192960, Note_on_c, 0, 52, 100
1, 193008, Note_off_c, 0, 52, 64
1, 193056, Note_on_c, 0, 57, 100
1, 193104, Note_off_c, 0, 57, 64
1, 193152, Note_on_c, 0, 52, 100
1, 193152, Note_on_c, 0, 64, 100
1, 193176, Note_off_c, 0, 64, 64
1, 193176, Note_on_c, 0, 68, 100
1, 193200, Note_off_c, 0, 52, 64
1, 193200, Note_on_c, 0, 56, 100
1, 193200, Note_on_c, 0, 60, 100
1, 193200, Note_off_c, 0, 68, 64
1, 193224, Note_off_c, 0, 60, 64
1, 193248, Note_on_c, 0, 48, 100
1, 193248, Note_off_c, 0, 56, 64
1, 193248, Note_on_c, 0, 64, 100
1, 193272, Note_off_c, 0, 64, 64
1, 193296, Note_off_c, 0, 48, 64
1, 193296, Note_on_c, 0, 68, 100
1, 193320, Note_off_c, 0, 68, 64
1, 193344, Note_on_c, 0, 52, 100
1, 193392, Note_off_c, 0, 52, 64
1, 193440, Note_on_c, 0, 56, 100
1, 193488, Note_off_c, 0, 56, 64
1, 193536, Note_on_c, 0, 57, 100
1, 193536, Note_on_c, 0, 69, 100
1, 193542, Note_on_c, 0, 71, 100
1, 193548, Note_on_c, 0, 59, 100
1, 193548, Note_on_c, 0, 72, 100
1, 193554, Note_on_c, 0, 76, 100
1, 193560, Note_on_c, 0, 60, 100
1, 193560, Note_off_c, 0, 69, 64
1, 193566, Note_off_c, 0, 71, 64
1, 193572, Note_on_c, 0, 64, 100
1, 193572, Note_off_c, 0, 72, 64
1, 193578, Note_off_c, 0, 76, 64
1, 193584, Note_off_c, 0, 57, 64
1, 193596, Note_off_c, 0, 59, 64
1, 193608, Note_off_c, 0, 60, 64
1, 193620, Note_off_c, 0, 64, 64
1, 193632, Note_on_c, 0, 57, 100
1, 193656, Note_off_c, 0, 57, 64
1, 193728, Note_on_c, 0, 45, 100
1, 193728, Note_on_c, 0, 64, 100
1, 193752, Note_off_c, 0, 64, 64
1, 193776, Note_off_c, 0, 45, 64
1, 193824, Note_on_c, 0, 72, 100
1, 193848, Note_off_c, 0, 72, 64
1, 193872, Note_on_c, 0, 71, 100
1, 193896, Note_off_c, 0, 71, 64
1, 193920, Note_on_c, 0, 40, 100
1, 193920, Note_on_c, 0, 64, 100
1, 193926, Note_on_c, 0, 68, 100
1, 193932, Note_on_c, 0, 44, 100
1, 193932, Note_on_c, 0, 71, 100
1, 193938, Note_on_c, 0, 76, 100
1, 193944, Note_on_c, 0, 47, 100
1, 193944, Note_off_c, 0, 64, 64
1, 193950, Note_off_c, 0, 68, 64
1, 193956, Note_on_c, 0, 52, 100
1, 193956, Note_off_c, 0, 71, 64
1, 193962, Note_off_c, 0, 76, 64
1, 193968, Note_off_c, 0, 40, 64
1, 193980, Note_off_c, 0, 44, 64
1, 193992, Note_off_c, 0, 47, 64
1, 194004, Note_off_c, 0, 52, 64
1, 194304, Note_on_c, 0, 57, 100
1, 194304, Note_on_c, 0, 69, 100
1, 194310, Note_on_c, 0, 71, 100
1, 194316, Note_on_c, 0, 59, 100
1, 194316, Note_on_c, 0, 72, 100
1, 194322, Note_on_c, 0, 76, 100
1, 194328, Note_on_c, 0, 60, 100
1, 194328, Note_off_c, 0, 69, 64
1, 194334, Note_off_c, 0, 71, 64
1, 194340, Note_on_c, 0, 64, 100
1, 194340, Note_off_c, 0, 72, 64
1, 194346, Note_off_c, 0, 76, 64
1, 194352, Note_off_c, 0, 57, 64
1, 194364, Note_off_c, 0, 59, 64
1, 194376, Note_off_c, 0, 60, 64
1, 194388, Note_off_c, 0, 64, 64
1, 194400, Note_on_c, 0, 57, 100
1, 194424, Note_off_c, 0, 57, 64
1, 194496, Note_on_c, 0, 45, 100
1, 194496, Note_on_c, 0, 64, 100
1, 194520, Note_off_c, 0, 64, 64
1, 194544, Note_off_c, 0, 45, 64
1, 194592, Note_on_c, 0, 72, 100
1, 194616, Note_off_c, 0, 72, 64
1, 194640, Note_on_c, 0, 71, 100
1, 194664, Note_off_c, 0, 71, 64
1, 194688, Note_on_c, 0, 40, 100
1, 194688, Note_on_c, 0, 64, 100
1, 194694, Note_on_c, 0, 68, 100
1, 194700, Note_on_c, 0, 44, 100
1, 194700, Note_on_c, 0, 71, 100
1, 194706, Note_on_c, 0, 76, 100
1, 194712, Note_on_c, 0, 47, 100
1, 194712, Note_off_c, 0, 64, 64
1, 194718, Note_off_c, 0, 68, 64
1, 194724, Note_on_c, 0, 52, 100
1, 194724, Note_off_c, 0, 71, 64
1, 194730, Note_off_c, 0, 76, 64
1, 194736, Note_off_c, 0, 40, 64
1, 194748, Note_off_c, 0, 44, 64
1, 194760, Note_off_c, 0, 47, 64
1, 194772, Note_off_c, 0, 52, 64
1, 194880, Note_on_c, 0, 64, 100
1, 194904, Note_off_c, 0, 64, 64
1, 194976, Note_on_c, 0, 65, 100
1, 195000, Note_off_c, 0, 65, 64
1, 195072, Note_on_c, 0, 45, 100
1, 195072, Note_on_c, 0, 57, 100
1, 195120, Note_off_c, 0, 57, 64
1, 195168, Note_off_c, 0, 45, 64
1, 195168, Note_on_c, 0, 64, 100
1, 195192, Note_off_c, 0, 64, 64
1, 195216, Note_on_c, 0, 72, 100
1, 195264, Note_on_c, 0, 52, 100
1, 195264, Note_on_c, 0, 71, 100
1, 195264, Note_off_c, 0, 72, 64
1, 195312, Note_off_c, 0, 52, 64
1, 195312, Note_on_c, 0, 64, 100
1, 195312, Note_off_c, 0, 71, 64
1, 195360, Note_on_c, 0, 60, 100
1, 195360, Note_off_c, 0, 64, 64
1, 195456, Note_off_c, 0, 60, 64
1, 195552, Note_on_c, 0, 69, 100
1, 195600, Note_off_c, 0, 69, 64
1, 195600, Note_on_c, 0, 72, 100
1, 195648, Note_on_c, 0, 71, 100
1, 195648, Note_off_c, 0, 72, 64
1, 195696, Note_on_c, 0, 64, 100
1, 195696, Note_off_c, 0, 71, 64
1, 195744, Note_off_c, 0, 64, 64
1, 195840, Note_on_c, 0, 45, 100
1, 195840, Note_on_c, 0, 57, 100
1, 195888, Note_off_c, 0, 57, 64
1, 195936, Note_off_c, 0, 45, 64
1, 195936, Note_on_c, 0, 76, 100
1, 195960, Note_off_c, 0, 76, 64
1, 195984, Note_on_c, 0, 72, 100
1, 196032, Note_on_c, 0, 64, 100
1, 196032, Note_on_c, 0, 71, 100
1, 196032, Note_off_c, 0, 72, 64
1, 196079, Note_off_c, 0, 64, 64
1, 196080, Note_on_c, 0, 64, 100
1, 196080, Note_off_c, 0, 71, 64
1, 196128, Note_on_c, 0, 60, 100
1, 196128, Note_off_c, 0, 64, 64
1, 196224, Note_off_c, 0, 60, 64
1, 196320, Note_on_c, 0, 69, 100
1, 196368, Note_off_c, 0, 69, 64
1, 196368, Note_on_c, 0, 72, 100
1, 196416, Note_on_c, 0, 71, 100
1, 196416, Note_off_c, 0, 72, 64
1, 196464, Note_on_c, 0, 64, 100
1, 196464, Note_off_c, 0, 71, 64
1, 196512, Note_off_c, 0, 64, 64
1, 196512, Note_on_c, 0, 68, 100
1, 196560, Note_off_c, 0, 68, 64
1, 196608, Note_on_c, 0, 33, 101
1, 196608, Note_on_c, 0, 60, 101
1, 196680, Note_on_c, 0, 57, 101
1, 196680, Note_off_c, 0, 60, 64
1, 196704, Note_on_c, 0, 48, 101
1, 196752, Note_off_c, 0, 57, 64
1, 196752, Note_on_c, 0, 59, 101
1, 196848, Note_on_c, 0, 53, 101
1, 196848, Note_off_c, 0, 59, 64
1, 196896, Note_on_c, 0, 52, 101
1, 196896, Note_off_c, 0, 53, 64
1, 196944, Note_off_c, 0, 52, 64
1, 196944, Note_on_c, 0, 57, 101
1, 196992, Note_off_c, 0, 33, 64
1, 196992, Note_on_c, 0, 45, 101
1, 196992, Note_off_c, 0, 48, 64
1, 196992, Note_off_c, 0, 57, 64
1, 196992, Note_on_c, 0, 60, 101
1, 197064, Note_on_c, 0, 57, 101
1, 197064, Note_off_c, 0, 60, 64
1, 197088, Note_on_c, 0, 48, 101
1, 197136, Note_off_c, 0, 57, 64
1, 197136, Note_on_c, 0, 59, 101
1, 197232, Note_on_c, 0, 53, 101
1, 197232, Note_off_c, 0, 59, 64
1, 197280, Note_on_c, 0, 52, 101
1, 197280, Note_off_c, 0, 53, 64
1, 197376, Note_on_c, 0, 33, 101
1, 197376, Note_off_c, 0, 45, 64
1, 197376, Note_off_c, 0, 48, 64
1, 197376, Note_off_c, 0, 52, 64
1, 197376, Note_on_c, 0, 60, 101
1, 197448, Note_on_c, 0, 57, 101
1, 197448, Note_off_c, 0, 60, 64
1, 197472, Note_on_c, 0, 48, 101
1, 197520, Note_off_c, 0, 57, 64
1, 197520, Note_on_c, 0, 59, 101
1, 197616, Note_on_c, 0, 53, 101
1, 197616, Note_off_c, 0, 59, 64
1, 197664, Note_on_c, 0, 52, 101
1, 197664, Note_off_c, 0, 53, 64
1, 197712, Note_off_c, 0, 52, 64
1, 197712, Note_on_c, 0, 57, 101
1, 197760, Note_off_c, 0, 33, 64
1, 197760, Note_on_c, 0, 45, 101
1, 197760, Note_off_c, 0, 48, 64
1, 197760, Note_off_c, 0, 57, 64
1, 197760, Note_on_c, 0, 60, 101
1, 197832, Note_on_c, 0, 57, 101
1, 197832, Note_off_c, 0, 60, 64
1, 197856, Note_on_c, 0, 48, 101
1, 197904, Note_off_c, 0, 57, 64
1, 197904, Note_on_c, 0, 59, 101
1, 198000, Note_on_c, 0, 53, 101
1, 198000, Note_off_c, 0, 59, 64
1, 198048, Note_on_c, 0, 52, 101
1, 198048, Note_off_c, 0, 53, 64
1, 198144, Note_off_c, 0, 45, 64
1, 198144, Note_off_c, 0, 48, 64
1, 198144, Note_off_c, 0, 52, 64
1, 198145, Note_on_c, 0, 57, 95
1, 198156, Note_on_c, 0, 64, 127
1, 198169, Note_off_c, 0, 57, 64
1, 198180, Note_off_c, 0, 64, 64
1, 198240, Note_on_c, 0, 60, 97
1, 198264, Note_off_c, 0, 60, 64
1, 198336, Note_on_c, 0, 64, 97
1, 198339, Note_on_c, 0, 67, 97
1, 198360, Note_off_c, 0, 64, 64
1, 198363, Note_off_c, 0, 67, 64
1, 198432, Note_on_c, 0, 57, 97
1, 198435, Note_on_c, 0, 69, 97
1, 198456, Note_off_c, 0, 57, 64
1, 198459, Note_off_c, 0, 69, 64
1, 198528, Note_on_c, 0, 53, 97
1, 198532, Note_on_c, 0, 60, 127
1, 198552, Note_off_c, 0, 53, 64
1, 198556, Note_off_c, 0, 60, 64
1, 198624, Note_on_c, 0, 57, 97
1, 198648, Note_off_c, 0, 57, 64
1, 198672, Note_on_c, 0, 65, 97
1, 198696, Note_off_c, 0, 65, 64
1, 198720, Note_on_c, 0, 62, 97
1, 198726, Note_on_c, 0, 64, 97
1, 198744, Note_off_c, 0, 62, 64
1, 198750, Note_off_c, 0, 64, 64
1, 198816, Note_on_c, 0, 59, 97
1, 198819, Note_on_c, 0, 56, 45
1, 198837, Note_off_c, 0, 56, 64
1, 198840, Note_off_c, 0, 59, 64
1, 198913, Note_on_c, 0, 57, 95
1, 198924, Note_on_c, 0, 64, 127
1, 198937, Note_off_c, 0, 57, 64
1, 198948, Note_off_c, 0, 64, 64
1, 199008, Note_on_c, 0, 60, 97
1, 199032, Note_off_c, 0, 60, 64
1, 199104, Note_on_c, 0, 64, 97
1, 199107, Note_on_c, 0, 67, 97
1, 199128, Note_off_c, 0, 64, 64
1, 199131, Note_off_c, 0, 67, 64
1, 199200, Note_on_c, 0, 57, 97
1, 199203, Note_on_c, 0, 69, 97
1, 199224, Note_off_c, 0, 57, 64
1, 199227, Note_off_c, 0, 69, 64
1, 199296, Note_on_c, 0, 53, 97
1, 199300, Note_on_c, 0, 60, 127
1, 199320, Note_off_c, 0, 53, 64
1, 199324, Note_off_c, 0, 60, 64
1, 199392, Note_on_c, 0, 57, 97
1, 199416, Note_off_c, 0, 57, 64
1, 199440, Note_on_c, 0, 65, 97
1, 199464, Note_off_c, 0, 65, 64
1, 199488, Note_on_c, 0, 62, 97
1, 199491, Note_on_c, 0, 67, 97
1, 199512, Note_off_c, 0, 62, 64
1, 199515, Note_off_c, 0, 67, 64
1, 199584, Note_on_c, 0, 59, 97
1, 199587, Note_on_c, 0, 56, 45
1, 199605, Note_off_c, 0, 56, 64
1, 199608, Note_off_c, 0, 59, 64
1, 199632, Note_on_c, 0, 62, 107
1, 199656, Note_off_c, 0, 62, 64
1, 199680, Note_on_c, 0, 57, 100
1, 199680, Note_on_c, 0, 60, 100
1, 199680, Note_on_c, 0, 64, 100
1, 199704, Note_off_c, 0, 57, 64
1, 199704, Note_off_c, 0, 60, 64
1, 199704, Note_off_c, 0, 64, 64
1, 199776, Note_on_c, 0, 69, 100
1, 199872, Note_off_c, 0, 69, 64
1, 199872, Note_on_c, 0, 76, 100
1, 199968, Note_on_c, 0, 74, 100
1, 199968, Note_off_c, 0, 76, 64
1, 200064, Note_on_c, 0, 58, 100
1, 200064, Note_on_c, 0, 62, 100
1, 200064, Note_on_c, 0, 65, 100
1, 200064, Note_off_c, 0, 74, 64
1, 200088, Note_off_c, 0, 58, 64
1, 200088, Note_off_c, 0, 62, 64
1, 200088, Note_off_c, 0, 65, 64
1, 200256, Note_on_c, 0, 72, 100
1, 200352, Note_off_c, 0, 72, 64
1, 200352, Note_on_c, 0, 74, 100
1, 200448, Note_on_c, 0, 57, 100
1, 200448, Note_on_c, 0, 60, 100
1, 200448, Note_on_c, 0, 64, 100
1, 200448, Note_off_c, 0, 74, 64
1, 200472, Note_off_c, 0, 57, 64
1, 200472, Note_off_c, 0, 60, 64
1, 200472, Note_off_c, 0, 64, 64
1, 200544, Note_on_c, 0, 69, 100
1, 200640, Note_off_c, 0, 69, 64
1, 200640, Note_on_c, 0, 76, 100
1, 200736, Note_on_c, 0, 74, 100
1, 200736, Note_off_c, 0, 76, 64
1, 200832, Note_on_c, 0, 58, 100
1, 200832, Note_on_c, 0, 62, 100
1, 200832, Note_on_c, 0, 65, 100
1, 200832, Note_off_c, 0, 74, 64
1, 200856, Note_off_c, 0, 58, 64
1, 200856, Note_off_c, 0, 62, 64
1, 200856, Note_off_c, 0, 65, 64
1, 201024, Note_on_c, 0, 58, 100
1, 201024, Note_on_c, 0, 62, 100
1, 201024, Note_on_c, 0, 67, 100
1, 201024, Note_on_c, 0, 70, 100
1, 201048, Note_off_c, 0, 58, 64
1, 201048, Note_off_c, 0, 62, 64
1, 201048, Note_off_c, 0, 67, 64
1, 201120, Note_on_c, 0, 67, 100
1, 201120, Note_off_c, 0, 70, 64
1, 201216, Note_on_c, 0, 33, 76
1, 201216, Note_on_c, 0, 52, 43
1, 201216, Note_on_c, 0, 57, 78
1, 201216, Note_on_c, 0, 64, 39
1, 201216, Note_off_c, 0, 67, 64
1, 201216, Note_on_c, 0, 76, 80
1, 201261, Note_off_c, 0, 57, 47
1, 201296, Note_off_c, 0, 76, 47
1, 201311, Note_on_c, 0, 77, 80
1, 201407, Note_off_c, 0, 52, 46
1, 201407, Note_off_c, 0, 64, 17
1, 201408, Note_on_c, 0, 53, 27
1, 201408, Note_on_c, 0, 64, 85
1, 201408, Note_on_c, 0, 69, 28
1, 201409, Note_on_c, 0, 81, 80
1, 201422, Note_off_c, 0, 77, 34
1, 201449, Note_off_c, 0, 64, 57
1, 201499, Note_off_c, 0, 81, 53
1, 201504, Note_on_c, 0, 83, 80
1, 201599, Note_off_c, 0, 33, 70
1, 201599, Note_off_c, 0, 53, 24
1, 201599, Note_off_c, 0, 69, 51
1, 201600, Note_on_c, 0, 40, 80
1, 201600, Note_on_c, 0, 57, 38
1, 201600, Note_on_c, 0, 60, 83
1, 201600, Note_on_c, 0, 72, 19
1, 201600, Note_on_c, 0, 84, 80
1, 201603, Note_off_c, 0, 83, 47
1, 201649, Note_off_c, 0, 60, 21
1, 201791, Note_off_c, 0, 57, 40
1, 201791, Note_off_c, 0, 72, 47
1, 201792, Note_on_c, 0, 59, 77
1, 201792, Note_on_c, 0, 71, 46
1, 201856, Note_off_c, 0, 59, 44
1, 201887, Note_off_c, 0, 40, 72
1, 201887, Note_off_c, 0, 71, 52
1, 201888, Note_on_c, 0, 52, 80
1, 201888, Note_on_c, 0, 65, 52
1, 201940, Note_off_c, 0, 65, 53
1, 201969, Note_off_c, 0, 84, 45
1, 201983, Note_off_c, 0, 52, 72
1, 201983, Note_on_c, 0, 76, 80
1, 201984, Note_on_c, 0, 35, 80
1, 201984, Note_on_c, 0, 52, 43
1, 201984, Note_on_c, 0, 57, 78
1, 201984, Note_on_c, 0, 64, 39
1, 202029, Note_off_c, 0, 57, 47
1, 202079, Note_on_c, 0, 77, 80
1, 202083, Note_off_c, 0, 76, 47
1, 202174, Note_off_c, 0, 77, 24
1, 202175, Note_off_c, 0, 52, 46
1, 202175, Note_off_c, 0, 64, 17
1, 202176, Note_on_c, 0, 53, 27
1, 202176, Note_on_c, 0, 64, 85
1, 202176, Note_on_c, 0, 69, 28
1, 202176, Note_on_c, 0, 81, 80
1, 202217, Note_off_c, 0, 64, 57
1, 202272, Note_on_c, 0, 83, 80
1, 202276, Note_off_c, 0, 81, 45
1, 202367, Note_off_c, 0, 35, 57
1, 202367, Note_off_c, 0, 53, 24
1, 202367, Note_off_c, 0, 69, 51
1, 202368, Note_on_c, 0, 41, 70
1, 202368, Note_on_c, 0, 57, 38
1, 202368, Note_on_c, 0, 60, 83
1, 202368, Note_on_c, 0, 72, 19
1, 202368, Note_on_c, 0, 84, 80
1, 202373, Note_off_c, 0, 83, 50
1, 202417, Note_off_c, 0, 60, 21
1, 202464, Note_off_c, 0, 84, 32
1, 202464, Note_on_c, 0, 88, 80
1, 202559, Note_off_c, 0, 57, 40
1, 202559, Note_off_c, 0, 72, 47
1, 202560, Note_on_c, 0, 59, 77
1, 202560, Note_on_c, 0, 71, 46
1, 202624, Note_off_c, 0, 59, 44
1, 202655, Note_off_c, 0, 71, 52
1, 202656, Note_on_c, 0, 34, 70
1, 202656, Note_off_c, 0, 41, 67
1, 202656, Note_on_c, 0, 65, 52
1, 202656, Note_on_c, 0, 77, 80
1, 202656, Note_off_c, 0, 88, 87
1, 202708, Note_off_c, 0, 65, 53
1, 202751, Note_off_c, 0, 34, 67
1, 202751, Note_off_c, 0, 77, 87
1, 202752, Note_on_c, 0, 53, 84
1, 202752, Note_on_c, 0, 62, 84
1, 202848, Note_on_c, 0, 65, 84
1, 202858, Note_off_c, 0, 62, 64
1, 202944, Note_off_c, 0, 53, 64
1, 202944, Note_on_c, 0, 60, 84
1, 202944, Note_on_c, 0, 69, 84
1, 202954, Note_off_c, 0, 65, 64
1, 203040, Note_on_c, 0, 65, 84
1, 203040, Note_on_c, 0, 91, 88
1, 203050, Note_off_c, 0, 69, 64
1, 203090, Note_on_c, 0, 89, 60
1, 203101, Note_off_c, 0, 91, 53
1, 203136, Note_on_c, 0, 52, 58
1, 203136, Note_off_c, 0, 60, 64
1, 203136, Note_on_c, 0, 64, 84
1, 203139, Note_off_c, 0, 89, 117
1, 203145, Note_on_c, 0, 88, 66
1, 203146, Note_off_c, 0, 65, 64
1, 203232, Note_on_c, 0, 68, 84
1, 203242, Note_off_c, 0, 64, 64
1, 203280, Note_on_c, 0, 60, 84
1, 203328, Note_off_c, 0, 52, 64
1, 203328, Note_on_c, 0, 59, 84
1, 203328, Note_off_c, 0, 60, 64
1, 203328, Note_on_c, 0, 71, 84
1, 203338, Note_off_c, 0, 68, 64
1, 203345, Note_on_c, 0, 86, 81
1, 203350, Note_off_c, 0, 88, 101
1, 203424, Note_on_c, 0, 68, 84
1, 203434, Note_off_c, 0, 71, 64
1, 203520, Note_on_c, 0, 45, 84
1, 203520, Note_off_c, 0, 59, 64
1, 203520, Note_on_c, 0, 69, 84
1, 203527, Note_off_c, 0, 86, 98
1, 203530, Note_off_c, 0, 68, 64
1, 203616, Note_on_c, 0, 72, 84
1, 203626, Note_off_c, 0, 69, 64
1, 203712, Note_off_c, 0, 45, 64
1, 203712, Note_on_c, 0, 52, 84
1, 203712, Note_on_c, 0, 76, 84
1, 203722, Note_off_c, 0, 72, 64
1, 203808, Note_on_c, 0, 72, 84
1, 203812, Note_on_c, 0, 81, 68
1, 203818, Note_off_c, 0, 76, 64
1, 203855, Note_off_c, 0, 81, 84
1, 203857, Note_on_c, 0, 83, 83
1, 203904, Note_on_c, 0, 45, 84
1, 203904, Note_off_c, 0, 52, 64
1, 203904, Note_on_c, 0, 57, 84
1, 203904, Note_on_c, 0, 69, 84
1, 203908, Note_on_c, 0, 84, 69
1, 203913, Note_off_c, 0, 83, 81
1, 203914, Note_off_c, 0, 72, 64
1, 204000, Note_off_c, 0, 45, 64
1, 204000, Note_on_c, 0, 48, 84
1, 204000, Note_on_c, 0, 72, 84
1, 204010, Note_off_c, 0, 69, 64
1, 204096, Note_off_c, 0, 48, 64
1, 204096, Note_on_c, 0, 50, 84
1, 204096, Note_off_c, 0, 57, 64
1, 204096, Note_on_c, 0, 71, 84
1, 204105, Note_on_c, 0, 86, 81
1, 204106, Note_on_c, 0, 59, 84
1, 204106, Note_off_c, 0, 72, 64
1, 204108, Note_off_c, 0, 84, 57
1, 204192, Note_off_c, 0, 50, 64
1, 204192, Note_on_c, 0, 52, 84
1, 204192, Note_on_c, 0, 64, 84
1, 204195, Note_on_c, 0, 84, 70
1, 204202, Note_off_c, 0, 71, 64
1, 204206, Note_off_c, 0, 86, 101
1, 204264, Note_off_c, 0, 59, 64
1, 204288, Note_on_c, 0, 45, 75
1, 204288, Note_off_c, 0, 52, 64
1, 204288, Note_on_c, 0, 60, 75
1, 204288, Note_off_c, 0, 64, 64
1, 204288, Note_on_c, 0, 64, 75
1, 204288, Note_off_c, 0, 84, 119
1, 204384, Note_on_c, 0, 52, 75
1, 204479, Note_off_c, 0, 60, 36
1, 204480, Note_on_c, 0, 59, 75
1, 204480, Note_on_c, 0, 60, 75
1, 204480, Note_on_c, 0, 67, 75
1, 204481, Note_on_c, 0, 69, 23
1, 204527, Note_on_c, 0, 71, 57
1, 204575, Note_off_c, 0, 52, 55
1, 204576, Note_on_c, 0, 52, 75
1, 204576, Note_on_c, 0, 72, 56
1, 204625, Note_on_c, 0, 76, 25
1, 204671, Note_off_c, 0, 60, 35
1, 204672, Note_on_c, 0, 57, 75
1, 204672, Note_on_c, 0, 60, 75
1, 204672, Note_on_c, 0, 79, 67
1, 204767, Note_off_c, 0, 52, 34
1, 204768, Note_on_c, 0, 52, 75
1, 204862, Note_off_c, 0, 76, 28
1, 204862, Note_on_c, 0, 76, 31
1, 204863, Note_off_c, 0, 59, 17
1, 204863, Note_off_c, 0, 60, 39
1, 204863, Note_off_c, 0, 64, 33
1, 204864, Note_on_c, 0, 59, 75
1, 204864, Note_on_c, 0, 60, 75
1, 204864, Note_on_c, 0, 64, 75
1, 204959, Note_off_c, 0, 52, 28
1, 204960, Note_on_c, 0, 52, 75
1, 205055, Note_off_c, 0, 45, 34
1, 205055, Note_off_c, 0, 60, 32
1, 205055, Note_off_c, 0, 64, 25
1, 205056, Note_on_c, 0, 45, 75
1, 205056, Note_on_c, 0, 60, 75
1, 205056, Note_on_c, 0, 64, 75
1, 205075, Note_off_c, 0, 52, 25
1, 205075, Note_off_c, 0, 57, 30
1, 205075, Note_off_c, 0, 59, 10
1, 205075, Note_off_c, 0, 67, 38
1, 205075, Note_off_c, 0, 69, 27
1, 205075, Note_off_c, 0, 71, 33
1, 205075, Note_off_c, 0, 72, 45
1, 205075, Note_off_c, 0, 76, 50
1, 205075, Note_off_c, 0, 79, 52
1, 205152, Note_on_c, 0, 52, 75
1, 205247, Note_off_c, 0, 60, 56
1, 205247, Note_on_c, 0, 69, 31
1, 205248, Note_on_c, 0, 59, 75
1, 205248, Note_on_c, 0, 60, 75
1, 205248, Note_on_c, 0, 67, 75
1, 205295, Note_on_c, 0, 71, 26
1, 205343, Note_off_c, 0, 52, 23
1, 205344, Note_on_c, 0, 52, 75
1, 205345, Note_on_c, 0, 72, 42
1, 205392, Note_on_c, 0, 76, 22
1, 205439, Note_off_c, 0, 60, 36
1, 205440, Note_on_c, 0, 57, 75
1, 205440, Note_on_c, 0, 60, 75
1, 205440, Note_on_c, 0, 79, 60
1, 205535, Note_off_c, 0, 52, 36
1, 205536, Note_on_c, 0, 52, 75
1, 205629, Note_off_c, 0, 76, 24
1, 205630, Note_on_c, 0, 76, 47
1, 205631, Note_off_c, 0, 57, 12
1, 205631, Note_off_c, 0, 60, 48
1, 205631, Note_off_c, 0, 64, 49
1, 205632, Note_on_c, 0, 57, 75
1, 205632, Note_on_c, 0, 60, 76
1, 205632, Note_on_c, 0, 64, 75
1, 205721, Note_on_c, 0, 81, 34
1, 205727, Note_off_c, 0, 52, 39
1, 205728, Note_on_c, 0, 52, 75
1, 205821, Note_off_c, 0, 72, 43
1, 205823, Note_off_c, 0, 57, 15
1, 205823, Note_off_c, 0, 60, 47
1, 205823, Note_off_c, 0, 64, 39
1, 205824, Note_off_c, 0, 45, 2
1, 205824, Note_on_c, 0, 45, 127
1, 205824, Note_off_c, 0, 52, 41
1, 205824, Note_on_c, 0, 57, 42
1, 205824, Note_off_c, 0, 59, 15
1, 205824, Note_on_c, 0, 64, 54
1, 205824, Note_off_c, 0, 67, 55
1, 205824, Note_off_c, 0, 69, 34
1, 205824, Note_off_c, 0, 71, 25
1, 205824, Note_off_c, 0, 76, 46
1, 205824, Note_off_c, 0, 79, 60
1, 205824, Note_off_c, 0, 81, 40
1, 205826, Note_on_c, 0, 69, 60
1, 205834, Note_on_c, 0, 74, 63
1, 205848, Note_off_c, 0, 45, 64
1, 205969, Note_on_c, 0, 72, 50
1, 205987, Note_off_c, 0, 72, 34
1, 206018, Note_on_c, 0, 72, 62
1, 206062, Note_on_c, 0, 71, 49
1, 206064, Note_off_c, 0, 72, 2
1, 206112, Note_on_c, 0, 72, 59
1, 206113, Note_off_c, 0, 71, 18
1, 206140, Note_off_c, 0, 57, 27
1, 206208, Note_on_c, 0, 57, 47
1, 206297, Note_off_c, 0, 69, 5
1, 206298, Note_off_c, 0, 72, 1
1, 206304, Note_on_c, 0, 45, 127
1, 206304, Note_off_c, 0, 64, 30
1, 206328, Note_off_c, 0, 45, 64
1, 206352, Note_on_c, 0, 45, 127
1, 206352, Note_on_c, 0, 64, 30
1, 206353, Note_on_c, 0, 69, 23
1, 206376, Note_off_c, 0, 45, 64
1, 206400, Note_on_c, 0, 47, 127
1, 206403, Note_on_c, 0, 72, 57
1, 206424, Note_off_c, 0, 47, 64
1, 206445, Note_off_c, 0, 69, 1
1, 206449, Note_on_c, 0, 71, 60
1, 206478, Note_off_c, 0, 71, 88
1, 206496, Note_on_c, 0, 48, 127
1, 206496, Note_on_c, 0, 71, 54
1, 206498, Note_off_c, 0, 74, 5
1, 206520, Note_off_c, 0, 48, 64
1, 206534, Note_off_c, 0, 72, 1
1, 206543, Note_off_c, 0, 71, 123
1, 206544, Note_on_c, 0, 69, 57
1, 206557, Note_off_c, 0, 64, 42
1, 206584, Note_off_c, 0, 57, 1
1, 206588, Note_on_c, 0, 68, 59
1, 206592, Note_on_c, 0, 52, 127
1, 206592, Note_on_c, 0, 64, 53
1, 206592, Note_off_c, 0, 69, 64
1, 206595, Note_on_c, 0, 72, 57
1, 206688, Note_on_c, 0, 40, 126
1, 206688, Note_off_c, 0, 52, 64
1, 206712, Note_off_c, 0, 40, 64
1, 206736, Note_on_c, 0, 71, 64
1, 206762, Note_off_c, 0, 71, 116
1, 206784, Note_on_c, 0, 71, 58
1, 206832, Note_on_c, 0, 69, 62
1, 206837, Note_off_c, 0, 71, 89
1, 206880, Note_on_c, 0, 71, 64
1, 206892, Note_off_c, 0, 69, 55
1, 206960, Note_off_c, 0, 68, 1
1, 206976, Note_on_c, 0, 52, 47
1, 207054, Note_off_c, 0, 72, 1
1, 207072, Note_on_c, 0, 40, 126
1, 207072, Note_on_c, 0, 62, 9
1, 207072, Note_off_c, 0, 64, 47
1, 207076, Note_on_c, 0, 64, 35
1, 207079, Note_on_c, 0, 68, 35
1, 207096, Note_off_c, 0, 40, 64
1, 207122, Note_off_c, 0, 71, 48
1, 207167, Note_on_c, 0, 71, 65
1, 207168, Note_on_c, 0, 47, 127
1, 207192, Note_off_c, 0, 47, 64
1, 207210, Note_off_c, 0, 62, 64
1, 207210, Note_off_c, 0, 64, 64
1, 207210, Note_off_c, 0, 68, 64
1, 207216, Note_on_c, 0, 47, 127
1, 207216, Note_on_c, 0, 68, 48
1, 207240, Note_off_c, 0, 47, 64
1, 207264, Note_on_c, 0, 40, 127
1, 207264, Note_on_c, 0, 64, 44
1, 207264, Note_off_c, 0, 68, 53
1, 207288, Note_off_c, 0, 40, 64
1, 207298, Note_off_c, 0, 71, 1
1, 207312, Note_on_c, 0, 62, 64
1, 207312, Note_off_c, 0, 64, 53
1, 207317, Note_off_c, 0, 52, 13
1, 207337, Note_off_c, 0, 62, 121
1, 207360, Note_on_c, 0, 45, 102
1, 207408, Note_on_c, 0, 60, 95
1, 207456, Note_on_c, 0, 64, 99
1, 207503, Note_off_c, 0, 60, 64
1, 207504, Note_on_c, 0, 60, 94
1, 207551, Note_off_c, 0, 64, 64
1, 207552, Note_on_c, 0, 64, 99
1, 207612, Note_on_c, 0, 72, 97
1, 207690, Note_on_c, 0, 71, 105
1, 207744, Note_off_c, 0, 45, 64
1, 207744, Note_on_c, 0, 53, 103
1, 207744, Note_off_c, 0, 71, 64
1, 207798, Note_off_c, 0, 60, 64
1, 207798, Note_off_c, 0, 64, 64
1, 207798, Note_on_c, 0, 69, 97
1, 207798, Note_off_c, 0, 72, 64
1, 207804, Note_on_c, 0, 60, 107
1, 207888, Note_off_c, 0, 69, 64
1, 207888, Note_on_c, 0, 71, 97
1, 207935, Note_off_c, 0, 53, 64
1, 207936, Note_on_c, 0, 53, 97
1, 207984, Note_off_c, 0, 60, 64
1, 207984, Note_on_c, 0, 65, 106
1, 208024, Note_on_c, 0, 89, 78
1, 208032, Note_on_c, 0, 64, 100
1, 208036, Note_off_c, 0, 89, 64
1, 208036, Note_on_c, 0, 92, 91
1, 208048, Note_off_c, 0, 92, 64
1, 208048, Note_on_c, 0, 93, 92
1, 208060, Note_off_c, 0, 93, 64
1, 208074, Note_off_c, 0, 65, 64
1, 208120, Note_on_c, 0, 88, 92
1, 208128, Note_on_c, 0, 45, 99
1, 208128, Note_off_c, 0, 53, 64
1, 208128, Note_off_c, 0, 64, 64
1, 208128, Note_off_c, 0, 71, 64
1, 208176, Note_on_c, 0, 60, 94
1, 208210, Note_off_c, 0, 88, 64
1, 208224, Note_on_c, 0, 64, 96
1, 208271, Note_off_c, 0, 60, 64
1, 208272, Note_on_c, 0, 60, 107
1, 208319, Note_off_c, 0, 64, 64
1, 208320, Note_on_c, 0, 64, 97
1, 208380, Note_on_c, 0, 72, 101
1, 208458, Note_on_c, 0, 71, 100
1, 208512, Note_off_c, 0, 45, 64
1, 208512, Note_on_c, 0, 53, 102
1, 208512, Note_off_c, 0, 71, 64
1, 208566, Note_off_c, 0, 60, 64
1, 208566, Note_off_c, 0, 64, 64
1, 208566, Note_on_c, 0, 69, 102
1, 208566, Note_off_c, 0, 72, 64
1, 208572, Note_on_c, 0, 60, 102
1, 208656, Note_off_c, 0, 69, 64
1, 208656, Note_on_c, 0, 71, 106
1, 208703, Note_off_c, 0, 53, 64
1, 208704, Note_on_c, 0, 53, 105
1, 208751, Note_off_c, 0, 60, 64
1, 208752, Note_on_c, 0, 60, 89
1, 208752, Note_on_c, 0, 65, 100
1, 208792, Note_on_c, 0, 86, 82
1, 208800, Note_on_c, 0, 64, 95
1, 208804, Note_off_c, 0, 86, 64
1, 208804, Note_on_c, 0, 88, 86
1, 208816, Note_off_c, 0, 88, 64
1, 208816, Note_on_c, 0, 89, 90
1, 208842, Note_off_c, 0, 65, 64
1, 208858, Note_off_c, 0, 89, 64
1, 208896, Note_off_c, 0, 53, 64
1, 208896, Note_off_c, 0, 60, 64
1, 208896, Note_off_c, 0, 64, 64
1, 208896, Note_on_c, 0, 69, 94
1, 208896, Note_off_c, 0, 71, 64
1, 208902, Note_on_c, 0, 84, 96
1, 208944, Note_on_c, 0, 76, 96
1, 209184, Note_on_c, 0, 74, 93
1, 209231, Note_off_c, 0, 76, 64
1, 209232, Note_off_c, 0, 74, 64
1, 209232, Note_on_c, 0, 76, 93
1, 209280, Note_on_c, 0, 62, 96
1, 209280, Note_off_c, 0, 69, 64
1, 209280, Note_off_c, 0, 76, 64
1, 209280, Note_off_c, 0, 84, 64
1, 209298, Note_on_c, 0, 77, 96
1, 209376, Note_off_c, 0, 77, 64
1, 209376, Note_on_c, 0, 81, 96
1, 209520, Note_on_c, 0, 77, 96
1, 209664, Note_off_c, 0, 62, 64
1, 209664, Note_on_c, 0, 69, 94
1, 209664, Note_off_c, 0, 77, 64
1, 209664, Note_off_c, 0, 81, 64
1, 209670, Note_on_c, 0, 84, 96
1, 209712, Note_on_c, 0, 76, 96
1, 209952, Note_on_c, 0, 74, 93
1, 209999, Note_off_c, 0, 76, 64
1, 210000, Note_off_c, 0, 74, 64
1, 210000, Note_on_c, 0, 76, 93
1, 210048, Note_on_c, 0, 62, 96
1, 210048, Note_off_c, 0, 69, 64
1, 210048, Note_off_c, 0, 76, 64
1, 210048, Note_off_c, 0, 84, 64
1, 210066, Note_on_c, 0, 77, 96
1, 210144, Note_off_c, 0, 77, 64
1, 210144, Note_on_c, 0, 81, 96
1, 210288, Note_on_c, 0, 77, 96
1, 210432, Note_on_c, 0, 45, 67
1, 210432, Note_off_c, 0, 62, 64
1, 210432, Note_on_c, 0, 64, 93
1, 210432, Note_off_c, 0, 77, 64
1, 210432, Note_off_c, 0, 81, 64
1, 210480, Note_on_c, 0, 62, 93
1, 210480, Note_off_c, 0, 64, 64
1, 210528, Note_on_c, 0, 61, 93
1, 210528, Note_off_c, 0, 62, 64
1, 210528, Note_on_c, 0, 69, 122
1, 210576, Note_off_c, 0, 45, 64
1, 210576, Note_on_c, 0, 57, 93
1, 210576, Note_off_c, 0, 61, 64
1, 210576, Note_off_c, 0, 69, 114
1, 210624, Note_on_c, 0, 55, 93
1, 210624, Note_off_c, 0, 57, 64
1, 210672, Note_off_c, 0, 55, 64
1, 210672, Note_on_c, 0, 57, 93
1, 210720, Note_off_c, 0, 57, 64
1, 210720, Note_on_c, 0, 67, 93
1, 210768, Note_on_c, 0, 64, 93
1, 210768, Note_off_c, 0, 67, 64
1, 210816, Note_on_c, 0, 38, 67
1, 210816, Note_off_c, 0, 64, 64
1, 210816, Note_on_c, 0, 65, 93
1, 210912, Note_on_c, 0, 62, 93
1, 210912, Note_off_c, 0, 65, 64
1, 210912, Note_on_c, 0, 81, 113
1, 210960, Note_off_c, 0, 62, 64
1, 210960, Note_on_c, 0, 64, 93
1, 210960, Note_off_c, 0, 81, 127
1, 210965, Note_off_c, 0, 38, 64
1, 211008, Note_on_c, 0, 57, 82
1, 211008, Note_off_c, 0, 64, 64
1, 211008, Note_on_c, 0, 65, 93
1, 211056, Note_on_c, 0, 64, 93
1, 211056, Note_off_c, 0, 65, 64
1, 211104, Note_off_c, 0, 57, 64
1, 211104, Note_on_c, 0, 62, 93
1, 211104, Note_off_c, 0, 64, 64
1, 211152, Note_on_c, 0, 57, 93
1, 211152, Note_off_c, 0, 62, 64
1, 211200, Note_on_c, 0, 45, 67
1, 211200, Note_off_c, 0, 57, 64
1, 211200, Note_on_c, 0, 64, 93
1, 211248, Note_on_c, 0, 62, 93
1, 211248, Note_off_c, 0, 64, 64
1, 211296, Note_on_c, 0, 61, 93
1, 211296, Note_off_c, 0, 62, 64
1, 211296, Note_on_c, 0, 76, 114
1, 211344, Note_off_c, 0, 45, 64
1, 211344, Note_on_c, 0, 57, 93
1, 211344, Note_off_c, 0, 61, 64
1, 211344, Note_off_c, 0, 76, 127
1, 211392, Note_on_c, 0, 55, 93
1, 211392, Note_off_c, 0, 57, 64
1, 211440, Note_off_c, 0, 55, 64
1, 211440, Note_on_c, 0, 57, 93
1, 211488, Note_off_c, 0, 57, 64
1, 211488, Note_on_c, 0, 67, 93
1, 211536, Note_on_c, 0, 64, 93
1, 211536, Note_off_c, 0, 67, 64
1, 211584, Note_on_c, 0, 38, 67
1, 211584, Note_off_c, 0, 64, 64
1, 211584, Note_on_c, 0, 65, 93
1, 211680, Note_on_c, 0, 62, 93
1, 211680, Note_off_c, 0, 65, 64
1, 211680, Note_on_c, 0, 77, 106
1, 211728, Note_off_c, 0, 62, 64
1, 211728, Note_on_c, 0, 64, 93
1, 211728, Note_off_c, 0, 77, 119
1, 211733, Note_off_c, 0, 38, 64
1, 211776, Note_on_c, 0, 57, 82
1, 211776, Note_off_c, 0, 64, 64
1, 211776, Note_on_c, 0, 65, 93
1, 211824, Note_on_c, 0, 64, 93
1, 211824, Note_off_c, 0, 65, 64
1, 211872, Note_off_c, 0, 57, 64
1, 211872, Note_on_c, 0, 62, 93
1, 211872, Note_off_c, 0, 64, 64
1, 211920, Note_on_c, 0, 57, 93
1, 211920, Note_off_c, 0, 62, 64
1, 211968, Note_off_c, 0, 57, 64
1, 211968, Note_on_c, 0, 57, 100
1, 211968, Note_on_c, 0, 64, 100
1, 211968, Note_on_c, 0, 69, 100
1, 212016, Note_off_c, 0, 57, 64
1, 212058, Note_off_c, 0, 69, 64
1, 212064, Note_on_c, 0, 69, 100
1, 212096, Note_off_c, 0, 69, 64
1, 212096, Note_on_c, 0, 71, 100
1, 212112, Note_off_c, 0, 64, 64
1, 212122, Note_off_c, 0, 71, 64
1, 212128, Note_on_c, 0, 72, 100
1, 212160, Note_on_c, 0, 69, 100
1, 212160, Note_off_c, 0, 72, 64
1, 212160, Note_on_c, 0, 76, 100
1, 212240, Note_off_c, 0, 76, 64
1, 212249, Note_off_c, 0, 69, 64
1, 212256, Note_on_c, 0, 69, 100
1, 212352, Note_on_c, 0, 53, 100
1, 212352, Note_on_c, 0, 60, 100
1, 212352, Note_off_c, 0, 69, 64
1, 212352, Note_on_c, 0, 81, 100
1, 212400, Note_off_c, 0, 53, 64
1, 212442, Note_off_c, 0, 81, 64
1, 212448, Note_on_c, 0, 69, 100
1, 212480, Note_off_c, 0, 69, 64
1, 212480, Note_on_c, 0, 71, 100
1, 212496, Note_off_c, 0, 60, 64
1, 212512, Note_on_c, 0, 72, 100
1, 212522, Note_off_c, 0, 71, 64
1, 212544, Note_on_c, 0, 52, 100
1, 212544, Note_on_c, 0, 59, 100
1, 212544, Note_on_c, 0, 64, 100
1, 212544, Note_on_c, 0, 77, 100
1, 212550, Note_on_c, 0, 69, 100
1, 212554, Note_off_c, 0, 72, 64
1, 212592, Note_off_c, 0, 52, 64
1, 212616, Note_off_c, 0, 77, 64
1, 212640, Note_on_c, 0, 76, 100
1, 212688, Note_off_c, 0, 59, 64
1, 212688, Note_off_c, 0, 64, 64
1, 212735, Note_off_c, 0, 69, 64
1, 212736, Note_on_c, 0, 57, 100
1, 212736, Note_on_c, 0, 64, 100
1, 212736, Note_on_c, 0, 69, 100
1, 212736, Note_off_c, 0, 76, 64
1, 212784, Note_off_c, 0, 57, 64
1, 212826, Note_off_c, 0, 69, 64
1, 212832, Note_on_c, 0, 69, 100
1, 212864, Note_off_c, 0, 69, 64
1, 212864, Note_on_c, 0, 71, 100
1, 212880, Note_off_c, 0, 64, 64
1, 212890, Note_off_c, 0, 71, 64
1, 212896, Note_on_c, 0, 72, 100
1, 212928, Note_on_c, 0, 69, 100
1, 212928, Note_off_c, 0, 72, 64
1, 212928, Note_on_c, 0, 76, 100
1, 213008, Note_off_c, 0, 76, 64
1, 213017, Note_off_c, 0, 69, 64
1, 213024, Note_on_c, 0, 69, 100
1, 213120, Note_on_c, 0, 53, 100
1, 213120, Note_on_c, 0, 60, 100
1, 213120, Note_off_c, 0, 69, 64
1, 213120, Note_on_c, 0, 81, 100
1, 213168, Note_off_c, 0, 53, 64
1, 213210, Note_off_c, 0, 81, 64
1, 213216, Note_on_c, 0, 69, 100
1, 213248, Note_off_c, 0, 69, 64
1, 213248, Note_on_c, 0, 71, 100
1, 213264, Note_off_c, 0, 60, 64
1, 213280, Note_on_c, 0, 72, 100
1, 213290, Note_off_c, 0, 71, 64
1, 213312, Note_on_c, 0, 52, 100
1, 213312, Note_on_c, 0, 59, 100
1, 213312, Note_on_c, 0, 77, 100
1, 213318, Note_on_c, 0, 69, 100
1, 213322, Note_off_c, 0, 72, 64
1, 213360, Note_off_c, 0, 52, 64
1, 213384, Note_off_c, 0, 77, 64
1, 213408, Note_on_c, 0, 76, 100
1, 213456, Note_off_c, 0, 59, 64
1, 213504, Note_off_c, 0, 69, 64
1, 213504, Note_off_c, 0, 76, 64
1, 213504, Note_on_c, 0, 76, 77
1, 213505, Note_on_c, 0, 45, 53
1, 213505, Note_on_c, 0, 60, 52
1, 213505, Note_on_c, 0, 67, 71
1, 213506, Note_on_c, 0, 59, 52
1, 213507, Control_c, 0, 64, 0
1, 213507, Control_c, 0, 64, 127
1, 213579, Note_off_c, 0, 67, 35
1, 213584, Note_off_c, 0, 60, 19
1, 213588, Note_off_c, 0, 59, 33
1, 213600, Note_on_c, 0, 52, 46
1, 213609, Note_off_c, 0, 45, 32
1, 213671, Note_off_c, 0, 76, 1
1, 213696, Note_on_c, 0, 57, 46
1, 213696, Note_on_c, 0, 59, 49
1, 213696, Note_on_c, 0, 60, 46
1, 213696, Note_on_c, 0, 64, 64
1, 213696, Note_on_c, 0, 71, 65
1, 213704, Note_off_c, 0, 52, 31
1, 213777, Note_off_c, 0, 60, 19
1, 213777, Note_off_c, 0, 64, 39
1, 213788, Note_off_c, 0, 59, 38
1, 213791, Note_on_c, 0, 55, 46
1, 213792, Note_off_c, 0, 57, 39
1, 213888, Note_on_c, 0, 72, 76
1, 213889, Note_on_c, 0, 60, 51
1, 213890, Note_on_c, 0, 57, 70
1, 213890, Note_on_c, 0, 59, 57
1, 213890, Note_on_c, 0, 64, 73
1, 213899, Note_off_c, 0, 55, 27
1, 213902, Note_off_c, 0, 71, 51
1, 213962, Note_off_c, 0, 64, 58
1, 213966, Note_off_c, 0, 60, 24
1, 213968, Note_off_c, 0, 57, 38
1, 213985, Note_on_c, 0, 55, 46
1, 213988, Note_off_c, 0, 59, 17
1, 214011, Note_off_c, 0, 55, 34
1, 214073, Note_off_c, 0, 72, 53
1, 214080, Note_on_c, 0, 71, 68
1, 214081, Note_on_c, 0, 67, 80
1, 214082, Note_on_c, 0, 59, 54
1, 214082, Note_on_c, 0, 60, 46
1, 214089, Note_on_c, 0, 52, 46
1, 214148, Note_off_c, 0, 52, 53
1, 214153, Note_off_c, 0, 67, 33
1, 214154, Note_off_c, 0, 60, 9
1, 214163, Note_off_c, 0, 59, 39
1, 214171, Note_off_c, 0, 71, 47
1, 214176, Note_on_c, 0, 72, 45
1, 214177, Note_on_c, 0, 57, 58
1, 214253, Note_off_c, 0, 57, 11
1, 214266, Note_off_c, 0, 72, 67
1, 214270, Note_on_c, 0, 60, 46
1, 214271, Note_on_c, 0, 59, 49
1, 214271, Note_on_c, 0, 67, 67
1, 214272, Note_on_c, 0, 45, 56
1, 214272, Note_on_c, 0, 76, 59
1, 214365, Note_off_c, 0, 67, 39
1, 214369, Note_on_c, 0, 52, 46
1, 214374, Note_off_c, 0, 59, 41
1, 214375, Note_off_c, 0, 45, 34
1, 214376, Note_off_c, 0, 60, 20
1, 214461, Note_off_c, 0, 76, 39
1, 214463, Note_on_c, 0, 57, 63
1, 214463, Note_on_c, 0, 59, 49
1, 214463, Note_on_c, 0, 60, 49
1, 214463, Note_on_c, 0, 64, 67
1, 214463, Note_on_c, 0, 71, 60
1, 214470, Note_off_c, 0, 52, 34
1, 214546, Note_off_c, 0, 64, 42
1, 214553, Note_off_c, 0, 57, 32
1, 214558, Note_off_c, 0, 59, 41
1, 214562, Note_on_c, 0, 55, 46
1, 214576, Note_off_c, 0, 60, 1
1, 214648, Note_off_c, 0, 55, 29
1, 214656, Note_on_c, 0, 57, 57
1, 214656, Note_on_c, 0, 72, 82
1, 214657, Note_on_c, 0, 59, 48
1, 214657, Note_on_c, 0, 60, 46
1, 214657, Note_on_c, 0, 64, 80
1, 214662, Note_off_c, 0, 71, 54
1, 214738, Note_off_c, 0, 64, 36
1, 214752, Note_on_c, 0, 52, 62
1, 214755, Note_off_c, 0, 57, 1
1, 214760, Note_off_c, 0, 59, 15
1, 214760, Note_off_c, 0, 60, 4
1, 214836, Note_off_c, 0, 72, 48
1, 214848, Note_on_c, 0, 71, 70
1, 214849, Note_on_c, 0, 55, 67
1, 214849, Note_on_c, 0, 60, 60
1, 214849, Note_on_c, 0, 67, 84
1, 214850, Note_on_c, 0, 59, 64
1, 214852, Note_off_c, 0, 52, 50
1, 214927, Note_off_c, 0, 67, 9
1, 214939, Note_off_c, 0, 71, 53
1, 214942, Note_off_c, 0, 55, 21
1, 214944, Note_on_c, 0, 69, 43
1, 214947, Note_on_c, 0, 57, 50
1, 214957, Note_off_c, 0, 60, 18
1, 214968, Note_off_c, 0, 59, 1
1, 214992, Note_off_c, 0, 57, 32
1, 215031, Note_off_c, 0, 69, 51
1, 215040, Control_c, 0, 64, 127
1, 215040, Control_c, 0, 64, 0
1, 215040, Note_on_c, 0, 57, 68
1, 215040, Note_on_c, 0, 76, 88
1, 215074, Note_off_c, 0, 76, 44
1, 215077, Note_off_c, 0, 57, 28
1, 215088, Note_on_c, 0, 72, 43
1, 215118, Note_off_c, 0, 72, 9
1, 215137, Note_on_c, 0, 60, 77
1, 215137, Note_on_c, 0, 69, 80
1, 215176, Note_off_c, 0, 60, 19
1, 215182, Note_off_c, 0, 69, 14
1, 215231, Note_on_c, 0, 64, 76
1, 215268, Note_off_c, 0, 64, 50
1, 215326, Note_on_c, 0, 60, 77
1, 215326, Note_on_c, 0, 72, 78
1, 215356, Note_off_c, 0, 60, 47
1, 215381, Note_off_c, 0, 72, 41
1, 215421, Note_on_c, 0, 55, 84
1, 215421, Note_on_c, 0, 74, 86
1, 215461, Note_off_c, 0, 74, 36
1, 215466, Note_off_c, 0, 55, 14
1, 215469, Note_on_c, 0, 71, 85
1, 215499, Note_off_c, 0, 71, 41
1, 215518, Note_on_c, 0, 59, 85
1, 215518, Note_on_c, 0, 67, 82
1, 215561, Note_off_c, 0, 67, 18
1, 215562, Note_off_c, 0, 59, 35
1, 215612, Note_on_c, 0, 62, 64
1, 215659, Note_off_c, 0, 62, 30
1, 215709, Note_on_c, 0, 59, 90
1, 215709, Note_on_c, 0, 71, 91
1, 215744, Note_off_c, 0, 59, 87
1, 215751, Note_off_c, 0, 71, 66
1, 215805, Note_on_c, 0, 53, 60
1, 215805, Note_on_c, 0, 72, 78
1, 215841, Note_off_c, 0, 53, 27
1, 215848, Note_off_c, 0, 72, 24
1, 215853, Note_on_c, 0, 69, 75
1, 215878, Note_off_c, 0, 69, 16
1, 215901, Note_on_c, 0, 57, 55
1, 215901, Note_on_c, 0, 65, 70
1, 215945, Note_off_c, 0, 57, 6
1, 215950, Note_off_c, 0, 65, 14
1, 215997, Note_on_c, 0, 60, 70
1, 215998, Note_on_c, 0, 67, 78
1, 216040, Note_off_c, 0, 60, 18
1, 216046, Note_off_c, 0, 67, 15
1, 216094, Note_on_c, 0, 57, 82
1, 216094, Note_on_c, 0, 69, 91
1, 216126, Note_off_c, 0, 57, 55
1, 216128, Note_off_c, 0, 69, 42
1, 216190, Note_on_c, 0, 50, 76
1, 216190, Note_on_c, 0, 72, 71
1, 216227, Note_off_c, 0, 72, 29
1, 216229, Note_off_c, 0, 50, 14
1, 216238, Note_on_c, 0, 69, 76
1, 216273, Note_off_c, 0, 69, 11
1, 216287, Note_on_c, 0, 53, 75
1, 216287, Note_on_c, 0, 65, 84
1, 216321, Note_off_c, 0, 53, 20
1, 216331, Note_off_c, 0, 65, 22
1, 216383, Note_on_c, 0, 57, 56
1, 216383, Note_on_c, 0, 67, 87
1, 216418, Note_off_c, 0, 57, 20
1, 216427, Note_off_c, 0, 67, 9
1, 216477, Note_on_c, 0, 53, 71
1, 216477, Note_on_c, 0, 69, 89
1, 216495, Note_off_c, 0, 69, 67
1, 216499, Note_off_c, 0, 53, 58
1, 216576, Note_on_c, 0, 64, 68
1, 216576, Note_on_c, 0, 69, 68
1, 216623, Note_off_c, 0, 64, 64
1, 216623, Note_off_c, 0, 69, 64
1, 216624, Note_on_c, 0, 57, 68
1, 216671, Note_off_c, 0, 57, 64
1, 216672, Note_on_c, 0, 65, 68
1, 216720, Note_on_c, 0, 57, 68
1, 216767, Note_off_c, 0, 57, 64
1, 216768, Note_on_c, 0, 62, 68
1, 216768, Note_off_c, 0, 65, 64
1, 216768, Note_on_c, 0, 71, 68
1, 216815, Note_off_c, 0, 62, 64
1, 216815, Note_off_c, 0, 71, 64
1, 216816, Note_on_c, 0, 57, 68
1, 216863, Note_off_c, 0, 57, 64
1, 216864, Note_on_c, 0, 64, 68
1, 216864, Note_on_c, 0, 72, 68
1, 216911, Note_off_c, 0, 72, 64
1, 216912, Note_on_c, 0, 57, 68
1, 216912, Note_on_c, 0, 71, 68
1, 216959, Note_off_c, 0, 57, 64
1, 216959, Note_off_c, 0, 71, 64
1, 216960, Note_off_c, 0, 64, 64
1, 216960, Note_on_c, 0, 64, 68
1, 216960, Note_on_c, 0, 77, 68
1, 217007, Note_off_c, 0, 64, 64
1, 217007, Note_off_c, 0, 77, 64
1, 217008, Note_on_c, 0, 57, 68
1, 217055, Note_off_c, 0, 57, 64
1, 217056, Note_on_c, 0, 65, 68
1, 217056, Note_on_c, 0, 74, 68
1, 217103, Note_off_c, 0, 74, 64
1, 217104, Note_on_c, 0, 57, 68
1, 217151, Note_off_c, 0, 57, 64
1, 217152, Note_on_c, 0, 62, 68
1, 217152, Note_off_c, 0, 65, 64
1, 217152, Note_on_c, 0, 71, 68
1, 217199, Note_off_c, 0, 62, 64
1, 217199, Note_off_c, 0, 71, 64
1, 217200, Note_on_c, 0, 57, 68
1, 217247, Note_off_c, 0, 57, 64
1, 217248, Note_on_c, 0, 64, 68
1, 217248, Note_on_c, 0, 72, 68
1, 217295, Note_off_c, 0, 72, 64
1, 217296, Note_on_c, 0, 57, 68
1, 217296, Note_on_c, 0, 71, 68
1, 217343, Note_off_c, 0, 57, 64
1, 217343, Note_off_c, 0, 71, 64
1, 217344, Note_off_c, 0, 64, 64
1, 217344, Note_on_c, 0, 64, 68
1, 217344, Note_on_c, 0, 69, 68
1, 217391, Note_off_c, 0, 64, 64
1, 217391, Note_off_c, 0, 69, 64
1, 217392, Note_on_c, 0, 57, 68
1, 217439, Note_off_c, 0, 57, 64
1, 217440, Note_on_c, 0, 65, 68
1, 217488, Note_on_c, 0, 57, 68
1, 217535, Note_off_c, 0, 57, 64
1, 217536, Note_on_c, 0, 62, 68
1, 217536, Note_off_c, 0, 65, 64
1, 217536, Note_on_c, 0, 71, 68
1, 217583, Note_off_c, 0, 62, 64
1, 217583, Note_off_c, 0, 71, 64
1, 217584, Note_on_c, 0, 57, 68
1, 217631, Note_off_c, 0, 57, 64
1, 217632, Note_on_c, 0, 64, 68
1, 217632, Note_on_c, 0, 72, 68
1, 217679, Note_off_c, 0, 72, 64
1, 217680, Note_on_c, 0, 57, 68
1, 217680, Note_on_c, 0, 71, 68
1, 217727, Note_off_c, 0, 57, 64
1, 217727, Note_off_c, 0, 71, 64
1, 217728, Note_off_c, 0, 64, 64
1, 217728, Note_on_c, 0, 64, 68
1, 217728, Note_on_c, 0, 77, 68
1, 217775, Note_off_c, 0, 64, 64
1, 217775, Note_off_c, 0, 77, 64
1, 217776, Note_on_c, 0, 57, 68
1, 217823, Note_off_c, 0, 57, 64
1, 217824, Note_on_c, 0, 65, 68
1, 217824, Note_on_c, 0, 74, 68
1, 217871, Note_off_c, 0, 74, 64
1, 217872, Note_on_c, 0, 57, 68
1, 217919, Note_off_c, 0, 57, 64
1, 217920, Note_on_c, 0, 62, 68
1, 217920, Note_off_c, 0, 65, 64
1, 217920, Note_on_c, 0, 71, 68
1, 217967, Note_off_c, 0, 62, 64
1, 217967, Note_off_c, 0, 71, 64
1, 217968, Note_on_c, 0, 57, 68
1, 218015, Note_off_c, 0, 57, 64
1, 218016, Note_on_c, 0, 64, 68
1, 218016, Note_on_c, 0, 72, 68
1, 218063, Note_off_c, 0, 72, 64
1, 218064, Note_on_c, 0, 57, 68
1, 218064, Note_on_c, 0, 71, 68
1, 218111, Note_off_c, 0, 57, 64
1, 218111, Note_off_c, 0, 71, 64
1, 218112, Note_off_c, 0, 64, 64
1, 218112, Note_on_c, 0, 69, 74
1, 218157, Note_on_c, 0, 89, 54
1, 218205, Note_off_c, 0, 89, 64
1, 218205, Note_on_c, 0, 94, 36
1, 218229, Note_off_c, 0, 94, 64
1, 218253, Note_on_c, 0, 33, 59
1, 218253, Note_on_c, 0, 93, 36
1, 218277, Note_off_c, 0, 33, 64
1, 218277, Note_on_c, 0, 36, 65
1, 218300, Note_off_c, 0, 69, 64
1, 218301, Note_on_c, 0, 34, 60
1, 218301, Note_off_c, 0, 36, 64
1, 218301, Note_on_c, 0, 46, 75
1, 218301, Note_on_c, 0, 58, 75
1, 218301, Note_on_c, 0, 62, 75
1, 218301, Note_on_c, 0, 72, 75
1, 218349, Note_off_c, 0, 34, 64
1, 218349, Note_on_c, 0, 67, 75
1, 218349, Note_on_c, 0, 76, 75
1, 218373, Note_on_c, 0, 34, 60
1, 218397, Note_on_c, 0, 91, 36
1, 218397, Note_off_c, 0, 93, 64
1, 218421, Note_off_c, 0, 34, 64
1, 218445, Note_on_c, 0, 34, 60
1, 218493, Note_off_c, 0, 34, 64
1, 218493, Note_on_c, 0, 88, 36
1, 218493, Note_off_c, 0, 91, 64
1, 218541, Note_off_c, 0, 88, 64
1, 218541, Note_on_c, 0, 89, 36
1, 218637, Note_off_c, 0, 89, 64
1, 218685, Note_on_c, 0, 34, 60
1, 218685, Note_on_c, 0, 86, 36
1, 218733, Note_off_c, 0, 34, 64
1, 218757, Note_on_c, 0, 34, 60
1, 218805, Note_off_c, 0, 34, 64
1, 218829, Note_on_c, 0, 34, 60
1, 218873, Note_off_c, 0, 67, 64
1, 218876, Note_off_c, 0, 76, 64
1, 218877, Note_on_c, 0, 33, 59
1, 218877, Note_off_c, 0, 34, 64
1, 218877, Note_on_c, 0, 45, 74
1, 218877, Note_off_c, 0, 46, 64
1, 218877, Note_on_c, 0, 57, 74
1, 218877, Note_off_c, 0, 58, 64
1, 218877, Note_off_c, 0, 62, 64
1, 218877, Note_off_c, 0, 72, 64
1, 218877, Note_on_c, 0, 76, 74
1, 218877, Note_on_c, 0, 84, 74
1, 218877, Note_off_c, 0, 86, 64
1, 218877, Note_on_c, 0, 88, 54
1, 218880, Note_on_c, 0, 69, 74
1, 218901, Note_off_c, 0, 88, 64
1, 218925, Note_off_c, 0, 33, 64
1, 218925, Note_on_c, 0, 89, 54
1, 218973, Note_off_c, 0, 89, 64
1, 218973, Note_on_c, 0, 94, 36
1, 218997, Note_off_c, 0, 94, 64
1, 219021, Note_on_c, 0, 33, 59
1, 219021, Note_on_c, 0, 93, 36
1, 219045, Note_off_c, 0, 33, 64
1, 219045, Note_on_c, 0, 36, 65
1, 219068, Note_off_c, 0, 69, 64
1, 219069, Note_on_c, 0, 34, 60
1, 219069, Note_off_c, 0, 36, 64
1, 219069, Note_off_c, 0, 45, 64
1, 219069, Note_on_c, 0, 46, 75
1, 219069, Note_off_c, 0, 57, 64
1, 219069, Note_on_c, 0, 58, 75
1, 219069, Note_on_c, 0, 62, 75
1, 219069, Note_on_c, 0, 72, 75
1, 219069, Note_off_c, 0, 76, 64
1, 219069, Note_off_c, 0, 84, 64
1, 219117, Note_off_c, 0, 34, 64
1, 219117, Note_on_c, 0, 67, 75
1, 219117, Note_on_c, 0, 76, 75
1, 219141, Note_on_c, 0, 34, 60
1, 219165, Note_on_c, 0, 91, 36
1, 219165, Note_off_c, 0, 93, 64
1, 219189, Note_off_c, 0, 34, 64
1, 219213, Note_on_c, 0, 34, 60
1, 219261, Note_off_c, 0, 34, 64
1, 219261, Note_on_c, 0, 88, 36
1, 219261, Note_off_c, 0, 91, 64
1, 219309, Note_off_c, 0, 88, 64
1, 219309, Note_on_c, 0, 89, 36
1, 219405, Note_off_c, 0, 89, 64
1, 219453, Note_on_c, 0, 34, 60
1, 219453, Note_on_c, 0, 86, 36
1, 219501, Note_off_c, 0, 34, 64
1, 219525, Note_on_c, 0, 34, 60
1, 219573, Note_off_c, 0, 34, 64
1, 219597, Note_on_c, 0, 34, 60
1, 219641, Note_off_c, 0, 67, 64
1, 219644, Note_off_c, 0, 76, 64
1, 219645, Note_off_c, 0, 34, 64
1, 219645, Note_off_c, 0, 46, 64
1, 219645, Note_off_c, 0, 58, 64
1, 219645, Note_off_c, 0, 62, 64
1, 219645, Note_off_c, 0, 72, 64
1, 219645, Note_off_c, 0, 86, 64
1, 219648, Note_on_c, 0, 45, 52
1, 219648, Note_on_c, 0, 57, 52
1, 219648, Note_on_c, 0, 65, 52
1, 219648, Note_on_c, 0, 69, 52
1, 219648, Note_on_c, 0, 74, 52
1, 219696, Note_off_c, 0, 45, 64
1, 219696, Note_on_c, 0, 81, 52
1, 219720, Note_on_c, 0, 45, 53
1, 219768, Note_off_c, 0, 45, 64
1, 219840, Note_off_c, 0, 81, 64
1, 219840, Note_on_c, 0, 82, 54
1, 219864, Note_off_c, 0, 82, 64
1, 219864, Note_on_c, 0, 84, 54
1, 219888, Note_off_c, 0, 84, 64
1, 219888, Note_on_c, 0, 86, 54
1, 219936, Note_off_c, 0, 74, 64
1, 219936, Note_on_c, 0, 82, 53
1, 219936, Note_off_c, 0, 86, 64
1, 219984, Note_on_c, 0, 45, 53
1, 220032, Note_off_c, 0, 45, 64
1, 220032, Note_on_c, 0, 46, 52
1, 220032, Note_off_c, 0, 57, 64
1, 220032, Note_on_c, 0, 58, 52
1, 220032, Note_on_c, 0, 64, 52
1, 220032, Note_off_c, 0, 65, 64
1, 220032, Note_on_c, 0, 67, 52
1, 220032, Note_off_c, 0, 69, 64
1, 220032, Note_on_c, 0, 70, 52
1, 220032, Note_on_c, 0, 76, 52
1, 220032, Note_off_c, 0, 82, 64
1, 220080, Note_off_c, 0, 46, 64
1, 220080, Note_on_c, 0, 79, 52
1, 220104, Note_on_c, 0, 46, 52
1, 220152, Note_off_c, 0, 46, 64
1, 220224, Note_off_c, 0, 76, 64
1, 220224, Note_off_c, 0, 79, 64
1, 220224, Note_on_c, 0, 82, 54
1, 220248, Note_off_c, 0, 82, 64
1, 220248, Note_on_c, 0, 84, 54
1, 220272, Note_on_c, 0, 81, 54
1, 220272, Note_off_c, 0, 84, 64
1, 220320, Note_on_c, 0, 79, 53
1, 220320, Note_off_c, 0, 81, 64
1, 220368, Note_on_c, 0, 46, 52
1, 220368, Note_on_c, 0, 74, 61
1, 220368, Note_off_c, 0, 79, 64
1, 220415, Note_off_c, 0, 74, 64
1, 220416, Note_on_c, 0, 45, 52
1, 220416, Note_off_c, 0, 46, 64
1, 220416, Note_on_c, 0, 57, 52
1, 220416, Note_off_c, 0, 58, 64
1, 220416, Note_off_c, 0, 64, 64
1, 220416, Note_on_c, 0, 65, 52
1, 220416, Note_off_c, 0, 67, 64
1, 220416, Note_on_c, 0, 69, 52
1, 220416, Note_off_c, 0, 70, 64
1, 220416, Note_on_c, 0, 74, 52
1, 220464, Note_off_c, 0, 45, 64
1, 220464, Note_on_c, 0, 81, 52
1, 220488, Note_on_c, 0, 45, 53
1, 220536, Note_off_c, 0, 45, 64
1, 220608, Note_off_c, 0, 81, 64
1, 220608, Note_on_c, 0, 82, 54
1, 220632, Note_off_c, 0, 82, 64
1, 220632, Note_on_c, 0, 84, 54
1, 220656, Note_off_c, 0, 84, 64
1, 220656, Note_on_c, 0, 86, 54
1, 220704, Note_off_c, 0, 74, 64
1, 220704, Note_on_c, 0, 82, 53
1, 220704, Note_off_c, 0, 86, 64
1, 220752, Note_on_c, 0, 45, 53
1, 220800, Note_off_c, 0, 45, 64
1, 220800, Note_on_c, 0, 46, 52
1, 220800, Note_off_c, 0, 57, 64
1, 220800, Note_on_c, 0, 58, 52
1, 220800, Note_on_c, 0, 64, 52
1, 220800, Note_off_c, 0, 65, 64
1, 220800, Note_on_c, 0, 67, 52
1, 220800, Note_off_c, 0, 69, 64
1, 220800, Note_on_c, 0, 70, 52
1, 220800, Note_on_c, 0, 76, 52
1, 220800, Note_off_c, 0, 82, 64
1, 220848, Note_off_c, 0, 46, 64
1, 220848, Note_on_c, 0, 79, 52
1, 220872, Note_on_c, 0, 46, 52
1, 220920, Note_off_c, 0, 46, 64
1, 220992, Note_off_c, 0, 76, 64
1, 220992, Note_off_c, 0, 79, 64
1, 220992, Note_on_c, 0, 82, 54
1, 221016, Note_off_c, 0, 82, 64
1, 221016, Note_on_c, 0, 84, 54
1, 221040, Note_on_c, 0, 81, 54
1, 221040, Note_off_c, 0, 84, 64
1, 221088, Note_on_c, 0, 79, 53
1, 221088, Note_off_c, 0, 81, 64
1, 221136, Note_on_c, 0, 46, 52
1, 221136, Note_on_c, 0, 74, 61
1, 221136, Note_off_c, 0, 79, 64
1, 221183, Note_off_c, 0, 74, 64
1, 221184, Note_on_c, 0, 45, 54
1, 221184, Note_off_c, 0, 46, 64
1, 221184, Note_off_c, 0, 58, 64
1, 221184, Note_off_c, 0, 64, 64
1, 221184, Note_off_c, 0, 67, 64
1, 221184, Note_off_c, 0, 70, 64
1, 221184, Note_on_c, 0, 83, 62
1, 221232, Note_on_c, 0, 57, 54
1, 221232, Note_off_c, 0, 83, 64
1, 221232, Note_on_c, 0, 84, 62
1, 221280, Note_on_c, 0, 64, 54
1, 221280, Note_on_c, 0, 83, 62
1, 221280, Note_off_c, 0, 84, 64
1, 221281, Note_on_c, 0, 76, 62
1, 221328, Note_on_c, 0, 60, 55
1, 221328, Note_off_c, 0, 76, 64
1, 221328, Note_off_c, 0, 83, 64
1, 221328, Note_on_c, 0, 84, 62
1, 221329, Note_on_c, 0, 76, 62
1, 221376, Note_on_c, 0, 69, 67
1, 221376, Note_on_c, 0, 83, 62
1, 221376, Note_off_c, 0, 84, 64
1, 221423, Note_off_c, 0, 45, 64
1, 221424, Note_on_c, 0, 45, 40
1, 221424, Note_off_c, 0, 64, 64
1, 221424, Note_off_c, 0, 83, 64
1, 221424, Note_on_c, 0, 84, 62
1, 221430, Note_on_c, 0, 64, 41
1, 221471, Note_off_c, 0, 57, 64
1, 221472, Note_on_c, 0, 57, 67
1, 221472, Note_on_c, 0, 83, 62
1, 221472, Note_off_c, 0, 84, 64
1, 221519, Note_off_c, 0, 60, 64
1, 221520, Note_on_c, 0, 60, 67
1, 221520, Note_on_c, 0, 81, 62
1, 221520, Note_off_c, 0, 83, 64
1, 221521, Note_off_c, 0, 76, 64
1, 221564, Note_off_c, 0, 69, 64
1, 221567, Note_off_c, 0, 45, 64
1, 221568, Note_on_c, 0, 45, 54
1, 221568, Note_off_c, 0, 57, 64
1, 221568, Note_off_c, 0, 60, 64
1, 221568, Note_off_c, 0, 64, 64
1, 221568, Note_off_c, 0, 81, 64
1, 221568, Note_on_c, 0, 83, 62
1, 221616, Note_on_c, 0, 57, 54
1, 221616, Note_off_c, 0, 83, 64
1, 221616, Note_on_c, 0, 84, 62
1, 221664, Note_on_c, 0, 64, 54
1, 221664, Note_on_c, 0, 83, 62
1, 221664, Note_off_c, 0, 84, 64
1, 221665, Note_on_c, 0, 76, 62
1, 221712, Note_on_c, 0, 60, 53
1, 221712, Note_off_c, 0, 76, 64
1, 221712, Note_off_c, 0, 83, 64
1, 221712, Note_on_c, 0, 84, 62
1, 221713, Note_on_c, 0, 76, 62
1, 221760, Note_on_c, 0, 69, 67
1, 221760, Note_on_c, 0, 83, 62
1, 221760, Note_off_c, 0, 84, 64
1, 221808, Note_on_c, 0, 41, 40
1, 221808, Note_off_c, 0, 45, 64
1, 221808, Note_off_c, 0, 64, 64
1, 221808, Note_off_c, 0, 83, 64
1, 221808, Note_on_c, 0, 84, 62
1, 221814, Note_on_c, 0, 64, 41
1, 221856, Note_on_c, 0, 53, 67
1, 221856, Note_off_c, 0, 57, 64
1, 221856, Note_off_c, 0, 76, 64
1, 221856, Note_on_c, 0, 83, 62
1, 221856, Note_off_c, 0, 84, 64
1, 221904, Note_on_c, 0, 57, 67
1, 221904, Note_off_c, 0, 60, 64
1, 221904, Note_on_c, 0, 74, 62
1, 221904, Note_on_c, 0, 81, 62
1, 221904, Note_off_c, 0, 83, 64
1, 221948, Note_off_c, 0, 69, 64
1, 221952, Note_off_c, 0, 41, 64
1, 221952, Note_on_c, 0, 45, 54
1, 221952, Note_off_c, 0, 53, 64
1, 221952, Note_off_c, 0, 57, 64
1, 221952, Note_off_c, 0, 64, 64
1, 221952, Note_off_c, 0, 74, 64
1, 221952, Note_off_c, 0, 81, 64
1, 221952, Note_on_c, 0, 83, 62
1, 222000, Note_on_c, 0, 57, 54
1, 222000, Note_off_c, 0, 83, 64
1, 222000, Note_on_c, 0, 84, 62
1, 222048, Note_on_c, 0, 64, 54
1, 222048, Note_on_c, 0, 83, 62
1, 222048, Note_off_c, 0, 84, 64
1, 222049, Note_on_c, 0, 76, 62
1, 222096, Note_on_c, 0, 60, 53
1, 222096, Note_off_c, 0, 76, 64
1, 222096, Note_off_c, 0, 83, 64
1, 222096, Note_on_c, 0, 84, 62
1, 222097, Note_on_c, 0, 76, 62
1, 222144, Note_on_c, 0, 69, 67
1, 222144, Note_on_c, 0, 83, 62
1, 222144, Note_off_c, 0, 84, 64
1, 222191, Note_off_c, 0, 45, 64
1, 222192, Note_on_c, 0, 45, 40
1, 222192, Note_off_c, 0, 64, 64
1, 222192, Note_off_c, 0, 83, 64
1, 222192, Note_on_c, 0, 84, 62
1, 222198, Note_on_c, 0, 64, 41
1, 222239, Note_off_c, 0, 57, 64
1, 222240, Note_on_c, 0, 57, 67
1, 222240, Note_on_c, 0, 83, 62
1, 222240, Note_off_c, 0, 84, 64
1, 222287, Note_off_c, 0, 60, 64
1, 222288, Note_on_c, 0, 60, 67
1, 222288, Note_on_c, 0, 81, 62
1, 222288, Note_off_c, 0, 83, 64
1, 222289, Note_off_c, 0, 76, 64
1, 222332, Note_off_c, 0, 69, 64
1, 222335, Note_off_c, 0, 45, 64
1, 222336, Note_on_c, 0, 45, 54
1, 222336, Note_off_c, 0, 57, 64
1, 222336, Note_off_c, 0, 60, 64
1, 222336, Note_off_c, 0, 64, 64
1, 222336, Note_off_c, 0, 81, 64
1, 222336, Note_on_c, 0, 83, 62
1, 222384, Note_on_c, 0, 57, 54
1, 222384, Note_off_c, 0, 83, 64
1, 222384, Note_on_c, 0, 84, 62
1, 222432, Note_on_c, 0, 64, 54
1, 222432, Note_on_c, 0, 83, 62
1, 222432, Note_off_c, 0, 84, 64
1, 222433, Note_on_c, 0, 76, 62
1, 222480, Note_on_c, 0, 60, 53
1, 222480, Note_off_c, 0, 76, 64
1, 222480, Note_off_c, 0, 83, 64
1, 222480, Note_on_c, 0, 84, 62
1, 222481, Note_on_c, 0, 76, 62
1, 222528, Note_on_c, 0, 69, 67
1, 222528, Note_on_c, 0, 83, 62
1, 222528, Note_off_c, 0, 84, 64
1, 222576, Note_on_c, 0, 41, 40
1, 222576, Note_off_c, 0, 45, 64
1, 222576, Note_off_c, 0, 64, 64
1, 222576, Note_off_c, 0, 83, 64
1, 222576, Note_on_c, 0, 84, 62
1, 222582, Note_on_c, 0, 64, 41
1, 222624, Note_on_c, 0, 53, 67
1, 222624, Note_off_c, 0, 57, 64
1, 222624, Note_on_c, 0, 83, 62
1, 222624, Note_off_c, 0, 84, 64
1, 222672, Note_on_c, 0, 57, 67
1, 222672, Note_off_c, 0, 60, 64
1, 222672, Note_on_c, 0, 81, 62
1, 222672, Note_off_c, 0, 83, 64
1, 222673, Note_off_c, 0, 76, 64
1, 222717, Note_off_c, 0, 69, 64
1, 222720, Note_off_c, 0, 41, 64
1, 222720, Note_on_c, 0, 45, 40
1, 222720, Note_off_c, 0, 53, 64
1, 222720, Note_off_c, 0, 57, 64
1, 222720, Note_off_c, 0, 64, 64
1, 222720, Note_on_c, 0, 64, 81
1, 222720, Note_on_c, 0, 76, 127
1, 222720, Note_off_c, 0, 81, 64
1, 222723, Note_on_c, 0, 57, 80
1, 222723, Note_on_c, 0, 60, 62
1, 222912, Note_on_c, 0, 52, 59
1, 223037, Note_off_c, 0, 57, 99
1, 223044, Note_off_c, 0, 60, 30
1, 223102, Note_on_c, 0, 58, 43
1, 223104, Note_off_c, 0, 45, 64
1, 223104, Note_on_c, 0, 46, 40
1, 223104, Note_off_c, 0, 76, 64
1, 223104, Note_on_c, 0, 77, 127
1, 223105, Note_on_c, 0, 53, 58
1, 223107, Note_on_c, 0, 62, 83
1, 223107, Note_off_c, 0, 64, 72
1, 223107, Note_on_c, 0, 65, 65
1, 223110, Note_off_c, 0, 52, 96
1, 223296, Note_off_c, 0, 46, 64
1, 223296, Note_on_c, 0, 50, 44
1, 223296, Note_on_c, 0, 69, 80
1, 223461, Note_off_c, 0, 69, 37
1, 223463, Note_off_c, 0, 58, 23
1, 223464, Note_off_c, 0, 53, 24
1, 223465, Note_off_c, 0, 62, 114
1, 223476, Note_off_c, 0, 65, 98
1, 223488, Note_on_c, 0, 45, 47
1, 223488, Note_off_c, 0, 50, 64
1, 223488, Note_on_c, 0, 64, 81
1, 223488, Note_on_c, 0, 76, 127
1, 223488, Note_off_c, 0, 77, 64
1, 223491, Note_on_c, 0, 57, 80
1, 223491, Note_on_c, 0, 60, 62
1, 223680, Note_on_c, 0, 52, 59
1, 223805, Note_off_c, 0, 57, 99
1, 223812, Note_off_c, 0, 60, 30
1, 223870, Note_on_c, 0, 58, 43
1, 223872, Note_off_c, 0, 45, 64
1, 223872, Note_on_c, 0, 46, 47
1, 223872, Note_off_c, 0, 76, 64
1, 223872, Note_on_c, 0, 77, 127
1, 223873, Note_on_c, 0, 53, 58
1, 223875, Note_on_c, 0, 62, 83
1, 223875, Note_off_c, 0, 64, 72
1, 223875, Note_on_c, 0, 65, 65
1, 223878, Note_off_c, 0, 52, 96
1, 224063, Note_off_c, 0, 46, 64
1, 224064, Note_on_c, 0, 50, 44
1, 224064, Note_on_c, 0, 70, 80
1, 224064, Note_on_c, 0, 79, 127
1, 224229, Note_off_c, 0, 70, 37
1, 224231, Note_off_c, 0, 58, 23
1, 224232, Note_off_c, 0, 53, 24
1, 224233, Note_off_c, 0, 62, 114
1, 224244, Note_off_c, 0, 65, 98
1, 224256, Note_off_c, 0, 50, 64
1, 224256, Note_on_c, 0, 57, 90
1, 224256, Note_on_c, 0, 60, 90
1, 224256, Note_on_c, 0, 64, 90
1, 224256, Note_on_c, 0, 69, 90
1, 224256, Note_on_c, 0, 76, 90
1, 224256, Note_off_c, 0, 77, 64
1, 224256, Note_off_c, 0, 79, 64
1, 224351, Note_off_c, 0, 76, 64
1, 224352, Note_on_c, 0, 76, 90
1, 224448, Note_on_c, 0, 72, 90
1, 224448, Note_off_c, 0, 76, 64
1, 224544, Note_off_c, 0, 72, 64
1, 224544, Note_on_c, 0, 74, 90
1, 224639, Note_off_c, 0, 57, 64
1, 224639, Note_off_c, 0, 60, 64
1, 224639, Note_off_c, 0, 69, 64
1, 224640, Note_on_c, 0, 57, 90
1, 224640, Note_on_c, 0, 60, 90
1, 224640, Note_off_c, 0, 64, 64
1, 224640, Note_on_c, 0, 65, 90
1, 224640, Note_on_c, 0, 69, 90
1, 224640, Note_off_c, 0, 74, 64
1, 224640, Note_on_c, 0, 77, 90
1, 224735, Note_off_c, 0, 77, 64
1, 224736, Note_on_c, 0, 77, 90
1, 224832, Note_on_c, 0, 74, 90
1, 224832, Note_off_c, 0, 77, 64
1, 224928, Note_off_c, 0, 74, 64
1, 224928, Note_on_c, 0, 76, 90
1, 225023, Note_off_c, 0, 57, 64
1, 225023, Note_off_c, 0, 60, 64
1, 225023, Note_off_c, 0, 69, 64
1, 225023, Note_off_c, 0, 76, 64
1, 225024, Note_on_c, 0, 57, 90
1, 225024, Note_on_c, 0, 60, 90
1, 225024, Note_on_c, 0, 64, 90
1, 225024, Note_off_c, 0, 65, 64
1, 225024, Note_on_c, 0, 69, 90
1, 225024, Note_on_c, 0, 76, 90
1, 225119, Note_off_c, 0, 76, 64
1, 225120, Note_on_c, 0, 76, 90
1, 225216, Note_on_c, 0, 72, 90
1, 225216, Note_off_c, 0, 76, 64
1, 225312, Note_off_c, 0, 72, 64
1, 225312, Note_on_c, 0, 74, 90
1, 225407, Note_off_c, 0, 57, 64
1, 225407, Note_off_c, 0, 60, 64
1, 225407, Note_off_c, 0, 69, 64
1, 225408, Note_on_c, 0, 57, 90
1, 225408, Note_on_c, 0, 60, 90
1, 225408, Note_off_c, 0, 64, 64
1, 225408, Note_on_c, 0, 65, 90
1, 225408, Note_on_c, 0, 69, 90
1, 225408, Note_off_c, 0, 74, 64
1, 225408, Note_on_c, 0, 77, 90
1, 225503, Note_off_c, 0, 77, 64
1, 225504, Note_on_c, 0, 77, 90
1, 225600, Note_on_c, 0, 74, 90
1, 225600, Note_off_c, 0, 77, 64
1, 225696, Note_off_c, 0, 74, 64
1, 225696, Note_on_c, 0, 76, 90
1, 225792, Note_on_c, 0, 33, 72
1, 225792, Note_on_c, 0, 45, 72
1, 225792, Note_off_c, 0, 57, 64
1, 225792, Note_off_c, 0, 60, 64
1, 225792, Note_off_c, 0, 65, 64
1, 225792, Note_off_c, 0, 69, 64
1, 225792, Note_off_c, 0, 76, 64
1, 225816, Note_on_c, 0, 64, 74
1, 225832, Note_off_c, 0, 33, 64
1, 225840, Note_on_c, 0, 69, 74
1, 225864, Note_on_c, 0, 33, 74
1, 225888, Note_on_c, 0, 82, 74
1, 225904, Note_off_c, 0, 33, 64
1, 225936, Note_on_c, 0, 33, 74
1, 225936, Note_on_c, 0, 77, 74
1, 225973, Note_off_c, 0, 33, 64
1, 225984, Note_on_c, 0, 34, 74
1, 225984, Note_off_c, 0, 45, 64
1, 225984, Note_on_c, 0, 46, 74
1, 226032, Note_off_c, 0, 34, 64
1, 226320, Note_on_c, 0, 34, 74
1, 226356, Note_off_c, 0, 34, 64
1, 226368, Note_on_c, 0, 34, 74
1, 226368, Note_on_c, 0, 89, 74
1, 226407, Note_off_c, 0, 34, 64
1, 226464, Note_on_c, 0, 88, 74
1, 226464, Note_off_c, 0, 89, 64
1, 226512, Note_on_c, 0, 36, 74
1, 226512, Note_on_c, 0, 62, 74
1, 226512, Note_off_c, 0, 64, 64
1, 226551, Note_off_c, 0, 36, 64
1, 226560, Note_on_c, 0, 33, 72
1, 226560, Note_on_c, 0, 45, 72
1, 226560, Note_off_c, 0, 46, 64
1, 226560, Note_off_c, 0, 62, 64
1, 226560, Note_off_c, 0, 69, 64
1, 226560, Note_off_c, 0, 77, 64
1, 226560, Note_off_c, 0, 82, 64
1, 226560, Note_off_c, 0, 88, 64
1, 226584, Note_on_c, 0, 64, 74
1, 226600, Note_off_c, 0, 33, 64
1, 226608, Note_on_c, 0, 69, 74
1, 226632, Note_on_c, 0, 33, 74
1, 226656, Note_on_c, 0, 82, 74
1, 226672, Note_off_c, 0, 33, 64
1, 226704, Note_on_c, 0, 33, 74
1, 226704, Note_on_c, 0, 77, 74
1, 226741, Note_off_c, 0, 33, 64
1, 226752, Note_on_c, 0, 34, 74
1, 226752, Note_off_c, 0, 45, 64
1, 226752, Note_on_c, 0, 46, 74
1, 226800, Note_off_c, 0, 34, 64
1, 227088, Note_on_c, 0, 34, 74
1, 227124, Note_off_c, 0, 34, 64
1, 227135, Note_off_c, 0, 64, 64
1, 227136, Note_on_c, 0, 34, 74
1, 227136, Note_on_c, 0, 64, 74
1, 227175, Note_off_c, 0, 34, 64
1, 227183, Note_off_c, 0, 69, 64
1, 227184, Note_on_c, 0, 69, 74
1, 227231, Note_off_c, 0, 77, 64
1, 227232, Note_on_c, 0, 34, 74
1, 227232, Note_on_c, 0, 77, 74
1, 227265, Note_off_c, 0, 34, 64
1, 227279, Note_off_c, 0, 82, 64
1, 227280, Note_on_c, 0, 33, 74
1, 227280, Note_on_c, 0, 82, 74
1, 227312, Note_off_c, 0, 33, 64
1, 227317, Note_off_c, 0, 77, 64
1, 227328, Note_on_c, 0, 45, 65
1, 227328, Note_off_c, 0, 46, 64
1, 227328, Note_on_c, 0, 48, 71
1, 227328, Note_off_c, 0, 64, 64
1, 227328, Note_off_c, 0, 69, 64
1, 227328, Note_off_c, 0, 82, 64
1, 227375, Note_on_c, 0, 52, 83
1, 227398, Note_on_c, 0, 57, 80
1, 227420, Note_on_c, 0, 64, 108
1, 227449, Note_off_c, 0, 52, 64
1, 227457, Note_off_c, 0, 45, 64
1, 227459, Note_off_c, 0, 48, 64
1, 227460, Note_off_c, 0, 64, 64
1, 227471, Note_on_c, 0, 52, 86
1, 227471, Note_off_c, 0, 57, 64
1, 227520, Note_on_c, 0, 62, 99
1, 227522, Note_on_c, 0, 41, 74
1, 227531, Note_off_c, 0, 52, 64
1, 227566, Note_off_c, 0, 62, 64
1, 227590, Note_on_c, 0, 60, 97
1, 227634, Note_off_c, 0, 60, 64
1, 227638, Note_on_c, 0, 59, 88
1, 227644, Note_off_c, 0, 41, 64
1, 227658, Note_off_c, 0, 59, 64
1, 227662, Note_on_c, 0, 57, 92
1, 227684, Note_off_c, 0, 57, 64
1, 227687, Note_on_c, 0, 47, 46
1, 227688, Note_on_c, 0, 56, 67
1, 227708, Note_off_c, 0, 47, 64
1, 227711, Note_on_c, 0, 40, 66
1, 227711, Note_on_c, 0, 50, 70
1, 227712, Note_off_c, 0, 56, 64
1, 227712, Note_on_c, 0, 60, 93
1, 227768, Note_off_c, 0, 60, 64
1, 227784, Note_on_c, 0, 59, 104
1, 227804, Note_off_c, 0, 59, 64
1, 227856, Note_on_c, 0, 57, 98
1, 227947, Note_off_c, 0, 57, 64
1, 227952, Note_on_c, 0, 56, 98
1, 228015, Note_off_c, 0, 40, 64
1, 228034, Note_off_c, 0, 56, 64
1, 228043, Note_off_c, 0, 50, 64
1, 228049, Note_on_c, 0, 57, 92
1, 228071, Note_off_c, 0, 57, 64
1, 228096, Note_on_c, 0, 45, 63
1, 228096, Note_on_c, 0, 52, 63
1, 228097, Note_on_c, 0, 48, 60
1, 228097, Note_on_c, 0, 57, 85
1, 228143, Note_on_c, 0, 69, 98
1, 228173, Note_off_c, 0, 69, 64
1, 228192, Note_on_c, 0, 64, 79
1, 228232, Note_off_c, 0, 48, 64
1, 228235, Note_off_c, 0, 45, 64
1, 228239, Note_off_c, 0, 64, 64
1, 228241, Note_on_c, 0, 60, 87
1, 228243, Note_off_c, 0, 52, 64
1, 228287, Note_on_c, 0, 41, 52
1, 228287, Note_on_c, 0, 45, 58
1, 228288, Note_on_c, 0, 65, 103
1, 228289, Note_on_c, 0, 48, 58
1, 228298, Note_off_c, 0, 60, 64
1, 228313, Note_off_c, 0, 65, 64
1, 228337, Note_on_c, 0, 64, 88
1, 228348, Note_off_c, 0, 57, 64
1, 228377, Note_off_c, 0, 64, 64
1, 228384, Note_on_c, 0, 62, 95
1, 228402, Note_off_c, 0, 48, 64
1, 228411, Note_off_c, 0, 45, 64
1, 228420, Note_off_c, 0, 41, 64
1, 228431, Note_off_c, 0, 62, 64
1, 228434, Note_on_c, 0, 60, 86
1, 228451, Note_off_c, 0, 60, 64
1, 228480, Note_on_c, 0, 40, 60
1, 228480, Note_on_c, 0, 47, 60
1, 228481, Note_on_c, 0, 59, 90
1, 228482, Note_on_c, 0, 52, 55
1, 228579, Note_on_c, 0, 56, 85
1, 228579, Note_off_c, 0, 59, 64
1, 228674, Note_on_c, 0, 64, 102
1, 228770, Note_on_c, 0, 59, 99
1, 228773, Note_off_c, 0, 40, 64
1, 228773, Note_off_c, 0, 56, 64
1, 228779, Note_off_c, 0, 64, 64
1, 228784, Note_off_c, 0, 47, 64
1, 228803, Note_off_c, 0, 52, 64
1, 228863, Note_off_c, 0, 59, 64
1, 228864, Control_c, 0, 6, 0
1, 228864, Control_c, 0, 22, 0
1, 228864, Control_c, 0, 64, 0
1, 228864, Note_on_c, 0, 45, 77
1, 228877, Note_off_c, 0, 45, 64
1, 228912, Note_on_c, 0, 52, 75
1, 228918, Note_off_c, 0, 52, 64
1, 228960, Note_on_c, 0, 55, 81
1, 228960, Note_on_c, 0, 60, 81
1, 228960, Note_on_c, 0, 64, 79
1, 228967, Note_off_c, 0, 55, 64
1, 228969, Note_off_c, 0, 60, 64
1, 228971, Note_off_c, 0, 64, 64
1, 229007, Note_on_c, 0, 52, 84
1, 229013, Note_off_c, 0, 52, 64
1, 229032, Note_on_c, 0, 55, 81
1, 229032, Note_on_c, 0, 64, 74
1, 229033, Note_on_c, 0, 60, 78
1, 229038, Note_off_c, 0, 55, 64
1, 229040, Note_off_c, 0, 60, 64
1, 229043, Note_off_c, 0, 64, 64
1, 229080, Note_on_c, 0, 64, 58
1, 229081, Note_on_c, 0, 59, 75
1, 229088, Note_off_c, 0, 64, 64
1, 229092, Note_off_c, 0, 59, 64
1, 229104, Note_on_c, 0, 55, 72
1, 229112, Note_off_c, 0, 55, 64
1, 229151, Note_on_c, 0, 59, 87
1, 229152, Note_on_c, 0, 64, 87
1, 229153, Note_on_c, 0, 52, 78
1, 229159, Note_off_c, 0, 52, 64
1, 229185, Note_off_c, 0, 64, 64
1, 229197, Note_off_c, 0, 59, 64
1, 229199, Note_on_c, 0, 60, 89
1, 229207, Note_off_c, 0, 60, 64
1, 229248, Note_on_c, 0, 41, 83
1, 229254, Note_off_c, 0, 41, 64
1, 229294, Note_on_c, 0, 41, 83
1, 229304, Note_off_c, 0, 41, 64
1, 229343, Note_on_c, 0, 51, 87
1, 229343, Note_on_c, 0, 62, 72
1, 229344, Note_on_c, 0, 57, 79
1, 229351, Note_off_c, 0, 51, 64
1, 229354, Note_off_c, 0, 57, 64
1, 229358, Note_off_c, 0, 62, 64
1, 229394, Note_on_c, 0, 47, 72
1, 229404, Note_off_c, 0, 47, 64
1, 229439, Note_on_c, 0, 64, 86
1, 229441, Note_on_c, 0, 56, 81
1, 229441, Note_on_c, 0, 60, 81
1, 229442, Note_on_c, 0, 40, 69
1, 229447, Note_off_c, 0, 56, 64
1, 229450, Note_off_c, 0, 60, 64
1, 229452, Note_off_c, 0, 40, 64
1, 229458, Note_off_c, 0, 64, 64
1, 229537, Note_on_c, 0, 52, 97
1, 229550, Note_off_c, 0, 52, 64
1, 229632, Note_on_c, 0, 40, 82
1, 229632, Note_on_c, 0, 52, 95
1, 229664, Note_off_c, 0, 40, 64
1, 229667, Note_off_c, 0, 52, 64
1, 229679, Note_on_c, 0, 43, 63
1, 229680, Note_on_c, 0, 55, 78
1, 229688, Note_off_c, 0, 55, 64
1, 229691, Note_off_c, 0, 43, 64
1, 229702, Note_on_c, 0, 45, 74
1, 229703, Note_on_c, 0, 57, 104
1, 229767, Note_off_c, 0, 45, 64
1, 229771, Note_off_c, 0, 57, 64
1, 229775, Note_on_c, 0, 40, 69
1, 229776, Note_on_c, 0, 52, 90
1, 229797, Note_off_c, 0, 52, 64
1, 229802, Note_off_c, 0, 40, 64
1, 229822, Note_on_c, 0, 55, 93
1, 229823, Note_on_c, 0, 43, 70
1, 229848, Note_off_c, 0, 43, 64
1, 229850, Note_off_c, 0, 55, 64
1, 229869, Note_on_c, 0, 45, 63
1, 229870, Note_on_c, 0, 57, 90
1, 229884, Note_off_c, 0, 57, 64
1, 229891, Note_off_c, 0, 45, 64
1, 229919, Note_on_c, 0, 47, 81
1, 229921, Note_on_c, 0, 59, 69
1, 229939, Note_off_c, 0, 59, 64
1, 229953, Note_off_c, 0, 47, 64
1, 229968, Note_on_c, 0, 60, 90
1, 229969, Note_on_c, 0, 48, 70
1, 229979, Note_off_c, 0, 48, 64
1, 229984, Note_off_c, 0, 60, 64
1, 230015, Note_on_c, 0, 43, 82
1, 230016, Note_on_c, 0, 64, 94
1, 230111, Note_on_c, 0, 55, 84
1, 230112, Note_on_c, 0, 59, 85
1, 230132, Note_off_c, 0, 59, 64
1, 230133, Note_off_c, 0, 55, 64
1, 230144, Note_off_c, 0, 43, 64
1, 230160, Note_off_c, 0, 64, 64
1, 230162, Note_on_c, 0, 48, 65
1, 230207, Note_on_c, 0, 57, 81
1, 230209, Note_on_c, 0, 51, 76
1, 230210, Note_on_c, 0, 41, 68
1, 230231, Note_off_c, 0, 51, 64
1, 230233, Note_off_c, 0, 57, 64
1, 230234, Note_off_c, 0, 48, 64
1, 230238, Note_off_c, 0, 41, 64
1, 230303, Note_on_c, 0, 47, 58
1, 230304, Note_on_c, 0, 40, 61
1, 230304, Note_on_c, 0, 56, 69
1, 230306, Note_on_c, 0, 50, 76
1, 230327, Note_off_c, 0, 47, 64
1, 230329, Note_off_c, 0, 56, 64
1, 230335, Note_off_c, 0, 40, 64
1, 230340, Note_off_c, 0, 50, 64
1, 230400, Note_on_c, 0, 45, 58
1, 230400, Note_on_c, 0, 53, 54
1, 230401, Note_on_c, 0, 62, 79
1, 230446, Note_off_c, 0, 62, 64
1, 230469, Note_on_c, 0, 64, 90
1, 230499, Note_off_c, 0, 64, 64
1, 230545, Note_on_c, 0, 65, 94
1, 230625, Note_off_c, 0, 65, 64
1, 230639, Note_on_c, 0, 64, 89
1, 230685, Note_on_c, 0, 62, 86
1, 230686, Note_off_c, 0, 64, 64
1, 230733, Note_off_c, 0, 62, 64
1, 230736, Note_off_c, 0, 45, 64
1, 230741, Note_off_c, 0, 53, 64
1, 230781, Note_on_c, 0, 52, 63
1, 230782, Note_on_c, 0, 48, 64
1, 230782, Note_on_c, 0, 57, 82
1, 230783, Note_on_c, 0, 45, 56
1, 230823, Note_off_c, 0, 57, 64
1, 230853, Note_on_c, 0, 59, 85
1, 230886, Note_off_c, 0, 59, 64
1, 230927, Note_on_c, 0, 60, 95
1, 231014, Note_off_c, 0, 60, 64
1, 231022, Note_on_c, 0, 59, 89
1, 231063, Note_off_c, 0, 59, 64
1, 231069, Note_on_c, 0, 57, 85
1, 231096, Note_off_c, 0, 48, 64
1, 231097, Note_off_c, 0, 45, 64
1, 231098, Note_off_c, 0, 52, 64
1, 231117, Note_on_c, 0, 59, 95
1, 231118, Note_off_c, 0, 57, 64
1, 231141, Note_off_c, 0, 59, 64
1, 231162, Note_on_c, 0, 45, 62
1, 231164, Note_on_c, 0, 53, 53
1, 231165, Note_on_c, 0, 50, 61
1, 231167, Note_on_c, 0, 62, 88
1, 231224, Note_off_c, 0, 62, 64
1, 231235, Note_on_c, 0, 64, 95
1, 231265, Note_off_c, 0, 64, 64
1, 231310, Note_on_c, 0, 65, 97
1, 231396, Note_off_c, 0, 65, 64
1, 231408, Note_on_c, 0, 69, 94
1, 231455, Note_off_c, 0, 69, 64
1, 231458, Note_on_c, 0, 64, 75
1, 231472, Note_off_c, 0, 53, 64
1, 231476, Note_off_c, 0, 45, 64
1, 231480, Note_off_c, 0, 50, 64
1, 231500, Note_off_c, 0, 64, 64
1, 231503, Note_on_c, 0, 62, 82
1, 231544, Note_off_c, 0, 62, 64
1, 231546, Note_on_c, 0, 48, 66
1, 231547, Note_on_c, 0, 52, 64
1, 231548, Note_on_c, 0, 57, 71
1, 231551, Note_on_c, 0, 45, 56
1, 231591, Note_off_c, 0, 57, 64
1, 231621, Note_on_c, 0, 59, 85
1, 231654, Note_off_c, 0, 59, 64
1, 231695, Note_on_c, 0, 60, 95
1, 231782, Note_off_c, 0, 60, 64
1, 231790, Note_on_c, 0, 59, 89
1, 231831, Note_off_c, 0, 59, 64
1, 231837, Note_on_c, 0, 57, 85
1, 231864, Note_off_c, 0, 48, 64
1, 231865, Note_off_c, 0, 45, 64
1, 231866, Note_off_c, 0, 52, 64
1, 231886, Note_on_c, 0, 55, 95
1, 231886, Note_off_c, 0, 57, 64
1, 231899, Note_off_c, 0, 55, 64
1, 231936, Note_on_c, 0, 52, 90
1, 231936, Note_on_c, 0, 57, 94
1, 231937, Note_on_c, 0, 45, 64
1, 231938, Note_on_c, 0, 48, 74
1, 232032, Note_off_c, 0, 52, 64
1, 232032, Note_on_c, 0, 64, 94
1, 232051, Note_off_c, 0, 45, 64
1, 232052, Note_off_c, 0, 64, 64
1, 232056, Note_off_c, 0, 48, 64
1, 232056, Note_off_c, 0, 57, 64
1, 232130, Note_on_c, 0, 51, 63
1, 232130, Note_on_c, 0, 57, 71
1, 232131, Note_on_c, 0, 62, 74
1, 232132, Note_on_c, 0, 41, 67
1, 232192, Note_off_c, 0, 57, 64
1, 232219, Note_off_c, 0, 51, 64
1, 232225, Note_on_c, 0, 57, 81
1, 232232, Note_off_c, 0, 62, 64
1, 232247, Note_off_c, 0, 41, 64
1, 232261, Note_off_c, 0, 57, 64
1, 232317, Note_on_c, 0, 50, 75
1, 232318, Note_on_c, 0, 56, 74
1, 232318, Note_on_c, 0, 60, 80
1, 232320, Note_on_c, 0, 40, 68
1, 232360, Note_off_c, 0, 60, 64
1, 232392, Note_on_c, 0, 59, 96
1, 232393, Note_off_c, 0, 56, 64
1, 232422, Note_off_c, 0, 59, 64
1, 232465, Note_on_c, 0, 57, 94
1, 232571, Note_off_c, 0, 57, 64
1, 232604, Note_off_c, 0, 50, 64
1, 232608, Note_on_c, 0, 56, 101
1, 232615, Note_off_c, 0, 40, 64
1, 232655, Note_off_c, 0, 56, 64
1, 232655, Note_on_c, 0, 57, 87
1, 232671, Note_off_c, 0, 57, 64
1, 232704, Note_on_c, 0, 52, 90
1, 232704, Note_on_c, 0, 57, 94
1, 232705, Note_on_c, 0, 45, 64
1, 232705, Note_on_c, 0, 48, 74
1, 232800, Note_on_c, 0, 64, 98
1, 232819, Note_off_c, 0, 52, 64
1, 232827, Note_off_c, 0, 64, 64
1, 232830, Note_off_c, 0, 48, 64
1, 232831, Note_off_c, 0, 45, 64
1, 232836, Note_off_c, 0, 57, 64
1, 232895, Note_on_c, 0, 57, 76
1, 232896, Note_on_c, 0, 51, 74
1, 232896, Note_on_c, 0, 62, 80
1, 232897, Note_on_c, 0, 41, 71
1, 232968, Note_off_c, 0, 57, 64
1, 232968, Note_off_c, 0, 62, 64
1, 232990, Note_on_c, 0, 57, 86
1, 233005, Note_off_c, 0, 51, 64
1, 233019, Note_off_c, 0, 57, 64
1, 233030, Note_off_c, 0, 41, 64
1, 233068, Note_on_c, 0, 50, 61
1, 233078, Note_on_c, 0, 56, 62
1, 233084, Note_on_c, 0, 40, 56
1, 233085, Note_on_c, 0, 60, 94
1, 233129, Note_off_c, 0, 60, 64
1, 233152, Note_off_c, 0, 56, 64
1, 233157, Note_on_c, 0, 59, 90
1, 233196, Note_off_c, 0, 50, 64
1, 233228, Note_on_c, 0, 57, 96
1, 233236, Note_off_c, 0, 59, 64
1, 233325, Note_on_c, 0, 56, 94
1, 233327, Note_off_c, 0, 57, 64
1, 233334, Note_off_c, 0, 56, 64
1, 233372, Note_on_c, 0, 56, 106
1, 233389, Note_off_c, 0, 40, 64
1, 233419, Note_off_c, 0, 56, 64
1, 233422, Note_on_c, 0, 57, 92
1, 233429, Note_off_c, 0, 57, 64
1, 233473, Note_on_c, 0, 64, 66
1, 233474, Note_on_c, 0, 57, 60
1, 233474, Note_on_c, 0, 60, 62
1, 233475, Note_on_c, 0, 69, 68
1, 233661, Note_off_c, 0, 69, 64
1, 233668, Note_off_c, 0, 64, 64
1, 233677, Note_off_c, 0, 60, 64
1, 233683, Note_off_c, 0, 57, 64
1, 233754, Note_on_c, 0, 50, 51
1, 233755, Note_on_c, 0, 57, 64
1, 233755, Note_on_c, 0, 60, 63
1, 233757, Note_on_c, 0, 64, 65
1, 234128, Note_off_c, 0, 60, 64
1, 234129, Note_off_c, 0, 57, 64
1, 234135, Note_off_c, 0, 64, 64
1, 234157, Note_off_c, 0, 50, 64
1, 234234, Note_on_c, 0, 62, 62
1, 234235, Note_on_c, 0, 59, 67
1, 234236, Note_on_c, 0, 55, 66
1, 234239, Note_on_c, 0, 52, 60
1, 234422, Note_off_c, 0, 55, 64
1, 234437, Note_off_c, 0, 59, 64
1, 234447, Note_off_c, 0, 62, 64
1, 234511, Note_off_c, 0, 52, 64
1, 234522, Note_on_c, 0, 57, 60
1, 234522, Note_on_c, 0, 60, 59
1, 234523, Note_on_c, 0, 64, 64
1, 234525, Note_on_c, 0, 45, 51
1, 234795, Note_off_c, 0, 57, 64
1, 234810, Note_off_c, 0, 45, 64
1, 234814, Note_on_c, 0, 52, 92
1, 234817, Note_off_c, 0, 60, 64
1, 234858, Note_off_c, 0, 64, 64
1, 234863, Note_on_c, 0, 55, 67
1, 234866, Note_off_c, 0, 52, 64
1, 234918, Note_on_c, 0, 57, 76
1, 234921, Note_off_c, 0, 55, 64
1, 235008, Note_on_c, 0, 33, 55
1, 235008, Note_off_c, 0, 57, 64
1, 235008, Note_on_c, 0, 57, 51
1, 235012, Note_on_c, 0, 64, 64
1, 235104, Note_off_c, 0, 57, 64
1, 235152, Note_on_c, 0, 52, 81
1, 235153, Note_on_c, 0, 57, 68
1, 235180, Note_off_c, 0, 33, 64
1, 235192, Note_off_c, 0, 52, 64
1, 235197, Note_on_c, 0, 45, 75
1, 235209, Note_off_c, 0, 57, 64
1, 235217, Note_off_c, 0, 64, 64
1, 235260, Note_off_c, 0, 45, 64
1, 235290, Note_on_c, 0, 62, 62
1, 235293, Note_on_c, 0, 60, 64
1, 235294, Note_on_c, 0, 53, 72
1, 235295, Note_on_c, 0, 57, 69
1, 235301, Note_on_c, 0, 38, 66
1, 235486, Note_off_c, 0, 53, 64
1, 235494, Note_off_c, 0, 57, 64
1, 235581, Note_on_c, 0, 53, 70
1, 235581, Note_on_c, 0, 57, 68
1, 235631, Note_off_c, 0, 38, 64
1, 235639, Note_off_c, 0, 62, 64
1, 235661, Note_off_c, 0, 60, 64
1, 235676, Note_off_c, 0, 53, 64
1, 235679, Note_off_c, 0, 57, 64
1, 235717, Note_on_c, 0, 47, 58
1, 235768, Note_on_c, 0, 40, 53
1, 235769, Note_on_c, 0, 59, 64
1, 235771, Note_on_c, 0, 62, 61
1, 235772, Note_on_c, 0, 55, 63
1, 235773, Note_on_c, 0, 50, 55
1, 235938, Note_off_c, 0, 59, 64
1, 235939, Note_off_c, 0, 47, 64
1, 235941, Note_off_c, 0, 50, 64
1, 235948, Note_off_c, 0, 40, 64
1, 235953, Note_off_c, 0, 55, 64
1, 235955, Note_off_c, 0, 62, 64
1, 236059, Note_on_c, 0, 57, 59
1, 236061, Note_on_c, 0, 55, 59
1, 236061, Note_on_c, 0, 60, 64
1, 236065, Note_on_c, 0, 52, 63
1, 236066, Note_on_c, 0, 33, 57
1, 236227, Note_off_c, 0, 52, 64
1, 236235, Note_off_c, 0, 55, 64
1, 236240, Note_off_c, 0, 57, 64
1, 236248, Note_off_c, 0, 60, 64
1, 236344, Note_off_c, 0, 33, 64
1, 236346, Note_on_c, 0, 59, 96
1, 236351, Note_on_c, 0, 48, 60
1, 236394, Note_on_c, 0, 60, 84
1, 236399, Note_off_c, 0, 48, 64
1, 236419, Note_off_c, 0, 59, 64
1, 236442, Note_off_c, 0, 60, 64
1, 236442, Note_on_c, 0, 67, 85
1, 236488, Note_on_c, 0, 69, 69
1, 236502, Note_off_c, 0, 67, 64
1, 236541, Note_off_c, 0, 69, 64
1, 236544, Note_on_c, 0, 45, 67
1, 236544, Note_on_c, 0, 48, 72
1, 236545, Note_on_c, 0, 52, 72
1, 236591, Note_on_c, 0, 64, 83
1, 236611, Note_off_c, 0, 64, 64
1, 236640, Note_on_c, 0, 64, 82
1, 236659, Note_off_c, 0, 64, 64
1, 236686, Note_on_c, 0, 64, 83
1, 236702, Note_off_c, 0, 64, 64
1, 236734, Note_on_c, 0, 64, 96
1, 236750, Note_off_c, 0, 48, 64
1, 236755, Note_off_c, 0, 52, 64
1, 236763, Note_off_c, 0, 45, 64
1, 236781, Note_on_c, 0, 62, 85
1, 236781, Note_off_c, 0, 64, 64
1, 236798, Note_off_c, 0, 62, 64
1, 236829, Note_on_c, 0, 60, 94
1, 236924, Note_on_c, 0, 45, 60
1, 236926, Note_on_c, 0, 50, 63
1, 236926, Note_on_c, 0, 53, 65
1, 236971, Note_on_c, 0, 57, 75
1, 236971, Note_off_c, 0, 60, 64
1, 236985, Note_off_c, 0, 57, 64
1, 237019, Note_on_c, 0, 60, 111
1, 237059, Note_off_c, 0, 60, 64
1, 237116, Note_on_c, 0, 57, 102
1, 237214, Note_on_c, 0, 59, 97
1, 237219, Note_off_c, 0, 57, 64
1, 237232, Note_off_c, 0, 53, 64
1, 237236, Note_off_c, 0, 45, 64
1, 237237, Note_off_c, 0, 50, 64
1, 237255, Note_off_c, 0, 59, 64
1, 237260, Note_on_c, 0, 60, 85
1, 237299, Note_off_c, 0, 60, 64
1, 237309, Note_on_c, 0, 45, 61
1, 237310, Note_on_c, 0, 52, 68
1, 237311, Note_on_c, 0, 48, 64
1, 237311, Note_on_c, 0, 60, 81
1, 237312, Note_on_c, 0, 64, 85
1, 237333, Note_off_c, 0, 64, 64
1, 237334, Note_off_c, 0, 60, 64
1, 237354, Note_on_c, 0, 64, 81
1, 237357, Note_on_c, 0, 60, 69
1, 237371, Note_off_c, 0, 60, 64
1, 237378, Note_off_c, 0, 64, 64
1, 237403, Note_on_c, 0, 60, 100
1, 237405, Note_on_c, 0, 64, 80
1, 237417, Note_off_c, 0, 64, 64
1, 237424, Note_off_c, 0, 60, 64
1, 237448, Note_on_c, 0, 60, 80
1, 237449, Note_on_c, 0, 64, 92
1, 237467, Note_off_c, 0, 64, 64
1, 237469, Note_off_c, 0, 60, 64
1, 237496, Note_on_c, 0, 60, 91
1, 237497, Note_on_c, 0, 64, 102
1, 237528, Note_off_c, 0, 64, 64
1, 237531, Note_off_c, 0, 60, 64
1, 237541, Note_on_c, 0, 62, 85
1, 237545, Note_off_c, 0, 45, 64
1, 237549, Note_off_c, 0, 48, 64
1, 237563, Note_off_c, 0, 52, 64
1, 237568, Note_off_c, 0, 62, 64
1, 237594, Note_on_c, 0, 52, 66
1, 237596, Note_on_c, 0, 47, 69
1, 237596, Note_on_c, 0, 59, 97
1, 237597, Note_on_c, 0, 64, 94
1, 237598, Note_on_c, 0, 44, 69
1, 237598, Note_on_c, 0, 56, 92
1, 237820, Note_off_c, 0, 64, 64
1, 237826, Note_off_c, 0, 59, 64
1, 237830, Note_off_c, 0, 56, 64
1, 237887, Note_on_c, 0, 59, 75
1, 237888, Note_on_c, 0, 64, 82
1, 237889, Note_on_c, 0, 56, 73
1, 237959, Note_off_c, 0, 56, 64
1, 237962, Note_off_c, 0, 44, 64
1, 237965, Note_off_c, 0, 59, 64
1, 237967, Note_off_c, 0, 47, 64
1, 237973, Note_off_c, 0, 64, 64
1, 237991, Note_off_c, 0, 52, 64
1, 238080, Note_on_c, 0, 45, 70
1, 238085, Note_on_c, 0, 48, 67
1, 238091, Note_on_c, 0, 52, 76
1, 238094, Note_on_c, 0, 57, 75
1, 238099, Note_on_c, 0, 60, 92
1, 238108, Note_on_c, 0, 64, 101
1, 238269, Note_off_c, 0, 52, 64
1, 238273, Note_off_c, 0, 48, 64
1, 238277, Note_off_c, 0, 60, 64
1, 238280, Note_off_c, 0, 64, 64
1, 238287, Note_off_c, 0, 57, 64
1, 238288, Note_off_c, 0, 45, 64
1, 238365, Note_on_c, 0, 50, 74
1, 238366, Note_on_c, 0, 45, 69
1, 238367, Note_on_c, 0, 57, 93
1, 238368, Note_on_c, 0, 53, 70
1, 238368, Note_on_c, 0, 60, 90
1, 238749, Note_off_c, 0, 60, 64
1, 238755, Note_off_c, 0, 53, 64
1, 238759, Note_off_c, 0, 45, 64
1, 238761, Note_off_c, 0, 50, 64
1, 238774, Note_off_c, 0, 57, 64
1, 238847, Note_on_c, 0, 57, 92
1, 238848, Note_on_c, 0, 60, 85
1, 238848, Note_on_c, 0, 64, 91
1, 238849, Note_on_c, 0, 45, 72
1, 238849, Note_on_c, 0, 52, 78
1, 238850, Note_on_c, 0, 48, 79
1, 239043, Note_off_c, 0, 48, 64
1, 239045, Note_off_c, 0, 57, 64
1, 239046, Note_off_c, 0, 45, 64
1, 239049, Note_off_c, 0, 60, 64
1, 239050, Note_off_c, 0, 64, 64
1, 239057, Note_off_c, 0, 52, 64
1, 239130, Note_on_c, 0, 47, 72
1, 239131, Note_on_c, 0, 52, 75
1, 239132, Note_on_c, 0, 56, 89
1, 239132, Note_on_c, 0, 59, 92
1, 239133, Note_on_c, 0, 44, 77
1, 239494, Note_off_c, 0, 59, 64
1, 239496, Note_off_c, 0, 56, 64
1, 239506, Note_off_c, 0, 47, 64
1, 239510, Note_off_c, 0, 44, 64
1, 239522, Note_off_c, 0, 52, 64
1, 239616, Note_on_c, 0, 52, 60
1, 239617, Note_on_c, 0, 67, 69
1, 239618, Note_on_c, 0, 64, 63
1, 239618, Note_on_c, 0, 72, 71
1, 239619, Note_on_c, 0, 45, 53
1, 239620, Note_on_c, 0, 48, 64
1, 239689, Note_off_c, 0, 72, 64
1, 239702, Note_off_c, 0, 67, 64
1, 239805, Note_on_c, 0, 76, 102
1, 239818, Note_off_c, 0, 48, 64
1, 239821, Note_off_c, 0, 64, 64
1, 239823, Note_off_c, 0, 52, 64
1, 239828, Note_off_c, 0, 45, 64
1, 239852, Note_off_c, 0, 76, 64
1, 239900, Note_on_c, 0, 74, 78
1, 239901, Note_on_c, 0, 65, 69
1, 239902, Note_on_c, 0, 53, 63
1, 239902, Note_on_c, 0, 69, 74
1, 239904, Note_on_c, 0, 45, 59
1, 239904, Note_on_c, 0, 50, 63
1, 240073, Note_off_c, 0, 65, 64
1, 240102, Note_off_c, 0, 69, 64
1, 240189, Note_on_c, 0, 69, 81
1, 240190, Note_on_c, 0, 65, 79
1, 240244, Note_off_c, 0, 74, 64
1, 240251, Note_off_c, 0, 53, 64
1, 240257, Note_off_c, 0, 45, 64
1, 240261, Note_off_c, 0, 50, 64
1, 240276, Note_off_c, 0, 65, 64
1, 240282, Note_off_c, 0, 69, 64
1, 240384, Note_on_c, 0, 52, 72
1, 240384, Note_on_c, 0, 72, 87
1, 240385, Note_on_c, 0, 45, 66
1, 240386, Note_on_c, 0, 64, 85
1, 240388, Note_on_c, 0, 48, 73
1, 240560, Note_off_c, 0, 72, 64
1, 240576, Note_on_c, 0, 71, 89
1, 240580, Note_off_c, 0, 48, 64
1, 240582, Note_off_c, 0, 45, 64
1, 240592, Note_off_c, 0, 64, 64
1, 240593, Note_off_c, 0, 52, 64
1, 240604, Note_off_c, 0, 71, 64
1, 240669, Note_on_c, 0, 62, 75
1, 240669, Note_on_c, 0, 68, 82
1, 240670, Note_on_c, 0, 52, 69
1, 240671, Note_on_c, 0, 47, 65
1, 240672, Note_on_c, 0, 44, 66
1, 240940, Note_off_c, 0, 62, 64
1, 240957, Note_on_c, 0, 64, 68
1, 240959, Note_on_c, 0, 56, 65
1, 241032, Note_off_c, 0, 68, 64
1, 241119, Note_off_c, 0, 44, 64
1, 241120, Note_off_c, 0, 47, 64
1, 241141, Note_off_c, 0, 52, 64
1, 241143, Note_off_c, 0, 56, 64
1, 241143, Note_off_c, 0, 64, 64
1, 241152, Note_on_c, 0, 33, 64
1, 241158, Note_on_c, 0, 55, 75
1, 241159, Note_on_c, 0, 60, 72
1, 241170, Note_off_c, 0, 55, 64
1, 241173, Note_off_c, 0, 60, 64
1, 241180, Note_off_c, 0, 33, 64
1, 241248, Note_on_c, 0, 52, 65
1, 241264, Note_off_c, 0, 52, 64
1, 241345, Note_on_c, 0, 76, 95
1, 241346, Note_on_c, 0, 64, 90
1, 241347, Note_on_c, 0, 60, 70
1, 241353, Note_off_c, 0, 64, 64
1, 241358, Note_off_c, 0, 60, 64
1, 241362, Note_off_c, 0, 76, 64
1, 241536, Note_on_c, 0, 74, 82
1, 241539, Note_on_c, 0, 69, 79
1, 241540, Note_on_c, 0, 62, 75
1, 241541, Note_on_c, 0, 38, 66
1, 241552, Note_off_c, 0, 38, 64
1, 241552, Note_off_c, 0, 62, 64
1, 241554, Note_off_c, 0, 69, 64
1, 241558, Note_off_c, 0, 74, 64
1, 241728, Note_on_c, 0, 65, 76
1, 241729, Note_on_c, 0, 53, 68
1, 241730, Note_on_c, 0, 50, 62
1, 241730, Note_on_c, 0, 60, 72
1, 241731, Note_on_c, 0, 57, 66
1, 241741, Note_off_c, 0, 60, 64
1, 241742, Note_off_c, 0, 53, 64
1, 241742, Note_off_c, 0, 65, 64
1, 241743, Note_off_c, 0, 57, 64
1, 241744, Note_off_c, 0, 50, 64
1, 241920, Note_on_c, 0, 40, 64
1, 241923, Note_on_c, 0, 68, 68
1, 241924, Note_on_c, 0, 62, 81
1, 241925, Note_on_c, 0, 56, 65
1, 241931, Note_off_c, 0, 40, 64
1, 241938, Note_off_c, 0, 62, 64
1, 241942, Note_off_c, 0, 56, 64
1, 241945, Note_off_c, 0, 68, 64
1, 242067, Note_on_c, 0, 72, 95
1, 242095, Note_off_c, 0, 72, 64
1, 242154, Note_on_c, 0, 60, 51
1, 242156, Note_on_c, 0, 50, 47
1, 242157, Note_on_c, 0, 71, 72
1, 242158, Note_on_c, 0, 56, 55
1, 242164, Note_on_c, 0, 54, 38
1, 242172, Note_on_c, 0, 72, 80
1, 242176, Note_off_c, 0, 71, 64
1, 242184, Note_on_c, 0, 71, 71
1, 242194, Note_off_c, 0, 72, 64
1, 242208, Note_off_c, 0, 71, 64
1, 242210, Note_on_c, 0, 69, 86
1, 242222, Note_off_c, 0, 69, 64
1, 242257, Note_on_c, 0, 67, 81
1, 242276, Note_off_c, 0, 67, 64
1, 242306, Note_on_c, 0, 64, 61
1, 242336, Note_off_c, 0, 64, 64
1, 242351, Note_on_c, 0, 63, 55
1, 242368, Note_off_c, 0, 63, 64
1, 242398, Note_off_c, 0, 60, 64
1, 242402, Note_on_c, 0, 62, 66
1, 242432, Note_off_c, 0, 62, 64
1, 242433, Note_off_c, 0, 54, 64
1, 242439, Note_off_c, 0, 50, 64
1, 242445, Note_off_c, 0, 56, 64
1, 242448, Note_on_c, 0, 57, 53
1, 242472, Note_off_c, 0, 57, 64
1, 242496, Note_on_c, 0, 60, 97
1, 242544, Note_off_c, 0, 60, 64
1, 242592, Note_on_c, 0, 57, 75
1, 242613, Note_off_c, 0, 57, 64
1, 242644, Note_on_c, 0, 40, 48
1, 242677, Note_off_c, 0, 40, 64
1, 242688, Note_on_c, 0, 45, 78
1, 242693, Note_on_c, 0, 60, 79
1, 242726, Note_off_c, 0, 60, 64
1, 242729, Note_on_c, 0, 59, 76
1, 242778, Note_off_c, 0, 59, 64
1, 242782, Note_on_c, 0, 57, 75
1, 242784, Note_on_c, 0, 48, 68
1, 242878, Note_on_c, 0, 59, 89
1, 242899, Note_off_c, 0, 57, 64
1, 242973, Note_on_c, 0, 60, 91
1, 242980, Note_off_c, 0, 45, 64
1, 242986, Note_off_c, 0, 59, 64
1, 242997, Note_off_c, 0, 48, 64
1, 243068, Note_on_c, 0, 44, 77
1, 243118, Note_on_c, 0, 59, 78
1, 243124, Note_off_c, 0, 60, 64
1, 243163, Note_on_c, 0, 56, 79
1, 243168, Note_on_c, 0, 47, 60
1, 243175, Note_off_c, 0, 59, 64
1, 243258, Note_on_c, 0, 64, 92
1, 243260, Note_on_c, 0, 52, 66
1, 243358, Note_on_c, 0, 59, 83
1, 243363, Note_off_c, 0, 44, 64
1, 243366, Note_off_c, 0, 56, 64
1, 243373, Note_off_c, 0, 64, 64
1, 243392, Note_off_c, 0, 47, 64
1, 243453, Note_on_c, 0, 62, 76
1, 243454, Note_on_c, 0, 43, 76
1, 243454, Note_off_c, 0, 52, 64
1, 243454, Note_off_c, 0, 59, 64
1, 243495, Note_on_c, 0, 59, 68
1, 243547, Note_on_c, 0, 55, 78
1, 243549, Note_off_c, 0, 59, 64
1, 243551, Note_on_c, 0, 47, 64
1, 243648, Note_on_c, 0, 52, 59
1, 243649, Note_on_c, 0, 59, 72
1, 243658, Note_off_c, 0, 62, 64
1, 243734, Note_off_c, 0, 55, 64
1, 243743, Note_on_c, 0, 62, 73
1, 243747, Note_off_c, 0, 59, 64
1, 243797, Note_off_c, 0, 43, 64
1, 243802, Note_off_c, 0, 52, 64
1, 243834, Note_off_c, 0, 47, 64
1, 243836, Note_on_c, 0, 42, 65
1, 243836, Note_on_c, 0, 57, 56
1, 243838, Note_on_c, 0, 54, 59
1, 243927, Note_on_c, 0, 45, 51
1, 243946, Note_off_c, 0, 54, 64
1, 243946, Note_off_c, 0, 57, 64
1, 244029, Note_on_c, 0, 57, 58
1, 244034, Note_on_c, 0, 54, 52
1, 244035, Note_on_c, 0, 50, 58
1, 244139, Note_off_c, 0, 45, 64
1, 244142, Note_off_c, 0, 50, 64
1, 244144, Note_off_c, 0, 42, 64
1, 244199, Note_off_c, 0, 57, 64
1, 244215, Note_off_c, 0, 54, 64
1, 244224, Note_on_c, 0, 33, 50
1, 244224, Note_on_c, 0, 57, 51
1, 244224, Note_on_c, 0, 60, 55
1, 244224, Note_off_c, 0, 62, 64
1, 244224, Note_on_c, 0, 64, 56
1, 244225, Note_on_c, 0, 45, 50
1, 244264, Note_off_c, 0, 57, 64
1, 244265, Note_off_c, 0, 60, 64
1, 244274, Note_off_c, 0, 64, 64
1, 244319, Note_on_c, 0, 57, 56
1, 244319, Note_on_c, 0, 60, 50
1, 244319, Note_on_c, 0, 64, 48
1, 244367, Note_off_c, 0, 64, 64
1, 244368, Note_off_c, 0, 60, 64
1, 244369, Note_off_c, 0, 57, 64
1, 244410, Note_off_c, 0, 33, 64
1, 244411, Note_off_c, 0, 45, 64
1, 244415, Note_on_c, 0, 57, 57
1, 244416, Note_on_c, 0, 60, 55
1, 244416, Note_on_c, 0, 64, 63
1, 244455, Note_off_c, 0, 60, 64
1, 244458, Note_off_c, 0, 64, 64
1, 244461, Note_off_c, 0, 57, 64
1, 244511, Note_on_c, 0, 64, 60
1, 244512, Note_on_c, 0, 57, 57
1, 244512, Note_on_c, 0, 60, 63
1, 244538, Note_off_c, 0, 60, 64
1, 244541, Note_off_c, 0, 57, 64
1, 244544, Note_off_c, 0, 64, 64
1, 244559, Note_on_c, 0, 33, 57
1, 244607, Note_on_c, 0, 65, 67
1, 244608, Note_on_c, 0, 45, 69
1, 244608, Note_on_c, 0, 57, 63
1, 244608, Note_on_c, 0, 60, 62
1, 244658, Note_off_c, 0, 57, 64
1, 244660, Note_off_c, 0, 65, 64
1, 244663, Note_off_c, 0, 60, 64
1, 244702, Note_on_c, 0, 60, 44
1, 244702, Note_on_c, 0, 65, 46
1, 244703, Note_on_c, 0, 57, 55
1, 244747, Note_off_c, 0, 57, 64
1, 244749, Note_off_c, 0, 65, 64
1, 244757, Note_off_c, 0, 60, 64
1, 244799, Note_on_c, 0, 57, 60
1, 244799, Note_on_c, 0, 60, 42
1, 244799, Note_on_c, 0, 65, 61
1, 244843, Note_off_c, 0, 65, 64
1, 244847, Note_off_c, 0, 57, 64
1, 244854, Note_off_c, 0, 60, 64
1, 244888, Note_off_c, 0, 45, 64
1, 244895, Note_on_c, 0, 57, 64
1, 244895, Note_on_c, 0, 60, 33
1, 244895, Note_on_c, 0, 65, 70
1, 244906, Note_off_c, 0, 33, 64
1, 244933, Note_off_c, 0, 57, 64
1, 244942, Note_on_c, 0, 35, 55
1, 244942, Note_off_c, 0, 60, 64
1, 244951, Note_off_c, 0, 65, 64
1, 244991, Note_on_c, 0, 28, 70
1, 244991, Note_on_c, 0, 40, 69
1, 244991, Note_on_c, 0, 56, 55
1, 244991, Note_on_c, 0, 59, 62
1, 244991, Note_on_c, 0, 64, 66
1, 244992, Note_off_c, 0, 35, 64
1, 245040, Note_off_c, 0, 56, 64
1, 245045, Note_off_c, 0, 59, 64
1, 245050, Note_off_c, 0, 64, 64
1, 245087, Note_on_c, 0, 56, 58
1, 245087, Note_on_c, 0, 59, 55
1, 245087, Note_on_c, 0, 64, 51
1, 245132, Note_off_c, 0, 64, 64
1, 245140, Note_off_c, 0, 56, 64
1, 245155, Note_off_c, 0, 59, 64
1, 245183, Note_on_c, 0, 59, 56
1, 245183, Note_on_c, 0, 65, 74
1, 245184, Note_on_c, 0, 56, 63
1, 245226, Note_off_c, 0, 56, 64
1, 245229, Note_off_c, 0, 65, 64
1, 245232, Note_off_c, 0, 40, 64
1, 245238, Note_off_c, 0, 59, 64
1, 245249, Note_off_c, 0, 28, 64
1, 245278, Note_on_c, 0, 56, 60
1, 245278, Note_on_c, 0, 59, 46
1, 245278, Note_on_c, 0, 64, 69
1, 245317, Note_off_c, 0, 59, 64
1, 245319, Note_off_c, 0, 56, 64
1, 245326, Note_on_c, 0, 40, 55
1, 245337, Note_off_c, 0, 64, 64
1, 245367, Note_off_c, 0, 40, 64
1, 245374, Note_on_c, 0, 64, 56
1, 245375, Note_on_c, 0, 33, 55
1, 245375, Note_on_c, 0, 45, 55
1, 245375, Note_on_c, 0, 57, 61
1, 245375, Note_on_c, 0, 60, 65
1, 245425, Note_off_c, 0, 57, 64
1, 245425, Note_off_c, 0, 60, 64
1, 245431, Note_off_c, 0, 64, 64
1, 245471, Note_on_c, 0, 57, 57
1, 245471, Note_on_c, 0, 60, 58
1, 245471, Note_on_c, 0, 64, 62
1, 245516, Note_off_c, 0, 57, 64
1, 245516, Note_off_c, 0, 60, 64
1, 245516, Note_off_c, 0, 64, 64
1, 245567, Note_on_c, 0, 57, 64
1, 245567, Note_on_c, 0, 60, 68
1, 245567, Note_on_c, 0, 64, 68
1, 245613, Note_off_c, 0, 45, 64
1, 245619, Note_off_c, 0, 64, 64
1, 245620, Note_off_c, 0, 33, 64
1, 245620, Note_off_c, 0, 60, 64
1, 245622, Note_off_c, 0, 57, 64
1, 245663, Note_on_c, 0, 57, 75
1, 245663, Note_on_c, 0, 60, 70
1, 245663, Note_on_c, 0, 64, 74
1, 245698, Note_off_c, 0, 57, 64
1, 245708, Note_off_c, 0, 60, 64
1, 245708, Note_off_c, 0, 64, 64
1, 245710, Note_on_c, 0, 31, 64
1, 245710, Note_on_c, 0, 43, 64
1, 245724, Note_off_c, 0, 31, 64
1, 245725, Note_off_c, 0, 43, 64
1, 245760, Note_on_c, 0, 33, 84
1, 245760, Note_on_c, 0, 45, 104
1, 245760, Note_on_c, 0, 57, 94
1, 245760, Note_on_c, 0, 60, 87
1, 245811, Note_off_c, 0, 57, 64
1, 245819, Note_off_c, 0, 60, 64
1, 245853, Note_on_c, 0, 57, 90
1, 245853, Note_on_c, 0, 60, 86
1, 245853, Note_on_c, 0, 64, 90
1, 245862, Note_off_c, 0, 45, 64
1, 245891, Note_off_c, 0, 60, 64
1, 245895, Note_off_c, 0, 64, 64
1, 245918, Note_off_c, 0, 57, 64
1, 245949, Note_on_c, 0, 57, 92
1, 245949, Note_on_c, 0, 60, 98
1, 245949, Note_on_c, 0, 69, 94
1, 245994, Note_off_c, 0, 57, 64
1, 245996, Note_off_c, 0, 69, 64
1, 245998, Note_on_c, 0, 45, 100
1, 246005, Note_off_c, 0, 60, 64
1, 246024, Note_off_c, 0, 33, 64
1, 246045, Note_on_c, 0, 57, 102
1, 246045, Note_on_c, 0, 60, 93
1, 246045, Note_on_c, 0, 64, 89
1, 246048, Note_off_c, 0, 45, 64
1, 246083, Note_off_c, 0, 57, 64
1, 246084, Note_off_c, 0, 64, 64
1, 246093, Note_on_c, 0, 45, 87
1, 246100, Note_off_c, 0, 60, 64
1, 246142, Note_on_c, 0, 38, 92
1, 246142, Note_on_c, 0, 50, 99
1, 246142, Note_on_c, 0, 53, 99
1, 246142, Note_on_c, 0, 60, 85
1, 246142, Note_on_c, 0, 65, 86
1, 246146, Note_off_c, 0, 45, 64
1, 246182, Note_off_c, 0, 65, 64
1, 246187, Note_off_c, 0, 53, 64
1, 246196, Note_off_c, 0, 60, 64
1, 246237, Note_on_c, 0, 53, 98
1, 246237, Note_on_c, 0, 60, 72
1, 246237, Note_on_c, 0, 65, 87
1, 246262, Note_off_c, 0, 50, 64
1, 246281, Note_off_c, 0, 53, 64
1, 246287, Note_off_c, 0, 65, 64
1, 246294, Note_off_c, 0, 60, 64
1, 246334, Note_on_c, 0, 53, 102
1, 246334, Note_on_c, 0, 60, 85
1, 246334, Note_on_c, 0, 65, 85
1, 246374, Note_off_c, 0, 53, 64
1, 246379, Note_off_c, 0, 65, 64
1, 246381, Note_on_c, 0, 50, 96
1, 246387, Note_off_c, 0, 38, 64
1, 246390, Note_off_c, 0, 60, 64
1, 246411, Note_off_c, 0, 50, 64
1, 246430, Note_on_c, 0, 53, 102
1, 246430, Note_on_c, 0, 60, 91
1, 246430, Note_on_c, 0, 62, 82
1, 246458, Note_off_c, 0, 62, 64
1, 246465, Note_off_c, 0, 60, 64
1, 246469, Note_off_c, 0, 53, 64
1, 246477, Note_on_c, 0, 36, 68
1, 246478, Note_on_c, 0, 48, 81
1, 246503, Note_off_c, 0, 36, 64
1, 246506, Note_off_c, 0, 48, 64
1, 246526, Note_on_c, 0, 35, 87
1, 246526, Note_on_c, 0, 47, 97
1, 246526, Note_on_c, 0, 53, 99
1, 246526, Note_on_c, 0, 59, 86
1, 246526, Note_on_c, 0, 62, 84
1, 246527, Note_on_c, 0, 57, 90
1, 246560, Note_off_c, 0, 53, 64
1, 246577, Note_off_c, 0, 59, 64
1, 246578, Note_off_c, 0, 57, 64
1, 246578, Note_off_c, 0, 62, 64
1, 246621, Note_on_c, 0, 62, 83
1, 246622, Note_on_c, 0, 53, 97
1, 246622, Note_on_c, 0, 57, 85
1, 246622, Note_on_c, 0, 59, 83
1, 246640, Note_off_c, 0, 47, 64
1, 246654, Note_off_c, 0, 53, 64
1, 246664, Note_off_c, 0, 62, 64
1, 246671, Note_off_c, 0, 59, 64
1, 246681, Note_off_c, 0, 57, 64
1, 246718, Note_on_c, 0, 53, 98
1, 246718, Note_on_c, 0, 65, 93
1, 246719, Note_on_c, 0, 57, 85
1, 246719, Note_on_c, 0, 59, 75
1, 246758, Note_off_c, 0, 53, 64
1, 246761, Note_off_c, 0, 65, 64
1, 246766, Note_off_c, 0, 57, 64
1, 246767, Note_on_c, 0, 47, 75
1, 246772, Note_off_c, 0, 59, 64
1, 246801, Note_off_c, 0, 47, 64
1, 246815, Note_on_c, 0, 53, 95
1, 246815, Note_on_c, 0, 57, 88
1, 246815, Note_on_c, 0, 59, 68
1, 246815, Note_on_c, 0, 64, 94
1, 246823, Note_off_c, 0, 35, 64
1, 246842, Note_off_c, 0, 53, 64
1, 246854, Note_off_c, 0, 57, 64
1, 246854, Note_off_c, 0, 64, 64
1, 246858, Note_off_c, 0, 59, 64
1, 246862, Note_on_c, 0, 35, 74
1, 246910, Note_off_c, 0, 35, 64
1, 246911, Note_on_c, 0, 28, 95
1, 246911, Note_on_c, 0, 40, 98
1, 246911, Note_on_c, 0, 56, 96
1, 246911, Note_on_c, 0, 59, 90
1, 246911, Note_on_c, 0, 64, 88
1, 246958, Note_off_c, 0, 56, 64
1, 246964, Note_off_c, 0, 64, 64
1, 246969, Note_off_c, 0, 59, 64
1, 247007, Note_on_c, 0, 56, 93
1, 247007, Note_on_c, 0, 59, 92
1, 247007, Note_on_c, 0, 64, 86
1, 247014, Note_off_c, 0, 40, 64
1, 247039, Note_off_c, 0, 64, 64
1, 247056, Note_on_c, 0, 40, 70
1, 247065, Note_off_c, 0, 56, 64
1, 247067, Note_off_c, 0, 59, 64
1, 247103, Note_on_c, 0, 56, 102
1, 247103, Note_on_c, 0, 59, 90
1, 247103, Note_on_c, 0, 65, 92
1, 247151, Note_on_c, 0, 64, 86
1, 247151, Note_off_c, 0, 65, 64
1, 247164, Note_off_c, 0, 28, 64
1, 247166, Note_off_c, 0, 56, 64
1, 247171, Note_off_c, 0, 59, 64
1, 247189, Note_off_c, 0, 40, 64
1, 247197, Note_on_c, 0, 62, 75
1, 247199, Note_on_c, 0, 56, 102
1, 247199, Note_on_c, 0, 59, 75
1, 247207, Note_off_c, 0, 64, 64
1, 247247, Note_off_c, 0, 59, 64
1, 247247, Note_on_c, 0, 60, 77
1, 247252, Note_off_c, 0, 56, 64
1, 247254, Note_off_c, 0, 62, 64
1, 247287, Note_off_c, 0, 60, 64
1, 247296, Note_on_c, 0, 45, 62
1, 247392, Note_on_c, 0, 52, 59
1, 247437, Note_on_c, 0, 57, 70
1, 247485, Note_on_c, 0, 60, 75
1, 247531, Note_on_c, 0, 64, 67
1, 247579, Note_off_c, 0, 57, 64
1, 247580, Note_off_c, 0, 52, 64
1, 247582, Note_on_c, 0, 69, 89
1, 247591, Note_off_c, 0, 45, 64
1, 247594, Note_off_c, 0, 64, 64
1, 247607, Note_off_c, 0, 69, 64
1, 247670, Note_off_c, 0, 60, 64
1, 247678, Note_on_c, 0, 40, 70
1, 247678, Note_on_c, 0, 67, 83
1, 247762, Note_off_c, 0, 67, 64
1, 247774, Note_on_c, 0, 47, 65
1, 247821, Note_on_c, 0, 52, 68
1, 247870, Note_on_c, 0, 71, 100
1, 247946, Note_off_c, 0, 40, 64
1, 247955, Note_off_c, 0, 47, 64
1, 247968, Note_on_c, 0, 67, 76
1, 247968, Note_off_c, 0, 71, 64
1, 247984, Note_off_c, 0, 52, 64
1, 248050, Note_off_c, 0, 67, 64
1, 248064, Note_on_c, 0, 60, 86
1, 248065, Note_on_c, 0, 45, 74
1, 248161, Note_on_c, 0, 52, 63
1, 248208, Note_on_c, 0, 57, 71
1, 248258, Note_on_c, 0, 64, 85
1, 248345, Note_off_c, 0, 57, 64
1, 248347, Note_off_c, 0, 52, 64
1, 248353, Note_on_c, 0, 69, 92
1, 248354, Note_off_c, 0, 64, 64
1, 248356, Note_off_c, 0, 45, 64
1, 248373, Note_off_c, 0, 69, 64
1, 248401, Note_on_c, 0, 47, 63
1, 248436, Note_off_c, 0, 47, 64
1, 248447, Note_on_c, 0, 40, 75
1, 248449, Note_on_c, 0, 67, 86
1, 248458, Note_off_c, 0, 60, 64
1, 248544, Note_on_c, 0, 47, 58
1, 248590, Note_off_c, 0, 67, 64
1, 248591, Note_on_c, 0, 62, 87
1, 248681, Note_off_c, 0, 62, 64
1, 248688, Note_on_c, 0, 64, 85
1, 248737, Note_on_c, 0, 43, 75
1, 248739, Note_off_c, 0, 40, 64
1, 248761, Note_off_c, 0, 43, 64
1, 248774, Note_off_c, 0, 64, 64
1, 248777, Note_off_c, 0, 47, 64
1, 248780, Note_on_c, 0, 62, 72
1, 248828, Note_off_c, 0, 62, 64
1, 248832, Note_on_c, 0, 60, 76
1, 248834, Note_on_c, 0, 45, 64
1, 248834, Note_on_c, 0, 64, 80
1, 248835, Note_on_c, 0, 52, 67
1, 249109, Note_off_c, 0, 52, 64
1, 249114, Note_off_c, 0, 60, 64
1, 249116, Note_off_c, 0, 45, 64
1, 249123, Note_off_c, 0, 64, 64
1, 249212, Note_on_c, 0, 67, 71
1, 249213, Note_on_c, 0, 47, 58
1, 249214, Note_on_c, 0, 62, 64
1, 249216, Note_on_c, 0, 40, 57
1, 249216, Note_on_c, 0, 59, 60
1, 249479, Note_off_c, 0, 40, 64
1, 249491, Note_off_c, 0, 47, 64
1, 249501, Note_off_c, 0, 67, 64
1, 249504, Note_off_c, 0, 59, 64
1, 249519, Note_off_c, 0, 62, 64
1, 249597, Note_on_c, 0, 60, 62
1, 249597, Note_on_c, 0, 67, 66
1, 249599, Note_on_c, 0, 64, 70
1, 249600, Note_on_c, 0, 52, 63
1, 249601, Note_on_c, 0, 45, 59
1, 249844, Note_off_c, 0, 67, 64
1, 249852, Note_off_c, 0, 60, 64
1, 249852, Note_off_c, 0, 64, 64
1, 249853, Note_off_c, 0, 52, 64
1, 249865, Note_off_c, 0, 45, 64
1, 249977, Note_on_c, 0, 62, 70
1, 249979, Note_on_c, 0, 71, 73
1, 249980, Note_on_c, 0, 59, 65
1, 249980, Note_on_c, 0, 67, 68
1, 249981, Note_on_c, 0, 40, 53
1, 249982, Note_on_c, 0, 47, 59
1, 250302, Note_off_c, 0, 40, 64
1, 250302, Note_off_c, 0, 59, 64
1, 250304, Note_off_c, 0, 62, 64
1, 250312, Note_off_c, 0, 47, 64
1, 250313, Note_off_c, 0, 67, 64
1, 250327, Note_off_c, 0, 71, 64
1, 250368, Note_on_c, 0, 62, 87
1, 250371, Note_on_c, 0, 57, 87
1, 250372, Note_on_c, 0, 53, 84
1, 250373, Note_on_c, 0, 38, 76
1, 250468, Note_on_c, 0, 45, 64
1, 250539, Note_off_c, 0, 62, 64
1, 250548, Note_off_c, 0, 57, 64
1, 250561, Note_on_c, 0, 50, 70
1, 250565, Note_off_c, 0, 53, 64
1, 250569, Note_off_c, 0, 38, 64
1, 250574, Note_off_c, 0, 45, 64
1, 250578, Note_off_c, 0, 50, 64
1, 250654, Note_on_c, 0, 55, 82
1, 250655, Note_on_c, 0, 52, 79
1, 250655, Note_on_c, 0, 60, 80
1, 250658, Note_on_c, 0, 33, 78
1, 250658, Note_on_c, 0, 48, 56
1, 250870, Note_off_c, 0, 60, 64
1, 250871, Note_off_c, 0, 48, 64
1, 250872, Note_off_c, 0, 52, 64
1, 250880, Note_off_c, 0, 55, 64
1, 250939, Note_on_c, 0, 48, 84
1, 250940, Note_on_c, 0, 55, 78
1, 250941, Note_on_c, 0, 52, 78
1, 250942, Note_on_c, 0, 60, 81
1, 250960, Note_off_c, 0, 33, 64
1, 251002, Note_off_c, 0, 48, 64
1, 251011, Note_off_c, 0, 52, 64
1, 251018, Note_off_c, 0, 55, 64
1, 251027, Note_off_c, 0, 60, 64
1, 251132, Note_on_c, 0, 62, 90
1, 251133, Note_on_c, 0, 38, 64
1, 251134, Note_on_c, 0, 53, 90
1, 251135, Note_on_c, 0, 57, 89
1, 251137, Note_on_c, 0, 45, 83
1, 251286, Note_off_c, 0, 62, 64
1, 251288, Note_off_c, 0, 57, 64
1, 251296, Note_off_c, 0, 45, 64
1, 251305, Note_off_c, 0, 38, 64
1, 251305, Note_off_c, 0, 53, 64
1, 251421, Note_on_c, 0, 60, 88
1, 251422, Note_on_c, 0, 48, 84
1, 251422, Note_on_c, 0, 52, 81
1, 251424, Note_on_c, 0, 33, 70
1, 251426, Note_on_c, 0, 40, 76
1, 251712, Note_on_c, 0, 57, 75
1, 251877, Note_off_c, 0, 48, 64
1, 251888, Note_off_c, 0, 33, 64
1, 251888, Note_off_c, 0, 52, 64
1, 251894, Note_off_c, 0, 57, 64
1, 251897, Note_off_c, 0, 40, 64
1, 251900, Note_off_c, 0, 60, 64
1, 251904, Note_on_c, 0, 60, 70
1, 251906, Note_on_c, 0, 55, 80
1, 251907, Note_on_c, 0, 57, 80
1, 251908, Note_on_c, 0, 48, 72
1, 251908, Note_on_c, 0, 64, 81
1, 251910, Note_on_c, 0, 33, 60
1, 251910, Note_on_c, 0, 40, 58
1, 251985, Note_off_c, 0, 64, 64
1, 251998, Note_on_c, 0, 62, 89
1, 252000, Note_off_c, 0, 60, 64
1, 252001, Note_off_c, 0, 57, 64
1, 252046, Note_on_c, 0, 60, 86
1, 252053, Note_off_c, 0, 62, 64
1, 252094, Note_on_c, 0, 59, 106
1, 252117, Note_off_c, 0, 60, 64
1, 252170, Note_off_c, 0, 48, 64
1, 252208, Note_off_c, 0, 33, 64
1, 252210, Note_off_c, 0, 40, 64
1, 252219, Note_off_c, 0, 59, 64
1, 252243, Note_off_c, 0, 55, 64
1, 252287, Note_on_c, 0, 55, 78
1, 252289, Note_on_c, 0, 31, 64
1, 252289, Note_on_c, 0, 52, 76
1, 252441, Note_off_c, 0, 55, 64
1, 252478, Note_on_c, 0, 59, 104
1, 252570, Note_off_c, 0, 31, 64
1, 252573, Note_on_c, 0, 60, 96
1, 252574, Note_off_c, 0, 59, 64
1, 252622, Note_on_c, 0, 57, 96
1, 252622, Note_off_c, 0, 60, 64
1, 252671, Note_on_c, 0, 26, 62
1, 252770, Note_off_c, 0, 52, 64
1, 252774, Note_off_c, 0, 57, 64
1, 252816, Note_on_c, 0, 33, 29
1, 252861, Note_on_c, 0, 57, 81
1, 252862, Note_on_c, 0, 53, 76
1, 252863, Note_on_c, 0, 41, 61
1, 252863, Note_on_c, 0, 50, 79
1, 252864, Note_on_c, 0, 62, 82
1, 252953, Note_off_c, 0, 33, 64
1, 252957, Note_off_c, 0, 41, 64
1, 252965, Note_off_c, 0, 26, 64
1, 252968, Note_off_c, 0, 62, 64
1, 252973, Note_off_c, 0, 50, 64
1, 252978, Note_off_c, 0, 57, 64
1, 252981, Note_off_c, 0, 53, 64
1, 253054, Note_on_c, 0, 56, 79
1, 253054, Note_on_c, 0, 59, 81
1, 253056, Note_on_c, 0, 28, 64
1, 253056, Note_on_c, 0, 50, 79
1, 253131, Note_off_c, 0, 50, 64
1, 253133, Note_off_c, 0, 56, 64
1, 253134, Note_off_c, 0, 59, 64
1, 253251, Note_on_c, 0, 60, 75
1, 253251, Note_on_c, 0, 64, 86
1, 253254, Note_on_c, 0, 56, 87
1, 253296, Note_off_c, 0, 28, 64
1, 253378, Note_off_c, 0, 56, 64
1, 253387, Note_off_c, 0, 60, 64
1, 253395, Note_off_c, 0, 64, 64
1, 253441, Note_on_c, 0, 48, 74
1, 253442, Note_on_c, 0, 52, 76
1, 253444, Note_on_c, 0, 33, 66
1, 253521, Note_off_c, 0, 48, 64
1, 253530, Note_off_c, 0, 33, 64
1, 253534, Note_off_c, 0, 52, 64
1, 253538, Note_on_c, 0, 40, 66
1, 253586, Note_on_c, 0, 48, 76
1, 253634, Note_on_c, 0, 57, 98
1, 253666, Note_off_c, 0, 40, 64
1, 253681, Note_on_c, 0, 64, 106
1, 253696, Note_off_c, 0, 57, 64
1, 253699, Note_off_c, 0, 48, 64
1, 253759, Note_off_c, 0, 64, 64
1, 253777, Note_on_c, 0, 62, 74
1, 253822, Note_on_c, 0, 55, 83
1, 253824, Note_on_c, 0, 43, 49
1, 253824, Note_on_c, 0, 50, 62
1, 253825, Note_on_c, 0, 59, 79
1, 253913, Note_off_c, 0, 59, 64
1, 253921, Note_on_c, 0, 47, 64
1, 253927, Note_off_c, 0, 55, 64
1, 253932, Note_off_c, 0, 50, 64
1, 254016, Note_on_c, 0, 59, 87
1, 254018, Note_on_c, 0, 52, 70
1, 254018, Note_on_c, 0, 55, 86
1, 254046, Note_off_c, 0, 47, 64
1, 254074, Note_off_c, 0, 43, 64
1, 254086, Note_off_c, 0, 52, 64
1, 254088, Note_off_c, 0, 62, 64
1, 254103, Note_off_c, 0, 55, 64
1, 254104, Note_off_c, 0, 59, 64
1, 254108, Note_on_c, 0, 45, 54
1, 254114, Note_on_c, 0, 57, 92
1, 254134, Note_off_c, 0, 57, 64
1, 254156, Note_off_c, 0, 45, 64
1, 254205, Note_on_c, 0, 53, 86
1, 254206, Note_on_c, 0, 48, 71
1, 254207, Note_on_c, 0, 64, 80
1, 254208, Note_on_c, 0, 38, 68
1, 254208, Note_on_c, 0, 60, 71
1, 254225, Note_off_c, 0, 53, 64
1, 254229, Note_off_c, 0, 64, 64
1, 254235, Note_off_c, 0, 48, 64
1, 254236, Note_off_c, 0, 60, 64
1, 254303, Note_on_c, 0, 45, 64
1, 254399, Note_off_c, 0, 38, 64
1, 254401, Note_off_c, 0, 45, 64
1, 254401, Note_on_c, 0, 50, 65
1, 254401, Note_on_c, 0, 53, 82
1, 254402, Note_on_c, 0, 60, 74
1, 254402, Note_on_c, 0, 67, 78
1, 254479, Note_off_c, 0, 53, 64
1, 254492, Note_off_c, 0, 50, 64
1, 254492, Note_off_c, 0, 60, 64
1, 254496, Note_on_c, 0, 52, 51
1, 254496, Note_on_c, 0, 62, 71
1, 254497, Note_on_c, 0, 40, 47
1, 254498, Note_on_c, 0, 47, 53
1, 254498, Note_on_c, 0, 56, 64
1, 254500, Note_on_c, 0, 63, 81
1, 254517, Note_on_c, 0, 64, 83
1, 254521, Note_off_c, 0, 63, 64
1, 254568, Note_off_c, 0, 56, 64
1, 254573, Note_off_c, 0, 62, 64
1, 254688, Note_on_c, 0, 62, 78
1, 254736, Note_off_c, 0, 62, 64
1, 254740, Note_on_c, 0, 60, 78
1, 254758, Note_off_c, 0, 40, 64
1, 254764, Note_off_c, 0, 47, 64
1, 254777, Note_on_c, 0, 47, 53
1, 254784, Note_on_c, 0, 43, 64
1, 254784, Note_off_c, 0, 52, 64
1, 254788, Note_on_c, 0, 59, 64
1, 254788, Note_off_c, 0, 60, 64
1, 254832, Note_off_c, 0, 64, 64
1, 254849, Note_off_c, 0, 67, 64
1, 254878, Note_on_c, 0, 60, 74
1, 254884, Note_off_c, 0, 59, 64
1, 254969, Note_off_c, 0, 47, 64
1, 254976, Note_off_c, 0, 43, 64
1, 254976, Note_off_c, 0, 60, 64
1, 254977, Note_on_c, 0, 52, 50
1, 254978, Note_on_c, 0, 48, 48
1, 254979, Note_on_c, 0, 45, 48
1, 254980, Note_on_c, 0, 57, 80
1, 255024, Note_off_c, 0, 57, 64
1, 255168, Note_on_c, 0, 62, 52
1, 255177, Note_on_c, 0, 64, 98
1, 255182, Note_off_c, 0, 62, 64
1, 255245, Note_off_c, 0, 48, 64
1, 255245, Note_off_c, 0, 52, 64
1, 255252, Note_off_c, 0, 45, 64
1, 255264, Note_on_c, 0, 62, 90
1, 255273, Note_off_c, 0, 64, 64
1, 255306, Note_off_c, 0, 62, 64
1, 255312, Note_on_c, 0, 60, 79
1, 255359, Note_off_c, 0, 60, 64
1, 255360, Note_on_c, 0, 52, 63
1, 255361, Note_on_c, 0, 43, 55
1, 255362, Note_on_c, 0, 59, 86
1, 255363, Note_on_c, 0, 47, 60
1, 255435, Note_off_c, 0, 59, 64
1, 255507, Note_on_c, 0, 55, 96
1, 255616, Note_off_c, 0, 52, 64
1, 255624, Note_off_c, 0, 47, 64
1, 255629, Note_off_c, 0, 43, 64
1, 255641, Note_off_c, 0, 55, 64
1, 255648, Note_on_c, 0, 57, 100
1, 255695, Note_off_c, 0, 57, 64
1, 255696, Note_on_c, 0, 59, 84
1, 255701, Note_on_c, 0, 45, 41
1, 255731, Note_off_c, 0, 59, 64
1, 255743, Note_on_c, 0, 48, 74
1, 255744, Note_on_c, 0, 38, 73
1, 255744, Note_on_c, 0, 53, 76
1, 255801, Note_off_c, 0, 45, 64
1, 255812, Note_off_c, 0, 48, 64
1, 255817, Note_off_c, 0, 53, 64
1, 255884, Note_on_c, 0, 45, 62
1, 255934, Note_on_c, 0, 50, 74
1, 255935, Note_on_c, 0, 53, 95
1, 255936, Note_on_c, 0, 60, 85
1, 255977, Note_off_c, 0, 53, 64
1, 255985, Note_off_c, 0, 38, 64
1, 255990, Note_off_c, 0, 45, 64
1, 256008, Note_off_c, 0, 50, 64
1, 256009, Note_off_c, 0, 60, 64
1, 256035, Note_on_c, 0, 57, 94
1, 256069, Note_off_c, 0, 57, 64
1, 256084, Note_on_c, 0, 47, 63
1, 256101, Note_off_c, 0, 47, 64
1, 256128, Note_on_c, 0, 40, 72
1, 256130, Note_on_c, 0, 50, 87
1, 256132, Note_on_c, 0, 56, 88
1, 256152, Note_off_c, 0, 50, 64
1, 256160, Note_off_c, 0, 56, 64
1, 256222, Note_on_c, 0, 47, 60
1, 256322, Note_on_c, 0, 50, 81
1, 256377, Note_off_c, 0, 40, 64
1, 256381, Note_off_c, 0, 47, 64
1, 256408, Note_off_c, 0, 50, 64
1, 256418, Note_on_c, 0, 60, 83
1, 256454, Note_off_c, 0, 60, 64
1, 256512, Note_on_c, 0, 60, 55
1, 256513, Note_on_c, 0, 45, 36
1, 256514, Note_on_c, 0, 52, 46
1, 256514, Note_on_c, 0, 64, 59
1, 257163, Note_off_c, 0, 45, 64
1, 257168, Note_off_c, 0, 52, 64
1, 257182, Note_off_c, 0, 60, 64
1, 257202, Note_off_c, 0, 64, 64
1, 257285, Note_on_c, 0, 59, 55
1, 257286, Note_on_c, 0, 64, 59
1, 257291, Note_on_c, 0, 48, 42
1, 257292, Note_on_c, 0, 55, 49
1, 257934, Note_off_c, 0, 48, 64
1, 257956, Note_off_c, 0, 59, 64
1, 257961, Note_off_c, 0, 55, 64
1, 257971, Note_off_c, 0, 64, 64
1, 258049, Note_on_c, 0, 60, 83
1, 258050, Note_on_c, 0, 64, 87
1, 258051, Note_on_c, 0, 57, 83
1, 258052, Note_on_c, 0, 48, 75
1, 258054, Note_on_c, 0, 45, 70
1, 258054, Note_on_c, 0, 52, 68
1, 258344, Note_off_c, 0, 57, 64
1, 258345, Note_off_c, 0, 48, 64
1, 258345, Note_off_c, 0, 64, 64
1, 258347, Note_off_c, 0, 45, 64
1, 258352, Note_off_c, 0, 60, 64
1, 258357, Note_off_c, 0, 52, 64
1, 258430, Note_on_c, 0, 55, 83
1, 258431, Note_on_c, 0, 43, 77
1, 258431, Note_on_c, 0, 64, 86
1, 258432, Note_on_c, 0, 59, 85
1, 258433, Note_on_c, 0, 47, 80
1, 258434, Note_on_c, 0, 52, 71
1, 258689, Note_off_c, 0, 52, 64
1, 258692, Note_off_c, 0, 47, 64
1, 258699, Note_off_c, 0, 43, 64
1, 258700, Note_off_c, 0, 59, 64
1, 258701, Note_off_c, 0, 55, 64
1, 258709, Note_off_c, 0, 64, 64
1, 258810, Note_on_c, 0, 57, 81
1, 258811, Note_on_c, 0, 53, 76
1, 258812, Note_on_c, 0, 38, 66
1, 258812, Note_on_c, 0, 62, 79
1, 258813, Note_on_c, 0, 45, 72
1, 258814, Note_on_c, 0, 48, 65
1, 259275, Note_off_c, 0, 38, 64
1, 259280, Note_off_c, 0, 45, 64
1, 259282, Note_off_c, 0, 53, 64
1, 259291, Note_off_c, 0, 48, 64
1, 259297, Note_off_c, 0, 57, 64
1, 259297, Note_on_c, 0, 60, 81
1, 259298, Note_on_c, 0, 56, 85
1, 259299, Note_off_c, 0, 62, 64
1, 259299, Note_on_c, 0, 64, 84
1, 259300, Note_on_c, 0, 44, 77
1, 259300, Note_on_c, 0, 50, 79
1, 259301, Note_on_c, 0, 40, 72
1, 259438, Note_off_c, 0, 40, 64
1, 259441, Note_off_c, 0, 44, 64
1, 259445, Note_off_c, 0, 64, 64
1, 259446, Note_off_c, 0, 56, 64
1, 259452, Note_off_c, 0, 60, 64
1, 259459, Note_off_c, 0, 50, 64
1, 259585, Note_on_c, 0, 52, 50
1, 259586, Note_on_c, 0, 40, 58
1, 259586, Note_on_c, 0, 48, 58
1, 259593, Note_on_c, 0, 33, 49
1, 259676, Note_off_c, 0, 48, 64
1, 259690, Note_off_c, 0, 52, 64
1, 259776, Note_on_c, 0, 60, 77
1, 259827, Note_on_c, 0, 64, 72
1, 259873, Note_on_c, 0, 69, 88
1, 259963, Note_off_c, 0, 69, 64
1, 259969, Note_on_c, 0, 67, 77
1, 259971, Note_off_c, 0, 64, 64
1, 260065, Note_on_c, 0, 64, 69
1, 260097, Note_off_c, 0, 67, 64
1, 260164, Note_off_c, 0, 64, 64
1, 260165, Note_on_c, 0, 62, 75
1, 260184, Note_off_c, 0, 60, 64
1, 260230, Note_off_c, 0, 33, 64
1, 260248, Note_off_c, 0, 40, 64
1, 260255, Note_on_c, 0, 64, 82
1, 260346, Note_off_c, 0, 62, 64
1, 260351, Note_on_c, 0, 59, 63
1, 260353, Note_on_c, 0, 43, 56
1, 260355, Note_on_c, 0, 36, 46
1, 260519, Note_off_c, 0, 59, 64
1, 260546, Note_on_c, 0, 59, 79
1, 260548, Note_off_c, 0, 64, 64
1, 260593, Note_on_c, 0, 64, 79
1, 260639, Note_on_c, 0, 71, 106
1, 260720, Note_off_c, 0, 71, 64
1, 260738, Note_on_c, 0, 69, 82
1, 260816, Note_off_c, 0, 64, 64
1, 260833, Note_on_c, 0, 67, 71
1, 260913, Note_off_c, 0, 69, 64
1, 260929, Note_on_c, 0, 64, 79
1, 260930, Note_off_c, 0, 67, 64
1, 260995, Note_off_c, 0, 64, 64
1, 261013, Note_off_c, 0, 43, 64
1, 261023, Note_on_c, 0, 62, 84
1, 261026, Note_off_c, 0, 36, 64
1, 261066, Note_off_c, 0, 59, 64
1, 261109, Note_off_c, 0, 62, 64
1, 261121, Note_on_c, 0, 33, 60
1, 261124, Note_on_c, 0, 48, 44
1, 261124, Note_on_c, 0, 52, 71
1, 261125, Note_on_c, 0, 57, 67
1, 261366, Note_off_c, 0, 33, 64
1, 261373, Note_off_c, 0, 48, 64
1, 261378, Note_off_c, 0, 52, 64
1, 261383, Note_off_c, 0, 57, 64
1, 261505, Note_on_c, 0, 40, 62
1, 261506, Note_on_c, 0, 56, 62
1, 261506, Note_on_c, 0, 60, 65
1, 261507, Note_on_c, 0, 53, 47
1, 261774, Note_off_c, 0, 60, 64
1, 261778, Note_off_c, 0, 56, 64
1, 261785, Note_off_c, 0, 53, 64
1, 261794, Note_off_c, 0, 40, 64
1, 261888, Note_on_c, 0, 33, 60
1, 261889, Note_on_c, 0, 48, 59
1, 261889, Note_on_c, 0, 52, 72
1, 261890, Note_on_c, 0, 57, 68
1, 262134, Note_off_c, 0, 33, 64
1, 262139, Note_off_c, 0, 52, 64
1, 262151, Note_off_c, 0, 57, 64
1, 262174, Note_off_c, 0, 48, 64
1, 262269, Note_on_c, 0, 53, 73
1, 262269, Note_on_c, 0, 57, 71
1, 262272, Note_on_c, 0, 38, 64
1, 262272, Note_on_c, 0, 48, 69
1, 262394, Note_off_c, 0, 48, 64
1, 262398, Note_off_c, 0, 57, 64
1, 262412, Note_off_c, 0, 53, 64
1, 262439, Note_off_c, 0, 38, 64
1, 262467, Note_on_c, 0, 50, 68
1, 262468, Note_on_c, 0, 56, 73
1, 262469, Note_on_c, 0, 59, 71
1, 262470, Note_on_c, 0, 40, 62
1, 262575, Note_off_c, 0, 40, 64
1, 262580, Note_off_c, 0, 50, 64
1, 262581, Note_off_c, 0, 56, 64
1, 262585, Note_off_c, 0, 59, 64
1, 262657, Note_on_c, 0, 59, 60
1, 262658, Note_on_c, 0, 45, 58
1, 262660, Note_on_c, 0, 52, 58
1, 262660, Note_on_c, 0, 69, 86
1, 262661, Note_on_c, 0, 60, 43
1, 262756, Note_on_c, 0, 67, 82
1, 262758, Note_off_c, 0, 69, 64
1, 262844, Note_off_c, 0, 67, 64
1, 262848, Note_on_c, 0, 72, 86
1, 262896, Note_on_c, 0, 76, 79
1, 262945, Note_on_c, 0, 81, 107
1, 262949, Note_off_c, 0, 76, 64
1, 263013, Note_off_c, 0, 81, 64
1, 263042, Note_on_c, 0, 79, 96
1, 263128, Note_off_c, 0, 72, 64
1, 263137, Note_on_c, 0, 76, 98
1, 263146, Note_off_c, 0, 79, 64
1, 263171, Note_off_c, 0, 76, 64
1, 263231, Note_on_c, 0, 74, 106
1, 263288, Note_off_c, 0, 45, 64
1, 263293, Note_off_c, 0, 52, 64
1, 263313, Note_off_c, 0, 60, 64
1, 263317, Note_off_c, 0, 59, 64
1, 263328, Note_on_c, 0, 76, 92
1, 263336, Note_off_c, 0, 74, 64
1, 263353, Note_off_c, 0, 76, 64
1, 263380, Note_on_c, 0, 74, 69
1, 263390, Note_off_c, 0, 74, 64
1, 263390, Note_on_c, 0, 76, 82
1, 263405, Note_on_c, 0, 74, 85
1, 263416, Note_off_c, 0, 76, 64
1, 263425, Note_on_c, 0, 48, 55
1, 263426, Note_on_c, 0, 55, 56
1, 263426, Note_off_c, 0, 74, 64
1, 263428, Note_on_c, 0, 64, 46
1, 263431, Note_on_c, 0, 71, 88
1, 263559, Note_off_c, 0, 71, 64
1, 263615, Note_on_c, 0, 67, 108
1, 263638, Note_off_c, 0, 64, 64
1, 263662, Note_off_c, 0, 67, 64
1, 263663, Note_on_c, 0, 69, 94
1, 263706, Note_off_c, 0, 69, 64
1, 263711, Note_on_c, 0, 64, 77
1, 263757, Note_off_c, 0, 64, 64
1, 263809, Note_on_c, 0, 59, 44
1, 263811, Note_on_c, 0, 62, 65
1, 263902, Note_off_c, 0, 62, 64
1, 263905, Note_on_c, 0, 64, 64
1, 263999, Note_on_c, 0, 62, 79
1, 264001, Note_off_c, 0, 64, 64
1, 264097, Note_on_c, 0, 60, 79
1, 264097, Note_off_c, 0, 62, 64
1, 264169, Note_off_c, 0, 55, 64
1, 264169, Note_off_c, 0, 59, 64
1, 264174, Note_off_c, 0, 48, 64
1, 264188, Note_off_c, 0, 60, 64
1, 264192, Note_on_c, 0, 45, 62
1, 264192, Note_on_c, 0, 72, 56
1, 264194, Note_on_c, 0, 76, 70
1, 264195, Note_on_c, 0, 52, 65
1, 264196, Note_on_c, 0, 67, 69
1, 264197, Note_on_c, 0, 60, 66
1, 264215, Note_off_c, 0, 45, 64
1, 264218, Note_off_c, 0, 52, 64
1, 264226, Note_off_c, 0, 60, 64
1, 264237, Note_off_c, 0, 72, 64
1, 264237, Note_off_c, 0, 76, 64
1, 264253, Note_off_c, 0, 67, 64
1, 264333, Note_on_c, 0, 57, 64
1, 264336, Note_on_c, 0, 60, 61
1, 264336, Note_on_c, 0, 69, 72
1, 264337, Note_on_c, 0, 67, 67
1, 264338, Note_on_c, 0, 64, 62
1, 264476, Note_on_c, 0, 72, 96
1, 264516, Note_off_c, 0, 72, 64
1, 264576, Note_on_c, 0, 71, 118
1, 264624, Note_off_c, 0, 69, 64
1, 264632, Note_off_c, 0, 67, 64
1, 264644, Note_off_c, 0, 64, 64
1, 264670, Note_off_c, 0, 71, 64
1, 264672, Note_on_c, 0, 64, 75
1, 264694, Note_off_c, 0, 64, 64
1, 264714, Note_off_c, 0, 60, 64
1, 264720, Note_off_c, 0, 57, 64
1, 264768, Note_on_c, 0, 62, 106
1, 264842, Note_off_c, 0, 62, 64
1, 264864, Note_on_c, 0, 64, 85
1, 264912, Note_on_c, 0, 67, 86
1, 264915, Note_on_c, 0, 59, 72
1, 264960, Note_on_c, 0, 48, 60
1, 265008, Note_off_c, 0, 59, 64
1, 265037, Note_off_c, 0, 67, 64
1, 265042, Note_off_c, 0, 64, 64
1, 265054, Note_on_c, 0, 55, 60
1, 265100, Note_on_c, 0, 64, 59
1, 265151, Note_on_c, 0, 76, 101
1, 265152, Note_on_c, 0, 83, 107
1, 265210, Note_off_c, 0, 48, 64
1, 265220, Note_off_c, 0, 55, 64
1, 265240, Note_off_c, 0, 83, 64
1, 265245, Note_on_c, 0, 81, 85
1, 265257, Note_off_c, 0, 76, 64
1, 265258, Note_off_c, 0, 64, 64
1, 265283, Note_off_c, 0, 81, 64
1, 265289, Note_on_c, 0, 59, 54
1, 265321, Note_off_c, 0, 59, 64
1, 265339, Note_on_c, 0, 62, 63
1, 265343, Note_on_c, 0, 84, 81
1, 265344, Note_on_c, 0, 52, 60
1, 265344, Note_on_c, 0, 80, 76
1, 265345, Note_on_c, 0, 74, 78
1, 265459, Note_off_c, 0, 84, 64
1, 265475, Note_off_c, 0, 80, 64
1, 265488, Note_on_c, 0, 83, 100
1, 265576, Note_off_c, 0, 62, 64
1, 265594, Note_off_c, 0, 52, 64
1, 265658, Note_off_c, 0, 74, 64
1, 265678, Note_on_c, 0, 52, 64
1, 265719, Note_off_c, 0, 83, 64
1, 265724, Note_on_c, 0, 45, 53
1, 265728, Note_on_c, 0, 33, 83
1, 265728, Note_off_c, 0, 45, 64
1, 265728, Note_off_c, 0, 52, 64
1, 265728, Note_on_c, 0, 57, 82
1, 265728, Note_on_c, 0, 60, 83
1, 265728, Note_on_c, 0, 64, 82
1, 265739, Note_off_c, 0, 57, 64
1, 265742, Note_off_c, 0, 60, 64
1, 265744, Note_off_c, 0, 33, 64
1, 265747, Note_off_c, 0, 64, 64
1, 265774, Note_on_c, 0, 64, 71
1, 265775, Note_on_c, 0, 57, 68
1, 265775, Note_on_c, 0, 60, 63
1, 265785, Note_off_c, 0, 57, 64
1, 265785, Note_off_c, 0, 60, 64
1, 265788, Note_off_c, 0, 64, 64
1, 265823, Note_on_c, 0, 57, 77
1, 265823, Note_on_c, 0, 60, 77
1, 265824, Note_on_c, 0, 64, 74
1, 265833, Note_off_c, 0, 57, 64
1, 265834, Note_off_c, 0, 60, 64
1, 265834, Note_off_c, 0, 64, 64
1, 265872, Note_on_c, 0, 57, 72
1, 265872, Note_on_c, 0, 60, 66
1, 265872, Note_on_c, 0, 64, 70
1, 265881, Note_off_c, 0, 57, 64
1, 265882, Note_off_c, 0, 60, 64
1, 265884, Note_off_c, 0, 64, 64
1, 265919, Note_on_c, 0, 64, 76
1, 265920, Note_on_c, 0, 57, 73
1, 265920, Note_on_c, 0, 60, 76
1, 265930, Note_off_c, 0, 57, 64
1, 265931, Note_off_c, 0, 60, 64
1, 265938, Note_off_c, 0, 64, 64
1, 265968, Note_on_c, 0, 57, 65
1, 265968, Note_on_c, 0, 60, 65
1, 265968, Note_on_c, 0, 64, 68
1, 265978, Note_off_c, 0, 57, 64
1, 265978, Note_off_c, 0, 60, 64
1, 265979, Note_off_c, 0, 64, 64
1, 266015, Note_on_c, 0, 64, 74
1, 266016, Note_on_c, 0, 33, 72
1, 266016, Note_on_c, 0, 57, 82
1, 266016, Note_on_c, 0, 60, 79
1, 266028, Note_off_c, 0, 60, 64
1, 266029, Note_off_c, 0, 57, 64
1, 266032, Note_off_c, 0, 64, 64
1, 266039, Note_on_c, 0, 36, 72
1, 266040, Note_off_c, 0, 33, 64
1, 266064, Note_on_c, 0, 38, 82
1, 266065, Note_on_c, 0, 57, 74
1, 266065, Note_on_c, 0, 64, 76
1, 266066, Note_on_c, 0, 60, 68
1, 266070, Note_off_c, 0, 36, 64
1, 266076, Note_off_c, 0, 60, 64
1, 266078, Note_off_c, 0, 64, 64
1, 266079, Note_off_c, 0, 57, 64
1, 266088, Note_on_c, 0, 40, 77
1, 266090, Note_off_c, 0, 38, 64
1, 266112, Note_on_c, 0, 65, 75
1, 266113, Note_on_c, 0, 41, 94
1, 266113, Note_on_c, 0, 57, 75
1, 266113, Note_on_c, 0, 60, 71
1, 266114, Note_off_c, 0, 40, 64
1, 266114, Note_on_c, 0, 64, 76
1, 266122, Note_off_c, 0, 57, 64
1, 266124, Note_off_c, 0, 60, 64
1, 266127, Note_off_c, 0, 41, 64
1, 266128, Note_off_c, 0, 64, 64
1, 266129, Note_off_c, 0, 65, 64
1, 266161, Note_on_c, 0, 57, 78
1, 266161, Note_on_c, 0, 60, 67
1, 266161, Note_on_c, 0, 64, 72
1, 266161, Note_on_c, 0, 65, 63
1, 266170, Note_off_c, 0, 57, 64
1, 266171, Note_off_c, 0, 64, 64
1, 266171, Note_off_c, 0, 65, 64
1, 266172, Note_off_c, 0, 60, 64
1, 266208, Note_on_c, 0, 57, 82
1, 266208, Note_on_c, 0, 60, 74
1, 266208, Note_on_c, 0, 64, 72
1, 266209, Note_on_c, 0, 65, 71
1, 266218, Note_off_c, 0, 65, 64
1, 266219, Note_off_c, 0, 57, 64
1, 266220, Note_off_c, 0, 60, 64
1, 266221, Note_off_c, 0, 64, 64
1, 266256, Note_on_c, 0, 57, 84
1, 266256, Note_on_c, 0, 60, 72
1, 266256, Note_on_c, 0, 64, 65
1, 266256, Note_on_c, 0, 65, 69
1, 266267, Note_off_c, 0, 65, 64
1, 266268, Note_off_c, 0, 57, 64
1, 266269, Note_off_c, 0, 60, 64
1, 266271, Note_off_c, 0, 64, 64
1, 266304, Note_on_c, 0, 57, 84
1, 266304, Note_on_c, 0, 60, 73
1, 266304, Note_on_c, 0, 64, 69
1, 266304, Note_on_c, 0, 65, 68
1, 266315, Note_off_c, 0, 57, 64
1, 266315, Note_off_c, 0, 65, 64
1, 266316, Note_off_c, 0, 60, 64
1, 266319, Note_off_c, 0, 64, 64
1, 266351, Note_on_c, 0, 57, 77
1, 266352, Note_on_c, 0, 60, 71
1, 266352, Note_on_c, 0, 64, 66
1, 266352, Note_on_c, 0, 65, 69
1, 266362, Note_off_c, 0, 65, 64
1, 266363, Note_off_c, 0, 60, 64
1, 266364, Note_off_c, 0, 57, 64
1, 266366, Note_off_c, 0, 64, 64
1, 266398, Note_on_c, 0, 57, 87
1, 266399, Note_on_c, 0, 60, 79
1, 266399, Note_on_c, 0, 65, 72
1, 266400, Note_on_c, 0, 64, 79
1, 266417, Note_off_c, 0, 57, 64
1, 266418, Note_off_c, 0, 65, 64
1, 266422, Note_off_c, 0, 60, 64
1, 266429, Note_off_c, 0, 64, 64
1, 266446, Note_on_c, 0, 31, 66
1, 266473, Note_on_c, 0, 33, 82
1, 266482, Note_off_c, 0, 31, 64
1, 266496, Note_on_c, 0, 56, 81
1, 266496, Note_on_c, 0, 62, 81
1, 266496, Note_on_c, 0, 64, 78
1, 266497, Note_on_c, 0, 28, 85
1, 266498, Note_off_c, 0, 33, 64
1, 266507, Note_off_c, 0, 56, 64
1, 266515, Note_off_c, 0, 28, 64
1, 266516, Note_off_c, 0, 62, 64
1, 266518, Note_off_c, 0, 64, 64
1, 266546, Note_on_c, 0, 56, 76
1, 266546, Note_on_c, 0, 62, 68
1, 266546, Note_on_c, 0, 64, 69
1, 266554, Note_off_c, 0, 56, 64
1, 266559, Note_off_c, 0, 64, 64
1, 266563, Note_off_c, 0, 62, 64
1, 266593, Note_on_c, 0, 56, 83
1, 266594, Note_on_c, 0, 62, 76
1, 266594, Note_on_c, 0, 64, 71
1, 266603, Note_off_c, 0, 56, 64
1, 266609, Note_off_c, 0, 64, 64
1, 266612, Note_off_c, 0, 62, 64
1, 266641, Note_on_c, 0, 56, 83
1, 266642, Note_on_c, 0, 62, 76
1, 266642, Note_on_c, 0, 64, 70
1, 266652, Note_off_c, 0, 56, 64
1, 266654, Note_off_c, 0, 64, 64
1, 266655, Note_off_c, 0, 62, 64
1, 266689, Note_on_c, 0, 56, 85
1, 266690, Note_on_c, 0, 62, 77
1, 266690, Note_on_c, 0, 64, 69
1, 266698, Note_off_c, 0, 56, 64
1, 266701, Note_off_c, 0, 64, 64
1, 266702, Note_off_c, 0, 62, 64
1, 266737, Note_on_c, 0, 56, 86
1, 266738, Note_on_c, 0, 62, 75
1, 266738, Note_on_c, 0, 64, 68
1, 266746, Note_off_c, 0, 56, 64
1, 266749, Note_off_c, 0, 64, 64
1, 266752, Note_off_c, 0, 62, 64
1, 266784, Note_on_c, 0, 56, 87
1, 266785, Note_on_c, 0, 62, 75
1, 266785, Note_on_c, 0, 64, 71
1, 266796, Note_off_c, 0, 62, 64
1, 266798, Note_off_c, 0, 56, 64
1, 266799, Note_off_c, 0, 64, 64
1, 266830, Note_on_c, 0, 31, 79
1, 266832, Note_on_c, 0, 56, 77
1, 266832, Note_on_c, 0, 62, 71
1, 266832, Note_on_c, 0, 64, 74
1, 266841, Note_off_c, 0, 56, 64
1, 266846, Note_off_c, 0, 62, 64
1, 266846, Note_off_c, 0, 64, 64
1, 266853, Note_on_c, 0, 32, 83
1, 266856, Note_off_c, 0, 31, 64
1, 266875, Note_off_c, 0, 32, 64
1, 266879, Note_on_c, 0, 33, 76
1, 266879, Note_on_c, 0, 64, 78
1, 266880, Note_on_c, 0, 57, 79
1, 266880, Note_on_c, 0, 60, 79
1, 266894, Note_off_c, 0, 57, 64
1, 266895, Note_off_c, 0, 33, 64
1, 266896, Note_off_c, 0, 60, 64
1, 266900, Note_off_c, 0, 64, 64
1, 266928, Note_on_c, 0, 60, 76
1, 266928, Note_on_c, 0, 64, 59
1, 266929, Note_on_c, 0, 57, 69
1, 266938, Note_off_c, 0, 57, 64
1, 266939, Note_off_c, 0, 60, 64
1, 266939, Note_off_c, 0, 64, 64
1, 266976, Note_on_c, 0, 57, 81
1, 266977, Note_on_c, 0, 60, 66
1, 266977, Note_on_c, 0, 62, 59
1, 266985, Note_off_c, 0, 57, 64
1, 266986, Note_off_c, 0, 62, 64
1, 266987, Note_off_c, 0, 60, 64
1, 267023, Note_on_c, 0, 33, 70
1, 267023, Note_on_c, 0, 55, 87
1, 267023, Note_on_c, 0, 60, 65
1, 267023, Note_on_c, 0, 64, 88
1, 267033, Note_off_c, 0, 33, 64
1, 267033, Note_off_c, 0, 55, 64
1, 267036, Note_off_c, 0, 60, 64
1, 267041, Note_off_c, 0, 64, 64
1, 267070, Note_on_c, 0, 55, 68
1, 267070, Note_on_c, 0, 57, 73
1, 267070, Note_on_c, 0, 60, 64
1, 267071, Note_on_c, 0, 64, 55
1, 267080, Note_off_c, 0, 55, 64
1, 267080, Note_off_c, 0, 57, 64
1, 267082, Note_off_c, 0, 60, 64
1, 267082, Note_off_c, 0, 64, 64
1, 267118, Note_on_c, 0, 40, 78
1, 267118, Note_on_c, 0, 57, 79
1, 267118, Note_on_c, 0, 60, 75
1, 267119, Note_on_c, 0, 55, 79
1, 267119, Note_on_c, 0, 64, 73
1, 267126, Note_off_c, 0, 40, 64
1, 267126, Note_off_c, 0, 55, 64
1, 267127, Note_off_c, 0, 57, 64
1, 267128, Note_off_c, 0, 64, 64
1, 267129, Note_off_c, 0, 60, 64
1, 267166, Note_on_c, 0, 55, 77
1, 267166, Note_on_c, 0, 57, 79
1, 267166, Note_on_c, 0, 60, 71
1, 267166, Note_on_c, 0, 64, 68
1, 267175, Note_off_c, 0, 55, 64
1, 267176, Note_off_c, 0, 57, 64
1, 267177, Note_off_c, 0, 64, 64
1, 267178, Note_off_c, 0, 60, 64
1, 267214, Note_on_c, 0, 57, 73
1, 267214, Note_on_c, 0, 60, 69
1, 267214, Note_on_c, 0, 64, 65
1, 267215, Note_on_c, 0, 55, 68
1, 267217, Note_on_c, 0, 40, 78
1, 267223, Note_off_c, 0, 55, 64
1, 267223, Note_off_c, 0, 57, 64
1, 267224, Note_off_c, 0, 64, 64
1, 267225, Note_off_c, 0, 60, 64
1, 267227, Note_off_c, 0, 40, 64
1, 267266, Note_on_c, 0, 52, 81
1, 267266, Note_on_c, 0, 55, 81
1, 267267, Note_on_c, 0, 48, 76
1, 267267, Note_on_c, 0, 57, 78
1, 267268, Note_on_c, 0, 45, 68
1, 267269, Note_on_c, 0, 33, 66
1, 267579, Note_off_c, 0, 55, 64
1, 267580, Note_off_c, 0, 57, 64
1, 267592, Note_off_c, 0, 52, 64
1, 267602, Note_off_c, 0, 33, 64
1, 267603, Note_off_c, 0, 45, 64
1, 267607, Note_off_c, 0, 48, 64
1, 267646, Note_on_c, 0, 53, 76
1, 267646, Note_on_c, 0, 57, 72
1, 267647, Note_on_c, 0, 48, 67
1, 267648, Note_on_c, 0, 41, 67
1, 267648, Note_on_c, 0, 52, 75
1, 267649, Note_on_c, 0, 33, 58
1, 267940, Note_off_c, 0, 48, 64
1, 267940, Note_off_c, 0, 52, 64
1, 267941, Note_off_c, 0, 53, 64
1, 267943, Note_off_c, 0, 41, 64
1, 267948, Note_off_c, 0, 57, 64
1, 267950, Note_off_c, 0, 33, 64
1, 268027, Note_on_c, 0, 62, 79
1, 268029, Note_on_c, 0, 57, 72
1, 268032, Note_on_c, 0, 28, 70
1, 268033, Note_on_c, 0, 40, 72
1, 268033, Note_on_c, 0, 53, 83
1, 268176, Note_off_c, 0, 57, 64
1, 268178, Note_off_c, 0, 53, 64
1, 268222, Note_on_c, 0, 52, 66
1, 268224, Note_on_c, 0, 60, 58
1, 268226, Note_on_c, 0, 56, 64
1, 268340, Note_off_c, 0, 28, 64
1, 268351, Note_off_c, 0, 62, 64
1, 268354, Note_off_c, 0, 60, 64
1, 268355, Note_off_c, 0, 56, 64
1, 268363, Note_off_c, 0, 40, 64
1, 268368, Note_on_c, 0, 50, 49
1, 268368, Note_off_c, 0, 52, 64
1, 268400, Note_off_c, 0, 50, 64
1, 268414, Note_on_c, 0, 52, 63
1, 268414, Note_on_c, 0, 55, 71
1, 268414, Note_on_c, 0, 57, 75
1, 268415, Note_on_c, 0, 33, 59
1, 268417, Note_on_c, 0, 48, 62
1, 268425, Note_on_c, 0, 59, 74
1, 268428, Note_off_c, 0, 57, 64
1, 268492, Note_on_c, 0, 57, 64
1, 268704, Note_off_c, 0, 48, 64
1, 268707, Note_off_c, 0, 52, 64
1, 268714, Note_off_c, 0, 55, 64
1, 268729, Note_off_c, 0, 59, 64
1, 268732, Note_off_c, 0, 57, 64
1, 268785, Note_off_c, 0, 33, 64
1, 268804, Note_on_c, 0, 50, 52
1, 268805, Note_on_c, 0, 65, 68
1, 268837, Note_off_c, 0, 65, 64
1, 268848, Note_on_c, 0, 57, 55
1, 268881, Note_off_c, 0, 50, 64
1, 268895, Note_on_c, 0, 53, 65
1, 268900, Note_on_c, 0, 62, 73
1, 268906, Note_off_c, 0, 57, 64
1, 268941, Note_off_c, 0, 62, 64
1, 268946, Note_on_c, 0, 65, 72
1, 268993, Note_on_c, 0, 64, 76
1, 268993, Note_off_c, 0, 65, 64
1, 268994, Note_on_c, 0, 48, 65
1, 268998, Note_off_c, 0, 53, 64
1, 269030, Note_off_c, 0, 64, 64
1, 269043, Note_on_c, 0, 57, 67
1, 269080, Note_off_c, 0, 48, 64
1, 269090, Note_on_c, 0, 52, 68
1, 269091, Note_off_c, 0, 57, 64
1, 269092, Note_on_c, 0, 60, 72
1, 269134, Note_off_c, 0, 60, 64
1, 269138, Note_on_c, 0, 64, 70
1, 269184, Note_off_c, 0, 52, 64
1, 269185, Note_on_c, 0, 47, 62
1, 269188, Note_on_c, 0, 62, 66
1, 269199, Note_off_c, 0, 64, 64
1, 269226, Note_off_c, 0, 62, 64
1, 269231, Note_on_c, 0, 55, 64
1, 269275, Note_off_c, 0, 55, 64
1, 269280, Note_off_c, 0, 47, 64
1, 269282, Note_on_c, 0, 59, 65
1, 269284, Note_on_c, 0, 50, 67
1, 269327, Note_on_c, 0, 62, 71
1, 269329, Note_off_c, 0, 59, 64
1, 269369, Note_off_c, 0, 50, 64
1, 269379, Note_on_c, 0, 60, 70
1, 269383, Note_on_c, 0, 45, 62
1, 269386, Note_off_c, 0, 62, 64
1, 269420, Note_off_c, 0, 60, 64
1, 269426, Note_on_c, 0, 55, 71
1, 269468, Note_off_c, 0, 55, 64
1, 269473, Note_off_c, 0, 45, 64
1, 269475, Note_on_c, 0, 59, 64
1, 269476, Note_on_c, 0, 48, 65
1, 269521, Note_off_c, 0, 59, 64
1, 269524, Note_on_c, 0, 60, 76
1, 269558, Note_off_c, 0, 60, 64
1, 269559, Note_off_c, 0, 48, 64
1, 269570, Note_on_c, 0, 59, 79
1, 269574, Note_on_c, 0, 44, 68
1, 269666, Note_on_c, 0, 47, 63
1, 269763, Note_on_c, 0, 52, 71
1, 269769, Note_off_c, 0, 59, 64
1, 269812, Note_on_c, 0, 62, 64
1, 269817, Note_off_c, 0, 52, 64
1, 269822, Note_off_c, 0, 62, 64
1, 269823, Note_on_c, 0, 64, 82
1, 269840, Note_on_c, 0, 62, 70
1, 269847, Note_off_c, 0, 64, 64
1, 269858, Note_on_c, 0, 60, 80
1, 269861, Note_on_c, 0, 52, 7
1, 269862, Note_off_c, 0, 62, 64
1, 269868, Note_off_c, 0, 47, 64
1, 269873, Note_off_c, 0, 44, 64
1, 269884, Note_off_c, 0, 52, 64
1, 269912, Note_off_c, 0, 60, 64
1, 269912, Note_on_c, 0, 62, 80
1, 269958, Note_on_c, 0, 57, 64
1, 269962, Note_on_c, 0, 60, 79
1, 269963, Note_off_c, 0, 62, 64
1, 270005, Note_on_c, 0, 52, 64
1, 270006, Note_off_c, 0, 57, 64
1, 270052, Note_off_c, 0, 60, 64
1, 270053, Note_off_c, 0, 52, 64
1, 270054, Note_on_c, 0, 57, 77
1, 270058, Note_on_c, 0, 45, 61
1, 270144, Note_on_c, 0, 60, 73
1, 270145, Note_on_c, 0, 48, 47
1, 270146, Note_on_c, 0, 33, 61
1, 270152, Note_off_c, 0, 45, 64
1, 270187, Note_off_c, 0, 33, 64
1, 270191, Note_on_c, 0, 62, 63
1, 270199, Note_off_c, 0, 60, 64
1, 270206, Note_off_c, 0, 57, 64
1, 270233, Note_off_c, 0, 48, 64
1, 270240, Note_on_c, 0, 52, 76
1, 270240, Note_on_c, 0, 64, 79
1, 270252, Note_off_c, 0, 62, 64
1, 270333, Note_off_c, 0, 64, 64
1, 270336, Note_off_c, 0, 52, 64
1, 270337, Note_on_c, 0, 57, 83
1, 270338, Note_on_c, 0, 60, 81
1, 270339, Note_on_c, 0, 52, 71
1, 270340, Note_on_c, 0, 45, 69
1, 270341, Note_on_c, 0, 48, 66
1, 270572, Note_off_c, 0, 48, 64
1, 270585, Note_off_c, 0, 52, 64
1, 270586, Note_off_c, 0, 45, 64
1, 270603, Note_off_c, 0, 57, 64
1, 270612, Note_off_c, 0, 60, 64
1, 270715, Note_on_c, 0, 38, 68
1, 270716, Note_on_c, 0, 65, 77
1, 270717, Note_on_c, 0, 60, 75
1, 270718, Note_on_c, 0, 53, 74
1, 270719, Note_on_c, 0, 50, 61
1, 270719, Note_on_c, 0, 57, 76
1, 270720, Note_on_c, 0, 45, 63
1, 270798, Note_off_c, 0, 65, 64
1, 270807, Note_off_c, 0, 38, 64
1, 270807, Note_off_c, 0, 50, 64
1, 270811, Note_off_c, 0, 53, 64
1, 270811, Note_off_c, 0, 57, 64
1, 270813, Note_off_c, 0, 45, 64
1, 270813, Note_off_c, 0, 60, 64
1, 270908, Note_on_c, 0, 36, 74
1, 270908, Note_on_c, 0, 48, 71
1, 270909, Note_on_c, 0, 60, 76
1, 270910, Note_on_c, 0, 55, 84
1, 270911, Note_on_c, 0, 45, 74
1, 270911, Note_on_c, 0, 52, 87
1, 270911, Note_on_c, 0, 64, 76
1, 270987, Note_off_c, 0, 64, 64
1, 270992, Note_off_c, 0, 45, 64
1, 270992, Note_off_c, 0, 48, 64
1, 270994, Note_off_c, 0, 60, 64
1, 270998, Note_off_c, 0, 52, 64
1, 271001, Note_off_c, 0, 55, 64
1, 271002, Note_off_c, 0, 36, 64
1, 271099, Note_on_c, 0, 62, 89
1, 271101, Note_on_c, 0, 35, 76
1, 271102, Note_on_c, 0, 47, 79
1, 271102, Note_on_c, 0, 50, 89
1, 271103, Note_on_c, 0, 55, 89
1, 271104, Note_on_c, 0, 43, 81
1, 271174, Note_off_c, 0, 62, 64
1, 271183, Note_off_c, 0, 55, 64
1, 271184, Note_off_c, 0, 35, 64
1, 271186, Note_off_c, 0, 47, 64
1, 271189, Note_off_c, 0, 43, 64
1, 271194, Note_off_c, 0, 50, 64
1, 271292, Note_on_c, 0, 48, 89
1, 271293, Note_on_c, 0, 60, 83
1, 271294, Note_on_c, 0, 33, 81
1, 271294, Note_on_c, 0, 52, 87
1, 271295, Note_on_c, 0, 45, 77
1, 271296, Note_on_c, 0, 55, 84
1, 271297, Note_on_c, 0, 40, 79
1, 271374, Note_off_c, 0, 45, 64
1, 271377, Note_off_c, 0, 40, 64
1, 271380, Note_off_c, 0, 33, 64
1, 271381, Note_off_c, 0, 52, 64
1, 271381, Note_off_c, 0, 60, 64
1, 271388, Note_off_c, 0, 55, 64
1, 271393, Note_off_c, 0, 48, 64
1, 271486, Note_on_c, 0, 52, 92
1, 271487, Note_on_c, 0, 32, 77
1, 271487, Note_on_c, 0, 47, 89
1, 271488, Note_on_c, 0, 40, 80
1, 271489, Note_on_c, 0, 44, 80
1, 271490, Note_on_c, 0, 56, 92
1, 271490, Note_on_c, 0, 59, 86
1, 271676, Note_off_c, 0, 47, 64
1, 271677, Note_off_c, 0, 32, 64
1, 271679, Note_off_c, 0, 44, 64
1, 271680, Note_off_c, 0, 59, 64
1, 271681, Note_off_c, 0, 56, 64
1, 271686, Note_off_c, 0, 40, 64
1, 271866, Note_off_c, 0, 52, 64
1, 271872, Note_on_c, 0, 29, 74
1, 271873, Note_on_c, 0, 60, 80
1, 271886, Note_off_c, 0, 29, 64
1, 271888, Note_off_c, 0, 60, 64
1, 271919, Note_on_c, 0, 48, 70
1, 271921, Note_on_c, 0, 36, 43
1, 271929, Note_off_c, 0, 48, 64
1, 271935, Note_off_c, 0, 36, 64
1, 271964, Note_on_c, 0, 45, 72
1, 271968, Note_on_c, 0, 53, 71
1, 271975, Note_off_c, 0, 45, 64
1, 271981, Note_off_c, 0, 53, 64
1, 272017, Note_on_c, 0, 48, 67
1, 272027, Note_off_c, 0, 48, 64
1, 272063, Note_on_c, 0, 31, 75
1, 272064, Note_on_c, 0, 59, 77
1, 272073, Note_off_c, 0, 31, 64
1, 272085, Note_off_c, 0, 59, 64
1, 272112, Note_on_c, 0, 38, 64
1, 272112, Note_on_c, 0, 50, 73
1, 272122, Note_off_c, 0, 38, 64
1, 272123, Note_off_c, 0, 50, 64
1, 272158, Note_on_c, 0, 47, 63
1, 272161, Note_on_c, 0, 55, 79
1, 272169, Note_off_c, 0, 47, 64
1, 272191, Note_off_c, 0, 55, 64
1, 272208, Note_on_c, 0, 50, 70
1, 272219, Note_off_c, 0, 50, 64
1, 272254, Note_on_c, 0, 33, 69
1, 272255, Note_on_c, 0, 57, 67
1, 272271, Note_off_c, 0, 33, 64
1, 272277, Note_off_c, 0, 57, 64
1, 272302, Note_on_c, 0, 48, 78
1, 272304, Note_on_c, 0, 40, 70
1, 272313, Note_off_c, 0, 48, 64
1, 272316, Note_off_c, 0, 40, 64
1, 272349, Note_on_c, 0, 52, 71
1, 272351, Note_on_c, 0, 45, 85
1, 272361, Note_off_c, 0, 45, 64
1, 272364, Note_off_c, 0, 52, 64
1, 272400, Note_on_c, 0, 48, 58
1, 272413, Note_off_c, 0, 48, 64
1, 272447, Note_on_c, 0, 57, 68
1, 272474, Note_off_c, 0, 57, 64
1, 272494, Note_on_c, 0, 48, 70
1, 272505, Note_off_c, 0, 48, 64
1, 272542, Note_on_c, 0, 52, 68
1, 272569, Note_off_c, 0, 52, 64
1, 272587, Note_on_c, 0, 48, 71
1, 272589, Note_on_c, 0, 36, 64
1, 272599, Note_off_c, 0, 48, 64
1, 272600, Note_off_c, 0, 36, 64
1, 272635, Note_on_c, 0, 29, 83
1, 272640, Note_on_c, 0, 60, 84
1, 272650, Note_off_c, 0, 29, 64
1, 272652, Note_off_c, 0, 60, 64
1, 272685, Note_on_c, 0, 48, 78
1, 272687, Note_on_c, 0, 36, 63
1, 272697, Note_off_c, 0, 48, 64
1, 272699, Note_off_c, 0, 36, 64
1, 272734, Note_on_c, 0, 45, 69
1, 272737, Note_on_c, 0, 53, 77
1, 272745, Note_off_c, 0, 45, 64
1, 272749, Note_off_c, 0, 53, 64
1, 272782, Note_on_c, 0, 48, 73
1, 272794, Note_off_c, 0, 48, 64
1, 272830, Note_on_c, 0, 31, 70
1, 272832, Note_on_c, 0, 59, 81
1, 272846, Note_off_c, 0, 31, 64
1, 272857, Note_off_c, 0, 59, 64
1, 272878, Note_on_c, 0, 50, 73
1, 272882, Note_on_c, 0, 38, 59
1, 272889, Note_off_c, 0, 50, 64
1, 272894, Note_off_c, 0, 38, 64
1, 272927, Note_on_c, 0, 47, 62
1, 272929, Note_on_c, 0, 55, 71
1, 272938, Note_off_c, 0, 47, 64
1, 272941, Note_off_c, 0, 55, 64
1, 272972, Note_on_c, 0, 50, 73
1, 272983, Note_off_c, 0, 50, 64
1, 273023, Note_on_c, 0, 57, 72
1, 273025, Note_on_c, 0, 33, 75
1, 273049, Note_off_c, 0, 57, 64
1, 273050, Note_off_c, 0, 33, 64
1, 273070, Note_on_c, 0, 40, 75
1, 273073, Note_on_c, 0, 48, 71
1, 273085, Note_off_c, 0, 48, 64
1, 273086, Note_off_c, 0, 40, 64
1, 273119, Note_on_c, 0, 52, 72
1, 273120, Note_on_c, 0, 45, 81
1, 273131, Note_off_c, 0, 45, 64
1, 273143, Note_off_c, 0, 52, 64
1, 273166, Note_on_c, 0, 48, 73
1, 273178, Note_off_c, 0, 48, 64
1, 273215, Note_on_c, 0, 55, 87
1, 273247, Note_off_c, 0, 55, 64
1, 273262, Note_on_c, 0, 52, 77
1, 273281, Note_off_c, 0, 52, 64
1, 273310, Note_on_c, 0, 48, 84
1, 273329, Note_off_c, 0, 48, 64
1, 273359, Note_on_c, 0, 52, 66
1, 273361, Note_on_c, 0, 36, 53
1, 273370, Note_off_c, 0, 52, 64
1, 273375, Note_off_c, 0, 36, 64
1, 273408, Note_on_c, 0, 53, 78
1, 273409, Note_on_c, 0, 41, 71
1, 273409, Note_on_c, 0, 60, 77
1, 273410, Note_on_c, 0, 29, 66
1, 273410, Note_on_c, 0, 48, 74
1, 273410, Note_on_c, 0, 57, 67
1, 273500, Note_off_c, 0, 60, 64
1, 273504, Note_off_c, 0, 29, 64
1, 273505, Note_off_c, 0, 57, 64
1, 273506, Note_off_c, 0, 53, 64
1, 273514, Note_off_c, 0, 48, 64
1, 273523, Note_off_c, 0, 41, 64
1, 273596, Note_on_c, 0, 55, 84
1, 273596, Note_on_c, 0, 59, 77
1, 273597, Note_on_c, 0, 52, 75
1, 273598, Note_on_c, 0, 47, 78
1, 273599, Note_on_c, 0, 31, 67
1, 273599, Note_on_c, 0, 43, 68
1, 273692, Note_off_c, 0, 31, 64
1, 273694, Note_off_c, 0, 47, 64
1, 273700, Note_off_c, 0, 52, 64
1, 273702, Note_off_c, 0, 43, 64
1, 273708, Note_off_c, 0, 55, 64
1, 273710, Note_off_c, 0, 59, 64
1, 273787, Note_on_c, 0, 59, 77
1, 273788, Note_on_c, 0, 48, 80
1, 273789, Note_on_c, 0, 55, 67
1, 273791, Note_on_c, 0, 45, 66
1, 273792, Note_on_c, 0, 33, 64
1, 273792, Note_on_c, 0, 52, 72
1, 274063, Note_off_c, 0, 59, 64
1, 274070, Note_off_c, 0, 45, 64
1, 274073, Note_off_c, 0, 55, 64
1, 274075, Note_off_c, 0, 48, 64
1, 274078, Note_off_c, 0, 52, 64
1, 274080, Note_off_c, 0, 33, 64
1, 274174, Note_on_c, 0, 57, 82
1, 274175, Note_on_c, 0, 45, 82
1, 274176, Note_on_c, 0, 29, 65
1, 274176, Note_on_c, 0, 52, 85
1, 274177, Note_on_c, 0, 36, 74
1, 274280, Note_off_c, 0, 29, 64
1, 274283, Note_off_c, 0, 45, 64
1, 274286, Note_off_c, 0, 36, 64
1, 274291, Note_off_c, 0, 52, 64
1, 274293, Note_off_c, 0, 57, 64
1, 274364, Note_on_c, 0, 55, 84
1, 274366, Note_on_c, 0, 47, 87
1, 274366, Note_on_c, 0, 59, 88
1, 274367, Note_on_c, 0, 31, 71
1, 274369, Note_on_c, 0, 38, 72
1, 274467, Note_off_c, 0, 47, 64
1, 274468, Note_off_c, 0, 31, 64
1, 274470, Note_off_c, 0, 38, 64
1, 274472, Note_off_c, 0, 59, 64
1, 274478, Note_off_c, 0, 55, 64
1, 274558, Note_on_c, 0, 55, 80
1, 274559, Note_on_c, 0, 48, 80
1, 274559, Note_on_c, 0, 60, 80
1, 274560, Note_on_c, 0, 45, 63
1, 274561, Note_on_c, 0, 33, 60
1, 274561, Note_on_c, 0, 40, 69
1, 274835, Note_off_c, 0, 60, 64
1, 274838, Note_off_c, 0, 55, 64
1, 274845, Note_off_c, 0, 45, 64
1, 274845, Note_off_c, 0, 48, 64
1, 274853, Note_off_c, 0, 40, 64
1, 274854, Note_off_c, 0, 33, 64
1, 274944, Note_on_c, 0, 29, 72
1, 274945, Note_on_c, 0, 69, 96
1, 274990, Note_on_c, 0, 33, 51
1, 275040, Note_on_c, 0, 36, 66
1, 275088, Note_on_c, 0, 41, 76
1, 275135, Note_on_c, 0, 57, 77
1, 275146, Note_off_c, 0, 69, 64
1, 275182, Note_on_c, 0, 60, 78
1, 275211, Note_off_c, 0, 29, 64
1, 275212, Note_off_c, 0, 33, 64
1, 275226, Note_off_c, 0, 36, 64
1, 275232, Note_on_c, 0, 69, 97
1, 275235, Note_off_c, 0, 60, 64
1, 275245, Note_off_c, 0, 57, 64
1, 275305, Note_off_c, 0, 41, 64
1, 275311, Note_off_c, 0, 69, 64
1, 275324, Note_on_c, 0, 31, 78
1, 275326, Note_on_c, 0, 67, 100
1, 275373, Note_on_c, 0, 35, 70
1, 275421, Note_on_c, 0, 38, 68
1, 275468, Note_on_c, 0, 43, 73
1, 275517, Note_on_c, 0, 62, 93
1, 275521, Note_off_c, 0, 67, 64
1, 275565, Note_on_c, 0, 64, 85
1, 275568, Note_off_c, 0, 62, 64
1, 275612, Note_on_c, 0, 67, 102
1, 275619, Note_off_c, 0, 35, 64
1, 275619, Note_off_c, 0, 38, 64
1, 275622, Note_off_c, 0, 64, 64
1, 275630, Note_off_c, 0, 31, 64
1, 275642, Note_off_c, 0, 43, 64
1, 275699, Note_off_c, 0, 67, 64
1, 275709, Note_on_c, 0, 33, 58
1, 275709, Note_on_c, 0, 64, 81
1, 275753, Note_on_c, 0, 36, 71
1, 275805, Note_on_c, 0, 40, 71
1, 275853, Note_on_c, 0, 45, 69
1, 275901, Note_on_c, 0, 57, 83
1, 276022, Note_off_c, 0, 57, 64
1, 276096, Note_on_c, 0, 60, 79
1, 276140, Note_off_c, 0, 64, 64
1, 276288, Note_on_c, 0, 64, 79
1, 276293, Note_off_c, 0, 60, 64
1, 276375, Note_off_c, 0, 36, 64
1, 276375, Note_off_c, 0, 45, 64
1, 276376, Note_off_c, 0, 33, 64
1, 276377, Note_off_c, 0, 40, 64
1, 276388, Note_on_c, 0, 48, 75
1, 276476, Note_off_c, 0, 64, 64
1, 276477, Note_off_c, 0, 48, 64
1, 276480, Note_on_c, 0, 41, 76
1, 276576, Note_on_c, 0, 48, 60
1, 276624, Note_on_c, 0, 53, 78
1, 276722, Note_on_c, 0, 57, 88
1, 276744, Note_off_c, 0, 41, 64
1, 276751, Note_off_c, 0, 48, 64
1, 276789, Note_off_c, 0, 53, 64
1, 276815, Note_off_c, 0, 57, 64
1, 276820, Note_on_c, 0, 60, 70
1, 276865, Note_on_c, 0, 43, 70
1, 276867, Note_off_c, 0, 60, 64
1, 276868, Note_on_c, 0, 59, 81
1, 276915, Note_on_c, 0, 50, 59
1, 276956, Note_off_c, 0, 59, 64
1, 276959, Note_on_c, 0, 55, 68
1, 277009, Note_on_c, 0, 60, 85
1, 277104, Note_off_c, 0, 60, 64
1, 277106, Note_on_c, 0, 62, 86
1, 277144, Note_off_c, 0, 50, 64
1, 277152, Note_off_c, 0, 43, 64
1, 277167, Note_off_c, 0, 55, 64
1, 277186, Note_off_c, 0, 62, 64
1, 277200, Note_on_c, 0, 64, 78
1, 277247, Note_on_c, 0, 60, 75
1, 277248, Note_on_c, 0, 45, 68
1, 277257, Note_off_c, 0, 64, 64
1, 277260, Note_on_c, 0, 62, 86
1, 277261, Note_off_c, 0, 60, 64
1, 277297, Note_on_c, 0, 52, 63
1, 277297, Note_on_c, 0, 60, 80
1, 277314, Note_off_c, 0, 62, 64
1, 277344, Note_on_c, 0, 57, 63
1, 277353, Note_off_c, 0, 60, 64
1, 277394, Note_on_c, 0, 60, 81
1, 277534, Note_on_c, 0, 67, 92
1, 277567, Note_off_c, 0, 67, 64
1, 277676, Note_on_c, 0, 72, 95
1, 277791, Note_off_c, 0, 72, 64
1, 277821, Note_on_c, 0, 71, 80
1, 277847, Note_off_c, 0, 57, 64
1, 277859, Note_off_c, 0, 52, 64
1, 277865, Note_off_c, 0, 45, 64
1, 277916, Note_off_c, 0, 60, 64
1, 277918, Note_off_c, 0, 71, 64
1, 277919, Note_on_c, 0, 67, 72
1, 277980, Note_off_c, 0, 67, 64
1, 278016, Note_on_c, 0, 72, 80
1, 278018, Note_on_c, 0, 41, 68
1, 278018, Note_on_c, 0, 64, 78
1, 278033, Note_off_c, 0, 64, 64
1, 278050, Note_off_c, 0, 72, 64
1, 278109, Note_on_c, 0, 62, 71
1, 278113, Note_on_c, 0, 71, 74
1, 278163, Note_off_c, 0, 62, 64
1, 278205, Note_on_c, 0, 69, 67
1, 278206, Note_on_c, 0, 60, 79
1, 278209, Note_off_c, 0, 71, 64
1, 278246, Note_off_c, 0, 60, 64
1, 278289, Note_off_c, 0, 69, 64
1, 278304, Note_on_c, 0, 64, 87
1, 278305, Note_on_c, 0, 72, 86
1, 278313, Note_off_c, 0, 41, 64
1, 278328, Note_off_c, 0, 64, 64
1, 278337, Note_off_c, 0, 72, 64
1, 278399, Note_on_c, 0, 62, 85
1, 278401, Note_on_c, 0, 71, 76
1, 278402, Note_on_c, 0, 43, 65
1, 278449, Note_off_c, 0, 62, 64
1, 278486, Note_off_c, 0, 71, 64
1, 278502, Note_on_c, 0, 60, 79
1, 278504, Note_on_c, 0, 69, 68
1, 278544, Note_off_c, 0, 60, 64
1, 278544, Note_off_c, 0, 69, 64
1, 278591, Note_on_c, 0, 55, 58
1, 278592, Note_on_c, 0, 72, 92
1, 278593, Note_on_c, 0, 64, 94
1, 278618, Note_off_c, 0, 64, 64
1, 278633, Note_off_c, 0, 72, 64
1, 278686, Note_on_c, 0, 62, 95
1, 278688, Note_off_c, 0, 43, 64
1, 278688, Note_on_c, 0, 71, 86
1, 278693, Note_off_c, 0, 55, 64
1, 278781, Note_on_c, 0, 45, 68
1, 278801, Note_off_c, 0, 62, 64
1, 278868, Note_off_c, 0, 71, 64
1, 278880, Note_on_c, 0, 69, 72
1, 278883, Note_on_c, 0, 60, 84
1, 279126, Note_on_c, 0, 52, 56
1, 279173, Note_on_c, 0, 62, 69
1, 279526, Note_off_c, 0, 52, 64
1, 279530, Note_off_c, 0, 45, 64
1, 279530, Note_off_c, 0, 62, 64
1, 279533, Note_off_c, 0, 69, 64
1, 279540, Note_off_c, 0, 60, 64
1, 279558, Note_on_c, 0, 69, 67
1, 279558, Note_on_c, 0, 76, 79
1, 279560, Note_on_c, 0, 53, 49
1, 279561, Note_on_c, 0, 60, 63
1, 279800, Note_off_c, 0, 53, 64
1, 279805, Note_off_c, 0, 60, 64
1, 279833, Note_off_c, 0, 69, 64
1, 279930, Note_on_c, 0, 71, 71
1, 279932, Note_on_c, 0, 74, 71
1, 279933, Note_on_c, 0, 64, 58
1, 279934, Note_off_c, 0, 76, 64
1, 279936, Note_on_c, 0, 55, 57
1, 280186, Note_off_c, 0, 55, 64
1, 280187, Note_off_c, 0, 71, 64
1, 280187, Note_off_c, 0, 74, 64
1, 280209, Note_off_c, 0, 64, 64
1, 280318, Note_on_c, 0, 72, 63
1, 280319, Note_on_c, 0, 67, 54
1, 280321, Note_on_c, 0, 57, 44
1, 280321, Note_on_c, 0, 71, 65
1, 280322, Note_on_c, 0, 64, 55
1, 280630, Note_off_c, 0, 67, 64
1, 280638, Note_off_c, 0, 71, 64
1, 280651, Note_off_c, 0, 72, 64
1, 280754, Note_on_c, 0, 71, 96
1, 280757, Note_off_c, 0, 64, 64
1, 280766, Note_off_c, 0, 57, 64
1, 280801, Note_on_c, 0, 72, 85
1, 280813, Note_off_c, 0, 71, 64
1, 280851, Note_on_c, 0, 79, 93
1, 280900, Note_on_c, 0, 52, 61
1, 280902, Note_on_c, 0, 60, 73
1, 280993, Note_off_c, 0, 52, 64
1, 280993, Note_off_c, 0, 79, 64
1, 281014, Note_off_c, 0, 60, 64
1, 281031, Note_off_c, 0, 72, 64
1, 281088, Note_on_c, 0, 69, 90
1, 281093, Note_on_c, 0, 57, 79
1, 281184, Note_on_c, 0, 72, 90
1, 281188, Note_on_c, 0, 60, 69
1, 281209, Note_off_c, 0, 69, 64
1, 281271, Note_off_c, 0, 60, 64
1, 281272, Note_off_c, 0, 57, 64
1, 281283, Note_on_c, 0, 64, 85
1, 281284, Note_on_c, 0, 69, 86
1, 281285, Note_off_c, 0, 72, 64
1, 281358, Note_off_c, 0, 64, 64
1, 281376, Note_on_c, 0, 52, 78
1, 281381, Note_on_c, 0, 62, 78
1, 281382, Note_on_c, 0, 67, 72
1, 281382, Note_on_c, 0, 71, 83
1, 281388, Note_off_c, 0, 69, 64
1, 281473, Note_on_c, 0, 55, 70
1, 281561, Note_off_c, 0, 62, 64
1, 281565, Note_on_c, 0, 59, 84
1, 281569, Note_off_c, 0, 67, 64
1, 281660, Note_off_c, 0, 71, 64
1, 281662, Note_on_c, 0, 67, 94
1, 281726, Note_off_c, 0, 52, 64
1, 281757, Note_off_c, 0, 55, 64
1, 281759, Note_on_c, 0, 69, 89
1, 281776, Note_off_c, 0, 67, 64
1, 281785, Note_off_c, 0, 59, 64
1, 281856, Note_on_c, 0, 57, 78
1, 281948, Note_on_c, 0, 60, 68
1, 281952, Note_on_c, 0, 72, 91
1, 281956, Note_off_c, 0, 69, 64
1, 282043, Note_on_c, 0, 64, 72
1, 282044, Note_on_c, 0, 69, 88
1, 282066, Note_off_c, 0, 72, 64
1, 282139, Note_off_c, 0, 60, 64
1, 282141, Note_on_c, 0, 71, 100
1, 282148, Note_off_c, 0, 64, 64
1, 282149, Note_off_c, 0, 57, 64
1, 282158, Note_off_c, 0, 69, 64
1, 282237, Note_on_c, 0, 52, 81
1, 282332, Note_on_c, 0, 55, 64
1, 282382, Note_on_c, 0, 59, 75
1, 282428, Note_on_c, 0, 67, 93
1, 282514, Note_off_c, 0, 55, 64
1, 282518, Note_off_c, 0, 52, 64
1, 282526, Note_on_c, 0, 64, 88
1, 282539, Note_off_c, 0, 71, 64
1, 282542, Note_off_c, 0, 67, 64
1, 282547, Note_off_c, 0, 59, 64
1, 282622, Note_off_c, 0, 64, 64
1, 282625, Note_on_c, 0, 45, 84
1, 282625, Note_on_c, 0, 60, 88
1, 282626, Note_on_c, 0, 64, 91
1, 282627, Note_on_c, 0, 55, 88
1, 282655, Note_off_c, 0, 45, 64
1, 282769, Note_on_c, 0, 38, 85
1, 282794, Note_off_c, 0, 38, 64
1, 282865, Note_on_c, 0, 38, 89
1, 282888, Note_off_c, 0, 38, 64
1, 282949, Note_off_c, 0, 60, 64
1, 282949, Note_off_c, 0, 64, 64
1, 282952, Note_on_c, 0, 38, 72
1, 282954, Note_off_c, 0, 55, 64
1, 282978, Note_off_c, 0, 38, 64
1, 283006, Note_on_c, 0, 55, 98
1, 283007, Note_on_c, 0, 60, 92
1, 283008, Note_on_c, 0, 64, 97
1, 283009, Note_on_c, 0, 45, 99
1, 283095, Note_off_c, 0, 45, 64
1, 283104, Note_on_c, 0, 38, 79
1, 283135, Note_off_c, 0, 55, 64
1, 283137, Note_off_c, 0, 60, 64
1, 283145, Note_off_c, 0, 64, 64
1, 283192, Note_off_c, 0, 38, 64
1, 283194, Note_on_c, 0, 63, 92
1, 283196, Note_on_c, 0, 54, 90
1, 283196, Note_on_c, 0, 59, 86
1, 283200, Note_on_c, 0, 44, 87
1, 283288, Note_off_c, 0, 44, 64
1, 283291, Note_off_c, 0, 59, 64
1, 283293, Note_on_c, 0, 38, 76
1, 283297, Note_off_c, 0, 63, 64
1, 283298, Note_off_c, 0, 54, 64
1, 283385, Note_off_c, 0, 38, 64
1, 283389, Note_on_c, 0, 62, 81
1, 283390, Note_on_c, 0, 53, 85
1, 283390, Note_on_c, 0, 58, 84
1, 283393, Note_on_c, 0, 43, 93
1, 283490, Note_off_c, 0, 43, 64
1, 283538, Note_on_c, 0, 38, 93
1, 283567, Note_off_c, 0, 38, 64
1, 283634, Note_on_c, 0, 38, 85
1, 283665, Note_off_c, 0, 38, 64
1, 283728, Note_on_c, 0, 38, 80
1, 283742, Note_off_c, 0, 53, 64
1, 283744, Note_off_c, 0, 62, 64
1, 283746, Note_off_c, 0, 58, 64
1, 283752, Note_off_c, 0, 38, 64
1, 283774, Note_on_c, 0, 43, 86
1, 283775, Note_on_c, 0, 58, 78
1, 283777, Note_on_c, 0, 53, 87
1, 283777, Note_on_c, 0, 62, 77
1, 283866, Note_off_c, 0, 53, 64
1, 283869, Note_off_c, 0, 43, 64
1, 283870, Note_on_c, 0, 38, 84
1, 283873, Note_off_c, 0, 62, 64
1, 283878, Note_off_c, 0, 58, 64
1, 283944, Note_off_c, 0, 38, 64
1, 283964, Note_on_c, 0, 63, 90
1, 283965, Note_on_c, 0, 59, 86
1, 283966, Note_on_c, 0, 54, 94
1, 283968, Note_on_c, 0, 44, 90
1, 284051, Note_off_c, 0, 54, 64
1, 284055, Note_off_c, 0, 44, 64
1, 284063, Note_off_c, 0, 63, 64
1, 284064, Note_on_c, 0, 38, 84
1, 284068, Note_off_c, 0, 59, 64
1, 284154, Note_off_c, 0, 38, 64
1, 284162, Note_on_c, 0, 33, 60
1, 284227, Note_on_c, 0, 57, 39
1, 284242, Note_on_c, 0, 60, 58
1, 284257, Note_on_c, 0, 64, 68
1, 284508, Note_off_c, 0, 33, 64
1, 284525, Note_off_c, 0, 64, 64
1, 284527, Note_off_c, 0, 57, 64
1, 284542, Note_on_c, 0, 33, 55
1, 284543, Note_off_c, 0, 60, 64
1, 284605, Note_on_c, 0, 57, 49
1, 284620, Note_on_c, 0, 60, 60
1, 284631, Note_on_c, 0, 65, 70
1, 284907, Note_off_c, 0, 57, 64
1, 284921, Note_off_c, 0, 33, 64
1, 284925, Note_off_c, 0, 60, 64
1, 284926, Note_on_c, 0, 32, 74
1, 284932, Note_off_c, 0, 65, 64
1, 284991, Note_on_c, 0, 56, 48
1, 285004, Note_on_c, 0, 62, 65
1, 285022, Note_on_c, 0, 64, 69
1, 285276, Note_off_c, 0, 64, 64
1, 285280, Note_off_c, 0, 56, 64
1, 285292, Note_off_c, 0, 62, 64
1, 285309, Note_off_c, 0, 32, 64
1, 285310, Note_on_c, 0, 31, 58
1, 285368, Note_on_c, 0, 55, 46
1, 285385, Note_on_c, 0, 59, 53
1, 285397, Note_on_c, 0, 64, 75
1, 285600, Note_on_c, 0, 62, 100
1, 285610, Note_off_c, 0, 64, 64
1, 285662, Note_off_c, 0, 55, 64
1, 285670, Note_off_c, 0, 59, 64
1, 285684, Note_off_c, 0, 31, 64
1, 285687, Note_off_c, 0, 62, 64
1, 285696, Note_on_c, 0, 33, 66
1, 285696, Note_on_c, 0, 64, 100
1, 285697, Note_on_c, 0, 60, 73
1, 285736, Note_on_c, 0, 57, 68
1, 285755, Note_off_c, 0, 60, 64
1, 285780, Note_off_c, 0, 64, 64
1, 285786, Note_on_c, 0, 69, 86
1, 285882, Note_on_c, 0, 64, 76
1, 285892, Note_off_c, 0, 69, 64
1, 285976, Note_off_c, 0, 64, 64
1, 285979, Note_on_c, 0, 60, 77
1, 286075, Note_on_c, 0, 41, 66
1, 286076, Note_on_c, 0, 65, 78
1, 286095, Note_off_c, 0, 33, 64
1, 286167, Note_off_c, 0, 65, 64
1, 286168, Note_off_c, 0, 60, 64
1, 286268, Note_on_c, 0, 69, 92
1, 286314, Note_on_c, 0, 65, 76
1, 286323, Note_off_c, 0, 69, 64
1, 286366, Note_on_c, 0, 60, 80
1, 286375, Note_off_c, 0, 65, 64
1, 286396, Note_off_c, 0, 57, 64
1, 286451, Note_off_c, 0, 41, 64
1, 286460, Note_on_c, 0, 56, 71
1, 286460, Note_on_c, 0, 64, 75
1, 286464, Note_on_c, 0, 32, 56
1, 286466, Note_off_c, 0, 60, 64
1, 286554, Note_off_c, 0, 64, 64
1, 286555, Note_on_c, 0, 38, 55
1, 286555, Note_on_c, 0, 62, 63
1, 286653, Note_on_c, 0, 40, 64
1, 286747, Note_on_c, 0, 68, 82
1, 286785, Note_off_c, 0, 68, 64
1, 286810, Note_off_c, 0, 32, 64
1, 286811, Note_off_c, 0, 56, 64
1, 286818, Note_off_c, 0, 38, 64
1, 286821, Note_off_c, 0, 62, 64
1, 286837, Note_off_c, 0, 40, 64
1, 286844, Note_on_c, 0, 57, 80
1, 286844, Note_on_c, 0, 64, 71
1, 286846, Note_on_c, 0, 33, 75
1, 286936, Note_on_c, 0, 60, 67
1, 286950, Note_on_c, 0, 40, 44
1, 287039, Note_on_c, 0, 48, 70
1, 287040, Note_off_c, 0, 33, 64
1, 287092, Note_off_c, 0, 40, 64
1, 287177, Note_off_c, 0, 57, 64
1, 287196, Note_off_c, 0, 60, 64
1, 287208, Note_off_c, 0, 48, 64
1, 287217, Note_off_c, 0, 64, 64
1, 287234, Note_on_c, 0, 72, 84
1, 287237, Note_on_c, 0, 57, 65
1, 287275, Note_on_c, 0, 71, 72
1, 287283, Note_off_c, 0, 72, 64
1, 287317, Note_off_c, 0, 71, 64
1, 287324, Note_on_c, 0, 69, 79
1, 287325, Note_on_c, 0, 60, 62
1, 287420, Note_on_c, 0, 64, 71
1, 287422, Note_on_c, 0, 71, 94
1, 287424, Note_off_c, 0, 69, 64
1, 287517, Note_on_c, 0, 72, 89
1, 287535, Note_off_c, 0, 71, 64
1, 287539, Note_off_c, 0, 57, 64
1, 287559, Note_off_c, 0, 60, 64
1, 287565, Note_off_c, 0, 64, 64
1, 287615, Note_on_c, 0, 57, 71
1, 287657, Note_on_c, 0, 71, 85
1, 287678, Note_off_c, 0, 72, 64
1, 287706, Note_off_c, 0, 71, 64
1, 287709, Note_on_c, 0, 69, 83
1, 287711, Note_on_c, 0, 60, 62
1, 287806, Note_on_c, 0, 71, 85
1, 287807, Note_on_c, 0, 65, 71
1, 287817, Note_off_c, 0, 69, 64
1, 287904, Note_on_c, 0, 72, 87
1, 287912, Note_off_c, 0, 57, 64
1, 287918, Note_off_c, 0, 71, 64
1, 287989, Note_off_c, 0, 65, 64
1, 287998, Note_on_c, 0, 56, 81
1, 287998, Note_off_c, 0, 60, 64
1, 288043, Note_on_c, 0, 71, 79
1, 288054, Note_off_c, 0, 72, 64
1, 288094, Note_on_c, 0, 59, 57
1, 288096, Note_on_c, 0, 69, 81
1, 288097, Note_off_c, 0, 71, 64
1, 288187, Note_on_c, 0, 64, 63
1, 288189, Note_on_c, 0, 76, 86
1, 288284, Note_on_c, 0, 74, 81
1, 288292, Note_off_c, 0, 76, 64
1, 288315, Note_off_c, 0, 56, 64
1, 288331, Note_off_c, 0, 59, 64
1, 288381, Note_on_c, 0, 57, 78
1, 288382, Note_off_c, 0, 64, 64
1, 288423, Note_on_c, 0, 72, 73
1, 288425, Note_off_c, 0, 74, 64
1, 288436, Note_off_c, 0, 69, 64
1, 288475, Note_on_c, 0, 71, 77
1, 288482, Note_on_c, 0, 60, 56
1, 288482, Note_off_c, 0, 72, 64
1, 288574, Note_on_c, 0, 64, 68
1, 288578, Note_on_c, 0, 69, 74
1, 288579, Note_off_c, 0, 71, 64
1, 288672, Note_on_c, 0, 71, 80
1, 288706, Note_off_c, 0, 57, 64
1, 288732, Note_off_c, 0, 60, 64
1, 288752, Note_off_c, 0, 69, 64
1, 288757, Note_off_c, 0, 64, 64
1, 288765, Note_off_c, 0, 71, 64
1, 288768, Note_on_c, 0, 41, 71
1, 288784, Note_on_c, 0, 45, 72
1, 288803, Note_on_c, 0, 48, 77
1, 288807, Note_off_c, 0, 41, 64
1, 288828, Note_off_c, 0, 45, 64
1, 288828, Note_on_c, 0, 53, 73
1, 288831, Note_off_c, 0, 48, 64
1, 288851, Note_off_c, 0, 53, 64
1, 288852, Note_on_c, 0, 57, 86
1, 288871, Note_off_c, 0, 57, 64
1, 288876, Note_on_c, 0, 60, 82
1, 288904, Note_on_c, 0, 64, 85
1, 288905, Note_off_c, 0, 60, 64
1, 288928, Note_on_c, 0, 57, 62
1, 288932, Note_off_c, 0, 64, 64
1, 288954, Note_on_c, 0, 60, 74
1, 288961, Note_off_c, 0, 57, 64
1, 288980, Note_on_c, 0, 64, 78
1, 288984, Note_off_c, 0, 60, 64
1, 289003, Note_on_c, 0, 69, 85
1, 289005, Note_off_c, 0, 64, 64
1, 289025, Note_on_c, 0, 72, 92
1, 289054, Note_on_c, 0, 76, 106
1, 289104, Note_off_c, 0, 69, 64
1, 289113, Note_off_c, 0, 72, 64
1, 289118, Note_off_c, 0, 76, 64
1, 289152, Note_on_c, 0, 40, 75
1, 289173, Note_on_c, 0, 43, 83
1, 289193, Note_off_c, 0, 40, 64
1, 289194, Note_on_c, 0, 47, 82
1, 289202, Note_off_c, 0, 43, 64
1, 289217, Note_off_c, 0, 47, 64
1, 289221, Note_on_c, 0, 52, 85
1, 289239, Note_off_c, 0, 52, 64
1, 289241, Note_on_c, 0, 55, 80
1, 289265, Note_off_c, 0, 55, 64
1, 289266, Note_on_c, 0, 59, 94
1, 289295, Note_on_c, 0, 62, 92
1, 289300, Note_off_c, 0, 59, 64
1, 289316, Note_on_c, 0, 55, 79
1, 289317, Note_off_c, 0, 62, 64
1, 289341, Note_on_c, 0, 59, 81
1, 289353, Note_off_c, 0, 55, 64
1, 289367, Note_on_c, 0, 62, 83
1, 289370, Note_off_c, 0, 59, 64
1, 289386, Note_on_c, 0, 67, 86
1, 289392, Note_off_c, 0, 62, 64
1, 289411, Note_on_c, 0, 71, 96
1, 289442, Note_on_c, 0, 74, 104
1, 289495, Note_off_c, 0, 67, 64
1, 289500, Note_off_c, 0, 71, 64
1, 289514, Note_off_c, 0, 74, 64
1, 289537, Note_on_c, 0, 41, 71
1, 289551, Note_on_c, 0, 45, 72
1, 289570, Note_on_c, 0, 48, 77
1, 289576, Note_off_c, 0, 41, 64
1, 289584, Note_off_c, 0, 45, 64
1, 289593, Note_on_c, 0, 53, 73
1, 289598, Note_off_c, 0, 48, 64
1, 289619, Note_on_c, 0, 57, 86
1, 289622, Note_off_c, 0, 53, 64
1, 289643, Note_on_c, 0, 60, 82
1, 289650, Note_off_c, 0, 57, 64
1, 289671, Note_on_c, 0, 64, 85
1, 289672, Note_off_c, 0, 60, 64
1, 289697, Note_on_c, 0, 60, 74
1, 289699, Note_off_c, 0, 64, 64
1, 289723, Note_on_c, 0, 64, 78
1, 289727, Note_off_c, 0, 60, 64
1, 289746, Note_on_c, 0, 69, 91
1, 289752, Note_off_c, 0, 64, 64
1, 289773, Note_on_c, 0, 72, 78
1, 289798, Note_on_c, 0, 76, 91
1, 289827, Note_on_c, 0, 81, 108
1, 289874, Note_off_c, 0, 81, 64
1, 289887, Note_off_c, 0, 76, 64
1, 289891, Note_off_c, 0, 72, 64
1, 289902, Note_off_c, 0, 69, 64
1, 289917, Note_on_c, 0, 40, 75
1, 289938, Note_on_c, 0, 47, 85
1, 289955, Note_off_c, 0, 40, 64
1, 289962, Note_off_c, 0, 47, 64
1, 289963, Note_on_c, 0, 52, 81
1, 289986, Note_on_c, 0, 55, 83
1, 289992, Note_off_c, 0, 52, 64
1, 290009, Note_on_c, 0, 59, 89
1, 290010, Note_off_c, 0, 55, 64
1, 290037, Note_on_c, 0, 62, 85
1, 290044, Note_off_c, 0, 59, 64
1, 290061, Note_on_c, 0, 55, 71
1, 290062, Note_off_c, 0, 62, 64
1, 290085, Note_on_c, 0, 59, 77
1, 290093, Note_off_c, 0, 55, 64
1, 290107, Note_off_c, 0, 59, 64
1, 290110, Note_on_c, 0, 62, 82
1, 290136, Note_on_c, 0, 67, 89
1, 290144, Note_off_c, 0, 62, 64
1, 290153, Note_on_c, 0, 71, 76
1, 290176, Note_on_c, 0, 74, 91
1, 290203, Note_on_c, 0, 79, 112
1, 290248, Note_off_c, 0, 79, 64
1, 290264, Note_off_c, 0, 74, 64
1, 290271, Note_off_c, 0, 67, 64
1, 290271, Note_off_c, 0, 71, 64
1, 290305, Note_on_c, 0, 53, 80
1, 290345, Note_on_c, 0, 57, 64
1, 290398, Note_on_c, 0, 60, 69
1, 290445, Note_on_c, 0, 76, 96
1, 290447, Note_on_c, 0, 64, 78
1, 290544, Note_on_c, 0, 74, 86
1, 290551, Note_off_c, 0, 76, 64
1, 290589, Note_off_c, 0, 74, 64
1, 290590, Note_on_c, 0, 72, 90
1, 290600, Note_off_c, 0, 53, 64
1, 290611, Note_off_c, 0, 57, 64
1, 290638, Note_on_c, 0, 79, 98
1, 290651, Note_off_c, 0, 60, 64
1, 290655, Note_off_c, 0, 64, 64
1, 290688, Note_on_c, 0, 55, 82
1, 290732, Note_on_c, 0, 59, 72
1, 290758, Note_off_c, 0, 79, 64
1, 290776, Note_off_c, 0, 72, 64
1, 290782, Note_on_c, 0, 62, 77
1, 290829, Note_on_c, 0, 64, 85
1, 290840, Note_on_c, 0, 74, 96
1, 290856, Note_on_c, 0, 76, 96
1, 290862, Note_off_c, 0, 74, 64
1, 290931, Note_on_c, 0, 74, 95
1, 290953, Note_off_c, 0, 76, 64
1, 290979, Note_on_c, 0, 72, 92
1, 290984, Note_off_c, 0, 55, 64
1, 290984, Note_off_c, 0, 59, 64
1, 290985, Note_off_c, 0, 74, 64
1, 291026, Note_on_c, 0, 74, 101
1, 291029, Note_off_c, 0, 72, 64
1, 291046, Note_off_c, 0, 64, 64
1, 291056, Note_off_c, 0, 62, 64
1, 291069, Note_off_c, 0, 74, 64
1, 291072, Note_on_c, 0, 57, 84
1, 291073, Note_on_c, 0, 72, 93
1, 291119, Note_on_c, 0, 60, 78
1, 291167, Note_on_c, 0, 64, 75
1, 291212, Note_off_c, 0, 72, 64
1, 291216, Note_on_c, 0, 69, 95
1, 291332, Note_off_c, 0, 57, 64
1, 291333, Note_off_c, 0, 60, 64
1, 291360, Note_on_c, 0, 83, 111
1, 291384, Note_off_c, 0, 64, 64
1, 291417, Note_off_c, 0, 83, 64
1, 291447, Note_on_c, 0, 81, 95
1, 291456, Note_on_c, 0, 52, 81
1, 291461, Note_on_c, 0, 83, 96
1, 291476, Note_off_c, 0, 81, 64
1, 291500, Note_on_c, 0, 55, 73
1, 291539, Note_off_c, 0, 83, 64
1, 291542, Note_on_c, 0, 81, 94
1, 291548, Note_on_c, 0, 60, 73
1, 291597, Note_on_c, 0, 79, 94
1, 291598, Note_on_c, 0, 64, 78
1, 291600, Note_off_c, 0, 81, 64
1, 291645, Note_off_c, 0, 79, 64
1, 291645, Note_on_c, 0, 81, 99
1, 291669, Note_off_c, 0, 81, 64
1, 291699, Note_on_c, 0, 74, 96
1, 291755, Note_off_c, 0, 52, 64
1, 291756, Note_off_c, 0, 55, 64
1, 291759, Note_off_c, 0, 69, 64
1, 291775, Note_off_c, 0, 60, 64
1, 291791, Note_on_c, 0, 76, 90
1, 291792, Note_off_c, 0, 74, 64
1, 291819, Note_off_c, 0, 76, 64
1, 291820, Note_off_c, 0, 64, 64
1, 291841, Note_on_c, 0, 29, 81
1, 291841, Note_on_c, 0, 64, 87
1, 291842, Note_on_c, 0, 67, 84
1, 291843, Note_on_c, 0, 71, 85
1, 291844, Note_on_c, 0, 41, 80
1, 291844, Note_on_c, 0, 60, 86
1, 292116, Note_off_c, 0, 67, 64
1, 292120, Note_off_c, 0, 71, 64
1, 292123, Note_off_c, 0, 64, 64
1, 292124, Note_off_c, 0, 29, 64
1, 292132, Note_off_c, 0, 60, 64
1, 292139, Note_off_c, 0, 41, 64
1, 292224, Note_on_c, 0, 69, 67
1, 292225, Note_on_c, 0, 64, 75
1, 292226, Note_on_c, 0, 62, 82
1, 292227, Note_on_c, 0, 59, 79
1, 292228, Note_on_c, 0, 31, 74
1, 292229, Note_on_c, 0, 43, 71
1, 292403, Note_off_c, 0, 69, 64
1, 292416, Note_off_c, 0, 62, 64
1, 292423, Note_off_c, 0, 59, 64
1, 292424, Note_off_c, 0, 31, 64
1, 292436, Note_off_c, 0, 43, 64
1, 292439, Note_off_c, 0, 64, 64
1, 292515, Note_on_c, 0, 64, 66
1, 292516, Note_on_c, 0, 67, 73
1, 292517, Note_on_c, 0, 33, 67
1, 292517, Note_on_c, 0, 60, 69
1, 292518, Note_on_c, 0, 57, 66
1, 292519, Note_on_c, 0, 45, 58
1, 292965, Note_off_c, 0, 57, 64
1, 292971, Note_off_c, 0, 60, 64
1, 292980, Note_off_c, 0, 64, 64
1, 292984, Note_off_c, 0, 67, 64
1, 292993, Note_off_c, 0, 45, 64
1, 292998, Note_off_c, 0, 33, 64
1, 293091, Note_on_c, 0, 69, 94
1, 293092, Note_on_c, 0, 64, 99
1, 293093, Note_on_c, 0, 40, 94
1, 293093, Note_on_c, 0, 74, 100
1, 293095, Note_on_c, 0, 28, 90
1, 293278, Note_off_c, 0, 74, 64
1, 293280, Note_off_c, 0, 28, 64
1, 293282, Note_on_c, 0, 72, 88
1, 293303, Note_off_c, 0, 40, 64
1, 293310, Note_off_c, 0, 64, 64
1, 293311, Note_off_c, 0, 69, 64
1, 293316, Note_off_c, 0, 72, 64
1, 293379, Note_on_c, 0, 53, 64
1, 293425, Note_on_c, 0, 57, 66
1, 293477, Note_on_c, 0, 60, 60
1, 293522, Note_on_c, 0, 64, 58
1, 293570, Note_on_c, 0, 72, 113
1, 293663, Note_off_c, 0, 72, 64
1, 293664, Note_off_c, 0, 57, 64
1, 293666, Note_on_c, 0, 74, 94
1, 293669, Note_off_c, 0, 53, 64
1, 293674, Note_off_c, 0, 60, 64
1, 293712, Note_off_c, 0, 64, 64
1, 293714, Note_on_c, 0, 76, 89
1, 293715, Note_off_c, 0, 74, 64
1, 293761, Note_on_c, 0, 55, 64
1, 293810, Note_on_c, 0, 59, 63
1, 293858, Note_on_c, 0, 62, 60
1, 293905, Note_on_c, 0, 64, 72
1, 293954, Note_on_c, 0, 74, 102
1, 293969, Note_off_c, 0, 76, 64
1, 294050, Note_off_c, 0, 59, 64
1, 294053, Note_on_c, 0, 72, 83
1, 294055, Note_off_c, 0, 74, 64
1, 294056, Note_off_c, 0, 62, 64
1, 294057, Note_off_c, 0, 55, 64
1, 294098, Note_on_c, 0, 74, 82
1, 294109, Note_off_c, 0, 72, 64
1, 294139, Note_off_c, 0, 64, 64
1, 294147, Note_on_c, 0, 57, 63
1, 294196, Note_on_c, 0, 60, 59
1, 294243, Note_on_c, 0, 64, 65
1, 294290, Note_on_c, 0, 69, 73
1, 294295, Note_off_c, 0, 74, 64
1, 294435, Note_off_c, 0, 60, 64
1, 294435, Note_on_c, 0, 74, 101
1, 294441, Note_off_c, 0, 57, 64
1, 294483, Note_on_c, 0, 79, 94
1, 294492, Note_off_c, 0, 64, 64
1, 294533, Note_on_c, 0, 52, 78
1, 294578, Note_on_c, 0, 60, 72
1, 294610, Note_off_c, 0, 69, 64
1, 294624, Note_off_c, 0, 79, 64
1, 294629, Note_on_c, 0, 62, 74
1, 294674, Note_on_c, 0, 67, 79
1, 294675, Note_on_c, 0, 72, 81
1, 294696, Note_off_c, 0, 74, 64
1, 294820, Note_on_c, 0, 69, 94
1, 294823, Note_off_c, 0, 52, 64
1, 294824, Note_off_c, 0, 72, 64
1, 294904, Note_off_c, 0, 60, 64
1, 294904, Note_off_c, 0, 69, 64
1, 294906, Note_off_c, 0, 62, 64
1, 294908, Note_off_c, 0, 67, 64
1, 294913, Note_on_c, 0, 69, 76
1, 294915, Note_on_c, 0, 57, 51
1, 294916, Note_on_c, 0, 60, 51
1, 294917, Note_on_c, 0, 53, 42
1, 295054, Note_on_c, 0, 67, 83
1, 295055, Note_on_c, 0, 72, 86
1, 295056, Note_off_c, 0, 69, 64
1, 295177, Note_off_c, 0, 72, 64
1, 295186, Note_off_c, 0, 53, 64
1, 295191, Note_off_c, 0, 57, 64
1, 295197, Note_on_c, 0, 71, 77
1, 295223, Note_off_c, 0, 67, 64
1, 295225, Note_off_c, 0, 60, 64
1, 295292, Note_off_c, 0, 71, 64
1, 295296, Note_on_c, 0, 69, 77
1, 295300, Note_on_c, 0, 59, 59
1, 295301, Note_on_c, 0, 55, 55
1, 295301, Note_on_c, 0, 62, 51
1, 295445, Note_on_c, 0, 67, 89
1, 295445, Note_off_c, 0, 69, 64
1, 295575, Note_off_c, 0, 62, 64
1, 295584, Note_on_c, 0, 69, 72
1, 295588, Note_off_c, 0, 59, 64
1, 295588, Note_off_c, 0, 67, 64
1, 295597, Note_off_c, 0, 55, 64
1, 295631, Note_on_c, 0, 52, 65
1, 295670, Note_off_c, 0, 52, 64
1, 295672, Note_on_c, 0, 62, 72
1, 295675, Note_on_c, 0, 55, 58
1, 295680, Note_on_c, 0, 45, 54
1, 295681, Note_on_c, 0, 63, 73
1, 295692, Note_off_c, 0, 62, 64
1, 295695, Note_off_c, 0, 63, 64
1, 295698, Note_on_c, 0, 64, 65
1, 295824, Note_off_c, 0, 64, 64
1, 295828, Note_on_c, 0, 62, 78
1, 295852, Note_off_c, 0, 62, 64
1, 295964, Note_on_c, 0, 60, 52
1, 295984, Note_off_c, 0, 69, 64
1, 296256, Note_on_c, 0, 52, 61
1, 296263, Note_off_c, 0, 60, 64
1, 296293, Note_off_c, 0, 55, 64
1, 296350, Note_on_c, 0, 60, 81
1, 296352, Note_off_c, 0, 45, 64
1, 296352, Note_on_c, 0, 57, 60
1, 296397, Note_on_c, 0, 62, 72
1, 296407, Note_off_c, 0, 60, 64
1, 296411, Note_off_c, 0, 57, 64
1, 296426, Note_off_c, 0, 52, 64
1, 296443, Note_off_c, 0, 62, 64
1, 296450, Note_on_c, 0, 45, 60
1, 296452, Note_on_c, 0, 57, 71
1, 296545, Note_on_c, 0, 48, 65
1, 296554, Note_off_c, 0, 57, 64
1, 296643, Note_on_c, 0, 52, 73
1, 296735, Note_on_c, 0, 69, 96
1, 296750, Note_off_c, 0, 52, 64
1, 296760, Note_off_c, 0, 48, 64
1, 296770, Note_off_c, 0, 45, 64
1, 296783, Note_on_c, 0, 71, 79
1, 296791, Note_off_c, 0, 69, 64
1, 296832, Note_on_c, 0, 38, 49
1, 296833, Note_on_c, 0, 41, 48
1, 296834, Note_on_c, 0, 45, 58
1, 296836, Note_on_c, 0, 72, 79
1, 296837, Note_off_c, 0, 71, 64
1, 296838, Note_on_c, 0, 65, 69
1, 296843, Note_on_c, 0, 48, 49
1, 296923, Note_off_c, 0, 41, 64
1, 296924, Note_off_c, 0, 38, 64
1, 296929, Note_on_c, 0, 74, 89
1, 296930, Note_off_c, 0, 45, 64
1, 296941, Note_off_c, 0, 72, 64
1, 296947, Note_off_c, 0, 48, 64
1, 297025, Note_on_c, 0, 40, 51
1, 297030, Note_on_c, 0, 47, 57
1, 297031, Note_on_c, 0, 44, 59
1, 297118, Note_off_c, 0, 40, 64
1, 297118, Note_off_c, 0, 44, 64
1, 297122, Note_on_c, 0, 71, 84
1, 297128, Note_off_c, 0, 47, 64
1, 297139, Note_off_c, 0, 74, 64
1, 297147, Note_off_c, 0, 65, 64
1, 297215, Note_on_c, 0, 64, 59
1, 297216, Note_on_c, 0, 52, 50
1, 297217, Note_on_c, 0, 45, 45
1, 297218, Note_on_c, 0, 48, 55
1, 297218, Note_on_c, 0, 72, 74
1, 297232, Note_off_c, 0, 71, 64
1, 297313, Note_off_c, 0, 64, 64
1, 297407, Note_on_c, 0, 64, 60
1, 297410, Note_on_c, 0, 60, 52
1, 297498, Note_off_c, 0, 52, 64
1, 297501, Note_off_c, 0, 48, 64
1, 297503, Note_off_c, 0, 64, 64
1, 297503, Note_on_c, 0, 65, 78
1, 297510, Note_off_c, 0, 45, 64
1, 297520, Note_off_c, 0, 72, 64
1, 297547, Note_on_c, 0, 67, 80
1, 297549, Note_off_c, 0, 65, 64
1, 297597, Note_off_c, 0, 67, 64
1, 297598, Note_on_c, 0, 38, 56
1, 297601, Note_on_c, 0, 45, 51
1, 297601, Note_on_c, 0, 69, 78
1, 297605, Note_on_c, 0, 53, 48
1, 297697, Note_off_c, 0, 38, 64
1, 297712, Note_off_c, 0, 45, 64
1, 297767, Note_off_c, 0, 53, 64
1, 297791, Note_on_c, 0, 52, 48
1, 297791, Note_on_c, 0, 68, 80
1, 297795, Note_on_c, 0, 40, 66
1, 297809, Note_off_c, 0, 69, 64
1, 297887, Note_on_c, 0, 69, 82
1, 297890, Note_off_c, 0, 68, 64
1, 297896, Note_off_c, 0, 40, 64
1, 297910, Note_off_c, 0, 69, 64
1, 297953, Note_off_c, 0, 52, 64
1, 297960, Note_off_c, 0, 60, 64
1, 297987, Note_on_c, 0, 52, 45
1, 297988, Note_on_c, 0, 64, 55
1, 297990, Note_on_c, 0, 48, 51
1, 297990, Note_on_c, 0, 60, 59
1, 297991, Note_on_c, 0, 45, 36
1, 297992, Note_on_c, 0, 57, 57
1, 298270, Note_off_c, 0, 48, 64
1, 298271, Note_off_c, 0, 52, 64
1, 298281, Note_off_c, 0, 45, 64
1, 298288, Note_off_c, 0, 60, 64
1, 298292, Note_off_c, 0, 64, 64
1, 298313, Note_off_c, 0, 57, 64
1, 298367, Note_on_c, 0, 57, 64
1, 298368, Note_on_c, 0, 45, 55
1, 298369, Note_on_c, 0, 53, 61
1, 298370, Note_on_c, 0, 38, 54
1, 298481, Note_off_c, 0, 38, 64
1, 298491, Note_off_c, 0, 45, 64
1, 298519, Note_off_c, 0, 53, 64
1, 298560, Note_on_c, 0, 40, 63
1, 298563, Note_on_c, 0, 55, 76
1, 298564, Note_off_c, 0, 57, 64
1, 298565, Note_on_c, 0, 47, 58
1, 298565, Note_on_c, 0, 59, 76
1, 298666, Note_off_c, 0, 55, 64
1, 298724, Note_off_c, 0, 59, 64
1, 298751, Note_on_c, 0, 57, 67
1, 298752, Note_on_c, 0, 52, 67
1, 298753, Note_off_c, 0, 40, 64
1, 298753, Note_off_c, 0, 47, 64
1, 298754, Note_on_c, 0, 60, 71
1, 298757, Note_on_c, 0, 45, 66
1, 299060, Note_off_c, 0, 52, 64
1, 299087, Note_off_c, 0, 57, 64
1, 299100, Note_off_c, 0, 60, 64
1, 299130, Note_off_c, 0, 45, 64
1, 299133, Note_on_c, 0, 57, 54
1, 299134, Note_on_c, 0, 53, 64
1, 299136, Note_on_c, 0, 38, 67
1, 299255, Note_off_c, 0, 57, 64
1, 299261, Note_off_c, 0, 53, 64
1, 299328, Note_on_c, 0, 40, 64
1, 299332, Note_on_c, 0, 55, 59
1, 299332, Note_on_c, 0, 59, 65
1, 299333, Note_on_c, 0, 52, 59
1, 299344, Note_off_c, 0, 38, 64
1, 299429, Note_off_c, 0, 55, 64
1, 299452, Note_off_c, 0, 52, 64
1, 299502, Note_off_c, 0, 40, 64
1, 299509, Note_off_c, 0, 59, 64
1, 299520, Note_on_c, 0, 64, 57
1, 299522, Note_on_c, 0, 69, 75
1, 299523, Note_on_c, 0, 57, 49
1, 299526, Note_on_c, 0, 60, 52
1, 299617, Note_off_c, 0, 69, 64
1, 299617, Note_on_c, 0, 76, 101
1, 299658, Note_off_c, 0, 76, 64
1, 299711, Note_on_c, 0, 74, 81
1, 299754, Note_off_c, 0, 74, 64
1, 299759, Note_on_c, 0, 72, 74
1, 299785, Note_off_c, 0, 72, 64
1, 299794, Note_off_c, 0, 60, 64
1, 299804, Note_off_c, 0, 64, 64
1, 299809, Note_on_c, 0, 71, 80
1, 299813, Note_off_c, 0, 57, 64
1, 299840, Note_off_c, 0, 71, 64
1, 299855, Note_on_c, 0, 72, 63
1, 299899, Note_off_c, 0, 72, 64
1, 299904, Note_on_c, 0, 62, 58
1, 299906, Note_on_c, 0, 69, 76
1, 299909, Note_on_c, 0, 57, 44
1, 299910, Note_on_c, 0, 65, 55
1, 299997, Note_on_c, 0, 72, 85
1, 299998, Note_off_c, 0, 62, 64
1, 300002, Note_off_c, 0, 69, 64
1, 300006, Note_off_c, 0, 57, 64
1, 300015, Note_off_c, 0, 65, 64
1, 300051, Note_off_c, 0, 72, 64
1, 300096, Note_on_c, 0, 59, 57
1, 300100, Note_on_c, 0, 64, 58
1, 300101, Note_on_c, 0, 71, 79
1, 300103, Note_on_c, 0, 56, 55
1, 300190, Note_off_c, 0, 71, 64
1, 300192, Note_off_c, 0, 56, 64
1, 300192, Note_on_c, 0, 68, 75
1, 300201, Note_off_c, 0, 59, 64
1, 300212, Note_off_c, 0, 64, 64
1, 300287, Note_on_c, 0, 64, 56
1, 300288, Note_on_c, 0, 57, 48
1, 300288, Note_on_c, 0, 60, 63
1, 300288, Note_off_c, 0, 68, 64
1, 300289, Note_on_c, 0, 69, 85
1, 300381, Note_on_c, 0, 76, 103
1, 300423, Note_off_c, 0, 76, 64
1, 300456, Note_off_c, 0, 69, 64
1, 300477, Note_on_c, 0, 74, 106
1, 300499, Note_off_c, 0, 74, 64
1, 300526, Note_on_c, 0, 74, 82
1, 300536, Note_off_c, 0, 60, 64
1, 300537, Note_off_c, 0, 74, 64
1, 300539, Note_off_c, 0, 64, 64
1, 300540, Note_on_c, 0, 76, 84
1, 300553, Note_off_c, 0, 57, 64
1, 300555, Note_on_c, 0, 74, 85
1, 300564, Note_off_c, 0, 76, 64
1, 300572, Note_off_c, 0, 74, 64
1, 300576, Note_on_c, 0, 72, 92
1, 300620, Note_off_c, 0, 72, 64
1, 300622, Note_on_c, 0, 74, 86
1, 300667, Note_off_c, 0, 74, 64
1, 300668, Note_on_c, 0, 57, 49
1, 300670, Note_on_c, 0, 62, 60
1, 300670, Note_on_c, 0, 77, 84
1, 300672, Note_on_c, 0, 65, 56
1, 300757, Note_off_c, 0, 57, 64
1, 300761, Note_off_c, 0, 62, 64
1, 300762, Note_off_c, 0, 65, 64
1, 300766, Note_on_c, 0, 72, 88
1, 300779, Note_off_c, 0, 77, 64
1, 300806, Note_off_c, 0, 72, 64
1, 300859, Note_on_c, 0, 59, 56
1, 300862, Note_on_c, 0, 56, 51
1, 300863, Note_on_c, 0, 64, 55
1, 300864, Note_on_c, 0, 71, 84
1, 300948, Note_off_c, 0, 56, 64
1, 300952, Note_off_c, 0, 59, 64
1, 300956, Note_off_c, 0, 71, 64
1, 300958, Note_on_c, 0, 72, 76
1, 300968, Note_off_c, 0, 64, 64
1, 301002, Note_off_c, 0, 72, 64
1, 301056, Note_on_c, 0, 26, 82
1, 301056, Note_on_c, 0, 38, 76
1, 301056, Note_on_c, 0, 41, 78
1, 301056, Note_on_c, 0, 45, 95
1, 301056, Note_on_c, 0, 48, 81
1, 301056, Note_on_c, 0, 57, 90
1, 301092, Note_off_c, 0, 57, 73
1, 301152, Note_on_c, 0, 57, 90
1, 301189, Note_off_c, 0, 57, 60
1, 301247, Note_off_c, 0, 26, 70
1, 301247, Note_off_c, 0, 38, 67
1, 301247, Note_off_c, 0, 41, 42
1, 301247, Note_off_c, 0, 45, 48
1, 301247, Note_off_c, 0, 48, 20
1, 301248, Note_on_c, 0, 28, 90
1, 301248, Note_on_c, 0, 40, 86
1, 301248, Note_on_c, 0, 43, 82
1, 301248, Note_on_c, 0, 47, 103
1, 301248, Note_on_c, 0, 50, 92
1, 301248, Note_on_c, 0, 57, 74
1, 301294, Note_off_c, 0, 57, 47
1, 301344, Note_on_c, 0, 57, 80
1, 301390, Note_off_c, 0, 57, 63
1, 301439, Note_off_c, 0, 28, 67
1, 301439, Note_off_c, 0, 40, 82
1, 301439, Note_off_c, 0, 43, 65
1, 301439, Note_off_c, 0, 47, 60
1, 301439, Note_off_c, 0, 50, 39
1, 301440, Note_on_c, 0, 29, 81
1, 301440, Note_on_c, 0, 41, 103
1, 301440, Note_on_c, 0, 45, 90
1, 301440, Note_on_c, 0, 48, 91
1, 301440, Note_on_c, 0, 52, 90
1, 301440, Note_on_c, 0, 57, 73
1, 301486, Note_off_c, 0, 57, 56
1, 301536, Note_on_c, 0, 57, 76
1, 301584, Note_off_c, 0, 57, 58
1, 301632, Note_on_c, 0, 57, 71
1, 301679, Note_off_c, 0, 57, 60
1, 301728, Note_on_c, 0, 57, 73
1, 301777, Note_off_c, 0, 57, 63
1, 301823, Note_off_c, 0, 29, 48
1, 301823, Note_off_c, 0, 41, 67
1, 301823, Note_off_c, 0, 45, 76
1, 301823, Note_off_c, 0, 48, 10
1, 301823, Note_off_c, 0, 52, 46
1, 301824, Note_on_c, 0, 29, 81
1, 301824, Note_on_c, 0, 41, 103
1, 301824, Note_on_c, 0, 45, 90
1, 301824, Note_on_c, 0, 48, 91
1, 301824, Note_on_c, 0, 52, 90
1, 301824, Note_on_c, 0, 55, 80
1, 301824, Note_on_c, 0, 57, 74
1, 301873, Note_off_c, 0, 57, 59
1, 301920, Note_on_c, 0, 57, 71
1, 301969, Note_off_c, 0, 57, 54
1, 302016, Note_on_c, 0, 57, 73
1, 302069, Note_off_c, 0, 57, 57
1, 302112, Note_on_c, 0, 57, 70
1, 302161, Note_off_c, 0, 57, 53
1, 302207, Note_off_c, 0, 29, 48
1, 302207, Note_off_c, 0, 41, 67
1, 302207, Note_off_c, 0, 45, 76
1, 302207, Note_off_c, 0, 48, 10
1, 302207, Note_off_c, 0, 52, 46
1, 302207, Note_off_c, 0, 55, 57
1, 302208, Note_on_c, 0, 31, 57
1, 302208, Note_on_c, 0, 43, 62
1, 302208, Note_on_c, 0, 45, 90
1, 302208, Note_on_c, 0, 47, 32
1, 302208, Note_on_c, 0, 50, 68
1, 302208, Note_on_c, 0, 55, 80
1, 302208, Note_on_c, 0, 57, 77
1, 302255, Note_off_c, 0, 57, 56
1, 302304, Note_on_c, 0, 57, 73
1, 302351, Note_off_c, 0, 57, 54
1, 302400, Note_on_c, 0, 57, 73
1, 302451, Note_off_c, 0, 57, 57
1, 302496, Note_on_c, 0, 57, 63
1, 302543, Note_off_c, 0, 57, 48
1, 302591, Note_off_c, 0, 31, 67
1, 302591, Note_off_c, 0, 43, 55
1, 302591, Note_off_c, 0, 45, 76
1, 302591, Note_off_c, 0, 47, 51
1, 302591, Note_off_c, 0, 50, 85
1, 302591, Note_off_c, 0, 55, 57
1, 302592, Pitch_bend_c, 0, 8192
1, 302592, Note_on_c, 0, 45, 127
1, 302592, Note_on_c, 0, 57, 127
1, 302592, Note_on_c, 0, 60, 127
1, 302592, Note_on_c, 0, 64, 127
1, 302592, Note_on_c, 0, 69, 127
1, 302639, Note_off_c, 0, 45, 64
1, 302639, Note_off_c, 0, 57, 64
1, 302639, Note_off_c, 0, 60, 64
1, 302639, Note_off_c, 0, 64, 64
1, 302639, Note_off_c, 0, 69, 64
1, 302640, Note_on_c, 0, 45, 127
1, 302640, Note_on_c, 0, 57, 127
1, 302640, Note_on_c, 0, 60, 127
1, 302640, Note_on_c, 0, 64, 127
1, 302640, Note_on_c, 0, 69, 127
1, 302688, Note_off_c, 0, 45, 64
1, 302688, Note_off_c, 0, 57, 64
1, 302688, Note_off_c, 0, 60, 64
1, 302688, Note_off_c, 0, 64, 64
1, 302688, Note_off_c, 0, 69, 64
1, 302784, Note_on_c, 0, 45, 127
1, 302784, Note_off_c, 0, 45, 64
1, 302784, Note_on_c, 0, 57, 127
1, 302784, Note_off_c, 0, 57, 64
1, 302784, Note_on_c, 0, 60, 127
1, 302784, Note_off_c, 0, 60, 64
1, 302784, Note_on_c, 0, 64, 127
1, 302784, Note_off_c, 0, 64, 64
1, 302784, Note_on_c, 0, 69, 127
1, 302784, Note_off_c, 0, 69, 64
1, 302832, Note_on_c, 0, 69, 127
1, 302832, Note_off_c, 0, 69, 64
1, 302880, Note_on_c, 0, 69, 127
1, 302880, Note_off_c, 0, 69, 64
1, 302928, Note_on_c, 0, 69, 127
1, 302928, Note_off_c, 0, 69, 64
1, 302976, Note_on_c, 0, 41, 127
1, 302976, Note_on_c, 0, 57, 127
1, 302976, Note_off_c, 0, 57, 64
1, 302976, Note_on_c, 0, 60, 127
1, 302976, Note_off_c, 0, 60, 64
1, 302976, Note_on_c, 0, 65, 127
1, 303023, Note_off_c, 0, 65, 64
1, 303024, Note_on_c, 0, 65, 127
1, 303071, Note_off_c, 0, 65, 64
1, 303072, Note_on_c, 0, 65, 127
1, 303119, Note_off_c, 0, 65, 64
1, 303120, Note_on_c, 0, 65, 127
1, 303167, Note_off_c, 0, 65, 64
1, 303168, Note_on_c, 0, 65, 127
1, 303215, Note_off_c, 0, 65, 64
1, 303216, Note_on_c, 0, 65, 127
1, 303264, Note_off_c, 0, 41, 64
1, 303264, Note_on_c, 0, 53, 127
1, 303264, Note_off_c, 0, 65, 64
1, 303264, Note_on_c, 0, 77, 127
1, 303360, Note_on_c, 0, 48, 127
1, 303360, Note_off_c, 0, 53, 64
1, 303360, Note_on_c, 0, 55, 127
1, 303360, Note_on_c, 0, 60, 127
1, 303360, Note_on_c, 0, 64, 127
1, 303360, Note_on_c, 0, 72, 127
1, 303360, Note_on_c, 0, 76, 127
1, 303360, Note_off_c, 0, 77, 64
1, 303407, Note_off_c, 0, 48, 64
1, 303407, Note_off_c, 0, 55, 64
1, 303407, Note_off_c, 0, 60, 64
1, 303407, Note_off_c, 0, 64, 64
1, 303407, Note_off_c, 0, 72, 64
1, 303408, Note_on_c, 0, 48, 127
1, 303408, Note_on_c, 0, 55, 127
1, 303408, Note_on_c, 0, 60, 127
1, 303408, Note_on_c, 0, 64, 127
1, 303408, Note_on_c, 0, 72, 127
1, 303456, Note_off_c, 0, 48, 64
1, 303456, Note_off_c, 0, 55, 64
1, 303456, Note_off_c, 0, 60, 64
1, 303456, Note_off_c, 0, 64, 64
1, 303456, Note_off_c, 0, 72, 64
1, 303552, Note_on_c, 0, 48, 127
1, 303552, Note_off_c, 0, 48, 64
1, 303552, Note_on_c, 0, 55, 127
1, 303552, Note_off_c, 0, 55, 64
1, 303552, Note_on_c, 0, 60, 127
1, 303552, Note_off_c, 0, 60, 64
1, 303552, Note_on_c, 0, 64, 127
1, 303552, Note_off_c, 0, 64, 64
1, 303552, Note_on_c, 0, 72, 127
1, 303552, Note_off_c, 0, 72, 64
1, 303600, Note_on_c, 0, 72, 127
1, 303600, Note_off_c, 0, 72, 64
1, 303648, Note_on_c, 0, 72, 127
1, 303648, Note_off_c, 0, 72, 64
1, 303696, Note_on_c, 0, 72, 127
1, 303696, Note_off_c, 0, 72, 64
1, 303744, Note_on_c, 0, 43, 127
1, 303744, Note_on_c, 0, 55, 127
1, 303744, Note_off_c, 0, 55, 64
1, 303744, Note_on_c, 0, 59, 127
1, 303744, Note_on_c, 0, 62, 127
1, 303744, Note_on_c, 0, 67, 127
1, 303744, Note_on_c, 0, 74, 127
1, 303744, Note_off_c, 0, 76, 64
1, 303791, Note_off_c, 0, 67, 64
1, 303792, Note_on_c, 0, 67, 127
1, 303839, Note_off_c, 0, 67, 64
1, 303840, Note_on_c, 0, 67, 127
1, 303887, Note_off_c, 0, 67, 64
1, 303888, Note_on_c, 0, 67, 127
1, 303935, Note_off_c, 0, 67, 64
1, 303936, Note_on_c, 0, 67, 127
1, 303983, Note_off_c, 0, 67, 64
1, 303984, Note_on_c, 0, 67, 127
1, 304032, Note_off_c, 0, 43, 64
1, 304032, Note_off_c, 0, 59, 64
1, 304032, Note_off_c, 0, 62, 64
1, 304032, Note_off_c, 0, 67, 64
1, 304032, Note_off_c, 0, 74, 64
1, 304128, Note_on_c, 0, 29, 100
1, 304128, Note_on_c, 0, 41, 100
1, 304128, Note_on_c, 0, 48, 100
1, 304128, Note_on_c, 0, 57, 100
1, 304128, Note_on_c, 0, 60, 100
1, 304128, Note_on_c, 0, 72, 100
1, 304176, Note_off_c, 0, 29, 64
1, 304176, Note_on_c, 0, 29, 100
1, 304176, Note_off_c, 0, 60, 64
1, 304224, Note_off_c, 0, 29, 64
1, 304224, Note_on_c, 0, 29, 100
1, 304224, Note_on_c, 0, 60, 100
1, 304272, Note_off_c, 0, 29, 64
1, 304272, Note_on_c, 0, 29, 100
1, 304272, Note_off_c, 0, 60, 64
1, 304320, Note_off_c, 0, 29, 64
1, 304320, Note_off_c, 0, 41, 64
1, 304320, Note_off_c, 0, 48, 64
1, 304320, Note_on_c, 0, 53, 100
1, 304320, Note_off_c, 0, 57, 64
1, 304320, Note_off_c, 0, 72, 64
1, 304416, Note_on_c, 0, 33, 100
1, 304416, Note_on_c, 0, 45, 100
1, 304416, Note_on_c, 0, 52, 100
1, 304416, Note_off_c, 0, 53, 64
1, 304416, Note_on_c, 0, 60, 100
1, 304416, Note_on_c, 0, 64, 100
1, 304416, Note_on_c, 0, 76, 100
1, 304464, Note_off_c, 0, 33, 64
1, 304464, Note_on_c, 0, 33, 100
1, 304464, Note_off_c, 0, 64, 64
1, 304512, Note_off_c, 0, 33, 64
1, 304512, Note_on_c, 0, 33, 100
1, 304512, Note_on_c, 0, 64, 100
1, 304560, Note_off_c, 0, 33, 64
1, 304560, Note_on_c, 0, 33, 100
1, 304560, Note_off_c, 0, 64, 64
1, 304608, Note_off_c, 0, 33, 64
1, 304608, Note_on_c, 0, 33, 100
1, 304608, Note_on_c, 0, 64, 100
1, 304656, Note_off_c, 0, 33, 64
1, 304656, Note_on_c, 0, 33, 100
1, 304656, Note_off_c, 0, 64, 64
1, 304704, Note_off_c, 0, 33, 64
1, 304704, Note_off_c, 0, 45, 64
1, 304704, Note_off_c, 0, 52, 64
1, 304704, Note_off_c, 0, 60, 64
1, 304704, Note_off_c, 0, 76, 64
1, 304896, Note_on_c, 0, 36, 100
1, 304896, Note_on_c, 0, 48, 100
1, 304896, Note_on_c, 0, 55, 100
1, 304896, Note_on_c, 0, 64, 100
1, 304896, Note_on_c, 0, 67, 100
1, 304896, Note_on_c, 0, 79, 100
1, 304944, Note_off_c, 0, 36, 64
1, 304944, Note_on_c, 0, 36, 100
1, 304944, Note_off_c, 0, 67, 64
1, 304992, Note_off_c, 0, 36, 64
1, 304992, Note_on_c, 0, 36, 100
1, 304992, Note_on_c, 0, 67, 100
1, 305040, Note_off_c, 0, 36, 64
1, 305040, Note_on_c, 0, 36, 100
1, 305040, Note_off_c, 0, 67, 64
1, 305088, Note_off_c, 0, 36, 64
1, 305088, Note_off_c, 0, 48, 64
1, 305088, Note_off_c, 0, 55, 64
1, 305088, Note_off_c, 0, 64, 64
1, 305088, Note_off_c, 0, 79, 64
1, 305184, Note_on_c, 0, 31, 100
1, 305184, Note_on_c, 0, 43, 100
1, 305184, Note_on_c, 0, 50, 100
1, 305184, Note_on_c, 0, 59, 100
1, 305184, Note_on_c, 0, 62, 100
1, 305184, Note_on_c, 0, 74, 100
1, 305232, Note_off_c, 0, 31, 64
1, 305232, Note_on_c, 0, 31, 100
1, 305232, Note_off_c, 0, 62, 64
1, 305280, Note_off_c, 0, 31, 64
1, 305280, Note_on_c, 0, 31, 100
1, 305280, Note_on_c, 0, 62, 100
1, 305328, Note_off_c, 0, 31, 64
1, 305328, Note_on_c, 0, 31, 100
1, 305328, Note_off_c, 0, 62, 64
1, 305376, Note_off_c, 0, 31, 64
1, 305376, Note_on_c, 0, 31, 100
1, 305376, Note_on_c, 0, 62, 100
1, 305424, Note_off_c, 0, 31, 64
1, 305424, Note_on_c, 0, 31, 100
1, 305424, Note_off_c, 0, 62, 64
1, 305472, Note_off_c, 0, 31, 64
1, 305472, Note_off_c, 0, 43, 64
1, 305472, Note_off_c, 0, 50, 64
1, 305472, Note_off_c, 0, 59, 64
1, 305472, Note_off_c, 0, 74, 64
1, 305568, Note_on_c, 0, 31, 100
1, 305664, Note_off_c, 0, 31, 64
1, 305664, Note_on_c, 0, 31, 100
1, 305664, Note_on_c, 0, 47, 100
1, 305664, Note_on_c, 0, 50, 100
1, 305664, Note_on_c, 0, 55, 100
1, 305688, Note_off_c, 0, 55, 127
1, 305688, Note_on_c, 0, 71, 100
1, 305712, Note_off_c, 0, 71, 127
1, 305712, Note_on_c, 0, 72, 100
1, 305736, Note_off_c, 0, 72, 127
1, 305736, Note_on_c, 0, 79, 100
1, 305760, Note_on_c, 0, 72, 100
1, 305760, Note_off_c, 0, 79, 127
1, 305784, Note_on_c, 0, 67, 100
1, 305784, Note_off_c, 0, 72, 127
1, 305808, Note_off_c, 0, 31, 127
1, 305808, Note_on_c, 0, 33, 100
1, 305808, Note_off_c, 0, 47, 64
1, 305808, Note_on_c, 0, 48, 100
1, 305808, Note_off_c, 0, 50, 64
1, 305808, Note_on_c, 0, 52, 100
1, 305808, Note_on_c, 0, 55, 100
1, 305808, Note_off_c, 0, 67, 127
1, 305832, Note_off_c, 0, 55, 127
1, 305832, Note_on_c, 0, 71, 100
1, 305856, Note_on_c, 0, 55, 100
1, 305856, Note_off_c, 0, 71, 127
1, 305880, Note_off_c, 0, 55, 127
1, 305880, Note_on_c, 0, 71, 100
1, 305904, Note_off_c, 0, 71, 127
1, 305904, Note_on_c, 0, 72, 100
1, 305928, Note_off_c, 0, 72, 127
1, 305928, Note_on_c, 0, 79, 100
1, 305952, Note_on_c, 0, 72, 100
1, 305952, Note_off_c, 0, 79, 127
1, 305976, Note_on_c, 0, 60, 100
1, 305976, Note_off_c, 0, 72, 127
1, 306000, Note_on_c, 0, 29, 100
1, 306000, Note_off_c, 0, 33, 127
1, 306000, Note_on_c, 0, 45, 100
1, 306000, Note_off_c, 0, 48, 64
1, 306000, Note_on_c, 0, 48, 100
1, 306000, Note_off_c, 0, 52, 64
1, 306000, Note_on_c, 0, 55, 100
1, 306000, Note_off_c, 0, 60, 127
1, 306024, Note_off_c, 0, 55, 127
1, 306024, Note_on_c, 0, 60, 100
1, 306048, Note_on_c, 0, 55, 100
1, 306048, Note_off_c, 0, 60, 127
1, 306072, Note_off_c, 0, 55, 127
1, 306072, Note_on_c, 0, 71, 100
1, 306096, Note_off_c, 0, 71, 127
1, 306096, Note_on_c, 0, 72, 100
1, 306120, Note_off_c, 0, 72, 127
1, 306120, Note_on_c, 0, 79, 100
1, 306144, Note_on_c, 0, 72, 100
1, 306144, Note_off_c, 0, 79, 127
1, 306168, Note_on_c, 0, 71, 100
1, 306168, Note_off_c, 0, 72, 127
1, 306192, Note_on_c, 0, 55, 100
1, 306192, Note_off_c, 0, 71, 127
1, 306216, Note_off_c, 0, 55, 127
1, 306216, Note_on_c, 0, 60, 100
1, 306240, Note_off_c, 0, 60, 127
1, 306240, Note_on_c, 0, 60, 100
1, 306264, Note_off_c, 0, 60, 127
1, 306264, Note_on_c, 0, 71, 100
1, 306288, Note_off_c, 0, 71, 127
1, 306288, Note_on_c, 0, 72, 100
1, 306312, Note_off_c, 0, 72, 127
1, 306312, Note_on_c, 0, 79, 100
1, 306336, Note_on_c, 0, 72, 100
1, 306336, Note_off_c, 0, 79, 127
1, 306360, Note_on_c, 0, 67, 100
1, 306360, Note_off_c, 0, 72, 127
1, 306384, Note_off_c, 0, 29, 49
1, 306384, Note_on_c, 0, 31, 100
1, 306384, Note_off_c, 0, 45, 64
1, 306384, Note_on_c, 0, 47, 100
1, 306384, Note_off_c, 0, 48, 64
1, 306384, Note_on_c, 0, 50, 100
1, 306384, Note_on_c, 0, 55, 100
1, 306384, Note_off_c, 0, 67, 127
1, 306408, Note_off_c, 0, 55, 127
1, 306408, Note_on_c, 0, 59, 100
1, 306432, Note_off_c, 0, 59, 127
1, 306432, Note_on_c, 0, 60, 100
1, 306456, Note_off_c, 0, 60, 127
1, 306456, Note_on_c, 0, 71, 100
1, 306480, Note_off_c, 0, 71, 127
1, 306480, Note_on_c, 0, 72, 100
1, 306504, Note_off_c, 0, 72, 127
1, 306504, Note_on_c, 0, 79, 100
1, 306528, Note_on_c, 0, 72, 100
1, 306528, Note_off_c, 0, 79, 127
1, 306552, Note_on_c, 0, 71, 100
1, 306552, Note_off_c, 0, 72, 127
1, 306576, Note_off_c, 0, 31, 127
1, 306576, Note_on_c, 0, 33, 100
1, 306576, Note_off_c, 0, 47, 64
1, 306576, Note_on_c, 0, 48, 100
1, 306576, Note_off_c, 0, 50, 64
1, 306576, Note_on_c, 0, 52, 100
1, 306576, Note_on_c, 0, 60, 100
1, 306576, Note_off_c, 0, 71, 127
1, 306600, Note_off_c, 0, 60, 127
1, 306600, Note_on_c, 0, 67, 100
1, 306624, Note_on_c, 0, 60, 100
1, 306624, Note_off_c, 0, 67, 127
1, 306648, Note_off_c, 0, 60, 127
1, 306648, Note_on_c, 0, 71, 100
1, 306672, Note_off_c, 0, 71, 127
1, 306672, Note_on_c, 0, 72, 100
1, 306696, Note_off_c, 0, 72, 127
1, 306696, Note_on_c, 0, 79, 100
1, 306720, Note_on_c, 0, 72, 100
1, 306720, Note_off_c, 0, 79, 127
1, 306744, Note_on_c, 0, 67, 100
1, 306744, Note_off_c, 0, 72, 127
1, 306768, Note_on_c, 0, 29, 100
1, 306768, Note_off_c, 0, 33, 127
1, 306768, Note_on_c, 0, 45, 100
1, 306768, Note_off_c, 0, 48, 64
1, 306768, Note_on_c, 0, 48, 100
1, 306768, Note_off_c, 0, 52, 64
1, 306768, Note_on_c, 0, 60, 100
1, 306768, Note_off_c, 0, 67, 127
1, 306792, Note_on_c, 0, 55, 100
1, 306792, Note_off_c, 0, 60, 127
1, 306816, Note_off_c, 0, 55, 127
1, 306816, Note_on_c, 0, 55, 100
1, 306840, Note_off_c, 0, 55, 127
1, 306840, Note_on_c, 0, 71, 100
1, 306864, Note_off_c, 0, 71, 127
1, 306864, Note_on_c, 0, 72, 100
1, 306888, Note_off_c, 0, 72, 127
1, 306888, Note_on_c, 0, 79, 100
1, 306912, Note_on_c, 0, 72, 100
1, 306912, Note_off_c, 0, 79, 127
1, 306936, Note_on_c, 0, 71, 100
1, 306936, Note_off_c, 0, 72, 127
1, 306960, Note_on_c, 0, 55, 100
1, 306960, Note_off_c, 0, 71, 127
1, 306984, Note_off_c, 0, 55, 127
1, 306984, Note_on_c, 0, 60, 100
1, 307008, Note_on_c, 0, 55, 100
1, 307008, Note_off_c, 0, 60, 127
1, 307032, Note_off_c, 0, 55, 127
1, 307032, Note_on_c, 0, 71, 100
1, 307056, Note_off_c, 0, 71, 127
1, 307056, Note_on_c, 0, 72, 100
1, 307080, Note_off_c, 0, 72, 127
1, 307080, Note_on_c, 0, 79, 100
1, 307104, Note_on_c, 0, 72, 100
1, 307104, Note_off_c, 0, 79, 127
1, 307128, Note_on_c, 0, 71, 100
1, 307128, Note_off_c, 0, 72, 127
1, 307152, Note_off_c, 0, 45, 64
1, 307152, Note_off_c, 0, 48, 64
1, 307152, Note_on_c, 0, 55, 100
1, 307152, Note_off_c, 0, 71, 127
1, 307176, Note_off_c, 0, 55, 127
1, 307176, Note_on_c, 0, 55, 100
1, 307200, Note_off_c, 0, 29, 49
1, 307200, Note_on_c, 0, 38, 100
1, 307200, Note_off_c, 0, 55, 127
1, 307200, Note_on_c, 0, 64, 100
1, 307247, Note_off_c, 0, 64, 64
1, 307247, Note_on_c, 0, 65, 100
1, 307296, Note_on_c, 0, 64, 100
1, 307296, Note_off_c, 0, 65, 64
1, 307343, Note_off_c, 0, 64, 64
1, 307343, Note_on_c, 0, 65, 100
1, 307392, Note_on_c, 0, 64, 100
1, 307392, Note_off_c, 0, 65, 64
1, 307439, Note_off_c, 0, 64, 64
1, 307439, Note_on_c, 0, 65, 100
1, 307488, Note_on_c, 0, 64, 100
1, 307488, Note_off_c, 0, 65, 64
1, 307535, Note_off_c, 0, 64, 64
1, 307535, Note_on_c, 0, 65, 100
1, 307584, Note_off_c, 0, 38, 64
1, 307584, Note_on_c, 0, 40, 100
1, 307584, Note_off_c, 0, 65, 64
1, 307584, Note_on_c, 0, 67, 100
1, 307631, Note_on_c, 0, 65, 100
1, 307631, Note_off_c, 0, 67, 64
1, 307680, Note_off_c, 0, 65, 64
1, 307680, Note_on_c, 0, 67, 100
1, 307727, Note_on_c, 0, 65, 100
1, 307727, Note_off_c, 0, 67, 64
1, 307776, Note_off_c, 0, 65, 64
1, 307776, Note_on_c, 0, 67, 100
1, 307823, Note_on_c, 0, 65, 100
1, 307823, Note_off_c, 0, 67, 64
1, 307872, Note_off_c, 0, 65, 64
1, 307872, Note_on_c, 0, 67, 100
1, 307919, Note_on_c, 0, 65, 100
1, 307919, Note_off_c, 0, 67, 64
1, 307968, Note_off_c, 0, 40, 64
1, 307968, Note_on_c, 0, 41, 100
1, 307968, Note_off_c, 0, 65, 64
1, 307968, Note_on_c, 0, 67, 100
1, 308015, Note_off_c, 0, 67, 64
1, 308015, Note_on_c, 0, 69, 100
1, 308064, Note_on_c, 0, 67, 100
1, 308064, Note_off_c, 0, 69, 64
1, 308111, Note_off_c, 0, 67, 64
1, 308111, Note_on_c, 0, 69, 100
1, 308160, Note_on_c, 0, 67, 100
1, 308160, Note_off_c, 0, 69, 64
1, 308207, Note_off_c, 0, 67, 64
1, 308207, Note_on_c, 0, 69, 100
1, 308256, Note_on_c, 0, 67, 100
1, 308256, Note_off_c, 0, 69, 64
1, 308303, Note_off_c, 0, 67, 64
1, 308303, Note_on_c, 0, 69, 100
1, 308352, Note_off_c, 0, 41, 64
1, 308352, Note_on_c, 0, 45, 100
1, 308352, Note_off_c, 0, 69, 64
1, 308352, Note_on_c, 0, 71, 100
1, 308399, Note_off_c, 0, 71, 64
1, 308399, Note_on_c, 0, 72, 100
1, 308448, Note_on_c, 0, 71, 100
1, 308448, Note_off_c, 0, 72, 64
1, 308495, Note_on_c, 0, 43, 100
1, 308495, Note_off_c, 0, 45, 64
1, 308495, Note_off_c, 0, 71, 64
1, 308495, Note_on_c, 0, 72, 100
1, 308544, Note_on_c, 0, 71, 100
1, 308544, Note_off_c, 0, 72, 64
1, 308591, Note_off_c, 0, 71, 64
1, 308591, Note_on_c, 0, 72, 100
1, 308640, Note_on_c, 0, 71, 100
1, 308640, Note_off_c, 0, 72, 64
1, 308687, Note_off_c, 0, 71, 64
1, 308688, Note_on_c, 0, 72, 100
1, 308735, Note_off_c, 0, 72, 64
1, 308736, Note_off_c, 0, 43, 64
1, 308736, Note_on_c, 0, 53, 73
1, 308736, Note_on_c, 0, 60, 73
1, 308736, Note_on_c, 0, 67, 73
1, 308784, Note_off_c, 0, 53, 64
1, 308784, Note_off_c, 0, 60, 64
1, 308784, Note_off_c, 0, 67, 64
1, 308832, Note_on_c, 0, 64, 73
1, 308880, Note_off_c, 0, 64, 64
1, 308904, Note_on_c, 0, 53, 73
1, 308904, Note_on_c, 0, 60, 73
1, 308904, Note_on_c, 0, 62, 73
1, 308904, Note_on_c, 0, 64, 73
1, 308928, Note_off_c, 0, 53, 64
1, 308928, Note_off_c, 0, 60, 64
1, 308928, Note_off_c, 0, 62, 64
1, 308928, Note_off_c, 0, 64, 64
1, 309024, Note_on_c, 0, 55, 73
1, 309024, Note_on_c, 0, 62, 73
1, 309024, Note_on_c, 0, 67, 73
1, 309072, Note_on_c, 0, 71, 73
1, 309120, Note_off_c, 0, 55, 64
1, 309120, Note_on_c, 0, 57, 73
1, 309120, Note_off_c, 0, 62, 64
1, 309120, Note_on_c, 0, 64, 73
1, 309120, Note_off_c, 0, 67, 64
1, 309120, Note_off_c, 0, 71, 64
1, 309120, Note_on_c, 0, 72, 73
1, 309168, Note_off_c, 0, 57, 64
1, 309168, Note_off_c, 0, 64, 64
1, 309168, Note_off_c, 0, 72, 64
1, 309216, Note_on_c, 0, 71, 73
1, 309264, Note_off_c, 0, 71, 64
1, 309288, Note_on_c, 0, 57, 73
1, 309288, Note_on_c, 0, 60, 73
1, 309288, Note_on_c, 0, 64, 73
1, 309288, Note_on_c, 0, 69, 73
1, 309288, Note_on_c, 0, 71, 73
1, 309288, Note_on_c, 0, 72, 73
1, 309312, Note_off_c, 0, 57, 64
1, 309312, Note_off_c, 0, 60, 64
1, 309312, Note_off_c, 0, 64, 64
1, 309312, Note_off_c, 0, 69, 64
1, 309312, Note_off_c, 0, 71, 64
1, 309312, Note_off_c, 0, 72, 64
1, 309408, Note_on_c, 0, 69, 73
1, 309420, Note_on_c, 0, 72, 73
1, 309432, Note_off_c, 0, 69, 64
1, 309432, Note_on_c, 0, 76, 73
1, 309444, Note_off_c, 0, 72, 64
1, 309456, Note_off_c, 0, 76, 64
1, 309504, Note_on_c, 0, 60, 73
1, 309504, Note_on_c, 0, 64, 73
1, 309504, Note_on_c, 0, 67, 73
1, 309504, Note_on_c, 0, 72, 73
1, 309504, Note_off_c, 0, 72, 64
1, 309504, Note_on_c, 0, 76, 73
1, 309552, Note_off_c, 0, 60, 64
1, 309552, Note_off_c, 0, 64, 64
1, 309552, Note_off_c, 0, 67, 64
1, 309552, Note_off_c, 0, 76, 64
1, 309648, Note_on_c, 0, 60, 73
1, 309648, Note_on_c, 0, 64, 73
1, 309648, Note_on_c, 0, 67, 73
1, 309648, Note_on_c, 0, 71, 73
1, 309648, Note_on_c, 0, 72, 73
1, 309696, Note_off_c, 0, 60, 64
1, 309696, Note_off_c, 0, 64, 64
1, 309696, Note_off_c, 0, 67, 64
1, 309696, Note_off_c, 0, 71, 64
1, 309696, Note_off_c, 0, 72, 64
1, 309792, Note_on_c, 0, 59, 73
1, 309792, Note_on_c, 0, 64, 73
1, 309792, Note_on_c, 0, 67, 73
1, 309792, Note_on_c, 0, 71, 73
1, 309792, Note_on_c, 0, 74, 73
1, 309792, Note_on_c, 0, 76, 73
1, 309792, Note_on_c, 0, 79, 72
1, 309840, Note_off_c, 0, 59, 64
1, 309840, Note_off_c, 0, 64, 64
1, 309840, Note_off_c, 0, 67, 64
1, 309840, Note_on_c, 0, 69, 73
1, 309840, Note_off_c, 0, 71, 64
1, 309840, Note_off_c, 0, 74, 64
1, 309840, Note_off_c, 0, 76, 64
1, 309840, Note_off_c, 0, 79, 64
1, 309888, Note_on_c, 0, 57, 73
1, 309888, Note_on_c, 0, 64, 73
1, 309888, Note_off_c, 0, 69, 64
1, 309888, Note_on_c, 0, 72, 73
1, 309960, Note_on_c, 0, 71, 73
1, 310032, Note_off_c, 0, 57, 64
1, 310032, Note_on_c, 0, 57, 73
1, 310032, Note_on_c, 0, 60, 73
1, 310032, Note_off_c, 0, 64, 64
1, 310032, Note_on_c, 0, 64, 73
1, 310032, Note_on_c, 0, 69, 73
1, 310032, Note_off_c, 0, 71, 64
1, 310032, Note_on_c, 0, 71, 73
1, 310032, Note_off_c, 0, 72, 64
1, 310032, Note_on_c, 0, 72, 73
1, 310176, Note_off_c, 0, 57, 64
1, 310176, Note_off_c, 0, 60, 64
1, 310176, Note_off_c, 0, 64, 64
1, 310176, Note_off_c, 0, 69, 64
1, 310176, Note_off_c, 0, 71, 64
1, 310176, Note_off_c, 0, 72, 64
1, 310176, Note_on_c, 0, 74, 73
1, 310200, Note_on_c, 0, 72, 73
1, 310200, Note_off_c, 0, 74, 64
1, 310224, Note_on_c, 0, 67, 73
1, 310224, Note_off_c, 0, 72, 64
1, 310248, Note_on_c, 0, 59, 73
1, 310248, Note_on_c, 0, 62, 73
1, 310248, Note_off_c, 0, 67, 64
1, 310272, Note_on_c, 0, 29, 97
1, 310272, Note_on_c, 0, 41, 97
1, 310272, Note_on_c, 0, 53, 99
1, 310272, Note_on_c, 0, 57, 76
1, 310272, Note_off_c, 0, 59, 64
1, 310272, Note_on_c, 0, 60, 99
1, 310272, Note_off_c, 0, 62, 64
1, 310272, Note_on_c, 0, 67, 99
1, 310341, Note_off_c, 0, 57, 53
1, 310368, Note_on_c, 0, 57, 77
1, 310436, Note_off_c, 0, 57, 56
1, 310464, Note_on_c, 0, 57, 79
1, 310532, Note_off_c, 0, 57, 58
1, 310560, Note_on_c, 0, 57, 74
1, 310627, Note_off_c, 0, 57, 58
1, 310655, Note_off_c, 0, 29, 86
1, 310655, Note_off_c, 0, 41, 86
1, 310655, Note_off_c, 0, 53, 62
1, 310655, Note_off_c, 0, 60, 62
1, 310655, Note_off_c, 0, 67, 62
1, 310656, Note_on_c, 0, 31, 102
1, 310656, Note_on_c, 0, 43, 102
1, 310656, Note_on_c, 0, 55, 94
1, 310656, Note_on_c, 0, 57, 81
1, 310656, Note_on_c, 0, 62, 99
1, 310656, Note_on_c, 0, 65, 99
1, 310722, Note_off_c, 0, 57, 62
1, 310752, Note_on_c, 0, 57, 75
1, 310820, Note_off_c, 0, 57, 56
1, 310848, Note_on_c, 0, 57, 73
1, 310910, Note_off_c, 0, 57, 57
1, 310944, Note_on_c, 0, 57, 73
1, 311004, Note_off_c, 0, 57, 71
1, 311039, Note_off_c, 0, 31, 47
1, 311039, Note_off_c, 0, 43, 47
1, 311039, Note_off_c, 0, 55, 57
1, 311039, Note_off_c, 0, 62, 62
1, 311039, Note_off_c, 0, 65, 62
1, 311040, Note_on_c, 0, 33, 98
1, 311040, Note_on_c, 0, 45, 98
1, 311040, Note_on_c, 0, 55, 116
1, 311040, Note_on_c, 0, 57, 76
1, 311040, Note_on_c, 0, 60, 116
1, 311040, Note_on_c, 0, 64, 99
1, 311109, Note_off_c, 0, 57, 53
1, 311136, Note_on_c, 0, 57, 77
1, 311204, Note_off_c, 0, 57, 56
1, 311232, Note_on_c, 0, 57, 79
1, 311300, Note_off_c, 0, 57, 58
1, 311328, Note_on_c, 0, 57, 74
1, 311395, Note_off_c, 0, 57, 58
1, 311423, Note_off_c, 0, 33, 56
1, 311423, Note_off_c, 0, 45, 56
1, 311423, Note_off_c, 0, 55, 84
1, 311423, Note_off_c, 0, 60, 84
1, 311423, Note_off_c, 0, 64, 62
1, 311424, Note_on_c, 0, 24, 103
1, 311424, Note_on_c, 0, 36, 103
1, 311424, Note_on_c, 0, 48, 89
1, 311424, Note_on_c, 0, 52, 89
1, 311424, Note_on_c, 0, 55, 89
1, 311424, Note_on_c, 0, 57, 81
1, 311424, Note_on_c, 0, 59, 127
1, 311490, Note_off_c, 0, 57, 62
1, 311520, Note_on_c, 0, 57, 75
1, 311588, Note_off_c, 0, 57, 56
1, 311616, Note_on_c, 0, 57, 73
1, 311678, Note_off_c, 0, 57, 57
1, 311712, Note_on_c, 0, 57, 73
1, 311772, Note_off_c, 0, 57, 71
1, 311807, Note_off_c, 0, 24, 84
1, 311807, Note_off_c, 0, 36, 84
1, 311807, Note_off_c, 0, 48, 88
1, 311807, Note_off_c, 0, 52, 88
1, 311807, Note_off_c, 0, 55, 88
1, 311807, Note_off_c, 0, 59, 62
1, 311808, Note_on_c, 0, 45, 91
1, 311808, Note_on_c, 0, 57, 86
1, 311808, Note_on_c, 0, 60, 72
1, 311808, Note_on_c, 0, 64, 78
1, 311808, Note_on_c, 0, 67, 82
1, 311814, Note_on_c, 0, 76, 98
1, 311833, Note_off_c, 0, 76, 77
1, 311844, Note_off_c, 0, 45, 68
1, 311844, Note_off_c, 0, 57, 72
1, 311844, Note_off_c, 0, 60, 61
1, 311844, Note_off_c, 0, 64, 71
1, 311844, Note_off_c, 0, 67, 80
1, 311856, Note_on_c, 0, 45, 92
1, 311856, Note_on_c, 0, 57, 89
1, 311856, Note_on_c, 0, 60, 75
1, 311856, Note_on_c, 0, 64, 77
1, 311856, Note_on_c, 0, 67, 88
1, 311862, Note_on_c, 0, 76, 91
1, 311891, Note_off_c, 0, 76, 70
1, 311892, Note_off_c, 0, 45, 84
1, 311892, Note_off_c, 0, 57, 79
1, 311892, Note_off_c, 0, 60, 76
1, 311892, Note_off_c, 0, 64, 82
1, 311892, Note_off_c, 0, 67, 92
1, 311952, Note_on_c, 0, 40, 82
1, 311952, Note_on_c, 0, 52, 85
1, 311952, Note_on_c, 0, 55, 85
1, 311952, Note_on_c, 0, 59, 84
1, 311952, Note_on_c, 0, 62, 82
1, 311958, Note_on_c, 0, 71, 82
1, 311985, Note_off_c, 0, 71, 62
1, 311988, Note_off_c, 0, 40, 57
1, 311988, Note_off_c, 0, 52, 56
1, 311988, Note_off_c, 0, 55, 48
1, 311988, Note_off_c, 0, 59, 66
1, 311988, Note_off_c, 0, 62, 60
1, 312000, Note_on_c, 0, 40, 84
1, 312000, Note_on_c, 0, 52, 85
1, 312000, Note_on_c, 0, 55, 66
1, 312000, Note_on_c, 0, 59, 68
1, 312000, Note_on_c, 0, 62, 61
1, 312006, Note_on_c, 0, 71, 95
1, 312036, Note_off_c, 0, 40, 54
1, 312036, Note_off_c, 0, 52, 69
1, 312036, Note_off_c, 0, 55, 70
1, 312036, Note_off_c, 0, 59, 75
1, 312036, Note_off_c, 0, 62, 74
1, 312041, Note_off_c, 0, 71, 62
1, 312096, Note_on_c, 0, 41, 86
1, 312096, Note_on_c, 0, 53, 81
1, 312096, Note_on_c, 0, 57, 73
1, 312096, Note_on_c, 0, 60, 73
1, 312096, Note_on_c, 0, 64, 75
1, 312102, Note_on_c, 0, 72, 77
1, 312125, Note_off_c, 0, 72, 72
1, 312132, Note_off_c, 0, 41, 40
1, 312132, Note_off_c, 0, 53, 50
1, 312132, Note_off_c, 0, 57, 72
1, 312132, Note_off_c, 0, 60, 73
1, 312132, Note_off_c, 0, 64, 77
1, 312144, Note_on_c, 0, 41, 86
1, 312144, Note_on_c, 0, 53, 87
1, 312144, Note_on_c, 0, 57, 82
1, 312144, Note_on_c, 0, 60, 80
1, 312144, Note_on_c, 0, 64, 85
1, 312150, Note_on_c, 0, 72, 79
1, 312171, Note_off_c, 0, 72, 74
1, 312180, Note_off_c, 0, 41, 44
1, 312180, Note_off_c, 0, 53, 45
1, 312180, Note_off_c, 0, 57, 60
1, 312180, Note_off_c, 0, 60, 61
1, 312180, Note_off_c, 0, 64, 64
1, 312240, Note_on_c, 0, 41, 81
1, 312240, Note_on_c, 0, 53, 77
1, 312240, Note_on_c, 0, 57, 78
1, 312240, Note_on_c, 0, 60, 71
1, 312240, Note_on_c, 0, 64, 82
1, 312246, Note_on_c, 0, 72, 74
1, 312264, Note_off_c, 0, 72, 69
1, 312276, Note_off_c, 0, 41, 46
1, 312276, Note_off_c, 0, 53, 60
1, 312276, Note_off_c, 0, 57, 56
1, 312276, Note_off_c, 0, 60, 67
1, 312276, Note_off_c, 0, 64, 67
1, 312288, Note_on_c, 0, 41, 73
1, 312288, Note_on_c, 0, 53, 73
1, 312288, Note_on_c, 0, 57, 73
1, 312288, Note_on_c, 0, 60, 70
1, 312288, Note_on_c, 0, 64, 71
1, 312294, Note_on_c, 0, 72, 78
1, 312309, Note_off_c, 0, 72, 80
1, 312324, Note_off_c, 0, 41, 44
1, 312324, Note_off_c, 0, 53, 48
1, 312324, Note_off_c, 0, 57, 59
1, 312324, Note_off_c, 0, 60, 69
1, 312324, Note_off_c, 0, 64, 71
1, 312336, Note_on_c, 0, 41, 75
1, 312336, Note_on_c, 0, 53, 77
1, 312336, Note_on_c, 0, 57, 76
1, 312336, Note_on_c, 0, 60, 73
1, 312336, Note_on_c, 0, 64, 83
1, 312342, Note_on_c, 0, 72, 77
1, 312353, Note_off_c, 0, 72, 76
1, 312372, Note_off_c, 0, 41, 53
1, 312372, Note_off_c, 0, 53, 52
1, 312372, Note_off_c, 0, 57, 59
1, 312372, Note_off_c, 0, 60, 68
1, 312372, Note_off_c, 0, 64, 72
1, 312384, Note_on_c, 0, 41, 84
1, 312384, Note_on_c, 0, 53, 81
1, 312384, Note_on_c, 0, 57, 80
1, 312384, Note_on_c, 0, 60, 80
1, 312384, Note_on_c, 0, 64, 83
1, 312390, Note_on_c, 0, 72, 102
1, 312416, Note_off_c, 0, 72, 72
1, 312420, Note_off_c, 0, 41, 42
1, 312420, Note_off_c, 0, 53, 42
1, 312420, Note_off_c, 0, 57, 58
1, 312420, Note_off_c, 0, 60, 69
1, 312420, Note_off_c, 0, 64, 70
1, 312432, Note_on_c, 0, 41, 73
1, 312432, Note_on_c, 0, 53, 73
1, 312432, Note_on_c, 0, 57, 74
1, 312432, Note_on_c, 0, 60, 75
1, 312432, Note_on_c, 0, 64, 81
1, 312438, Note_on_c, 0, 69, 109
1, 312463, Note_off_c, 0, 69, 75
1, 312468, Note_off_c, 0, 41, 51
1, 312468, Note_off_c, 0, 53, 50
1, 312468, Note_off_c, 0, 57, 60
1, 312468, Note_off_c, 0, 60, 70
1, 312468, Note_off_c, 0, 64, 72
1, 312480, Note_on_c, 0, 41, 92
1, 312480, Note_on_c, 0, 53, 89
1, 312480, Note_on_c, 0, 57, 87
1, 312480, Note_on_c, 0, 60, 82
1, 312480, Note_on_c, 0, 64, 85
1, 312486, Note_on_c, 0, 72, 90
1, 312507, Note_off_c, 0, 72, 75
1, 312516, Note_off_c, 0, 41, 43
1, 312516, Note_off_c, 0, 53, 52
1, 312516, Note_off_c, 0, 57, 62
1, 312516, Note_off_c, 0, 60, 69
1, 312516, Note_off_c, 0, 64, 73
1, 312528, Note_on_c, 0, 41, 56
1, 312528, Note_on_c, 0, 53, 76
1, 312528, Note_on_c, 0, 57, 70
1, 312528, Note_on_c, 0, 60, 67
1, 312528, Note_on_c, 0, 64, 72
1, 312534, Note_on_c, 0, 74, 92
1, 312552, Note_off_c, 0, 74, 77
1, 312564, Note_off_c, 0, 41, 59
1, 312564, Note_off_c, 0, 53, 51
1, 312564, Note_off_c, 0, 57, 81
1, 312564, Note_off_c, 0, 60, 82
1, 312564, Note_off_c, 0, 64, 83
1, 312576, Note_on_c, 0, 45, 100
1, 312576, Note_on_c, 0, 57, 108
1, 312576, Note_on_c, 0, 60, 98
1, 312576, Note_on_c, 0, 64, 103
1, 312576, Note_on_c, 0, 67, 103
1, 312582, Note_on_c, 0, 76, 99
1, 312600, Note_off_c, 0, 76, 85
1, 312612, Note_off_c, 0, 45, 62
1, 312612, Note_off_c, 0, 57, 67
1, 312612, Note_off_c, 0, 60, 52
1, 312612, Note_off_c, 0, 64, 71
1, 312612, Note_off_c, 0, 67, 74
1, 312624, Note_on_c, 0, 45, 93
1, 312624, Note_on_c, 0, 57, 75
1, 312624, Note_on_c, 0, 60, 88
1, 312624, Note_on_c, 0, 64, 95
1, 312624, Note_on_c, 0, 67, 97
1, 312630, Note_on_c, 0, 76, 103
1, 312653, Note_off_c, 0, 76, 72
1, 312660, Note_off_c, 0, 45, 77
1, 312660, Note_off_c, 0, 57, 74
1, 312660, Note_off_c, 0, 60, 70
1, 312660, Note_off_c, 0, 64, 73
1, 312660, Note_off_c, 0, 67, 72
1, 312720, Note_on_c, 0, 40, 77
1, 312720, Note_on_c, 0, 52, 86
1, 312720, Note_on_c, 0, 55, 64
1, 312720, Note_on_c, 0, 59, 74
1, 312720, Note_on_c, 0, 62, 85
1, 312726, Note_on_c, 0, 71, 85
1, 312748, Note_off_c, 0, 71, 76
1, 312756, Note_off_c, 0, 40, 66
1, 312756, Note_off_c, 0, 52, 77
1, 312756, Note_off_c, 0, 55, 50
1, 312756, Note_off_c, 0, 59, 73
1, 312756, Note_off_c, 0, 62, 68
1, 312768, Note_on_c, 0, 40, 82
1, 312768, Note_on_c, 0, 52, 78
1, 312768, Note_on_c, 0, 55, 72
1, 312768, Note_on_c, 0, 59, 73
1, 312768, Note_on_c, 0, 62, 70
1, 312774, Note_on_c, 0, 71, 90
1, 312800, Note_off_c, 0, 71, 66
1, 312804, Note_off_c, 0, 40, 70
1, 312804, Note_off_c, 0, 52, 37
1, 312804, Note_off_c, 0, 55, 70
1, 312804, Note_off_c, 0, 59, 82
1, 312804, Note_off_c, 0, 62, 80
1, 312864, Note_on_c, 0, 41, 80
1, 312864, Note_on_c, 0, 53, 87
1, 312864, Note_on_c, 0, 57, 76
1, 312864, Note_on_c, 0, 60, 70
1, 312864, Note_on_c, 0, 64, 77
1, 312870, Note_on_c, 0, 79, 84
1, 312889, Note_off_c, 0, 79, 87
1, 312900, Note_off_c, 0, 41, 41
1, 312900, Note_off_c, 0, 53, 51
1, 312900, Note_off_c, 0, 57, 70
1, 312900, Note_off_c, 0, 60, 69
1, 312900, Note_off_c, 0, 64, 72
1, 312912, Note_on_c, 0, 41, 86
1, 312912, Note_on_c, 0, 53, 94
1, 312912, Note_on_c, 0, 57, 83
1, 312912, Note_on_c, 0, 60, 78
1, 312912, Note_on_c, 0, 64, 86
1, 312918, Note_on_c, 0, 76, 106
1, 312935, Note_off_c, 0, 76, 83
1, 312948, Note_off_c, 0, 41, 49
1, 312948, Note_off_c, 0, 53, 61
1, 312948, Note_off_c, 0, 57, 58
1, 312948, Note_off_c, 0, 60, 77
1, 312948, Note_off_c, 0, 64, 79
1, 313008, Note_on_c, 0, 38, 70
1, 313008, Note_on_c, 0, 50, 63
1, 313008, Note_on_c, 0, 53, 58
1, 313008, Note_on_c, 0, 57, 85
1, 313008, Note_on_c, 0, 60, 70
1, 313014, Note_on_c, 0, 76, 88
1, 313032, Note_off_c, 0, 76, 80
1, 313044, Note_off_c, 0, 38, 55
1, 313044, Note_off_c, 0, 50, 57
1, 313044, Note_off_c, 0, 53, 34
1, 313044, Note_off_c, 0, 57, 53
1, 313044, Note_off_c, 0, 60, 60
1, 313056, Note_on_c, 0, 38, 72
1, 313056, Note_on_c, 0, 50, 73
1, 313056, Note_on_c, 0, 53, 29
1, 313056, Note_on_c, 0, 57, 91
1, 313056, Note_on_c, 0, 60, 79
1, 313062, Note_on_c, 0, 76, 106
1, 313080, Note_off_c, 0, 76, 80
1, 313092, Note_off_c, 0, 38, 57
1, 313092, Note_off_c, 0, 50, 54
1, 313092, Note_off_c, 0, 53, 28
1, 313092, Note_off_c, 0, 57, 73
1, 313092, Note_off_c, 0, 60, 69
1, 313104, Note_on_c, 0, 38, 68
1, 313104, Note_on_c, 0, 50, 73
1, 313104, Note_on_c, 0, 53, 35
1, 313104, Note_on_c, 0, 57, 91
1, 313104, Note_on_c, 0, 60, 78
1, 313110, Note_on_c, 0, 76, 105
1, 313126, Note_off_c, 0, 76, 84
1, 313140, Note_off_c, 0, 38, 48
1, 313140, Note_off_c, 0, 50, 55
1, 313140, Note_off_c, 0, 53, 37
1, 313140, Note_off_c, 0, 57, 74
1, 313140, Note_off_c, 0, 60, 68
1, 313152, Note_on_c, 0, 38, 72
1, 313152, Note_on_c, 0, 50, 73
1, 313152, Note_on_c, 0, 53, 50
1, 313152, Note_on_c, 0, 57, 94
1, 313152, Note_on_c, 0, 60, 83
1, 313158, Note_on_c, 0, 76, 109
1, 313184, Note_off_c, 0, 76, 79
1, 313188, Note_off_c, 0, 38, 46
1, 313188, Note_off_c, 0, 50, 49
1, 313188, Note_off_c, 0, 53, 40
1, 313188, Note_off_c, 0, 57, 74
1, 313188, Note_off_c, 0, 60, 70
1, 313200, Note_on_c, 0, 38, 67
1, 313200, Note_on_c, 0, 50, 74
1, 313200, Note_on_c, 0, 53, 52
1, 313200, Note_on_c, 0, 57, 90
1, 313200, Note_on_c, 0, 60, 82
1, 313206, Note_on_c, 0, 69, 103
1, 313234, Note_off_c, 0, 69, 79
1, 313236, Note_off_c, 0, 38, 55
1, 313236, Note_off_c, 0, 50, 70
1, 313236, Note_off_c, 0, 53, 45
1, 313236, Note_off_c, 0, 57, 85
1, 313236, Note_off_c, 0, 60, 81
1, 313248, Note_on_c, 0, 38, 76
1, 313248, Note_on_c, 0, 50, 76
1, 313248, Note_on_c, 0, 53, 64
1, 313248, Note_on_c, 0, 57, 89
1, 313248, Note_on_c, 0, 60, 85
1, 313254, Note_on_c, 0, 72, 100
1, 313273, Note_off_c, 0, 72, 72
1, 313284, Note_off_c, 0, 38, 53
1, 313284, Note_off_c, 0, 50, 53
1, 313284, Note_off_c, 0, 53, 50
1, 313284, Note_off_c, 0, 57, 78
1, 313284, Note_off_c, 0, 60, 80
1, 313296, Note_on_c, 0, 38, 78
1, 313296, Note_on_c, 0, 50, 80
1, 313296, Note_on_c, 0, 53, 61
1, 313296, Note_on_c, 0, 57, 85
1, 313296, Note_on_c, 0, 60, 91
1, 313302, Note_on_c, 0, 74, 118
1, 313319, Note_off_c, 0, 74, 84
1, 313332, Note_off_c, 0, 38, 80
1, 313332, Note_off_c, 0, 50, 70
1, 313332, Note_off_c, 0, 53, 50
1, 313332, Note_off_c, 0, 57, 63
1, 313332, Note_off_c, 0, 60, 75
1, 313344, Note_on_c, 0, 33, 92
1, 313344, Note_on_c, 0, 57, 92
1, 313344, Note_on_c, 0, 64, 92
1, 313344, Note_on_c, 0, 67, 91
1, 313347, Note_on_c, 0, 72, 92
1, 313380, Note_off_c, 0, 33, 90
1, 313380, Note_on_c, 0, 33, 92
1, 313380, Note_off_c, 0, 57, 90
1, 313380, Note_on_c, 0, 57, 92
1, 313380, Note_off_c, 0, 64, 90
1, 313380, Note_on_c, 0, 64, 92
1, 313380, Note_off_c, 0, 67, 90
1, 313380, Note_on_c, 0, 67, 91
1, 313383, Note_off_c, 0, 72, 90
1, 313383, Note_on_c, 0, 72, 92
1, 313440, Note_off_c, 0, 33, 90
1, 313440, Note_off_c, 0, 57, 90
1, 313440, Note_off_c, 0, 64, 90
1, 313440, Note_off_c, 0, 67, 90
1, 313443, Note_off_c, 0, 72, 90
1, 313464, Note_on_c, 0, 33, 92
1, 313464, Note_on_c, 0, 57, 92
1, 313512, Note_off_c, 0, 33, 90
1, 313512, Note_off_c, 0, 57, 90
1, 313536, Note_on_c, 0, 33, 92
1, 313536, Note_on_c, 0, 57, 92
1, 313536, Note_on_c, 0, 64, 92
1, 313536, Note_on_c, 0, 67, 91
1, 313539, Note_on_c, 0, 72, 92
1, 313632, Note_off_c, 0, 33, 90
1, 313632, Note_on_c, 0, 33, 92
1, 313632, Note_off_c, 0, 57, 90
1, 313632, Note_on_c, 0, 57, 92
1, 313632, Note_off_c, 0, 64, 90
1, 313632, Note_off_c, 0, 67, 90
1, 313635, Note_off_c, 0, 72, 90
1, 313728, Note_off_c, 0, 33, 90
1, 313728, Note_on_c, 0, 38, 92
1, 313728, Note_off_c, 0, 57, 90
1, 313728, Note_on_c, 0, 62, 92
1, 313728, Note_on_c, 0, 65, 92
1, 313731, Note_on_c, 0, 69, 92
1, 313735, Note_on_c, 0, 72, 92
1, 313764, Note_off_c, 0, 38, 90
1, 313764, Note_on_c, 0, 38, 92
1, 313764, Note_off_c, 0, 62, 90
1, 313764, Note_on_c, 0, 62, 92
1, 313776, Note_off_c, 0, 65, 64
1, 313779, Note_off_c, 0, 69, 64
1, 313783, Note_off_c, 0, 72, 64
1, 313800, Note_on_c, 0, 65, 92
1, 313803, Note_on_c, 0, 69, 92
1, 313807, Note_on_c, 0, 72, 92
1, 313824, Note_off_c, 0, 38, 90
1, 313824, Note_off_c, 0, 62, 90
1, 313848, Note_on_c, 0, 38, 92
1, 313848, Note_on_c, 0, 62, 92
1, 313848, Note_off_c, 0, 65, 64
1, 313851, Note_off_c, 0, 69, 64
1, 313855, Note_off_c, 0, 72, 64
1, 313872, Note_on_c, 0, 65, 92
1, 313875, Note_on_c, 0, 69, 92
1, 313879, Note_on_c, 0, 72, 92
1, 313920, Note_off_c, 0, 38, 90
1, 313920, Note_on_c, 0, 38, 92
1, 313920, Note_off_c, 0, 62, 90
1, 313920, Note_on_c, 0, 62, 92
1, 313920, Note_off_c, 0, 65, 64
1, 313920, Note_on_c, 0, 65, 92
1, 313923, Note_off_c, 0, 69, 64
1, 313923, Note_on_c, 0, 69, 92
1, 313927, Note_off_c, 0, 72, 64
1, 313927, Note_on_c, 0, 72, 92
1, 313968, Note_off_c, 0, 65, 64
1, 313971, Note_off_c, 0, 69, 64
1, 313975, Note_off_c, 0, 72, 64
1, 313992, Note_on_c, 0, 65, 92
1, 313995, Note_on_c, 0, 69, 92
1, 313999, Note_on_c, 0, 72, 92
1, 314040, Note_off_c, 0, 65, 64
1, 314043, Note_off_c, 0, 69, 64
1, 314047, Note_off_c, 0, 72, 64
1, 314112, Note_on_c, 0, 29, 92
1, 314112, Note_off_c, 0, 38, 90
1, 314112, Note_on_c, 0, 53, 92
1, 314112, Note_off_c, 0, 62, 90
1, 314112, Note_on_c, 0, 65, 92
1, 314112, Note_on_c, 0, 69, 91
1, 314115, Note_on_c, 0, 72, 91
1, 314148, Note_off_c, 0, 29, 90
1, 314148, Note_on_c, 0, 29, 92
1, 314148, Note_off_c, 0, 53, 90
1, 314148, Note_on_c, 0, 53, 92
1, 314148, Note_off_c, 0, 65, 90
1, 314148, Note_on_c, 0, 65, 92
1, 314148, Note_off_c, 0, 69, 90
1, 314148, Note_on_c, 0, 69, 91
1, 314151, Note_off_c, 0, 72, 90
1, 314151, Note_on_c, 0, 72, 91
1, 314208, Note_off_c, 0, 29, 90
1, 314208, Note_off_c, 0, 53, 90
1, 314208, Note_off_c, 0, 65, 90
1, 314208, Note_off_c, 0, 69, 90
1, 314211, Note_off_c, 0, 72, 90
1, 314232, Note_on_c, 0, 29, 92
1, 314232, Note_on_c, 0, 53, 92
1, 314304, Note_off_c, 0, 29, 90
1, 314304, Note_on_c, 0, 29, 92
1, 314304, Note_off_c, 0, 53, 90
1, 314304, Note_on_c, 0, 53, 92
1, 314304, Note_on_c, 0, 65, 92
1, 314304, Note_on_c, 0, 69, 92
1, 314306, Note_on_c, 0, 72, 92
1, 314352, Note_off_c, 0, 65, 90
1, 314352, Note_off_c, 0, 69, 90
1, 314354, Note_off_c, 0, 72, 90
1, 314376, Note_on_c, 0, 67, 92
1, 314379, Note_on_c, 0, 71, 92
1, 314383, Note_on_c, 0, 74, 92
1, 314400, Note_off_c, 0, 29, 90
1, 314400, Note_on_c, 0, 29, 92
1, 314400, Note_off_c, 0, 53, 90
1, 314400, Note_on_c, 0, 53, 92
1, 314424, Note_off_c, 0, 67, 64
1, 314427, Note_off_c, 0, 71, 64
1, 314431, Note_off_c, 0, 74, 64
1, 314496, Note_off_c, 0, 29, 90
1, 314496, Note_on_c, 0, 31, 92
1, 314496, Note_off_c, 0, 53, 90
1, 314496, Note_on_c, 0, 55, 92
1, 314496, Note_on_c, 0, 71, 92
1, 314499, Note_on_c, 0, 62, 92
1, 314500, Note_on_c, 0, 74, 92
1, 314503, Note_on_c, 0, 67, 92
1, 314532, Note_off_c, 0, 31, 90
1, 314532, Note_on_c, 0, 31, 92
1, 314532, Note_off_c, 0, 55, 90
1, 314532, Note_on_c, 0, 55, 92
1, 314532, Note_off_c, 0, 71, 90
1, 314532, Note_on_c, 0, 71, 92
1, 314536, Note_off_c, 0, 74, 90
1, 314536, Note_on_c, 0, 74, 92
1, 314547, Note_off_c, 0, 62, 64
1, 314551, Note_off_c, 0, 67, 64
1, 314571, Note_on_c, 0, 62, 92
1, 314575, Note_on_c, 0, 67, 92
1, 314592, Note_off_c, 0, 31, 90
1, 314592, Note_off_c, 0, 55, 90
1, 314592, Note_off_c, 0, 71, 90
1, 314596, Note_off_c, 0, 74, 90
1, 314616, Note_on_c, 0, 31, 92
1, 314616, Note_on_c, 0, 55, 92
1, 314619, Note_off_c, 0, 62, 64
1, 314623, Note_off_c, 0, 67, 64
1, 314643, Note_on_c, 0, 62, 92
1, 314647, Note_on_c, 0, 67, 92
1, 314688, Note_off_c, 0, 31, 90
1, 314688, Note_on_c, 0, 31, 92
1, 314688, Note_off_c, 0, 55, 90
1, 314688, Note_on_c, 0, 55, 92
1, 314688, Note_on_c, 0, 71, 92
1, 314691, Note_off_c, 0, 62, 64
1, 314691, Note_on_c, 0, 62, 92
1, 314692, Note_on_c, 0, 74, 92
1, 314695, Note_off_c, 0, 67, 64
1, 314695, Note_on_c, 0, 67, 92
1, 314739, Note_off_c, 0, 62, 64
1, 314743, Note_off_c, 0, 67, 64
1, 314763, Note_on_c, 0, 62, 92
1, 314767, Note_on_c, 0, 67, 92
1, 314784, Note_on_c, 0, 64, 92
1, 314788, Note_on_c, 0, 69, 92
1, 314811, Note_off_c, 0, 62, 64
1, 314815, Note_off_c, 0, 67, 64
1, 314832, Note_off_c, 0, 64, 64
1, 314836, Note_off_c, 0, 69, 64
1, 314877, Note_off_c, 0, 74, 90
1, 314880, Note_off_c, 0, 31, 90
1, 314880, Note_on_c, 0, 41, 108
1, 314880, Note_off_c, 0, 55, 90
1, 314880, Note_on_c, 0, 57, 108
1, 314880, Note_off_c, 0, 71, 90
1, 314880, Note_on_c, 0, 84, 92
1, 314915, Note_off_c, 0, 84, 54
1, 314952, Note_on_c, 0, 84, 93
1, 314980, Note_off_c, 0, 84, 51
1, 315024, Note_on_c, 0, 84, 82
1, 315054, Note_off_c, 0, 84, 57
1, 315096, Note_on_c, 0, 84, 89
1, 315126, Note_off_c, 0, 84, 57
1, 315168, Note_on_c, 0, 84, 106
1, 315193, Note_off_c, 0, 84, 62
1, 315264, Note_on_c, 0, 89, 96
1, 315290, Note_off_c, 0, 89, 30
1, 315336, Note_on_c, 0, 89, 89
1, 315352, Note_off_c, 0, 89, 62
1, 315408, Note_on_c, 0, 88, 99
1, 315428, Note_off_c, 0, 88, 69
1, 315455, Note_off_c, 0, 41, 71
1, 315455, Note_off_c, 0, 57, 76
1, 315456, Note_on_c, 0, 38, 102
1, 315456, Note_on_c, 0, 65, 75
1, 315480, Note_on_c, 0, 88, 108
1, 315498, Note_off_c, 0, 88, 77
1, 315552, Note_on_c, 0, 88, 109
1, 315582, Note_off_c, 0, 88, 45
1, 315600, Note_on_c, 0, 86, 90
1, 315624, Note_off_c, 0, 86, 56
1, 315647, Note_off_c, 0, 38, 79
1, 315647, Note_off_c, 0, 65, 57
1, 315648, Note_on_c, 0, 33, 88
1, 315648, Note_on_c, 0, 60, 89
1, 315648, Note_on_c, 0, 84, 106
1, 315677, Note_off_c, 0, 84, 53
1, 315720, Note_on_c, 0, 84, 87
1, 315743, Note_off_c, 0, 84, 65
1, 315792, Note_on_c, 0, 84, 94
1, 315821, Note_off_c, 0, 84, 61
1, 315864, Note_on_c, 0, 84, 99
1, 315899, Note_off_c, 0, 84, 51
1, 315936, Note_on_c, 0, 84, 87
1, 315971, Note_off_c, 0, 84, 49
1, 316032, Note_on_c, 0, 91, 84
1, 316065, Note_off_c, 0, 91, 54
1, 316104, Note_on_c, 0, 91, 83
1, 316132, Note_off_c, 0, 91, 46
1, 316176, Note_on_c, 0, 83, 67
1, 316211, Note_off_c, 0, 83, 46
1, 316223, Note_off_c, 0, 33, 77
1, 316223, Note_off_c, 0, 60, 67
1, 316224, Note_on_c, 0, 33, 87
1, 316224, Note_on_c, 0, 62, 89
1, 316248, Note_on_c, 0, 83, 93
1, 316278, Note_off_c, 0, 83, 48
1, 316320, Note_on_c, 0, 83, 93
1, 316356, Note_off_c, 0, 83, 46
1, 316368, Note_on_c, 0, 84, 92
1, 316395, Note_off_c, 0, 84, 57
1, 316415, Note_off_c, 0, 33, 80
1, 316415, Note_off_c, 0, 62, 75
1, 316416, Control_c, 0, 64, 0
1, 316416, Note_on_c, 0, 38, 99
1, 316416, Note_on_c, 0, 69, 107
1, 316464, Note_off_c, 0, 69, 64
1, 316512, Note_on_c, 0, 67, 107
1, 316531, Control_c, 0, 64, 0
1, 316531, Control_c, 0, 64, 0
1, 316560, Note_off_c, 0, 67, 64
1, 316608, Note_on_c, 0, 65, 107
1, 316632, Note_off_c, 0, 65, 64
1, 316632, Note_on_c, 0, 65, 107
1, 316656, Note_off_c, 0, 65, 64
1, 316680, Note_on_c, 0, 67, 107
1, 316728, Note_off_c, 0, 67, 64
1, 316752, Note_on_c, 0, 62, 107
1, 316800, Note_off_c, 0, 62, 64
1, 316896, Note_off_c, 0, 38, 64
1, 316896, Note_on_c, 0, 48, 99
1, 316896, Note_on_c, 0, 62, 107
1, 316920, Note_off_c, 0, 62, 64
1, 316944, Note_on_c, 0, 64, 107
1, 316968, Note_off_c, 0, 64, 64
1, 316992, Note_on_c, 0, 65, 107
1, 317016, Note_on_c, 0, 62, 107
1, 317016, Note_off_c, 0, 65, 64
1, 317040, Note_off_c, 0, 62, 64
1, 317064, Note_on_c, 0, 69, 107
1, 317112, Note_off_c, 0, 69, 64
1, 317184, Note_on_c, 0, 43, 99
1, 317184, Note_off_c, 0, 48, 64
1, 317184, Note_on_c, 0, 69, 107
1, 317232, Note_off_c, 0, 69, 64
1, 317280, Note_on_c, 0, 67, 107
1, 317328, Note_off_c, 0, 67, 64
1, 317376, Note_on_c, 0, 67, 107
1, 317400, Note_off_c, 0, 67, 64
1, 317400, Note_on_c, 0, 67, 107
1, 317424, Note_off_c, 0, 67, 64
1, 317448, Note_on_c, 0, 65, 107
1, 317496, Note_off_c, 0, 65, 64
1, 317520, Note_on_c, 0, 64, 107
1, 317568, Note_off_c, 0, 64, 64
1, 317664, Note_on_c, 0, 41, 99
1, 317664, Note_off_c, 0, 43, 64
1, 317664, Note_on_c, 0, 65, 107
1, 317688, Note_off_c, 0, 65, 64
1, 317712, Note_on_c, 0, 64, 107
1, 317736, Note_off_c, 0, 64, 64
1, 317760, Note_on_c, 0, 65, 107
1, 317784, Note_on_c, 0, 64, 107
1, 317784, Note_off_c, 0, 65, 64
1, 317808, Note_off_c, 0, 64, 64
1, 317832, Note_on_c, 0, 62, 107
1, 317880, Note_off_c, 0, 62, 64
1, 317951, Control_c, 0, 64, 0
1, 317951, Control_c, 0, 64, 0
1, 317952, Note_off_c, 0, 41, 64
1, 317952, Note_on_c, 0, 45, 112
1, 317952, Note_on_c, 0, 52, 112
1, 317952, Note_on_c, 0, 57, 117
1, 318017, Note_off_c, 0, 57, 50
1, 318048, Note_off_c, 0, 45, 64
1, 318048, Note_off_c, 0, 52, 64
1, 318048, Note_on_c, 0, 57, 103
1, 318096, Note_on_c, 0, 41, 112
1, 318096, Note_on_c, 0, 48, 112
1, 318106, Note_off_c, 0, 57, 45
1, 318144, Note_off_c, 0, 41, 64
1, 318144, Note_on_c, 0, 41, 112
1, 318144, Note_off_c, 0, 48, 64
1, 318144, Note_on_c, 0, 48, 112
1, 318144, Note_on_c, 0, 57, 94
1, 318168, Note_off_c, 0, 41, 64
1, 318168, Note_off_c, 0, 48, 64
1, 318192, Note_on_c, 0, 41, 112
1, 318192, Note_on_c, 0, 48, 112
1, 318192, Note_off_c, 0, 57, 41
1, 318216, Note_off_c, 0, 41, 64
1, 318216, Note_off_c, 0, 48, 64
1, 318240, Note_on_c, 0, 41, 112
1, 318240, Note_on_c, 0, 48, 112
1, 318240, Note_on_c, 0, 59, 94
1, 318264, Note_off_c, 0, 41, 64
1, 318264, Note_off_c, 0, 48, 64
1, 318288, Note_on_c, 0, 41, 112
1, 318288, Note_on_c, 0, 48, 112
1, 318288, Note_off_c, 0, 59, 64
1, 318288, Note_on_c, 0, 60, 97
1, 318336, Note_off_c, 0, 41, 64
1, 318336, Note_on_c, 0, 41, 112
1, 318336, Note_off_c, 0, 48, 64
1, 318336, Note_on_c, 0, 48, 112
1, 318369, Note_off_c, 0, 60, 34
1, 318384, Note_on_c, 0, 62, 98
1, 318432, Note_off_c, 0, 41, 64
1, 318432, Note_off_c, 0, 48, 64
1, 318432, Note_on_c, 0, 64, 127
1, 318440, Note_off_c, 0, 62, 40
1, 318472, Note_off_c, 0, 64, 38
1, 318480, Note_on_c, 0, 43, 112
1, 318480, Note_on_c, 0, 50, 112
1, 318480, Note_on_c, 0, 65, 107
1, 318528, Note_off_c, 0, 43, 64
1, 318528, Note_on_c, 0, 43, 112
1, 318528, Note_off_c, 0, 50, 64
1, 318528, Note_on_c, 0, 50, 112
1, 318555, Note_off_c, 0, 65, 75
1, 318576, Note_off_c, 0, 43, 64
1, 318576, Note_off_c, 0, 50, 64
1, 318576, Note_on_c, 0, 65, 112
1, 318600, Note_on_c, 0, 43, 112
1, 318600, Note_on_c, 0, 50, 112
1, 318615, Note_off_c, 0, 65, 45
1, 318624, Note_on_c, 0, 64, 103
1, 318648, Note_off_c, 0, 43, 64
1, 318648, Note_off_c, 0, 50, 64
1, 318672, Note_on_c, 0, 43, 112
1, 318672, Note_on_c, 0, 50, 112
1, 318706, Note_off_c, 0, 64, 49
1, 318720, Note_off_c, 0, 43, 64
1, 318720, Note_on_c, 0, 45, 112
1, 318720, Note_off_c, 0, 50, 64
1, 318720, Note_on_c, 0, 52, 112
1, 318720, Note_on_c, 0, 57, 102
1, 318783, Note_off_c, 0, 57, 43
1, 318816, Note_off_c, 0, 45, 64
1, 318816, Note_off_c, 0, 52, 64
1, 318816, Note_on_c, 0, 57, 91
1, 318864, Note_on_c, 0, 38, 112
1, 318864, Note_on_c, 0, 45, 112
1, 318886, Note_off_c, 0, 57, 33
1, 318912, Note_off_c, 0, 38, 64
1, 318912, Note_on_c, 0, 38, 112
1, 318912, Note_off_c, 0, 45, 64
1, 318912, Note_on_c, 0, 45, 112
1, 318912, Note_on_c, 0, 57, 86
1, 318936, Note_off_c, 0, 38, 64
1, 318936, Note_off_c, 0, 45, 64
1, 318960, Note_on_c, 0, 38, 112
1, 318960, Note_on_c, 0, 45, 112
1, 318981, Note_off_c, 0, 57, 41
1, 318984, Note_off_c, 0, 38, 64
1, 318984, Note_off_c, 0, 45, 64
1, 319008, Note_on_c, 0, 38, 112
1, 319008, Note_on_c, 0, 45, 112
1, 319008, Note_on_c, 0, 57, 85
1, 319032, Note_off_c, 0, 38, 64
1, 319032, Note_off_c, 0, 45, 64
1, 319056, Note_on_c, 0, 38, 112
1, 319056, Note_on_c, 0, 45, 112
1, 319072, Note_off_c, 0, 57, 43
1, 319104, Note_off_c, 0, 38, 64
1, 319104, Note_on_c, 0, 41, 112
1, 319104, Note_off_c, 0, 45, 64
1, 319104, Note_on_c, 0, 48, 112
1, 319104, Note_on_c, 0, 60, 103
1, 319152, Note_off_c, 0, 41, 64
1, 319152, Note_off_c, 0, 48, 64
1, 319152, Note_on_c, 0, 59, 108
1, 319159, Note_off_c, 0, 60, 64
1, 319192, Note_off_c, 0, 59, 42
1, 319200, Note_on_c, 0, 41, 112
1, 319200, Note_on_c, 0, 48, 112
1, 319248, Note_off_c, 0, 41, 64
1, 319248, Note_on_c, 0, 43, 112
1, 319248, Note_off_c, 0, 48, 64
1, 319248, Note_on_c, 0, 50, 112
1, 319248, Note_on_c, 0, 59, 117
1, 319296, Note_off_c, 0, 43, 64
1, 319296, Note_on_c, 0, 43, 112
1, 319296, Note_off_c, 0, 50, 64
1, 319296, Note_on_c, 0, 50, 112
1, 319344, Note_off_c, 0, 43, 64
1, 319344, Note_on_c, 0, 43, 112
1, 319344, Note_off_c, 0, 50, 64
1, 319344, Note_on_c, 0, 50, 112
1, 319344, Note_off_c, 0, 59, 49
1, 319344, Note_on_c, 0, 60, 121
1, 319391, Note_off_c, 0, 60, 66
1, 319392, Note_off_c, 0, 43, 64
1, 319392, Note_off_c, 0, 50, 64
1, 319392, Note_on_c, 0, 57, 121
1, 319457, Note_off_c, 0, 57, 40
1, 319488, Note_on_c, 0, 41, 92
1, 319488, Note_on_c, 0, 60, 87
1, 319536, Note_off_c, 0, 41, 52
1, 319536, Note_off_c, 0, 60, 57
1, 319632, Note_on_c, 0, 41, 89
1, 319632, Note_on_c, 0, 60, 83
1, 319680, Note_on_c, 0, 40, 88
1, 319680, Note_off_c, 0, 41, 60
1, 319680, Note_on_c, 0, 59, 68
1, 319680, Note_off_c, 0, 60, 61
1, 319728, Note_off_c, 0, 40, 71
1, 319728, Note_off_c, 0, 59, 57
1, 319752, Note_on_c, 0, 36, 90
1, 319752, Note_on_c, 0, 55, 76
1, 319800, Note_off_c, 0, 36, 77
1, 319800, Note_off_c, 0, 55, 52
1, 319824, Note_on_c, 0, 33, 89
1, 319824, Note_on_c, 0, 52, 91
1, 319872, Note_off_c, 0, 33, 62
1, 319872, Note_off_c, 0, 52, 57
1, 319896, Note_on_c, 0, 33, 88
1, 319896, Note_on_c, 0, 52, 80
1, 319944, Note_off_c, 0, 33, 66
1, 319944, Note_off_c, 0, 52, 48
1, 319968, Note_on_c, 0, 33, 89
1, 319968, Note_on_c, 0, 52, 82
1, 320016, Note_off_c, 0, 33, 56
1, 320016, Note_off_c, 0, 52, 44
1, 320040, Note_on_c, 0, 33, 89
1, 320040, Note_on_c, 0, 52, 77
1, 320088, Note_off_c, 0, 33, 67
1, 320088, Note_off_c, 0, 52, 47
1, 320112, Note_on_c, 0, 33, 89
1, 320112, Note_on_c, 0, 52, 74
1, 320160, Note_off_c, 0, 33, 53
1, 320160, Note_off_c, 0, 52, 41
1, 320184, Note_on_c, 0, 33, 78
1, 320184, Note_on_c, 0, 52, 62
1, 320232, Note_off_c, 0, 33, 53
1, 320232, Note_off_c, 0, 52, 60
1, 320256, Note_on_c, 0, 41, 85
1, 320256, Note_on_c, 0, 60, 61
1, 320304, Note_off_c, 0, 41, 55
1, 320304, Note_off_c, 0, 60, 47
1, 320400, Note_on_c, 0, 41, 80
1, 320400, Note_on_c, 0, 60, 49
1, 320448, Note_on_c, 0, 40, 80
1, 320448, Note_off_c, 0, 41, 58
1, 320448, Note_on_c, 0, 59, 84
1, 320448, Note_off_c, 0, 60, 70
1, 320496, Note_off_c, 0, 40, 65
1, 320496, Note_off_c, 0, 59, 35
1, 320520, Note_on_c, 0, 43, 85
1, 320520, Note_on_c, 0, 62, 55
1, 320568, Note_off_c, 0, 43, 58
1, 320568, Note_off_c, 0, 62, 60
1, 320592, Note_on_c, 0, 33, 87
1, 320592, Note_on_c, 0, 52, 75
1, 320640, Note_off_c, 0, 33, 59
1, 320640, Note_off_c, 0, 52, 45
1, 320664, Note_on_c, 0, 33, 81
1, 320664, Note_on_c, 0, 52, 59
1, 320712, Note_off_c, 0, 33, 54
1, 320712, Note_off_c, 0, 52, 37
1, 320736, Note_on_c, 0, 33, 89
1, 320736, Note_on_c, 0, 52, 72
1, 320784, Note_off_c, 0, 33, 63
1, 320784, Note_off_c, 0, 52, 45
1, 320808, Note_on_c, 0, 36, 89
1, 320808, Note_on_c, 0, 55, 68
1, 320856, Note_off_c, 0, 36, 61
1, 320856, Note_off_c, 0, 55, 40
1, 320880, Note_on_c, 0, 36, 89
1, 320880, Note_on_c, 0, 55, 74
1, 320928, Note_off_c, 0, 36, 61
1, 320928, Note_off_c, 0, 55, 42
1, 320952, Note_on_c, 0, 40, 90
1, 320952, Note_on_c, 0, 59, 77
1, 321000, Note_off_c, 0, 40, 46
1, 321000, Note_off_c, 0, 59, 67
1, 321024, Note_on_c, 0, 41, 85
1, 321024, Note_on_c, 0, 53, 78
1, 321024, Note_on_c, 0, 65, 91
1, 321024, Note_on_c, 0, 69, 90
1, 321024, Note_on_c, 0, 72, 83
1, 321024, Note_on_c, 0, 81, 79
1, 321082, Note_off_c, 0, 81, 61
1, 321216, Note_on_c, 0, 83, 82
1, 321274, Note_off_c, 0, 83, 38
1, 321407, Note_off_c, 0, 41, 52
1, 321407, Note_off_c, 0, 53, 47
1, 321407, Note_off_c, 0, 69, 62
1, 321407, Note_off_c, 0, 72, 38
1, 321408, Note_on_c, 0, 41, 94
1, 321408, Note_on_c, 0, 53, 89
1, 321408, Note_on_c, 0, 67, 99
1, 321408, Note_on_c, 0, 69, 93
1, 321408, Note_on_c, 0, 72, 82
1, 321408, Note_on_c, 0, 84, 102
1, 321409, Note_off_c, 0, 65, 65
1, 321470, Note_off_c, 0, 84, 50
1, 321600, Note_on_c, 0, 88, 111
1, 321648, Note_off_c, 0, 88, 75
1, 321791, Note_off_c, 0, 67, 78
1, 321791, Note_off_c, 0, 72, 71
1, 321792, Note_on_c, 0, 48, 85
1, 321792, Note_on_c, 0, 60, 80
1, 321792, Note_on_c, 0, 67, 73
1, 321792, Note_on_c, 0, 72, 102
1, 321792, Note_on_c, 0, 76, 86
1, 321792, Note_on_c, 0, 86, 106
1, 321797, Note_off_c, 0, 41, 70
1, 321797, Note_off_c, 0, 53, 67
1, 321797, Note_off_c, 0, 69, 68
1, 321836, Note_off_c, 0, 86, 70
1, 321840, Note_on_c, 0, 88, 90
1, 321880, Note_off_c, 0, 88, 58
1, 321888, Note_on_c, 0, 86, 51
1, 321930, Note_off_c, 0, 86, 70
1, 321936, Note_on_c, 0, 84, 80
1, 321962, Note_off_c, 0, 84, 69
1, 321984, Note_on_c, 0, 84, 93
1, 322038, Note_off_c, 0, 84, 55
1, 322176, Note_on_c, 0, 43, 93
1, 322176, Note_on_c, 0, 55, 85
1, 322176, Note_on_c, 0, 62, 73
1, 322176, Note_on_c, 0, 69, 82
1, 322176, Note_on_c, 0, 71, 76
1, 322176, Note_on_c, 0, 86, 76
1, 322181, Note_off_c, 0, 48, 55
1, 322181, Note_off_c, 0, 60, 53
1, 322181, Note_off_c, 0, 67, 59
1, 322181, Note_off_c, 0, 72, 76
1, 322181, Note_off_c, 0, 76, 73
1, 322219, Note_off_c, 0, 86, 63
1, 322224, Note_on_c, 0, 88, 86
1, 322272, Note_on_c, 0, 86, 73
1, 322275, Note_off_c, 0, 88, 43
1, 322318, Note_off_c, 0, 86, 67
1, 322320, Note_on_c, 0, 84, 72
1, 322368, Note_on_c, 0, 83, 86
1, 322373, Note_off_c, 0, 84, 14
1, 322460, Note_off_c, 0, 83, 34
1, 322464, Note_on_c, 0, 84, 90
1, 322525, Note_off_c, 0, 84, 65
1, 322560, Note_off_c, 0, 43, 70
1, 322560, Note_on_c, 0, 45, 83
1, 322560, Note_off_c, 0, 55, 57
1, 322560, Note_on_c, 0, 57, 83
1, 322560, Note_off_c, 0, 62, 61
1, 322560, Note_on_c, 0, 64, 83
1, 322560, Note_off_c, 0, 69, 74
1, 322560, Note_on_c, 0, 69, 83
1, 322560, Note_off_c, 0, 71, 48
1, 322560, Note_on_c, 0, 72, 83
1, 322704, Note_off_c, 0, 45, 0
1, 322704, Note_on_c, 0, 47, 83
1, 322704, Note_off_c, 0, 57, 0
1, 322704, Note_on_c, 0, 59, 83
1, 322704, Note_on_c, 0, 62, 83
1, 322704, Note_off_c, 0, 64, 0
1, 322704, Note_on_c, 0, 67, 83
1, 322704, Note_off_c, 0, 69, 0
1, 322704, Note_off_c, 0, 72, 0
1, 322704, Note_on_c, 0, 74, 83
1, 322848, Note_off_c, 0, 47, 0
1, 322848, Note_on_c, 0, 48, 83
1, 322848, Note_off_c, 0, 59, 0
1, 322848, Note_on_c, 0, 60, 83
1, 322848, Note_off_c, 0, 62, 0
1, 322848, Note_off_c, 0, 67, 0
1, 322848, Note_on_c, 0, 67, 83
1, 322848, Note_off_c, 0, 74, 0
1, 322848, Note_on_c, 0, 76, 83
1, 322992, Note_on_c, 0, 40, 83
1, 322992, Note_off_c, 0, 48, 0
1, 322992, Note_on_c, 0, 59, 83
1, 322992, Note_off_c, 0, 60, 0
1, 322992, Note_on_c, 0, 64, 83
1, 322992, Note_off_c, 0, 67, 0
1, 322992, Note_on_c, 0, 67, 83
1, 322992, Note_off_c, 0, 76, 0
1, 323136, Note_off_c, 0, 40, 127
1, 323136, Note_on_c, 0, 41, 83
1, 323136, Note_on_c, 0, 57, 83
1, 323136, Note_off_c, 0, 59, 127
1, 323136, Note_on_c, 0, 60, 83
1, 323136, Note_off_c, 0, 64, 127
1, 323136, Note_on_c, 0, 65, 83
1, 323136, Note_off_c, 0, 67, 127
1, 323136, Note_on_c, 0, 69, 83
1, 323904, Note_off_c, 0, 41, 0
1, 323904, Note_off_c, 0, 57, 0
1, 323904, Note_off_c, 0, 60, 0
1, 323904, Note_off_c, 0, 65, 0
1, 323904, Note_off_c, 0, 69, 0
1, 323904, Note_on_c, 0, 81, 83
1, 323952, Note_on_c, 0, 77, 83
1, 323952, Note_off_c, 0, 81, 0
1, 324000, Note_off_c, 0, 77, 0
1, 324000, Note_on_c, 0, 79, 83
1, 324048, Note_on_c, 0, 76, 83
1, 324048, Note_off_c, 0, 79, 0
1, 324096, Note_on_c, 0, 41, 92
1, 324096, Note_on_c, 0, 48, 74
1, 324096, Note_on_c, 0, 60, 82
1, 324096, Note_on_c, 0, 69, 93
1, 324096, Note_off_c, 0, 76, 0
1, 324115, Note_off_c, 0, 41, 74
1, 324117, Note_off_c, 0, 60, 62
1, 324117, Note_off_c, 0, 69, 75
1, 324119, Note_off_c, 0, 48, 61
1, 324144, Note_on_c, 0, 41, 87
1, 324144, Note_on_c, 0, 48, 89
1, 324144, Note_on_c, 0, 60, 80
1, 324144, Note_on_c, 0, 69, 84
1, 324159, Note_off_c, 0, 41, 75
1, 324160, Note_off_c, 0, 60, 70
1, 324161, Note_off_c, 0, 48, 70
1, 324161, Note_off_c, 0, 69, 89
1, 324192, Note_on_c, 0, 41, 92
1, 324192, Note_on_c, 0, 48, 100
1, 324192, Note_on_c, 0, 60, 97
1, 324192, Note_on_c, 0, 69, 95
1, 324192, Note_on_c, 0, 88, 95
1, 324211, Note_off_c, 0, 60, 73
1, 324212, Note_off_c, 0, 41, 54
1, 324212, Note_off_c, 0, 69, 80
1, 324214, Note_off_c, 0, 48, 62
1, 324240, Note_on_c, 0, 41, 83
1, 324240, Note_on_c, 0, 48, 85
1, 324240, Note_on_c, 0, 60, 82
1, 324240, Note_on_c, 0, 69, 86
1, 324240, Note_on_c, 0, 86, 85
1, 324240, Note_off_c, 0, 88, 65
1, 324256, Note_off_c, 0, 69, 82
1, 324257, Note_off_c, 0, 41, 61
1, 324259, Note_off_c, 0, 48, 59
1, 324259, Note_off_c, 0, 60, 62
1, 324288, Note_on_c, 0, 41, 89
1, 324288, Note_on_c, 0, 48, 92
1, 324288, Note_on_c, 0, 60, 90
1, 324288, Note_on_c, 0, 69, 93
1, 324288, Note_off_c, 0, 86, 43
1, 324303, Note_off_c, 0, 69, 81
1, 324304, Note_off_c, 0, 60, 68
1, 324306, Note_off_c, 0, 41, 58
1, 324307, Note_off_c, 0, 48, 59
1, 324336, Note_on_c, 0, 41, 82
1, 324336, Note_on_c, 0, 48, 83
1, 324336, Note_on_c, 0, 60, 80
1, 324336, Note_on_c, 0, 69, 88
1, 324351, Note_off_c, 0, 41, 70
1, 324352, Note_off_c, 0, 69, 89
1, 324353, Note_off_c, 0, 60, 72
1, 324356, Note_off_c, 0, 48, 67
1, 324384, Note_on_c, 0, 41, 84
1, 324384, Note_on_c, 0, 48, 87
1, 324384, Note_on_c, 0, 60, 89
1, 324384, Note_on_c, 0, 69, 88
1, 324384, Note_on_c, 0, 84, 89
1, 324399, Note_off_c, 0, 41, 66
1, 324399, Note_off_c, 0, 60, 70
1, 324399, Note_off_c, 0, 69, 86
1, 324401, Note_off_c, 0, 48, 67
1, 324432, Note_on_c, 0, 41, 85
1, 324432, Note_on_c, 0, 48, 91
1, 324432, Note_on_c, 0, 60, 89
1, 324432, Note_on_c, 0, 69, 91
1, 324432, Note_on_c, 0, 83, 67
1, 324432, Note_off_c, 0, 84, 58
1, 324445, Note_off_c, 0, 60, 82
1, 324448, Note_off_c, 0, 41, 69
1, 324449, Note_off_c, 0, 69, 94
1, 324452, Note_off_c, 0, 48, 63
1, 324480, Note_off_c, 0, 83, 26
1, 324528, Note_on_c, 0, 43, 99
1, 324528, Note_on_c, 0, 50, 88
1, 324528, Note_on_c, 0, 62, 82
1, 324528, Note_on_c, 0, 71, 96
1, 324546, Note_off_c, 0, 62, 67
1, 324548, Note_off_c, 0, 43, 75
1, 324548, Note_off_c, 0, 71, 70
1, 324550, Note_off_c, 0, 50, 61
1, 324576, Note_on_c, 0, 43, 97
1, 324576, Note_on_c, 0, 50, 92
1, 324576, Note_on_c, 0, 62, 87
1, 324576, Note_on_c, 0, 71, 108
1, 324576, Note_on_c, 0, 83, 80
1, 324594, Note_off_c, 0, 71, 58
1, 324596, Note_off_c, 0, 62, 53
1, 324597, Note_off_c, 0, 43, 59
1, 324601, Note_off_c, 0, 50, 60
1, 324624, Note_on_c, 0, 43, 89
1, 324624, Note_on_c, 0, 50, 87
1, 324624, Note_on_c, 0, 62, 76
1, 324624, Note_on_c, 0, 71, 94
1, 324624, Note_off_c, 0, 83, 46
1, 324624, Note_on_c, 0, 84, 84
1, 324640, Note_off_c, 0, 62, 61
1, 324643, Note_off_c, 0, 43, 61
1, 324644, Note_off_c, 0, 71, 65
1, 324645, Note_off_c, 0, 50, 56
1, 324672, Note_on_c, 0, 43, 89
1, 324672, Note_on_c, 0, 50, 95
1, 324672, Note_on_c, 0, 62, 86
1, 324672, Note_on_c, 0, 71, 96
1, 324672, Note_off_c, 0, 84, 67
1, 324672, Note_on_c, 0, 86, 83
1, 324689, Note_off_c, 0, 71, 55
1, 324690, Note_off_c, 0, 62, 55
1, 324692, Note_off_c, 0, 43, 60
1, 324696, Note_off_c, 0, 50, 55
1, 324720, Note_on_c, 0, 43, 90
1, 324720, Note_on_c, 0, 50, 87
1, 324720, Note_on_c, 0, 62, 85
1, 324720, Note_on_c, 0, 71, 96
1, 324720, Note_on_c, 0, 84, 80
1, 324720, Note_off_c, 0, 86, 54
1, 324735, Note_off_c, 0, 71, 60
1, 324736, Note_off_c, 0, 62, 60
1, 324741, Note_off_c, 0, 43, 66
1, 324742, Note_off_c, 0, 50, 57
1, 324768, Note_on_c, 0, 43, 89
1, 324768, Note_on_c, 0, 50, 89
1, 324768, Note_on_c, 0, 62, 94
1, 324768, Note_on_c, 0, 71, 98
1, 324768, Note_on_c, 0, 83, 60
1, 324768, Note_off_c, 0, 84, 71
1, 324783, Note_off_c, 0, 71, 50
1, 324784, Note_off_c, 0, 62, 55
1, 324789, Note_off_c, 0, 43, 65
1, 324789, Note_off_c, 0, 50, 57
1, 324816, Note_on_c, 0, 43, 86
1, 324816, Note_on_c, 0, 50, 82
1, 324816, Note_on_c, 0, 62, 97
1, 324816, Note_on_c, 0, 71, 92
1, 324816, Note_on_c, 0, 81, 79
1, 324816, Note_off_c, 0, 83, 39
1, 324833, Note_off_c, 0, 62, 68
1, 324834, Note_off_c, 0, 71, 57
1, 324837, Note_off_c, 0, 43, 74
1, 324840, Note_off_c, 0, 50, 58
1, 324864, Note_on_c, 0, 45, 88
1, 324864, Note_on_c, 0, 52, 102
1, 324864, Note_on_c, 0, 64, 99
1, 324864, Note_on_c, 0, 72, 98
1, 324864, Note_off_c, 0, 81, 44
1, 324886, Note_off_c, 0, 64, 53
1, 324890, Note_off_c, 0, 72, 70
1, 324892, Note_off_c, 0, 45, 43
1, 324892, Note_off_c, 0, 52, 46
1, 324912, Note_on_c, 0, 45, 94
1, 324912, Note_on_c, 0, 52, 100
1, 324912, Note_on_c, 0, 64, 87
1, 324912, Note_on_c, 0, 72, 103
1, 324932, Note_off_c, 0, 64, 68
1, 324932, Note_off_c, 0, 72, 85
1, 324935, Note_off_c, 0, 45, 74
1, 324935, Note_off_c, 0, 52, 68
1, 324960, Note_on_c, 0, 45, 89
1, 324960, Note_on_c, 0, 52, 92
1, 324960, Note_on_c, 0, 64, 89
1, 324960, Note_on_c, 0, 72, 100
1, 324960, Note_on_c, 0, 88, 89
1, 324978, Note_off_c, 0, 64, 55
1, 324983, Note_off_c, 0, 52, 56
1, 324983, Note_off_c, 0, 72, 77
1, 324984, Note_off_c, 0, 45, 67
1, 325008, Note_on_c, 0, 45, 81
1, 325008, Note_on_c, 0, 52, 85
1, 325008, Note_on_c, 0, 64, 80
1, 325008, Note_on_c, 0, 72, 99
1, 325008, Note_on_c, 0, 86, 76
1, 325008, Note_off_c, 0, 88, 69
1, 325020, Note_off_c, 0, 64, 69
1, 325024, Note_off_c, 0, 72, 83
1, 325026, Note_off_c, 0, 52, 54
1, 325027, Note_off_c, 0, 45, 58
1, 325056, Note_on_c, 0, 45, 88
1, 325056, Note_on_c, 0, 52, 91
1, 325056, Note_on_c, 0, 64, 83
1, 325056, Note_on_c, 0, 72, 102
1, 325056, Note_off_c, 0, 86, 43
1, 325073, Note_off_c, 0, 64, 71
1, 325075, Note_off_c, 0, 72, 82
1, 325078, Note_off_c, 0, 52, 57
1, 325081, Note_off_c, 0, 45, 63
1, 325104, Note_on_c, 0, 45, 86
1, 325104, Note_on_c, 0, 52, 91
1, 325104, Note_on_c, 0, 64, 81
1, 325104, Note_on_c, 0, 72, 98
1, 325120, Note_off_c, 0, 64, 62
1, 325121, Note_off_c, 0, 72, 77
1, 325125, Note_off_c, 0, 45, 49
1, 325127, Note_off_c, 0, 52, 50
1, 325152, Note_on_c, 0, 45, 82
1, 325152, Note_on_c, 0, 52, 88
1, 325152, Note_on_c, 0, 64, 82
1, 325152, Note_on_c, 0, 72, 98
1, 325152, Note_on_c, 0, 84, 73
1, 325167, Note_off_c, 0, 64, 67
1, 325170, Note_off_c, 0, 52, 55
1, 325171, Note_off_c, 0, 72, 77
1, 325173, Note_off_c, 0, 45, 57
1, 325200, Note_on_c, 0, 45, 89
1, 325200, Note_on_c, 0, 52, 93
1, 325200, Note_on_c, 0, 64, 71
1, 325200, Note_on_c, 0, 72, 97
1, 325200, Note_on_c, 0, 83, 74
1, 325200, Note_off_c, 0, 84, 60
1, 325213, Note_off_c, 0, 64, 74
1, 325218, Note_off_c, 0, 72, 90
1, 325219, Note_off_c, 0, 52, 58
1, 325221, Note_off_c, 0, 45, 64
1, 325248, Note_off_c, 0, 83, 27
1, 325296, Note_on_c, 0, 45, 89
1, 325296, Note_on_c, 0, 52, 89
1, 325296, Note_on_c, 0, 64, 75
1, 325296, Note_on_c, 0, 72, 92
1, 325313, Note_off_c, 0, 64, 75
1, 325317, Note_off_c, 0, 72, 89
1, 325318, Note_off_c, 0, 45, 63
1, 325318, Note_off_c, 0, 52, 60
1, 325344, Note_on_c, 0, 45, 88
1, 325344, Note_on_c, 0, 52, 95
1, 325344, Note_on_c, 0, 64, 86
1, 325344, Note_on_c, 0, 72, 95
1, 325344, Note_on_c, 0, 83, 61
1, 325361, Note_off_c, 0, 64, 68
1, 325366, Note_off_c, 0, 72, 59
1, 325367, Note_off_c, 0, 45, 57
1, 325368, Note_off_c, 0, 52, 56
1, 325392, Note_on_c, 0, 45, 81
1, 325392, Note_on_c, 0, 52, 92
1, 325392, Note_on_c, 0, 64, 80
1, 325392, Note_on_c, 0, 72, 98
1, 325392, Note_off_c, 0, 83, 49
1, 325392, Note_on_c, 0, 84, 76
1, 325407, Note_off_c, 0, 64, 72
1, 325411, Note_off_c, 0, 52, 67
1, 325411, Note_off_c, 0, 72, 72
1, 325416, Note_off_c, 0, 45, 70
1, 325440, Note_on_c, 0, 43, 87
1, 325440, Note_on_c, 0, 50, 77
1, 325440, Note_on_c, 0, 62, 86
1, 325440, Note_on_c, 0, 71, 94
1, 325440, Note_off_c, 0, 84, 73
1, 325440, Note_on_c, 0, 86, 76
1, 325458, Note_off_c, 0, 62, 48
1, 325459, Note_off_c, 0, 71, 61
1, 325461, Note_off_c, 0, 43, 58
1, 325466, Note_off_c, 0, 50, 50
1, 325488, Note_on_c, 0, 43, 86
1, 325488, Note_on_c, 0, 50, 80
1, 325488, Note_on_c, 0, 62, 73
1, 325488, Note_on_c, 0, 71, 89
1, 325488, Note_off_c, 0, 86, 56
1, 325488, Note_on_c, 0, 88, 79
1, 325510, Note_off_c, 0, 71, 59
1, 325511, Note_off_c, 0, 62, 63
1, 325513, Note_off_c, 0, 43, 59
1, 325513, Note_off_c, 0, 50, 49
1, 325536, Note_on_c, 0, 43, 89
1, 325536, Note_on_c, 0, 50, 85
1, 325536, Note_on_c, 0, 62, 80
1, 325536, Note_on_c, 0, 71, 91
1, 325536, Note_on_c, 0, 79, 93
1, 325536, Note_off_c, 0, 88, 76
1, 325553, Note_off_c, 0, 62, 57
1, 325557, Note_off_c, 0, 71, 60
1, 325558, Note_off_c, 0, 43, 68
1, 325559, Note_off_c, 0, 50, 58
1, 325584, Note_on_c, 0, 43, 82
1, 325584, Note_on_c, 0, 50, 79
1, 325584, Note_on_c, 0, 62, 77
1, 325584, Note_on_c, 0, 71, 91
1, 325584, Note_off_c, 0, 79, 55
1, 325584, Note_on_c, 0, 81, 95
1, 325598, Note_off_c, 0, 62, 65
1, 325600, Note_off_c, 0, 50, 74
1, 325600, Note_off_c, 0, 71, 72
1, 325606, Note_off_c, 0, 43, 67
1, 325632, Note_on_c, 0, 33, 99
1, 325632, Note_off_c, 0, 81, 91
1, 325727, Note_off_c, 0, 33, 45
1, 325728, Note_on_c, 0, 59, 113
1, 325755, Note_off_c, 0, 59, 44
1, 325756, Note_on_c, 0, 33, 74
1, 325775, Note_off_c, 0, 33, 73
1, 325776, Note_on_c, 0, 45, 114
1, 325803, Note_off_c, 0, 45, 77
1, 325804, Note_on_c, 0, 52, 120
1, 325871, Note_off_c, 0, 52, 52
1, 325872, Note_on_c, 0, 33, 87
1, 325919, Note_off_c, 0, 33, 60
1, 325920, Note_on_c, 0, 45, 87
1, 325967, Note_off_c, 0, 45, 66
1, 325968, Note_on_c, 0, 59, 86
1, 326015, Note_off_c, 0, 59, 28
1, 326016, Note_on_c, 0, 29, 103
1, 326111, Note_off_c, 0, 29, 48
1, 326112, Note_on_c, 0, 60, 85
1, 326139, Note_off_c, 0, 60, 55
1, 326140, Note_on_c, 0, 29, 103
1, 326159, Note_off_c, 0, 29, 48
1, 326160, Note_on_c, 0, 41, 98
1, 326187, Note_off_c, 0, 41, 72
1, 326188, Note_on_c, 0, 55, 111
1, 326207, Note_off_c, 0, 55, 62
1, 326208, Note_on_c, 0, 31, 93
1, 326255, Note_off_c, 0, 31, 75
1, 326256, Note_on_c, 0, 43, 93
1, 326303, Note_off_c, 0, 43, 64
1, 326304, Note_on_c, 0, 55, 82
1, 326351, Note_off_c, 0, 55, 56
1, 326352, Note_on_c, 0, 62, 95
1, 326399, Note_off_c, 0, 62, 51
1, 326400, Note_on_c, 0, 33, 99
1, 326495, Note_off_c, 0, 33, 45
1, 326496, Note_on_c, 0, 59, 113
1, 326523, Note_off_c, 0, 59, 44
1, 326524, Note_on_c, 0, 33, 74
1, 326543, Note_off_c, 0, 33, 73
1, 326544, Note_on_c, 0, 45, 114
1, 326571, Note_off_c, 0, 45, 77
1, 326572, Note_on_c, 0, 52, 120
1, 326639, Note_off_c, 0, 52, 52
1, 326640, Note_on_c, 0, 33, 87
1, 326687, Note_off_c, 0, 33, 60
1, 326688, Note_on_c, 0, 45, 87
1, 326735, Note_off_c, 0, 45, 66
1, 326736, Note_on_c, 0, 59, 86
1, 326783, Note_off_c, 0, 59, 28
1, 326784, Note_on_c, 0, 29, 103
1, 326879, Note_off_c, 0, 29, 48
1, 326880, Note_on_c, 0, 60, 85
1, 326907, Note_off_c, 0, 60, 55
1, 326908, Note_on_c, 0, 29, 103
1, 326927, Note_off_c, 0, 29, 48
1, 326928, Note_on_c, 0, 41, 98
1, 326955, Note_off_c, 0, 41, 72
1, 326956, Note_on_c, 0, 55, 111
1, 326975, Note_off_c, 0, 55, 62
1, 326976, Note_on_c, 0, 26, 93
1, 327023, Note_off_c, 0, 26, 75
1, 327024, Note_on_c, 0, 45, 93
1, 327071, Note_off_c, 0, 45, 64
1, 327072, Note_on_c, 0, 53, 82
1, 327119, Note_off_c, 0, 53, 56
1, 327120, Note_on_c, 0, 52, 95
1, 327167, Note_off_c, 0, 52, 51
1, 327168, Note_on_c, 0, 45, 99
1, 327168, Note_on_c, 0, 52, 99
1, 327168, Note_on_c, 0, 57, 99
1, 327168, Note_on_c, 0, 60, 99
1, 327168, Note_on_c, 0, 67, 99
1, 327168, Note_on_c, 0, 84, 127
1, 327192, Note_off_c, 0, 45, 64
1, 327192, Note_on_c, 0, 45, 99
1, 327192, Note_off_c, 0, 52, 64
1, 327192, Note_on_c, 0, 52, 99
1, 327192, Note_off_c, 0, 57, 64
1, 327192, Note_on_c, 0, 57, 99
1, 327192, Note_off_c, 0, 60, 64
1, 327192, Note_on_c, 0, 60, 99
1, 327192, Note_off_c, 0, 67, 64
1, 327192, Note_on_c, 0, 67, 99
1, 327216, Note_off_c, 0, 45, 64
1, 327216, Note_on_c, 0, 45, 99
1, 327216, Note_off_c, 0, 52, 64
1, 327216, Note_on_c, 0, 52, 99
1, 327216, Note_off_c, 0, 57, 64
1, 327216, Note_on_c, 0, 57, 99
1, 327216, Note_off_c, 0, 60, 64
1, 327216, Note_on_c, 0, 60, 99
1, 327216, Note_off_c, 0, 67, 64
1, 327216, Note_on_c, 0, 67, 99
1, 327240, Note_off_c, 0, 45, 64
1, 327240, Note_on_c, 0, 45, 99
1, 327240, Note_off_c, 0, 52, 64
1, 327240, Note_on_c, 0, 52, 99
1, 327240, Note_off_c, 0, 57, 64
1, 327240, Note_on_c, 0, 57, 99
1, 327240, Note_off_c, 0, 60, 64
1, 327240, Note_on_c, 0, 60, 99
1, 327240, Note_off_c, 0, 67, 64
1, 327240, Note_on_c, 0, 67, 99
1, 327264, Note_off_c, 0, 45, 64
1, 327264, Note_off_c, 0, 52, 64
1, 327264, Note_off_c, 0, 57, 64
1, 327264, Note_off_c, 0, 60, 64
1, 327264, Note_off_c, 0, 67, 64
1, 327264, Note_off_c, 0, 84, 64
1, 327312, Note_on_c, 0, 41, 99
1, 327312, Note_on_c, 0, 48, 99
1, 327312, Note_on_c, 0, 53, 99
1, 327312, Note_on_c, 0, 55, 99
1, 327312, Note_on_c, 0, 67, 99
1, 327312, Note_on_c, 0, 84, 127
1, 327336, Note_off_c, 0, 41, 64
1, 327336, Note_on_c, 0, 41, 99
1, 327336, Note_off_c, 0, 48, 64
1, 327336, Note_on_c, 0, 48, 99
1, 327336, Note_off_c, 0, 53, 64
1, 327336, Note_on_c, 0, 53, 99
1, 327336, Note_off_c, 0, 55, 64
1, 327336, Note_on_c, 0, 55, 99
1, 327336, Note_off_c, 0, 67, 64
1, 327336, Note_on_c, 0, 67, 99
1, 327360, Note_off_c, 0, 41, 64
1, 327360, Note_on_c, 0, 41, 99
1, 327360, Note_off_c, 0, 48, 64
1, 327360, Note_on_c, 0, 48, 99
1, 327360, Note_off_c, 0, 53, 64
1, 327360, Note_on_c, 0, 53, 99
1, 327360, Note_off_c, 0, 55, 64
1, 327360, Note_on_c, 0, 55, 99
1, 327360, Note_off_c, 0, 67, 64
1, 327360, Note_on_c, 0, 67, 99
1, 327360, Note_off_c, 0, 84, 64
1, 327360, Note_on_c, 0, 91, 127
1, 327384, Note_off_c, 0, 41, 64
1, 327384, Note_on_c, 0, 41, 99
1, 327384, Note_off_c, 0, 48, 64
1, 327384, Note_on_c, 0, 48, 99
1, 327384, Note_off_c, 0, 53, 64
1, 327384, Note_on_c, 0, 53, 99
1, 327384, Note_off_c, 0, 55, 64
1, 327384, Note_on_c, 0, 55, 99
1, 327384, Note_off_c, 0, 67, 64
1, 327384, Note_on_c, 0, 67, 99
1, 327408, Note_off_c, 0, 41, 64
1, 327408, Note_on_c, 0, 41, 99
1, 327408, Note_off_c, 0, 48, 64
1, 327408, Note_on_c, 0, 48, 99
1, 327408, Note_off_c, 0, 53, 64
1, 327408, Note_on_c, 0, 53, 99
1, 327408, Note_off_c, 0, 55, 64
1, 327408, Note_on_c, 0, 55, 99
1, 327408, Note_off_c, 0, 67, 64
1, 327408, Note_on_c, 0, 67, 99
1, 327408, Note_off_c, 0, 91, 64
1, 327432, Note_off_c, 0, 41, 64
1, 327432, Note_on_c, 0, 41, 99
1, 327432, Note_off_c, 0, 48, 64
1, 327432, Note_on_c, 0, 48, 99
1, 327432, Note_off_c, 0, 53, 64
1, 327432, Note_on_c, 0, 53, 99
1, 327432, Note_off_c, 0, 55, 64
1, 327432, Note_on_c, 0, 55, 99
1, 327432, Note_off_c, 0, 67, 64
1, 327432, Note_on_c, 0, 67, 99
1, 327432, Note_on_c, 0, 89, 127
1, 327456, Note_off_c, 0, 41, 64
1, 327456, Note_off_c, 0, 48, 64
1, 327456, Note_off_c, 0, 53, 64
1, 327456, Note_off_c, 0, 55, 64
1, 327456, Note_off_c, 0, 67, 64
1, 327480, Note_off_c, 0, 89, 64
1, 327504, Note_on_c, 0, 41, 99
1, 327504, Note_on_c, 0, 48, 99
1, 327504, Note_on_c, 0, 53, 99
1, 327504, Note_on_c, 0, 55, 99
1, 327504, Note_on_c, 0, 67, 99
1, 327504, Note_on_c, 0, 88, 127
1, 327528, Note_off_c, 0, 41, 64
1, 327528, Note_on_c, 0, 41, 99
1, 327528, Note_off_c, 0, 48, 64
1, 327528, Note_on_c, 0, 48, 99
1, 327528, Note_off_c, 0, 53, 64
1, 327528, Note_on_c, 0, 53, 99
1, 327528, Note_off_c, 0, 55, 64
1, 327528, Note_on_c, 0, 55, 99
1, 327528, Note_off_c, 0, 67, 64
1, 327528, Note_on_c, 0, 67, 99
1, 327552, Note_off_c, 0, 41, 64
1, 327552, Note_on_c, 0, 43, 99
1, 327552, Note_off_c, 0, 48, 64
1, 327552, Note_on_c, 0, 50, 99
1, 327552, Note_off_c, 0, 53, 64
1, 327552, Note_off_c, 0, 55, 64
1, 327552, Note_on_c, 0, 55, 99
1, 327552, Note_on_c, 0, 59, 99
1, 327552, Note_off_c, 0, 67, 64
1, 327552, Note_on_c, 0, 67, 99
1, 327552, Note_on_c, 0, 86, 127
1, 327552, Note_off_c, 0, 88, 64
1, 327576, Note_off_c, 0, 43, 64
1, 327576, Note_on_c, 0, 43, 99
1, 327576, Note_off_c, 0, 50, 64
1, 327576, Note_on_c, 0, 50, 99
1, 327576, Note_off_c, 0, 55, 64
1, 327576, Note_on_c, 0, 55, 99
1, 327576, Note_off_c, 0, 59, 64
1, 327576, Note_on_c, 0, 59, 99
1, 327576, Note_off_c, 0, 67, 64
1, 327576, Note_on_c, 0, 67, 99
1, 327600, Note_off_c, 0, 43, 64
1, 327600, Note_on_c, 0, 43, 99
1, 327600, Note_off_c, 0, 50, 64
1, 327600, Note_on_c, 0, 50, 99
1, 327600, Note_off_c, 0, 55, 64
1, 327600, Note_on_c, 0, 55, 99
1, 327600, Note_off_c, 0, 59, 64
1, 327600, Note_on_c, 0, 59, 99
1, 327600, Note_off_c, 0, 67, 64
1, 327600, Note_on_c, 0, 67, 99
1, 327624, Note_off_c, 0, 43, 64
1, 327624, Note_on_c, 0, 43, 99
1, 327624, Note_off_c, 0, 50, 64
1, 327624, Note_on_c, 0, 50, 99
1, 327624, Note_off_c, 0, 55, 64
1, 327624, Note_on_c, 0, 55, 99
1, 327624, Note_off_c, 0, 59, 64
1, 327624, Note_on_c, 0, 59, 99
1, 327624, Note_off_c, 0, 67, 64
1, 327624, Note_on_c, 0, 67, 99
1, 327648, Note_off_c, 0, 43, 64
1, 327648, Note_on_c, 0, 43, 99
1, 327648, Note_off_c, 0, 50, 64
1, 327648, Note_on_c, 0, 50, 99
1, 327648, Note_off_c, 0, 55, 64
1, 327648, Note_on_c, 0, 55, 99
1, 327648, Note_off_c, 0, 59, 64
1, 327648, Note_on_c, 0, 59, 99
1, 327648, Note_off_c, 0, 67, 64
1, 327648, Note_on_c, 0, 67, 99
1, 327672, Note_off_c, 0, 43, 64
1, 327672, Note_on_c, 0, 43, 99
1, 327672, Note_off_c, 0, 50, 64
1, 327672, Note_on_c, 0, 50, 99
1, 327672, Note_off_c, 0, 55, 64
1, 327672, Note_on_c, 0, 55, 99
1, 327672, Note_off_c, 0, 59, 64
1, 327672, Note_on_c, 0, 59, 99
1, 327672, Note_off_c, 0, 67, 64
1, 327672, Note_on_c, 0, 67, 99
1, 327696, Note_off_c, 0, 43, 64
1, 327696, Note_on_c, 0, 45, 99
1, 327696, Note_off_c, 0, 50, 64
1, 327696, Note_on_c, 0, 52, 99
1, 327696, Note_off_c, 0, 55, 64
1, 327696, Note_on_c, 0, 55, 99
1, 327696, Note_off_c, 0, 59, 64
1, 327696, Note_on_c, 0, 60, 99
1, 327696, Note_off_c, 0, 67, 64
1, 327696, Note_on_c, 0, 67, 99
1, 327696, Note_off_c, 0, 86, 64
1, 327696, Note_on_c, 0, 88, 127
1, 327720, Note_off_c, 0, 45, 64
1, 327720, Note_on_c, 0, 45, 99
1, 327720, Note_off_c, 0, 52, 64
1, 327720, Note_on_c, 0, 52, 99
1, 327720, Note_off_c, 0, 55, 64
1, 327720, Note_on_c, 0, 55, 99
1, 327720, Note_off_c, 0, 60, 64
1, 327720, Note_on_c, 0, 60, 99
1, 327720, Note_off_c, 0, 67, 64
1, 327720, Note_on_c, 0, 67, 99
1, 327744, Note_off_c, 0, 45, 64
1, 327744, Note_on_c, 0, 45, 99
1, 327744, Note_off_c, 0, 52, 64
1, 327744, Note_on_c, 0, 52, 99
1, 327744, Note_off_c, 0, 55, 64
1, 327744, Note_on_c, 0, 55, 99
1, 327744, Note_off_c, 0, 60, 64
1, 327744, Note_on_c, 0, 60, 99
1, 327744, Note_off_c, 0, 67, 64
1, 327744, Note_on_c, 0, 67, 99
1, 327768, Note_off_c, 0, 45, 64
1, 327768, Note_on_c, 0, 45, 99
1, 327768, Note_off_c, 0, 52, 64
1, 327768, Note_on_c, 0, 52, 99
1, 327768, Note_off_c, 0, 55, 64
1, 327768, Note_on_c, 0, 55, 99
1, 327768, Note_off_c, 0, 60, 64
1, 327768, Note_on_c, 0, 60, 99
1, 327768, Note_off_c, 0, 67, 64
1, 327768, Note_on_c, 0, 67, 99
1, 327792, Note_off_c, 0, 45, 64
1, 327792, Note_on_c, 0, 45, 99
1, 327792, Note_off_c, 0, 52, 64
1, 327792, Note_on_c, 0, 52, 99
1, 327792, Note_off_c, 0, 55, 64
1, 327792, Note_on_c, 0, 55, 99
1, 327792, Note_off_c, 0, 60, 64
1, 327792, Note_on_c, 0, 60, 99
1, 327792, Note_off_c, 0, 67, 64
1, 327792, Note_on_c, 0, 67, 99
1, 327816, Note_off_c, 0, 45, 64
1, 327816, Note_on_c, 0, 45, 99
1, 327816, Note_off_c, 0, 52, 64
1, 327816, Note_on_c, 0, 52, 99
1, 327816, Note_off_c, 0, 55, 64
1, 327816, Note_on_c, 0, 55, 99
1, 327816, Note_off_c, 0, 60, 64
1, 327816, Note_on_c, 0, 60, 99
1, 327816, Note_off_c, 0, 67, 64
1, 327816, Note_on_c, 0, 67, 99
1, 327840, Note_off_c, 0, 45, 64
1, 327840, Note_off_c, 0, 52, 64
1, 327840, Note_off_c, 0, 55, 64
1, 327840, Note_off_c, 0, 60, 64
1, 327840, Note_off_c, 0, 67, 64
1, 327840, Note_off_c, 0, 88, 64
1, 327936, Note_on_c, 0, 48, 99
1, 327936, Note_on_c, 0, 55, 99
1, 327936, Note_on_c, 0, 60, 99
1, 327936, Note_on_c, 0, 64, 99
1, 327936, Note_on_c, 0, 67, 99
1, 327936, Note_on_c, 0, 91, 127
1, 327960, Note_off_c, 0, 48, 64
1, 327960, Note_on_c, 0, 48, 99
1, 327960, Note_off_c, 0, 55, 64
1, 327960, Note_on_c, 0, 55, 99
1, 327960, Note_off_c, 0, 60, 64
1, 327960, Note_on_c, 0, 60, 99
1, 327960, Note_off_c, 0, 64, 64
1, 327960, Note_on_c, 0, 64, 99
1, 327960, Note_off_c, 0, 67, 64
1, 327960, Note_on_c, 0, 67, 99
1, 327984, Note_off_c, 0, 48, 64
1, 327984, Note_on_c, 0, 48, 99
1, 327984, Note_off_c, 0, 55, 64
1, 327984, Note_on_c, 0, 55, 99
1, 327984, Note_off_c, 0, 60, 64
1, 327984, Note_on_c, 0, 60, 99
1, 327984, Note_off_c, 0, 64, 64
1, 327984, Note_on_c, 0, 64, 99
1, 327984, Note_off_c, 0, 67, 64
1, 327984, Note_on_c, 0, 67, 99
1, 328008, Note_off_c, 0, 48, 64
1, 328008, Note_on_c, 0, 48, 99
1, 328008, Note_off_c, 0, 55, 64
1, 328008, Note_on_c, 0, 55, 99
1, 328008, Note_off_c, 0, 60, 64
1, 328008, Note_on_c, 0, 60, 99
1, 328008, Note_off_c, 0, 64, 64
1, 328008, Note_on_c, 0, 64, 99
1, 328008, Note_off_c, 0, 67, 64
1, 328008, Note_on_c, 0, 67, 99
1, 328032, Note_off_c, 0, 48, 64
1, 328032, Note_off_c, 0, 55, 64
1, 328032, Note_off_c, 0, 60, 64
1, 328032, Note_off_c, 0, 64, 64
1, 328032, Note_off_c, 0, 67, 64
1, 328080, Note_on_c, 0, 41, 99
1, 328080, Note_on_c, 0, 48, 99
1, 328080, Note_on_c, 0, 53, 99
1, 328080, Note_on_c, 0, 55, 99
1, 328080, Note_on_c, 0, 67, 99
1, 328080, Note_on_c, 0, 84, 127
1, 328080, Note_off_c, 0, 91, 64
1, 328104, Note_off_c, 0, 41, 64
1, 328104, Note_on_c, 0, 41, 99
1, 328104, Note_off_c, 0, 48, 64
1, 328104, Note_on_c, 0, 48, 99
1, 328104, Note_off_c, 0, 53, 64
1, 328104, Note_on_c, 0, 53, 99
1, 328104, Note_off_c, 0, 55, 64
1, 328104, Note_on_c, 0, 55, 99
1, 328104, Note_off_c, 0, 67, 64
1, 328104, Note_on_c, 0, 67, 99
1, 328128, Note_off_c, 0, 41, 64
1, 328128, Note_on_c, 0, 41, 99
1, 328128, Note_off_c, 0, 48, 64
1, 328128, Note_on_c, 0, 48, 99
1, 328128, Note_off_c, 0, 53, 64
1, 328128, Note_on_c, 0, 53, 99
1, 328128, Note_off_c, 0, 55, 64
1, 328128, Note_on_c, 0, 55, 99
1, 328128, Note_off_c, 0, 67, 64
1, 328128, Note_on_c, 0, 67, 99
1, 328128, Note_off_c, 0, 84, 64
1, 328128, Note_on_c, 0, 88, 127
1, 328152, Note_off_c, 0, 41, 64
1, 328152, Note_on_c, 0, 41, 99
1, 328152, Note_off_c, 0, 48, 64
1, 328152, Note_on_c, 0, 48, 99
1, 328152, Note_off_c, 0, 53, 64
1, 328152, Note_on_c, 0, 53, 99
1, 328152, Note_off_c, 0, 55, 64
1, 328152, Note_on_c, 0, 55, 99
1, 328152, Note_off_c, 0, 67, 64
1, 328152, Note_on_c, 0, 67, 99
1, 328176, Note_off_c, 0, 41, 64
1, 328176, Note_on_c, 0, 41, 99
1, 328176, Note_off_c, 0, 48, 64
1, 328176, Note_on_c, 0, 48, 99
1, 328176, Note_off_c, 0, 53, 64
1, 328176, Note_on_c, 0, 53, 99
1, 328176, Note_off_c, 0, 55, 64
1, 328176, Note_on_c, 0, 55, 99
1, 328176, Note_off_c, 0, 67, 64
1, 328176, Note_on_c, 0, 67, 99
1, 328176, Note_off_c, 0, 88, 64
1, 328200, Note_off_c, 0, 41, 64
1, 328200, Note_on_c, 0, 41, 99
1, 328200, Note_off_c, 0, 48, 64
1, 328200, Note_on_c, 0, 48, 99
1, 328200, Note_off_c, 0, 53, 64
1, 328200, Note_on_c, 0, 53, 99
1, 328200, Note_off_c, 0, 55, 64
1, 328200, Note_on_c, 0, 55, 99
1, 328200, Note_off_c, 0, 67, 64
1, 328200, Note_on_c, 0, 67, 99
1, 328200, Note_on_c, 0, 89, 127
1, 328224, Note_off_c, 0, 41, 64
1, 328224, Note_off_c, 0, 48, 64
1, 328224, Note_off_c, 0, 53, 64
1, 328224, Note_off_c, 0, 55, 64
1, 328224, Note_off_c, 0, 67, 64
1, 328248, Note_off_c, 0, 89, 64
1, 328272, Note_on_c, 0, 41, 99
1, 328272, Note_on_c, 0, 48, 99
1, 328272, Note_on_c, 0, 53, 99
1, 328272, Note_on_c, 0, 55, 99
1, 328272, Note_on_c, 0, 67, 99
1, 328272, Note_on_c, 0, 91, 127
1, 328296, Note_off_c, 0, 41, 64
1, 328296, Note_on_c, 0, 41, 99
1, 328296, Note_off_c, 0, 48, 64
1, 328296, Note_on_c, 0, 48, 99
1, 328296, Note_off_c, 0, 53, 64
1, 328296, Note_on_c, 0, 53, 99
1, 328296, Note_off_c, 0, 55, 64
1, 328296, Note_on_c, 0, 55, 99
1, 328296, Note_off_c, 0, 67, 64
1, 328296, Note_on_c, 0, 67, 99
1, 328320, Note_off_c, 0, 41, 64
1, 328320, Note_on_c, 0, 43, 99
1, 328320, Note_off_c, 0, 48, 64
1, 328320, Note_on_c, 0, 50, 99
1, 328320, Note_off_c, 0, 53, 64
1, 328320, Note_off_c, 0, 55, 64
1, 328320, Note_on_c, 0, 55, 99
1, 328320, Note_on_c, 0, 59, 99
1, 328320, Note_off_c, 0, 67, 64
1, 328320, Note_on_c, 0, 67, 99
1, 328320, Note_on_c, 0, 83, 127
1, 328320, Note_off_c, 0, 91, 64
1, 328344, Note_off_c, 0, 43, 64
1, 328344, Note_on_c, 0, 43, 99
1, 328344, Note_off_c, 0, 50, 64
1, 328344, Note_on_c, 0, 50, 99
1, 328344, Note_off_c, 0, 55, 64
1, 328344, Note_on_c, 0, 55, 99
1, 328344, Note_off_c, 0, 59, 64
1, 328344, Note_on_c, 0, 59, 99
1, 328344, Note_off_c, 0, 67, 64
1, 328344, Note_on_c, 0, 67, 99
1, 328368, Note_off_c, 0, 43, 64
1, 328368, Note_on_c, 0, 43, 99
1, 328368, Note_off_c, 0, 50, 64
1, 328368, Note_on_c, 0, 50, 99
1, 328368, Note_off_c, 0, 55, 64
1, 328368, Note_on_c, 0, 55, 99
1, 328368, Note_off_c, 0, 59, 64
1, 328368, Note_on_c, 0, 59, 99
1, 328368, Note_off_c, 0, 67, 64
1, 328368, Note_on_c, 0, 67, 99
1, 328392, Note_off_c, 0, 43, 64
1, 328392, Note_on_c, 0, 43, 99
1, 328392, Note_off_c, 0, 50, 64
1, 328392, Note_on_c, 0, 50, 99
1, 328392, Note_off_c, 0, 55, 64
1, 328392, Note_on_c, 0, 55, 99
1, 328392, Note_off_c, 0, 59, 64
1, 328392, Note_on_c, 0, 59, 99
1, 328392, Note_off_c, 0, 67, 64
1, 328392, Note_on_c, 0, 67, 99
1, 328416, Note_off_c, 0, 43, 64
1, 328416, Note_on_c, 0, 43, 99
1, 328416, Note_off_c, 0, 50, 64
1, 328416, Note_on_c, 0, 50, 99
1, 328416, Note_off_c, 0, 55, 64
1, 328416, Note_on_c, 0, 55, 99
1, 328416, Note_off_c, 0, 59, 64
1, 328416, Note_on_c, 0, 59, 99
1, 328416, Note_off_c, 0, 67, 64
1, 328416, Note_on_c, 0, 67, 99
1, 328440, Note_off_c, 0, 43, 64
1, 328440, Note_on_c, 0, 43, 99
1, 328440, Note_off_c, 0, 50, 64
1, 328440, Note_on_c, 0, 50, 99
1, 328440, Note_off_c, 0, 55, 64
1, 328440, Note_on_c, 0, 55, 99
1, 328440, Note_off_c, 0, 59, 64
1, 328440, Note_on_c, 0, 59, 99
1, 328440, Note_off_c, 0, 67, 64
1, 328440, Note_on_c, 0, 67, 99
1, 328464, Note_off_c, 0, 43, 64
1, 328464, Note_on_c, 0, 45, 99
1, 328464, Note_off_c, 0, 50, 64
1, 328464, Note_on_c, 0, 52, 99
1, 328464, Note_off_c, 0, 55, 64
1, 328464, Note_on_c, 0, 55, 99
1, 328464, Note_off_c, 0, 59, 64
1, 328464, Note_on_c, 0, 60, 99
1, 328464, Note_off_c, 0, 67, 64
1, 328464, Note_on_c, 0, 67, 99
1, 328464, Note_on_c, 0, 79, 127
1, 328464, Note_off_c, 0, 83, 64
1, 328488, Note_off_c, 0, 45, 64
1, 328488, Note_on_c, 0, 45, 99
1, 328488, Note_off_c, 0, 52, 64
1, 328488, Note_on_c, 0, 52, 99
1, 328488, Note_off_c, 0, 55, 64
1, 328488, Note_on_c, 0, 55, 99
1, 328488, Note_off_c, 0, 60, 64
1, 328488, Note_on_c, 0, 60, 99
1, 328488, Note_off_c, 0, 67, 64
1, 328488, Note_on_c, 0, 67, 99
1, 328512, Note_off_c, 0, 45, 64
1, 328512, Note_on_c, 0, 45, 99
1, 328512, Note_off_c, 0, 52, 64
1, 328512, Note_on_c, 0, 52, 99
1, 328512, Note_off_c, 0, 55, 64
1, 328512, Note_on_c, 0, 55, 99
1, 328512, Note_off_c, 0, 60, 64
1, 328512, Note_on_c, 0, 60, 99
1, 328512, Note_off_c, 0, 67, 64
1, 328512, Note_on_c, 0, 67, 99
1, 328536, Note_off_c, 0, 45, 64
1, 328536, Note_on_c, 0, 45, 99
1, 328536, Note_off_c, 0, 52, 64
1, 328536, Note_on_c, 0, 52, 99
1, 328536, Note_off_c, 0, 55, 64
1, 328536, Note_on_c, 0, 55, 99
1, 328536, Note_off_c, 0, 60, 64
1, 328536, Note_on_c, 0, 60, 99
1, 328536, Note_off_c, 0, 67, 64
1, 328536, Note_on_c, 0, 67, 99
1, 328560, Note_off_c, 0, 45, 64
1, 328560, Note_on_c, 0, 45, 99
1, 328560, Note_off_c, 0, 52, 64
1, 328560, Note_on_c, 0, 52, 99
1, 328560, Note_off_c, 0, 55, 64
1, 328560, Note_on_c, 0, 55, 99
1, 328560, Note_off_c, 0, 60, 64
1, 328560, Note_on_c, 0, 60, 99
1, 328560, Note_off_c, 0, 67, 64
1, 328560, Note_on_c, 0, 67, 99
1, 328584, Note_off_c, 0, 45, 64
1, 328584, Note_on_c, 0, 45, 99
1, 328584, Note_off_c, 0, 52, 64
1, 328584, Note_on_c, 0, 52, 99
1, 328584, Note_off_c, 0, 55, 64
1, 328584, Note_on_c, 0, 55, 99
1, 328584, Note_off_c, 0, 60, 64
1, 328584, Note_on_c, 0, 60, 99
1, 328584, Note_off_c, 0, 67, 64
1, 328584, Note_on_c, 0, 67, 99
1, 328608, Note_off_c, 0, 45, 64
1, 328608, Note_off_c, 0, 52, 64
1, 328608, Note_off_c, 0, 55, 64
1, 328608, Note_off_c, 0, 60, 64
1, 328608, Note_off_c, 0, 67, 64
1, 328608, Note_off_c, 0, 79, 64
1, 328704, Note_on_c, 0, 41, 97
1, 328704, Note_on_c, 0, 55, 97
1, 328704, Note_on_c, 0, 60, 97
1, 328704, Note_on_c, 0, 64, 97
1, 328704, Note_on_c, 0, 81, 100
1, 328727, Note_off_c, 0, 81, 32
1, 328776, Note_on_c, 0, 81, 100
1, 328798, Note_off_c, 0, 81, 36
1, 328848, Note_on_c, 0, 79, 100
1, 328871, Note_off_c, 0, 79, 33
1, 328920, Note_on_c, 0, 79, 100
1, 328949, Note_off_c, 0, 79, 15
1, 328992, Note_on_c, 0, 76, 100
1, 329025, Note_off_c, 0, 76, 1
1, 329088, Note_off_c, 0, 41, 0
1, 329088, Note_on_c, 0, 43, 97
1, 329088, Note_off_c, 0, 55, 0
1, 329088, Note_on_c, 0, 55, 97
1, 329088, Note_off_c, 0, 60, 0
1, 329088, Note_on_c, 0, 60, 97
1, 329088, Note_on_c, 0, 62, 97
1, 329088, Note_off_c, 0, 64, 0
1, 329424, Note_on_c, 0, 74, 100
1, 329472, Note_off_c, 0, 43, 0
1, 329472, Note_on_c, 0, 45, 97
1, 329472, Note_off_c, 0, 55, 0
1, 329472, Note_on_c, 0, 55, 97
1, 329472, Note_off_c, 0, 60, 0
1, 329472, Note_on_c, 0, 60, 97
1, 329472, Note_off_c, 0, 62, 0
1, 329472, Note_on_c, 0, 64, 97
1, 329472, Note_on_c, 0, 76, 100
1, 329474, Note_off_c, 0, 74, 32
1, 329495, Note_off_c, 0, 76, 48
1, 329544, Note_on_c, 0, 76, 100
1, 329571, Note_off_c, 0, 76, 18
1, 329616, Note_on_c, 0, 74, 100
1, 329648, Note_off_c, 0, 74, 24
1, 329688, Note_on_c, 0, 74, 100
1, 329725, Note_off_c, 0, 74, 36
1, 329760, Note_on_c, 0, 72, 100
1, 329795, Note_off_c, 0, 72, 62
1, 329856, Note_off_c, 0, 45, 0
1, 329856, Note_on_c, 0, 48, 97
1, 329856, Note_off_c, 0, 55, 0
1, 329856, Note_on_c, 0, 55, 97
1, 329856, Note_off_c, 0, 60, 0
1, 329856, Note_on_c, 0, 60, 97
1, 329856, Note_off_c, 0, 64, 0
1, 329856, Note_on_c, 0, 64, 97
1, 330240, Note_on_c, 0, 45, 74
1, 330240, Note_off_c, 0, 48, 0
1, 330240, Note_off_c, 0, 55, 0
1, 330240, Note_on_c, 0, 57, 74
1, 330240, Note_off_c, 0, 60, 0
1, 330240, Note_off_c, 0, 64, 0
1, 330240, Note_on_c, 0, 69, 74
1, 330240, Note_on_c, 0, 72, 70
1, 330240, Note_on_c, 0, 76, 62
1, 330432, Note_off_c, 0, 76, 64
1, 330432, Note_on_c, 0, 76, 122
1, 330624, Note_off_c, 0, 45, 64
1, 330624, Note_on_c, 0, 53, 83
1, 330624, Note_off_c, 0, 57, 64
1, 330624, Note_on_c, 0, 65, 83
1, 330624, Note_off_c, 0, 69, 64
1, 330624, Note_on_c, 0, 69, 74
1, 330624, Note_off_c, 0, 72, 64
1, 330624, Note_on_c, 0, 72, 68
1, 330624, Note_off_c, 0, 76, 64
1, 330816, Note_on_c, 0, 76, 122
1, 331008, Note_on_c, 0, 48, 69
1, 331008, Note_off_c, 0, 53, 64
1, 331008, Note_on_c, 0, 60, 69
1, 331008, Note_off_c, 0, 65, 64
1, 331008, Note_on_c, 0, 67, 81
1, 331008, Note_off_c, 0, 69, 64
1, 331008, Note_off_c, 0, 72, 64
1, 331008, Note_on_c, 0, 72, 69
1, 331008, Note_off_c, 0, 76, 64
1, 331008, Note_on_c, 0, 76, 76
1, 331200, Note_off_c, 0, 76, 64
1, 331200, Note_on_c, 0, 76, 122
1, 331392, Note_on_c, 0, 43, 76
1, 331392, Note_off_c, 0, 48, 64
1, 331392, Note_on_c, 0, 55, 76
1, 331392, Note_off_c, 0, 60, 64
1, 331392, Note_off_c, 0, 67, 64
1, 331392, Note_on_c, 0, 67, 76
1, 331392, Note_on_c, 0, 71, 78
1, 331392, Note_off_c, 0, 72, 64
1, 331392, Note_on_c, 0, 74, 62
1, 331392, Note_off_c, 0, 76, 64
1, 331584, Note_on_c, 0, 76, 122
1, 331776, Note_off_c, 0, 43, 64
1, 331776, Note_on_c, 0, 45, 100
1, 331776, Note_on_c, 0, 52, 100
1, 331776, Note_off_c, 0, 55, 64
1, 331776, Note_on_c, 0, 57, 127
1, 331776, Note_off_c, 0, 67, 64
1, 331776, Note_off_c, 0, 71, 64
1, 331776, Note_off_c, 0, 74, 64
1, 331776, Note_off_c, 0, 76, 64
1, 331848, Note_off_c, 0, 57, 0
1, 331872, Note_off_c, 0, 45, 64
1, 331872, Note_off_c, 0, 52, 64
1, 331920, Note_on_c, 0, 41, 100
1, 331920, Note_on_c, 0, 48, 100
1, 331920, Note_on_c, 0, 60, 127
1, 331932, Note_off_c, 0, 60, 0
1, 331944, Note_on_c, 0, 60, 127
1, 331956, Note_off_c, 0, 60, 64
1, 331968, Note_off_c, 0, 41, 64
1, 331968, Note_on_c, 0, 41, 100
1, 331968, Note_off_c, 0, 48, 64
1, 331968, Note_on_c, 0, 48, 100
1, 331968, Note_on_c, 0, 59, 127
1, 331992, Note_off_c, 0, 41, 64
1, 331992, Note_off_c, 0, 48, 64
1, 332016, Note_on_c, 0, 41, 100
1, 332016, Note_on_c, 0, 48, 100
1, 332040, Note_off_c, 0, 41, 64
1, 332040, Note_off_c, 0, 48, 64
1, 332040, Note_off_c, 0, 59, 64
1, 332064, Note_on_c, 0, 41, 100
1, 332064, Note_on_c, 0, 48, 100
1, 332064, Note_on_c, 0, 57, 127
1, 332088, Note_off_c, 0, 41, 64
1, 332088, Note_off_c, 0, 48, 64
1, 332112, Note_on_c, 0, 41, 100
1, 332112, Note_on_c, 0, 48, 100
1, 332136, Note_off_c, 0, 57, 64
1, 332160, Note_off_c, 0, 41, 64
1, 332160, Note_on_c, 0, 41, 100
1, 332160, Note_off_c, 0, 48, 64
1, 332160, Note_on_c, 0, 48, 100
1, 332160, Note_on_c, 0, 57, 127
1, 332232, Note_off_c, 0, 57, 64
1, 332256, Note_off_c, 0, 41, 64
1, 332256, Note_off_c, 0, 48, 64
1, 332304, Note_on_c, 0, 43, 100
1, 332304, Note_on_c, 0, 50, 100
1, 332304, Note_on_c, 0, 60, 127
1, 332352, Note_off_c, 0, 43, 64
1, 332352, Note_on_c, 0, 43, 100
1, 332352, Note_off_c, 0, 50, 64
1, 332352, Note_on_c, 0, 50, 100
1, 332352, Note_on_c, 0, 62, 127
1, 332356, Note_off_c, 0, 60, 64
1, 332400, Note_off_c, 0, 43, 64
1, 332400, Note_off_c, 0, 50, 64
1, 332401, Note_off_c, 0, 62, 0
1, 332424, Note_on_c, 0, 43, 100
1, 332424, Note_on_c, 0, 50, 100
1, 332424, Note_on_c, 0, 60, 127
1, 332466, Note_off_c, 0, 60, 0
1, 332472, Note_off_c, 0, 43, 64
1, 332472, Note_off_c, 0, 50, 64
1, 332496, Note_on_c, 0, 43, 100
1, 332496, Note_on_c, 0, 50, 100
1, 332496, Note_on_c, 0, 59, 127
1, 332538, Note_off_c, 0, 59, 0
1, 332544, Note_off_c, 0, 43, 64
1, 332544, Note_on_c, 0, 45, 100
1, 332544, Note_off_c, 0, 50, 64
1, 332544, Note_on_c, 0, 52, 100
1, 332544, Note_on_c, 0, 57, 127
1, 332616, Note_off_c, 0, 57, 64
1, 332640, Note_off_c, 0, 45, 64
1, 332640, Note_off_c, 0, 52, 64
1, 332688, Note_on_c, 0, 38, 100
1, 332688, Note_on_c, 0, 45, 100
1, 332688, Note_on_c, 0, 59, 127
1, 332700, Note_off_c, 0, 59, 64
1, 332712, Note_on_c, 0, 59, 127
1, 332724, Note_off_c, 0, 59, 64
1, 332736, Note_off_c, 0, 38, 64
1, 332736, Note_on_c, 0, 38, 100
1, 332736, Note_off_c, 0, 45, 64
1, 332736, Note_on_c, 0, 45, 100
1, 332736, Note_on_c, 0, 60, 127
1, 332760, Note_off_c, 0, 38, 64
1, 332760, Note_off_c, 0, 45, 64
1, 332784, Note_on_c, 0, 38, 100
1, 332784, Note_on_c, 0, 45, 100
1, 332808, Note_off_c, 0, 38, 64
1, 332808, Note_off_c, 0, 45, 64
1, 332808, Note_off_c, 0, 60, 64
1, 332832, Note_on_c, 0, 38, 100
1, 332832, Note_on_c, 0, 45, 100
1, 332832, Note_on_c, 0, 59, 127
1, 332856, Note_off_c, 0, 38, 64
1, 332856, Note_off_c, 0, 45, 64
1, 332880, Note_on_c, 0, 38, 100
1, 332880, Note_on_c, 0, 45, 100
1, 332904, Note_off_c, 0, 59, 64
1, 332928, Note_off_c, 0, 38, 64
1, 332928, Note_on_c, 0, 41, 100
1, 332928, Note_off_c, 0, 45, 64
1, 332928, Note_on_c, 0, 48, 100
1, 332928, Note_on_c, 0, 57, 127
1, 332976, Note_off_c, 0, 41, 64
1, 332976, Note_off_c, 0, 48, 64
1, 333023, Note_off_c, 0, 57, 64
1, 333024, Note_on_c, 0, 41, 100
1, 333024, Note_on_c, 0, 48, 100
1, 333024, Note_on_c, 0, 60, 127
1, 333064, Note_off_c, 0, 60, 64
1, 333072, Note_off_c, 0, 41, 64
1, 333072, Note_on_c, 0, 43, 100
1, 333072, Note_off_c, 0, 48, 64
1, 333072, Note_on_c, 0, 50, 100
1, 333072, Note_on_c, 0, 59, 127
1, 333112, Note_off_c, 0, 59, 64
1, 333120, Note_off_c, 0, 43, 64
1, 333120, Note_on_c, 0, 43, 100
1, 333120, Note_off_c, 0, 50, 64
1, 333120, Note_on_c, 0, 50, 100
1, 333120, Note_on_c, 0, 62, 127
1, 333168, Note_off_c, 0, 43, 64
1, 333168, Note_on_c, 0, 43, 100
1, 333168, Note_off_c, 0, 50, 64
1, 333168, Note_on_c, 0, 50, 100
1, 333169, Note_off_c, 0, 62, 64
1, 333192, Note_on_c, 0, 64, 127
1, 333216, Note_off_c, 0, 43, 64
1, 333216, Note_off_c, 0, 50, 64
1, 333234, Note_off_c, 0, 64, 64
1, 333264, Note_on_c, 0, 67, 127
1, 333306, Note_off_c, 0, 67, 64
1, 333312, Note_on_c, 0, 33, 101
1, 333360, Note_on_c, 0, 64, 101
1, 333396, Note_off_c, 0, 64, 64
1, 333405, Note_off_c, 0, 33, 64
1, 333408, Note_on_c, 0, 60, 101
1, 333444, Note_off_c, 0, 60, 64
1, 333456, Note_on_c, 0, 33, 101
1, 333501, Note_off_c, 0, 33, 64
1, 333504, Note_on_c, 0, 33, 101
1, 333551, Note_on_c, 0, 60, 101
1, 333587, Note_off_c, 0, 60, 64
1, 333591, Note_off_c, 0, 33, 64
1, 333599, Note_on_c, 0, 59, 101
1, 333600, Note_on_c, 0, 33, 101
1, 333635, Note_off_c, 0, 59, 64
1, 333648, Note_off_c, 0, 33, 64
1, 333648, Note_on_c, 0, 45, 101
1, 333696, Note_on_c, 0, 33, 101
1, 333696, Note_off_c, 0, 45, 64
1, 333743, Note_on_c, 0, 59, 101
1, 333779, Note_off_c, 0, 59, 64
1, 333789, Note_off_c, 0, 33, 64
1, 333791, Note_on_c, 0, 57, 101
1, 333827, Note_off_c, 0, 57, 64
1, 333840, Note_on_c, 0, 33, 101
1, 333885, Note_off_c, 0, 33, 64
1, 333888, Note_on_c, 0, 33, 101
1, 333935, Note_on_c, 0, 60, 101
1, 333971, Note_off_c, 0, 60, 64
1, 333975, Note_off_c, 0, 33, 64
1, 333983, Note_on_c, 0, 59, 101
1, 333984, Note_on_c, 0, 33, 101
1, 334019, Note_off_c, 0, 59, 64
1, 334032, Note_off_c, 0, 33, 64
1, 334032, Note_on_c, 0, 45, 101
1, 334080, Note_on_c, 0, 41, 101
1, 334080, Note_off_c, 0, 45, 64
1, 334128, Note_on_c, 0, 64, 101
1, 334164, Note_off_c, 0, 64, 64
1, 334173, Note_off_c, 0, 41, 64
1, 334176, Note_on_c, 0, 60, 101
1, 334212, Note_off_c, 0, 60, 64
1, 334224, Note_on_c, 0, 41, 101
1, 334269, Note_off_c, 0, 41, 64
1, 334272, Note_on_c, 0, 41, 101
1, 334319, Note_on_c, 0, 60, 101
1, 334355, Note_off_c, 0, 60, 64
1, 334359, Note_off_c, 0, 41, 64
1, 334367, Note_on_c, 0, 59, 101
1, 334368, Note_on_c, 0, 41, 101
1, 334403, Note_off_c, 0, 59, 64
1, 334416, Note_on_c, 0, 40, 101
1, 334416, Note_off_c, 0, 41, 64
1, 334464, Note_on_c, 0, 38, 101
1, 334464, Note_off_c, 0, 40, 64
1, 334511, Note_on_c, 0, 62, 101
1, 334547, Note_off_c, 0, 62, 64
1, 334557, Note_off_c, 0, 38, 64
1, 334559, Note_on_c, 0, 62, 101
1, 334595, Note_off_c, 0, 62, 64
1, 334608, Note_on_c, 0, 38, 101
1, 334653, Note_off_c, 0, 38, 64
1, 334655, Note_on_c, 0, 62, 101
1, 334656, Note_on_c, 0, 38, 101
1, 334691, Note_off_c, 0, 62, 64
1, 334703, Note_on_c, 0, 60, 101
1, 334739, Note_off_c, 0, 60, 64
1, 334743, Note_off_c, 0, 38, 64
1, 334752, Note_on_c, 0, 38, 101
1, 334799, Note_on_c, 0, 59, 101
1, 334800, Note_off_c, 0, 38, 64
1, 334800, Note_on_c, 0, 50, 101
1, 334835, Note_off_c, 0, 59, 64
1, 334848, Note_on_c, 0, 45, 62
1, 334848, Note_off_c, 0, 50, 64
1, 334848, Note_on_c, 0, 57, 62
1, 334848, Note_on_c, 0, 60, 60
1, 334848, Note_on_c, 0, 64, 65
1, 334848, Note_on_c, 0, 72, 65
1, 334944, Note_off_c, 0, 45, 64
1, 334944, Note_off_c, 0, 57, 64
1, 334944, Note_off_c, 0, 60, 64
1, 334944, Note_off_c, 0, 64, 64
1, 334944, Note_off_c, 0, 72, 64
1, 334992, Note_on_c, 0, 45, 62
1, 334992, Note_on_c, 0, 57, 62
1, 334992, Note_on_c, 0, 60, 60
1, 334992, Note_on_c, 0, 64, 65
1, 334992, Note_on_c, 0, 72, 65
1, 335088, Note_off_c, 0, 45, 64
1, 335088, Note_off_c, 0, 57, 64
1, 335088, Note_off_c, 0, 60, 64
1, 335088, Note_off_c, 0, 64, 64
1, 335088, Note_off_c, 0, 72, 64
1, 335136, Note_on_c, 0, 45, 62
1, 335136, Note_on_c, 0, 57, 62
1, 335136, Note_on_c, 0, 60, 60
1, 335136, Note_on_c, 0, 64, 65
1, 335136, Note_on_c, 0, 72, 65
1, 335232, Note_off_c, 0, 45, 64
1, 335232, Note_off_c, 0, 57, 64
1, 335232, Note_off_c, 0, 60, 64
1, 335232, Note_off_c, 0, 64, 64
1, 335232, Note_off_c, 0, 72, 64
1, 335280, Note_on_c, 0, 45, 62
1, 335280, Note_on_c, 0, 57, 62
1, 335280, Note_on_c, 0, 60, 60
1, 335280, Note_on_c, 0, 64, 65
1, 335280, Note_on_c, 0, 72, 65
1, 335376, Note_off_c, 0, 45, 64
1, 335376, Note_off_c, 0, 57, 64
1, 335376, Note_off_c, 0, 60, 64
1, 335376, Note_off_c, 0, 64, 64
1, 335376, Note_off_c, 0, 72, 64
1, 335424, Note_on_c, 0, 45, 62
1, 335424, Note_on_c, 0, 57, 62
1, 335424, Note_on_c, 0, 60, 60
1, 335424, Note_on_c, 0, 64, 65
1, 335424, Note_on_c, 0, 72, 65
1, 335520, Note_off_c, 0, 45, 64
1, 335520, Note_off_c, 0, 57, 64
1, 335520, Note_off_c, 0, 60, 64
1, 335520, Note_off_c, 0, 64, 64
1, 335520, Note_off_c, 0, 72, 64
1, 335568, Note_on_c, 0, 45, 62
1, 335568, Note_on_c, 0, 57, 62
1, 335568, Note_on_c, 0, 60, 60
1, 335568, Note_on_c, 0, 64, 65
1, 335616, Note_off_c, 0, 45, 64
1, 335616, Note_on_c, 0, 48, 62
1, 335616, Note_off_c, 0, 57, 64
1, 335616, Note_off_c, 0, 60, 64
1, 335616, Note_on_c, 0, 60, 62
1, 335616, Note_off_c, 0, 64, 64
1, 335616, Note_on_c, 0, 64, 60
1, 335616, Note_on_c, 0, 67, 65
1, 335616, Note_on_c, 0, 74, 65
1, 335712, Note_off_c, 0, 48, 64
1, 335712, Note_off_c, 0, 60, 64
1, 335712, Note_off_c, 0, 64, 64
1, 335712, Note_off_c, 0, 67, 64
1, 335712, Note_off_c, 0, 74, 64
1, 335760, Note_on_c, 0, 48, 62
1, 335760, Note_on_c, 0, 60, 62
1, 335760, Note_on_c, 0, 64, 60
1, 335760, Note_on_c, 0, 67, 65
1, 335760, Note_on_c, 0, 74, 65
1, 335856, Note_off_c, 0, 48, 64
1, 335856, Note_off_c, 0, 60, 64
1, 335856, Note_off_c, 0, 64, 64
1, 335856, Note_off_c, 0, 67, 64
1, 335856, Note_off_c, 0, 74, 64
1, 335904, Note_on_c, 0, 50, 53
1, 335904, Note_on_c, 0, 62, 53
1, 335904, Note_on_c, 0, 65, 76
1, 335904, Note_on_c, 0, 69, 65
1, 335904, Note_on_c, 0, 72, 65
1, 336000, Note_off_c, 0, 50, 64
1, 336000, Note_off_c, 0, 62, 64
1, 336000, Note_off_c, 0, 65, 64
1, 336000, Note_off_c, 0, 69, 64
1, 336000, Note_off_c, 0, 72, 64
1, 336048, Note_on_c, 0, 50, 53
1, 336048, Note_on_c, 0, 62, 53
1, 336048, Note_on_c, 0, 65, 76
1, 336048, Note_on_c, 0, 69, 65
1, 336048, Note_on_c, 0, 72, 65
1, 336144, Note_off_c, 0, 50, 64
1, 336144, Note_off_c, 0, 62, 64
1, 336144, Note_off_c, 0, 65, 64
1, 336144, Note_off_c, 0, 69, 64
1, 336144, Note_off_c, 0, 72, 64
1, 336192, Note_on_c, 0, 50, 53
1, 336192, Note_on_c, 0, 62, 53
1, 336192, Note_on_c, 0, 65, 76
1, 336192, Note_on_c, 0, 69, 65
1, 336192, Note_on_c, 0, 72, 65
1, 336288, Note_off_c, 0, 50, 64
1, 336288, Note_off_c, 0, 62, 64
1, 336288, Note_off_c, 0, 65, 64
1, 336288, Note_off_c, 0, 69, 64
1, 336288, Note_off_c, 0, 72, 64
1, 336336, Note_on_c, 0, 50, 53
1, 336336, Note_on_c, 0, 62, 53
1, 336336, Note_on_c, 0, 65, 76
1, 336336, Note_on_c, 0, 69, 65
1, 336336, Note_on_c, 0, 72, 65
1, 336384, Note_on_c, 0, 45, 91
1, 336384, Note_off_c, 0, 50, 64
1, 336384, Note_on_c, 0, 55, 85
1, 336384, Note_on_c, 0, 60, 89
1, 336384, Note_off_c, 0, 62, 64
1, 336384, Note_on_c, 0, 64, 103
1, 336384, Note_off_c, 0, 65, 64
1, 336384, Note_off_c, 0, 69, 64
1, 336384, Note_off_c, 0, 72, 64
1, 336480, Note_on_c, 0, 72, 98
1, 336516, Note_off_c, 0, 72, 20
1, 336576, Note_on_c, 0, 74, 108
1, 336610, Note_off_c, 0, 74, 34
1, 336666, Note_off_c, 0, 45, 65
1, 336666, Note_off_c, 0, 55, 61
1, 336666, Note_off_c, 0, 60, 44
1, 336666, Note_off_c, 0, 64, 49
1, 336672, Note_on_c, 0, 76, 116
1, 336701, Note_off_c, 0, 76, 59
1, 336768, Note_on_c, 0, 43, 80
1, 336768, Note_on_c, 0, 55, 69
1, 336768, Note_on_c, 0, 59, 87
1, 336768, Note_on_c, 0, 64, 80
1, 336768, Note_on_c, 0, 79, 103
1, 336804, Note_off_c, 0, 79, 18
1, 336864, Note_on_c, 0, 81, 99
1, 336888, Note_off_c, 0, 81, 70
1, 336912, Note_on_c, 0, 79, 96
1, 336977, Note_off_c, 0, 79, 18
1, 337008, Note_on_c, 0, 76, 99
1, 337050, Note_off_c, 0, 43, 65
1, 337050, Note_off_c, 0, 55, 66
1, 337050, Note_off_c, 0, 59, 79
1, 337050, Note_off_c, 0, 64, 62
1, 337063, Note_off_c, 0, 76, 45
1, 337104, Note_on_c, 0, 74, 81
1, 337152, Note_on_c, 0, 42, 74
1, 337152, Note_on_c, 0, 54, 74
1, 337152, Note_on_c, 0, 57, 90
1, 337152, Note_on_c, 0, 64, 89
1, 337203, Note_off_c, 0, 74, 51
1, 337248, Note_on_c, 0, 76, 85
1, 337285, Note_off_c, 0, 76, 53
1, 337296, Note_on_c, 0, 74, 74
1, 337425, Note_off_c, 0, 74, 33
1, 337434, Note_off_c, 0, 42, 64
1, 337434, Note_off_c, 0, 54, 66
1, 337434, Note_off_c, 0, 57, 63
1, 337434, Note_off_c, 0, 64, 56
1, 337440, Note_on_c, 0, 76, 91
1, 337488, Note_on_c, 0, 74, 74
1, 337498, Note_off_c, 0, 76, 54
1, 337536, Note_on_c, 0, 41, 76
1, 337536, Note_on_c, 0, 53, 76
1, 337536, Note_on_c, 0, 57, 102
1, 337536, Note_on_c, 0, 64, 102
1, 337569, Note_off_c, 0, 74, 52
1, 337584, Note_on_c, 0, 69, 80
1, 337629, Note_off_c, 0, 69, 46
1, 337632, Note_on_c, 0, 72, 78
1, 337665, Note_off_c, 0, 72, 36
1, 337680, Note_on_c, 0, 74, 80
1, 337696, Note_off_c, 0, 74, 55
1, 337722, Note_off_c, 0, 41, 54
1, 337728, Note_on_c, 0, 38, 98
1, 337728, Note_on_c, 0, 74, 87
1, 337736, Note_on_c, 0, 76, 91
1, 337745, Note_off_c, 0, 74, 31
1, 337762, Note_off_c, 0, 76, 38
1, 337824, Note_on_c, 0, 72, 89
1, 337853, Note_off_c, 0, 72, 35
1, 337920, Note_on_c, 0, 17, 91
1, 337920, Note_off_c, 0, 38, 80
1, 337920, Note_on_c, 0, 45, 78
1, 337920, Note_on_c, 0, 52, 92
1, 337920, Note_off_c, 0, 53, 54
1, 337920, Note_off_c, 0, 57, 89
1, 337920, Note_off_c, 0, 64, 57
1, 337920, Note_on_c, 0, 69, 85
1, 337964, Note_off_c, 0, 69, 51
1, 337969, Note_off_c, 0, 17, 57
1, 337978, Note_off_c, 0, 52, 70
1, 337979, Note_off_c, 0, 45, 50
1, 337992, Note_on_c, 0, 17, 92
1, 337992, Note_on_c, 0, 45, 78
1, 337992, Note_on_c, 0, 52, 92
1, 338016, Note_on_c, 0, 72, 59
1, 338042, Note_off_c, 0, 17, 50
1, 338046, Note_off_c, 0, 52, 69
1, 338047, Note_off_c, 0, 45, 53
1, 338050, Note_off_c, 0, 72, 28
1, 338064, Note_on_c, 0, 17, 91
1, 338064, Note_on_c, 0, 45, 82
1, 338064, Note_on_c, 0, 52, 105
1, 338109, Note_off_c, 0, 17, 50
1, 338112, Note_on_c, 0, 74, 89
1, 338117, Note_off_c, 0, 52, 72
1, 338118, Note_off_c, 0, 45, 48
1, 338136, Note_on_c, 0, 17, 94
1, 338136, Note_on_c, 0, 45, 76
1, 338136, Note_on_c, 0, 52, 99
1, 338142, Note_off_c, 0, 74, 36
1, 338184, Note_off_c, 0, 17, 38
1, 338189, Note_off_c, 0, 52, 66
1, 338190, Note_off_c, 0, 45, 48
1, 338208, Note_on_c, 0, 29, 108
1, 338208, Note_on_c, 0, 45, 73
1, 338208, Note_on_c, 0, 52, 94
1, 338208, Note_on_c, 0, 76, 97
1, 338241, Note_off_c, 0, 76, 54
1, 338242, Note_off_c, 0, 29, 55
1, 338246, Note_off_c, 0, 45, 66
1, 338250, Note_off_c, 0, 52, 85
1, 338304, Note_on_c, 0, 17, 96
1, 338304, Note_on_c, 0, 45, 100
1, 338304, Note_on_c, 0, 52, 109
1, 338304, Note_on_c, 0, 79, 96
1, 338337, Note_off_c, 0, 79, 33
1, 338352, Note_off_c, 0, 17, 48
1, 338357, Note_off_c, 0, 52, 78
1, 338358, Note_off_c, 0, 45, 64
1, 338376, Note_on_c, 0, 17, 92
1, 338376, Note_on_c, 0, 45, 82
1, 338376, Note_on_c, 0, 52, 98
1, 338400, Note_on_c, 0, 81, 89
1, 338417, Note_off_c, 0, 17, 48
1, 338423, Note_off_c, 0, 52, 56
1, 338424, Note_off_c, 0, 45, 47
1, 338441, Note_off_c, 0, 81, 39
1, 338448, Note_on_c, 0, 17, 96
1, 338448, Note_on_c, 0, 45, 80
1, 338448, Note_on_c, 0, 52, 98
1, 338483, Note_off_c, 0, 17, 42
1, 338496, Note_off_c, 0, 45, 48
1, 338496, Note_on_c, 0, 84, 108
1, 338498, Note_off_c, 0, 52, 75
1, 338515, Note_off_c, 0, 84, 59
1, 338520, Note_on_c, 0, 17, 92
1, 338520, Note_on_c, 0, 45, 85
1, 338520, Note_on_c, 0, 52, 99
1, 338568, Note_off_c, 0, 17, 29
1, 338572, Note_off_c, 0, 45, 44
1, 338576, Note_off_c, 0, 52, 68
1, 338592, Note_on_c, 0, 29, 108
1, 338592, Note_on_c, 0, 45, 85
1, 338592, Note_on_c, 0, 52, 99
1, 338592, Note_on_c, 0, 86, 71
1, 338600, Note_on_c, 0, 88, 89
1, 338603, Note_off_c, 0, 86, 57
1, 338618, Note_off_c, 0, 29, 49
1, 338626, Note_off_c, 0, 88, 57
1, 338640, Note_on_c, 0, 31, 108
1, 338640, Note_on_c, 0, 86, 89
1, 338645, Note_off_c, 0, 45, 45
1, 338646, Note_off_c, 0, 52, 69
1, 338660, Note_off_c, 0, 31, 57
1, 338674, Note_off_c, 0, 86, 48
1, 338688, Note_on_c, 0, 21, 94
1, 338688, Note_on_c, 0, 48, 67
1, 338688, Note_on_c, 0, 55, 92
1, 338736, Note_off_c, 0, 55, 58
1, 338736, Note_on_c, 0, 84, 98
1, 338739, Note_off_c, 0, 21, 72
1, 338743, Note_off_c, 0, 48, 47
1, 338760, Note_on_c, 0, 21, 98
1, 338760, Note_on_c, 0, 48, 87
1, 338760, Note_on_c, 0, 55, 92
1, 338777, Note_off_c, 0, 84, 36
1, 338805, Note_off_c, 0, 21, 67
1, 338808, Note_off_c, 0, 55, 36
1, 338812, Note_off_c, 0, 48, 40
1, 338832, Note_on_c, 0, 21, 97
1, 338832, Note_on_c, 0, 48, 77
1, 338832, Note_on_c, 0, 55, 87
1, 338832, Note_on_c, 0, 84, 86
1, 338854, Note_off_c, 0, 84, 38
1, 338878, Note_off_c, 0, 21, 68
1, 338878, Note_off_c, 0, 55, 32
1, 338885, Note_off_c, 0, 48, 37
1, 338904, Note_on_c, 0, 21, 98
1, 338904, Note_on_c, 0, 48, 78
1, 338904, Note_on_c, 0, 55, 86
1, 338948, Note_off_c, 0, 55, 36
1, 338950, Note_off_c, 0, 48, 25
1, 338954, Note_off_c, 0, 21, 55
1, 338976, Note_on_c, 0, 33, 105
1, 338976, Note_on_c, 0, 48, 81
1, 338976, Note_on_c, 0, 55, 87
1, 338976, Note_on_c, 0, 86, 82
1, 338988, Note_on_c, 0, 88, 89
1, 338990, Note_off_c, 0, 86, 65
1, 339010, Note_off_c, 0, 33, 53
1, 339015, Note_off_c, 0, 48, 50
1, 339018, Note_off_c, 0, 55, 50
1, 339023, Note_off_c, 0, 88, 32
1, 339024, Note_on_c, 0, 86, 96
1, 339058, Note_off_c, 0, 86, 25
1, 339072, Note_on_c, 0, 21, 98
1, 339072, Note_on_c, 0, 48, 91
1, 339072, Note_on_c, 0, 55, 96
1, 339120, Note_off_c, 0, 55, 42
1, 339123, Note_off_c, 0, 21, 75
1, 339123, Note_off_c, 0, 48, 39
1, 339144, Note_on_c, 0, 21, 95
1, 339144, Note_on_c, 0, 48, 76
1, 339144, Note_on_c, 0, 55, 81
1, 339168, Note_on_c, 0, 84, 84
1, 339186, Note_off_c, 0, 84, 52
1, 339187, Note_off_c, 0, 55, 36
1, 339194, Note_off_c, 0, 21, 68
1, 339195, Note_off_c, 0, 48, 29
1, 339216, Note_on_c, 0, 21, 95
1, 339216, Note_on_c, 0, 48, 73
1, 339216, Note_on_c, 0, 55, 80
1, 339257, Note_off_c, 0, 21, 69
1, 339257, Note_off_c, 0, 55, 46
1, 339262, Note_off_c, 0, 48, 29
1, 339264, Note_on_c, 0, 84, 92
1, 339286, Note_off_c, 0, 84, 42
1, 339288, Note_on_c, 0, 21, 91
1, 339288, Note_on_c, 0, 48, 76
1, 339288, Note_on_c, 0, 55, 82
1, 339312, Note_on_c, 0, 81, 91
1, 339329, Note_off_c, 0, 21, 62
1, 339331, Note_off_c, 0, 55, 34
1, 339333, Note_off_c, 0, 81, 72
1, 339338, Note_off_c, 0, 48, 20
1, 339360, Note_on_c, 0, 33, 99
1, 339360, Note_on_c, 0, 48, 84
1, 339360, Note_on_c, 0, 55, 89
1, 339360, Note_on_c, 0, 79, 70
1, 339379, Note_off_c, 0, 79, 31
1, 339390, Note_off_c, 0, 33, 73
1, 339408, Note_on_c, 0, 76, 85
1, 339409, Note_off_c, 0, 55, 48
1, 339410, Note_off_c, 0, 48, 40
1, 339421, Note_off_c, 0, 76, 81
1, 339456, Note_on_c, 0, 33, 82
1, 339456, Note_on_c, 0, 60, 82
1, 339516, Note_off_c, 0, 33, 48
1, 339516, Note_off_c, 0, 60, 35
1, 339552, Note_on_c, 0, 81, 105
1, 339600, Note_on_c, 0, 33, 70
1, 339600, Note_on_c, 0, 60, 59
1, 339611, Note_off_c, 0, 81, 70
1, 339648, Note_on_c, 0, 79, 93
1, 339660, Note_off_c, 0, 33, 66
1, 339660, Note_off_c, 0, 60, 21
1, 339702, Note_off_c, 0, 79, 66
1, 339744, Note_on_c, 0, 74, 87
1, 339752, Note_on_c, 0, 76, 106
1, 339757, Note_off_c, 0, 74, 64
1, 339791, Note_off_c, 0, 76, 58
1, 339792, Note_on_c, 0, 74, 111
1, 339840, Note_on_c, 0, 26, 81
1, 339840, Note_on_c, 0, 54, 89
1, 339892, Note_off_c, 0, 74, 67
1, 339900, Note_off_c, 0, 26, 49
1, 339900, Note_off_c, 0, 54, 51
1, 339936, Note_on_c, 0, 74, 106
1, 339982, Note_off_c, 0, 74, 58
1, 339984, Note_on_c, 0, 26, 80
1, 339984, Note_on_c, 0, 54, 79
1, 339984, Note_on_c, 0, 76, 92
1, 340021, Note_off_c, 0, 76, 50
1, 340032, Note_on_c, 0, 74, 91
1, 340044, Note_off_c, 0, 26, 50
1, 340044, Note_off_c, 0, 54, 51
1, 340101, Note_off_c, 0, 74, 50
1, 340128, Note_on_c, 0, 26, 79
1, 340128, Note_on_c, 0, 55, 91
1, 340128, Note_on_c, 0, 72, 96
1, 340180, Note_off_c, 0, 72, 52
1, 340188, Note_off_c, 0, 26, 43
1, 340188, Note_off_c, 0, 55, 50
1, 340224, Note_on_c, 0, 29, 78
1, 340224, Note_on_c, 0, 57, 75
1, 340284, Note_off_c, 0, 29, 33
1, 340284, Note_off_c, 0, 57, 58
1, 340318, Note_on_c, 0, 81, 108
1, 340368, Note_on_c, 0, 29, 72
1, 340368, Note_on_c, 0, 57, 79
1, 340384, Note_off_c, 0, 81, 56
1, 340416, Note_on_c, 0, 79, 97
1, 340428, Note_off_c, 0, 29, 36
1, 340428, Note_off_c, 0, 57, 59
1, 340478, Note_off_c, 0, 79, 38
1, 340512, Note_on_c, 0, 29, 65
1, 340512, Note_on_c, 0, 55, 77
1, 340512, Note_on_c, 0, 74, 95
1, 340516, Note_on_c, 0, 76, 95
1, 340520, Note_off_c, 0, 74, 64
1, 340549, Note_off_c, 0, 76, 67
1, 340560, Note_on_c, 0, 84, 91
1, 340572, Note_off_c, 0, 29, 31
1, 340572, Note_off_c, 0, 55, 69
1, 340608, Note_on_c, 0, 36, 80
1, 340608, Note_on_c, 0, 52, 86
1, 340662, Note_off_c, 0, 84, 48
1, 340668, Note_off_c, 0, 36, 32
1, 340668, Note_off_c, 0, 52, 50
1, 340703, Note_on_c, 0, 83, 105
1, 340752, Note_on_c, 0, 36, 70
1, 340752, Note_on_c, 0, 52, 80
1, 340753, Note_off_c, 0, 83, 62
1, 340800, Note_on_c, 0, 79, 94
1, 340812, Note_off_c, 0, 36, 20
1, 340812, Note_off_c, 0, 52, 17
1, 340845, Note_off_c, 0, 79, 67
1, 340846, Note_on_c, 0, 74, 85
1, 340851, Note_on_c, 0, 76, 87
1, 340854, Note_off_c, 0, 74, 46
1, 340884, Note_off_c, 0, 76, 40
1, 340896, Note_on_c, 0, 31, 75
1, 340896, Note_on_c, 0, 59, 88
1, 340945, Note_on_c, 0, 81, 98
1, 340956, Note_off_c, 0, 31, 46
1, 340956, Note_off_c, 0, 59, 76
1, 340991, Note_off_c, 0, 81, 82
1, 340992, Note_on_c, 0, 41, 100
1, 340992, Note_on_c, 0, 65, 100
1, 340992, Note_on_c, 0, 69, 100
1, 340992, Note_on_c, 0, 72, 100
1, 340992, Note_on_c, 0, 76, 100
1, 340992, Note_on_c, 0, 88, 100
1, 341016, Note_on_c, 0, 84, 100
1, 341016, Note_off_c, 0, 88, 64
1, 341040, Note_on_c, 0, 81, 100
1, 341040, Note_off_c, 0, 84, 64
1, 341064, Note_on_c, 0, 77, 100
1, 341064, Note_off_c, 0, 81, 64
1, 341088, Note_off_c, 0, 77, 64
1, 341088, Note_on_c, 0, 88, 100
1, 341112, Note_on_c, 0, 84, 100
1, 341112, Note_off_c, 0, 88, 64
1, 341136, Note_on_c, 0, 81, 100
1, 341136, Note_off_c, 0, 84, 64
1, 341160, Note_on_c, 0, 77, 100
1, 341160, Note_off_c, 0, 81, 64
1, 341184, Note_off_c, 0, 77, 64
1, 341184, Note_on_c, 0, 88, 100
1, 341208, Note_on_c, 0, 84, 100
1, 341208, Note_off_c, 0, 88, 64
1, 341232, Note_on_c, 0, 81, 100
1, 341232, Note_off_c, 0, 84, 64
1, 341256, Note_on_c, 0, 77, 100
1, 341256, Note_off_c, 0, 81, 64
1, 341280, Note_off_c, 0, 77, 64
1, 341280, Note_on_c, 0, 88, 100
1, 341304, Note_on_c, 0, 84, 100
1, 341304, Note_off_c, 0, 88, 64
1, 341328, Note_on_c, 0, 81, 100
1, 341328, Note_off_c, 0, 84, 64
1, 341352, Note_on_c, 0, 77, 100
1, 341352, Note_off_c, 0, 81, 64
1, 341376, Note_off_c, 0, 77, 64
1, 341376, Note_on_c, 0, 88, 100
1, 341400, Note_on_c, 0, 84, 100
1, 341400, Note_off_c, 0, 88, 64
1, 341424, Note_on_c, 0, 81, 100
1, 341424, Note_off_c, 0, 84, 64
1, 341448, Note_on_c, 0, 77, 100
1, 341448, Note_off_c, 0, 81, 64
1, 341472, Note_off_c, 0, 77, 64
1, 341472, Note_on_c, 0, 88, 100
1, 341496, Note_on_c, 0, 84, 100
1, 341496, Note_off_c, 0, 88, 64
1, 341520, Note_on_c, 0, 81, 100
1, 341520, Note_off_c, 0, 84, 64
1, 341544, Note_on_c, 0, 77, 100
1, 341544, Note_off_c, 0, 81, 64
1, 341568, Note_off_c, 0, 77, 64
1, 341568, Note_on_c, 0, 88, 100
1, 341592, Note_on_c, 0, 84, 100
1, 341592, Note_off_c, 0, 88, 64
1, 341616, Note_on_c, 0, 81, 100
1, 341616, Note_off_c, 0, 84, 64
1, 341640, Note_on_c, 0, 77, 100
1, 341640, Note_off_c, 0, 81, 64
1, 341664, Note_off_c, 0, 41, 64
1, 341664, Note_on_c, 0, 60, 100
1, 341664, Note_off_c, 0, 77, 64
1, 341664, Note_on_c, 0, 88, 100
1, 341688, Note_on_c, 0, 84, 100
1, 341688, Note_off_c, 0, 88, 64
1, 341712, Note_on_c, 0, 59, 100
1, 341712, Note_off_c, 0, 60, 64
1, 341712, Note_on_c, 0, 81, 100
1, 341712, Note_off_c, 0, 84, 64
1, 341736, Note_on_c, 0, 77, 100
1, 341736, Note_off_c, 0, 81, 64
1, 341760, Note_on_c, 0, 45, 100
1, 341760, Note_on_c, 0, 57, 100
1, 341760, Note_off_c, 0, 59, 64
1, 341760, Note_off_c, 0, 65, 64
1, 341760, Note_off_c, 0, 69, 64
1, 341760, Note_off_c, 0, 72, 64
1, 341760, Note_on_c, 0, 72, 100
1, 341760, Note_off_c, 0, 76, 64
1, 341760, Note_on_c, 0, 76, 100
1, 341760, Note_off_c, 0, 77, 64
1, 341760, Note_on_c, 0, 79, 100
1, 341760, Note_on_c, 0, 91, 100
1, 341784, Note_on_c, 0, 88, 100
1, 341784, Note_off_c, 0, 91, 64
1, 341808, Note_on_c, 0, 84, 100
1, 341808, Note_off_c, 0, 88, 64
1, 341832, Note_on_c, 0, 81, 100
1, 341832, Note_off_c, 0, 84, 64
1, 341856, Note_off_c, 0, 81, 64
1, 341856, Note_on_c, 0, 91, 100
1, 341880, Note_on_c, 0, 88, 100
1, 341880, Note_off_c, 0, 91, 64
1, 341904, Note_on_c, 0, 84, 100
1, 341904, Note_off_c, 0, 88, 64
1, 341928, Note_on_c, 0, 81, 100
1, 341928, Note_off_c, 0, 84, 64
1, 341952, Note_off_c, 0, 81, 64
1, 341952, Note_on_c, 0, 91, 100
1, 341976, Note_on_c, 0, 88, 100
1, 341976, Note_off_c, 0, 91, 64
1, 342000, Note_on_c, 0, 84, 100
1, 342000, Note_off_c, 0, 88, 64
1, 342024, Note_on_c, 0, 81, 100
1, 342024, Note_off_c, 0, 84, 64
1, 342048, Note_off_c, 0, 81, 64
1, 342048, Note_on_c, 0, 91, 100
1, 342072, Note_on_c, 0, 88, 100
1, 342072, Note_off_c, 0, 91, 64
1, 342096, Note_on_c, 0, 84, 100
1, 342096, Note_off_c, 0, 88, 64
1, 342120, Note_on_c, 0, 81, 100
1, 342120, Note_off_c, 0, 84, 64
1, 342144, Note_off_c, 0, 45, 64
1, 342144, Note_on_c, 0, 47, 100
1, 342144, Note_off_c, 0, 57, 64
1, 342144, Note_on_c, 0, 59, 100
1, 342144, Note_off_c, 0, 72, 64
1, 342144, Note_on_c, 0, 72, 100
1, 342144, Note_off_c, 0, 76, 64
1, 342144, Note_on_c, 0, 76, 100
1, 342144, Note_off_c, 0, 79, 64
1, 342144, Note_on_c, 0, 79, 100
1, 342144, Note_off_c, 0, 81, 64
1, 342144, Note_on_c, 0, 91, 100
1, 342168, Note_on_c, 0, 88, 100
1, 342168, Note_off_c, 0, 91, 64
1, 342192, Note_on_c, 0, 84, 100
1, 342192, Note_off_c, 0, 88, 64
1, 342216, Note_on_c, 0, 83, 100
1, 342216, Note_off_c, 0, 84, 64
1, 342240, Note_off_c, 0, 83, 64
1, 342240, Note_on_c, 0, 91, 100
1, 342264, Note_on_c, 0, 88, 100
1, 342264, Note_off_c, 0, 91, 64
1, 342288, Note_on_c, 0, 84, 100
1, 342288, Note_off_c, 0, 88, 64
1, 342312, Note_on_c, 0, 83, 100
1, 342312, Note_off_c, 0, 84, 64
1, 342336, Note_off_c, 0, 47, 64
1, 342336, Note_on_c, 0, 48, 100
1, 342336, Note_off_c, 0, 83, 64
1, 342336, Note_on_c, 0, 91, 100
1, 342360, Note_on_c, 0, 88, 100
1, 342360, Note_off_c, 0, 91, 64
1, 342384, Note_on_c, 0, 84, 100
1, 342384, Note_off_c, 0, 88, 64
1, 342408, Note_on_c, 0, 83, 100
1, 342408, Note_off_c, 0, 84, 64
1, 342432, Note_off_c, 0, 83, 64
1, 342432, Note_on_c, 0, 91, 100
1, 342456, Note_on_c, 0, 88, 100
1, 342456, Note_off_c, 0, 91, 64
1, 342480, Note_on_c, 0, 84, 100
1, 342480, Note_off_c, 0, 88, 64
1, 342504, Note_on_c, 0, 83, 100
1, 342504, Note_off_c, 0, 84, 64
1, 342528, Note_on_c, 0, 33, 100
1, 342528, Note_on_c, 0, 45, 100
1, 342528, Note_off_c, 0, 48, 64
1, 342528, Note_on_c, 0, 52, 100
1, 342528, Note_on_c, 0, 57, 100
1, 342528, Note_off_c, 0, 59, 64
1, 342528, Note_off_c, 0, 72, 64
1, 342528, Note_off_c, 0, 76, 64
1, 342528, Note_off_c, 0, 79, 64
1, 342528, Note_off_c, 0, 83, 64
1, 342624, Note_off_c, 0, 33, 64
1, 342624, Note_off_c, 0, 45, 64
1, 342624, Note_off_c, 0, 52, 64
1, 342624, Note_off_c, 0, 57, 64
1, 342672, Note_on_c, 0, 33, 100
1, 342672, Note_on_c, 0, 45, 100
1, 342672, Note_on_c, 0, 52, 100
1, 342672, Note_on_c, 0, 67, 100
1, 342720, Note_off_c, 0, 33, 64
1, 342720, Note_on_c, 0, 33, 100
1, 342720, Note_off_c, 0, 45, 64
1, 342720, Note_on_c, 0, 45, 100
1, 342720, Note_off_c, 0, 52, 64
1, 342720, Note_on_c, 0, 52, 100
1, 342720, Note_on_c, 0, 64, 100
1, 342720, Note_off_c, 0, 67, 64
1, 342768, Note_off_c, 0, 33, 64
1, 342768, Note_on_c, 0, 33, 100
1, 342768, Note_off_c, 0, 45, 64
1, 342768, Note_on_c, 0, 45, 100
1, 342768, Note_off_c, 0, 52, 64
1, 342768, Note_on_c, 0, 52, 100
1, 342768, Note_on_c, 0, 57, 100
1, 342768, Note_off_c, 0, 64, 64
1, 342816, Note_off_c, 0, 33, 64
1, 342816, Note_on_c, 0, 33, 100
1, 342816, Note_off_c, 0, 45, 64
1, 342816, Note_on_c, 0, 45, 100
1, 342816, Note_off_c, 0, 52, 64
1, 342816, Note_on_c, 0, 52, 100
1, 342816, Note_off_c, 0, 57, 64
1, 342816, Note_on_c, 0, 60, 100
1, 342864, Note_off_c, 0, 33, 64
1, 342864, Note_on_c, 0, 33, 100
1, 342864, Note_off_c, 0, 45, 64
1, 342864, Note_on_c, 0, 45, 100
1, 342864, Note_off_c, 0, 52, 64
1, 342864, Note_on_c, 0, 52, 100
1, 342864, Note_on_c, 0, 59, 100
1, 342864, Note_off_c, 0, 60, 64
1, 342912, Note_on_c, 0, 29, 100
1, 342912, Note_off_c, 0, 33, 64
1, 342912, Note_off_c, 0, 45, 64
1, 342912, Note_on_c, 0, 45, 101
1, 342912, Note_on_c, 0, 48, 101
1, 342912, Note_off_c, 0, 52, 64
1, 342912, Note_on_c, 0, 57, 100
1, 342912, Note_off_c, 0, 59, 64
1, 343008, Note_off_c, 0, 29, 64
1, 343008, Note_off_c, 0, 45, 64
1, 343008, Note_off_c, 0, 48, 64
1, 343008, Note_off_c, 0, 57, 64
1, 343056, Note_on_c, 0, 29, 100
1, 343056, Note_on_c, 0, 45, 101
1, 343056, Note_on_c, 0, 48, 101
1, 343056, Note_on_c, 0, 57, 100
1, 343200, Note_off_c, 0, 29, 64
1, 343200, Note_off_c, 0, 45, 64
1, 343200, Note_off_c, 0, 48, 64
1, 343200, Note_off_c, 0, 57, 64
1, 343296, Note_on_c, 0, 29, 101
1, 343296, Note_on_c, 0, 48, 101
1, 343296, Note_on_c, 0, 57, 101
1, 343332, Note_off_c, 0, 29, 64
1, 343332, Note_off_c, 0, 48, 64
1, 343332, Note_off_c, 0, 57, 64
1, 343344, Note_on_c, 0, 29, 101
1, 343344, Note_on_c, 0, 48, 101
1, 343344, Note_on_c, 0, 59, 101
1, 343380, Note_off_c, 0, 29, 64
1, 343380, Note_off_c, 0, 48, 64
1, 343380, Note_off_c, 0, 59, 64
1, 343392, Note_on_c, 0, 29, 101
1, 343392, Note_on_c, 0, 48, 101
1, 343392, Note_on_c, 0, 60, 101
1, 343440, Note_off_c, 0, 29, 64
1, 343440, Note_off_c, 0, 48, 64
1, 343444, Note_off_c, 0, 60, 64
1, 343464, Note_on_c, 0, 29, 101
1, 343464, Note_on_c, 0, 48, 101
1, 343464, Note_on_c, 0, 60, 101
1, 343512, Note_off_c, 0, 29, 64
1, 343512, Note_off_c, 0, 48, 64
1, 343512, Note_off_c, 0, 60, 64
1, 343536, Note_on_c, 0, 31, 101
1, 343536, Note_on_c, 0, 47, 98
1, 343536, Note_on_c, 0, 59, 101
1, 343584, Note_off_c, 0, 31, 64
1, 343584, Note_off_c, 0, 47, 64
1, 343584, Note_off_c, 0, 59, 64
1, 343608, Note_on_c, 0, 31, 101
1, 343608, Note_on_c, 0, 47, 98
1, 343608, Note_on_c, 0, 50, 98
1, 343608, Note_on_c, 0, 55, 101
1, 343656, Note_off_c, 0, 31, 64
1, 343656, Note_off_c, 0, 47, 64
1, 343656, Note_off_c, 0, 50, 64
1, 343656, Note_off_c, 0, 55, 64
1, 343680, Note_on_c, 0, 33, 101
1, 343680, Note_on_c, 0, 45, 101
1, 343680, Note_on_c, 0, 48, 101
1, 343680, Note_on_c, 0, 52, 101
1, 343680, Note_on_c, 0, 57, 101
1, 344064, Note_off_c, 0, 33, 64
1, 344064, Note_on_c, 0, 41, 95
1, 344064, Note_off_c, 0, 45, 64
1, 344064, Note_off_c, 0, 48, 64
1, 344064, Note_off_c, 0, 52, 64
1, 344064, Note_off_c, 0, 57, 64
1, 344064, Note_on_c, 0, 57, 95
1, 344064, Note_on_c, 0, 60, 95
1, 344064, Note_on_c, 0, 64, 95
1, 344064, Note_on_c, 0, 69, 90
1, 344088, Note_off_c, 0, 69, 127
1, 344088, Note_on_c, 0, 72, 90
1, 344112, Note_off_c, 0, 72, 127
1, 344136, Note_on_c, 0, 76, 90
1, 344160, Note_off_c, 0, 76, 127
1, 344160, Note_on_c, 0, 79, 90
1, 344184, Note_off_c, 0, 79, 127
1, 344208, Note_on_c, 0, 76, 90
1, 344256, Note_off_c, 0, 76, 127
1, 344448, Note_off_c, 0, 41, 95
1, 344448, Note_on_c, 0, 45, 95
1, 344448, Note_off_c, 0, 57, 95
1, 344448, Note_off_c, 0, 60, 95
1, 344448, Note_on_c, 0, 60, 95
1, 344448, Note_off_c, 0, 64, 95
1, 344448, Note_on_c, 0, 64, 95
1, 344448, Note_on_c, 0, 67, 95
1, 344448, Note_on_c, 0, 76, 90
1, 344472, Note_on_c, 0, 72, 90
1, 344472, Note_off_c, 0, 76, 127
1, 344496, Note_off_c, 0, 72, 127
1, 344520, Note_on_c, 0, 72, 90
1, 344544, Note_off_c, 0, 72, 127
1, 344544, Note_on_c, 0, 79, 90
1, 344568, Note_off_c, 0, 79, 127
1, 344592, Note_on_c, 0, 40, 95
1, 344592, Note_off_c, 0, 45, 95
1, 344592, Note_on_c, 0, 55, 95
1, 344592, Note_on_c, 0, 59, 95
1, 344592, Note_off_c, 0, 60, 95
1, 344592, Note_on_c, 0, 62, 95
1, 344592, Note_off_c, 0, 64, 95
1, 344592, Note_off_c, 0, 67, 95
1, 344592, Note_on_c, 0, 74, 90
1, 344640, Note_off_c, 0, 74, 127
1, 344832, Note_on_c, 0, 69, 90
1, 344856, Note_off_c, 0, 69, 127
1, 344856, Note_on_c, 0, 72, 90
1, 344880, Note_off_c, 0, 72, 127
1, 344904, Note_on_c, 0, 76, 90
1, 344928, Note_off_c, 0, 76, 127
1, 344928, Note_on_c, 0, 79, 90
1, 344952, Note_off_c, 0, 79, 127
1, 344976, Note_on_c, 0, 74, 90
1, 345024, Note_off_c, 0, 74, 127
1, 345120, Note_on_c, 0, 81, 90
1, 345144, Note_on_c, 0, 79, 90
1, 345144, Note_off_c, 0, 81, 127
1, 345168, Note_on_c, 0, 74, 90
1, 345168, Note_off_c, 0, 79, 127
1, 345192, Note_on_c, 0, 72, 90
1, 345192, Note_off_c, 0, 74, 127
1, 345216, Note_off_c, 0, 40, 95
1, 345216, Note_on_c, 0, 41, 95
1, 345216, Note_on_c, 0, 53, 95
1, 345216, Note_off_c, 0, 55, 95
1, 345216, Note_on_c, 0, 57, 95
1, 345216, Note_off_c, 0, 59, 95
1, 345216, Note_on_c, 0, 60, 95
1, 345216, Note_off_c, 0, 62, 95
1, 345216, Note_off_c, 0, 72, 127
1, 345216, Note_on_c, 0, 76, 90
1, 345240, Note_on_c, 0, 72, 90
1, 345240, Note_off_c, 0, 76, 64
1, 345264, Note_off_c, 0, 72, 64
1, 345288, Note_on_c, 0, 72, 90
1, 345312, Note_on_c, 0, 69, 90
1, 345312, Note_off_c, 0, 72, 64
1, 345312, Note_on_c, 0, 79, 90
1, 345336, Note_off_c, 0, 69, 127
1, 345336, Note_off_c, 0, 79, 64
1, 345360, Note_on_c, 0, 72, 90
1, 345403, Note_on_c, 0, 62, 91
1, 345408, Note_off_c, 0, 72, 127
1, 345600, Note_on_c, 0, 33, 77
1, 345600, Note_off_c, 0, 41, 95
1, 345600, Note_off_c, 0, 53, 95
1, 345600, Note_off_c, 0, 57, 95
1, 345600, Note_off_c, 0, 60, 95
1, 345600, Note_on_c, 0, 60, 77
1, 345600, Note_off_c, 0, 62, 57
1, 345696, Note_on_c, 0, 74, 99
1, 345712, Note_on_c, 0, 76, 69
1, 345724, Note_off_c, 0, 74, 60
1, 345777, Note_off_c, 0, 76, 60
1, 345792, Note_on_c, 0, 74, 98
1, 345843, Note_off_c, 0, 74, 71
1, 345888, Note_on_c, 0, 72, 96
1, 345936, Note_on_c, 0, 69, 93
1, 345937, Note_off_c, 0, 72, 55
1, 345978, Note_off_c, 0, 69, 74
1, 345983, Note_off_c, 0, 33, 70
1, 345983, Note_off_c, 0, 60, 48
1, 345984, Note_on_c, 0, 31, 71
1, 345984, Note_on_c, 0, 59, 77
1, 346080, Note_on_c, 0, 67, 84
1, 346128, Note_off_c, 0, 67, 67
1, 346176, Note_on_c, 0, 72, 92
1, 346223, Note_off_c, 0, 72, 48
1, 346224, Note_on_c, 0, 74, 103
1, 346277, Note_off_c, 0, 74, 84
1, 346320, Note_on_c, 0, 69, 100
1, 346367, Note_off_c, 0, 31, 58
1, 346367, Note_off_c, 0, 59, 69
1, 346368, Note_on_c, 0, 30, 78
1, 346368, Note_on_c, 0, 62, 91
1, 346368, Note_off_c, 0, 69, 58
1, 346465, Note_on_c, 0, 74, 89
1, 346477, Note_on_c, 0, 76, 97
1, 346490, Note_off_c, 0, 74, 77
1, 346537, Note_off_c, 0, 76, 54
1, 346560, Note_on_c, 0, 74, 108
1, 346617, Note_off_c, 0, 74, 69
1, 346656, Note_on_c, 0, 72, 94
1, 346704, Note_on_c, 0, 69, 78
1, 346704, Note_off_c, 0, 72, 50
1, 346751, Note_off_c, 0, 30, 70
1, 346751, Note_off_c, 0, 62, 87
1, 346752, Note_on_c, 0, 29, 69
1, 346752, Note_on_c, 0, 57, 84
1, 346754, Note_off_c, 0, 69, 55
1, 346848, Note_on_c, 0, 67, 66
1, 346896, Note_off_c, 0, 67, 62
1, 346943, Note_off_c, 0, 29, 42
1, 346943, Note_off_c, 0, 57, 67
1, 346944, Note_on_c, 0, 31, 78
1, 346944, Note_on_c, 0, 59, 85
1, 346944, Note_on_c, 0, 77, 81
1, 346992, Note_on_c, 0, 76, 87
1, 347004, Note_off_c, 0, 77, 61
1, 347040, Note_off_c, 0, 76, 82
1, 347088, Note_on_c, 0, 72, 105
1, 347135, Note_off_c, 0, 31, 91
1, 347135, Note_off_c, 0, 59, 89
1, 347136, Note_on_c, 0, 33, 70
1, 347136, Note_on_c, 0, 45, 74
1, 347136, Note_on_c, 0, 60, 56
1, 347136, Note_on_c, 0, 64, 72
1, 347136, Note_on_c, 0, 67, 74
1, 347136, Note_off_c, 0, 72, 75
1, 347184, Note_on_c, 0, 95, 92
1, 347192, Note_on_c, 0, 96, 99
1, 347197, Note_off_c, 0, 95, 60
1, 347232, Note_on_c, 0, 95, 80
1, 347232, Note_off_c, 0, 96, 68
1, 347252, Note_off_c, 0, 95, 61
1, 347280, Note_on_c, 0, 93, 103
1, 347295, Note_off_c, 0, 93, 61
1, 347328, Note_on_c, 0, 91, 125
1, 347383, Note_off_c, 0, 91, 73
1, 347400, Note_on_c, 0, 93, 92
1, 347414, Note_off_c, 0, 93, 69
1, 347472, Note_on_c, 0, 88, 120
1, 347519, Note_off_c, 0, 33, 62
1, 347519, Note_off_c, 0, 45, 52
1, 347519, Note_off_c, 0, 60, 74
1, 347519, Note_off_c, 0, 64, 67
1, 347519, Note_off_c, 0, 67, 95
1, 347520, Note_on_c, 0, 36, 84
1, 347520, Note_on_c, 0, 48, 77
1, 347520, Note_on_c, 0, 64, 77
1, 347520, Note_on_c, 0, 67, 95
1, 347520, Note_on_c, 0, 71, 91
1, 347527, Note_off_c, 0, 88, 53
1, 347568, Note_on_c, 0, 90, 116
1, 347572, Note_on_c, 0, 91, 113
1, 347579, Note_off_c, 0, 90, 103
1, 347604, Note_off_c, 0, 91, 76
1, 347616, Note_on_c, 0, 89, 99
1, 347638, Note_off_c, 0, 89, 85
1, 347664, Note_on_c, 0, 88, 120
1, 347677, Note_off_c, 0, 88, 72
1, 347712, Note_on_c, 0, 86, 127
1, 347768, Note_off_c, 0, 86, 71
1, 347784, Note_on_c, 0, 88, 105
1, 347798, Note_off_c, 0, 88, 72
1, 347856, Note_on_c, 0, 84, 122
1, 347903, Note_off_c, 0, 36, 75
1, 347903, Note_off_c, 0, 48, 74
1, 347903, Note_off_c, 0, 64, 51
1, 347903, Note_off_c, 0, 67, 91
1, 347903, Note_off_c, 0, 71, 60
1, 347903, Note_off_c, 0, 84, 78
1, 347904, Note_on_c, 0, 38, 80
1, 347904, Note_on_c, 0, 50, 78
1, 347904, Note_on_c, 0, 65, 81
1, 347904, Note_on_c, 0, 69, 52
1, 347904, Note_on_c, 0, 72, 87
1, 347952, Note_on_c, 0, 81, 98
1, 347978, Note_off_c, 0, 81, 43
1, 348000, Note_on_c, 0, 84, 93
1, 348023, Note_off_c, 0, 84, 82
1, 348048, Note_on_c, 0, 81, 105
1, 348061, Note_off_c, 0, 81, 75
1, 348096, Note_on_c, 0, 84, 114
1, 348154, Note_off_c, 0, 84, 60
1, 348168, Note_on_c, 0, 86, 105
1, 348183, Note_off_c, 0, 86, 91
1, 348240, Note_on_c, 0, 86, 120
1, 348248, Note_on_c, 0, 88, 96
1, 348252, Note_off_c, 0, 86, 92
1, 348294, Note_off_c, 0, 88, 71
1, 348336, Note_on_c, 0, 81, 110
1, 348350, Note_off_c, 0, 81, 62
1, 348384, Note_on_c, 0, 84, 108
1, 348414, Note_off_c, 0, 84, 64
1, 348432, Note_on_c, 0, 81, 82
1, 348449, Note_off_c, 0, 81, 61
1, 348479, Note_off_c, 0, 38, 75
1, 348479, Note_off_c, 0, 50, 57
1, 348479, Note_off_c, 0, 65, 55
1, 348479, Note_off_c, 0, 69, 41
1, 348479, Note_off_c, 0, 72, 55
1, 348480, Note_on_c, 0, 36, 71
1, 348480, Note_on_c, 0, 48, 77
1, 348480, Note_on_c, 0, 64, 70
1, 348480, Note_on_c, 0, 67, 76
1, 348480, Note_on_c, 0, 71, 94
1, 348480, Note_on_c, 0, 84, 100
1, 348526, Note_off_c, 0, 84, 70
1, 348552, Note_on_c, 0, 85, 105
1, 348559, Note_on_c, 0, 86, 106
1, 348561, Note_off_c, 0, 85, 105
1, 348574, Note_off_c, 0, 86, 85
1, 348624, Note_on_c, 0, 81, 116
1, 348671, Note_off_c, 0, 36, 94
1, 348671, Note_off_c, 0, 48, 70
1, 348671, Note_off_c, 0, 64, 70
1, 348671, Note_off_c, 0, 67, 93
1, 348671, Note_off_c, 0, 71, 58
1, 348672, Note_on_c, 0, 30, 75
1, 348672, Note_on_c, 0, 61, 74
1, 348672, Note_off_c, 0, 81, 71
1, 348720, Note_off_c, 0, 30, 62
1, 348720, Note_off_c, 0, 61, 21
1, 348744, Note_on_c, 0, 30, 76
1, 348744, Note_on_c, 0, 54, 87
1, 348792, Note_off_c, 0, 30, 41
1, 348792, Note_off_c, 0, 54, 46
1, 348816, Note_on_c, 0, 30, 71
1, 348816, Note_on_c, 0, 54, 61
1, 348864, Note_off_c, 0, 30, 47
1, 348864, Note_off_c, 0, 54, 52
1, 348888, Note_on_c, 0, 30, 70
1, 348888, Note_on_c, 0, 54, 80
1, 348936, Note_off_c, 0, 30, 38
1, 348936, Note_off_c, 0, 54, 26
1, 348960, Note_on_c, 0, 30, 77
1, 348960, Note_on_c, 0, 61, 84
1, 348984, Note_off_c, 0, 30, 42
1, 349008, Note_on_c, 0, 30, 78
1, 349008, Note_on_c, 0, 54, 72
1, 349008, Note_off_c, 0, 61, 37
1, 349032, Note_off_c, 0, 54, 64
1, 349056, Note_off_c, 0, 30, 36
1, 349056, Note_on_c, 0, 33, 83
1, 349056, Note_on_c, 0, 64, 91
1, 349104, Note_off_c, 0, 33, 55
1, 349128, Note_on_c, 0, 33, 81
1, 349128, Note_on_c, 0, 61, 76
1, 349128, Note_off_c, 0, 64, 18
1, 349152, Note_off_c, 0, 61, 61
1, 349176, Note_off_c, 0, 33, 61
1, 349200, Note_on_c, 0, 35, 82
1, 349200, Note_on_c, 0, 66, 96
1, 349248, Note_off_c, 0, 35, 68
1, 349248, Note_off_c, 0, 66, 58
1, 349272, Note_on_c, 0, 35, 83
1, 349272, Note_on_c, 0, 59, 89
1, 349320, Note_off_c, 0, 35, 51
1, 349320, Note_off_c, 0, 59, 55
1, 349344, Note_on_c, 0, 35, 92
1, 349344, Note_on_c, 0, 66, 98
1, 349391, Note_off_c, 0, 35, 61
1, 349392, Note_on_c, 0, 35, 94
1, 349392, Note_on_c, 0, 59, 91
1, 349392, Note_off_c, 0, 66, 59
1, 349440, Note_on_c, 0, 26, 108
1, 349440, Note_off_c, 0, 35, 66
1, 349440, Note_off_c, 0, 59, 65
1, 349440, Note_on_c, 0, 66, 92
1, 349488, Note_off_c, 0, 26, 65
1, 349488, Note_off_c, 0, 66, 46
1, 349512, Note_on_c, 0, 26, 103
1, 349512, Note_on_c, 0, 57, 70
1, 349560, Note_off_c, 0, 26, 67
1, 349560, Note_off_c, 0, 57, 41
1, 349584, Note_on_c, 0, 26, 98
1, 349584, Note_on_c, 0, 66, 103
1, 349632, Note_off_c, 0, 26, 68
1, 349632, Note_off_c, 0, 66, 59
1, 349656, Note_on_c, 0, 26, 90
1, 349656, Note_on_c, 0, 57, 85
1, 349704, Note_off_c, 0, 26, 56
1, 349704, Note_off_c, 0, 57, 51
1, 349728, Note_on_c, 0, 26, 105
1, 349728, Note_on_c, 0, 66, 98
1, 349775, Note_off_c, 0, 26, 67
1, 349776, Note_on_c, 0, 26, 99
1, 349776, Note_on_c, 0, 57, 80
1, 349776, Note_off_c, 0, 66, 48
1, 349800, Note_off_c, 0, 57, 49
1, 349824, Note_off_c, 0, 26, 62
1, 349824, Note_on_c, 0, 28, 81
1, 349824, Note_on_c, 0, 68, 87
1, 349872, Note_off_c, 0, 28, 67
1, 349872, Note_off_c, 0, 68, 38
1, 349896, Note_on_c, 0, 28, 92
1, 349896, Note_on_c, 0, 59, 86
1, 349944, Note_off_c, 0, 28, 69
1, 349944, Note_off_c, 0, 59, 48
1, 349968, Note_on_c, 0, 28, 89
1, 349968, Note_on_c, 0, 68, 86
1, 350016, Note_off_c, 0, 28, 58
1, 350016, Note_off_c, 0, 68, 17
1, 350040, Note_on_c, 0, 28, 89
1, 350040, Note_on_c, 0, 68, 108
1, 350050, Note_off_c, 0, 68, 53
1, 350051, Note_on_c, 0, 69, 89
1, 350063, Note_off_c, 0, 69, 75
1, 350064, Note_on_c, 0, 68, 78
1, 350087, Note_off_c, 0, 68, 63
1, 350088, Note_on_c, 0, 66, 89
1, 350111, Note_off_c, 0, 28, 89
1, 350112, Note_on_c, 0, 28, 89
1, 350112, Note_on_c, 0, 64, 79
1, 350112, Note_off_c, 0, 66, 66
1, 350159, Note_off_c, 0, 28, 89
1, 350160, Note_on_c, 0, 28, 89
1, 350160, Note_on_c, 0, 62, 80
1, 350160, Note_off_c, 0, 64, 57
1, 350207, Note_off_c, 0, 62, 64
1, 350208, Note_off_c, 0, 28, 89
1, 350208, Note_on_c, 0, 33, 100
1, 350208, Note_on_c, 0, 57, 100
1, 350208, Note_on_c, 0, 64, 100
1, 350208, Note_on_c, 0, 67, 100
1, 350208, Note_on_c, 0, 69, 100
1, 350208, Note_on_c, 0, 72, 100
1, 350208, Note_on_c, 0, 76, 100
1, 350208, Note_on_c, 0, 79, 27
1, 350214, Note_off_c, 0, 79, 64
1, 350214, Note_on_c, 0, 79, 40
1, 350220, Note_off_c, 0, 79, 64
1, 350220, Note_on_c, 0, 79, 53
1, 350226, Note_off_c, 0, 79, 64
1, 350226, Note_on_c, 0, 79, 67
1, 350232, Note_off_c, 0, 79, 64
1, 350232, Note_on_c, 0, 79, 100
1, 350256, Note_off_c, 0, 33, 64
1, 350256, Note_off_c, 0, 57, 64
1, 350256, Note_off_c, 0, 64, 64
1, 350256, Note_off_c, 0, 67, 64
1, 350256, Note_off_c, 0, 69, 64
1, 350256, Note_off_c, 0, 72, 64
1, 350256, Note_off_c, 0, 76, 64
1, 350256, Note_on_c, 0, 77, 100
1, 350280, Note_off_c, 0, 79, 64
1, 350304, Note_on_c, 0, 76, 100
1, 350304, Note_off_c, 0, 77, 64
1, 350352, Note_on_c, 0, 33, 100
1, 350352, Note_on_c, 0, 57, 100
1, 350352, Note_on_c, 0, 64, 100
1, 350352, Note_on_c, 0, 67, 100
1, 350352, Note_on_c, 0, 69, 100
1, 350352, Note_on_c, 0, 72, 100
1, 350352, Note_off_c, 0, 76, 64
1, 350400, Note_off_c, 0, 33, 64
1, 350400, Note_off_c, 0, 57, 64
1, 350400, Note_off_c, 0, 64, 64
1, 350400, Note_off_c, 0, 67, 64
1, 350400, Note_off_c, 0, 69, 64
1, 350400, Note_off_c, 0, 72, 64
1, 350496, Note_on_c, 0, 40, 100
1, 350496, Note_on_c, 0, 52, 100
1, 350496, Note_on_c, 0, 59, 100
1, 350496, Note_on_c, 0, 64, 100
1, 350496, Note_on_c, 0, 67, 100
1, 350496, Note_on_c, 0, 69, 100
1, 350496, Note_on_c, 0, 71, 100
1, 350496, Note_on_c, 0, 74, 100
1, 350544, Note_off_c, 0, 40, 64
1, 350544, Note_off_c, 0, 52, 64
1, 350544, Note_off_c, 0, 59, 64
1, 350544, Note_off_c, 0, 64, 64
1, 350544, Note_off_c, 0, 67, 64
1, 350544, Note_off_c, 0, 69, 64
1, 350544, Note_off_c, 0, 71, 64
1, 350544, Note_off_c, 0, 74, 64
1, 350544, Note_on_c, 0, 76, 100
1, 350592, Note_on_c, 0, 41, 100
1, 350592, Note_on_c, 0, 53, 100
1, 350592, Note_on_c, 0, 60, 100
1, 350592, Note_on_c, 0, 65, 100
1, 350592, Note_on_c, 0, 69, 100
1, 350592, Note_on_c, 0, 72, 100
1, 350592, Note_off_c, 0, 76, 64
1, 350640, Note_off_c, 0, 41, 64
1, 350640, Note_off_c, 0, 53, 64
1, 350640, Note_off_c, 0, 60, 64
1, 350640, Note_off_c, 0, 65, 64
1, 350640, Note_off_c, 0, 69, 64
1, 350640, Note_off_c, 0, 72, 64
1, 350640, Note_on_c, 0, 77, 100
1, 350688, Note_off_c, 0, 77, 64
1, 350736, Note_on_c, 0, 76, 100
1, 350784, Note_off_c, 0, 76, 64
1, 350832, Note_on_c, 0, 72, 33
1, 350844, Note_off_c, 0, 72, 64
1, 350844, Note_on_c, 0, 72, 49
1, 350856, Note_off_c, 0, 72, 64
1, 350856, Note_on_c, 0, 72, 65
1, 350868, Note_off_c, 0, 72, 64
1, 350868, Note_on_c, 0, 72, 81
1, 350880, Note_off_c, 0, 72, 64
1, 350880, Note_on_c, 0, 72, 100
1, 350928, Note_on_c, 0, 71, 100
1, 350928, Note_off_c, 0, 72, 64
1, 350976, Note_on_c, 0, 33, 100
1, 350976, Note_on_c, 0, 60, 100
1, 350976, Note_on_c, 0, 64, 100
1, 350976, Note_on_c, 0, 67, 100
1, 350976, Note_off_c, 0, 71, 64
1, 350976, Note_on_c, 0, 72, 100
1, 351024, Note_off_c, 0, 33, 64
1, 351024, Note_off_c, 0, 60, 64
1, 351024, Note_off_c, 0, 64, 64
1, 351024, Note_off_c, 0, 67, 64
1, 351024, Note_off_c, 0, 72, 64
1, 351024, Note_on_c, 0, 74, 100
1, 351072, Note_on_c, 0, 72, 100
1, 351072, Note_off_c, 0, 74, 64
1, 351120, Note_on_c, 0, 40, 100
1, 351120, Note_on_c, 0, 52, 100
1, 351120, Note_on_c, 0, 59, 100
1, 351120, Note_on_c, 0, 64, 100
1, 351120, Note_on_c, 0, 67, 100
1, 351120, Note_off_c, 0, 72, 64
1, 351120, Note_on_c, 0, 76, 100
1, 351168, Note_off_c, 0, 40, 64
1, 351168, Note_off_c, 0, 52, 64
1, 351168, Note_off_c, 0, 59, 64
1, 351168, Note_off_c, 0, 64, 64
1, 351168, Note_off_c, 0, 67, 64
1, 351168, Note_off_c, 0, 76, 64
1, 351264, Note_on_c, 0, 40, 100
1, 351264, Note_on_c, 0, 52, 100
1, 351264, Note_on_c, 0, 59, 100
1, 351264, Note_on_c, 0, 64, 100
1, 351264, Note_on_c, 0, 67, 100
1, 351264, Note_on_c, 0, 69, 100
1, 351312, Note_off_c, 0, 40, 64
1, 351312, Note_off_c, 0, 52, 64
1, 351312, Note_off_c, 0, 59, 64
1, 351312, Note_off_c, 0, 64, 64
1, 351312, Note_off_c, 0, 67, 64
1, 351312, Note_off_c, 0, 69, 64
1, 351312, Note_on_c, 0, 71, 100
1, 351360, Note_on_c, 0, 41, 100
1, 351360, Note_on_c, 0, 53, 100
1, 351360, Note_on_c, 0, 60, 100
1, 351360, Note_on_c, 0, 65, 100
1, 351360, Note_on_c, 0, 69, 100
1, 351360, Note_off_c, 0, 71, 64
1, 351360, Note_on_c, 0, 72, 100
1, 351408, Note_off_c, 0, 41, 64
1, 351408, Note_off_c, 0, 53, 64
1, 351408, Note_off_c, 0, 60, 64
1, 351408, Note_off_c, 0, 65, 64
1, 351408, Note_off_c, 0, 69, 64
1, 351408, Note_off_c, 0, 72, 64
1, 351552, Note_on_c, 0, 69, 100
1, 351600, Note_off_c, 0, 69, 64
1, 351600, Note_on_c, 0, 72, 100
1, 351648, Note_on_c, 0, 71, 100
1, 351648, Note_off_c, 0, 72, 64
1, 351696, Note_off_c, 0, 71, 64
1, 351696, Note_on_c, 0, 74, 100
1, 351744, Note_on_c, 0, 33, 76
1, 351744, Note_on_c, 0, 60, 95
1, 351744, Note_off_c, 0, 74, 64
1, 351792, Note_on_c, 0, 84, 59
1, 351796, Note_off_c, 0, 33, 53
1, 351799, Note_off_c, 0, 60, 58
1, 351816, Note_on_c, 0, 33, 75
1, 351816, Note_on_c, 0, 60, 92
1, 351818, Note_off_c, 0, 84, 43
1, 351856, Note_off_c, 0, 33, 31
1, 351862, Note_off_c, 0, 60, 57
1, 351888, Note_on_c, 0, 33, 75
1, 351888, Note_on_c, 0, 60, 93
1, 351888, Note_on_c, 0, 81, 89
1, 351915, Note_off_c, 0, 81, 49
1, 351930, Note_off_c, 0, 33, 49
1, 351934, Note_off_c, 0, 60, 55
1, 351936, Note_on_c, 0, 84, 72
1, 351960, Note_on_c, 0, 33, 76
1, 351960, Note_on_c, 0, 60, 91
1, 351971, Note_off_c, 0, 84, 25
1, 351996, Note_off_c, 0, 33, 40
1, 352001, Note_off_c, 0, 60, 62
1, 352032, Note_on_c, 0, 33, 72
1, 352032, Note_on_c, 0, 60, 91
1, 352032, Note_on_c, 0, 86, 85
1, 352061, Note_off_c, 0, 86, 54
1, 352080, Note_on_c, 0, 88, 92
1, 352086, Note_off_c, 0, 33, 43
1, 352086, Note_off_c, 0, 60, 45
1, 352102, Note_off_c, 0, 88, 58
1, 352104, Note_on_c, 0, 33, 70
1, 352104, Note_on_c, 0, 60, 90
1, 352147, Note_off_c, 0, 33, 40
1, 352150, Note_off_c, 0, 60, 48
1, 352176, Note_on_c, 0, 33, 66
1, 352176, Note_on_c, 0, 60, 89
1, 352215, Note_off_c, 0, 33, 33
1, 352222, Note_off_c, 0, 60, 44
1, 352224, Note_on_c, 0, 88, 82
1, 352247, Note_off_c, 0, 88, 47
1, 352248, Note_on_c, 0, 33, 77
1, 352248, Note_on_c, 0, 60, 89
1, 352283, Note_off_c, 0, 33, 23
1, 352284, Note_off_c, 0, 60, 55
1, 352320, Note_on_c, 0, 35, 84
1, 352320, Note_on_c, 0, 62, 94
1, 352320, Note_on_c, 0, 89, 72
1, 352347, Note_off_c, 0, 89, 28
1, 352362, Note_off_c, 0, 35, 41
1, 352373, Note_off_c, 0, 62, 37
1, 352392, Note_on_c, 0, 35, 81
1, 352392, Note_on_c, 0, 62, 91
1, 352416, Note_on_c, 0, 88, 89
1, 352433, Note_off_c, 0, 35, 44
1, 352433, Note_off_c, 0, 62, 59
1, 352449, Note_off_c, 0, 88, 43
1, 352464, Note_on_c, 0, 35, 75
1, 352464, Note_on_c, 0, 62, 92
1, 352464, Note_on_c, 0, 84, 70
1, 352492, Note_off_c, 0, 35, 27
1, 352493, Note_off_c, 0, 84, 27
1, 352497, Note_off_c, 0, 62, 60
1, 352512, Note_on_c, 0, 36, 81
1, 352512, Note_on_c, 0, 64, 86
1, 352562, Note_off_c, 0, 36, 60
1, 352570, Note_off_c, 0, 64, 46
1, 352584, Note_on_c, 0, 36, 88
1, 352584, Note_on_c, 0, 64, 86
1, 352608, Note_on_c, 0, 88, 89
1, 352622, Note_off_c, 0, 64, 55
1, 352626, Note_off_c, 0, 36, 51
1, 352626, Note_off_c, 0, 88, 84
1, 352656, Note_on_c, 0, 29, 98
1, 352656, Note_on_c, 0, 57, 70
1, 352656, Note_on_c, 0, 89, 91
1, 352684, Note_off_c, 0, 89, 20
1, 352702, Note_off_c, 0, 57, 24
1, 352708, Note_off_c, 0, 29, 64
1, 352728, Note_on_c, 0, 29, 105
1, 352728, Note_on_c, 0, 57, 81
1, 352772, Note_off_c, 0, 57, 30
1, 352774, Note_off_c, 0, 29, 51
1, 352800, Note_on_c, 0, 29, 106
1, 352800, Note_on_c, 0, 57, 87
1, 352800, Note_on_c, 0, 88, 85
1, 352840, Note_off_c, 0, 88, 60
1, 352848, Note_on_c, 0, 81, 77
1, 352851, Note_off_c, 0, 57, 12
1, 352852, Note_off_c, 0, 29, 51
1, 352872, Note_on_c, 0, 29, 99
1, 352872, Note_on_c, 0, 57, 86
1, 352890, Note_off_c, 0, 81, 51
1, 352915, Note_off_c, 0, 29, 55
1, 352916, Note_off_c, 0, 57, 37
1, 352944, Note_on_c, 0, 29, 93
1, 352944, Note_on_c, 0, 57, 84
1, 352991, Note_off_c, 0, 29, 54
1, 352992, Note_on_c, 0, 81, 82
1, 352994, Note_off_c, 0, 57, 32
1, 353016, Note_on_c, 0, 29, 100
1, 353016, Note_on_c, 0, 57, 78
1, 353027, Note_off_c, 0, 81, 57
1, 353053, Note_off_c, 0, 57, 32
1, 353061, Note_off_c, 0, 29, 48
1, 353088, Note_on_c, 0, 29, 97
1, 353088, Note_on_c, 0, 57, 84
1, 353088, Note_on_c, 0, 79, 58
1, 353125, Note_off_c, 0, 79, 20
1, 353136, Note_on_c, 0, 81, 58
1, 353137, Note_off_c, 0, 29, 55
1, 353143, Note_off_c, 0, 57, 18
1, 353160, Note_on_c, 0, 31, 89
1, 353160, Note_on_c, 0, 59, 81
1, 353173, Note_off_c, 0, 81, 64
1, 353184, Note_on_c, 0, 84, 75
1, 353200, Note_off_c, 0, 59, 36
1, 353202, Note_off_c, 0, 31, 62
1, 353212, Note_off_c, 0, 84, 47
1, 353232, Note_on_c, 0, 31, 89
1, 353232, Note_on_c, 0, 59, 82
1, 353232, Note_on_c, 0, 86, 75
1, 353260, Note_off_c, 0, 86, 64
1, 353264, Note_off_c, 0, 59, 42
1, 353267, Note_off_c, 0, 31, 72
1, 353280, Note_on_c, 0, 41, 127
1, 353280, Note_on_c, 0, 53, 127
1, 353280, Note_on_c, 0, 60, 127
1, 353280, Note_on_c, 0, 64, 127
1, 353280, Note_on_c, 0, 65, 127
1, 353280, Note_on_c, 0, 69, 127
1, 353280, Note_on_c, 0, 72, 127
1, 353280, Note_on_c, 0, 93, 127
1, 353376, Note_off_c, 0, 93, 64
1, 353424, Note_on_c, 0, 91, 127
1, 353472, Note_off_c, 0, 91, 64
1, 353520, Note_on_c, 0, 84, 127
1, 353568, Note_off_c, 0, 84, 64
1, 353664, Note_off_c, 0, 41, 64
1, 353664, Note_on_c, 0, 48, 127
1, 353664, Note_off_c, 0, 53, 64
1, 353664, Note_off_c, 0, 60, 64
1, 353664, Note_on_c, 0, 60, 127
1, 353664, Note_on_c, 0, 62, 127
1, 353664, Note_off_c, 0, 64, 64
1, 353664, Note_on_c, 0, 64, 127
1, 353664, Note_off_c, 0, 65, 64
1, 353664, Note_on_c, 0, 67, 127
1, 353664, Note_off_c, 0, 69, 64
1, 353664, Note_off_c, 0, 72, 64
1, 353664, Note_on_c, 0, 72, 127
1, 353664, Note_on_c, 0, 76, 127
1, 353664, Note_on_c, 0, 84, 127
1, 353712, Note_off_c, 0, 84, 64
1, 353712, Note_on_c, 0, 88, 127
1, 353760, Note_off_c, 0, 88, 64
1, 353808, Note_on_c, 0, 88, 127
1, 353856, Note_off_c, 0, 88, 64
1, 353856, Note_on_c, 0, 91, 127
1, 353904, Note_off_c, 0, 91, 64
1, 353952, Note_on_c, 0, 84, 127
1, 354048, Note_on_c, 0, 43, 127
1, 354048, Note_off_c, 0, 48, 64
1, 354048, Note_on_c, 0, 55, 127
1, 354048, Note_off_c, 0, 60, 64
1, 354048, Note_off_c, 0, 62, 64
1, 354048, Note_on_c, 0, 62, 127
1, 354048, Note_off_c, 0, 64, 64
1, 354048, Note_off_c, 0, 67, 64
1, 354048, Note_on_c, 0, 67, 127
1, 354048, Note_on_c, 0, 69, 127
1, 354048, Note_on_c, 0, 71, 127
1, 354048, Note_off_c, 0, 72, 64
1, 354048, Note_off_c, 0, 76, 64
1, 354048, Note_off_c, 0, 84, 64
1, 354048, Note_on_c, 0, 93, 127
1, 354144, Note_off_c, 0, 93, 64
1, 354192, Note_on_c, 0, 91, 127
1, 354240, Note_off_c, 0, 91, 64
1, 354288, Note_on_c, 0, 84, 127
1, 354336, Note_off_c, 0, 84, 64
1, 354336, Note_on_c, 0, 95, 127
1, 354432, Note_off_c, 0, 43, 64
1, 354432, Note_on_c, 0, 45, 127
1, 354432, Note_off_c, 0, 55, 64
1, 354432, Note_on_c, 0, 57, 127
1, 354432, Note_off_c, 0, 62, 64
1, 354432, Note_on_c, 0, 62, 127
1, 354432, Note_on_c, 0, 64, 127
1, 354432, Note_off_c, 0, 67, 64
1, 354432, Note_on_c, 0, 67, 127
1, 354432, Note_off_c, 0, 69, 64
1, 354432, Note_on_c, 0, 69, 127
1, 354432, Note_off_c, 0, 71, 64
1, 354432, Note_on_c, 0, 72, 127
1, 354432, Note_off_c, 0, 95, 64
1, 354432, Note_on_c, 0, 96, 127
1, 354480, Note_on_c, 0, 91, 127
1, 354480, Note_off_c, 0, 96, 64
1, 354528, Note_on_c, 0, 88, 127
1, 354528, Note_off_c, 0, 91, 64
1, 354576, Note_on_c, 0, 86, 127
1, 354576, Note_off_c, 0, 88, 64
1, 354624, Note_off_c, 0, 86, 64
1, 354672, Note_on_c, 0, 86, 127
1, 354720, Note_on_c, 0, 84, 127
1, 354720, Note_off_c, 0, 86, 64
1, 354816, Note_off_c, 0, 45, 64
1, 354816, Note_on_c, 0, 45, 80
1, 354816, Note_off_c, 0, 57, 64
1, 354816, Note_on_c, 0, 57, 80
1, 354816, Note_off_c, 0, 62, 64
1, 354816, Note_off_c, 0, 64, 64
1, 354816, Note_on_c, 0, 64, 80
1, 354816, Note_off_c, 0, 67, 64
1, 354816, Note_off_c, 0, 69, 64
1, 354816, Note_on_c, 0, 69, 80
1, 354816, Note_off_c, 0, 72, 64
1, 354816, Note_on_c, 0, 72, 80
1, 354816, Note_off_c, 0, 84, 64
1, 354888, Note_off_c, 0, 45, 64
1, 354888, Note_off_c, 0, 57, 64
1, 354888, Note_off_c, 0, 64, 64
1, 354888, Note_off_c, 0, 69, 64
1, 354888, Note_off_c, 0, 72, 64
1, 354960, Note_on_c, 0, 45, 80
1, 354960, Note_on_c, 0, 57, 80
1, 354960, Note_on_c, 0, 64, 80
1, 354960, Note_on_c, 0, 69, 80
1, 354960, Note_on_c, 0, 72, 80
1, 355032, Note_off_c, 0, 45, 64
1, 355032, Note_off_c, 0, 57, 64
1, 355032, Note_off_c, 0, 64, 64
1, 355032, Note_off_c, 0, 69, 64
1, 355032, Note_off_c, 0, 72, 64
1, 355056, Note_on_c, 0, 45, 80
1, 355056, Note_on_c, 0, 57, 80
1, 355056, Note_on_c, 0, 64, 80
1, 355056, Note_on_c, 0, 69, 80
1, 355056, Note_on_c, 0, 74, 80
1, 355128, Note_off_c, 0, 45, 64
1, 355128, Note_on_c, 0, 45, 80
1, 355128, Note_off_c, 0, 57, 64
1, 355128, Note_on_c, 0, 57, 80
1, 355128, Note_off_c, 0, 64, 64
1, 355128, Note_on_c, 0, 64, 80
1, 355128, Note_off_c, 0, 69, 64
1, 355128, Note_on_c, 0, 69, 80
1, 355128, Note_on_c, 0, 71, 80
1, 355128, Note_off_c, 0, 74, 64
1, 355200, Note_on_c, 0, 41, 80
1, 355200, Note_off_c, 0, 45, 64
1, 355200, Note_on_c, 0, 53, 80
1, 355200, Note_off_c, 0, 57, 64
1, 355200, Note_on_c, 0, 60, 80
1, 355200, Note_off_c, 0, 64, 64
1, 355200, Note_on_c, 0, 65, 80
1, 355200, Note_off_c, 0, 69, 64
1, 355200, Note_on_c, 0, 69, 80
1, 355200, Note_off_c, 0, 71, 64
1, 355200, Note_on_c, 0, 72, 80
1, 355272, Note_off_c, 0, 41, 64
1, 355272, Note_off_c, 0, 53, 64
1, 355272, Note_off_c, 0, 60, 64
1, 355272, Note_off_c, 0, 65, 64
1, 355272, Note_off_c, 0, 69, 64
1, 355272, Note_off_c, 0, 72, 64
1, 355344, Note_on_c, 0, 41, 80
1, 355344, Note_on_c, 0, 53, 80
1, 355344, Note_on_c, 0, 60, 80
1, 355344, Note_on_c, 0, 65, 80
1, 355344, Note_on_c, 0, 69, 80
1, 355344, Note_on_c, 0, 79, 80
1, 355392, Note_on_c, 0, 76, 80
1, 355392, Note_off_c, 0, 79, 64
1, 355464, Note_off_c, 0, 41, 64
1, 355464, Note_on_c, 0, 41, 80
1, 355464, Note_off_c, 0, 53, 64
1, 355464, Note_on_c, 0, 53, 80
1, 355464, Note_off_c, 0, 60, 64
1, 355464, Note_on_c, 0, 60, 80
1, 355464, Note_off_c, 0, 65, 64
1, 355464, Note_on_c, 0, 65, 80
1, 355464, Note_off_c, 0, 69, 64
1, 355464, Note_on_c, 0, 69, 80
1, 355464, Note_off_c, 0, 76, 64
1, 355464, Note_on_c, 0, 77, 80
1, 355536, Note_on_c, 0, 76, 80
1, 355536, Note_off_c, 0, 77, 64
1, 355584, Note_off_c, 0, 41, 64
1, 355584, Note_on_c, 0, 50, 80
1, 355584, Note_off_c, 0, 53, 64
1, 355584, Note_off_c, 0, 60, 64
1, 355584, Note_off_c, 0, 65, 64
1, 355584, Note_on_c, 0, 65, 80
1, 355584, Note_off_c, 0, 69, 64
1, 355584, Note_on_c, 0, 69, 80
1, 355584, Note_on_c, 0, 72, 80
1, 355584, Note_off_c, 0, 76, 64
1, 355656, Note_off_c, 0, 50, 64
1, 355656, Note_off_c, 0, 65, 64
1, 355656, Note_off_c, 0, 69, 64
1, 355656, Note_off_c, 0, 72, 64
1, 355728, Note_on_c, 0, 50, 80
1, 355728, Note_on_c, 0, 65, 80
1, 355728, Note_on_c, 0, 69, 80
1, 355728, Note_on_c, 0, 72, 80
1, 355800, Note_off_c, 0, 50, 64
1, 355800, Note_off_c, 0, 65, 64
1, 355800, Note_off_c, 0, 69, 64
1, 355800, Note_off_c, 0, 72, 64
1, 355824, Note_on_c, 0, 50, 80
1, 355824, Note_on_c, 0, 65, 80
1, 355824, Note_on_c, 0, 69, 80
1, 355824, Note_on_c, 0, 77, 80
1, 355896, Note_off_c, 0, 50, 64
1, 355896, Note_on_c, 0, 50, 80
1, 355896, Note_off_c, 0, 65, 64
1, 355896, Note_on_c, 0, 65, 80
1, 355896, Note_off_c, 0, 69, 64
1, 355896, Note_on_c, 0, 69, 80
1, 355896, Note_on_c, 0, 72, 80
1, 355896, Note_off_c, 0, 77, 64
1, 355968, Note_on_c, 0, 43, 80
1, 355968, Note_off_c, 0, 50, 64
1, 355968, Note_on_c, 0, 55, 80
1, 355968, Note_on_c, 0, 62, 80
1, 355968, Note_off_c, 0, 65, 64
1, 355968, Note_on_c, 0, 67, 80
1, 355968, Note_off_c, 0, 69, 64
1, 355968, Note_on_c, 0, 71, 80
1, 355968, Note_off_c, 0, 72, 64
1, 356040, Note_off_c, 0, 43, 64
1, 356040, Note_off_c, 0, 55, 64
1, 356040, Note_off_c, 0, 62, 64
1, 356040, Note_off_c, 0, 67, 64
1, 356040, Note_off_c, 0, 71, 64
1, 356112, Note_on_c, 0, 43, 80
1, 356112, Note_on_c, 0, 55, 80
1, 356112, Note_on_c, 0, 62, 80
1, 356112, Note_on_c, 0, 67, 80
1, 356112, Note_on_c, 0, 71, 80
1, 356184, Note_off_c, 0, 43, 64
1, 356184, Note_off_c, 0, 55, 64
1, 356184, Note_off_c, 0, 62, 64
1, 356184, Note_off_c, 0, 67, 64
1, 356184, Note_off_c, 0, 71, 64
1, 356208, Note_on_c, 0, 43, 80
1, 356208, Note_on_c, 0, 55, 80
1, 356208, Note_on_c, 0, 62, 80
1, 356208, Note_on_c, 0, 67, 80
1, 356208, Note_on_c, 0, 71, 80
1, 356256, Note_on_c, 0, 79, 80
1, 356280, Note_off_c, 0, 43, 64
1, 356280, Note_on_c, 0, 43, 80
1, 356280, Note_off_c, 0, 55, 64
1, 356280, Note_on_c, 0, 55, 80
1, 356280, Note_off_c, 0, 62, 64
1, 356280, Note_on_c, 0, 62, 80
1, 356280, Note_off_c, 0, 67, 64
1, 356280, Note_on_c, 0, 67, 80
1, 356280, Note_off_c, 0, 71, 64
1, 356280, Note_on_c, 0, 71, 80
1, 356304, Note_on_c, 0, 74, 80
1, 356304, Note_off_c, 0, 79, 64
1, 356352, Note_off_c, 0, 43, 64
1, 356352, Note_off_c, 0, 55, 64
1, 356352, Note_on_c, 0, 57, 63
1, 356352, Note_off_c, 0, 62, 64
1, 356352, Note_off_c, 0, 67, 64
1, 356352, Note_off_c, 0, 71, 64
1, 356352, Note_off_c, 0, 74, 64
1, 356448, Note_on_c, 0, 69, 72
1, 356459, Note_off_c, 0, 57, 34
1, 356472, Note_on_c, 0, 57, 82
1, 356476, Note_off_c, 0, 69, 72
1, 356520, Note_on_c, 0, 70, 102
1, 356524, Note_off_c, 0, 57, 64
1, 356544, Note_on_c, 0, 57, 71
1, 356548, Note_off_c, 0, 70, 68
1, 356640, Note_on_c, 0, 69, 90
1, 356658, Note_off_c, 0, 57, 25
1, 356664, Note_on_c, 0, 57, 72
1, 356676, Note_off_c, 0, 69, 66
1, 356712, Note_on_c, 0, 70, 114
1, 356720, Note_off_c, 0, 57, 72
1, 356736, Note_on_c, 0, 57, 72
1, 356760, Note_off_c, 0, 70, 64
1, 356832, Note_on_c, 0, 69, 80
1, 356847, Note_off_c, 0, 57, 36
1, 356856, Note_on_c, 0, 72, 112
1, 356860, Note_off_c, 0, 69, 72
1, 356904, Note_on_c, 0, 69, 110
1, 356920, Note_off_c, 0, 72, 82
1, 356928, Note_on_c, 0, 57, 75
1, 356952, Note_off_c, 0, 69, 60
1, 357024, Note_on_c, 0, 67, 71
1, 357043, Note_off_c, 0, 57, 26
1, 357048, Note_off_c, 0, 67, 68
1, 357048, Note_on_c, 0, 70, 80
1, 357072, Note_on_c, 0, 67, 84
1, 357081, Note_off_c, 0, 70, 70
1, 357120, Note_on_c, 0, 57, 63
1, 357123, Note_off_c, 0, 67, 67
1, 357216, Note_on_c, 0, 69, 72
1, 357227, Note_off_c, 0, 57, 64
1, 357240, Note_on_c, 0, 57, 82
1, 357244, Note_off_c, 0, 69, 64
1, 357288, Note_on_c, 0, 70, 102
1, 357292, Note_off_c, 0, 57, 64
1, 357312, Note_on_c, 0, 57, 71
1, 357316, Note_off_c, 0, 70, 64
1, 357408, Note_on_c, 0, 69, 90
1, 357426, Note_off_c, 0, 57, 64
1, 357432, Note_on_c, 0, 57, 72
1, 357444, Note_off_c, 0, 69, 64
1, 357480, Note_on_c, 0, 70, 114
1, 357488, Note_off_c, 0, 57, 64
1, 357504, Note_on_c, 0, 57, 72
1, 357528, Note_off_c, 0, 70, 64
1, 357600, Note_on_c, 0, 69, 80
1, 357615, Note_off_c, 0, 57, 64
1, 357624, Note_on_c, 0, 72, 112
1, 357628, Note_off_c, 0, 69, 64
1, 357672, Note_on_c, 0, 69, 110
1, 357688, Note_off_c, 0, 72, 64
1, 357696, Note_on_c, 0, 57, 75
1, 357720, Note_off_c, 0, 69, 64
1, 357792, Note_on_c, 0, 67, 71
1, 357811, Note_off_c, 0, 57, 64
1, 357816, Note_off_c, 0, 67, 64
1, 357816, Note_on_c, 0, 70, 80
1, 357840, Note_on_c, 0, 67, 84
1, 357849, Note_off_c, 0, 70, 64
1, 357888, Note_on_c, 0, 50, 70
1, 357888, Note_on_c, 0, 53, 70
1, 357888, Note_on_c, 0, 57, 70
1, 357888, Note_on_c, 0, 62, 70
1, 357888, Note_off_c, 0, 67, 64
1, 357888, Note_on_c, 0, 69, 70
1, 357888, Note_on_c, 0, 84, 100
1, 357912, Note_off_c, 0, 84, 64
1, 357936, Note_on_c, 0, 84, 100
1, 357960, Note_off_c, 0, 84, 64
1, 357960, Note_on_c, 0, 86, 100
1, 357994, Note_off_c, 0, 86, 64
1, 358008, Note_on_c, 0, 88, 100
1, 358032, Note_off_c, 0, 50, 64
1, 358032, Note_on_c, 0, 52, 70
1, 358032, Note_off_c, 0, 53, 64
1, 358032, Note_off_c, 0, 57, 64
1, 358032, Note_on_c, 0, 57, 70
1, 358032, Note_on_c, 0, 60, 70
1, 358032, Note_off_c, 0, 62, 64
1, 358032, Note_off_c, 0, 69, 64
1, 358032, Note_on_c, 0, 69, 70
1, 358032, Note_on_c, 0, 72, 70
1, 358032, Note_off_c, 0, 88, 64
1, 358056, Note_on_c, 0, 79, 100
1, 358080, Note_off_c, 0, 79, 64
1, 358080, Note_on_c, 0, 81, 100
1, 358120, Note_off_c, 0, 81, 64
1, 358200, Note_on_c, 0, 81, 100
1, 358248, Note_off_c, 0, 81, 64
1, 358272, Note_on_c, 0, 48, 70
1, 358272, Note_off_c, 0, 52, 64
1, 358272, Note_on_c, 0, 53, 70
1, 358272, Note_off_c, 0, 57, 64
1, 358272, Note_on_c, 0, 57, 70
1, 358272, Note_off_c, 0, 60, 64
1, 358272, Note_on_c, 0, 60, 70
1, 358272, Note_off_c, 0, 69, 64
1, 358272, Note_on_c, 0, 69, 70
1, 358272, Note_off_c, 0, 72, 64
1, 358272, Note_on_c, 0, 72, 70
1, 358272, Note_on_c, 0, 84, 100
1, 358320, Note_off_c, 0, 84, 64
1, 358344, Note_on_c, 0, 84, 100
1, 358368, Note_on_c, 0, 86, 100
1, 358378, Note_off_c, 0, 86, 64
1, 358392, Note_off_c, 0, 84, 64
1, 358392, Note_on_c, 0, 86, 100
1, 358401, Note_on_c, 0, 88, 100
1, 358405, Note_off_c, 0, 86, 64
1, 358415, Note_off_c, 0, 88, 64
1, 358416, Note_off_c, 0, 48, 64
1, 358416, Note_on_c, 0, 50, 70
1, 358416, Note_off_c, 0, 53, 64
1, 358416, Note_on_c, 0, 55, 70
1, 358416, Note_off_c, 0, 57, 64
1, 358416, Note_on_c, 0, 59, 70
1, 358416, Note_off_c, 0, 60, 64
1, 358416, Note_on_c, 0, 62, 70
1, 358416, Note_off_c, 0, 69, 64
1, 358416, Note_on_c, 0, 71, 70
1, 358416, Note_off_c, 0, 72, 64
1, 358416, Note_on_c, 0, 74, 70
1, 358440, Note_on_c, 0, 86, 100
1, 358453, Note_off_c, 0, 86, 64
1, 358488, Note_on_c, 0, 84, 100
1, 358536, Note_off_c, 0, 84, 64
1, 358536, Note_on_c, 0, 86, 100
1, 358560, Note_on_c, 0, 84, 100
1, 358584, Note_off_c, 0, 86, 64
1, 358608, Note_on_c, 0, 81, 100
1, 358608, Note_off_c, 0, 84, 64
1, 358656, Note_off_c, 0, 50, 64
1, 358656, Note_on_c, 0, 50, 70
1, 358656, Note_on_c, 0, 53, 70
1, 358656, Note_off_c, 0, 55, 64
1, 358656, Note_on_c, 0, 57, 70
1, 358656, Note_off_c, 0, 59, 64
1, 358656, Note_off_c, 0, 62, 64
1, 358656, Note_on_c, 0, 62, 70
1, 358656, Note_on_c, 0, 69, 70
1, 358656, Note_off_c, 0, 71, 64
1, 358656, Note_off_c, 0, 74, 64
1, 358656, Note_off_c, 0, 81, 64
1, 358656, Note_on_c, 0, 84, 100
1, 358680, Note_off_c, 0, 84, 64
1, 358704, Note_on_c, 0, 84, 100
1, 358728, Note_off_c, 0, 84, 64
1, 358728, Note_on_c, 0, 86, 100
1, 358762, Note_off_c, 0, 86, 64
1, 358776, Note_on_c, 0, 88, 100
1, 358800, Note_off_c, 0, 50, 64
1, 358800, Note_on_c, 0, 52, 70
1, 358800, Note_off_c, 0, 53, 64
1, 358800, Note_off_c, 0, 57, 64
1, 358800, Note_on_c, 0, 57, 70
1, 358800, Note_on_c, 0, 60, 70
1, 358800, Note_off_c, 0, 62, 64
1, 358800, Note_off_c, 0, 69, 64
1, 358800, Note_on_c, 0, 69, 70
1, 358800, Note_off_c, 0, 88, 64
1, 358824, Note_on_c, 0, 79, 100
1, 358848, Note_off_c, 0, 79, 64
1, 358848, Note_on_c, 0, 81, 100
1, 358888, Note_off_c, 0, 81, 64
1, 358968, Note_on_c, 0, 81, 100
1, 359016, Note_off_c, 0, 81, 64
1, 359040, Note_on_c, 0, 48, 70
1, 359040, Note_off_c, 0, 52, 64
1, 359040, Note_on_c, 0, 53, 70
1, 359040, Note_off_c, 0, 57, 64
1, 359040, Note_on_c, 0, 57, 70
1, 359040, Note_off_c, 0, 60, 64
1, 359040, Note_on_c, 0, 60, 70
1, 359040, Note_off_c, 0, 69, 64
1, 359040, Note_on_c, 0, 69, 70
1, 359040, Note_on_c, 0, 84, 100
1, 359088, Note_off_c, 0, 84, 64
1, 359112, Note_on_c, 0, 84, 100
1, 359136, Note_on_c, 0, 86, 100
1, 359146, Note_off_c, 0, 86, 64
1, 359160, Note_off_c, 0, 84, 64
1, 359160, Note_on_c, 0, 86, 100
1, 359169, Note_on_c, 0, 88, 100
1, 359173, Note_off_c, 0, 86, 64
1, 359183, Note_off_c, 0, 88, 64
1, 359184, Note_off_c, 0, 48, 64
1, 359184, Note_on_c, 0, 50, 70
1, 359184, Note_off_c, 0, 53, 64
1, 359184, Note_on_c, 0, 55, 70
1, 359184, Note_off_c, 0, 57, 64
1, 359184, Note_on_c, 0, 59, 70
1, 359184, Note_off_c, 0, 60, 64
1, 359184, Note_on_c, 0, 62, 70
1, 359184, Note_off_c, 0, 69, 64
1, 359184, Note_on_c, 0, 71, 70
1, 359208, Note_on_c, 0, 86, 100
1, 359221, Note_off_c, 0, 86, 64
1, 359256, Note_on_c, 0, 84, 100
1, 359304, Note_off_c, 0, 84, 64
1, 359304, Note_on_c, 0, 86, 100
1, 359328, Note_on_c, 0, 84, 100
1, 359352, Note_off_c, 0, 86, 64
1, 359376, Note_on_c, 0, 81, 100
1, 359376, Note_off_c, 0, 84, 64
1, 359424, Note_on_c, 0, 33, 89
1, 359424, Note_off_c, 0, 50, 64
1, 359424, Note_off_c, 0, 55, 64
1, 359424, Note_off_c, 0, 59, 64
1, 359424, Note_off_c, 0, 62, 64
1, 359424, Note_off_c, 0, 71, 64
1, 359424, Note_off_c, 0, 81, 64
1, 359519, Note_off_c, 0, 33, 59
1, 359520, Note_on_c, 0, 33, 85
1, 359520, Note_on_c, 0, 65, 84
1, 359536, Note_off_c, 0, 65, 54
1, 359550, Note_on_c, 0, 67, 88
1, 359567, Note_off_c, 0, 33, 73
1, 359568, Note_on_c, 0, 33, 77
1, 359568, Note_on_c, 0, 65, 78
1, 359574, Note_off_c, 0, 67, 89
1, 359599, Note_off_c, 0, 65, 36
1, 359615, Note_off_c, 0, 33, 70
1, 359616, Note_on_c, 0, 36, 74
1, 359616, Note_on_c, 0, 64, 92
1, 359657, Note_off_c, 0, 64, 52
1, 359693, Note_off_c, 0, 36, 52
1, 359694, Note_on_c, 0, 36, 68
1, 359694, Note_on_c, 0, 62, 84
1, 359725, Note_off_c, 0, 62, 74
1, 359741, Note_off_c, 0, 36, 46
1, 359742, Note_on_c, 0, 36, 47
1, 359760, Note_on_c, 0, 60, 76
1, 359780, Note_off_c, 0, 60, 46
1, 359789, Note_off_c, 0, 36, 35
1, 359790, Note_on_c, 0, 29, 56
1, 359855, Note_off_c, 0, 29, 20
1, 359856, Note_on_c, 0, 29, 46
1, 359903, Note_off_c, 0, 29, 37
1, 359904, Note_on_c, 0, 29, 73
1, 359904, Note_on_c, 0, 60, 80
1, 359929, Note_off_c, 0, 60, 32
1, 359951, Note_off_c, 0, 29, 35
1, 359952, Note_on_c, 0, 29, 71
1, 359952, Note_on_c, 0, 57, 74
1, 359976, Note_off_c, 0, 57, 57
1, 359999, Note_off_c, 0, 29, 50
1, 360000, Note_on_c, 0, 38, 98
1, 360000, Note_on_c, 0, 60, 75
1, 360036, Note_off_c, 0, 60, 17
1, 360077, Note_off_c, 0, 38, 49
1, 360078, Note_on_c, 0, 38, 89
1, 360078, Note_on_c, 0, 64, 88
1, 360096, Note_off_c, 0, 64, 72
1, 360125, Note_off_c, 0, 38, 50
1, 360126, Note_on_c, 0, 38, 79
1, 360144, Note_on_c, 0, 60, 74
1, 360173, Note_off_c, 0, 38, 70
1, 360174, Note_on_c, 0, 38, 87
1, 360177, Note_off_c, 0, 60, 31
1, 360239, Note_off_c, 0, 38, 64
1, 360240, Note_on_c, 0, 33, 64
1, 360287, Note_off_c, 0, 33, 54
1, 360288, Note_on_c, 0, 33, 63
1, 360288, Note_on_c, 0, 65, 82
1, 360304, Note_off_c, 0, 65, 54
1, 360318, Note_on_c, 0, 67, 50
1, 360335, Note_off_c, 0, 33, 43
1, 360336, Note_on_c, 0, 33, 88
1, 360336, Note_on_c, 0, 65, 76
1, 360338, Note_off_c, 0, 67, 88
1, 360367, Note_off_c, 0, 65, 48
1, 360383, Note_off_c, 0, 33, 70
1, 360384, Note_on_c, 0, 36, 94
1, 360384, Note_on_c, 0, 64, 98
1, 360418, Note_off_c, 0, 64, 54
1, 360461, Note_off_c, 0, 36, 43
1, 360462, Note_on_c, 0, 36, 84
1, 360462, Note_on_c, 0, 69, 76
1, 360495, Note_off_c, 0, 69, 54
1, 360509, Note_off_c, 0, 36, 58
1, 360510, Note_on_c, 0, 36, 80
1, 360528, Note_on_c, 0, 64, 93
1, 360557, Note_off_c, 0, 36, 44
1, 360558, Note_on_c, 0, 29, 70
1, 360560, Note_off_c, 0, 64, 57
1, 360623, Note_off_c, 0, 29, 36
1, 360624, Note_on_c, 0, 29, 62
1, 360671, Note_off_c, 0, 29, 37
1, 360672, Note_on_c, 0, 29, 67
1, 360672, Note_on_c, 0, 64, 75
1, 360706, Note_off_c, 0, 64, 50
1, 360719, Note_off_c, 0, 29, 35
1, 360720, Note_on_c, 0, 29, 72
1, 360720, Note_on_c, 0, 65, 80
1, 360735, Note_off_c, 0, 65, 62
1, 360767, Note_off_c, 0, 29, 45
1, 360768, Note_on_c, 0, 38, 91
1, 360768, Note_on_c, 0, 64, 97
1, 360777, Note_on_c, 0, 65, 96
1, 360786, Note_off_c, 0, 64, 93
1, 360803, Note_off_c, 0, 65, 28
1, 360845, Note_off_c, 0, 38, 53
1, 360846, Note_on_c, 0, 40, 88
1, 360846, Note_on_c, 0, 64, 90
1, 360883, Note_off_c, 0, 64, 49
1, 360893, Note_off_c, 0, 40, 48
1, 360894, Note_on_c, 0, 40, 83
1, 360912, Note_on_c, 0, 60, 68
1, 360941, Note_off_c, 0, 40, 58
1, 360942, Note_on_c, 0, 33, 83
1, 360944, Note_off_c, 0, 60, 67
1, 360959, Note_off_c, 0, 33, 58
1, 360960, Note_on_c, 0, 65, 100
1, 360960, Note_on_c, 0, 69, 100
1, 360960, Note_on_c, 0, 72, 100
1, 360960, Note_on_c, 0, 76, 100
1, 361344, Note_on_c, 0, 62, 100
1, 361344, Note_off_c, 0, 72, 64
1, 361344, Note_on_c, 0, 74, 100
1, 361344, Note_off_c, 0, 76, 64
1, 361632, Note_off_c, 0, 62, 64
1, 361632, Note_off_c, 0, 65, 64
1, 361632, Note_off_c, 0, 69, 64
1, 361632, Note_off_c, 0, 74, 64
1, 361632, Note_on_c, 0, 77, 95
1, 361728, Note_on_c, 0, 69, 100
1, 361728, Note_on_c, 0, 72, 100
1, 361728, Note_on_c, 0, 76, 100
1, 361728, Note_off_c, 0, 77, 127
1, 362112, Note_off_c, 0, 72, 64
1, 362112, Note_on_c, 0, 74, 100
1, 362112, Note_off_c, 0, 76, 64
1, 362208, Note_on_c, 0, 58, 100
1, 362208, Note_off_c, 0, 69, 64
1, 362208, Note_on_c, 0, 70, 100
1, 362496, Note_on_c, 0, 29, 85
1, 362496, Note_off_c, 0, 58, 64
1, 362496, Note_on_c, 0, 64, 94
1, 362496, Note_off_c, 0, 70, 64
1, 362496, Note_off_c, 0, 74, 64
1, 362544, Note_on_c, 0, 72, 82
1, 362586, Note_off_c, 0, 72, 40
1, 362592, Note_on_c, 0, 74, 80
1, 362640, Note_on_c, 0, 76, 92
1, 362642, Note_off_c, 0, 74, 57
1, 362693, Note_off_c, 0, 76, 62
1, 362736, Note_on_c, 0, 72, 89
1, 362784, Note_on_c, 0, 74, 81
1, 362787, Note_off_c, 0, 72, 62
1, 362832, Note_off_c, 0, 74, 76
1, 362832, Note_on_c, 0, 79, 102
1, 362879, Note_off_c, 0, 29, 78
1, 362879, Note_off_c, 0, 64, 71
1, 362880, Note_on_c, 0, 33, 78
1, 362880, Note_on_c, 0, 67, 87
1, 362895, Note_off_c, 0, 79, 82
1, 362976, Note_on_c, 0, 81, 95
1, 363039, Note_off_c, 0, 81, 50
1, 363072, Note_on_c, 0, 79, 89
1, 363134, Note_off_c, 0, 79, 40
1, 363168, Note_on_c, 0, 76, 83
1, 363216, Note_on_c, 0, 74, 87
1, 363218, Note_off_c, 0, 76, 73
1, 363263, Note_off_c, 0, 33, 68
1, 363263, Note_off_c, 0, 67, 75
1, 363264, Note_on_c, 0, 36, 75
1, 363264, Note_on_c, 0, 62, 89
1, 363268, Note_off_c, 0, 74, 53
1, 363312, Note_on_c, 0, 72, 89
1, 363358, Note_off_c, 0, 72, 39
1, 363360, Note_on_c, 0, 74, 82
1, 363405, Note_off_c, 0, 74, 73
1, 363408, Note_on_c, 0, 76, 80
1, 363460, Note_off_c, 0, 76, 54
1, 363504, Note_on_c, 0, 72, 87
1, 363549, Note_off_c, 0, 72, 49
1, 363552, Note_on_c, 0, 74, 93
1, 363599, Note_off_c, 0, 74, 75
1, 363600, Note_on_c, 0, 79, 103
1, 363675, Note_off_c, 0, 79, 56
1, 363744, Note_on_c, 0, 77, 89
1, 363802, Note_off_c, 0, 77, 43
1, 363839, Note_off_c, 0, 36, 78
1, 363840, Note_on_c, 0, 31, 88
1, 363840, Note_on_c, 0, 76, 94
1, 363908, Note_off_c, 0, 76, 54
1, 363936, Note_on_c, 0, 74, 106
1, 363984, Note_on_c, 0, 72, 111
1, 363986, Note_off_c, 0, 74, 65
1, 364031, Note_off_c, 0, 31, 80
1, 364031, Note_off_c, 0, 72, 67
1, 364032, Note_off_c, 0, 62, 70
1, 364080, Note_on_c, 0, 57, 100
1, 364080, Note_on_c, 0, 60, 100
1, 364080, Note_on_c, 0, 64, 100
1, 364080, Note_on_c, 0, 76, 100
1, 364128, Note_off_c, 0, 57, 64
1, 364128, Note_off_c, 0, 60, 64
1, 364128, Note_off_c, 0, 64, 64
1, 364128, Note_off_c, 0, 76, 64
1, 364152, Note_on_c, 0, 57, 100
1, 364152, Note_on_c, 0, 60, 100
1, 364152, Note_on_c, 0, 64, 100
1, 364152, Note_on_c, 0, 76, 100
1, 364200, Note_off_c, 0, 57, 64
1, 364200, Note_off_c, 0, 60, 64
1, 364200, Note_off_c, 0, 64, 64
1, 364200, Note_off_c, 0, 76, 64
1, 364248, Note_on_c, 0, 57, 100
1, 364248, Note_on_c, 0, 60, 100
1, 364248, Note_on_c, 0, 64, 100
1, 364248, Note_on_c, 0, 74, 100
1, 364296, Note_off_c, 0, 74, 64
1, 364308, Note_off_c, 0, 57, 64
1, 364308, Note_off_c, 0, 60, 64
1, 364308, Note_off_c, 0, 64, 64
1, 364344, Note_on_c, 0, 57, 100
1, 364344, Note_on_c, 0, 60, 100
1, 364344, Note_on_c, 0, 64, 100
1, 364344, Note_on_c, 0, 72, 100
1, 364392, Note_off_c, 0, 72, 64
1, 364392, Note_on_c, 0, 81, 100
1, 364404, Note_off_c, 0, 57, 64
1, 364404, Note_off_c, 0, 60, 64
1, 364404, Note_off_c, 0, 64, 64
1, 364416, Note_off_c, 0, 81, 64
1, 364464, Note_on_c, 0, 53, 100
1, 364464, Note_on_c, 0, 57, 100
1, 364464, Note_on_c, 0, 60, 100
1, 364464, Note_on_c, 0, 64, 100
1, 364464, Note_on_c, 0, 76, 100
1, 364512, Note_off_c, 0, 53, 64
1, 364512, Note_off_c, 0, 57, 64
1, 364512, Note_off_c, 0, 60, 64
1, 364512, Note_off_c, 0, 64, 64
1, 364512, Note_off_c, 0, 76, 64
1, 364536, Note_on_c, 0, 53, 100
1, 364536, Note_on_c, 0, 57, 100
1, 364536, Note_on_c, 0, 60, 100
1, 364536, Note_on_c, 0, 64, 100
1, 364536, Note_on_c, 0, 76, 100
1, 364584, Note_off_c, 0, 53, 64
1, 364584, Note_off_c, 0, 57, 64
1, 364584, Note_off_c, 0, 60, 64
1, 364584, Note_off_c, 0, 64, 64
1, 364584, Note_off_c, 0, 76, 64
1, 364632, Note_on_c, 0, 53, 100
1, 364632, Note_on_c, 0, 57, 100
1, 364632, Note_on_c, 0, 60, 100
1, 364632, Note_on_c, 0, 64, 100
1, 364632, Note_on_c, 0, 74, 100
1, 364680, Note_off_c, 0, 74, 64
1, 364692, Note_off_c, 0, 53, 64
1, 364692, Note_off_c, 0, 57, 64
1, 364692, Note_off_c, 0, 60, 64
1, 364692, Note_off_c, 0, 64, 64
1, 364728, Note_on_c, 0, 53, 100
1, 364728, Note_on_c, 0, 57, 100
1, 364728, Note_on_c, 0, 60, 100
1, 364728, Note_on_c, 0, 64, 100
1, 364728, Note_on_c, 0, 79, 100
1, 364776, Note_off_c, 0, 53, 64
1, 364776, Note_off_c, 0, 57, 64
1, 364776, Note_off_c, 0, 60, 64
1, 364776, Note_off_c, 0, 64, 64
1, 364776, Note_off_c, 0, 79, 64
1, 364848, Note_on_c, 0, 55, 100
1, 364848, Note_on_c, 0, 59, 100
1, 364848, Note_on_c, 0, 62, 100
1, 364848, Note_on_c, 0, 76, 100
1, 364896, Note_off_c, 0, 55, 64
1, 364896, Note_off_c, 0, 59, 64
1, 364896, Note_off_c, 0, 62, 64
1, 364896, Note_off_c, 0, 76, 64
1, 364920, Note_on_c, 0, 55, 100
1, 364920, Note_on_c, 0, 59, 100
1, 364920, Note_on_c, 0, 62, 100
1, 364920, Note_on_c, 0, 76, 100
1, 364968, Note_off_c, 0, 55, 64
1, 364968, Note_off_c, 0, 59, 64
1, 364968, Note_off_c, 0, 62, 64
1, 364968, Note_off_c, 0, 76, 64
1, 365016, Note_on_c, 0, 55, 100
1, 365016, Note_on_c, 0, 59, 100
1, 365016, Note_on_c, 0, 62, 100
1, 365016, Note_on_c, 0, 74, 100
1, 365064, Note_off_c, 0, 74, 64
1, 365076, Note_off_c, 0, 55, 64
1, 365076, Note_off_c, 0, 59, 64
1, 365076, Note_off_c, 0, 62, 64
1, 365112, Note_on_c, 0, 55, 100
1, 365112, Note_on_c, 0, 59, 100
1, 365112, Note_on_c, 0, 62, 100
1, 365112, Note_on_c, 0, 72, 100
1, 365160, Note_off_c, 0, 72, 64
1, 365160, Note_on_c, 0, 81, 100
1, 365172, Note_off_c, 0, 55, 64
1, 365172, Note_off_c, 0, 59, 64
1, 365172, Note_off_c, 0, 62, 64
1, 365184, Note_off_c, 0, 81, 64
1, 365232, Note_on_c, 0, 50, 100
1, 365232, Note_on_c, 0, 53, 100
1, 365232, Note_on_c, 0, 57, 100
1, 365232, Note_on_c, 0, 60, 100
1, 365232, Note_on_c, 0, 76, 100
1, 365280, Note_off_c, 0, 50, 64
1, 365280, Note_off_c, 0, 53, 64
1, 365280, Note_off_c, 0, 57, 64
1, 365280, Note_off_c, 0, 60, 64
1, 365280, Note_off_c, 0, 76, 64
1, 365304, Note_on_c, 0, 50, 100
1, 365304, Note_on_c, 0, 53, 100
1, 365304, Note_on_c, 0, 57, 100
1, 365304, Note_on_c, 0, 60, 100
1, 365304, Note_on_c, 0, 76, 100
1, 365352, Note_off_c, 0, 50, 64
1, 365352, Note_off_c, 0, 53, 64
1, 365352, Note_off_c, 0, 57, 64
1, 365352, Note_off_c, 0, 60, 64
1, 365352, Note_off_c, 0, 76, 64
1, 365400, Note_on_c, 0, 50, 100
1, 365400, Note_on_c, 0, 53, 100
1, 365400, Note_on_c, 0, 57, 100
1, 365400, Note_on_c, 0, 60, 100
1, 365400, Note_on_c, 0, 74, 100
1, 365448, Note_off_c, 0, 74, 64
1, 365460, Note_off_c, 0, 50, 64
1, 365460, Note_off_c, 0, 53, 64
1, 365460, Note_off_c, 0, 57, 64
1, 365460, Note_off_c, 0, 60, 64
1, 365496, Note_on_c, 0, 50, 100
1, 365496, Note_on_c, 0, 53, 100
1, 365496, Note_on_c, 0, 57, 100
1, 365496, Note_on_c, 0, 60, 100
1, 365496, Note_on_c, 0, 79, 100
1, 365544, Note_off_c, 0, 79, 64
1, 365544, Note_on_c, 0, 91, 100
1, 365556, Note_off_c, 0, 50, 64
1, 365556, Note_off_c, 0, 53, 64
1, 365556, Note_off_c, 0, 57, 64
1, 365556, Note_off_c, 0, 60, 64
1, 365568, Note_on_c, 0, 33, 100
1, 365568, Note_on_c, 0, 45, 100
1, 365568, Note_on_c, 0, 57, 100
1, 365568, Note_on_c, 0, 69, 100
1, 365568, Note_off_c, 0, 91, 64
1, 365664, Note_off_c, 0, 57, 64
1, 365664, Note_off_c, 0, 69, 64
1, 365712, Note_on_c, 0, 59, 100
1, 365712, Note_on_c, 0, 71, 100
1, 365760, Note_off_c, 0, 33, 64
1, 365760, Note_on_c, 0, 40, 100
1, 365760, Note_off_c, 0, 45, 64
1, 365760, Note_on_c, 0, 52, 100
1, 365760, Note_on_c, 0, 55, 100
1, 365760, Note_off_c, 0, 59, 64
1, 365760, Note_on_c, 0, 67, 100
1, 365760, Note_off_c, 0, 71, 64
1, 365808, Note_off_c, 0, 55, 64
1, 365808, Note_off_c, 0, 67, 64
1, 365832, Note_on_c, 0, 57, 100
1, 365832, Note_on_c, 0, 69, 100
1, 365880, Note_off_c, 0, 57, 64
1, 365880, Note_off_c, 0, 69, 64
1, 365904, Note_on_c, 0, 62, 100
1, 365904, Note_on_c, 0, 74, 100
1, 365952, Note_on_c, 0, 36, 100
1, 365952, Note_off_c, 0, 40, 64
1, 365952, Note_on_c, 0, 48, 100
1, 365952, Note_off_c, 0, 52, 64
1, 365952, Note_off_c, 0, 62, 64
1, 365952, Note_on_c, 0, 64, 100
1, 365952, Note_off_c, 0, 74, 64
1, 365952, Note_on_c, 0, 76, 100
1, 366143, Note_off_c, 0, 64, 64
1, 366143, Note_off_c, 0, 76, 64
1, 366144, Note_on_c, 0, 64, 100
1, 366144, Note_on_c, 0, 76, 100
1, 366288, Note_on_c, 0, 62, 100
1, 366288, Note_off_c, 0, 64, 64
1, 366288, Note_on_c, 0, 74, 100
1, 366288, Note_off_c, 0, 76, 64
1, 366336, Note_off_c, 0, 36, 64
1, 366336, Note_on_c, 0, 38, 100
1, 366336, Note_off_c, 0, 48, 64
1, 366336, Note_on_c, 0, 50, 100
1, 366336, Note_off_c, 0, 62, 64
1, 366336, Note_on_c, 0, 65, 100
1, 366336, Note_off_c, 0, 74, 64
1, 366336, Note_on_c, 0, 77, 100
1, 366417, Note_off_c, 0, 65, 64
1, 366417, Note_off_c, 0, 77, 64
1, 366431, Note_off_c, 0, 38, 64
1, 366431, Note_off_c, 0, 50, 64
1, 366432, Note_on_c, 0, 38, 100
1, 366432, Note_on_c, 0, 50, 100
1, 366480, Note_on_c, 0, 65, 100
1, 366480, Note_on_c, 0, 77, 100
1, 366504, Note_on_c, 0, 64, 99
1, 366504, Note_on_c, 0, 76, 99
1, 366517, Note_off_c, 0, 65, 64
1, 366517, Note_off_c, 0, 77, 64
1, 366527, Note_off_c, 0, 64, 64
1, 366527, Note_off_c, 0, 76, 64
1, 366528, Note_on_c, 0, 36, 100
1, 366528, Note_off_c, 0, 38, 64
1, 366528, Note_on_c, 0, 48, 100
1, 366528, Note_off_c, 0, 50, 64
1, 366528, Note_on_c, 0, 64, 100
1, 366528, Note_on_c, 0, 76, 100
1, 366609, Note_off_c, 0, 64, 64
1, 366609, Note_off_c, 0, 76, 64
1, 366623, Note_off_c, 0, 36, 64
1, 366623, Note_off_c, 0, 48, 64
1, 366624, Note_on_c, 0, 36, 100
1, 366624, Note_on_c, 0, 48, 100
1, 366672, Note_on_c, 0, 62, 100
1, 366672, Note_on_c, 0, 74, 100
1, 366696, Note_on_c, 0, 64, 99
1, 366696, Note_on_c, 0, 76, 99
1, 366709, Note_off_c, 0, 62, 64
1, 366709, Note_off_c, 0, 74, 64
1, 366720, Note_on_c, 0, 33, 100
1, 366720, Note_off_c, 0, 36, 64
1, 366720, Note_on_c, 0, 45, 100
1, 366720, Note_off_c, 0, 48, 64
1, 366720, Note_on_c, 0, 60, 100
1, 366720, Note_off_c, 0, 64, 64
1, 366720, Note_on_c, 0, 72, 100
1, 366720, Note_off_c, 0, 76, 64
1, 366815, Note_off_c, 0, 33, 64
1, 366815, Note_off_c, 0, 45, 64
1, 366816, Note_on_c, 0, 33, 100
1, 366816, Note_on_c, 0, 45, 100
1, 366864, Note_off_c, 0, 60, 64
1, 366864, Note_on_c, 0, 62, 100
1, 366864, Note_off_c, 0, 72, 64
1, 366864, Note_on_c, 0, 74, 100
1, 366911, Note_off_c, 0, 33, 64
1, 366911, Note_off_c, 0, 45, 64
1, 366912, Note_on_c, 0, 33, 100
1, 366912, Note_on_c, 0, 45, 100
1, 366912, Note_on_c, 0, 60, 100
1, 366912, Note_off_c, 0, 62, 64
1, 366912, Note_on_c, 0, 72, 100
1, 366912, Note_off_c, 0, 74, 64
1, 367007, Note_off_c, 0, 33, 64
1, 367007, Note_off_c, 0, 45, 64
1, 367008, Note_on_c, 0, 33, 100
1, 367008, Note_on_c, 0, 45, 100
1, 367056, Note_on_c, 0, 57, 100
1, 367056, Note_off_c, 0, 60, 64
1, 367056, Note_on_c, 0, 69, 100
1, 367056, Note_off_c, 0, 72, 64
1, 367103, Note_off_c, 0, 33, 64
1, 367103, Note_off_c, 0, 57, 64
1, 367104, Note_on_c, 0, 29, 89
1, 367104, Note_on_c, 0, 41, 72
1, 367104, Note_off_c, 0, 45, 64
1, 367104, Note_on_c, 0, 57, 87
1, 367104, Note_on_c, 0, 60, 96
1, 367104, Note_off_c, 0, 69, 64
1, 367152, Note_on_c, 0, 72, 82
1, 367186, Note_off_c, 0, 72, 24
1, 367199, Note_off_c, 0, 29, 35
1, 367199, Note_off_c, 0, 41, 32
1, 367199, Note_off_c, 0, 57, 16
1, 367199, Note_off_c, 0, 60, 25
1, 367200, Note_on_c, 0, 29, 82
1, 367200, Note_on_c, 0, 41, 82
1, 367200, Note_on_c, 0, 57, 80
1, 367200, Note_on_c, 0, 60, 96
1, 367200, Note_on_c, 0, 74, 84
1, 367231, Note_off_c, 0, 74, 34
1, 367248, Note_on_c, 0, 76, 91
1, 367275, Note_off_c, 0, 76, 58
1, 367278, Note_off_c, 0, 29, 48
1, 367278, Note_off_c, 0, 41, 46
1, 367278, Note_off_c, 0, 57, 28
1, 367278, Note_off_c, 0, 60, 62
1, 367279, Note_on_c, 0, 29, 89
1, 367279, Note_on_c, 0, 41, 82
1, 367279, Note_on_c, 0, 57, 43
1, 367279, Note_on_c, 0, 64, 99
1, 367344, Note_on_c, 0, 72, 60
1, 367389, Note_off_c, 0, 72, 23
1, 367391, Note_off_c, 0, 29, 47
1, 367391, Note_off_c, 0, 41, 36
1, 367391, Note_off_c, 0, 57, 30
1, 367391, Note_off_c, 0, 64, 84
1, 367392, Note_on_c, 0, 29, 96
1, 367392, Note_on_c, 0, 41, 86
1, 367392, Note_on_c, 0, 57, 41
1, 367392, Note_on_c, 0, 64, 105
1, 367392, Note_on_c, 0, 74, 89
1, 367423, Note_off_c, 0, 74, 20
1, 367487, Note_off_c, 0, 29, 60
1, 367487, Note_off_c, 0, 41, 62
1, 367487, Note_off_c, 0, 57, 19
1, 367487, Note_off_c, 0, 64, 67
1, 367488, Note_on_c, 0, 33, 82
1, 367488, Note_on_c, 0, 45, 98
1, 367488, Note_on_c, 0, 57, 66
1, 367488, Note_on_c, 0, 64, 100
1, 367488, Note_on_c, 0, 79, 72
1, 367530, Note_off_c, 0, 79, 22
1, 367535, Note_off_c, 0, 33, 50
1, 367535, Note_off_c, 0, 45, 47
1, 367535, Note_off_c, 0, 57, 41
1, 367535, Note_off_c, 0, 64, 86
1, 367536, Note_on_c, 0, 33, 82
1, 367536, Note_on_c, 0, 45, 82
1, 367536, Note_on_c, 0, 57, 70
1, 367536, Note_on_c, 0, 64, 97
1, 367583, Note_off_c, 0, 33, 51
1, 367583, Note_off_c, 0, 45, 48
1, 367583, Note_off_c, 0, 57, 35
1, 367583, Note_off_c, 0, 64, 75
1, 367584, Note_on_c, 0, 33, 96
1, 367584, Note_on_c, 0, 45, 91
1, 367584, Note_on_c, 0, 57, 75
1, 367584, Note_on_c, 0, 64, 106
1, 367584, Note_on_c, 0, 77, 84
1, 367608, Note_off_c, 0, 77, 25
1, 367662, Note_off_c, 0, 33, 65
1, 367662, Note_off_c, 0, 45, 55
1, 367662, Note_off_c, 0, 57, 13
1, 367662, Note_off_c, 0, 64, 68
1, 367663, Note_on_c, 0, 31, 77
1, 367663, Note_on_c, 0, 43, 74
1, 367663, Note_on_c, 0, 57, 61
1, 367663, Note_on_c, 0, 59, 99
1, 367680, Note_on_c, 0, 76, 77
1, 367699, Note_off_c, 0, 76, 62
1, 367775, Note_off_c, 0, 31, 34
1, 367775, Note_off_c, 0, 43, 46
1, 367775, Note_off_c, 0, 57, 26
1, 367775, Note_off_c, 0, 59, 76
1, 367776, Note_on_c, 0, 31, 78
1, 367776, Note_on_c, 0, 43, 96
1, 367776, Note_on_c, 0, 57, 65
1, 367776, Note_on_c, 0, 59, 100
1, 367776, Note_on_c, 0, 74, 75
1, 367799, Note_off_c, 0, 74, 38
1, 367824, Note_on_c, 0, 76, 89
1, 367843, Note_off_c, 0, 76, 68
1, 367871, Note_off_c, 0, 31, 45
1, 367871, Note_off_c, 0, 43, 38
1, 367871, Note_off_c, 0, 57, 34
1, 367871, Note_off_c, 0, 59, 72
1, 367872, Note_on_c, 0, 29, 89
1, 367872, Note_on_c, 0, 41, 87
1, 367872, Note_on_c, 0, 57, 74
1, 367872, Note_on_c, 0, 60, 94
1, 367920, Note_on_c, 0, 72, 62
1, 367947, Note_off_c, 0, 72, 41
1, 367967, Note_off_c, 0, 29, 33
1, 367967, Note_off_c, 0, 41, 39
1, 367967, Note_off_c, 0, 57, 10
1, 367967, Note_off_c, 0, 60, 66
1, 367968, Note_on_c, 0, 29, 84
1, 367968, Note_on_c, 0, 41, 87
1, 367968, Note_on_c, 0, 57, 75
1, 367968, Note_on_c, 0, 60, 94
1, 367968, Note_on_c, 0, 74, 68
1, 367985, Note_off_c, 0, 74, 48
1, 368016, Note_on_c, 0, 76, 76
1, 368039, Note_off_c, 0, 76, 56
1, 368046, Note_off_c, 0, 29, 51
1, 368046, Note_off_c, 0, 41, 49
1, 368046, Note_off_c, 0, 57, 36
1, 368046, Note_off_c, 0, 60, 45
1, 368047, Note_on_c, 0, 29, 84
1, 368047, Note_on_c, 0, 41, 84
1, 368047, Note_on_c, 0, 57, 68
1, 368047, Note_on_c, 0, 64, 105
1, 368112, Note_on_c, 0, 72, 60
1, 368131, Note_off_c, 0, 72, 38
1, 368159, Note_off_c, 0, 29, 38
1, 368159, Note_off_c, 0, 41, 31
1, 368159, Note_off_c, 0, 57, 33
1, 368159, Note_off_c, 0, 64, 73
1, 368160, Note_on_c, 0, 29, 84
1, 368160, Note_on_c, 0, 41, 87
1, 368160, Note_on_c, 0, 57, 64
1, 368160, Note_on_c, 0, 64, 100
1, 368160, Note_on_c, 0, 74, 80
1, 368196, Note_off_c, 0, 74, 2
1, 368255, Note_off_c, 0, 29, 44
1, 368255, Note_off_c, 0, 41, 62
1, 368255, Note_off_c, 0, 57, 10
1, 368255, Note_off_c, 0, 64, 51
1, 368256, Note_on_c, 0, 33, 86
1, 368256, Note_on_c, 0, 45, 91
1, 368256, Note_on_c, 0, 57, 75
1, 368256, Note_on_c, 0, 67, 100
1, 368256, Note_on_c, 0, 77, 87
1, 368292, Note_off_c, 0, 77, 40
1, 368303, Note_off_c, 0, 33, 49
1, 368303, Note_off_c, 0, 45, 50
1, 368303, Note_off_c, 0, 57, 40
1, 368303, Note_off_c, 0, 67, 57
1, 368304, Note_on_c, 0, 33, 62
1, 368304, Note_on_c, 0, 45, 84
1, 368304, Note_on_c, 0, 57, 77
1, 368304, Note_on_c, 0, 67, 105
1, 368351, Note_off_c, 0, 33, 53
1, 368351, Note_off_c, 0, 45, 41
1, 368351, Note_off_c, 0, 57, 37
1, 368351, Note_off_c, 0, 67, 45
1, 368352, Note_on_c, 0, 33, 82
1, 368352, Note_on_c, 0, 45, 100
1, 368352, Note_on_c, 0, 57, 80
1, 368352, Note_on_c, 0, 67, 108
1, 368352, Note_on_c, 0, 76, 66
1, 368388, Note_off_c, 0, 76, 58
1, 368430, Note_off_c, 0, 33, 53
1, 368430, Note_off_c, 0, 45, 49
1, 368430, Note_off_c, 0, 57, 45
1, 368430, Note_off_c, 0, 67, 45
1, 368431, Note_on_c, 0, 31, 91
1, 368431, Note_on_c, 0, 43, 87
1, 368431, Note_on_c, 0, 57, 55
1, 368431, Note_on_c, 0, 59, 103
1, 368448, Note_on_c, 0, 74, 89
1, 368480, Note_off_c, 0, 74, 34
1, 368543, Note_off_c, 0, 31, 37
1, 368543, Note_off_c, 0, 43, 43
1, 368543, Note_off_c, 0, 57, 27
1, 368543, Note_off_c, 0, 59, 73
1, 368544, Note_on_c, 0, 31, 87
1, 368544, Note_on_c, 0, 43, 94
1, 368544, Note_on_c, 0, 57, 67
1, 368544, Note_on_c, 0, 59, 99
1, 368544, Note_on_c, 0, 76, 84
1, 368571, Note_off_c, 0, 76, 44
1, 368592, Note_on_c, 0, 72, 77
1, 368618, Note_off_c, 0, 72, 47
1, 368639, Note_off_c, 0, 31, 59
1, 368639, Note_off_c, 0, 43, 56
1, 368639, Note_off_c, 0, 57, 29
1, 368639, Note_off_c, 0, 59, 84
1, 368640, Note_on_c, 0, 33, 59
1, 368640, Note_on_c, 0, 45, 70
1, 368640, Note_on_c, 0, 52, 82
1, 368640, Note_on_c, 0, 55, 71
1, 368640, Note_on_c, 0, 60, 79
1, 368640, Note_on_c, 0, 88, 78
1, 368687, Note_off_c, 0, 88, 64
1, 368688, Note_on_c, 0, 84, 73
1, 368735, Note_off_c, 0, 84, 64
1, 368736, Note_on_c, 0, 79, 70
1, 368783, Note_off_c, 0, 79, 64
1, 368784, Note_on_c, 0, 84, 71
1, 368831, Note_off_c, 0, 84, 64
1, 368832, Note_on_c, 0, 88, 78
1, 368879, Note_off_c, 0, 88, 64
1, 368880, Note_on_c, 0, 84, 79
1, 368927, Note_off_c, 0, 84, 64
1, 368928, Note_on_c, 0, 79, 76
1, 368975, Note_off_c, 0, 79, 64
1, 368976, Note_on_c, 0, 84, 68
1, 369023, Note_off_c, 0, 84, 64
1, 369024, Note_on_c, 0, 88, 82
1, 369071, Note_off_c, 0, 88, 64
1, 369072, Note_on_c, 0, 84, 78
1, 369119, Note_off_c, 0, 84, 64
1, 369120, Note_on_c, 0, 79, 72
1, 369167, Note_off_c, 0, 79, 64
1, 369168, Note_on_c, 0, 84, 76
1, 369215, Note_off_c, 0, 84, 64
1, 369216, Note_on_c, 0, 28, 94
1, 369216, Note_off_c, 0, 33, 64
1, 369216, Note_on_c, 0, 40, 83
1, 369216, Note_off_c, 0, 45, 64
1, 369216, Note_off_c, 0, 52, 64
1, 369216, Note_on_c, 0, 52, 79
1, 369216, Note_off_c, 0, 55, 64
1, 369216, Note_on_c, 0, 55, 67
1, 369216, Note_on_c, 0, 59, 79
1, 369216, Note_off_c, 0, 60, 64
1, 369216, Note_on_c, 0, 88, 76
1, 369263, Note_off_c, 0, 88, 64
1, 369264, Note_on_c, 0, 84, 59
1, 369311, Note_off_c, 0, 84, 64
1, 369312, Note_on_c, 0, 79, 79
1, 369359, Note_off_c, 0, 79, 64
1, 369360, Note_on_c, 0, 84, 78
1, 369407, Note_off_c, 0, 84, 64
1, 369408, Note_off_c, 0, 28, 64
1, 369408, Note_on_c, 0, 29, 75
1, 369408, Note_off_c, 0, 40, 64
1, 369408, Note_on_c, 0, 41, 73
1, 369408, Note_off_c, 0, 52, 64
1, 369408, Note_off_c, 0, 55, 64
1, 369408, Note_on_c, 0, 55, 70
1, 369408, Note_on_c, 0, 57, 79
1, 369408, Note_off_c, 0, 59, 64
1, 369408, Note_on_c, 0, 60, 79
1, 369408, Note_on_c, 0, 88, 75
1, 369455, Note_off_c, 0, 88, 64
1, 369456, Note_on_c, 0, 84, 67
1, 369503, Note_off_c, 0, 84, 64
1, 369504, Note_on_c, 0, 79, 76
1, 369551, Note_off_c, 0, 79, 64
1, 369552, Note_on_c, 0, 84, 62
1, 369599, Note_off_c, 0, 84, 64
1, 369600, Note_on_c, 0, 88, 75
1, 369647, Note_off_c, 0, 88, 64
1, 369648, Note_on_c, 0, 84, 76
1, 369695, Note_off_c, 0, 84, 64
1, 369696, Note_on_c, 0, 79, 82
1, 369743, Note_off_c, 0, 79, 64
1, 369744, Note_on_c, 0, 84, 73
1, 369791, Note_off_c, 0, 84, 64
1, 369792, Note_on_c, 0, 88, 79
1, 369839, Note_off_c, 0, 88, 64
1, 369840, Note_on_c, 0, 84, 63
1, 369887, Note_off_c, 0, 84, 64
1, 369888, Note_on_c, 0, 79, 82
1, 369935, Note_off_c, 0, 79, 64
1, 369936, Note_on_c, 0, 84, 76
1, 369983, Note_off_c, 0, 84, 64
1, 369984, Note_off_c, 0, 29, 64
1, 369984, Note_on_c, 0, 36, 93
1, 369984, Note_off_c, 0, 41, 64
1, 369984, Note_on_c, 0, 48, 45
1, 369984, Note_off_c, 0, 55, 64
1, 369984, Note_on_c, 0, 55, 72
1, 369984, Note_off_c, 0, 57, 64
1, 369984, Note_off_c, 0, 60, 64
1, 369984, Note_on_c, 0, 62, 44
1, 369984, Note_on_c, 0, 64, 84
1, 369984, Note_on_c, 0, 91, 82
1, 370031, Note_off_c, 0, 91, 64
1, 370032, Note_on_c, 0, 89, 79
1, 370079, Note_off_c, 0, 89, 64
1, 370080, Note_on_c, 0, 88, 76
1, 370127, Note_off_c, 0, 88, 64
1, 370128, Note_on_c, 0, 84, 77
1, 370175, Note_off_c, 0, 84, 64
1, 370176, Pitch_bend_c, 0, 8192
1, 370176, Control_c, 0, 6, 0
1, 370176, Control_c, 0, 6, 12
1, 370176, Control_c, 0, 7, 100
1, 370176, Control_c, 0, 10, 64
1, 370176, Control_c, 0, 100, 0
1, 370176, Control_c, 0, 101, 0
1, 370176, Note_off_c, 0, 36, 64
1, 370176, Note_off_c, 0, 48, 64
1, 370176, Note_off_c, 0, 55, 64
1, 370176, Note_off_c, 0, 62, 64
1, 370176, Note_off_c, 0, 64, 64
1, 370176, Note_on_c, 0, 67, 100
1, 370224, Note_off_c, 0, 67, 64
1, 370224, Note_on_c, 0, 72, 100
1, 370272, Note_off_c, 0, 72, 64
1, 370272, Note_on_c, 0, 83, 100
1, 370320, Note_on_c, 0, 79, 100
1, 370320, Note_off_c, 0, 83, 64
1, 370368, Note_on_c, 0, 76, 100
1, 370368, Note_off_c, 0, 79, 64
1, 370416, Note_off_c, 0, 76, 64
1, 370512, Note_on_c, 0, 72, 100
1, 370560, Note_on_c, 0, 67, 100
1, 370560, Note_off_c, 0, 72, 64
1, 370608, Note_off_c, 0, 67, 64
1, 370608, Note_on_c, 0, 72, 100
1, 370656, Note_off_c, 0, 72, 64
1, 370656, Note_on_c, 0, 79, 100
1, 370704, Note_on_c, 0, 76, 100
1, 370704, Note_off_c, 0, 79, 64
1, 370752, Note_on_c, 0, 72, 100
1, 370752, Note_off_c, 0, 76, 64
1, 370800, Note_off_c, 0, 72, 64
1, 370848, Note_on_c, 0, 71, 100
1, 370896, Note_off_c, 0, 71, 64
1, 370944, Note_on_c, 0, 64, 100
1, 370992, Note_off_c, 0, 64, 64
1, 370992, Note_on_c, 0, 72, 100
1, 371040, Note_on_c, 0, 71, 100
1, 371040, Note_off_c, 0, 72, 64
1, 371088, Note_on_c, 0, 64, 100
1, 371088, Note_off_c, 0, 71, 64
1, 371136, Note_off_c, 0, 64, 64
1, 371136, Note_on_c, 0, 67, 100
1, 371184, Note_off_c, 0, 67, 64
1, 371280, Note_on_c, 0, 74, 100
1, 371328, Note_on_c, 0, 72, 100
1, 371328, Note_off_c, 0, 74, 64
1, 371376, Note_off_c, 0, 72, 64
1, 371424, Note_on_c, 0, 71, 100
1, 371472, Note_on_c, 0, 67, 100
1, 371472, Note_off_c, 0, 71, 64
1, 371520, Note_off_c, 0, 67, 64
1, 371712, Pitch_bend_c, 0, 8192
1, 371712, Control_c, 0, 6, 12
1, 371712, Control_c, 0, 7, 100
1, 371712, Control_c, 0, 10, 64
1, 371712, Control_c, 0, 100, 0
1, 371712, Control_c, 0, 101, 0
1, 371712, Note_on_c, 0, 57, 100
1, 371712, Note_on_c, 0, 60, 100
1, 371712, Note_on_c, 0, 64, 100
1, 371760, Note_off_c, 0, 57, 64
1, 371760, Note_off_c, 0, 60, 64
1, 371760, Note_off_c, 0, 64, 64
1, 371808, Note_on_c, 0, 57, 100
1, 371808, Note_on_c, 0, 60, 100
1, 371808, Note_on_c, 0, 64, 100
1, 371832, Note_off_c, 0, 57, 64
1, 371832, Note_off_c, 0, 60, 64
1, 371832, Note_off_c, 0, 64, 64
1, 371856, Note_on_c, 0, 57, 100
1, 371856, Note_on_c, 0, 60, 100
1, 371856, Note_on_c, 0, 64, 100
1, 371880, Note_off_c, 0, 57, 64
1, 371880, Note_off_c, 0, 60, 64
1, 371880, Note_off_c, 0, 64, 64
1, 371904, Note_on_c, 0, 57, 100
1, 371904, Note_on_c, 0, 60, 100
1, 371904, Note_on_c, 0, 64, 100
1, 371928, Note_off_c, 0, 57, 64
1, 371928, Note_off_c, 0, 60, 64
1, 371928, Note_off_c, 0, 64, 64
1, 371976, Note_on_c, 0, 59, 100
1, 371976, Note_on_c, 0, 62, 100
1, 371976, Note_on_c, 0, 67, 100
1, 372024, Note_off_c, 0, 59, 64
1, 372024, Note_off_c, 0, 62, 64
1, 372024, Note_off_c, 0, 67, 64
1, 372048, Note_on_c, 0, 60, 100
1, 372048, Note_on_c, 0, 64, 100
1, 372048, Note_on_c, 0, 69, 100
1, 372144, Note_off_c, 0, 60, 64
1, 372144, Note_off_c, 0, 64, 64
1, 372144, Note_off_c, 0, 69, 64
1, 372192, Note_on_c, 0, 60, 100
1, 372192, Note_on_c, 0, 64, 100
1, 372192, Note_on_c, 0, 69, 100
1, 372240, Note_on_c, 0, 67, 100
1, 372240, Note_off_c, 0, 69, 64
1, 372288, Note_on_c, 0, 55, 100
1, 372288, Note_on_c, 0, 59, 100
1, 372288, Note_off_c, 0, 60, 64
1, 372288, Note_on_c, 0, 62, 100
1, 372288, Note_off_c, 0, 64, 64
1, 372288, Note_off_c, 0, 67, 64
1, 372336, Note_off_c, 0, 55, 64
1, 372336, Note_off_c, 0, 59, 64
1, 372336, Note_off_c, 0, 62, 64
1, 372360, Note_on_c, 0, 55, 100
1, 372360, Note_on_c, 0, 59, 100
1, 372360, Note_on_c, 0, 62, 100
1, 372384, Note_off_c, 0, 55, 64
1, 372384, Note_off_c, 0, 59, 64
1, 372384, Note_off_c, 0, 62, 64
1, 372432, Note_on_c, 0, 55, 100
1, 372432, Note_on_c, 0, 59, 100
1, 372432, Note_on_c, 0, 62, 100
1, 372456, Note_off_c, 0, 55, 64
1, 372456, Note_off_c, 0, 59, 64
1, 372456, Note_off_c, 0, 62, 64
1, 372480, Note_on_c, 0, 57, 100
1, 372480, Note_on_c, 0, 60, 100
1, 372480, Note_on_c, 0, 64, 100
1, 372528, Note_off_c, 0, 57, 64
1, 372528, Note_off_c, 0, 60, 64
1, 372528, Note_off_c, 0, 64, 64
1, 372576, Note_on_c, 0, 60, 100
1, 372576, Note_on_c, 0, 64, 100
1, 372576, Note_on_c, 0, 69, 100
1, 372624, Note_on_c, 0, 67, 100
1, 372624, Note_off_c, 0, 69, 64
1, 372672, Note_off_c, 0, 60, 64
1, 372672, Note_off_c, 0, 64, 64
1, 372672, Note_on_c, 0, 64, 100
1, 372672, Note_off_c, 0, 67, 64
1, 372672, Note_on_c, 0, 69, 100
1, 372672, Note_on_c, 0, 72, 100
1, 372696, Note_off_c, 0, 64, 64
1, 372696, Note_off_c, 0, 69, 64
1, 372696, Note_off_c, 0, 72, 64
1, 372744, Note_on_c, 0, 64, 100
1, 372744, Note_on_c, 0, 67, 100
1, 372744, Note_on_c, 0, 71, 100
1, 372768, Note_off_c, 0, 64, 64
1, 372768, Note_off_c, 0, 67, 64
1, 372768, Note_off_c, 0, 71, 64
1, 372816, Note_on_c, 0, 59, 100
1, 372816, Note_on_c, 0, 62, 100
1, 372816, Note_on_c, 0, 67, 100
1, 372912, Note_off_c, 0, 59, 64
1, 372912, Note_off_c, 0, 62, 64
1, 372912, Note_off_c, 0, 67, 64
1, 372960, Note_on_c, 0, 60, 100
1, 372960, Note_on_c, 0, 64, 100
1, 372960, Note_on_c, 0, 69, 100
1, 372960, Note_on_c, 0, 72, 65
1, 373008, Note_on_c, 0, 67, 100
1, 373008, Note_off_c, 0, 69, 64
1, 373008, Note_on_c, 0, 71, 66
1, 373008, Note_off_c, 0, 72, 64
1, 373056, Note_on_c, 0, 59, 100
1, 373056, Note_off_c, 0, 60, 64
1, 373056, Note_on_c, 0, 62, 100
1, 373056, Note_off_c, 0, 64, 64
1, 373056, Note_off_c, 0, 67, 64
1, 373056, Note_on_c, 0, 67, 100
1, 373056, Note_off_c, 0, 71, 64
1, 373104, Note_off_c, 0, 59, 64
1, 373104, Note_off_c, 0, 62, 64
1, 373104, Note_off_c, 0, 67, 64
1, 373128, Note_on_c, 0, 59, 100
1, 373128, Note_on_c, 0, 62, 100
1, 373128, Note_on_c, 0, 67, 100
1, 373152, Note_off_c, 0, 59, 64
1, 373152, Note_off_c, 0, 62, 64
1, 373152, Note_off_c, 0, 67, 64
1, 373200, Note_on_c, 0, 59, 100
1, 373200, Note_on_c, 0, 62, 100
1, 373200, Note_on_c, 0, 67, 100
1, 373224, Note_off_c, 0, 59, 64
1, 373224, Note_off_c, 0, 62, 64
1, 373224, Note_off_c, 0, 67, 64
1, 373248, Pitch_bend_c, 0, 8192
1, 373248, Control_c, 0, 6, 12
1, 373248, Control_c, 0, 7, 100
1, 373248, Control_c, 0, 10, 64
1, 373248, Control_c, 0, 100, 0
1, 373248, Control_c, 0, 101, 0
1, 373248, Note_on_c, 0, 52, 100
1, 373248, Note_on_c, 0, 55, 100
1, 373248, Note_on_c, 0, 60, 100
1, 373296, Note_off_c, 0, 52, 64
1, 373296, Note_off_c, 0, 55, 64
1, 373296, Note_off_c, 0, 60, 64
1, 373344, Note_on_c, 0, 67, 100
1, 373392, Note_off_c, 0, 67, 64
1, 373416, Note_on_c, 0, 64, 100
1, 373464, Note_off_c, 0, 64, 64
1, 373488, Note_on_c, 0, 52, 100
1, 373488, Note_on_c, 0, 55, 100
1, 373488, Note_on_c, 0, 60, 100
1, 373536, Note_off_c, 0, 52, 64
1, 373536, Note_off_c, 0, 55, 64
1, 373536, Note_off_c, 0, 60, 64
1, 373560, Note_on_c, 0, 67, 100
1, 373608, Note_off_c, 0, 67, 64
1, 373632, Note_on_c, 0, 52, 100
1, 373632, Note_on_c, 0, 57, 100
1, 373632, Note_on_c, 0, 60, 100
1, 373680, Note_off_c, 0, 52, 64
1, 373680, Note_off_c, 0, 57, 64
1, 373680, Note_off_c, 0, 60, 64
1, 373728, Note_on_c, 0, 69, 100
1, 373776, Note_off_c, 0, 69, 64
1, 373800, Note_on_c, 0, 64, 100
1, 373848, Note_off_c, 0, 64, 64
1, 373872, Note_on_c, 0, 52, 100
1, 373872, Note_on_c, 0, 57, 100
1, 373872, Note_on_c, 0, 60, 100
1, 373920, Note_off_c, 0, 52, 64
1, 373920, Note_off_c, 0, 57, 64
1, 373920, Note_off_c, 0, 60, 64
1, 373944, Note_on_c, 0, 52, 100
1, 373944, Note_on_c, 0, 57, 100
1, 373944, Note_on_c, 0, 60, 100
1, 373944, Note_on_c, 0, 67, 100
1, 373992, Note_off_c, 0, 52, 64
1, 373992, Note_off_c, 0, 57, 64
1, 373992, Note_off_c, 0, 60, 64
1, 373992, Note_off_c, 0, 67, 64
1, 374016, Note_on_c, 0, 50, 100
1, 374016, Note_on_c, 0, 55, 100
1, 374016, Note_on_c, 0, 59, 100
1, 374064, Note_off_c, 0, 50, 64
1, 374064, Note_off_c, 0, 55, 64
1, 374064, Note_off_c, 0, 59, 64
1, 374112, Note_on_c, 0, 67, 100
1, 374160, Note_off_c, 0, 67, 64
1, 374184, Note_on_c, 0, 62, 100
1, 374232, Note_off_c, 0, 62, 64
1, 374256, Note_on_c, 0, 50, 100
1, 374256, Note_on_c, 0, 55, 100
1, 374256, Note_on_c, 0, 59, 100
1, 374304, Note_off_c, 0, 50, 64
1, 374304, Note_off_c, 0, 55, 64
1, 374304, Note_off_c, 0, 59, 64
1, 374328, Note_on_c, 0, 67, 100
1, 374376, Note_off_c, 0, 67, 64
1, 374400, Note_on_c, 0, 55, 100
1, 374400, Note_on_c, 0, 59, 100
1, 374400, Note_on_c, 0, 62, 100
1, 374448, Note_off_c, 0, 55, 64
1, 374448, Note_off_c, 0, 59, 64
1, 374448, Note_off_c, 0, 62, 64
1, 374496, Note_on_c, 0, 71, 100
1, 374544, Note_off_c, 0, 71, 64
1, 374568, Note_on_c, 0, 67, 100
1, 374616, Note_on_c, 0, 50, 100
1, 374616, Note_off_c, 0, 67, 64
1, 374640, Note_off_c, 0, 50, 64
1, 374640, Note_on_c, 0, 55, 100
1, 374640, Note_on_c, 0, 59, 100
1, 374640, Note_on_c, 0, 62, 100
1, 374688, Note_on_c, 0, 50, 100
1, 374688, Note_off_c, 0, 55, 64
1, 374688, Note_off_c, 0, 59, 64
1, 374688, Note_off_c, 0, 62, 64
1, 374736, Note_off_c, 0, 50, 64
1, 374736, Note_on_c, 0, 55, 100
1, 374736, Note_on_c, 0, 60, 100
1, 374736, Note_on_c, 0, 64, 100
1, 374783, Note_off_c, 0, 55, 64
1, 374783, Note_off_c, 0, 60, 64
1, 374783, Note_off_c, 0, 64, 64
1, 374784, Pitch_bend_c, 0, 8192
1, 374784, Control_c, 0, 6, 12
1, 374784, Control_c, 0, 7, 100
1, 374784, Control_c, 0, 10, 64
1, 374784, Control_c, 0, 100, 0
1, 374784, Control_c, 0, 101, 0
1, 374784, Note_on_c, 0, 57, 100
1, 374784, Note_on_c, 0, 69, 100
1, 374832, Note_off_c, 0, 57, 64
1, 374832, Note_off_c, 0, 69, 64
1, 374880, Note_on_c, 0, 69, 100
1, 374928, Note_on_c, 0, 57, 100
1, 374928, Note_off_c, 0, 69, 64
1, 374976, Note_off_c, 0, 57, 64
1, 374976, Note_on_c, 0, 69, 100
1, 375024, Note_off_c, 0, 69, 64
1, 375072, Note_on_c, 0, 60, 100
1, 375072, Note_on_c, 0, 67, 100
1, 375120, Note_off_c, 0, 60, 64
1, 375120, Note_off_c, 0, 67, 64
1, 375168, Note_on_c, 0, 65, 100
1, 375168, Note_on_c, 0, 77, 100
1, 375216, Note_off_c, 0, 65, 64
1, 375216, Note_off_c, 0, 77, 64
1, 375264, Note_on_c, 0, 77, 100
1, 375312, Note_on_c, 0, 65, 100
1, 375312, Note_off_c, 0, 77, 64
1, 375360, Note_off_c, 0, 65, 64
1, 375360, Note_on_c, 0, 77, 100
1, 375408, Note_off_c, 0, 77, 64
1, 375456, Note_on_c, 0, 64, 100
1, 375456, Note_on_c, 0, 76, 100
1, 375504, Note_off_c, 0, 64, 64
1, 375504, Note_off_c, 0, 76, 64
1, 375552, Note_on_c, 0, 55, 100
1, 375552, Note_on_c, 0, 67, 100
1, 375600, Note_off_c, 0, 55, 64
1, 375600, Note_off_c, 0, 67, 64
1, 375648, Note_on_c, 0, 67, 100
1, 375696, Note_on_c, 0, 55, 100
1, 375696, Note_off_c, 0, 67, 64
1, 375744, Note_off_c, 0, 55, 64
1, 375744, Note_on_c, 0, 67, 100
1, 375792, Note_off_c, 0, 67, 64
1, 375840, Note_on_c, 0, 52, 100
1, 375840, Note_on_c, 0, 67, 100
1, 375888, Note_off_c, 0, 52, 64
1, 375888, Note_off_c, 0, 67, 64
1, 375936, Note_on_c, 0, 62, 100
1, 375936, Note_on_c, 0, 74, 100
1, 375984, Note_off_c, 0, 62, 64
1, 375984, Note_off_c, 0, 74, 64
1, 376032, Note_on_c, 0, 74, 100
1, 376080, Note_on_c, 0, 60, 100
1, 376080, Note_off_c, 0, 74, 64
1, 376128, Note_off_c, 0, 60, 64
1, 376128, Note_on_c, 0, 74, 100
1, 376176, Note_off_c, 0, 74, 64
1, 376224, Note_on_c, 0, 59, 100
1, 376224, Note_on_c, 0, 76, 100
1, 376272, Note_off_c, 0, 59, 64
1, 376272, Note_off_c, 0, 76, 64
1, 376320, Pitch_bend_c, 0, 8192
1, 376320, Control_c, 0, 6, 12
1, 376320, Control_c, 0, 7, 100
1, 376320, Control_c, 0, 10, 64
1, 376320, Control_c, 0, 100, 0
1, 376320, Control_c, 0, 101, 0
1, 376368, Note_on_c, 0, 67, 100
1, 376392, Note_off_c, 0, 67, 64
1, 376392, Note_on_c, 0, 77, 100
1, 376416, Note_on_c, 0, 76, 100
1, 376416, Note_off_c, 0, 77, 64
1, 376440, Note_off_c, 0, 76, 64
1, 376452, Note_on_c, 0, 72, 100
1, 376476, Note_off_c, 0, 72, 64
1, 376488, Note_on_c, 0, 67, 100
1, 376512, Note_off_c, 0, 67, 64
1, 376560, Note_on_c, 0, 64, 100
1, 376584, Note_on_c, 0, 67, 100
1, 376596, Note_off_c, 0, 64, 64
1, 376608, Note_off_c, 0, 67, 64
1, 376608, Note_on_c, 0, 74, 100
1, 376632, Note_off_c, 0, 74, 64
1, 376644, Note_on_c, 0, 72, 100
1, 376668, Note_off_c, 0, 72, 64
1, 376680, Note_on_c, 0, 76, 100
1, 376704, Note_off_c, 0, 76, 64
1, 376752, Note_on_c, 0, 67, 100
1, 376776, Note_off_c, 0, 67, 64
1, 376776, Note_on_c, 0, 77, 100
1, 376800, Note_on_c, 0, 76, 100
1, 376800, Note_off_c, 0, 77, 64
1, 376824, Note_off_c, 0, 76, 64
1, 376836, Note_on_c, 0, 72, 100
1, 376860, Note_off_c, 0, 72, 64
1, 376872, Note_on_c, 0, 67, 100
1, 376896, Note_off_c, 0, 67, 64
1, 376944, Note_on_c, 0, 64, 100
1, 376968, Note_on_c, 0, 67, 100
1, 376980, Note_off_c, 0, 64, 64
1, 376992, Note_off_c, 0, 67, 64
1, 376992, Note_on_c, 0, 74, 100
1, 377016, Note_off_c, 0, 74, 64
1, 377028, Note_on_c, 0, 76, 100
1, 377052, Note_off_c, 0, 76, 64
1, 377064, Note_on_c, 0, 72, 100
1, 377088, Note_off_c, 0, 72, 64
1, 377136, Note_on_c, 0, 67, 100
1, 377160, Note_off_c, 0, 67, 64
1, 377160, Note_on_c, 0, 77, 100
1, 377184, Note_on_c, 0, 76, 100
1, 377184, Note_off_c, 0, 77, 64
1, 377208, Note_off_c, 0, 76, 64
1, 377220, Note_on_c, 0, 72, 100
1, 377244, Note_off_c, 0, 72, 64
1, 377256, Note_on_c, 0, 67, 100
1, 377280, Note_off_c, 0, 67, 64
1, 377328, Note_on_c, 0, 64, 100
1, 377352, Note_on_c, 0, 67, 100
1, 377364, Note_off_c, 0, 64, 64
1, 377376, Note_off_c, 0, 67, 64
1, 377376, Note_on_c, 0, 74, 100
1, 377400, Note_off_c, 0, 74, 64
1, 377412, Note_on_c, 0, 72, 100
1, 377436, Note_off_c, 0, 72, 64
1, 377448, Note_on_c, 0, 76, 100
1, 377472, Note_off_c, 0, 76, 64
1, 377520, Note_on_c, 0, 67, 100
1, 377544, Note_off_c, 0, 67, 64
1, 377544, Note_on_c, 0, 77, 100
1, 377568, Note_on_c, 0, 76, 100
1, 377568, Note_off_c, 0, 77, 64
1, 377592, Note_off_c, 0, 76, 64
1, 377604, Note_on_c, 0, 72, 100
1, 377628, Note_off_c, 0, 72, 64
1, 377640, Note_on_c, 0, 67, 100
1, 377664, Note_off_c, 0, 67, 64
1, 377712, Note_on_c, 0, 64, 100
1, 377736, Note_on_c, 0, 67, 100
1, 377748, Note_off_c, 0, 64, 64
1, 377760, Note_off_c, 0, 67, 64
1, 377760, Note_on_c, 0, 74, 100
1, 377784, Note_off_c, 0, 74, 64
1, 377796, Note_on_c, 0, 76, 100
1, 377820, Note_off_c, 0, 76, 64
1, 377832, Note_on_c, 0, 72, 100
1, 377855, Note_off_c, 0, 72, 64
1, 377856, Pitch_bend_c, 0, 8192
1, 377856, Control_c, 0, 6, 12
1, 377856, Control_c, 0, 7, 100
1, 377856, Control_c, 0, 10, 64
1, 377856, Control_c, 0, 100, 0
1, 377856, Control_c, 0, 101, 0
1, 377856, Note_on_c, 0, 64, 100
1, 377856, Note_on_c, 0, 69, 100
1, 377856, Note_on_c, 0, 72, 100
1, 377904, Note_off_c, 0, 64, 64
1, 377904, Note_off_c, 0, 69, 64
1, 377904, Note_off_c, 0, 72, 64
1, 377904, Note_on_c, 0, 74, 100
1, 377952, Note_off_c, 0, 74, 64
1, 377952, Note_on_c, 0, 76, 100
1, 378000, Note_on_c, 0, 62, 100
1, 378000, Note_on_c, 0, 67, 100
1, 378000, Note_on_c, 0, 71, 100
1, 378000, Note_off_c, 0, 76, 64
1, 378048, Note_off_c, 0, 62, 64
1, 378048, Note_off_c, 0, 67, 64
1, 378048, Note_off_c, 0, 71, 64
1, 378048, Note_on_c, 0, 74, 100
1, 378096, Note_off_c, 0, 74, 64
1, 378096, Note_on_c, 0, 76, 100
1, 378144, Note_on_c, 0, 60, 100
1, 378144, Note_on_c, 0, 65, 100
1, 378144, Note_on_c, 0, 69, 100
1, 378144, Note_off_c, 0, 76, 64
1, 378192, Note_off_c, 0, 60, 64
1, 378192, Note_off_c, 0, 65, 64
1, 378192, Note_off_c, 0, 69, 64
1, 378192, Note_on_c, 0, 71, 100
1, 378240, Note_off_c, 0, 71, 64
1, 378240, Note_on_c, 0, 72, 100
1, 378288, Note_off_c, 0, 72, 64
1, 378288, Note_on_c, 0, 74, 100
1, 378336, Note_on_c, 0, 60, 100
1, 378336, Note_on_c, 0, 65, 100
1, 378336, Note_on_c, 0, 69, 100
1, 378336, Note_off_c, 0, 74, 64
1, 378384, Note_off_c, 0, 60, 64
1, 378384, Note_off_c, 0, 65, 64
1, 378384, Note_off_c, 0, 69, 64
1, 378384, Note_on_c, 0, 71, 100
1, 378432, Note_off_c, 0, 71, 64
1, 378432, Note_on_c, 0, 72, 100
1, 378480, Note_on_c, 0, 60, 100
1, 378480, Note_on_c, 0, 65, 100
1, 378480, Note_on_c, 0, 69, 100
1, 378480, Note_off_c, 0, 72, 64
1, 378528, Note_off_c, 0, 60, 64
1, 378528, Note_off_c, 0, 65, 64
1, 378528, Note_off_c, 0, 69, 64
1, 378528, Note_on_c, 0, 71, 100
1, 378576, Note_off_c, 0, 71, 64
1, 378576, Note_on_c, 0, 72, 100
1, 378624, Note_on_c, 0, 60, 100
1, 378624, Note_on_c, 0, 65, 100
1, 378624, Note_on_c, 0, 69, 100
1, 378624, Note_off_c, 0, 72, 64
1, 378672, Note_off_c, 0, 60, 64
1, 378672, Note_off_c, 0, 65, 64
1, 378672, Note_off_c, 0, 69, 64
1, 378672, Note_on_c, 0, 71, 100
1, 378720, Note_off_c, 0, 71, 64
1, 378720, Note_on_c, 0, 72, 100
1, 378768, Note_on_c, 0, 62, 100
1, 378768, Note_on_c, 0, 67, 100
1, 378768, Note_on_c, 0, 71, 100
1, 378768, Note_off_c, 0, 72, 64
1, 378816, Note_off_c, 0, 62, 64
1, 378816, Note_off_c, 0, 67, 64
1, 378816, Note_off_c, 0, 71, 64
1, 378816, Note_on_c, 0, 74, 100
1, 378864, Note_off_c, 0, 74, 64
1, 378864, Note_on_c, 0, 76, 100
1, 378912, Note_on_c, 0, 64, 100
1, 378912, Note_on_c, 0, 69, 100
1, 378912, Note_on_c, 0, 72, 100
1, 378912, Note_off_c, 0, 76, 64
1, 378960, Note_off_c, 0, 64, 64
1, 378960, Note_off_c, 0, 69, 64
1, 378960, Note_off_c, 0, 72, 64
1, 378960, Note_on_c, 0, 76, 100
1, 379008, Note_off_c, 0, 76, 64
1, 379008, Note_on_c, 0, 79, 100
1, 379056, Note_on_c, 0, 76, 100
1, 379056, Note_off_c, 0, 79, 64
1, 379104, Note_on_c, 0, 64, 100
1, 379104, Note_on_c, 0, 69, 100
1, 379104, Note_on_c, 0, 72, 100
1, 379104, Note_off_c, 0, 76, 64
1, 379152, Note_off_c, 0, 64, 64
1, 379152, Note_off_c, 0, 69, 64
1, 379152, Note_off_c, 0, 72, 64
1, 379152, Note_on_c, 0, 76, 100
1, 379200, Note_off_c, 0, 76, 64
1, 379200, Note_on_c, 0, 79, 100
1, 379248, Note_on_c, 0, 76, 100
1, 379248, Note_off_c, 0, 79, 64
1, 379296, Note_on_c, 0, 64, 100
1, 379296, Note_on_c, 0, 69, 100
1, 379296, Note_on_c, 0, 72, 100
1, 379296, Note_off_c, 0, 76, 64
1, 379344, Note_off_c, 0, 64, 64
1, 379344, Note_off_c, 0, 69, 64
1, 379344, Note_off_c, 0, 72, 64
1, 379344, Note_on_c, 0, 74, 100
1, 379392, Pitch_bend_c, 0, 8192
1, 379392, Control_c, 0, 6, 12
1, 379392, Control_c, 0, 7, 100
1, 379392, Control_c, 0, 10, 64
1, 379392, Control_c, 0, 100, 0
1, 379392, Control_c, 0, 101, 0
1, 379392, Note_on_c, 0, 36, 100
1, 379392, Note_on_c, 0, 48, 100
1, 379392, Note_on_c, 0, 52, 100
1, 379392, Note_on_c, 0, 55, 100
1, 379392, Note_on_c, 0, 67, 100
1, 379392, Note_off_c, 0, 74, 64
1, 379464, Note_on_c, 0, 64, 100
1, 379464, Note_off_c, 0, 67, 64
1, 379488, Note_off_c, 0, 36, 64
1, 379488, Note_off_c, 0, 48, 64
1, 379488, Note_off_c, 0, 52, 64
1, 379488, Note_off_c, 0, 55, 64
1, 379536, Note_on_c, 0, 48, 100
1, 379536, Note_on_c, 0, 52, 100
1, 379536, Note_on_c, 0, 55, 100
1, 379536, Note_off_c, 0, 64, 64
1, 379536, Note_on_c, 0, 69, 100
1, 379560, Note_off_c, 0, 48, 64
1, 379560, Note_off_c, 0, 52, 64
1, 379560, Note_off_c, 0, 55, 64
1, 379584, Note_on_c, 0, 40, 100
1, 379584, Note_on_c, 0, 45, 100
1, 379584, Note_on_c, 0, 48, 100
1, 379584, Note_on_c, 0, 52, 100
1, 379584, Note_on_c, 0, 67, 100
1, 379584, Note_off_c, 0, 69, 64
1, 379656, Note_on_c, 0, 64, 100
1, 379656, Note_off_c, 0, 67, 64
1, 379680, Note_off_c, 0, 40, 64
1, 379680, Note_off_c, 0, 45, 64
1, 379680, Note_off_c, 0, 48, 64
1, 379680, Note_off_c, 0, 52, 64
1, 379728, Note_on_c, 0, 45, 100
1, 379728, Note_on_c, 0, 48, 100
1, 379728, Note_on_c, 0, 52, 100
1, 379728, Note_off_c, 0, 64, 64
1, 379728, Note_on_c, 0, 64, 100
1, 379752, Note_off_c, 0, 45, 64
1, 379752, Note_off_c, 0, 48, 64
1, 379752, Note_off_c, 0, 52, 64
1, 379776, Note_on_c, 0, 36, 100
1, 379776, Note_on_c, 0, 41, 100
1, 379776, Note_on_c, 0, 45, 100
1, 379776, Note_on_c, 0, 48, 100
1, 379776, Note_on_c, 0, 60, 100
1, 379776, Note_off_c, 0, 64, 64
1, 379848, Note_off_c, 0, 60, 64
1, 379848, Note_on_c, 0, 64, 100
1, 379872, Note_off_c, 0, 36, 64
1, 379872, Note_off_c, 0, 41, 64
1, 379872, Note_off_c, 0, 45, 64
1, 379872, Note_off_c, 0, 48, 64
1, 379920, Note_on_c, 0, 41, 100
1, 379920, Note_on_c, 0, 45, 100
1, 379920, Note_on_c, 0, 48, 100
1, 379920, Note_on_c, 0, 60, 100
1, 379920, Note_off_c, 0, 64, 64
1, 379944, Note_off_c, 0, 41, 64
1, 379944, Note_off_c, 0, 45, 64
1, 379944, Note_off_c, 0, 48, 64
1, 379968, Note_on_c, 0, 38, 100
1, 379968, Note_on_c, 0, 43, 100
1, 379968, Note_on_c, 0, 47, 100
1, 379968, Note_on_c, 0, 50, 100
1, 379968, Note_off_c, 0, 60, 64
1, 379968, Note_on_c, 0, 62, 100
1, 380040, Note_on_c, 0, 59, 100
1, 380040, Note_off_c, 0, 62, 64
1, 380064, Note_off_c, 0, 38, 64
1, 380064, Note_off_c, 0, 43, 64
1, 380064, Note_off_c, 0, 47, 64
1, 380064, Note_off_c, 0, 50, 64
1, 380112, Note_on_c, 0, 43, 100
1, 380112, Note_on_c, 0, 47, 100
1, 380112, Note_on_c, 0, 50, 100
1, 380112, Note_off_c, 0, 59, 64
1, 380112, Note_on_c, 0, 62, 100
1, 380136, Note_off_c, 0, 43, 64
1, 380136, Note_off_c, 0, 47, 64
1, 380136, Note_off_c, 0, 50, 64
1, 380160, Note_on_c, 0, 43, 100
1, 380160, Note_on_c, 0, 48, 100
1, 380160, Note_on_c, 0, 52, 100
1, 380160, Note_on_c, 0, 55, 100
1, 380160, Note_off_c, 0, 62, 64
1, 380160, Note_on_c, 0, 67, 100
1, 380232, Note_on_c, 0, 64, 100
1, 380232, Note_off_c, 0, 67, 64
1, 380256, Note_off_c, 0, 43, 64
1, 380256, Note_off_c, 0, 48, 64
1, 380256, Note_off_c, 0, 52, 64
1, 380256, Note_off_c, 0, 55, 64
1, 380304, Note_on_c, 0, 48, 100
1, 380304, Note_on_c, 0, 52, 100
1, 380304, Note_on_c, 0, 55, 100
1, 380304, Note_off_c, 0, 64, 64
1, 380304, Note_on_c, 0, 69, 100
1, 380328, Note_off_c, 0, 48, 64
1, 380328, Note_off_c, 0, 52, 64
1, 380328, Note_off_c, 0, 55, 64
1, 380352, Note_on_c, 0, 40, 100
1, 380352, Note_on_c, 0, 45, 100
1, 380352, Note_on_c, 0, 48, 100
1, 380352, Note_on_c, 0, 52, 100
1, 380352, Note_on_c, 0, 67, 100
1, 380352, Note_off_c, 0, 69, 64
1, 380424, Note_on_c, 0, 64, 100
1, 380424, Note_off_c, 0, 67, 64
1, 380448, Note_off_c, 0, 40, 64
1, 380448, Note_off_c, 0, 45, 64
1, 380448, Note_off_c, 0, 48, 64
1, 380448, Note_off_c, 0, 52, 64
1, 380496, Note_on_c, 0, 45, 100
1, 380496, Note_on_c, 0, 48, 100
1, 380496, Note_on_c, 0, 52, 100
1, 380496, Note_off_c, 0, 64, 64
1, 380496, Note_on_c, 0, 64, 100
1, 380520, Note_off_c, 0, 45, 64
1, 380520, Note_off_c, 0, 48, 64
1, 380520, Note_off_c, 0, 52, 64
1, 380544, Note_on_c, 0, 36, 100
1, 380544, Note_on_c, 0, 41, 100
1, 380544, Note_on_c, 0, 45, 100
1, 380544, Note_on_c, 0, 48, 100
1, 380544, Note_on_c, 0, 60, 100
1, 380544, Note_off_c, 0, 64, 64
1, 380616, Note_off_c, 0, 60, 64
1, 380616, Note_on_c, 0, 64, 100
1, 380640, Note_off_c, 0, 36, 64
1, 380640, Note_off_c, 0, 41, 64
1, 380640, Note_off_c, 0, 45, 64
1, 380640, Note_off_c, 0, 48, 64
1, 380688, Note_on_c, 0, 41, 100
1, 380688, Note_on_c, 0, 45, 100
1, 380688, Note_on_c, 0, 48, 100
1, 380688, Note_on_c, 0, 60, 100
1, 380688, Note_off_c, 0, 64, 64
1, 380712, Note_off_c, 0, 41, 64
1, 380712, Note_off_c, 0, 45, 64
1, 380712, Note_off_c, 0, 48, 64
1, 380736, Note_on_c, 0, 35, 100
1, 380736, Note_on_c, 0, 43, 100
1, 380736, Note_on_c, 0, 47, 100
1, 380736, Note_on_c, 0, 50, 100
1, 380736, Note_off_c, 0, 60, 64
1, 380736, Note_on_c, 0, 62, 100
1, 380808, Note_off_c, 0, 62, 64
1, 380808, Note_on_c, 0, 67, 100
1, 380832, Note_off_c, 0, 35, 64
1, 380832, Note_off_c, 0, 43, 64
1, 380832, Note_off_c, 0, 47, 64
1, 380832, Note_off_c, 0, 50, 64
1, 380880, Note_on_c, 0, 43, 100
1, 380880, Note_on_c, 0, 47, 100
1, 380880, Note_on_c, 0, 50, 100
1, 380904, Note_off_c, 0, 43, 64
1, 380904, Note_off_c, 0, 47, 64
1, 380904, Note_off_c, 0, 50, 64
1, 380927, Note_off_c, 0, 67, 64
1, 380928, Pitch_bend_c, 0, 8192
1, 380928, Control_c, 0, 6, 12
1, 380928, Control_c, 0, 7, 100
1, 380928, Control_c, 0, 10, 64
1, 380928, Control_c, 0, 100, 0
1, 380928, Control_c, 0, 101, 0
1, 380928, Note_on_c, 0, 62, 107
1, 380928, Note_on_c, 0, 65, 107
1, 380928, Note_on_c, 0, 69, 107
1, 380928, Note_on_c, 0, 72, 107
1, 380976, Note_off_c, 0, 62, 0
1, 380976, Note_off_c, 0, 65, 0
1, 380976, Note_off_c, 0, 69, 0
1, 380976, Note_off_c, 0, 72, 0
1, 381024, Note_on_c, 0, 62, 107
1, 381024, Note_on_c, 0, 65, 107
1, 381024, Note_on_c, 0, 69, 107
1, 381024, Note_on_c, 0, 72, 107
1, 381048, Note_off_c, 0, 62, 0
1, 381048, Note_off_c, 0, 65, 0
1, 381048, Note_off_c, 0, 69, 0
1, 381048, Note_off_c, 0, 72, 0
1, 381096, Note_on_c, 0, 62, 107
1, 381096, Note_on_c, 0, 65, 107
1, 381096, Note_on_c, 0, 69, 107
1, 381096, Note_on_c, 0, 72, 107
1, 381120, Note_off_c, 0, 62, 0
1, 381120, Note_off_c, 0, 65, 0
1, 381120, Note_off_c, 0, 69, 0
1, 381120, Note_off_c, 0, 72, 0
1, 381168, Note_on_c, 0, 62, 107
1, 381168, Note_on_c, 0, 65, 107
1, 381168, Note_on_c, 0, 69, 107
1, 381168, Note_on_c, 0, 72, 107
1, 381192, Note_off_c, 0, 62, 0
1, 381192, Note_off_c, 0, 65, 0
1, 381192, Note_off_c, 0, 69, 0
1, 381192, Note_off_c, 0, 72, 0
1, 381240, Note_on_c, 0, 62, 107
1, 381240, Note_on_c, 0, 65, 107
1, 381240, Note_on_c, 0, 69, 107
1, 381240, Note_on_c, 0, 74, 107
1, 381264, Note_off_c, 0, 62, 0
1, 381264, Note_off_c, 0, 65, 0
1, 381264, Note_off_c, 0, 69, 0
1, 381264, Note_off_c, 0, 74, 0
1, 381312, Note_on_c, 0, 65, 107
1, 381312, Note_on_c, 0, 69, 107
1, 381312, Note_on_c, 0, 72, 107
1, 381312, Note_on_c, 0, 76, 107
1, 381360, Note_off_c, 0, 65, 0
1, 381360, Note_off_c, 0, 69, 0
1, 381360, Note_off_c, 0, 72, 0
1, 381360, Note_off_c, 0, 76, 0
1, 381408, Note_on_c, 0, 65, 107
1, 381408, Note_on_c, 0, 69, 107
1, 381408, Note_on_c, 0, 72, 107
1, 381408, Note_on_c, 0, 76, 107
1, 381432, Note_off_c, 0, 65, 0
1, 381432, Note_off_c, 0, 69, 0
1, 381432, Note_off_c, 0, 72, 0
1, 381432, Note_off_c, 0, 76, 0
1, 381480, Note_on_c, 0, 65, 107
1, 381480, Note_on_c, 0, 69, 107
1, 381480, Note_on_c, 0, 72, 107
1, 381480, Note_on_c, 0, 76, 107
1, 381504, Note_off_c, 0, 65, 0
1, 381504, Note_off_c, 0, 69, 0
1, 381504, Note_off_c, 0, 72, 0
1, 381504, Note_off_c, 0, 76, 0
1, 381552, Note_on_c, 0, 65, 107
1, 381552, Note_on_c, 0, 69, 107
1, 381552, Note_on_c, 0, 72, 107
1, 381552, Note_on_c, 0, 76, 107
1, 381576, Note_off_c, 0, 65, 0
1, 381576, Note_off_c, 0, 69, 0
1, 381576, Note_off_c, 0, 72, 0
1, 381576, Note_off_c, 0, 76, 0
1, 381624, Note_on_c, 0, 65, 107
1, 381624, Note_on_c, 0, 69, 107
1, 381624, Note_on_c, 0, 72, 107
1, 381624, Note_on_c, 0, 76, 107
1, 381648, Note_off_c, 0, 65, 0
1, 381648, Note_off_c, 0, 69, 0
1, 381648, Note_off_c, 0, 72, 0
1, 381648, Note_off_c, 0, 76, 0
1, 381696, Note_on_c, 0, 65, 107
1, 381696, Note_on_c, 0, 69, 107
1, 381696, Note_on_c, 0, 72, 107
1, 381696, Note_on_c, 0, 74, 107
1, 381744, Note_off_c, 0, 65, 0
1, 381744, Note_off_c, 0, 69, 0
1, 381744, Note_off_c, 0, 72, 0
1, 381744, Note_off_c, 0, 74, 0
1, 381792, Note_on_c, 0, 65, 107
1, 381792, Note_on_c, 0, 69, 107
1, 381792, Note_on_c, 0, 72, 107
1, 381792, Note_on_c, 0, 74, 107
1, 381816, Note_off_c, 0, 65, 0
1, 381816, Note_off_c, 0, 69, 0
1, 381816, Note_off_c, 0, 72, 0
1, 381816, Note_off_c, 0, 74, 0
1, 381864, Note_on_c, 0, 65, 107
1, 381864, Note_on_c, 0, 69, 107
1, 381864, Note_on_c, 0, 72, 107
1, 381864, Note_on_c, 0, 74, 107
1, 381888, Note_off_c, 0, 65, 0
1, 381888, Note_off_c, 0, 69, 0
1, 381888, Note_off_c, 0, 72, 0
1, 381888, Note_off_c, 0, 74, 0
1, 381936, Note_on_c, 0, 65, 107
1, 381936, Note_on_c, 0, 69, 107
1, 381936, Note_on_c, 0, 72, 107
1, 381936, Note_on_c, 0, 74, 107
1, 381960, Note_off_c, 0, 65, 0
1, 381960, Note_off_c, 0, 69, 0
1, 381960, Note_off_c, 0, 72, 0
1, 381960, Note_off_c, 0, 74, 0
1, 382008, Note_on_c, 0, 64, 107
1, 382008, Note_on_c, 0, 69, 107
1, 382008, Note_on_c, 0, 72, 107
1, 382008, Note_on_c, 0, 74, 107
1, 382032, Note_off_c, 0, 64, 0
1, 382032, Note_off_c, 0, 69, 0
1, 382032, Note_off_c, 0, 72, 0
1, 382032, Note_off_c, 0, 74, 0
1, 382080, Note_on_c, 0, 60, 107
1, 382080, Note_on_c, 0, 64, 107
1, 382080, Note_on_c, 0, 67, 107
1, 382080, Note_on_c, 0, 72, 107
1, 382128, Note_off_c, 0, 60, 0
1, 382128, Note_off_c, 0, 64, 0
1, 382128, Note_off_c, 0, 67, 0
1, 382128, Note_off_c, 0, 72, 0
1, 382176, Note_on_c, 0, 60, 107
1, 382176, Note_on_c, 0, 64, 107
1, 382176, Note_on_c, 0, 67, 107
1, 382176, Note_on_c, 0, 72, 107
1, 382200, Note_off_c, 0, 60, 0
1, 382200, Note_off_c, 0, 64, 0
1, 382200, Note_off_c, 0, 67, 0
1, 382200, Note_off_c, 0, 72, 0
1, 382248, Note_on_c, 0, 60, 107
1, 382248, Note_on_c, 0, 64, 107
1, 382248, Note_on_c, 0, 67, 107
1, 382248, Note_on_c, 0, 72, 107
1, 382272, Note_off_c, 0, 60, 0
1, 382272, Note_off_c, 0, 64, 0
1, 382272, Note_off_c, 0, 67, 0
1, 382272, Note_off_c, 0, 72, 0
1, 382320, Note_on_c, 0, 60, 107
1, 382320, Note_on_c, 0, 64, 107
1, 382320, Note_on_c, 0, 67, 107
1, 382320, Note_on_c, 0, 72, 107
1, 382344, Note_off_c, 0, 60, 0
1, 382344, Note_off_c, 0, 64, 0
1, 382344, Note_off_c, 0, 67, 0
1, 382344, Note_off_c, 0, 72, 0
1, 382392, Note_on_c, 0, 60, 107
1, 382392, Note_on_c, 0, 64, 107
1, 382392, Note_on_c, 0, 69, 107
1, 382392, Note_on_c, 0, 72, 107
1, 382416, Note_off_c, 0, 60, 0
1, 382416, Note_off_c, 0, 64, 0
1, 382416, Note_off_c, 0, 69, 0
1, 382416, Note_off_c, 0, 72, 0
1, 382463, Pitch_bend_c, 0, 8192
1, 382463, Pitch_bend_c, 0, 8192
1, 382463, Control_c, 0, 7, 100
1, 382463, Control_c, 0, 7, 100
1, 382463, Control_c, 0, 10, 64
1, 382463, Control_c, 0, 10, 64
1, 382464, Pitch_bend_c, 0, 8192
1, 382464, Control_c, 0, 6, 12
1, 382464, Control_c, 0, 7, 100
1, 382464, Control_c, 0, 10, 64
1, 382464, Control_c, 0, 100, 0
1, 382464, Control_c, 0, 101, 0
1, 382464, Note_on_c, 0, 50, 127
1, 382464, Note_on_c, 0, 53, 127
1, 382464, Note_on_c, 0, 57, 127
1, 382464, Note_on_c, 0, 77, 100
1, 382512, Note_off_c, 0, 50, 0
1, 382512, Note_off_c, 0, 53, 0
1, 382512, Note_off_c, 0, 57, 0
1, 382512, Note_on_c, 0, 74, 100
1, 382512, Note_off_c, 0, 77, 0
1, 382560, Note_off_c, 0, 74, 0
1, 382560, Note_on_c, 0, 77, 100
1, 382584, Note_on_c, 0, 50, 127
1, 382584, Note_on_c, 0, 53, 127
1, 382584, Note_on_c, 0, 57, 127
1, 382608, Note_on_c, 0, 74, 100
1, 382608, Note_off_c, 0, 77, 0
1, 382632, Note_off_c, 0, 50, 0
1, 382632, Note_off_c, 0, 53, 0
1, 382632, Note_off_c, 0, 57, 0
1, 382656, Note_on_c, 0, 53, 127
1, 382656, Note_on_c, 0, 57, 127
1, 382656, Note_on_c, 0, 60, 127
1, 382656, Note_off_c, 0, 74, 0
1, 382656, Note_on_c, 0, 81, 100
1, 382704, Note_off_c, 0, 53, 0
1, 382704, Note_off_c, 0, 57, 0
1, 382704, Note_off_c, 0, 60, 0
1, 382704, Note_on_c, 0, 77, 100
1, 382704, Note_off_c, 0, 81, 0
1, 382752, Note_off_c, 0, 77, 0
1, 382752, Note_on_c, 0, 81, 100
1, 382800, Note_on_c, 0, 53, 127
1, 382800, Note_on_c, 0, 57, 127
1, 382800, Note_on_c, 0, 60, 127
1, 382800, Note_on_c, 0, 77, 100
1, 382800, Note_off_c, 0, 81, 0
1, 382848, Note_on_c, 0, 48, 127
1, 382848, Note_on_c, 0, 52, 127
1, 382848, Note_off_c, 0, 53, 0
1, 382848, Note_on_c, 0, 55, 127
1, 382848, Note_off_c, 0, 57, 0
1, 382848, Note_off_c, 0, 60, 0
1, 382848, Note_on_c, 0, 76, 100
1, 382848, Note_off_c, 0, 77, 0
1, 382896, Note_off_c, 0, 48, 0
1, 382896, Note_off_c, 0, 52, 0
1, 382896, Note_off_c, 0, 55, 0
1, 382896, Note_on_c, 0, 72, 100
1, 382896, Note_off_c, 0, 76, 0
1, 382944, Note_off_c, 0, 72, 0
1, 382944, Note_on_c, 0, 79, 100
1, 382968, Note_on_c, 0, 48, 127
1, 382968, Note_on_c, 0, 52, 127
1, 382968, Note_on_c, 0, 55, 127
1, 382992, Note_on_c, 0, 76, 100
1, 382992, Note_off_c, 0, 79, 0
1, 383016, Note_off_c, 0, 48, 0
1, 383016, Note_off_c, 0, 52, 0
1, 383016, Note_off_c, 0, 55, 0
1, 383040, Note_on_c, 0, 45, 127
1, 383040, Note_on_c, 0, 48, 127
1, 383040, Note_on_c, 0, 52, 127
1, 383040, Note_off_c, 0, 76, 0
1, 383040, Note_on_c, 0, 79, 100
1, 383088, Note_off_c, 0, 45, 0
1, 383088, Note_off_c, 0, 48, 0
1, 383088, Note_off_c, 0, 52, 0
1, 383088, Note_on_c, 0, 76, 100
1, 383088, Note_off_c, 0, 79, 0
1, 383136, Note_on_c, 0, 72, 100
1, 383136, Note_off_c, 0, 76, 0
1, 383184, Note_on_c, 0, 45, 127
1, 383184, Note_on_c, 0, 48, 127
1, 383184, Note_on_c, 0, 52, 127
1, 383184, Note_on_c, 0, 69, 100
1, 383184, Note_off_c, 0, 72, 0
1, 383232, Note_off_c, 0, 45, 0
1, 383232, Note_off_c, 0, 48, 0
1, 383232, Note_on_c, 0, 50, 127
1, 383232, Note_off_c, 0, 52, 0
1, 383232, Note_on_c, 0, 53, 127
1, 383232, Note_on_c, 0, 57, 127
1, 383232, Note_off_c, 0, 69, 0
1, 383232, Note_on_c, 0, 77, 100
1, 383280, Note_off_c, 0, 50, 0
1, 383280, Note_off_c, 0, 53, 0
1, 383280, Note_off_c, 0, 57, 0
1, 383280, Note_on_c, 0, 74, 100
1, 383280, Note_off_c, 0, 77, 0
1, 383328, Note_off_c, 0, 74, 0
1, 383328, Note_on_c, 0, 77, 100
1, 383352, Note_on_c, 0, 50, 127
1, 383352, Note_on_c, 0, 53, 127
1, 383352, Note_on_c, 0, 57, 127
1, 383376, Note_on_c, 0, 74, 100
1, 383376, Note_off_c, 0, 77, 0
1, 383400, Note_off_c, 0, 50, 0
1, 383400, Note_off_c, 0, 53, 0
1, 383400, Note_off_c, 0, 57, 0
1, 383424, Note_on_c, 0, 53, 127
1, 383424, Note_on_c, 0, 57, 127
1, 383424, Note_on_c, 0, 60, 127
1, 383424, Note_off_c, 0, 74, 0
1, 383424, Note_on_c, 0, 81, 100
1, 383472, Note_off_c, 0, 53, 0
1, 383472, Note_off_c, 0, 57, 0
1, 383472, Note_off_c, 0, 60, 0
1, 383472, Note_on_c, 0, 77, 100
1, 383472, Note_off_c, 0, 81, 0
1, 383520, Note_off_c, 0, 77, 0
1, 383520, Note_on_c, 0, 81, 100
1, 383568, Note_on_c, 0, 53, 127
1, 383568, Note_on_c, 0, 57, 127
1, 383568, Note_on_c, 0, 60, 127
1, 383568, Note_on_c, 0, 77, 100
1, 383568, Note_off_c, 0, 81, 0
1, 383616, Note_on_c, 0, 48, 127
1, 383616, Note_on_c, 0, 52, 127
1, 383616, Note_off_c, 0, 53, 0
1, 383616, Note_on_c, 0, 55, 127
1, 383616, Note_off_c, 0, 57, 0
1, 383616, Note_off_c, 0, 60, 0
1, 383616, Note_on_c, 0, 76, 100
1, 383616, Note_off_c, 0, 77, 0
1, 383664, Note_off_c, 0, 48, 0
1, 383664, Note_off_c, 0, 52, 0
1, 383664, Note_off_c, 0, 55, 0
1, 383664, Note_on_c, 0, 72, 100
1, 383664, Note_off_c, 0, 76, 0
1, 383712, Note_off_c, 0, 72, 0
1, 383712, Note_on_c, 0, 79, 100
1, 383736, Note_on_c, 0, 48, 127
1, 383736, Note_on_c, 0, 52, 127
1, 383736, Note_on_c, 0, 55, 127
1, 383760, Note_on_c, 0, 76, 100
1, 383760, Note_off_c, 0, 79, 0
1, 383784, Note_off_c, 0, 48, 0
1, 383784, Note_off_c, 0, 52, 0
1, 383784, Note_off_c, 0, 55, 0
1, 383808, Note_on_c, 0, 45, 127
1, 383808, Note_on_c, 0, 48, 127
1, 383808, Note_on_c, 0, 52, 127
1, 383808, Note_off_c, 0, 76, 0
1, 383808, Note_on_c, 0, 79, 100
1, 383856, Note_off_c, 0, 45, 0
1, 383856, Note_off_c, 0, 48, 0
1, 383856, Note_off_c, 0, 52, 0
1, 383856, Note_on_c, 0, 76, 100
1, 383856, Note_off_c, 0, 79, 0
1, 383904, Note_on_c, 0, 45, 127
1, 383904, Note_on_c, 0, 48, 127
1, 383904, Note_on_c, 0, 52, 127
1, 383904, Note_on_c, 0, 72, 100
1, 383904, Note_off_c, 0, 76, 0
1, 383952, Note_off_c, 0, 45, 0
1, 383952, Note_off_c, 0, 48, 0
1, 383952, Note_off_c, 0, 52, 0
1, 383952, Note_on_c, 0, 69, 100
1, 383952, Note_off_c, 0, 72, 0
1, 383999, Pitch_bend_c, 0, 8192
1, 383999, Pitch_bend_c, 0, 8192
1, 383999, Control_c, 0, 7, 100
1, 383999, Control_c, 0, 7, 100
1, 383999, Control_c, 0, 10, 64
1, 383999, Control_c, 0, 10, 64
1, 383999, Note_off_c, 0, 69, 0
1, 384000, Pitch_bend_c, 0, 8192
1, 384000, Control_c, 0, 6, 12
1, 384000, Control_c, 0, 7, 100
1, 384000, Control_c, 0, 10, 64
1, 384000, Control_c, 0, 100, 0
1, 384000, Control_c, 0, 101, 0
1, 384000, Note_on_c, 0, 45, 81
1, 384000, Note_on_c, 0, 57, 118
1, 384048, Note_on_c, 0, 43, 81
1, 384048, Note_off_c, 0, 45, 0
1, 384048, Note_on_c, 0, 55, 118
1, 384048, Note_off_c, 0, 57, 0
1, 384096, Note_off_c, 0, 43, 0
1, 384096, Note_on_c, 0, 45, 81
1, 384096, Note_off_c, 0, 55, 0
1, 384096, Note_on_c, 0, 57, 118
1, 384192, Note_off_c, 0, 45, 0
1, 384192, Note_off_c, 0, 57, 0
1, 384240, Note_on_c, 0, 47, 81
1, 384240, Note_on_c, 0, 59, 118
1, 384288, Note_off_c, 0, 47, 0
1, 384288, Note_on_c, 0, 48, 81
1, 384288, Note_off_c, 0, 59, 0
1, 384288, Note_on_c, 0, 60, 118
1, 384336, Note_on_c, 0, 47, 81
1, 384336, Note_off_c, 0, 48, 0
1, 384336, Note_on_c, 0, 59, 118
1, 384336, Note_off_c, 0, 60, 0
1, 384384, Note_off_c, 0, 47, 0
1, 384384, Note_on_c, 0, 48, 81
1, 384384, Note_off_c, 0, 59, 0
1, 384384, Note_on_c, 0, 60, 118
1, 384576, Note_off_c, 0, 48, 0
1, 384576, Note_off_c, 0, 60, 0
1, 384768, Note_on_c, 0, 43, 81
1, 384768, Note_on_c, 0, 55, 118
1, 384816, Note_on_c, 0, 41, 81
1, 384816, Note_off_c, 0, 43, 0
1, 384816, Note_on_c, 0, 53, 118
1, 384816, Note_off_c, 0, 55, 0
1, 384864, Note_off_c, 0, 41, 0
1, 384864, Note_on_c, 0, 43, 81
1, 384864, Note_off_c, 0, 53, 0
1, 384864, Note_on_c, 0, 55, 118
1, 384960, Note_off_c, 0, 43, 0
1, 384960, Note_off_c, 0, 55, 0
1, 385008, Note_on_c, 0, 45, 81
1, 385008, Note_on_c, 0, 57, 118
1, 385056, Note_off_c, 0, 45, 0
1, 385056, Note_on_c, 0, 47, 81
1, 385056, Note_off_c, 0, 57, 0
1, 385056, Note_on_c, 0, 59, 118
1, 385104, Note_on_c, 0, 45, 81
1, 385104, Note_off_c, 0, 47, 0
1, 385104, Note_on_c, 0, 57, 118
1, 385104, Note_off_c, 0, 59, 0
1, 385152, Note_off_c, 0, 45, 0
1, 385152, Note_on_c, 0, 47, 81
1, 385152, Note_off_c, 0, 57, 0
1, 385152, Note_on_c, 0, 59, 118
1, 385248, Note_off_c, 0, 47, 0
1, 385248, Note_off_c, 0, 59, 0
1, 385296, Note_on_c, 0, 43, 81
1, 385296, Note_on_c, 0, 55, 118
1, 385392, Note_off_c, 0, 43, 0
1, 385392, Note_off_c, 0, 55, 0
1, 385392, Note_on_c, 0, 57, 118
1, 385440, Note_on_c, 0, 40, 81
1, 385440, Note_on_c, 0, 52, 118
1, 385440, Note_off_c, 0, 57, 0
1, 385534, Note_off_c, 0, 40, 0
1, 385536, Pitch_bend_c, 0, 8192
1, 385536, Control_c, 0, 6, 12
1, 385536, Control_c, 0, 7, 100
1, 385536, Control_c, 0, 10, 64
1, 385536, Control_c, 0, 100, 0
1, 385536, Control_c, 0, 101, 0
1, 385536, Note_off_c, 0, 52, 0
1, 385536, Note_on_c, 0, 57, 100
1, 385536, Note_on_c, 0, 60, 100
1, 385536, Note_on_c, 0, 64, 100
1, 385536, Note_on_c, 0, 67, 100
1, 385728, Note_off_c, 0, 57, 64
1, 385728, Note_off_c, 0, 60, 64
1, 385728, Note_off_c, 0, 64, 64
1, 385728, Note_off_c, 0, 67, 64
1, 385824, Note_on_c, 0, 57, 100
1, 385824, Note_on_c, 0, 60, 100
1, 385824, Note_on_c, 0, 64, 100
1, 385824, Note_on_c, 0, 67, 100
1, 385920, Note_on_c, 0, 53, 100
1, 385920, Note_off_c, 0, 57, 64
1, 385920, Note_on_c, 0, 57, 100
1, 385920, Note_off_c, 0, 60, 64
1, 385920, Note_on_c, 0, 60, 100
1, 385920, Note_off_c, 0, 64, 64
1, 385920, Note_on_c, 0, 64, 100
1, 385920, Note_off_c, 0, 67, 64
1, 386016, Note_off_c, 0, 53, 64
1, 386016, Note_off_c, 0, 57, 64
1, 386016, Note_off_c, 0, 60, 64
1, 386016, Note_off_c, 0, 64, 64
1, 386064, Note_on_c, 0, 53, 100
1, 386064, Note_on_c, 0, 57, 100
1, 386064, Note_on_c, 0, 60, 100
1, 386064, Note_on_c, 0, 64, 100
1, 386304, Note_on_c, 0, 50, 100
1, 386304, Note_off_c, 0, 53, 64
1, 386304, Note_off_c, 0, 57, 64
1, 386304, Note_on_c, 0, 57, 100
1, 386304, Note_off_c, 0, 60, 64
1, 386304, Note_on_c, 0, 60, 100
1, 386304, Note_off_c, 0, 64, 64
1, 386304, Note_on_c, 0, 65, 100
1, 386496, Note_off_c, 0, 50, 64
1, 386496, Note_off_c, 0, 57, 64
1, 386496, Note_off_c, 0, 60, 64
1, 386496, Note_off_c, 0, 65, 64
1, 386592, Note_on_c, 0, 50, 100
1, 386592, Note_on_c, 0, 57, 100
1, 386592, Note_on_c, 0, 60, 100
1, 386592, Note_on_c, 0, 65, 100
1, 386688, Note_off_c, 0, 50, 64
1, 386688, Note_on_c, 0, 52, 100
1, 386688, Note_on_c, 0, 56, 100
1, 386688, Note_off_c, 0, 57, 64
1, 386688, Note_on_c, 0, 59, 100
1, 386688, Note_off_c, 0, 60, 64
1, 386688, Note_on_c, 0, 62, 100
1, 386688, Note_off_c, 0, 65, 64
1, 386976, Note_off_c, 0, 52, 64
1, 386976, Note_off_c, 0, 56, 64
1, 386976, Note_on_c, 0, 56, 100
1, 386976, Note_off_c, 0, 59, 64
1, 386976, Note_on_c, 0, 59, 100
1, 386976, Note_off_c, 0, 62, 64
1, 386976, Note_on_c, 0, 62, 100
1, 386976, Note_on_c, 0, 64, 100
1, 387072, Pitch_bend_c, 0, 8192
1, 387072, Control_c, 0, 6, 12
1, 387072, Control_c, 0, 7, 100
1, 387072, Control_c, 0, 10, 64
1, 387072, Control_c, 0, 100, 0
1, 387072, Control_c, 0, 101, 0
1, 387072, Note_off_c, 0, 56, 64
1, 387072, Note_on_c, 0, 57, 100
1, 387072, Note_off_c, 0, 59, 64
1, 387072, Note_on_c, 0, 60, 100
1, 387072, Note_off_c, 0, 62, 64
1, 387072, Note_off_c, 0, 64, 64
1, 387072, Note_on_c, 0, 64, 100
1, 387072, Note_on_c, 0, 67, 100
1, 387168, Note_off_c, 0, 57, 64
1, 387168, Note_off_c, 0, 60, 64
1, 387168, Note_off_c, 0, 64, 64
1, 387168, Note_off_c, 0, 67, 64
1, 387216, Note_on_c, 0, 57, 100
1, 387216, Note_on_c, 0, 60, 100
1, 387216, Note_on_c, 0, 64, 100
1, 387216, Note_on_c, 0, 67, 100
1, 387312, Note_off_c, 0, 57, 64
1, 387312, Note_on_c, 0, 57, 100
1, 387312, Note_off_c, 0, 60, 64
1, 387312, Note_off_c, 0, 64, 64
1, 387312, Note_off_c, 0, 67, 64
1, 387360, Note_off_c, 0, 57, 64
1, 387360, Note_on_c, 0, 60, 100
1, 387408, Note_off_c, 0, 60, 64
1, 387408, Note_on_c, 0, 67, 100
1, 387456, Note_on_c, 0, 57, 100
1, 387456, Note_on_c, 0, 60, 100
1, 387456, Note_on_c, 0, 64, 100
1, 387456, Note_off_c, 0, 67, 64
1, 387552, Note_off_c, 0, 57, 64
1, 387552, Note_off_c, 0, 60, 64
1, 387552, Note_off_c, 0, 64, 64
1, 387600, Note_on_c, 0, 57, 100
1, 387600, Note_on_c, 0, 60, 100
1, 387600, Note_on_c, 0, 64, 100
1, 387696, Note_off_c, 0, 57, 64
1, 387696, Note_off_c, 0, 60, 64
1, 387696, Note_off_c, 0, 64, 64
1, 387696, Note_on_c, 0, 64, 100
1, 387744, Note_on_c, 0, 62, 100
1, 387744, Note_off_c, 0, 64, 64
1, 387792, Note_on_c, 0, 60, 100
1, 387792, Note_off_c, 0, 62, 64
1, 387840, Note_on_c, 0, 57, 100
1, 387840, Note_off_c, 0, 60, 64
1, 387840, Note_on_c, 0, 60, 100
1, 387840, Note_on_c, 0, 64, 100
1, 387840, Note_on_c, 0, 67, 100
1, 387936, Note_off_c, 0, 57, 64
1, 387936, Note_off_c, 0, 60, 64
1, 387936, Note_off_c, 0, 64, 64
1, 387936, Note_off_c, 0, 67, 64
1, 387984, Note_on_c, 0, 57, 100
1, 387984, Note_on_c, 0, 60, 100
1, 387984, Note_on_c, 0, 64, 100
1, 387984, Note_on_c, 0, 67, 100
1, 388080, Note_off_c, 0, 57, 64
1, 388080, Note_off_c, 0, 60, 64
1, 388080, Note_off_c, 0, 64, 64
1, 388080, Note_off_c, 0, 67, 64
1, 388080, Note_on_c, 0, 69, 100
1, 388128, Note_off_c, 0, 69, 64
1, 388152, Note_on_c, 0, 62, 100
1, 388176, Note_on_c, 0, 67, 100
1, 388200, Note_off_c, 0, 62, 64
1, 388224, Note_on_c, 0, 55, 100
1, 388224, Note_on_c, 0, 60, 100
1, 388224, Note_on_c, 0, 64, 100
1, 388224, Note_off_c, 0, 67, 64
1, 388320, Note_off_c, 0, 55, 64
1, 388320, Note_off_c, 0, 60, 64
1, 388320, Note_off_c, 0, 64, 64
1, 388368, Note_on_c, 0, 55, 100
1, 388368, Note_on_c, 0, 60, 100
1, 388368, Note_on_c, 0, 64, 100
1, 388464, Note_off_c, 0, 55, 64
1, 388464, Note_off_c, 0, 60, 64
1, 388464, Note_on_c, 0, 60, 100
1, 388464, Note_off_c, 0, 64, 64
1, 388512, Note_on_c, 0, 59, 100
1, 388512, Note_off_c, 0, 60, 64
1, 388560, Note_on_c, 0, 57, 100
1, 388560, Note_off_c, 0, 59, 64
1, 388607, Pitch_bend_c, 0, 8192
1, 388607, Pitch_bend_c, 0, 8192
1, 388607, Control_c, 0, 7, 100
1, 388607, Control_c, 0, 7, 100
1, 388607, Control_c, 0, 10, 64
1, 388607, Control_c, 0, 10, 64
1, 388607, Note_off_c, 0, 57, 64
1, 388608, Pitch_bend_c, 0, 8192
1, 388608, Control_c, 0, 6, 12
1, 388608, Control_c, 0, 7, 100
1, 388608, Control_c, 0, 10, 64
1, 388608, Control_c, 0, 100, 0
1, 388608, Control_c, 0, 101, 0
1, 388608, Note_on_c, 0, 57, 100
1, 388610, Note_on_c, 0, 60, 100
1, 388612, Note_on_c, 0, 64, 100
1, 388680, Note_off_c, 0, 57, 64
1, 388680, Note_on_c, 0, 57, 100
1, 388680, Note_off_c, 0, 60, 64
1, 388680, Note_on_c, 0, 60, 100
1, 388680, Note_off_c, 0, 64, 64
1, 388752, Note_off_c, 0, 57, 64
1, 388752, Note_on_c, 0, 57, 100
1, 388752, Note_off_c, 0, 60, 64
1, 388752, Note_on_c, 0, 60, 100
1, 388800, Note_on_c, 0, 55, 100
1, 388800, Note_off_c, 0, 57, 64
1, 388800, Note_off_c, 0, 60, 64
1, 388802, Note_on_c, 0, 59, 100
1, 388804, Note_on_c, 0, 62, 100
1, 388872, Note_off_c, 0, 55, 64
1, 388872, Note_on_c, 0, 55, 100
1, 388872, Note_off_c, 0, 59, 64
1, 388872, Note_on_c, 0, 59, 100
1, 388872, Note_off_c, 0, 62, 64
1, 388944, Note_off_c, 0, 55, 64
1, 388944, Note_on_c, 0, 55, 100
1, 388944, Note_off_c, 0, 59, 64
1, 388944, Note_on_c, 0, 59, 100
1, 388992, Note_off_c, 0, 55, 64
1, 388992, Note_on_c, 0, 55, 100
1, 388992, Note_off_c, 0, 59, 64
1, 388994, Note_on_c, 0, 59, 100
1, 388996, Note_on_c, 0, 62, 100
1, 389064, Note_off_c, 0, 55, 64
1, 389064, Note_off_c, 0, 59, 64
1, 389064, Note_on_c, 0, 59, 100
1, 389064, Note_off_c, 0, 62, 64
1, 389064, Note_on_c, 0, 62, 100
1, 389136, Note_off_c, 0, 59, 64
1, 389136, Note_on_c, 0, 59, 100
1, 389136, Note_off_c, 0, 62, 64
1, 389136, Note_on_c, 0, 62, 100
1, 389184, Note_off_c, 0, 59, 64
1, 389184, Note_on_c, 0, 60, 100
1, 389184, Note_off_c, 0, 62, 64
1, 389186, Note_on_c, 0, 64, 100
1, 389188, Note_on_c, 0, 67, 100
1, 389256, Note_off_c, 0, 60, 64
1, 389256, Note_on_c, 0, 60, 100
1, 389256, Note_off_c, 0, 64, 64
1, 389256, Note_on_c, 0, 64, 100
1, 389256, Note_off_c, 0, 67, 64
1, 389328, Note_off_c, 0, 60, 64
1, 389328, Note_on_c, 0, 60, 100
1, 389328, Note_off_c, 0, 64, 64
1, 389328, Note_on_c, 0, 64, 100
1, 389376, Note_on_c, 0, 57, 100
1, 389376, Note_off_c, 0, 60, 64
1, 389376, Note_off_c, 0, 64, 64
1, 389378, Note_on_c, 0, 60, 100
1, 389380, Note_on_c, 0, 64, 100
1, 389448, Note_off_c, 0, 57, 64
1, 389448, Note_on_c, 0, 57, 100
1, 389448, Note_off_c, 0, 60, 64
1, 389448, Note_on_c, 0, 60, 100
1, 389448, Note_off_c, 0, 64, 64
1, 389520, Note_off_c, 0, 57, 64
1, 389520, Note_on_c, 0, 57, 100
1, 389520, Note_off_c, 0, 60, 64
1, 389520, Note_on_c, 0, 60, 100
1, 389568, Note_on_c, 0, 55, 100
1, 389568, Note_off_c, 0, 57, 64
1, 389568, Note_off_c, 0, 60, 64
1, 389570, Note_on_c, 0, 59, 100
1, 389572, Note_on_c, 0, 62, 100
1, 389640, Note_off_c, 0, 55, 64
1, 389640, Note_on_c, 0, 55, 100
1, 389640, Note_off_c, 0, 59, 64
1, 389640, Note_on_c, 0, 59, 100
1, 389640, Note_off_c, 0, 62, 64
1, 389712, Note_off_c, 0, 55, 64
1, 389712, Note_on_c, 0, 55, 100
1, 389712, Note_off_c, 0, 59, 64
1, 389712, Note_on_c, 0, 59, 100
1, 389760, Note_on_c, 0, 53, 100
1, 389760, Note_off_c, 0, 55, 64
1, 389760, Note_off_c, 0, 59, 64
1, 389762, Note_on_c, 0, 57, 100
1, 389764, Note_on_c, 0, 60, 100
1, 389832, Note_off_c, 0, 53, 64
1, 389832, Note_on_c, 0, 53, 100
1, 389832, Note_off_c, 0, 57, 64
1, 389832, Note_on_c, 0, 57, 100
1, 389832, Note_off_c, 0, 60, 64
1, 389904, Note_off_c, 0, 53, 64
1, 389904, Note_on_c, 0, 53, 100
1, 389904, Note_off_c, 0, 57, 64
1, 389904, Note_on_c, 0, 57, 100
1, 389952, Note_on_c, 0, 52, 100
1, 389952, Note_off_c, 0, 53, 64
1, 389952, Note_off_c, 0, 57, 64
1, 389954, Note_on_c, 0, 55, 100
1, 389956, Note_on_c, 0, 60, 100
1, 390024, Note_off_c, 0, 52, 64
1, 390024, Note_on_c, 0, 52, 100
1, 390024, Note_off_c, 0, 55, 64
1, 390024, Note_on_c, 0, 55, 100
1, 390024, Note_off_c, 0, 60, 64
1, 390096, Note_off_c, 0, 52, 64
1, 390096, Note_off_c, 0, 55, 64
1, 390096, Note_on_c, 0, 55, 100
1, 390096, Note_on_c, 0, 59, 100
1, 390143, Pitch_bend_c, 0, 8192
1, 390143, Pitch_bend_c, 0, 8192
1, 390143, Control_c, 0, 7, 100
1, 390143, Control_c, 0, 7, 100
1, 390143, Control_c, 0, 10, 64
1, 390143, Control_c, 0, 10, 64
1, 390143, Note_off_c, 0, 55, 64
1, 390143, Note_off_c, 0, 59, 64
1, 390144, Pitch_bend_c, 0, 8192
1, 390144, Control_c, 0, 6, 12
1, 390144, Control_c, 0, 7, 100
1, 390144, Control_c, 0, 10, 64
1, 390144, Control_c, 0, 100, 0
1, 390144, Control_c, 0, 101, 0
1, 390144, Note_on_c, 0, 55, 100
1, 390192, Note_off_c, 0, 55, 64
1, 390192, Note_on_c, 0, 60, 100
1, 390240, Note_off_c, 0, 60, 64
1, 390240, Note_on_c, 0, 64, 100
1, 390288, Note_off_c, 0, 64, 64
1, 390288, Note_on_c, 0, 67, 100
1, 390384, Note_off_c, 0, 67, 64
1, 390432, Note_on_c, 0, 64, 100
1, 390528, Note_on_c, 0, 50, 100
1, 390528, Note_off_c, 0, 64, 64
1, 390576, Note_off_c, 0, 50, 64
1, 390576, Note_on_c, 0, 55, 100
1, 390624, Note_off_c, 0, 55, 64
1, 390624, Note_on_c, 0, 60, 100
1, 390672, Note_off_c, 0, 60, 64
1, 390672, Note_on_c, 0, 62, 100
1, 390768, Note_off_c, 0, 62, 64
1, 390816, Note_on_c, 0, 60, 100
1, 390911, Pitch_bend_c, 0, 8192
1, 390911, Pitch_bend_c, 0, 8192
1, 390911, Control_c, 0, 7, 100
1, 390911, Control_c, 0, 7, 100
1, 390911, Control_c, 0, 10, 64
1, 390911, Control_c, 0, 10, 64
1, 390912, Pitch_bend_c, 0, 8192
1, 390912, Control_c, 0, 6, 12
1, 390912, Control_c, 0, 6, 12
1, 390912, Control_c, 0, 7, 100
1, 390912, Control_c, 0, 10, 64
1, 390912, Control_c, 0, 100, 0
1, 390912, Control_c, 0, 100, 0
1, 390912, Control_c, 0, 101, 0
1, 390912, Control_c, 0, 101, 0
1, 390912, Note_on_c, 0, 55, 100
1, 390912, Note_off_c, 0, 60, 64
1, 390960, Note_off_c, 0, 55, 64
1, 390960, Note_on_c, 0, 60, 100
1, 391008, Note_off_c, 0, 60, 64
1, 391008, Note_on_c, 0, 64, 100
1, 391056, Note_off_c, 0, 64, 64
1, 391056, Note_on_c, 0, 67, 100
1, 391152, Note_off_c, 0, 67, 64
1, 391200, Note_on_c, 0, 64, 100
1, 391248, Note_on_c, 0, 50, 100
1, 391248, Note_off_c, 0, 64, 64
1, 391296, Note_off_c, 0, 50, 64
1, 391296, Note_on_c, 0, 52, 100
1, 391344, Note_off_c, 0, 52, 64
1, 391344, Note_on_c, 0, 55, 100
1, 391392, Note_off_c, 0, 55, 64
1, 391392, Note_on_c, 0, 60, 100
1, 391440, Note_off_c, 0, 60, 64
1, 391440, Note_on_c, 0, 62, 100
1, 391536, Note_off_c, 0, 62, 64
1, 391584, Note_on_c, 0, 64, 100
1, 391678, Note_off_c, 0, 64, 64
1, 391680, Pitch_bend_c, 0, 8192
1, 391680, Control_c, 0, 6, 12
1, 391680, Control_c, 0, 7, 100
1, 391680, Control_c, 0, 10, 64
1, 391680, Control_c, 0, 100, 0
1, 391680, Control_c, 0, 101, 0
1, 391680, Note_on_c, 0, 57, 100
1, 391728, Note_on_c, 0, 45, 100
1, 391728, Note_off_c, 0, 57, 64
1, 391776, Note_off_c, 0, 45, 64
1, 391776, Note_on_c, 0, 60, 100
1, 391824, Note_off_c, 0, 60, 64
1, 391824, Note_on_c, 0, 67, 100
1, 391872, Note_on_c, 0, 48, 100
1, 391872, Note_off_c, 0, 67, 64
1, 391920, Note_on_c, 0, 43, 100
1, 391920, Note_off_c, 0, 48, 64
1, 391968, Note_off_c, 0, 43, 64
1, 391968, Note_on_c, 0, 64, 100
1, 392016, Note_on_c, 0, 52, 100
1, 392016, Note_off_c, 0, 64, 64
1, 392064, Note_off_c, 0, 52, 64
1, 392064, Note_on_c, 0, 55, 100
1, 392112, Note_on_c, 0, 43, 100
1, 392112, Note_off_c, 0, 55, 64
1, 392160, Note_off_c, 0, 43, 64
1, 392160, Note_on_c, 0, 64, 100
1, 392208, Note_on_c, 0, 62, 100
1, 392208, Note_off_c, 0, 64, 64
1, 392256, Note_on_c, 0, 50, 100
1, 392256, Note_off_c, 0, 62, 64
1, 392304, Note_on_c, 0, 43, 100
1, 392304, Note_off_c, 0, 50, 64
1, 392352, Note_off_c, 0, 43, 64
1, 392352, Note_on_c, 0, 60, 100
1, 392400, Note_on_c, 0, 47, 100
1, 392400, Note_off_c, 0, 60, 64
1, 392448, Note_off_c, 0, 47, 64
1, 392448, Note_on_c, 0, 57, 100
1, 392496, Note_on_c, 0, 45, 100
1, 392496, Note_off_c, 0, 57, 64
1, 392544, Note_off_c, 0, 45, 64
1, 392544, Note_on_c, 0, 60, 100
1, 392592, Note_off_c, 0, 60, 64
1, 392592, Note_on_c, 0, 67, 100
1, 392640, Note_on_c, 0, 48, 100
1, 392640, Note_off_c, 0, 67, 64
1, 392688, Note_on_c, 0, 43, 100
1, 392688, Note_off_c, 0, 48, 64
1, 392736, Note_off_c, 0, 43, 64
1, 392736, Note_on_c, 0, 64, 100
1, 392784, Note_on_c, 0, 52, 100
1, 392784, Note_off_c, 0, 64, 64
1, 392832, Note_off_c, 0, 52, 64
1, 392832, Note_on_c, 0, 55, 100
1, 392880, Note_on_c, 0, 43, 100
1, 392880, Note_off_c, 0, 55, 64
1, 392928, Note_off_c, 0, 43, 64
1, 392928, Note_on_c, 0, 64, 100
1, 392976, Note_on_c, 0, 62, 100
1, 392976, Note_off_c, 0, 64, 64
1, 393024, Note_on_c, 0, 50, 100
1, 393024, Note_off_c, 0, 62, 64
1, 393072, Note_on_c, 0, 43, 100
1, 393072, Note_off_c, 0, 50, 64
1, 393120, Note_off_c, 0, 43, 64
1, 393120, Note_on_c, 0, 60, 100
1, 393168, Note_on_c, 0, 59, 100
1, 393168, Note_off_c, 0, 60, 64
1, 393215, Note_off_c, 0, 59, 64
1, 393216, Pitch_bend_c, 0, 8192
1, 393216, Control_c, 0, 6, 12
1, 393216, Control_c, 0, 7, 100
1, 393216, Control_c, 0, 10, 64
1, 393216, Control_c, 0, 100, 0
1, 393216, Control_c, 0, 101, 0
1, 393216, Note_on_c, 0, 57, 78
1, 393216, Note_on_c, 0, 64, 79
1, 393264, Note_off_c, 0, 57, 64
1, 393264, Note_on_c, 0, 57, 78
1, 393264, Note_off_c, 0, 64, 64
1, 393264, Note_on_c, 0, 64, 79
1, 393312, Note_off_c, 0, 57, 64
1, 393312, Note_on_c, 0, 57, 78
1, 393312, Note_off_c, 0, 64, 64
1, 393312, Note_on_c, 0, 64, 79
1, 393360, Note_off_c, 0, 57, 64
1, 393360, Note_on_c, 0, 57, 77
1, 393360, Note_off_c, 0, 64, 64
1, 393360, Note_on_c, 0, 64, 79
1, 393408, Note_off_c, 0, 57, 64
1, 393408, Note_on_c, 0, 57, 78
1, 393408, Note_off_c, 0, 64, 64
1, 393408, Note_on_c, 0, 64, 79
1, 393456, Note_off_c, 0, 57, 64
1, 393456, Note_on_c, 0, 57, 77
1, 393456, Note_off_c, 0, 64, 64
1, 393456, Note_on_c, 0, 64, 79
1, 393504, Note_off_c, 0, 57, 64
1, 393504, Note_on_c, 0, 57, 78
1, 393504, Note_off_c, 0, 64, 64
1, 393504, Note_on_c, 0, 64, 79
1, 393552, Note_on_c, 0, 53, 78
1, 393552, Note_off_c, 0, 57, 64
1, 393552, Note_on_c, 0, 62, 79
1, 393552, Note_off_c, 0, 64, 64
1, 393600, Note_off_c, 0, 53, 64
1, 393600, Note_on_c, 0, 53, 78
1, 393600, Note_on_c, 0, 60, 78
1, 393600, Note_off_c, 0, 62, 64
1, 393648, Note_off_c, 0, 53, 64
1, 393648, Note_on_c, 0, 53, 79
1, 393648, Note_off_c, 0, 60, 64
1, 393648, Note_on_c, 0, 60, 78
1, 393696, Note_off_c, 0, 53, 64
1, 393696, Note_on_c, 0, 53, 79
1, 393696, Note_off_c, 0, 60, 64
1, 393696, Note_on_c, 0, 60, 78
1, 393744, Note_off_c, 0, 53, 64
1, 393744, Note_on_c, 0, 53, 79
1, 393744, Note_off_c, 0, 60, 64
1, 393744, Note_on_c, 0, 60, 78
1, 393792, Note_off_c, 0, 53, 64
1, 393792, Note_on_c, 0, 53, 79
1, 393792, Note_off_c, 0, 60, 64
1, 393792, Note_on_c, 0, 60, 78
1, 393840, Note_off_c, 0, 53, 64
1, 393840, Note_on_c, 0, 53, 79
1, 393840, Note_off_c, 0, 60, 64
1, 393840, Note_on_c, 0, 60, 78
1, 393888, Note_off_c, 0, 53, 64
1, 393888, Note_on_c, 0, 53, 79
1, 393888, Note_off_c, 0, 60, 64
1, 393888, Note_on_c, 0, 60, 78
1, 393936, Note_off_c, 0, 53, 64
1, 393936, Note_on_c, 0, 55, 80
1, 393936, Note_off_c, 0, 60, 64
1, 393936, Note_on_c, 0, 62, 78
1, 393984, Note_on_c, 0, 50, 79
1, 393984, Note_off_c, 0, 55, 64
1, 393984, Note_on_c, 0, 57, 78
1, 393984, Note_off_c, 0, 62, 64
1, 394032, Note_off_c, 0, 50, 64
1, 394032, Note_on_c, 0, 50, 78
1, 394032, Note_off_c, 0, 57, 64
1, 394032, Note_on_c, 0, 57, 78
1, 394080, Note_off_c, 0, 50, 64
1, 394080, Note_on_c, 0, 50, 78
1, 394080, Note_off_c, 0, 57, 64
1, 394080, Note_on_c, 0, 57, 78
1, 394128, Note_off_c, 0, 50, 64
1, 394128, Note_on_c, 0, 50, 78
1, 394128, Note_off_c, 0, 57, 64
1, 394128, Note_on_c, 0, 57, 78
1, 394176, Note_off_c, 0, 50, 64
1, 394176, Note_on_c, 0, 50, 78
1, 394176, Note_off_c, 0, 57, 64
1, 394176, Note_on_c, 0, 57, 78
1, 394224, Note_off_c, 0, 50, 64
1, 394224, Note_on_c, 0, 50, 78
1, 394224, Note_off_c, 0, 57, 64
1, 394224, Note_on_c, 0, 57, 78
1, 394272, Note_off_c, 0, 50, 64
1, 394272, Note_on_c, 0, 50, 79
1, 394272, Note_off_c, 0, 57, 64
1, 394272, Note_on_c, 0, 57, 78
1, 394320, Note_off_c, 0, 50, 64
1, 394320, Note_on_c, 0, 50, 79
1, 394320, Note_off_c, 0, 57, 64
1, 394320, Note_on_c, 0, 57, 78
1, 394368, Note_off_c, 0, 50, 64
1, 394368, Note_on_c, 0, 50, 77
1, 394368, Note_off_c, 0, 57, 64
1, 394368, Note_on_c, 0, 57, 78
1, 394416, Note_off_c, 0, 50, 64
1, 394416, Note_on_c, 0, 50, 77
1, 394416, Note_off_c, 0, 57, 64
1, 394416, Note_on_c, 0, 57, 78
1, 394464, Note_off_c, 0, 50, 64
1, 394464, Note_on_c, 0, 50, 77
1, 394464, Note_off_c, 0, 57, 64
1, 394464, Note_on_c, 0, 57, 78
1, 394512, Note_off_c, 0, 50, 64
1, 394512, Note_on_c, 0, 50, 77
1, 394512, Note_off_c, 0, 57, 64
1, 394512, Note_on_c, 0, 57, 78
1, 394560, Note_off_c, 0, 50, 64
1, 394560, Note_off_c, 0, 57, 64
1, 394560, Note_on_c, 0, 60, 79
1, 394560, Note_on_c, 0, 65, 78
1, 394608, Note_off_c, 0, 60, 64
1, 394608, Note_on_c, 0, 60, 79
1, 394608, Note_off_c, 0, 65, 64
1, 394608, Note_on_c, 0, 65, 78
1, 394656, Note_off_c, 0, 60, 64
1, 394656, Note_on_c, 0, 60, 79
1, 394656, Note_off_c, 0, 65, 64
1, 394656, Note_on_c, 0, 65, 78
1, 394704, Note_on_c, 0, 59, 79
1, 394704, Note_off_c, 0, 60, 64
1, 394704, Note_on_c, 0, 62, 78
1, 394704, Note_off_c, 0, 65, 64
1, 394751, Note_off_c, 0, 59, 64
1, 394751, Note_off_c, 0, 62, 64
1, 394752, Pitch_bend_c, 0, 8192
1, 394752, Control_c, 0, 6, 12
1, 394752, Control_c, 0, 7, 100
1, 394752, Control_c, 0, 10, 64
1, 394752, Control_c, 0, 100, 0
1, 394752, Control_c, 0, 101, 0
1, 394752, Note_on_c, 0, 57, 100
1, 394752, Note_on_c, 0, 67, 100
1, 394776, Note_off_c, 0, 57, 64
1, 394776, Note_off_c, 0, 67, 64
1, 394800, Note_on_c, 0, 60, 100
1, 394824, Note_off_c, 0, 60, 64
1, 394824, Note_on_c, 0, 64, 100
1, 394848, Note_off_c, 0, 64, 64
1, 394896, Note_on_c, 0, 67, 100
1, 394920, Note_off_c, 0, 67, 64
1, 394944, Note_on_c, 0, 64, 100
1, 394944, Note_on_c, 0, 69, 100
1, 394968, Note_off_c, 0, 64, 64
1, 394968, Note_off_c, 0, 69, 64
1, 394992, Note_on_c, 0, 60, 100
1, 395016, Note_off_c, 0, 60, 64
1, 395016, Note_on_c, 0, 64, 100
1, 395040, Note_off_c, 0, 64, 64
1, 395088, Note_on_c, 0, 59, 100
1, 395112, Note_off_c, 0, 59, 64
1, 395136, Note_on_c, 0, 55, 100
1, 395136, Note_on_c, 0, 67, 100
1, 395160, Note_off_c, 0, 55, 64
1, 395160, Note_off_c, 0, 67, 64
1, 395184, Note_on_c, 0, 60, 100
1, 395208, Note_on_c, 0, 59, 100
1, 395208, Note_off_c, 0, 60, 64
1, 395232, Note_off_c, 0, 59, 64
1, 395280, Note_on_c, 0, 67, 100
1, 395304, Note_off_c, 0, 67, 64
1, 395328, Note_on_c, 0, 57, 100
1, 395328, Note_on_c, 0, 65, 100
1, 395352, Note_off_c, 0, 57, 64
1, 395352, Note_off_c, 0, 65, 64
1, 395376, Note_on_c, 0, 60, 100
1, 395400, Note_on_c, 0, 57, 100
1, 395400, Note_off_c, 0, 60, 64
1, 395400, Note_on_c, 0, 65, 100
1, 395424, Note_off_c, 0, 57, 64
1, 395424, Note_off_c, 0, 65, 64
1, 395448, Note_on_c, 0, 62, 100
1, 395472, Note_off_c, 0, 62, 64
1, 395472, Note_on_c, 0, 64, 100
1, 395496, Note_off_c, 0, 64, 64
1, 395520, Note_on_c, 0, 57, 100
1, 395520, Note_on_c, 0, 67, 100
1, 395544, Note_off_c, 0, 57, 64
1, 395544, Note_off_c, 0, 67, 64
1, 395568, Note_on_c, 0, 60, 100
1, 395592, Note_off_c, 0, 60, 64
1, 395592, Note_on_c, 0, 64, 100
1, 395616, Note_off_c, 0, 64, 64
1, 395664, Note_on_c, 0, 67, 100
1, 395688, Note_off_c, 0, 67, 64
1, 395712, Note_on_c, 0, 64, 100
1, 395712, Note_on_c, 0, 69, 100
1, 395736, Note_off_c, 0, 64, 64
1, 395736, Note_off_c, 0, 69, 64
1, 395760, Note_on_c, 0, 60, 100
1, 395784, Note_off_c, 0, 60, 64
1, 395784, Note_on_c, 0, 64, 100
1, 395808, Note_off_c, 0, 64, 64
1, 395856, Note_on_c, 0, 59, 100
1, 395880, Note_off_c, 0, 59, 64
1, 395904, Note_on_c, 0, 55, 100
1, 395904, Note_on_c, 0, 67, 100
1, 395928, Note_off_c, 0, 55, 64
1, 395928, Note_off_c, 0, 67, 64
1, 395952, Note_on_c, 0, 60, 100
1, 395976, Note_on_c, 0, 59, 100
1, 395976, Note_off_c, 0, 60, 64
1, 396000, Note_off_c, 0, 59, 64
1, 396024, Note_on_c, 0, 69, 100
1, 396048, Note_on_c, 0, 67, 100
1, 396048, Note_off_c, 0, 69, 64
1, 396072, Note_off_c, 0, 67, 64
1, 396096, Note_on_c, 0, 57, 100
1, 396096, Note_on_c, 0, 65, 100
1, 396120, Note_off_c, 0, 57, 64
1, 396120, Note_off_c, 0, 65, 64
1, 396144, Note_on_c, 0, 60, 100
1, 396168, Note_on_c, 0, 57, 100
1, 396168, Note_off_c, 0, 60, 64
1, 396168, Note_on_c, 0, 65, 100
1, 396192, Note_on_c, 0, 55, 100
1, 396192, Note_off_c, 0, 57, 64
1, 396192, Note_off_c, 0, 65, 64
1, 396216, Note_off_c, 0, 55, 64
1, 396216, Note_on_c, 0, 60, 100
1, 396240, Note_off_c, 0, 60, 64
1, 396240, Note_on_c, 0, 62, 100
1, 396264, Note_off_c, 0, 62, 64
1, 396264, Note_on_c, 0, 64, 100
1, 396287, Pitch_bend_c, 0, 8192
1, 396287, Pitch_bend_c, 0, 8192
1, 396287, Control_c, 0, 7, 100
1, 396287, Control_c, 0, 7, 100
1, 396287, Control_c, 0, 10, 64
1, 396287, Control_c, 0, 10, 64
1, 396287, Note_off_c, 0, 64, 64
1, 396288, Pitch_bend_c, 0, 8192
1, 396288, Control_c, 0, 6, 12
1, 396288, Control_c, 0, 7, 100
1, 396288, Control_c, 0, 10, 64
1, 396288, Control_c, 0, 100, 0
1, 396288, Control_c, 0, 101, 0
1, 396288, Note_on_c, 0, 69, 127
1, 396336, Note_off_c, 0, 69, 64
1, 396432, Note_on_c, 0, 57, 127
1, 396444, Note_off_c, 0, 57, 64
1, 396444, Note_on_c, 0, 60, 127
1, 396456, Note_off_c, 0, 60, 64
1, 396456, Note_on_c, 0, 64, 127
1, 396468, Note_off_c, 0, 64, 64
1, 396468, Note_on_c, 0, 67, 127
1, 396480, Note_off_c, 0, 67, 64
1, 396480, Note_on_c, 0, 72, 127
1, 396528, Note_on_c, 0, 69, 127
1, 396528, Note_off_c, 0, 72, 64
1, 396576, Note_off_c, 0, 69, 64
1, 396600, Note_on_c, 0, 72, 127
1, 396648, Note_off_c, 0, 72, 64
1, 396672, Note_on_c, 0, 67, 127
1, 396720, Note_off_c, 0, 67, 64
1, 396816, Note_on_c, 0, 62, 127
1, 396840, Note_off_c, 0, 62, 64
1, 396840, Note_on_c, 0, 67, 127
1, 396864, Note_off_c, 0, 67, 64
1, 396864, Note_on_c, 0, 71, 127
1, 396912, Note_on_c, 0, 67, 127
1, 396912, Note_off_c, 0, 71, 64
1, 396960, Note_off_c, 0, 67, 64
1, 396984, Note_on_c, 0, 64, 127
1, 397032, Note_off_c, 0, 64, 64
1, 397056, Note_on_c, 0, 69, 127
1, 397104, Note_off_c, 0, 69, 64
1, 397200, Note_on_c, 0, 57, 127
1, 397212, Note_off_c, 0, 57, 64
1, 397212, Note_on_c, 0, 60, 127
1, 397224, Note_off_c, 0, 60, 64
1, 397224, Note_on_c, 0, 64, 127
1, 397236, Note_off_c, 0, 64, 64
1, 397236, Note_on_c, 0, 67, 127
1, 397248, Note_off_c, 0, 67, 64
1, 397248, Note_on_c, 0, 72, 127
1, 397296, Note_on_c, 0, 69, 127
1, 397296, Note_off_c, 0, 72, 64
1, 397344, Note_off_c, 0, 69, 64
1, 397368, Note_on_c, 0, 72, 127
1, 397416, Note_off_c, 0, 72, 64
1, 397440, Note_on_c, 0, 67, 127
1, 397488, Note_off_c, 0, 67, 64
1, 397584, Note_on_c, 0, 62, 127
1, 397608, Note_off_c, 0, 62, 64
1, 397608, Note_on_c, 0, 67, 127
1, 397632, Note_off_c, 0, 67, 64
1, 397632, Note_on_c, 0, 71, 127
1, 397680, Note_off_c, 0, 71, 64
1, 397680, Note_on_c, 0, 72, 127
1, 397704, Note_on_c, 0, 71, 127
1, 397704, Note_off_c, 0, 72, 64
1, 397752, Note_off_c, 0, 71, 64
1, 397776, Note_on_c, 0, 67, 127
1, 397823, Pitch_bend_c, 0, 8192
1, 397823, Pitch_bend_c, 0, 8192
1, 397823, Note_off_c, 0, 67, 64
1, 397824, Pitch_bend_c, 0, 8192
1, 397824, Control_c, 0, 6, 12
1, 397824, Control_c, 0, 7, 100
1, 397824, Control_c, 0, 10, 64
1, 397824, Control_c, 0, 100, 0
1, 397824, Control_c, 0, 101, 0
1, 397824, Note_on_c, 0, 55, 100
1, 397824, Note_on_c, 0, 60, 100
1, 397872, Note_off_c, 0, 55, 64
1, 397872, Note_off_c, 0, 60, 64
1, 397896, Note_on_c, 0, 60, 100
1, 397944, Note_off_c, 0, 60, 64
1, 397968, Note_on_c, 0, 55, 100
1, 398016, Note_off_c, 0, 55, 64
1, 398016, Note_on_c, 0, 55, 100
1, 398016, Note_on_c, 0, 62, 100
1, 398064, Note_off_c, 0, 55, 64
1, 398064, Note_off_c, 0, 62, 64
1, 398088, Note_on_c, 0, 62, 100
1, 398136, Note_off_c, 0, 62, 64
1, 398160, Note_on_c, 0, 55, 100
1, 398208, Note_on_c, 0, 52, 100
1, 398208, Note_off_c, 0, 55, 64
1, 398208, Note_on_c, 0, 60, 100
1, 398256, Note_off_c, 0, 52, 64
1, 398256, Note_off_c, 0, 60, 64
1, 398280, Note_on_c, 0, 60, 100
1, 398328, Note_off_c, 0, 60, 64
1, 398352, Note_on_c, 0, 52, 100
1, 398400, Note_off_c, 0, 52, 64
1, 398400, Note_on_c, 0, 59, 100
1, 398400, Note_on_c, 0, 62, 100
1, 398448, Note_on_c, 0, 50, 100
1, 398448, Note_off_c, 0, 59, 64
1, 398448, Note_off_c, 0, 62, 64
1, 398496, Note_off_c, 0, 50, 64
1, 398496, Note_on_c, 0, 55, 100
1, 398496, Note_on_c, 0, 62, 100
1, 398544, Note_off_c, 0, 55, 64
1, 398544, Note_off_c, 0, 62, 64
1, 398592, Note_on_c, 0, 55, 100
1, 398592, Note_on_c, 0, 60, 100
1, 398640, Note_off_c, 0, 55, 64
1, 398640, Note_off_c, 0, 60, 64
1, 398664, Note_on_c, 0, 60, 100
1, 398712, Note_off_c, 0, 60, 64
1, 398736, Note_on_c, 0, 55, 100
1, 398784, Note_off_c, 0, 55, 64
1, 398784, Note_on_c, 0, 55, 100
1, 398784, Note_on_c, 0, 62, 100
1, 398832, Note_off_c, 0, 55, 64
1, 398832, Note_off_c, 0, 62, 64
1, 398856, Note_on_c, 0, 62, 100
1, 398904, Note_off_c, 0, 62, 64
1, 398928, Note_on_c, 0, 55, 100
1, 398976, Note_on_c, 0, 52, 100
1, 398976, Note_off_c, 0, 55, 64
1, 398976, Note_on_c, 0, 60, 100
1, 399024, Note_off_c, 0, 52, 64
1, 399024, Note_off_c, 0, 60, 64
1, 399048, Note_on_c, 0, 60, 100
1, 399096, Note_off_c, 0, 60, 64
1, 399120, Note_on_c, 0, 52, 100
1, 399168, Note_off_c, 0, 52, 64
1, 399168, Note_on_c, 0, 59, 100
1, 399168, Note_on_c, 0, 62, 100
1, 399216, Note_on_c, 0, 48, 100
1, 399216, Note_off_c, 0, 59, 64
1, 399216, Note_off_c, 0, 62, 64
1, 399264, Note_off_c, 0, 48, 64
1, 399264, Note_on_c, 0, 55, 100
1, 399264, Note_on_c, 0, 60, 100
1, 399312, Note_off_c, 0, 55, 64
1, 399312, Note_off_c, 0, 60, 64
1, 399359, Pitch_bend_c, 0, 8192
1, 399359, Pitch_bend_c, 0, 8192
1, 399359, Control_c, 0, 7, 100
1, 399359, Control_c, 0, 7, 100
1, 399359, Control_c, 0, 10, 64
1, 399359, Control_c, 0, 10, 64
1, 399360, Pitch_bend_c, 0, 8192
1, 399360, Control_c, 0, 6, 12
1, 399360, Control_c, 0, 7, 100
1, 399360, Control_c, 0, 10, 64
1, 399360, Control_c, 0, 100, 0
1, 399360, Control_c, 0, 101, 0
1, 399360, Note_on_c, 0, 69, 100
1, 399408, Note_off_c, 0, 69, 64
1, 399408, Note_on_c, 0, 81, 100
1, 399456, Note_off_c, 0, 81, 64
1, 399456, Note_on_c, 0, 84, 100
1, 399504, Note_off_c, 0, 84, 64
1, 399504, Note_on_c, 0, 91, 100
1, 399552, Note_off_c, 0, 91, 64
1, 399576, Note_on_c, 0, 93, 100
1, 399624, Note_off_c, 0, 93, 64
1, 399648, Note_on_c, 0, 88, 100
1, 399696, Note_on_c, 0, 76, 100
1, 399696, Note_off_c, 0, 88, 64
1, 399744, Note_on_c, 0, 67, 100
1, 399744, Note_off_c, 0, 76, 64
1, 399792, Note_off_c, 0, 67, 64
1, 399792, Note_on_c, 0, 86, 100
1, 399840, Note_on_c, 0, 84, 100
1, 399840, Note_off_c, 0, 86, 64
1, 399888, Note_on_c, 0, 79, 100
1, 399888, Note_off_c, 0, 84, 64
1, 399936, Note_off_c, 0, 79, 64
1, 399960, Note_on_c, 0, 84, 100
1, 400008, Note_off_c, 0, 84, 64
1, 400032, Note_on_c, 0, 83, 100
1, 400080, Note_on_c, 0, 81, 100
1, 400080, Note_off_c, 0, 83, 64
1, 400128, Note_on_c, 0, 69, 100
1, 400128, Note_off_c, 0, 81, 64
1, 400176, Note_off_c, 0, 69, 64
1, 400176, Note_on_c, 0, 81, 100
1, 400224, Note_off_c, 0, 81, 64
1, 400224, Note_on_c, 0, 84, 100
1, 400272, Note_off_c, 0, 84, 64
1, 400272, Note_on_c, 0, 91, 100
1, 400320, Note_off_c, 0, 91, 64
1, 400344, Note_on_c, 0, 93, 100
1, 400392, Note_off_c, 0, 93, 64
1, 400416, Note_on_c, 0, 88, 100
1, 400464, Note_on_c, 0, 76, 100
1, 400464, Note_off_c, 0, 88, 64
1, 400512, Note_off_c, 0, 76, 64
1, 400512, Note_on_c, 0, 96, 100
1, 400560, Note_on_c, 0, 95, 100
1, 400560, Note_off_c, 0, 96, 64
1, 400608, Note_on_c, 0, 91, 100
1, 400608, Note_off_c, 0, 95, 64
1, 400656, Note_on_c, 0, 88, 100
1, 400656, Note_off_c, 0, 91, 64
1, 400704, Note_off_c, 0, 88, 64
1, 400728, Note_on_c, 0, 84, 100
1, 400776, Note_off_c, 0, 84, 64
1, 400800, Note_on_c, 0, 86, 100
1, 400848, Note_off_c, 0, 86, 64
1, 400848, Note_on_c, 0, 88, 100
1, 400895, Note_off_c, 0, 88, 64
1, 400896, Pitch_bend_c, 0, 8192
1, 400896, Control_c, 0, 6, 12
1, 400896, Control_c, 0, 7, 100
1, 400896, Control_c, 0, 10, 64
1, 400896, Control_c, 0, 100, 0
1, 400896, Control_c, 0, 101, 0
1, 400896, Note_on_c, 0, 81, 100
1, 400898, Note_on_c, 0, 88, 100
1, 400904, Note_on_c, 0, 84, 100
1, 400992, Note_on_c, 0, 76, 100
1, 400992, Note_off_c, 0, 81, 64
1, 400992, Note_off_c, 0, 84, 64
1, 400992, Note_off_c, 0, 88, 64
1, 401038, Note_off_c, 0, 76, 64
1, 401040, Note_on_c, 0, 79, 100
1, 401042, Note_on_c, 0, 86, 100
1, 401048, Note_on_c, 0, 83, 100
1, 401136, Note_off_c, 0, 79, 64
1, 401136, Note_off_c, 0, 83, 64
1, 401136, Note_off_c, 0, 86, 64
1, 401280, Note_on_c, 0, 76, 100
1, 401282, Note_on_c, 0, 88, 100
1, 401288, Note_on_c, 0, 84, 100
1, 401376, Note_on_c, 0, 72, 100
1, 401376, Note_off_c, 0, 76, 64
1, 401376, Note_off_c, 0, 84, 64
1, 401376, Note_off_c, 0, 88, 64
1, 401422, Note_off_c, 0, 72, 64
1, 401424, Note_on_c, 0, 76, 100
1, 401426, Note_on_c, 0, 84, 100
1, 401432, Note_on_c, 0, 81, 100
1, 401520, Note_off_c, 0, 76, 64
1, 401520, Note_off_c, 0, 81, 64
1, 401520, Note_off_c, 0, 84, 64
1, 401664, Note_on_c, 0, 79, 100
1, 401666, Note_on_c, 0, 88, 100
1, 401672, Note_on_c, 0, 84, 100
1, 401760, Note_on_c, 0, 74, 100
1, 401760, Note_off_c, 0, 79, 64
1, 401760, Note_off_c, 0, 84, 64
1, 401760, Note_off_c, 0, 88, 64
1, 401806, Note_off_c, 0, 74, 64
1, 401808, Note_on_c, 0, 79, 100
1, 401810, Note_on_c, 0, 86, 100
1, 401816, Note_on_c, 0, 83, 100
1, 401904, Note_off_c, 0, 79, 64
1, 401904, Note_off_c, 0, 83, 64
1, 401904, Note_off_c, 0, 86, 64
1, 402048, Note_on_c, 0, 79, 100
1, 402050, Note_on_c, 0, 91, 100
1, 402056, Note_on_c, 0, 86, 100
1, 402144, Note_off_c, 0, 79, 64
1, 402144, Note_on_c, 0, 83, 100
1, 402144, Note_off_c, 0, 86, 64
1, 402144, Note_on_c, 0, 89, 100
1, 402144, Note_off_c, 0, 91, 64
1, 402192, Note_on_c, 0, 76, 100
1, 402192, Note_off_c, 0, 83, 64
1, 402192, Note_off_c, 0, 89, 64
1, 402194, Note_on_c, 0, 88, 100
1, 402200, Note_on_c, 0, 84, 100
1, 402288, Note_on_c, 0, 72, 100
1, 402288, Note_off_c, 0, 76, 64
1, 402288, Note_off_c, 0, 84, 64
1, 402288, Note_off_c, 0, 88, 64
1, 402336, Note_off_c, 0, 72, 64
1, 402336, Note_on_c, 0, 74, 100
1, 402384, Note_off_c, 0, 74, 64
1, 402384, Note_on_c, 0, 76, 100
1, 402431, Pitch_bend_c, 0, 8192
1, 402431, Pitch_bend_c, 0, 8192
1, 402431, Control_c, 0, 7, 100
1, 402431, Control_c, 0, 7, 100
1, 402431, Control_c, 0, 10, 64
1, 402431, Control_c, 0, 10, 64
1, 402431, Note_off_c, 0, 76, 64
1, 402432, Pitch_bend_c, 0, 8192
1, 402432, Control_c, 0, 6, 12
1, 402432, Control_c, 0, 7, 100
1, 402432, Control_c, 0, 10, 64
1, 402432, Control_c, 0, 100, 0
1, 402432, Control_c, 0, 101, 0
1, 402432, Note_on_c, 0, 64, 77
1, 402437, Note_on_c, 0, 69, 100
1, 402480, Note_off_c, 0, 64, 64
1, 402480, Note_off_c, 0, 69, 64
1, 402480, Note_on_c, 0, 72, 100
1, 402528, Note_off_c, 0, 72, 64
1, 402528, Note_on_c, 0, 76, 100
1, 402576, Note_off_c, 0, 76, 64
1, 402576, Note_on_c, 0, 79, 100
1, 402624, Note_on_c, 0, 60, 77
1, 402624, Note_off_c, 0, 79, 64
1, 402629, Note_on_c, 0, 69, 100
1, 402672, Note_off_c, 0, 60, 64
1, 402672, Note_off_c, 0, 69, 64
1, 402672, Note_on_c, 0, 72, 100
1, 402720, Note_off_c, 0, 72, 64
1, 402720, Note_on_c, 0, 76, 100
1, 402768, Note_off_c, 0, 76, 64
1, 402768, Note_on_c, 0, 81, 100
1, 402816, Note_on_c, 0, 64, 77
1, 402816, Note_off_c, 0, 81, 64
1, 402821, Note_on_c, 0, 79, 100
1, 402864, Note_off_c, 0, 64, 64
1, 402864, Note_on_c, 0, 76, 100
1, 402864, Note_off_c, 0, 79, 64
1, 402912, Note_on_c, 0, 72, 100
1, 402912, Note_off_c, 0, 76, 64
1, 402960, Note_on_c, 0, 67, 100
1, 402960, Note_off_c, 0, 72, 64
1, 403008, Note_off_c, 0, 67, 64
1, 403008, Note_on_c, 0, 71, 100
1, 403013, Note_on_c, 0, 79, 100
1, 403056, Note_off_c, 0, 71, 64
1, 403056, Note_on_c, 0, 76, 100
1, 403056, Note_off_c, 0, 79, 64
1, 403104, Note_on_c, 0, 72, 100
1, 403104, Note_off_c, 0, 76, 64
1, 403152, Note_on_c, 0, 71, 100
1, 403152, Note_off_c, 0, 72, 64
1, 403200, Note_on_c, 0, 64, 77
1, 403200, Note_off_c, 0, 71, 64
1, 403205, Note_on_c, 0, 69, 100
1, 403248, Note_off_c, 0, 64, 64
1, 403248, Note_off_c, 0, 69, 64
1, 403248, Note_on_c, 0, 72, 100
1, 403296, Note_off_c, 0, 72, 64
1, 403296, Note_on_c, 0, 76, 100
1, 403344, Note_off_c, 0, 76, 64
1, 403344, Note_on_c, 0, 79, 100
1, 403392, Note_on_c, 0, 60, 77
1, 403392, Note_off_c, 0, 79, 64
1, 403397, Note_on_c, 0, 69, 100
1, 403440, Note_off_c, 0, 60, 64
1, 403440, Note_off_c, 0, 69, 64
1, 403440, Note_on_c, 0, 72, 100
1, 403488, Note_off_c, 0, 72, 64
1, 403488, Note_on_c, 0, 76, 100
1, 403536, Note_off_c, 0, 76, 64
1, 403536, Note_on_c, 0, 81, 100
1, 403584, Note_on_c, 0, 64, 77
1, 403584, Note_off_c, 0, 81, 64
1, 403589, Note_on_c, 0, 79, 100
1, 403632, Note_off_c, 0, 64, 64
1, 403632, Note_on_c, 0, 76, 100
1, 403632, Note_off_c, 0, 79, 64
1, 403680, Note_on_c, 0, 72, 100
1, 403680, Note_off_c, 0, 76, 64
1, 403728, Note_on_c, 0, 67, 100
1, 403728, Note_off_c, 0, 72, 64
1, 403776, Note_off_c, 0, 67, 64
1, 403776, Note_on_c, 0, 71, 100
1, 403781, Note_on_c, 0, 79, 100
1, 403788, Note_on_c, 0, 84, 77
1, 403824, Note_off_c, 0, 71, 64
1, 403824, Note_on_c, 0, 76, 100
1, 403824, Note_off_c, 0, 79, 64
1, 403824, Note_off_c, 0, 84, 64
1, 403825, Note_on_c, 0, 83, 77
1, 403868, Note_off_c, 0, 83, 64
1, 403872, Note_off_c, 0, 76, 64
1, 403872, Note_on_c, 0, 81, 77
1, 403877, Note_on_c, 0, 72, 100
1, 403915, Note_off_c, 0, 81, 64
1, 403920, Note_on_c, 0, 71, 100
1, 403923, Note_on_c, 0, 79, 77
1, 403925, Note_off_c, 0, 72, 64
1, 403966, Note_off_c, 0, 79, 64
1, 403967, Pitch_bend_c, 0, 8192
1, 403967, Pitch_bend_c, 0, 8192
1, 403967, Control_c, 0, 7, 100
1, 403967, Control_c, 0, 7, 100
1, 403967, Control_c, 0, 10, 64
1, 403967, Control_c, 0, 10, 64
1, 403967, Note_off_c, 0, 71, 64
1, 403968, Pitch_bend_c, 0, 8192
1, 403968, Control_c, 0, 6, 12
1, 403968, Control_c, 0, 7, 100
1, 403968, Control_c, 0, 10, 64
1, 403968, Control_c, 0, 100, 0
1, 403968, Control_c, 0, 101, 0
1, 403968, Note_on_c, 0, 64, 100
1, 403973, Note_on_c, 0, 76, 100
1, 404016, Note_off_c, 0, 64, 64
1, 404016, Note_on_c, 0, 69, 100
1, 404016, Note_off_c, 0, 76, 64
1, 404064, Note_off_c, 0, 69, 64
1, 404064, Note_on_c, 0, 71, 100
1, 404112, Note_off_c, 0, 71, 64
1, 404112, Note_on_c, 0, 72, 100
1, 404160, Note_on_c, 0, 64, 100
1, 404160, Note_off_c, 0, 72, 64
1, 404165, Note_on_c, 0, 76, 100
1, 404208, Note_off_c, 0, 64, 64
1, 404208, Note_on_c, 0, 69, 100
1, 404208, Note_off_c, 0, 76, 64
1, 404256, Note_off_c, 0, 69, 64
1, 404304, Note_on_c, 0, 72, 100
1, 404352, Note_on_c, 0, 67, 100
1, 404352, Note_off_c, 0, 72, 64
1, 404357, Note_on_c, 0, 79, 100
1, 404400, Note_off_c, 0, 67, 64
1, 404400, Note_on_c, 0, 76, 100
1, 404400, Note_off_c, 0, 79, 64
1, 404448, Note_on_c, 0, 72, 100
1, 404448, Note_off_c, 0, 76, 64
1, 404496, Note_on_c, 0, 71, 100
1, 404496, Note_off_c, 0, 72, 64
1, 404544, Note_on_c, 0, 67, 100
1, 404544, Note_off_c, 0, 71, 64
1, 404549, Note_on_c, 0, 79, 100
1, 404592, Note_off_c, 0, 67, 64
1, 404592, Note_on_c, 0, 74, 100
1, 404592, Note_off_c, 0, 79, 64
1, 404640, Note_on_c, 0, 72, 100
1, 404640, Note_off_c, 0, 74, 64
1, 404688, Note_off_c, 0, 72, 64
1, 404688, Note_on_c, 0, 76, 100
1, 404736, Note_on_c, 0, 64, 100
1, 404736, Note_off_c, 0, 76, 64
1, 404741, Note_on_c, 0, 76, 100
1, 404784, Note_off_c, 0, 64, 64
1, 404784, Note_on_c, 0, 69, 100
1, 404784, Note_off_c, 0, 76, 64
1, 404832, Note_off_c, 0, 69, 64
1, 404832, Note_on_c, 0, 71, 100
1, 404880, Note_off_c, 0, 71, 64
1, 404880, Note_on_c, 0, 72, 100
1, 404928, Note_on_c, 0, 64, 100
1, 404928, Note_off_c, 0, 72, 64
1, 404933, Note_on_c, 0, 76, 100
1, 404976, Note_off_c, 0, 64, 64
1, 404976, Note_on_c, 0, 69, 100
1, 404976, Note_off_c, 0, 76, 64
1, 405024, Note_off_c, 0, 69, 64
1, 405072, Note_on_c, 0, 72, 100
1, 405120, Note_on_c, 0, 67, 100
1, 405120, Note_off_c, 0, 72, 64
1, 405125, Note_on_c, 0, 79, 100
1, 405168, Note_off_c, 0, 67, 64
1, 405168, Note_on_c, 0, 76, 100
1, 405168, Note_off_c, 0, 79, 64
1, 405216, Note_on_c, 0, 72, 100
1, 405216, Note_off_c, 0, 76, 64
1, 405264, Note_on_c, 0, 71, 100
1, 405264, Note_off_c, 0, 72, 64
1, 405312, Note_on_c, 0, 62, 100
1, 405312, Note_off_c, 0, 71, 64
1, 405317, Note_on_c, 0, 74, 100
1, 405360, Note_off_c, 0, 62, 64
1, 405360, Note_on_c, 0, 71, 100
1, 405360, Note_off_c, 0, 74, 64
1, 405408, Note_off_c, 0, 71, 64
1, 405456, Note_on_c, 0, 67, 100
1, 405503, Pitch_bend_c, 0, 8192
1, 405503, Pitch_bend_c, 0, 8192
1, 405503, Control_c, 0, 7, 100
1, 405503, Control_c, 0, 7, 100
1, 405503, Control_c, 0, 10, 64
1, 405503, Control_c, 0, 10, 64
1, 405503, Note_off_c, 0, 67, 64
1, 405504, Pitch_bend_c, 0, 8192
1, 405504, Control_c, 0, 6, 12
1, 405504, Control_c, 0, 7, 100
1, 405504, Control_c, 0, 10, 64
1, 405504, Control_c, 0, 100, 0
1, 405504, Control_c, 0, 101, 0
1, 405504, Note_on_c, 0, 57, 100
1, 405528, Note_off_c, 0, 57, 64
1, 405528, Note_on_c, 0, 60, 100
1, 405552, Note_off_c, 0, 60, 64
1, 405552, Note_on_c, 0, 64, 100
1, 405576, Note_off_c, 0, 64, 64
1, 405576, Note_on_c, 0, 67, 100
1, 405600, Note_off_c, 0, 67, 64
1, 405600, Note_on_c, 0, 69, 100
1, 405648, Note_on_c, 0, 67, 100
1, 405648, Note_off_c, 0, 69, 64
1, 405696, Note_on_c, 0, 64, 100
1, 405696, Note_off_c, 0, 67, 64
1, 405744, Note_off_c, 0, 64, 64
1, 405768, Note_on_c, 0, 60, 100
1, 405816, Note_off_c, 0, 60, 64
1, 405840, Note_on_c, 0, 57, 100
1, 405888, Note_on_c, 0, 55, 100
1, 405888, Note_off_c, 0, 57, 64
1, 405912, Note_off_c, 0, 55, 64
1, 405912, Note_on_c, 0, 57, 100
1, 405936, Note_off_c, 0, 57, 64
1, 405936, Note_on_c, 0, 60, 100
1, 405960, Note_off_c, 0, 60, 64
1, 405960, Note_on_c, 0, 64, 100
1, 405984, Note_off_c, 0, 64, 64
1, 405984, Note_on_c, 0, 67, 100
1, 406032, Note_on_c, 0, 64, 100
1, 406032, Note_off_c, 0, 67, 64
1, 406080, Note_on_c, 0, 60, 100
1, 406080, Note_off_c, 0, 64, 64
1, 406128, Note_off_c, 0, 60, 64
1, 406152, Note_on_c, 0, 57, 100
1, 406200, Note_off_c, 0, 57, 64
1, 406224, Note_on_c, 0, 55, 100
1, 406272, Note_on_c, 0, 52, 100
1, 406272, Note_off_c, 0, 55, 64
1, 406296, Note_off_c, 0, 52, 64
1, 406296, Note_on_c, 0, 55, 100
1, 406320, Note_off_c, 0, 55, 64
1, 406320, Note_on_c, 0, 57, 100
1, 406344, Note_off_c, 0, 57, 64
1, 406344, Note_on_c, 0, 60, 100
1, 406368, Note_off_c, 0, 60, 64
1, 406368, Note_on_c, 0, 64, 100
1, 406416, Note_on_c, 0, 60, 100
1, 406416, Note_off_c, 0, 64, 64
1, 406464, Note_on_c, 0, 57, 100
1, 406464, Note_off_c, 0, 60, 64
1, 406512, Note_off_c, 0, 57, 64
1, 406536, Note_on_c, 0, 55, 100
1, 406584, Note_off_c, 0, 55, 64
1, 406608, Note_on_c, 0, 52, 100
1, 406656, Note_on_c, 0, 48, 100
1, 406656, Note_off_c, 0, 52, 64
1, 406680, Note_off_c, 0, 48, 64
1, 406680, Note_on_c, 0, 52, 100
1, 406704, Note_off_c, 0, 52, 64
1, 406704, Note_on_c, 0, 55, 100
1, 406728, Note_off_c, 0, 55, 64
1, 406728, Note_on_c, 0, 57, 100
1, 406752, Note_off_c, 0, 57, 64
1, 406752, Note_on_c, 0, 60, 100
1, 406800, Note_on_c, 0, 57, 100
1, 406800, Note_off_c, 0, 60, 64
1, 406848, Note_on_c, 0, 55, 100
1, 406848, Note_off_c, 0, 57, 64
1, 406872, Note_off_c, 0, 55, 64
1, 406872, Note_on_c, 0, 57, 100
1, 406896, Note_off_c, 0, 57, 64
1, 406896, Note_on_c, 0, 60, 100
1, 406920, Note_off_c, 0, 60, 64
1, 406920, Note_on_c, 0, 62, 100
1, 406944, Note_off_c, 0, 62, 64
1, 406944, Note_on_c, 0, 64, 100
1, 406992, Note_on_c, 0, 60, 100
1, 406992, Note_off_c, 0, 64, 64
1, 407038, Note_off_c, 0, 60, 64
1, 407039, Pitch_bend_c, 0, 8192
1, 407039, Pitch_bend_c, 0, 8192
1, 407039, Control_c, 0, 7, 100
1, 407039, Control_c, 0, 7, 100
1, 407039, Control_c, 0, 10, 64
1, 407039, Control_c, 0, 10, 64
1, 407040, Pitch_bend_c, 0, 8192
1, 407040, Control_c, 0, 6, 12
1, 407040, Control_c, 0, 7, 100
1, 407040, Control_c, 0, 10, 64
1, 407040, Control_c, 0, 100, 0
1, 407040, Control_c, 0, 101, 0
1, 407040, Note_on_c, 0, 81, 100
1, 407048, Note_on_c, 0, 84, 100
1, 407052, Note_off_c, 0, 81, 64
1, 407052, Note_off_c, 0, 84, 64
1, 407058, Note_on_c, 0, 88, 100
1, 407059, Note_off_c, 0, 88, 64
1, 407088, Note_on_c, 0, 69, 100
1, 407100, Note_off_c, 0, 69, 64
1, 407136, Note_on_c, 0, 76, 100
1, 407148, Note_off_c, 0, 76, 64
1, 407184, Note_on_c, 0, 81, 100
1, 407196, Note_off_c, 0, 81, 64
1, 407232, Note_on_c, 0, 89, 100
1, 407233, Note_on_c, 0, 95, 100
1, 407244, Note_off_c, 0, 89, 64
1, 407244, Note_off_c, 0, 95, 64
1, 407328, Note_on_c, 0, 88, 100
1, 407329, Note_on_c, 0, 93, 100
1, 407340, Note_off_c, 0, 88, 64
1, 407340, Note_off_c, 0, 93, 64
1, 407424, Note_on_c, 0, 81, 100
1, 407432, Note_on_c, 0, 84, 100
1, 407436, Note_off_c, 0, 81, 64
1, 407436, Note_off_c, 0, 84, 64
1, 407442, Note_on_c, 0, 89, 100
1, 407443, Note_off_c, 0, 89, 64
1, 407472, Note_on_c, 0, 69, 100
1, 407484, Note_off_c, 0, 69, 64
1, 407520, Note_on_c, 0, 76, 100
1, 407532, Note_off_c, 0, 76, 64
1, 407568, Note_on_c, 0, 84, 100
1, 407580, Note_off_c, 0, 84, 64
1, 407616, Note_on_c, 0, 89, 100
1, 407617, Note_on_c, 0, 95, 100
1, 407628, Note_off_c, 0, 89, 64
1, 407628, Note_off_c, 0, 95, 64
1, 407712, Note_on_c, 0, 89, 100
1, 407713, Note_on_c, 0, 96, 100
1, 407724, Note_off_c, 0, 89, 64
1, 407724, Note_off_c, 0, 96, 64
1, 407808, Note_on_c, 0, 81, 100
1, 407816, Note_on_c, 0, 84, 100
1, 407820, Note_off_c, 0, 81, 64
1, 407820, Note_off_c, 0, 84, 64
1, 407826, Note_on_c, 0, 88, 100
1, 407827, Note_off_c, 0, 88, 64
1, 407856, Note_on_c, 0, 69, 100
1, 407868, Note_off_c, 0, 69, 64
1, 407904, Note_on_c, 0, 76, 100
1, 407904, Note_on_c, 0, 96, 100
1, 407916, Note_off_c, 0, 76, 64
1, 407916, Note_off_c, 0, 96, 64
1, 407952, Note_on_c, 0, 81, 100
1, 407952, Note_on_c, 0, 88, 100
1, 407964, Note_off_c, 0, 81, 64
1, 407964, Note_off_c, 0, 88, 64
1, 408000, Note_on_c, 0, 89, 100
1, 408001, Note_on_c, 0, 95, 100
1, 408012, Note_off_c, 0, 89, 64
1, 408012, Note_off_c, 0, 95, 64
1, 408096, Note_on_c, 0, 88, 100
1, 408097, Note_on_c, 0, 93, 100
1, 408108, Note_off_c, 0, 88, 64
1, 408108, Note_off_c, 0, 93, 64
1, 408192, Note_on_c, 0, 81, 100
1, 408200, Note_on_c, 0, 84, 100
1, 408204, Note_off_c, 0, 81, 64
1, 408204, Note_off_c, 0, 84, 64
1, 408210, Note_on_c, 0, 89, 100
1, 408211, Note_off_c, 0, 89, 64
1, 408240, Note_on_c, 0, 69, 100
1, 408252, Note_off_c, 0, 69, 64
1, 408288, Note_on_c, 0, 76, 100
1, 408300, Note_off_c, 0, 76, 64
1, 408336, Note_on_c, 0, 88, 100
1, 408348, Note_off_c, 0, 88, 64
1, 408384, Note_on_c, 0, 79, 100
1, 408392, Note_on_c, 0, 83, 100
1, 408396, Note_off_c, 0, 79, 64
1, 408396, Note_off_c, 0, 83, 64
1, 408402, Note_on_c, 0, 86, 100
1, 408403, Note_off_c, 0, 86, 64
1, 408432, Note_on_c, 0, 67, 100
1, 408444, Note_off_c, 0, 67, 64
1, 408480, Note_on_c, 0, 74, 100
1, 408480, Note_on_c, 0, 84, 100
1, 408492, Note_off_c, 0, 74, 64
1, 408492, Note_off_c, 0, 84, 64
1, 408528, Note_on_c, 0, 83, 100
1, 408540, Note_off_c, 0, 83, 64
1, 408575, Pitch_bend_c, 0, 8192
1, 408575, Pitch_bend_c, 0, 8192
1, 408575, Control_c, 0, 7, 100
1, 408575, Control_c, 0, 7, 100
1, 408575, Control_c, 0, 10, 64
1, 408575, Control_c, 0, 10, 64
1, 408576, Pitch_bend_c, 0, 8192
1, 408576, Control_c, 0, 6, 12
1, 408576, Control_c, 0, 7, 100
1, 408576, Control_c, 0, 10, 64
1, 408576, Control_c, 0, 100, 0
1, 408576, Control_c, 0, 101, 0
1, 408576, Note_on_c, 0, 78, 105
1, 408624, Note_on_c, 0, 73, 105
1, 408624, Note_off_c, 0, 78, 64
1, 408672, Note_on_c, 0, 66, 105
1, 408672, Note_off_c, 0, 73, 64
1, 408720, Note_off_c, 0, 66, 64
1, 408720, Note_on_c, 0, 78, 105
1, 408768, Note_off_c, 0, 78, 64
1, 408768, Note_on_c, 0, 82, 105
1, 408768, Note_on_c, 0, 85, 105
1, 408864, Note_off_c, 0, 82, 64
1, 408864, Note_on_c, 0, 83, 105
1, 408864, Note_off_c, 0, 85, 64
1, 408864, Note_on_c, 0, 87, 105
1, 408960, Note_on_c, 0, 78, 105
1, 408960, Note_off_c, 0, 83, 64
1, 408960, Note_off_c, 0, 87, 64
1, 409008, Note_on_c, 0, 73, 105
1, 409008, Note_off_c, 0, 78, 64
1, 409056, Note_off_c, 0, 73, 64
1, 409056, Note_on_c, 0, 78, 105
1, 409104, Note_off_c, 0, 78, 64
1, 409104, Note_on_c, 0, 80, 105
1, 409152, Note_off_c, 0, 80, 64
1, 409152, Note_on_c, 0, 83, 105
1, 409152, Note_on_c, 0, 87, 105
1, 409248, Note_on_c, 0, 82, 105
1, 409248, Note_off_c, 0, 83, 64
1, 409248, Note_on_c, 0, 85, 105
1, 409248, Note_off_c, 0, 87, 64
1, 409344, Note_on_c, 0, 78, 105
1, 409344, Note_off_c, 0, 82, 64
1, 409344, Note_off_c, 0, 85, 64
1, 409392, Note_on_c, 0, 73, 105
1, 409392, Note_off_c, 0, 78, 64
1, 409440, Note_on_c, 0, 66, 105
1, 409440, Note_off_c, 0, 73, 64
1, 409488, Note_off_c, 0, 66, 64
1, 409488, Note_on_c, 0, 78, 105
1, 409536, Note_off_c, 0, 78, 64
1, 409536, Note_on_c, 0, 82, 105
1, 409536, Note_on_c, 0, 85, 105
1, 409632, Note_off_c, 0, 82, 64
1, 409632, Note_on_c, 0, 83, 105
1, 409632, Note_off_c, 0, 85, 64
1, 409632, Note_on_c, 0, 87, 105
1, 409728, Note_on_c, 0, 82, 105
1, 409728, Note_off_c, 0, 83, 64
1, 409728, Note_on_c, 0, 85, 105
1, 409728, Note_off_c, 0, 87, 64
1, 409824, Note_on_c, 0, 80, 105
1, 409824, Note_off_c, 0, 82, 64
1, 409824, Note_on_c, 0, 83, 105
1, 409824, Note_off_c, 0, 85, 64
1, 409872, Note_on_c, 0, 73, 105
1, 409872, Note_off_c, 0, 80, 64
1, 409920, Note_off_c, 0, 73, 64
1, 409920, Note_on_c, 0, 77, 105
1, 409920, Note_on_c, 0, 80, 105
1, 409920, Note_off_c, 0, 83, 64
1, 410016, Note_on_c, 0, 73, 105
1, 410016, Note_off_c, 0, 77, 64
1, 410016, Note_on_c, 0, 78, 105
1, 410016, Note_off_c, 0, 80, 64
1, 410110, Pitch_bend_c, 0, 8192
1, 410110, Pitch_bend_c, 0, 8192
1, 410110, Control_c, 0, 7, 100
1, 410110, Control_c, 0, 7, 100
1, 410110, Control_c, 0, 10, 64
1, 410110, Control_c, 0, 10, 64
1, 410110, Note_off_c, 0, 73, 64
1, 410110, Note_off_c, 0, 78, 64
1, 410112, Pitch_bend_c, 0, 8192
1, 410112, Control_c, 0, 6, 12
1, 410112, Control_c, 0, 7, 100
1, 410112, Control_c, 0, 10, 64
1, 410112, Control_c, 0, 100, 0
1, 410112, Control_c, 0, 101, 0
1, 410112, Note_on_c, 0, 76, 105
1, 410124, Note_on_c, 0, 81, 105
1, 410136, Note_on_c, 0, 84, 105
1, 410148, Note_on_c, 0, 88, 105
1, 410160, Note_off_c, 0, 76, 64
1, 410160, Note_on_c, 0, 91, 105
1, 410172, Note_off_c, 0, 81, 64
1, 410184, Note_off_c, 0, 84, 64
1, 410196, Note_off_c, 0, 88, 64
1, 410208, Note_on_c, 0, 88, 105
1, 410208, Note_off_c, 0, 91, 64
1, 410256, Note_on_c, 0, 84, 105
1, 410256, Note_off_c, 0, 88, 64
1, 410304, Note_on_c, 0, 83, 105
1, 410304, Note_off_c, 0, 84, 64
1, 410352, Note_on_c, 0, 79, 105
1, 410352, Note_off_c, 0, 83, 64
1, 410364, Note_on_c, 0, 83, 105
1, 410376, Note_on_c, 0, 86, 105
1, 410388, Note_on_c, 0, 88, 105
1, 410400, Note_off_c, 0, 79, 64
1, 410400, Note_on_c, 0, 91, 105
1, 410412, Note_off_c, 0, 83, 64
1, 410424, Note_off_c, 0, 86, 64
1, 410436, Note_off_c, 0, 88, 64
1, 410448, Note_off_c, 0, 91, 64
1, 410496, Note_on_c, 0, 72, 105
1, 410520, Note_on_c, 0, 81, 105
1, 410532, Note_on_c, 0, 84, 105
1, 410544, Note_off_c, 0, 72, 64
1, 410544, Note_on_c, 0, 88, 105
1, 410568, Note_off_c, 0, 81, 64
1, 410580, Note_off_c, 0, 84, 64
1, 410592, Note_on_c, 0, 86, 105
1, 410592, Note_off_c, 0, 88, 64
1, 410640, Note_on_c, 0, 84, 105
1, 410640, Note_off_c, 0, 86, 64
1, 410688, Note_on_c, 0, 83, 105
1, 410688, Note_off_c, 0, 84, 64
1, 410736, Note_on_c, 0, 67, 105
1, 410736, Note_off_c, 0, 83, 64
1, 410760, Note_on_c, 0, 74, 105
1, 410772, Note_on_c, 0, 79, 105
1, 410784, Note_off_c, 0, 67, 64
1, 410784, Note_on_c, 0, 84, 105
1, 410808, Note_off_c, 0, 74, 64
1, 410820, Note_off_c, 0, 79, 64
1, 410832, Note_on_c, 0, 83, 105
1, 410832, Note_off_c, 0, 84, 64
1, 410880, Note_on_c, 0, 76, 105
1, 410880, Note_off_c, 0, 83, 64
1, 410892, Note_on_c, 0, 81, 105
1, 410904, Note_on_c, 0, 84, 105
1, 410916, Note_on_c, 0, 88, 105
1, 410928, Note_off_c, 0, 76, 64
1, 410928, Note_on_c, 0, 91, 105
1, 410940, Note_off_c, 0, 81, 64
1, 410952, Note_off_c, 0, 84, 64
1, 410964, Note_off_c, 0, 88, 64
1, 410976, Note_on_c, 0, 88, 105
1, 410976, Note_off_c, 0, 91, 64
1, 411024, Note_on_c, 0, 84, 105
1, 411024, Note_off_c, 0, 88, 64
1, 411072, Note_on_c, 0, 83, 105
1, 411072, Note_off_c, 0, 84, 64
1, 411120, Note_on_c, 0, 79, 105
1, 411120, Note_off_c, 0, 83, 64
1, 411132, Note_on_c, 0, 83, 105
1, 411144, Note_on_c, 0, 86, 105
1, 411156, Note_on_c, 0, 88, 105
1, 411168, Note_off_c, 0, 79, 64
1, 411168, Note_on_c, 0, 91, 105
1, 411180, Note_off_c, 0, 83, 64
1, 411192, Note_off_c, 0, 86, 64
1, 411204, Note_off_c, 0, 88, 64
1, 411216, Note_off_c, 0, 91, 64
1, 411264, Note_on_c, 0, 72, 105
1, 411276, Note_on_c, 0, 76, 105
1, 411288, Note_on_c, 0, 81, 105
1, 411300, Note_on_c, 0, 84, 105
1, 411312, Note_off_c, 0, 72, 64
1, 411312, Note_on_c, 0, 88, 105
1, 411324, Note_off_c, 0, 76, 64
1, 411336, Note_off_c, 0, 81, 64
1, 411348, Note_off_c, 0, 84, 64
1, 411360, Note_off_c, 0, 88, 64
1, 411360, Note_on_c, 0, 91, 105
1, 411408, Note_on_c, 0, 88, 105
1, 411408, Note_off_c, 0, 91, 64
1, 411456, Note_on_c, 0, 86, 105
1, 411456, Note_off_c, 0, 88, 64
1, 411504, Note_on_c, 0, 74, 105
1, 411504, Note_off_c, 0, 86, 64
1, 411528, Note_on_c, 0, 79, 105
1, 411552, Note_off_c, 0, 74, 64
1, 411552, Note_on_c, 0, 83, 105
1, 411552, Note_on_c, 0, 86, 105
1, 411576, Note_off_c, 0, 79, 64
1, 411600, Note_on_c, 0, 81, 105
1, 411600, Note_off_c, 0, 83, 64
1, 411600, Note_on_c, 0, 84, 105
1, 411600, Note_off_c, 0, 86, 64
1, 411647, Pitch_bend_c, 0, 8192
1, 411647, Pitch_bend_c, 0, 8192
1, 411647, Control_c, 0, 7, 100
1, 411647, Control_c, 0, 7, 100
1, 411647, Control_c, 0, 10, 64
1, 411647, Control_c, 0, 10, 64
1, 411647, Note_off_c, 0, 81, 64
1, 411647, Note_off_c, 0, 84, 64
1, 411648, Pitch_bend_c, 0, 8192
1, 411648, Control_c, 0, 6, 12
1, 411648, Control_c, 0, 7, 100
1, 411648, Control_c, 0, 10, 64
1, 411648, Control_c, 0, 100, 0
1, 411648, Control_c, 0, 101, 0
1, 411648, Note_on_c, 0, 57, 127
1, 411720, Note_off_c, 0, 57, 64
1, 411720, Note_on_c, 0, 69, 127
1, 411744, Note_on_c, 0, 57, 127
1, 411744, Note_off_c, 0, 69, 64
1, 411792, Note_off_c, 0, 57, 64
1, 411792, Note_on_c, 0, 69, 127
1, 411840, Note_on_c, 0, 57, 127
1, 411840, Note_off_c, 0, 69, 64
1, 411912, Note_off_c, 0, 57, 64
1, 411912, Note_on_c, 0, 69, 127
1, 411936, Note_on_c, 0, 57, 127
1, 411936, Note_off_c, 0, 69, 64
1, 411984, Note_off_c, 0, 57, 64
1, 411984, Note_on_c, 0, 69, 127
1, 412032, Note_on_c, 0, 52, 127
1, 412032, Note_off_c, 0, 69, 64
1, 412104, Note_off_c, 0, 52, 64
1, 412104, Note_on_c, 0, 60, 127
1, 412128, Note_on_c, 0, 52, 127
1, 412128, Note_off_c, 0, 60, 64
1, 412176, Note_off_c, 0, 52, 64
1, 412176, Note_on_c, 0, 60, 127
1, 412224, Note_on_c, 0, 52, 127
1, 412224, Note_off_c, 0, 60, 64
1, 412272, Note_off_c, 0, 52, 64
1, 412272, Note_on_c, 0, 60, 127
1, 412296, Note_off_c, 0, 60, 64
1, 412296, Note_on_c, 0, 71, 127
1, 412320, Note_on_c, 0, 59, 127
1, 412320, Note_off_c, 0, 71, 64
1, 412344, Note_off_c, 0, 59, 64
1, 412344, Note_on_c, 0, 67, 127
1, 412368, Note_off_c, 0, 67, 64
1, 412368, Note_on_c, 0, 69, 127
1, 412392, Note_on_c, 0, 64, 127
1, 412392, Note_off_c, 0, 69, 64
1, 412416, Note_on_c, 0, 57, 127
1, 412416, Note_off_c, 0, 64, 64
1, 412488, Note_off_c, 0, 57, 64
1, 412488, Note_on_c, 0, 69, 127
1, 412512, Note_on_c, 0, 57, 127
1, 412512, Note_off_c, 0, 69, 64
1, 412560, Note_off_c, 0, 57, 64
1, 412560, Note_on_c, 0, 69, 127
1, 412608, Note_on_c, 0, 57, 127
1, 412608, Note_off_c, 0, 69, 64
1, 412680, Note_off_c, 0, 57, 64
1, 412680, Note_on_c, 0, 69, 127
1, 412704, Note_on_c, 0, 57, 127
1, 412704, Note_off_c, 0, 69, 64
1, 412752, Note_off_c, 0, 57, 64
1, 412752, Note_on_c, 0, 69, 127
1, 412800, Note_on_c, 0, 52, 127
1, 412800, Note_off_c, 0, 69, 64
1, 412872, Note_off_c, 0, 52, 64
1, 412872, Note_on_c, 0, 60, 127
1, 412896, Note_on_c, 0, 52, 127
1, 412896, Note_off_c, 0, 60, 64
1, 412944, Note_off_c, 0, 52, 64
1, 412944, Note_on_c, 0, 60, 127
1, 412992, Note_on_c, 0, 52, 127
1, 412992, Note_off_c, 0, 60, 64
1, 413016, Note_off_c, 0, 52, 64
1, 413016, Note_on_c, 0, 72, 127
1, 413040, Note_on_c, 0, 60, 127
1, 413040, Note_off_c, 0, 72, 64
1, 413064, Note_off_c, 0, 60, 64
1, 413064, Note_on_c, 0, 71, 127
1, 413088, Note_on_c, 0, 55, 127
1, 413088, Note_off_c, 0, 71, 64
1, 413112, Note_off_c, 0, 55, 64
1, 413112, Note_on_c, 0, 64, 127
1, 413136, Note_off_c, 0, 64, 64
1, 413136, Note_on_c, 0, 69, 127
1, 413183, Pitch_bend_c, 0, 8192
1, 413183, Pitch_bend_c, 0, 8192
1, 413183, Control_c, 0, 7, 100
1, 413183, Control_c, 0, 7, 100
1, 413183, Control_c, 0, 10, 64
1, 413183, Control_c, 0, 10, 64
1, 413183, Note_off_c, 0, 69, 64
1, 413184, Pitch_bend_c, 0, 8192
1, 413184, Control_c, 0, 6, 12
1, 413184, Control_c, 0, 7, 100
1, 413184, Control_c, 0, 10, 64
1, 413184, Control_c, 0, 100, 0
1, 413184, Control_c, 0, 101, 0
1, 413184, Note_on_c, 0, 57, 127
1, 413232, Note_off_c, 0, 57, 64
1, 413280, Note_on_c, 0, 57, 127
1, 413328, Note_off_c, 0, 57, 64
1, 413328, Note_on_c, 0, 60, 127
1, 413376, Note_off_c, 0, 60, 64
1, 413376, Note_on_c, 0, 67, 127
1, 413424, Note_off_c, 0, 67, 64
1, 413448, Note_on_c, 0, 64, 127
1, 413496, Note_off_c, 0, 64, 64
1, 413520, Note_on_c, 0, 60, 127
1, 413568, Note_off_c, 0, 60, 64
1, 413664, Note_on_c, 0, 55, 127
1, 413712, Note_off_c, 0, 55, 64
1, 413712, Note_on_c, 0, 60, 127
1, 413760, Note_off_c, 0, 60, 64
1, 413760, Note_on_c, 0, 69, 127
1, 413808, Note_off_c, 0, 69, 64
1, 413832, Note_on_c, 0, 67, 127
1, 413880, Note_off_c, 0, 67, 64
1, 413904, Note_on_c, 0, 64, 127
1, 413952, Note_on_c, 0, 57, 127
1, 413952, Note_off_c, 0, 64, 64
1, 414000, Note_off_c, 0, 57, 64
1, 414048, Note_on_c, 0, 57, 127
1, 414096, Note_off_c, 0, 57, 64
1, 414096, Note_on_c, 0, 60, 127
1, 414144, Note_off_c, 0, 60, 64
1, 414144, Note_on_c, 0, 67, 127
1, 414192, Note_off_c, 0, 67, 64
1, 414216, Note_on_c, 0, 64, 127
1, 414264, Note_off_c, 0, 64, 64
1, 414288, Note_on_c, 0, 60, 127
1, 414336, Note_off_c, 0, 60, 64
1, 414336, Note_on_c, 0, 72, 127
1, 414384, Note_off_c, 0, 72, 64
1, 414408, Note_on_c, 0, 71, 127
1, 414456, Note_off_c, 0, 71, 64
1, 414480, Note_on_c, 0, 67, 127
1, 414528, Note_off_c, 0, 67, 64
1, 414576, Note_on_c, 0, 64, 127
1, 414624, Note_off_c, 0, 64, 64
1, 414719, Pitch_bend_c, 0, 8192
1, 414719, Pitch_bend_c, 0, 8192
1, 414719, Control_c, 0, 7, 100
1, 414719, Control_c, 0, 7, 100
1, 414719, Control_c, 0, 10, 64
1, 414719, Control_c, 0, 10, 64
1, 414720, Pitch_bend_c, 0, 8192
1, 414720, Control_c, 0, 6, 12
1, 414720, Control_c, 0, 7, 100
1, 414720, Control_c, 0, 10, 64
1, 414720, Control_c, 0, 100, 0
1, 414720, Control_c, 0, 101, 0
1, 414720, Note_on_c, 0, 52, 127
1, 414768, Note_off_c, 0, 52, 64
1, 414816, Note_on_c, 0, 52, 127
1, 414864, Note_off_c, 0, 52, 64
1, 414888, Note_on_c, 0, 52, 127
1, 414936, Note_off_c, 0, 52, 64
1, 414960, Note_on_c, 0, 52, 127
1, 415008, Note_off_c, 0, 52, 64
1, 415032, Note_on_c, 0, 52, 127
1, 415080, Note_off_c, 0, 52, 64
1, 415104, Note_on_c, 0, 60, 127
1, 415152, Note_off_c, 0, 60, 64
1, 415200, Note_on_c, 0, 60, 127
1, 415248, Note_off_c, 0, 60, 64
1, 415272, Note_on_c, 0, 57, 127
1, 415320, Note_off_c, 0, 57, 64
1, 415344, Note_on_c, 0, 57, 127
1, 415392, Note_off_c, 0, 57, 64
1, 415416, Note_on_c, 0, 57, 127
1, 415464, Note_off_c, 0, 57, 64
1, 415488, Note_on_c, 0, 52, 127
1, 415536, Note_off_c, 0, 52, 64
1, 415584, Note_on_c, 0, 52, 127
1, 415632, Note_off_c, 0, 52, 64
1, 415656, Note_on_c, 0, 52, 127
1, 415704, Note_off_c, 0, 52, 64
1, 415728, Note_on_c, 0, 52, 127
1, 415776, Note_off_c, 0, 52, 64
1, 415800, Note_on_c, 0, 52, 127
1, 415848, Note_off_c, 0, 52, 64
1, 415872, Note_on_c, 0, 60, 127
1, 415920, Note_off_c, 0, 60, 64
1, 415968, Note_on_c, 0, 60, 127
1, 416016, Note_off_c, 0, 60, 64
1, 416016, Note_on_c, 0, 62, 127
1, 416040, Note_on_c, 0, 57, 127
1, 416040, Note_off_c, 0, 62, 64
1, 416088, Note_off_c, 0, 57, 64
1, 416112, Note_on_c, 0, 57, 127
1, 416160, Note_off_c, 0, 57, 64
1, 416184, Note_on_c, 0, 55, 127
1, 416232, Note_off_c, 0, 55, 64
1, 416255, Pitch_bend_c, 0, 8192
1, 416255, Pitch_bend_c, 0, 8192
1, 416255, Control_c, 0, 7, 100
1, 416255, Control_c, 0, 7, 100
1, 416255, Control_c, 0, 10, 64
1, 416255, Control_c, 0, 10, 64
1, 416256, Pitch_bend_c, 0, 8192
1, 416256, Control_c, 0, 6, 12
1, 416256, Control_c, 0, 7, 100
1, 416256, Control_c, 0, 10, 64
1, 416256, Control_c, 0, 100, 0
1, 416256, Control_c, 0, 101, 0
1, 416256, Note_on_c, 0, 45, 100
1, 416304, Note_off_c, 0, 45, 64
1, 416352, Note_on_c, 0, 57, 100
1, 416400, Note_off_c, 0, 57, 64
1, 416496, Note_on_c, 0, 45, 100
1, 416544, Note_off_c, 0, 45, 64
1, 416544, Note_on_c, 0, 57, 100
1, 416592, Note_off_c, 0, 57, 64
1, 416640, Note_on_c, 0, 41, 100
1, 416688, Note_off_c, 0, 41, 64
1, 416688, Note_on_c, 0, 53, 100
1, 416736, Note_off_c, 0, 53, 64
1, 416784, Note_on_c, 0, 41, 100
1, 416832, Note_off_c, 0, 41, 64
1, 416832, Note_on_c, 0, 53, 100
1, 416880, Note_off_c, 0, 53, 64
1, 416928, Note_on_c, 0, 41, 100
1, 416976, Note_off_c, 0, 41, 64
1, 416976, Note_on_c, 0, 53, 100
1, 417024, Note_on_c, 0, 43, 100
1, 417024, Note_off_c, 0, 53, 64
1, 417072, Note_off_c, 0, 43, 64
1, 417120, Note_on_c, 0, 55, 100
1, 417168, Note_off_c, 0, 55, 64
1, 417216, Note_on_c, 0, 43, 100
1, 417264, Note_off_c, 0, 43, 64
1, 417264, Note_on_c, 0, 55, 100
1, 417312, Note_off_c, 0, 55, 64
1, 417360, Note_on_c, 0, 43, 100
1, 417408, Note_on_c, 0, 40, 100
1, 417408, Note_off_c, 0, 43, 64
1, 417456, Note_off_c, 0, 40, 64
1, 417504, Note_on_c, 0, 52, 100
1, 417552, Note_on_c, 0, 40, 100
1, 417552, Note_off_c, 0, 52, 64
1, 417600, Note_off_c, 0, 40, 64
1, 417648, Note_on_c, 0, 52, 100
1, 417696, Note_off_c, 0, 52, 64
1, 417744, Note_on_c, 0, 40, 100
1, 417791, Pitch_bend_c, 0, 8192
1, 417791, Pitch_bend_c, 0, 8192
1, 417791, Control_c, 0, 7, 100
1, 417791, Control_c, 0, 7, 100
1, 417791, Control_c, 0, 10, 64
1, 417791, Control_c, 0, 10, 64
1, 417791, Note_off_c, 0, 40, 64
1, 417792, Pitch_bend_c, 0, 8192
1, 417792, Control_c, 0, 6, 12
1, 417792, Control_c, 0, 7, 100
1, 417792, Control_c, 0, 10, 64
1, 417792, Control_c, 0, 100, 0
1, 417792, Control_c, 0, 101, 0
1, 417792, Note_on_c, 0, 64, 100
1, 417792, Note_on_c, 0, 69, 100
1, 417792, Note_on_c, 0, 76, 100
1, 417792, Note_on_c, 0, 81, 100
1, 417840, Note_off_c, 0, 64, 64
1, 417840, Note_off_c, 0, 69, 64
1, 417840, Note_on_c, 0, 72, 100
1, 417840, Note_off_c, 0, 76, 64
1, 417840, Note_off_c, 0, 81, 64
1, 417888, Note_on_c, 0, 57, 100
1, 417888, Note_off_c, 0, 72, 64
1, 417936, Note_off_c, 0, 57, 64
1, 417936, Note_on_c, 0, 83, 100
1, 417984, Note_on_c, 0, 72, 100
1, 417984, Note_off_c, 0, 83, 64
1, 418032, Note_on_c, 0, 57, 100
1, 418032, Note_off_c, 0, 72, 64
1, 418080, Note_off_c, 0, 57, 64
1, 418080, Note_on_c, 0, 81, 100
1, 418128, Note_on_c, 0, 57, 100
1, 418128, Note_off_c, 0, 81, 64
1, 418176, Note_off_c, 0, 57, 64
1, 418176, Note_on_c, 0, 62, 100
1, 418176, Note_on_c, 0, 67, 100
1, 418176, Note_on_c, 0, 74, 100
1, 418224, Note_off_c, 0, 62, 64
1, 418224, Note_off_c, 0, 67, 64
1, 418224, Note_on_c, 0, 71, 100
1, 418224, Note_off_c, 0, 74, 64
1, 418272, Note_on_c, 0, 55, 100
1, 418272, Note_off_c, 0, 71, 64
1, 418320, Note_off_c, 0, 55, 64
1, 418320, Note_on_c, 0, 79, 100
1, 418368, Note_on_c, 0, 62, 100
1, 418368, Note_off_c, 0, 79, 64
1, 418416, Note_off_c, 0, 62, 64
1, 418416, Note_on_c, 0, 76, 100
1, 418464, Note_on_c, 0, 59, 100
1, 418464, Note_off_c, 0, 76, 64
1, 418512, Note_on_c, 0, 55, 100
1, 418512, Note_off_c, 0, 59, 64
1, 418560, Note_off_c, 0, 55, 64
1, 418560, Note_on_c, 0, 65, 100
1, 418560, Note_on_c, 0, 69, 100
1, 418560, Note_on_c, 0, 77, 100
1, 418608, Note_off_c, 0, 65, 64
1, 418608, Note_off_c, 0, 69, 64
1, 418608, Note_on_c, 0, 72, 100
1, 418608, Note_off_c, 0, 77, 64
1, 418656, Note_on_c, 0, 57, 100
1, 418656, Note_off_c, 0, 72, 64
1, 418704, Note_off_c, 0, 57, 64
1, 418704, Note_on_c, 0, 81, 100
1, 418752, Note_on_c, 0, 72, 100
1, 418752, Note_off_c, 0, 81, 64
1, 418800, Note_on_c, 0, 57, 100
1, 418800, Note_off_c, 0, 72, 64
1, 418848, Note_off_c, 0, 57, 64
1, 418848, Note_on_c, 0, 84, 100
1, 418896, Note_on_c, 0, 57, 100
1, 418896, Note_off_c, 0, 84, 64
1, 418944, Note_off_c, 0, 57, 64
1, 418944, Note_on_c, 0, 64, 100
1, 418944, Note_on_c, 0, 68, 100
1, 418944, Note_on_c, 0, 71, 100
1, 418944, Note_on_c, 0, 76, 100
1, 418992, Note_on_c, 0, 59, 100
1, 418992, Note_off_c, 0, 64, 64
1, 418992, Note_off_c, 0, 68, 64
1, 418992, Note_off_c, 0, 71, 64
1, 418992, Note_off_c, 0, 76, 64
1, 419040, Note_off_c, 0, 59, 64
1, 419040, Note_on_c, 0, 77, 100
1, 419088, Note_on_c, 0, 76, 100
1, 419088, Note_off_c, 0, 77, 64
1, 419136, Note_on_c, 0, 59, 100
1, 419136, Note_off_c, 0, 76, 64
1, 419184, Note_on_c, 0, 52, 100
1, 419184, Note_off_c, 0, 59, 64
1, 419232, Note_off_c, 0, 52, 64
1, 419232, Note_on_c, 0, 80, 100
1, 419280, Note_on_c, 0, 68, 100
1, 419280, Note_off_c, 0, 80, 64
1, 419327, Note_off_c, 0, 68, 64
1, 419328, Pitch_bend_c, 0, 8192
1, 419328, Control_c, 0, 6, 12
1, 419328, Control_c, 0, 7, 100
1, 419328, Control_c, 0, 10, 64
1, 419328, Control_c, 0, 100, 0
1, 419328, Control_c, 0, 101, 0
1, 419328, Note_on_c, 0, 64, 67
1, 419331, Note_on_c, 0, 69, 83
1, 419336, Note_on_c, 0, 72, 100
1, 419376, Note_off_c, 0, 64, 64
1, 419376, Note_off_c, 0, 69, 64
1, 419376, Note_off_c, 0, 72, 64
1, 419472, Note_on_c, 0, 69, 100
1, 419520, Note_off_c, 0, 69, 64
1, 419568, Note_on_c, 0, 72, 100
1, 419616, Note_on_c, 0, 62, 67
1, 419616, Note_off_c, 0, 72, 64
1, 419619, Note_on_c, 0, 67, 83
1, 419624, Note_on_c, 0, 71, 100
1, 419664, Note_off_c, 0, 62, 64
1, 419664, Note_off_c, 0, 67, 64
1, 419664, Note_off_c, 0, 71, 64
1, 419808, Note_on_c, 0, 67, 100
1, 419856, Note_off_c, 0, 67, 64
1, 419856, Note_on_c, 0, 71, 47
1, 419861, Note_on_c, 0, 76, 100
1, 419888, Note_off_c, 0, 71, 64
1, 419904, Note_on_c, 0, 74, 100
1, 419904, Note_off_c, 0, 76, 64
1, 419952, Note_on_c, 0, 72, 100
1, 419952, Note_off_c, 0, 74, 64
1, 420000, Note_on_c, 0, 71, 100
1, 420000, Note_off_c, 0, 72, 64
1, 420048, Note_off_c, 0, 71, 64
1, 420048, Note_on_c, 0, 72, 100
1, 420096, Note_on_c, 0, 60, 67
1, 420096, Note_off_c, 0, 72, 64
1, 420099, Note_on_c, 0, 64, 83
1, 420104, Note_on_c, 0, 69, 100
1, 420144, Note_off_c, 0, 60, 64
1, 420144, Note_off_c, 0, 64, 64
1, 420144, Note_off_c, 0, 69, 64
1, 420240, Note_on_c, 0, 64, 67
1, 420243, Note_on_c, 0, 69, 83
1, 420248, Note_on_c, 0, 72, 100
1, 420288, Note_off_c, 0, 64, 64
1, 420288, Note_off_c, 0, 69, 64
1, 420288, Note_on_c, 0, 71, 100
1, 420288, Note_off_c, 0, 72, 64
1, 420336, Note_on_c, 0, 69, 100
1, 420336, Note_off_c, 0, 71, 64
1, 420384, Note_on_c, 0, 59, 67
1, 420384, Note_off_c, 0, 69, 64
1, 420387, Note_on_c, 0, 62, 83
1, 420392, Note_on_c, 0, 67, 100
1, 420432, Note_off_c, 0, 59, 64
1, 420432, Note_off_c, 0, 62, 64
1, 420432, Note_off_c, 0, 67, 64
1, 420528, Note_on_c, 0, 64, 100
1, 420576, Note_off_c, 0, 64, 64
1, 420624, Note_on_c, 0, 62, 100
1, 420672, Note_on_c, 0, 60, 100
1, 420672, Note_off_c, 0, 62, 64
1, 420720, Note_off_c, 0, 60, 64
1, 420768, Note_on_c, 0, 60, 53
1, 420774, Note_off_c, 0, 60, 64
1, 420774, Note_on_c, 0, 64, 100
1, 420816, Note_off_c, 0, 64, 64
1, 420863, Pitch_bend_c, 0, 8192
1, 420863, Pitch_bend_c, 0, 8192
1, 420863, Control_c, 0, 7, 100
1, 420863, Control_c, 0, 7, 100
1, 420863, Control_c, 0, 10, 64
1, 420863, Control_c, 0, 10, 64
1, 420864, Pitch_bend_c, 0, 8192
1, 420864, Control_c, 0, 6, 12
1, 420864, Control_c, 0, 7, 100
1, 420864, Control_c, 0, 10, 64
1, 420864, Control_c, 0, 100, 0
1, 420864, Control_c, 0, 101, 0
1, 420864, Note_on_c, 0, 57, 100
1, 420864, Note_on_c, 0, 60, 100
1, 420864, Note_on_c, 0, 67, 100
1, 420912, Note_off_c, 0, 57, 64
1, 420912, Note_off_c, 0, 60, 64
1, 420912, Note_off_c, 0, 67, 64
1, 421008, Note_on_c, 0, 52, 100
1, 421008, Note_on_c, 0, 60, 100
1, 421008, Note_on_c, 0, 64, 100
1, 421056, Note_off_c, 0, 52, 64
1, 421056, Note_off_c, 0, 60, 64
1, 421056, Note_off_c, 0, 64, 64
1, 421152, Note_on_c, 0, 54, 100
1, 421152, Note_on_c, 0, 57, 100
1, 421152, Note_on_c, 0, 62, 100
1, 421200, Note_off_c, 0, 54, 64
1, 421200, Note_off_c, 0, 57, 64
1, 421200, Note_off_c, 0, 62, 64
1, 421632, Note_on_c, 0, 57, 100
1, 421632, Note_on_c, 0, 60, 100
1, 421632, Note_on_c, 0, 67, 100
1, 421680, Note_off_c, 0, 57, 64
1, 421680, Note_off_c, 0, 60, 64
1, 421680, Note_off_c, 0, 67, 64
1, 421776, Note_on_c, 0, 52, 100
1, 421776, Note_on_c, 0, 60, 100
1, 421776, Note_on_c, 0, 64, 100
1, 421824, Note_off_c, 0, 52, 64
1, 421824, Note_off_c, 0, 60, 64
1, 421824, Note_off_c, 0, 64, 64
1, 421920, Note_on_c, 0, 54, 100
1, 421920, Note_on_c, 0, 57, 100
1, 421920, Note_on_c, 0, 62, 100
1, 421968, Note_off_c, 0, 54, 64
1, 421968, Note_off_c, 0, 57, 64
1, 421968, Note_off_c, 0, 62, 64
1, 422064, Note_on_c, 0, 52, 100
1, 422064, Note_on_c, 0, 55, 100
1, 422064, Note_on_c, 0, 60, 100
1, 422112, Note_off_c, 0, 52, 64
1, 422112, Note_off_c, 0, 55, 64
1, 422112, Note_off_c, 0, 60, 64
1, 422208, Note_on_c, 0, 55, 100
1, 422208, Note_on_c, 0, 57, 100
1, 422208, Note_on_c, 0, 62, 100
1, 422256, Note_off_c, 0, 55, 64
1, 422256, Note_off_c, 0, 57, 64
1, 422256, Note_off_c, 0, 62, 64
1, 422304, Note_on_c, 0, 54, 100
1, 422304, Note_on_c, 0, 57, 100
1, 422304, Note_on_c, 0, 64, 100
1, 422352, Note_off_c, 0, 54, 64
1, 422352, Note_off_c, 0, 57, 64
1, 422352, Note_off_c, 0, 64, 64
1, 422399, Pitch_bend_c, 0, 8192
1, 422399, Pitch_bend_c, 0, 8192
1, 422399, Control_c, 0, 7, 100
1, 422399, Control_c, 0, 7, 100
1, 422399, Control_c, 0, 10, 64
1, 422399, Control_c, 0, 10, 64
1, 422400, Pitch_bend_c, 0, 8192
1, 422400, Control_c, 0, 6, 12
1, 422400, Control_c, 0, 7, 100
1, 422400, Control_c, 0, 10, 64
1, 422400, Control_c, 0, 100, 0
1, 422400, Control_c, 0, 101, 0
1, 422400, Note_on_c, 0, 76, 100
1, 422400, Note_on_c, 0, 81, 100
1, 422400, Note_on_c, 0, 84, 100
1, 422496, Note_on_c, 0, 69, 100
1, 422496, Note_off_c, 0, 76, 64
1, 422496, Note_off_c, 0, 81, 64
1, 422496, Note_off_c, 0, 84, 64
1, 422544, Note_off_c, 0, 69, 64
1, 422544, Note_on_c, 0, 79, 100
1, 422640, Note_off_c, 0, 79, 64
1, 422688, Note_on_c, 0, 76, 100
1, 422784, Note_on_c, 0, 72, 100
1, 422784, Note_off_c, 0, 76, 64
1, 422880, Note_off_c, 0, 72, 64
1, 422928, Note_on_c, 0, 81, 100
1, 423024, Note_off_c, 0, 81, 64
1, 423072, Note_on_c, 0, 79, 100
1, 423072, Note_on_c, 0, 83, 100
1, 423072, Note_on_c, 0, 86, 100
1, 423120, Note_off_c, 0, 79, 64
1, 423120, Note_off_c, 0, 83, 64
1, 423120, Note_off_c, 0, 86, 64
1, 423168, Note_on_c, 0, 76, 100
1, 423168, Note_on_c, 0, 81, 100
1, 423168, Note_on_c, 0, 84, 100
1, 423264, Note_off_c, 0, 76, 64
1, 423264, Note_off_c, 0, 81, 64
1, 423264, Note_off_c, 0, 84, 64
1, 423312, Note_on_c, 0, 79, 100
1, 423408, Note_off_c, 0, 79, 64
1, 423456, Note_on_c, 0, 76, 100
1, 423552, Note_on_c, 0, 72, 100
1, 423552, Note_off_c, 0, 76, 64
1, 423648, Note_on_c, 0, 69, 100
1, 423648, Note_off_c, 0, 72, 64
1, 423696, Note_off_c, 0, 69, 64
1, 423696, Note_on_c, 0, 76, 100
1, 423696, Note_on_c, 0, 81, 100
1, 423696, Note_on_c, 0, 84, 100
1, 423792, Note_off_c, 0, 76, 64
1, 423792, Note_on_c, 0, 79, 100
1, 423792, Note_off_c, 0, 81, 64
1, 423792, Note_on_c, 0, 83, 100
1, 423792, Note_off_c, 0, 84, 64
1, 423792, Note_on_c, 0, 86, 100
1, 423888, Note_on_c, 0, 76, 100
1, 423888, Note_off_c, 0, 79, 64
1, 423888, Note_on_c, 0, 81, 100
1, 423888, Note_off_c, 0, 83, 64
1, 423888, Note_on_c, 0, 84, 100
1, 423888, Note_off_c, 0, 86, 64
1, 423924, Note_off_c, 0, 76, 64
1, 423924, Note_off_c, 0, 81, 64
1, 423924, Note_off_c, 0, 84, 64
1, 423936, Pitch_bend_c, 0, 8192
1, 423936, Control_c, 0, 6, 12
1, 423936, Control_c, 0, 7, 100
1, 423936, Control_c, 0, 10, 64
1, 423936, Control_c, 0, 100, 0
1, 423936, Control_c, 0, 101, 0
1, 423936, Note_on_c, 0, 72, 104
1, 424032, Note_off_c, 0, 72, 64
1, 424080, Note_on_c, 0, 67, 96
1, 424128, Note_off_c, 0, 67, 64
1, 424128, Note_on_c, 0, 72, 98
1, 424176, Note_off_c, 0, 72, 64
1, 424224, Note_on_c, 0, 74, 97
1, 424272, Note_on_c, 0, 72, 96
1, 424272, Note_off_c, 0, 74, 64
1, 424368, Note_off_c, 0, 72, 64
1, 424416, Note_on_c, 0, 76, 99
1, 424464, Note_on_c, 0, 74, 99
1, 424464, Note_off_c, 0, 76, 64
1, 424512, Note_on_c, 0, 72, 97
1, 424512, Note_off_c, 0, 74, 64
1, 424560, Note_on_c, 0, 71, 94
1, 424560, Note_off_c, 0, 72, 64
1, 424656, Note_off_c, 0, 71, 64
1, 424656, Note_on_c, 0, 72, 97
1, 424680, Note_on_c, 0, 71, 96
1, 424680, Note_off_c, 0, 72, 64
1, 424704, Note_on_c, 0, 69, 101
1, 424704, Note_off_c, 0, 71, 64
1, 424800, Note_off_c, 0, 69, 64
1, 424848, Note_on_c, 0, 64, 100
1, 424896, Note_off_c, 0, 64, 64
1, 424896, Note_on_c, 0, 69, 100
1, 424944, Note_off_c, 0, 69, 64
1, 424992, Note_on_c, 0, 70, 104
1, 425040, Note_on_c, 0, 69, 101
1, 425040, Note_off_c, 0, 70, 64
1, 425136, Note_off_c, 0, 69, 64
1, 425184, Note_on_c, 0, 72, 105
1, 425232, Note_on_c, 0, 69, 99
1, 425232, Note_off_c, 0, 72, 64
1, 425280, Note_on_c, 0, 64, 98
1, 425280, Note_off_c, 0, 69, 64
1, 425376, Note_off_c, 0, 64, 64
1, 425376, Note_on_c, 0, 67, 103
1, 425400, Note_on_c, 0, 64, 105
1, 425400, Note_off_c, 0, 67, 64
1, 425424, Note_off_c, 0, 64, 64
1, 425424, Note_on_c, 0, 67, 96
1, 425448, Note_off_c, 0, 67, 64
1, 425448, Note_on_c, 0, 69, 99
1, 425472, Pitch_bend_c, 0, 8192
1, 425472, Control_c, 0, 6, 12
1, 425472, Control_c, 0, 7, 100
1, 425472, Control_c, 0, 10, 64
1, 425472, Control_c, 0, 100, 0
1, 425472, Control_c, 0, 101, 0
1, 425472, Note_off_c, 0, 69, 64
1, 425472, Note_on_c, 0, 76, 100
1, 425568, Note_off_c, 0, 76, 64
1, 425616, Note_on_c, 0, 77, 100
1, 425712, Note_off_c, 0, 77, 64
1, 425760, Note_on_c, 0, 76, 100
1, 425856, Note_off_c, 0, 76, 64
1, 425904, Note_on_c, 0, 74, 100
1, 425952, Note_on_c, 0, 72, 100
1, 425952, Note_off_c, 0, 74, 64
1, 426000, Note_off_c, 0, 72, 64
1, 426000, Note_on_c, 0, 74, 100
1, 426006, Note_off_c, 0, 74, 64
1, 426006, Note_on_c, 0, 76, 100
1, 426048, Note_on_c, 0, 74, 100
1, 426048, Note_off_c, 0, 76, 64
1, 426096, Note_on_c, 0, 72, 100
1, 426096, Note_off_c, 0, 74, 64
1, 426144, Note_on_c, 0, 71, 100
1, 426144, Note_off_c, 0, 72, 64
1, 426240, Note_off_c, 0, 71, 64
1, 426288, Note_on_c, 0, 69, 100
1, 426336, Note_off_c, 0, 69, 64
1, 426336, Note_on_c, 0, 71, 100
1, 426384, Note_off_c, 0, 71, 64
1, 426384, Note_on_c, 0, 72, 100
1, 426480, Note_off_c, 0, 72, 64
1, 426528, Note_on_c, 0, 79, 100
1, 426624, Note_on_c, 0, 77, 100
1, 426624, Note_off_c, 0, 79, 64
1, 426672, Note_on_c, 0, 76, 100
1, 426672, Note_off_c, 0, 77, 64
1, 426720, Note_off_c, 0, 76, 64
1, 426768, Note_on_c, 0, 74, 100
1, 426816, Note_off_c, 0, 74, 64
1, 426864, Note_on_c, 0, 76, 100
1, 426888, Note_on_c, 0, 74, 100
1, 426888, Note_off_c, 0, 76, 64
1, 426912, Note_on_c, 0, 72, 100
1, 426912, Note_off_c, 0, 74, 64
1, 427008, Pitch_bend_c, 0, 8192
1, 427008, Control_c, 0, 6, 12
1, 427008, Control_c, 0, 7, 100
1, 427008, Control_c, 0, 10, 64
1, 427008, Control_c, 0, 100, 0
1, 427008, Control_c, 0, 101, 0
1, 427008, Note_off_c, 0, 72, 64
1, 427008, Note_on_c, 0, 76, 106
1, 427104, Note_off_c, 0, 76, 64
1, 427104, Note_on_c, 0, 76, 105
1, 427200, Note_off_c, 0, 76, 64
1, 427248, Note_on_c, 0, 76, 101
1, 427344, Note_on_c, 0, 72, 104
1, 427344, Note_off_c, 0, 76, 64
1, 427392, Note_off_c, 0, 72, 64
1, 427392, Note_on_c, 0, 79, 102
1, 427488, Note_off_c, 0, 79, 64
1, 427488, Note_on_c, 0, 79, 103
1, 427584, Note_off_c, 0, 79, 64
1, 427632, Note_on_c, 0, 79, 104
1, 427728, Note_on_c, 0, 74, 107
1, 427728, Note_off_c, 0, 79, 64
1, 427776, Note_on_c, 0, 72, 101
1, 427776, Note_off_c, 0, 74, 64
1, 427872, Note_off_c, 0, 72, 64
1, 427872, Note_on_c, 0, 72, 105
1, 427968, Note_off_c, 0, 72, 64
1, 428016, Note_on_c, 0, 72, 108
1, 428112, Note_on_c, 0, 71, 109
1, 428112, Note_off_c, 0, 72, 64
1, 428160, Note_off_c, 0, 71, 64
1, 428160, Note_on_c, 0, 72, 104
1, 428256, Note_off_c, 0, 72, 64
1, 428256, Note_on_c, 0, 72, 106
1, 428352, Note_off_c, 0, 72, 64
1, 428400, Note_on_c, 0, 72, 101
1, 428496, Note_off_c, 0, 72, 64
1, 428496, Note_on_c, 0, 74, 107
1, 428543, Note_off_c, 0, 74, 64
1, 428544, Pitch_bend_c, 0, 8192
1, 428544, Control_c, 0, 6, 12
1, 428544, Control_c, 0, 7, 100
1, 428544, Control_c, 0, 10, 64
1, 428544, Control_c, 0, 100, 0
1, 428544, Control_c, 0, 101, 0
1, 428544, Note_on_c, 0, 81, 107
1, 428736, Note_off_c, 0, 81, 64
1, 428784, Note_on_c, 0, 81, 101
1, 428832, Note_off_c, 0, 81, 64
1, 428832, Note_on_c, 0, 84, 106
1, 428880, Note_off_c, 0, 84, 64
1, 428880, Note_on_c, 0, 88, 107
1, 428928, Note_on_c, 0, 84, 104
1, 428928, Note_off_c, 0, 88, 64
1, 428976, Note_off_c, 0, 84, 64
1, 428976, Note_on_c, 0, 86, 102
1, 429024, Note_off_c, 0, 86, 64
1, 429072, Note_on_c, 0, 81, 103
1, 429120, Note_off_c, 0, 81, 64
1, 429168, Note_on_c, 0, 84, 102
1, 429216, Note_off_c, 0, 84, 64
1, 429264, Note_on_c, 0, 83, 105
1, 429312, Note_on_c, 0, 81, 102
1, 429312, Note_off_c, 0, 83, 64
1, 429360, Note_on_c, 0, 79, 102
1, 429360, Note_off_c, 0, 81, 64
1, 429408, Note_on_c, 0, 76, 103
1, 429408, Note_off_c, 0, 79, 64
1, 429456, Note_off_c, 0, 76, 64
1, 429552, Note_on_c, 0, 74, 104
1, 429600, Note_off_c, 0, 74, 64
1, 429600, Note_on_c, 0, 76, 101
1, 429648, Note_off_c, 0, 76, 64
1, 429696, Note_on_c, 0, 79, 108
1, 429744, Note_off_c, 0, 79, 64
1, 429744, Note_on_c, 0, 81, 100
1, 429792, Note_off_c, 0, 81, 64
1, 429792, Note_on_c, 0, 83, 103
1, 429840, Note_off_c, 0, 83, 64
1, 429840, Note_on_c, 0, 84, 102
1, 429888, Note_off_c, 0, 84, 64
1, 429936, Note_on_c, 0, 81, 105
1, 429984, Note_off_c, 0, 81, 64
1, 430032, Note_on_c, 0, 84, 100
1, 430080, Pitch_bend_c, 0, 8192
1, 430080, Control_c, 0, 6, 12
1, 430080, Control_c, 0, 7, 100
1, 430080, Control_c, 0, 10, 64
1, 430080, Control_c, 0, 100, 0
1, 430080, Control_c, 0, 101, 0
1, 430080, Note_on_c, 0, 81, 110
1, 430080, Note_off_c, 0, 84, 64
1, 430128, Note_off_c, 0, 81, 64
1, 430128, Note_on_c, 0, 88, 106
1, 430176, Note_on_c, 0, 84, 105
1, 430176, Note_off_c, 0, 88, 64
1, 430224, Note_on_c, 0, 81, 108
1, 430224, Note_off_c, 0, 84, 64
1, 430272, Note_off_c, 0, 81, 64
1, 430272, Note_on_c, 0, 88, 107
1, 430296, Note_on_c, 0, 86, 101
1, 430296, Note_off_c, 0, 88, 64
1, 430320, Note_on_c, 0, 84, 101
1, 430320, Note_off_c, 0, 86, 64
1, 430368, Note_on_c, 0, 81, 101
1, 430368, Note_off_c, 0, 84, 64
1, 430416, Note_off_c, 0, 81, 64
1, 430416, Note_on_c, 0, 91, 108
1, 430512, Note_on_c, 0, 86, 100
1, 430512, Note_off_c, 0, 91, 64
1, 430560, Note_off_c, 0, 86, 64
1, 430560, Note_on_c, 0, 90, 102
1, 430608, Note_on_c, 0, 88, 104
1, 430608, Note_off_c, 0, 90, 64
1, 430704, Note_on_c, 0, 84, 102
1, 430704, Note_off_c, 0, 88, 64
1, 430752, Note_off_c, 0, 84, 64
1, 430752, Note_on_c, 0, 86, 107
1, 430776, Note_on_c, 0, 84, 106
1, 430776, Note_off_c, 0, 86, 64
1, 430800, Note_on_c, 0, 83, 104
1, 430800, Note_off_c, 0, 84, 64
1, 430848, Note_on_c, 0, 81, 101
1, 430848, Note_off_c, 0, 83, 64
1, 430896, Note_off_c, 0, 81, 64
1, 430896, Note_on_c, 0, 88, 100
1, 430944, Note_on_c, 0, 84, 102
1, 430944, Note_off_c, 0, 88, 64
1, 430992, Note_on_c, 0, 81, 101
1, 430992, Note_off_c, 0, 84, 64
1, 431016, Note_off_c, 0, 81, 64
1, 431016, Note_on_c, 0, 84, 109
1, 431040, Note_off_c, 0, 84, 64
1, 431040, Note_on_c, 0, 86, 107
1, 431088, Note_on_c, 0, 84, 103
1, 431088, Note_off_c, 0, 86, 64
1, 431136, Note_on_c, 0, 81, 107
1, 431136, Note_off_c, 0, 84, 64
1, 431184, Note_off_c, 0, 81, 64
1, 431184, Note_on_c, 0, 83, 104
1, 431184, Note_on_c, 0, 91, 105
1, 431280, Note_off_c, 0, 83, 64
1, 431280, Note_on_c, 0, 88, 103
1, 431280, Note_off_c, 0, 91, 64
1, 431280, Note_on_c, 0, 93, 110
1, 431328, Note_on_c, 0, 86, 102
1, 431328, Note_off_c, 0, 88, 64
1, 431328, Note_off_c, 0, 93, 64
1, 431328, Note_on_c, 0, 95, 110
1, 431376, Note_on_c, 0, 85, 101
1, 431376, Note_off_c, 0, 86, 64
1, 431376, Note_on_c, 0, 93, 103
1, 431376, Note_off_c, 0, 95, 64
1, 431520, Note_on_c, 0, 76, 93
1, 431520, Note_off_c, 0, 85, 64
1, 431520, Note_off_c, 0, 93, 64
1, 431520, Note_on_c, 0, 93, 106
1, 431544, Note_off_c, 0, 76, 64
1, 431544, Note_on_c, 0, 79, 94
1, 431544, Note_on_c, 0, 91, 108
1, 431544, Note_off_c, 0, 93, 64
1, 431568, Note_off_c, 0, 79, 64
1, 431568, Note_on_c, 0, 81, 90
1, 431568, Note_on_c, 0, 88, 104
1, 431568, Note_off_c, 0, 91, 64
1, 431592, Note_off_c, 0, 81, 64
1, 431592, Note_on_c, 0, 84, 106
1, 431592, Note_off_c, 0, 88, 64
1, 431615, Note_off_c, 0, 84, 64
1, 431616, Pitch_bend_c, 0, 8192
1, 431616, Control_c, 0, 6, 12
1, 431616, Control_c, 0, 7, 100
1, 431616, Control_c, 0, 10, 64
1, 431616, Control_c, 0, 100, 0
1, 431616, Control_c, 0, 101, 0
1, 431616, Note_on_c, 0, 81, 111
1, 431664, Note_off_c, 0, 81, 64
1, 431664, Note_on_c, 0, 81, 107
1, 431712, Note_off_c, 0, 81, 64
1, 431712, Note_on_c, 0, 83, 100
1, 431760, Note_off_c, 0, 83, 64
1, 431760, Note_on_c, 0, 84, 108
1, 431808, Note_off_c, 0, 84, 64
1, 431808, Note_on_c, 0, 84, 108
1, 431856, Note_off_c, 0, 84, 64
1, 431856, Note_on_c, 0, 84, 106
1, 431904, Note_off_c, 0, 84, 64
1, 431904, Note_on_c, 0, 84, 103
1, 431952, Note_on_c, 0, 83, 112
1, 431952, Note_off_c, 0, 84, 64
1, 432000, Note_off_c, 0, 83, 64
1, 432000, Note_on_c, 0, 84, 100
1, 432048, Note_off_c, 0, 84, 64
1, 432048, Note_on_c, 0, 86, 108
1, 432096, Note_on_c, 0, 84, 101
1, 432096, Note_off_c, 0, 86, 64
1, 432144, Note_on_c, 0, 83, 106
1, 432144, Note_off_c, 0, 84, 64
1, 432192, Note_on_c, 0, 81, 101
1, 432192, Note_off_c, 0, 83, 64
1, 432240, Note_off_c, 0, 81, 64
1, 432240, Note_on_c, 0, 81, 109
1, 432288, Note_off_c, 0, 81, 64
1, 432288, Note_on_c, 0, 81, 101
1, 432336, Note_on_c, 0, 79, 106
1, 432336, Note_off_c, 0, 81, 64
1, 432384, Note_off_c, 0, 79, 64
1, 432384, Note_on_c, 0, 88, 101
1, 432432, Note_off_c, 0, 88, 64
1, 432432, Note_on_c, 0, 88, 111
1, 432480, Note_off_c, 0, 88, 64
1, 432480, Note_on_c, 0, 89, 106
1, 432528, Note_on_c, 0, 88, 110
1, 432528, Note_off_c, 0, 89, 64
1, 432576, Note_on_c, 0, 86, 109
1, 432576, Note_off_c, 0, 88, 64
1, 432624, Note_off_c, 0, 86, 64
1, 432624, Note_on_c, 0, 88, 102
1, 432672, Note_on_c, 0, 84, 108
1, 432672, Note_off_c, 0, 88, 64
1, 432720, Note_on_c, 0, 83, 102
1, 432720, Note_off_c, 0, 84, 64
1, 432768, Note_off_c, 0, 83, 64
1, 432768, Note_on_c, 0, 86, 105
1, 432816, Note_on_c, 0, 84, 107
1, 432816, Note_off_c, 0, 86, 64
1, 432864, Note_on_c, 0, 83, 112
1, 432864, Note_off_c, 0, 84, 64
1, 432912, Note_off_c, 0, 83, 64
1, 432912, Note_on_c, 0, 84, 110
1, 432960, Note_on_c, 0, 83, 112
1, 432960, Note_off_c, 0, 84, 64
1, 433008, Note_on_c, 0, 79, 100
1, 433008, Note_off_c, 0, 83, 64
1, 433056, Note_off_c, 0, 79, 64
1, 433056, Note_on_c, 0, 81, 107
1, 433104, Note_on_c, 0, 76, 102
1, 433104, Note_off_c, 0, 81, 64
1, 433151, Note_off_c, 0, 76, 64
1, 433152, Pitch_bend_c, 0, 8192
1, 433152, Control_c, 0, 6, 12
1, 433152, Control_c, 0, 7, 100
1, 433152, Control_c, 0, 10, 64
1, 433152, Control_c, 0, 100, 0
1, 433152, Control_c, 0, 101, 0
1, 433152, Note_on_c, 0, 81, 106
1, 433200, Note_off_c, 0, 81, 64
1, 433200, Note_on_c, 0, 84, 100
1, 433248, Note_off_c, 0, 84, 64
1, 433296, Note_on_c, 0, 88, 104
1, 433344, Note_off_c, 0, 88, 64
1, 433392, Note_on_c, 0, 84, 102
1, 433440, Note_off_c, 0, 84, 64
1, 433488, Note_on_c, 0, 79, 103
1, 433536, Note_off_c, 0, 79, 64
1, 433584, Note_on_c, 0, 83, 102
1, 433632, Note_off_c, 0, 83, 64
1, 433680, Note_on_c, 0, 86, 108
1, 433728, Note_off_c, 0, 86, 64
1, 433776, Note_on_c, 0, 84, 107
1, 433824, Note_on_c, 0, 83, 107
1, 433824, Note_off_c, 0, 84, 64
1, 433872, Note_off_c, 0, 83, 64
1, 433872, Note_on_c, 0, 84, 101
1, 433920, Note_on_c, 0, 79, 103
1, 433920, Note_off_c, 0, 84, 64
1, 433968, Note_off_c, 0, 79, 64
1, 433968, Note_on_c, 0, 83, 100
1, 434016, Note_off_c, 0, 83, 64
1, 434064, Note_on_c, 0, 86, 104
1, 434112, Note_off_c, 0, 86, 64
1, 434160, Note_on_c, 0, 83, 101
1, 434208, Note_off_c, 0, 83, 64
1, 434208, Note_on_c, 0, 88, 103
1, 434256, Note_on_c, 0, 84, 101
1, 434256, Note_off_c, 0, 88, 64
1, 434400, Note_off_c, 0, 84, 64
1, 434448, Note_on_c, 0, 81, 100
1, 434496, Note_off_c, 0, 81, 64
1, 434544, Note_on_c, 0, 76, 101
1, 434688, Pitch_bend_c, 0, 8192
1, 434688, Control_c, 0, 6, 12
1, 434688, Control_c, 0, 7, 100
1, 434688, Control_c, 0, 10, 64
1, 434688, Control_c, 0, 100, 0
1, 434688, Control_c, 0, 101, 0
1, 434688, Note_off_c, 0, 76, 64
1, 434688, Note_on_c, 0, 81, 100
1, 434784, Note_off_c, 0, 81, 64
1, 434784, Note_on_c, 0, 86, 96
1, 434880, Note_on_c, 0, 84, 98
1, 434880, Note_off_c, 0, 86, 64
1, 434928, Note_off_c, 0, 84, 64
1, 434928, Note_on_c, 0, 86, 102
1, 434976, Note_on_c, 0, 84, 103
1, 434976, Note_off_c, 0, 86, 64
1, 435024, Note_on_c, 0, 81, 101
1, 435024, Note_off_c, 0, 84, 64
1, 435168, Note_off_c, 0, 81, 64
1, 435168, Note_on_c, 0, 84, 102
1, 435216, Note_on_c, 0, 72, 103
1, 435216, Note_off_c, 0, 84, 64
1, 435264, Note_off_c, 0, 72, 64
1, 435264, Note_on_c, 0, 76, 99
1, 435336, Note_off_c, 0, 76, 64
1, 435360, Note_on_c, 0, 79, 102
1, 435456, Note_off_c, 0, 79, 64
1, 435456, Note_on_c, 0, 81, 93
1, 435552, Note_off_c, 0, 81, 64
1, 435552, Note_on_c, 0, 86, 97
1, 435600, Note_off_c, 0, 86, 64
1, 435600, Note_on_c, 0, 89, 102
1, 435648, Note_off_c, 0, 89, 64
1, 435648, Note_on_c, 0, 91, 99
1, 435696, Note_on_c, 0, 86, 97
1, 435696, Note_off_c, 0, 91, 64
1, 435744, Note_on_c, 0, 84, 95
1, 435744, Note_off_c, 0, 86, 64
1, 435792, Note_on_c, 0, 81, 96
1, 435792, Note_off_c, 0, 84, 64
1, 435888, Note_off_c, 0, 81, 64
1, 435888, Note_on_c, 0, 84, 97
1, 435984, Note_on_c, 0, 83, 99
1, 435984, Note_off_c, 0, 84, 64
1, 436032, Note_on_c, 0, 79, 102
1, 436032, Note_off_c, 0, 83, 64
1, 436128, Note_on_c, 0, 76, 101
1, 436128, Note_off_c, 0, 79, 64
1, 436223, Note_off_c, 0, 76, 64
1, 436224, Pitch_bend_c, 0, 8192
1, 436224, Control_c, 0, 6, 12
1, 436224, Control_c, 0, 7, 100
1, 436224, Control_c, 0, 10, 64
1, 436224, Control_c, 0, 100, 0
1, 436224, Control_c, 0, 101, 0
1, 436224, Note_on_c, 0, 81, 111
1, 436272, Note_off_c, 0, 81, 64
1, 436272, Note_on_c, 0, 83, 107
1, 436320, Note_off_c, 0, 83, 64
1, 436320, Note_on_c, 0, 84, 100
1, 436368, Note_off_c, 0, 84, 64
1, 436368, Note_on_c, 0, 88, 108
1, 436416, Note_off_c, 0, 88, 64
1, 436464, Note_on_c, 0, 86, 108
1, 436512, Note_off_c, 0, 86, 64
1, 436560, Note_on_c, 0, 84, 106
1, 436608, Note_off_c, 0, 84, 64
1, 436656, Note_on_c, 0, 83, 103
1, 436704, Note_off_c, 0, 83, 64
1, 436752, Note_on_c, 0, 84, 112
1, 436776, Note_on_c, 0, 83, 100
1, 436776, Note_off_c, 0, 84, 64
1, 436800, Note_on_c, 0, 81, 108
1, 436800, Note_off_c, 0, 83, 64
1, 436896, Note_off_c, 0, 81, 64
1, 436992, Note_on_c, 0, 79, 101
1, 437040, Note_off_c, 0, 79, 64
1, 437040, Note_on_c, 0, 81, 106
1, 437088, Note_on_c, 0, 77, 101
1, 437088, Note_off_c, 0, 81, 64
1, 437136, Note_on_c, 0, 76, 109
1, 437136, Note_off_c, 0, 77, 64
1, 437184, Note_off_c, 0, 76, 64
1, 437184, Note_on_c, 0, 77, 101
1, 437280, Note_off_c, 0, 77, 64
1, 437328, Note_on_c, 0, 76, 106
1, 437376, Note_off_c, 0, 76, 64
1, 437424, Note_on_c, 0, 74, 101
1, 437472, Note_off_c, 0, 74, 64
1, 437520, Note_on_c, 0, 76, 111
1, 437544, Note_on_c, 0, 74, 106
1, 437544, Note_off_c, 0, 76, 64
1, 437568, Note_on_c, 0, 72, 110
1, 437568, Note_off_c, 0, 74, 64
1, 437663, Note_off_c, 0, 72, 64
1, 437760, Pitch_bend_c, 0, 8192
1, 437760, Control_c, 0, 6, 12
1, 437760, Control_c, 0, 7, 100
1, 437760, Control_c, 0, 10, 64
1, 437760, Control_c, 0, 100, 0
1, 437760, Control_c, 0, 101, 0
1, 437808, Note_on_c, 0, 76, 106
1, 437856, Note_off_c, 0, 76, 64
1, 437856, Note_on_c, 0, 81, 102
1, 437904, Note_off_c, 0, 81, 64
1, 437904, Note_on_c, 0, 83, 103
1, 437952, Note_off_c, 0, 83, 64
1, 437952, Note_on_c, 0, 84, 106
1, 438000, Note_on_c, 0, 79, 102
1, 438000, Note_off_c, 0, 84, 64
1, 438000, Note_on_c, 0, 86, 101
1, 438144, Note_off_c, 0, 79, 64
1, 438144, Note_on_c, 0, 81, 105
1, 438144, Note_on_c, 0, 84, 101
1, 438144, Note_off_c, 0, 86, 64
1, 438288, Note_on_c, 0, 76, 100
1, 438288, Note_off_c, 0, 81, 64
1, 438288, Note_on_c, 0, 83, 104
1, 438288, Note_off_c, 0, 84, 64
1, 438432, Note_off_c, 0, 76, 64
1, 438432, Note_off_c, 0, 83, 64
1, 438576, Note_on_c, 0, 76, 105
1, 438624, Note_off_c, 0, 76, 64
1, 438624, Note_on_c, 0, 84, 107
1, 438672, Note_on_c, 0, 83, 101
1, 438672, Note_off_c, 0, 84, 64
1, 438720, Note_on_c, 0, 81, 105
1, 438720, Note_off_c, 0, 83, 64
1, 438768, Note_on_c, 0, 79, 107
1, 438768, Note_off_c, 0, 81, 64
1, 438816, Note_on_c, 0, 74, 106
1, 438816, Note_off_c, 0, 79, 64
1, 438864, Note_off_c, 0, 74, 64
1, 438864, Note_on_c, 0, 76, 105
1, 438912, Note_off_c, 0, 76, 64
1, 438912, Note_on_c, 0, 79, 106
1, 438912, Note_on_c, 0, 84, 103
1, 439056, Note_off_c, 0, 79, 64
1, 439056, Note_on_c, 0, 83, 103
1, 439056, Note_off_c, 0, 84, 64
1, 439056, Note_on_c, 0, 86, 105
1, 439200, Note_off_c, 0, 83, 64
1, 439200, Note_on_c, 0, 83, 105
1, 439200, Note_off_c, 0, 86, 64
1, 439200, Note_on_c, 0, 88, 100
1, 439295, Note_off_c, 0, 83, 64
1, 439295, Note_off_c, 0, 88, 64
1, 439296, Pitch_bend_c, 0, 8192
1, 439296, Control_c, 0, 6, 12
1, 439296, Control_c, 0, 7, 100
1, 439296, Control_c, 0, 10, 64
1, 439296, Control_c, 0, 100, 0
1, 439296, Control_c, 0, 101, 0
1, 439296, Note_on_c, 0, 81, 108
1, 439320, Note_off_c, 0, 81, 64
1, 439344, Note_on_c, 0, 79, 107
1, 439368, Note_off_c, 0, 79, 64
1, 439392, Note_on_c, 0, 76, 108
1, 439416, Note_off_c, 0, 76, 64
1, 439440, Note_on_c, 0, 77, 105
1, 439464, Note_off_c, 0, 77, 64
1, 439488, Note_on_c, 0, 76, 108
1, 439512, Note_off_c, 0, 76, 64
1, 439536, Note_on_c, 0, 74, 100
1, 439560, Note_off_c, 0, 74, 64
1, 439584, Note_on_c, 0, 76, 103
1, 439608, Note_off_c, 0, 76, 64
1, 439632, Note_on_c, 0, 79, 106
1, 439656, Note_off_c, 0, 79, 64
1, 439680, Note_on_c, 0, 81, 108
1, 439728, Note_off_c, 0, 81, 64
1, 439752, Note_on_c, 0, 79, 108
1, 439800, Note_off_c, 0, 79, 64
1, 439824, Note_on_c, 0, 84, 104
1, 439872, Note_off_c, 0, 84, 64
1, 439896, Note_on_c, 0, 79, 108
1, 439944, Note_off_c, 0, 79, 64
1, 439968, Note_on_c, 0, 83, 110
1, 439992, Note_off_c, 0, 83, 64
1, 440016, Note_on_c, 0, 84, 102
1, 440040, Note_on_c, 0, 83, 105
1, 440040, Note_off_c, 0, 84, 64
1, 440064, Note_on_c, 0, 81, 103
1, 440064, Note_off_c, 0, 83, 64
1, 440088, Note_off_c, 0, 81, 64
1, 440112, Note_on_c, 0, 79, 104
1, 440136, Note_off_c, 0, 79, 64
1, 440160, Note_on_c, 0, 76, 101
1, 440184, Note_off_c, 0, 76, 64
1, 440208, Note_on_c, 0, 74, 100
1, 440232, Note_off_c, 0, 74, 64
1, 440256, Note_on_c, 0, 76, 108
1, 440280, Note_off_c, 0, 76, 64
1, 440304, Note_on_c, 0, 74, 109
1, 440328, Note_off_c, 0, 74, 64
1, 440352, Note_on_c, 0, 74, 104
1, 440376, Note_off_c, 0, 74, 64
1, 440376, Note_on_c, 0, 76, 106
1, 440400, Note_off_c, 0, 76, 64
1, 440400, Note_on_c, 0, 79, 110
1, 440424, Note_off_c, 0, 79, 64
1, 440424, Note_on_c, 0, 81, 106
1, 440448, Note_off_c, 0, 81, 64
1, 440448, Note_on_c, 0, 83, 102
1, 440496, Note_off_c, 0, 83, 64
1, 440520, Note_on_c, 0, 76, 107
1, 440568, Note_off_c, 0, 76, 64
1, 440592, Note_on_c, 0, 84, 104
1, 440640, Note_off_c, 0, 84, 64
1, 440664, Note_on_c, 0, 76, 109
1, 440712, Note_off_c, 0, 76, 64
1, 440736, Note_on_c, 0, 74, 104
1, 440760, Note_off_c, 0, 74, 64
1, 440784, Note_on_c, 0, 76, 108
1, 440808, Note_off_c, 0, 76, 64
1, 440832, Pitch_bend_c, 0, 8192
1, 440832, Control_c, 0, 6, 12
1, 440832, Control_c, 0, 7, 100
1, 440832, Control_c, 0, 10, 64
1, 440832, Control_c, 0, 100, 0
1, 440832, Control_c, 0, 101, 0
1, 440832, Note_on_c, 0, 81, 105
1, 440880, Note_off_c, 0, 81, 64
1, 440880, Note_on_c, 0, 83, 95
1, 440976, Note_off_c, 0, 83, 64
1, 440976, Note_on_c, 0, 84, 97
1, 441024, Note_off_c, 0, 84, 64
1, 441024, Note_on_c, 0, 86, 96
1, 441120, Note_off_c, 0, 86, 64
1, 441120, Note_on_c, 0, 88, 95
1, 441168, Note_on_c, 0, 84, 99
1, 441168, Note_off_c, 0, 88, 64
1, 441216, Note_off_c, 0, 84, 64
1, 441216, Note_on_c, 0, 86, 99
1, 441264, Note_on_c, 0, 84, 96
1, 441264, Note_off_c, 0, 86, 64
1, 441312, Note_on_c, 0, 83, 93
1, 441312, Note_off_c, 0, 84, 64
1, 441360, Note_on_c, 0, 81, 96
1, 441360, Note_off_c, 0, 83, 64
1, 441504, Note_off_c, 0, 81, 64
1, 441648, Note_on_c, 0, 88, 95
1, 441696, Note_on_c, 0, 86, 101
1, 441696, Note_off_c, 0, 88, 64
1, 441744, Note_on_c, 0, 84, 100
1, 441744, Note_off_c, 0, 86, 64
1, 441792, Note_on_c, 0, 81, 100
1, 441792, Note_off_c, 0, 84, 64
1, 441888, Note_off_c, 0, 81, 64
1, 441888, Note_on_c, 0, 84, 105
1, 441984, Note_on_c, 0, 83, 101
1, 441984, Note_off_c, 0, 84, 64
1, 442032, Note_on_c, 0, 81, 106
1, 442032, Note_off_c, 0, 83, 64
1, 442080, Note_on_c, 0, 80, 99
1, 442080, Note_off_c, 0, 81, 64
1, 442128, Note_on_c, 0, 76, 97
1, 442128, Note_off_c, 0, 80, 64
1, 442224, Note_off_c, 0, 76, 64
1, 442224, Note_on_c, 0, 84, 103
1, 442272, Note_on_c, 0, 83, 106
1, 442272, Note_off_c, 0, 84, 64
1, 442320, Note_on_c, 0, 80, 95
1, 442320, Note_off_c, 0, 83, 64
1, 442368, Pitch_bend_c, 0, 8192
1, 442368, Control_c, 0, 6, 12
1, 442368, Control_c, 0, 7, 100
1, 442368, Control_c, 0, 10, 64
1, 442368, Control_c, 0, 100, 0
1, 442368, Control_c, 0, 101, 0
1, 442368, Note_off_c, 0, 80, 64
1, 442368, Note_on_c, 0, 81, 108
1, 442464, Note_off_c, 0, 81, 64
1, 442464, Note_on_c, 0, 83, 104
1, 442560, Note_off_c, 0, 83, 64
1, 442560, Note_on_c, 0, 84, 108
1, 442608, Note_off_c, 0, 84, 64
1, 442608, Note_on_c, 0, 86, 107
1, 442656, Note_off_c, 0, 86, 64
1, 442704, Note_on_c, 0, 84, 110
1, 442752, Note_off_c, 0, 84, 64
1, 442800, Note_on_c, 0, 83, 101
1, 442848, Note_on_c, 0, 81, 108
1, 442848, Note_off_c, 0, 83, 64
1, 442944, Note_off_c, 0, 81, 64
1, 442944, Note_on_c, 0, 84, 102
1, 443040, Note_on_c, 0, 81, 101
1, 443040, Note_off_c, 0, 84, 64
1, 443136, Note_on_c, 0, 80, 103
1, 443136, Note_off_c, 0, 81, 64
1, 443232, Note_on_c, 0, 76, 103
1, 443232, Note_off_c, 0, 80, 64
1, 443328, Note_off_c, 0, 76, 64
1, 443328, Note_on_c, 0, 83, 100
1, 443376, Note_on_c, 0, 81, 109
1, 443376, Note_off_c, 0, 83, 64
1, 443424, Note_off_c, 0, 81, 64
1, 443472, Note_on_c, 0, 80, 102
1, 443520, Note_off_c, 0, 80, 64
1, 443568, Note_on_c, 0, 77, 104
1, 443616, Note_on_c, 0, 76, 105
1, 443616, Note_off_c, 0, 77, 64
1, 443712, Note_on_c, 0, 74, 101
1, 443712, Note_off_c, 0, 76, 64
1, 443808, Note_on_c, 0, 72, 109
1, 443808, Note_off_c, 0, 74, 64
1, 443904, Pitch_bend_c, 0, 8192
1, 443904, Control_c, 0, 6, 12
1, 443904, Control_c, 0, 7, 100
1, 443904, Control_c, 0, 10, 64
1, 443904, Control_c, 0, 100, 0
1, 443904, Control_c, 0, 101, 0
1, 443904, Note_off_c, 0, 72, 64
1, 443952, Note_on_c, 0, 76, 108
1, 444000, Note_off_c, 0, 76, 64
1, 444000, Note_on_c, 0, 79, 102
1, 444048, Note_off_c, 0, 79, 64
1, 444096, Note_on_c, 0, 81, 102
1, 444144, Note_off_c, 0, 81, 64
1, 444240, Note_on_c, 0, 84, 106
1, 444288, Note_off_c, 0, 84, 64
1, 444336, Note_on_c, 0, 83, 103
1, 444384, Note_off_c, 0, 83, 64
1, 444432, Note_on_c, 0, 79, 105
1, 444480, Note_off_c, 0, 79, 64
1, 444528, Note_on_c, 0, 76, 108
1, 444576, Note_off_c, 0, 76, 64
1, 444576, Note_on_c, 0, 79, 107
1, 444624, Note_off_c, 0, 79, 64
1, 444624, Note_on_c, 0, 81, 106
1, 444672, Note_off_c, 0, 81, 64
1, 444720, Note_on_c, 0, 77, 100
1, 444768, Note_off_c, 0, 77, 64
1, 444768, Note_on_c, 0, 81, 103
1, 444816, Note_off_c, 0, 81, 64
1, 444864, Note_on_c, 0, 77, 109
1, 444912, Note_off_c, 0, 77, 64
1, 445008, Note_on_c, 0, 76, 106
1, 445056, Note_off_c, 0, 76, 64
1, 445104, Note_on_c, 0, 74, 106
1, 445152, Note_off_c, 0, 74, 64
1, 445200, Note_on_c, 0, 76, 101
1, 445248, Note_off_c, 0, 76, 64
1, 445296, Note_on_c, 0, 79, 102
1, 445344, Note_on_c, 0, 76, 104
1, 445344, Note_off_c, 0, 79, 64
1, 445392, Note_off_c, 0, 76, 64
1, 445392, Note_on_c, 0, 80, 107
1, 445439, Note_off_c, 0, 80, 64
1, 445440, Control_c, 0, 6, 12
1, 445440, Control_c, 0, 6, 0
1, 445440, Note_on_c, 0, 29, 86
1, 445494, Note_off_c, 0, 29, 86
1, 445536, Note_on_c, 0, 36, 91
1, 445584, Note_on_c, 0, 48, 86
1, 445590, Note_off_c, 0, 36, 91
1, 445632, Note_off_c, 0, 48, 86
1, 445632, Note_on_c, 0, 57, 87
1, 445679, Note_off_c, 0, 57, 87
1, 445776, Note_on_c, 0, 55, 78
1, 445813, Note_off_c, 0, 55, 78
1, 445824, Note_on_c, 0, 52, 69
1, 445872, Note_on_c, 0, 50, 78
1, 445872, Note_off_c, 0, 52, 69
1, 445920, Note_on_c, 0, 43, 68
1, 445920, Note_off_c, 0, 50, 78
1, 446091, Note_off_c, 0, 43, 68
1, 446160, Note_on_c, 0, 43, 84
1, 446195, Note_off_c, 0, 43, 84
1, 446208, Note_on_c, 0, 33, 78
1, 446256, Note_off_c, 0, 33, 78
1, 446256, Note_on_c, 0, 40, 88
1, 446303, Note_off_c, 0, 40, 88
1, 446304, Note_on_c, 0, 48, 84
1, 446352, Note_off_c, 0, 48, 84
1, 446352, Note_on_c, 0, 57, 85
1, 446400, Note_off_c, 0, 57, 85
1, 446496, Note_on_c, 0, 53, 30
1, 446520, Note_off_c, 0, 53, 30
1, 446544, Note_on_c, 0, 55, 89
1, 446584, Note_off_c, 0, 55, 89
1, 446592, Note_on_c, 0, 57, 89
1, 446640, Note_on_c, 0, 50, 69
1, 446640, Note_off_c, 0, 57, 89
1, 446688, Note_on_c, 0, 45, 80
1, 446688, Note_off_c, 0, 50, 69
1, 446736, Note_on_c, 0, 38, 75
1, 446736, Note_off_c, 0, 45, 80
1, 446784, Note_off_c, 0, 38, 75
1, 446784, Note_on_c, 0, 53, 83
1, 446832, Note_on_c, 0, 52, 76
1, 446858, Note_off_c, 0, 53, 83
1, 446882, Note_off_c, 0, 52, 76
1, 446976, Control_c, 0, 1, 0
1, 446976, Control_c, 0, 1, 100
1, 446976, Note_on_c, 0, 45, 76
1, 446976, Note_on_c, 0, 84, 110
1, 447168, Note_on_c, 0, 76, 101
1, 447168, Note_off_c, 0, 84, 110
1, 447264, Note_off_c, 0, 76, 101
1, 447264, Note_on_c, 0, 81, 94
1, 447312, Note_off_c, 0, 81, 94
1, 447312, Note_on_c, 0, 83, 94
1, 447360, Note_off_c, 0, 45, 76
1, 447360, Note_on_c, 0, 53, 72
1, 447360, Note_off_c, 0, 83, 94
1, 447360, Note_on_c, 0, 84, 106
1, 447744, Note_on_c, 0, 43, 72
1, 447744, Note_off_c, 0, 53, 72
1, 447744, Note_on_c, 0, 74, 110
1, 447744, Note_off_c, 0, 84, 106
1, 447840, Note_off_c, 0, 74, 110
1, 447840, Note_on_c, 0, 79, 102
1, 447888, Note_on_c, 0, 74, 94
1, 447888, Note_off_c, 0, 79, 102
1, 447936, Note_off_c, 0, 74, 94
1, 447936, Note_on_c, 0, 79, 106
1, 448128, Note_off_c, 0, 43, 72
1, 448128, Note_on_c, 0, 48, 72
1, 448128, Note_on_c, 0, 76, 107
1, 448128, Note_off_c, 0, 79, 106
1, 448320, Note_on_c, 0, 67, 100
1, 448320, Note_off_c, 0, 76, 107
1, 448512, Control_c, 0, 1, 100
1, 448512, Control_c, 0, 1, 70
1, 448512, Note_on_c, 0, 33, 74
1, 448512, Note_off_c, 0, 48, 72
1, 448512, Note_on_c, 0, 60, 44
1, 448512, Note_off_c, 0, 67, 100
1, 448560, Note_off_c, 0, 60, 44
1, 448560, Note_on_c, 0, 67, 39
1, 448608, Note_on_c, 0, 60, 41
1, 448608, Note_off_c, 0, 67, 39
1, 448651, Note_off_c, 0, 60, 41
1, 448656, Note_on_c, 0, 60, 38
1, 448704, Note_off_c, 0, 60, 38
1, 448704, Note_on_c, 0, 67, 42
1, 448752, Note_on_c, 0, 60, 38
1, 448752, Note_off_c, 0, 67, 42
1, 448795, Note_off_c, 0, 60, 38
1, 448800, Note_on_c, 0, 60, 38
1, 448848, Note_off_c, 0, 60, 38
1, 448848, Note_on_c, 0, 67, 40
1, 448896, Note_off_c, 0, 33, 74
1, 448896, Note_on_c, 0, 41, 78
1, 448896, Note_on_c, 0, 60, 43
1, 448896, Note_off_c, 0, 67, 40
1, 448944, Note_off_c, 0, 60, 43
1, 448944, Note_on_c, 0, 67, 39
1, 448992, Note_on_c, 0, 60, 41
1, 448992, Note_off_c, 0, 67, 39
1, 449035, Note_off_c, 0, 60, 41
1, 449040, Note_on_c, 0, 60, 39
1, 449088, Note_off_c, 0, 60, 39
1, 449088, Note_on_c, 0, 67, 41
1, 449136, Note_on_c, 0, 60, 39
1, 449136, Note_off_c, 0, 67, 41
1, 449179, Note_off_c, 0, 60, 39
1, 449184, Note_on_c, 0, 60, 40
1, 449232, Note_off_c, 0, 60, 40
1, 449232, Note_on_c, 0, 67, 40
1, 449280, Note_on_c, 0, 31, 77
1, 449280, Note_off_c, 0, 41, 78
1, 449280, Note_on_c, 0, 60, 46
1, 449280, Note_off_c, 0, 67, 40
1, 449328, Note_off_c, 0, 60, 46
1, 449328, Note_on_c, 0, 65, 39
1, 449376, Note_on_c, 0, 60, 40
1, 449376, Note_off_c, 0, 65, 39
1, 449419, Note_off_c, 0, 60, 40
1, 449424, Note_on_c, 0, 60, 39
1, 449472, Note_off_c, 0, 60, 39
1, 449472, Note_on_c, 0, 65, 42
1, 449520, Note_on_c, 0, 60, 38
1, 449520, Note_off_c, 0, 65, 42
1, 449563, Note_off_c, 0, 60, 38
1, 449568, Note_on_c, 0, 60, 40
1, 449616, Note_off_c, 0, 60, 40
1, 449616, Note_on_c, 0, 65, 38
1, 449664, Note_off_c, 0, 31, 77
1, 449664, Note_on_c, 0, 36, 75
1, 449664, Note_on_c, 0, 62, 42
1, 449664, Note_off_c, 0, 65, 38
1, 449712, Note_off_c, 0, 62, 42
1, 449712, Note_on_c, 0, 67, 39
1, 449760, Note_on_c, 0, 62, 40
1, 449760, Note_off_c, 0, 67, 39
1, 449803, Note_off_c, 0, 62, 40
1, 449808, Note_on_c, 0, 62, 39
1, 449856, Note_off_c, 0, 62, 39
1, 449856, Note_on_c, 0, 67, 42
1, 449904, Note_on_c, 0, 62, 40
1, 449904, Note_off_c, 0, 67, 42
1, 449947, Note_off_c, 0, 62, 40
1, 449952, Note_on_c, 0, 62, 39
1, 450000, Note_off_c, 0, 62, 39
1, 450000, Note_on_c, 0, 67, 38
1, 450048, Control_c, 0, 1, 70
1, 450048, Control_c, 0, 1, 100
1, 450048, Note_off_c, 0, 36, 75
1, 450048, Note_off_c, 0, 67, 38
1, 450048, Note_on_c, 0, 76, 104
1, 450240, Note_on_c, 0, 72, 103
1, 450240, Note_off_c, 0, 76, 104
1, 450432, Note_on_c, 0, 65, 106
1, 450432, Note_off_c, 0, 72, 103
1, 450624, Note_off_c, 0, 65, 106
1, 450624, Note_on_c, 0, 72, 100
1, 450816, Note_on_c, 0, 67, 110
1, 450816, Note_off_c, 0, 72, 100
1, 451008, Note_on_c, 0, 59, 102
1, 451008, Note_off_c, 0, 67, 110
1, 451104, Note_off_c, 0, 59, 102
1, 451104, Note_on_c, 0, 62, 97
1, 451152, Note_off_c, 0, 62, 97
1, 451152, Note_on_c, 0, 67, 95
1, 451195, Note_off_c, 0, 67, 95
1, 451200, Note_on_c, 0, 67, 112
1, 451392, Note_off_c, 0, 67, 112
1, 451392, Note_on_c, 0, 72, 103
1, 451584, Control_c, 0, 1, 100
1, 451584, Control_c, 0, 1, 0
1, 451584, Note_on_c, 0, 48, 62
1, 451584, Note_off_c, 0, 72, 103
1, 451656, Note_off_c, 0, 48, 62
1, 451656, Note_on_c, 0, 72, 101
1, 451680, Note_on_c, 0, 55, 56
1, 451680, Note_off_c, 0, 72, 101
1, 451704, Note_off_c, 0, 55, 56
1, 451728, Note_on_c, 0, 48, 57
1, 451751, Note_off_c, 0, 48, 57
1, 451751, Note_on_c, 0, 57, 47
1, 451775, Note_off_c, 0, 57, 47
1, 451776, Note_on_c, 0, 62, 35
1, 451776, Note_on_c, 0, 67, 53
1, 451800, Note_off_c, 0, 67, 53
1, 451824, Note_on_c, 0, 69, 61
1, 451848, Note_off_c, 0, 62, 35
1, 451872, Note_on_c, 0, 62, 64
1, 451872, Note_off_c, 0, 69, 61
1, 451896, Note_off_c, 0, 62, 64
1, 451920, Note_on_c, 0, 67, 46
1, 451944, Note_on_c, 0, 60, 65
1, 451944, Note_off_c, 0, 67, 46
1, 451968, Note_on_c, 0, 48, 60
1, 451968, Note_off_c, 0, 60, 65
1, 452040, Note_off_c, 0, 48, 60
1, 452040, Note_on_c, 0, 67, 87
1, 452064, Note_on_c, 0, 55, 45
1, 452064, Note_off_c, 0, 67, 87
1, 452088, Note_off_c, 0, 55, 45
1, 452112, Note_on_c, 0, 48, 60
1, 452136, Note_off_c, 0, 48, 60
1, 452136, Note_on_c, 0, 64, 53
1, 452160, Note_on_c, 0, 50, 54
1, 452160, Note_off_c, 0, 64, 53
1, 452232, Note_off_c, 0, 50, 54
1, 452256, Note_on_c, 0, 50, 75
1, 452280, Note_off_c, 0, 50, 75
1, 452304, Note_on_c, 0, 67, 79
1, 452328, Note_off_c, 0, 67, 79
1, 452328, Note_on_c, 0, 69, 60
1, 452352, Note_on_c, 0, 48, 62
1, 452352, Note_off_c, 0, 69, 60
1, 452424, Note_off_c, 0, 48, 62
1, 452448, Note_on_c, 0, 55, 56
1, 452472, Note_off_c, 0, 55, 56
1, 452496, Note_on_c, 0, 48, 57
1, 452520, Note_off_c, 0, 48, 57
1, 452520, Note_on_c, 0, 57, 47
1, 452544, Note_off_c, 0, 57, 47
1, 452544, Note_on_c, 0, 62, 35
1, 452544, Note_on_c, 0, 67, 53
1, 452568, Note_off_c, 0, 67, 53
1, 452592, Note_on_c, 0, 69, 61
1, 452616, Note_off_c, 0, 62, 35
1, 452640, Note_on_c, 0, 62, 64
1, 452640, Note_off_c, 0, 69, 61
1, 452664, Note_off_c, 0, 62, 64
1, 452688, Note_on_c, 0, 72, 71
1, 452712, Note_off_c, 0, 72, 71
1, 452712, Note_on_c, 0, 76, 62
1, 452736, Note_on_c, 0, 48, 60
1, 452736, Note_off_c, 0, 76, 62
1, 452808, Note_off_c, 0, 48, 60
1, 452808, Note_on_c, 0, 67, 87
1, 452832, Note_on_c, 0, 55, 45
1, 452832, Note_off_c, 0, 67, 87
1, 452856, Note_off_c, 0, 55, 45
1, 452880, Note_on_c, 0, 48, 60
1, 452904, Note_off_c, 0, 48, 60
1, 452904, Note_on_c, 0, 64, 53
1, 452928, Note_on_c, 0, 50, 54
1, 452928, Note_off_c, 0, 64, 53
1, 453000, Note_off_c, 0, 50, 54
1, 453024, Note_on_c, 0, 50, 75
1, 453048, Note_off_c, 0, 50, 66
1, 453072, Note_on_c, 0, 67, 103
1, 453096, Note_off_c, 0, 67, 103
1, 453096, Note_on_c, 0, 69, 95
1, 453120, Note_on_c, 0, 36, 100
1, 453120, Note_off_c, 0, 69, 95
1, 453144, Note_off_c, 0, 36, 100
1, 453144, Note_on_c, 0, 45, 64
1, 453168, Note_off_c, 0, 45, 64
1, 453168, Note_on_c, 0, 55, 88
1, 453192, Note_off_c, 0, 55, 88
1, 453192, Note_on_c, 0, 67, 64
1, 453216, Note_on_c, 0, 36, 100
1, 453216, Note_off_c, 0, 67, 64
1, 453240, Note_off_c, 0, 36, 100
1, 453240, Note_on_c, 0, 45, 64
1, 453264, Note_off_c, 0, 45, 64
1, 453264, Note_on_c, 0, 55, 88
1, 453288, Note_off_c, 0, 55, 88
1, 453288, Note_on_c, 0, 69, 64
1, 453312, Note_on_c, 0, 36, 100
1, 453312, Note_off_c, 0, 69, 64
1, 453336, Note_off_c, 0, 36, 100
1, 453336, Note_on_c, 0, 45, 64
1, 453360, Note_off_c, 0, 45, 64
1, 453360, Note_on_c, 0, 55, 88
1, 453384, Note_off_c, 0, 55, 88
1, 453384, Note_on_c, 0, 67, 64
1, 453408, Note_on_c, 0, 36, 100
1, 453408, Note_off_c, 0, 67, 64
1, 453432, Note_off_c, 0, 36, 100
1, 453432, Note_on_c, 0, 45, 64
1, 453456, Note_off_c, 0, 45, 64
1, 453456, Note_on_c, 0, 55, 88
1, 453480, Note_off_c, 0, 55, 88
1, 453480, Note_on_c, 0, 69, 64
1, 453504, Note_on_c, 0, 36, 100
1, 453504, Note_off_c, 0, 69, 64
1, 453528, Note_off_c, 0, 36, 100
1, 453528, Note_on_c, 0, 45, 64
1, 453552, Note_off_c, 0, 45, 64
1, 453552, Note_on_c, 0, 55, 88
1, 453576, Note_off_c, 0, 55, 88
1, 453576, Note_on_c, 0, 67, 64
1, 453600, Note_on_c, 0, 36, 100
1, 453600, Note_off_c, 0, 67, 64
1, 453624, Note_off_c, 0, 36, 100
1, 453624, Note_on_c, 0, 45, 64
1, 453648, Note_off_c, 0, 45, 64
1, 453648, Note_on_c, 0, 55, 88
1, 453672, Note_off_c, 0, 55, 88
1, 453672, Note_on_c, 0, 65, 64
1, 453696, Note_on_c, 0, 36, 100
1, 453696, Note_off_c, 0, 65, 64
1, 453720, Note_off_c, 0, 36, 100
1, 453720, Note_on_c, 0, 45, 64
1, 453744, Note_off_c, 0, 45, 64
1, 453744, Note_on_c, 0, 55, 88
1, 453768, Note_off_c, 0, 55, 88
1, 453768, Note_on_c, 0, 67, 64
1, 453792, Note_on_c, 0, 36, 100
1, 453792, Note_off_c, 0, 67, 64
1, 453816, Note_off_c, 0, 36, 100
1, 453816, Note_on_c, 0, 45, 64
1, 453840, Note_off_c, 0, 45, 64
1, 453840, Note_on_c, 0, 55, 88
1, 453864, Note_off_c, 0, 55, 88
1, 453864, Note_on_c, 0, 65, 64
1, 453888, Note_on_c, 0, 36, 100
1, 453888, Note_off_c, 0, 65, 64
1, 453912, Note_off_c, 0, 36, 100
1, 453912, Note_on_c, 0, 45, 64
1, 453936, Note_off_c, 0, 45, 64
1, 453936, Note_on_c, 0, 55, 88
1, 453960, Note_off_c, 0, 55, 88
1, 453960, Note_on_c, 0, 64, 64
1, 453984, Note_on_c, 0, 36, 100
1, 453984, Note_off_c, 0, 64, 64
1, 454008, Note_off_c, 0, 36, 100
1, 454008, Note_on_c, 0, 45, 64
1, 454032, Note_off_c, 0, 45, 64
1, 454032, Note_on_c, 0, 55, 88
1, 454056, Note_off_c, 0, 55, 88
1, 454056, Note_on_c, 0, 67, 64
1, 454080, Note_on_c, 0, 36, 100
1, 454080, Note_off_c, 0, 67, 64
1, 454104, Note_off_c, 0, 36, 100
1, 454104, Note_on_c, 0, 45, 64
1, 454128, Note_off_c, 0, 45, 64
1, 454128, Note_on_c, 0, 55, 88
1, 454152, Note_off_c, 0, 55, 88
1, 454152, Note_on_c, 0, 64, 64
1, 454176, Note_on_c, 0, 36, 100
1, 454176, Note_off_c, 0, 64, 64
1, 454200, Note_off_c, 0, 36, 100
1, 454200, Note_on_c, 0, 45, 64
1, 454224, Note_off_c, 0, 45, 64
1, 454224, Note_on_c, 0, 55, 88
1, 454248, Note_off_c, 0, 55, 88
1, 454248, Note_on_c, 0, 67, 64
1, 454272, Note_on_c, 0, 36, 100
1, 454272, Note_off_c, 0, 67, 64
1, 454296, Note_off_c, 0, 36, 100
1, 454296, Note_on_c, 0, 45, 64
1, 454320, Note_off_c, 0, 45, 64
1, 454320, Note_on_c, 0, 55, 88
1, 454344, Note_off_c, 0, 55, 88
1, 454344, Note_on_c, 0, 64, 64
1, 454368, Note_on_c, 0, 36, 100
1, 454368, Note_off_c, 0, 64, 64
1, 454392, Note_off_c, 0, 36, 100
1, 454392, Note_on_c, 0, 45, 64
1, 454416, Note_off_c, 0, 45, 64
1, 454416, Note_on_c, 0, 55, 88
1, 454440, Note_off_c, 0, 55, 88
1, 454440, Note_on_c, 0, 67, 64
1, 454464, Note_on_c, 0, 36, 100
1, 454464, Note_off_c, 0, 67, 64
1, 454488, Note_off_c, 0, 36, 100
1, 454488, Note_on_c, 0, 45, 64
1, 454512, Note_off_c, 0, 45, 64
1, 454512, Note_on_c, 0, 55, 88
1, 454536, Note_off_c, 0, 55, 88
1, 454536, Note_on_c, 0, 64, 64
1, 454560, Note_on_c, 0, 36, 100
1, 454560, Note_off_c, 0, 64, 64
1, 454584, Note_off_c, 0, 36, 100
1, 454584, Note_on_c, 0, 45, 64
1, 454608, Note_off_c, 0, 45, 64
1, 454608, Note_on_c, 0, 55, 88
1, 454632, Note_off_c, 0, 55, 88
1, 454632, Note_on_c, 0, 67, 64
1, 454656, Control_c, 0, 1, 0
1, 454656, Control_c, 0, 1, 100
1, 454656, Note_on_c, 0, 45, 76
1, 454656, Note_off_c, 0, 67, 64
1, 454656, Note_on_c, 0, 72, 109
1, 454848, Note_on_c, 0, 64, 100
1, 454848, Note_off_c, 0, 72, 109
1, 454944, Note_off_c, 0, 64, 100
1, 454944, Note_on_c, 0, 69, 99
1, 454992, Note_on_c, 0, 64, 97
1, 454992, Note_off_c, 0, 69, 99
1, 455040, Note_on_c, 0, 41, 72
1, 455040, Note_off_c, 0, 45, 76
1, 455040, Note_off_c, 0, 64, 97
1, 455040, Note_on_c, 0, 65, 107
1, 455232, Note_off_c, 0, 65, 107
1, 455232, Note_on_c, 0, 72, 104
1, 455424, Note_off_c, 0, 41, 72
1, 455424, Note_on_c, 0, 50, 79
1, 455424, Note_off_c, 0, 72, 104
1, 455424, Note_on_c, 0, 77, 106
1, 455520, Note_on_c, 0, 74, 103
1, 455520, Note_off_c, 0, 77, 106
1, 455568, Note_off_c, 0, 74, 103
1, 455568, Note_on_c, 0, 77, 93
1, 455616, Note_on_c, 0, 74, 106
1, 455616, Note_off_c, 0, 77, 93
1, 455808, Note_on_c, 0, 45, 79
1, 455808, Note_off_c, 0, 50, 79
1, 455808, Note_off_c, 0, 74, 106
1, 455808, Note_on_c, 0, 81, 107
1, 455995, Note_off_c, 0, 81, 107
1, 456000, Note_on_c, 0, 81, 101
1, 456187, Note_off_c, 0, 45, 79
1, 456192, Control_c, 0, 1, 100
1, 456192, Control_c, 0, 1, 70
1, 456192, Note_on_c, 0, 69, 72
1, 456192, Note_off_c, 0, 81, 101
1, 456240, Note_off_c, 0, 69, 72
1, 456240, Note_on_c, 0, 76, 66
1, 456264, Note_off_c, 0, 76, 66
1, 456288, Note_on_c, 0, 69, 72
1, 456336, Note_off_c, 0, 69, 72
1, 456336, Note_on_c, 0, 76, 66
1, 456360, Note_off_c, 0, 76, 66
1, 456384, Note_on_c, 0, 69, 72
1, 456408, Note_off_c, 0, 69, 72
1, 456408, Note_on_c, 0, 72, 67
1, 456432, Note_off_c, 0, 72, 67
1, 456432, Note_on_c, 0, 81, 67
1, 456456, Note_on_c, 0, 76, 67
1, 456456, Note_off_c, 0, 81, 67
1, 456480, Note_on_c, 0, 69, 65
1, 456480, Note_off_c, 0, 76, 67
1, 456504, Note_off_c, 0, 69, 65
1, 456504, Note_on_c, 0, 72, 67
1, 456528, Note_off_c, 0, 72, 67
1, 456528, Note_on_c, 0, 81, 67
1, 456552, Note_on_c, 0, 76, 68
1, 456552, Note_off_c, 0, 81, 67
1, 456576, Note_on_c, 0, 69, 76
1, 456576, Note_off_c, 0, 76, 68
1, 456624, Note_off_c, 0, 69, 76
1, 456624, Note_on_c, 0, 77, 67
1, 456648, Note_off_c, 0, 77, 67
1, 456672, Note_on_c, 0, 69, 69
1, 456720, Note_off_c, 0, 69, 69
1, 456720, Note_on_c, 0, 77, 65
1, 456744, Note_off_c, 0, 77, 65
1, 456768, Note_on_c, 0, 69, 72
1, 456792, Note_off_c, 0, 69, 72
1, 456792, Note_on_c, 0, 74, 66
1, 456816, Note_off_c, 0, 74, 66
1, 456816, Note_on_c, 0, 81, 65
1, 456840, Note_on_c, 0, 77, 67
1, 456840, Note_off_c, 0, 81, 65
1, 456864, Note_on_c, 0, 69, 65
1, 456864, Note_off_c, 0, 77, 67
1, 456888, Note_off_c, 0, 69, 65
1, 456888, Note_on_c, 0, 74, 66
1, 456912, Note_off_c, 0, 74, 66
1, 456912, Note_on_c, 0, 81, 65
1, 456936, Note_on_c, 0, 77, 65
1, 456936, Note_off_c, 0, 81, 65
1, 456960, Note_on_c, 0, 69, 76
1, 456960, Note_off_c, 0, 77, 65
1, 457008, Note_off_c, 0, 69, 76
1, 457008, Note_on_c, 0, 77, 67
1, 457032, Note_off_c, 0, 77, 67
1, 457056, Note_on_c, 0, 69, 72
1, 457104, Note_off_c, 0, 69, 72
1, 457104, Note_on_c, 0, 77, 68
1, 457128, Note_off_c, 0, 77, 68
1, 457152, Note_on_c, 0, 69, 69
1, 457176, Note_off_c, 0, 69, 69
1, 457176, Note_on_c, 0, 72, 65
1, 457200, Note_off_c, 0, 72, 65
1, 457200, Note_on_c, 0, 81, 69
1, 457224, Note_on_c, 0, 77, 67
1, 457224, Note_off_c, 0, 81, 69
1, 457248, Note_on_c, 0, 69, 65
1, 457248, Note_off_c, 0, 77, 67
1, 457272, Note_off_c, 0, 69, 65
1, 457272, Note_on_c, 0, 72, 65
1, 457296, Note_off_c, 0, 72, 65
1, 457296, Note_on_c, 0, 81, 66
1, 457320, Note_on_c, 0, 77, 66
1, 457320, Note_off_c, 0, 81, 66
1, 457344, Note_on_c, 0, 67, 72
1, 457344, Note_off_c, 0, 77, 66
1, 457392, Note_off_c, 0, 67, 72
1, 457392, Note_on_c, 0, 76, 65
1, 457416, Note_off_c, 0, 76, 65
1, 457440, Note_on_c, 0, 67, 70
1, 457488, Note_off_c, 0, 67, 70
1, 457488, Note_on_c, 0, 76, 65
1, 457512, Note_off_c, 0, 76, 65
1, 457536, Note_on_c, 0, 67, 69
1, 457560, Note_off_c, 0, 67, 69
1, 457560, Note_on_c, 0, 71, 67
1, 457584, Note_off_c, 0, 71, 67
1, 457584, Note_on_c, 0, 79, 65
1, 457608, Note_on_c, 0, 76, 67
1, 457608, Note_off_c, 0, 79, 65
1, 457632, Note_on_c, 0, 67, 67
1, 457632, Note_off_c, 0, 76, 67
1, 457656, Note_off_c, 0, 67, 67
1, 457656, Note_on_c, 0, 71, 66
1, 457680, Note_off_c, 0, 71, 66
1, 457680, Note_on_c, 0, 79, 67
1, 457704, Note_on_c, 0, 76, 65
1, 457704, Note_off_c, 0, 79, 67
1, 457728, Control_c, 0, 1, 70
1, 457728, Note_on_c, 0, 57, 72
1, 457728, Note_off_c, 0, 76, 65
1, 457760, Note_off_c, 0, 57, 72
1, 457760, Note_on_c, 0, 60, 66
1, 457791, Note_off_c, 0, 60, 66
1, 457791, Note_on_c, 0, 69, 66
1, 457824, Note_on_c, 0, 64, 69
1, 457824, Note_off_c, 0, 69, 66
1, 457856, Note_on_c, 0, 57, 69
1, 457856, Note_off_c, 0, 64, 69
1, 457887, Note_off_c, 0, 57, 69
1, 457887, Note_on_c, 0, 60, 69
1, 457920, Note_off_c, 0, 60, 69
1, 457920, Note_on_c, 0, 69, 73
1, 457951, Note_on_c, 0, 64, 69
1, 457952, Note_off_c, 0, 69, 73
1, 457983, Note_on_c, 0, 57, 65
1, 457983, Note_off_c, 0, 64, 69
1, 458015, Note_off_c, 0, 57, 65
1, 458015, Note_on_c, 0, 60, 67
1, 458047, Note_off_c, 0, 60, 67
1, 458047, Note_on_c, 0, 69, 68
1, 458079, Note_on_c, 0, 64, 67
1, 458079, Note_off_c, 0, 69, 68
1, 458111, Note_off_c, 0, 64, 67
1, 458112, Note_on_c, 0, 59, 74
1, 458144, Note_off_c, 0, 59, 74
1, 458144, Note_on_c, 0, 62, 65
1, 458175, Note_off_c, 0, 62, 65
1, 458175, Note_on_c, 0, 71, 67
1, 458207, Note_off_c, 0, 71, 67
1, 458208, Note_on_c, 0, 65, 69
1, 458240, Note_on_c, 0, 59, 67
1, 458240, Note_off_c, 0, 65, 69
1, 458271, Note_off_c, 0, 59, 67
1, 458271, Note_on_c, 0, 62, 67
1, 458304, Note_off_c, 0, 62, 67
1, 458304, Note_on_c, 0, 71, 71
1, 458335, Note_on_c, 0, 65, 65
1, 458336, Note_off_c, 0, 71, 71
1, 458367, Note_on_c, 0, 59, 67
1, 458367, Note_off_c, 0, 65, 65
1, 458399, Note_off_c, 0, 59, 67
1, 458400, Note_on_c, 0, 62, 67
1, 458431, Note_on_c, 0, 71, 65
1, 458432, Note_off_c, 0, 62, 67
1, 458463, Note_on_c, 0, 65, 67
1, 458463, Note_off_c, 0, 71, 65
1, 458495, Note_off_c, 0, 65, 67
1, 458496, Note_on_c, 0, 57, 72
1, 458527, Note_on_c, 0, 62, 65
1, 458528, Note_off_c, 0, 57, 72
1, 458559, Note_off_c, 0, 62, 65
1, 458559, Note_on_c, 0, 69, 67
1, 458592, Note_on_c, 0, 65, 71
1, 458592, Note_off_c, 0, 69, 67
1, 458623, Note_on_c, 0, 57, 68
1, 458624, Note_off_c, 0, 65, 71
1, 458655, Note_off_c, 0, 57, 68
1, 458655, Note_on_c, 0, 62, 68
1, 458688, Note_off_c, 0, 62, 68
1, 458688, Note_on_c, 0, 69, 74
1, 458719, Note_on_c, 0, 65, 65
1, 458720, Note_off_c, 0, 69, 74
1, 458751, Note_on_c, 0, 57, 66
1, 458751, Note_off_c, 0, 65, 65
1, 458783, Note_off_c, 0, 57, 66
1, 458784, Note_on_c, 0, 62, 66
1, 458815, Note_on_c, 0, 69, 66
1, 458816, Note_off_c, 0, 62, 66
1, 458847, Note_on_c, 0, 65, 67
1, 458847, Note_off_c, 0, 69, 66
1, 458879, Note_off_c, 0, 65, 67
1, 458880, Note_on_c, 0, 57, 74
1, 458911, Note_on_c, 0, 60, 68
1, 458912, Note_off_c, 0, 57, 74
1, 458943, Note_off_c, 0, 60, 68
1, 458943, Note_on_c, 0, 69, 65
1, 458976, Note_on_c, 0, 65, 72
1, 458976, Note_off_c, 0, 69, 65
1, 459007, Note_on_c, 0, 57, 67
1, 459008, Note_off_c, 0, 65, 72
1, 459039, Note_off_c, 0, 57, 67
1, 459039, Note_on_c, 0, 60, 69
1, 459072, Note_off_c, 0, 60, 69
1, 459072, Note_on_c, 0, 69, 72
1, 459103, Note_on_c, 0, 65, 67
1, 459104, Note_off_c, 0, 69, 72
1, 459135, Note_on_c, 0, 57, 65
1, 459135, Note_off_c, 0, 65, 67
1, 459167, Note_off_c, 0, 57, 65
1, 459168, Note_on_c, 0, 60, 66
1, 459199, Note_on_c, 0, 69, 65
1, 459200, Note_off_c, 0, 60, 66
1, 459231, Note_on_c, 0, 65, 67
1, 459231, Note_off_c, 0, 69, 65
1, 459263, Note_off_c, 0, 65, 67
1, 459264, Control_c, 0, 1, 70
1, 459264, Control_c, 0, 1, 40
1, 459264, Note_on_c, 0, 64, 43
1, 459312, Note_off_c, 0, 64, 43
1, 459312, Note_on_c, 0, 72, 38
1, 459360, Note_on_c, 0, 67, 41
1, 459360, Note_off_c, 0, 72, 38
1, 459408, Note_on_c, 0, 64, 38
1, 459408, Note_off_c, 0, 67, 41
1, 459456, Note_off_c, 0, 64, 38
1, 459456, Note_on_c, 0, 72, 42
1, 459504, Note_on_c, 0, 67, 38
1, 459504, Note_off_c, 0, 72, 42
1, 459552, Note_on_c, 0, 64, 38
1, 459552, Note_off_c, 0, 67, 38
1, 459600, Note_off_c, 0, 64, 38
1, 459600, Note_on_c, 0, 72, 40
1, 459648, Note_on_c, 0, 64, 42
1, 459648, Note_off_c, 0, 72, 40
1, 459696, Note_off_c, 0, 64, 42
1, 459696, Note_on_c, 0, 71, 39
1, 459744, Note_on_c, 0, 67, 41
1, 459744, Note_off_c, 0, 71, 39
1, 459792, Note_on_c, 0, 64, 39
1, 459792, Note_off_c, 0, 67, 41
1, 459840, Note_off_c, 0, 64, 39
1, 459840, Note_on_c, 0, 71, 41
1, 459888, Note_on_c, 0, 67, 40
1, 459888, Note_off_c, 0, 71, 41
1, 459936, Note_on_c, 0, 64, 39
1, 459936, Note_off_c, 0, 67, 40
1, 459984, Note_off_c, 0, 64, 39
1, 459984, Note_on_c, 0, 71, 39
1, 460032, Note_on_c, 0, 64, 44
1, 460032, Note_off_c, 0, 71, 39
1, 460080, Note_off_c, 0, 64, 44
1, 460080, Note_on_c, 0, 72, 40
1, 460128, Note_on_c, 0, 65, 41
1, 460128, Note_off_c, 0, 72, 40
1, 460176, Note_on_c, 0, 64, 39
1, 460176, Note_off_c, 0, 65, 41
1, 460224, Note_off_c, 0, 64, 39
1, 460224, Note_on_c, 0, 72, 42
1, 460272, Note_on_c, 0, 65, 38
1, 460272, Note_off_c, 0, 72, 42
1, 460320, Note_on_c, 0, 64, 39
1, 460320, Note_off_c, 0, 65, 38
1, 460368, Note_off_c, 0, 64, 39
1, 460368, Note_on_c, 0, 72, 40
1, 460416, Note_on_c, 0, 62, 45
1, 460416, Note_off_c, 0, 72, 40
1, 460464, Note_off_c, 0, 62, 45
1, 460464, Note_on_c, 0, 72, 40
1, 460512, Note_on_c, 0, 65, 42
1, 460512, Note_off_c, 0, 72, 40
1, 460560, Note_on_c, 0, 62, 40
1, 460560, Note_off_c, 0, 65, 42
1, 460608, Note_off_c, 0, 62, 40
1, 460608, Note_on_c, 0, 72, 43
1, 460656, Note_on_c, 0, 65, 40
1, 460656, Note_off_c, 0, 72, 43
1, 460704, Note_on_c, 0, 62, 40
1, 460704, Note_off_c, 0, 65, 40
1, 460752, Note_off_c, 0, 62, 40
1, 460752, Note_on_c, 0, 72, 38
1, 460800, Control_c, 0, 1, 40
1, 460800, Control_c, 0, 1, 0
1, 460800, Note_off_c, 0, 72, 38
1, 460800, Note_on_c, 0, 81, 52
1, 460848, Note_off_c, 0, 81, 52
1, 460848, Note_on_c, 0, 88, 68
1, 460896, Note_off_c, 0, 88, 68
1, 460896, Note_on_c, 0, 100, 70
1, 460944, Note_on_c, 0, 81, 52
1, 460944, Note_off_c, 0, 100, 70
1, 460992, Note_off_c, 0, 81, 52
1, 460992, Note_on_c, 0, 88, 68
1, 461040, Note_off_c, 0, 88, 68
1, 461040, Note_on_c, 0, 100, 70
1, 461088, Note_on_c, 0, 81, 52
1, 461088, Note_off_c, 0, 100, 70
1, 461136, Note_off_c, 0, 81, 52
1, 461136, Note_on_c, 0, 88, 68
1, 461184, Note_off_c, 0, 88, 68
1, 461184, Note_on_c, 0, 88, 73
1, 461232, Note_off_c, 0, 88, 73
1, 461232, Note_on_c, 0, 93, 97
1, 461280, Note_off_c, 0, 93, 97
1, 461280, Note_on_c, 0, 96, 55
1, 461328, Note_on_c, 0, 88, 73
1, 461328, Note_off_c, 0, 96, 55
1, 461376, Note_off_c, 0, 88, 73
1, 461376, Note_on_c, 0, 93, 97
1, 461424, Note_off_c, 0, 93, 97
1, 461424, Note_on_c, 0, 96, 55
1, 461472, Note_on_c, 0, 88, 73
1, 461472, Note_off_c, 0, 96, 55
1, 461520, Note_off_c, 0, 88, 73
1, 461520, Note_on_c, 0, 93, 97
1, 461568, Note_on_c, 0, 89, 82
1, 461568, Note_off_c, 0, 93, 97
1, 461616, Note_off_c, 0, 89, 82
1, 461616, Note_on_c, 0, 96, 93
1, 461664, Note_off_c, 0, 96, 93
1, 461664, Note_on_c, 0, 101, 30
1, 461712, Note_on_c, 0, 89, 82
1, 461712, Note_off_c, 0, 101, 30
1, 461760, Note_off_c, 0, 89, 82
1, 461760, Note_on_c, 0, 96, 93
1, 461808, Note_off_c, 0, 96, 93
1, 461808, Note_on_c, 0, 101, 30
1, 461856, Note_on_c, 0, 89, 82
1, 461856, Note_off_c, 0, 101, 30
1, 461904, Note_off_c, 0, 89, 82
1, 461904, Note_on_c, 0, 96, 93
1, 461952, Note_on_c, 0, 84, 88
1, 461952, Note_off_c, 0, 96, 93
1, 462000, Note_off_c, 0, 84, 88
1, 462000, Note_on_c, 0, 93, 100
1, 462048, Note_off_c, 0, 93, 100
1, 462048, Note_on_c, 0, 108, 12
1, 462096, Note_on_c, 0, 84, 88
1, 462096, Note_off_c, 0, 108, 12
1, 462144, Note_off_c, 0, 84, 88
1, 462144, Note_on_c, 0, 95, 74
1, 462192, Note_on_c, 0, 84, 88
1, 462192, Note_off_c, 0, 95, 74
1, 462192, Note_on_c, 0, 105, 64
1, 462240, Note_off_c, 0, 84, 88
1, 462240, Note_on_c, 0, 95, 88
1, 462240, Note_off_c, 0, 105, 64
1, 462288, Note_off_c, 0, 95, 88
1, 462336, Note_on_c, 0, 69, 52
1, 462432, Note_on_c, 0, 76, 68
1, 462624, Note_off_c, 0, 69, 52
1, 462624, Note_on_c, 0, 72, 94
1, 462624, Note_off_c, 0, 76, 68
1, 462648, Note_on_c, 0, 74, 86
1, 462650, Note_off_c, 0, 72, 94
1, 462670, Note_off_c, 0, 74, 86
1, 462672, Note_on_c, 0, 76, 92
1, 462696, Note_on_c, 0, 74, 97
1, 462699, Note_off_c, 0, 76, 92
1, 462714, Note_off_c, 0, 74, 97
1, 462720, Note_on_c, 0, 76, 73
1, 462816, Note_on_c, 0, 81, 97
1, 463008, Note_off_c, 0, 76, 73
1, 463008, Note_off_c, 0, 81, 97
1, 463008, Note_on_c, 0, 81, 100
1, 463032, Note_on_c, 0, 83, 94
1, 463035, Note_off_c, 0, 81, 100
1, 463056, Note_off_c, 0, 83, 94
1, 463056, Note_on_c, 0, 84, 69
1, 463080, Note_on_c, 0, 83, 93
1, 463083, Note_off_c, 0, 84, 69
1, 463098, Note_off_c, 0, 83, 93
1, 463104, Note_on_c, 0, 77, 82
1, 463200, Note_on_c, 0, 84, 93
1, 463392, Note_off_c, 0, 77, 82
1, 463392, Note_off_c, 0, 84, 93
1, 463392, Note_on_c, 0, 84, 106
1, 463416, Note_on_c, 0, 86, 109
1, 463419, Note_off_c, 0, 84, 106
1, 463438, Note_off_c, 0, 86, 109
1, 463440, Note_on_c, 0, 88, 101
1, 463464, Note_on_c, 0, 86, 100
1, 463469, Note_off_c, 0, 88, 101
1, 463482, Note_off_c, 0, 86, 100
1, 463488, Note_on_c, 0, 86, 12
1, 463536, Note_on_c, 0, 81, 100
1, 463536, Note_off_c, 0, 86, 12
1, 463584, Note_on_c, 0, 72, 88
1, 463584, Note_off_c, 0, 81, 100
1, 463680, Note_off_c, 0, 72, 88
1, 463680, Note_on_c, 0, 81, 74
1, 463728, Note_on_c, 0, 88, 64
1, 463863, Note_off_c, 0, 88, 64
1, 463865, Note_off_c, 0, 81, 74
1, 463872, Note_on_c, 0, 57, 57
1, 463896, Note_off_c, 0, 57, 57
1, 463896, Note_on_c, 0, 64, 65
1, 463920, Note_off_c, 0, 64, 65
1, 463920, Note_on_c, 0, 71, 65
1, 463944, Note_off_c, 0, 71, 65
1, 463944, Note_on_c, 0, 72, 60
1, 463967, Note_off_c, 0, 72, 60
1, 463968, Note_on_c, 0, 57, 57
1, 463992, Note_off_c, 0, 57, 57
1, 463992, Note_on_c, 0, 64, 65
1, 464015, Note_on_c, 0, 76, 79
1, 464016, Note_off_c, 0, 64, 65
1, 464039, Note_off_c, 0, 76, 79
1, 464039, Note_on_c, 0, 79, 81
1, 464063, Note_off_c, 0, 79, 81
1, 464064, Note_on_c, 0, 57, 57
1, 464088, Note_off_c, 0, 57, 57
1, 464088, Note_on_c, 0, 64, 65
1, 464112, Note_off_c, 0, 64, 65
1, 464112, Note_on_c, 0, 71, 65
1, 464136, Note_off_c, 0, 71, 65
1, 464136, Note_on_c, 0, 72, 60
1, 464159, Note_off_c, 0, 72, 60
1, 464160, Note_on_c, 0, 57, 57
1, 464184, Note_off_c, 0, 57, 57
1, 464184, Note_on_c, 0, 64, 65
1, 464207, Note_on_c, 0, 76, 79
1, 464208, Note_off_c, 0, 64, 65
1, 464231, Note_off_c, 0, 76, 79
1, 464231, Note_on_c, 0, 79, 81
1, 464255, Note_off_c, 0, 79, 81
1, 464256, Note_on_c, 0, 47, 46
1, 464280, Note_off_c, 0, 47, 46
1, 464280, Note_on_c, 0, 53, 68
1, 464304, Note_off_c, 0, 53, 68
1, 464304, Note_on_c, 0, 57, 50
1, 464328, Note_off_c, 0, 57, 50
1, 464328, Note_on_c, 0, 62, 74
1, 464351, Note_off_c, 0, 62, 74
1, 464352, Note_on_c, 0, 47, 46
1, 464376, Note_off_c, 0, 47, 46
1, 464376, Note_on_c, 0, 53, 68
1, 464399, Note_on_c, 0, 64, 50
1, 464400, Note_off_c, 0, 53, 68
1, 464423, Note_off_c, 0, 64, 50
1, 464423, Note_on_c, 0, 69, 74
1, 464447, Note_off_c, 0, 69, 74
1, 464448, Note_on_c, 0, 47, 46
1, 464472, Note_off_c, 0, 47, 46
1, 464472, Note_on_c, 0, 53, 68
1, 464496, Note_off_c, 0, 53, 68
1, 464496, Note_on_c, 0, 57, 50
1, 464520, Note_off_c, 0, 57, 50
1, 464520, Note_on_c, 0, 62, 74
1, 464543, Note_off_c, 0, 62, 74
1, 464544, Note_on_c, 0, 47, 46
1, 464568, Note_off_c, 0, 47, 46
1, 464568, Note_on_c, 0, 53, 68
1, 464592, Note_off_c, 0, 53, 68
1, 464592, Note_on_c, 0, 62, 45
1, 464615, Note_off_c, 0, 62, 45
1, 464616, Note_on_c, 0, 57, 61
1, 464632, Note_off_c, 0, 57, 61
1, 464640, Note_on_c, 0, 52, 73
1, 464664, Note_off_c, 0, 52, 73
1, 464664, Note_on_c, 0, 59, 79
1, 464688, Note_off_c, 0, 59, 79
1, 464688, Note_on_c, 0, 62, 81
1, 464711, Note_on_c, 0, 67, 82
1, 464712, Note_off_c, 0, 62, 81
1, 464735, Note_off_c, 0, 67, 82
1, 464736, Note_on_c, 0, 52, 73
1, 464760, Note_off_c, 0, 52, 73
1, 464760, Note_on_c, 0, 59, 79
1, 464784, Note_off_c, 0, 59, 79
1, 464784, Note_on_c, 0, 62, 81
1, 464807, Note_on_c, 0, 65, 82
1, 464808, Note_off_c, 0, 62, 81
1, 464831, Note_off_c, 0, 65, 82
1, 464832, Note_on_c, 0, 52, 73
1, 464856, Note_off_c, 0, 52, 73
1, 464856, Note_on_c, 0, 59, 79
1, 464880, Note_off_c, 0, 59, 79
1, 464880, Note_on_c, 0, 62, 81
1, 464903, Note_on_c, 0, 67, 82
1, 464904, Note_off_c, 0, 62, 81
1, 464927, Note_off_c, 0, 67, 82
1, 464928, Note_on_c, 0, 52, 73
1, 464952, Note_off_c, 0, 52, 73
1, 464952, Note_on_c, 0, 59, 79
1, 464976, Note_off_c, 0, 59, 79
1, 464976, Note_on_c, 0, 62, 81
1, 464999, Note_on_c, 0, 65, 82
1, 465000, Note_off_c, 0, 62, 81
1, 465023, Note_off_c, 0, 65, 82
1, 465024, Note_on_c, 0, 57, 59
1, 465048, Note_off_c, 0, 57, 59
1, 465048, Note_on_c, 0, 64, 72
1, 465072, Note_off_c, 0, 64, 72
1, 465072, Note_on_c, 0, 67, 79
1, 465096, Note_off_c, 0, 67, 79
1, 465096, Note_on_c, 0, 72, 76
1, 465119, Note_off_c, 0, 72, 76
1, 465120, Note_on_c, 0, 57, 59
1, 465144, Note_off_c, 0, 57, 59
1, 465144, Note_on_c, 0, 64, 72
1, 465168, Note_off_c, 0, 64, 72
1, 465168, Note_on_c, 0, 67, 79
1, 465191, Note_on_c, 0, 74, 76
1, 465192, Note_off_c, 0, 67, 79
1, 465215, Note_off_c, 0, 74, 76
1, 465216, Note_on_c, 0, 57, 59
1, 465240, Note_off_c, 0, 57, 59
1, 465240, Note_on_c, 0, 64, 72
1, 465264, Note_off_c, 0, 64, 72
1, 465264, Note_on_c, 0, 67, 79
1, 465288, Note_off_c, 0, 67, 79
1, 465288, Note_on_c, 0, 72, 76
1, 465311, Note_off_c, 0, 72, 76
1, 465312, Note_on_c, 0, 57, 59
1, 465336, Note_off_c, 0, 57, 59
1, 465336, Note_on_c, 0, 64, 72
1, 465360, Note_off_c, 0, 64, 72
1, 465360, Note_on_c, 0, 67, 79
1, 465383, Note_on_c, 0, 76, 76
1, 465384, Note_off_c, 0, 67, 79
1, 465407, Note_off_c, 0, 76, 76
1, 465408, Note_on_c, 0, 57, 57
1, 465432, Note_off_c, 0, 57, 57
1, 465432, Note_on_c, 0, 64, 65
1, 465456, Note_off_c, 0, 64, 65
1, 465456, Note_on_c, 0, 71, 65
1, 465480, Note_off_c, 0, 71, 65
1, 465480, Note_on_c, 0, 72, 60
1, 465504, Note_on_c, 0, 76, 79
1, 465528, Note_on_c, 0, 79, 81
1, 465631, Note_off_c, 0, 72, 60
1, 465632, Note_off_c, 0, 79, 81
1, 465633, Note_off_c, 0, 76, 79
1, 465696, Note_on_c, 0, 72, 83
1, 465724, Note_off_c, 0, 72, 83
1, 465792, Note_on_c, 0, 47, 46
1, 465816, Note_off_c, 0, 47, 46
1, 465816, Note_on_c, 0, 53, 68
1, 465840, Note_off_c, 0, 53, 68
1, 465840, Note_on_c, 0, 57, 50
1, 465864, Note_off_c, 0, 57, 50
1, 465864, Note_on_c, 0, 62, 74
1, 465888, Note_on_c, 0, 65, 80
1, 465912, Note_on_c, 0, 69, 81
1, 466078, Note_off_c, 0, 62, 74
1, 466083, Note_off_c, 0, 69, 81
1, 466084, Note_off_c, 0, 65, 80
1, 466128, Note_on_c, 0, 62, 45
1, 466141, Note_off_c, 0, 62, 45
1, 466152, Note_on_c, 0, 57, 61
1, 466169, Note_off_c, 0, 57, 61
1, 466176, Note_on_c, 0, 52, 73
1, 466200, Note_off_c, 0, 52, 73
1, 466200, Note_on_c, 0, 59, 79
1, 466224, Note_off_c, 0, 59, 79
1, 466224, Note_on_c, 0, 62, 81
1, 466248, Note_off_c, 0, 62, 81
1, 466248, Note_on_c, 0, 67, 82
1, 466392, Note_off_c, 0, 67, 82
1, 466464, Note_on_c, 0, 62, 91
1, 466486, Note_off_c, 0, 62, 91
1, 466560, Note_on_c, 0, 57, 59
1, 466584, Note_off_c, 0, 57, 59
1, 466584, Note_on_c, 0, 64, 72
1, 466608, Note_off_c, 0, 64, 72
1, 466608, Note_on_c, 0, 67, 79
1, 466632, Note_off_c, 0, 67, 79
1, 466632, Note_on_c, 0, 72, 76
1, 466843, Note_off_c, 0, 72, 76
1, 466944, Note_on_c, 0, 69, 36
1, 466992, Note_off_c, 0, 69, 36
1, 466992, Note_on_c, 0, 76, 44
1, 467040, Note_off_c, 0, 76, 44
1, 467040, Note_on_c, 0, 83, 38
1, 467064, Note_off_c, 0, 83, 38
1, 467088, Note_on_c, 0, 84, 44
1, 467112, Note_off_c, 0, 84, 44
1, 467136, Note_on_c, 0, 86, 41
1, 467232, Note_on_c, 0, 71, 40
1, 467232, Note_off_c, 0, 86, 41
1, 467256, Note_off_c, 0, 71, 40
1, 467280, Note_on_c, 0, 72, 28
1, 467304, Note_off_c, 0, 72, 28
1, 467304, Note_on_c, 0, 93, 59
1, 467328, Note_on_c, 0, 59, 63
1, 467328, Note_off_c, 0, 93, 59
1, 467376, Note_off_c, 0, 59, 63
1, 467376, Note_on_c, 0, 64, 35
1, 467424, Note_off_c, 0, 64, 35
1, 467424, Note_on_c, 0, 65, 37
1, 467448, Note_off_c, 0, 65, 37
1, 467472, Note_on_c, 0, 71, 46
1, 467496, Note_off_c, 0, 71, 46
1, 467520, Note_on_c, 0, 76, 58
1, 467544, Note_off_c, 0, 76, 58
1, 467568, Note_on_c, 0, 77, 44
1, 467592, Note_off_c, 0, 77, 44
1, 467616, Note_on_c, 0, 83, 44
1, 467640, Note_off_c, 0, 83, 44
1, 467664, Note_on_c, 0, 86, 46
1, 467688, Note_off_c, 0, 86, 46
1, 467688, Note_on_c, 0, 93, 65
1, 467712, Note_on_c, 0, 62, 36
1, 467712, Note_off_c, 0, 93, 65
1, 467760, Note_off_c, 0, 62, 36
1, 467760, Note_on_c, 0, 69, 44
1, 467808, Note_off_c, 0, 69, 44
1, 467808, Note_on_c, 0, 76, 38
1, 467832, Note_off_c, 0, 76, 38
1, 467856, Note_on_c, 0, 77, 44
1, 467880, Note_off_c, 0, 77, 44
1, 467904, Note_on_c, 0, 64, 48
1, 467904, Note_on_c, 0, 89, 41
1, 467952, Note_off_c, 0, 64, 48
1, 467952, Note_on_c, 0, 71, 43
1, 468000, Note_off_c, 0, 71, 43
1, 468000, Note_on_c, 0, 74, 40
1, 468000, Note_off_c, 0, 89, 41
1, 468024, Note_off_c, 0, 74, 40
1, 468048, Note_on_c, 0, 76, 28
1, 468071, Note_on_c, 0, 96, 59
1, 468072, Note_off_c, 0, 76, 28
1, 468096, Note_on_c, 0, 62, 63
1, 468096, Note_off_c, 0, 96, 59
1, 468144, Note_off_c, 0, 62, 63
1, 468144, Note_on_c, 0, 67, 35
1, 468192, Note_off_c, 0, 67, 35
1, 468192, Note_on_c, 0, 69, 37
1, 468216, Note_off_c, 0, 69, 37
1, 468240, Note_on_c, 0, 74, 46
1, 468264, Note_off_c, 0, 74, 46
1, 468288, Note_on_c, 0, 79, 58
1, 468312, Note_off_c, 0, 79, 58
1, 468336, Note_on_c, 0, 81, 44
1, 468360, Note_off_c, 0, 81, 44
1, 468384, Note_on_c, 0, 86, 44
1, 468408, Note_off_c, 0, 86, 44
1, 468432, Note_on_c, 0, 89, 46
1, 468456, Note_off_c, 0, 89, 46
1, 468480, Note_on_c, 0, 60, 100
1, 468504, Note_off_c, 0, 60, 100
1, 468504, Note_on_c, 0, 69, 64
1, 468528, Note_off_c, 0, 69, 64
1, 468528, Note_on_c, 0, 84, 88
1, 468552, Note_off_c, 0, 84, 88
1, 468552, Note_on_c, 0, 91, 64
1, 468576, Note_on_c, 0, 60, 100
1, 468576, Note_off_c, 0, 91, 64
1, 468600, Note_off_c, 0, 60, 100
1, 468600, Note_on_c, 0, 69, 64
1, 468624, Note_off_c, 0, 69, 64
1, 468624, Note_on_c, 0, 84, 88
1, 468648, Note_off_c, 0, 84, 88
1, 468648, Note_on_c, 0, 91, 64
1, 468672, Note_on_c, 0, 62, 100
1, 468672, Note_off_c, 0, 91, 64
1, 468696, Note_off_c, 0, 62, 100
1, 468696, Note_on_c, 0, 69, 64
1, 468720, Note_off_c, 0, 69, 64
1, 468720, Note_on_c, 0, 81, 88
1, 468744, Note_off_c, 0, 81, 88
1, 468744, Note_on_c, 0, 93, 64
1, 468768, Note_on_c, 0, 62, 100
1, 468768, Note_off_c, 0, 93, 64
1, 468792, Note_off_c, 0, 62, 100
1, 468792, Note_on_c, 0, 69, 64
1, 468816, Note_off_c, 0, 69, 64
1, 468816, Note_on_c, 0, 81, 88
1, 468840, Note_off_c, 0, 81, 88
1, 468840, Note_on_c, 0, 93, 64
1, 468864, Note_on_c, 0, 62, 100
1, 468864, Note_off_c, 0, 93, 64
1, 468888, Note_off_c, 0, 62, 100
1, 468888, Note_on_c, 0, 71, 64
1, 468912, Note_off_c, 0, 71, 64
1, 468912, Note_on_c, 0, 86, 88
1, 468936, Note_off_c, 0, 86, 88
1, 468936, Note_on_c, 0, 93, 64
1, 468960, Note_on_c, 0, 62, 100
1, 468960, Note_off_c, 0, 93, 64
1, 468984, Note_off_c, 0, 62, 100
1, 468984, Note_on_c, 0, 71, 64
1, 469008, Note_off_c, 0, 71, 64
1, 469008, Note_on_c, 0, 86, 88
1, 469032, Note_off_c, 0, 86, 88
1, 469032, Note_on_c, 0, 93, 64
1, 469056, Note_on_c, 0, 53, 100
1, 469056, Note_off_c, 0, 93, 64
1, 469080, Note_off_c, 0, 53, 100
1, 469080, Note_on_c, 0, 62, 64
1, 469104, Note_off_c, 0, 62, 64
1, 469104, Note_on_c, 0, 72, 88
1, 469128, Note_off_c, 0, 72, 88
1, 469128, Note_on_c, 0, 84, 64
1, 469152, Note_on_c, 0, 53, 100
1, 469152, Note_off_c, 0, 84, 64
1, 469176, Note_off_c, 0, 53, 100
1, 469176, Note_on_c, 0, 62, 64
1, 469200, Note_off_c, 0, 62, 64
1, 469200, Note_on_c, 0, 72, 88
1, 469224, Note_off_c, 0, 72, 88
1, 469224, Note_on_c, 0, 84, 64
1, 469248, Note_on_c, 0, 57, 100
1, 469248, Note_off_c, 0, 84, 64
1, 469272, Note_off_c, 0, 57, 100
1, 469272, Note_on_c, 0, 64, 64
1, 469296, Note_off_c, 0, 64, 64
1, 469296, Note_on_c, 0, 76, 88
1, 469320, Note_off_c, 0, 76, 88
1, 469320, Note_on_c, 0, 88, 64
1, 469344, Note_on_c, 0, 57, 100
1, 469344, Note_off_c, 0, 88, 64
1, 469368, Note_off_c, 0, 57, 100
1, 469368, Note_on_c, 0, 64, 64
1, 469392, Note_off_c, 0, 64, 64
1, 469392, Note_on_c, 0, 76, 88
1, 469416, Note_off_c, 0, 76, 88
1, 469416, Note_on_c, 0, 88, 64
1, 469440, Note_on_c, 0, 53, 100
1, 469440, Note_off_c, 0, 88, 64
1, 469464, Note_off_c, 0, 53, 100
1, 469464, Note_on_c, 0, 62, 64
1, 469488, Note_off_c, 0, 62, 64
1, 469488, Note_on_c, 0, 72, 88
1, 469512, Note_off_c, 0, 72, 88
1, 469512, Note_on_c, 0, 84, 64
1, 469536, Note_on_c, 0, 53, 100
1, 469536, Note_off_c, 0, 84, 64
1, 469560, Note_off_c, 0, 53, 100
1, 469560, Note_on_c, 0, 62, 64
1, 469584, Note_off_c, 0, 62, 64
1, 469584, Note_on_c, 0, 72, 88
1, 469608, Note_off_c, 0, 72, 88
1, 469608, Note_on_c, 0, 84, 64
1, 469632, Note_on_c, 0, 57, 100
1, 469632, Note_off_c, 0, 84, 64
1, 469656, Note_off_c, 0, 57, 100
1, 469656, Note_on_c, 0, 64, 64
1, 469680, Note_off_c, 0, 64, 64
1, 469680, Note_on_c, 0, 76, 88
1, 469704, Note_off_c, 0, 76, 88
1, 469704, Note_on_c, 0, 88, 64
1, 469728, Note_on_c, 0, 57, 100
1, 469728, Note_off_c, 0, 88, 64
1, 469752, Note_off_c, 0, 57, 100
1, 469752, Note_on_c, 0, 64, 64
1, 469776, Note_off_c, 0, 64, 64
1, 469776, Note_on_c, 0, 76, 88
1, 469800, Note_off_c, 0, 76, 88
1, 469800, Note_on_c, 0, 88, 64
1, 469824, Note_on_c, 0, 69, 100
1, 469824, Note_off_c, 0, 88, 64
1, 469848, Note_off_c, 0, 69, 100
1, 469848, Note_on_c, 0, 71, 64
1, 469872, Note_off_c, 0, 71, 64
1, 469872, Note_on_c, 0, 83, 88
1, 469896, Note_off_c, 0, 83, 88
1, 469896, Note_on_c, 0, 91, 64
1, 469920, Note_on_c, 0, 69, 100
1, 469920, Note_off_c, 0, 91, 64
1, 469944, Note_off_c, 0, 69, 100
1, 469944, Note_on_c, 0, 71, 64
1, 469968, Note_off_c, 0, 71, 64
1, 469968, Note_on_c, 0, 83, 88
1, 469992, Note_off_c, 0, 83, 88
1, 469992, Note_on_c, 0, 91, 64
1, 470016, Note_on_c, 0, 72, 67
1, 470016, Note_off_c, 0, 91, 64
1, 470064, Note_off_c, 0, 72, 67
1, 470064, Note_on_c, 0, 77, 37
1, 470112, Note_off_c, 0, 77, 37
1, 470112, Note_on_c, 0, 86, 51
1, 470160, Note_off_c, 0, 86, 51
1, 470160, Note_on_c, 0, 89, 44
1, 470198, Note_off_c, 0, 89, 44
1, 470208, Note_on_c, 0, 93, 64
1, 470256, Note_on_c, 0, 89, 75
1, 470256, Note_off_c, 0, 93, 64
1, 470304, Note_on_c, 0, 86, 46
1, 470304, Note_off_c, 0, 89, 75
1, 470352, Note_on_c, 0, 74, 40
1, 470392, Note_off_c, 0, 74, 40
1, 470393, Note_off_c, 0, 86, 46
1, 470400, Note_on_c, 0, 74, 60
1, 470448, Note_off_c, 0, 74, 60
1, 470448, Note_on_c, 0, 86, 36
1, 470490, Note_off_c, 0, 86, 36
1, 470496, Note_on_c, 0, 96, 52
1, 470520, Note_on_c, 0, 98, 64
1, 470538, Note_off_c, 0, 96, 52
1, 470544, Note_on_c, 0, 103, 52
1, 470562, Note_off_c, 0, 103, 52
1, 470567, Note_off_c, 0, 98, 64
1, 470568, Note_on_c, 0, 86, 24
1, 470592, Note_on_c, 0, 77, 48
1, 470592, Note_off_c, 0, 86, 24
1, 470592, Note_on_c, 0, 96, 64
1, 470639, Note_off_c, 0, 96, 64
1, 470640, Note_on_c, 0, 93, 50
1, 470688, Note_on_c, 0, 89, 53
1, 470688, Note_off_c, 0, 93, 50
1, 470688, Note_off_c, 0, 77, 48
1, 470727, Note_off_c, 0, 89, 53
1, 470736, Note_on_c, 0, 84, 46
1, 470769, Note_off_c, 0, 84, 46
1, 470784, Note_on_c, 0, 69, 72
1, 470832, Note_on_c, 0, 76, 54
1, 470837, Note_off_c, 0, 69, 72
1, 470879, Note_off_c, 0, 76, 54
1, 470880, Note_on_c, 0, 83, 49
1, 470928, Note_off_c, 0, 83, 49
1, 470928, Note_on_c, 0, 84, 41
1, 470972, Note_off_c, 0, 84, 41
1, 470976, Note_on_c, 0, 93, 49
1, 471024, Note_on_c, 0, 89, 44
1, 471024, Note_off_c, 0, 93, 49
1, 471072, Note_on_c, 0, 84, 43
1, 471072, Note_off_c, 0, 89, 44
1, 471111, Note_off_c, 0, 84, 43
1, 471120, Note_on_c, 0, 69, 40
1, 471165, Note_off_c, 0, 69, 40
1, 471168, Note_on_c, 0, 69, 65
1, 471216, Note_on_c, 0, 76, 47
1, 471240, Note_on_c, 0, 84, 34
1, 471264, Note_on_c, 0, 88, 54
1, 471277, Note_off_c, 0, 84, 34
1, 471288, Note_off_c, 0, 88, 54
1, 471288, Note_on_c, 0, 91, 51
1, 471312, Note_on_c, 0, 81, 50
1, 471312, Note_off_c, 0, 91, 51
1, 471336, Note_off_c, 0, 81, 50
1, 471336, Note_on_c, 0, 84, 46
1, 471354, Note_off_c, 0, 69, 65
1, 471358, Note_off_c, 0, 76, 47
1, 471360, Note_on_c, 0, 81, 55
1, 471360, Note_off_c, 0, 84, 46
1, 471408, Note_on_c, 0, 91, 43
1, 471451, Note_off_c, 0, 81, 55
1, 471456, Note_on_c, 0, 93, 44
1, 471480, Note_on_c, 0, 95, 66
1, 471500, Note_off_c, 0, 93, 44
1, 471504, Note_on_c, 0, 83, 43
1, 471504, Note_off_c, 0, 95, 66
1, 471534, Note_off_c, 0, 83, 43
1, 471552, Note_on_c, 0, 52, 76
1, 471552, Note_off_c, 0, 91, 43
1, 471576, Note_off_c, 0, 52, 76
1, 471576, Note_on_c, 0, 57, 76
1, 471600, Note_off_c, 0, 57, 76
1, 471600, Note_on_c, 0, 60, 76
1, 471623, Note_off_c, 0, 60, 76
1, 471624, Note_on_c, 0, 52, 76
1, 471648, Note_off_c, 0, 52, 76
1, 471648, Note_on_c, 0, 57, 76
1, 471672, Note_off_c, 0, 57, 76
1, 471672, Note_on_c, 0, 60, 76
1, 471696, Note_on_c, 0, 52, 76
1, 471696, Note_off_c, 0, 60, 76
1, 471720, Note_off_c, 0, 52, 76
1, 471720, Note_on_c, 0, 57, 76
1, 471744, Note_on_c, 0, 55, 76
1, 471744, Note_off_c, 0, 57, 76
1, 471767, Note_off_c, 0, 55, 76
1, 471768, Note_on_c, 0, 59, 76
1, 471791, Note_off_c, 0, 59, 76
1, 471792, Note_on_c, 0, 62, 76
1, 471816, Note_on_c, 0, 55, 76
1, 471816, Note_off_c, 0, 62, 76
1, 471840, Note_off_c, 0, 55, 76
1, 471840, Note_on_c, 0, 59, 76
1, 471864, Note_off_c, 0, 59, 76
1, 471864, Note_on_c, 0, 62, 76
1, 471888, Note_on_c, 0, 55, 76
1, 471888, Note_off_c, 0, 62, 76
1, 471912, Note_off_c, 0, 55, 76
1, 471912, Note_on_c, 0, 59, 76
1, 471936, Note_on_c, 0, 50, 76
1, 471936, Note_off_c, 0, 59, 76
1, 471959, Note_off_c, 0, 50, 76
1, 471960, Note_on_c, 0, 55, 76
1, 471984, Note_off_c, 0, 55, 76
1, 471984, Note_on_c, 0, 59, 76
1, 472008, Note_on_c, 0, 50, 76
1, 472008, Note_off_c, 0, 59, 76
1, 472032, Note_off_c, 0, 50, 76
1, 472032, Note_on_c, 0, 55, 76
1, 472056, Note_off_c, 0, 55, 76
1, 472056, Note_on_c, 0, 59, 76
1, 472080, Note_on_c, 0, 50, 76
1, 472080, Note_off_c, 0, 59, 76
1, 472104, Note_off_c, 0, 50, 76
1, 472104, Note_on_c, 0, 55, 76
1, 472128, Note_off_c, 0, 55, 76
1, 472128, Note_on_c, 0, 55, 76
1, 472152, Note_off_c, 0, 55, 76
1, 472152, Note_on_c, 0, 59, 76
1, 472176, Note_off_c, 0, 59, 76
1, 472176, Note_on_c, 0, 62, 76
1, 472200, Note_on_c, 0, 55, 76
1, 472200, Note_off_c, 0, 62, 76
1, 472224, Note_off_c, 0, 55, 76
1, 472224, Note_on_c, 0, 59, 76
1, 472248, Note_off_c, 0, 59, 76
1, 472248, Note_on_c, 0, 62, 76
1, 472272, Note_on_c, 0, 55, 76
1, 472272, Note_off_c, 0, 62, 76
1, 472296, Note_off_c, 0, 55, 76
1, 472296, Note_on_c, 0, 59, 76
1, 472320, Note_on_c, 0, 50, 76
1, 472320, Note_off_c, 0, 59, 76
1, 472344, Note_off_c, 0, 50, 76
1, 472344, Note_on_c, 0, 55, 76
1, 472368, Note_off_c, 0, 55, 76
1, 472368, Note_on_c, 0, 59, 76
1, 472392, Note_on_c, 0, 50, 76
1, 472392, Note_off_c, 0, 59, 76
1, 472416, Note_off_c, 0, 50, 76
1, 472416, Note_on_c, 0, 55, 76
1, 472440, Note_off_c, 0, 55, 76
1, 472440, Note_on_c, 0, 59, 76
1, 472464, Note_on_c, 0, 50, 76
1, 472464, Note_off_c, 0, 59, 76
1, 472488, Note_off_c, 0, 50, 76
1, 472488, Note_on_c, 0, 55, 76
1, 472512, Note_on_c, 0, 53, 76
1, 472512, Note_off_c, 0, 55, 76
1, 472536, Note_off_c, 0, 53, 76
1, 472536, Note_on_c, 0, 57, 76
1, 472559, Note_off_c, 0, 57, 76
1, 472559, Note_on_c, 0, 60, 76
1, 472584, Note_on_c, 0, 53, 76
1, 472584, Note_off_c, 0, 60, 76
1, 472608, Note_off_c, 0, 53, 76
1, 472608, Note_on_c, 0, 57, 76
1, 472632, Note_off_c, 0, 57, 76
1, 472632, Note_on_c, 0, 60, 76
1, 472656, Note_on_c, 0, 53, 76
1, 472656, Note_off_c, 0, 60, 76
1, 472680, Note_off_c, 0, 53, 76
1, 472680, Note_on_c, 0, 57, 76
1, 472703, Note_off_c, 0, 57, 76
1, 472704, Note_on_c, 0, 55, 76
1, 472727, Note_off_c, 0, 55, 76
1, 472728, Note_on_c, 0, 60, 76
1, 472751, Note_off_c, 0, 60, 76
1, 472752, Note_on_c, 0, 64, 76
1, 472775, Note_off_c, 0, 64, 76
1, 472776, Note_on_c, 0, 55, 76
1, 472800, Note_off_c, 0, 55, 76
1, 472800, Note_on_c, 0, 60, 76
1, 472824, Note_off_c, 0, 60, 76
1, 472824, Note_on_c, 0, 64, 76
1, 472848, Note_on_c, 0, 55, 76
1, 472848, Note_off_c, 0, 64, 76
1, 472872, Note_off_c, 0, 55, 76
1, 472872, Note_on_c, 0, 60, 76
1, 472896, Note_on_c, 0, 57, 76
1, 472896, Note_off_c, 0, 60, 76
1, 472920, Note_off_c, 0, 57, 76
1, 472920, Note_on_c, 0, 62, 76
1, 472943, Note_on_c, 0, 64, 76
1, 472944, Note_off_c, 0, 62, 76
1, 472967, Note_on_c, 0, 57, 76
1, 472968, Note_off_c, 0, 64, 76
1, 472991, Note_off_c, 0, 57, 76
1, 472991, Note_on_c, 0, 60, 76
1, 473015, Note_off_c, 0, 60, 76
1, 473015, Note_on_c, 0, 64, 76
1, 473039, Note_on_c, 0, 57, 76
1, 473039, Note_off_c, 0, 64, 76
1, 473063, Note_on_c, 0, 48, 76
1, 473063, Note_off_c, 0, 57, 76
1, 473087, Note_off_c, 0, 48, 76
1, 473088, Note_on_c, 0, 64, 78
1, 473132, Note_off_c, 0, 64, 78
1, 473136, Note_on_c, 0, 52, 63
1, 473182, Note_off_c, 0, 52, 63
1, 473184, Note_on_c, 0, 57, 69
1, 473231, Note_off_c, 0, 57, 69
1, 473232, Note_on_c, 0, 52, 57
1, 473280, Note_on_c, 0, 64, 80
1, 473281, Note_off_c, 0, 52, 57
1, 473319, Note_off_c, 0, 64, 80
1, 473328, Note_on_c, 0, 52, 59
1, 473369, Note_off_c, 0, 52, 59
1, 473376, Note_on_c, 0, 57, 65
1, 473424, Note_on_c, 0, 52, 64
1, 473425, Note_off_c, 0, 57, 65
1, 473462, Note_off_c, 0, 52, 64
1, 473472, Note_on_c, 0, 69, 80
1, 473520, Note_on_c, 0, 59, 69
1, 473525, Note_off_c, 0, 69, 80
1, 473563, Note_off_c, 0, 59, 69
1, 473568, Note_on_c, 0, 62, 64
1, 473614, Note_off_c, 0, 62, 64
1, 473616, Note_on_c, 0, 59, 64
1, 473664, Note_on_c, 0, 69, 76
1, 473667, Note_off_c, 0, 59, 64
1, 473711, Note_off_c, 0, 69, 76
1, 473712, Note_on_c, 0, 59, 58
1, 473756, Note_off_c, 0, 59, 58
1, 473760, Note_on_c, 0, 62, 67
1, 473805, Note_off_c, 0, 62, 67
1, 473808, Note_on_c, 0, 59, 68
1, 473847, Note_off_c, 0, 59, 68
1, 473856, Note_on_c, 0, 62, 81
1, 473904, Note_on_c, 0, 50, 62
1, 473909, Note_off_c, 0, 62, 81
1, 473943, Note_off_c, 0, 50, 62
1, 473952, Note_on_c, 0, 55, 66
1, 473999, Note_off_c, 0, 55, 66
1, 474000, Note_on_c, 0, 50, 63
1, 474048, Note_on_c, 0, 62, 77
1, 474048, Note_off_c, 0, 50, 63
1, 474093, Note_off_c, 0, 62, 77
1, 474096, Note_on_c, 0, 50, 53
1, 474135, Note_off_c, 0, 50, 53
1, 474144, Note_on_c, 0, 55, 65
1, 474192, Note_on_c, 0, 50, 62
1, 474193, Note_off_c, 0, 55, 65
1, 474230, Note_off_c, 0, 50, 62
1, 474240, Note_on_c, 0, 69, 78
1, 474288, Note_on_c, 0, 59, 63
1, 474289, Note_off_c, 0, 69, 78
1, 474328, Note_off_c, 0, 59, 63
1, 474336, Note_on_c, 0, 62, 64
1, 474380, Note_off_c, 0, 62, 64
1, 474384, Note_on_c, 0, 59, 69
1, 474432, Note_on_c, 0, 69, 76
1, 474438, Note_off_c, 0, 59, 69
1, 474479, Note_off_c, 0, 69, 76
1, 474480, Note_on_c, 0, 59, 62
1, 474525, Note_off_c, 0, 59, 62
1, 474528, Note_on_c, 0, 62, 77
1, 474576, Note_on_c, 0, 59, 66
1, 474576, Note_off_c, 0, 62, 77
1, 474616, Note_off_c, 0, 59, 66
1, 474624, Control_c, 0, 1, 0
1, 474624, Note_on_c, 0, 45, 105
1, 474672, Note_off_c, 0, 45, 105
1, 474672, Note_on_c, 0, 52, 89
1, 474720, Note_off_c, 0, 52, 89
1, 474720, Note_on_c, 0, 57, 89
1, 474768, Note_on_c, 0, 45, 105
1, 474768, Note_off_c, 0, 57, 89
1, 474816, Note_off_c, 0, 45, 105
1, 474816, Note_on_c, 0, 52, 89
1, 474864, Note_off_c, 0, 52, 89
1, 474864, Note_on_c, 0, 57, 89
1, 474912, Note_on_c, 0, 45, 105
1, 474912, Note_off_c, 0, 57, 89
1, 474960, Note_off_c, 0, 45, 105
1, 474960, Note_on_c, 0, 52, 89
1, 475008, Note_off_c, 0, 52, 89
1, 475008, Note_on_c, 0, 57, 89
1, 475056, Note_on_c, 0, 45, 105
1, 475056, Note_off_c, 0, 57, 89
1, 475104, Note_off_c, 0, 45, 105
1, 475104, Note_on_c, 0, 52, 89
1, 475152, Note_off_c, 0, 52, 89
1, 475152, Note_on_c, 0, 57, 89
1, 475200, Note_on_c, 0, 45, 105
1, 475200, Note_off_c, 0, 57, 89
1, 475248, Note_off_c, 0, 45, 105
1, 475248, Note_on_c, 0, 52, 89
1, 475296, Note_off_c, 0, 52, 89
1, 475296, Note_on_c, 0, 57, 89
1, 475344, Note_off_c, 0, 57, 89
1, 475392, Note_on_c, 0, 43, 105
1, 475440, Note_off_c, 0, 43, 105
1, 475440, Note_on_c, 0, 50, 89
1, 475488, Note_off_c, 0, 50, 89
1, 475488, Note_on_c, 0, 55, 89
1, 475536, Note_on_c, 0, 43, 105
1, 475536, Note_off_c, 0, 55, 89
1, 475584, Note_off_c, 0, 43, 105
1, 475584, Note_on_c, 0, 50, 89
1, 475632, Note_off_c, 0, 50, 89
1, 475632, Note_on_c, 0, 55, 89
1, 475680, Note_on_c, 0, 43, 105
1, 475680, Note_off_c, 0, 55, 89
1, 475728, Note_off_c, 0, 43, 105
1, 475728, Note_on_c, 0, 50, 89
1, 475776, Note_off_c, 0, 50, 89
1, 475776, Note_on_c, 0, 55, 89
1, 475824, Note_on_c, 0, 43, 105
1, 475824, Note_off_c, 0, 55, 89
1, 475872, Note_off_c, 0, 43, 105
1, 475872, Note_on_c, 0, 50, 89
1, 475920, Note_off_c, 0, 50, 89
1, 475920, Note_on_c, 0, 55, 89
1, 475968, Note_on_c, 0, 43, 105
1, 475968, Note_off_c, 0, 55, 89
1, 476016, Note_off_c, 0, 43, 105
1, 476016, Note_on_c, 0, 50, 89
1, 476064, Note_off_c, 0, 50, 89
1, 476064, Note_on_c, 0, 55, 89
1, 476112, Note_on_c, 0, 43, 105
1, 476112, Note_off_c, 0, 55, 89
1, 476160, Channel_aftertouch_c, 0, 0
1, 476160, Note_off_c, 0, 43, 105
1, 476160, Note_on_c, 0, 65, 64
1, 476160, Note_on_c, 0, 41, 47
1, 476378, Note_off_c, 0, 65, 64
1, 476538, Note_off_c, 0, 41, 47
1, 476540, Note_on_c, 0, 62, 71
1, 476540, Note_on_c, 0, 64, 71
1, 476618, Note_off_c, 0, 64, 71
1, 476722, Note_off_c, 0, 62, 71
1, 476741, Note_on_c, 0, 67, 72
1, 476767, Note_off_c, 0, 67, 72
1, 476928, Note_on_c, 0, 65, 50
1, 476934, Note_on_c, 0, 50, 45
1, 476938, Note_on_c, 0, 74, 77
1, 476939, Note_on_c, 0, 62, 39
1, 477297, Note_off_c, 0, 62, 39
1, 477297, Note_off_c, 0, 65, 50
1, 477306, Note_off_c, 0, 50, 45
1, 477306, Note_off_c, 0, 74, 77
1, 477312, Note_on_c, 0, 74, 61
1, 477312, Note_on_c, 0, 76, 36
1, 477690, Note_off_c, 0, 74, 61
1, 477690, Note_off_c, 0, 76, 36
1, 477696, Channel_aftertouch_c, 0, 0
1, 477696, Note_on_c, 0, 57, 63
1, 477696, Note_on_c, 0, 69, 80
1, 477696, Note_on_c, 0, 41, 61
1, 477752, Note_off_c, 0, 41, 61
1, 477784, Note_off_c, 0, 57, 63
1, 477790, Note_on_c, 0, 53, 59
1, 477822, Note_off_c, 0, 53, 59
1, 477825, Note_off_c, 0, 69, 80
1, 477836, Note_on_c, 0, 53, 35
1, 477883, Note_off_c, 0, 53, 35
1, 478029, Note_on_c, 0, 53, 33
1, 478061, Note_off_c, 0, 53, 33
1, 478079, Note_on_c, 0, 62, 65
1, 478080, Note_on_c, 0, 38, 64
1, 478081, Note_on_c, 0, 74, 84
1, 478129, Note_on_c, 0, 50, 54
1, 478130, Note_off_c, 0, 38, 64
1, 478157, Note_off_c, 0, 62, 65
1, 478168, Note_off_c, 0, 50, 54
1, 478177, Note_on_c, 0, 55, 49
1, 478208, Note_off_c, 0, 55, 49
1, 478223, Note_on_c, 0, 62, 40
1, 478266, Note_off_c, 0, 62, 40
1, 478270, Note_on_c, 0, 64, 75
1, 478273, Note_on_c, 0, 62, 60
1, 478350, Note_off_c, 0, 62, 60
1, 478369, Note_on_c, 0, 62, 44
1, 478378, Note_off_c, 0, 74, 84
1, 478380, Note_off_c, 0, 62, 44
1, 478402, Note_off_c, 0, 64, 75
1, 478465, Note_on_c, 0, 65, 63
1, 478466, Note_on_c, 0, 50, 64
1, 478486, Note_off_c, 0, 65, 63
1, 478510, Note_on_c, 0, 62, 47
1, 478565, Note_on_c, 0, 65, 39
1, 478657, Note_on_c, 0, 74, 43
1, 478749, Note_off_c, 0, 50, 64
1, 478754, Note_off_c, 0, 65, 39
1, 478756, Note_off_c, 0, 62, 47
1, 478800, Note_on_c, 0, 62, 41
1, 478846, Note_off_c, 0, 62, 41
1, 478851, Note_on_c, 0, 50, 64
1, 478897, Note_on_c, 0, 62, 49
1, 478944, Note_off_c, 0, 74, 43
1, 478945, Note_on_c, 0, 65, 67
1, 478978, Note_off_c, 0, 50, 64
1, 478980, Note_off_c, 0, 65, 67
1, 478990, Note_on_c, 0, 65, 64
1, 479025, Note_off_c, 0, 62, 49
1, 479034, Note_off_c, 0, 65, 64
1, 479040, Note_on_c, 0, 50, 64
1, 479040, Note_on_c, 0, 62, 64
1, 479040, Note_on_c, 0, 65, 68
1, 479082, Note_on_c, 0, 53, 54
1, 479092, Note_off_c, 0, 62, 64
1, 479136, Note_on_c, 0, 62, 64
1, 479140, Note_off_c, 0, 50, 64
1, 479149, Note_off_c, 0, 53, 54
1, 479158, Note_off_c, 0, 65, 68
1, 479162, Note_off_c, 0, 62, 64
1, 479182, Note_on_c, 0, 50, 48
1, 479193, Note_off_c, 0, 50, 48
1, 479232, Channel_aftertouch_c, 0, 0
1, 479232, Note_on_c, 0, 65, 58
1, 479232, Note_on_c, 0, 41, 60
1, 479289, Note_off_c, 0, 41, 60
1, 479420, Note_off_c, 0, 65, 58
1, 479425, Note_on_c, 0, 57, 55
1, 479482, Note_off_c, 0, 57, 55
1, 479614, Note_on_c, 0, 64, 64
1, 479618, Note_on_c, 0, 79, 67
1, 479620, Note_on_c, 0, 74, 87
1, 479622, Note_on_c, 0, 50, 58
1, 479697, Note_off_c, 0, 74, 87
1, 479711, Note_on_c, 0, 52, 35
1, 479775, Note_off_c, 0, 79, 67
1, 479797, Note_off_c, 0, 50, 58
1, 479802, Note_off_c, 0, 64, 64
1, 479808, Note_on_c, 0, 62, 62
1, 479809, Note_on_c, 0, 79, 61
1, 479809, Note_on_c, 0, 74, 80
1, 479810, Note_off_c, 0, 52, 35
1, 479867, Note_off_c, 0, 74, 80
1, 479869, Note_off_c, 0, 79, 61
1, 479881, Note_off_c, 0, 62, 62
1, 479903, Note_on_c, 0, 50, 31
1, 479939, Note_off_c, 0, 50, 31
1, 480000, Note_on_c, 0, 62, 64
1, 480002, Note_on_c, 0, 57, 56
1, 480003, Note_on_c, 0, 38, 60
1, 480098, Note_on_c, 0, 50, 25
1, 480107, Note_off_c, 0, 57, 56
1, 480186, Note_off_c, 0, 50, 25
1, 480194, Note_on_c, 0, 57, 34
1, 480221, Note_off_c, 0, 62, 64
1, 480282, Note_off_c, 0, 57, 34
1, 480287, Note_on_c, 0, 50, 16
1, 480378, Note_off_c, 0, 38, 60
1, 480381, Note_off_c, 0, 50, 16
1, 480382, Note_on_c, 0, 67, 20
1, 480384, Note_on_c, 0, 52, 42
1, 480384, Note_on_c, 0, 72, 62
1, 480389, Note_on_c, 0, 62, 8
1, 480474, Note_off_c, 0, 62, 8
1, 480481, Note_on_c, 0, 60, 9
1, 480569, Note_off_c, 0, 52, 42
1, 480575, Note_on_c, 0, 62, 18
1, 480642, Note_off_c, 0, 62, 18
1, 480666, Note_off_c, 0, 72, 62
1, 480671, Note_on_c, 0, 52, 30
1, 480672, Note_off_c, 0, 60, 9
1, 480683, Note_off_c, 0, 67, 20
1, 480709, Note_off_c, 0, 52, 30
1, 480768, Control_c, 0, 1, 0
1, 480768, Control_c, 0, 1, 40
1, 480768, Note_on_c, 0, 76, 43
1, 480864, Note_on_c, 0, 72, 41
1, 480864, Note_off_c, 0, 76, 43
1, 480896, Note_on_c, 0, 62, 40
1, 480896, Note_off_c, 0, 72, 41
1, 480927, Note_off_c, 0, 62, 40
1, 480927, Note_on_c, 0, 69, 38
1, 480960, Note_off_c, 0, 69, 38
1, 480960, Note_on_c, 0, 76, 41
1, 481056, Note_on_c, 0, 72, 39
1, 481056, Note_off_c, 0, 76, 41
1, 481087, Note_on_c, 0, 62, 40
1, 481088, Note_off_c, 0, 72, 39
1, 481119, Note_off_c, 0, 62, 40
1, 481119, Note_on_c, 0, 69, 39
1, 481151, Note_off_c, 0, 69, 39
1, 481152, Note_on_c, 0, 77, 43
1, 481248, Note_on_c, 0, 72, 40
1, 481248, Note_off_c, 0, 77, 43
1, 481280, Note_on_c, 0, 65, 39
1, 481280, Note_off_c, 0, 72, 40
1, 481311, Note_off_c, 0, 65, 39
1, 481311, Note_on_c, 0, 69, 40
1, 481344, Note_off_c, 0, 69, 40
1, 481344, Note_on_c, 0, 77, 42
1, 481440, Note_on_c, 0, 72, 39
1, 481440, Note_off_c, 0, 77, 42
1, 481471, Note_on_c, 0, 65, 40
1, 481472, Note_off_c, 0, 72, 39
1, 481503, Note_off_c, 0, 65, 40
1, 481503, Note_on_c, 0, 69, 38
1, 481535, Note_off_c, 0, 69, 38
1, 481536, Note_on_c, 0, 76, 42
1, 481632, Note_on_c, 0, 72, 41
1, 481632, Note_off_c, 0, 76, 42
1, 481663, Note_on_c, 0, 62, 38
1, 481664, Note_off_c, 0, 72, 41
1, 481695, Note_off_c, 0, 62, 38
1, 481695, Note_on_c, 0, 69, 40
1, 481728, Note_off_c, 0, 69, 40
1, 481728, Note_on_c, 0, 76, 43
1, 481824, Note_on_c, 0, 72, 38
1, 481824, Note_off_c, 0, 76, 43
1, 481855, Note_on_c, 0, 62, 39
1, 481856, Note_off_c, 0, 72, 38
1, 481887, Note_off_c, 0, 62, 39
1, 481887, Note_on_c, 0, 69, 40
1, 481919, Note_off_c, 0, 69, 40
1, 481920, Note_on_c, 0, 74, 45
1, 482016, Note_on_c, 0, 69, 42
1, 482016, Note_off_c, 0, 74, 45
1, 482047, Note_on_c, 0, 62, 40
1, 482048, Note_off_c, 0, 69, 42
1, 482079, Note_off_c, 0, 62, 40
1, 482079, Note_on_c, 0, 67, 40
1, 482112, Note_off_c, 0, 67, 40
1, 482112, Note_on_c, 0, 74, 41
1, 482208, Note_on_c, 0, 69, 40
1, 482208, Note_off_c, 0, 74, 41
1, 482239, Note_on_c, 0, 62, 40
1, 482240, Note_off_c, 0, 69, 40
1, 482271, Note_off_c, 0, 62, 40
1, 482271, Note_on_c, 0, 67, 38
1, 482303, Note_off_c, 0, 67, 38
1, 482304, Control_c, 0, 1, 40
1, 482304, Control_c, 0, 1, 70
1, 482304, Note_on_c, 0, 64, 73
1, 482335, Note_off_c, 0, 64, 73
1, 482335, Note_on_c, 0, 72, 65
1, 482368, Note_on_c, 0, 67, 67
1, 482368, Note_off_c, 0, 72, 65
1, 482400, Note_on_c, 0, 64, 69
1, 482400, Note_off_c, 0, 67, 67
1, 482427, Note_off_c, 0, 64, 69
1, 482431, Note_on_c, 0, 64, 67
1, 482464, Note_off_c, 0, 64, 67
1, 482464, Note_on_c, 0, 72, 67
1, 482496, Note_on_c, 0, 67, 72
1, 482496, Note_off_c, 0, 72, 67
1, 482527, Note_on_c, 0, 64, 66
1, 482527, Note_off_c, 0, 67, 72
1, 482554, Note_off_c, 0, 64, 66
1, 482559, Note_on_c, 0, 64, 65
1, 482591, Note_off_c, 0, 64, 65
1, 482591, Note_on_c, 0, 72, 68
1, 482623, Note_on_c, 0, 67, 65
1, 482623, Note_off_c, 0, 72, 68
1, 482655, Note_on_c, 0, 64, 67
1, 482655, Note_off_c, 0, 67, 65
1, 482687, Note_off_c, 0, 64, 67
1, 482688, Note_on_c, 0, 65, 74
1, 482719, Note_off_c, 0, 65, 74
1, 482719, Note_on_c, 0, 72, 65
1, 482751, Note_on_c, 0, 69, 69
1, 482752, Note_off_c, 0, 72, 65
1, 482783, Note_off_c, 0, 69, 69
1, 482784, Note_on_c, 0, 65, 70
1, 482811, Note_off_c, 0, 65, 70
1, 482815, Note_on_c, 0, 65, 66
1, 482848, Note_off_c, 0, 65, 66
1, 482848, Note_on_c, 0, 72, 69
1, 482880, Note_on_c, 0, 69, 72
1, 482880, Note_off_c, 0, 72, 69
1, 482911, Note_on_c, 0, 65, 66
1, 482911, Note_off_c, 0, 69, 72
1, 482938, Note_off_c, 0, 65, 66
1, 482943, Note_on_c, 0, 65, 69
1, 482975, Note_off_c, 0, 65, 69
1, 482976, Note_on_c, 0, 72, 67
1, 483007, Note_on_c, 0, 69, 65
1, 483007, Note_off_c, 0, 72, 67
1, 483039, Note_on_c, 0, 65, 68
1, 483039, Note_off_c, 0, 69, 65
1, 483071, Note_off_c, 0, 65, 68
1, 483072, Note_on_c, 0, 64, 79
1, 483103, Note_off_c, 0, 64, 79
1, 483103, Note_on_c, 0, 72, 65
1, 483135, Note_off_c, 0, 72, 65
1, 483136, Note_on_c, 0, 69, 69
1, 483168, Note_on_c, 0, 64, 71
1, 483168, Note_off_c, 0, 69, 69
1, 483195, Note_off_c, 0, 64, 71
1, 483199, Note_on_c, 0, 64, 67
1, 483231, Note_off_c, 0, 64, 67
1, 483232, Note_on_c, 0, 72, 65
1, 483264, Note_on_c, 0, 69, 71
1, 483264, Note_off_c, 0, 72, 65
1, 483295, Note_on_c, 0, 64, 65
1, 483295, Note_off_c, 0, 69, 71
1, 483322, Note_off_c, 0, 64, 65
1, 483327, Note_on_c, 0, 64, 65
1, 483359, Note_off_c, 0, 64, 65
1, 483360, Note_on_c, 0, 72, 65
1, 483391, Note_on_c, 0, 69, 67
1, 483391, Note_off_c, 0, 72, 65
1, 483423, Note_on_c, 0, 64, 68
1, 483423, Note_off_c, 0, 69, 67
1, 483455, Note_off_c, 0, 64, 68
1, 483456, Note_on_c, 0, 62, 76
1, 483487, Note_off_c, 0, 62, 76
1, 483487, Note_on_c, 0, 71, 68
1, 483519, Note_off_c, 0, 71, 68
1, 483520, Note_on_c, 0, 67, 69
1, 483552, Note_on_c, 0, 62, 72
1, 483552, Note_off_c, 0, 67, 69
1, 483579, Note_off_c, 0, 62, 72
1, 483583, Note_on_c, 0, 62, 69
1, 483615, Note_off_c, 0, 62, 69
1, 483616, Note_on_c, 0, 71, 66
1, 483648, Note_on_c, 0, 67, 74
1, 483648, Note_off_c, 0, 71, 66
1, 483679, Note_on_c, 0, 62, 66
1, 483679, Note_off_c, 0, 67, 74
1, 483706, Note_off_c, 0, 62, 66
1, 483711, Note_on_c, 0, 62, 66
1, 483743, Note_off_c, 0, 62, 66
1, 483744, Note_on_c, 0, 71, 69
1, 483775, Note_on_c, 0, 67, 69
1, 483775, Note_off_c, 0, 71, 69
1, 483807, Note_on_c, 0, 62, 67
1, 483807, Note_off_c, 0, 67, 69
1, 483839, Note_off_c, 0, 62, 67
1, 483840, Control_c, 0, 1, 70
1, 483840, Note_on_c, 0, 55, 72
1, 483888, Note_off_c, 0, 55, 72
1, 483888, Note_on_c, 0, 60, 67
1, 483936, Note_off_c, 0, 60, 67
1, 483936, Note_on_c, 0, 64, 69
1, 483984, Note_off_c, 0, 64, 69
1, 483984, Note_on_c, 0, 67, 69
1, 484032, Note_on_c, 0, 64, 74
1, 484032, Note_off_c, 0, 67, 69
1, 484080, Note_off_c, 0, 64, 74
1, 484080, Note_on_c, 0, 67, 65
1, 484128, Note_on_c, 0, 64, 69
1, 484128, Note_off_c, 0, 67, 65
1, 484176, Note_off_c, 0, 64, 69
1, 484176, Note_on_c, 0, 67, 68
1, 484224, Note_on_c, 0, 57, 72
1, 484224, Note_off_c, 0, 67, 68
1, 484272, Note_off_c, 0, 57, 72
1, 484272, Note_on_c, 0, 60, 69
1, 484320, Note_off_c, 0, 60, 69
1, 484320, Note_on_c, 0, 65, 70
1, 484368, Note_off_c, 0, 65, 70
1, 484368, Note_on_c, 0, 69, 68
1, 484416, Note_on_c, 0, 65, 71
1, 484416, Note_off_c, 0, 69, 68
1, 484464, Note_off_c, 0, 65, 71
1, 484464, Note_on_c, 0, 69, 66
1, 484512, Note_on_c, 0, 65, 65
1, 484512, Note_off_c, 0, 69, 66
1, 484560, Note_off_c, 0, 65, 65
1, 484560, Note_on_c, 0, 69, 68
1, 484608, Note_on_c, 0, 57, 77
1, 484608, Note_off_c, 0, 69, 68
1, 484656, Note_off_c, 0, 57, 77
1, 484656, Note_on_c, 0, 60, 69
1, 484704, Note_off_c, 0, 60, 69
1, 484704, Note_on_c, 0, 64, 69
1, 484752, Note_off_c, 0, 64, 69
1, 484752, Note_on_c, 0, 69, 67
1, 484800, Note_on_c, 0, 64, 72
1, 484800, Note_off_c, 0, 69, 67
1, 484848, Note_off_c, 0, 64, 72
1, 484848, Note_on_c, 0, 69, 65
1, 484896, Note_on_c, 0, 64, 66
1, 484896, Note_off_c, 0, 69, 65
1, 484944, Note_off_c, 0, 64, 66
1, 484944, Note_on_c, 0, 69, 67
1, 484992, Note_on_c, 0, 55, 76
1, 484992, Note_off_c, 0, 69, 67
1, 485040, Note_off_c, 0, 55, 76
1, 485040, Note_on_c, 0, 59, 66
1, 485088, Note_off_c, 0, 59, 66
1, 485088, Note_on_c, 0, 62, 72
1, 485136, Note_off_c, 0, 62, 72
1, 485136, Note_on_c, 0, 67, 67
1, 485184, Note_on_c, 0, 62, 72
1, 485184, Note_off_c, 0, 67, 67
1, 485232, Note_off_c, 0, 62, 72
1, 485232, Note_on_c, 0, 67, 68
1, 485280, Note_on_c, 0, 62, 68
1, 485280, Note_off_c, 0, 67, 68
1, 485328, Note_off_c, 0, 62, 68
1, 485328, Note_on_c, 0, 67, 66
1, 485376, Control_c, 0, 1, 70
1, 485376, Control_c, 0, 1, 0
1, 485376, Note_on_c, 0, 36, 79
1, 485376, Note_off_c, 0, 67, 66
1, 485376, Note_on_c, 0, 76, 108
1, 485472, Note_off_c, 0, 76, 108
1, 485472, Note_on_c, 0, 79, 100
1, 485520, Note_on_c, 0, 76, 98
1, 485520, Note_off_c, 0, 79, 100
1, 485568, Note_on_c, 0, 72, 103
1, 485568, Note_off_c, 0, 76, 98
1, 485760, Note_off_c, 0, 36, 79
1, 485760, Note_on_c, 0, 41, 72
1, 485760, Note_off_c, 0, 72, 103
1, 485760, Note_on_c, 0, 81, 108
1, 485947, Note_off_c, 0, 81, 108
1, 485952, Note_on_c, 0, 81, 102
1, 486144, Note_off_c, 0, 41, 72
1, 486144, Note_on_c, 0, 45, 73
1, 486144, Note_on_c, 0, 72, 107
1, 486144, Note_off_c, 0, 81, 102
1, 486331, Note_off_c, 0, 72, 107
1, 486336, Note_on_c, 0, 72, 106
1, 486432, Note_on_c, 0, 69, 99
1, 486432, Note_off_c, 0, 72, 106
1, 486528, Note_on_c, 0, 43, 72
1, 486528, Note_off_c, 0, 45, 73
1, 486528, Note_off_c, 0, 69, 99
1, 486528, Note_on_c, 0, 71, 104
1, 486720, Note_off_c, 0, 71, 104
1, 486720, Note_on_c, 0, 79, 106
1, 486912, Control_c, 0, 1, 0
1, 486912, Control_c, 0, 1, 70
1, 486912, Note_off_c, 0, 43, 72
1, 486912, Note_on_c, 0, 67, 72
1, 486912, Note_off_c, 0, 79, 106
1, 486943, Note_off_c, 0, 67, 72
1, 486943, Note_on_c, 0, 76, 68
1, 486976, Note_off_c, 0, 76, 68
1, 486976, Note_on_c, 0, 79, 69
1, 487008, Note_on_c, 0, 72, 68
1, 487008, Note_off_c, 0, 79, 69
1, 487039, Note_on_c, 0, 67, 66
1, 487039, Note_off_c, 0, 72, 68
1, 487072, Note_off_c, 0, 67, 66
1, 487072, Note_on_c, 0, 76, 69
1, 487104, Note_off_c, 0, 76, 69
1, 487104, Note_on_c, 0, 81, 72
1, 487135, Note_on_c, 0, 72, 68
1, 487135, Note_off_c, 0, 81, 72
1, 487167, Note_on_c, 0, 67, 69
1, 487167, Note_off_c, 0, 72, 68
1, 487199, Note_off_c, 0, 67, 69
1, 487199, Note_on_c, 0, 76, 65
1, 487231, Note_off_c, 0, 76, 65
1, 487231, Note_on_c, 0, 79, 68
1, 487263, Note_on_c, 0, 72, 65
1, 487263, Note_off_c, 0, 79, 68
1, 487295, Note_off_c, 0, 72, 65
1, 487296, Note_on_c, 0, 67, 72
1, 487327, Note_off_c, 0, 67, 72
1, 487327, Note_on_c, 0, 76, 67
1, 487359, Note_on_c, 0, 79, 65
1, 487360, Note_off_c, 0, 76, 67
1, 487391, Note_off_c, 0, 79, 65
1, 487392, Note_on_c, 0, 72, 71
1, 487423, Note_on_c, 0, 67, 68
1, 487423, Note_off_c, 0, 72, 71
1, 487456, Note_off_c, 0, 67, 68
1, 487456, Note_on_c, 0, 76, 67
1, 487488, Note_off_c, 0, 76, 67
1, 487488, Note_on_c, 0, 81, 73
1, 487519, Note_on_c, 0, 72, 68
1, 487519, Note_off_c, 0, 81, 73
1, 487551, Note_on_c, 0, 67, 66
1, 487551, Note_off_c, 0, 72, 68
1, 487583, Note_off_c, 0, 67, 66
1, 487584, Note_on_c, 0, 76, 69
1, 487615, Note_off_c, 0, 76, 69
1, 487615, Note_on_c, 0, 79, 67
1, 487647, Note_on_c, 0, 72, 65
1, 487647, Note_off_c, 0, 79, 67
1, 487679, Note_off_c, 0, 72, 65
1, 487680, Note_on_c, 0, 65, 77
1, 487711, Note_off_c, 0, 65, 77
1, 487711, Note_on_c, 0, 74, 67
1, 487743, Note_off_c, 0, 74, 67
1, 487744, Note_on_c, 0, 77, 67
1, 487776, Note_on_c, 0, 69, 72
1, 487776, Note_off_c, 0, 77, 67
1, 487807, Note_on_c, 0, 65, 67
1, 487807, Note_off_c, 0, 69, 72
1, 487839, Note_off_c, 0, 65, 67
1, 487840, Note_on_c, 0, 74, 67
1, 487872, Note_off_c, 0, 74, 67
1, 487872, Note_on_c, 0, 79, 74
1, 487903, Note_on_c, 0, 69, 65
1, 487903, Note_off_c, 0, 79, 74
1, 487935, Note_on_c, 0, 65, 69
1, 487935, Note_off_c, 0, 69, 65
1, 487967, Note_off_c, 0, 65, 69
1, 487968, Note_on_c, 0, 74, 66
1, 487999, Note_off_c, 0, 74, 66
1, 487999, Note_on_c, 0, 77, 68
1, 488031, Note_on_c, 0, 69, 66
1, 488031, Note_off_c, 0, 77, 68
1, 488063, Note_off_c, 0, 69, 66
1, 488064, Note_on_c, 0, 65, 75
1, 488095, Note_off_c, 0, 65, 75
1, 488095, Note_on_c, 0, 74, 69
1, 488127, Note_off_c, 0, 74, 69
1, 488128, Note_on_c, 0, 77, 69
1, 488160, Note_on_c, 0, 69, 69
1, 488160, Note_off_c, 0, 77, 69
1, 488191, Note_on_c, 0, 65, 69
1, 488191, Note_off_c, 0, 69, 69
1, 488223, Note_off_c, 0, 65, 69
1, 488224, Note_on_c, 0, 74, 69
1, 488256, Note_off_c, 0, 74, 69
1, 488256, Note_on_c, 0, 81, 73
1, 488287, Note_on_c, 0, 69, 65
1, 488287, Note_off_c, 0, 81, 73
1, 488319, Note_on_c, 0, 65, 65
1, 488319, Note_off_c, 0, 69, 65
1, 488351, Note_off_c, 0, 65, 65
1, 488352, Note_on_c, 0, 74, 67
1, 488383, Note_off_c, 0, 74, 67
1, 488383, Note_on_c, 0, 77, 69
1, 488415, Note_on_c, 0, 69, 65
1, 488415, Note_off_c, 0, 77, 69
1, 488447, Note_off_c, 0, 69, 65
1, 488448, Control_c, 0, 1, 70
1, 488448, Note_on_c, 0, 36, 74
1, 488448, Note_on_c, 0, 57, 76
1, 488635, Note_off_c, 0, 57, 76
1, 488640, Note_on_c, 0, 57, 69
1, 488736, Note_off_c, 0, 57, 69
1, 488736, Note_on_c, 0, 67, 67
1, 488827, Note_off_c, 0, 36, 74
1, 488832, Note_on_c, 0, 36, 75
1, 488832, Note_on_c, 0, 64, 73
1, 488832, Note_off_c, 0, 67, 67
1, 489024, Note_on_c, 0, 55, 72
1, 489024, Note_off_c, 0, 64, 73
1, 489216, Note_off_c, 0, 36, 75
1, 489216, Note_on_c, 0, 38, 74
1, 489216, Note_off_c, 0, 55, 72
1, 489216, Note_on_c, 0, 57, 73
1, 489403, Note_off_c, 0, 57, 73
1, 489408, Note_on_c, 0, 57, 69
1, 489504, Note_off_c, 0, 57, 69
1, 489504, Note_on_c, 0, 67, 67
1, 489595, Note_off_c, 0, 38, 74
1, 489600, Note_on_c, 0, 38, 79
1, 489600, Note_off_c, 0, 67, 67
1, 489600, Note_on_c, 0, 74, 77
1, 489792, Note_on_c, 0, 67, 69
1, 489792, Note_off_c, 0, 74, 77
1, 489984, Control_c, 0, 1, 70
1, 489984, Control_c, 0, 1, 0
1, 489984, Note_off_c, 0, 38, 79
1, 489984, Note_on_c, 0, 57, 76
1, 489984, Note_off_c, 0, 67, 69
1, 490031, Note_off_c, 0, 57, 76
1, 490032, Note_on_c, 0, 64, 76
1, 490079, Note_off_c, 0, 64, 76
1, 490079, Note_on_c, 0, 69, 76
1, 490127, Note_on_c, 0, 76, 76
1, 490134, Note_off_c, 0, 69, 76
1, 490175, Note_off_c, 0, 76, 76
1, 490176, Note_on_c, 0, 57, 76
1, 490223, Note_off_c, 0, 57, 76
1, 490224, Note_on_c, 0, 64, 76
1, 490271, Note_off_c, 0, 64, 76
1, 490271, Note_on_c, 0, 69, 76
1, 490319, Note_on_c, 0, 76, 76
1, 490326, Note_off_c, 0, 69, 76
1, 490367, Note_off_c, 0, 76, 76
1, 490368, Note_on_c, 0, 53, 76
1, 490415, Note_off_c, 0, 53, 76
1, 490415, Note_on_c, 0, 63, 76
1, 490463, Note_off_c, 0, 63, 76
1, 490464, Note_on_c, 0, 69, 76
1, 490511, Note_on_c, 0, 74, 76
1, 490517, Note_off_c, 0, 69, 76
1, 490557, Note_off_c, 0, 74, 76
1, 490560, Note_on_c, 0, 53, 76
1, 490607, Note_off_c, 0, 53, 76
1, 490607, Note_on_c, 0, 63, 76
1, 490655, Note_off_c, 0, 63, 76
1, 490656, Note_on_c, 0, 69, 76
1, 490703, Note_on_c, 0, 74, 76
1, 490709, Note_off_c, 0, 69, 76
1, 490749, Note_off_c, 0, 74, 76
1, 490752, Note_on_c, 0, 53, 76
1, 490799, Note_off_c, 0, 53, 76
1, 490799, Note_on_c, 0, 67, 76
1, 490847, Note_off_c, 0, 67, 76
1, 490847, Note_on_c, 0, 72, 76
1, 490895, Note_off_c, 0, 72, 76
1, 490895, Note_on_c, 0, 79, 76
1, 490941, Note_off_c, 0, 79, 76
1, 490944, Note_on_c, 0, 53, 76
1, 490991, Note_off_c, 0, 53, 76
1, 490991, Note_on_c, 0, 67, 76
1, 491039, Note_off_c, 0, 67, 76
1, 491039, Note_on_c, 0, 72, 76
1, 491087, Note_off_c, 0, 72, 76
1, 491087, Note_on_c, 0, 79, 76
1, 491133, Note_off_c, 0, 79, 76
1, 491135, Note_on_c, 0, 52, 76
1, 491183, Note_off_c, 0, 52, 76
1, 491183, Note_on_c, 0, 64, 76
1, 491231, Note_on_c, 0, 69, 76
1, 491231, Note_off_c, 0, 64, 76
1, 491279, Note_on_c, 0, 76, 76
1, 491286, Note_off_c, 0, 69, 76
1, 491326, Note_off_c, 0, 76, 76
1, 491327, Note_on_c, 0, 52, 76
1, 491375, Note_off_c, 0, 52, 76
1, 491375, Note_on_c, 0, 64, 76
1, 491423, Note_on_c, 0, 69, 76
1, 491423, Note_off_c, 0, 64, 76
1, 491471, Note_on_c, 0, 76, 76
1, 491478, Note_off_c, 0, 69, 76
1, 491518, Note_off_c, 0, 76, 76
1, 491520, Note_on_c, 0, 65, 32
1, 491568, Note_off_c, 0, 65, 32
1, 491568, Note_on_c, 0, 72, 32
1, 491616, Note_on_c, 0, 77, 54
1, 491640, Note_off_c, 0, 72, 32
1, 491664, Note_on_c, 0, 84, 56
1, 491712, Note_off_c, 0, 77, 54
1, 491712, Note_on_c, 0, 79, 51
1, 491712, Note_off_c, 0, 84, 56
1, 491808, Note_off_c, 0, 79, 51
1, 491904, Note_on_c, 0, 74, 56
1, 491952, Note_on_c, 0, 67, 53
1, 491952, Note_off_c, 0, 74, 56
1, 492000, Note_on_c, 0, 62, 21
1, 492000, Note_off_c, 0, 67, 53
1, 492048, Note_on_c, 0, 52, 31
1, 492048, Note_off_c, 0, 62, 21
1, 492096, Note_off_c, 0, 52, 31
1, 492096, Note_on_c, 0, 57, 19
1, 492192, Note_on_c, 0, 79, 41
1, 492240, Note_off_c, 0, 79, 41
1, 492240, Note_on_c, 0, 84, 42
1, 492288, Note_off_c, 0, 57, 19
1, 492288, Note_on_c, 0, 83, 51
1, 492288, Note_off_c, 0, 84, 42
1, 492336, Note_on_c, 0, 76, 44
1, 492336, Note_off_c, 0, 83, 51
1, 492384, Note_on_c, 0, 71, 17
1, 492432, Note_on_c, 0, 57, 35
1, 492432, Note_off_c, 0, 71, 17
1, 492456, Note_off_c, 0, 76, 44
1, 492480, Note_off_c, 0, 57, 35
1, 492480, Note_on_c, 0, 76, 23
1, 492576, Note_on_c, 0, 69, 43
1, 492576, Note_off_c, 0, 76, 23
1, 492624, Note_off_c, 0, 69, 43
1, 492624, Note_on_c, 0, 74, 52
1, 492672, Note_off_c, 0, 74, 52
1, 492672, Note_on_c, 0, 81, 56
1, 492720, Note_on_c, 0, 74, 54
1, 492720, Note_off_c, 0, 81, 56
1, 492768, Note_on_c, 0, 69, 27
1, 492768, Note_off_c, 0, 74, 54
1, 492816, Note_on_c, 0, 57, 39
1, 492816, Note_off_c, 0, 69, 27
1, 492864, Note_on_c, 0, 55, 27
1, 492864, Note_off_c, 0, 57, 39
1, 492912, Note_off_c, 0, 55, 27
1, 492912, Note_on_c, 0, 67, 23
1, 492960, Note_off_c, 0, 67, 23
1, 492960, Note_on_c, 0, 71, 47
1, 493008, Note_off_c, 0, 71, 47
1, 493008, Note_on_c, 0, 79, 51
1, 493056, Note_on_c, 0, 57, 63
1, 493056, Note_off_c, 0, 79, 51
1, 493104, Note_off_c, 0, 57, 63
1, 493104, Note_on_c, 0, 64, 58
1, 493151, Note_on_c, 0, 71, 73
1, 493152, Note_off_c, 0, 64, 58
1, 493199, Note_off_c, 0, 71, 73
1, 493200, Note_on_c, 0, 77, 73
1, 493247, Note_off_c, 0, 77, 73
1, 493248, Note_on_c, 0, 57, 63
1, 493296, Note_off_c, 0, 57, 63
1, 493296, Note_on_c, 0, 64, 58
1, 493344, Note_off_c, 0, 64, 58
1, 493344, Note_on_c, 0, 69, 73
1, 493391, Note_off_c, 0, 69, 73
1, 493392, Note_on_c, 0, 74, 66
1, 493429, Note_off_c, 0, 74, 66
1, 493440, Note_on_c, 0, 57, 60
1, 493488, Note_off_c, 0, 57, 60
1, 493488, Note_on_c, 0, 64, 57
1, 493536, Note_off_c, 0, 64, 57
1, 493536, Note_on_c, 0, 69, 66
1, 493584, Note_on_c, 0, 71, 69
1, 493584, Note_off_c, 0, 69, 66
1, 493632, Note_on_c, 0, 57, 60
1, 493633, Note_off_c, 0, 71, 69
1, 493680, Note_off_c, 0, 57, 60
1, 493680, Note_on_c, 0, 64, 57
1, 493728, Note_off_c, 0, 64, 57
1, 493728, Note_on_c, 0, 67, 66
1, 493775, Note_on_c, 0, 72, 72
1, 493776, Note_off_c, 0, 67, 66
1, 493823, Note_off_c, 0, 72, 72
1, 493824, Note_on_c, 0, 59, 59
1, 493872, Note_off_c, 0, 59, 59
1, 493872, Note_on_c, 0, 67, 58
1, 493920, Note_off_c, 0, 67, 58
1, 493920, Note_on_c, 0, 69, 76
1, 493964, Note_off_c, 0, 69, 76
1, 493968, Note_on_c, 0, 76, 73
1, 494011, Note_off_c, 0, 76, 73
1, 494016, Note_on_c, 0, 60, 59
1, 494064, Note_off_c, 0, 60, 59
1, 494064, Note_on_c, 0, 67, 58
1, 494111, Note_on_c, 0, 71, 76
1, 494112, Note_off_c, 0, 67, 58
1, 494156, Note_off_c, 0, 71, 76
1, 494160, Note_on_c, 0, 76, 73
1, 494203, Note_off_c, 0, 76, 73
1, 494208, Note_on_c, 0, 59, 52
1, 494256, Note_off_c, 0, 59, 52
1, 494256, Note_on_c, 0, 71, 57
1, 494304, Note_off_c, 0, 71, 57
1, 494304, Note_on_c, 0, 76, 68
1, 494341, Note_off_c, 0, 76, 68
1, 494352, Note_on_c, 0, 67, 74
1, 494400, Note_on_c, 0, 62, 70
1, 494400, Note_off_c, 0, 67, 74
1, 494448, Note_off_c, 0, 62, 70
1, 494448, Note_on_c, 0, 64, 58
1, 494496, Note_off_c, 0, 64, 58
1, 494496, Note_on_c, 0, 69, 65
1, 494539, Note_off_c, 0, 69, 65
1, 494544, Note_on_c, 0, 67, 65
1, 494587, Note_off_c, 0, 67, 65
1, 494592, Note_on_c, 0, 57, 78
1, 494640, Note_off_c, 0, 57, 78
1, 494640, Note_on_c, 0, 64, 68
1, 494687, Note_on_c, 0, 69, 69
1, 494688, Note_off_c, 0, 64, 68
1, 494741, Note_off_c, 0, 69, 69
1, 494784, Note_on_c, 0, 76, 76
1, 494873, Note_off_c, 0, 76, 76
1, 494880, Note_on_c, 0, 69, 60
1, 494927, Note_off_c, 0, 69, 60
1, 494928, Note_on_c, 0, 76, 93
1, 494976, Note_on_c, 0, 59, 87
1, 494976, Note_off_c, 0, 76, 93
1, 495024, Note_on_c, 0, 64, 82
1, 495072, Note_off_c, 0, 59, 87
1, 495072, Note_on_c, 0, 71, 71
1, 495120, Note_off_c, 0, 64, 82
1, 495120, Note_off_c, 0, 71, 71
1, 495168, Note_on_c, 0, 79, 95
1, 495350, Note_off_c, 0, 79, 95
1, 495360, Note_on_c, 0, 67, 81
1, 495408, Note_off_c, 0, 67, 81
1, 495408, Note_on_c, 0, 71, 76
1, 495442, Note_off_c, 0, 71, 76
1, 495456, Note_on_c, 0, 79, 76
1, 495504, Note_on_c, 0, 83, 83
1, 495516, Note_off_c, 0, 79, 76
1, 495552, Note_off_c, 0, 83, 83
1, 495552, Note_on_c, 0, 86, 20
1, 495600, Note_on_c, 0, 71, 71
1, 495600, Note_off_c, 0, 86, 20
1, 495648, Note_off_c, 0, 71, 71
1, 495648, Note_on_c, 0, 79, 51
1, 495696, Note_on_c, 0, 83, 97
1, 495698, Note_off_c, 0, 79, 51
1, 495743, Note_off_c, 0, 83, 97
1, 495744, Note_on_c, 0, 69, 87
1, 495792, Note_off_c, 0, 69, 87
1, 495792, Note_on_c, 0, 76, 76
1, 495840, Note_off_c, 0, 76, 76
1, 495840, Note_on_c, 0, 84, 106
1, 495888, Note_on_c, 0, 79, 74
1, 495888, Note_off_c, 0, 84, 106
1, 495936, Note_off_c, 0, 79, 74
1, 495984, Note_on_c, 0, 76, 64
1, 496015, Note_off_c, 0, 76, 64
1, 496128, Note_on_c, 0, 57, 63
1, 496176, Note_off_c, 0, 57, 63
1, 496176, Note_on_c, 0, 64, 58
1, 496224, Note_off_c, 0, 64, 58
1, 496224, Note_on_c, 0, 69, 73
1, 496271, Note_off_c, 0, 69, 73
1, 496272, Note_on_c, 0, 76, 73
1, 496319, Note_off_c, 0, 76, 73
1, 496320, Note_on_c, 0, 57, 63
1, 496368, Note_off_c, 0, 57, 63
1, 496368, Note_on_c, 0, 64, 58
1, 496416, Note_off_c, 0, 64, 58
1, 496416, Note_on_c, 0, 69, 73
1, 496463, Note_off_c, 0, 69, 73
1, 496464, Note_on_c, 0, 74, 66
1, 496501, Note_off_c, 0, 74, 66
1, 496512, Note_on_c, 0, 57, 60
1, 496560, Note_off_c, 0, 57, 60
1, 496560, Note_on_c, 0, 64, 57
1, 496608, Note_off_c, 0, 64, 57
1, 496608, Note_on_c, 0, 69, 66
1, 496656, Note_on_c, 0, 71, 69
1, 496656, Note_off_c, 0, 69, 66
1, 496704, Note_on_c, 0, 57, 60
1, 496705, Note_off_c, 0, 71, 69
1, 496752, Note_off_c, 0, 57, 60
1, 496752, Note_on_c, 0, 64, 57
1, 496800, Note_off_c, 0, 64, 57
1, 496800, Note_on_c, 0, 69, 66
1, 496848, Note_on_c, 0, 74, 72
1, 496848, Note_off_c, 0, 69, 66
1, 496896, Note_on_c, 0, 59, 59
1, 496896, Note_off_c, 0, 74, 72
1, 496944, Note_off_c, 0, 59, 59
1, 496944, Note_on_c, 0, 67, 58
1, 496992, Note_off_c, 0, 67, 58
1, 496992, Note_on_c, 0, 69, 76
1, 497036, Note_off_c, 0, 69, 76
1, 497040, Note_on_c, 0, 76, 73
1, 497083, Note_off_c, 0, 76, 73
1, 497088, Note_on_c, 0, 59, 59
1, 497136, Note_off_c, 0, 59, 59
1, 497136, Note_on_c, 0, 67, 58
1, 497184, Note_off_c, 0, 67, 58
1, 497184, Note_on_c, 0, 69, 76
1, 497228, Note_off_c, 0, 69, 76
1, 497232, Note_on_c, 0, 76, 73
1, 497275, Note_off_c, 0, 76, 73
1, 497280, Note_on_c, 0, 59, 52
1, 497328, Note_off_c, 0, 59, 52
1, 497328, Note_on_c, 0, 71, 57
1, 497376, Note_off_c, 0, 71, 57
1, 497376, Note_on_c, 0, 76, 68
1, 497413, Note_off_c, 0, 76, 68
1, 497424, Note_on_c, 0, 69, 74
1, 497472, Note_on_c, 0, 59, 70
1, 497472, Note_off_c, 0, 69, 74
1, 497520, Note_off_c, 0, 59, 70
1, 497520, Note_on_c, 0, 64, 58
1, 497568, Note_off_c, 0, 64, 58
1, 497568, Note_on_c, 0, 69, 65
1, 497611, Note_off_c, 0, 69, 65
1, 497616, Note_on_c, 0, 67, 65
1, 497659, Note_off_c, 0, 67, 65
1, 497664, Note_on_c, 0, 57, 63
1, 497712, Note_on_c, 0, 64, 58
1, 497808, Note_off_c, 0, 64, 58
1, 497808, Note_on_c, 0, 69, 74
1, 497849, Note_off_c, 0, 69, 74
1, 497856, Note_on_c, 0, 64, 50
1, 497856, Note_on_c, 0, 74, 66
1, 497893, Note_off_c, 0, 74, 66
1, 497928, Note_off_c, 0, 64, 50
1, 497952, Note_on_c, 0, 76, 73
1, 497997, Note_off_c, 0, 57, 63
1, 497999, Note_off_c, 0, 76, 73
1, 498048, Note_on_c, 0, 57, 60
1, 498096, Note_on_c, 0, 64, 57
1, 498171, Note_off_c, 0, 64, 57
1, 498192, Note_on_c, 0, 69, 74
1, 498238, Note_off_c, 0, 69, 74
1, 498240, Note_on_c, 0, 64, 49
1, 498240, Note_on_c, 0, 74, 72
1, 498280, Note_off_c, 0, 74, 72
1, 498312, Note_off_c, 0, 57, 60
1, 498346, Note_off_c, 0, 64, 49
1, 498432, Note_on_c, 0, 59, 59
1, 498480, Note_on_c, 0, 67, 58
1, 498528, Note_off_c, 0, 67, 58
1, 498576, Note_on_c, 0, 76, 73
1, 498619, Note_off_c, 0, 76, 73
1, 498624, Note_off_c, 0, 59, 59
1, 498624, Note_on_c, 0, 59, 59
1, 498624, Note_on_c, 0, 69, 76
1, 498668, Note_off_c, 0, 69, 76
1, 498672, Note_off_c, 0, 59, 59
1, 498672, Note_on_c, 0, 67, 58
1, 498720, Note_off_c, 0, 67, 58
1, 498720, Note_on_c, 0, 69, 76
1, 498764, Note_off_c, 0, 69, 76
1, 498768, Note_on_c, 0, 76, 73
1, 498811, Note_off_c, 0, 76, 73
1, 498816, Note_on_c, 0, 59, 52
1, 498816, Note_on_c, 0, 76, 68
1, 498816, Note_on_c, 0, 79, 71
1, 498853, Note_off_c, 0, 76, 68
1, 498856, Note_off_c, 0, 79, 71
1, 498864, Note_off_c, 0, 59, 52
1, 498864, Note_on_c, 0, 71, 57
1, 498953, Note_off_c, 0, 71, 57
1, 498960, Note_on_c, 0, 69, 74
1, 499008, Note_off_c, 0, 69, 74
1, 499008, Note_on_c, 0, 74, 70
1, 499056, Note_on_c, 0, 64, 58
1, 499056, Note_off_c, 0, 74, 70
1, 499152, Note_off_c, 0, 64, 58
1, 499152, Note_on_c, 0, 69, 65
1, 499200, Control_c, 0, 1, 0
1, 499200, Control_c, 0, 1, 70
1, 499200, Note_on_c, 0, 45, 77
1, 499200, Note_off_c, 0, 69, 65
1, 499232, Note_off_c, 0, 45, 77
1, 499232, Note_on_c, 0, 48, 68
1, 499263, Note_off_c, 0, 48, 68
1, 499263, Note_on_c, 0, 55, 67
1, 499296, Note_on_c, 0, 52, 72
1, 499296, Note_off_c, 0, 55, 67
1, 499328, Note_on_c, 0, 45, 66
1, 499328, Note_off_c, 0, 52, 72
1, 499359, Note_off_c, 0, 45, 66
1, 499359, Note_on_c, 0, 48, 65
1, 499392, Note_off_c, 0, 48, 65
1, 499392, Note_on_c, 0, 55, 71
1, 499423, Note_on_c, 0, 52, 67
1, 499424, Note_off_c, 0, 55, 71
1, 499455, Note_on_c, 0, 45, 66
1, 499455, Note_off_c, 0, 52, 67
1, 499487, Note_off_c, 0, 45, 66
1, 499487, Note_on_c, 0, 48, 65
1, 499519, Note_off_c, 0, 48, 65
1, 499519, Note_on_c, 0, 55, 67
1, 499551, Note_on_c, 0, 52, 68
1, 499551, Note_off_c, 0, 55, 67
1, 499583, Note_off_c, 0, 52, 68
1, 499584, Note_on_c, 0, 45, 78
1, 499616, Note_off_c, 0, 45, 78
1, 499616, Note_on_c, 0, 48, 68
1, 499647, Note_off_c, 0, 48, 68
1, 499647, Note_on_c, 0, 53, 65
1, 499679, Note_off_c, 0, 53, 65
1, 499680, Note_on_c, 0, 52, 72
1, 499712, Note_on_c, 0, 45, 65
1, 499712, Note_off_c, 0, 52, 72
1, 499743, Note_off_c, 0, 45, 65
1, 499743, Note_on_c, 0, 48, 67
1, 499776, Note_off_c, 0, 48, 67
1, 499776, Note_on_c, 0, 53, 72
1, 499807, Note_on_c, 0, 52, 65
1, 499808, Note_off_c, 0, 53, 72
1, 499839, Note_on_c, 0, 45, 65
1, 499839, Note_off_c, 0, 52, 65
1, 499871, Note_off_c, 0, 45, 65
1, 499872, Note_on_c, 0, 48, 67
1, 499903, Note_on_c, 0, 53, 67
1, 499904, Note_off_c, 0, 48, 67
1, 499935, Note_on_c, 0, 52, 66
1, 499935, Note_off_c, 0, 53, 67
1, 499967, Note_off_c, 0, 52, 66
1, 499968, Note_on_c, 0, 47, 76
1, 499999, Note_on_c, 0, 48, 65
1, 500000, Note_off_c, 0, 47, 76
1, 500031, Note_off_c, 0, 48, 65
1, 500031, Note_on_c, 0, 55, 68
1, 500064, Note_on_c, 0, 52, 72
1, 500064, Note_off_c, 0, 55, 68
1, 500095, Note_on_c, 0, 47, 66
1, 500096, Note_off_c, 0, 52, 72
1, 500127, Note_off_c, 0, 47, 66
1, 500127, Note_on_c, 0, 48, 65
1, 500160, Note_off_c, 0, 48, 65
1, 500160, Note_on_c, 0, 55, 73
1, 500191, Note_on_c, 0, 52, 67
1, 500192, Note_off_c, 0, 55, 73
1, 500223, Note_on_c, 0, 47, 65
1, 500223, Note_off_c, 0, 52, 67
1, 500255, Note_off_c, 0, 47, 65
1, 500256, Note_on_c, 0, 48, 67
1, 500287, Note_on_c, 0, 55, 69
1, 500288, Note_off_c, 0, 48, 67
1, 500319, Note_on_c, 0, 52, 67
1, 500319, Note_off_c, 0, 55, 69
1, 500351, Note_off_c, 0, 52, 67
1, 500352, Note_on_c, 0, 47, 74
1, 500383, Note_on_c, 0, 50, 68
1, 500384, Note_off_c, 0, 47, 74
1, 500415, Note_off_c, 0, 50, 68
1, 500415, Note_on_c, 0, 55, 67
1, 500448, Note_on_c, 0, 54, 68
1, 500448, Note_off_c, 0, 55, 67
1, 500479, Note_on_c, 0, 47, 69
1, 500480, Note_off_c, 0, 54, 68
1, 500511, Note_off_c, 0, 47, 69
1, 500511, Note_on_c, 0, 50, 65
1, 500544, Note_off_c, 0, 50, 65
1, 500544, Note_on_c, 0, 55, 74
1, 500575, Note_on_c, 0, 54, 69
1, 500576, Note_off_c, 0, 55, 74
1, 500607, Note_on_c, 0, 47, 67
1, 500607, Note_off_c, 0, 54, 69
1, 500639, Note_off_c, 0, 47, 67
1, 500640, Note_on_c, 0, 50, 67
1, 500671, Note_on_c, 0, 55, 69
1, 500672, Note_off_c, 0, 50, 67
1, 500703, Note_on_c, 0, 54, 67
1, 500703, Note_off_c, 0, 55, 69
1, 500735, Note_off_c, 0, 54, 67
1, 500736, Control_c, 0, 1, 70
1, 500736, Control_c, 0, 1, 100
1, 500736, Note_on_c, 0, 48, 112
1, 500736, Note_on_c, 0, 60, 108
1, 500832, Note_off_c, 0, 60, 108
1, 500832, Note_on_c, 0, 67, 101
1, 500928, Note_on_c, 0, 64, 105
1, 500928, Note_off_c, 0, 67, 101
1, 501120, Note_on_c, 0, 45, 104
1, 501120, Note_off_c, 0, 48, 112
1, 501120, Note_on_c, 0, 60, 106
1, 501120, Note_off_c, 0, 64, 105
1, 501504, Note_on_c, 0, 41, 110
1, 501504, Note_off_c, 0, 45, 104
1, 501504, Note_on_c, 0, 57, 110
1, 501504, Note_off_c, 0, 60, 106
1, 501600, Note_off_c, 0, 57, 110
1, 501600, Note_on_c, 0, 60, 98
1, 501696, Note_on_c, 0, 57, 100
1, 501696, Note_off_c, 0, 60, 98
1, 501792, Note_off_c, 0, 57, 100
1, 501792, Note_on_c, 0, 64, 93
1, 501888, Note_off_c, 0, 41, 110
1, 501888, Note_on_c, 0, 43, 103
1, 501888, Note_on_c, 0, 59, 107
1, 501888, Note_off_c, 0, 64, 93
1, 502080, Note_off_c, 0, 59, 107
1, 502080, Note_on_c, 0, 67, 102
1, 502272, Control_c, 0, 1, 100
1, 502272, Control_c, 0, 1, 70
1, 502272, Note_off_c, 0, 43, 103
1, 502272, Note_on_c, 0, 57, 72
1, 502272, Note_off_c, 0, 67, 102
1, 502304, Note_off_c, 0, 57, 72
1, 502304, Note_on_c, 0, 60, 66
1, 502335, Note_off_c, 0, 60, 66
1, 502335, Note_on_c, 0, 69, 67
1, 502368, Note_on_c, 0, 64, 69
1, 502368, Note_off_c, 0, 69, 67
1, 502400, Note_on_c, 0, 57, 67
1, 502400, Note_off_c, 0, 64, 69
1, 502431, Note_off_c, 0, 57, 67
1, 502431, Note_on_c, 0, 60, 65
1, 502464, Note_off_c, 0, 60, 65
1, 502464, Note_on_c, 0, 69, 70
1, 502495, Note_on_c, 0, 64, 65
1, 502496, Note_off_c, 0, 69, 70
1, 502527, Note_on_c, 0, 57, 65
1, 502527, Note_off_c, 0, 64, 65
1, 502559, Note_off_c, 0, 57, 65
1, 502559, Note_on_c, 0, 60, 66
1, 502591, Note_off_c, 0, 60, 66
1, 502591, Note_on_c, 0, 69, 67
1, 502623, Note_on_c, 0, 64, 68
1, 502623, Note_off_c, 0, 69, 67
1, 502655, Note_off_c, 0, 64, 68
1, 502656, Note_on_c, 0, 55, 79
1, 502688, Note_off_c, 0, 55, 79
1, 502688, Note_on_c, 0, 59, 65
1, 502719, Note_off_c, 0, 59, 65
1, 502719, Note_on_c, 0, 67, 65
1, 502751, Note_off_c, 0, 67, 65
1, 502752, Note_on_c, 0, 64, 72
1, 502784, Note_on_c, 0, 55, 67
1, 502784, Note_off_c, 0, 64, 72
1, 502815, Note_off_c, 0, 55, 67
1, 502815, Note_on_c, 0, 59, 65
1, 502848, Note_off_c, 0, 59, 65
1, 502848, Note_on_c, 0, 67, 74
1, 502879, Note_on_c, 0, 64, 66
1, 502880, Note_off_c, 0, 67, 74
1, 502911, Note_on_c, 0, 55, 65
1, 502911, Note_off_c, 0, 64, 66
1, 502943, Note_off_c, 0, 55, 65
1, 502944, Note_on_c, 0, 59, 65
1, 502975, Note_on_c, 0, 67, 66
1, 502976, Note_off_c, 0, 59, 65
1, 503007, Note_on_c, 0, 64, 69
1, 503007, Note_off_c, 0, 67, 66
1, 503039, Note_off_c, 0, 64, 69
1, 503040, Note_on_c, 0, 57, 74
1, 503071, Note_on_c, 0, 62, 67
1, 503072, Note_off_c, 0, 57, 74
1, 503103, Note_off_c, 0, 62, 67
1, 503103, Note_on_c, 0, 69, 67
1, 503136, Note_on_c, 0, 65, 69
1, 503136, Note_off_c, 0, 69, 67
1, 503167, Note_on_c, 0, 57, 69
1, 503168, Note_off_c, 0, 65, 69
1, 503199, Note_off_c, 0, 57, 69
1, 503199, Note_on_c, 0, 62, 68
1, 503232, Note_off_c, 0, 62, 68
1, 503232, Note_on_c, 0, 69, 72
1, 503263, Note_on_c, 0, 65, 68
1, 503264, Note_off_c, 0, 69, 72
1, 503295, Note_on_c, 0, 57, 65
1, 503295, Note_off_c, 0, 65, 68
1, 503327, Note_off_c, 0, 57, 65
1, 503328, Note_on_c, 0, 62, 66
1, 503359, Note_on_c, 0, 69, 65
1, 503360, Note_off_c, 0, 62, 66
1, 503391, Note_on_c, 0, 65, 68
1, 503391, Note_off_c, 0, 69, 65
1, 503423, Note_off_c, 0, 65, 68
1, 503424, Note_on_c, 0, 57, 77
1, 503455, Note_on_c, 0, 60, 68
1, 503456, Note_off_c, 0, 57, 77
1, 503487, Note_off_c, 0, 60, 68
1, 503487, Note_on_c, 0, 69, 67
1, 503520, Note_on_c, 0, 64, 68
1, 503520, Note_off_c, 0, 69, 67
1, 503551, Note_on_c, 0, 57, 65
1, 503552, Note_off_c, 0, 64, 68
1, 503583, Note_off_c, 0, 57, 65
1, 503583, Note_on_c, 0, 60, 65
1, 503616, Note_off_c, 0, 60, 65
1, 503616, Note_on_c, 0, 69, 70
1, 503647, Note_on_c, 0, 64, 67
1, 503648, Note_off_c, 0, 69, 70
1, 503679, Note_on_c, 0, 57, 66
1, 503679, Note_off_c, 0, 64, 67
1, 503711, Note_off_c, 0, 57, 66
1, 503712, Note_on_c, 0, 60, 69
1, 503743, Note_on_c, 0, 69, 65
1, 503744, Note_off_c, 0, 60, 69
1, 503775, Note_on_c, 0, 64, 65
1, 503775, Note_off_c, 0, 69, 65
1, 503807, Note_off_c, 0, 64, 65
1, 503808, Control_c, 0, 1, 70
1, 503856, Note_on_c, 0, 81, 67
1, 503904, Note_on_c, 0, 69, 69
1, 503904, Note_off_c, 0, 81, 67
1, 503928, Note_off_c, 0, 69, 69
1, 503928, Note_on_c, 0, 72, 69
1, 503952, Note_off_c, 0, 72, 69
1, 503952, Note_on_c, 0, 76, 65
1, 503976, Note_off_c, 0, 76, 65
1, 504000, Note_on_c, 0, 69, 72
1, 504024, Note_off_c, 0, 69, 72
1, 504024, Note_on_c, 0, 72, 66
1, 504048, Note_off_c, 0, 72, 66
1, 504048, Note_on_c, 0, 76, 65
1, 504072, Note_off_c, 0, 76, 65
1, 504096, Note_on_c, 0, 69, 66
1, 504120, Note_off_c, 0, 69, 66
1, 504120, Note_on_c, 0, 72, 69
1, 504144, Note_off_c, 0, 72, 69
1, 504144, Note_on_c, 0, 76, 65
1, 504168, Note_off_c, 0, 76, 65
1, 504240, Note_on_c, 0, 79, 65
1, 504288, Note_on_c, 0, 67, 71
1, 504288, Note_off_c, 0, 79, 65
1, 504312, Note_off_c, 0, 67, 71
1, 504312, Note_on_c, 0, 71, 68
1, 504336, Note_off_c, 0, 71, 68
1, 504336, Note_on_c, 0, 76, 69
1, 504360, Note_off_c, 0, 76, 69
1, 504384, Note_on_c, 0, 67, 69
1, 504408, Note_off_c, 0, 67, 69
1, 504408, Note_on_c, 0, 71, 69
1, 504432, Note_off_c, 0, 71, 69
1, 504432, Note_on_c, 0, 76, 68
1, 504456, Note_off_c, 0, 76, 68
1, 504480, Note_on_c, 0, 67, 67
1, 504504, Note_off_c, 0, 67, 67
1, 504504, Note_on_c, 0, 71, 68
1, 504528, Note_off_c, 0, 71, 68
1, 504528, Note_on_c, 0, 76, 67
1, 504552, Note_off_c, 0, 76, 67
1, 504624, Note_on_c, 0, 81, 69
1, 504672, Note_on_c, 0, 69, 71
1, 504672, Note_off_c, 0, 81, 69
1, 504696, Note_off_c, 0, 69, 71
1, 504696, Note_on_c, 0, 72, 69
1, 504720, Note_off_c, 0, 72, 69
1, 504720, Note_on_c, 0, 77, 65
1, 504744, Note_off_c, 0, 77, 65
1, 504768, Note_on_c, 0, 69, 71
1, 504792, Note_off_c, 0, 69, 71
1, 504792, Note_on_c, 0, 72, 67
1, 504816, Note_off_c, 0, 72, 67
1, 504816, Note_on_c, 0, 77, 68
1, 504840, Note_off_c, 0, 77, 68
1, 504864, Note_on_c, 0, 69, 65
1, 504888, Note_off_c, 0, 69, 65
1, 504888, Note_on_c, 0, 72, 67
1, 504912, Note_off_c, 0, 72, 67
1, 504912, Note_on_c, 0, 77, 69
1, 504936, Note_off_c, 0, 77, 69
1, 505008, Note_on_c, 0, 81, 68
1, 505056, Note_on_c, 0, 69, 69
1, 505056, Note_off_c, 0, 81, 68
1, 505080, Note_off_c, 0, 69, 69
1, 505080, Note_on_c, 0, 72, 66
1, 505104, Note_off_c, 0, 72, 66
1, 505104, Note_on_c, 0, 76, 69
1, 505128, Note_off_c, 0, 76, 69
1, 505152, Note_on_c, 0, 69, 70
1, 505176, Note_off_c, 0, 69, 70
1, 505176, Note_on_c, 0, 72, 69
1, 505200, Note_off_c, 0, 72, 69
1, 505200, Note_on_c, 0, 76, 65
1, 505224, Note_off_c, 0, 76, 65
1, 505248, Note_on_c, 0, 69, 65
1, 505272, Note_off_c, 0, 69, 65
1, 505272, Note_on_c, 0, 72, 68
1, 505296, Note_off_c, 0, 72, 68
1, 505296, Note_on_c, 0, 76, 68
1, 505320, Note_off_c, 0, 76, 68
1, 505344, Control_c, 0, 1, 70
1, 505344, Control_c, 0, 1, 40
1, 505344, Note_on_c, 0, 74, 46
1, 505392, Note_off_c, 0, 74, 46
1, 505392, Note_on_c, 0, 81, 38
1, 505440, Note_on_c, 0, 77, 40
1, 505440, Note_off_c, 0, 81, 38
1, 505488, Note_on_c, 0, 74, 38
1, 505488, Note_off_c, 0, 77, 40
1, 505536, Note_off_c, 0, 74, 38
1, 505536, Note_on_c, 0, 77, 43
1, 505584, Note_on_c, 0, 74, 40
1, 505584, Note_off_c, 0, 77, 43
1, 505632, Note_on_c, 0, 69, 40
1, 505632, Note_off_c, 0, 74, 40
1, 505656, Note_off_c, 0, 69, 40
1, 505728, Note_on_c, 0, 71, 44
1, 505776, Note_off_c, 0, 71, 44
1, 505776, Note_on_c, 0, 79, 40
1, 505824, Note_on_c, 0, 76, 42
1, 505824, Note_off_c, 0, 79, 40
1, 505872, Note_on_c, 0, 71, 38
1, 505872, Note_off_c, 0, 76, 42
1, 505920, Note_off_c, 0, 71, 38
1, 505920, Note_on_c, 0, 76, 43
1, 505968, Note_on_c, 0, 71, 38
1, 505968, Note_off_c, 0, 76, 43
1, 506016, Note_on_c, 0, 67, 38
1, 506016, Note_off_c, 0, 71, 38
1, 506040, Note_off_c, 0, 67, 38
1, 506112, Note_on_c, 0, 74, 44
1, 506160, Note_off_c, 0, 74, 44
1, 506160, Note_on_c, 0, 81, 40
1, 506208, Note_on_c, 0, 77, 42
1, 506208, Note_off_c, 0, 81, 40
1, 506256, Note_on_c, 0, 74, 40
1, 506256, Note_off_c, 0, 77, 42
1, 506304, Note_off_c, 0, 74, 40
1, 506304, Note_on_c, 0, 77, 42
1, 506352, Note_on_c, 0, 74, 39
1, 506352, Note_off_c, 0, 77, 42
1, 506400, Note_on_c, 0, 69, 39
1, 506400, Note_off_c, 0, 74, 39
1, 506424, Note_off_c, 0, 69, 39
1, 506496, Note_on_c, 0, 71, 44
1, 506544, Note_off_c, 0, 71, 44
1, 506544, Note_on_c, 0, 79, 38
1, 506592, Note_on_c, 0, 76, 42
1, 506592, Note_off_c, 0, 79, 38
1, 506640, Note_on_c, 0, 71, 40
1, 506640, Note_off_c, 0, 76, 42
1, 506688, Note_off_c, 0, 71, 40
1, 506688, Note_on_c, 0, 76, 41
1, 506736, Note_on_c, 0, 71, 39
1, 506736, Note_off_c, 0, 76, 41
1, 506784, Note_on_c, 0, 67, 40
1, 506784, Note_off_c, 0, 71, 39
1, 506808, Note_off_c, 0, 67, 40
1, 506880, Control_c, 0, 1, 40
1, 506880, Control_c, 0, 1, 100
1, 506880, Note_on_c, 0, 69, 108
1, 506976, Note_on_c, 0, 64, 105
1, 506976, Note_off_c, 0, 69, 108
1, 507072, Note_off_c, 0, 64, 105
1, 507072, Note_on_c, 0, 71, 113
1, 507168, Note_off_c, 0, 71, 113
1, 507168, Note_on_c, 0, 76, 106
1, 507264, Note_on_c, 0, 65, 111
1, 507264, Note_off_c, 0, 76, 106
1, 507360, Note_on_c, 0, 60, 104
1, 507360, Note_off_c, 0, 65, 111
1, 507408, Note_on_c, 0, 59, 98
1, 507408, Note_off_c, 0, 60, 104
1, 507432, Note_on_c, 0, 57, 94
1, 507432, Note_off_c, 0, 59, 98
1, 507456, Note_off_c, 0, 57, 94
1, 507456, Note_on_c, 0, 62, 109
1, 507552, Note_off_c, 0, 62, 109
1, 507552, Note_on_c, 0, 69, 105
1, 507645, Note_off_c, 0, 69, 105
1, 507648, Note_on_c, 0, 69, 112
1, 507744, Note_on_c, 0, 64, 105
1, 507744, Note_off_c, 0, 69, 112
1, 507840, Note_off_c, 0, 64, 105
1, 507840, Note_on_c, 0, 71, 112
1, 507936, Note_off_c, 0, 71, 112
1, 507936, Note_on_c, 0, 76, 103
1, 508032, Note_on_c, 0, 65, 103
1, 508032, Note_off_c, 0, 76, 103
1, 508128, Note_on_c, 0, 60, 105
1, 508128, Note_off_c, 0, 65, 103
1, 508176, Note_on_c, 0, 59, 97
1, 508176, Note_off_c, 0, 60, 105
1, 508200, Note_on_c, 0, 57, 96
1, 508200, Note_off_c, 0, 59, 97
1, 508224, Note_off_c, 0, 57, 96
1, 508224, Note_on_c, 0, 62, 109
1, 508320, Note_off_c, 0, 62, 109
1, 508320, Note_on_c, 0, 69, 105
1, 508413, Note_off_c, 0, 69, 105
1, 508416, Control_c, 0, 1, 100
1, 508416, Note_on_c, 0, 69, 108
1, 508512, Note_on_c, 0, 60, 99
1, 508512, Note_off_c, 0, 69, 108
1, 508608, Note_off_c, 0, 60, 99
1, 508608, Note_on_c, 0, 64, 100
1, 508704, Note_off_c, 0, 64, 100
1, 508704, Note_on_c, 0, 69, 98
1, 508800, Note_on_c, 0, 67, 109
1, 508800, Note_off_c, 0, 69, 98
1, 508896, Note_off_c, 0, 67, 109
1, 508896, Note_on_c, 0, 71, 103
1, 508944, Note_off_c, 0, 71, 103
1, 508944, Note_on_c, 0, 76, 96
1, 508992, Note_on_c, 0, 71, 100
1, 508992, Note_off_c, 0, 76, 96
1, 509088, Note_on_c, 0, 64, 93
1, 509088, Note_off_c, 0, 71, 100
1, 509136, Note_off_c, 0, 64, 93
1, 509136, Note_on_c, 0, 71, 97
1, 509184, Note_on_c, 0, 65, 113
1, 509184, Note_off_c, 0, 71, 97
1, 509280, Note_on_c, 0, 57, 99
1, 509280, Note_off_c, 0, 65, 113
1, 509328, Note_off_c, 0, 57, 99
1, 509328, Note_on_c, 0, 60, 93
1, 509376, Note_off_c, 0, 60, 93
1, 509376, Note_on_c, 0, 65, 104
1, 509472, Note_off_c, 0, 65, 104
1, 509472, Note_on_c, 0, 69, 95
1, 509520, Note_on_c, 0, 57, 93
1, 509520, Note_off_c, 0, 69, 95
1, 509568, Note_off_c, 0, 57, 93
1, 509568, Note_on_c, 0, 62, 107
1, 509952, Control_c, 0, 1, 100
1, 509952, Control_c, 0, 1, 40
1, 509952, Note_on_c, 0, 45, 85
1, 509952, Note_off_c, 0, 62, 107
1, 509976, Note_off_c, 0, 45, 85
1, 509976, Note_on_c, 0, 48, 83
1, 510000, Note_off_c, 0, 48, 83
1, 510000, Note_on_c, 0, 52, 83
1, 510024, Note_on_c, 0, 45, 85
1, 510024, Note_off_c, 0, 52, 83
1, 510048, Note_off_c, 0, 45, 85
1, 510048, Note_on_c, 0, 48, 83
1, 510072, Note_off_c, 0, 48, 83
1, 510072, Note_on_c, 0, 52, 83
1, 510096, Note_on_c, 0, 45, 85
1, 510096, Note_off_c, 0, 52, 83
1, 510120, Note_off_c, 0, 45, 85
1, 510120, Note_on_c, 0, 48, 83
1, 510144, Note_on_c, 0, 47, 82
1, 510144, Note_off_c, 0, 48, 83
1, 510168, Note_off_c, 0, 47, 82
1, 510168, Note_on_c, 0, 50, 86
1, 510192, Note_off_c, 0, 50, 86
1, 510192, Note_on_c, 0, 53, 85
1, 510216, Note_on_c, 0, 47, 82
1, 510216, Note_off_c, 0, 53, 85
1, 510240, Note_off_c, 0, 47, 82
1, 510240, Note_on_c, 0, 50, 86
1, 510264, Note_off_c, 0, 50, 86
1, 510264, Note_on_c, 0, 53, 85
1, 510288, Note_on_c, 0, 47, 82
1, 510288, Note_off_c, 0, 53, 85
1, 510312, Note_off_c, 0, 47, 82
1, 510312, Note_on_c, 0, 50, 86
1, 510336, Note_on_c, 0, 47, 85
1, 510336, Note_off_c, 0, 50, 86
1, 510360, Note_off_c, 0, 47, 85
1, 510360, Note_on_c, 0, 52, 83
1, 510384, Note_off_c, 0, 52, 83
1, 510384, Note_on_c, 0, 55, 84
1, 510408, Note_on_c, 0, 47, 85
1, 510408, Note_off_c, 0, 55, 84
1, 510432, Note_off_c, 0, 47, 85
1, 510432, Note_on_c, 0, 52, 83
1, 510456, Note_off_c, 0, 52, 83
1, 510456, Note_on_c, 0, 55, 84
1, 510480, Note_on_c, 0, 47, 85
1, 510480, Note_off_c, 0, 55, 84
1, 510504, Note_off_c, 0, 47, 85
1, 510504, Note_on_c, 0, 52, 83
1, 510528, Note_on_c, 0, 47, 84
1, 510528, Note_off_c, 0, 52, 83
1, 510552, Note_off_c, 0, 47, 84
1, 510552, Note_on_c, 0, 50, 83
1, 510576, Note_off_c, 0, 50, 83
1, 510576, Note_on_c, 0, 53, 83
1, 510600, Note_on_c, 0, 47, 84
1, 510600, Note_off_c, 0, 53, 83
1, 510624, Note_off_c, 0, 47, 84
1, 510624, Note_on_c, 0, 50, 83
1, 510648, Note_off_c, 0, 50, 83
1, 510648, Note_on_c, 0, 53, 83
1, 510672, Note_on_c, 0, 47, 84
1, 510672, Note_off_c, 0, 53, 83
1, 510696, Note_off_c, 0, 47, 84
1, 510696, Note_on_c, 0, 50, 83
1, 510720, Note_on_c, 0, 48, 85
1, 510720, Note_off_c, 0, 50, 83
1, 510744, Note_off_c, 0, 48, 85
1, 510744, Note_on_c, 0, 52, 85
1, 510768, Note_off_c, 0, 52, 85
1, 510768, Note_on_c, 0, 57, 86
1, 510792, Note_on_c, 0, 48, 85
1, 510792, Note_off_c, 0, 57, 86
1, 510816, Note_off_c, 0, 48, 85
1, 510816, Note_on_c, 0, 52, 85
1, 510840, Note_off_c, 0, 52, 85
1, 510840, Note_on_c, 0, 57, 86
1, 510864, Note_on_c, 0, 48, 85
1, 510864, Note_off_c, 0, 57, 86
1, 510888, Note_off_c, 0, 48, 85
1, 510888, Note_on_c, 0, 52, 85
1, 510912, Note_on_c, 0, 48, 85
1, 510912, Note_off_c, 0, 52, 85
1, 510936, Note_off_c, 0, 48, 85
1, 510936, Note_on_c, 0, 53, 86
1, 510960, Note_off_c, 0, 53, 86
1, 510960, Note_on_c, 0, 57, 86
1, 510984, Note_on_c, 0, 48, 85
1, 510984, Note_off_c, 0, 57, 86
1, 511008, Note_off_c, 0, 48, 85
1, 511008, Note_on_c, 0, 53, 86
1, 511032, Note_off_c, 0, 53, 86
1, 511032, Note_on_c, 0, 57, 86
1, 511056, Note_on_c, 0, 48, 85
1, 511056, Note_off_c, 0, 57, 86
1, 511080, Note_off_c, 0, 48, 85
1, 511080, Note_on_c, 0, 53, 86
1, 511104, Note_on_c, 0, 48, 84
1, 511104, Note_off_c, 0, 53, 86
1, 511128, Note_off_c, 0, 48, 84
1, 511128, Note_on_c, 0, 52, 84
1, 511152, Note_off_c, 0, 52, 84
1, 511152, Note_on_c, 0, 55, 82
1, 511176, Note_on_c, 0, 48, 84
1, 511176, Note_off_c, 0, 55, 82
1, 511200, Note_off_c, 0, 48, 84
1, 511200, Note_on_c, 0, 52, 84
1, 511224, Note_off_c, 0, 52, 84
1, 511224, Note_on_c, 0, 55, 82
1, 511248, Note_on_c, 0, 48, 84
1, 511248, Note_off_c, 0, 55, 82
1, 511272, Note_off_c, 0, 48, 84
1, 511272, Note_on_c, 0, 52, 84
1, 511296, Note_on_c, 0, 47, 84
1, 511296, Note_off_c, 0, 52, 84
1, 511320, Note_off_c, 0, 47, 84
1, 511320, Note_on_c, 0, 52, 83
1, 511344, Note_off_c, 0, 52, 83
1, 511344, Note_on_c, 0, 55, 82
1, 511368, Note_on_c, 0, 47, 84
1, 511368, Note_off_c, 0, 55, 82
1, 511392, Note_off_c, 0, 47, 84
1, 511392, Note_on_c, 0, 52, 83
1, 511416, Note_off_c, 0, 52, 83
1, 511416, Note_on_c, 0, 55, 82
1, 511440, Note_on_c, 0, 47, 84
1, 511440, Note_off_c, 0, 55, 82
1, 511464, Note_off_c, 0, 47, 84
1, 511464, Note_on_c, 0, 52, 83
1, 511488, Control_c, 0, 1, 40
1, 511488, Control_c, 0, 1, 70
1, 511488, Note_on_c, 0, 45, 45
1, 511488, Note_off_c, 0, 52, 83
1, 511488, Note_on_c, 0, 69, 78
1, 511512, Note_off_c, 0, 69, 78
1, 511584, Note_on_c, 0, 69, 69
1, 511608, Note_off_c, 0, 69, 69
1, 511680, Note_on_c, 0, 69, 69
1, 511704, Note_off_c, 0, 69, 69
1, 511776, Note_on_c, 0, 69, 66
1, 511800, Note_off_c, 0, 69, 66
1, 511800, Note_on_c, 0, 72, 65
1, 511824, Note_off_c, 0, 72, 65
1, 511824, Note_on_c, 0, 76, 67
1, 511848, Note_on_c, 0, 72, 67
1, 511848, Note_off_c, 0, 76, 67
1, 511872, Note_off_c, 0, 45, 45
1, 511872, Note_on_c, 0, 47, 42
1, 511872, Note_on_c, 0, 69, 75
1, 511872, Note_off_c, 0, 72, 67
1, 511896, Note_off_c, 0, 69, 75
1, 511968, Note_on_c, 0, 69, 72
1, 511992, Note_off_c, 0, 69, 72
1, 512064, Note_on_c, 0, 69, 73
1, 512088, Note_off_c, 0, 69, 73
1, 512160, Note_on_c, 0, 69, 65
1, 512184, Note_off_c, 0, 69, 65
1, 512184, Note_on_c, 0, 72, 65
1, 512208, Note_off_c, 0, 72, 65
1, 512208, Note_on_c, 0, 77, 69
1, 512232, Note_on_c, 0, 72, 67
1, 512232, Note_off_c, 0, 77, 69
1, 512251, Note_off_c, 0, 47, 42
1, 512256, Note_on_c, 0, 48, 45
1, 512256, Note_on_c, 0, 67, 75
1, 512256, Note_off_c, 0, 72, 67
1, 512280, Note_off_c, 0, 67, 75
1, 512352, Note_on_c, 0, 67, 70
1, 512376, Note_off_c, 0, 67, 70
1, 512448, Note_on_c, 0, 67, 70
1, 512472, Note_off_c, 0, 67, 70
1, 512544, Note_on_c, 0, 67, 66
1, 512568, Note_off_c, 0, 67, 66
1, 512568, Note_on_c, 0, 71, 67
1, 512592, Note_off_c, 0, 71, 67
1, 512592, Note_on_c, 0, 76, 65
1, 512616, Note_on_c, 0, 71, 67
1, 512616, Note_off_c, 0, 76, 65
1, 512635, Note_off_c, 0, 48, 45
1, 512640, Note_on_c, 0, 47, 44
1, 512640, Note_on_c, 0, 69, 72
1, 512640, Note_off_c, 0, 71, 67
1, 512664, Note_off_c, 0, 69, 72
1, 512736, Note_on_c, 0, 69, 72
1, 512760, Note_off_c, 0, 69, 72
1, 512832, Note_on_c, 0, 69, 74
1, 512856, Note_off_c, 0, 69, 74
1, 512928, Note_on_c, 0, 69, 68
1, 512952, Note_off_c, 0, 69, 68
1, 512952, Note_on_c, 0, 74, 68
1, 512976, Note_off_c, 0, 74, 68
1, 512976, Note_on_c, 0, 77, 66
1, 513000, Note_on_c, 0, 74, 66
1, 513000, Note_off_c, 0, 77, 66
1, 513024, Control_c, 0, 1, 70
1, 513024, Control_c, 0, 1, 100
1, 513024, Note_off_c, 0, 47, 44
1, 513024, Note_on_c, 0, 60, 112
1, 513024, Note_off_c, 0, 74, 66
1, 513120, Note_on_c, 0, 52, 104
1, 513120, Note_off_c, 0, 60, 112
1, 513168, Note_on_c, 0, 50, 99
1, 513168, Note_off_c, 0, 52, 104
1, 513192, Note_on_c, 0, 48, 95
1, 513192, Note_off_c, 0, 50, 99
1, 513216, Note_off_c, 0, 48, 95
1, 513216, Note_on_c, 0, 50, 105
1, 513309, Note_off_c, 0, 50, 105
1, 513312, Note_on_c, 0, 50, 105
1, 513408, Note_on_c, 0, 48, 108
1, 513408, Note_off_c, 0, 50, 105
1, 513456, Note_off_c, 0, 48, 108
1, 513456, Note_on_c, 0, 52, 100
1, 513504, Note_on_c, 0, 45, 106
1, 513504, Note_off_c, 0, 52, 100
1, 513600, Note_on_c, 0, 41, 113
1, 513600, Note_off_c, 0, 45, 106
1, 513693, Note_off_c, 0, 41, 113
1, 513696, Note_on_c, 0, 41, 102
1, 513792, Note_off_c, 0, 41, 102
1, 513792, Note_on_c, 0, 60, 110
1, 513888, Note_on_c, 0, 52, 102
1, 513888, Note_off_c, 0, 60, 110
1, 513936, Note_on_c, 0, 50, 93
1, 513936, Note_off_c, 0, 52, 102
1, 513960, Note_on_c, 0, 48, 97
1, 513960, Note_off_c, 0, 50, 93
1, 513984, Note_off_c, 0, 48, 97
1, 513984, Note_on_c, 0, 50, 109
1, 514077, Note_off_c, 0, 50, 109
1, 514080, Note_on_c, 0, 50, 100
1, 514176, Note_on_c, 0, 48, 106
1, 514176, Note_off_c, 0, 50, 100
1, 514224, Note_off_c, 0, 48, 106
1, 514224, Note_on_c, 0, 52, 99
1, 514272, Note_on_c, 0, 45, 105
1, 514272, Note_off_c, 0, 52, 99
1, 514368, Note_on_c, 0, 41, 112
1, 514368, Note_off_c, 0, 45, 105
1, 514461, Note_off_c, 0, 41, 112
1, 514464, Note_on_c, 0, 41, 103
1, 514557, Note_off_c, 0, 41, 103
1, 514560, Control_c, 0, 1, 100
1, 514560, Note_on_c, 0, 40, 107
1, 514584, Note_off_c, 0, 40, 107
1, 514584, Note_on_c, 0, 45, 93
1, 514608, Note_off_c, 0, 45, 93
1, 514608, Note_on_c, 0, 52, 99
1, 514632, Note_on_c, 0, 48, 93
1, 514632, Note_off_c, 0, 52, 99
1, 514656, Note_on_c, 0, 40, 104
1, 514656, Note_off_c, 0, 48, 93
1, 514680, Note_off_c, 0, 40, 104
1, 514680, Note_on_c, 0, 45, 99
1, 514704, Note_off_c, 0, 45, 99
1, 514704, Note_on_c, 0, 52, 98
1, 514728, Note_on_c, 0, 48, 98
1, 514728, Note_off_c, 0, 52, 98
1, 514752, Note_on_c, 0, 40, 103
1, 514752, Note_off_c, 0, 48, 98
1, 514776, Note_off_c, 0, 40, 103
1, 514776, Note_on_c, 0, 45, 95
1, 514800, Note_off_c, 0, 45, 95
1, 514800, Note_on_c, 0, 52, 97
1, 514824, Note_on_c, 0, 48, 93
1, 514824, Note_off_c, 0, 52, 97
1, 514848, Note_on_c, 0, 40, 99
1, 514848, Note_off_c, 0, 48, 93
1, 514872, Note_off_c, 0, 40, 99
1, 514872, Note_on_c, 0, 45, 94
1, 514896, Note_off_c, 0, 45, 94
1, 514896, Note_on_c, 0, 52, 96
1, 514920, Note_on_c, 0, 48, 97
1, 514920, Note_off_c, 0, 52, 96
1, 514944, Note_on_c, 0, 40, 108
1, 514944, Note_off_c, 0, 48, 97
1, 514968, Note_off_c, 0, 40, 108
1, 514968, Note_on_c, 0, 43, 96
1, 514992, Note_off_c, 0, 43, 96
1, 514992, Note_on_c, 0, 52, 94
1, 515016, Note_on_c, 0, 47, 96
1, 515016, Note_off_c, 0, 52, 94
1, 515040, Note_on_c, 0, 40, 103
1, 515040, Note_off_c, 0, 47, 96
1, 515064, Note_off_c, 0, 40, 103
1, 515064, Note_on_c, 0, 43, 97
1, 515088, Note_off_c, 0, 43, 97
1, 515088, Note_on_c, 0, 52, 98
1, 515112, Note_on_c, 0, 47, 96
1, 515112, Note_off_c, 0, 52, 98
1, 515136, Note_on_c, 0, 40, 100
1, 515136, Note_off_c, 0, 47, 96
1, 515160, Note_off_c, 0, 40, 100
1, 515160, Note_on_c, 0, 43, 97
1, 515184, Note_off_c, 0, 43, 97
1, 515184, Note_on_c, 0, 52, 93
1, 515208, Note_on_c, 0, 47, 95
1, 515208, Note_off_c, 0, 52, 93
1, 515232, Note_on_c, 0, 40, 98
1, 515232, Note_off_c, 0, 47, 95
1, 515256, Note_off_c, 0, 40, 98
1, 515256, Note_on_c, 0, 43, 96
1, 515280, Note_off_c, 0, 43, 96
1, 515280, Note_on_c, 0, 52, 98
1, 515304, Note_on_c, 0, 47, 97
1, 515304, Note_off_c, 0, 52, 98
1, 515328, Note_on_c, 0, 41, 105
1, 515328, Note_off_c, 0, 47, 97
1, 515352, Note_off_c, 0, 41, 105
1, 515352, Note_on_c, 0, 45, 98
1, 515376, Note_off_c, 0, 45, 98
1, 515376, Note_on_c, 0, 53, 99
1, 515400, Note_on_c, 0, 48, 97
1, 515400, Note_off_c, 0, 53, 99
1, 515424, Note_on_c, 0, 41, 101
1, 515424, Note_off_c, 0, 48, 97
1, 515448, Note_off_c, 0, 41, 101
1, 515448, Note_on_c, 0, 45, 93
1, 515472, Note_off_c, 0, 45, 93
1, 515472, Note_on_c, 0, 53, 99
1, 515496, Note_on_c, 0, 48, 98
1, 515496, Note_off_c, 0, 53, 99
1, 515520, Note_on_c, 0, 41, 106
1, 515520, Note_off_c, 0, 48, 98
1, 515544, Note_off_c, 0, 41, 106
1, 515544, Note_on_c, 0, 45, 97
1, 515568, Note_off_c, 0, 45, 97
1, 515568, Note_on_c, 0, 53, 99
1, 515592, Note_on_c, 0, 48, 98
1, 515592, Note_off_c, 0, 53, 99
1, 515616, Note_on_c, 0, 41, 96
1, 515616, Note_off_c, 0, 48, 98
1, 515640, Note_off_c, 0, 41, 96
1, 515640, Note_on_c, 0, 45, 99
1, 515664, Note_off_c, 0, 45, 99
1, 515664, Note_on_c, 0, 53, 96
1, 515688, Note_on_c, 0, 48, 94
1, 515688, Note_off_c, 0, 53, 96
1, 515712, Note_on_c, 0, 40, 107
1, 515712, Note_off_c, 0, 48, 94
1, 515736, Note_off_c, 0, 40, 107
1, 515736, Note_on_c, 0, 43, 97
1, 515760, Note_off_c, 0, 43, 97
1, 515760, Note_on_c, 0, 52, 96
1, 515784, Note_on_c, 0, 47, 96
1, 515784, Note_off_c, 0, 52, 96
1, 515808, Note_on_c, 0, 40, 103
1, 515808, Note_off_c, 0, 47, 96
1, 515832, Note_off_c, 0, 40, 103
1, 515832, Note_on_c, 0, 43, 93
1, 515856, Note_off_c, 0, 43, 93
1, 515856, Note_on_c, 0, 52, 98
1, 515880, Note_on_c, 0, 47, 94
1, 515880, Note_off_c, 0, 52, 98
1, 515904, Note_on_c, 0, 40, 106
1, 515904, Note_off_c, 0, 47, 94
1, 515928, Note_off_c, 0, 40, 106
1, 515928, Note_on_c, 0, 43, 95
1, 515952, Note_off_c, 0, 43, 95
1, 515952, Note_on_c, 0, 52, 97
1, 515976, Note_on_c, 0, 47, 95
1, 515976, Note_off_c, 0, 52, 97
1, 516000, Note_on_c, 0, 40, 93
1, 516000, Note_off_c, 0, 47, 95
1, 516024, Note_off_c, 0, 40, 93
1, 516024, Note_on_c, 0, 43, 95
1, 516048, Note_off_c, 0, 43, 95
1, 516048, Note_on_c, 0, 52, 94
1, 516072, Note_on_c, 0, 47, 94
1, 516072, Note_off_c, 0, 52, 94
1, 516096, Control_c, 0, 1, 100
1, 516096, Control_c, 0, 1, 40
1, 516096, Note_off_c, 0, 47, 94
1, 516096, Note_on_c, 0, 69, 43
1, 516168, Note_off_c, 0, 69, 43
1, 516168, Note_on_c, 0, 74, 40
1, 516192, Note_off_c, 0, 74, 40
1, 516192, Note_on_c, 0, 77, 42
1, 516288, Note_on_c, 0, 69, 41
1, 516288, Note_off_c, 0, 77, 42
1, 516336, Note_off_c, 0, 69, 41
1, 516336, Note_on_c, 0, 74, 40
1, 516384, Note_off_c, 0, 74, 40
1, 516384, Note_on_c, 0, 77, 40
1, 516456, Note_off_c, 0, 77, 40
1, 516456, Note_on_c, 0, 81, 38
1, 516480, Note_on_c, 0, 67, 44
1, 516480, Note_off_c, 0, 81, 38
1, 516552, Note_off_c, 0, 67, 44
1, 516552, Note_on_c, 0, 71, 39
1, 516576, Note_off_c, 0, 71, 39
1, 516576, Note_on_c, 0, 76, 41
1, 516672, Note_on_c, 0, 67, 43
1, 516672, Note_off_c, 0, 76, 41
1, 516720, Note_off_c, 0, 67, 43
1, 516720, Note_on_c, 0, 71, 39
1, 516768, Note_off_c, 0, 71, 39
1, 516768, Note_on_c, 0, 76, 39
1, 516840, Note_off_c, 0, 76, 39
1, 516840, Note_on_c, 0, 79, 39
1, 516864, Note_on_c, 0, 69, 43
1, 516864, Note_off_c, 0, 79, 39
1, 516936, Note_off_c, 0, 69, 43
1, 516936, Note_on_c, 0, 74, 38
1, 516960, Note_off_c, 0, 74, 38
1, 516960, Note_on_c, 0, 77, 40
1, 517056, Note_on_c, 0, 69, 41
1, 517056, Note_off_c, 0, 77, 40
1, 517104, Note_off_c, 0, 69, 41
1, 517104, Note_on_c, 0, 74, 40
1, 517152, Note_off_c, 0, 74, 40
1, 517152, Note_on_c, 0, 77, 39
1, 517224, Note_off_c, 0, 77, 39
1, 517224, Note_on_c, 0, 81, 39
1, 517248, Note_on_c, 0, 67, 43
1, 517248, Note_off_c, 0, 81, 39
1, 517320, Note_off_c, 0, 67, 43
1, 517320, Note_on_c, 0, 71, 39
1, 517344, Note_off_c, 0, 71, 39
1, 517344, Note_on_c, 0, 76, 40
1, 517440, Note_on_c, 0, 67, 43
1, 517440, Note_off_c, 0, 76, 40
1, 517488, Note_off_c, 0, 67, 43
1, 517488, Note_on_c, 0, 71, 40
1, 517536, Note_off_c, 0, 71, 40
1, 517536, Note_on_c, 0, 76, 40
1, 517608, Note_off_c, 0, 76, 40
1, 517608, Note_on_c, 0, 79, 39
1, 517632, Control_c, 0, 1, 40
1, 517632, Control_c, 0, 1, 100
1, 517632, Note_on_c, 0, 48, 103
1, 517632, Note_on_c, 0, 69, 125
1, 517632, Note_off_c, 0, 79, 39
1, 517680, Note_off_c, 0, 48, 103
1, 517680, Note_on_c, 0, 57, 98
1, 517728, Note_on_c, 0, 48, 101
1, 517728, Note_off_c, 0, 57, 98
1, 517728, Note_off_c, 0, 69, 125
1, 517728, Note_on_c, 0, 71, 125
1, 517752, Note_off_c, 0, 48, 101
1, 517752, Note_on_c, 0, 52, 98
1, 517776, Note_off_c, 0, 52, 98
1, 517776, Note_on_c, 0, 60, 98
1, 517776, Note_on_c, 0, 69, 119
1, 517776, Note_off_c, 0, 71, 125
1, 517800, Note_on_c, 0, 52, 97
1, 517800, Note_off_c, 0, 60, 98
1, 517824, Note_on_c, 0, 48, 102
1, 517824, Note_off_c, 0, 52, 97
1, 517824, Note_off_c, 0, 69, 119
1, 517824, Note_on_c, 0, 76, 125
1, 517848, Note_off_c, 0, 48, 102
1, 517848, Note_on_c, 0, 52, 99
1, 517872, Note_off_c, 0, 52, 99
1, 517872, Note_on_c, 0, 60, 94
1, 517896, Note_on_c, 0, 52, 99
1, 517896, Note_off_c, 0, 60, 94
1, 517920, Note_on_c, 0, 48, 95
1, 517920, Note_off_c, 0, 52, 99
1, 517968, Note_off_c, 0, 48, 95
1, 517968, Note_on_c, 0, 57, 95
1, 518016, Note_on_c, 0, 47, 105
1, 518016, Note_off_c, 0, 57, 95
1, 518016, Note_on_c, 0, 71, 125
1, 518016, Note_off_c, 0, 76, 125
1, 518064, Note_off_c, 0, 47, 105
1, 518064, Note_on_c, 0, 55, 97
1, 518112, Note_on_c, 0, 47, 98
1, 518112, Note_off_c, 0, 55, 97
1, 518136, Note_off_c, 0, 47, 98
1, 518136, Note_on_c, 0, 52, 93
1, 518160, Note_off_c, 0, 52, 93
1, 518160, Note_on_c, 0, 59, 98
1, 518184, Note_on_c, 0, 52, 96
1, 518184, Note_off_c, 0, 59, 98
1, 518208, Note_on_c, 0, 47, 103
1, 518208, Note_off_c, 0, 52, 96
1, 518208, Note_on_c, 0, 64, 125
1, 518208, Note_off_c, 0, 71, 125
1, 518232, Note_off_c, 0, 47, 103
1, 518232, Note_on_c, 0, 52, 93
1, 518256, Note_off_c, 0, 52, 93
1, 518256, Note_on_c, 0, 59, 98
1, 518280, Note_on_c, 0, 52, 98
1, 518280, Note_off_c, 0, 59, 98
1, 518304, Note_on_c, 0, 47, 99
1, 518304, Note_off_c, 0, 52, 98
1, 518352, Note_off_c, 0, 47, 99
1, 518352, Note_on_c, 0, 55, 99
1, 518400, Note_on_c, 0, 48, 112
1, 518400, Note_off_c, 0, 55, 99
1, 518400, Note_off_c, 0, 64, 125
1, 518400, Note_on_c, 0, 69, 125
1, 518448, Note_off_c, 0, 48, 112
1, 518448, Note_on_c, 0, 57, 93
1, 518496, Note_on_c, 0, 48, 104
1, 518496, Note_off_c, 0, 57, 93
1, 518520, Note_off_c, 0, 48, 104
1, 518520, Note_on_c, 0, 53, 99
1, 518544, Note_off_c, 0, 53, 99
1, 518544, Note_on_c, 0, 60, 97
1, 518568, Note_on_c, 0, 53, 93
1, 518568, Note_off_c, 0, 60, 97
1, 518592, Note_on_c, 0, 48, 100
1, 518592, Note_off_c, 0, 53, 93
1, 518592, Note_off_c, 0, 69, 125
1, 518592, Note_on_c, 0, 77, 125
1, 518616, Note_off_c, 0, 48, 100
1, 518616, Note_on_c, 0, 53, 93
1, 518640, Note_off_c, 0, 53, 93
1, 518640, Note_on_c, 0, 60, 99
1, 518664, Note_on_c, 0, 53, 96
1, 518664, Note_off_c, 0, 60, 99
1, 518688, Note_on_c, 0, 48, 94
1, 518688, Note_off_c, 0, 53, 96
1, 518736, Note_off_c, 0, 48, 94
1, 518736, Note_on_c, 0, 57, 99
1, 518784, Note_on_c, 0, 50, 105
1, 518784, Note_off_c, 0, 57, 99
1, 518784, Note_on_c, 0, 74, 125
1, 518784, Note_off_c, 0, 77, 125
1, 518832, Note_off_c, 0, 50, 105
1, 518832, Note_on_c, 0, 57, 96
1, 518880, Note_on_c, 0, 50, 101
1, 518880, Note_off_c, 0, 57, 96
1, 518904, Note_off_c, 0, 50, 101
1, 518904, Note_on_c, 0, 53, 93
1, 518928, Note_off_c, 0, 53, 93
1, 518928, Note_on_c, 0, 62, 94
1, 518952, Note_on_c, 0, 53, 94
1, 518952, Note_off_c, 0, 62, 94
1, 518976, Note_on_c, 0, 50, 102
1, 518976, Note_off_c, 0, 53, 94
1, 518976, Note_on_c, 0, 65, 125
1, 518976, Note_off_c, 0, 74, 125
1, 519000, Note_off_c, 0, 50, 102
1, 519000, Note_on_c, 0, 53, 98
1, 519024, Note_off_c, 0, 53, 98
1, 519024, Note_on_c, 0, 62, 95
1, 519048, Note_on_c, 0, 53, 93
1, 519048, Note_off_c, 0, 62, 95
1, 519072, Note_on_c, 0, 50, 93
1, 519072, Note_off_c, 0, 53, 93
1, 519120, Note_off_c, 0, 50, 93
1, 519120, Note_on_c, 0, 57, 98
1, 519168, Control_c, 0, 1, 100
1, 519168, Control_c, 0, 1, 70
1, 519168, Note_on_c, 0, 40, 75
1, 519168, Note_off_c, 0, 57, 98
1, 519168, Note_on_c, 0, 64, 106
1, 519168, Note_off_c, 0, 65, 125
1, 519360, Note_off_c, 0, 64, 106
1, 519360, Note_on_c, 0, 67, 103
1, 519456, Note_off_c, 0, 67, 103
1, 519456, Note_on_c, 0, 69, 95
1, 519552, Note_on_c, 0, 35, 72
1, 519552, Note_off_c, 0, 40, 75
1, 519552, Note_off_c, 0, 69, 95
1, 519552, Note_on_c, 0, 71, 107
1, 519744, Note_off_c, 0, 71, 107
1, 519744, Note_on_c, 0, 74, 101
1, 519936, Note_off_c, 0, 35, 72
1, 519936, Note_on_c, 0, 36, 74
1, 519936, Note_off_c, 0, 74, 101
1, 519936, Note_on_c, 0, 83, 107
1, 520128, Note_on_c, 0, 79, 101
1, 520128, Note_off_c, 0, 83, 107
1, 520224, Note_on_c, 0, 78, 94
1, 520224, Note_off_c, 0, 79, 101
1, 520272, Note_off_c, 0, 78, 94
1, 520272, Note_on_c, 0, 79, 98
1, 520320, Note_on_c, 0, 35, 74
1, 520320, Note_off_c, 0, 36, 74
1, 520320, Note_on_c, 0, 71, 112
1, 520320, Note_off_c, 0, 79, 98
1, 520512, Note_off_c, 0, 71, 112
1, 520512, Note_on_c, 0, 78, 101
1, 520704, Control_c, 0, 1, 70
1, 520704, Note_off_c, 0, 35, 74
1, 520704, Note_on_c, 0, 45, 74
1, 520704, Note_off_c, 0, 78, 101
1, 520736, Note_off_c, 0, 45, 74
1, 520736, Note_on_c, 0, 48, 65
1, 520767, Note_off_c, 0, 48, 65
1, 520767, Note_on_c, 0, 57, 67
1, 520800, Note_on_c, 0, 52, 72
1, 520800, Note_off_c, 0, 57, 67
1, 520832, Note_on_c, 0, 45, 67
1, 520832, Note_off_c, 0, 52, 72
1, 520863, Note_off_c, 0, 45, 67
1, 520863, Note_on_c, 0, 48, 65
1, 520896, Note_off_c, 0, 48, 65
1, 520896, Note_on_c, 0, 57, 73
1, 520927, Note_on_c, 0, 52, 67
1, 520928, Note_off_c, 0, 57, 73
1, 520959, Note_on_c, 0, 45, 68
1, 520959, Note_off_c, 0, 52, 67
1, 520991, Note_off_c, 0, 45, 68
1, 520991, Note_on_c, 0, 48, 68
1, 521023, Note_off_c, 0, 48, 68
1, 521023, Note_on_c, 0, 57, 67
1, 521055, Note_on_c, 0, 52, 69
1, 521055, Note_off_c, 0, 57, 67
1, 521087, Note_off_c, 0, 52, 69
1, 521088, Note_on_c, 0, 43, 75
1, 521120, Note_off_c, 0, 43, 75
1, 521120, Note_on_c, 0, 47, 68
1, 521151, Note_off_c, 0, 47, 68
1, 521151, Note_on_c, 0, 55, 65
1, 521183, Note_off_c, 0, 55, 65
1, 521184, Note_on_c, 0, 52, 72
1, 521216, Note_on_c, 0, 43, 66
1, 521216, Note_off_c, 0, 52, 72
1, 521247, Note_off_c, 0, 43, 66
1, 521247, Note_on_c, 0, 47, 65
1, 521280, Note_off_c, 0, 47, 65
1, 521280, Note_on_c, 0, 55, 70
1, 521311, Note_on_c, 0, 52, 66
1, 521312, Note_off_c, 0, 55, 70
1, 521343, Note_on_c, 0, 43, 68
1, 521343, Note_off_c, 0, 52, 66
1, 521375, Note_off_c, 0, 43, 68
1, 521376, Note_on_c, 0, 47, 67
1, 521407, Note_on_c, 0, 55, 67
1, 521408, Note_off_c, 0, 47, 67
1, 521439, Note_on_c, 0, 52, 66
1, 521439, Note_off_c, 0, 55, 67
1, 521471, Note_off_c, 0, 52, 66
1, 521472, Note_on_c, 0, 45, 72
1, 521503, Note_on_c, 0, 48, 69
1, 521504, Note_off_c, 0, 45, 72
1, 521535, Note_off_c, 0, 48, 69
1, 521535, Note_on_c, 0, 57, 66
1, 521568, Note_on_c, 0, 52, 69
1, 521568, Note_off_c, 0, 57, 66
1, 521599, Note_on_c, 0, 45, 69
1, 521600, Note_off_c, 0, 52, 69
1, 521631, Note_off_c, 0, 45, 69
1, 521631, Note_on_c, 0, 48, 67
1, 521664, Note_off_c, 0, 48, 67
1, 521664, Note_on_c, 0, 57, 72
1, 521695, Note_on_c, 0, 52, 68
1, 521696, Note_off_c, 0, 57, 72
1, 521727, Note_on_c, 0, 45, 67
1, 521727, Note_off_c, 0, 52, 68
1, 521759, Note_off_c, 0, 45, 67
1, 521760, Note_on_c, 0, 48, 69
1, 521791, Note_on_c, 0, 57, 67
1, 521792, Note_off_c, 0, 48, 69
1, 521823, Note_on_c, 0, 52, 67
1, 521823, Note_off_c, 0, 57, 67
1, 521855, Note_off_c, 0, 52, 67
1, 521856, Note_on_c, 0, 45, 77
1, 521887, Note_on_c, 0, 50, 69
1, 521888, Note_off_c, 0, 45, 77
1, 521919, Note_off_c, 0, 50, 69
1, 521919, Note_on_c, 0, 57, 65
1, 521952, Note_on_c, 0, 53, 72
1, 521952, Note_off_c, 0, 57, 65
1, 521983, Note_on_c, 0, 45, 65
1, 521984, Note_off_c, 0, 53, 72
1, 522015, Note_off_c, 0, 45, 65
1, 522015, Note_on_c, 0, 50, 67
1, 522048, Note_off_c, 0, 50, 67
1, 522048, Note_on_c, 0, 57, 72
1, 522079, Note_on_c, 0, 53, 67
1, 522080, Note_off_c, 0, 57, 72
1, 522111, Note_on_c, 0, 45, 65
1, 522111, Note_off_c, 0, 53, 67
1, 522143, Note_off_c, 0, 45, 65
1, 522144, Note_on_c, 0, 50, 66
1, 522175, Note_on_c, 0, 57, 66
1, 522176, Note_off_c, 0, 50, 66
1, 522207, Note_on_c, 0, 53, 65
1, 522207, Note_off_c, 0, 57, 66
1, 522239, Note_off_c, 0, 53, 65
1, 522240, Control_c, 0, 1, 70
1, 522240, Note_on_c, 0, 64, 72
1, 522264, Note_on_c, 0, 60, 69
1, 522264, Note_off_c, 0, 64, 72
1, 522312, Note_off_c, 0, 60, 69
1, 522312, Note_on_c, 0, 69, 67
1, 522336, Note_on_c, 0, 64, 69
1, 522336, Note_off_c, 0, 69, 67
1, 522360, Note_on_c, 0, 60, 65
1, 522360, Note_off_c, 0, 64, 69
1, 522408, Note_off_c, 0, 60, 65
1, 522408, Note_on_c, 0, 69, 66
1, 522432, Note_off_c, 0, 69, 66
1, 522456, Note_on_c, 0, 57, 65
1, 522480, Note_off_c, 0, 57, 65
1, 522480, Note_on_c, 0, 60, 69
1, 522528, Note_off_c, 0, 60, 69
1, 522552, Note_on_c, 0, 57, 67
1, 522576, Note_off_c, 0, 57, 67
1, 522576, Note_on_c, 0, 60, 65
1, 522624, Note_off_c, 0, 60, 65
1, 522624, Note_on_c, 0, 64, 74
1, 522648, Note_on_c, 0, 59, 68
1, 522648, Note_off_c, 0, 64, 74
1, 522696, Note_off_c, 0, 59, 68
1, 522696, Note_on_c, 0, 67, 67
1, 522720, Note_on_c, 0, 64, 72
1, 522720, Note_off_c, 0, 67, 67
1, 522744, Note_on_c, 0, 59, 68
1, 522744, Note_off_c, 0, 64, 72
1, 522792, Note_off_c, 0, 59, 68
1, 522792, Note_on_c, 0, 67, 67
1, 522816, Note_off_c, 0, 67, 67
1, 522840, Note_on_c, 0, 55, 67
1, 522864, Note_off_c, 0, 55, 67
1, 522864, Note_on_c, 0, 59, 69
1, 522912, Note_off_c, 0, 59, 69
1, 522936, Note_on_c, 0, 55, 65
1, 522960, Note_off_c, 0, 55, 65
1, 522960, Note_on_c, 0, 59, 67
1, 523008, Note_off_c, 0, 59, 67
1, 523008, Note_on_c, 0, 64, 76
1, 523032, Note_on_c, 0, 60, 65
1, 523032, Note_off_c, 0, 64, 76
1, 523080, Note_off_c, 0, 60, 65
1, 523080, Note_on_c, 0, 69, 67
1, 523104, Note_on_c, 0, 64, 72
1, 523104, Note_off_c, 0, 69, 67
1, 523128, Note_on_c, 0, 60, 65
1, 523128, Note_off_c, 0, 64, 72
1, 523176, Note_off_c, 0, 60, 65
1, 523176, Note_on_c, 0, 69, 68
1, 523200, Note_off_c, 0, 69, 68
1, 523224, Note_on_c, 0, 57, 67
1, 523248, Note_off_c, 0, 57, 67
1, 523248, Note_on_c, 0, 60, 68
1, 523296, Note_off_c, 0, 60, 68
1, 523320, Note_on_c, 0, 57, 67
1, 523344, Note_off_c, 0, 57, 67
1, 523344, Note_on_c, 0, 60, 65
1, 523392, Note_off_c, 0, 60, 65
1, 523392, Note_on_c, 0, 64, 76
1, 523416, Note_on_c, 0, 59, 68
1, 523416, Note_off_c, 0, 64, 76
1, 523464, Note_off_c, 0, 59, 68
1, 523464, Note_on_c, 0, 67, 67
1, 523488, Note_on_c, 0, 64, 72
1, 523488, Note_off_c, 0, 67, 67
1, 523512, Note_on_c, 0, 59, 67
1, 523512, Note_off_c, 0, 64, 72
1, 523560, Note_off_c, 0, 59, 67
1, 523560, Note_on_c, 0, 67, 69
1, 523584, Note_off_c, 0, 67, 69
1, 523608, Note_on_c, 0, 55, 66
1, 523632, Note_off_c, 0, 55, 66
1, 523632, Note_on_c, 0, 59, 69
1, 523680, Note_off_c, 0, 59, 69
1, 523704, Note_on_c, 0, 55, 69
1, 523728, Note_off_c, 0, 55, 69
1, 523728, Note_on_c, 0, 59, 67
1, 523776, Control_c, 0, 1, 70
1, 523776, Note_on_c, 0, 33, 76
1, 523776, Note_off_c, 0, 59, 67
1, 523776, Note_on_c, 0, 69, 113
1, 523872, Note_off_c, 0, 69, 113
1, 523872, Note_on_c, 0, 72, 102
1, 523920, Note_off_c, 0, 72, 102
1, 523920, Note_on_c, 0, 74, 94
1, 523968, Note_off_c, 0, 74, 94
1, 523968, Note_on_c, 0, 76, 103
1, 524155, Note_off_c, 0, 76, 103
1, 524160, Note_on_c, 0, 28, 73
1, 524160, Note_off_c, 0, 33, 76
1, 524160, Note_on_c, 0, 76, 107
1, 524544, Note_off_c, 0, 28, 73
1, 524544, Note_on_c, 0, 38, 75
1, 524544, Note_off_c, 0, 76, 107
1, 524544, Note_on_c, 0, 81, 110
1, 524640, Note_on_c, 0, 77, 98
1, 524640, Note_off_c, 0, 81, 110
1, 524688, Note_off_c, 0, 77, 98
1, 524688, Note_on_c, 0, 81, 94
1, 524736, Note_on_c, 0, 72, 101
1, 524736, Note_off_c, 0, 81, 94
1, 524928, Note_on_c, 0, 33, 76
1, 524928, Note_off_c, 0, 38, 75
1, 524928, Note_off_c, 0, 72, 101
1, 524928, Note_on_c, 0, 74, 105
1, 525120, Note_off_c, 0, 74, 105
1, 525120, Note_on_c, 0, 77, 106
1, 525307, Note_off_c, 0, 33, 76
1, 525312, Control_c, 0, 1, 70
1, 525312, Control_c, 0, 1, 0
1, 525312, Note_on_c, 0, 45, 100
1, 525312, Note_off_c, 0, 77, 106
1, 525336, Note_off_c, 0, 45, 100
1, 525336, Note_on_c, 0, 52, 64
1, 525360, Note_off_c, 0, 52, 64
1, 525360, Note_on_c, 0, 64, 88
1, 525384, Note_off_c, 0, 64, 88
1, 525384, Note_on_c, 0, 76, 64
1, 525408, Note_on_c, 0, 45, 100
1, 525408, Note_off_c, 0, 76, 64
1, 525432, Note_off_c, 0, 45, 100
1, 525432, Note_on_c, 0, 52, 64
1, 525456, Note_off_c, 0, 52, 64
1, 525456, Note_on_c, 0, 64, 88
1, 525480, Note_off_c, 0, 64, 88
1, 525480, Note_on_c, 0, 76, 64
1, 525504, Note_on_c, 0, 45, 100
1, 525504, Note_off_c, 0, 76, 64
1, 525528, Note_off_c, 0, 45, 100
1, 525528, Note_on_c, 0, 52, 64
1, 525552, Note_off_c, 0, 52, 64
1, 525552, Note_on_c, 0, 64, 88
1, 525576, Note_off_c, 0, 64, 88
1, 525576, Note_on_c, 0, 76, 64
1, 525600, Note_on_c, 0, 45, 100
1, 525600, Note_off_c, 0, 76, 64
1, 525624, Note_off_c, 0, 45, 100
1, 525624, Note_on_c, 0, 52, 64
1, 525648, Note_off_c, 0, 52, 64
1, 525648, Note_on_c, 0, 64, 88
1, 525672, Note_off_c, 0, 64, 88
1, 525672, Note_on_c, 0, 72, 64
1, 525696, Note_on_c, 0, 41, 100
1, 525696, Note_off_c, 0, 72, 64
1, 525720, Note_off_c, 0, 41, 100
1, 525720, Note_on_c, 0, 50, 64
1, 525744, Note_off_c, 0, 50, 64
1, 525744, Note_on_c, 0, 60, 88
1, 525768, Note_off_c, 0, 60, 88
1, 525768, Note_on_c, 0, 72, 64
1, 525792, Note_on_c, 0, 41, 100
1, 525792, Note_off_c, 0, 72, 64
1, 525816, Note_off_c, 0, 41, 100
1, 525816, Note_on_c, 0, 50, 64
1, 525840, Note_off_c, 0, 50, 64
1, 525840, Note_on_c, 0, 60, 88
1, 525864, Note_off_c, 0, 60, 88
1, 525864, Note_on_c, 0, 72, 64
1, 525888, Note_on_c, 0, 41, 100
1, 525888, Note_off_c, 0, 72, 64
1, 525912, Note_off_c, 0, 41, 100
1, 525912, Note_on_c, 0, 50, 64
1, 525936, Note_off_c, 0, 50, 64
1, 525936, Note_on_c, 0, 60, 88
1, 525960, Note_off_c, 0, 60, 88
1, 525960, Note_on_c, 0, 72, 64
1, 525984, Note_on_c, 0, 41, 100
1, 525984, Note_off_c, 0, 72, 64
1, 526008, Note_off_c, 0, 41, 100
1, 526008, Note_on_c, 0, 50, 64
1, 526032, Note_off_c, 0, 50, 64
1, 526032, Note_on_c, 0, 60, 88
1, 526056, Note_off_c, 0, 60, 88
1, 526056, Note_on_c, 0, 69, 64
1, 526080, Note_on_c, 0, 41, 100
1, 526080, Note_off_c, 0, 69, 64
1, 526104, Note_off_c, 0, 41, 100
1, 526104, Note_on_c, 0, 50, 64
1, 526128, Note_off_c, 0, 50, 64
1, 526128, Note_on_c, 0, 65, 88
1, 526152, Note_off_c, 0, 65, 88
1, 526152, Note_on_c, 0, 72, 64
1, 526176, Note_on_c, 0, 41, 100
1, 526176, Note_off_c, 0, 72, 64
1, 526200, Note_off_c, 0, 41, 100
1, 526200, Note_on_c, 0, 50, 64
1, 526224, Note_off_c, 0, 50, 64
1, 526224, Note_on_c, 0, 65, 88
1, 526248, Note_off_c, 0, 65, 88
1, 526248, Note_on_c, 0, 72, 64
1, 526272, Note_on_c, 0, 41, 100
1, 526272, Note_off_c, 0, 72, 64
1, 526296, Note_off_c, 0, 41, 100
1, 526296, Note_on_c, 0, 50, 64
1, 526320, Note_off_c, 0, 50, 64
1, 526320, Note_on_c, 0, 65, 88
1, 526344, Note_off_c, 0, 65, 88
1, 526344, Note_on_c, 0, 72, 64
1, 526368, Note_on_c, 0, 41, 100
1, 526368, Note_off_c, 0, 72, 64
1, 526392, Note_off_c, 0, 41, 100
1, 526392, Note_on_c, 0, 50, 64
1, 526416, Note_off_c, 0, 50, 64
1, 526416, Note_on_c, 0, 65, 88
1, 526440, Note_off_c, 0, 65, 88
1, 526440, Note_on_c, 0, 69, 64
1, 526464, Note_on_c, 0, 38, 100
1, 526464, Note_off_c, 0, 69, 64
1, 526488, Note_off_c, 0, 38, 100
1, 526488, Note_on_c, 0, 45, 64
1, 526512, Note_off_c, 0, 45, 64
1, 526512, Note_on_c, 0, 52, 88
1, 526536, Note_off_c, 0, 52, 88
1, 526536, Note_on_c, 0, 67, 64
1, 526560, Note_on_c, 0, 38, 100
1, 526560, Note_off_c, 0, 67, 64
1, 526584, Note_off_c, 0, 38, 100
1, 526584, Note_on_c, 0, 45, 64
1, 526608, Note_off_c, 0, 45, 64
1, 526608, Note_on_c, 0, 52, 88
1, 526632, Note_off_c, 0, 52, 88
1, 526632, Note_on_c, 0, 67, 64
1, 526656, Note_on_c, 0, 38, 100
1, 526656, Note_off_c, 0, 67, 64
1, 526680, Note_off_c, 0, 38, 100
1, 526680, Note_on_c, 0, 45, 64
1, 526704, Note_off_c, 0, 45, 64
1, 526704, Note_on_c, 0, 52, 88
1, 526728, Note_off_c, 0, 52, 88
1, 526728, Note_on_c, 0, 67, 64
1, 526752, Note_on_c, 0, 38, 100
1, 526752, Note_off_c, 0, 67, 64
1, 526776, Note_off_c, 0, 38, 100
1, 526776, Note_on_c, 0, 45, 64
1, 526800, Note_off_c, 0, 45, 64
1, 526800, Note_on_c, 0, 52, 88
1, 526824, Note_off_c, 0, 52, 88
1, 526824, Note_on_c, 0, 69, 64
1, 526848, Note_on_c, 0, 33, 44
1, 526848, Note_off_c, 0, 69, 64
1, 526896, Note_off_c, 0, 33, 44
1, 526896, Note_on_c, 0, 45, 41
1, 526991, Note_off_c, 0, 45, 41
1, 526992, Note_on_c, 0, 52, 29
1, 527040, Note_on_c, 0, 60, 42
1, 527055, Note_off_c, 0, 52, 29
1, 527089, Note_off_c, 0, 60, 42
1, 527136, Note_on_c, 0, 69, 42
1, 527202, Note_off_c, 0, 69, 42
1, 527232, Note_on_c, 0, 72, 40
1, 527279, Note_off_c, 0, 72, 40
1, 527280, Note_on_c, 0, 65, 41
1, 527376, Note_on_c, 0, 60, 30
1, 527376, Note_off_c, 0, 65, 41
1, 527424, Note_on_c, 0, 53, 44
1, 527471, Note_off_c, 0, 60, 30
1, 527520, Note_on_c, 0, 41, 51
1, 527526, Note_off_c, 0, 53, 44
1, 527616, Note_on_c, 0, 33, 44
1, 527616, Note_off_c, 0, 41, 51
1, 527664, Note_off_c, 0, 33, 44
1, 527664, Note_on_c, 0, 45, 41
1, 527760, Note_off_c, 0, 45, 41
1, 527760, Note_on_c, 0, 57, 41
1, 527808, Note_off_c, 0, 57, 41
1, 527808, Note_on_c, 0, 62, 29
1, 527871, Note_off_c, 0, 62, 29
1, 527904, Note_on_c, 0, 65, 42
1, 527952, Note_on_c, 0, 69, 42
1, 527953, Note_off_c, 0, 65, 42
1, 528000, Note_off_c, 0, 69, 42
1, 528000, Note_on_c, 0, 72, 40
1, 528048, Note_on_c, 0, 65, 41
1, 528048, Note_off_c, 0, 72, 40
1, 528144, Note_on_c, 0, 60, 30
1, 528192, Note_on_c, 0, 52, 44
1, 528219, Note_off_c, 0, 65, 41
1, 528239, Note_off_c, 0, 60, 30
1, 528288, Note_on_c, 0, 74, 51
1, 528294, Note_off_c, 0, 52, 44
1, 528384, Control_c, 0, 1, 0
1, 528384, Control_c, 0, 1, 40
1, 528384, Note_on_c, 0, 48, 86
1, 528384, Note_off_c, 0, 74, 51
1, 528432, Note_off_c, 0, 48, 86
1, 528432, Note_on_c, 0, 64, 81
1, 528480, Note_off_c, 0, 64, 81
1, 528480, Note_on_c, 0, 69, 81
1, 528528, Note_on_c, 0, 48, 86
1, 528528, Note_off_c, 0, 69, 81
1, 528576, Note_off_c, 0, 48, 86
1, 528576, Note_on_c, 0, 64, 81
1, 528624, Note_off_c, 0, 64, 81
1, 528624, Note_on_c, 0, 69, 81
1, 528672, Note_on_c, 0, 48, 86
1, 528672, Note_off_c, 0, 69, 81
1, 528720, Note_off_c, 0, 48, 86
1, 528720, Note_on_c, 0, 64, 81
1, 528768, Note_off_c, 0, 64, 81
1, 528768, Note_on_c, 0, 69, 81
1, 528816, Note_on_c, 0, 48, 85
1, 528816, Note_off_c, 0, 69, 81
1, 528864, Note_off_c, 0, 48, 85
1, 528864, Note_on_c, 0, 62, 81
1, 528912, Note_off_c, 0, 62, 81
1, 528912, Note_on_c, 0, 67, 80
1, 528960, Note_on_c, 0, 48, 85
1, 528960, Note_off_c, 0, 67, 80
1, 529008, Note_off_c, 0, 48, 85
1, 529008, Note_on_c, 0, 62, 81
1, 529056, Note_off_c, 0, 62, 81
1, 529056, Note_on_c, 0, 67, 80
1, 529104, Note_on_c, 0, 48, 85
1, 529104, Note_off_c, 0, 67, 80
1, 529152, Note_off_c, 0, 48, 85
1, 529152, Note_on_c, 0, 62, 80
1, 529200, Note_off_c, 0, 62, 80
1, 529200, Note_on_c, 0, 67, 81
1, 529248, Note_on_c, 0, 45, 87
1, 529248, Note_off_c, 0, 67, 81
1, 529296, Note_off_c, 0, 45, 87
1, 529296, Note_on_c, 0, 62, 80
1, 529344, Note_off_c, 0, 62, 80
1, 529344, Note_on_c, 0, 67, 81
1, 529392, Note_on_c, 0, 45, 87
1, 529392, Note_off_c, 0, 67, 81
1, 529440, Note_off_c, 0, 45, 87
1, 529440, Note_on_c, 0, 62, 80
1, 529488, Note_off_c, 0, 62, 80
1, 529488, Note_on_c, 0, 67, 81
1, 529536, Note_on_c, 0, 45, 86
1, 529536, Note_off_c, 0, 67, 81
1, 529584, Note_off_c, 0, 45, 86
1, 529584, Note_on_c, 0, 62, 81
1, 529632, Note_off_c, 0, 62, 81
1, 529632, Note_on_c, 0, 65, 80
1, 529680, Note_on_c, 0, 45, 86
1, 529680, Note_off_c, 0, 65, 80
1, 529728, Note_off_c, 0, 45, 86
1, 529728, Note_on_c, 0, 60, 62
1, 529776, Note_off_c, 0, 60, 62
1, 529776, Note_on_c, 0, 65, 80
1, 529824, Note_on_c, 0, 45, 86
1, 529824, Note_off_c, 0, 65, 80
1, 529872, Note_off_c, 0, 45, 86
1, 529872, Note_on_c, 0, 60, 62
1, 529920, Control_c, 0, 1, 40
1, 529920, Note_off_c, 0, 60, 62
1, 529920, Note_on_c, 0, 72, 45
1, 529944, Note_off_c, 0, 72, 45
1, 529944, Note_on_c, 0, 81, 40
1, 529968, Note_on_c, 0, 76, 40
1, 529968, Note_off_c, 0, 81, 40
1, 530016, Note_on_c, 0, 72, 40
1, 530016, Note_off_c, 0, 76, 40
1, 530040, Note_off_c, 0, 72, 40
1, 530040, Note_on_c, 0, 81, 40
1, 530064, Note_on_c, 0, 76, 38
1, 530064, Note_off_c, 0, 81, 40
1, 530112, Note_off_c, 0, 76, 38
1, 530112, Note_on_c, 0, 81, 43
1, 530136, Note_off_c, 0, 81, 43
1, 530208, Note_on_c, 0, 81, 40
1, 530232, Note_off_c, 0, 81, 40
1, 530304, Note_on_c, 0, 72, 44
1, 530328, Note_off_c, 0, 72, 44
1, 530328, Note_on_c, 0, 81, 38
1, 530352, Note_on_c, 0, 76, 38
1, 530352, Note_off_c, 0, 81, 38
1, 530400, Note_on_c, 0, 72, 42
1, 530400, Note_off_c, 0, 76, 38
1, 530424, Note_off_c, 0, 72, 42
1, 530424, Note_on_c, 0, 81, 38
1, 530448, Note_on_c, 0, 76, 40
1, 530448, Note_off_c, 0, 81, 38
1, 530496, Note_off_c, 0, 76, 40
1, 530496, Note_on_c, 0, 81, 42
1, 530520, Note_off_c, 0, 81, 42
1, 530592, Note_on_c, 0, 81, 40
1, 530616, Note_off_c, 0, 81, 40
1, 530688, Note_on_c, 0, 72, 44
1, 530712, Note_off_c, 0, 72, 44
1, 530712, Note_on_c, 0, 79, 39
1, 530736, Note_on_c, 0, 74, 40
1, 530736, Note_off_c, 0, 79, 39
1, 530784, Note_on_c, 0, 72, 42
1, 530784, Note_off_c, 0, 74, 40
1, 530808, Note_off_c, 0, 72, 42
1, 530808, Note_on_c, 0, 79, 38
1, 530832, Note_on_c, 0, 74, 40
1, 530832, Note_off_c, 0, 79, 38
1, 530880, Note_off_c, 0, 74, 40
1, 530880, Note_on_c, 0, 79, 41
1, 530904, Note_off_c, 0, 79, 41
1, 530976, Note_on_c, 0, 79, 38
1, 531000, Note_off_c, 0, 79, 38
1, 531072, Note_on_c, 0, 72, 46
1, 531096, Note_off_c, 0, 72, 46
1, 531096, Note_on_c, 0, 79, 38
1, 531120, Note_on_c, 0, 74, 38
1, 531120, Note_off_c, 0, 79, 38
1, 531168, Note_on_c, 0, 72, 40
1, 531168, Note_off_c, 0, 74, 38
1, 531192, Note_off_c, 0, 72, 40
1, 531192, Note_on_c, 0, 79, 40
1, 531216, Note_on_c, 0, 74, 38
1, 531216, Note_off_c, 0, 79, 40
1, 531264, Note_off_c, 0, 74, 38
1, 531264, Note_on_c, 0, 79, 42
1, 531288, Note_off_c, 0, 79, 42
1, 531360, Note_on_c, 0, 79, 38
1, 531384, Note_off_c, 0, 79, 38
1, 531456, Control_c, 0, 1, 40
1, 531456, Control_c, 0, 1, 0
1, 531456, Note_on_c, 0, 45, 100
1, 531480, Note_off_c, 0, 45, 100
1, 531480, Note_on_c, 0, 52, 64
1, 531504, Note_off_c, 0, 52, 64
1, 531504, Note_on_c, 0, 64, 88
1, 531528, Note_off_c, 0, 64, 88
1, 531528, Note_on_c, 0, 76, 64
1, 531552, Note_on_c, 0, 45, 100
1, 531552, Note_off_c, 0, 76, 64
1, 531576, Note_off_c, 0, 45, 100
1, 531576, Note_on_c, 0, 52, 64
1, 531600, Note_off_c, 0, 52, 64
1, 531600, Note_on_c, 0, 64, 88
1, 531624, Note_off_c, 0, 64, 88
1, 531624, Note_on_c, 0, 76, 64
1, 531648, Note_on_c, 0, 45, 100
1, 531648, Note_off_c, 0, 76, 64
1, 531672, Note_off_c, 0, 45, 100
1, 531672, Note_on_c, 0, 52, 64
1, 531696, Note_off_c, 0, 52, 64
1, 531696, Note_on_c, 0, 64, 88
1, 531720, Note_off_c, 0, 64, 88
1, 531720, Note_on_c, 0, 76, 64
1, 531744, Note_on_c, 0, 45, 100
1, 531744, Note_off_c, 0, 76, 64
1, 531768, Note_off_c, 0, 45, 100
1, 531768, Note_on_c, 0, 52, 64
1, 531792, Note_off_c, 0, 52, 64
1, 531792, Note_on_c, 0, 64, 88
1, 531816, Note_off_c, 0, 64, 88
1, 531816, Note_on_c, 0, 76, 64
1, 531840, Note_on_c, 0, 48, 100
1, 531840, Note_off_c, 0, 76, 64
1, 531864, Note_off_c, 0, 48, 100
1, 531864, Note_on_c, 0, 57, 64
1, 531888, Note_off_c, 0, 57, 64
1, 531888, Note_on_c, 0, 67, 88
1, 531912, Note_off_c, 0, 67, 88
1, 531912, Note_on_c, 0, 79, 64
1, 531936, Note_on_c, 0, 48, 100
1, 531936, Note_off_c, 0, 79, 64
1, 531960, Note_off_c, 0, 48, 100
1, 531960, Note_on_c, 0, 57, 64
1, 531984, Note_off_c, 0, 57, 64
1, 531984, Note_on_c, 0, 67, 88
1, 532008, Note_off_c, 0, 67, 88
1, 532008, Note_on_c, 0, 79, 64
1, 532032, Note_on_c, 0, 48, 100
1, 532032, Note_off_c, 0, 79, 64
1, 532056, Note_off_c, 0, 48, 100
1, 532056, Note_on_c, 0, 57, 64
1, 532080, Note_off_c, 0, 57, 64
1, 532080, Note_on_c, 0, 67, 88
1, 532104, Note_off_c, 0, 67, 88
1, 532104, Note_on_c, 0, 79, 64
1, 532128, Note_on_c, 0, 48, 100
1, 532128, Note_off_c, 0, 79, 64
1, 532152, Note_off_c, 0, 48, 100
1, 532152, Note_on_c, 0, 57, 64
1, 532176, Note_off_c, 0, 57, 64
1, 532176, Note_on_c, 0, 67, 88
1, 532200, Note_off_c, 0, 67, 88
1, 532200, Note_on_c, 0, 79, 64
1, 532224, Note_on_c, 0, 43, 100
1, 532224, Note_off_c, 0, 79, 64
1, 532248, Note_off_c, 0, 43, 100
1, 532248, Note_on_c, 0, 52, 64
1, 532272, Note_off_c, 0, 52, 64
1, 532272, Note_on_c, 0, 67, 88
1, 532296, Note_off_c, 0, 67, 88
1, 532296, Note_on_c, 0, 74, 64
1, 532320, Note_on_c, 0, 43, 100
1, 532320, Note_off_c, 0, 74, 64
1, 532344, Note_off_c, 0, 43, 100
1, 532344, Note_on_c, 0, 52, 64
1, 532368, Note_off_c, 0, 52, 64
1, 532368, Note_on_c, 0, 67, 88
1, 532392, Note_off_c, 0, 67, 88
1, 532392, Note_on_c, 0, 74, 64
1, 532416, Note_on_c, 0, 43, 100
1, 532416, Note_off_c, 0, 74, 64
1, 532440, Note_off_c, 0, 43, 100
1, 532440, Note_on_c, 0, 52, 64
1, 532464, Note_off_c, 0, 52, 64
1, 532464, Note_on_c, 0, 67, 88
1, 532488, Note_off_c, 0, 67, 88
1, 532488, Note_on_c, 0, 74, 64
1, 532512, Note_on_c, 0, 43, 100
1, 532512, Note_off_c, 0, 74, 64
1, 532536, Note_off_c, 0, 43, 100
1, 532536, Note_on_c, 0, 52, 64
1, 532560, Note_off_c, 0, 52, 64
1, 532560, Note_on_c, 0, 67, 88
1, 532584, Note_off_c, 0, 67, 88
1, 532584, Note_on_c, 0, 74, 64
1, 532608, Note_on_c, 0, 53, 100
1, 532608, Note_off_c, 0, 74, 64
1, 532632, Note_off_c, 0, 53, 100
1, 532632, Note_on_c, 0, 57, 64
1, 532656, Note_off_c, 0, 57, 64
1, 532656, Note_on_c, 0, 74, 88
1, 532680, Note_off_c, 0, 74, 88
1, 532680, Note_on_c, 0, 81, 64
1, 532704, Note_on_c, 0, 53, 100
1, 532704, Note_off_c, 0, 81, 64
1, 532728, Note_off_c, 0, 53, 100
1, 532728, Note_on_c, 0, 57, 64
1, 532752, Note_off_c, 0, 57, 64
1, 532752, Note_on_c, 0, 74, 88
1, 532776, Note_off_c, 0, 74, 88
1, 532776, Note_on_c, 0, 81, 64
1, 532800, Note_on_c, 0, 53, 100
1, 532800, Note_off_c, 0, 81, 64
1, 532824, Note_off_c, 0, 53, 100
1, 532824, Note_on_c, 0, 57, 64
1, 532848, Note_off_c, 0, 57, 64
1, 532848, Note_on_c, 0, 74, 88
1, 532872, Note_off_c, 0, 74, 88
1, 532872, Note_on_c, 0, 81, 64
1, 532896, Note_on_c, 0, 53, 100
1, 532896, Note_off_c, 0, 81, 64
1, 532920, Note_off_c, 0, 53, 100
1, 532920, Note_on_c, 0, 57, 64
1, 532944, Note_off_c, 0, 57, 64
1, 532944, Note_on_c, 0, 74, 88
1, 532968, Note_off_c, 0, 74, 88
1, 532968, Note_on_c, 0, 81, 64
1, 532992, Note_on_c, 0, 33, 44
1, 532992, Note_off_c, 0, 81, 64
1, 533040, Note_off_c, 0, 33, 44
1, 533064, Note_on_c, 0, 45, 41
1, 533088, Note_off_c, 0, 45, 41
1, 533112, Note_on_c, 0, 52, 29
1, 533160, Note_off_c, 0, 52, 29
1, 533184, Note_on_c, 0, 60, 42
1, 533232, Note_on_c, 0, 52, 29
1, 533232, Note_off_c, 0, 60, 42
1, 533280, Note_off_c, 0, 52, 29
1, 533280, Note_on_c, 0, 69, 42
1, 533376, Note_on_c, 0, 67, 40
1, 533376, Note_off_c, 0, 69, 42
1, 533424, Note_on_c, 0, 55, 30
1, 533424, Note_off_c, 0, 67, 40
1, 533447, Note_off_c, 0, 55, 30
1, 533472, Note_on_c, 0, 60, 41
1, 533496, Note_off_c, 0, 60, 41
1, 533520, Note_on_c, 0, 48, 44
1, 533616, Note_on_c, 0, 36, 51
1, 533622, Note_off_c, 0, 48, 44
1, 533688, Note_off_c, 0, 36, 51
1, 533760, Note_on_c, 0, 48, 56
1, 533808, Note_on_c, 0, 43, 41
1, 533808, Note_off_c, 0, 48, 56
1, 533832, Note_off_c, 0, 43, 41
1, 533856, Note_on_c, 0, 55, 36
1, 533903, Note_off_c, 0, 55, 36
1, 533904, Note_on_c, 0, 65, 42
1, 533952, Note_off_c, 0, 65, 42
1, 534000, Note_on_c, 0, 55, 36
1, 534048, Note_off_c, 0, 55, 36
1, 534048, Note_on_c, 0, 72, 41
1, 534144, Note_on_c, 0, 29, 35
1, 534144, Note_on_c, 0, 62, 44
1, 534144, Note_off_c, 0, 72, 41
1, 534240, Note_off_c, 0, 62, 44
1, 534336, Note_off_c, 0, 29, 35
1, 534528, Control_c, 0, 1, 0
1, 534528, Control_c, 0, 1, 70
1, 534528, Note_on_c, 0, 69, 72
1, 534559, Note_off_c, 0, 69, 72
1, 534559, Note_on_c, 0, 72, 65
1, 534592, Note_off_c, 0, 72, 65
1, 534592, Note_on_c, 0, 76, 65
1, 534624, Note_on_c, 0, 69, 72
1, 534624, Note_off_c, 0, 76, 65
1, 534655, Note_off_c, 0, 69, 72
1, 534655, Note_on_c, 0, 72, 66
1, 534688, Note_off_c, 0, 72, 66
1, 534688, Note_on_c, 0, 76, 67
1, 534720, Note_on_c, 0, 65, 74
1, 534720, Note_off_c, 0, 76, 67
1, 534751, Note_off_c, 0, 65, 74
1, 534751, Note_on_c, 0, 69, 66
1, 534783, Note_off_c, 0, 69, 66
1, 534784, Note_on_c, 0, 74, 66
1, 534816, Note_on_c, 0, 65, 70
1, 534816, Note_off_c, 0, 74, 66
1, 534847, Note_off_c, 0, 65, 70
1, 534847, Note_on_c, 0, 69, 65
1, 534880, Note_off_c, 0, 69, 65
1, 534880, Note_on_c, 0, 74, 68
1, 534912, Note_on_c, 0, 69, 75
1, 534912, Note_off_c, 0, 74, 68
1, 534943, Note_off_c, 0, 69, 75
1, 534943, Note_on_c, 0, 72, 65
1, 534975, Note_on_c, 0, 77, 69
1, 534976, Note_off_c, 0, 72, 65
1, 535007, Note_off_c, 0, 77, 69
1, 535008, Note_on_c, 0, 69, 72
1, 535039, Note_off_c, 0, 69, 72
1, 535039, Note_on_c, 0, 72, 65
1, 535072, Note_off_c, 0, 72, 65
1, 535072, Note_on_c, 0, 77, 65
1, 535104, Note_on_c, 0, 67, 75
1, 535104, Note_off_c, 0, 77, 65
1, 535135, Note_off_c, 0, 67, 75
1, 535135, Note_on_c, 0, 71, 65
1, 535167, Note_on_c, 0, 76, 65
1, 535168, Note_off_c, 0, 71, 65
1, 535199, Note_off_c, 0, 76, 65
1, 535200, Note_on_c, 0, 67, 70
1, 535231, Note_off_c, 0, 67, 70
1, 535231, Note_on_c, 0, 71, 67
1, 535264, Note_off_c, 0, 71, 67
1, 535264, Note_on_c, 0, 76, 68
1, 535296, Note_on_c, 0, 69, 72
1, 535296, Note_off_c, 0, 76, 68
1, 535327, Note_off_c, 0, 69, 72
1, 535327, Note_on_c, 0, 72, 65
1, 535359, Note_off_c, 0, 72, 65
1, 535360, Note_on_c, 0, 76, 69
1, 535392, Note_on_c, 0, 69, 74
1, 535392, Note_off_c, 0, 76, 69
1, 535423, Note_off_c, 0, 69, 74
1, 535423, Note_on_c, 0, 72, 65
1, 535455, Note_off_c, 0, 72, 65
1, 535456, Note_on_c, 0, 76, 69
1, 535488, Note_on_c, 0, 65, 73
1, 535488, Note_off_c, 0, 76, 69
1, 535519, Note_off_c, 0, 65, 73
1, 535519, Note_on_c, 0, 69, 67
1, 535551, Note_off_c, 0, 69, 67
1, 535552, Note_on_c, 0, 74, 65
1, 535584, Note_on_c, 0, 65, 72
1, 535584, Note_off_c, 0, 74, 65
1, 535615, Note_off_c, 0, 65, 72
1, 535615, Note_on_c, 0, 69, 68
1, 535647, Note_off_c, 0, 69, 68
1, 535648, Note_on_c, 0, 74, 65
1, 535680, Note_on_c, 0, 69, 72
1, 535680, Note_off_c, 0, 74, 65
1, 535711, Note_off_c, 0, 69, 72
1, 535711, Note_on_c, 0, 72, 66
1, 535743, Note_off_c, 0, 72, 66
1, 535744, Note_on_c, 0, 77, 65
1, 535776, Note_on_c, 0, 69, 72
1, 535776, Note_off_c, 0, 77, 65
1, 535807, Note_off_c, 0, 69, 72
1, 535807, Note_on_c, 0, 72, 68
1, 535839, Note_off_c, 0, 72, 68
1, 535840, Note_on_c, 0, 77, 67
1, 535872, Note_on_c, 0, 67, 74
1, 535872, Note_off_c, 0, 77, 67
1, 535903, Note_off_c, 0, 67, 74
1, 535903, Note_on_c, 0, 71, 68
1, 535935, Note_off_c, 0, 71, 68
1, 535936, Note_on_c, 0, 76, 65
1, 535968, Note_on_c, 0, 67, 72
1, 535968, Note_off_c, 0, 76, 65
1, 535999, Note_off_c, 0, 67, 72
1, 535999, Note_on_c, 0, 71, 65
1, 536031, Note_off_c, 0, 71, 65
1, 536032, Note_on_c, 0, 76, 68
1, 536061, Note_off_c, 0, 76, 68
1, 536064, Control_c, 0, 1, 70
1, 536064, Control_c, 0, 1, 40
1, 536064, Note_on_c, 0, 72, 43
1, 536112, Note_off_c, 0, 72, 43
1, 536160, Note_on_c, 0, 76, 41
1, 536175, Note_on_c, 0, 72, 39
1, 536176, Note_off_c, 0, 76, 41
1, 536191, Note_off_c, 0, 72, 39
1, 536191, Note_on_c, 0, 76, 40
1, 536207, Note_off_c, 0, 76, 40
1, 536207, Note_on_c, 0, 79, 40
1, 536255, Note_off_c, 0, 79, 40
1, 536256, Note_on_c, 0, 74, 46
1, 536304, Note_off_c, 0, 74, 46
1, 536352, Note_on_c, 0, 76, 41
1, 536367, Note_on_c, 0, 74, 40
1, 536368, Note_off_c, 0, 76, 41
1, 536383, Note_off_c, 0, 74, 40
1, 536383, Note_on_c, 0, 76, 40
1, 536399, Note_off_c, 0, 76, 40
1, 536400, Note_on_c, 0, 79, 38
1, 536448, Note_on_c, 0, 72, 44
1, 536448, Note_off_c, 0, 79, 38
1, 536496, Note_off_c, 0, 72, 44
1, 536544, Note_on_c, 0, 76, 41
1, 536559, Note_on_c, 0, 72, 38
1, 536560, Note_off_c, 0, 76, 41
1, 536575, Note_off_c, 0, 72, 38
1, 536575, Note_on_c, 0, 76, 39
1, 536591, Note_off_c, 0, 76, 39
1, 536592, Note_on_c, 0, 77, 40
1, 536640, Note_on_c, 0, 72, 44
1, 536640, Note_off_c, 0, 77, 40
1, 536688, Note_off_c, 0, 72, 44
1, 536736, Note_on_c, 0, 74, 42
1, 536751, Note_on_c, 0, 72, 40
1, 536752, Note_off_c, 0, 74, 42
1, 536767, Note_off_c, 0, 72, 40
1, 536767, Note_on_c, 0, 74, 40
1, 536783, Note_off_c, 0, 74, 40
1, 536784, Note_on_c, 0, 77, 39
1, 536832, Note_on_c, 0, 72, 44
1, 536832, Note_off_c, 0, 77, 39
1, 536880, Note_off_c, 0, 72, 44
1, 536928, Note_on_c, 0, 76, 42
1, 536944, Note_on_c, 0, 72, 38
1, 536944, Note_off_c, 0, 76, 42
1, 536959, Note_on_c, 0, 76, 39
1, 536960, Note_off_c, 0, 72, 38
1, 536975, Note_off_c, 0, 76, 39
1, 536976, Note_on_c, 0, 77, 39
1, 537024, Note_on_c, 0, 72, 46
1, 537024, Note_off_c, 0, 77, 39
1, 537072, Note_off_c, 0, 72, 46
1, 537120, Note_on_c, 0, 74, 41
1, 537136, Note_on_c, 0, 72, 40
1, 537136, Note_off_c, 0, 74, 41
1, 537151, Note_on_c, 0, 74, 39
1, 537152, Note_off_c, 0, 72, 40
1, 537167, Note_off_c, 0, 74, 39
1, 537168, Note_on_c, 0, 77, 40
1, 537216, Note_on_c, 0, 74, 44
1, 537216, Note_off_c, 0, 77, 40
1, 537264, Note_off_c, 0, 74, 44
1, 537312, Note_on_c, 0, 77, 42
1, 537328, Note_on_c, 0, 74, 38
1, 537328, Note_off_c, 0, 77, 42
1, 537343, Note_on_c, 0, 77, 39
1, 537344, Note_off_c, 0, 74, 38
1, 537359, Note_off_c, 0, 77, 39
1, 537360, Note_on_c, 0, 81, 38
1, 537408, Note_on_c, 0, 72, 42
1, 537408, Note_off_c, 0, 81, 38
1, 537456, Note_off_c, 0, 72, 42
1, 537504, Note_on_c, 0, 76, 41
1, 537520, Note_on_c, 0, 72, 39
1, 537520, Note_off_c, 0, 76, 41
1, 537535, Note_on_c, 0, 76, 40
1, 537536, Note_off_c, 0, 72, 39
1, 537551, Note_off_c, 0, 76, 40
1, 537552, Note_on_c, 0, 81, 40
1, 537597, Note_off_c, 0, 81, 40
1, 537600, Control_c, 0, 1, 40
1, 537600, Control_c, 0, 1, 100
1, 537600, Note_on_c, 0, 33, 79
1, 537600, Note_on_c, 0, 72, 107
1, 537648, Note_on_c, 0, 71, 104
1, 537648, Note_off_c, 0, 72, 107
1, 537696, Note_on_c, 0, 69, 102
1, 537696, Note_off_c, 0, 71, 104
1, 537792, Note_off_c, 0, 33, 79
1, 537792, Note_on_c, 0, 38, 74
1, 537792, Note_on_c, 0, 62, 113
1, 537792, Note_off_c, 0, 69, 102
1, 537885, Note_off_c, 0, 62, 113
1, 537888, Note_on_c, 0, 62, 106
1, 537984, Note_off_c, 0, 38, 74
1, 537984, Note_on_c, 0, 41, 74
1, 537984, Note_off_c, 0, 62, 106
1, 537984, Note_on_c, 0, 72, 113
1, 538032, Note_on_c, 0, 65, 99
1, 538032, Note_off_c, 0, 72, 113
1, 538056, Note_off_c, 0, 65, 99
1, 538056, Note_on_c, 0, 77, 98
1, 538080, Note_on_c, 0, 69, 102
1, 538080, Note_off_c, 0, 77, 98
1, 538176, Note_on_c, 0, 40, 74
1, 538176, Note_off_c, 0, 41, 74
1, 538176, Note_on_c, 0, 67, 104
1, 538176, Note_off_c, 0, 69, 102
1, 538272, Note_off_c, 0, 67, 104
1, 538272, Note_on_c, 0, 76, 101
1, 538368, Note_on_c, 0, 33, 73
1, 538368, Note_off_c, 0, 40, 74
1, 538368, Note_on_c, 0, 72, 113
1, 538368, Note_off_c, 0, 76, 101
1, 538416, Note_on_c, 0, 71, 101
1, 538416, Note_off_c, 0, 72, 113
1, 538464, Note_on_c, 0, 69, 105
1, 538464, Note_off_c, 0, 71, 101
1, 538560, Note_off_c, 0, 33, 73
1, 538560, Note_on_c, 0, 38, 78
1, 538560, Note_on_c, 0, 62, 107
1, 538560, Note_off_c, 0, 69, 105
1, 538653, Note_off_c, 0, 62, 107
1, 538656, Note_on_c, 0, 62, 103
1, 538752, Note_off_c, 0, 38, 78
1, 538752, Note_on_c, 0, 41, 75
1, 538752, Note_off_c, 0, 62, 103
1, 538752, Note_on_c, 0, 72, 111
1, 538800, Note_on_c, 0, 65, 101
1, 538800, Note_off_c, 0, 72, 111
1, 538824, Note_off_c, 0, 65, 101
1, 538824, Note_on_c, 0, 77, 94
1, 538848, Note_on_c, 0, 69, 106
1, 538848, Note_off_c, 0, 77, 94
1, 538944, Note_on_c, 0, 40, 76
1, 538944, Note_off_c, 0, 41, 75
1, 538944, Note_on_c, 0, 67, 109
1, 538944, Note_off_c, 0, 69, 106
1, 539040, Note_off_c, 0, 67, 109
1, 539040, Note_on_c, 0, 76, 103
1, 539126, Control_c, 0, 1, 100
1, 539126, Control_c, 0, 1, 70
1, 539133, Note_off_c, 0, 40, 76
1, 539133, Note_off_c, 0, 76, 103
1, 539136, Control_c, 0, 1, 70
1, 539136, Control_c, 0, 1, 100
1, 539136, Note_on_c, 0, 72, 103
1, 539328, Note_on_c, 0, 67, 102
1, 539328, Note_off_c, 0, 72, 103
1, 539520, Note_on_c, 0, 60, 105
1, 539520, Note_off_c, 0, 67, 102
1, 539712, Note_off_c, 0, 60, 105
1, 539712, Note_on_c, 0, 67, 99
1, 539904, Note_on_c, 0, 62, 109
1, 539904, Note_off_c, 0, 67, 99
1, 540096, Note_on_c, 0, 55, 101
1, 540096, Note_off_c, 0, 62, 109
1, 540192, Note_off_c, 0, 55, 101
1, 540192, Note_on_c, 0, 57, 96
1, 540240, Note_off_c, 0, 57, 96
1, 540240, Note_on_c, 0, 62, 94
1, 540283, Note_off_c, 0, 62, 94
1, 540288, Note_on_c, 0, 62, 111
1, 540480, Note_off_c, 0, 62, 111
1, 540480, Note_on_c, 0, 67, 102
1, 540672, Control_c, 0, 1, 100
1, 540672, Control_c, 0, 1, 0
1, 540672, Note_on_c, 0, 48, 76
1, 540672, Note_off_c, 0, 67, 102
1, 540696, Note_off_c, 0, 48, 76
1, 540696, Note_on_c, 0, 67, 76
1, 540720, Note_off_c, 0, 67, 76
1, 540720, Note_on_c, 0, 72, 76
1, 540744, Note_on_c, 0, 64, 76
1, 540744, Note_off_c, 0, 72, 76
1, 540768, Note_on_c, 0, 48, 76
1, 540768, Note_off_c, 0, 64, 76
1, 540792, Note_off_c, 0, 48, 76
1, 540792, Note_on_c, 0, 67, 76
1, 540816, Note_off_c, 0, 67, 76
1, 540816, Note_on_c, 0, 72, 76
1, 540840, Note_on_c, 0, 64, 76
1, 540840, Note_off_c, 0, 72, 76
1, 540864, Note_on_c, 0, 48, 76
1, 540864, Note_off_c, 0, 64, 76
1, 540888, Note_off_c, 0, 48, 76
1, 540888, Note_on_c, 0, 67, 76
1, 540912, Note_off_c, 0, 67, 76
1, 540912, Note_on_c, 0, 72, 76
1, 540936, Note_on_c, 0, 64, 76
1, 540936, Note_off_c, 0, 72, 76
1, 540960, Note_on_c, 0, 48, 76
1, 540960, Note_off_c, 0, 64, 76
1, 540984, Note_off_c, 0, 48, 76
1, 540984, Note_on_c, 0, 67, 76
1, 541008, Note_off_c, 0, 67, 76
1, 541008, Note_on_c, 0, 72, 76
1, 541032, Note_on_c, 0, 64, 76
1, 541032, Note_off_c, 0, 72, 76
1, 541056, Note_off_c, 0, 64, 76
1, 541056, Note_on_c, 0, 48, 76
1, 541080, Note_off_c, 0, 48, 76
1, 541080, Note_on_c, 0, 65, 76
1, 541104, Note_off_c, 0, 65, 76
1, 541104, Note_on_c, 0, 70, 76
1, 541127, Note_on_c, 0, 60, 76
1, 541127, Note_off_c, 0, 70, 76
1, 541151, Note_off_c, 0, 60, 76
1, 541152, Note_on_c, 0, 48, 76
1, 541176, Note_off_c, 0, 48, 76
1, 541176, Note_on_c, 0, 65, 76
1, 541200, Note_off_c, 0, 65, 76
1, 541200, Note_on_c, 0, 70, 76
1, 541223, Note_on_c, 0, 60, 76
1, 541224, Note_off_c, 0, 70, 76
1, 541247, Note_off_c, 0, 60, 76
1, 541248, Note_on_c, 0, 48, 76
1, 541272, Note_off_c, 0, 48, 76
1, 541272, Note_on_c, 0, 65, 76
1, 541296, Note_off_c, 0, 65, 76
1, 541296, Note_on_c, 0, 70, 76
1, 541319, Note_on_c, 0, 60, 76
1, 541320, Note_off_c, 0, 70, 76
1, 541343, Note_off_c, 0, 60, 76
1, 541344, Note_on_c, 0, 48, 76
1, 541368, Note_off_c, 0, 48, 76
1, 541368, Note_on_c, 0, 65, 76
1, 541392, Note_off_c, 0, 65, 76
1, 541392, Note_on_c, 0, 70, 76
1, 541415, Note_on_c, 0, 60, 76
1, 541416, Note_off_c, 0, 70, 76
1, 541439, Note_off_c, 0, 60, 76
1, 541440, Note_on_c, 0, 53, 76
1, 541464, Note_off_c, 0, 53, 76
1, 541464, Note_on_c, 0, 69, 76
1, 541488, Note_off_c, 0, 69, 76
1, 541488, Note_on_c, 0, 74, 76
1, 541512, Note_on_c, 0, 65, 76
1, 541512, Note_off_c, 0, 74, 76
1, 541536, Note_on_c, 0, 53, 76
1, 541536, Note_off_c, 0, 65, 76
1, 541560, Note_off_c, 0, 53, 76
1, 541560, Note_on_c, 0, 69, 76
1, 541584, Note_off_c, 0, 69, 76
1, 541584, Note_on_c, 0, 74, 76
1, 541608, Note_on_c, 0, 65, 76
1, 541608, Note_off_c, 0, 74, 76
1, 541632, Note_on_c, 0, 53, 76
1, 541632, Note_off_c, 0, 65, 76
1, 541656, Note_off_c, 0, 53, 76
1, 541656, Note_on_c, 0, 69, 76
1, 541680, Note_off_c, 0, 69, 76
1, 541680, Note_on_c, 0, 74, 76
1, 541704, Note_on_c, 0, 65, 76
1, 541704, Note_off_c, 0, 74, 76
1, 541728, Note_on_c, 0, 53, 76
1, 541728, Note_off_c, 0, 65, 76
1, 541752, Note_off_c, 0, 53, 76
1, 541752, Note_on_c, 0, 69, 76
1, 541776, Note_off_c, 0, 69, 76
1, 541776, Note_on_c, 0, 74, 76
1, 541800, Note_on_c, 0, 65, 76
1, 541800, Note_off_c, 0, 74, 76
1, 541824, Note_on_c, 0, 43, 76
1, 541824, Note_off_c, 0, 65, 76
1, 541848, Note_off_c, 0, 43, 76
1, 541848, Note_on_c, 0, 60, 76
1, 541872, Note_off_c, 0, 60, 76
1, 541872, Note_on_c, 0, 65, 76
1, 541896, Note_on_c, 0, 55, 76
1, 541896, Note_off_c, 0, 65, 76
1, 541920, Note_on_c, 0, 43, 76
1, 541920, Note_off_c, 0, 55, 76
1, 541944, Note_off_c, 0, 43, 76
1, 541944, Note_on_c, 0, 60, 76
1, 541968, Note_off_c, 0, 60, 76
1, 541968, Note_on_c, 0, 65, 76
1, 541992, Note_on_c, 0, 55, 76
1, 541992, Note_off_c, 0, 65, 76
1, 542016, Note_on_c, 0, 43, 76
1, 542016, Note_off_c, 0, 55, 76
1, 542040, Note_off_c, 0, 43, 76
1, 542040, Note_on_c, 0, 60, 76
1, 542064, Note_off_c, 0, 60, 76
1, 542064, Note_on_c, 0, 65, 76
1, 542088, Note_on_c, 0, 55, 76
1, 542088, Note_off_c, 0, 65, 76
1, 542112, Note_on_c, 0, 43, 76
1, 542112, Note_off_c, 0, 55, 76
1, 542136, Note_off_c, 0, 43, 76
1, 542136, Note_on_c, 0, 60, 76
1, 542160, Note_off_c, 0, 60, 76
1, 542160, Note_on_c, 0, 65, 76
1, 542184, Note_on_c, 0, 55, 76
1, 542184, Note_off_c, 0, 65, 76
1, 542208, Control_c, 0, 1, 0
1, 542208, Control_c, 0, 1, 40
1, 542208, Note_off_c, 0, 55, 76
1, 542208, Note_on_c, 0, 76, 44
1, 542256, Note_on_c, 0, 72, 40
1, 542256, Note_off_c, 0, 76, 44
1, 542304, Note_off_c, 0, 72, 40
1, 542304, Note_on_c, 0, 79, 41
1, 542400, Note_on_c, 0, 76, 42
1, 542400, Note_off_c, 0, 79, 41
1, 542448, Note_on_c, 0, 72, 39
1, 542448, Note_off_c, 0, 76, 42
1, 542496, Note_on_c, 0, 67, 40
1, 542496, Note_off_c, 0, 72, 39
1, 542592, Note_off_c, 0, 67, 40
1, 542592, Note_on_c, 0, 74, 43
1, 542640, Note_on_c, 0, 71, 40
1, 542640, Note_off_c, 0, 74, 43
1, 542688, Note_off_c, 0, 71, 40
1, 542688, Note_on_c, 0, 79, 42
1, 542784, Note_on_c, 0, 74, 42
1, 542784, Note_off_c, 0, 79, 42
1, 542832, Note_on_c, 0, 71, 40
1, 542832, Note_off_c, 0, 74, 42
1, 542880, Note_on_c, 0, 67, 40
1, 542880, Note_off_c, 0, 71, 40
1, 542976, Note_off_c, 0, 67, 40
1, 542976, Note_on_c, 0, 76, 43
1, 543024, Note_on_c, 0, 72, 40
1, 543024, Note_off_c, 0, 76, 43
1, 543072, Note_off_c, 0, 72, 40
1, 543072, Note_on_c, 0, 81, 41
1, 543168, Note_on_c, 0, 76, 43
1, 543168, Note_off_c, 0, 81, 41
1, 543216, Note_on_c, 0, 72, 40
1, 543216, Note_off_c, 0, 76, 43
1, 543264, Note_on_c, 0, 69, 39
1, 543264, Note_off_c, 0, 72, 40
1, 543360, Note_off_c, 0, 69, 39
1, 543360, Note_on_c, 0, 72, 45
1, 543408, Note_on_c, 0, 69, 40
1, 543408, Note_off_c, 0, 72, 45
1, 543456, Note_off_c, 0, 69, 40
1, 543456, Note_on_c, 0, 77, 42
1, 543552, Note_on_c, 0, 72, 42
1, 543552, Note_off_c, 0, 77, 42
1, 543600, Note_on_c, 0, 69, 39
1, 543600, Note_off_c, 0, 72, 42
1, 543648, Note_on_c, 0, 65, 39
1, 543648, Note_off_c, 0, 69, 39
1, 543744, Control_c, 0, 1, 40
1, 543744, Control_c, 0, 1, 70
1, 543744, Note_on_c, 0, 36, 79
1, 543744, Note_off_c, 0, 65, 39
1, 543744, Note_on_c, 0, 72, 74
1, 543936, Note_on_c, 0, 67, 73
1, 543936, Note_off_c, 0, 72, 74
1, 544032, Note_off_c, 0, 67, 73
1, 544032, Note_on_c, 0, 71, 68
1, 544080, Note_on_c, 0, 67, 69
1, 544080, Note_off_c, 0, 71, 68
1, 544128, Note_on_c, 0, 33, 73
1, 544128, Note_off_c, 0, 36, 79
1, 544128, Note_off_c, 0, 67, 69
1, 544128, Note_on_c, 0, 69, 72
1, 544315, Note_off_c, 0, 69, 72
1, 544320, Note_on_c, 0, 69, 70
1, 544512, Note_on_c, 0, 29, 72
1, 544512, Note_off_c, 0, 33, 73
1, 544512, Note_off_c, 0, 69, 70
1, 544512, Note_on_c, 0, 72, 77
1, 544704, Note_on_c, 0, 67, 71
1, 544704, Note_off_c, 0, 72, 77
1, 544800, Note_off_c, 0, 67, 71
1, 544800, Note_on_c, 0, 71, 69
1, 544848, Note_on_c, 0, 67, 65
1, 544848, Note_off_c, 0, 71, 69
1, 544896, Note_off_c, 0, 29, 72
1, 544896, Note_on_c, 0, 31, 72
1, 544896, Note_on_c, 0, 60, 78
1, 544896, Note_off_c, 0, 67, 65
1, 545088, Note_off_c, 0, 60, 78
1, 545088, Note_on_c, 0, 67, 71
1, 545280, Control_c, 0, 1, 70
1, 545280, Note_off_c, 0, 31, 72
1, 545280, Note_on_c, 0, 36, 72
1, 545280, Note_off_c, 0, 67, 71
1, 545280, Note_on_c, 0, 72, 105
1, 545376, Note_on_c, 0, 64, 101
1, 545376, Note_off_c, 0, 72, 105
1, 545424, Note_off_c, 0, 64, 101
1, 545424, Note_on_c, 0, 72, 96
1, 545448, Note_on_c, 0, 71, 96
1, 545448, Note_off_c, 0, 72, 96
1, 545472, Note_on_c, 0, 33, 73
1, 545472, Note_off_c, 0, 36, 72
1, 545472, Note_on_c, 0, 69, 109
1, 545472, Note_off_c, 0, 71, 96
1, 545568, Note_on_c, 0, 60, 106
1, 545568, Note_off_c, 0, 69, 109
1, 545664, Note_on_c, 0, 29, 74
1, 545664, Note_off_c, 0, 33, 73
1, 545664, Note_off_c, 0, 60, 106
1, 545664, Note_on_c, 0, 77, 107
1, 545712, Note_on_c, 0, 72, 104
1, 545712, Note_off_c, 0, 77, 107
1, 545736, Note_off_c, 0, 72, 104
1, 545736, Note_on_c, 0, 81, 96
1, 545760, Note_on_c, 0, 77, 102
1, 545760, Note_off_c, 0, 81, 96
1, 545856, Note_off_c, 0, 29, 74
1, 545856, Note_on_c, 0, 31, 72
1, 545856, Note_off_c, 0, 77, 102
1, 545856, Note_on_c, 0, 79, 112
1, 545949, Note_off_c, 0, 79, 112
1, 545952, Note_on_c, 0, 79, 104
1, 546048, Note_off_c, 0, 31, 72
1, 546048, Note_on_c, 0, 36, 76
1, 546048, Note_on_c, 0, 72, 110
1, 546048, Note_off_c, 0, 79, 104
1, 546144, Note_on_c, 0, 64, 100
1, 546144, Note_off_c, 0, 72, 110
1, 546192, Note_off_c, 0, 64, 100
1, 546192, Note_on_c, 0, 72, 94
1, 546216, Note_on_c, 0, 71, 95
1, 546216, Note_off_c, 0, 72, 94
1, 546240, Note_on_c, 0, 33, 76
1, 546240, Note_off_c, 0, 36, 76
1, 546240, Note_on_c, 0, 69, 112
1, 546240, Note_off_c, 0, 71, 95
1, 546336, Note_on_c, 0, 60, 101
1, 546336, Note_off_c, 0, 69, 112
1, 546432, Note_on_c, 0, 29, 77
1, 546432, Note_off_c, 0, 33, 76
1, 546432, Note_off_c, 0, 60, 101
1, 546432, Note_on_c, 0, 77, 112
1, 546480, Note_on_c, 0, 72, 101
1, 546480, Note_off_c, 0, 77, 112
1, 546504, Note_off_c, 0, 72, 101
1, 546504, Note_on_c, 0, 81, 99
1, 546528, Note_on_c, 0, 77, 100
1, 546528, Note_off_c, 0, 81, 99
1, 546624, Note_off_c, 0, 29, 77
1, 546624, Note_on_c, 0, 31, 79
1, 546624, Note_off_c, 0, 77, 100
1, 546624, Note_on_c, 0, 79, 113
1, 546717, Note_off_c, 0, 79, 113
1, 546720, Note_on_c, 0, 72, 99
1, 546813, Note_off_c, 0, 31, 79
1, 546816, Control_c, 0, 1, 70
1, 546816, Control_c, 0, 1, 40
1, 546816, Note_on_c, 0, 64, 42
1, 546816, Note_off_c, 0, 72, 99
1, 546840, Note_off_c, 0, 64, 42
1, 546840, Note_on_c, 0, 67, 38
1, 546864, Note_off_c, 0, 67, 38
1, 546864, Note_on_c, 0, 72, 40
1, 546888, Note_on_c, 0, 64, 39
1, 546888, Note_off_c, 0, 72, 40
1, 546912, Note_off_c, 0, 64, 39
1, 546912, Note_on_c, 0, 67, 41
1, 546936, Note_off_c, 0, 67, 41
1, 546936, Note_on_c, 0, 72, 40
1, 546960, Note_on_c, 0, 64, 39
1, 546960, Note_off_c, 0, 72, 40
1, 546984, Note_off_c, 0, 64, 39
1, 546984, Note_on_c, 0, 67, 38
1, 547008, Note_on_c, 0, 65, 42
1, 547008, Note_off_c, 0, 67, 38
1, 547032, Note_off_c, 0, 65, 42
1, 547032, Note_on_c, 0, 69, 38
1, 547056, Note_off_c, 0, 69, 38
1, 547056, Note_on_c, 0, 76, 40
1, 547080, Note_on_c, 0, 65, 38
1, 547080, Note_off_c, 0, 76, 40
1, 547104, Note_off_c, 0, 65, 38
1, 547104, Note_on_c, 0, 69, 42
1, 547128, Note_off_c, 0, 69, 42
1, 547128, Note_on_c, 0, 76, 40
1, 547152, Note_on_c, 0, 65, 39
1, 547152, Note_off_c, 0, 76, 40
1, 547176, Note_off_c, 0, 65, 39
1, 547176, Note_on_c, 0, 69, 38
1, 547200, Note_on_c, 0, 65, 44
1, 547200, Note_off_c, 0, 69, 38
1, 547224, Note_off_c, 0, 65, 44
1, 547224, Note_on_c, 0, 69, 40
1, 547248, Note_off_c, 0, 69, 40
1, 547248, Note_on_c, 0, 74, 41
1, 547272, Note_on_c, 0, 65, 38
1, 547272, Note_off_c, 0, 74, 41
1, 547296, Note_off_c, 0, 65, 38
1, 547296, Note_on_c, 0, 69, 41
1, 547320, Note_off_c, 0, 69, 41
1, 547320, Note_on_c, 0, 74, 38
1, 547344, Note_on_c, 0, 65, 39
1, 547344, Note_off_c, 0, 74, 38
1, 547368, Note_off_c, 0, 65, 39
1, 547368, Note_on_c, 0, 69, 39
1, 547392, Note_on_c, 0, 64, 42
1, 547392, Note_off_c, 0, 69, 39
1, 547416, Note_off_c, 0, 64, 42
1, 547416, Note_on_c, 0, 67, 40
1, 547440, Note_off_c, 0, 67, 40
1, 547440, Note_on_c, 0, 74, 42
1, 547464, Note_on_c, 0, 64, 38
1, 547464, Note_off_c, 0, 74, 42
1, 547488, Note_off_c, 0, 64, 38
1, 547488, Note_on_c, 0, 67, 43
1, 547512, Note_off_c, 0, 67, 43
1, 547512, Note_on_c, 0, 74, 38
1, 547536, Note_on_c, 0, 64, 40
1, 547536, Note_off_c, 0, 74, 38
1, 547560, Note_off_c, 0, 64, 40
1, 547560, Note_on_c, 0, 67, 39
1, 547584, Note_on_c, 0, 65, 42
1, 547584, Note_off_c, 0, 67, 39
1, 547608, Note_off_c, 0, 65, 42
1, 547608, Note_on_c, 0, 69, 40
1, 547632, Note_off_c, 0, 69, 40
1, 547632, Note_on_c, 0, 76, 41
1, 547656, Note_on_c, 0, 65, 39
1, 547656, Note_off_c, 0, 76, 41
1, 547680, Note_off_c, 0, 65, 39
1, 547680, Note_on_c, 0, 69, 42
1, 547704, Note_off_c, 0, 69, 42
1, 547704, Note_on_c, 0, 76, 40
1, 547728, Note_on_c, 0, 65, 40
1, 547728, Note_off_c, 0, 76, 40
1, 547752, Note_off_c, 0, 65, 40
1, 547752, Note_on_c, 0, 69, 40
1, 547776, Note_on_c, 0, 65, 42
1, 547776, Note_off_c, 0, 69, 40
1, 547800, Note_off_c, 0, 65, 42
1, 547800, Note_on_c, 0, 69, 39
1, 547824, Note_off_c, 0, 69, 39
1, 547824, Note_on_c, 0, 74, 42
1, 547848, Note_on_c, 0, 65, 39
1, 547848, Note_off_c, 0, 74, 42
1, 547872, Note_off_c, 0, 65, 39
1, 547872, Note_on_c, 0, 69, 41
1, 547896, Note_off_c, 0, 69, 41
1, 547896, Note_on_c, 0, 74, 40
1, 547920, Note_on_c, 0, 65, 38
1, 547920, Note_off_c, 0, 74, 40
1, 547944, Note_off_c, 0, 65, 38
1, 547944, Note_on_c, 0, 69, 40
1, 547968, Note_on_c, 0, 65, 44
1, 547968, Note_off_c, 0, 69, 40
1, 547992, Note_off_c, 0, 65, 44
1, 547992, Note_on_c, 0, 69, 39
1, 548016, Note_off_c, 0, 69, 39
1, 548016, Note_on_c, 0, 74, 41
1, 548040, Note_on_c, 0, 65, 40
1, 548040, Note_off_c, 0, 74, 41
1, 548064, Note_off_c, 0, 65, 40
1, 548064, Note_on_c, 0, 69, 42
1, 548088, Note_off_c, 0, 69, 42
1, 548088, Note_on_c, 0, 74, 40
1, 548112, Note_on_c, 0, 65, 39
1, 548112, Note_off_c, 0, 74, 40
1, 548136, Note_off_c, 0, 65, 39
1, 548136, Note_on_c, 0, 69, 38
1, 548160, Note_on_c, 0, 64, 45
1, 548160, Note_off_c, 0, 69, 38
1, 548184, Note_off_c, 0, 64, 45
1, 548184, Note_on_c, 0, 69, 40
1, 548208, Note_off_c, 0, 69, 40
1, 548208, Note_on_c, 0, 72, 42
1, 548232, Note_on_c, 0, 64, 40
1, 548232, Note_off_c, 0, 72, 42
1, 548256, Note_off_c, 0, 64, 40
1, 548256, Note_on_c, 0, 69, 41
1, 548280, Note_off_c, 0, 69, 41
1, 548280, Note_on_c, 0, 72, 40
1, 548304, Note_on_c, 0, 64, 39
1, 548304, Note_off_c, 0, 72, 40
1, 548328, Note_off_c, 0, 64, 39
1, 548328, Note_on_c, 0, 69, 39
1, 548349, Note_off_c, 0, 69, 39
1, 548352, Control_c, 0, 1, 40
1, 548352, Control_c, 0, 1, 70
1, 548352, Note_on_c, 0, 69, 76
1, 548400, Note_on_c, 0, 65, 72
1, 548400, Note_off_c, 0, 69, 76
1, 548448, Note_off_c, 0, 65, 72
1, 548448, Note_on_c, 0, 72, 72
1, 548496, Note_on_c, 0, 65, 67
1, 548496, Note_off_c, 0, 72, 72
1, 548544, Note_off_c, 0, 65, 67
1, 548544, Note_on_c, 0, 76, 72
1, 548637, Note_off_c, 0, 76, 72
1, 548640, Note_on_c, 0, 76, 69
1, 548736, Note_on_c, 0, 69, 72
1, 548736, Note_off_c, 0, 76, 69
1, 548784, Note_on_c, 0, 65, 72
1, 548784, Note_off_c, 0, 69, 72
1, 548832, Note_off_c, 0, 65, 72
1, 548832, Note_on_c, 0, 72, 72
1, 548880, Note_on_c, 0, 65, 66
1, 548880, Note_off_c, 0, 72, 72
1, 548925, Note_off_c, 0, 65, 66
1, 548928, Note_on_c, 0, 65, 77
1, 549024, Note_on_c, 0, 62, 72
1, 549024, Note_off_c, 0, 65, 77
1, 549120, Note_off_c, 0, 62, 72
1, 549120, Note_on_c, 0, 69, 73
1, 549168, Note_on_c, 0, 65, 70
1, 549168, Note_off_c, 0, 69, 73
1, 549216, Note_off_c, 0, 65, 70
1, 549216, Note_on_c, 0, 72, 71
1, 549264, Note_on_c, 0, 65, 69
1, 549264, Note_off_c, 0, 72, 71
1, 549312, Note_off_c, 0, 65, 69
1, 549312, Note_on_c, 0, 76, 76
1, 549405, Note_off_c, 0, 76, 76
1, 549408, Note_on_c, 0, 76, 70
1, 549504, Note_on_c, 0, 69, 76
1, 549504, Note_off_c, 0, 76, 70
1, 549552, Note_on_c, 0, 65, 69
1, 549552, Note_off_c, 0, 69, 76
1, 549600, Note_off_c, 0, 65, 69
1, 549600, Note_on_c, 0, 72, 72
1, 549648, Note_on_c, 0, 65, 68
1, 549648, Note_off_c, 0, 72, 72
1, 549693, Note_off_c, 0, 65, 68
1, 549696, Note_on_c, 0, 65, 73
1, 549792, Note_on_c, 0, 62, 72
1, 549792, Note_off_c, 0, 65, 73
1, 549885, Note_off_c, 0, 62, 72
1, 549888, Control_c, 0, 1, 70
1, 549888, Control_c, 0, 1, 100
1, 549888, Note_on_c, 0, 81, 104
1, 549984, Note_on_c, 0, 77, 100
1, 549984, Note_off_c, 0, 81, 104
1, 550032, Note_off_c, 0, 77, 100
1, 550032, Note_on_c, 0, 79, 94
1, 550056, Note_on_c, 0, 77, 99
1, 550056, Note_off_c, 0, 79, 94
1, 550080, Note_off_c, 0, 77, 99
1, 550080, Note_on_c, 0, 86, 104
1, 550272, Note_on_c, 0, 83, 106
1, 550272, Note_off_c, 0, 86, 104
1, 550320, Note_on_c, 0, 81, 98
1, 550320, Note_off_c, 0, 83, 106
1, 550344, Note_on_c, 0, 79, 98
1, 550344, Note_off_c, 0, 81, 98
1, 550368, Note_off_c, 0, 79, 98
1, 550368, Note_on_c, 0, 88, 101
1, 550464, Note_on_c, 0, 81, 106
1, 550464, Note_off_c, 0, 88, 101
1, 550560, Note_on_c, 0, 72, 104
1, 550560, Note_off_c, 0, 81, 106
1, 550656, Note_off_c, 0, 72, 104
1, 550656, Note_on_c, 0, 81, 107
1, 550752, Note_on_c, 0, 77, 106
1, 550752, Note_off_c, 0, 81, 107
1, 550800, Note_off_c, 0, 77, 106
1, 550800, Note_on_c, 0, 79, 96
1, 550824, Note_on_c, 0, 77, 98
1, 550824, Note_off_c, 0, 79, 96
1, 550848, Note_off_c, 0, 77, 98
1, 550848, Note_on_c, 0, 86, 108
1, 551040, Note_on_c, 0, 83, 103
1, 551040, Note_off_c, 0, 86, 108
1, 551088, Note_on_c, 0, 81, 102
1, 551088, Note_off_c, 0, 83, 103
1, 551112, Note_on_c, 0, 79, 96
1, 551112, Note_off_c, 0, 81, 102
1, 551136, Note_off_c, 0, 79, 96
1, 551136, Note_on_c, 0, 88, 105
1, 551232, Note_on_c, 0, 81, 104
1, 551232, Note_off_c, 0, 88, 105
1, 551328, Note_on_c, 0, 72, 101
1, 551328, Note_off_c, 0, 81, 104
1, 551421, Note_off_c, 0, 72, 101
1, 551424, Channel_aftertouch_c, 0, 0
1, 551424, Control_c, 0, 1, 100
1, 551424, Control_c, 0, 1, 0
1, 551424, Note_on_c, 0, 45, 78
1, 551448, Note_off_c, 0, 45, 78
1, 551448, Note_on_c, 0, 57, 82
1, 551472, Note_off_c, 0, 57, 82
1, 551472, Note_on_c, 0, 69, 71
1, 551495, Note_off_c, 0, 69, 71
1, 551495, Note_on_c, 0, 72, 77
1, 551520, Note_on_c, 0, 45, 78
1, 551520, Note_off_c, 0, 72, 77
1, 551544, Note_off_c, 0, 45, 78
1, 551544, Note_on_c, 0, 57, 82
1, 551568, Note_off_c, 0, 57, 82
1, 551568, Note_on_c, 0, 69, 71
1, 551592, Note_off_c, 0, 69, 71
1, 551592, Note_on_c, 0, 76, 80
1, 551616, Note_on_c, 0, 45, 78
1, 551616, Note_off_c, 0, 76, 80
1, 551640, Note_off_c, 0, 45, 78
1, 551640, Note_on_c, 0, 57, 82
1, 551664, Note_off_c, 0, 57, 82
1, 551664, Note_on_c, 0, 69, 71
1, 551688, Note_off_c, 0, 69, 71
1, 551688, Note_on_c, 0, 72, 77
1, 551712, Note_on_c, 0, 45, 78
1, 551712, Note_off_c, 0, 72, 77
1, 551736, Note_off_c, 0, 45, 78
1, 551736, Note_on_c, 0, 57, 82
1, 551760, Note_off_c, 0, 57, 82
1, 551760, Note_on_c, 0, 69, 71
1, 551784, Note_off_c, 0, 69, 71
1, 551784, Note_on_c, 0, 76, 80
1, 551808, Note_off_c, 0, 76, 80
1, 551809, Note_on_c, 0, 81, 71
1, 551831, Note_on_c, 0, 77, 66
1, 551832, Note_off_c, 0, 81, 71
1, 551855, Note_off_c, 0, 77, 66
1, 551856, Note_on_c, 0, 72, 69
1, 551879, Note_on_c, 0, 48, 67
1, 551879, Note_off_c, 0, 72, 69
1, 551903, Note_off_c, 0, 48, 67
1, 551904, Note_on_c, 0, 81, 71
1, 551926, Note_on_c, 0, 77, 66
1, 551926, Note_off_c, 0, 81, 71
1, 551950, Note_on_c, 0, 72, 69
1, 551950, Note_off_c, 0, 77, 66
1, 551974, Note_off_c, 0, 72, 69
1, 551976, Note_on_c, 0, 60, 70
1, 552000, Note_off_c, 0, 60, 70
1, 552001, Note_on_c, 0, 81, 71
1, 552024, Note_on_c, 0, 77, 66
1, 552024, Note_off_c, 0, 81, 71
1, 552048, Note_on_c, 0, 72, 69
1, 552048, Note_off_c, 0, 77, 66
1, 552071, Note_off_c, 0, 72, 69
1, 552072, Note_on_c, 0, 48, 67
1, 552096, Note_off_c, 0, 48, 67
1, 552096, Note_on_c, 0, 81, 71
1, 552118, Note_on_c, 0, 77, 66
1, 552118, Note_off_c, 0, 81, 71
1, 552142, Note_on_c, 0, 72, 69
1, 552142, Note_off_c, 0, 77, 66
1, 552166, Note_off_c, 0, 72, 69
1, 552168, Note_on_c, 0, 60, 70
1, 552192, Note_off_c, 0, 60, 70
1, 552194, Note_on_c, 0, 40, 61
1, 552216, Note_off_c, 0, 40, 61
1, 552216, Note_on_c, 0, 52, 62
1, 552240, Note_off_c, 0, 52, 62
1, 552240, Note_on_c, 0, 67, 58
1, 552263, Note_off_c, 0, 67, 58
1, 552264, Note_on_c, 0, 71, 67
1, 552287, Note_off_c, 0, 71, 67
1, 552290, Note_on_c, 0, 40, 61
1, 552312, Note_off_c, 0, 40, 61
1, 552312, Note_on_c, 0, 52, 62
1, 552336, Note_off_c, 0, 52, 62
1, 552336, Note_on_c, 0, 67, 58
1, 552359, Note_off_c, 0, 67, 58
1, 552359, Note_on_c, 0, 74, 71
1, 552384, Note_off_c, 0, 74, 71
1, 552386, Note_on_c, 0, 40, 61
1, 552408, Note_off_c, 0, 40, 61
1, 552408, Note_on_c, 0, 52, 62
1, 552432, Note_off_c, 0, 52, 62
1, 552432, Note_on_c, 0, 67, 58
1, 552455, Note_off_c, 0, 67, 58
1, 552456, Note_on_c, 0, 71, 67
1, 552480, Note_off_c, 0, 71, 67
1, 552482, Note_on_c, 0, 40, 61
1, 552504, Note_off_c, 0, 40, 61
1, 552504, Note_on_c, 0, 52, 62
1, 552528, Note_off_c, 0, 52, 62
1, 552528, Note_on_c, 0, 67, 58
1, 552551, Note_off_c, 0, 67, 58
1, 552552, Note_on_c, 0, 74, 71
1, 552576, Note_off_c, 0, 74, 71
1, 552576, Note_on_c, 0, 81, 72
1, 552599, Note_on_c, 0, 76, 68
1, 552599, Note_off_c, 0, 81, 72
1, 552623, Note_on_c, 0, 72, 64
1, 552624, Note_off_c, 0, 76, 68
1, 552648, Note_on_c, 0, 57, 62
1, 552648, Note_off_c, 0, 72, 64
1, 552672, Note_off_c, 0, 57, 62
1, 552672, Note_on_c, 0, 81, 72
1, 552696, Note_on_c, 0, 76, 68
1, 552696, Note_off_c, 0, 81, 72
1, 552720, Note_on_c, 0, 72, 64
1, 552720, Note_off_c, 0, 76, 68
1, 552744, Note_on_c, 0, 45, 62
1, 552744, Note_off_c, 0, 72, 64
1, 552768, Note_off_c, 0, 45, 62
1, 552768, Note_on_c, 0, 81, 72
1, 552792, Note_on_c, 0, 76, 68
1, 552792, Note_off_c, 0, 81, 72
1, 552816, Note_on_c, 0, 72, 64
1, 552816, Note_off_c, 0, 76, 68
1, 552840, Note_on_c, 0, 57, 62
1, 552840, Note_off_c, 0, 72, 64
1, 552864, Note_off_c, 0, 57, 62
1, 552864, Note_on_c, 0, 81, 72
1, 552888, Note_on_c, 0, 76, 68
1, 552888, Note_off_c, 0, 81, 72
1, 552912, Note_on_c, 0, 72, 64
1, 552912, Note_off_c, 0, 76, 68
1, 552936, Note_on_c, 0, 45, 62
1, 552936, Note_off_c, 0, 72, 64
1, 552960, Channel_aftertouch_c, 0, 0
1, 552960, Note_off_c, 0, 45, 62
1, 552960, Note_on_c, 0, 45, 78
1, 553008, Note_on_c, 0, 57, 82
1, 553056, Note_on_c, 0, 69, 71
1, 553103, Note_on_c, 0, 72, 77
1, 553200, Note_on_c, 0, 76, 80
1, 553230, Note_off_c, 0, 57, 82
1, 553233, Note_off_c, 0, 45, 78
1, 553243, Note_off_c, 0, 69, 71
1, 553250, Note_off_c, 0, 72, 77
1, 553319, Note_off_c, 0, 76, 80
1, 553345, Note_on_c, 0, 81, 71
1, 553391, Note_on_c, 0, 77, 66
1, 553392, Note_off_c, 0, 81, 71
1, 553439, Note_off_c, 0, 77, 66
1, 553440, Note_on_c, 0, 72, 69
1, 553487, Note_on_c, 0, 60, 70
1, 553535, Note_on_c, 0, 48, 67
1, 553652, Note_off_c, 0, 72, 69
1, 553662, Note_off_c, 0, 48, 67
1, 553665, Note_off_c, 0, 60, 70
1, 553730, Note_on_c, 0, 40, 61
1, 553776, Note_on_c, 0, 52, 62
1, 553824, Note_on_c, 0, 67, 58
1, 553872, Note_on_c, 0, 71, 67
1, 553919, Note_off_c, 0, 67, 58
1, 553919, Note_off_c, 0, 71, 67
1, 553919, Note_on_c, 0, 74, 71
1, 554000, Note_off_c, 0, 40, 61
1, 554001, Note_off_c, 0, 52, 62
1, 554016, Note_on_c, 0, 69, 67
1, 554030, Note_off_c, 0, 74, 71
1, 554064, Note_off_c, 0, 69, 67
1, 554112, Note_on_c, 0, 81, 72
1, 554159, Note_on_c, 0, 76, 68
1, 554195, Note_off_c, 0, 81, 72
1, 554207, Note_on_c, 0, 72, 64
1, 554241, Note_off_c, 0, 76, 68
1, 554256, Note_on_c, 0, 57, 62
1, 554303, Note_on_c, 0, 45, 64
1, 554343, Note_off_c, 0, 72, 64
1, 554415, Note_off_c, 0, 57, 62
1, 554463, Note_off_c, 0, 45, 64
1, 554496, Note_on_c, 0, 33, 44
1, 554544, Note_on_c, 0, 45, 41
1, 554568, Note_on_c, 0, 52, 29
1, 554570, Note_off_c, 0, 45, 41
1, 554599, Note_off_c, 0, 52, 29
1, 554616, Note_on_c, 0, 60, 42
1, 554640, Note_off_c, 0, 33, 44
1, 554640, Note_on_c, 0, 69, 42
1, 554640, Note_off_c, 0, 60, 42
1, 554673, Note_off_c, 0, 69, 42
1, 554688, Note_on_c, 0, 72, 40
1, 554712, Note_on_c, 0, 65, 41
1, 554736, Note_on_c, 0, 60, 30
1, 554760, Note_on_c, 0, 53, 44
1, 554773, Note_off_c, 0, 72, 40
1, 554783, Note_off_c, 0, 60, 30
1, 554797, Note_off_c, 0, 65, 41
1, 554808, Note_on_c, 0, 41, 51
1, 554811, Note_off_c, 0, 53, 44
1, 554877, Note_off_c, 0, 41, 51
1, 554880, Note_on_c, 0, 29, 56
1, 554928, Note_on_c, 0, 41, 41
1, 554951, Note_off_c, 0, 29, 56
1, 554952, Note_on_c, 0, 53, 36
1, 554976, Note_on_c, 0, 62, 42
1, 554993, Note_off_c, 0, 41, 41
1, 555002, Note_off_c, 0, 53, 36
1, 555024, Note_off_c, 0, 62, 42
1, 555024, Note_on_c, 0, 69, 41
1, 555060, Note_off_c, 0, 69, 41
1, 555072, Note_on_c, 0, 38, 35
1, 555072, Note_on_c, 0, 72, 44
1, 555172, Note_off_c, 0, 72, 44
1, 555262, Note_off_c, 0, 38, 35
1, 555264, Note_on_c, 0, 40, 43
1, 555312, Note_on_c, 0, 52, 46
1, 555336, Note_on_c, 0, 59, 35
1, 555343, Note_off_c, 0, 52, 46
1, 555384, Note_on_c, 0, 67, 35
1, 555385, Note_off_c, 0, 59, 35
1, 555408, Note_off_c, 0, 67, 35
1, 555408, Note_on_c, 0, 76, 39
1, 555455, Note_off_c, 0, 40, 43
1, 555455, Note_off_c, 0, 76, 39
1, 555456, Note_on_c, 0, 74, 40
1, 555480, Note_on_c, 0, 67, 43
1, 555504, Note_on_c, 0, 62, 30
1, 555504, Note_off_c, 0, 74, 40
1, 555545, Note_off_c, 0, 62, 30
1, 555552, Note_on_c, 0, 55, 47
1, 555554, Note_off_c, 0, 67, 43
1, 555576, Note_on_c, 0, 43, 55
1, 555588, Note_off_c, 0, 55, 47
1, 555644, Note_off_c, 0, 43, 55
1, 555648, Note_on_c, 0, 31, 57
1, 555648, Note_on_c, 0, 72, 36
1, 555770, Note_off_c, 0, 72, 36
1, 555839, Note_off_c, 0, 31, 57
1, 555840, Note_on_c, 0, 31, 50
1, 555840, Note_on_c, 0, 67, 40
1, 555920, Note_off_c, 0, 67, 40
1, 556030, Note_off_c, 0, 31, 50
1, 556032, Control_c, 0, 1, 0
1, 556032, Control_c, 0, 1, 70
1, 556032, Note_on_c, 0, 77, 78
1, 556056, Note_off_c, 0, 77, 78
1, 556056, Note_on_c, 0, 84, 66
1, 556080, Note_on_c, 0, 81, 71
1, 556080, Note_off_c, 0, 84, 66
1, 556104, Note_on_c, 0, 77, 67
1, 556104, Note_off_c, 0, 81, 71
1, 556128, Note_off_c, 0, 77, 67
1, 556128, Note_on_c, 0, 84, 73
1, 556152, Note_on_c, 0, 81, 64
1, 556152, Note_off_c, 0, 84, 73
1, 556176, Note_on_c, 0, 77, 66
1, 556176, Note_off_c, 0, 81, 64
1, 556200, Note_off_c, 0, 77, 66
1, 556200, Note_on_c, 0, 84, 64
1, 556224, Note_on_c, 0, 74, 78
1, 556224, Note_off_c, 0, 84, 64
1, 556248, Note_off_c, 0, 74, 78
1, 556248, Note_on_c, 0, 84, 65
1, 556272, Note_on_c, 0, 81, 70
1, 556272, Note_off_c, 0, 84, 65
1, 556296, Note_on_c, 0, 74, 64
1, 556296, Note_off_c, 0, 81, 70
1, 556320, Note_off_c, 0, 74, 64
1, 556320, Note_on_c, 0, 84, 70
1, 556344, Note_on_c, 0, 81, 65
1, 556344, Note_off_c, 0, 84, 70
1, 556368, Note_on_c, 0, 74, 66
1, 556368, Note_off_c, 0, 81, 65
1, 556392, Note_off_c, 0, 74, 66
1, 556392, Note_on_c, 0, 84, 66
1, 556416, Note_on_c, 0, 74, 73
1, 556416, Note_off_c, 0, 84, 66
1, 556440, Note_off_c, 0, 74, 73
1, 556440, Note_on_c, 0, 81, 64
1, 556464, Note_on_c, 0, 79, 69
1, 556464, Note_off_c, 0, 81, 64
1, 556488, Note_on_c, 0, 74, 68
1, 556488, Note_off_c, 0, 79, 69
1, 556512, Note_off_c, 0, 74, 68
1, 556512, Note_on_c, 0, 81, 69
1, 556536, Note_on_c, 0, 79, 66
1, 556536, Note_off_c, 0, 81, 69
1, 556560, Note_on_c, 0, 74, 64
1, 556560, Note_off_c, 0, 79, 66
1, 556584, Note_off_c, 0, 74, 64
1, 556584, Note_on_c, 0, 81, 66
1, 556608, Note_on_c, 0, 74, 73
1, 556608, Note_off_c, 0, 81, 66
1, 556632, Note_off_c, 0, 74, 73
1, 556632, Note_on_c, 0, 84, 66
1, 556656, Note_on_c, 0, 79, 67
1, 556656, Note_off_c, 0, 84, 66
1, 556680, Note_on_c, 0, 74, 66
1, 556680, Note_off_c, 0, 79, 67
1, 556704, Note_off_c, 0, 74, 66
1, 556704, Note_on_c, 0, 84, 68
1, 556728, Note_on_c, 0, 79, 64
1, 556728, Note_off_c, 0, 84, 68
1, 556752, Note_on_c, 0, 74, 66
1, 556752, Note_off_c, 0, 79, 64
1, 556776, Note_off_c, 0, 74, 66
1, 556776, Note_on_c, 0, 84, 65
1, 556800, Note_on_c, 0, 76, 78
1, 556800, Note_off_c, 0, 84, 65
1, 556824, Note_off_c, 0, 76, 78
1, 556824, Note_on_c, 0, 84, 67
1, 556848, Note_on_c, 0, 81, 68
1, 556848, Note_off_c, 0, 84, 67
1, 556872, Note_on_c, 0, 76, 64
1, 556872, Note_off_c, 0, 81, 68
1, 556896, Note_off_c, 0, 76, 64
1, 556896, Note_on_c, 0, 84, 70
1, 556920, Note_on_c, 0, 81, 68
1, 556920, Note_off_c, 0, 84, 70
1, 556944, Note_on_c, 0, 76, 66
1, 556944, Note_off_c, 0, 81, 68
1, 556968, Note_off_c, 0, 76, 66
1, 556968, Note_on_c, 0, 84, 66
1, 556992, Note_on_c, 0, 74, 76
1, 556992, Note_off_c, 0, 84, 66
1, 557016, Note_off_c, 0, 74, 76
1, 557016, Note_on_c, 0, 84, 66
1, 557040, Note_on_c, 0, 81, 67
1, 557040, Note_off_c, 0, 84, 66
1, 557064, Note_on_c, 0, 74, 65
1, 557064, Note_off_c, 0, 81, 67
1, 557088, Note_off_c, 0, 74, 65
1, 557088, Note_on_c, 0, 84, 71
1, 557112, Note_on_c, 0, 81, 64
1, 557112, Note_off_c, 0, 84, 71
1, 557136, Note_on_c, 0, 74, 66
1, 557136, Note_off_c, 0, 81, 64
1, 557160, Note_off_c, 0, 74, 66
1, 557160, Note_on_c, 0, 84, 64
1, 557184, Note_on_c, 0, 74, 71
1, 557184, Note_off_c, 0, 84, 64
1, 557208, Note_off_c, 0, 74, 71
1, 557208, Note_on_c, 0, 81, 68
1, 557232, Note_on_c, 0, 79, 68
1, 557232, Note_off_c, 0, 81, 68
1, 557256, Note_on_c, 0, 74, 67
1, 557256, Note_off_c, 0, 79, 68
1, 557280, Note_off_c, 0, 74, 67
1, 557280, Note_on_c, 0, 81, 72
1, 557304, Note_on_c, 0, 79, 68
1, 557304, Note_off_c, 0, 81, 72
1, 557328, Note_on_c, 0, 74, 68
1, 557328, Note_off_c, 0, 79, 68
1, 557352, Note_off_c, 0, 74, 68
1, 557352, Note_on_c, 0, 81, 66
1, 557376, Note_on_c, 0, 74, 73
1, 557376, Note_off_c, 0, 81, 66
1, 557400, Note_off_c, 0, 74, 73
1, 557400, Note_on_c, 0, 86, 64
1, 557424, Note_on_c, 0, 79, 69
1, 557424, Note_off_c, 0, 86, 64
1, 557448, Note_on_c, 0, 74, 64
1, 557448, Note_off_c, 0, 79, 69
1, 557472, Note_off_c, 0, 74, 64
1, 557472, Note_on_c, 0, 86, 70
1, 557496, Note_on_c, 0, 79, 66
1, 557496, Note_off_c, 0, 86, 70
1, 557520, Note_on_c, 0, 74, 68
1, 557520, Note_off_c, 0, 79, 66
1, 557544, Note_off_c, 0, 74, 68
1, 557544, Note_on_c, 0, 86, 64
1, 557565, Note_off_c, 0, 86, 64
1, 557568, Control_c, 0, 1, 70
1, 557568, Note_on_c, 0, 77, 74
1, 557599, Note_off_c, 0, 77, 74
1, 557599, Note_on_c, 0, 84, 65
1, 557632, Note_on_c, 0, 79, 64
1, 557632, Note_off_c, 0, 84, 65
1, 557664, Note_off_c, 0, 79, 64
1, 557664, Note_on_c, 0, 89, 68
1, 557695, Note_on_c, 0, 77, 66
1, 557695, Note_off_c, 0, 89, 68
1, 557728, Note_off_c, 0, 77, 66
1, 557728, Note_on_c, 0, 84, 66
1, 557760, Note_on_c, 0, 74, 72
1, 557760, Note_off_c, 0, 84, 66
1, 557791, Note_off_c, 0, 74, 72
1, 557791, Note_on_c, 0, 84, 65
1, 557823, Note_off_c, 0, 84, 65
1, 557824, Note_on_c, 0, 79, 66
1, 557856, Note_off_c, 0, 79, 66
1, 557856, Note_on_c, 0, 86, 71
1, 557887, Note_on_c, 0, 74, 67
1, 557887, Note_off_c, 0, 86, 71
1, 557920, Note_off_c, 0, 74, 67
1, 557920, Note_on_c, 0, 84, 64
1, 557952, Note_on_c, 0, 74, 77
1, 557952, Note_off_c, 0, 84, 64
1, 557983, Note_off_c, 0, 74, 77
1, 557983, Note_on_c, 0, 81, 64
1, 558015, Note_on_c, 0, 79, 65
1, 558016, Note_off_c, 0, 81, 64
1, 558047, Note_off_c, 0, 79, 65
1, 558048, Note_on_c, 0, 86, 72
1, 558079, Note_on_c, 0, 74, 67
1, 558079, Note_off_c, 0, 86, 72
1, 558112, Note_off_c, 0, 74, 67
1, 558112, Note_on_c, 0, 81, 68
1, 558144, Note_on_c, 0, 74, 76
1, 558144, Note_off_c, 0, 81, 68
1, 558175, Note_off_c, 0, 74, 76
1, 558175, Note_on_c, 0, 84, 65
1, 558207, Note_on_c, 0, 79, 65
1, 558208, Note_off_c, 0, 84, 65
1, 558239, Note_off_c, 0, 79, 65
1, 558240, Note_on_c, 0, 86, 73
1, 558271, Note_on_c, 0, 74, 66
1, 558271, Note_off_c, 0, 86, 73
1, 558304, Note_off_c, 0, 74, 66
1, 558304, Note_on_c, 0, 84, 64
1, 558336, Note_on_c, 0, 77, 74
1, 558336, Note_off_c, 0, 84, 64
1, 558367, Note_off_c, 0, 77, 74
1, 558367, Note_on_c, 0, 84, 66
1, 558399, Note_off_c, 0, 84, 66
1, 558400, Note_on_c, 0, 79, 64
1, 558432, Note_off_c, 0, 79, 64
1, 558432, Note_on_c, 0, 89, 71
1, 558463, Note_on_c, 0, 77, 64
1, 558463, Note_off_c, 0, 89, 71
1, 558495, Note_off_c, 0, 77, 64
1, 558496, Note_on_c, 0, 84, 65
1, 558528, Note_on_c, 0, 74, 75
1, 558528, Note_off_c, 0, 84, 65
1, 558559, Note_off_c, 0, 74, 75
1, 558559, Note_on_c, 0, 84, 64
1, 558591, Note_off_c, 0, 84, 64
1, 558592, Note_on_c, 0, 79, 68
1, 558624, Note_off_c, 0, 79, 68
1, 558624, Note_on_c, 0, 86, 71
1, 558655, Note_on_c, 0, 74, 68
1, 558655, Note_off_c, 0, 86, 71
1, 558687, Note_off_c, 0, 74, 68
1, 558688, Note_on_c, 0, 84, 67
1, 558720, Note_on_c, 0, 74, 77
1, 558720, Note_off_c, 0, 84, 67
1, 558751, Note_off_c, 0, 74, 77
1, 558751, Note_on_c, 0, 81, 68
1, 558783, Note_off_c, 0, 81, 68
1, 558784, Note_on_c, 0, 79, 66
1, 558816, Note_off_c, 0, 79, 66
1, 558816, Note_on_c, 0, 86, 72
1, 558847, Note_on_c, 0, 74, 66
1, 558847, Note_off_c, 0, 86, 72
1, 558879, Note_off_c, 0, 74, 66
1, 558880, Note_on_c, 0, 81, 64
1, 558912, Note_on_c, 0, 74, 77
1, 558912, Note_off_c, 0, 81, 64
1, 558943, Note_off_c, 0, 74, 77
1, 558943, Note_on_c, 0, 84, 66
1, 558975, Note_off_c, 0, 84, 66
1, 558976, Note_on_c, 0, 79, 66
1, 559008, Note_off_c, 0, 79, 66
1, 559008, Note_on_c, 0, 86, 71
1, 559039, Note_on_c, 0, 74, 67
1, 559039, Note_off_c, 0, 86, 71
1, 559071, Note_off_c, 0, 74, 67
1, 559072, Note_on_c, 0, 84, 65
1, 559101, Note_off_c, 0, 84, 65
1, 559104, Control_c, 0, 1, 70
1, 559104, Control_c, 0, 1, 100
1, 559104, Note_on_c, 0, 53, 78
1, 559104, Note_on_c, 0, 81, 108
1, 559152, Note_on_c, 0, 79, 97
1, 559152, Note_off_c, 0, 81, 108
1, 559176, Note_off_c, 0, 79, 97
1, 559176, Note_on_c, 0, 81, 93
1, 559200, Note_off_c, 0, 81, 93
1, 559200, Note_on_c, 0, 84, 104
1, 559296, Note_off_c, 0, 53, 78
1, 559296, Note_on_c, 0, 57, 77
1, 559296, Note_off_c, 0, 84, 104
1, 559296, Note_on_c, 0, 88, 106
1, 559389, Note_off_c, 0, 88, 106
1, 559392, Note_on_c, 0, 88, 100
1, 559488, Note_on_c, 0, 55, 75
1, 559488, Note_off_c, 0, 57, 77
1, 559488, Note_off_c, 0, 88, 100
1, 559488, Note_on_c, 0, 91, 105
1, 559536, Note_off_c, 0, 91, 105
1, 559536, Note_on_c, 0, 95, 103
1, 559584, Note_on_c, 0, 86, 100
1, 559584, Note_off_c, 0, 95, 103
1, 559632, Note_off_c, 0, 86, 100
1, 559632, Note_on_c, 0, 95, 94
1, 559680, Note_on_c, 0, 48, 75
1, 559680, Note_off_c, 0, 55, 75
1, 559680, Note_on_c, 0, 91, 110
1, 559680, Note_off_c, 0, 95, 94
1, 559776, Note_off_c, 0, 91, 110
1, 559776, Note_on_c, 0, 96, 102
1, 559872, Note_off_c, 0, 48, 75
1, 559872, Note_on_c, 0, 53, 72
1, 559872, Note_on_c, 0, 81, 108
1, 559872, Note_off_c, 0, 96, 102
1, 559920, Note_on_c, 0, 79, 103
1, 559920, Note_off_c, 0, 81, 108
1, 559944, Note_off_c, 0, 79, 103
1, 559944, Note_on_c, 0, 81, 98
1, 559968, Note_off_c, 0, 81, 98
1, 559968, Note_on_c, 0, 84, 101
1, 560064, Note_off_c, 0, 53, 72
1, 560064, Note_on_c, 0, 57, 73
1, 560064, Note_off_c, 0, 84, 101
1, 560064, Note_on_c, 0, 88, 108
1, 560157, Note_off_c, 0, 88, 108
1, 560160, Note_on_c, 0, 88, 99
1, 560256, Note_on_c, 0, 55, 77
1, 560256, Note_off_c, 0, 57, 73
1, 560256, Note_off_c, 0, 88, 99
1, 560256, Note_on_c, 0, 91, 110
1, 560304, Note_off_c, 0, 91, 110
1, 560304, Note_on_c, 0, 95, 103
1, 560352, Note_on_c, 0, 86, 100
1, 560352, Note_off_c, 0, 95, 103
1, 560400, Note_off_c, 0, 86, 100
1, 560400, Note_on_c, 0, 95, 93
1, 560448, Note_on_c, 0, 48, 75
1, 560448, Note_off_c, 0, 55, 77
1, 560448, Note_on_c, 0, 91, 102
1, 560448, Note_off_c, 0, 95, 93
1, 560544, Note_off_c, 0, 91, 102
1, 560544, Note_on_c, 0, 96, 103
1, 560630, Control_c, 0, 1, 100
1, 560630, Control_c, 0, 1, 70
1, 560637, Note_off_c, 0, 48, 75
1, 560637, Note_off_c, 0, 96, 103
1, 560640, Control_c, 0, 1, 70
1, 560640, Control_c, 0, 1, 0
1, 560640, Note_on_c, 0, 71, 90
1, 560686, Note_off_c, 0, 71, 90
1, 560688, Note_on_c, 0, 74, 75
1, 560712, Note_off_c, 0, 74, 75
1, 560736, Note_on_c, 0, 76, 105
1, 560750, Note_off_c, 0, 76, 105
1, 560784, Note_on_c, 0, 71, 84
1, 560949, Note_off_c, 0, 71, 84
1, 561024, Note_on_c, 0, 71, 85
1, 561068, Note_off_c, 0, 71, 85
1, 561072, Note_on_c, 0, 74, 62
1, 561096, Note_off_c, 0, 74, 62
1, 561120, Note_on_c, 0, 76, 99
1, 561135, Note_off_c, 0, 76, 99
1, 561168, Note_on_c, 0, 71, 67
1, 561280, Note_off_c, 0, 71, 67
1, 561408, Note_on_c, 0, 72, 100
1, 561454, Note_off_c, 0, 72, 100
1, 561456, Note_on_c, 0, 71, 64
1, 561497, Note_off_c, 0, 71, 64
1, 561504, Note_on_c, 0, 67, 89
1, 561520, Note_off_c, 0, 67, 89
1, 561552, Note_on_c, 0, 67, 68
1, 561691, Note_off_c, 0, 67, 68
1, 561792, Note_on_c, 0, 72, 102
1, 561832, Note_off_c, 0, 72, 102
1, 561840, Note_on_c, 0, 71, 62
1, 561865, Note_off_c, 0, 71, 62
1, 561888, Note_on_c, 0, 67, 80
1, 561902, Note_off_c, 0, 67, 80
1, 561936, Note_on_c, 0, 67, 71
1, 562008, Note_off_c, 0, 67, 71
1, 562176, Note_on_c, 0, 36, 100
1, 562224, Note_off_c, 0, 36, 100
1, 562272, Note_on_c, 0, 45, 64
1, 562368, Note_off_c, 0, 45, 64
1, 562416, Note_on_c, 0, 55, 88
1, 562512, Note_on_c, 0, 53, 64
1, 562512, Note_off_c, 0, 55, 88
1, 562560, Note_on_c, 0, 36, 100
1, 562560, Note_off_c, 0, 53, 64
1, 562608, Note_off_c, 0, 36, 100
1, 562608, Note_on_c, 0, 45, 64
1, 562704, Note_off_c, 0, 45, 64
1, 562704, Note_on_c, 0, 53, 64
1, 562800, Note_on_c, 0, 45, 64
1, 562800, Note_off_c, 0, 53, 64
1, 562848, Note_off_c, 0, 45, 64
1, 562848, Note_on_c, 0, 55, 88
1, 562896, Note_on_c, 0, 53, 64
1, 562896, Note_off_c, 0, 55, 88
1, 562944, Note_on_c, 0, 36, 100
1, 562944, Note_off_c, 0, 53, 64
1, 563040, Note_off_c, 0, 36, 100
1, 563040, Note_on_c, 0, 52, 64
1, 563136, Note_off_c, 0, 52, 64
1, 563184, Note_on_c, 0, 62, 88
1, 563280, Note_on_c, 0, 60, 64
1, 563280, Note_off_c, 0, 62, 88
1, 563328, Note_on_c, 0, 43, 100
1, 563328, Note_off_c, 0, 60, 64
1, 563376, Note_off_c, 0, 43, 100
1, 563376, Note_on_c, 0, 52, 64
1, 563472, Note_off_c, 0, 52, 64
1, 563472, Note_on_c, 0, 60, 64
1, 563520, Note_on_c, 0, 43, 100
1, 563568, Note_off_c, 0, 43, 100
1, 563568, Note_on_c, 0, 52, 64
1, 563568, Note_off_c, 0, 60, 64
1, 563616, Note_off_c, 0, 52, 64
1, 563616, Note_on_c, 0, 62, 88
1, 563664, Note_on_c, 0, 60, 64
1, 563664, Note_off_c, 0, 62, 88
1, 563712, Note_on_c, 0, 57, 86
1, 563712, Note_off_c, 0, 60, 64
1, 563760, Note_on_c, 0, 64, 76
1, 563784, Note_off_c, 0, 57, 86
1, 563808, Note_on_c, 0, 72, 87
1, 563856, Note_off_c, 0, 64, 76
1, 563909, Note_off_c, 0, 72, 87
1, 563952, Note_on_c, 0, 64, 47
1, 564000, Note_on_c, 0, 72, 88
1, 564002, Note_off_c, 0, 64, 47
1, 564046, Note_off_c, 0, 72, 88
1, 564048, Note_on_c, 0, 71, 89
1, 564078, Note_off_c, 0, 71, 89
1, 564096, Note_on_c, 0, 76, 73
1, 564144, Note_on_c, 0, 72, 71
1, 564144, Note_off_c, 0, 76, 73
1, 564192, Note_on_c, 0, 69, 64
1, 564192, Note_off_c, 0, 72, 71
1, 564240, Note_on_c, 0, 64, 61
1, 564240, Note_off_c, 0, 69, 64
1, 564288, Note_on_c, 0, 57, 75
1, 564288, Note_off_c, 0, 64, 61
1, 564336, Note_off_c, 0, 57, 75
1, 564384, Note_on_c, 0, 69, 72
1, 564419, Note_off_c, 0, 69, 72
1, 564432, Note_on_c, 0, 64, 57
1, 564458, Note_off_c, 0, 64, 57
1, 564480, Note_on_c, 0, 53, 72
1, 564528, Note_off_c, 0, 53, 72
1, 564528, Note_on_c, 0, 60, 56
1, 564576, Note_off_c, 0, 60, 56
1, 564576, Note_on_c, 0, 65, 74
1, 564624, Note_off_c, 0, 65, 74
1, 564624, Note_on_c, 0, 69, 74
1, 564675, Note_off_c, 0, 69, 74
1, 564720, Note_on_c, 0, 60, 55
1, 564761, Note_off_c, 0, 60, 55
1, 564768, Note_on_c, 0, 69, 93
1, 564811, Note_off_c, 0, 69, 93
1, 564816, Note_on_c, 0, 67, 81
1, 564858, Note_off_c, 0, 67, 81
1, 564864, Note_on_c, 0, 57, 57
1, 564912, Note_off_c, 0, 57, 57
1, 564912, Note_on_c, 0, 64, 50
1, 564960, Note_off_c, 0, 64, 50
1, 564960, Note_on_c, 0, 69, 63
1, 565008, Note_on_c, 0, 72, 74
1, 565014, Note_off_c, 0, 69, 63
1, 565056, Note_on_c, 0, 76, 76
1, 565064, Note_off_c, 0, 72, 74
1, 565104, Note_off_c, 0, 76, 76
1, 565152, Note_on_c, 0, 72, 79
1, 565195, Note_off_c, 0, 72, 79
1, 565200, Note_on_c, 0, 69, 39
1, 565226, Note_off_c, 0, 69, 39
1, 565248, Note_on_c, 0, 57, 76
1, 565272, Note_off_c, 0, 57, 76
1, 565272, Note_on_c, 0, 64, 76
1, 565296, Note_off_c, 0, 64, 76
1, 565296, Note_on_c, 0, 72, 76
1, 565320, Note_off_c, 0, 72, 76
1, 565344, Note_on_c, 0, 57, 76
1, 565368, Note_off_c, 0, 57, 76
1, 565368, Note_on_c, 0, 64, 76
1, 565392, Note_off_c, 0, 64, 76
1, 565392, Note_on_c, 0, 72, 76
1, 565416, Note_off_c, 0, 72, 76
1, 565440, Note_on_c, 0, 64, 76
1, 565464, Note_off_c, 0, 64, 76
1, 565464, Note_on_c, 0, 72, 76
1, 565488, Note_on_c, 0, 71, 76
1, 565488, Note_off_c, 0, 72, 76
1, 565512, Note_off_c, 0, 71, 76
1, 565536, Note_on_c, 0, 64, 76
1, 565560, Note_off_c, 0, 64, 76
1, 565560, Note_on_c, 0, 72, 76
1, 565584, Note_on_c, 0, 71, 76
1, 565584, Note_off_c, 0, 72, 76
1, 565608, Note_off_c, 0, 71, 76
1, 565632, Note_on_c, 0, 57, 76
1, 565656, Note_off_c, 0, 57, 76
1, 565656, Note_on_c, 0, 76, 76
1, 565680, Note_on_c, 0, 72, 76
1, 565680, Note_off_c, 0, 76, 76
1, 565704, Note_on_c, 0, 69, 76
1, 565704, Note_off_c, 0, 72, 76
1, 565728, Note_on_c, 0, 57, 76
1, 565728, Note_off_c, 0, 69, 76
1, 565752, Note_off_c, 0, 57, 76
1, 565752, Note_on_c, 0, 76, 76
1, 565776, Note_on_c, 0, 72, 76
1, 565776, Note_off_c, 0, 76, 76
1, 565800, Note_on_c, 0, 64, 76
1, 565800, Note_off_c, 0, 72, 76
1, 565824, Note_on_c, 0, 57, 76
1, 565824, Note_off_c, 0, 64, 76
1, 565848, Note_off_c, 0, 57, 76
1, 565848, Note_on_c, 0, 64, 76
1, 565872, Note_off_c, 0, 64, 76
1, 565872, Note_on_c, 0, 71, 76
1, 565896, Note_on_c, 0, 67, 76
1, 565896, Note_off_c, 0, 71, 76
1, 565920, Note_on_c, 0, 57, 76
1, 565922, Note_off_c, 0, 67, 76
1, 565944, Note_off_c, 0, 57, 76
1, 565944, Note_on_c, 0, 69, 76
1, 565968, Note_on_c, 0, 64, 76
1, 565968, Note_off_c, 0, 69, 76
1, 565992, Note_on_c, 0, 67, 76
1, 565994, Note_off_c, 0, 64, 76
1, 566016, Note_on_c, 0, 53, 76
1, 566016, Note_off_c, 0, 67, 76
1, 566040, Note_off_c, 0, 53, 76
1, 566040, Note_on_c, 0, 60, 76
1, 566064, Note_off_c, 0, 60, 76
1, 566064, Note_on_c, 0, 65, 76
1, 566088, Note_off_c, 0, 65, 76
1, 566088, Note_on_c, 0, 69, 76
1, 566112, Note_on_c, 0, 53, 76
1, 566112, Note_off_c, 0, 69, 76
1, 566136, Note_off_c, 0, 53, 76
1, 566136, Note_on_c, 0, 60, 76
1, 566160, Note_off_c, 0, 60, 76
1, 566160, Note_on_c, 0, 65, 76
1, 566184, Note_off_c, 0, 65, 76
1, 566184, Note_on_c, 0, 67, 76
1, 566208, Note_on_c, 0, 53, 76
1, 566208, Note_off_c, 0, 67, 76
1, 566232, Note_off_c, 0, 53, 76
1, 566232, Note_on_c, 0, 60, 76
1, 566256, Note_off_c, 0, 60, 76
1, 566256, Note_on_c, 0, 69, 76
1, 566280, Note_on_c, 0, 67, 76
1, 566280, Note_off_c, 0, 69, 76
1, 566304, Note_on_c, 0, 53, 76
1, 566304, Note_off_c, 0, 67, 76
1, 566328, Note_off_c, 0, 53, 76
1, 566328, Note_on_c, 0, 60, 76
1, 566352, Note_off_c, 0, 60, 76
1, 566352, Note_on_c, 0, 69, 76
1, 566376, Note_on_c, 0, 67, 76
1, 566376, Note_off_c, 0, 69, 76
1, 566400, Note_on_c, 0, 57, 76
1, 566400, Note_off_c, 0, 67, 76
1, 566424, Note_off_c, 0, 57, 76
1, 566424, Note_on_c, 0, 64, 76
1, 566448, Note_off_c, 0, 64, 76
1, 566448, Note_on_c, 0, 69, 76
1, 566472, Note_off_c, 0, 69, 76
1, 566472, Note_on_c, 0, 72, 76
1, 566496, Note_on_c, 0, 57, 76
1, 566496, Note_off_c, 0, 72, 76
1, 566520, Note_off_c, 0, 57, 76
1, 566520, Note_on_c, 0, 64, 76
1, 566544, Note_off_c, 0, 64, 76
1, 566544, Note_on_c, 0, 69, 76
1, 566568, Note_off_c, 0, 69, 76
1, 566568, Note_on_c, 0, 72, 76
1, 566592, Note_on_c, 0, 57, 76
1, 566592, Note_off_c, 0, 72, 76
1, 566616, Note_off_c, 0, 57, 76
1, 566616, Note_on_c, 0, 76, 76
1, 566640, Note_on_c, 0, 72, 76
1, 566640, Note_off_c, 0, 76, 76
1, 566664, Note_on_c, 0, 69, 76
1, 566664, Note_off_c, 0, 72, 76
1, 566688, Note_on_c, 0, 57, 76
1, 566688, Note_off_c, 0, 69, 76
1, 566712, Note_off_c, 0, 57, 76
1, 566712, Note_on_c, 0, 76, 76
1, 566736, Note_on_c, 0, 72, 76
1, 566736, Note_off_c, 0, 76, 76
1, 566760, Note_on_c, 0, 69, 76
1, 566760, Note_off_c, 0, 72, 76
1, 566784, Note_off_c, 0, 69, 76
